<?xml version="1.0" encoding="UTF-8" standalone="no"?>
<!DOCTYPE svg PUBLIC "-//W3C//DTD SVG 1.1//EN"
 "http://www.w3.org/Graphics/SVG/1.1/DTD/svg11.dtd">
<!-- Generated by graphviz version 2.38.0 (20140413.2041)
 -->
<!-- Title: G Pages: 1 -->
<svg width="987pt" height="198pt"
 viewBox="0.00 0.00 987.43 198.00" xmlns="http://www.w3.org/2000/svg" xmlns:xlink="http://www.w3.org/1999/xlink">
<g id="graph0" class="graph" transform="scale(1 1) rotate(0) translate(4 194)">
<title>G</title>
<polygon fill="white" stroke="none" points="-4,4 -4,-194 983.429,-194 983.429,4 -4,4"/>
<!-- Controller -->
<g id="node1" class="node"><title>Controller</title>
<ellipse fill="none" stroke="black" cx="58.4948" cy="-72" rx="58.4896" ry="18"/>
<text text-anchor="middle" x="58.4948" y="-68.3" font-family="Times,serif" font-size="14.00">Controller</text>
</g>
<!-- Service -->
<g id="node2" class="node"><title>Service</title>
<ellipse fill="none" stroke="black" cx="243.982" cy="-126" rx="45.4919" ry="18"/>
<text text-anchor="middle" x="243.982" y="-122.3" font-family="Times,serif" font-size="14.00">Service</text>
</g>
<!-- Controller&#45;&gt;Service -->
<g id="edge1" class="edge"><title>Controller&#45;&gt;Service</title>
<path fill="none" stroke="black" d="M101.59,-84.3887C130.203,-92.8093 168.035,-103.943 197.365,-112.575"/>
<polygon fill="black" stroke="black" points="196.379,-115.933 206.961,-115.399 198.355,-109.218 196.379,-115.933"/>
</g>
<!-- View -->
<g id="node6" class="node"><title>View</title>
<ellipse fill="none" stroke="black" cx="243.982" cy="-72" rx="33.5952" ry="18"/>
<text text-anchor="middle" x="243.982" y="-68.3" font-family="Times,serif" font-size="14.00">View</text>
</g>
<!-- Controller&#45;&gt;View -->
<g id="edge7" class="edge"><title>Controller&#45;&gt;View</title>
<path fill="none" stroke="black" d="M117.048,-72C143.809,-72 175.098,-72 199.794,-72"/>
<polygon fill="black" stroke="black" points="199.942,-75.5001 209.942,-72 199.942,-68.5001 199.942,-75.5001"/>
</g>
<!-- ControllerHelper -->
<g id="node7" class="node"><title>ControllerHelper</title>
<ellipse fill="none" stroke="black" cx="243.982" cy="-18" rx="90.9839" ry="18"/>
<text text-anchor="middle" x="243.982" y="-14.3" font-family="Times,serif" font-size="14.00">ControllerHelper</text>
</g>
<!-- Controller&#45;&gt;ControllerHelper -->
<g id="edge8" class="edge"><title>Controller&#45;&gt;ControllerHelper</title>
<path fill="none" stroke="black" d="M101.59,-59.6113C125.514,-52.5706 155.883,-43.633 182.339,-35.8471"/>
<polygon fill="black" stroke="black" points="183.66,-39.1068 192.265,-32.9258 181.684,-32.3915 183.66,-39.1068"/>
</g>
<!-- Model -->
<g id="node3" class="node"><title>Model</title>
<ellipse fill="none" stroke="black" cx="758.845" cy="-172" rx="40.0939" ry="18"/>
<text text-anchor="middle" x="758.845" y="-168.3" font-family="Times,serif" font-size="14.00">Model</text>
</g>
<!-- Service&#45;&gt;Model -->
<g id="edge2" class="edge"><title>Service&#45;&gt;Model</title>
<path fill="none" stroke="black" d="M283.44,-134.991C308.32,-140.622 341.456,-147.775 370.973,-153 440.306,-165.274 457.623,-170.099 527.863,-175 596.445,-179.785 613.813,-176.369 682.549,-175 690.825,-174.835 699.61,-174.569 708.147,-174.261"/>
<polygon fill="black" stroke="black" points="708.527,-177.749 718.385,-173.868 708.259,-170.754 708.527,-177.749"/>
</g>
<!-- LibService -->
<g id="node4" class="node"><title>LibService</title>
<ellipse fill="none" stroke="black" cx="431.418" cy="-126" rx="60.3893" ry="18"/>
<text text-anchor="middle" x="431.418" y="-122.3" font-family="Times,serif" font-size="14.00">LibService</text>
</g>
<!-- Service&#45;&gt;LibService -->
<g id="edge3" class="edge"><title>Service&#45;&gt;LibService</title>
<path fill="none" stroke="black" d="M289.871,-126C311.161,-126 337.084,-126 360.842,-126"/>
<polygon fill="black" stroke="black" points="360.872,-129.5 370.872,-126 360.872,-122.5 360.872,-129.5"/>
</g>
<!-- ServiceHelper -->
<g id="node8" class="node"><title>ServiceHelper</title>
<ellipse fill="none" stroke="black" cx="605.206" cy="-72" rx="77.1866" ry="18"/>
<text text-anchor="middle" x="605.206" y="-68.3" font-family="Times,serif" font-size="14.00">ServiceHelper</text>
</g>
<!-- Service&#45;&gt;ServiceHelper -->
<g id="edge9" class="edge"><title>Service&#45;&gt;ServiceHelper</title>
<path fill="none" stroke="black" d="M283.399,-116.766C308.262,-111.039 341.396,-103.87 370.973,-99 421.173,-90.735 477.862,-84.1112 522.781,-79.493"/>
<polygon fill="black" stroke="black" points="523.168,-82.9718 532.763,-78.4797 522.461,-76.0076 523.168,-82.9718"/>
</g>
<!-- ModelHepler -->
<g id="node9" class="node"><title>ModelHepler</title>
<ellipse fill="none" stroke="black" cx="907.285" cy="-149" rx="72.2875" ry="18"/>
<text text-anchor="middle" x="907.285" y="-145.3" font-family="Times,serif" font-size="14.00">ModelHepler</text>
</g>
<!-- Model&#45;&gt;ModelHepler -->
<g id="edge11" class="edge"><title>Model&#45;&gt;ModelHepler</title>
<path fill="none" stroke="black" d="M797.177,-166.137C808.927,-164.291 822.315,-162.189 835.591,-160.103"/>
<polygon fill="black" stroke="black" points="836.358,-163.526 845.694,-158.517 835.272,-156.611 836.358,-163.526"/>
</g>
<!-- LibService&#45;&gt;Model -->
<g id="edge6" class="edge"><title>LibService&#45;&gt;Model</title>
<path fill="none" stroke="black" d="M472.884,-139.317C489.715,-144.365 509.562,-149.688 527.863,-153 589.437,-164.145 661.484,-168.763 708.305,-170.67"/>
<polygon fill="black" stroke="black" points="708.354,-174.174 718.48,-171.058 708.621,-167.179 708.354,-174.174"/>
</g>
<!-- ExModel -->
<g id="node5" class="node"><title>ExModel</title>
<ellipse fill="none" stroke="black" cx="605.206" cy="-126" rx="51.9908" ry="18"/>
<text text-anchor="middle" x="605.206" y="-122.3" font-family="Times,serif" font-size="14.00">ExModel</text>
</g>
<!-- LibService&#45;&gt;ExModel -->
<g id="edge4" class="edge"><title>LibService&#45;&gt;ExModel</title>
<path fill="none" stroke="black" d="M492.019,-126C508.471,-126 526.346,-126 542.893,-126"/>
<polygon fill="black" stroke="black" points="542.999,-129.5 552.999,-126 542.999,-122.5 542.999,-129.5"/>
</g>
<!-- LibService&#45;&gt;ServiceHelper -->
<g id="edge10" class="edge"><title>LibService&#45;&gt;ServiceHelper</title>
<path fill="none" stroke="black" d="M473.566,-113.066C495.987,-106.018 524.051,-97.1959 548.416,-89.537"/>
<polygon fill="black" stroke="black" points="549.762,-92.783 558.252,-86.4452 547.663,-86.1051 549.762,-92.783"/>
</g>
<!-- ExModel&#45;&gt;Model -->
<g id="edge5" class="edge"><title>ExModel&#45;&gt;Model</title>
<path fill="none" stroke="black" d="M644.863,-137.727C666.322,-144.236 693.057,-152.346 715.132,-159.043"/>
<polygon fill="black" stroke="black" points="714.326,-162.456 724.911,-162.009 716.358,-155.757 714.326,-162.456"/>
</g>
<!-- ExModel&#45;&gt;ModelHepler -->
<g id="edge12" class="edge"><title>ExModel&#45;&gt;ModelHepler</title>
<path fill="none" stroke="black" d="M656.095,-129.824C702.83,-133.406 773.424,-138.817 827.722,-142.978"/>
<polygon fill="black" stroke="black" points="827.768,-146.492 838.006,-143.767 828.303,-139.513 827.768,-146.492"/>
</g>
</g>
</svg>
