<?xml version="1.0" encoding="UTF-8" standalone="no"?>
<!DOCTYPE svg PUBLIC "-//W3C//DTD SVG 1.1//EN"
 "http://www.w3.org/Graphics/SVG/1.1/DTD/svg11.dtd">
<!-- Generated by graphviz version 2.38.0 (20140413.2041)
 -->
<!-- Title: G Pages: 1 -->
<svg width="665pt" height="105pt"
 viewBox="0.00 0.00 665.45 105.00" xmlns="http://www.w3.org/2000/svg" xmlns:xlink="http://www.w3.org/1999/xlink">
<g id="graph0" class="graph" transform="scale(1 1) rotate(0) translate(4 101)">
<title>G</title>
<polygon fill="white" stroke="none" points="-4,4 -4,-101 661.454,-101 661.454,4 -4,4"/>
<!-- Controller -->
<g id="node1" class="node"><title>Controller</title>
<ellipse fill="none" stroke="black" cx="58.4948" cy="-52" rx="58.4896" ry="18"/>
<text text-anchor="middle" x="58.4948" y="-48.3" font-family="Times,serif" font-size="14.00">Controller</text>
</g>
<!-- Service -->
<g id="node2" class="node"><title>Service</title>
<ellipse fill="none" stroke="black" cx="198.486" cy="-79" rx="45.4919" ry="18"/>
<text text-anchor="middle" x="198.486" y="-75.3" font-family="Times,serif" font-size="14.00">Service</text>
</g>
<!-- Controller&#45;&gt;Service -->
<g id="edge1" class="edge"><title>Controller&#45;&gt;Service</title>
<path fill="none" stroke="black" d="M108.145,-61.5192C120.88,-64.011 134.631,-66.7016 147.438,-69.2074"/>
<polygon fill="black" stroke="black" points="146.983,-72.6846 157.469,-71.1701 148.327,-65.8149 146.983,-72.6846"/>
</g>
<!-- View -->
<g id="node6" class="node"><title>View</title>
<ellipse fill="none" stroke="black" cx="198.486" cy="-25" rx="33.5952" ry="18"/>
<text text-anchor="middle" x="198.486" y="-21.3" font-family="Times,serif" font-size="14.00">View</text>
</g>
<!-- Controller&#45;&gt;View -->
<g id="edge7" class="edge"><title>Controller&#45;&gt;View</title>
<path fill="none" stroke="black" d="M108.145,-42.4808C123.907,-39.3969 141.224,-36.0085 156.381,-33.0427"/>
<polygon fill="black" stroke="black" points="157.342,-36.4211 166.484,-31.0659 155.998,-29.5513 157.342,-36.4211"/>
</g>
<!-- Model -->
<g id="node3" class="node"><title>Model</title>
<ellipse fill="none" stroke="black" cx="617.158" cy="-64" rx="40.0939" ry="18"/>
<text text-anchor="middle" x="617.158" y="-60.3" font-family="Times,serif" font-size="14.00">Model</text>
</g>
<!-- Service&#45;&gt;Model -->
<g id="edge2" class="edge"><title>Service&#45;&gt;Model</title>
<path fill="none" stroke="black" d="M243.757,-81.5955C255.526,-82.1773 268.232,-82.7082 279.982,-83 395.961,-85.8799 425.404,-85.365 540.862,-74 549.825,-73.1177 559.364,-71.9945 568.535,-70.8216"/>
<polygon fill="black" stroke="black" points="569.224,-74.2612 578.682,-69.4865 568.311,-67.321 569.224,-74.2612"/>
</g>
<!-- LibService -->
<g id="node4" class="node"><title>LibService</title>
<ellipse fill="none" stroke="black" cx="340.426" cy="-56" rx="60.3893" ry="18"/>
<text text-anchor="middle" x="340.426" y="-52.3" font-family="Times,serif" font-size="14.00">LibService</text>
</g>
<!-- Service&#45;&gt;LibService -->
<g id="edge3" class="edge"><title>Service&#45;&gt;LibService</title>
<path fill="none" stroke="black" d="M240.715,-72.2236C252.053,-70.3602 264.609,-68.2966 276.859,-66.2832"/>
<polygon fill="black" stroke="black" points="277.744,-69.6849 287.044,-64.6093 276.609,-62.7775 277.744,-69.6849"/>
</g>
<!-- LibService&#45;&gt;Model -->
<g id="edge6" class="edge"><title>LibService&#45;&gt;Model</title>
<path fill="none" stroke="black" d="M400.701,-57.726C450.268,-59.1694 520.15,-61.2043 566.74,-62.561"/>
<polygon fill="black" stroke="black" points="566.795,-66.064 576.893,-62.8566 566.999,-59.0669 566.795,-66.064"/>
</g>
<!-- ExModel -->
<g id="node5" class="node"><title>ExModel</title>
<ellipse fill="none" stroke="black" cx="488.866" cy="-18" rx="51.9908" ry="18"/>
<text text-anchor="middle" x="488.866" y="-14.3" font-family="Times,serif" font-size="14.00">ExModel</text>
</g>
<!-- LibService&#45;&gt;ExModel -->
<g id="edge4" class="edge"><title>LibService&#45;&gt;ExModel</title>
<path fill="none" stroke="black" d="M386.558,-44.2887C402.425,-40.1712 420.367,-35.5154 436.696,-31.2784"/>
<polygon fill="black" stroke="black" points="437.82,-34.6025 446.621,-28.7029 436.062,-27.8269 437.82,-34.6025"/>
</g>
<!-- ExModel&#45;&gt;Model -->
<g id="edge5" class="edge"><title>ExModel&#45;&gt;Model</title>
<path fill="none" stroke="black" d="M525.382,-30.936C540.969,-36.6136 559.355,-43.3104 575.489,-49.187"/>
<polygon fill="black" stroke="black" points="574.605,-52.5898 585.199,-52.7237 577.001,-46.0126 574.605,-52.5898"/>
</g>
</g>
</svg>
