<?xml version="1.0" encoding="UTF-8" standalone="no"?>
<!DOCTYPE svg PUBLIC "-//W3C//DTD SVG 1.1//EN"
 "http://www.w3.org/Graphics/SVG/1.1/DTD/svg11.dtd">
<!-- Generated by graphviz version 2.38.0 (20140413.2041)
 -->
<!-- Title: G Pages: 1 -->
<svg width="893pt" height="234pt"
 viewBox="0.00 0.00 892.93 234.00" xmlns="http://www.w3.org/2000/svg" xmlns:xlink="http://www.w3.org/1999/xlink">
<g id="graph0" class="graph" transform="scale(1 1) rotate(0) translate(4 230)">
<title>G</title>
<polygon fill="white" stroke="none" points="-4,4 -4,-230 888.934,-230 888.934,4 -4,4"/>
<!-- Controller -->
<g id="node1" class="node"><title>Controller</title>
<ellipse fill="none" stroke="black" cx="46.7958" cy="-72" rx="46.5926" ry="18"/>
<text text-anchor="middle" x="46.7958" y="-68.3" font-family="Times,serif" font-size="14.00">Controller</text>
</g>
<!-- Business -->
<g id="node2" class="node"><title>Business</title>
<ellipse fill="none" stroke="black" cx="218.634" cy="-135" rx="42.4939" ry="18"/>
<text text-anchor="middle" x="218.634" y="-131.3" font-family="Times,serif" font-size="14.00">Business</text>
</g>
<!-- Controller&#45;&gt;Business -->
<g id="edge1" class="edge"><title>Controller&#45;&gt;Business</title>
<path fill="none" stroke="black" d="M81.3504,-84.4468C108.709,-94.5953 147.462,-108.97 176.653,-119.799"/>
<polygon fill="black" stroke="black" points="175.563,-123.127 186.156,-123.324 177.998,-116.564 175.563,-123.127"/>
</g>
<!-- View -->
<g id="node6" class="node"><title>View</title>
<ellipse fill="none" stroke="black" cx="218.634" cy="-72" rx="29.795" ry="18"/>
<text text-anchor="middle" x="218.634" y="-68.3" font-family="Times,serif" font-size="14.00">View</text>
</g>
<!-- Controller&#45;&gt;View -->
<g id="edge6" class="edge"><title>Controller&#45;&gt;View</title>
<path fill="none" stroke="black" d="M93.7564,-72C120.232,-72 153.157,-72 178.408,-72"/>
<polygon fill="black" stroke="black" points="178.718,-75.5001 188.718,-72 178.718,-68.5001 178.718,-75.5001"/>
</g>
<!-- ControllerHelper -->
<g id="node7" class="node"><title>ControllerHelper</title>
<ellipse fill="none" stroke="black" cx="218.634" cy="-18" rx="89.0842" ry="18"/>
<text text-anchor="middle" x="218.634" y="-14.3" font-family="Times,serif" font-size="14.00">ControllerHelper as C</text>
</g>
<!-- Controller&#45;&gt;ControllerHelper -->
<g id="edge7" class="edge"><title>Controller&#45;&gt;ControllerHelper</title>
<path fill="none" stroke="black" d="M82.7702,-60.274C97.2395,-55.4701 114.202,-49.8992 129.592,-45 138.961,-42.0174 148.91,-38.9096 158.619,-35.9089"/>
<polygon fill="black" stroke="black" points="159.691,-39.241 168.217,-32.9525 157.63,-32.5512 159.691,-39.241"/>
</g>
<!-- Model -->
<g id="node3" class="node"><title>Model</title>
<ellipse fill="none" stroke="black" cx="607.806" cy="-208" rx="34.394" ry="18"/>
<text text-anchor="middle" x="607.806" y="-204.3" font-family="Times,serif" font-size="14.00">Model</text>
</g>
<!-- Business&#45;&gt;Model -->
<g id="edge2" class="edge"><title>Business&#45;&gt;Model</title>
<path fill="none" stroke="black" d="M248.564,-148.112C273.301,-158.739 310.121,-173.19 343.676,-181 419.571,-198.665 510.462,-204.775 563.123,-206.886"/>
<polygon fill="black" stroke="black" points="563.007,-210.384 573.13,-207.257 563.267,-203.389 563.007,-210.384"/>
</g>
<!-- Lib -->
<g id="node4" class="node"><title>Lib</title>
<ellipse fill="none" stroke="black" cx="415.819" cy="-154" rx="27" ry="18"/>
<text text-anchor="middle" x="415.819" y="-150.3" font-family="Times,serif" font-size="14.00">Lib</text>
</g>
<!-- Business&#45;&gt;Lib -->
<g id="edge3" class="edge"><title>Business&#45;&gt;Lib</title>
<path fill="none" stroke="black" d="M260.076,-138.937C295.039,-142.34 345.112,-147.214 378.738,-150.488"/>
<polygon fill="black" stroke="black" points="378.745,-154.005 389.037,-151.49 379.423,-147.038 378.745,-154.005"/>
</g>
<!-- BusinessHelper -->
<g id="node8" class="node"><title>BusinessHelper</title>
<ellipse fill="none" stroke="black" cx="607.806" cy="-100" rx="83.6854" ry="18"/>
<text text-anchor="middle" x="607.806" y="-96.3" font-family="Times,serif" font-size="14.00">BusinessHelper as B</text>
</g>
<!-- Business&#45;&gt;BusinessHelper -->
<g id="edge8" class="edge"><title>Business&#45;&gt;BusinessHelper</title>
<path fill="none" stroke="black" d="M260.336,-131.321C321.592,-125.783 438.918,-115.177 519.95,-107.852"/>
<polygon fill="black" stroke="black" points="520.497,-111.317 530.141,-106.93 519.867,-104.345 520.497,-111.317"/>
</g>
<!-- ModelHepler -->
<g id="node9" class="node"><title>ModelHepler</title>
<ellipse fill="none" stroke="black" cx="806.291" cy="-181" rx="78.7863" ry="18"/>
<text text-anchor="middle" x="806.291" y="-177.3" font-family="Times,serif" font-size="14.00">ModelHepler as M</text>
</g>
<!-- Model&#45;&gt;ModelHepler -->
<g id="edge10" class="edge"><title>Model&#45;&gt;ModelHepler</title>
<path fill="none" stroke="black" d="M641.251,-203.541C664.95,-200.285 698.103,-195.729 728.406,-191.565"/>
<polygon fill="black" stroke="black" points="729.126,-194.999 738.556,-190.17 728.173,-188.064 729.126,-194.999"/>
</g>
<!-- Lib&#45;&gt;Model -->
<g id="edge5" class="edge"><title>Lib&#45;&gt;Model</title>
<path fill="none" stroke="black" d="M440.881,-160.839C472.687,-169.879 529.14,-185.925 567.261,-196.76"/>
<polygon fill="black" stroke="black" points="566.435,-200.164 577.011,-199.531 568.349,-193.431 566.435,-200.164"/>
</g>
<!-- ExModel -->
<g id="node5" class="node"><title>ExModel</title>
<ellipse fill="none" stroke="black" cx="607.806" cy="-154" rx="44.393" ry="18"/>
<text text-anchor="middle" x="607.806" y="-150.3" font-family="Times,serif" font-size="14.00">ExModel</text>
</g>
<!-- Lib&#45;&gt;ExModel -->
<g id="edge4" class="edge"><title>Lib&#45;&gt;ExModel</title>
<path fill="none" stroke="black" d="M442.838,-154C471.049,-154 516.869,-154 552.911,-154"/>
<polygon fill="black" stroke="black" points="553.272,-157.5 563.272,-154 553.272,-150.5 553.272,-157.5"/>
</g>
<!-- Lib&#45;&gt;BusinessHelper -->
<g id="edge9" class="edge"><title>Lib&#45;&gt;BusinessHelper</title>
<path fill="none" stroke="black" d="M440.881,-147.161C467.349,-139.638 510.886,-127.263 546.722,-117.078"/>
<polygon fill="black" stroke="black" points="547.943,-120.369 556.606,-114.268 546.03,-113.636 547.943,-120.369"/>
</g>
<!-- ExModel&#45;&gt;ModelHepler -->
<g id="edge11" class="edge"><title>ExModel&#45;&gt;ModelHepler</title>
<path fill="none" stroke="black" d="M649.995,-159.66C672.646,-162.773 701.489,-166.736 728.155,-170.4"/>
<polygon fill="black" stroke="black" points="727.867,-173.894 738.251,-171.788 728.82,-166.959 727.867,-173.894"/>
</g>
<!-- ViewHepler -->
<g id="node10" class="node"><title>ViewHepler</title>
<ellipse fill="none" stroke="black" cx="415.819" cy="-62" rx="72.2875" ry="18"/>
<text text-anchor="middle" x="415.819" y="-58.3" font-family="Times,serif" font-size="14.00">ViewHepler as V</text>
</g>
<!-- View&#45;&gt;ViewHepler -->
<g id="edge12" class="edge"><title>View&#45;&gt;ViewHepler</title>
<path fill="none" stroke="black" d="M248.434,-70.5245C271.204,-69.3579 304.14,-67.6704 334.71,-66.1042"/>
<polygon fill="black" stroke="black" points="335.161,-69.5858 344.969,-65.5787 334.803,-62.595 335.161,-69.5858"/>
</g>
</g>
</svg>
