<?xml version="1.0" encoding="UTF-8" standalone="no"?>
<!DOCTYPE svg PUBLIC "-//W3C//DTD SVG 1.1//EN"
 "http://www.w3.org/Graphics/SVG/1.1/DTD/svg11.dtd">
<!-- Generated by graphviz version 2.38.0 (20140413.2041)
 -->
<!-- Title: G Pages: 1 -->
<svg width="1188pt" height="226pt"
 viewBox="0.00 0.00 1187.61 226.00" xmlns="http://www.w3.org/2000/svg" xmlns:xlink="http://www.w3.org/1999/xlink">
<g id="graph0" class="graph" transform="scale(1 1) rotate(0) translate(4 222)">
<title>G</title>
<polygon fill="white" stroke="none" points="-4,4 -4,-222 1183.61,-222 1183.61,4 -4,4"/>
<!-- Controller -->
<g id="node1" class="node"><title>Controller</title>
<ellipse fill="none" stroke="black" cx="58.4948" cy="-72" rx="58.4896" ry="18"/>
<text text-anchor="middle" x="58.4948" y="-68.3" font-family="Times,serif" font-size="14.00">Controller</text>
</g>
<!-- Service -->
<g id="node2" class="node"><title>Service</title>
<ellipse fill="none" stroke="black" cx="267.379" cy="-145" rx="45.4919" ry="18"/>
<text text-anchor="middle" x="267.379" y="-141.3" font-family="Times,serif" font-size="14.00">Service</text>
</g>
<!-- Controller&#45;&gt;Service -->
<g id="edge1" class="edge"><title>Controller&#45;&gt;Service</title>
<path fill="none" stroke="black" d="M97.9234,-85.5597C133.537,-98.1259 186.439,-116.793 223.43,-129.845"/>
<polygon fill="black" stroke="black" points="222.348,-133.175 232.942,-133.202 224.677,-126.573 222.348,-133.175"/>
</g>
<!-- View -->
<g id="node6" class="node"><title>View</title>
<ellipse fill="none" stroke="black" cx="267.379" cy="-72" rx="33.5952" ry="18"/>
<text text-anchor="middle" x="267.379" y="-68.3" font-family="Times,serif" font-size="14.00">View</text>
</g>
<!-- Controller&#45;&gt;View -->
<g id="edge7" class="edge"><title>Controller&#45;&gt;View</title>
<path fill="none" stroke="black" d="M117.124,-72C150.706,-72 192.362,-72 223.127,-72"/>
<polygon fill="black" stroke="black" points="223.523,-75.5001 233.523,-72 223.523,-68.5001 223.523,-75.5001"/>
</g>
<!-- ControllerHelper -->
<g id="node7" class="node"><title>ControllerHelper</title>
<ellipse fill="none" stroke="black" cx="267.379" cy="-18" rx="114.28" ry="18"/>
<text text-anchor="middle" x="267.379" y="-14.3" font-family="Times,serif" font-size="14.00">ControllerHelper as C</text>
</g>
<!-- Controller&#45;&gt;ControllerHelper -->
<g id="edge8" class="edge"><title>Controller&#45;&gt;ControllerHelper</title>
<path fill="none" stroke="black" d="M101.265,-59.4792C117.382,-54.7687 135.998,-49.4738 152.99,-45 165.543,-41.6948 178.925,-38.3507 191.932,-35.1947"/>
<polygon fill="black" stroke="black" points="192.883,-38.5658 201.785,-32.8217 191.244,-31.7604 192.883,-38.5658"/>
</g>
<!-- Model -->
<g id="node3" class="node"><title>Model</title>
<ellipse fill="none" stroke="black" cx="907.032" cy="-200" rx="40.0939" ry="18"/>
<text text-anchor="middle" x="907.032" y="-196.3" font-family="Times,serif" font-size="14.00">Model</text>
</g>
<!-- Service&#45;&gt;Model -->
<g id="edge2" class="edge"><title>Service&#45;&gt;Model</title>
<path fill="none" stroke="black" d="M304.93,-155.261C335.002,-163.35 378.851,-174.342 417.769,-181 598.938,-211.994 646.971,-206.659 830.736,-203 839.012,-202.835 847.797,-202.569 856.333,-202.261"/>
<polygon fill="black" stroke="black" points="856.713,-205.749 866.572,-201.868 856.445,-198.754 856.713,-205.749"/>
</g>
<!-- LibService -->
<g id="node4" class="node"><title>LibService</title>
<ellipse fill="none" stroke="black" cx="506.811" cy="-154" rx="60.3893" ry="18"/>
<text text-anchor="middle" x="506.811" y="-150.3" font-family="Times,serif" font-size="14.00">LibService</text>
</g>
<!-- Service&#45;&gt;LibService -->
<g id="edge3" class="edge"><title>Service&#45;&gt;LibService</title>
<path fill="none" stroke="black" d="M312.76,-146.682C347.456,-147.997 396.327,-149.85 436.215,-151.362"/>
<polygon fill="black" stroke="black" points="436.287,-154.867 446.412,-151.748 436.552,-147.872 436.287,-154.867"/>
</g>
<!-- ServiceHelper -->
<g id="node8" class="node"><title>ServiceHelper</title>
<ellipse fill="none" stroke="black" cx="731.295" cy="-100" rx="99.3824" ry="18"/>
<text text-anchor="middle" x="731.295" y="-96.3" font-family="Times,serif" font-size="14.00">ServiceHelper as S</text>
</g>
<!-- Service&#45;&gt;ServiceHelper -->
<g id="edge9" class="edge"><title>Service&#45;&gt;ServiceHelper</title>
<path fill="none" stroke="black" d="M310.836,-139.498C340.712,-135.721 381.651,-130.735 417.769,-127 488.455,-119.69 568.278,-112.818 629.559,-107.835"/>
<polygon fill="black" stroke="black" points="629.931,-111.317 639.616,-107.021 629.366,-104.34 629.931,-111.317"/>
</g>
<!-- ModelHepler -->
<g id="node9" class="node"><title>ModelHepler</title>
<ellipse fill="none" stroke="black" cx="1081.47" cy="-177" rx="98.2828" ry="18"/>
<text text-anchor="middle" x="1081.47" y="-173.3" font-family="Times,serif" font-size="14.00">ModelHepler as M</text>
</g>
<!-- Model&#45;&gt;ModelHepler -->
<g id="edge11" class="edge"><title>Model&#45;&gt;ModelHepler</title>
<path fill="none" stroke="black" d="M945.874,-194.953C959.503,-193.135 975.516,-190.999 991.651,-188.847"/>
<polygon fill="black" stroke="black" points="992.243,-192.299 1001.69,-187.507 991.317,-185.36 992.243,-192.299"/>
</g>
<!-- LibService&#45;&gt;Model -->
<g id="edge6" class="edge"><title>LibService&#45;&gt;Model</title>
<path fill="none" stroke="black" d="M553.472,-165.6C576.78,-171.097 605.672,-177.263 631.854,-181 709.733,-192.115 801.024,-196.794 856.147,-198.716"/>
<polygon fill="black" stroke="black" points="856.23,-202.221 866.341,-199.055 856.463,-195.225 856.23,-202.221"/>
</g>
<!-- ExModel -->
<g id="node5" class="node"><title>ExModel</title>
<ellipse fill="none" stroke="black" cx="731.295" cy="-154" rx="51.9908" ry="18"/>
<text text-anchor="middle" x="731.295" y="-150.3" font-family="Times,serif" font-size="14.00">ExModel</text>
</g>
<!-- LibService&#45;&gt;ExModel -->
<g id="edge4" class="edge"><title>LibService&#45;&gt;ExModel</title>
<path fill="none" stroke="black" d="M567.433,-154C598.908,-154 637.468,-154 669.165,-154"/>
<polygon fill="black" stroke="black" points="669.198,-157.5 679.198,-154 669.198,-150.5 669.198,-157.5"/>
</g>
<!-- LibService&#45;&gt;ServiceHelper -->
<g id="edge10" class="edge"><title>LibService&#45;&gt;ServiceHelper</title>
<path fill="none" stroke="black" d="M554.18,-142.746C585.012,-135.262 626.064,-125.298 660.776,-116.873"/>
<polygon fill="black" stroke="black" points="661.963,-120.187 670.855,-114.427 660.311,-113.384 661.963,-120.187"/>
</g>
<!-- ExModel&#45;&gt;Model -->
<g id="edge5" class="edge"><title>ExModel&#45;&gt;Model</title>
<path fill="none" stroke="black" d="M773.028,-164.785C799.826,-171.88 834.876,-181.16 862.267,-188.412"/>
<polygon fill="black" stroke="black" points="861.42,-191.809 871.983,-190.985 863.211,-185.042 861.42,-191.809"/>
</g>
<!-- ExModel&#45;&gt;ModelHepler -->
<g id="edge12" class="edge"><title>ExModel&#45;&gt;ModelHepler</title>
<path fill="none" stroke="black" d="M782.551,-157.32C833.586,-160.691 914.06,-166.007 978.511,-170.265"/>
<polygon fill="black" stroke="black" points="978.501,-173.772 988.71,-170.938 978.963,-166.787 978.501,-173.772"/>
</g>
<!-- ViewHepler -->
<g id="node10" class="node"><title>ViewHepler</title>
<ellipse fill="none" stroke="black" cx="506.811" cy="-62" rx="89.0842" ry="18"/>
<text text-anchor="middle" x="506.811" y="-58.3" font-family="Times,serif" font-size="14.00">ViewHepler as V</text>
</g>
<!-- View&#45;&gt;ViewHepler -->
<g id="edge13" class="edge"><title>View&#45;&gt;ViewHepler</title>
<path fill="none" stroke="black" d="M301.393,-70.6095C329.349,-69.4321 370.881,-67.6829 409.221,-66.0681"/>
<polygon fill="black" stroke="black" points="409.567,-69.5568 419.411,-65.639 409.272,-62.563 409.567,-69.5568"/>
</g>
</g>
</svg>
