<?xml version="1.0" encoding="UTF-8" standalone="no"?>
<!DOCTYPE svg PUBLIC "-//W3C//DTD SVG 1.1//EN"
 "http://www.w3.org/Graphics/SVG/1.1/DTD/svg11.dtd">
<!-- Generated by graphviz version 2.38.0 (20140413.2041)
 -->
<!-- Title: G Pages: 1 -->
<svg width="549pt" height="121pt"
 viewBox="0.00 0.00 548.86 121.00" xmlns="http://www.w3.org/2000/svg" xmlns:xlink="http://www.w3.org/1999/xlink">
<g id="graph0" class="graph" transform="scale(1 1) rotate(0) translate(4 117)">
<title>G</title>
<polygon fill="white" stroke="none" points="-4,4 -4,-117 544.862,-117 544.862,4 -4,4"/>
<!-- Controller -->
<g id="node1" class="node"><title>Controller</title>
<ellipse fill="none" stroke="black" cx="58.4948" cy="-45" rx="58.4896" ry="18"/>
<text text-anchor="middle" x="58.4948" y="-41.3" font-family="Times,serif" font-size="14.00">Controller</text>
</g>
<!-- Service -->
<g id="node2" class="node"><title>Service</title>
<ellipse fill="none" stroke="black" cx="198.486" cy="-72" rx="45.4919" ry="18"/>
<text text-anchor="middle" x="198.486" y="-68.3" font-family="Times,serif" font-size="14.00">Service</text>
</g>
<!-- Controller&#45;&gt;Service -->
<g id="edge1" class="edge"><title>Controller&#45;&gt;Service</title>
<path fill="none" stroke="black" d="M108.145,-54.5192C120.88,-57.011 134.631,-59.7016 147.438,-62.2074"/>
<polygon fill="black" stroke="black" points="146.983,-65.6846 157.469,-64.1701 148.327,-58.8149 146.983,-65.6846"/>
</g>
<!-- View -->
<g id="node6" class="node"><title>View</title>
<ellipse fill="none" stroke="black" cx="198.486" cy="-18" rx="33.5952" ry="18"/>
<text text-anchor="middle" x="198.486" y="-14.3" font-family="Times,serif" font-size="14.00">View</text>
</g>
<!-- Controller&#45;&gt;View -->
<g id="edge6" class="edge"><title>Controller&#45;&gt;View</title>
<path fill="none" stroke="black" d="M108.145,-35.4808C123.907,-32.3969 141.224,-29.0085 156.381,-26.0427"/>
<polygon fill="black" stroke="black" points="157.342,-29.4211 166.484,-24.0659 155.998,-22.5513 157.342,-29.4211"/>
</g>
<!-- Model -->
<g id="node3" class="node"><title>Model</title>
<ellipse fill="none" stroke="black" cx="488.866" cy="-95" rx="40.0939" ry="18"/>
<text text-anchor="middle" x="488.866" y="-91.3" font-family="Times,serif" font-size="14.00">Model</text>
</g>
<!-- Service&#45;&gt;Model -->
<g id="edge2" class="edge"><title>Service&#45;&gt;Model</title>
<path fill="none" stroke="black" d="M243.284,-75.4932C295.833,-79.6843 383.698,-86.692 438.575,-91.0687"/>
<polygon fill="black" stroke="black" points="438.509,-94.5745 448.756,-91.8807 439.066,-87.5967 438.509,-94.5745"/>
</g>
<!-- LibService -->
<g id="node4" class="node"><title>LibService</title>
<ellipse fill="none" stroke="black" cx="340.426" cy="-49" rx="60.3893" ry="18"/>
<text text-anchor="middle" x="340.426" y="-45.3" font-family="Times,serif" font-size="14.00">LibService</text>
</g>
<!-- Service&#45;&gt;LibService -->
<g id="edge3" class="edge"><title>Service&#45;&gt;LibService</title>
<path fill="none" stroke="black" d="M240.715,-65.2236C252.053,-63.3602 264.609,-61.2966 276.859,-59.2832"/>
<polygon fill="black" stroke="black" points="277.744,-62.6849 287.044,-57.6093 276.609,-55.7775 277.744,-62.6849"/>
</g>
<!-- LibService&#45;&gt;Model -->
<g id="edge5" class="edge"><title>LibService&#45;&gt;Model</title>
<path fill="none" stroke="black" d="M382.608,-61.936C402.292,-68.1193 425.825,-75.5115 445.642,-81.7366"/>
<polygon fill="black" stroke="black" points="444.743,-85.1226 455.332,-84.7804 446.841,-78.4444 444.743,-85.1226"/>
</g>
<!-- ExModel -->
<g id="node5" class="node"><title>ExModel</title>
<ellipse fill="none" stroke="black" cx="488.866" cy="-41" rx="51.9908" ry="18"/>
<text text-anchor="middle" x="488.866" y="-37.3" font-family="Times,serif" font-size="14.00">ExModel</text>
</g>
<!-- LibService&#45;&gt;ExModel -->
<g id="edge4" class="edge"><title>LibService&#45;&gt;ExModel</title>
<path fill="none" stroke="black" d="M400.145,-45.7922C408.953,-45.311 418.052,-44.8139 426.905,-44.3303"/>
<polygon fill="black" stroke="black" points="427.358,-47.8108 437.153,-43.7705 426.977,-40.8213 427.358,-47.8108"/>
</g>
</g>
</svg>
