<?xml version="1.0" encoding="UTF-8" standalone="no"?>
<!DOCTYPE svg PUBLIC "-//W3C//DTD SVG 1.1//EN"
 "http://www.w3.org/Graphics/SVG/1.1/DTD/svg11.dtd">
<!-- Generated by graphviz version 2.38.0 (20140413.2041)
 -->
<!-- Title: G Pages: 1 -->
<svg width="892pt" height="234pt"
 viewBox="0.00 0.00 891.63 234.00" xmlns="http://www.w3.org/2000/svg" xmlns:xlink="http://www.w3.org/1999/xlink">
<g id="graph0" class="graph" transform="scale(1 1) rotate(0) translate(4 230)">
<title>G</title>
<polygon fill="white" stroke="none" points="-4,4 -4,-230 887.634,-230 887.634,4 -4,4"/>
<!-- Controller -->
<g id="node1" class="node"><title>Controller</title>
<ellipse fill="none" stroke="black" cx="46.7958" cy="-72" rx="46.5926" ry="18"/>
<text text-anchor="middle" x="46.7958" y="-68.3" font-family="Times,serif" font-size="14.00">Controller</text>
</g>
<!-- Business -->
<g id="node2" class="node"><title>Business</title>
<ellipse fill="none" stroke="black" cx="218.634" cy="-135" rx="42.4939" ry="18"/>
<text text-anchor="middle" x="218.634" y="-131.3" font-family="Times,serif" font-size="14.00">Business</text>
</g>
<!-- Controller&#45;&gt;Business -->
<g id="edge1" class="edge"><title>Controller&#45;&gt;Business</title>
<path fill="none" stroke="black" d="M81.3504,-84.4468C108.709,-94.5953 147.462,-108.97 176.653,-119.799"/>
<polygon fill="black" stroke="black" points="175.563,-123.127 186.156,-123.324 177.998,-116.564 175.563,-123.127"/>
</g>
<!-- View -->
<g id="node6" class="node"><title>View</title>
<ellipse fill="none" stroke="black" cx="218.634" cy="-72" rx="29.795" ry="18"/>
<text text-anchor="middle" x="218.634" y="-68.3" font-family="Times,serif" font-size="14.00">View</text>
</g>
<!-- Controller&#45;&gt;View -->
<g id="edge6" class="edge"><title>Controller&#45;&gt;View</title>
<path fill="none" stroke="black" d="M93.7564,-72C120.232,-72 153.157,-72 178.408,-72"/>
<polygon fill="black" stroke="black" points="178.718,-75.5001 188.718,-72 178.718,-68.5001 178.718,-75.5001"/>
</g>
<!-- ControllerHelper -->
<g id="node7" class="node"><title>ControllerHelper</title>
<ellipse fill="none" stroke="black" cx="218.634" cy="-18" rx="89.0842" ry="18"/>
<text text-anchor="middle" x="218.634" y="-14.3" font-family="Times,serif" font-size="14.00">ControllerHelper as C</text>
</g>
<!-- Controller&#45;&gt;ControllerHelper -->
<g id="edge7" class="edge"><title>Controller&#45;&gt;ControllerHelper</title>
<path fill="none" stroke="black" d="M82.7702,-60.274C97.2395,-55.4701 114.202,-49.8992 129.592,-45 138.961,-42.0174 148.91,-38.9096 158.619,-35.9089"/>
<polygon fill="black" stroke="black" points="159.691,-39.241 168.217,-32.9525 157.63,-32.5512 159.691,-39.241"/>
</g>
<!-- Model -->
<g id="node3" class="node"><title>Model</title>
<ellipse fill="none" stroke="black" cx="607.156" cy="-208" rx="34.394" ry="18"/>
<text text-anchor="middle" x="607.156" y="-204.3" font-family="Times,serif" font-size="14.00">Model</text>
</g>
<!-- Business&#45;&gt;Model -->
<g id="edge2" class="edge"><title>Business&#45;&gt;Model</title>
<path fill="none" stroke="black" d="M248.564,-148.109C273.302,-158.736 310.122,-173.185 343.676,-181 419.226,-198.595 509.672,-204.726 562.252,-206.861"/>
<polygon fill="black" stroke="black" points="562.439,-210.371 572.563,-207.248 562.702,-203.376 562.439,-210.371"/>
</g>
<!-- Lib -->
<g id="node4" class="node"><title>Lib</title>
<ellipse fill="none" stroke="black" cx="415.819" cy="-154" rx="27" ry="18"/>
<text text-anchor="middle" x="415.819" y="-150.3" font-family="Times,serif" font-size="14.00">Lib</text>
</g>
<!-- Business&#45;&gt;Lib -->
<g id="edge3" class="edge"><title>Business&#45;&gt;Lib</title>
<path fill="none" stroke="black" d="M260.076,-138.937C295.039,-142.34 345.112,-147.214 378.738,-150.488"/>
<polygon fill="black" stroke="black" points="378.745,-154.005 389.037,-151.49 379.423,-147.038 378.745,-154.005"/>
</g>
<!-- BusinessHelper -->
<g id="node8" class="node"><title>BusinessHelper</title>
<ellipse fill="none" stroke="black" cx="607.156" cy="-100" rx="83.3857" ry="18"/>
<text text-anchor="middle" x="607.156" y="-96.3" font-family="Times,serif" font-size="14.00">BusinessHelper as S</text>
</g>
<!-- Business&#45;&gt;BusinessHelper -->
<g id="edge8" class="edge"><title>Business&#45;&gt;BusinessHelper</title>
<path fill="none" stroke="black" d="M260.268,-131.321C321.513,-125.775 438.906,-115.145 519.815,-107.818"/>
<polygon fill="black" stroke="black" points="520.345,-111.285 529.989,-106.897 519.714,-104.313 520.345,-111.285"/>
</g>
<!-- ModelHepler -->
<g id="node9" class="node"><title>ModelHepler</title>
<ellipse fill="none" stroke="black" cx="804.991" cy="-181" rx="78.7863" ry="18"/>
<text text-anchor="middle" x="804.991" y="-177.3" font-family="Times,serif" font-size="14.00">ModelHepler as M</text>
</g>
<!-- Model&#45;&gt;ModelHepler -->
<g id="edge10" class="edge"><title>Model&#45;&gt;ModelHepler</title>
<path fill="none" stroke="black" d="M640.934,-203.481C664.511,-200.23 697.308,-195.709 727.31,-191.572"/>
<polygon fill="black" stroke="black" points="727.932,-195.02 737.36,-190.186 726.976,-188.085 727.932,-195.02"/>
</g>
<!-- Lib&#45;&gt;Model -->
<g id="edge5" class="edge"><title>Lib&#45;&gt;Model</title>
<path fill="none" stroke="black" d="M440.799,-160.839C472.496,-169.879 528.755,-185.925 566.746,-196.76"/>
<polygon fill="black" stroke="black" points="565.886,-200.154 576.463,-199.531 567.806,-193.423 565.886,-200.154"/>
</g>
<!-- ExModel -->
<g id="node5" class="node"><title>ExModel</title>
<ellipse fill="none" stroke="black" cx="607.156" cy="-154" rx="44.393" ry="18"/>
<text text-anchor="middle" x="607.156" y="-150.3" font-family="Times,serif" font-size="14.00">ExModel</text>
</g>
<!-- Lib&#45;&gt;ExModel -->
<g id="edge4" class="edge"><title>Lib&#45;&gt;ExModel</title>
<path fill="none" stroke="black" d="M443.146,-154C471.26,-154 516.593,-154 552.324,-154"/>
<polygon fill="black" stroke="black" points="552.599,-157.5 562.599,-154 552.599,-150.5 552.599,-157.5"/>
</g>
<!-- Lib&#45;&gt;BusinessHelper -->
<g id="edge9" class="edge"><title>Lib&#45;&gt;BusinessHelper</title>
<path fill="none" stroke="black" d="M440.799,-147.161C467.176,-139.638 510.564,-127.263 546.278,-117.078"/>
<polygon fill="black" stroke="black" points="547.471,-120.377 556.127,-114.268 545.551,-113.645 547.471,-120.377"/>
</g>
<!-- ExModel&#45;&gt;ModelHepler -->
<g id="edge11" class="edge"><title>ExModel&#45;&gt;ModelHepler</title>
<path fill="none" stroke="black" d="M649.209,-159.66C671.785,-162.773 700.533,-166.736 727.11,-170.4"/>
<polygon fill="black" stroke="black" points="726.788,-173.889 737.172,-171.788 727.744,-166.955 726.788,-173.889"/>
</g>
<!-- ViewHepler -->
<g id="node10" class="node"><title>ViewHepler</title>
<ellipse fill="none" stroke="black" cx="415.819" cy="-62" rx="72.2875" ry="18"/>
<text text-anchor="middle" x="415.819" y="-58.3" font-family="Times,serif" font-size="14.00">ViewHepler as V</text>
</g>
<!-- View&#45;&gt;ViewHepler -->
<g id="edge12" class="edge"><title>View&#45;&gt;ViewHepler</title>
<path fill="none" stroke="black" d="M248.434,-70.5245C271.204,-69.3579 304.14,-67.6704 334.71,-66.1042"/>
<polygon fill="black" stroke="black" points="335.161,-69.5858 344.969,-65.5787 334.803,-62.595 335.161,-69.5858"/>
</g>
</g>
</svg>
