<?xml version="1.0" encoding="UTF-8" standalone="no"?>
<!DOCTYPE svg PUBLIC "-//W3C//DTD SVG 1.1//EN"
 "http://www.w3.org/Graphics/SVG/1.1/DTD/svg11.dtd">
<!-- Generated by graphviz version 2.38.0 (20140413.2041)
 -->
<!-- Title: G Pages: 1 -->
<svg width="881pt" height="234pt"
 viewBox="0.00 0.00 881.24 234.00" xmlns="http://www.w3.org/2000/svg" xmlns:xlink="http://www.w3.org/1999/xlink">
<g id="graph0" class="graph" transform="scale(1 1) rotate(0) translate(4 230)">
<title>G</title>
<polygon fill="white" stroke="none" points="-4,4 -4,-230 877.235,-230 877.235,4 -4,4"/>
<!-- Controller -->
<g id="node1" class="node"><title>Controller</title>
<ellipse fill="none" stroke="black" cx="46.7958" cy="-72" rx="46.5926" ry="18"/>
<text text-anchor="middle" x="46.7958" y="-68.3" font-family="Times,serif" font-size="14.00">Controller</text>
</g>
<!-- Service -->
<g id="node2" class="node"><title>Service</title>
<ellipse fill="none" stroke="black" cx="218.634" cy="-135" rx="37.0935" ry="18"/>
<text text-anchor="middle" x="218.634" y="-131.3" font-family="Times,serif" font-size="14.00">Service</text>
</g>
<!-- Controller&#45;&gt;Service -->
<g id="edge1" class="edge"><title>Controller&#45;&gt;Service</title>
<path fill="none" stroke="black" d="M81.3504,-84.4468C109.491,-94.8853 149.686,-109.795 179.132,-120.718"/>
<polygon fill="black" stroke="black" points="178.08,-124.061 188.673,-124.257 180.514,-117.498 178.08,-124.061"/>
</g>
<!-- View -->
<g id="node6" class="node"><title>View</title>
<ellipse fill="none" stroke="black" cx="218.634" cy="-72" rx="29.795" ry="18"/>
<text text-anchor="middle" x="218.634" y="-68.3" font-family="Times,serif" font-size="14.00">View</text>
</g>
<!-- Controller&#45;&gt;View -->
<g id="edge6" class="edge"><title>Controller&#45;&gt;View</title>
<path fill="none" stroke="black" d="M93.7564,-72C120.232,-72 153.157,-72 178.408,-72"/>
<polygon fill="black" stroke="black" points="178.718,-75.5001 188.718,-72 178.718,-68.5001 178.718,-75.5001"/>
</g>
<!-- ControllerHelper -->
<g id="node7" class="node"><title>ControllerHelper</title>
<ellipse fill="none" stroke="black" cx="218.634" cy="-18" rx="89.0842" ry="18"/>
<text text-anchor="middle" x="218.634" y="-14.3" font-family="Times,serif" font-size="14.00">ControllerHelper as C</text>
</g>
<!-- Controller&#45;&gt;ControllerHelper -->
<g id="edge7" class="edge"><title>Controller&#45;&gt;ControllerHelper</title>
<path fill="none" stroke="black" d="M82.7702,-60.274C97.2395,-55.4701 114.202,-49.8992 129.592,-45 138.961,-42.0174 148.91,-38.9096 158.619,-35.9089"/>
<polygon fill="black" stroke="black" points="159.691,-39.241 168.217,-32.9525 157.63,-32.5512 159.691,-39.241"/>
</g>
<!-- Model -->
<g id="node3" class="node"><title>Model</title>
<ellipse fill="none" stroke="black" cx="601.956" cy="-208" rx="34.394" ry="18"/>
<text text-anchor="middle" x="601.956" y="-204.3" font-family="Times,serif" font-size="14.00">Model</text>
</g>
<!-- Service&#45;&gt;Model -->
<g id="edge2" class="edge"><title>Service&#45;&gt;Model</title>
<path fill="none" stroke="black" d="M246.615,-147.251C271.343,-157.932 309.235,-172.942 343.676,-181 417.318,-198.23 505.403,-204.475 557.064,-206.732"/>
<polygon fill="black" stroke="black" points="557.073,-210.235 567.206,-207.144 557.357,-203.241 557.073,-210.235"/>
</g>
<!-- LibService -->
<g id="node4" class="node"><title>LibService</title>
<ellipse fill="none" stroke="black" cx="415.819" cy="-154" rx="49.2915" ry="18"/>
<text text-anchor="middle" x="415.819" y="-150.3" font-family="Times,serif" font-size="14.00">LibService</text>
</g>
<!-- Service&#45;&gt;LibService -->
<g id="edge3" class="edge"><title>Service&#45;&gt;LibService</title>
<path fill="none" stroke="black" d="M255.434,-138.485C284.059,-141.271 324.732,-145.231 357.826,-148.452"/>
<polygon fill="black" stroke="black" points="357.539,-151.941 367.831,-149.426 358.217,-144.974 357.539,-151.941"/>
</g>
<!-- ServiceHelper -->
<g id="node8" class="node"><title>ServiceHelper</title>
<ellipse fill="none" stroke="black" cx="601.956" cy="-100" rx="77.9862" ry="18"/>
<text text-anchor="middle" x="601.956" y="-96.3" font-family="Times,serif" font-size="14.00">ServiceHelper as S</text>
</g>
<!-- Service&#45;&gt;ServiceHelper -->
<g id="edge8" class="edge"><title>Service&#45;&gt;ServiceHelper</title>
<path fill="none" stroke="black" d="M255.165,-131.739C314.978,-126.249 437.257,-115.025 519.184,-107.506"/>
<polygon fill="black" stroke="black" points="519.579,-110.984 529.217,-106.585 518.939,-104.013 519.579,-110.984"/>
</g>
<!-- ModelHepler -->
<g id="node9" class="node"><title>ModelHepler</title>
<ellipse fill="none" stroke="black" cx="794.592" cy="-181" rx="78.7863" ry="18"/>
<text text-anchor="middle" x="794.592" y="-177.3" font-family="Times,serif" font-size="14.00">ModelHepler as M</text>
</g>
<!-- Model&#45;&gt;ModelHepler -->
<g id="edge10" class="edge"><title>Model&#45;&gt;ModelHepler</title>
<path fill="none" stroke="black" d="M635.295,-203.42C657.816,-200.23 688.827,-195.838 717.436,-191.786"/>
<polygon fill="black" stroke="black" points="718.027,-195.237 727.437,-190.37 717.045,-188.307 718.027,-195.237"/>
</g>
<!-- LibService&#45;&gt;Model -->
<g id="edge5" class="edge"><title>LibService&#45;&gt;Model</title>
<path fill="none" stroke="black" d="M454.973,-165.189C486.246,-174.36 530.332,-187.289 561.859,-196.534"/>
<polygon fill="black" stroke="black" points="561.041,-199.942 571.622,-199.397 563.011,-193.225 561.041,-199.942"/>
</g>
<!-- ExModel -->
<g id="node5" class="node"><title>ExModel</title>
<ellipse fill="none" stroke="black" cx="601.956" cy="-154" rx="44.393" ry="18"/>
<text text-anchor="middle" x="601.956" y="-150.3" font-family="Times,serif" font-size="14.00">ExModel</text>
</g>
<!-- LibService&#45;&gt;ExModel -->
<g id="edge4" class="edge"><title>LibService&#45;&gt;ExModel</title>
<path fill="none" stroke="black" d="M465.681,-154C490.889,-154 521.686,-154 547.524,-154"/>
<polygon fill="black" stroke="black" points="547.526,-157.5 557.526,-154 547.526,-150.5 547.526,-157.5"/>
</g>
<!-- LibService&#45;&gt;ServiceHelper -->
<g id="edge9" class="edge"><title>LibService&#45;&gt;ServiceHelper</title>
<path fill="none" stroke="black" d="M454.973,-142.811C480.415,-135.35 514.339,-125.401 543.081,-116.973"/>
<polygon fill="black" stroke="black" points="544.397,-120.234 553.008,-114.061 542.428,-113.517 544.397,-120.234"/>
</g>
<!-- ExModel&#45;&gt;ModelHepler -->
<g id="edge11" class="edge"><title>ExModel&#45;&gt;ModelHepler</title>
<path fill="none" stroke="black" d="M643.852,-159.792C665.199,-162.816 692.022,-166.615 717.048,-170.159"/>
<polygon fill="black" stroke="black" points="716.878,-173.67 727.27,-171.607 717.86,-166.739 716.878,-173.67"/>
</g>
<!-- ViewHepler -->
<g id="node10" class="node"><title>ViewHepler</title>
<ellipse fill="none" stroke="black" cx="415.819" cy="-62" rx="72.2875" ry="18"/>
<text text-anchor="middle" x="415.819" y="-58.3" font-family="Times,serif" font-size="14.00">ViewHepler as V</text>
</g>
<!-- View&#45;&gt;ViewHepler -->
<g id="edge12" class="edge"><title>View&#45;&gt;ViewHepler</title>
<path fill="none" stroke="black" d="M248.434,-70.5245C271.204,-69.3579 304.14,-67.6704 334.71,-66.1042"/>
<polygon fill="black" stroke="black" points="335.161,-69.5858 344.969,-65.5787 334.803,-62.595 335.161,-69.5858"/>
</g>
</g>
</svg>
