<?xml version="1.0" encoding="UTF-8" standalone="no"?>
<!DOCTYPE svg PUBLIC "-//W3C//DTD SVG 1.1//EN"
 "http://www.w3.org/Graphics/SVG/1.1/DTD/svg11.dtd">
<!-- Generated by graphviz version 2.38.0 (20140413.2041)
 -->
<!-- Title: G Pages: 1 -->
<svg width="1058pt" height="408pt"
 viewBox="0.00 0.00 1057.62 407.94" xmlns="http://www.w3.org/2000/svg" xmlns:xlink="http://www.w3.org/1999/xlink">
<g id="graph0" class="graph" transform="scale(1 1) rotate(0) translate(4 403.94)">
<title>G</title>
<polygon fill="white" stroke="none" points="-4,4 -4,-403.94 1053.62,-403.94 1053.62,4 -4,4"/>
<!-- ControllerHelper -->
<g id="node1" class="node"><title>ControllerHelper</title>
<ellipse fill="gray" stroke="gray" cx="231.633" cy="-94.2067" rx="89.0842" ry="18"/>
<text text-anchor="middle" x="231.633" y="-90.5067" font-family="Times,serif" font-size="14.00">ControllerHelper as C</text>
</g>
<!-- BusinessHelper -->
<g id="node2" class="node"><title>BusinessHelper</title>
<ellipse fill="gray" stroke="gray" cx="620.155" cy="-264.207" rx="83.3857" ry="18"/>
<text text-anchor="middle" x="620.155" y="-260.507" font-family="Times,serif" font-size="14.00">BusinessHelper as S</text>
</g>
<!-- ModelHepler -->
<g id="node3" class="node"><title>ModelHepler</title>
<ellipse fill="gray" stroke="gray" cx="970.98" cy="-249.207" rx="78.7863" ry="18"/>
<text text-anchor="middle" x="970.98" y="-245.507" font-family="Times,serif" font-size="14.00">ModelHepler as M</text>
</g>
<!-- ViewHepler -->
<g id="node4" class="node"><title>ViewHepler</title>
<ellipse fill="gray" stroke="gray" cx="428.818" cy="-134.207" rx="72.2875" ry="18"/>
<text text-anchor="middle" x="428.818" y="-130.507" font-family="Times,serif" font-size="14.00">ViewHepler as V</text>
</g>
<!-- Table1Model -->
<g id="node5" class="node"><title>Table1Model</title>
<ellipse fill="brown" stroke="brown" cx="797.842" cy="-318.207" rx="58.4896" ry="18"/>
<text text-anchor="middle" x="797.842" y="-314.507" font-family="Times,serif" font-size="14.00">Table1Model</text>
</g>
<!-- Table1Model&#45;&gt;ModelHepler -->
<g id="edge10" class="edge"><title>Table1Model&#45;&gt;ModelHepler</title>
<path fill="none" stroke="black" stroke-dasharray="1,5" d="M834.302,-303.91C859.612,-293.705 893.954,-279.859 921.753,-268.651"/>
<polygon fill="black" stroke="black" points="923.322,-271.792 931.288,-264.807 920.705,-265.3 923.322,-271.792"/>
</g>
<!-- Table2Model -->
<g id="node6" class="node"><title>Table2Model</title>
<ellipse fill="brown" stroke="brown" cx="797.842" cy="-226.207" rx="58.4896" ry="18"/>
<text text-anchor="middle" x="797.842" y="-222.507" font-family="Times,serif" font-size="14.00">Table2Model</text>
</g>
<!-- Table2Model&#45;&gt;ModelHepler -->
<g id="edge11" class="edge"><title>Table2Model&#45;&gt;ModelHepler</title>
<path fill="none" stroke="black" stroke-dasharray="1,5" d="M852.053,-233.358C865.002,-235.098 879.11,-236.994 892.92,-238.85"/>
<polygon fill="black" stroke="black" points="892.525,-242.329 902.902,-240.192 893.457,-235.391 892.525,-242.329"/>
</g>
<!-- Table3Model -->
<g id="node7" class="node"><title>Table3Model</title>
<ellipse fill="brown" stroke="brown" cx="797.842" cy="-132.207" rx="58.4896" ry="18"/>
<text text-anchor="middle" x="797.842" y="-128.507" font-family="Times,serif" font-size="14.00">Table3Model</text>
</g>
<!-- Table3Model&#45;&gt;ModelHepler -->
<g id="edge12" class="edge"><title>Table3Model&#45;&gt;ModelHepler</title>
<path fill="none" stroke="black" stroke-dasharray="1,5" d="M822.999,-148.722C852.686,-169.018 903.218,-203.564 936.601,-226.387"/>
<polygon fill="black" stroke="black" points="934.882,-229.452 945.113,-232.206 938.833,-223.673 934.882,-229.452"/>
</g>
<!-- Table1ExModel -->
<g id="node8" class="node"><title>Table1ExModel</title>
<ellipse fill="brown" stroke="brown" cx="620.155" cy="-318.207" rx="68.4888" ry="18"/>
<text text-anchor="middle" x="620.155" y="-314.507" font-family="Times,serif" font-size="14.00">Table1ExModel</text>
</g>
<!-- Table1ExModel&#45;&gt;ModelHepler -->
<g id="edge14" class="edge"><title>Table1ExModel&#45;&gt;ModelHepler</title>
<path fill="none" stroke="black" stroke-dasharray="1,5" d="M671.371,-306.217C692.337,-301.346 716.976,-295.797 739.347,-291.207 791.98,-280.408 851.661,-269.578 897.125,-261.62"/>
<polygon fill="black" stroke="black" points="897.937,-265.031 907.187,-259.865 896.734,-258.135 897.937,-265.031"/>
</g>
<!-- Table1ExModel&#45;&gt;Table1Model -->
<g id="edge32" class="edge"><title>Table1ExModel&#45;&gt;Table1Model</title>
<path fill="none" stroke="black" d="M688.577,-318.207C701.918,-318.207 715.923,-318.207 729.268,-318.207"/>
<polygon fill="black" stroke="black" points="729.323,-321.707 739.323,-318.207 729.323,-314.707 729.323,-321.707"/>
</g>
<!-- Table1ExModel&#45;&gt;Table2Model -->
<g id="edge33" class="edge"><title>Table1ExModel&#45;&gt;Table2Model</title>
<path fill="none" stroke="black" d="M670.443,-305.784C681.658,-301.945 693.237,-297.126 703.347,-291.207 722.078,-280.24 721.744,-270.905 739.347,-258.207 744.949,-254.166 751.113,-250.248 757.26,-246.621"/>
<polygon fill="black" stroke="black" points="759.231,-249.527 766.187,-241.535 755.766,-243.445 759.231,-249.527"/>
</g>
<!-- ViewA -->
<g id="node9" class="node"><title>ViewA</title>
<ellipse fill="green" stroke="green" cx="231.633" cy="-202.207" rx="36.2938" ry="18"/>
<text text-anchor="middle" x="231.633" y="-198.507" font-family="Times,serif" font-size="14.00">ViewA</text>
</g>
<!-- ViewA&#45;&gt;ViewHepler -->
<g id="edge1" class="edge"><title>ViewA&#45;&gt;ViewHepler</title>
<path fill="none" stroke="black" d="M263.357,-193.342C280.345,-188.301 301.778,-181.711 320.675,-175.207 340.4,-168.417 361.92,-160.32 380.465,-153.121"/>
<polygon fill="black" stroke="black" points="381.823,-156.348 389.866,-149.451 379.278,-149.828 381.823,-156.348"/>
</g>
<!-- ViewB -->
<g id="node10" class="node"><title>ViewB</title>
<ellipse fill="green" stroke="green" cx="231.633" cy="-148.207" rx="35.9954" ry="18"/>
<text text-anchor="middle" x="231.633" y="-144.507" font-family="Times,serif" font-size="14.00">ViewB</text>
</g>
<!-- ViewB&#45;&gt;ViewHepler -->
<g id="edge2" class="edge"><title>ViewB&#45;&gt;ViewHepler</title>
<path fill="none" stroke="black" d="M267.079,-145.736C289.889,-144.1 320.765,-141.885 349.36,-139.834"/>
<polygon fill="black" stroke="black" points="349.638,-143.323 359.362,-139.117 349.137,-136.341 349.638,-143.323"/>
</g>
<!-- ViewC -->
<g id="node11" class="node"><title>ViewC</title>
<ellipse fill="green" stroke="green" cx="231.633" cy="-40.2067" rx="35.9954" ry="18"/>
<text text-anchor="middle" x="231.633" y="-36.5067" font-family="Times,serif" font-size="14.00">ViewC</text>
</g>
<!-- ViewC&#45;&gt;ViewHepler -->
<g id="edge3" class="edge"><title>ViewC&#45;&gt;ViewHepler</title>
<path fill="none" stroke="black" d="M265.807,-45.9344C283.123,-49.9858 304.095,-56.6318 320.675,-67.2067 340.84,-80.0685 336.939,-93.6949 356.675,-107.207 361.563,-110.554 366.922,-113.556 372.436,-116.233"/>
<polygon fill="black" stroke="black" points="371.251,-119.537 381.808,-120.433 374.114,-113.149 371.251,-119.537"/>
</g>
<!-- ControllerA -->
<g id="node12" class="node"><title>ControllerA</title>
<ellipse fill="red" stroke="red" cx="53.2953" cy="-202.207" rx="53.0913" ry="18"/>
<text text-anchor="middle" x="53.2953" y="-198.507" font-family="Times,serif" font-size="14.00">ControllerA</text>
</g>
<!-- ControllerA&#45;&gt;ControllerHelper -->
<g id="edge4" class="edge"><title>ControllerA&#45;&gt;ControllerHelper</title>
<path fill="none" stroke="black" stroke-dasharray="1,5" d="M87.4622,-188.314C94.2074,-184.63 100.955,-180.247 106.591,-175.207 128.09,-155.978 119.458,-138.437 142.591,-121.207 147.723,-117.384 153.404,-114.096 159.335,-111.27"/>
<polygon fill="black" stroke="black" points="161.011,-114.359 168.819,-107.198 158.249,-107.927 161.011,-114.359"/>
</g>
<!-- ControllerA&#45;&gt;ViewA -->
<g id="edge15" class="edge"><title>ControllerA&#45;&gt;ViewA</title>
<path fill="none" stroke="black" d="M106.725,-202.207C131.575,-202.207 160.985,-202.207 184.915,-202.207"/>
<polygon fill="black" stroke="black" points="185.146,-205.707 195.146,-202.207 185.146,-198.707 185.146,-205.707"/>
</g>
<!-- XBusiness -->
<g id="node15" class="node"><title>XBusiness</title>
<ellipse fill="yellow" stroke="yellow" cx="231.633" cy="-340.207" rx="48.1917" ry="18"/>
<text text-anchor="middle" x="231.633" y="-336.507" font-family="Times,serif" font-size="14.00">XBusiness</text>
</g>
<!-- ControllerA&#45;&gt;XBusiness -->
<g id="edge18" class="edge"><title>ControllerA&#45;&gt;XBusiness</title>
<path fill="none" stroke="black" d="M71.1264,-219.244C88.3561,-236.292 116.265,-262.841 142.591,-283.207 159.482,-296.274 179.375,-309.331 195.974,-319.646"/>
<polygon fill="black" stroke="black" points="194.464,-322.826 204.817,-325.076 198.127,-316.861 194.464,-322.826"/>
</g>
<!-- ControllerB -->
<g id="node13" class="node"><title>ControllerB</title>
<ellipse fill="red" stroke="red" cx="53.2953" cy="-148.207" rx="52.7911" ry="18"/>
<text text-anchor="middle" x="53.2953" y="-144.507" font-family="Times,serif" font-size="14.00">ControllerB</text>
</g>
<!-- ControllerB&#45;&gt;ControllerHelper -->
<g id="edge5" class="edge"><title>ControllerB&#45;&gt;ControllerHelper</title>
<path fill="none" stroke="black" stroke-dasharray="1,5" d="M92.9933,-136.356C116.097,-129.281 145.901,-120.154 171.865,-112.203"/>
<polygon fill="black" stroke="black" points="173.068,-115.495 181.605,-109.22 171.019,-108.802 173.068,-115.495"/>
</g>
<!-- ControllerB&#45;&gt;ViewB -->
<g id="edge16" class="edge"><title>ControllerB&#45;&gt;ViewB</title>
<path fill="none" stroke="black" d="M106.249,-148.207C131.381,-148.207 161.266,-148.207 185.443,-148.207"/>
<polygon fill="black" stroke="black" points="185.768,-151.707 195.768,-148.207 185.768,-144.707 185.768,-151.707"/>
</g>
<!-- YBusiness -->
<g id="node16" class="node"><title>YBusiness</title>
<ellipse fill="yellow" stroke="yellow" cx="231.633" cy="-256.207" rx="48.1917" ry="18"/>
<text text-anchor="middle" x="231.633" y="-252.507" font-family="Times,serif" font-size="14.00">YBusiness</text>
</g>
<!-- ControllerB&#45;&gt;YBusiness -->
<g id="edge19" class="edge"><title>ControllerB&#45;&gt;YBusiness</title>
<path fill="none" stroke="black" d="M87.4622,-162.1C94.2074,-165.784 100.955,-170.166 106.591,-175.207 128.09,-194.436 119.458,-211.977 142.591,-229.207 152.809,-236.818 165.198,-242.307 177.415,-246.257"/>
<polygon fill="black" stroke="black" points="176.551,-249.651 187.132,-249.107 178.521,-242.934 176.551,-249.651"/>
</g>
<!-- ControllerC -->
<g id="node14" class="node"><title>ControllerC</title>
<ellipse fill="red" stroke="red" cx="53.2953" cy="-40.2067" rx="52.7911" ry="18"/>
<text text-anchor="middle" x="53.2953" y="-36.5067" font-family="Times,serif" font-size="14.00">ControllerC</text>
</g>
<!-- ControllerC&#45;&gt;ControllerHelper -->
<g id="edge6" class="edge"><title>ControllerC&#45;&gt;ControllerHelper</title>
<path fill="none" stroke="black" stroke-dasharray="1,5" d="M92.9933,-52.0573C116.097,-59.1323 145.901,-68.2594 171.865,-76.2101"/>
<polygon fill="black" stroke="black" points="171.019,-79.6115 181.605,-79.193 173.068,-72.9183 171.019,-79.6115"/>
</g>
<!-- ControllerC&#45;&gt;ViewC -->
<g id="edge17" class="edge"><title>ControllerC&#45;&gt;ViewC</title>
<path fill="none" stroke="black" d="M106.249,-40.2067C131.381,-40.2067 161.266,-40.2067 185.443,-40.2067"/>
<polygon fill="black" stroke="black" points="185.768,-43.7068 195.768,-40.2067 185.768,-36.7068 185.768,-43.7068"/>
</g>
<!-- ZBusiness -->
<g id="node17" class="node"><title>ZBusiness</title>
<ellipse fill="yellow" stroke="yellow" cx="428.818" cy="-80.2067" rx="47.3916" ry="18"/>
<text text-anchor="middle" x="428.818" y="-76.5067" font-family="Times,serif" font-size="14.00">ZBusiness</text>
</g>
<!-- ControllerC&#45;&gt;ZBusiness -->
<g id="edge20" class="edge"><title>ControllerC&#45;&gt;ZBusiness</title>
<path fill="none" stroke="black" d="M89.3982,-26.8512C105.373,-21.4591 124.676,-15.8846 142.591,-13.2067 220.869,-1.50562 244.596,8.62214 320.675,-13.2067 350.7,-21.8218 380.47,-41.5795 400.981,-57.4202"/>
<polygon fill="black" stroke="black" points="398.897,-60.2348 408.908,-63.7052 403.246,-54.7497 398.897,-60.2348"/>
</g>
<!-- XBusiness&#45;&gt;BusinessHelper -->
<g id="edge7" class="edge"><title>XBusiness&#45;&gt;BusinessHelper</title>
<path fill="none" stroke="black" stroke-dasharray="1,5" d="M273.352,-331.024C297.528,-325.651 328.808,-318.839 356.675,-313.207 420.278,-300.351 492.802,-286.904 545.475,-277.356"/>
<polygon fill="black" stroke="black" points="546.187,-280.784 555.405,-275.56 544.941,-273.896 546.187,-280.784"/>
</g>
<!-- XBusiness&#45;&gt;Table1Model -->
<g id="edge29" class="edge"><title>XBusiness&#45;&gt;Table1Model</title>
<path fill="none" stroke="black" d="M262.441,-354.03C287.096,-364.661 323.347,-378.471 356.675,-384.207 508.824,-410.393 554.723,-403.992 703.347,-362.207 723.019,-356.676 743.694,-347.356 760.586,-338.714"/>
<polygon fill="black" stroke="black" points="762.322,-341.756 769.551,-334.011 759.07,-335.557 762.322,-341.756"/>
</g>
<!-- XBusiness&#45;&gt;Table1ExModel -->
<g id="edge27" class="edge"><title>XBusiness&#45;&gt;Table1ExModel</title>
<path fill="none" stroke="black" d="M270.301,-350.956C322.526,-364.286 419.685,-383.387 500.962,-367.207 528.602,-361.704 557.876,-349.62 580.375,-338.83"/>
<polygon fill="black" stroke="black" points="582.147,-341.859 589.579,-334.308 579.06,-335.577 582.147,-341.859"/>
</g>
<!-- XxLib -->
<g id="node18" class="node"><title>XxLib</title>
<ellipse fill="yellow" stroke="yellow" cx="428.818" cy="-340.207" rx="33.5952" ry="18"/>
<text text-anchor="middle" x="428.818" y="-336.507" font-family="Times,serif" font-size="14.00">XxLib</text>
</g>
<!-- XBusiness&#45;&gt;XxLib -->
<g id="edge25" class="edge"><title>XBusiness&#45;&gt;XxLib</title>
<path fill="none" stroke="black" d="M279.882,-340.207C311.812,-340.207 353.642,-340.207 384.673,-340.207"/>
<polygon fill="black" stroke="black" points="384.753,-343.707 394.753,-340.207 384.753,-336.707 384.753,-343.707"/>
</g>
<!-- YBusiness&#45;&gt;BusinessHelper -->
<g id="edge8" class="edge"><title>YBusiness&#45;&gt;BusinessHelper</title>
<path fill="none" stroke="black" stroke-dasharray="1,5" d="M280.028,-257.188C341.281,-258.455 449.274,-260.691 526.955,-262.298"/>
<polygon fill="black" stroke="black" points="527.157,-265.803 537.228,-262.511 527.302,-258.805 527.157,-265.803"/>
</g>
<!-- YBusiness&#45;&gt;Table1Model -->
<g id="edge21" class="edge"><title>YBusiness&#45;&gt;Table1Model</title>
<path fill="none" stroke="black" d="M269.876,-245.259C351.504,-223.254 551.041,-180.407 703.347,-237.207 733.059,-248.287 759.6,-273.533 776.743,-292.916"/>
<polygon fill="black" stroke="black" points="774.113,-295.226 783.278,-300.542 779.429,-290.671 774.113,-295.226"/>
</g>
<!-- YBusiness&#45;&gt;Table2Model -->
<g id="edge23" class="edge"><title>YBusiness&#45;&gt;Table2Model</title>
<path fill="none" stroke="black" d="M272.631,-246.764C288.051,-242.403 305.576,-236.543 320.675,-229.207 338.196,-220.694 338.085,-210.028 356.675,-204.207 491.039,-162.128 659.674,-191.911 743.882,-211.987"/>
<polygon fill="black" stroke="black" points="743.181,-215.418 753.725,-214.381 744.836,-208.617 743.181,-215.418"/>
</g>
<!-- YBusiness&#45;&gt;XxLib -->
<g id="edge26" class="edge"><title>YBusiness&#45;&gt;XxLib</title>
<path fill="none" stroke="black" d="M263.993,-269.703C299.11,-284.816 355.892,-309.252 392.533,-325.021"/>
<polygon fill="black" stroke="black" points="391.275,-328.29 401.844,-329.028 394.042,-321.86 391.275,-328.29"/>
</g>
<!-- ZBusiness&#45;&gt;BusinessHelper -->
<g id="edge9" class="edge"><title>ZBusiness&#45;&gt;BusinessHelper</title>
<path fill="none" stroke="black" stroke-dasharray="1,5" d="M470.374,-89.23C481.357,-93.2581 492.526,-99.0168 500.962,-107.207 530.987,-136.355 512.348,-160.365 536.962,-194.207 550.012,-212.149 568.566,-228.464 584.744,-240.821"/>
<polygon fill="black" stroke="black" points="582.83,-243.76 592.946,-246.91 587.003,-238.139 582.83,-243.76"/>
</g>
<!-- ZBusiness&#45;&gt;Table1Model -->
<g id="edge22" class="edge"><title>ZBusiness&#45;&gt;Table1Model</title>
<path fill="none" stroke="black" d="M464.068,-92.5387C475.847,-96.9557 489.062,-102.108 500.962,-107.207 592.646,-146.493 626.548,-140.557 703.347,-204.207 724.154,-221.451 722.378,-232.176 739.347,-253.207 750.367,-266.865 763.263,-281.551 774.045,-293.502"/>
<polygon fill="black" stroke="black" points="771.47,-295.873 780.784,-300.922 776.652,-291.167 771.47,-295.873"/>
</g>
<!-- ZBusiness&#45;&gt;Table3Model -->
<g id="edge24" class="edge"><title>ZBusiness&#45;&gt;Table3Model</title>
<path fill="none" stroke="black" d="M473.725,-86.4275C538.511,-95.6063 660.025,-112.822 734.167,-123.327"/>
<polygon fill="black" stroke="black" points="733.911,-126.826 744.303,-124.763 734.893,-119.895 733.911,-126.826"/>
</g>
<!-- ZBusiness&#45;&gt;Table1ExModel -->
<g id="edge28" class="edge"><title>ZBusiness&#45;&gt;Table1ExModel</title>
<path fill="none" stroke="black" d="M471.467,-88.2112C482.473,-92.217 493.382,-98.2188 500.962,-107.207 554.684,-170.905 481.81,-228.742 536.962,-291.207 541.571,-296.426 547.205,-300.641 553.344,-304.043"/>
<polygon fill="black" stroke="black" points="552.103,-307.329 562.636,-308.47 555.113,-301.01 552.103,-307.329"/>
</g>
<!-- XxLib&#45;&gt;BusinessHelper -->
<g id="edge13" class="edge"><title>XxLib&#45;&gt;BusinessHelper</title>
<path fill="none" stroke="black" stroke-dasharray="1,5" d="M455.223,-328.916C468.819,-322.84 485.834,-315.18 500.962,-308.207 517.031,-300.799 520.525,-297.758 536.962,-291.207 544.784,-288.089 553.122,-285.042 561.375,-282.184"/>
<polygon fill="black" stroke="black" points="562.642,-285.45 570.987,-278.923 560.393,-278.821 562.642,-285.45"/>
</g>
<!-- XxLib&#45;&gt;Table1Model -->
<g id="edge31" class="edge"><title>XxLib&#45;&gt;Table1Model</title>
<path fill="none" stroke="black" d="M462.024,-344.076C513.369,-349.511 616.817,-357.451 703.347,-345.207 718.434,-343.072 734.495,-339.09 748.971,-334.828"/>
<polygon fill="black" stroke="black" points="750.168,-338.122 758.708,-331.852 748.121,-331.428 750.168,-338.122"/>
</g>
<!-- XxLib&#45;&gt;Table1ExModel -->
<g id="edge30" class="edge"><title>XxLib&#45;&gt;Table1ExModel</title>
<path fill="none" stroke="black" d="M461.937,-336.475C485.248,-333.766 517.718,-329.993 547.101,-326.579"/>
<polygon fill="black" stroke="black" points="547.816,-330.02 557.345,-325.389 547.008,-323.066 547.816,-330.02"/>
</g>
</g>
</svg>
