<?xml version="1.0" encoding="UTF-8" standalone="no"?>
<!DOCTYPE svg PUBLIC "-//W3C//DTD SVG 1.1//EN"
 "http://www.w3.org/Graphics/SVG/1.1/DTD/svg11.dtd">
<!-- Generated by graphviz version 2.38.0 (20140413.2041)
 -->
<!-- Title: G Pages: 1 -->
<svg width="1130pt" height="198pt"
 viewBox="0.00 0.00 1130.42 198.00" xmlns="http://www.w3.org/2000/svg" xmlns:xlink="http://www.w3.org/1999/xlink">
<g id="graph0" class="graph" transform="scale(1 1) rotate(0) translate(4 194)">
<title>G</title>
<polygon fill="white" stroke="none" points="-4,4 -4,-194 1126.42,-194 1126.42,4 -4,4"/>
<!-- Controller -->
<g id="node1" class="node"><title>Controller</title>
<ellipse fill="none" stroke="black" cx="58.4948" cy="-72" rx="58.4896" ry="18"/>
<text text-anchor="middle" x="58.4948" y="-68.3" font-family="Times,serif" font-size="14.00">Controller</text>
</g>
<!-- Service -->
<g id="node2" class="node"><title>Service</title>
<ellipse fill="none" stroke="black" cx="267.379" cy="-126" rx="45.4919" ry="18"/>
<text text-anchor="middle" x="267.379" y="-122.3" font-family="Times,serif" font-size="14.00">Service</text>
</g>
<!-- Controller&#45;&gt;Service -->
<g id="edge1" class="edge"><title>Controller&#45;&gt;Service</title>
<path fill="none" stroke="black" d="M101.265,-84.5208C117.382,-89.2313 135.998,-94.5262 152.99,-99 174.083,-104.554 197.516,-110.217 217.579,-114.914"/>
<polygon fill="black" stroke="black" points="216.898,-118.349 227.431,-117.206 218.484,-111.531 216.898,-118.349"/>
</g>
<!-- View -->
<g id="node6" class="node"><title>View</title>
<ellipse fill="none" stroke="black" cx="267.379" cy="-72" rx="33.5952" ry="18"/>
<text text-anchor="middle" x="267.379" y="-68.3" font-family="Times,serif" font-size="14.00">View</text>
</g>
<!-- Controller&#45;&gt;View -->
<g id="edge7" class="edge"><title>Controller&#45;&gt;View</title>
<path fill="none" stroke="black" d="M117.124,-72C150.706,-72 192.362,-72 223.127,-72"/>
<polygon fill="black" stroke="black" points="223.523,-75.5001 233.523,-72 223.523,-68.5001 223.523,-75.5001"/>
</g>
<!-- ControllerHelper -->
<g id="node7" class="node"><title>ControllerHelper</title>
<ellipse fill="none" stroke="black" cx="267.379" cy="-18" rx="114.28" ry="18"/>
<text text-anchor="middle" x="267.379" y="-14.3" font-family="Times,serif" font-size="14.00">ControllerHelper as C</text>
</g>
<!-- Controller&#45;&gt;ControllerHelper -->
<g id="edge8" class="edge"><title>Controller&#45;&gt;ControllerHelper</title>
<path fill="none" stroke="black" d="M101.265,-59.4792C117.382,-54.7687 135.998,-49.4738 152.99,-45 165.543,-41.6948 178.925,-38.3507 191.932,-35.1947"/>
<polygon fill="black" stroke="black" points="192.883,-38.5658 201.785,-32.8217 191.244,-31.7604 192.883,-38.5658"/>
</g>
<!-- Model -->
<g id="node3" class="node"><title>Model</title>
<ellipse fill="none" stroke="black" cx="849.837" cy="-172" rx="40.0939" ry="18"/>
<text text-anchor="middle" x="849.837" y="-168.3" font-family="Times,serif" font-size="14.00">Model</text>
</g>
<!-- Service&#45;&gt;Model -->
<g id="edge2" class="edge"><title>Service&#45;&gt;Model</title>
<path fill="none" stroke="black" d="M308.568,-133.708C338.599,-139.359 380.686,-147.051 417.769,-153 487.291,-164.152 504.419,-170.099 574.659,-175 662.836,-181.152 685.166,-176.76 773.541,-175 781.817,-174.835 790.602,-174.569 799.139,-174.261"/>
<polygon fill="black" stroke="black" points="799.518,-177.749 809.377,-173.868 799.25,-170.754 799.518,-177.749"/>
</g>
<!-- LibService -->
<g id="node4" class="node"><title>LibService</title>
<ellipse fill="none" stroke="black" cx="478.214" cy="-126" rx="60.3893" ry="18"/>
<text text-anchor="middle" x="478.214" y="-122.3" font-family="Times,serif" font-size="14.00">LibService</text>
</g>
<!-- Service&#45;&gt;LibService -->
<g id="edge3" class="edge"><title>Service&#45;&gt;LibService</title>
<path fill="none" stroke="black" d="M312.924,-126C340.368,-126 376.146,-126 407.305,-126"/>
<polygon fill="black" stroke="black" points="407.677,-129.5 417.677,-126 407.677,-122.5 407.677,-129.5"/>
</g>
<!-- ServiceHelper -->
<g id="node8" class="node"><title>ServiceHelper</title>
<ellipse fill="none" stroke="black" cx="674.1" cy="-72" rx="99.3824" ry="18"/>
<text text-anchor="middle" x="674.1" y="-68.3" font-family="Times,serif" font-size="14.00">ServiceHelper as S</text>
</g>
<!-- Service&#45;&gt;ServiceHelper -->
<g id="edge9" class="edge"><title>Service&#45;&gt;ServiceHelper</title>
<path fill="none" stroke="black" d="M308.197,-117.982C338.219,-112.136 380.46,-104.337 417.769,-99 469.264,-91.634 526.87,-85.3729 574.313,-80.7401"/>
<polygon fill="black" stroke="black" points="574.661,-84.223 584.277,-79.7764 573.987,-77.2555 574.661,-84.223"/>
</g>
<!-- ModelHepler -->
<g id="node9" class="node"><title>ModelHepler</title>
<ellipse fill="none" stroke="black" cx="1024.28" cy="-149" rx="98.2828" ry="18"/>
<text text-anchor="middle" x="1024.28" y="-145.3" font-family="Times,serif" font-size="14.00">ModelHepler as M</text>
</g>
<!-- Model&#45;&gt;ModelHepler -->
<g id="edge11" class="edge"><title>Model&#45;&gt;ModelHepler</title>
<path fill="none" stroke="black" d="M888.68,-166.953C902.308,-165.135 918.321,-162.999 934.456,-160.847"/>
<polygon fill="black" stroke="black" points="935.048,-164.299 944.498,-159.507 934.123,-157.36 935.048,-164.299"/>
</g>
<!-- LibService&#45;&gt;Model -->
<g id="edge6" class="edge"><title>LibService&#45;&gt;Model</title>
<path fill="none" stroke="black" d="M519.192,-139.298C536.119,-144.406 556.167,-149.779 574.659,-153 652.382,-166.537 744.081,-170.513 799.28,-171.632"/>
<polygon fill="black" stroke="black" points="799.423,-175.135 809.484,-171.815 799.548,-168.136 799.423,-175.135"/>
</g>
<!-- ExModel -->
<g id="node5" class="node"><title>ExModel</title>
<ellipse fill="none" stroke="black" cx="674.1" cy="-126" rx="51.9908" ry="18"/>
<text text-anchor="middle" x="674.1" y="-122.3" font-family="Times,serif" font-size="14.00">ExModel</text>
</g>
<!-- LibService&#45;&gt;ExModel -->
<g id="edge4" class="edge"><title>LibService&#45;&gt;ExModel</title>
<path fill="none" stroke="black" d="M538.704,-126C561.879,-126 588.428,-126 611.776,-126"/>
<polygon fill="black" stroke="black" points="611.909,-129.5 621.909,-126 611.909,-122.5 611.909,-129.5"/>
</g>
<!-- LibService&#45;&gt;ServiceHelper -->
<g id="edge10" class="edge"><title>LibService&#45;&gt;ServiceHelper</title>
<path fill="none" stroke="black" d="M522.43,-113.696C538.784,-109.06 557.572,-103.76 574.659,-99 585.618,-95.947 597.271,-92.7274 608.581,-89.6166"/>
<polygon fill="black" stroke="black" points="609.689,-92.9418 618.405,-86.9179 607.835,-86.1918 609.689,-92.9418"/>
</g>
<!-- ExModel&#45;&gt;Model -->
<g id="edge5" class="edge"><title>ExModel&#45;&gt;Model</title>
<path fill="none" stroke="black" d="M715.834,-136.785C742.631,-143.88 777.681,-153.16 805.072,-160.412"/>
<polygon fill="black" stroke="black" points="804.225,-163.809 814.788,-162.985 806.017,-157.042 804.225,-163.809"/>
</g>
<!-- ExModel&#45;&gt;ModelHepler -->
<g id="edge12" class="edge"><title>ExModel&#45;&gt;ModelHepler</title>
<path fill="none" stroke="black" d="M725.356,-129.32C776.391,-132.691 856.865,-138.007 921.316,-142.265"/>
<polygon fill="black" stroke="black" points="921.307,-145.772 931.516,-142.938 921.768,-138.787 921.307,-145.772"/>
</g>
</g>
</svg>
