<?xml version="1.0" encoding="UTF-8" standalone="no"?>
<!DOCTYPE svg PUBLIC "-//W3C//DTD SVG 1.1//EN"
 "http://www.w3.org/Graphics/SVG/1.1/DTD/svg11.dtd">
<!-- Generated by graphviz version 2.38.0 (20140413.2041)
 -->
<!-- Title: G Pages: 1 -->
<svg width="1071pt" height="234pt"
 viewBox="0.00 0.00 1071.02 234.00" xmlns="http://www.w3.org/2000/svg" xmlns:xlink="http://www.w3.org/1999/xlink">
<g id="graph0" class="graph" transform="scale(1 1) rotate(0) translate(4 230)">
<title>G</title>
<polygon fill="white" stroke="none" points="-4,4 -4,-230 1067.02,-230 1067.02,4 -4,4"/>
<!-- Controller -->
<g id="node1" class="node"><title>Controller</title>
<ellipse fill="none" stroke="black" cx="58.4948" cy="-72" rx="58.4896" ry="18"/>
<text text-anchor="middle" x="58.4948" y="-68.3" font-family="Times,serif" font-size="14.00">Controller</text>
</g>
<!-- Service -->
<g id="node2" class="node"><title>Service</title>
<ellipse fill="none" stroke="black" cx="267.379" cy="-135" rx="45.4919" ry="18"/>
<text text-anchor="middle" x="267.379" y="-131.3" font-family="Times,serif" font-size="14.00">Service</text>
</g>
<!-- Controller&#45;&gt;Service -->
<g id="edge1" class="edge"><title>Controller&#45;&gt;Service</title>
<path fill="none" stroke="black" d="M100.864,-84.5976C135.678,-95.1992 185.379,-110.334 221.221,-121.248"/>
<polygon fill="black" stroke="black" points="220.353,-124.643 230.939,-124.208 222.392,-117.946 220.353,-124.643"/>
</g>
<!-- View -->
<g id="node6" class="node"><title>View</title>
<ellipse fill="none" stroke="black" cx="267.379" cy="-72" rx="33.5952" ry="18"/>
<text text-anchor="middle" x="267.379" y="-68.3" font-family="Times,serif" font-size="14.00">View</text>
</g>
<!-- Controller&#45;&gt;View -->
<g id="edge6" class="edge"><title>Controller&#45;&gt;View</title>
<path fill="none" stroke="black" d="M117.124,-72C150.706,-72 192.362,-72 223.127,-72"/>
<polygon fill="black" stroke="black" points="223.523,-75.5001 233.523,-72 223.523,-68.5001 223.523,-75.5001"/>
</g>
<!-- ControllerHelper -->
<g id="node7" class="node"><title>ControllerHelper</title>
<ellipse fill="none" stroke="black" cx="267.379" cy="-18" rx="114.28" ry="18"/>
<text text-anchor="middle" x="267.379" y="-14.3" font-family="Times,serif" font-size="14.00">ControllerHelper as C</text>
</g>
<!-- Controller&#45;&gt;ControllerHelper -->
<g id="edge7" class="edge"><title>Controller&#45;&gt;ControllerHelper</title>
<path fill="none" stroke="black" d="M101.265,-59.4792C117.382,-54.7687 135.998,-49.4738 152.99,-45 165.543,-41.6948 178.925,-38.3507 191.932,-35.1947"/>
<polygon fill="black" stroke="black" points="192.883,-38.5658 201.785,-32.8217 191.244,-31.7604 192.883,-38.5658"/>
</g>
<!-- Model -->
<g id="node3" class="node"><title>Model</title>
<ellipse fill="none" stroke="black" cx="731.295" cy="-208" rx="40.0939" ry="18"/>
<text text-anchor="middle" x="731.295" y="-204.3" font-family="Times,serif" font-size="14.00">Model</text>
</g>
<!-- Service&#45;&gt;Model -->
<g id="edge2" class="edge"><title>Service&#45;&gt;Model</title>
<path fill="none" stroke="black" d="M301.093,-147.282C331.021,-157.984 376.749,-173.007 417.769,-181 509.484,-198.871 618.643,-204.915 680.668,-206.958"/>
<polygon fill="black" stroke="black" points="680.843,-210.465 690.946,-207.274 681.059,-203.468 680.843,-210.465"/>
</g>
<!-- LibService -->
<g id="node4" class="node"><title>LibService</title>
<ellipse fill="none" stroke="black" cx="506.811" cy="-154" rx="60.3893" ry="18"/>
<text text-anchor="middle" x="506.811" y="-150.3" font-family="Times,serif" font-size="14.00">LibService</text>
</g>
<!-- Service&#45;&gt;LibService -->
<g id="edge3" class="edge"><title>Service&#45;&gt;LibService</title>
<path fill="none" stroke="black" d="M312.205,-138.507C347.533,-141.334 397.817,-145.358 438.285,-148.596"/>
<polygon fill="black" stroke="black" points="438.099,-152.093 448.346,-149.401 438.657,-145.115 438.099,-152.093"/>
</g>
<!-- ServiceHelper -->
<g id="node8" class="node"><title>ServiceHelper</title>
<ellipse fill="none" stroke="black" cx="731.295" cy="-100" rx="99.3824" ry="18"/>
<text text-anchor="middle" x="731.295" y="-96.3" font-family="Times,serif" font-size="14.00">ServiceHelper as S</text>
</g>
<!-- Service&#45;&gt;ServiceHelper -->
<g id="edge8" class="edge"><title>Service&#45;&gt;ServiceHelper</title>
<path fill="none" stroke="black" d="M312.252,-131.676C384.535,-126.199 530.485,-115.14 629.329,-107.65"/>
<polygon fill="black" stroke="black" points="629.634,-111.137 639.341,-106.892 629.105,-104.157 629.634,-111.137"/>
</g>
<!-- ModelHepler -->
<g id="node9" class="node"><title>ModelHepler</title>
<ellipse fill="none" stroke="black" cx="964.877" cy="-181" rx="98.2828" ry="18"/>
<text text-anchor="middle" x="964.877" y="-177.3" font-family="Times,serif" font-size="14.00">ModelHepler as M</text>
</g>
<!-- Model&#45;&gt;ModelHepler -->
<g id="edge10" class="edge"><title>Model&#45;&gt;ModelHepler</title>
<path fill="none" stroke="black" d="M770.536,-203.541C797.897,-200.352 835.949,-195.915 871.064,-191.821"/>
<polygon fill="black" stroke="black" points="871.836,-195.255 881.364,-190.62 871.026,-188.302 871.836,-195.255"/>
</g>
<!-- LibService&#45;&gt;Model -->
<g id="edge5" class="edge"><title>LibService&#45;&gt;Model</title>
<path fill="none" stroke="black" d="M554.18,-165.254C592.876,-174.646 647.668,-187.945 685.824,-197.206"/>
<polygon fill="black" stroke="black" points="685.088,-200.629 695.631,-199.587 686.739,-193.827 685.088,-200.629"/>
</g>
<!-- ExModel -->
<g id="node5" class="node"><title>ExModel</title>
<ellipse fill="none" stroke="black" cx="731.295" cy="-154" rx="51.9908" ry="18"/>
<text text-anchor="middle" x="731.295" y="-150.3" font-family="Times,serif" font-size="14.00">ExModel</text>
</g>
<!-- LibService&#45;&gt;ExModel -->
<g id="edge4" class="edge"><title>LibService&#45;&gt;ExModel</title>
<path fill="none" stroke="black" d="M567.433,-154C598.908,-154 637.468,-154 669.165,-154"/>
<polygon fill="black" stroke="black" points="669.198,-157.5 679.198,-154 669.198,-150.5 669.198,-157.5"/>
</g>
<!-- LibService&#45;&gt;ServiceHelper -->
<g id="edge9" class="edge"><title>LibService&#45;&gt;ServiceHelper</title>
<path fill="none" stroke="black" d="M554.18,-142.746C585.012,-135.262 626.064,-125.298 660.776,-116.873"/>
<polygon fill="black" stroke="black" points="661.963,-120.187 670.855,-114.427 660.311,-113.384 661.963,-120.187"/>
</g>
<!-- ExModel&#45;&gt;ModelHepler -->
<g id="edge11" class="edge"><title>ExModel&#45;&gt;ModelHepler</title>
<path fill="none" stroke="black" d="M780.842,-159.66C807.171,-162.73 840.6,-166.627 871.664,-170.249"/>
<polygon fill="black" stroke="black" points="871.316,-173.732 881.654,-171.414 872.127,-166.779 871.316,-173.732"/>
</g>
<!-- ViewHepler -->
<g id="node10" class="node"><title>ViewHepler</title>
<ellipse fill="none" stroke="black" cx="506.811" cy="-62" rx="89.0842" ry="18"/>
<text text-anchor="middle" x="506.811" y="-58.3" font-family="Times,serif" font-size="14.00">ViewHepler as V</text>
</g>
<!-- View&#45;&gt;ViewHepler -->
<g id="edge12" class="edge"><title>View&#45;&gt;ViewHepler</title>
<path fill="none" stroke="black" d="M301.393,-70.6095C329.349,-69.4321 370.881,-67.6829 409.221,-66.0681"/>
<polygon fill="black" stroke="black" points="409.567,-69.5568 419.411,-65.639 409.272,-62.563 409.567,-69.5568"/>
</g>
</g>
</svg>
