<?xml version="1.0" encoding="UTF-8" standalone="no"?>
<!DOCTYPE svg PUBLIC "-//W3C//DTD SVG 1.1//EN"
 "http://www.w3.org/Graphics/SVG/1.1/DTD/svg11.dtd">
<!-- Generated by graphviz version 2.38.0 (20140413.2041)
 -->
<!-- Title: G Pages: 1 -->
<svg width="1059pt" height="408pt"
 viewBox="0.00 0.00 1058.92 408.01" xmlns="http://www.w3.org/2000/svg" xmlns:xlink="http://www.w3.org/1999/xlink">
<g id="graph0" class="graph" transform="scale(1 1) rotate(0) translate(4 404.014)">
<title>G</title>
<polygon fill="white" stroke="none" points="-4,4 -4,-404.014 1054.92,-404.014 1054.92,4 -4,4"/>
<!-- ControllerHelper -->
<g id="node1" class="node"><title>ControllerHelper</title>
<ellipse fill="gray" stroke="gray" cx="231.633" cy="-94.2067" rx="89.0842" ry="18"/>
<text text-anchor="middle" x="231.633" y="-90.5067" font-family="Times,serif" font-size="14.00">ControllerHelper as C</text>
</g>
<!-- BusinessHelper -->
<g id="node2" class="node"><title>BusinessHelper</title>
<ellipse fill="gray" stroke="gray" cx="620.804" cy="-264.207" rx="83.6854" ry="18"/>
<text text-anchor="middle" x="620.804" y="-260.507" font-family="Times,serif" font-size="14.00">BusinessHelper as B</text>
</g>
<!-- ModelHepler -->
<g id="node3" class="node"><title>ModelHepler</title>
<ellipse fill="gray" stroke="gray" cx="972.28" cy="-249.207" rx="78.7863" ry="18"/>
<text text-anchor="middle" x="972.28" y="-245.507" font-family="Times,serif" font-size="14.00">ModelHepler as M</text>
</g>
<!-- ViewHepler -->
<g id="node4" class="node"><title>ViewHepler</title>
<ellipse fill="gray" stroke="gray" cx="428.818" cy="-134.207" rx="72.2875" ry="18"/>
<text text-anchor="middle" x="428.818" y="-130.507" font-family="Times,serif" font-size="14.00">ViewHepler as V</text>
</g>
<!-- Table1Model -->
<g id="node5" class="node"><title>Table1Model</title>
<ellipse fill="brown" stroke="brown" cx="799.142" cy="-318.207" rx="58.4896" ry="18"/>
<text text-anchor="middle" x="799.142" y="-314.507" font-family="Times,serif" font-size="14.00">Table1Model</text>
</g>
<!-- Table1Model&#45;&gt;ModelHepler -->
<g id="edge10" class="edge"><title>Table1Model&#45;&gt;ModelHepler</title>
<path fill="none" stroke="black" stroke-dasharray="1,5" d="M835.602,-303.91C860.912,-293.705 895.253,-279.859 923.053,-268.651"/>
<polygon fill="black" stroke="black" points="924.622,-271.792 932.588,-264.807 922.005,-265.3 924.622,-271.792"/>
</g>
<!-- Table2Model -->
<g id="node6" class="node"><title>Table2Model</title>
<ellipse fill="brown" stroke="brown" cx="799.142" cy="-226.207" rx="58.4896" ry="18"/>
<text text-anchor="middle" x="799.142" y="-222.507" font-family="Times,serif" font-size="14.00">Table2Model</text>
</g>
<!-- Table2Model&#45;&gt;ModelHepler -->
<g id="edge11" class="edge"><title>Table2Model&#45;&gt;ModelHepler</title>
<path fill="none" stroke="black" stroke-dasharray="1,5" d="M853.353,-233.358C866.302,-235.098 880.41,-236.994 894.22,-238.85"/>
<polygon fill="black" stroke="black" points="893.825,-242.329 904.202,-240.192 894.757,-235.391 893.825,-242.329"/>
</g>
<!-- Table3Model -->
<g id="node7" class="node"><title>Table3Model</title>
<ellipse fill="brown" stroke="brown" cx="799.142" cy="-132.207" rx="58.4896" ry="18"/>
<text text-anchor="middle" x="799.142" y="-128.507" font-family="Times,serif" font-size="14.00">Table3Model</text>
</g>
<!-- Table3Model&#45;&gt;ModelHepler -->
<g id="edge12" class="edge"><title>Table3Model&#45;&gt;ModelHepler</title>
<path fill="none" stroke="black" stroke-dasharray="1,5" d="M824.299,-148.722C853.986,-169.018 904.517,-203.564 937.901,-226.387"/>
<polygon fill="black" stroke="black" points="936.182,-229.452 946.413,-232.206 940.133,-223.673 936.182,-229.452"/>
</g>
<!-- Table1ExModel -->
<g id="node8" class="node"><title>Table1ExModel</title>
<ellipse fill="brown" stroke="brown" cx="620.804" cy="-318.207" rx="68.4888" ry="18"/>
<text text-anchor="middle" x="620.804" y="-314.507" font-family="Times,serif" font-size="14.00">Table1ExModel</text>
</g>
<!-- Table1ExModel&#45;&gt;ModelHepler -->
<g id="edge14" class="edge"><title>Table1ExModel&#45;&gt;ModelHepler</title>
<path fill="none" stroke="black" stroke-dasharray="1,5" d="M672.009,-306.295C693.154,-301.409 718.052,-295.828 740.647,-291.207 793.286,-280.439 852.967,-269.608 898.429,-261.642"/>
<polygon fill="black" stroke="black" points="899.242,-265.053 908.491,-259.885 898.038,-258.158 899.242,-265.053"/>
</g>
<!-- Table1ExModel&#45;&gt;Table1Model -->
<g id="edge32" class="edge"><title>Table1ExModel&#45;&gt;Table1Model</title>
<path fill="none" stroke="black" d="M689.225,-318.207C702.706,-318.207 716.874,-318.207 730.367,-318.207"/>
<polygon fill="black" stroke="black" points="730.531,-321.707 740.531,-318.207 730.531,-314.707 730.531,-321.707"/>
</g>
<!-- Table1ExModel&#45;&gt;Table2Model -->
<g id="edge33" class="edge"><title>Table1ExModel&#45;&gt;Table2Model</title>
<path fill="none" stroke="black" d="M671.049,-305.975C682.488,-302.111 694.327,-297.233 704.647,-291.207 723.391,-280.262 723.044,-270.905 740.647,-258.207 746.249,-254.166 752.413,-250.248 758.56,-246.621"/>
<polygon fill="black" stroke="black" points="760.531,-249.527 767.487,-241.535 757.066,-243.445 760.531,-249.527"/>
</g>
<!-- ViewA -->
<g id="node9" class="node"><title>ViewA</title>
<ellipse fill="green" stroke="green" cx="231.633" cy="-202.207" rx="36.2938" ry="18"/>
<text text-anchor="middle" x="231.633" y="-198.507" font-family="Times,serif" font-size="14.00">ViewA</text>
</g>
<!-- ViewA&#45;&gt;ViewHepler -->
<g id="edge1" class="edge"><title>ViewA&#45;&gt;ViewHepler</title>
<path fill="none" stroke="black" d="M263.357,-193.342C280.345,-188.301 301.778,-181.711 320.675,-175.207 340.4,-168.417 361.92,-160.32 380.465,-153.121"/>
<polygon fill="black" stroke="black" points="381.823,-156.348 389.866,-149.451 379.278,-149.828 381.823,-156.348"/>
</g>
<!-- ViewB -->
<g id="node10" class="node"><title>ViewB</title>
<ellipse fill="green" stroke="green" cx="231.633" cy="-148.207" rx="35.9954" ry="18"/>
<text text-anchor="middle" x="231.633" y="-144.507" font-family="Times,serif" font-size="14.00">ViewB</text>
</g>
<!-- ViewB&#45;&gt;ViewHepler -->
<g id="edge2" class="edge"><title>ViewB&#45;&gt;ViewHepler</title>
<path fill="none" stroke="black" d="M267.079,-145.736C289.889,-144.1 320.765,-141.885 349.36,-139.834"/>
<polygon fill="black" stroke="black" points="349.638,-143.323 359.362,-139.117 349.137,-136.341 349.638,-143.323"/>
</g>
<!-- ViewC -->
<g id="node11" class="node"><title>ViewC</title>
<ellipse fill="green" stroke="green" cx="231.633" cy="-40.2067" rx="35.9954" ry="18"/>
<text text-anchor="middle" x="231.633" y="-36.5067" font-family="Times,serif" font-size="14.00">ViewC</text>
</g>
<!-- ViewC&#45;&gt;ViewHepler -->
<g id="edge3" class="edge"><title>ViewC&#45;&gt;ViewHepler</title>
<path fill="none" stroke="black" d="M265.807,-45.9344C283.123,-49.9858 304.095,-56.6318 320.675,-67.2067 340.84,-80.0685 336.939,-93.6949 356.675,-107.207 361.563,-110.554 366.922,-113.556 372.436,-116.233"/>
<polygon fill="black" stroke="black" points="371.251,-119.537 381.808,-120.433 374.114,-113.149 371.251,-119.537"/>
</g>
<!-- ControllerA -->
<g id="node12" class="node"><title>ControllerA</title>
<ellipse fill="red" stroke="red" cx="53.2953" cy="-202.207" rx="53.0913" ry="18"/>
<text text-anchor="middle" x="53.2953" y="-198.507" font-family="Times,serif" font-size="14.00">ControllerA</text>
</g>
<!-- ControllerA&#45;&gt;ControllerHelper -->
<g id="edge4" class="edge"><title>ControllerA&#45;&gt;ControllerHelper</title>
<path fill="none" stroke="black" stroke-dasharray="1,5" d="M87.4622,-188.314C94.2074,-184.63 100.955,-180.247 106.591,-175.207 128.09,-155.978 119.458,-138.437 142.591,-121.207 147.723,-117.384 153.404,-114.096 159.335,-111.27"/>
<polygon fill="black" stroke="black" points="161.011,-114.359 168.819,-107.198 158.249,-107.927 161.011,-114.359"/>
</g>
<!-- ControllerA&#45;&gt;ViewA -->
<g id="edge15" class="edge"><title>ControllerA&#45;&gt;ViewA</title>
<path fill="none" stroke="black" d="M106.725,-202.207C131.575,-202.207 160.985,-202.207 184.915,-202.207"/>
<polygon fill="black" stroke="black" points="185.146,-205.707 195.146,-202.207 185.146,-198.707 185.146,-205.707"/>
</g>
<!-- XBusiness -->
<g id="node15" class="node"><title>XBusiness</title>
<ellipse fill="yellow" stroke="yellow" cx="231.633" cy="-340.207" rx="48.1917" ry="18"/>
<text text-anchor="middle" x="231.633" y="-336.507" font-family="Times,serif" font-size="14.00">XBusiness</text>
</g>
<!-- ControllerA&#45;&gt;XBusiness -->
<g id="edge18" class="edge"><title>ControllerA&#45;&gt;XBusiness</title>
<path fill="none" stroke="black" d="M71.1264,-219.244C88.3561,-236.292 116.265,-262.841 142.591,-283.207 159.482,-296.274 179.375,-309.331 195.974,-319.646"/>
<polygon fill="black" stroke="black" points="194.464,-322.826 204.817,-325.076 198.127,-316.861 194.464,-322.826"/>
</g>
<!-- ControllerB -->
<g id="node13" class="node"><title>ControllerB</title>
<ellipse fill="red" stroke="red" cx="53.2953" cy="-148.207" rx="52.7911" ry="18"/>
<text text-anchor="middle" x="53.2953" y="-144.507" font-family="Times,serif" font-size="14.00">ControllerB</text>
</g>
<!-- ControllerB&#45;&gt;ControllerHelper -->
<g id="edge5" class="edge"><title>ControllerB&#45;&gt;ControllerHelper</title>
<path fill="none" stroke="black" stroke-dasharray="1,5" d="M92.9933,-136.356C116.097,-129.281 145.901,-120.154 171.865,-112.203"/>
<polygon fill="black" stroke="black" points="173.068,-115.495 181.605,-109.22 171.019,-108.802 173.068,-115.495"/>
</g>
<!-- ControllerB&#45;&gt;ViewB -->
<g id="edge16" class="edge"><title>ControllerB&#45;&gt;ViewB</title>
<path fill="none" stroke="black" d="M106.249,-148.207C131.381,-148.207 161.266,-148.207 185.443,-148.207"/>
<polygon fill="black" stroke="black" points="185.768,-151.707 195.768,-148.207 185.768,-144.707 185.768,-151.707"/>
</g>
<!-- YBusiness -->
<g id="node16" class="node"><title>YBusiness</title>
<ellipse fill="yellow" stroke="yellow" cx="231.633" cy="-256.207" rx="48.1917" ry="18"/>
<text text-anchor="middle" x="231.633" y="-252.507" font-family="Times,serif" font-size="14.00">YBusiness</text>
</g>
<!-- ControllerB&#45;&gt;YBusiness -->
<g id="edge19" class="edge"><title>ControllerB&#45;&gt;YBusiness</title>
<path fill="none" stroke="black" d="M87.4622,-162.1C94.2074,-165.784 100.955,-170.166 106.591,-175.207 128.09,-194.436 119.458,-211.977 142.591,-229.207 152.809,-236.818 165.198,-242.307 177.415,-246.257"/>
<polygon fill="black" stroke="black" points="176.551,-249.651 187.132,-249.107 178.521,-242.934 176.551,-249.651"/>
</g>
<!-- ControllerC -->
<g id="node14" class="node"><title>ControllerC</title>
<ellipse fill="red" stroke="red" cx="53.2953" cy="-40.2067" rx="52.7911" ry="18"/>
<text text-anchor="middle" x="53.2953" y="-36.5067" font-family="Times,serif" font-size="14.00">ControllerC</text>
</g>
<!-- ControllerC&#45;&gt;ControllerHelper -->
<g id="edge6" class="edge"><title>ControllerC&#45;&gt;ControllerHelper</title>
<path fill="none" stroke="black" stroke-dasharray="1,5" d="M92.9933,-52.0573C116.097,-59.1323 145.901,-68.2594 171.865,-76.2101"/>
<polygon fill="black" stroke="black" points="171.019,-79.6115 181.605,-79.193 173.068,-72.9183 171.019,-79.6115"/>
</g>
<!-- ControllerC&#45;&gt;ViewC -->
<g id="edge17" class="edge"><title>ControllerC&#45;&gt;ViewC</title>
<path fill="none" stroke="black" d="M106.249,-40.2067C131.381,-40.2067 161.266,-40.2067 185.443,-40.2067"/>
<polygon fill="black" stroke="black" points="185.768,-43.7068 195.768,-40.2067 185.768,-36.7068 185.768,-43.7068"/>
</g>
<!-- ZBusiness -->
<g id="node17" class="node"><title>ZBusiness</title>
<ellipse fill="yellow" stroke="yellow" cx="428.818" cy="-80.2067" rx="47.3916" ry="18"/>
<text text-anchor="middle" x="428.818" y="-76.5067" font-family="Times,serif" font-size="14.00">ZBusiness</text>
</g>
<!-- ControllerC&#45;&gt;ZBusiness -->
<g id="edge20" class="edge"><title>ControllerC&#45;&gt;ZBusiness</title>
<path fill="none" stroke="black" d="M89.3982,-26.8512C105.373,-21.4591 124.676,-15.8846 142.591,-13.2067 220.869,-1.50562 244.596,8.62214 320.675,-13.2067 350.7,-21.8218 380.47,-41.5795 400.981,-57.4202"/>
<polygon fill="black" stroke="black" points="398.897,-60.2348 408.908,-63.7052 403.246,-54.7497 398.897,-60.2348"/>
</g>
<!-- XBusiness&#45;&gt;BusinessHelper -->
<g id="edge7" class="edge"><title>XBusiness&#45;&gt;BusinessHelper</title>
<path fill="none" stroke="black" stroke-dasharray="1,5" d="M273.351,-331.019C297.527,-325.645 328.806,-318.833 356.675,-313.207 420.326,-300.356 492.893,-286.934 545.675,-277.394"/>
<polygon fill="black" stroke="black" points="546.407,-280.818 555.626,-275.599 545.164,-273.93 546.407,-280.818"/>
</g>
<!-- XBusiness&#45;&gt;Table1Model -->
<g id="edge29" class="edge"><title>XBusiness&#45;&gt;Table1Model</title>
<path fill="none" stroke="black" d="M262.441,-354.03C287.096,-364.661 323.347,-378.471 356.675,-384.207 509.393,-410.49 555.453,-404.097 704.647,-362.207 724.32,-356.683 744.996,-347.364 761.888,-338.72"/>
<polygon fill="black" stroke="black" points="763.624,-341.762 770.852,-334.016 760.371,-335.564 763.624,-341.762"/>
</g>
<!-- XBusiness&#45;&gt;Table1ExModel -->
<g id="edge27" class="edge"><title>XBusiness&#45;&gt;Table1ExModel</title>
<path fill="none" stroke="black" d="M270.296,-350.933C322.516,-364.237 419.669,-383.308 500.962,-367.207 528.737,-361.705 558.172,-349.621 580.799,-338.831"/>
<polygon fill="black" stroke="black" points="582.607,-341.843 590.055,-334.308 579.534,-335.554 582.607,-341.843"/>
</g>
<!-- XxLib -->
<g id="node18" class="node"><title>XxLib</title>
<ellipse fill="yellow" stroke="yellow" cx="428.818" cy="-340.207" rx="33.5952" ry="18"/>
<text text-anchor="middle" x="428.818" y="-336.507" font-family="Times,serif" font-size="14.00">XxLib</text>
</g>
<!-- XBusiness&#45;&gt;XxLib -->
<g id="edge25" class="edge"><title>XBusiness&#45;&gt;XxLib</title>
<path fill="none" stroke="black" d="M279.882,-340.207C311.812,-340.207 353.642,-340.207 384.673,-340.207"/>
<polygon fill="black" stroke="black" points="384.753,-343.707 394.753,-340.207 384.753,-336.707 384.753,-343.707"/>
</g>
<!-- YBusiness&#45;&gt;BusinessHelper -->
<g id="edge8" class="edge"><title>YBusiness&#45;&gt;BusinessHelper</title>
<path fill="none" stroke="black" stroke-dasharray="1,5" d="M279.72,-257.18C340.86,-258.443 448.948,-260.676 526.881,-262.287"/>
<polygon fill="black" stroke="black" points="527.119,-265.792 537.189,-262.5 527.263,-258.794 527.119,-265.792"/>
</g>
<!-- YBusiness&#45;&gt;Table1Model -->
<g id="edge21" class="edge"><title>YBusiness&#45;&gt;Table1Model</title>
<path fill="none" stroke="black" d="M269.979,-245.236C351.833,-223.184 551.921,-180.25 704.647,-237.207 734.359,-248.287 760.9,-273.533 778.043,-292.916"/>
<polygon fill="black" stroke="black" points="775.413,-295.226 784.578,-300.542 780.729,-290.671 775.413,-295.226"/>
</g>
<!-- YBusiness&#45;&gt;Table2Model -->
<g id="edge23" class="edge"><title>YBusiness&#45;&gt;Table2Model</title>
<path fill="none" stroke="black" d="M272.631,-246.764C288.051,-242.403 305.576,-236.543 320.675,-229.207 338.196,-220.694 338.085,-210.028 356.675,-204.207 491.435,-162.004 660.568,-191.842 745.025,-211.957"/>
<polygon fill="black" stroke="black" points="744.354,-215.396 754.897,-214.357 746.007,-208.594 744.354,-215.396"/>
</g>
<!-- YBusiness&#45;&gt;XxLib -->
<g id="edge26" class="edge"><title>YBusiness&#45;&gt;XxLib</title>
<path fill="none" stroke="black" d="M263.993,-269.703C299.11,-284.816 355.892,-309.252 392.533,-325.021"/>
<polygon fill="black" stroke="black" points="391.275,-328.29 401.844,-329.028 394.042,-321.86 391.275,-328.29"/>
</g>
<!-- ZBusiness&#45;&gt;BusinessHelper -->
<g id="edge9" class="edge"><title>ZBusiness&#45;&gt;BusinessHelper</title>
<path fill="none" stroke="black" stroke-dasharray="1,5" d="M470.374,-89.23C481.357,-93.2581 492.526,-99.0168 500.962,-107.207 530.987,-136.355 512.282,-160.413 536.962,-194.207 550.107,-212.206 568.807,-228.525 585.115,-240.871"/>
<polygon fill="black" stroke="black" points="583.253,-243.846 593.382,-246.952 587.401,-238.207 583.253,-243.846"/>
</g>
<!-- ZBusiness&#45;&gt;Table1Model -->
<g id="edge22" class="edge"><title>ZBusiness&#45;&gt;Table1Model</title>
<path fill="none" stroke="black" d="M463.7,-92.4206C475.569,-96.8689 488.934,-102.07 500.962,-107.207 593.174,-146.584 627.367,-140.32 704.647,-204.207 725.475,-221.425 723.678,-232.176 740.647,-253.207 751.667,-266.865 764.562,-281.551 775.345,-293.502"/>
<polygon fill="black" stroke="black" points="772.77,-295.873 782.084,-300.922 777.952,-291.167 772.77,-295.873"/>
</g>
<!-- ZBusiness&#45;&gt;Table3Model -->
<g id="edge24" class="edge"><title>ZBusiness&#45;&gt;Table3Model</title>
<path fill="none" stroke="black" d="M473.516,-86.376C538.489,-95.5489 660.891,-112.83 735.418,-123.351"/>
<polygon fill="black" stroke="black" points="735.214,-126.857 745.606,-124.79 736.193,-119.926 735.214,-126.857"/>
</g>
<!-- ZBusiness&#45;&gt;Table1ExModel -->
<g id="edge28" class="edge"><title>ZBusiness&#45;&gt;Table1ExModel</title>
<path fill="none" stroke="black" d="M471.467,-88.2112C482.473,-92.217 493.382,-98.2188 500.962,-107.207 554.684,-170.905 481.737,-228.806 536.962,-291.207 541.61,-296.458 547.291,-300.693 553.479,-304.108"/>
<polygon fill="black" stroke="black" points="552.31,-307.427 562.846,-308.546 555.307,-301.101 552.31,-307.427"/>
</g>
<!-- XxLib&#45;&gt;BusinessHelper -->
<g id="edge13" class="edge"><title>XxLib&#45;&gt;BusinessHelper</title>
<path fill="none" stroke="black" stroke-dasharray="1,5" d="M455.223,-328.916C468.819,-322.84 485.834,-315.18 500.962,-308.207 517.031,-300.799 520.518,-297.739 536.962,-291.207 544.843,-288.076 553.246,-285.021 561.563,-282.16"/>
<polygon fill="black" stroke="black" points="562.892,-285.406 571.252,-278.897 560.658,-278.772 562.892,-285.406"/>
</g>
<!-- XxLib&#45;&gt;Table1Model -->
<g id="edge31" class="edge"><title>XxLib&#45;&gt;Table1Model</title>
<path fill="none" stroke="black" d="M462.177,-344.09C513.766,-349.544 617.706,-357.509 704.647,-345.207 719.734,-343.072 735.795,-339.09 750.27,-334.828"/>
<polygon fill="black" stroke="black" points="751.467,-338.122 760.007,-331.852 749.421,-331.428 751.467,-338.122"/>
</g>
<!-- XxLib&#45;&gt;Table1ExModel -->
<g id="edge30" class="edge"><title>XxLib&#45;&gt;Table1ExModel</title>
<path fill="none" stroke="black" d="M462.047,-336.475C485.438,-333.766 518.02,-329.993 547.503,-326.579"/>
<polygon fill="black" stroke="black" points="548.252,-330.016 557.783,-325.389 547.447,-323.062 548.252,-330.016"/>
</g>
</g>
</svg>
