<?xml version="1.0" encoding="UTF-8" standalone="no"?>
<!DOCTYPE svg PUBLIC "-//W3C//DTD SVG 1.1//EN"
 "http://www.w3.org/Graphics/SVG/1.1/DTD/svg11.dtd">
<!-- Generated by graphviz version 2.38.0 (20140413.2041)
 -->
<!-- Title: G Pages: 1 -->
<svg width="974pt" height="557pt"
 viewBox="0.00 0.00 974.29 557.00" xmlns="http://www.w3.org/2000/svg" xmlns:xlink="http://www.w3.org/1999/xlink">
<g id="graph0" class="graph" transform="scale(1 1) rotate(0) translate(4 553)">
<title>G</title>
<polygon fill="white" stroke="none" points="-4,4 -4,-553 970.29,-553 970.29,4 -4,4"/>
<g id="clust1" class="cluster"><title>cluster_Core</title>
<path fill="none" stroke="black" d="M20,-8C20,-8 946.29,-8 946.29,-8 952.29,-8 958.29,-14 958.29,-20 958.29,-20 958.29,-529 958.29,-529 958.29,-535 952.29,-541 946.29,-541 946.29,-541 20,-541 20,-541 14,-541 8,-535 8,-529 8,-529 8,-20 8,-20 8,-14 14,-8 20,-8"/>
<text text-anchor="middle" x="483.145" y="-525.8" font-family="Times,serif" font-size="14.00">[DNMVCS\Core]</text>
</g>
<!-- Core_App -->
<g id="node1" class="node"><title>Core_App</title>
<polygon fill="lightgrey" stroke="black" points="373.721,-261 332.497,-243 373.721,-225 414.946,-243 373.721,-261"/>
<polyline fill="none" stroke="black" points="343.494,-247.802 343.494,-238.198 "/>
<polyline fill="none" stroke="black" points="362.724,-229.802 384.719,-229.802 "/>
<polyline fill="none" stroke="black" points="403.949,-238.198 403.949,-247.802 "/>
<polyline fill="none" stroke="black" points="384.719,-256.198 362.724,-256.198 "/>
<text text-anchor="middle" x="373.721" y="-239.3" font-family="Times,serif" font-size="14.00">App</text>
</g>
<!-- Core_AutoLoader -->
<g id="node2" class="node"><title>Core_AutoLoader</title>
<ellipse fill="lightgrey" stroke="black" cx="625.502" cy="-378" rx="65.7887" ry="18"/>
<text text-anchor="middle" x="625.502" y="-374.3" font-family="Times,serif" font-size="14.00">AutoLoader</text>
</g>
<!-- Core_App&#45;&gt;Core_AutoLoader -->
<g id="edge1" class="edge"><title>Core_App&#45;&gt;Core_AutoLoader</title>
<path fill="none" stroke="black" d="M387.873,-254.886C412.946,-276.946 470.089,-324.392 526.061,-351 537.491,-356.433 550.203,-360.936 562.594,-364.605"/>
<polygon fill="black" stroke="black" points="561.858,-368.034 572.432,-367.371 563.752,-361.295 561.858,-368.034"/>
</g>
<!-- Core_ExceptionManager -->
<g id="node3" class="node"><title>Core_ExceptionManager</title>
<ellipse fill="lightgrey" stroke="black" cx="625.502" cy="-216" rx="99.3824" ry="18"/>
<text text-anchor="middle" x="625.502" y="-212.3" font-family="Times,serif" font-size="14.00">ExceptionManager</text>
</g>
<!-- Core_App&#45;&gt;Core_ExceptionManager -->
<g id="edge2" class="edge"><title>Core_App&#45;&gt;Core_ExceptionManager</title>
<path fill="none" stroke="black" d="M407.12,-239.498C438.164,-236.142 486.554,-230.911 529.805,-226.236"/>
<polygon fill="black" stroke="black" points="530.242,-229.709 539.808,-225.155 529.49,-222.75 530.242,-229.709"/>
</g>
<!-- Core_View -->
<g id="node4" class="node"><title>Core_View</title>
<ellipse fill="lightgrey" stroke="black" cx="625.502" cy="-162" rx="33.5952" ry="18"/>
<text text-anchor="middle" x="625.502" y="-158.3" font-family="Times,serif" font-size="14.00">View</text>
</g>
<!-- Core_App&#45;&gt;Core_View -->
<g id="edge3" class="edge"><title>Core_App&#45;&gt;Core_View</title>
<path fill="none" stroke="black" d="M396.352,-234.704C425.568,-223.631 479.365,-203.712 526.061,-189 545.225,-182.962 566.723,-176.977 584.729,-172.181"/>
<polygon fill="black" stroke="black" points="585.832,-175.51 594.609,-169.575 584.047,-168.741 585.832,-175.51"/>
</g>
<!-- Core_Configer -->
<g id="node5" class="node"><title>Core_Configer</title>
<ellipse fill="lightgrey" stroke="black" cx="625.502" cy="-34" rx="50.8918" ry="18"/>
<text text-anchor="middle" x="625.502" y="-30.3" font-family="Times,serif" font-size="14.00">Configer</text>
</g>
<!-- Core_App&#45;&gt;Core_Configer -->
<g id="edge4" class="edge"><title>Core_App&#45;&gt;Core_Configer</title>
<path fill="none" stroke="black" d="M396.178,-234.766C422.041,-223.784 465.127,-201.944 490.061,-170 521.452,-129.782 489.072,-96.1382 526.061,-61 536.918,-50.6863 551.333,-44.2395 565.774,-40.2307"/>
<polygon fill="black" stroke="black" points="566.833,-43.5757 575.733,-37.8272 565.191,-36.7711 566.833,-43.5757"/>
</g>
<!-- Core_Route -->
<g id="node6" class="node"><title>Core_Route</title>
<ellipse fill="lightgrey" stroke="black" cx="625.502" cy="-270" rx="38.1938" ry="18"/>
<text text-anchor="middle" x="625.502" y="-266.3" font-family="Times,serif" font-size="14.00">Route</text>
</g>
<!-- Core_App&#45;&gt;Core_Route -->
<g id="edge5" class="edge"><title>Core_App&#45;&gt;Core_Route</title>
<path fill="none" stroke="black" d="M407.12,-246.502C450.499,-251.191 527.747,-259.541 577.516,-264.921"/>
<polygon fill="black" stroke="black" points="577.378,-268.426 587.697,-266.021 578.131,-261.467 577.378,-268.426"/>
</g>
<!-- Core_RuntimeState -->
<g id="node7" class="node"><title>Core_RuntimeState</title>
<ellipse fill="lightgrey" stroke="black" cx="625.502" cy="-432" rx="74.9875" ry="18"/>
<text text-anchor="middle" x="625.502" y="-428.3" font-family="Times,serif" font-size="14.00">RuntimeState</text>
</g>
<!-- Core_App&#45;&gt;Core_RuntimeState -->
<g id="edge6" class="edge"><title>Core_App&#45;&gt;Core_RuntimeState</title>
<path fill="none" stroke="black" d="M390.31,-254.092C413.887,-271.395 459.138,-306.712 490.061,-344 510.157,-368.232 501.051,-385.882 526.061,-405 533.875,-410.973 542.928,-415.625 552.315,-419.249"/>
<polygon fill="black" stroke="black" points="551.185,-422.561 561.78,-422.54 553.484,-415.95 551.185,-422.561"/>
</g>
<!-- Core_SingletonEx -->
<g id="node8" class="node"><title>Core_SingletonEx</title>
<polygon fill="lightgrey" stroke="black" points="855.617,-342 760.77,-324 855.617,-306 950.463,-324 855.617,-342"/>
<polyline fill="none" stroke="black" points="772.56,-326.237 772.56,-321.763 "/>
<polyline fill="none" stroke="black" points="843.827,-308.237 867.406,-308.237 "/>
<polyline fill="none" stroke="black" points="938.674,-321.763 938.674,-326.237 "/>
<polyline fill="none" stroke="black" points="867.406,-339.763 843.827,-339.763 "/>
<text text-anchor="middle" x="855.617" y="-320.3" font-family="Times,serif" font-size="14.00">SingletonEx</text>
</g>
<!-- Core_App&#45;&gt;Core_SingletonEx -->
<g id="edge7" class="edge"><title>Core_App&#45;&gt;Core_SingletonEx</title>
<path fill="none" stroke="black" stroke-dasharray="1,5" d="M391.848,-253.534C416.993,-269.86 463.761,-303.636 490.061,-344 519.299,-388.872 482.903,-427.287 526.061,-459 543.869,-472.085 704.614,-467.662 724.943,-459 777.414,-436.645 818.886,-381.494 839.779,-349.02"/>
<polygon fill="black" stroke="black" points="842.77,-350.839 845.118,-340.508 836.84,-347.12 842.77,-350.839"/>
</g>
<!-- Core_AutoLoader&#45;&gt;Core_SingletonEx -->
<g id="edge8" class="edge"><title>Core_AutoLoader&#45;&gt;Core_SingletonEx</title>
<path fill="none" stroke="black" stroke-dasharray="1,5" d="M675.719,-366.349C713.231,-357.469 764.755,-345.272 802.877,-336.248"/>
<polygon fill="black" stroke="black" points="803.831,-339.619 812.756,-333.909 802.219,-332.807 803.831,-339.619"/>
</g>
<!-- Core_ExceptionManager&#45;&gt;Core_SingletonEx -->
<g id="edge9" class="edge"><title>Core_ExceptionManager&#45;&gt;Core_SingletonEx</title>
<path fill="none" stroke="black" stroke-dasharray="1,5" d="M688.372,-230.009C700.715,-233.624 713.419,-237.95 724.943,-243 762.35,-259.392 801.633,-285.339 827.025,-303.435"/>
<polygon fill="black" stroke="black" points="825.244,-306.466 835.401,-309.479 829.34,-300.789 825.244,-306.466"/>
</g>
<!-- Core_View&#45;&gt;Core_SingletonEx -->
<g id="edge10" class="edge"><title>Core_View&#45;&gt;Core_SingletonEx</title>
<path fill="none" stroke="black" stroke-dasharray="1,5" d="M658.359,-166.28C678.519,-170.031 704.534,-176.86 724.943,-189 773.244,-217.73 815.461,-269.247 837.773,-299.656"/>
<polygon fill="black" stroke="black" points="835.101,-301.934 843.786,-308.002 840.78,-297.842 835.101,-301.934"/>
</g>
<!-- Core_Configer&#45;&gt;Core_SingletonEx -->
<g id="edge11" class="edge"><title>Core_Configer&#45;&gt;Core_SingletonEx</title>
<path fill="none" stroke="black" stroke-dasharray="1,5" d="M674.373,-38.8416C691.82,-42.609 710.731,-49.2653 724.943,-61 801.309,-124.053 836.493,-243.144 848.987,-296.699"/>
<polygon fill="black" stroke="black" points="845.582,-297.51 851.188,-306.5 852.411,-295.976 845.582,-297.51"/>
</g>
<!-- Core_Route&#45;&gt;Core_SingletonEx -->
<g id="edge12" class="edge"><title>Core_Route&#45;&gt;Core_SingletonEx</title>
<path fill="none" stroke="black" stroke-dasharray="1,5" d="M660.161,-277.968C697.759,-286.868 759.071,-301.382 802.795,-311.733"/>
<polygon fill="black" stroke="black" points="802.136,-315.173 812.673,-314.071 803.748,-308.361 802.136,-315.173"/>
</g>
<!-- Core_RuntimeState&#45;&gt;Core_SingletonEx -->
<g id="edge13" class="edge"><title>Core_RuntimeState&#45;&gt;Core_SingletonEx</title>
<path fill="none" stroke="black" stroke-dasharray="1,5" d="M681.381,-419.976C695.841,-415.995 711.228,-411.011 724.943,-405 762.35,-388.608 801.633,-362.661 827.025,-344.565"/>
<polygon fill="black" stroke="black" points="829.34,-347.211 835.401,-338.521 825.244,-341.534 829.34,-347.211"/>
</g>
<!-- Core_HttpServer -->
<g id="node9" class="node"><title>Core_HttpServer</title>
<ellipse fill="lightgrey" stroke="black" cx="625.502" cy="-324" rx="63.8893" ry="18"/>
<text text-anchor="middle" x="625.502" y="-320.3" font-family="Times,serif" font-size="14.00">HttpServer</text>
</g>
<!-- Core_HttpServer&#45;&gt;Core_SingletonEx -->
<g id="edge14" class="edge"><title>Core_HttpServer&#45;&gt;Core_SingletonEx</title>
<path fill="none" stroke="black" stroke-dasharray="1,5" d="M689.439,-324C708.366,-324 729.66,-324 750.507,-324"/>
<polygon fill="black" stroke="black" points="750.693,-327.5 760.693,-324 750.693,-320.5 750.693,-327.5"/>
</g>
<!-- Core_Base_ModelHelper -->
<g id="node10" class="node"><title>Core_Base_ModelHelper</title>
<ellipse fill="lightgrey" stroke="black" cx="373.721" cy="-371" rx="97.4827" ry="18"/>
<text text-anchor="middle" x="373.721" y="-367.3" font-family="Times,serif" font-size="14.00">Base\ModelHelper</text>
</g>
<!-- Core_Base_ModelHelper&#45;&gt;Core_SingletonEx -->
<g id="edge15" class="edge"><title>Core_Base_ModelHelper&#45;&gt;Core_SingletonEx</title>
<path fill="none" stroke="black" stroke-dasharray="1,5" d="M392.804,-388.804C419.364,-413.569 471.692,-457.254 526.061,-474 610.537,-500.019 644.56,-510.766 724.943,-474 781.124,-448.304 822.263,-384.919 841.84,-349.316"/>
<polygon fill="black" stroke="black" points="844.934,-350.951 846.567,-340.483 838.762,-347.648 844.934,-350.951"/>
</g>
<!-- Core_ThrowOn -->
<g id="node11" class="node"><title>Core_ThrowOn</title>
<ellipse fill="lightgrey" stroke="black" cx="625.502" cy="-88" rx="53.0913" ry="18"/>
<text text-anchor="middle" x="625.502" y="-84.3" font-family="Times,serif" font-size="14.00">ThrowOn</text>
</g>
<!-- Core_Base_ModelHelper&#45;&gt;Core_ThrowOn -->
<g id="edge16" class="edge"><title>Core_Base_ModelHelper&#45;&gt;Core_ThrowOn</title>
<path fill="none" stroke="black" stroke-dasharray="5,2" d="M402.728,-353.632C429.13,-335.819 467.862,-305.717 490.061,-270 522.84,-217.26 486.392,-182.774 526.061,-135 538.311,-120.248 556.27,-109.813 573.505,-102.587"/>
<polygon fill="black" stroke="black" points="574.922,-105.792 582.966,-98.8967 572.377,-99.2707 574.922,-105.792"/>
</g>
<!-- Core_Base_ServiceHelper -->
<g id="node12" class="node"><title>Core_Base_ServiceHelper</title>
<ellipse fill="lightgrey" stroke="black" cx="118.691" cy="-161" rx="102.882" ry="18"/>
<text text-anchor="middle" x="118.691" y="-157.3" font-family="Times,serif" font-size="14.00">Base\ServiceHelper</text>
</g>
<!-- Core_Base_ServiceHelper&#45;&gt;Core_App -->
<g id="edge20" class="edge"><title>Core_Base_ServiceHelper&#45;&gt;Core_App</title>
<path fill="none" stroke="black" stroke-dasharray="5,2" d="M168.478,-176.81C218.972,-193.174 296.437,-218.279 340.016,-232.401"/>
<polygon fill="black" stroke="black" points="338.962,-235.739 349.554,-235.492 341.12,-229.08 338.962,-235.739"/>
</g>
<!-- Core_Base_ServiceHelper&#45;&gt;Core_Configer -->
<g id="edge19" class="edge"><title>Core_Base_ServiceHelper&#45;&gt;Core_Configer</title>
<path fill="none" stroke="black" stroke-dasharray="5,2" d="M145.859,-143.318C172.666,-126.097 216.141,-100.587 257.382,-87 362.091,-52.5023 490.936,-40.4423 564.807,-36.2378"/>
<polygon fill="black" stroke="black" points="565.061,-39.7293 574.857,-35.6952 564.683,-32.7395 565.061,-39.7293"/>
</g>
<!-- Core_Base_ServiceHelper&#45;&gt;Core_SingletonEx -->
<g id="edge17" class="edge"><title>Core_Base_ServiceHelper&#45;&gt;Core_SingletonEx</title>
<path fill="none" stroke="black" stroke-dasharray="1,5" d="M125.243,-179.064C139.671,-223.043 182.524,-336.569 257.382,-398 354.953,-478.07 401.555,-469.274 526.061,-490 613.253,-504.514 645.499,-528.752 724.943,-490 784.835,-460.786 825.164,-389.058 843.436,-350.139"/>
<polygon fill="black" stroke="black" points="846.846,-351.097 847.804,-340.545 840.475,-348.196 846.846,-351.097"/>
</g>
<!-- Core_Base_ServiceHelper&#45;&gt;Core_ThrowOn -->
<g id="edge18" class="edge"><title>Core_Base_ServiceHelper&#45;&gt;Core_ThrowOn</title>
<path fill="none" stroke="black" stroke-dasharray="5,2" d="M161.178,-144.552C188.151,-134.585 224.327,-122.563 257.382,-116 362.922,-95.0452 488.399,-89.5416 561.961,-88.2297"/>
<polygon fill="black" stroke="black" points="562.045,-91.7289 571.989,-88.0712 561.935,-84.7297 562.045,-91.7289"/>
</g>
<!-- Core_Base_ControllerHelper -->
<g id="node13" class="node"><title>Core_Base_ControllerHelper</title>
<ellipse fill="lightgrey" stroke="black" cx="373.721" cy="-143" rx="116.18" ry="18"/>
<text text-anchor="middle" x="373.721" y="-139.3" font-family="Times,serif" font-size="14.00">Base\ControllerHelper</text>
</g>
<!-- Core_Base_ControllerHelper&#45;&gt;Core_ExceptionManager -->
<g id="edge26" class="edge"><title>Core_Base_ControllerHelper&#45;&gt;Core_ExceptionManager</title>
<path fill="none" stroke="black" stroke-dasharray="5,2" d="M426.449,-159.106C455.64,-168.098 492.821,-179.392 526.061,-189 536.859,-192.121 548.348,-195.353 559.524,-198.449"/>
<polygon fill="black" stroke="black" points="558.668,-201.844 569.239,-201.129 560.529,-195.096 558.668,-201.844"/>
</g>
<!-- Core_Base_ControllerHelper&#45;&gt;Core_View -->
<g id="edge25" class="edge"><title>Core_Base_ControllerHelper&#45;&gt;Core_View</title>
<path fill="none" stroke="black" stroke-dasharray="5,2" d="M478.481,-150.893C514.772,-153.653 553.514,-156.6 581.967,-158.764"/>
<polygon fill="black" stroke="black" points="581.723,-162.256 591.96,-159.525 582.254,-155.276 581.723,-162.256"/>
</g>
<!-- Core_Base_ControllerHelper&#45;&gt;Core_Configer -->
<g id="edge23" class="edge"><title>Core_Base_ControllerHelper&#45;&gt;Core_Configer</title>
<path fill="none" stroke="black" stroke-dasharray="5,2" d="M402.507,-125.421C432.169,-107.267 481.003,-79.1075 526.061,-61 540.764,-55.0913 557.205,-50.0164 572.377,-45.9135"/>
<polygon fill="black" stroke="black" points="573.345,-49.278 582.132,-43.3588 571.572,-42.5064 573.345,-49.278"/>
</g>
<!-- Core_Base_ControllerHelper&#45;&gt;Core_Route -->
<g id="edge24" class="edge"><title>Core_Base_ControllerHelper&#45;&gt;Core_Route</title>
<path fill="none" stroke="black" stroke-dasharray="5,2" d="M404.05,-160.674C427.612,-175.085 461.386,-196.219 490.061,-216 506.524,-227.357 508.101,-234.2 526.061,-243 542.69,-251.148 562.145,-257.142 579.348,-261.384"/>
<polygon fill="black" stroke="black" points="578.644,-264.814 589.179,-263.682 580.238,-257.998 578.644,-264.814"/>
</g>
<!-- Core_Base_ControllerHelper&#45;&gt;Core_SingletonEx -->
<g id="edge21" class="edge"><title>Core_Base_ControllerHelper&#45;&gt;Core_SingletonEx</title>
<path fill="none" stroke="black" stroke-dasharray="1,5" d="M462.844,-131.409C551.494,-121.433 681.154,-111.939 724.943,-135 790.624,-169.59 829.438,-254.126 845.665,-297.451"/>
<polygon fill="black" stroke="black" points="842.438,-298.819 849.134,-307.03 849.019,-296.435 842.438,-298.819"/>
</g>
<!-- Core_Base_ControllerHelper&#45;&gt;Core_ThrowOn -->
<g id="edge22" class="edge"><title>Core_Base_ControllerHelper&#45;&gt;Core_ThrowOn</title>
<path fill="none" stroke="black" stroke-dasharray="5,2" d="M441.33,-128.333C481.793,-119.424 532.776,-108.197 570.675,-99.8524"/>
<polygon fill="black" stroke="black" points="571.492,-103.257 580.505,-97.6879 569.986,-96.4203 571.492,-103.257"/>
</g>
</g>
</svg>
