<?xml version="1.0" encoding="UTF-8" standalone="no"?>
<!DOCTYPE svg PUBLIC "-//W3C//DTD SVG 1.1//EN"
 "http://www.w3.org/Graphics/SVG/1.1/DTD/svg11.dtd">
<!-- Generated by graphviz version 2.38.0 (20140413.2041)
 -->
<!-- Title: G Pages: 1 -->
<svg width="1440pt" height="1587pt"
 viewBox="0.00 0.00 1440.15 1587.00" xmlns="http://www.w3.org/2000/svg" xmlns:xlink="http://www.w3.org/1999/xlink">
<g id="graph0" class="graph" transform="scale(1 1) rotate(0) translate(4 1583)">
<title>G</title>
<polygon fill="white" stroke="none" points="-4,4 -4,-1583 1436.15,-1583 1436.15,4 -4,4"/>
<g id="clust1" class="cluster"><title>cluster_Core</title>
<path fill="none" stroke="black" d="M312.077,-199C312.077,-199 1240.97,-199 1240.97,-199 1246.97,-199 1252.97,-205 1252.97,-211 1252.97,-211 1252.97,-768 1252.97,-768 1252.97,-774 1246.97,-780 1240.97,-780 1240.97,-780 312.077,-780 312.077,-780 306.077,-780 300.077,-774 300.077,-768 300.077,-768 300.077,-211 300.077,-211 300.077,-205 306.077,-199 312.077,-199"/>
<text text-anchor="middle" x="776.522" y="-764.8" font-family="Times,serif" font-size="14.00">[DNMVCS\Core]</text>
</g>
<g id="clust2" class="cluster"><title>cluster_Base</title>
<polygon fill="none" stroke="black" points="773.092,-8 773.092,-191 998.373,-191 998.373,-8 773.092,-8"/>
<text text-anchor="middle" x="885.732" y="-175.8" font-family="Times,serif" font-size="14.00">[DNMVCS\Base]</text>
</g>
<g id="clust3" class="cluster"><title>cluster_Helper</title>
<polygon fill="none" stroke="black" points="8,-391 8,-628 280.077,-628 280.077,-391 8,-391"/>
<text text-anchor="middle" x="144.039" y="-612.8" font-family="Times,serif" font-size="14.00">[DNMVCS\Helper]</text>
</g>
<g id="clust4" class="cluster"><title>cluster_DB</title>
<polygon fill="none" stroke="black" points="1085.75,-1442 1085.75,-1571 1424.15,-1571 1424.15,-1442 1085.75,-1442"/>
<text text-anchor="middle" x="1254.95" y="-1555.8" font-family="Times,serif" font-size="14.00">[DNMVCS\DB]</text>
</g>
<g id="clust5" class="cluster"><title>cluster_Ext</title>
<polygon fill="none" stroke="black" points="588.255,-873 588.255,-1434 1245.39,-1434 1245.39,-873 588.255,-873"/>
<text text-anchor="middle" x="916.82" y="-1418.8" font-family="Times,serif" font-size="14.00">[DNMVCS\Ext]</text>
</g>
<g id="clust6" class="cluster"><title>cluster_DNMVCS</title>
<polygon fill="none" stroke="black" points="331.493,-788 331.493,-971 536.839,-971 536.839,-788 331.493,-788"/>
<text text-anchor="middle" x="434.166" y="-955.8" font-family="Times,serif" font-size="14.00">[DNMVCS]</text>
</g>
<!-- SingletonEx -->
<g id="node1" class="node"><title>SingletonEx</title>
<polygon fill="none" stroke="black" points="434.166,-940 339.319,-922 434.166,-904 529.013,-922 434.166,-940"/>
<polyline fill="none" stroke="black" points="351.109,-924.237 351.109,-919.763 "/>
<polyline fill="none" stroke="black" points="422.377,-906.237 445.956,-906.237 "/>
<polyline fill="none" stroke="black" points="517.223,-919.763 517.223,-924.237 "/>
<polyline fill="none" stroke="black" points="445.956,-937.763 422.377,-937.763 "/>
<text text-anchor="middle" x="434.166" y="-918.3" font-family="Times,serif" font-size="14.00">SingletonEx</text>
</g>
<!-- Core_SingletonEx -->
<g id="node9" class="node"><title>Core_SingletonEx</title>
<polygon fill="lightgrey" stroke="black" points="1150.29,-703 1055.45,-685 1150.29,-667 1245.14,-685 1150.29,-703"/>
<polyline fill="none" stroke="black" points="1067.24,-687.237 1067.24,-682.763 "/>
<polyline fill="none" stroke="black" points="1138.5,-669.237 1162.08,-669.237 "/>
<polyline fill="none" stroke="black" points="1233.35,-682.763 1233.35,-687.237 "/>
<polyline fill="none" stroke="black" points="1162.08,-700.763 1138.5,-700.763 "/>
<text text-anchor="middle" x="1150.29" y="-681.3" font-family="Times,serif" font-size="14.00">SingletonEx</text>
</g>
<!-- SingletonEx&#45;&gt;Core_SingletonEx -->
<g id="edge62" class="edge"><title>SingletonEx&#45;&gt;Core_SingletonEx</title>
<path fill="none" stroke="black" d="M495.64,-915.64C516.923,-911.699 540.455,-905.32 560.255,-895 575.314,-887.151 574.207,-878.542 588.255,-869 654.886,-823.742 674.518,-813.552 751.844,-791 866.961,-757.428 905.708,-795.456 1019.62,-758 1057.16,-745.656 1096.14,-722 1121.43,-704.958"/>
<polygon fill="black" stroke="black" points="1123.51,-707.776 1129.78,-699.235 1119.55,-702.001 1123.51,-707.776"/>
</g>
<!-- Core_App -->
<g id="node2" class="node"><title>Core_App</title>
<polygon fill="lightgrey" stroke="black" points="656.05,-516 614.825,-498 656.05,-480 697.274,-498 656.05,-516"/>
<polyline fill="none" stroke="black" points="625.822,-502.802 625.822,-493.198 "/>
<polyline fill="none" stroke="black" points="645.052,-484.802 667.047,-484.802 "/>
<polyline fill="none" stroke="black" points="686.277,-493.198 686.277,-502.802 "/>
<polyline fill="none" stroke="black" points="667.047,-511.198 645.052,-511.198 "/>
<text text-anchor="middle" x="656.05" y="-494.3" font-family="Times,serif" font-size="14.00">App</text>
</g>
<!-- Core_AutoLoader -->
<g id="node3" class="node"><title>Core_AutoLoader</title>
<ellipse fill="lightgrey" stroke="black" cx="885.732" cy="-279" rx="65.7887" ry="18"/>
<text text-anchor="middle" x="885.732" y="-275.3" font-family="Times,serif" font-size="14.00">AutoLoader</text>
</g>
<!-- Core_App&#45;&gt;Core_AutoLoader -->
<g id="edge1" class="edge"><title>Core_App&#45;&gt;Core_AutoLoader</title>
<path fill="none" stroke="black" d="M669.261,-485.478C682.429,-471.356 703.197,-447.193 715.844,-423 741.049,-374.785 711.534,-342.539 751.844,-306 767.73,-291.6 789.133,-284.029 810.115,-280.25"/>
<polygon fill="black" stroke="black" points="810.676,-283.705 820.029,-278.728 809.614,-276.786 810.676,-283.705"/>
</g>
<!-- Core_ExceptionManager -->
<g id="node4" class="node"><title>Core_ExceptionManager</title>
<ellipse fill="lightgrey" stroke="black" cx="885.732" cy="-387" rx="99.3824" ry="18"/>
<text text-anchor="middle" x="885.732" y="-383.3" font-family="Times,serif" font-size="14.00">ExceptionManager</text>
</g>
<!-- Core_App&#45;&gt;Core_ExceptionManager -->
<g id="edge2" class="edge"><title>Core_App&#45;&gt;Core_ExceptionManager</title>
<path fill="none" stroke="black" d="M667.789,-484.858C683.95,-466.02 716.427,-431.67 751.844,-414 764.304,-407.784 778.099,-402.999 791.948,-399.316"/>
<polygon fill="black" stroke="black" points="793.157,-402.622 802.024,-396.823 791.476,-395.827 793.157,-402.622"/>
</g>
<!-- Core_View -->
<g id="node5" class="node"><title>Core_View</title>
<ellipse fill="lightgrey" stroke="black" cx="885.732" cy="-441" rx="33.5952" ry="18"/>
<text text-anchor="middle" x="885.732" y="-437.3" font-family="Times,serif" font-size="14.00">View</text>
</g>
<!-- Core_App&#45;&gt;Core_View -->
<g id="edge3" class="edge"><title>Core_App&#45;&gt;Core_View</title>
<path fill="none" stroke="black" d="M679.455,-490.169C698.542,-483.677 726.779,-474.493 751.844,-468 782.224,-460.13 816.998,-453.135 843.352,-448.238"/>
<polygon fill="black" stroke="black" points="844.167,-451.647 853.372,-446.401 842.905,-444.762 844.167,-451.647"/>
</g>
<!-- Core_Configer -->
<g id="node6" class="node"><title>Core_Configer</title>
<ellipse fill="lightgrey" stroke="black" cx="885.732" cy="-495" rx="50.8918" ry="18"/>
<text text-anchor="middle" x="885.732" y="-491.3" font-family="Times,serif" font-size="14.00">Configer</text>
</g>
<!-- Core_App&#45;&gt;Core_Configer -->
<g id="edge4" class="edge"><title>Core_App&#45;&gt;Core_Configer</title>
<path fill="none" stroke="black" d="M696.19,-497.484C731.587,-497.018 784.237,-496.324 824.91,-495.788"/>
<polygon fill="black" stroke="black" points="825.022,-499.287 834.975,-495.656 824.93,-492.288 825.022,-499.287"/>
</g>
<!-- Core_Route -->
<g id="node7" class="node"><title>Core_Route</title>
<ellipse fill="lightgrey" stroke="black" cx="885.732" cy="-549" rx="38.1938" ry="18"/>
<text text-anchor="middle" x="885.732" y="-545.3" font-family="Times,serif" font-size="14.00">Route</text>
</g>
<!-- Core_App&#45;&gt;Core_Route -->
<g id="edge5" class="edge"><title>Core_App&#45;&gt;Core_Route</title>
<path fill="none" stroke="black" d="M682.319,-504.745C701.37,-509.746 728.175,-516.602 751.844,-522 781.125,-528.677 814.221,-535.404 840.06,-540.473"/>
<polygon fill="black" stroke="black" points="839.455,-543.921 849.94,-542.4 840.795,-537.051 839.455,-543.921"/>
</g>
<!-- Core_RuntimeState -->
<g id="node8" class="node"><title>Core_RuntimeState</title>
<ellipse fill="lightgrey" stroke="black" cx="885.732" cy="-603" rx="74.9875" ry="18"/>
<text text-anchor="middle" x="885.732" y="-599.3" font-family="Times,serif" font-size="14.00">RuntimeState</text>
</g>
<!-- Core_App&#45;&gt;Core_RuntimeState -->
<g id="edge6" class="edge"><title>Core_App&#45;&gt;Core_RuntimeState</title>
<path fill="none" stroke="black" d="M676.124,-507.239C688.184,-513.574 703.725,-522.68 715.844,-533 734.821,-549.159 730.429,-563.247 751.844,-576 767.631,-585.401 786.143,-591.58 804.252,-595.627"/>
<polygon fill="black" stroke="black" points="803.754,-599.097 814.251,-597.662 805.15,-592.238 803.754,-599.097"/>
</g>
<!-- Core_App&#45;&gt;Core_SingletonEx -->
<g id="edge7" class="edge"><title>Core_App&#45;&gt;Core_SingletonEx</title>
<path fill="none" stroke="black" stroke-dasharray="1,5" d="M678.289,-506.333C690.721,-512.159 705.883,-521.044 715.844,-533 745.278,-568.33 715.098,-602.355 751.844,-630 799.528,-665.874 960.8,-639.958 1019.62,-650 1048.31,-654.897 1079.84,-663.338 1104.63,-670.704"/>
<polygon fill="black" stroke="black" points="1103.88,-674.134 1114.47,-673.675 1105.91,-667.433 1103.88,-674.134"/>
</g>
<!-- Core_ThrowOn -->
<g id="node10" class="node"><title>Core_ThrowOn</title>
<ellipse fill="lightgrey" stroke="black" cx="885.732" cy="-225" rx="53.0913" ry="18"/>
<text text-anchor="middle" x="885.732" y="-221.3" font-family="Times,serif" font-size="14.00">ThrowOn</text>
</g>
<!-- Core_App&#45;&gt;Core_ThrowOn -->
<g id="edge8" class="edge"><title>Core_App&#45;&gt;Core_ThrowOn</title>
<path fill="none" stroke="black" d="M669.683,-485.686C683.22,-471.747 704.311,-447.743 715.844,-423 748.657,-352.606 696.733,-306.724 751.844,-252 770.271,-233.703 797.489,-226.161 822.502,-223.502"/>
<polygon fill="black" stroke="black" points="823.006,-226.973 832.686,-222.666 822.433,-219.996 823.006,-226.973"/>
</g>
<!-- Core_ExtendableStaticCallTrait -->
<g id="node11" class="node"><title>Core_ExtendableStaticCallTrait</title>
<ellipse fill="lightgrey" stroke="black" cx="885.732" cy="-677" rx="131.877" ry="18"/>
<text text-anchor="middle" x="885.732" y="-673.3" font-family="Times,serif" font-size="14.00">ExtendableStaticCallTrait</text>
</g>
<!-- Core_App&#45;&gt;Core_ExtendableStaticCallTrait -->
<g id="edge9" class="edge"><title>Core_App&#45;&gt;Core_ExtendableStaticCallTrait</title>
<path fill="none" stroke="black" d="M678.767,-506.31C691.214,-512.082 706.225,-520.919 715.844,-533 748.412,-573.904 713.518,-609.434 751.844,-645 758.945,-651.589 767.16,-656.89 775.953,-661.147"/>
<polygon fill="black" stroke="black" points="774.738,-664.435 785.304,-665.215 777.53,-658.016 774.738,-664.435"/>
</g>
<!-- Core_AutoLoader&#45;&gt;Core_SingletonEx -->
<g id="edge10" class="edge"><title>Core_AutoLoader&#45;&gt;Core_SingletonEx</title>
<path fill="none" stroke="black" stroke-dasharray="1,5" d="M951.509,-279.072C975.357,-282.212 1001.05,-289.686 1019.62,-306 1126.49,-399.886 1145.37,-585.717 1148.64,-656.611"/>
<polygon fill="black" stroke="black" points="1145.15,-657.114 1149.04,-666.971 1152.15,-656.843 1145.15,-657.114"/>
</g>
<!-- Core_ExceptionManager&#45;&gt;Core_SingletonEx -->
<g id="edge11" class="edge"><title>Core_ExceptionManager&#45;&gt;Core_SingletonEx</title>
<path fill="none" stroke="black" stroke-dasharray="1,5" d="M977.776,-393.846C992.826,-398.117 1007.46,-404.516 1019.62,-414 1100.01,-476.707 1133.24,-601.649 1144.46,-657.229"/>
<polygon fill="black" stroke="black" points="1141.08,-658.225 1146.41,-667.381 1147.96,-656.899 1141.08,-658.225"/>
</g>
<!-- Core_View&#45;&gt;Core_SingletonEx -->
<g id="edge12" class="edge"><title>Core_View&#45;&gt;Core_SingletonEx</title>
<path fill="none" stroke="black" stroke-dasharray="1,5" d="M919.684,-440.484C948.502,-441.602 990.228,-447.18 1019.62,-468 1087.38,-515.994 1125.81,-611.568 1141.25,-658.183"/>
<polygon fill="black" stroke="black" points="1137.98,-659.426 1144.36,-667.878 1144.64,-657.286 1137.98,-659.426"/>
</g>
<!-- Core_Configer&#45;&gt;Core_SingletonEx -->
<g id="edge13" class="edge"><title>Core_Configer&#45;&gt;Core_SingletonEx</title>
<path fill="none" stroke="black" stroke-dasharray="1,5" d="M936.435,-496.97C962.771,-499.94 994.727,-506.751 1019.62,-522 1075.24,-556.072 1116.86,-623.055 1136.59,-659.654"/>
<polygon fill="black" stroke="black" points="1133.6,-661.476 1141.35,-668.693 1139.79,-658.214 1133.6,-661.476"/>
</g>
<!-- Core_Route&#45;&gt;Core_SingletonEx -->
<g id="edge14" class="edge"><title>Core_Route&#45;&gt;Core_SingletonEx</title>
<path fill="none" stroke="black" stroke-dasharray="1,5" d="M923.829,-551.583C951.391,-554.655 989.303,-561.365 1019.62,-576 1063.59,-597.227 1105.07,-636.769 1128.8,-661.94"/>
<polygon fill="black" stroke="black" points="1126.49,-664.605 1135.86,-669.566 1131.63,-659.85 1126.49,-664.605"/>
</g>
<!-- Core_RuntimeState&#45;&gt;Core_SingletonEx -->
<g id="edge15" class="edge"><title>Core_RuntimeState&#45;&gt;Core_SingletonEx</title>
<path fill="none" stroke="black" stroke-dasharray="1,5" d="M942.783,-614.773C966.66,-620.231 994.7,-627.232 1019.62,-635 1050.87,-644.741 1085.42,-658.2 1110.99,-668.701"/>
<polygon fill="black" stroke="black" points="1109.75,-671.974 1120.33,-672.566 1112.43,-665.507 1109.75,-671.974"/>
</g>
<!-- Core_HttpServer -->
<g id="node12" class="node"><title>Core_HttpServer</title>
<ellipse fill="lightgrey" stroke="black" cx="885.732" cy="-731" rx="63.8893" ry="18"/>
<text text-anchor="middle" x="885.732" y="-727.3" font-family="Times,serif" font-size="14.00">HttpServer</text>
</g>
<!-- Core_HttpServer&#45;&gt;Core_SingletonEx -->
<g id="edge16" class="edge"><title>Core_HttpServer&#45;&gt;Core_SingletonEx</title>
<path fill="none" stroke="black" stroke-dasharray="1,5" d="M940.182,-721.636C983.813,-713.992 1045.4,-703.203 1090.43,-695.313"/>
<polygon fill="black" stroke="black" points="1091.1,-698.748 1100.35,-693.575 1089.9,-691.853 1091.1,-698.748"/>
</g>
<!-- Core_SuperGlobal -->
<g id="node13" class="node"><title>Core_SuperGlobal</title>
<ellipse fill="lightgrey" stroke="black" cx="885.732" cy="-333" rx="67.6881" ry="18"/>
<text text-anchor="middle" x="885.732" y="-329.3" font-family="Times,serif" font-size="14.00">SuperGlobal</text>
</g>
<!-- Core_SuperGlobal&#45;&gt;Core_SingletonEx -->
<g id="edge17" class="edge"><title>Core_SuperGlobal&#45;&gt;Core_SingletonEx</title>
<path fill="none" stroke="black" stroke-dasharray="1,5" d="M953.475,-333.896C976.593,-337.268 1001.28,-344.683 1019.62,-360 1113.28,-438.223 1139.8,-593.797 1146.87,-657.166"/>
<polygon fill="black" stroke="black" points="1143.4,-657.62 1147.92,-667.205 1150.37,-656.897 1143.4,-657.62"/>
</g>
<!-- Core_Helper_ModelHelper -->
<g id="node14" class="node"><title>Core_Helper_ModelHelper</title>
<ellipse fill="lightgrey" stroke="black" cx="434.166" cy="-417" rx="107.482" ry="18"/>
<text text-anchor="middle" x="434.166" y="-413.3" font-family="Times,serif" font-size="14.00">Helper\ModelHelper</text>
</g>
<!-- Core_Helper_ModelHelper&#45;&gt;Core_App -->
<g id="edge20" class="edge"><title>Core_Helper_ModelHelper&#45;&gt;Core_App</title>
<path fill="none" stroke="black" stroke-dasharray="5,2" d="M511.326,-429.557C527.739,-433.332 544.795,-438.089 560.255,-444 585.645,-453.708 612.359,-469.502 630.934,-481.508"/>
<polygon fill="black" stroke="black" points="629.08,-484.478 639.357,-487.054 632.929,-478.631 629.08,-484.478"/>
</g>
<!-- Core_Helper_ModelHelper&#45;&gt;Core_ThrowOn -->
<g id="edge19" class="edge"><title>Core_Helper_ModelHelper&#45;&gt;Core_ThrowOn</title>
<path fill="none" stroke="black" stroke-dasharray="5,2" d="M447.172,-398.954C470.173,-366.035 523.922,-296.711 588.255,-265 662.944,-228.184 760.364,-221.793 822.75,-222.158"/>
<polygon fill="black" stroke="black" points="822.793,-225.659 832.834,-222.278 822.876,-218.659 822.793,-225.659"/>
</g>
<!-- Core_Helper_ModelHelper&#45;&gt;Core_ExtendableStaticCallTrait -->
<g id="edge18" class="edge"><title>Core_Helper_ModelHelper&#45;&gt;Core_ExtendableStaticCallTrait</title>
<path fill="none" stroke="black" stroke-dasharray="5,2" d="M528.187,-425.691C539.922,-429.919 551.028,-435.821 560.255,-444 588.758,-469.267 558.855,-500.782 588.255,-525 632.457,-561.412 671.525,-506.731 715.844,-543 753.049,-573.446 716.146,-612.801 751.844,-645 759.103,-651.547 767.466,-656.816 776.39,-661.048"/>
<polygon fill="black" stroke="black" points="775.299,-664.387 785.871,-665.093 778.047,-657.949 775.299,-664.387"/>
</g>
<!-- Core_Helper_ServiceHelper -->
<g id="node15" class="node"><title>Core_Helper_ServiceHelper</title>
<ellipse fill="lightgrey" stroke="black" cx="434.166" cy="-471" rx="112.38" ry="18"/>
<text text-anchor="middle" x="434.166" y="-467.3" font-family="Times,serif" font-size="14.00">Helper\ServiceHelper</text>
</g>
<!-- Core_Helper_ServiceHelper&#45;&gt;Core_App -->
<g id="edge23" class="edge"><title>Core_Helper_ServiceHelper&#45;&gt;Core_App</title>
<path fill="none" stroke="black" stroke-dasharray="5,2" d="M523.967,-481.904C554.976,-485.712 588.315,-489.806 613.612,-492.912"/>
<polygon fill="black" stroke="black" points="613.23,-496.391 623.582,-494.136 614.083,-489.443 613.23,-496.391"/>
</g>
<!-- Core_Helper_ServiceHelper&#45;&gt;Core_ThrowOn -->
<g id="edge22" class="edge"><title>Core_Helper_ServiceHelper&#45;&gt;Core_ThrowOn</title>
<path fill="none" stroke="black" stroke-dasharray="5,2" d="M532.32,-462.158C542.72,-457.857 552.365,-451.977 560.255,-444 603.958,-399.814 547.088,-353.557 588.255,-307 619.529,-271.631 749.03,-246.003 826.155,-233.532"/>
<polygon fill="black" stroke="black" points="826.887,-236.959 836.213,-231.932 825.787,-230.046 826.887,-236.959"/>
</g>
<!-- Core_Helper_ServiceHelper&#45;&gt;Core_ExtendableStaticCallTrait -->
<g id="edge21" class="edge"><title>Core_Helper_ServiceHelper&#45;&gt;Core_ExtendableStaticCallTrait</title>
<path fill="none" stroke="black" stroke-dasharray="5,2" d="M525.965,-481.47C538.164,-485.423 549.991,-490.774 560.255,-498 579.516,-511.56 569.683,-528.51 588.255,-543 635.215,-579.639 669.317,-546.813 715.844,-584 740.435,-603.654 726.537,-626.277 751.844,-645 760.681,-651.538 770.67,-656.757 781.106,-660.921"/>
<polygon fill="black" stroke="black" points="780.201,-664.317 790.795,-664.457 782.6,-657.741 780.201,-664.317"/>
</g>
<!-- Core_Helper_ControllerHelper -->
<g id="node16" class="node"><title>Core_Helper_ControllerHelper</title>
<ellipse fill="lightgrey" stroke="black" cx="434.166" cy="-525" rx="126.178" ry="18"/>
<text text-anchor="middle" x="434.166" y="-521.3" font-family="Times,serif" font-size="14.00">Helper\ControllerHelper</text>
</g>
<!-- Core_Helper_ControllerHelper&#45;&gt;Core_App -->
<g id="edge26" class="edge"><title>Core_Helper_ControllerHelper&#45;&gt;Core_App</title>
<path fill="none" stroke="black" stroke-dasharray="5,2" d="M530.331,-513.314C559.45,-509.739 589.976,-505.991 613.54,-503.097"/>
<polygon fill="black" stroke="black" points="614.018,-506.565 623.516,-501.872 613.164,-499.617 614.018,-506.565"/>
</g>
<!-- Core_Helper_ControllerHelper&#45;&gt;Core_ThrowOn -->
<g id="edge25" class="edge"><title>Core_Helper_ControllerHelper&#45;&gt;Core_ThrowOn</title>
<path fill="none" stroke="black" stroke-dasharray="5,2" d="M534.561,-513.969C543.944,-509.971 552.74,-504.761 560.255,-498 589.825,-471.399 567.269,-446.788 588.255,-413 589.096,-411.646 750.437,-252.749 751.844,-252 773.57,-240.441 799.71,-233.821 823.036,-230.032"/>
<polygon fill="black" stroke="black" points="823.805,-233.457 833.184,-228.529 822.779,-226.532 823.805,-233.457"/>
</g>
<!-- Core_Helper_ControllerHelper&#45;&gt;Core_ExtendableStaticCallTrait -->
<g id="edge24" class="edge"><title>Core_Helper_ControllerHelper&#45;&gt;Core_ExtendableStaticCallTrait</title>
<path fill="none" stroke="black" stroke-dasharray="5,2" d="M526.27,-537.429C538.162,-541.103 549.822,-545.855 560.255,-552 576.538,-561.591 572.096,-574.2 588.255,-584 638.152,-614.261 663.725,-588.751 715.844,-615 734.446,-624.368 733.233,-635.651 751.844,-645 764.13,-651.172 777.661,-656.189 791.245,-660.258"/>
<polygon fill="black" stroke="black" points="790.553,-663.7 801.128,-663.056 792.46,-656.964 790.553,-663.7"/>
</g>
<!-- Core_Helper_ViewHelper -->
<g id="node17" class="node"><title>Core_Helper_ViewHelper</title>
<ellipse fill="lightgrey" stroke="black" cx="434.166" cy="-579" rx="100.983" ry="18"/>
<text text-anchor="middle" x="434.166" y="-575.3" font-family="Times,serif" font-size="14.00">Helper\ViewHelper</text>
</g>
<!-- Core_Helper_ViewHelper&#45;&gt;Core_App -->
<g id="edge29" class="edge"><title>Core_Helper_ViewHelper&#45;&gt;Core_App</title>
<path fill="none" stroke="black" stroke-dasharray="5,2" d="M509.346,-566.894C526.363,-563.05 544.172,-558.149 560.255,-552 585.645,-542.292 612.359,-526.498 630.934,-514.492"/>
<polygon fill="black" stroke="black" points="632.929,-517.369 639.357,-508.946 629.08,-511.522 632.929,-517.369"/>
</g>
<!-- Core_Helper_ViewHelper&#45;&gt;Core_ThrowOn -->
<g id="edge28" class="edge"><title>Core_Helper_ViewHelper&#45;&gt;Core_ThrowOn</title>
<path fill="none" stroke="black" stroke-dasharray="5,2" d="M525.32,-571.304C538.109,-567.023 550.28,-560.843 560.255,-552 588.758,-526.733 567.289,-502.801 588.255,-471 630.44,-407.015 673.55,-418.912 715.844,-355 742.606,-314.56 715.307,-283.885 751.844,-252 771.098,-235.198 797.915,-227.79 822.42,-224.831"/>
<polygon fill="black" stroke="black" points="822.783,-228.312 832.391,-223.848 822.096,-221.346 822.783,-228.312"/>
</g>
<!-- Core_Helper_ViewHelper&#45;&gt;Core_ExtendableStaticCallTrait -->
<g id="edge27" class="edge"><title>Core_Helper_ViewHelper&#45;&gt;Core_ExtendableStaticCallTrait</title>
<path fill="none" stroke="black" stroke-dasharray="5,2" d="M495.069,-593.45C523.302,-600.167 557.47,-608.163 588.255,-615 659.832,-630.898 741.391,-647.87 800.824,-660.031"/>
<polygon fill="black" stroke="black" points="800.412,-663.519 810.91,-662.092 801.813,-656.661 800.412,-663.519"/>
</g>
<!-- StrictModelTrait -->
<g id="node18" class="node"><title>StrictModelTrait</title>
<ellipse fill="none" stroke="black" cx="885.732" cy="-88" rx="89.0842" ry="18"/>
<text text-anchor="middle" x="885.732" y="-84.3" font-family="Times,serif" font-size="14.00">StrictModelTrait</text>
</g>
<!-- StrictModelTrait&#45;&gt;Core_SingletonEx -->
<g id="edge30" class="edge"><title>StrictModelTrait&#45;&gt;Core_SingletonEx</title>
<path fill="none" stroke="black" stroke-dasharray="1,5" d="M973.834,-91.0757C990.799,-95.433 1007.16,-102.825 1019.62,-115 1099.02,-192.575 1137.41,-553.792 1146.9,-657.246"/>
<polygon fill="black" stroke="black" points="1143.42,-657.591 1147.8,-667.237 1150.39,-656.964 1143.42,-657.591"/>
</g>
<!-- StrictServiceTrait -->
<g id="node19" class="node"><title>StrictServiceTrait</title>
<ellipse fill="none" stroke="black" cx="885.732" cy="-142" rx="94.4839" ry="18"/>
<text text-anchor="middle" x="885.732" y="-138.3" font-family="Times,serif" font-size="14.00">StrictServiceTrait</text>
</g>
<!-- StrictServiceTrait&#45;&gt;Core_SingletonEx -->
<g id="edge31" class="edge"><title>StrictServiceTrait&#45;&gt;Core_SingletonEx</title>
<path fill="none" stroke="black" stroke-dasharray="1,5" d="M951.813,-154.857C976.134,-162.702 1002.08,-175.2 1019.62,-195 1142.21,-333.364 1150.92,-574.593 1150.11,-656.701"/>
<polygon fill="black" stroke="black" points="1146.61,-656.721 1149.95,-666.775 1153.61,-656.831 1146.61,-656.721"/>
</g>
<!-- SessionedController -->
<g id="node20" class="node"><title>SessionedController</title>
<ellipse fill="none" stroke="black" cx="885.732" cy="-34" rx="104.782" ry="18"/>
<text text-anchor="middle" x="885.732" y="-30.3" font-family="Times,serif" font-size="14.00">SessionedController</text>
</g>
<!-- Helper_ControllerHelper -->
<g id="node21" class="node"><title>Helper_ControllerHelper</title>
<ellipse fill="none" stroke="black" cx="144.039" cy="-525" rx="128.077" ry="18"/>
<text text-anchor="middle" x="144.039" y="-521.3" font-family="Times,serif" font-size="14.00">Helper_ControllerHelper</text>
</g>
<!-- Helper_ControllerHelper&#45;&gt;Core_Helper_ControllerHelper -->
<g id="edge32" class="edge"><title>Helper_ControllerHelper&#45;&gt;Core_Helper_ControllerHelper</title>
<path fill="none" stroke="black" stroke-dasharray="1,5" d="M272.254,-525C280.614,-525 289.05,-525 297.449,-525"/>
<polygon fill="black" stroke="black" points="297.667,-528.5 307.667,-525 297.667,-521.5 297.667,-528.5"/>
</g>
<!-- Helper_ModelHelper -->
<g id="node22" class="node"><title>Helper_ModelHelper</title>
<ellipse fill="none" stroke="black" cx="144.039" cy="-417" rx="109.381" ry="18"/>
<text text-anchor="middle" x="144.039" y="-413.3" font-family="Times,serif" font-size="14.00">Helper_ModelHelper</text>
</g>
<!-- Helper_ModelHelper&#45;&gt;Core_Helper_ModelHelper -->
<g id="edge33" class="edge"><title>Helper_ModelHelper&#45;&gt;Core_Helper_ModelHelper</title>
<path fill="none" stroke="black" stroke-dasharray="1,5" d="M253.557,-417C274.12,-417 295.714,-417 316.516,-417"/>
<polygon fill="black" stroke="black" points="316.657,-420.5 326.657,-417 316.657,-413.5 316.657,-420.5"/>
</g>
<!-- Helper_ServiceHelper -->
<g id="node23" class="node"><title>Helper_ServiceHelper</title>
<ellipse fill="none" stroke="black" cx="144.039" cy="-471" rx="114.28" ry="18"/>
<text text-anchor="middle" x="144.039" y="-467.3" font-family="Times,serif" font-size="14.00">Helper_ServiceHelper</text>
</g>
<!-- Helper_ServiceHelper&#45;&gt;Core_Helper_ServiceHelper -->
<g id="edge34" class="edge"><title>Helper_ServiceHelper&#45;&gt;Core_Helper_ServiceHelper</title>
<path fill="none" stroke="black" stroke-dasharray="1,5" d="M258.501,-471C275.877,-471 293.877,-471 311.424,-471"/>
<polygon fill="black" stroke="black" points="311.694,-474.5 321.694,-471 311.694,-467.5 311.694,-474.5"/>
</g>
<!-- Helper_ViewHelper -->
<g id="node24" class="node"><title>Helper_ViewHelper</title>
<ellipse fill="none" stroke="black" cx="144.039" cy="-579" rx="102.882" ry="18"/>
<text text-anchor="middle" x="144.039" y="-575.3" font-family="Times,serif" font-size="14.00">Helper_ViewHelper</text>
</g>
<!-- Helper_ViewHelper&#45;&gt;Core_Helper_ViewHelper -->
<g id="edge35" class="edge"><title>Helper_ViewHelper&#45;&gt;Core_Helper_ViewHelper</title>
<path fill="none" stroke="black" stroke-dasharray="1,5" d="M247.027,-579C271.642,-579 298.053,-579 323.023,-579"/>
<polygon fill="black" stroke="black" points="323.253,-582.5 333.253,-579 323.253,-575.5 323.253,-582.5"/>
</g>
<!-- DB_DB -->
<g id="node25" class="node"><title>DB_DB</title>
<ellipse fill="none" stroke="black" cx="1150.29" cy="-1522" rx="27" ry="18"/>
<text text-anchor="middle" x="1150.29" y="-1518.3" font-family="Times,serif" font-size="14.00">DB</text>
</g>
<!-- DB_DBAdvance -->
<g id="node26" class="node"><title>DB_DBAdvance</title>
<ellipse fill="none" stroke="black" cx="1348.56" cy="-1468" rx="64.9885" ry="18"/>
<text text-anchor="middle" x="1348.56" y="-1464.3" font-family="Times,serif" font-size="14.00">DBAdvance</text>
</g>
<!-- DB_DB&#45;&gt;DB_DBAdvance -->
<g id="edge36" class="edge"><title>DB_DB&#45;&gt;DB_DBAdvance</title>
<path fill="none" stroke="black" d="M1175.98,-1515.58C1196.59,-1510.19 1226.73,-1502.23 1252.97,-1495 1265.96,-1491.42 1279.92,-1487.48 1293.03,-1483.75"/>
<polygon fill="black" stroke="black" points="1294.2,-1487.06 1302.86,-1480.94 1292.28,-1480.32 1294.2,-1487.06"/>
</g>
<!-- DB_DBInterface -->
<g id="node27" class="node"><title>DB_DBInterface</title>
<ellipse fill="none" stroke="black" cx="1348.56" cy="-1522" rx="67.6881" ry="18"/>
<text text-anchor="middle" x="1348.56" y="-1518.3" font-family="Times,serif" font-size="14.00">DBInterface</text>
</g>
<!-- DB_DB&#45;&gt;DB_DBInterface -->
<g id="edge37" class="edge"><title>DB_DB&#45;&gt;DB_DBInterface</title>
<path fill="none" stroke="black" d="M1177.36,-1522C1201.17,-1522 1237.6,-1522 1270.66,-1522"/>
<polygon fill="black" stroke="black" points="1270.79,-1525.5 1280.79,-1522 1270.79,-1518.5 1270.79,-1525.5"/>
</g>
<!-- DB_MedooDB -->
<g id="node28" class="node"><title>DB_MedooDB</title>
<ellipse fill="none" stroke="black" cx="1150.29" cy="-1468" rx="56.59" ry="18"/>
<text text-anchor="middle" x="1150.29" y="-1464.3" font-family="Times,serif" font-size="14.00">MedooDB</text>
</g>
<!-- DB_MedooDB&#45;&gt;DB_DBAdvance -->
<g id="edge38" class="edge"><title>DB_MedooDB&#45;&gt;DB_DBAdvance</title>
<path fill="none" stroke="black" d="M1207.01,-1468C1227.56,-1468 1251.17,-1468 1273.11,-1468"/>
<polygon fill="black" stroke="black" points="1273.39,-1471.5 1283.39,-1468 1273.39,-1464.5 1273.39,-1471.5"/>
</g>
<!-- Ext -->
<g id="node29" class="node"><title>Ext</title>
<ellipse fill="none" stroke="black" stroke-dasharray="1,5" cx="656.05" cy="-1115" rx="27" ry="18"/>
</g>
<!-- DBManager -->
<g id="node30" class="node"><title>DBManager</title>
<ellipse fill="none" stroke="black" cx="885.732" cy="-1331" rx="66.8882" ry="18"/>
<text text-anchor="middle" x="885.732" y="-1327.3" font-family="Times,serif" font-size="14.00">DBManager</text>
</g>
<!-- Ext&#45;&gt;DBManager -->
<g id="edge39" class="edge"><title>Ext&#45;&gt;DBManager</title>
<path fill="none" stroke="black" d="M660.554,-1132.91C668.983,-1170.92 694.123,-1259.83 751.844,-1304 768.158,-1316.48 788.79,-1323.59 808.9,-1327.54"/>
<polygon fill="black" stroke="black" points="808.577,-1331.04 819.025,-1329.29 809.764,-1324.14 808.577,-1331.04"/>
</g>
<!-- DBReusePoolProxy -->
<g id="node31" class="node"><title>DBReusePoolProxy</title>
<ellipse fill="none" stroke="black" cx="885.732" cy="-953" rx="99.3824" ry="18"/>
<text text-anchor="middle" x="885.732" y="-949.3" font-family="Times,serif" font-size="14.00">DBReusePoolProxy</text>
</g>
<!-- Ext&#45;&gt;DBReusePoolProxy -->
<g id="edge41" class="edge"><title>Ext&#45;&gt;DBReusePoolProxy</title>
<path fill="none" stroke="black" d="M664.026,-1097.73C676.788,-1068.47 706.795,-1009.48 751.844,-980 762.414,-973.082 774.39,-967.878 786.72,-963.974"/>
<polygon fill="black" stroke="black" points="788.021,-967.241 796.663,-961.113 786.085,-960.514 788.021,-967.241"/>
</g>
<!-- FacadesAutoLoader -->
<g id="node32" class="node"><title>FacadesAutoLoader</title>
<ellipse fill="none" stroke="black" cx="885.732" cy="-1223" rx="103.182" ry="18"/>
<text text-anchor="middle" x="885.732" y="-1219.3" font-family="Times,serif" font-size="14.00">FacadesAutoLoader</text>
</g>
<!-- Ext&#45;&gt;FacadesAutoLoader -->
<g id="edge42" class="edge"><title>Ext&#45;&gt;FacadesAutoLoader</title>
<path fill="none" stroke="black" d="M670.458,-1130.49C687.455,-1149.08 718.574,-1179.77 751.844,-1196 764.019,-1201.94 777.433,-1206.57 790.915,-1210.18"/>
<polygon fill="black" stroke="black" points="790.177,-1213.61 800.727,-1212.64 791.876,-1206.82 790.177,-1213.61"/>
</g>
<!-- JsonRpcExt -->
<g id="node33" class="node"><title>JsonRpcExt</title>
<ellipse fill="none" stroke="black" cx="885.732" cy="-1277" rx="64.9885" ry="18"/>
<text text-anchor="middle" x="885.732" y="-1273.3" font-family="Times,serif" font-size="14.00">JsonRpcExt</text>
</g>
<!-- Ext&#45;&gt;JsonRpcExt -->
<g id="edge43" class="edge"><title>Ext&#45;&gt;JsonRpcExt</title>
<path fill="none" stroke="black" d="M664.026,-1132.27C676.788,-1161.53 706.795,-1220.52 751.844,-1250 769.45,-1261.52 790.959,-1268.29 811.501,-1272.22"/>
<polygon fill="black" stroke="black" points="811.039,-1275.69 821.487,-1273.93 812.22,-1268.79 811.039,-1275.69"/>
</g>
<!-- Pager -->
<g id="node34" class="node"><title>Pager</title>
<ellipse fill="none" stroke="black" cx="885.732" cy="-1007" rx="37.8943" ry="18"/>
<text text-anchor="middle" x="885.732" y="-1003.3" font-family="Times,serif" font-size="14.00">Pager</text>
</g>
<!-- Ext&#45;&gt;Pager -->
<g id="edge44" class="edge"><title>Ext&#45;&gt;Pager</title>
<path fill="none" stroke="black" d="M670.458,-1099.51C687.455,-1080.92 718.574,-1050.23 751.844,-1034 778.744,-1020.88 811.697,-1014.13 838.058,-1010.66"/>
<polygon fill="black" stroke="black" points="838.667,-1014.12 848.178,-1009.45 837.832,-1007.17 838.667,-1014.12"/>
</g>
<!-- RouteHookDirectoryMode -->
<g id="node35" class="node"><title>RouteHookDirectoryMode</title>
<ellipse fill="none" stroke="black" cx="885.732" cy="-1061" rx="133.776" ry="18"/>
<text text-anchor="middle" x="885.732" y="-1057.3" font-family="Times,serif" font-size="14.00">RouteHookDirectoryMode</text>
</g>
<!-- Ext&#45;&gt;RouteHookDirectoryMode -->
<g id="edge45" class="edge"><title>Ext&#45;&gt;RouteHookDirectoryMode</title>
<path fill="none" stroke="black" d="M681.07,-1107.6C700.152,-1101.86 727.571,-1093.91 751.844,-1088 766.573,-1084.41 782.301,-1080.92 797.592,-1077.7"/>
<polygon fill="black" stroke="black" points="798.484,-1081.09 807.563,-1075.63 797.06,-1074.24 798.484,-1081.09"/>
</g>
<!-- RouteHookOneFileMode -->
<g id="node36" class="node"><title>RouteHookOneFileMode</title>
<ellipse fill="none" stroke="black" cx="885.732" cy="-1115" rx="125.378" ry="18"/>
<text text-anchor="middle" x="885.732" y="-1111.3" font-family="Times,serif" font-size="14.00">RouteHookOneFileMode</text>
</g>
<!-- Ext&#45;&gt;RouteHookOneFileMode -->
<g id="edge46" class="edge"><title>Ext&#45;&gt;RouteHookOneFileMode</title>
<path fill="none" stroke="black" d="M683.168,-1115C700.388,-1115 724.404,-1115 749.874,-1115"/>
<polygon fill="black" stroke="black" points="750.082,-1118.5 760.082,-1115 750.082,-1111.5 750.082,-1118.5"/>
</g>
<!-- RouteHookRewrite -->
<g id="node37" class="node"><title>RouteHookRewrite</title>
<ellipse fill="none" stroke="black" cx="885.732" cy="-1169" rx="99.3824" ry="18"/>
<text text-anchor="middle" x="885.732" y="-1165.3" font-family="Times,serif" font-size="14.00">RouteHookRewrite</text>
</g>
<!-- Ext&#45;&gt;RouteHookRewrite -->
<g id="edge47" class="edge"><title>Ext&#45;&gt;RouteHookRewrite</title>
<path fill="none" stroke="black" d="M681.07,-1122.4C700.152,-1128.14 727.571,-1136.09 751.844,-1142 769.31,-1146.26 788.18,-1150.37 806.062,-1154.06"/>
<polygon fill="black" stroke="black" points="805.382,-1157.49 815.879,-1156.06 806.78,-1150.63 805.382,-1157.49"/>
</g>
<!-- RouteHookRouteMap -->
<g id="node38" class="node"><title>RouteHookRouteMap</title>
<ellipse fill="none" stroke="black" cx="885.732" cy="-899" rx="111.28" ry="18"/>
<text text-anchor="middle" x="885.732" y="-895.3" font-family="Times,serif" font-size="14.00">RouteHookRouteMap</text>
</g>
<!-- Ext&#45;&gt;RouteHookRouteMap -->
<g id="edge48" class="edge"><title>Ext&#45;&gt;RouteHookRouteMap</title>
<path fill="none" stroke="black" d="M664.623,-1097.83C684.344,-1053.43 736.794,-937.517 751.844,-926 759.991,-919.766 769.214,-914.872 778.912,-911.042"/>
<polygon fill="black" stroke="black" points="780.088,-914.339 788.335,-907.687 777.741,-907.744 780.088,-914.339"/>
</g>
<!-- StrictCheck -->
<g id="node39" class="node"><title>StrictCheck</title>
<ellipse fill="none" stroke="black" cx="885.732" cy="-1385" rx="66.8882" ry="18"/>
<text text-anchor="middle" x="885.732" y="-1381.3" font-family="Times,serif" font-size="14.00">StrictCheck</text>
</g>
<!-- Ext&#45;&gt;StrictCheck -->
<g id="edge49" class="edge"><title>Ext&#45;&gt;StrictCheck</title>
<path fill="none" stroke="black" d="M658.381,-1132.97C662.759,-1178.36 680.822,-1298.22 751.844,-1358 767.71,-1371.35 788.39,-1378.71 808.694,-1382.63"/>
<polygon fill="black" stroke="black" points="808.169,-1386.09 818.608,-1384.28 809.321,-1379.18 808.169,-1386.09"/>
</g>
<!-- DBManager&#45;&gt;DB_DB -->
<g id="edge40" class="edge"><title>DBManager&#45;&gt;DB_DB</title>
<path fill="none" stroke="black" d="M952.825,-1330.47C976.557,-1333.57 1001.83,-1341.18 1019.62,-1358 1065.38,-1401.24 1011.63,-1449.96 1055.62,-1495 1070.56,-1510.29 1093.55,-1517.07 1113.03,-1520.01"/>
<polygon fill="black" stroke="black" points="1112.76,-1523.5 1123.11,-1521.25 1113.62,-1516.55 1112.76,-1523.5"/>
</g>
<!-- FacadesAutoLoader&#45;&gt;Core_SingletonEx -->
<g id="edge52" class="edge"><title>FacadesAutoLoader&#45;&gt;Core_SingletonEx</title>
<path fill="none" stroke="black" stroke-dasharray="1,5" d="M985.06,-1217.86C998.148,-1213.22 1010.25,-1206.26 1019.62,-1196 1068.91,-1142.01 1034.7,-939.047 1055.62,-869 1073.72,-808.408 1111.36,-743.948 1133.01,-709.725"/>
<polygon fill="black" stroke="black" points="1136.22,-711.21 1138.66,-700.902 1130.32,-707.433 1136.22,-711.21"/>
</g>
<!-- FacadesBase -->
<g id="node41" class="node"><title>FacadesBase</title>
<ellipse fill="none" stroke="black" cx="1150.29" cy="-1223" rx="71.4873" ry="18"/>
<text text-anchor="middle" x="1150.29" y="-1219.3" font-family="Times,serif" font-size="14.00">FacadesBase</text>
</g>
<!-- FacadesAutoLoader&#45;&gt;FacadesBase -->
<g id="edge51" class="edge"><title>FacadesAutoLoader&#45;&gt;FacadesBase</title>
<path fill="none" stroke="black" d="M989.374,-1223C1015.67,-1223 1043.57,-1223 1068.59,-1223"/>
<polygon fill="black" stroke="black" points="1068.75,-1226.5 1078.75,-1223 1068.75,-1219.5 1068.75,-1226.5"/>
</g>
<!-- JsonRpcExtBase -->
<g id="node40" class="node"><title>JsonRpcExtBase</title>
<ellipse fill="none" stroke="black" cx="1150.29" cy="-1277" rx="87.1846" ry="18"/>
<text text-anchor="middle" x="1150.29" y="-1273.3" font-family="Times,serif" font-size="14.00">JsonRpcExtBase</text>
</g>
<!-- JsonRpcExt&#45;&gt;JsonRpcExtBase -->
<g id="edge50" class="edge"><title>JsonRpcExt&#45;&gt;JsonRpcExtBase</title>
<path fill="none" stroke="black" d="M950.962,-1277C981.506,-1277 1018.67,-1277 1052.53,-1277"/>
<polygon fill="black" stroke="black" points="1052.93,-1280.5 1062.93,-1277 1052.93,-1273.5 1052.93,-1280.5"/>
</g>
<!-- Pager&#45;&gt;Core_SingletonEx -->
<g id="edge59" class="edge"><title>Pager&#45;&gt;Core_SingletonEx</title>
<path fill="none" stroke="black" stroke-dasharray="1,5" d="M923.258,-1009.04C952.729,-1008.68 993.454,-1003.36 1019.62,-980 1058.31,-945.46 1035.79,-916.924 1055.62,-869 1079.79,-810.566 1115.13,-745.289 1134.77,-710.35"/>
<polygon fill="black" stroke="black" points="1138,-711.758 1139.87,-701.331 1131.9,-708.313 1138,-711.758"/>
</g>
<!-- RouteHookDirectoryMode&#45;&gt;Core_SingletonEx -->
<g id="edge57" class="edge"><title>RouteHookDirectoryMode&#45;&gt;Core_SingletonEx</title>
<path fill="none" stroke="black" stroke-dasharray="1,5" d="M995.301,-1050.49C1004.27,-1046.33 1012.58,-1040.94 1019.62,-1034 1073.07,-981.308 1030.39,-939.69 1055.62,-869 1076.88,-809.443 1113.32,-744.591 1133.93,-710.025"/>
<polygon fill="black" stroke="black" points="1137.14,-711.481 1139.29,-701.108 1131.14,-707.871 1137.14,-711.481"/>
</g>
<!-- RouteHookOneFileMode&#45;&gt;Core_SingletonEx -->
<g id="edge58" class="edge"><title>RouteHookOneFileMode&#45;&gt;Core_SingletonEx</title>
<path fill="none" stroke="black" stroke-dasharray="1,5" d="M993.768,-1105.76C1003.4,-1101.41 1012.27,-1095.63 1019.62,-1088 1088.05,-1016.95 1024.88,-962.728 1055.62,-869 1075.33,-808.912 1112.36,-744.261 1133.48,-709.871"/>
<polygon fill="black" stroke="black" points="1136.68,-711.344 1138.98,-701.002 1130.74,-707.651 1136.68,-711.344"/>
</g>
<!-- RouteHookRewrite&#45;&gt;Core_SingletonEx -->
<g id="edge53" class="edge"><title>RouteHookRewrite&#45;&gt;Core_SingletonEx</title>
<path fill="none" stroke="black" stroke-dasharray="1,5" d="M982.186,-1164.59C996.317,-1159.99 1009.5,-1152.84 1019.62,-1142 1061.36,-1097.26 1037.48,-927.441 1055.62,-869 1074.37,-808.606 1111.76,-744.071 1133.2,-709.782"/>
<polygon fill="black" stroke="black" points="1136.4,-711.263 1138.79,-700.941 1130.49,-707.52 1136.4,-711.263"/>
</g>
<!-- RouteHookRouteMap&#45;&gt;Core_SingletonEx -->
<g id="edge54" class="edge"><title>RouteHookRouteMap&#45;&gt;Core_SingletonEx</title>
<path fill="none" stroke="black" stroke-dasharray="1,5" d="M972.751,-887.793C989.219,-883.091 1005.66,-876.43 1019.62,-867 1078.6,-827.164 1119.64,-750.959 1138.16,-710.967"/>
<polygon fill="black" stroke="black" points="1141.46,-712.178 1142.39,-701.624 1135.08,-709.295 1141.46,-712.178"/>
</g>
<!-- Lazybones -->
<g id="node42" class="node"><title>Lazybones</title>
<ellipse fill="none" stroke="black" cx="656.05" cy="-899" rx="59.5901" ry="18"/>
<text text-anchor="middle" x="656.05" y="-895.3" font-family="Times,serif" font-size="14.00">Lazybones</text>
</g>
<!-- Lazybones&#45;&gt;Core_SingletonEx -->
<g id="edge55" class="edge"><title>Lazybones&#45;&gt;Core_SingletonEx</title>
<path fill="none" stroke="black" stroke-dasharray="1,5" d="M678.342,-882.104C696.75,-868.367 724.615,-849.587 751.844,-839 864.534,-795.184 909.786,-841.549 1019.62,-791 1063.24,-770.926 1104.54,-732.646 1128.36,-707.998"/>
<polygon fill="black" stroke="black" points="1131.12,-710.178 1135.47,-700.515 1126.04,-705.359 1131.12,-710.178"/>
</g>
<!-- Oldbones -->
<g id="node43" class="node"><title>Oldbones</title>
<ellipse fill="none" stroke="black" cx="656.05" cy="-953" rx="53.8905" ry="18"/>
<text text-anchor="middle" x="656.05" y="-949.3" font-family="Times,serif" font-size="14.00">Oldbones</text>
</g>
<!-- Oldbones&#45;&gt;Core_SingletonEx -->
<g id="edge56" class="edge"><title>Oldbones&#45;&gt;Core_SingletonEx</title>
<path fill="none" stroke="black" stroke-dasharray="1,5" d="M693.746,-939.947C701.532,-936.174 709.352,-931.543 715.844,-926 737.782,-907.272 727.576,-887.59 751.844,-872 853.258,-806.852 913.751,-886.625 1019.62,-829 1071.75,-800.626 1113.61,-742.975 1134.6,-709.872"/>
<polygon fill="black" stroke="black" points="1137.67,-711.574 1139.96,-701.231 1131.72,-707.885 1137.67,-711.574"/>
</g>
<!-- HttpServer -->
<g id="node44" class="node"><title>HttpServer</title>
<polygon fill="lightgrey" stroke="black" points="434.166,-886 344.011,-868 434.166,-850 524.321,-868 434.166,-886"/>
<polyline fill="none" stroke="black" points="355.779,-870.35 355.779,-865.65 "/>
<polyline fill="none" stroke="black" points="422.398,-852.35 445.934,-852.35 "/>
<polyline fill="none" stroke="black" points="512.553,-865.65 512.553,-870.35 "/>
<polyline fill="none" stroke="black" points="445.934,-883.65 422.398,-883.65 "/>
<text text-anchor="middle" x="434.166" y="-864.3" font-family="Times,serif" font-size="14.00">HttpServer</text>
</g>
<!-- HttpServer&#45;&gt;Core_HttpServer -->
<g id="edge60" class="edge"><title>HttpServer&#45;&gt;Core_HttpServer</title>
<path fill="none" stroke="black" d="M508.376,-864.749C527.05,-860.767 545.883,-853.589 560.255,-841 587.961,-816.731 559.312,-785.781 588.255,-763 654.479,-710.874 756.366,-712.102 821.781,-719.907"/>
<polygon fill="black" stroke="black" points="821.592,-723.411 831.955,-721.209 822.48,-716.468 821.592,-723.411"/>
</g>
<!-- DNMVCS -->
<g id="node45" class="node"><title>DNMVCS</title>
<polygon fill="lightgrey" stroke="black" points="434.166,-832 355.071,-814 434.166,-796 513.261,-814 434.166,-832"/>
<polyline fill="none" stroke="black" points="366.772,-816.663 366.772,-811.337 "/>
<polyline fill="none" stroke="black" points="422.465,-798.663 445.867,-798.663 "/>
<polyline fill="none" stroke="black" points="501.56,-811.337 501.56,-816.663 "/>
<polyline fill="none" stroke="black" points="445.867,-829.337 422.465,-829.337 "/>
<text text-anchor="middle" x="434.166" y="-810.3" font-family="Times,serif" font-size="14.00">DNMVCS</text>
</g>
<!-- DNMVCS&#45;&gt;Core_App -->
<g id="edge61" class="edge"><title>DNMVCS&#45;&gt;Core_App</title>
<path fill="none" stroke="black" d="M499.908,-810.928C521.351,-806.913 543.891,-799.034 560.255,-784 570.264,-774.804 626.524,-591.958 647.321,-523.543"/>
<polygon fill="black" stroke="black" points="650.787,-524.174 650.342,-513.589 644.089,-522.142 650.787,-524.174"/>
</g>
<!-- DNMVCS&#45;&gt;Ext -->
<g id="edge63" class="edge"><title>DNMVCS&#45;&gt;Ext</title>
<path fill="none" stroke="black" d="M507.359,-815.442C526.803,-819.285 546.292,-826.843 560.255,-841 604.507,-885.868 567.887,-920.364 588.255,-980 601.804,-1019.67 624.577,-1062.6 639.709,-1089.14"/>
<polygon fill="black" stroke="black" points="636.876,-1091.24 644.907,-1098.15 642.938,-1087.74 636.876,-1091.24"/>
</g>
</g>
</svg>
