<?xml version="1.0" encoding="UTF-8" standalone="no"?>
<!DOCTYPE svg PUBLIC "-//W3C//DTD SVG 1.1//EN"
 "http://www.w3.org/Graphics/SVG/1.1/DTD/svg11.dtd">
<!-- Generated by graphviz version 2.38.0 (20140413.2041)
 -->
<!-- Title: G Pages: 1 -->
<svg width="1199pt" height="1046pt"
 viewBox="0.00 0.00 1199.21 1046.00" xmlns="http://www.w3.org/2000/svg" xmlns:xlink="http://www.w3.org/1999/xlink">
<g id="graph0" class="graph" transform="scale(1 1) rotate(0) translate(4 1042)">
<title>G</title>
<polygon fill="white" stroke="none" points="-4,4 -4,-1042 1195.21,-1042 1195.21,4 -4,4"/>
<g id="clust1" class="cluster"><title>cluster_DNMVCS</title>
<polygon fill="none" stroke="black" points="51.1416,-361 51.1416,-598 509.76,-598 509.76,-361 51.1416,-361"/>
<text text-anchor="middle" x="280.451" y="-582.8" font-family="Times,serif" font-size="14.00">[DNMVCS]</text>
</g>
<g id="clust2" class="cluster"><title>cluster_Base</title>
<polygon fill="none" stroke="black" points="8,-606 8,-789 268.378,-789 268.378,-606 8,-606"/>
<text text-anchor="middle" x="138.189" y="-773.8" font-family="Times,serif" font-size="14.00">[DNMVCS\Base]</text>
</g>
<g id="clust3" class="cluster"><title>cluster_DB</title>
<polygon fill="none" stroke="black" points="861.484,-8 861.484,-137 1183.21,-137 1183.21,-8 861.484,-8"/>
<text text-anchor="middle" x="1022.35" y="-121.8" font-family="Times,serif" font-size="14.00">[DNMVCS\DB]</text>
</g>
<g id="clust4" class="cluster"><title>cluster_Ext</title>
<polygon fill="none" stroke="black" points="529.76,-145 529.76,-1030 1012.02,-1030 1012.02,-145 529.76,-145"/>
<text text-anchor="middle" x="770.891" y="-1014.8" font-family="Times,serif" font-size="14.00">[DNMVCS\Ext]</text>
</g>
<!-- SingletonEx -->
<g id="node1" class="node"><title>SingletonEx</title>
<polygon fill="none" stroke="black" points="399.069,-513 304.222,-495 399.069,-477 493.916,-495 399.069,-513"/>
<polyline fill="none" stroke="black" points="316.012,-497.237 316.012,-492.763 "/>
<polyline fill="none" stroke="black" points="387.28,-479.237 410.859,-479.237 "/>
<polyline fill="none" stroke="black" points="482.126,-492.763 482.126,-497.237 "/>
<polyline fill="none" stroke="black" points="410.859,-510.763 387.28,-510.763 "/>
<text text-anchor="middle" x="399.069" y="-491.3" font-family="Times,serif" font-size="14.00">SingletonEx</text>
</g>
<!-- DNMVCS -->
<g id="node2" class="node"><title>DNMVCS</title>
<polygon fill="none" stroke="black" points="138.189,-459 59.0941,-441 138.189,-423 217.284,-441 138.189,-459"/>
<polyline fill="none" stroke="black" points="70.7949,-443.663 70.7949,-438.337 "/>
<polyline fill="none" stroke="black" points="126.488,-425.663 149.89,-425.663 "/>
<polyline fill="none" stroke="black" points="205.583,-438.337 205.583,-443.663 "/>
<polyline fill="none" stroke="black" points="149.89,-456.337 126.488,-456.337 "/>
<text text-anchor="middle" x="138.189" y="-437.3" font-family="Times,serif" font-size="14.00">DNMVCS</text>
</g>
<!-- Core_App -->
<g id="node3" class="node"><title>Core_App</title>
<ellipse fill="none" stroke="black" cx="399.069" cy="-387" rx="102.882" ry="18"/>
<text text-anchor="middle" x="399.069" y="-383.3" font-family="Times,serif" font-size="14.00">DNMVCS\Core\App</text>
</g>
<!-- DNMVCS&#45;&gt;Core_App -->
<g id="edge1" class="edge"><title>DNMVCS&#45;&gt;Core_App</title>
<path fill="none" stroke="black" d="M180.209,-432.444C218.264,-424.506 275.85,-412.494 322.261,-402.813"/>
<polygon fill="black" stroke="black" points="323.21,-406.19 332.285,-400.722 321.78,-399.338 323.21,-406.19"/>
</g>
<!-- ClassExt -->
<g id="node4" class="node"><title>ClassExt</title>
<ellipse fill="none" stroke="black" cx="399.069" cy="-441" rx="51.9908" ry="18"/>
<text text-anchor="middle" x="399.069" y="-437.3" font-family="Times,serif" font-size="14.00">ClassExt</text>
</g>
<!-- DNMVCS&#45;&gt;ClassExt -->
<g id="edge2" class="edge"><title>DNMVCS&#45;&gt;ClassExt</title>
<path fill="none" stroke="black" d="M217.564,-441C255.761,-441 301.022,-441 336.667,-441"/>
<polygon fill="black" stroke="black" points="336.925,-444.5 346.925,-441 336.925,-437.5 336.925,-444.5"/>
</g>
<!-- Ext -->
<g id="node5" class="node"><title>Ext</title>
<ellipse fill="none" stroke="black" stroke-dasharray="1,5" cx="399.069" cy="-549" rx="27" ry="18"/>
</g>
<!-- DNMVCS&#45;&gt;Ext -->
<g id="edge3" class="edge"><title>DNMVCS&#45;&gt;Ext</title>
<path fill="none" stroke="black" d="M160.875,-454.097C190.569,-471.577 245.957,-502.579 296.378,-522 318.006,-530.331 343.176,-537.036 363.063,-541.681"/>
<polygon fill="black" stroke="black" points="362.409,-545.121 372.935,-543.92 363.957,-538.295 362.409,-545.121"/>
</g>
<!-- SwooleExt -->
<g id="node14" class="node"><title>SwooleExt</title>
<ellipse fill="none" stroke="black" cx="674.898" cy="-333" rx="59.5901" ry="18"/>
<text text-anchor="middle" x="674.898" y="-329.3" font-family="Times,serif" font-size="14.00">SwooleExt</text>
</g>
<!-- Ext&#45;&gt;SwooleExt -->
<g id="edge10" class="edge"><title>Ext&#45;&gt;SwooleExt</title>
<path fill="none" stroke="black" d="M426.462,-550.351C451.755,-550.085 489.055,-545.317 509.76,-522 557.93,-467.754 480.085,-412.872 529.76,-360 549.245,-339.261 579.193,-331.485 606.752,-329.305"/>
<polygon fill="black" stroke="black" points="606.986,-332.798 616.774,-328.742 606.593,-325.809 606.986,-332.798"/>
</g>
<!-- RouteHookRewrite -->
<g id="node15" class="node"><title>RouteHookRewrite</title>
<ellipse fill="none" stroke="black" cx="674.898" cy="-819" rx="99.3824" ry="18"/>
<text text-anchor="middle" x="674.898" y="-815.3" font-family="Times,serif" font-size="14.00">RouteHookRewrite</text>
</g>
<!-- Ext&#45;&gt;RouteHookRewrite -->
<g id="edge11" class="edge"><title>Ext&#45;&gt;RouteHookRewrite</title>
<path fill="none" stroke="black" d="M403.968,-566.852C414.927,-612.484 450.521,-733.878 529.76,-792 541.519,-800.625 555.232,-806.743 569.437,-811.042"/>
<polygon fill="black" stroke="black" points="568.762,-814.486 579.331,-813.737 570.602,-807.732 568.762,-814.486"/>
</g>
<!-- RouteHookRouteMap -->
<g id="node16" class="node"><title>RouteHookRouteMap</title>
<ellipse fill="none" stroke="black" cx="674.898" cy="-765" rx="111.28" ry="18"/>
<text text-anchor="middle" x="674.898" y="-761.3" font-family="Times,serif" font-size="14.00">RouteHookRouteMap</text>
</g>
<!-- Ext&#45;&gt;RouteHookRouteMap -->
<g id="edge12" class="edge"><title>Ext&#45;&gt;RouteHookRouteMap</title>
<path fill="none" stroke="black" d="M406.625,-566.509C421.842,-604.548 463.402,-694.781 529.76,-738 540.555,-745.031 552.714,-750.337 565.276,-754.326"/>
<polygon fill="black" stroke="black" points="564.366,-757.706 574.945,-757.126 566.313,-750.982 564.366,-757.706"/>
</g>
<!-- StrictCheck -->
<g id="node17" class="node"><title>StrictCheck</title>
<ellipse fill="none" stroke="black" cx="674.898" cy="-981" rx="66.8882" ry="18"/>
<text text-anchor="middle" x="674.898" y="-977.3" font-family="Times,serif" font-size="14.00">StrictCheck</text>
</g>
<!-- Ext&#45;&gt;StrictCheck -->
<g id="edge13" class="edge"><title>Ext&#45;&gt;StrictCheck</title>
<path fill="none" stroke="black" d="M399.819,-567.397C400.019,-631.701 409.911,-848.239 529.76,-954 548.383,-970.434 573.745,-978.264 598.005,-981.66"/>
<polygon fill="black" stroke="black" points="597.611,-985.138 607.949,-982.823 598.423,-978.185 597.611,-985.138"/>
</g>
<!-- DBManager -->
<g id="node18" class="node"><title>DBManager</title>
<ellipse fill="none" stroke="black" cx="674.898" cy="-657" rx="66.8882" ry="18"/>
<text text-anchor="middle" x="674.898" y="-653.3" font-family="Times,serif" font-size="14.00">DBManager</text>
</g>
<!-- Ext&#45;&gt;DBManager -->
<g id="edge14" class="edge"><title>Ext&#45;&gt;DBManager</title>
<path fill="none" stroke="black" d="M416.991,-562.504C440.743,-580.745 485.982,-612.933 529.76,-630 552.591,-638.901 578.629,-644.925 602.236,-648.978"/>
<polygon fill="black" stroke="black" points="601.755,-652.446 612.187,-650.597 602.879,-645.537 601.755,-652.446"/>
</g>
<!-- Pager -->
<g id="node19" class="node"><title>Pager</title>
<ellipse fill="none" stroke="black" cx="674.898" cy="-603" rx="37.8943" ry="18"/>
<text text-anchor="middle" x="674.898" y="-599.3" font-family="Times,serif" font-size="14.00">Pager</text>
</g>
<!-- Ext&#45;&gt;Pager -->
<g id="edge16" class="edge"><title>Ext&#45;&gt;Pager</title>
<path fill="none" stroke="black" d="M424.902,-554.324C450.984,-559.88 493.21,-568.773 529.76,-576 563.126,-582.598 600.921,-589.662 629.435,-594.91"/>
<polygon fill="black" stroke="black" points="629.028,-598.393 639.495,-596.756 630.292,-591.508 629.028,-598.393"/>
</g>
<!-- Lazybones -->
<g id="node22" class="node"><title>Lazybones</title>
<ellipse fill="none" stroke="black" cx="674.898" cy="-549" rx="59.5901" ry="18"/>
<text text-anchor="middle" x="674.898" y="-545.3" font-family="Times,serif" font-size="14.00">Lazybones</text>
</g>
<!-- Ext&#45;&gt;Lazybones -->
<g id="edge24" class="edge"><title>Ext&#45;&gt;Lazybones</title>
<path fill="none" stroke="black" d="M426.325,-549C467.05,-549 546.79,-549 604.8,-549"/>
<polygon fill="black" stroke="black" points="605.001,-552.5 615.001,-549 605.001,-545.5 605.001,-552.5"/>
</g>
<!-- DBReusePoolProxy -->
<g id="node23" class="node"><title>DBReusePoolProxy</title>
<ellipse fill="none" stroke="black" cx="674.898" cy="-495" rx="99.3824" ry="18"/>
<text text-anchor="middle" x="674.898" y="-491.3" font-family="Times,serif" font-size="14.00">DBReusePoolProxy</text>
</g>
<!-- Ext&#45;&gt;DBReusePoolProxy -->
<g id="edge25" class="edge"><title>Ext&#45;&gt;DBReusePoolProxy</title>
<path fill="none" stroke="black" d="M424.902,-543.676C450.984,-538.12 493.21,-529.227 529.76,-522 550.674,-517.865 573.328,-513.546 594.347,-509.606"/>
<polygon fill="black" stroke="black" points="595.009,-513.043 604.196,-507.765 593.723,-506.162 595.009,-513.043"/>
</g>
<!-- FunctionDispatcher -->
<g id="node24" class="node"><title>FunctionDispatcher</title>
<ellipse fill="none" stroke="black" cx="674.898" cy="-441" rx="103.182" ry="18"/>
<text text-anchor="middle" x="674.898" y="-437.3" font-family="Times,serif" font-size="14.00">FunctionDispatcher</text>
</g>
<!-- Ext&#45;&gt;FunctionDispatcher -->
<g id="edge26" class="edge"><title>Ext&#45;&gt;FunctionDispatcher</title>
<path fill="none" stroke="black" d="M426.289,-549.209C450.737,-548.014 486.789,-542.504 509.76,-522 528.853,-504.957 510.196,-484.5 529.76,-468 539.996,-459.367 552.109,-453.142 564.897,-448.7"/>
<polygon fill="black" stroke="black" points="566.269,-451.939 574.788,-445.64 564.2,-445.252 566.269,-451.939"/>
</g>
<!-- ProjectCommonAutoloader -->
<g id="node25" class="node"><title>ProjectCommonAutoloader</title>
<ellipse fill="none" stroke="black" cx="674.898" cy="-387" rx="137.276" ry="18"/>
<text text-anchor="middle" x="674.898" y="-383.3" font-family="Times,serif" font-size="14.00">ProjectCommonAutoloader</text>
</g>
<!-- Ext&#45;&gt;ProjectCommonAutoloader -->
<g id="edge27" class="edge"><title>Ext&#45;&gt;ProjectCommonAutoloader</title>
<path fill="none" stroke="black" d="M426.163,-550.078C451.23,-549.604 488.362,-544.682 509.76,-522 543.259,-486.491 495.278,-448.554 529.76,-414 534.835,-408.915 540.542,-404.622 546.681,-401.01"/>
<polygon fill="black" stroke="black" points="548.699,-403.906 555.96,-396.191 545.473,-397.694 548.699,-403.906"/>
</g>
<!-- FacadesAutoLoader -->
<g id="node26" class="node"><title>FacadesAutoLoader</title>
<ellipse fill="none" stroke="black" cx="674.898" cy="-711" rx="103.182" ry="18"/>
<text text-anchor="middle" x="674.898" y="-707.3" font-family="Times,serif" font-size="14.00">FacadesAutoLoader</text>
</g>
<!-- Ext&#45;&gt;FacadesAutoLoader -->
<g id="edge28" class="edge"><title>Ext&#45;&gt;FacadesAutoLoader</title>
<path fill="none" stroke="black" d="M410.652,-565.44C430.307,-594.502 475.431,-654.649 529.76,-684 542.99,-691.147 557.787,-696.434 572.725,-700.337"/>
<polygon fill="black" stroke="black" points="572.004,-703.764 582.546,-702.709 573.647,-696.959 572.004,-703.764"/>
</g>
<!-- RouteHookDirectoryMode -->
<g id="node27" class="node"><title>RouteHookDirectoryMode</title>
<ellipse fill="none" stroke="black" cx="674.898" cy="-225" rx="133.776" ry="18"/>
<text text-anchor="middle" x="674.898" y="-221.3" font-family="Times,serif" font-size="14.00">RouteHookDirectoryMode</text>
</g>
<!-- Ext&#45;&gt;RouteHookDirectoryMode -->
<g id="edge29" class="edge"><title>Ext&#45;&gt;RouteHookDirectoryMode</title>
<path fill="none" stroke="black" d="M426.231,-550.568C451.72,-550.521 489.504,-545.966 509.76,-522 548.597,-476.049 489.648,-296.842 529.76,-252 534.607,-246.582 540.166,-242.036 546.218,-238.236"/>
<polygon fill="black" stroke="black" points="548.331,-241.069 555.411,-233.187 544.961,-234.933 548.331,-241.069"/>
</g>
<!-- RouteHookOneFileMode -->
<g id="node28" class="node"><title>RouteHookOneFileMode</title>
<ellipse fill="none" stroke="black" cx="674.898" cy="-171" rx="125.378" ry="18"/>
<text text-anchor="middle" x="674.898" y="-167.3" font-family="Times,serif" font-size="14.00">RouteHookOneFileMode</text>
</g>
<!-- Ext&#45;&gt;RouteHookOneFileMode -->
<g id="edge30" class="edge"><title>Ext&#45;&gt;RouteHookOneFileMode</title>
<path fill="none" stroke="black" d="M426.293,-550.62C451.831,-550.614 489.652,-546.09 509.76,-522 555.986,-466.62 481.997,-252.06 529.76,-198 535.331,-191.695 541.865,-186.568 549.022,-182.419"/>
<polygon fill="black" stroke="black" points="551.053,-185.314 558.393,-177.673 547.891,-179.069 551.053,-185.314"/>
</g>
<!-- ProjectCommonConfiger -->
<g id="node29" class="node"><title>ProjectCommonConfiger</title>
<ellipse fill="none" stroke="black" cx="674.898" cy="-927" rx="126.178" ry="18"/>
<text text-anchor="middle" x="674.898" y="-923.3" font-family="Times,serif" font-size="14.00">ProjectCommonConfiger</text>
</g>
<!-- Ext&#45;&gt;ProjectCommonConfiger -->
<g id="edge31" class="edge"><title>Ext&#45;&gt;ProjectCommonConfiger</title>
<path fill="none" stroke="black" d="M400.817,-567.002C404.273,-625.301 423.521,-810.33 529.76,-900 536.904,-906.03 544.964,-910.885 553.53,-914.779"/>
<polygon fill="black" stroke="black" points="552.423,-918.107 563.004,-918.637 555.063,-911.624 552.423,-918.107"/>
</g>
<!-- FunctionView -->
<g id="node31" class="node"><title>FunctionView</title>
<ellipse fill="none" stroke="black" cx="674.898" cy="-873" rx="75.2868" ry="18"/>
<text text-anchor="middle" x="674.898" y="-869.3" font-family="Times,serif" font-size="14.00">FunctionView</text>
</g>
<!-- Ext&#45;&gt;FunctionView -->
<g id="edge33" class="edge"><title>Ext&#45;&gt;FunctionView</title>
<path fill="none" stroke="black" d="M402.171,-567.196C409.263,-619.706 437.304,-772.431 529.76,-846 546.614,-859.411 568.07,-866.907 589.246,-870.933"/>
<polygon fill="black" stroke="black" points="588.829,-874.411 599.267,-872.594 589.974,-867.505 588.829,-874.411"/>
</g>
<!-- SuperGlobal -->
<g id="node6" class="node"><title>SuperGlobal</title>
<ellipse fill="none" stroke="black" cx="138.189" cy="-387" rx="67.6881" ry="18"/>
<text text-anchor="middle" x="138.189" y="-383.3" font-family="Times,serif" font-size="14.00">SuperGlobal</text>
</g>
<!-- SuperGlobal&#45;&gt;SingletonEx -->
<g id="edge4" class="edge"><title>SuperGlobal&#45;&gt;SingletonEx</title>
<path fill="none" stroke="black" stroke-dasharray="1,5" d="M205.305,-389.59C227.132,-393.213 250.401,-400.355 268.378,-414 289.913,-430.344 275.289,-451.085 296.378,-468 306.16,-475.846 318.009,-481.425 330.111,-485.389"/>
<polygon fill="black" stroke="black" points="329.257,-488.786 339.838,-488.235 331.223,-482.068 329.257,-488.786"/>
</g>
<!-- StrictModel -->
<g id="node7" class="node"><title>StrictModel</title>
<ellipse fill="none" stroke="black" cx="138.189" cy="-740" rx="66.0889" ry="18"/>
<text text-anchor="middle" x="138.189" y="-736.3" font-family="Times,serif" font-size="14.00">StrictModel</text>
</g>
<!-- StrictModel&#45;&gt;SingletonEx -->
<g id="edge5" class="edge"><title>StrictModel&#45;&gt;SingletonEx</title>
<path fill="none" stroke="black" stroke-dasharray="1,5" d="M204.464,-741.099C227.661,-738.061 252.045,-730.352 268.378,-713 327.184,-650.527 239.265,-586.024 296.378,-522 303.686,-513.808 313.168,-507.974 323.4,-503.842"/>
<polygon fill="black" stroke="black" points="324.675,-507.104 332.966,-500.508 322.372,-500.494 324.675,-507.104"/>
</g>
<!-- StrictService -->
<g id="node8" class="node"><title>StrictService</title>
<ellipse fill="none" stroke="black" cx="138.189" cy="-686" rx="71.4873" ry="18"/>
<text text-anchor="middle" x="138.189" y="-682.3" font-family="Times,serif" font-size="14.00">StrictService</text>
</g>
<!-- StrictService&#45;&gt;SingletonEx -->
<g id="edge6" class="edge"><title>StrictService&#45;&gt;SingletonEx</title>
<path fill="none" stroke="black" stroke-dasharray="1,5" d="M209.987,-685.699C231.27,-682.121 253.02,-674.426 268.378,-659 312.226,-614.958 253.724,-567.199 296.378,-522 304.009,-513.914 313.76,-508.147 324.191,-504.053"/>
<polygon fill="black" stroke="black" points="325.58,-507.277 333.921,-500.745 323.327,-500.65 325.58,-507.277"/>
</g>
<!-- SessionUsageController -->
<g id="node9" class="node"><title>SessionUsageController</title>
<ellipse fill="none" stroke="black" cx="138.189" cy="-632" rx="122.379" ry="18"/>
<text text-anchor="middle" x="138.189" y="-628.3" font-family="Times,serif" font-size="14.00">SessionUsageController</text>
</g>
<!-- DB_DB -->
<g id="node10" class="node"><title>DB_DB</title>
<ellipse fill="none" stroke="black" cx="926.029" cy="-88" rx="27" ry="18"/>
<text text-anchor="middle" x="926.029" y="-84.3" font-family="Times,serif" font-size="14.00">DB</text>
</g>
<!-- DB_DBAdvance -->
<g id="node11" class="node"><title>DB_DBAdvance</title>
<ellipse fill="none" stroke="black" cx="1107.62" cy="-34" rx="64.9885" ry="18"/>
<text text-anchor="middle" x="1107.62" y="-30.3" font-family="Times,serif" font-size="14.00">DBAdvance</text>
</g>
<!-- DB_DB&#45;&gt;DB_DBAdvance -->
<g id="edge7" class="edge"><title>DB_DB&#45;&gt;DB_DBAdvance</title>
<path fill="none" stroke="black" d="M950.877,-80.8292C976.842,-73.0217 1019.2,-60.2841 1053.2,-50.063"/>
<polygon fill="black" stroke="black" points="1054.42,-53.3482 1062.99,-47.1169 1052.41,-46.6447 1054.42,-53.3482"/>
</g>
<!-- DB_DBInterface -->
<g id="node12" class="node"><title>DB_DBInterface</title>
<ellipse fill="none" stroke="black" cx="1107.62" cy="-88" rx="67.6881" ry="18"/>
<text text-anchor="middle" x="1107.62" y="-84.3" font-family="Times,serif" font-size="14.00">DBInterface</text>
</g>
<!-- DB_DB&#45;&gt;DB_DBInterface -->
<g id="edge8" class="edge"><title>DB_DB&#45;&gt;DB_DBInterface</title>
<path fill="none" stroke="black" d="M953.142,-88C973.241,-88 1002.11,-88 1029.4,-88"/>
<polygon fill="black" stroke="black" points="1029.76,-91.5001 1039.76,-88 1029.76,-84.5001 1029.76,-91.5001"/>
</g>
<!-- DB_MedooDB -->
<g id="node13" class="node"><title>DB_MedooDB</title>
<ellipse fill="none" stroke="black" cx="926.029" cy="-34" rx="56.59" ry="18"/>
<text text-anchor="middle" x="926.029" y="-30.3" font-family="Times,serif" font-size="14.00">MedooDB</text>
</g>
<!-- DB_MedooDB&#45;&gt;DB_DBAdvance -->
<g id="edge9" class="edge"><title>DB_MedooDB&#45;&gt;DB_DBAdvance</title>
<path fill="none" stroke="black" d="M982.867,-34C998.471,-34 1015.68,-34 1032.18,-34"/>
<polygon fill="black" stroke="black" points="1032.33,-37.5001 1042.33,-34 1032.33,-30.5001 1032.33,-37.5001"/>
</g>
<!-- SwooleExt&#45;&gt;SingletonEx -->
<g id="edge18" class="edge"><title>SwooleExt&#45;&gt;SingletonEx</title>
<path fill="none" stroke="black" stroke-dasharray="1,5" d="M616.238,-329.309C586.574,-330.621 552.06,-337.654 529.76,-360 495.278,-394.554 543.259,-432.491 509.76,-468 501.454,-476.805 490.777,-482.933 479.356,-487.164"/>
<polygon fill="black" stroke="black" points="478.073,-483.9 469.622,-490.289 480.213,-490.565 478.073,-483.9"/>
</g>
<!-- SwooleHttpd -->
<g id="node20" class="node"><title>SwooleHttpd</title>
<ellipse fill="none" stroke="black" cx="926.029" cy="-333" rx="71.4873" ry="18"/>
<text text-anchor="middle" x="926.029" y="-329.3" font-family="Times,serif" font-size="14.00">SwooleHttpd</text>
</g>
<!-- SwooleExt&#45;&gt;SwooleHttpd -->
<g id="edge17" class="edge"><title>SwooleExt&#45;&gt;SwooleHttpd</title>
<path fill="none" stroke="black" d="M734.938,-333C767.548,-333 808.533,-333 844.09,-333"/>
<polygon fill="black" stroke="black" points="844.447,-336.5 854.447,-333 844.447,-329.5 844.447,-336.5"/>
</g>
<!-- RouteHookRewrite&#45;&gt;SingletonEx -->
<g id="edge19" class="edge"><title>RouteHookRewrite&#45;&gt;SingletonEx</title>
<path fill="none" stroke="black" stroke-dasharray="1,5" d="M575.383,-818.087C558.034,-813.435 541.727,-805.378 529.76,-792 489.648,-747.158 548.597,-567.951 509.76,-522 502.221,-513.08 492.253,-506.848 481.394,-502.538"/>
<polygon fill="black" stroke="black" points="482.256,-499.134 471.661,-499.225 480,-505.761 482.256,-499.134"/>
</g>
<!-- RouteHookRouteMap&#45;&gt;SingletonEx -->
<g id="edge20" class="edge"><title>RouteHookRouteMap&#45;&gt;SingletonEx</title>
<path fill="none" stroke="black" stroke-dasharray="1,5" d="M566.093,-760.991C552.322,-756.142 539.62,-748.821 529.76,-738 497.292,-702.369 541.214,-558.529 509.76,-522 502.139,-513.149 492.127,-506.955 481.25,-502.661"/>
<polygon fill="black" stroke="black" points="482.101,-499.254 471.506,-499.357 479.853,-505.883 482.101,-499.254"/>
</g>
<!-- DBManager&#45;&gt;SingletonEx -->
<g id="edge21" class="edge"><title>DBManager&#45;&gt;SingletonEx</title>
<path fill="none" stroke="black" stroke-dasharray="1,5" d="M608.976,-660.257C581.087,-658.145 550.262,-650.544 529.76,-630 495.278,-595.446 543.259,-557.509 509.76,-522 501.454,-513.195 490.777,-507.067 479.356,-502.836"/>
<polygon fill="black" stroke="black" points="480.213,-499.435 469.622,-499.711 478.073,-506.1 480.213,-499.435"/>
</g>
<!-- DBManager&#45;&gt;DB_DB -->
<g id="edge15" class="edge"><title>DBManager&#45;&gt;DB_DB</title>
<path fill="none" stroke="black" d="M741.095,-660.042C766.869,-657.629 794.474,-649.852 812.036,-630 884.23,-548.389 793.829,-235.52 848.036,-141 858.091,-123.466 876.588,-110.448 892.931,-101.702"/>
<polygon fill="black" stroke="black" points="894.853,-104.654 902.225,-97.0443 891.717,-98.3957 894.853,-104.654"/>
</g>
<!-- Pager&#45;&gt;SingletonEx -->
<g id="edge44" class="edge"><title>Pager&#45;&gt;SingletonEx</title>
<path fill="none" stroke="black" stroke-dasharray="1,5" d="M637.448,-605.598C605.505,-605.883 559.634,-601.195 529.76,-576 510.196,-559.5 528.853,-539.043 509.76,-522 500.025,-513.31 487.94,-507.313 475.384,-503.197"/>
<polygon fill="black" stroke="black" points="476.301,-499.819 465.722,-500.402 474.356,-506.543 476.301,-499.819"/>
</g>
<!-- DIExt -->
<g id="node21" class="node"><title>DIExt</title>
<ellipse fill="none" stroke="black" cx="674.898" cy="-279" rx="38.1938" ry="18"/>
<text text-anchor="middle" x="674.898" y="-275.3" font-family="Times,serif" font-size="14.00">DIExt</text>
</g>
<!-- DIExt&#45;&gt;SingletonEx -->
<g id="edge22" class="edge"><title>DIExt&#45;&gt;SingletonEx</title>
<path fill="none" stroke="black" stroke-dasharray="1,5" d="M637.548,-274.891C604.53,-273.36 556.955,-277.055 529.76,-306 480.085,-358.872 557.93,-413.754 509.76,-468 501.825,-476.936 491.452,-483.148 480.252,-487.426"/>
<polygon fill="black" stroke="black" points="479.084,-484.126 470.684,-490.582 481.277,-490.773 479.084,-484.126"/>
</g>
<!-- Lazybones&#45;&gt;SingletonEx -->
<g id="edge23" class="edge"><title>Lazybones&#45;&gt;SingletonEx</title>
<path fill="none" stroke="black" stroke-dasharray="1,5" d="M623.154,-539.752C595.515,-534.65 560.73,-528.124 529.76,-522 504.997,-517.103 477.628,-511.443 454.44,-506.573"/>
<polygon fill="black" stroke="black" points="454.949,-503.103 444.442,-504.468 453.506,-509.953 454.949,-503.103"/>
</g>
<!-- DBReusePoolProxy&#45;&gt;SingletonEx -->
<g id="edge38" class="edge"><title>DBReusePoolProxy&#45;&gt;SingletonEx</title>
<path fill="none" stroke="black" stroke-dasharray="1,5" d="M575.031,-495C551.996,-495 527.401,-495 504.148,-495"/>
<polygon fill="black" stroke="black" points="503.922,-491.5 493.922,-495 503.922,-498.5 503.922,-491.5"/>
</g>
<!-- FunctionDispatcher&#45;&gt;SingletonEx -->
<g id="edge39" class="edge"><title>FunctionDispatcher&#45;&gt;SingletonEx</title>
<path fill="none" stroke="black" stroke-dasharray="1,5" d="M603.097,-453.97C579.727,-458.329 553.612,-463.284 529.76,-468 504.997,-472.897 477.628,-478.557 454.44,-483.427"/>
<polygon fill="black" stroke="black" points="453.506,-480.047 444.442,-485.532 454.949,-486.897 453.506,-480.047"/>
</g>
<!-- ProjectCommonAutoloader&#45;&gt;SingletonEx -->
<g id="edge40" class="edge"><title>ProjectCommonAutoloader&#45;&gt;SingletonEx</title>
<path fill="none" stroke="black" stroke-dasharray="1,5" d="M559.404,-396.738C548.651,-400.99 538.518,-406.614 529.76,-414 510.196,-430.5 528.853,-450.957 509.76,-468 500.025,-476.69 487.94,-482.687 475.384,-486.803"/>
<polygon fill="black" stroke="black" points="474.356,-483.457 465.722,-489.598 476.301,-490.181 474.356,-483.457"/>
</g>
<!-- FacadesAutoLoader&#45;&gt;SingletonEx -->
<g id="edge41" class="edge"><title>FacadesAutoLoader&#45;&gt;SingletonEx</title>
<path fill="none" stroke="black" stroke-dasharray="1,5" d="M572.208,-708.588C556.19,-703.855 541.178,-696.153 529.76,-684 480.085,-631.128 557.93,-576.246 509.76,-522 501.825,-513.064 491.452,-506.852 480.252,-502.574"/>
<polygon fill="black" stroke="black" points="481.277,-499.227 470.684,-499.418 479.084,-505.874 481.277,-499.227"/>
</g>
<!-- FacadesBase -->
<g id="node33" class="node"><title>FacadesBase</title>
<ellipse fill="none" stroke="black" cx="926.029" cy="-711" rx="71.4873" ry="18"/>
<text text-anchor="middle" x="926.029" y="-707.3" font-family="Times,serif" font-size="14.00">FacadesBase</text>
</g>
<!-- FacadesAutoLoader&#45;&gt;FacadesBase -->
<g id="edge35" class="edge"><title>FacadesAutoLoader&#45;&gt;FacadesBase</title>
<path fill="none" stroke="black" d="M778.307,-711C800.221,-711 823.08,-711 844.052,-711"/>
<polygon fill="black" stroke="black" points="844.183,-714.5 854.183,-711 844.183,-707.5 844.183,-714.5"/>
</g>
<!-- RouteHookDirectoryMode&#45;&gt;SingletonEx -->
<g id="edge42" class="edge"><title>RouteHookDirectoryMode&#45;&gt;SingletonEx</title>
<path fill="none" stroke="black" stroke-dasharray="1,5" d="M555.565,-233.326C545.888,-237.916 537.048,-244.002 529.76,-252 497.292,-287.631 541.214,-431.471 509.76,-468 502.139,-476.851 492.127,-483.045 481.25,-487.339"/>
<polygon fill="black" stroke="black" points="479.853,-484.117 471.506,-490.643 482.101,-490.746 479.853,-484.117"/>
</g>
<!-- RouteHookDirectoryMode&#45;&gt;SuperGlobal -->
<g id="edge36" class="edge"><title>RouteHookDirectoryMode&#45;&gt;SuperGlobal</title>
<path fill="none" stroke="black" d="M588.449,-238.851C569.033,-242.594 548.587,-247.012 529.76,-252 402.991,-285.585 258.126,-340.038 185.64,-368.434"/>
<polygon fill="black" stroke="black" points="184.349,-365.181 176.323,-372.097 186.91,-371.696 184.349,-365.181"/>
</g>
<!-- RouteHookOneFileMode&#45;&gt;SingletonEx -->
<g id="edge43" class="edge"><title>RouteHookOneFileMode&#45;&gt;SingletonEx</title>
<path fill="none" stroke="black" stroke-dasharray="1,5" d="M558.503,-177.771C547.645,-182.528 537.738,-189.082 529.76,-198 489.648,-242.842 548.597,-422.049 509.76,-468 502.221,-476.92 492.253,-483.152 481.394,-487.462"/>
<polygon fill="black" stroke="black" points="480,-484.239 471.661,-490.775 482.256,-490.866 480,-484.239"/>
</g>
<!-- RouteHookOneFileMode&#45;&gt;SuperGlobal -->
<g id="edge37" class="edge"><title>RouteHookOneFileMode&#45;&gt;SuperGlobal</title>
<path fill="none" stroke="black" d="M566.555,-180.102C488.243,-190.112 381.386,-210.94 296.378,-254 241.929,-281.581 190.187,-331.534 161.762,-361.748"/>
<polygon fill="black" stroke="black" points="158.95,-359.633 154.715,-369.345 164.082,-364.394 158.95,-359.633"/>
</g>
<!-- Core_Configer -->
<g id="node30" class="node"><title>Core_Configer</title>
<ellipse fill="none" stroke="black" cx="926.029" cy="-927" rx="77.9862" ry="18"/>
<text text-anchor="middle" x="926.029" y="-923.3" font-family="Times,serif" font-size="14.00">Core_Configer</text>
</g>
<!-- ProjectCommonConfiger&#45;&gt;Core_Configer -->
<g id="edge32" class="edge"><title>ProjectCommonConfiger&#45;&gt;Core_Configer</title>
<path fill="none" stroke="black" d="M801.193,-927C813.47,-927 825.738,-927 837.518,-927"/>
<polygon fill="black" stroke="black" points="837.734,-930.5 847.734,-927 837.734,-923.5 837.734,-930.5"/>
</g>
<!-- Core_View -->
<g id="node32" class="node"><title>Core_View</title>
<ellipse fill="none" stroke="black" cx="926.029" cy="-873" rx="61.1893" ry="18"/>
<text text-anchor="middle" x="926.029" y="-869.3" font-family="Times,serif" font-size="14.00">Core_View</text>
</g>
<!-- FunctionView&#45;&gt;Core_View -->
<g id="edge34" class="edge"><title>FunctionView&#45;&gt;Core_View</title>
<path fill="none" stroke="black" d="M750.308,-873C783.299,-873 821.926,-873 854.459,-873"/>
<polygon fill="black" stroke="black" points="854.793,-876.5 864.793,-873 854.793,-869.5 854.793,-876.5"/>
</g>
</g>
</svg>
