<?xml version="1.0" encoding="UTF-8" standalone="no"?>
<!DOCTYPE svg PUBLIC "-//W3C//DTD SVG 1.1//EN"
 "http://www.w3.org/Graphics/SVG/1.1/DTD/svg11.dtd">
<!-- Generated by graphviz version 2.38.0 (20140413.2041)
 -->
<!-- Title: G Pages: 1 -->
<svg width="1199pt" height="992pt"
 viewBox="0.00 0.00 1199.21 992.00" xmlns="http://www.w3.org/2000/svg" xmlns:xlink="http://www.w3.org/1999/xlink">
<g id="graph0" class="graph" transform="scale(1 1) rotate(0) translate(4 988)">
<title>G</title>
<polygon fill="white" stroke="none" points="-4,4 -4,-988 1195.21,-988 1195.21,4 -4,4"/>
<g id="clust1" class="cluster"><title>cluster_DNMVCS</title>
<polygon fill="none" stroke="black" points="51.1416,-307 51.1416,-544 509.76,-544 509.76,-307 51.1416,-307"/>
<text text-anchor="middle" x="280.451" y="-528.8" font-family="Times,serif" font-size="14.00">[DNMVCS]</text>
</g>
<g id="clust2" class="cluster"><title>cluster_Base</title>
<polygon fill="none" stroke="black" points="8,-552 8,-735 268.378,-735 268.378,-552 8,-552"/>
<text text-anchor="middle" x="138.189" y="-719.8" font-family="Times,serif" font-size="14.00">[DNMVCS\Base]</text>
</g>
<g id="clust3" class="cluster"><title>cluster_DB</title>
<polygon fill="none" stroke="black" points="861.484,-8 861.484,-137 1183.21,-137 1183.21,-8 861.484,-8"/>
<text text-anchor="middle" x="1022.35" y="-121.8" font-family="Times,serif" font-size="14.00">[DNMVCS\DB]</text>
</g>
<g id="clust4" class="cluster"><title>cluster_Ext</title>
<polygon fill="none" stroke="black" points="529.76,-145 529.76,-976 1012.02,-976 1012.02,-145 529.76,-145"/>
<text text-anchor="middle" x="770.891" y="-960.8" font-family="Times,serif" font-size="14.00">[DNMVCS\Ext]</text>
</g>
<!-- SingletonEx -->
<g id="node1" class="node"><title>SingletonEx</title>
<polygon fill="none" stroke="black" points="399.069,-459 304.222,-441 399.069,-423 493.916,-441 399.069,-459"/>
<polyline fill="none" stroke="black" points="316.012,-443.237 316.012,-438.763 "/>
<polyline fill="none" stroke="black" points="387.28,-425.237 410.859,-425.237 "/>
<polyline fill="none" stroke="black" points="482.126,-438.763 482.126,-443.237 "/>
<polyline fill="none" stroke="black" points="410.859,-456.763 387.28,-456.763 "/>
<text text-anchor="middle" x="399.069" y="-437.3" font-family="Times,serif" font-size="14.00">SingletonEx</text>
</g>
<!-- DNMVCS -->
<g id="node2" class="node"><title>DNMVCS</title>
<polygon fill="none" stroke="black" points="138.189,-405 59.0941,-387 138.189,-369 217.284,-387 138.189,-405"/>
<polyline fill="none" stroke="black" points="70.7949,-389.663 70.7949,-384.337 "/>
<polyline fill="none" stroke="black" points="126.488,-371.663 149.89,-371.663 "/>
<polyline fill="none" stroke="black" points="205.583,-384.337 205.583,-389.663 "/>
<polyline fill="none" stroke="black" points="149.89,-402.337 126.488,-402.337 "/>
<text text-anchor="middle" x="138.189" y="-383.3" font-family="Times,serif" font-size="14.00">DNMVCS</text>
</g>
<!-- Core_App -->
<g id="node3" class="node"><title>Core_App</title>
<ellipse fill="none" stroke="black" cx="399.069" cy="-333" rx="102.882" ry="18"/>
<text text-anchor="middle" x="399.069" y="-329.3" font-family="Times,serif" font-size="14.00">DNMVCS\Core\App</text>
</g>
<!-- DNMVCS&#45;&gt;Core_App -->
<g id="edge1" class="edge"><title>DNMVCS&#45;&gt;Core_App</title>
<path fill="none" stroke="black" d="M180.209,-378.444C218.264,-370.506 275.85,-358.494 322.261,-348.813"/>
<polygon fill="black" stroke="black" points="323.21,-352.19 332.285,-346.722 321.78,-345.338 323.21,-352.19"/>
</g>
<!-- ClassExt -->
<g id="node4" class="node"><title>ClassExt</title>
<ellipse fill="none" stroke="black" cx="399.069" cy="-387" rx="51.9908" ry="18"/>
<text text-anchor="middle" x="399.069" y="-383.3" font-family="Times,serif" font-size="14.00">ClassExt</text>
</g>
<!-- DNMVCS&#45;&gt;ClassExt -->
<g id="edge2" class="edge"><title>DNMVCS&#45;&gt;ClassExt</title>
<path fill="none" stroke="black" d="M217.564,-387C255.761,-387 301.022,-387 336.667,-387"/>
<polygon fill="black" stroke="black" points="336.925,-390.5 346.925,-387 336.925,-383.5 336.925,-390.5"/>
</g>
<!-- Ext -->
<g id="node5" class="node"><title>Ext</title>
<ellipse fill="none" stroke="black" stroke-dasharray="1,5" cx="399.069" cy="-495" rx="27" ry="18"/>
</g>
<!-- DNMVCS&#45;&gt;Ext -->
<g id="edge3" class="edge"><title>DNMVCS&#45;&gt;Ext</title>
<path fill="none" stroke="black" d="M160.875,-400.097C190.569,-417.577 245.957,-448.579 296.378,-468 318.006,-476.331 343.176,-483.036 363.063,-487.681"/>
<polygon fill="black" stroke="black" points="362.409,-491.121 372.935,-489.92 363.957,-484.295 362.409,-491.121"/>
</g>
<!-- SwooleExt -->
<g id="node14" class="node"><title>SwooleExt</title>
<ellipse fill="none" stroke="black" cx="674.898" cy="-279" rx="59.5901" ry="18"/>
<text text-anchor="middle" x="674.898" y="-275.3" font-family="Times,serif" font-size="14.00">SwooleExt</text>
</g>
<!-- Ext&#45;&gt;SwooleExt -->
<g id="edge10" class="edge"><title>Ext&#45;&gt;SwooleExt</title>
<path fill="none" stroke="black" d="M426.462,-496.351C451.755,-496.085 489.055,-491.317 509.76,-468 557.93,-413.754 480.085,-358.872 529.76,-306 549.245,-285.261 579.193,-277.485 606.752,-275.305"/>
<polygon fill="black" stroke="black" points="606.986,-278.798 616.774,-274.742 606.593,-271.809 606.986,-278.798"/>
</g>
<!-- RouteHookRewrite -->
<g id="node15" class="node"><title>RouteHookRewrite</title>
<ellipse fill="none" stroke="black" cx="674.898" cy="-387" rx="99.3824" ry="18"/>
<text text-anchor="middle" x="674.898" y="-383.3" font-family="Times,serif" font-size="14.00">RouteHookRewrite</text>
</g>
<!-- Ext&#45;&gt;RouteHookRewrite -->
<g id="edge11" class="edge"><title>Ext&#45;&gt;RouteHookRewrite</title>
<path fill="none" stroke="black" d="M426.289,-495.209C450.737,-494.014 486.789,-488.504 509.76,-468 528.853,-450.957 510.196,-430.5 529.76,-414 540.75,-404.731 553.905,-398.238 567.735,-393.747"/>
<polygon fill="black" stroke="black" points="568.767,-397.092 577.399,-390.948 566.82,-390.368 568.767,-397.092"/>
</g>
<!-- RouteHookRouteMap -->
<g id="node16" class="node"><title>RouteHookRouteMap</title>
<ellipse fill="none" stroke="black" cx="674.898" cy="-333" rx="111.28" ry="18"/>
<text text-anchor="middle" x="674.898" y="-329.3" font-family="Times,serif" font-size="14.00">RouteHookRouteMap</text>
</g>
<!-- Ext&#45;&gt;RouteHookRouteMap -->
<g id="edge12" class="edge"><title>Ext&#45;&gt;RouteHookRouteMap</title>
<path fill="none" stroke="black" d="M426.163,-496.078C451.23,-495.604 488.362,-490.682 509.76,-468 543.259,-432.491 495.278,-394.554 529.76,-360 537.827,-351.916 547.494,-345.836 557.95,-341.306"/>
<polygon fill="black" stroke="black" points="559.238,-344.561 567.323,-337.713 556.732,-338.025 559.238,-344.561"/>
</g>
<!-- StrictCheck -->
<g id="node17" class="node"><title>StrictCheck</title>
<ellipse fill="none" stroke="black" cx="674.898" cy="-927" rx="66.8882" ry="18"/>
<text text-anchor="middle" x="674.898" y="-923.3" font-family="Times,serif" font-size="14.00">StrictCheck</text>
</g>
<!-- Ext&#45;&gt;StrictCheck -->
<g id="edge13" class="edge"><title>Ext&#45;&gt;StrictCheck</title>
<path fill="none" stroke="black" d="M399.819,-513.397C400.019,-577.701 409.911,-794.239 529.76,-900 548.383,-916.434 573.745,-924.264 598.005,-927.66"/>
<polygon fill="black" stroke="black" points="597.611,-931.138 607.949,-928.823 598.423,-924.185 597.611,-931.138"/>
</g>
<!-- DBManager -->
<g id="node18" class="node"><title>DBManager</title>
<ellipse fill="none" stroke="black" cx="674.898" cy="-765" rx="66.8882" ry="18"/>
<text text-anchor="middle" x="674.898" y="-761.3" font-family="Times,serif" font-size="14.00">DBManager</text>
</g>
<!-- Ext&#45;&gt;DBManager -->
<g id="edge14" class="edge"><title>Ext&#45;&gt;DBManager</title>
<path fill="none" stroke="black" d="M403.968,-512.852C414.927,-558.484 450.521,-679.878 529.76,-738 549.25,-752.296 574.107,-759.702 597.67,-763.362"/>
<polygon fill="black" stroke="black" points="597.292,-766.842 607.67,-764.71 598.228,-759.905 597.292,-766.842"/>
</g>
<!-- Pager -->
<g id="node19" class="node"><title>Pager</title>
<ellipse fill="none" stroke="black" cx="674.898" cy="-711" rx="37.8943" ry="18"/>
<text text-anchor="middle" x="674.898" y="-707.3" font-family="Times,serif" font-size="14.00">Pager</text>
</g>
<!-- Ext&#45;&gt;Pager -->
<g id="edge16" class="edge"><title>Ext&#45;&gt;Pager</title>
<path fill="none" stroke="black" d="M406.625,-512.509C421.842,-550.548 463.402,-640.781 529.76,-684 558.481,-702.706 596.856,-709.204 626.789,-711.162"/>
<polygon fill="black" stroke="black" points="626.83,-714.668 636.994,-711.677 627.184,-707.677 626.83,-714.668"/>
</g>
<!-- Lazybones -->
<g id="node21" class="node"><title>Lazybones</title>
<ellipse fill="none" stroke="black" cx="674.898" cy="-657" rx="59.5901" ry="18"/>
<text text-anchor="middle" x="674.898" y="-653.3" font-family="Times,serif" font-size="14.00">Lazybones</text>
</g>
<!-- Ext&#45;&gt;Lazybones -->
<g id="edge23" class="edge"><title>Ext&#45;&gt;Lazybones</title>
<path fill="none" stroke="black" d="M410.652,-511.44C430.307,-540.502 475.431,-600.649 529.76,-630 552.794,-642.444 580.58,-649.247 605.584,-652.933"/>
<polygon fill="black" stroke="black" points="605.366,-656.435 615.741,-654.286 606.29,-649.496 605.366,-656.435"/>
</g>
<!-- DBReusePoolProxy -->
<g id="node22" class="node"><title>DBReusePoolProxy</title>
<ellipse fill="none" stroke="black" cx="674.898" cy="-603" rx="99.3824" ry="18"/>
<text text-anchor="middle" x="674.898" y="-599.3" font-family="Times,serif" font-size="14.00">DBReusePoolProxy</text>
</g>
<!-- Ext&#45;&gt;DBReusePoolProxy -->
<g id="edge24" class="edge"><title>Ext&#45;&gt;DBReusePoolProxy</title>
<path fill="none" stroke="black" d="M416.991,-508.504C440.743,-526.745 485.982,-558.933 529.76,-576 546.02,-582.339 563.906,-587.219 581.382,-590.967"/>
<polygon fill="black" stroke="black" points="581.112,-594.484 591.609,-593.045 582.506,-587.624 581.112,-594.484"/>
</g>
<!-- FunctionDispatcher -->
<g id="node23" class="node"><title>FunctionDispatcher</title>
<ellipse fill="none" stroke="black" cx="674.898" cy="-549" rx="103.182" ry="18"/>
<text text-anchor="middle" x="674.898" y="-545.3" font-family="Times,serif" font-size="14.00">FunctionDispatcher</text>
</g>
<!-- Ext&#45;&gt;FunctionDispatcher -->
<g id="edge25" class="edge"><title>Ext&#45;&gt;FunctionDispatcher</title>
<path fill="none" stroke="black" d="M424.902,-500.324C450.984,-505.88 493.21,-514.773 529.76,-522 550.258,-526.053 572.427,-530.282 593.089,-534.158"/>
<polygon fill="black" stroke="black" points="592.624,-537.632 603.097,-536.03 593.911,-530.751 592.624,-537.632"/>
</g>
<!-- ProjectCommonAutoloader -->
<g id="node24" class="node"><title>ProjectCommonAutoloader</title>
<ellipse fill="none" stroke="black" cx="674.898" cy="-495" rx="137.276" ry="18"/>
<text text-anchor="middle" x="674.898" y="-491.3" font-family="Times,serif" font-size="14.00">ProjectCommonAutoloader</text>
</g>
<!-- Ext&#45;&gt;ProjectCommonAutoloader -->
<g id="edge26" class="edge"><title>Ext&#45;&gt;ProjectCommonAutoloader</title>
<path fill="none" stroke="black" d="M426.325,-495C450.471,-495 488.332,-495 527.248,-495"/>
<polygon fill="black" stroke="black" points="527.697,-498.5 537.696,-495 527.696,-491.5 527.697,-498.5"/>
</g>
<!-- FacadesAutoLoader -->
<g id="node25" class="node"><title>FacadesAutoLoader</title>
<ellipse fill="none" stroke="black" cx="674.898" cy="-441" rx="103.182" ry="18"/>
<text text-anchor="middle" x="674.898" y="-437.3" font-family="Times,serif" font-size="14.00">FacadesAutoLoader</text>
</g>
<!-- Ext&#45;&gt;FacadesAutoLoader -->
<g id="edge27" class="edge"><title>Ext&#45;&gt;FacadesAutoLoader</title>
<path fill="none" stroke="black" d="M424.902,-489.676C450.984,-484.12 493.21,-475.227 529.76,-468 550.258,-463.947 572.427,-459.718 593.089,-455.842"/>
<polygon fill="black" stroke="black" points="593.911,-459.249 603.097,-453.97 592.624,-452.368 593.911,-459.249"/>
</g>
<!-- RouteHookDirectoryMode -->
<g id="node26" class="node"><title>RouteHookDirectoryMode</title>
<ellipse fill="none" stroke="black" cx="674.898" cy="-225" rx="133.776" ry="18"/>
<text text-anchor="middle" x="674.898" y="-221.3" font-family="Times,serif" font-size="14.00">RouteHookDirectoryMode</text>
</g>
<!-- Ext&#45;&gt;RouteHookDirectoryMode -->
<g id="edge28" class="edge"><title>Ext&#45;&gt;RouteHookDirectoryMode</title>
<path fill="none" stroke="black" d="M426.138,-496.489C451.556,-496.381 489.285,-491.779 509.76,-468 541.214,-431.471 497.292,-287.631 529.76,-252 534.77,-246.502 540.515,-241.906 546.76,-238.08"/>
<polygon fill="black" stroke="black" points="548.429,-241.157 555.565,-233.326 545.103,-234.997 548.429,-241.157"/>
</g>
<!-- RouteHookOneFileMode -->
<g id="node27" class="node"><title>RouteHookOneFileMode</title>
<ellipse fill="none" stroke="black" cx="674.898" cy="-171" rx="125.378" ry="18"/>
<text text-anchor="middle" x="674.898" y="-167.3" font-family="Times,serif" font-size="14.00">RouteHookOneFileMode</text>
</g>
<!-- Ext&#45;&gt;RouteHookOneFileMode -->
<g id="edge29" class="edge"><title>Ext&#45;&gt;RouteHookOneFileMode</title>
<path fill="none" stroke="black" d="M426.231,-496.568C451.72,-496.521 489.504,-491.966 509.76,-468 548.597,-422.049 489.648,-242.842 529.76,-198 535.369,-191.729 541.932,-186.628 549.109,-182.498"/>
<polygon fill="black" stroke="black" points="551.143,-185.392 558.503,-177.771 547.997,-179.139 551.143,-185.392"/>
</g>
<!-- ProjectCommonConfiger -->
<g id="node28" class="node"><title>ProjectCommonConfiger</title>
<ellipse fill="none" stroke="black" cx="674.898" cy="-873" rx="126.178" ry="18"/>
<text text-anchor="middle" x="674.898" y="-869.3" font-family="Times,serif" font-size="14.00">ProjectCommonConfiger</text>
</g>
<!-- Ext&#45;&gt;ProjectCommonConfiger -->
<g id="edge30" class="edge"><title>Ext&#45;&gt;ProjectCommonConfiger</title>
<path fill="none" stroke="black" d="M400.817,-513.002C404.273,-571.301 423.521,-756.33 529.76,-846 536.904,-852.03 544.964,-856.885 553.53,-860.779"/>
<polygon fill="black" stroke="black" points="552.423,-864.107 563.004,-864.637 555.063,-857.624 552.423,-864.107"/>
</g>
<!-- FunctionView -->
<g id="node30" class="node"><title>FunctionView</title>
<ellipse fill="none" stroke="black" cx="674.898" cy="-819" rx="75.2868" ry="18"/>
<text text-anchor="middle" x="674.898" y="-815.3" font-family="Times,serif" font-size="14.00">FunctionView</text>
</g>
<!-- Ext&#45;&gt;FunctionView -->
<g id="edge32" class="edge"><title>Ext&#45;&gt;FunctionView</title>
<path fill="none" stroke="black" d="M402.171,-513.196C409.263,-565.706 437.304,-718.431 529.76,-792 546.614,-805.411 568.07,-812.907 589.246,-816.933"/>
<polygon fill="black" stroke="black" points="588.829,-820.411 599.267,-818.594 589.974,-813.505 588.829,-820.411"/>
</g>
<!-- SuperGlobal -->
<g id="node6" class="node"><title>SuperGlobal</title>
<ellipse fill="none" stroke="black" cx="138.189" cy="-333" rx="67.6881" ry="18"/>
<text text-anchor="middle" x="138.189" y="-329.3" font-family="Times,serif" font-size="14.00">SuperGlobal</text>
</g>
<!-- SuperGlobal&#45;&gt;SingletonEx -->
<g id="edge4" class="edge"><title>SuperGlobal&#45;&gt;SingletonEx</title>
<path fill="none" stroke="black" stroke-dasharray="1,5" d="M205.305,-335.59C227.132,-339.213 250.401,-346.355 268.378,-360 289.913,-376.344 275.289,-397.085 296.378,-414 306.16,-421.846 318.009,-427.425 330.111,-431.389"/>
<polygon fill="black" stroke="black" points="329.257,-434.786 339.838,-434.235 331.223,-428.068 329.257,-434.786"/>
</g>
<!-- StrictModel -->
<g id="node7" class="node"><title>StrictModel</title>
<ellipse fill="none" stroke="black" cx="138.189" cy="-686" rx="66.0889" ry="18"/>
<text text-anchor="middle" x="138.189" y="-682.3" font-family="Times,serif" font-size="14.00">StrictModel</text>
</g>
<!-- StrictModel&#45;&gt;SingletonEx -->
<g id="edge5" class="edge"><title>StrictModel&#45;&gt;SingletonEx</title>
<path fill="none" stroke="black" stroke-dasharray="1,5" d="M204.464,-687.099C227.661,-684.061 252.045,-676.352 268.378,-659 327.184,-596.527 239.265,-532.024 296.378,-468 303.686,-459.808 313.168,-453.974 323.4,-449.842"/>
<polygon fill="black" stroke="black" points="324.675,-453.104 332.966,-446.508 322.372,-446.494 324.675,-453.104"/>
</g>
<!-- StrictService -->
<g id="node8" class="node"><title>StrictService</title>
<ellipse fill="none" stroke="black" cx="138.189" cy="-632" rx="71.4873" ry="18"/>
<text text-anchor="middle" x="138.189" y="-628.3" font-family="Times,serif" font-size="14.00">StrictService</text>
</g>
<!-- StrictService&#45;&gt;SingletonEx -->
<g id="edge6" class="edge"><title>StrictService&#45;&gt;SingletonEx</title>
<path fill="none" stroke="black" stroke-dasharray="1,5" d="M209.987,-631.699C231.27,-628.121 253.02,-620.426 268.378,-605 312.226,-560.958 253.724,-513.199 296.378,-468 304.009,-459.914 313.76,-454.147 324.191,-450.053"/>
<polygon fill="black" stroke="black" points="325.58,-453.277 333.921,-446.745 323.327,-446.65 325.58,-453.277"/>
</g>
<!-- SessionUsageController -->
<g id="node9" class="node"><title>SessionUsageController</title>
<ellipse fill="none" stroke="black" cx="138.189" cy="-578" rx="122.379" ry="18"/>
<text text-anchor="middle" x="138.189" y="-574.3" font-family="Times,serif" font-size="14.00">SessionUsageController</text>
</g>
<!-- DB_DB -->
<g id="node10" class="node"><title>DB_DB</title>
<ellipse fill="none" stroke="black" cx="926.029" cy="-88" rx="27" ry="18"/>
<text text-anchor="middle" x="926.029" y="-84.3" font-family="Times,serif" font-size="14.00">DB</text>
</g>
<!-- DB_DBAdvance -->
<g id="node11" class="node"><title>DB_DBAdvance</title>
<ellipse fill="none" stroke="black" cx="1107.62" cy="-34" rx="64.9885" ry="18"/>
<text text-anchor="middle" x="1107.62" y="-30.3" font-family="Times,serif" font-size="14.00">DBAdvance</text>
</g>
<!-- DB_DB&#45;&gt;DB_DBAdvance -->
<g id="edge7" class="edge"><title>DB_DB&#45;&gt;DB_DBAdvance</title>
<path fill="none" stroke="black" d="M950.877,-80.8292C976.842,-73.0217 1019.2,-60.2841 1053.2,-50.063"/>
<polygon fill="black" stroke="black" points="1054.42,-53.3482 1062.99,-47.1169 1052.41,-46.6447 1054.42,-53.3482"/>
</g>
<!-- DB_DBInterface -->
<g id="node12" class="node"><title>DB_DBInterface</title>
<ellipse fill="none" stroke="black" cx="1107.62" cy="-88" rx="67.6881" ry="18"/>
<text text-anchor="middle" x="1107.62" y="-84.3" font-family="Times,serif" font-size="14.00">DBInterface</text>
</g>
<!-- DB_DB&#45;&gt;DB_DBInterface -->
<g id="edge8" class="edge"><title>DB_DB&#45;&gt;DB_DBInterface</title>
<path fill="none" stroke="black" d="M953.142,-88C973.241,-88 1002.11,-88 1029.4,-88"/>
<polygon fill="black" stroke="black" points="1029.76,-91.5001 1039.76,-88 1029.76,-84.5001 1029.76,-91.5001"/>
</g>
<!-- DB_MedooDB -->
<g id="node13" class="node"><title>DB_MedooDB</title>
<ellipse fill="none" stroke="black" cx="926.029" cy="-34" rx="56.59" ry="18"/>
<text text-anchor="middle" x="926.029" y="-30.3" font-family="Times,serif" font-size="14.00">MedooDB</text>
</g>
<!-- DB_MedooDB&#45;&gt;DB_DBAdvance -->
<g id="edge9" class="edge"><title>DB_MedooDB&#45;&gt;DB_DBAdvance</title>
<path fill="none" stroke="black" d="M982.867,-34C998.471,-34 1015.68,-34 1032.18,-34"/>
<polygon fill="black" stroke="black" points="1032.33,-37.5001 1042.33,-34 1032.33,-30.5001 1032.33,-37.5001"/>
</g>
<!-- SwooleExt&#45;&gt;SingletonEx -->
<g id="edge18" class="edge"><title>SwooleExt&#45;&gt;SingletonEx</title>
<path fill="none" stroke="black" stroke-dasharray="1,5" d="M616.238,-275.309C586.574,-276.621 552.06,-283.654 529.76,-306 495.278,-340.554 543.259,-378.491 509.76,-414 501.454,-422.805 490.777,-428.933 479.356,-433.164"/>
<polygon fill="black" stroke="black" points="478.073,-429.9 469.622,-436.289 480.213,-436.565 478.073,-429.9"/>
</g>
<!-- SwooleHttpd -->
<g id="node20" class="node"><title>SwooleHttpd</title>
<ellipse fill="none" stroke="black" cx="926.029" cy="-279" rx="71.4873" ry="18"/>
<text text-anchor="middle" x="926.029" y="-275.3" font-family="Times,serif" font-size="14.00">SwooleHttpd</text>
</g>
<!-- SwooleExt&#45;&gt;SwooleHttpd -->
<g id="edge17" class="edge"><title>SwooleExt&#45;&gt;SwooleHttpd</title>
<path fill="none" stroke="black" d="M734.938,-279C767.548,-279 808.533,-279 844.09,-279"/>
<polygon fill="black" stroke="black" points="844.447,-282.5 854.447,-279 844.447,-275.5 844.447,-282.5"/>
</g>
<!-- RouteHookRewrite&#45;&gt;SingletonEx -->
<g id="edge19" class="edge"><title>RouteHookRewrite&#45;&gt;SingletonEx</title>
<path fill="none" stroke="black" stroke-dasharray="1,5" d="M604.196,-399.765C580.548,-404.173 553.986,-409.21 529.76,-414 504.997,-418.897 477.628,-424.557 454.44,-429.427"/>
<polygon fill="black" stroke="black" points="453.506,-426.047 444.442,-431.532 454.949,-432.897 453.506,-426.047"/>
</g>
<!-- RouteHookRouteMap&#45;&gt;SingletonEx -->
<g id="edge20" class="edge"><title>RouteHookRouteMap&#45;&gt;SingletonEx</title>
<path fill="none" stroke="black" stroke-dasharray="1,5" d="M569.967,-339.041C555.323,-343.549 541.34,-350.234 529.76,-360 510.196,-376.5 528.853,-396.957 509.76,-414 500.025,-422.69 487.94,-428.687 475.384,-432.803"/>
<polygon fill="black" stroke="black" points="474.356,-429.457 465.722,-435.598 476.301,-436.181 474.356,-429.457"/>
</g>
<!-- DBManager&#45;&gt;SingletonEx -->
<g id="edge21" class="edge"><title>DBManager&#45;&gt;SingletonEx</title>
<path fill="none" stroke="black" stroke-dasharray="1,5" d="M609.758,-769.378C581.162,-767.684 549.535,-760.106 529.76,-738 489.648,-693.158 548.597,-513.951 509.76,-468 502.221,-459.08 492.253,-452.848 481.394,-448.538"/>
<polygon fill="black" stroke="black" points="482.256,-445.134 471.661,-445.225 480,-451.761 482.256,-445.134"/>
</g>
<!-- DBManager&#45;&gt;DB_DB -->
<g id="edge15" class="edge"><title>DBManager&#45;&gt;DB_DB</title>
<path fill="none" stroke="black" d="M740.872,-768.188C766.769,-765.832 794.527,-758.059 812.036,-738 899.435,-637.871 782.681,-256.729 848.036,-141 857.975,-123.4 876.468,-110.38 892.839,-101.65"/>
<polygon fill="black" stroke="black" points="894.767,-104.599 902.152,-97.0027 891.642,-98.3357 894.767,-104.599"/>
</g>
<!-- Pager&#45;&gt;SingletonEx -->
<g id="edge43" class="edge"><title>Pager&#45;&gt;SingletonEx</title>
<path fill="none" stroke="black" stroke-dasharray="1,5" d="M637.981,-715.265C604.795,-717.006 556.682,-713.545 529.76,-684 497.292,-648.369 541.214,-504.529 509.76,-468 502.139,-459.149 492.127,-452.955 481.25,-448.661"/>
<polygon fill="black" stroke="black" points="482.101,-445.254 471.506,-445.357 479.853,-451.883 482.101,-445.254"/>
</g>
<!-- Lazybones&#45;&gt;SingletonEx -->
<g id="edge22" class="edge"><title>Lazybones&#45;&gt;SingletonEx</title>
<path fill="none" stroke="black" stroke-dasharray="1,5" d="M616.774,-661.258C586.706,-660.23 551.638,-653.286 529.76,-630 480.085,-577.128 557.93,-522.246 509.76,-468 501.825,-459.064 491.452,-452.852 480.252,-448.574"/>
<polygon fill="black" stroke="black" points="481.277,-445.227 470.684,-445.418 479.084,-451.874 481.277,-445.227"/>
</g>
<!-- DBReusePoolProxy&#45;&gt;SingletonEx -->
<g id="edge37" class="edge"><title>DBReusePoolProxy&#45;&gt;SingletonEx</title>
<path fill="none" stroke="black" stroke-dasharray="1,5" d="M575.763,-600.831C558.595,-596.239 542.259,-588.525 529.76,-576 495.278,-541.446 543.259,-503.509 509.76,-468 501.454,-459.195 490.777,-453.067 479.356,-448.836"/>
<polygon fill="black" stroke="black" points="480.213,-445.435 469.622,-445.711 478.073,-452.1 480.213,-445.435"/>
</g>
<!-- FunctionDispatcher&#45;&gt;SingletonEx -->
<g id="edge38" class="edge"><title>FunctionDispatcher&#45;&gt;SingletonEx</title>
<path fill="none" stroke="black" stroke-dasharray="1,5" d="M574.788,-544.36C558.407,-539.875 542.605,-532.833 529.76,-522 510.196,-505.5 528.853,-485.043 509.76,-468 500.025,-459.31 487.94,-453.313 475.384,-449.197"/>
<polygon fill="black" stroke="black" points="476.301,-445.819 465.722,-446.402 474.356,-452.543 476.301,-445.819"/>
</g>
<!-- ProjectCommonAutoloader&#45;&gt;SingletonEx -->
<g id="edge39" class="edge"><title>ProjectCommonAutoloader&#45;&gt;SingletonEx</title>
<path fill="none" stroke="black" stroke-dasharray="1,5" d="M594.167,-480.361C573.2,-476.43 550.615,-472.124 529.76,-468 504.997,-463.103 477.628,-457.443 454.44,-452.573"/>
<polygon fill="black" stroke="black" points="454.949,-449.103 444.442,-450.468 453.506,-455.953 454.949,-449.103"/>
</g>
<!-- FacadesAutoLoader&#45;&gt;SingletonEx -->
<g id="edge40" class="edge"><title>FacadesAutoLoader&#45;&gt;SingletonEx</title>
<path fill="none" stroke="black" stroke-dasharray="1,5" d="M571.262,-441C549.264,-441 526.003,-441 503.957,-441"/>
<polygon fill="black" stroke="black" points="503.922,-437.5 493.922,-441 503.922,-444.5 503.922,-437.5"/>
</g>
<!-- FacadesBase -->
<g id="node32" class="node"><title>FacadesBase</title>
<ellipse fill="none" stroke="black" cx="926.029" cy="-441" rx="71.4873" ry="18"/>
<text text-anchor="middle" x="926.029" y="-437.3" font-family="Times,serif" font-size="14.00">FacadesBase</text>
</g>
<!-- FacadesAutoLoader&#45;&gt;FacadesBase -->
<g id="edge34" class="edge"><title>FacadesAutoLoader&#45;&gt;FacadesBase</title>
<path fill="none" stroke="black" d="M778.307,-441C800.221,-441 823.08,-441 844.052,-441"/>
<polygon fill="black" stroke="black" points="844.183,-444.5 854.183,-441 844.183,-437.5 844.183,-444.5"/>
</g>
<!-- RouteHookDirectoryMode&#45;&gt;SingletonEx -->
<g id="edge41" class="edge"><title>RouteHookDirectoryMode&#45;&gt;SingletonEx</title>
<path fill="none" stroke="black" stroke-dasharray="1,5" d="M556.162,-233.401C546.301,-237.962 537.256,-244.022 529.76,-252 480.085,-304.872 557.93,-359.754 509.76,-414 501.825,-422.936 491.452,-429.148 480.252,-433.426"/>
<polygon fill="black" stroke="black" points="479.084,-430.126 470.684,-436.582 481.277,-436.773 479.084,-430.126"/>
</g>
<!-- RouteHookDirectoryMode&#45;&gt;SuperGlobal -->
<g id="edge35" class="edge"><title>RouteHookDirectoryMode&#45;&gt;SuperGlobal</title>
<path fill="none" stroke="black" d="M594.922,-239.509C573.743,-243.478 550.866,-247.835 529.76,-252 413.698,-274.903 278.614,-303.309 201.577,-319.674"/>
<polygon fill="black" stroke="black" points="200.612,-316.301 191.558,-321.804 202.068,-323.148 200.612,-316.301"/>
</g>
<!-- RouteHookOneFileMode&#45;&gt;SingletonEx -->
<g id="edge42" class="edge"><title>RouteHookOneFileMode&#45;&gt;SingletonEx</title>
<path fill="none" stroke="black" stroke-dasharray="1,5" d="M558.666,-177.919C547.778,-182.648 537.819,-189.155 529.76,-198 497.292,-233.631 541.214,-377.471 509.76,-414 502.139,-422.851 492.127,-429.045 481.25,-433.339"/>
<polygon fill="black" stroke="black" points="479.853,-430.117 471.506,-436.643 482.101,-436.746 479.853,-430.117"/>
</g>
<!-- RouteHookOneFileMode&#45;&gt;SuperGlobal -->
<g id="edge36" class="edge"><title>RouteHookOneFileMode&#45;&gt;SuperGlobal</title>
<path fill="none" stroke="black" d="M595.595,-184.986C574.206,-188.992 551.057,-193.498 529.76,-198 425.497,-220.039 396.444,-216.348 296.378,-253 253.068,-268.864 206.304,-293.756 175.145,-311.56"/>
<polygon fill="black" stroke="black" points="173.305,-308.581 166.392,-316.61 176.803,-314.644 173.305,-308.581"/>
</g>
<!-- Core_Configer -->
<g id="node29" class="node"><title>Core_Configer</title>
<ellipse fill="none" stroke="black" cx="926.029" cy="-873" rx="77.9862" ry="18"/>
<text text-anchor="middle" x="926.029" y="-869.3" font-family="Times,serif" font-size="14.00">Core_Configer</text>
</g>
<!-- ProjectCommonConfiger&#45;&gt;Core_Configer -->
<g id="edge31" class="edge"><title>ProjectCommonConfiger&#45;&gt;Core_Configer</title>
<path fill="none" stroke="black" d="M801.193,-873C813.47,-873 825.738,-873 837.518,-873"/>
<polygon fill="black" stroke="black" points="837.734,-876.5 847.734,-873 837.734,-869.5 837.734,-876.5"/>
</g>
<!-- Core_View -->
<g id="node31" class="node"><title>Core_View</title>
<ellipse fill="none" stroke="black" cx="926.029" cy="-819" rx="61.1893" ry="18"/>
<text text-anchor="middle" x="926.029" y="-815.3" font-family="Times,serif" font-size="14.00">Core_View</text>
</g>
<!-- FunctionView&#45;&gt;Core_View -->
<g id="edge33" class="edge"><title>FunctionView&#45;&gt;Core_View</title>
<path fill="none" stroke="black" d="M750.308,-819C783.299,-819 821.926,-819 854.459,-819"/>
<polygon fill="black" stroke="black" points="854.793,-822.5 864.793,-819 854.793,-815.5 854.793,-822.5"/>
</g>
</g>
</svg>
