<?xml version="1.0" encoding="UTF-8" standalone="no"?>
<!DOCTYPE svg PUBLIC "-//W3C//DTD SVG 1.1//EN"
 "http://www.w3.org/Graphics/SVG/1.1/DTD/svg11.dtd">
<!-- Generated by graphviz version 2.38.0 (20140413.2041)
 -->
<!-- Title: G Pages: 1 -->
<svg width="1225pt" height="1051pt"
 viewBox="0.00 0.00 1224.86 1051.00" xmlns="http://www.w3.org/2000/svg" xmlns:xlink="http://www.w3.org/1999/xlink">
<g id="graph0" class="graph" transform="scale(1 1) rotate(0) translate(4 1047)">
<title>G</title>
<polygon fill="white" stroke="none" points="-4,4 -4,-1047 1220.86,-1047 1220.86,4 -4,4"/>
<g id="clust1" class="cluster"><title>cluster_DNMVCS</title>
<polygon fill="none" stroke="black" points="8,-415 8,-598 508.549,-598 508.549,-415 8,-415"/>
<text text-anchor="middle" x="258.274" y="-582.8" font-family="Times,serif" font-size="14.00">[DNMVCS]</text>
</g>
<g id="clust2" class="cluster"><title>cluster_Base</title>
<polygon fill="none" stroke="black" points="540.248,-852 540.248,-1035 1037.67,-1035 1037.67,-852 540.248,-852"/>
<text text-anchor="middle" x="788.96" y="-1019.8" font-family="Times,serif" font-size="14.00">[DNMVCS\Base]</text>
</g>
<g id="clust4" class="cluster"><title>cluster_DB</title>
<polygon fill="none" stroke="black" points="870.453,-8 870.453,-137 1208.86,-137 1208.86,-8 870.453,-8"/>
<text text-anchor="middle" x="1039.66" y="-121.8" font-family="Times,serif" font-size="14.00">[DNMVCS\DB]</text>
</g>
<g id="clust5" class="cluster"><title>cluster_Ext</title>
<polygon fill="none" stroke="black" points="528.549,-145 528.549,-814 1030.09,-814 1030.09,-145 528.549,-145"/>
<text text-anchor="middle" x="779.32" y="-798.8" font-family="Times,serif" font-size="14.00">[DNMVCS\Ext]</text>
</g>
<!-- SingletonEx -->
<g id="node1" class="node"><title>SingletonEx</title>
<polygon fill="none" stroke="black" stroke-dasharray="1,5" points="934.998,-896 840.151,-878 934.998,-860 1029.84,-878 934.998,-896"/>
<polyline fill="none" stroke="black" stroke-dasharray="1,5" points="851.941,-880.237 851.941,-875.763 "/>
<polyline fill="none" stroke="black" stroke-dasharray="1,5" points="923.209,-862.237 946.788,-862.237 "/>
<polyline fill="none" stroke="black" stroke-dasharray="1,5" points="1018.06,-875.763 1018.06,-880.237 "/>
<polyline fill="none" stroke="black" stroke-dasharray="1,5" points="946.788,-893.763 923.209,-893.763 "/>
<text text-anchor="middle" x="934.998" y="-874.3" font-family="Times,serif" font-size="14.00">SingletonEx</text>
</g>
<!-- DNMVCS -->
<g id="node2" class="node"><title>DNMVCS</title>
<polygon fill="none" stroke="black" points="95.0475,-513 15.9524,-495 95.0475,-477 174.143,-495 95.0475,-513"/>
<polyline fill="none" stroke="black" points="27.6533,-497.663 27.6533,-492.337 "/>
<polyline fill="none" stroke="black" points="83.3467,-479.663 106.748,-479.663 "/>
<polyline fill="none" stroke="black" points="162.442,-492.337 162.442,-497.663 "/>
<polyline fill="none" stroke="black" points="106.748,-510.337 83.3467,-510.337 "/>
<text text-anchor="middle" x="95.0475" y="-491.3" font-family="Times,serif" font-size="14.00">DNMVCS</text>
</g>
<!-- Core_App -->
<g id="node3" class="node"><title>Core_App</title>
<polygon fill="none" stroke="black" points="355.322,-459 209.868,-441 355.322,-423 500.776,-441 355.322,-459"/>
<polyline fill="none" stroke="black" points="221.777,-442.474 221.777,-439.526 "/>
<polyline fill="none" stroke="black" points="343.413,-424.474 367.231,-424.474 "/>
<polyline fill="none" stroke="black" points="488.867,-439.526 488.867,-442.474 "/>
<polyline fill="none" stroke="black" points="367.231,-457.526 343.413,-457.526 "/>
<text text-anchor="middle" x="355.322" y="-437.3" font-family="Times,serif" font-size="14.00">DNMVCS\Core\App</text>
</g>
<!-- DNMVCS&#45;&gt;Core_App -->
<g id="edge1" class="edge"><title>DNMVCS&#45;&gt;Core_App</title>
<path fill="none" stroke="black" d="M133.444,-485.675C155.659,-480.253 184.417,-473.44 210.095,-468 234.3,-462.872 260.898,-457.749 284.59,-453.365"/>
<polygon fill="black" stroke="black" points="285.348,-456.784 294.55,-451.533 284.082,-449.9 285.348,-456.784"/>
</g>
<!-- ClassExt -->
<g id="node4" class="node"><title>ClassExt</title>
<ellipse fill="none" stroke="black" cx="355.322" cy="-495" rx="51.9908" ry="18"/>
<text text-anchor="middle" x="355.322" y="-491.3" font-family="Times,serif" font-size="14.00">ClassExt</text>
</g>
<!-- DNMVCS&#45;&gt;ClassExt -->
<g id="edge2" class="edge"><title>DNMVCS&#45;&gt;ClassExt</title>
<path fill="none" stroke="black" d="M174.239,-495C212.346,-495 257.502,-495 293.063,-495"/>
<polygon fill="black" stroke="black" points="293.298,-498.5 303.298,-495 293.298,-491.5 293.298,-498.5"/>
</g>
<!-- Ext -->
<g id="node5" class="node"><title>Ext</title>
<ellipse fill="none" stroke="black" stroke-dasharray="1,5" cx="355.322" cy="-549" rx="27" ry="18"/>
</g>
<!-- DNMVCS&#45;&gt;Ext -->
<g id="edge3" class="edge"><title>DNMVCS&#45;&gt;Ext</title>
<path fill="none" stroke="black" d="M133.444,-504.325C155.659,-509.747 184.417,-516.56 210.095,-522 247.051,-529.829 289.586,-537.648 318.837,-542.841"/>
<polygon fill="black" stroke="black" points="318.522,-546.339 328.978,-544.63 319.738,-539.446 318.522,-546.339"/>
</g>
<!-- DBManager -->
<g id="node14" class="node"><title>DBManager</title>
<ellipse fill="none" stroke="black" cx="670.437" cy="-171" rx="66.8882" ry="18"/>
<text text-anchor="middle" x="670.437" y="-167.3" font-family="Times,serif" font-size="14.00">DBManager</text>
</g>
<!-- Ext&#45;&gt;DBManager -->
<g id="edge10" class="edge"><title>Ext&#45;&gt;DBManager</title>
<path fill="none" stroke="black" d="M381.829,-553.001C416.258,-556.787 476.922,-557.451 508.549,-522 556.572,-468.171 480.899,-252.159 528.549,-198 545.104,-179.183 570.415,-170.988 595.04,-167.971"/>
<polygon fill="black" stroke="black" points="595.532,-171.44 605.154,-167.005 594.866,-164.472 595.532,-171.44"/>
</g>
<!-- DBReusePoolProxy -->
<g id="node15" class="node"><title>DBReusePoolProxy</title>
<ellipse fill="none" stroke="black" cx="670.437" cy="-603" rx="99.3824" ry="18"/>
<text text-anchor="middle" x="670.437" y="-599.3" font-family="Times,serif" font-size="14.00">DBReusePoolProxy</text>
</g>
<!-- Ext&#45;&gt;DBReusePoolProxy -->
<g id="edge12" class="edge"><title>Ext&#45;&gt;DBReusePoolProxy</title>
<path fill="none" stroke="black" d="M381.68,-553.373C426.016,-561.019 519.407,-577.126 587.817,-588.924"/>
<polygon fill="black" stroke="black" points="587.27,-592.381 597.72,-590.632 588.46,-585.483 587.27,-592.381"/>
</g>
<!-- FacadesAutoLoader -->
<g id="node16" class="node"><title>FacadesAutoLoader</title>
<ellipse fill="none" stroke="black" cx="670.437" cy="-279" rx="103.182" ry="18"/>
<text text-anchor="middle" x="670.437" y="-275.3" font-family="Times,serif" font-size="14.00">FacadesAutoLoader</text>
</g>
<!-- Ext&#45;&gt;FacadesAutoLoader -->
<g id="edge13" class="edge"><title>Ext&#45;&gt;FacadesAutoLoader</title>
<path fill="none" stroke="black" d="M381.966,-552.892C416.266,-556.487 476.473,-556.863 508.549,-522 541.188,-486.525 496.155,-341.699 528.549,-306 536.851,-296.85 547.227,-290.233 558.56,-285.51"/>
<polygon fill="black" stroke="black" points="560.079,-288.681 568.281,-281.974 557.687,-282.103 560.079,-288.681"/>
</g>
<!-- JsonRpcExt -->
<g id="node17" class="node"><title>JsonRpcExt</title>
<ellipse fill="none" stroke="black" cx="670.437" cy="-225" rx="64.9885" ry="18"/>
<text text-anchor="middle" x="670.437" y="-221.3" font-family="Times,serif" font-size="14.00">JsonRpcExt</text>
</g>
<!-- Ext&#45;&gt;JsonRpcExt -->
<g id="edge14" class="edge"><title>Ext&#45;&gt;JsonRpcExt</title>
<path fill="none" stroke="black" d="M381.767,-552.946C416.124,-556.667 476.705,-557.256 508.549,-522 548.876,-477.352 488.53,-296.925 528.549,-252 545.511,-232.958 571.443,-224.83 596.456,-221.93"/>
<polygon fill="black" stroke="black" points="597.067,-225.39 606.717,-221.015 596.445,-218.417 597.067,-225.39"/>
</g>
<!-- Pager -->
<g id="node18" class="node"><title>Pager</title>
<ellipse fill="none" stroke="black" cx="670.437" cy="-333" rx="37.8943" ry="18"/>
<text text-anchor="middle" x="670.437" y="-329.3" font-family="Times,serif" font-size="14.00">Pager</text>
</g>
<!-- Ext&#45;&gt;Pager -->
<g id="edge15" class="edge"><title>Ext&#45;&gt;Pager</title>
<path fill="none" stroke="black" d="M381.813,-552.749C415.938,-556.181 475.945,-556.369 508.549,-522 558.477,-469.368 478.985,-412.975 528.549,-360 552.32,-334.593 592.105,-328.875 623.347,-328.924"/>
<polygon fill="black" stroke="black" points="623.506,-332.428 633.578,-329.141 623.655,-325.429 623.506,-332.428"/>
</g>
<!-- RouteHookDirectoryMode -->
<g id="node19" class="node"><title>RouteHookDirectoryMode</title>
<ellipse fill="none" stroke="black" cx="670.437" cy="-765" rx="133.776" ry="18"/>
<text text-anchor="middle" x="670.437" y="-761.3" font-family="Times,serif" font-size="14.00">RouteHookDirectoryMode</text>
</g>
<!-- Ext&#45;&gt;RouteHookDirectoryMode -->
<g id="edge16" class="edge"><title>Ext&#45;&gt;RouteHookDirectoryMode</title>
<path fill="none" stroke="black" d="M366.147,-565.665C389.233,-603.207 450.893,-694.504 528.549,-738 537.523,-743.026 547.268,-747.134 557.303,-750.488"/>
<polygon fill="black" stroke="black" points="556.409,-753.875 566.996,-753.478 558.472,-747.186 556.409,-753.875"/>
</g>
<!-- RouteHookOneFileMode -->
<g id="node20" class="node"><title>RouteHookOneFileMode</title>
<ellipse fill="none" stroke="black" cx="670.437" cy="-657" rx="125.378" ry="18"/>
<text text-anchor="middle" x="670.437" y="-653.3" font-family="Times,serif" font-size="14.00">RouteHookOneFileMode</text>
</g>
<!-- Ext&#45;&gt;RouteHookOneFileMode -->
<g id="edge17" class="edge"><title>Ext&#45;&gt;RouteHookOneFileMode</title>
<path fill="none" stroke="black" d="M376.321,-560.44C407.746,-577.942 471.047,-611.296 528.549,-630 542.828,-634.645 558.196,-638.599 573.349,-641.931"/>
<polygon fill="black" stroke="black" points="572.752,-645.382 583.261,-644.032 574.204,-638.535 572.752,-645.382"/>
</g>
<!-- RouteHookRewrite -->
<g id="node21" class="node"><title>RouteHookRewrite</title>
<ellipse fill="none" stroke="black" cx="670.437" cy="-549" rx="99.3824" ry="18"/>
<text text-anchor="middle" x="670.437" y="-545.3" font-family="Times,serif" font-size="14.00">RouteHookRewrite</text>
</g>
<!-- Ext&#45;&gt;RouteHookRewrite -->
<g id="edge18" class="edge"><title>Ext&#45;&gt;RouteHookRewrite</title>
<path fill="none" stroke="black" d="M382.479,-549C421.404,-549 496.836,-549 560.594,-549"/>
<polygon fill="black" stroke="black" points="560.72,-552.5 570.72,-549 560.72,-545.5 560.72,-552.5"/>
</g>
<!-- RouteHookRouteMap -->
<g id="node22" class="node"><title>RouteHookRouteMap</title>
<ellipse fill="none" stroke="black" cx="670.437" cy="-387" rx="111.28" ry="18"/>
<text text-anchor="middle" x="670.437" y="-383.3" font-family="Times,serif" font-size="14.00">RouteHookRouteMap</text>
</g>
<!-- Ext&#45;&gt;RouteHookRouteMap -->
<g id="edge19" class="edge"><title>Ext&#45;&gt;RouteHookRouteMap</title>
<path fill="none" stroke="black" d="M382.094,-552.513C415.979,-555.558 475.114,-555.182 508.549,-522 543.197,-487.613 494.138,-448.626 528.549,-414 536.065,-406.436 545.009,-400.648 554.691,-396.251"/>
<polygon fill="black" stroke="black" points="556.197,-399.419 564.179,-392.451 553.594,-392.921 556.197,-399.419"/>
</g>
<!-- StrictCheck -->
<g id="node23" class="node"><title>StrictCheck</title>
<ellipse fill="none" stroke="black" cx="670.437" cy="-711" rx="66.8882" ry="18"/>
<text text-anchor="middle" x="670.437" y="-707.3" font-family="Times,serif" font-size="14.00">StrictCheck</text>
</g>
<!-- Ext&#45;&gt;StrictCheck -->
<g id="edge20" class="edge"><title>Ext&#45;&gt;StrictCheck</title>
<path fill="none" stroke="black" d="M370.354,-563.985C397.812,-592.321 461.811,-653.628 528.549,-684 549.582,-693.572 573.877,-699.752 596.306,-703.742"/>
<polygon fill="black" stroke="black" points="596.024,-707.243 606.462,-705.425 597.169,-700.337 596.024,-707.243"/>
</g>
<!-- SuperGlobal -->
<g id="node6" class="node"><title>SuperGlobal</title>
<ellipse fill="none" stroke="black" cx="95.0475" cy="-549" rx="67.6881" ry="18"/>
<text text-anchor="middle" x="95.0475" y="-545.3" font-family="Times,serif" font-size="14.00">SuperGlobal</text>
</g>
<!-- SuperGlobal&#45;&gt;SingletonEx -->
<g id="edge6" class="edge"><title>SuperGlobal&#45;&gt;SingletonEx</title>
<path fill="none" stroke="black" stroke-dasharray="1,5" d="M116.372,-566.325C175.401,-615.547 353.764,-756.613 528.549,-818 645.016,-858.905 682.503,-831.067 804.325,-851 829.941,-855.191 858.177,-860.936 881.743,-866.049"/>
<polygon fill="black" stroke="black" points="881.018,-869.473 891.536,-868.195 882.517,-862.635 881.018,-869.473"/>
</g>
<!-- StrictModel -->
<g id="node7" class="node"><title>StrictModel</title>
<ellipse fill="none" stroke="black" cx="670.437" cy="-986" rx="66.0889" ry="18"/>
<text text-anchor="middle" x="670.437" y="-982.3" font-family="Times,serif" font-size="14.00">StrictModel</text>
</g>
<!-- StrictModel&#45;&gt;SingletonEx -->
<g id="edge4" class="edge"><title>StrictModel&#45;&gt;SingletonEx</title>
<path fill="none" stroke="black" stroke-dasharray="1,5" d="M730.967,-978.573C754.377,-974.46 781.145,-968.242 804.325,-959 842.482,-943.786 881.893,-917.367 907.098,-898.848"/>
<polygon fill="black" stroke="black" points="909.473,-901.444 915.396,-892.659 905.287,-895.833 909.473,-901.444"/>
</g>
<!-- StrictService -->
<g id="node8" class="node"><title>StrictService</title>
<ellipse fill="none" stroke="black" cx="670.437" cy="-932" rx="71.4873" ry="18"/>
<text text-anchor="middle" x="670.437" y="-928.3" font-family="Times,serif" font-size="14.00">StrictService</text>
</g>
<!-- StrictService&#45;&gt;SingletonEx -->
<g id="edge5" class="edge"><title>StrictService&#45;&gt;SingletonEx</title>
<path fill="none" stroke="black" stroke-dasharray="1,5" d="M726.729,-920.828C750.602,-915.988 778.844,-910.241 804.325,-905 828.949,-899.935 856.189,-894.272 879.322,-889.446"/>
<polygon fill="black" stroke="black" points="880.226,-892.832 889.299,-887.363 878.795,-885.98 880.226,-892.832"/>
</g>
<!-- SessionUsageController -->
<g id="node9" class="node"><title>SessionUsageController</title>
<ellipse fill="none" stroke="black" cx="670.437" cy="-878" rx="122.379" ry="18"/>
<text text-anchor="middle" x="670.437" y="-874.3" font-family="Times,serif" font-size="14.00">SessionUsageController</text>
</g>
<!-- DB_DB -->
<g id="node10" class="node"><title>DB_DB</title>
<ellipse fill="none" stroke="black" cx="934.998" cy="-88" rx="27" ry="18"/>
<text text-anchor="middle" x="934.998" y="-84.3" font-family="Times,serif" font-size="14.00">DB</text>
</g>
<!-- DB_DBAdvance -->
<g id="node11" class="node"><title>DB_DBAdvance</title>
<ellipse fill="none" stroke="black" cx="1133.27" cy="-34" rx="64.9885" ry="18"/>
<text text-anchor="middle" x="1133.27" y="-30.3" font-family="Times,serif" font-size="14.00">DBAdvance</text>
</g>
<!-- DB_DB&#45;&gt;DB_DBAdvance -->
<g id="edge7" class="edge"><title>DB_DB&#45;&gt;DB_DBAdvance</title>
<path fill="none" stroke="black" d="M960.687,-81.5801C981.297,-76.1878 1011.44,-68.227 1037.67,-61 1050.66,-57.4218 1064.63,-53.4849 1077.74,-49.7501"/>
<polygon fill="black" stroke="black" points="1078.91,-53.0553 1087.56,-46.9428 1076.99,-46.3246 1078.91,-53.0553"/>
</g>
<!-- DB_DBInterface -->
<g id="node12" class="node"><title>DB_DBInterface</title>
<ellipse fill="none" stroke="black" cx="1133.27" cy="-88" rx="67.6881" ry="18"/>
<text text-anchor="middle" x="1133.27" y="-84.3" font-family="Times,serif" font-size="14.00">DBInterface</text>
</g>
<!-- DB_DB&#45;&gt;DB_DBInterface -->
<g id="edge8" class="edge"><title>DB_DB&#45;&gt;DB_DBInterface</title>
<path fill="none" stroke="black" d="M962.061,-88C985.875,-88 1022.31,-88 1055.36,-88"/>
<polygon fill="black" stroke="black" points="1055.5,-91.5001 1065.5,-88 1055.5,-84.5001 1055.5,-91.5001"/>
</g>
<!-- DB_MedooDB -->
<g id="node13" class="node"><title>DB_MedooDB</title>
<ellipse fill="none" stroke="black" cx="934.998" cy="-34" rx="56.59" ry="18"/>
<text text-anchor="middle" x="934.998" y="-30.3" font-family="Times,serif" font-size="14.00">MedooDB</text>
</g>
<!-- DB_MedooDB&#45;&gt;DB_DBAdvance -->
<g id="edge9" class="edge"><title>DB_MedooDB&#45;&gt;DB_DBAdvance</title>
<path fill="none" stroke="black" d="M991.715,-34C1012.26,-34 1035.88,-34 1057.82,-34"/>
<polygon fill="black" stroke="black" points="1058.09,-37.5001 1068.09,-34 1058.09,-30.5001 1058.09,-37.5001"/>
</g>
<!-- DBManager&#45;&gt;DB_DB -->
<g id="edge11" class="edge"><title>DBManager&#45;&gt;DB_DB</title>
<path fill="none" stroke="black" d="M714.5,-157.387C766.547,-140.934 853.024,-113.597 900.407,-98.6188"/>
<polygon fill="black" stroke="black" points="901.696,-101.882 910.176,-95.5305 899.586,-95.2075 901.696,-101.882"/>
</g>
<!-- FacadesAutoLoader&#45;&gt;SingletonEx -->
<g id="edge23" class="edge"><title>FacadesAutoLoader&#45;&gt;SingletonEx</title>
<path fill="none" stroke="black" stroke-dasharray="1,5" d="M770.127,-283.812C783.166,-288.498 795.163,-295.56 804.325,-306 879.557,-391.73 782.109,-719.917 840.325,-818 852.015,-837.696 872.977,-852.019 892.112,-861.722"/>
<polygon fill="black" stroke="black" points="890.778,-864.963 901.31,-866.117 893.796,-858.647 890.778,-864.963"/>
</g>
<!-- FacadesBase -->
<g id="node25" class="node"><title>FacadesBase</title>
<ellipse fill="none" stroke="black" cx="934.998" cy="-279" rx="71.4873" ry="18"/>
<text text-anchor="middle" x="934.998" y="-275.3" font-family="Times,serif" font-size="14.00">FacadesBase</text>
</g>
<!-- FacadesAutoLoader&#45;&gt;FacadesBase -->
<g id="edge22" class="edge"><title>FacadesAutoLoader&#45;&gt;FacadesBase</title>
<path fill="none" stroke="black" d="M774.078,-279C800.372,-279 828.277,-279 853.291,-279"/>
<polygon fill="black" stroke="black" points="853.453,-282.5 863.453,-279 853.453,-275.5 853.453,-282.5"/>
</g>
<!-- JsonRpcExtBase -->
<g id="node24" class="node"><title>JsonRpcExtBase</title>
<ellipse fill="none" stroke="black" cx="934.998" cy="-225" rx="87.1846" ry="18"/>
<text text-anchor="middle" x="934.998" y="-221.3" font-family="Times,serif" font-size="14.00">JsonRpcExtBase</text>
</g>
<!-- JsonRpcExt&#45;&gt;JsonRpcExtBase -->
<g id="edge21" class="edge"><title>JsonRpcExt&#45;&gt;JsonRpcExtBase</title>
<path fill="none" stroke="black" d="M735.667,-225C766.211,-225 803.374,-225 837.238,-225"/>
<polygon fill="black" stroke="black" points="837.631,-228.5 847.631,-225 837.631,-221.5 837.631,-228.5"/>
</g>
<!-- Pager&#45;&gt;SingletonEx -->
<g id="edge30" class="edge"><title>Pager&#45;&gt;SingletonEx</title>
<path fill="none" stroke="black" stroke-dasharray="1,5" d="M707.672,-329.479C738.209,-328.707 780.611,-333.201 804.325,-360 871.979,-436.457 787.856,-730.423 840.325,-818 852.182,-837.79 873.369,-852.175 892.597,-861.89"/>
<polygon fill="black" stroke="black" points="891.296,-865.147 901.83,-866.288 894.307,-858.828 891.296,-865.147"/>
</g>
<!-- RouteHookDirectoryMode&#45;&gt;SingletonEx -->
<g id="edge28" class="edge"><title>RouteHookDirectoryMode&#45;&gt;SingletonEx</title>
<path fill="none" stroke="black" stroke-dasharray="1,5" d="M715.675,-781.955C741.641,-792.078 775.008,-805.382 804.325,-818 836.388,-831.8 872.383,-848.558 898.299,-860.852"/>
<polygon fill="black" stroke="black" points="896.832,-864.03 907.365,-865.166 899.839,-857.709 896.832,-864.03"/>
</g>
<!-- RouteHookOneFileMode&#45;&gt;SingletonEx -->
<g id="edge29" class="edge"><title>RouteHookOneFileMode&#45;&gt;SingletonEx</title>
<path fill="none" stroke="black" stroke-dasharray="1,5" d="M776.738,-666.588C786.884,-670.839 796.348,-676.503 804.325,-684 849.261,-726.233 803.905,-768.236 840.325,-818 854.146,-836.885 875.869,-851.334 894.918,-861.317"/>
<polygon fill="black" stroke="black" points="893.498,-864.52 904.008,-865.858 896.627,-858.258 893.498,-864.52"/>
</g>
<!-- RouteHookRewrite&#45;&gt;SingletonEx -->
<g id="edge24" class="edge"><title>RouteHookRewrite&#45;&gt;SingletonEx</title>
<path fill="none" stroke="black" stroke-dasharray="1,5" d="M766.738,-553.551C780.886,-558.14 794.118,-565.239 804.325,-576 879.16,-654.892 781.244,-726.711 840.325,-818 852.859,-837.368 874.092,-851.724 893.176,-861.53"/>
<polygon fill="black" stroke="black" points="891.8,-864.753 902.324,-865.98 894.862,-858.458 891.8,-864.753"/>
</g>
<!-- RouteHookRouteMap&#45;&gt;SingletonEx -->
<g id="edge25" class="edge"><title>RouteHookRouteMap&#45;&gt;SingletonEx</title>
<path fill="none" stroke="black" stroke-dasharray="1,5" d="M774.233,-393.593C785.638,-398.217 796.086,-404.787 804.325,-414 864.406,-481.189 793.599,-740.924 840.325,-818 852.285,-837.728 873.478,-852.109 892.685,-861.837"/>
<polygon fill="black" stroke="black" points="891.373,-865.089 901.905,-866.243 894.391,-858.773 891.373,-865.089"/>
</g>
<!-- Lazybones -->
<g id="node26" class="node"><title>Lazybones</title>
<ellipse fill="none" stroke="black" cx="670.437" cy="-495" rx="59.5901" ry="18"/>
<text text-anchor="middle" x="670.437" y="-491.3" font-family="Times,serif" font-size="14.00">Lazybones</text>
</g>
<!-- Lazybones&#45;&gt;SingletonEx -->
<g id="edge26" class="edge"><title>Lazybones&#45;&gt;SingletonEx</title>
<path fill="none" stroke="black" stroke-dasharray="1,5" d="M729.896,-492.339C756.273,-494.387 785.637,-501.765 804.325,-522 894.24,-619.356 769.81,-705.793 840.325,-818 852.6,-837.533 873.815,-851.901 892.954,-861.671"/>
<polygon fill="black" stroke="black" points="891.608,-864.907 902.135,-866.1 894.649,-858.603 891.608,-864.907"/>
</g>
<!-- Oldbones -->
<g id="node27" class="node"><title>Oldbones</title>
<ellipse fill="none" stroke="black" cx="670.437" cy="-441" rx="53.8905" ry="18"/>
<text text-anchor="middle" x="670.437" y="-437.3" font-family="Times,serif" font-size="14.00">Oldbones</text>
</g>
<!-- Oldbones&#45;&gt;SingletonEx -->
<g id="edge27" class="edge"><title>Oldbones&#45;&gt;SingletonEx</title>
<path fill="none" stroke="black" stroke-dasharray="1,5" d="M723.694,-437.799C751.641,-439.085 784.323,-445.936 804.325,-468 856.839,-525.928 799.337,-751.417 840.325,-818 852.419,-837.646 873.622,-852.021 892.799,-861.767"/>
<polygon fill="black" stroke="black" points="891.473,-865.013 902.003,-866.183 894.501,-858.701 891.473,-865.013"/>
</g>
</g>
</svg>
