<?xml version="1.0" encoding="UTF-8" standalone="no"?>
<!DOCTYPE svg PUBLIC "-//W3C//DTD SVG 1.1//EN"
 "http://www.w3.org/Graphics/SVG/1.1/DTD/svg11.dtd">
<!-- Generated by graphviz version 2.38.0 (20140413.2041)
 -->
<!-- Title: gDuckPhp Pages: 1 -->
<svg width="1471pt" height="1730pt"
 viewBox="0.00 0.00 1471.00 1730.00" xmlns="http://www.w3.org/2000/svg" xmlns:xlink="http://www.w3.org/1999/xlink">
<g id="graph0" class="graph" transform="scale(1 1) rotate(0) translate(4 1726)">
<title>gDuckPhp</title>
<polygon fill="white" stroke="none" points="-4,4 -4,-1726 1467,-1726 1467,4 -4,4"/>
<g id="clust1" class="cluster"><title>cluster_SingletonEx</title>
<polygon fill="none" stroke="black" points="31.8981,-600 31.8981,-729 200.478,-729 200.478,-600 31.8981,-600"/>
<text text-anchor="middle" x="116.188" y="-713.8" font-family="Times,serif" font-size="14.00">[DuckPhp\SingletonEx]</text>
</g>
<g id="clust2" class="cluster"><title>cluster_Core</title>
<polygon fill="none" stroke="black" points="427.441,-1229 427.441,-1714 1420.65,-1714 1420.65,-1229 427.441,-1229"/>
<text text-anchor="middle" x="924.046" y="-1698.8" font-family="Times,serif" font-size="14.00">[DuckPhp\Core]</text>
</g>
<g id="clust3" class="cluster"><title>cluster_Helper</title>
<polygon fill="none" stroke="black" points="8,-1323 8,-1614 407.441,-1614 407.441,-1323 8,-1323"/>
<text text-anchor="middle" x="207.721" y="-1598.8" font-family="Times,serif" font-size="14.00">[DuckPhp\Helper]</text>
</g>
<g id="clust4" class="cluster"><title>cluster_Db</title>
<polygon fill="none" stroke="black" points="1106.11,-498 1106.11,-627 1455,-627 1455,-498 1106.11,-498"/>
<text text-anchor="middle" x="1280.56" y="-611.8" font-family="Times,serif" font-size="14.00">[DuckPhp\Db]</text>
</g>
<g id="clust5" class="cluster"><title>cluster_HttpServer</title>
<polygon fill="none" stroke="black" points="1066.59,-8 1066.59,-83 1222.3,-83 1222.3,-8 1066.59,-8"/>
<text text-anchor="middle" x="1144.45" y="-67.8" font-family="Times,serif" font-size="14.00">[DuckPhp\HttpServer]</text>
</g>
<g id="clust6" class="cluster"><title>cluster_DefaultExt</title>
<polygon fill="none" stroke="black" points="861.589,-91 861.589,-490 1199.95,-490 1199.95,-91 861.589,-91"/>
<text text-anchor="middle" x="1030.77" y="-474.8" font-family="Times,serif" font-size="14.00">[DuckPhp\Ext]</text>
</g>
<g id="clust7" class="cluster"><title>cluster_Ext</title>
<polygon fill="none" stroke="black" points="599.782,-498 599.782,-1221 1024.59,-1221 1024.59,-498 599.782,-498"/>
<text text-anchor="middle" x="812.186" y="-1205.8" font-family="Times,serif" font-size="14.00">[DuckPhp\Ext]</text>
</g>
<g id="clust8" class="cluster"><title>cluster_DuckPhp</title>
<polygon fill="none" stroke="black" points="256.325,-284 256.325,-359 395.492,-359 395.492,-284 256.325,-284"/>
<text text-anchor="middle" x="325.909" y="-343.8" font-family="Times,serif" font-size="14.00">[DuckPhp]</text>
</g>
<g id="clust9" class="cluster"><title>cluster_ThrowOn</title>
<polygon fill="none" stroke="black" points="44.7663,-1633 44.7663,-1708 187.61,-1708 187.61,-1633 44.7663,-1633"/>
<text text-anchor="middle" x="116.188" y="-1692.8" font-family="Times,serif" font-size="14.00">[DuckPhp\ThrowOn]</text>
</g>
<!-- SingletonEx -->
<g id="node1" class="node"><title>SingletonEx</title>
<polygon fill="lightgrey" stroke="black" points="116.188,-698 40.1075,-680 116.188,-662 192.269,-680 116.188,-698"/>
<polyline fill="none" stroke="black" points="51.7851,-682.763 51.7851,-677.237 "/>
<polyline fill="none" stroke="black" points="104.511,-664.763 127.866,-664.763 "/>
<polyline fill="none" stroke="black" points="180.591,-677.237 180.591,-682.763 "/>
<polyline fill="none" stroke="black" points="127.866,-695.237 104.511,-695.237 "/>
<text text-anchor="middle" x="116.188" y="-676.3" font-family="Times,serif" font-size="14.00">SingletonEx</text>
</g>
<!-- SimpleReplacer -->
<g id="node2" class="node"><title>SimpleReplacer</title>
<ellipse fill="none" stroke="black" cx="116.188" cy="-626" rx="67.6881" ry="18"/>
<text text-anchor="middle" x="116.188" y="-622.3" font-family="Times,serif" font-size="14.00">SimpleReplacer</text>
</g>
<!-- Core_AppPluginTrait -->
<g id="node3" class="node"><title>Core_AppPluginTrait</title>
<polygon fill="none" stroke="black" points="689.282,-1333 596.612,-1315 689.282,-1297 781.952,-1315 689.282,-1333"/>
<text text-anchor="middle" x="689.282" y="-1311.3" font-family="Times,serif" font-size="14.00">AppPluginTrait</text>
</g>
<!-- Core_View -->
<g id="node8" class="node"><title>Core_View</title>
<polygon fill="none" stroke="black" points="981.089,-1273 927.089,-1273 927.089,-1269 923.089,-1269 923.089,-1265 927.089,-1265 927.089,-1245 923.089,-1245 923.089,-1241 927.089,-1241 927.089,-1237 981.089,-1237 981.089,-1273"/>
<polyline fill="none" stroke="black" points="927.089,-1269 931.089,-1269 931.089,-1265 927.089,-1265 "/>
<polyline fill="none" stroke="black" points="927.089,-1245 931.089,-1245 931.089,-1241 927.089,-1241 "/>
<text text-anchor="middle" x="954.089" y="-1251.3" font-family="Times,serif" font-size="14.00">View</text>
</g>
<!-- Core_AppPluginTrait&#45;&gt;Core_View -->
<g id="edge20" class="edge"><title>Core_AppPluginTrait&#45;&gt;Core_View</title>
<path fill="none" stroke="black" d="M732.506,-1305.36C783.604,-1293.69 868.765,-1274.25 916.958,-1263.25"/>
<polygon fill="black" stroke="black" points="917.971,-1266.61 926.941,-1260.97 916.413,-1259.78 917.971,-1266.61"/>
</g>
<!-- Core_Configer -->
<g id="node9" class="node"><title>Core_Configer</title>
<polygon fill="none" stroke="black" points="986.589,-1435 921.589,-1435 921.589,-1431 917.589,-1431 917.589,-1427 921.589,-1427 921.589,-1407 917.589,-1407 917.589,-1403 921.589,-1403 921.589,-1399 986.589,-1399 986.589,-1435"/>
<polyline fill="none" stroke="black" points="921.589,-1431 925.589,-1431 925.589,-1427 921.589,-1427 "/>
<polyline fill="none" stroke="black" points="921.589,-1407 925.589,-1407 925.589,-1403 921.589,-1403 "/>
<text text-anchor="middle" x="954.089" y="-1413.3" font-family="Times,serif" font-size="14.00">Configer</text>
</g>
<!-- Core_AppPluginTrait&#45;&gt;Core_Configer -->
<g id="edge19" class="edge"><title>Core_AppPluginTrait&#45;&gt;Core_Configer</title>
<path fill="none" stroke="black" d="M768.678,-1317.64C791.215,-1321.47 814.765,-1328.72 833.589,-1342 853.769,-1356.24 842.152,-1374.76 861.589,-1390 875.73,-1401.08 894.318,-1407.62 911.044,-1411.48"/>
<polygon fill="black" stroke="black" points="910.663,-1414.97 921.161,-1413.55 912.066,-1408.11 910.663,-1414.97"/>
</g>
<!-- Core_Route -->
<g id="node11" class="node"><title>Core_Route</title>
<polygon fill="lightgrey" stroke="black" points="954.089,-1381 909.012,-1363 954.089,-1345 999.167,-1363 954.089,-1381"/>
<polyline fill="none" stroke="black" points="920.156,-1367.45 920.156,-1358.55 "/>
<polyline fill="none" stroke="black" points="942.945,-1349.45 965.234,-1349.45 "/>
<polyline fill="none" stroke="black" points="988.022,-1358.55 988.022,-1367.45 "/>
<polyline fill="none" stroke="black" points="965.234,-1376.55 942.945,-1376.55 "/>
<text text-anchor="middle" x="954.089" y="-1359.3" font-family="Times,serif" font-size="14.00">Route</text>
</g>
<!-- Core_AppPluginTrait&#45;&gt;Core_Route -->
<g id="edge21" class="edge"><title>Core_AppPluginTrait&#45;&gt;Core_Route</title>
<path fill="none" stroke="black" d="M737.57,-1323.64C787.547,-1332.76 865.531,-1347.01 912.719,-1355.63"/>
<polygon fill="black" stroke="black" points="912.119,-1359.07 922.585,-1357.43 913.377,-1352.19 912.119,-1359.07"/>
</g>
<!-- Core_App -->
<g id="node4" class="node"><title>Core_App</title>
<polygon fill="lightgrey" stroke="black" points="472.208,-1454 435.674,-1436 472.208,-1418 508.742,-1436 472.208,-1454"/>
<polyline fill="none" stroke="black" points="446.438,-1441.3 446.438,-1430.7 "/>
<polyline fill="none" stroke="black" points="461.443,-1423.3 482.972,-1423.3 "/>
<polyline fill="none" stroke="black" points="497.977,-1430.7 497.977,-1441.3 "/>
<polyline fill="none" stroke="black" points="482.972,-1448.7 461.443,-1448.7 "/>
<text text-anchor="middle" x="472.208" y="-1432.3" font-family="Times,serif" font-size="14.00">App</text>
</g>
<!-- Core_Kernel -->
<g id="node5" class="node"><title>Core_Kernel</title>
<polygon fill="none" stroke="black" points="689.282,-1387 640.35,-1369 689.282,-1351 738.213,-1369 689.282,-1387"/>
<text text-anchor="middle" x="689.282" y="-1365.3" font-family="Times,serif" font-size="14.00">Kernel</text>
</g>
<!-- Core_App&#45;&gt;Core_Kernel -->
<g id="edge7" class="edge"><title>Core_App&#45;&gt;Core_Kernel</title>
<path fill="none" stroke="black" d="M489.837,-1426.5C504.083,-1418.71 525.348,-1407.87 544.974,-1401 577.439,-1389.64 615.493,-1381.36 644.225,-1376.08"/>
<polygon fill="black" stroke="black" points="645.133,-1379.47 654.361,-1374.26 643.901,-1372.58 645.133,-1379.47"/>
</g>
<!-- Core_AutoLoader -->
<g id="node6" class="node"><title>Core_AutoLoader</title>
<polygon fill="lightgrey" stroke="black" points="954.089,-1543 878.847,-1525 954.089,-1507 1029.33,-1525 954.089,-1543"/>
<polyline fill="none" stroke="black" points="890.518,-1527.79 890.518,-1522.21 "/>
<polyline fill="none" stroke="black" points="942.419,-1509.79 965.76,-1509.79 "/>
<polyline fill="none" stroke="black" points="1017.66,-1522.21 1017.66,-1527.79 "/>
<polyline fill="none" stroke="black" points="965.76,-1540.21 942.419,-1540.21 "/>
<text text-anchor="middle" x="954.089" y="-1521.3" font-family="Times,serif" font-size="14.00">AutoLoader</text>
</g>
<!-- Core_App&#45;&gt;Core_AutoLoader -->
<g id="edge10" class="edge"><title>Core_App&#45;&gt;Core_AutoLoader</title>
<path fill="none" stroke="black" stroke-dasharray="5,2" d="M504.286,-1438.29C516.909,-1439.18 531.635,-1440.19 544.974,-1441 577.026,-1442.95 805.68,-1440.12 833.589,-1456 853.088,-1467.1 843.526,-1484.69 861.589,-1498 872.216,-1505.83 885.093,-1511.4 897.789,-1515.36"/>
<polygon fill="black" stroke="black" points="896.848,-1518.73 907.423,-1518.08 898.753,-1511.99 896.848,-1518.73"/>
</g>
<!-- Core_ExceptionManager -->
<g id="node7" class="node"><title>Core_ExceptionManager</title>
<polygon fill="none" stroke="black" points="1014.09,-1489 894.089,-1489 894.089,-1485 890.089,-1485 890.089,-1481 894.089,-1481 894.089,-1461 890.089,-1461 890.089,-1457 894.089,-1457 894.089,-1453 1014.09,-1453 1014.09,-1489"/>
<polyline fill="none" stroke="black" points="894.089,-1485 898.089,-1485 898.089,-1481 894.089,-1481 "/>
<polyline fill="none" stroke="black" points="894.089,-1461 898.089,-1461 898.089,-1457 894.089,-1457 "/>
<text text-anchor="middle" x="954.089" y="-1467.3" font-family="Times,serif" font-size="14.00">ExceptionManager</text>
</g>
<!-- Core_App&#45;&gt;Core_ExceptionManager -->
<g id="edge13" class="edge"><title>Core_App&#45;&gt;Core_ExceptionManager</title>
<path fill="none" stroke="black" stroke-dasharray="5,2" d="M504.717,-1434C567.58,-1430.54 712.912,-1425.23 833.589,-1441 850.1,-1443.16 867.619,-1446.78 884.006,-1450.77"/>
<polygon fill="black" stroke="black" points="883.493,-1454.25 894.045,-1453.29 885.2,-1447.46 883.493,-1454.25"/>
</g>
<!-- Core_App&#45;&gt;Core_View -->
<g id="edge16" class="edge"><title>Core_App&#45;&gt;Core_View</title>
<path fill="none" stroke="black" stroke-dasharray="5,2" d="M473.78,-1418.73C476.096,-1380.37 487.659,-1288.39 544.974,-1249 604.527,-1208.07 828.24,-1236.17 916.733,-1249.28"/>
<polygon fill="black" stroke="black" points="916.426,-1252.78 926.835,-1250.8 917.467,-1245.85 916.426,-1252.78"/>
</g>
<!-- Core_App&#45;&gt;Core_Configer -->
<g id="edge11" class="edge"><title>Core_App&#45;&gt;Core_Configer</title>
<path fill="none" stroke="black" stroke-dasharray="5,2" d="M496.618,-1429.89C510.554,-1426.56 528.65,-1422.77 544.974,-1421 678.084,-1406.58 837.039,-1411.27 911.167,-1414.71"/>
<polygon fill="black" stroke="black" points="911.318,-1418.22 921.475,-1415.21 911.655,-1411.23 911.318,-1418.22"/>
</g>
<!-- Core_Logger -->
<g id="node10" class="node"><title>Core_Logger</title>
<polygon fill="none" stroke="black" points="717.282,-1629 661.282,-1629 661.282,-1625 657.282,-1625 657.282,-1621 661.282,-1621 661.282,-1601 657.282,-1601 657.282,-1597 661.282,-1597 661.282,-1593 717.282,-1593 717.282,-1629"/>
<polyline fill="none" stroke="black" points="661.282,-1625 665.282,-1625 665.282,-1621 661.282,-1621 "/>
<polyline fill="none" stroke="black" points="661.282,-1601 665.282,-1601 665.282,-1597 661.282,-1597 "/>
<text text-anchor="middle" x="689.282" y="-1607.3" font-family="Times,serif" font-size="14.00">Logger</text>
</g>
<!-- Core_App&#45;&gt;Core_Logger -->
<g id="edge12" class="edge"><title>Core_App&#45;&gt;Core_Logger</title>
<path fill="none" stroke="black" stroke-dasharray="5,2" d="M476.153,-1452.4C482.635,-1483.4 501.192,-1550.53 544.974,-1584 575.331,-1607.21 619.709,-1612.44 651.021,-1612.82"/>
<polygon fill="black" stroke="black" points="651.113,-1616.32 661.1,-1612.78 651.087,-1609.32 651.113,-1616.32"/>
</g>
<!-- Core_App&#45;&gt;Core_Route -->
<g id="edge14" class="edge"><title>Core_App&#45;&gt;Core_Route</title>
<path fill="none" stroke="black" stroke-dasharray="5,2" d="M475.536,-1419.34C481.02,-1387.24 498.027,-1317.41 544.974,-1288 599.326,-1253.95 777.974,-1256.06 833.589,-1288 855.006,-1300.3 842.152,-1320.76 861.589,-1336 875.083,-1346.58 892.625,-1353.01 908.735,-1356.93"/>
<polygon fill="black" stroke="black" points="908.016,-1360.36 918.531,-1359.06 909.502,-1353.52 908.016,-1360.36"/>
</g>
<!-- Core_RuntimeState -->
<g id="node12" class="node"><title>Core_RuntimeState</title>
<polygon fill="none" stroke="black" points="999.589,-1327 908.589,-1327 908.589,-1323 904.589,-1323 904.589,-1319 908.589,-1319 908.589,-1299 904.589,-1299 904.589,-1295 908.589,-1295 908.589,-1291 999.589,-1291 999.589,-1327"/>
<polyline fill="none" stroke="black" points="908.589,-1323 912.589,-1323 912.589,-1319 908.589,-1319 "/>
<polyline fill="none" stroke="black" points="908.589,-1299 912.589,-1299 912.589,-1295 908.589,-1295 "/>
<text text-anchor="middle" x="954.089" y="-1305.3" font-family="Times,serif" font-size="14.00">RuntimeState</text>
</g>
<!-- Core_App&#45;&gt;Core_RuntimeState -->
<g id="edge15" class="edge"><title>Core_App&#45;&gt;Core_RuntimeState</title>
<path fill="none" stroke="black" stroke-dasharray="5,2" d="M474.345,-1418.89C477.782,-1382.69 491.432,-1298.75 544.974,-1263 571.643,-1245.19 802.935,-1253.58 833.589,-1263 847.965,-1267.42 847.993,-1275.57 861.589,-1282 873.168,-1287.47 886.101,-1292.1 898.513,-1295.9"/>
<polygon fill="black" stroke="black" points="897.739,-1299.32 908.319,-1298.77 899.703,-1292.6 897.739,-1299.32"/>
</g>
<!-- Core_SystemWrapperTrait -->
<g id="node13" class="node"><title>Core_SystemWrapperTrait</title>
<polygon fill="none" stroke="black" points="689.282,-1501 568.962,-1483 689.282,-1465 809.601,-1483 689.282,-1501"/>
<text text-anchor="middle" x="689.282" y="-1479.3" font-family="Times,serif" font-size="14.00">SystemWrapperTrait</text>
</g>
<!-- Core_App&#45;&gt;Core_SystemWrapperTrait -->
<g id="edge9" class="edge"><title>Core_App&#45;&gt;Core_SystemWrapperTrait</title>
<path fill="none" stroke="black" d="M497.879,-1441.39C529.817,-1448.37 586.498,-1460.76 629.737,-1470.21"/>
<polygon fill="black" stroke="black" points="629.062,-1473.64 639.579,-1472.36 630.557,-1466.8 629.062,-1473.64"/>
</g>
<!-- Core_ExtendableStaticCallTrait -->
<g id="node14" class="node"><title>Core_ExtendableStaticCallTrait</title>
<polygon fill="none" stroke="black" points="689.282,-1683 545.166,-1665 689.282,-1647 833.397,-1665 689.282,-1683"/>
<text text-anchor="middle" x="689.282" y="-1661.3" font-family="Times,serif" font-size="14.00">ExtendableStaticCallTrait</text>
</g>
<!-- Core_App&#45;&gt;Core_ExtendableStaticCallTrait -->
<g id="edge8" class="edge"><title>Core_App&#45;&gt;Core_ExtendableStaticCallTrait</title>
<path fill="none" stroke="black" d="M473.852,-1453.23C476.31,-1492.57 488.138,-1589.36 544.974,-1638 554.46,-1646.12 565.61,-1652.11 577.43,-1656.49"/>
<polygon fill="black" stroke="black" points="576.441,-1659.85 587.035,-1659.68 578.642,-1653.21 576.441,-1659.85"/>
</g>
<!-- Core_ComponentBase -->
<g id="node16" class="node"><title>Core_ComponentBase</title>
<polygon fill="none" stroke="black" points="1197.95,-1273 1094.95,-1273 1090.95,-1269 1090.95,-1237 1193.95,-1237 1197.95,-1241 1197.95,-1273"/>
<polyline fill="none" stroke="black" points="1193.95,-1269 1090.95,-1269 "/>
<polyline fill="none" stroke="black" points="1193.95,-1269 1193.95,-1237 "/>
<polyline fill="none" stroke="black" points="1193.95,-1269 1197.95,-1273 "/>
<text text-anchor="middle" x="1144.45" y="-1251.3" font-family="Times,serif" font-size="14.00">ComponentBase</text>
</g>
<!-- Core_App&#45;&gt;Core_ComponentBase -->
<g id="edge18" class="edge"><title>Core_App&#45;&gt;Core_ComponentBase</title>
<path fill="none" stroke="black" stroke-dasharray="1,5" d="M481.685,-1449.57C493.464,-1467.07 516.571,-1496.8 544.974,-1510 661.583,-1564.18 713.597,-1483.79 833.589,-1530 848.358,-1535.69 846.633,-1546.83 861.589,-1552 898.762,-1564.86 1006.48,-1574.72 1038.59,-1552 1127.45,-1489.14 1141.52,-1344.48 1143.38,-1283.22"/>
<polygon fill="black" stroke="black" points="1146.88,-1283.2 1143.6,-1273.13 1139.88,-1283.05 1146.88,-1283.2"/>
</g>
<!-- Core_Functions -->
<g id="node17" class="node"><title>Core_Functions</title>
<ellipse fill="none" stroke="black" cx="689.282" cy="-1557" rx="45.4919" ry="18"/>
<text text-anchor="middle" x="689.282" y="-1553.3" font-family="Times,serif" font-size="14.00">Functions</text>
</g>
<!-- Core_App&#45;&gt;Core_Functions -->
<g id="edge17" class="edge"><title>Core_App&#45;&gt;Core_Functions</title>
<path fill="none" stroke="black" stroke-dasharray="5,2" d="M480.589,-1450.22C491.732,-1470.21 514.795,-1506.25 544.974,-1525 571.588,-1541.54 605.679,-1549.57 633.933,-1553.45"/>
<polygon fill="black" stroke="black" points="633.7,-1556.95 644.054,-1554.7 634.559,-1550 633.7,-1556.95"/>
</g>
<!-- Core_Kernel&#45;&gt;Core_AutoLoader -->
<g id="edge1" class="edge"><title>Core_Kernel&#45;&gt;Core_AutoLoader</title>
<path fill="none" stroke="black" d="M717.488,-1376.81C748.928,-1387.03 800.564,-1407.68 833.589,-1441 853.458,-1461.05 840.012,-1479.8 861.589,-1498 871.281,-1506.17 883.356,-1511.87 895.524,-1515.85"/>
<polygon fill="black" stroke="black" points="894.678,-1519.24 905.258,-1518.68 896.633,-1512.52 894.678,-1519.24"/>
</g>
<!-- Core_Kernel&#45;&gt;Core_ExceptionManager -->
<g id="edge3" class="edge"><title>Core_Kernel&#45;&gt;Core_ExceptionManager</title>
<path fill="none" stroke="black" d="M718.713,-1376.22C748.55,-1384.5 796.22,-1399.71 833.589,-1421 847.582,-1428.97 847.359,-1436.46 861.589,-1444 868.664,-1447.75 876.33,-1451.05 884.112,-1453.93"/>
<polygon fill="black" stroke="black" points="883.034,-1457.26 893.628,-1457.24 885.333,-1450.64 883.034,-1457.26"/>
</g>
<!-- Core_Kernel&#45;&gt;Core_View -->
<g id="edge6" class="edge"><title>Core_Kernel&#45;&gt;Core_View</title>
<path fill="none" stroke="black" d="M733.333,-1370.82C764.206,-1369.94 805.193,-1364.05 833.589,-1342 856.833,-1323.95 839.283,-1301.19 861.589,-1282 876.983,-1268.75 898.622,-1262 916.992,-1258.56"/>
<polygon fill="black" stroke="black" points="917.764,-1261.98 927.079,-1256.93 916.649,-1255.07 917.764,-1261.98"/>
</g>
<!-- Core_Kernel&#45;&gt;Core_Configer -->
<g id="edge2" class="edge"><title>Core_Kernel&#45;&gt;Core_Configer</title>
<path fill="none" stroke="black" d="M722.507,-1374.89C770.051,-1383.57 859.01,-1399.82 911.444,-1409.39"/>
<polygon fill="black" stroke="black" points="910.955,-1412.86 921.421,-1411.22 912.213,-1405.98 910.955,-1412.86"/>
</g>
<!-- Core_Kernel&#45;&gt;Core_Route -->
<g id="edge4" class="edge"><title>Core_Kernel&#45;&gt;Core_Route</title>
<path fill="none" stroke="black" d="M735.46,-1367.97C781.4,-1366.92 852.515,-1365.3 900.849,-1364.19"/>
<polygon fill="black" stroke="black" points="901.184,-1367.69 911.102,-1363.96 901.024,-1360.69 901.184,-1367.69"/>
</g>
<!-- Core_Kernel&#45;&gt;Core_RuntimeState -->
<g id="edge5" class="edge"><title>Core_Kernel&#45;&gt;Core_RuntimeState</title>
<path fill="none" stroke="black" d="M723.458,-1363.56C752.609,-1358.58 796.101,-1350.69 833.589,-1342 855.031,-1337.03 878.412,-1330.76 898.761,-1325.03"/>
<polygon fill="black" stroke="black" points="899.823,-1328.37 908.485,-1322.27 897.909,-1321.63 899.823,-1328.37"/>
</g>
<!-- Core_ExceptionManager&#45;&gt;Core_ComponentBase -->
<g id="edge22" class="edge"><title>Core_ExceptionManager&#45;&gt;Core_ComponentBase</title>
<path fill="none" stroke="black" stroke-dasharray="1,5" d="M1014.13,-1458.15C1022.92,-1454.53 1031.41,-1449.91 1038.59,-1444 1091.21,-1400.7 1121.94,-1323.72 1135.36,-1282.63"/>
<polygon fill="black" stroke="black" points="1138.73,-1283.59 1138.4,-1273 1132.05,-1281.49 1138.73,-1283.59"/>
</g>
<!-- Core_View&#45;&gt;Core_ComponentBase -->
<g id="edge26" class="edge"><title>Core_View&#45;&gt;Core_ComponentBase</title>
<path fill="none" stroke="black" stroke-dasharray="1,5" d="M981.279,-1255C1006.84,-1255 1046.7,-1255 1080.51,-1255"/>
<polygon fill="black" stroke="black" points="1080.78,-1258.5 1090.78,-1255 1080.78,-1251.5 1080.78,-1258.5"/>
</g>
<!-- Core_Configer&#45;&gt;Core_ComponentBase -->
<g id="edge23" class="edge"><title>Core_Configer&#45;&gt;Core_ComponentBase</title>
<path fill="none" stroke="black" stroke-dasharray="1,5" d="M986.861,-1411.42C1003.37,-1407.41 1023.25,-1400.76 1038.59,-1390 1079.33,-1361.43 1111.68,-1312.38 1129.16,-1281.93"/>
<polygon fill="black" stroke="black" points="1132.26,-1283.55 1134.1,-1273.12 1126.15,-1280.13 1132.26,-1283.55"/>
</g>
<!-- Core_Logger&#45;&gt;Core_ComponentBase -->
<g id="edge27" class="edge"><title>Core_Logger&#45;&gt;Core_ComponentBase</title>
<path fill="none" stroke="black" stroke-dasharray="1,5" d="M717.521,-1616.36C781.539,-1627.3 943.33,-1645 1038.59,-1567 1126.8,-1494.77 1141.21,-1345.61 1143.27,-1283.31"/>
<polygon fill="black" stroke="black" points="1146.77,-1283.15 1143.52,-1273.06 1139.77,-1282.98 1146.77,-1283.15"/>
</g>
<!-- Core_Route&#45;&gt;Core_ComponentBase -->
<g id="edge24" class="edge"><title>Core_Route&#45;&gt;Core_ComponentBase</title>
<path fill="none" stroke="black" stroke-dasharray="1,5" d="M983.128,-1356.53C999.811,-1352.06 1021.07,-1345.24 1038.59,-1336 1067.51,-1320.75 1096.64,-1297.47 1116.83,-1279.77"/>
<polygon fill="black" stroke="black" points="1119.24,-1282.31 1124.38,-1273.05 1114.58,-1277.08 1119.24,-1282.31"/>
</g>
<!-- Core_RuntimeState&#45;&gt;Core_ComponentBase -->
<g id="edge25" class="edge"><title>Core_RuntimeState&#45;&gt;Core_ComponentBase</title>
<path fill="none" stroke="black" stroke-dasharray="1,5" d="M999.727,-1296.2C1024.05,-1289.23 1054.53,-1280.49 1081.15,-1272.86"/>
<polygon fill="black" stroke="black" points="1082.12,-1276.22 1090.77,-1270.1 1080.19,-1269.49 1082.12,-1276.22"/>
</g>
<!-- Core_ComponentInterface -->
<g id="node15" class="node"><title>Core_ComponentInterface</title>
<polygon fill="none" stroke="black" points="1406.65,-1273 1284.65,-1273 1284.65,-1237 1412.65,-1237 1412.65,-1267 1406.65,-1273"/>
<polyline fill="none" stroke="black" points="1406.65,-1273 1406.65,-1267 "/>
<polyline fill="none" stroke="black" points="1412.65,-1267 1406.65,-1267 "/>
<text text-anchor="middle" x="1348.65" y="-1251.3" font-family="Times,serif" font-size="14.00">ComponentInterface</text>
</g>
<!-- Core_ComponentBase&#45;&gt;Core_ComponentInterface -->
<g id="edge28" class="edge"><title>Core_ComponentBase&#45;&gt;Core_ComponentInterface</title>
<path fill="none" stroke="black" d="M1198.04,-1255C1221.29,-1255 1249.01,-1255 1274.25,-1255"/>
<polygon fill="black" stroke="black" points="1274.51,-1258.5 1284.51,-1255 1274.51,-1251.5 1274.51,-1258.5"/>
</g>
<!-- AppHelper -->
<g id="node18" class="node"><title>AppHelper</title>
<polygon fill="lightgrey" stroke="black" points="116.188,-1529 45.6372,-1511 116.188,-1493 186.739,-1511 116.188,-1529"/>
<polyline fill="none" stroke="black" points="57.2647,-1513.97 57.2647,-1508.03 "/>
<polyline fill="none" stroke="black" points="104.561,-1495.97 127.816,-1495.97 "/>
<polyline fill="none" stroke="black" points="175.112,-1508.03 175.112,-1513.97 "/>
<polyline fill="none" stroke="black" points="127.816,-1526.03 104.561,-1526.03 "/>
<text text-anchor="middle" x="116.188" y="-1507.3" font-family="Times,serif" font-size="14.00">AppHelper</text>
</g>
<!-- AppHelper&#45;&gt;Core_App -->
<g id="edge29" class="edge"><title>AppHelper&#45;&gt;Core_App</title>
<path fill="none" stroke="black" d="M163.969,-1505.1C221.783,-1497.24 322.882,-1481.65 407.441,-1459 419.017,-1455.9 431.473,-1451.63 442.277,-1447.6"/>
<polygon fill="black" stroke="black" points="443.568,-1450.86 451.663,-1444.02 441.072,-1444.32 443.568,-1450.86"/>
</g>
<!-- HelperTrait -->
<g id="node23" class="node"><title>HelperTrait</title>
<polygon fill="none" stroke="black" points="325.909,-1576 252.344,-1558 325.909,-1540 399.474,-1558 325.909,-1576"/>
<text text-anchor="middle" x="325.909" y="-1554.3" font-family="Times,serif" font-size="14.00">HelperTrait</text>
</g>
<!-- AppHelper&#45;&gt;HelperTrait -->
<g id="edge36" class="edge"><title>AppHelper&#45;&gt;HelperTrait</title>
<path fill="none" stroke="black" d="M154.324,-1519.4C188.564,-1527.15 239.583,-1538.69 276.904,-1547.14"/>
<polygon fill="black" stroke="black" points="276.516,-1550.64 287.042,-1549.43 278.061,-1543.81 276.516,-1550.64"/>
</g>
<!-- ControllerHelper -->
<g id="node19" class="node"><title>ControllerHelper</title>
<polygon fill="lightgrey" stroke="black" points="116.188,-1475 15.8115,-1457 116.188,-1439 216.565,-1457 116.188,-1475"/>
<polyline fill="none" stroke="black" points="27.6231,-1459.12 27.6231,-1454.88 "/>
<polyline fill="none" stroke="black" points="104.377,-1441.12 128,-1441.12 "/>
<polyline fill="none" stroke="black" points="204.753,-1454.88 204.753,-1459.12 "/>
<polyline fill="none" stroke="black" points="128,-1472.88 104.377,-1472.88 "/>
<text text-anchor="middle" x="116.188" y="-1453.3" font-family="Times,serif" font-size="14.00">ControllerHelper</text>
</g>
<!-- ControllerHelper&#45;&gt;Core_App -->
<g id="edge30" class="edge"><title>ControllerHelper&#45;&gt;Core_App</title>
<path fill="none" stroke="black" d="M192.267,-1452.55C264.302,-1448.27 370.502,-1441.97 428.889,-1438.51"/>
<polygon fill="black" stroke="black" points="429.44,-1441.98 439.215,-1437.9 429.026,-1435 429.44,-1441.98"/>
</g>
<!-- ControllerHelper&#45;&gt;HelperTrait -->
<g id="edge37" class="edge"><title>ControllerHelper&#45;&gt;HelperTrait</title>
<path fill="none" stroke="black" d="M164.24,-1466.41C181.116,-1470.66 200.008,-1476.45 216.376,-1484 247.319,-1498.27 279.114,-1521.09 300.225,-1537.62"/>
<polygon fill="black" stroke="black" points="298.308,-1540.57 308.313,-1544.05 302.667,-1535.09 298.308,-1540.57"/>
</g>
<!-- ModelHelper -->
<g id="node20" class="node"><title>ModelHelper</title>
<polygon fill="lightgrey" stroke="black" points="116.188,-1421 34.5777,-1403 116.188,-1385 197.799,-1403 116.188,-1421"/>
<polyline fill="none" stroke="black" points="46.296,-1405.58 46.296,-1400.42 "/>
<polyline fill="none" stroke="black" points="104.47,-1387.58 127.906,-1387.58 "/>
<polyline fill="none" stroke="black" points="186.08,-1400.42 186.08,-1405.58 "/>
<polyline fill="none" stroke="black" points="127.906,-1418.42 104.47,-1418.42 "/>
<text text-anchor="middle" x="116.188" y="-1399.3" font-family="Times,serif" font-size="14.00">ModelHelper</text>
</g>
<!-- ModelHelper&#45;&gt;Core_App -->
<g id="edge31" class="edge"><title>ModelHelper&#45;&gt;Core_App</title>
<path fill="none" stroke="black" d="M174.068,-1408.3C245.942,-1415 367.849,-1426.37 430.844,-1432.24"/>
<polygon fill="black" stroke="black" points="430.883,-1435.76 441.165,-1433.2 431.533,-1428.79 430.883,-1435.76"/>
</g>
<!-- ModelHelper&#45;&gt;HelperTrait -->
<g id="edge38" class="edge"><title>ModelHelper&#45;&gt;HelperTrait</title>
<path fill="none" stroke="black" d="M165.769,-1410.13C182.706,-1414.14 201.244,-1420.37 216.376,-1430 258.299,-1456.67 292.532,-1504.61 310.715,-1533.65"/>
<polygon fill="black" stroke="black" points="307.841,-1535.66 316.045,-1542.36 313.812,-1532 307.841,-1535.66"/>
</g>
<!-- ServiceHelper -->
<g id="node21" class="node"><title>ServiceHelper</title>
<polygon fill="lightgrey" stroke="black" points="116.188,-1367 29.8865,-1349 116.188,-1331 202.49,-1349 116.188,-1367"/>
<polyline fill="none" stroke="black" points="41.6337,-1351.45 41.6337,-1346.55 "/>
<polyline fill="none" stroke="black" points="104.441,-1333.45 127.935,-1333.45 "/>
<polyline fill="none" stroke="black" points="190.743,-1346.55 190.743,-1351.45 "/>
<polyline fill="none" stroke="black" points="127.935,-1364.55 104.441,-1364.55 "/>
<text text-anchor="middle" x="116.188" y="-1345.3" font-family="Times,serif" font-size="14.00">ServiceHelper</text>
</g>
<!-- ServiceHelper&#45;&gt;Core_App -->
<g id="edge32" class="edge"><title>ServiceHelper&#45;&gt;Core_App</title>
<path fill="none" stroke="black" d="M163.144,-1357.23C220.761,-1367.98 322.306,-1388.37 407.441,-1413 418.75,-1416.27 430.957,-1420.5 441.634,-1424.43"/>
<polygon fill="black" stroke="black" points="440.73,-1427.83 451.322,-1428.08 443.194,-1421.28 440.73,-1427.83"/>
</g>
<!-- ServiceHelper&#45;&gt;HelperTrait -->
<g id="edge39" class="edge"><title>ServiceHelper&#45;&gt;HelperTrait</title>
<path fill="none" stroke="black" d="M170.539,-1355.69C186.453,-1359.66 203.158,-1365.96 216.376,-1376 269.879,-1416.62 302.276,-1491.89 316.454,-1531.72"/>
<polygon fill="black" stroke="black" points="313.177,-1532.95 319.745,-1541.26 319.795,-1530.67 313.177,-1532.95"/>
</g>
<!-- ViewHelper -->
<g id="node22" class="node"><title>ViewHelper</title>
<polygon fill="lightgrey" stroke="black" points="116.188,-1583 40.1075,-1565 116.188,-1547 192.269,-1565 116.188,-1583"/>
<polyline fill="none" stroke="black" points="51.7851,-1567.76 51.7851,-1562.24 "/>
<polyline fill="none" stroke="black" points="104.511,-1549.76 127.866,-1549.76 "/>
<polyline fill="none" stroke="black" points="180.591,-1562.24 180.591,-1567.76 "/>
<polyline fill="none" stroke="black" points="127.866,-1580.24 104.511,-1580.24 "/>
<text text-anchor="middle" x="116.188" y="-1561.3" font-family="Times,serif" font-size="14.00">ViewHelper</text>
</g>
<!-- ViewHelper&#45;&gt;Core_App -->
<g id="edge33" class="edge"><title>ViewHelper&#45;&gt;Core_App</title>
<path fill="none" stroke="black" d="M153.94,-1555.83C229.459,-1536.92 396.004,-1494.88 407.441,-1489 424.245,-1480.36 440.58,-1466.65 452.51,-1455.34"/>
<polygon fill="black" stroke="black" points="454.974,-1457.82 459.674,-1448.33 450.079,-1452.82 454.974,-1457.82"/>
</g>
<!-- ViewHelper&#45;&gt;HelperTrait -->
<g id="edge40" class="edge"><title>ViewHelper&#45;&gt;HelperTrait</title>
<path fill="none" stroke="black" d="M182.912,-1562.79C204.558,-1562.06 228.769,-1561.24 250.983,-1560.49"/>
<polygon fill="black" stroke="black" points="251.156,-1563.99 261.033,-1560.15 250.92,-1556.99 251.156,-1563.99"/>
</g>
<!-- HelperTrait&#45;&gt;Core_App -->
<g id="edge34" class="edge"><title>HelperTrait&#45;&gt;Core_App</title>
<path fill="none" stroke="black" d="M362.515,-1548.77C377.43,-1543.71 394.314,-1536.32 407.441,-1526 430.339,-1508 448.539,-1479.61 459.539,-1459.54"/>
<polygon fill="black" stroke="black" points="462.773,-1460.91 464.35,-1450.44 456.584,-1457.64 462.773,-1460.91"/>
</g>
<!-- HelperTrait&#45;&gt;Core_ExtendableStaticCallTrait -->
<g id="edge35" class="edge"><title>HelperTrait&#45;&gt;Core_ExtendableStaticCallTrait</title>
<path fill="none" stroke="black" d="M353.301,-1569.3C393.852,-1586.29 474.219,-1618.5 544.974,-1638 566.987,-1644.07 591.276,-1649.21 613.505,-1653.33"/>
<polygon fill="black" stroke="black" points="613.094,-1656.81 623.558,-1655.15 614.341,-1649.92 613.094,-1656.81"/>
</g>
<!-- Db_Db -->
<g id="node24" class="node"><title>Db_Db</title>
<polygon fill="lightgrey" stroke="black" points="1144.45,-542 1114.28,-524 1144.45,-506 1174.61,-524 1144.45,-542"/>
<polyline fill="none" stroke="black" points="1124.34,-530 1124.34,-518 "/>
<polyline fill="none" stroke="black" points="1134.39,-512 1154.5,-512 "/>
<polyline fill="none" stroke="black" points="1164.56,-518 1164.56,-530 "/>
<polyline fill="none" stroke="black" points="1154.5,-536 1134.39,-536 "/>
<text text-anchor="middle" x="1144.45" y="-520.3" font-family="Times,serif" font-size="14.00">Db</text>
</g>
<!-- Db_DbAdvanceTrait -->
<g id="node25" class="node"><title>Db_DbAdvanceTrait</title>
<polygon fill="none" stroke="black" points="1348.65,-542 1250.45,-524 1348.65,-506 1446.85,-524 1348.65,-542"/>
<polyline fill="none" stroke="black" points="1262.25,-526.164 1262.25,-521.836 "/>
<polyline fill="none" stroke="black" points="1336.85,-508.164 1360.45,-508.164 "/>
<polyline fill="none" stroke="black" points="1435.05,-521.836 1435.05,-526.164 "/>
<polyline fill="none" stroke="black" points="1360.45,-539.836 1336.85,-539.836 "/>
<text text-anchor="middle" x="1348.65" y="-520.3" font-family="Times,serif" font-size="14.00">DbAdvanceTrait</text>
</g>
<!-- Db_Db&#45;&gt;Db_DbAdvanceTrait -->
<g id="edge41" class="edge"><title>Db_Db&#45;&gt;Db_DbAdvanceTrait</title>
<path fill="none" stroke="black" d="M1174.85,-524C1192.39,-524 1215.86,-524 1239.83,-524"/>
<polygon fill="black" stroke="black" points="1240.12,-527.5 1250.12,-524 1240.12,-520.5 1240.12,-527.5"/>
</g>
<!-- Db_DbInterface -->
<g id="node26" class="node"><title>Db_DbInterface</title>
<polygon fill="none" stroke="black" points="1383.15,-596 1308.15,-596 1308.15,-560 1389.15,-560 1389.15,-590 1383.15,-596"/>
<polyline fill="none" stroke="black" points="1383.15,-596 1383.15,-590 "/>
<polyline fill="none" stroke="black" points="1389.15,-590 1383.15,-590 "/>
<text text-anchor="middle" x="1348.65" y="-574.3" font-family="Times,serif" font-size="14.00">DbInterface</text>
</g>
<!-- Db_Db&#45;&gt;Db_DbInterface -->
<g id="edge42" class="edge"><title>Db_Db&#45;&gt;Db_DbInterface</title>
<path fill="none" stroke="black" d="M1165.95,-529.475C1196.71,-537.691 1255.74,-553.455 1298.18,-564.788"/>
<polygon fill="black" stroke="black" points="1297.48,-568.223 1308.04,-567.422 1299.28,-561.46 1297.48,-568.223"/>
</g>
<!-- HttpServer -->
<g id="node27" class="node"><title>HttpServer</title>
<polygon fill="lightgrey" stroke="black" points="1144.45,-52 1074.73,-34 1144.45,-16 1214.16,-34 1144.45,-52"/>
<polyline fill="none" stroke="black" points="1086.35,-37.0001 1086.35,-30.9999 "/>
<polyline fill="none" stroke="black" points="1132.83,-19.0001 1156.06,-19.0001 "/>
<polyline fill="none" stroke="black" points="1202.54,-30.9999 1202.54,-37.0001 "/>
<polyline fill="none" stroke="black" points="1156.06,-48.9999 1132.83,-48.9999 "/>
<text text-anchor="middle" x="1144.45" y="-30.3" font-family="Times,serif" font-size="14.00">HttpServer</text>
</g>
<!-- Cache -->
<g id="node28" class="node"><title>Cache</title>
<polygon fill="none" stroke="black" points="981.089,-405 927.089,-405 927.089,-401 923.089,-401 923.089,-397 927.089,-397 927.089,-377 923.089,-377 923.089,-373 927.089,-373 927.089,-369 981.089,-369 981.089,-405"/>
<polyline fill="none" stroke="black" points="927.089,-401 931.089,-401 931.089,-397 927.089,-397 "/>
<polyline fill="none" stroke="black" points="927.089,-377 931.089,-377 931.089,-373 927.089,-373 "/>
<text text-anchor="middle" x="954.089" y="-383.3" font-family="Times,serif" font-size="14.00">Cache</text>
</g>
<!-- Cache&#45;&gt;Core_ComponentBase -->
<g id="edge43" class="edge"><title>Cache&#45;&gt;Core_ComponentBase</title>
<path fill="none" stroke="black" stroke-dasharray="1,5" d="M981.418,-388.325C1000.28,-390.754 1024.7,-397.212 1038.59,-414 1040.26,-416.018 1121.98,-1080.36 1139.97,-1226.71"/>
<polygon fill="black" stroke="black" points="1136.5,-1227.2 1141.2,-1236.7 1143.45,-1226.35 1136.5,-1227.2"/>
</g>
<!-- Console -->
<g id="node29" class="node"><title>Console</title>
<polygon fill="none" stroke="black" points="984.589,-135 923.589,-135 923.589,-131 919.589,-131 919.589,-127 923.589,-127 923.589,-107 919.589,-107 919.589,-103 923.589,-103 923.589,-99 984.589,-99 984.589,-135"/>
<polyline fill="none" stroke="black" points="923.589,-131 927.589,-131 927.589,-127 923.589,-127 "/>
<polyline fill="none" stroke="black" points="923.589,-107 927.589,-107 927.589,-103 923.589,-103 "/>
<text text-anchor="middle" x="954.089" y="-113.3" font-family="Times,serif" font-size="14.00">Console</text>
</g>
<!-- Console&#45;&gt;Core_ComponentBase -->
<g id="edge44" class="edge"><title>Console&#45;&gt;Core_ComponentBase</title>
<path fill="none" stroke="black" stroke-dasharray="1,5" d="M984.991,-118.485C1003.48,-121.105 1026.02,-127.723 1038.59,-144 1071.72,-186.893 1061.72,-577.019 1066.59,-631 1087.42,-861.891 1126.59,-1139.18 1139.33,-1226.95"/>
<polygon fill="black" stroke="black" points="1135.88,-1227.53 1140.78,-1236.92 1142.8,-1226.52 1135.88,-1227.53"/>
</g>
<!-- Console&#45;&gt;HttpServer -->
<g id="edge52" class="edge"><title>Console&#45;&gt;HttpServer</title>
<path fill="none" stroke="black" d="M984.935,-103.848C1018.5,-89.0575 1072.95,-65.0638 1108.48,-49.4071"/>
<polygon fill="black" stroke="black" points="1110.23,-52.4621 1117.97,-45.2268 1107.41,-46.0564 1110.23,-52.4621"/>
</g>
<!-- Installer -->
<g id="node32" class="node"><title>Installer</title>
<polygon fill="none" stroke="black" points="1174.95,-135 1113.95,-135 1113.95,-131 1109.95,-131 1109.95,-127 1113.95,-127 1113.95,-107 1109.95,-107 1109.95,-103 1113.95,-103 1113.95,-99 1174.95,-99 1174.95,-135"/>
<polyline fill="none" stroke="black" points="1113.95,-131 1117.95,-131 1117.95,-127 1113.95,-127 "/>
<polyline fill="none" stroke="black" points="1113.95,-107 1117.95,-107 1117.95,-103 1113.95,-103 "/>
<text text-anchor="middle" x="1144.45" y="-113.3" font-family="Times,serif" font-size="14.00">Installer</text>
</g>
<!-- Console&#45;&gt;Installer -->
<g id="edge51" class="edge"><title>Console&#45;&gt;Installer</title>
<path fill="none" stroke="black" d="M984.935,-117C1017.04,-117 1068.24,-117 1103.72,-117"/>
<polygon fill="black" stroke="black" points="1103.74,-120.5 1113.74,-117 1103.74,-113.5 1103.74,-120.5"/>
</g>
<!-- DbManager -->
<g id="node30" class="node"><title>DbManager</title>
<polygon fill="none" stroke="black" points="995.089,-243 913.089,-243 913.089,-239 909.089,-239 909.089,-235 913.089,-235 913.089,-215 909.089,-215 909.089,-211 913.089,-211 913.089,-207 995.089,-207 995.089,-243"/>
<polyline fill="none" stroke="black" points="913.089,-239 917.089,-239 917.089,-235 913.089,-235 "/>
<polyline fill="none" stroke="black" points="913.089,-215 917.089,-215 917.089,-211 913.089,-211 "/>
<text text-anchor="middle" x="954.089" y="-221.3" font-family="Times,serif" font-size="14.00">DbManager</text>
</g>
<!-- DbManager&#45;&gt;Core_ComponentBase -->
<g id="edge45" class="edge"><title>DbManager&#45;&gt;Core_ComponentBase</title>
<path fill="none" stroke="black" stroke-dasharray="1,5" d="M995.486,-228.47C1011.36,-231.983 1028.24,-238.821 1038.59,-252 1064.68,-285.205 1062.45,-588.977 1066.59,-631 1089.31,-861.714 1127.23,-1139.12 1139.49,-1226.93"/>
<polygon fill="black" stroke="black" points="1136.04,-1227.5 1140.89,-1236.91 1142.97,-1226.52 1136.04,-1227.5"/>
</g>
<!-- DbManager&#45;&gt;Db_Db -->
<g id="edge53" class="edge"><title>DbManager&#45;&gt;Db_Db</title>
<path fill="none" stroke="black" d="M995.221,-228.682C1011.05,-232.231 1027.97,-239.039 1038.59,-252 1107.23,-335.737 1000.47,-408.261 1066.59,-494 1076.85,-507.305 1093.84,-514.716 1109.25,-518.841"/>
<polygon fill="black" stroke="black" points="1108.52,-522.265 1119.05,-521.105 1110.1,-515.445 1108.52,-522.265"/>
</g>
<!-- EventManager -->
<g id="node31" class="node"><title>EventManager</title>
<polygon fill="none" stroke="black" points="1002.59,-351 905.589,-351 905.589,-347 901.589,-347 901.589,-343 905.589,-343 905.589,-323 901.589,-323 901.589,-319 905.589,-319 905.589,-315 1002.59,-315 1002.59,-351"/>
<polyline fill="none" stroke="black" points="905.589,-347 909.589,-347 909.589,-343 905.589,-343 "/>
<polyline fill="none" stroke="black" points="905.589,-323 909.589,-323 909.589,-319 905.589,-319 "/>
<text text-anchor="middle" x="954.089" y="-329.3" font-family="Times,serif" font-size="14.00">EventManager</text>
</g>
<!-- EventManager&#45;&gt;Core_ComponentBase -->
<g id="edge46" class="edge"><title>EventManager&#45;&gt;Core_ComponentBase</title>
<path fill="none" stroke="black" stroke-dasharray="1,5" d="M1002.69,-338.505C1016.22,-342.412 1029.67,-348.987 1038.59,-360 1076.68,-407.057 1059.78,-570.842 1066.59,-631 1092.67,-861.357 1128.38,-1139 1139.79,-1226.9"/>
<polygon fill="black" stroke="black" points="1136.32,-1227.43 1141.08,-1236.89 1143.27,-1226.53 1136.32,-1227.43"/>
</g>
<!-- Installer&#45;&gt;Core_ComponentBase -->
<g id="edge47" class="edge"><title>Installer&#45;&gt;Core_ComponentBase</title>
<path fill="none" stroke="black" stroke-dasharray="1,5" d="M1113.87,-119.212C1091.99,-122.667 1064.41,-131.352 1052.59,-153 1027.62,-198.739 1048.84,-570.024 1052.59,-622 1069.59,-857.508 1121.72,-1138.49 1138.89,-1226.93"/>
<polygon fill="black" stroke="black" points="1135.5,-1227.83 1140.86,-1236.98 1142.37,-1226.49 1135.5,-1227.83"/>
</g>
<!-- Pager -->
<g id="node33" class="node"><title>Pager</title>
<polygon fill="none" stroke="black" points="981.089,-189 927.089,-189 927.089,-185 923.089,-185 923.089,-181 927.089,-181 927.089,-161 923.089,-161 923.089,-157 927.089,-157 927.089,-153 981.089,-153 981.089,-189"/>
<polyline fill="none" stroke="black" points="927.089,-185 931.089,-185 931.089,-181 927.089,-181 "/>
<polyline fill="none" stroke="black" points="927.089,-161 931.089,-161 931.089,-157 927.089,-157 "/>
<text text-anchor="middle" x="954.089" y="-167.3" font-family="Times,serif" font-size="14.00">Pager</text>
</g>
<!-- Pager&#45;&gt;Core_ComponentBase -->
<g id="edge48" class="edge"><title>Pager&#45;&gt;Core_ComponentBase</title>
<path fill="none" stroke="black" stroke-dasharray="1,5" d="M981.315,-164.642C1000.38,-165.307 1025.12,-171.686 1038.59,-189 1068.2,-227.048 1062.09,-573.999 1066.59,-622 1088.52,-855.684 1127.83,-1137.05 1139.86,-1226.46"/>
<polygon fill="black" stroke="black" points="1136.42,-1227.18 1141.21,-1236.63 1143.36,-1226.25 1136.42,-1227.18"/>
</g>
<!-- Pager&#45;&gt;Core_ComponentBase -->
<g id="edge58" class="edge"><title>Pager&#45;&gt;Core_ComponentBase</title>
<path fill="none" stroke="black" stroke-dasharray="1,5" d="M981.315,-179.438C1000.38,-183.307 1025.12,-189.686 1038.59,-207 1068.2,-245.048 1062.09,-591.999 1066.59,-640 1087.93,-867.425 1125.74,-1140.01 1138.83,-1227.03"/>
<polygon fill="black" stroke="black" points="1135.37,-1227.58 1140.34,-1236.94 1142.29,-1226.52 1135.37,-1227.58"/>
</g>
<!-- PagerInterface -->
<g id="node34" class="node"><title>PagerInterface</title>
<polygon fill="none" stroke="black" points="1185.95,-189 1096.95,-189 1096.95,-153 1191.95,-153 1191.95,-183 1185.95,-189"/>
<polyline fill="none" stroke="black" points="1185.95,-189 1185.95,-183 "/>
<polyline fill="none" stroke="black" points="1191.95,-183 1185.95,-183 "/>
<text text-anchor="middle" x="1144.45" y="-167.3" font-family="Times,serif" font-size="14.00">PagerInterface</text>
</g>
<!-- Pager&#45;&gt;PagerInterface -->
<g id="edge54" class="edge"><title>Pager&#45;&gt;PagerInterface</title>
<path fill="none" stroke="black" d="M981.279,-171C1008.42,-171 1051.69,-171 1086.71,-171"/>
<polygon fill="black" stroke="black" points="1086.82,-174.5 1096.82,-171 1086.82,-167.5 1086.82,-174.5"/>
</g>
<!-- RouteHookPathInfoCompat -->
<g id="node35" class="node"><title>RouteHookPathInfoCompat</title>
<polygon fill="none" stroke="black" points="1038.59,-297 869.589,-297 869.589,-293 865.589,-293 865.589,-289 869.589,-289 869.589,-269 865.589,-269 865.589,-265 869.589,-265 869.589,-261 1038.59,-261 1038.59,-297"/>
<polyline fill="none" stroke="black" points="869.589,-293 873.589,-293 873.589,-289 869.589,-289 "/>
<polyline fill="none" stroke="black" points="869.589,-269 873.589,-269 873.589,-265 869.589,-265 "/>
<text text-anchor="middle" x="954.089" y="-275.3" font-family="Times,serif" font-size="14.00">RouteHookPathInfoCompat</text>
</g>
<!-- RouteHookPathInfoCompat&#45;&gt;Core_ComponentBase -->
<g id="edge49" class="edge"><title>RouteHookPathInfoCompat&#45;&gt;Core_ComponentBase</title>
<path fill="none" stroke="black" stroke-dasharray="1,5" d="M1029.49,-297.157C1032.86,-299.73 1035.93,-302.662 1038.59,-306 1061.15,-334.364 1062.82,-594.952 1066.59,-631 1090.71,-861.571 1127.71,-1139.07 1139.61,-1226.92"/>
<polygon fill="black" stroke="black" points="1136.16,-1227.47 1140.97,-1236.91 1143.09,-1226.53 1136.16,-1227.47"/>
</g>
<!-- RouteHookRouteMap -->
<g id="node36" class="node"><title>RouteHookRouteMap</title>
<polygon fill="none" stroke="black" points="1022.59,-459 885.589,-459 885.589,-455 881.589,-455 881.589,-451 885.589,-451 885.589,-431 881.589,-431 881.589,-427 885.589,-427 885.589,-423 1022.59,-423 1022.59,-459"/>
<polyline fill="none" stroke="black" points="885.589,-455 889.589,-455 889.589,-451 885.589,-451 "/>
<polyline fill="none" stroke="black" points="885.589,-431 889.589,-431 889.589,-427 885.589,-427 "/>
<text text-anchor="middle" x="954.089" y="-437.3" font-family="Times,serif" font-size="14.00">RouteHookRouteMap</text>
</g>
<!-- RouteHookRouteMap&#45;&gt;Core_ComponentBase -->
<g id="edge50" class="edge"><title>RouteHookRouteMap&#45;&gt;Core_ComponentBase</title>
<path fill="none" stroke="black" stroke-dasharray="1,5" d="M998.671,-459.221C1013.65,-467.635 1029.03,-479.121 1038.59,-494 1058.9,-525.615 1124.74,-1091.57 1140.18,-1226.36"/>
<polygon fill="black" stroke="black" points="1136.75,-1227.15 1141.36,-1236.68 1143.7,-1226.35 1136.75,-1227.15"/>
</g>
<!-- CallableView -->
<g id="node37" class="node"><title>CallableView</title>
<polygon fill="none" stroke="black" points="734.782,-1082 643.782,-1082 643.782,-1078 639.782,-1078 639.782,-1074 643.782,-1074 643.782,-1054 639.782,-1054 639.782,-1050 643.782,-1050 643.782,-1046 734.782,-1046 734.782,-1082"/>
<polyline fill="none" stroke="black" points="643.782,-1078 647.782,-1078 647.782,-1074 643.782,-1074 "/>
<polyline fill="none" stroke="black" points="643.782,-1054 647.782,-1054 647.782,-1050 643.782,-1050 "/>
<text text-anchor="middle" x="689.282" y="-1060.3" font-family="Times,serif" font-size="14.00">CallableView</text>
</g>
<!-- CallableView&#45;&gt;Core_View -->
<g id="edge66" class="edge"><title>CallableView&#45;&gt;Core_View</title>
<path fill="none" stroke="black" d="M734.955,-1060.32C766.633,-1060.28 807.918,-1065.83 833.589,-1091 877.034,-1133.59 821.017,-1179.66 861.589,-1225 875.575,-1240.63 897.827,-1248.14 916.885,-1251.74"/>
<polygon fill="black" stroke="black" points="916.356,-1255.2 926.784,-1253.33 917.464,-1248.29 916.356,-1255.2"/>
</g>
<!-- EmptyView -->
<g id="node38" class="node"><title>EmptyView</title>
<polygon fill="none" stroke="black" points="730.782,-1190 647.782,-1190 647.782,-1186 643.782,-1186 643.782,-1182 647.782,-1182 647.782,-1162 643.782,-1162 643.782,-1158 647.782,-1158 647.782,-1154 730.782,-1154 730.782,-1190"/>
<polyline fill="none" stroke="black" points="647.782,-1186 651.782,-1186 651.782,-1182 647.782,-1182 "/>
<polyline fill="none" stroke="black" points="647.782,-1162 651.782,-1162 651.782,-1158 647.782,-1158 "/>
<text text-anchor="middle" x="689.282" y="-1168.3" font-family="Times,serif" font-size="14.00">EmptyView</text>
</g>
<!-- EmptyView&#45;&gt;Core_View -->
<g id="edge67" class="edge"><title>EmptyView&#45;&gt;Core_View</title>
<path fill="none" stroke="black" d="M731.057,-1184.88C782.071,-1200.99 868.616,-1228.32 917.219,-1243.67"/>
<polygon fill="black" stroke="black" points="916.398,-1247.08 926.988,-1246.76 918.506,-1240.41 916.398,-1247.08"/>
</g>
<!-- FacadesAutoLoader -->
<g id="node39" class="node"><title>FacadesAutoLoader</title>
<polygon fill="none" stroke="black" points="1016.59,-1127 891.589,-1127 891.589,-1123 887.589,-1123 887.589,-1119 891.589,-1119 891.589,-1099 887.589,-1099 887.589,-1095 891.589,-1095 891.589,-1091 1016.59,-1091 1016.59,-1127"/>
<polyline fill="none" stroke="black" points="891.589,-1123 895.589,-1123 895.589,-1119 891.589,-1119 "/>
<polyline fill="none" stroke="black" points="891.589,-1099 895.589,-1099 895.589,-1095 891.589,-1095 "/>
<text text-anchor="middle" x="954.089" y="-1105.3" font-family="Times,serif" font-size="14.00">FacadesAutoLoader</text>
</g>
<!-- FacadesAutoLoader&#45;&gt;Core_ComponentBase -->
<g id="edge55" class="edge"><title>FacadesAutoLoader&#45;&gt;Core_ComponentBase</title>
<path fill="none" stroke="black" stroke-dasharray="1,5" d="M998.683,-1127.07C1012.02,-1133.46 1026.38,-1141.26 1038.59,-1150 1070.82,-1173.07 1102.18,-1206.34 1122.08,-1229.21"/>
<polygon fill="black" stroke="black" points="1119.46,-1231.53 1128.62,-1236.83 1124.77,-1226.97 1119.46,-1231.53"/>
</g>
<!-- FacadesBase -->
<g id="node40" class="node"><title>FacadesBase</title>
<polygon fill="none" stroke="black" points="732.282,-974 646.282,-974 646.282,-970 642.282,-970 642.282,-966 646.282,-966 646.282,-946 642.282,-946 642.282,-942 646.282,-942 646.282,-938 732.282,-938 732.282,-974"/>
<polyline fill="none" stroke="black" points="646.282,-970 650.282,-970 650.282,-966 646.282,-966 "/>
<polyline fill="none" stroke="black" points="646.282,-946 650.282,-946 650.282,-942 646.282,-942 "/>
<text text-anchor="middle" x="689.282" y="-952.3" font-family="Times,serif" font-size="14.00">FacadesBase</text>
</g>
<!-- FacadesBase&#45;&gt;Core_ComponentBase -->
<g id="edge69" class="edge"><title>FacadesBase&#45;&gt;Core_ComponentBase</title>
<path fill="none" stroke="black" stroke-dasharray="1,5" d="M732.284,-950.575C803.243,-943.796 947.963,-940.553 1038.59,-1011 1108.26,-1065.16 1132.36,-1174.71 1140.09,-1226.57"/>
<polygon fill="black" stroke="black" points="1136.66,-1227.29 1141.5,-1236.71 1143.59,-1226.33 1136.66,-1227.29"/>
</g>
<!-- FacadesBase&#45;&gt;FacadesAutoLoader -->
<g id="edge68" class="edge"><title>FacadesBase&#45;&gt;FacadesAutoLoader</title>
<path fill="none" stroke="black" d="M732.422,-953.27C763.846,-953.529 805.941,-959.043 833.589,-983 862.694,-1008.22 836.028,-1036.2 861.589,-1065 869.1,-1073.46 878.597,-1080.45 888.613,-1086.17"/>
<polygon fill="black" stroke="black" points="887.035,-1089.29 897.511,-1090.87 890.305,-1083.1 887.035,-1089.29"/>
</g>
<!-- JsonRpcClientBase -->
<g id="node41" class="node"><title>JsonRpcClientBase</title>
<polygon fill="none" stroke="black" points="750.282,-920 628.282,-920 628.282,-916 624.282,-916 624.282,-912 628.282,-912 628.282,-892 624.282,-892 624.282,-888 628.282,-888 628.282,-884 750.282,-884 750.282,-920"/>
<polyline fill="none" stroke="black" points="628.282,-916 632.282,-916 632.282,-912 628.282,-912 "/>
<polyline fill="none" stroke="black" points="628.282,-892 632.282,-892 632.282,-888 628.282,-888 "/>
<text text-anchor="middle" x="689.282" y="-898.3" font-family="Times,serif" font-size="14.00">JsonRpcClientBase</text>
</g>
<!-- JsonRpcClientBase&#45;&gt;Core_ComponentBase -->
<g id="edge71" class="edge"><title>JsonRpcClientBase&#45;&gt;Core_ComponentBase</title>
<path fill="none" stroke="black" stroke-dasharray="1,5" d="M750.303,-892.102C826.203,-883.153 956.822,-880.121 1038.59,-947 1125.62,-1018.18 1140.7,-1164.88 1143.11,-1226.62"/>
<polygon fill="black" stroke="black" points="1139.61,-1226.9 1143.42,-1236.79 1146.61,-1226.69 1139.61,-1226.9"/>
</g>
<!-- JsonRpcExt -->
<g id="node42" class="node"><title>JsonRpcExt</title>
<polygon fill="none" stroke="black" points="994.589,-1056 913.589,-1056 913.589,-1052 909.589,-1052 909.589,-1048 913.589,-1048 913.589,-1028 909.589,-1028 909.589,-1024 913.589,-1024 913.589,-1020 994.589,-1020 994.589,-1056"/>
<polyline fill="none" stroke="black" points="913.589,-1052 917.589,-1052 917.589,-1048 913.589,-1048 "/>
<polyline fill="none" stroke="black" points="913.589,-1028 917.589,-1028 917.589,-1024 913.589,-1024 "/>
<text text-anchor="middle" x="954.089" y="-1034.3" font-family="Times,serif" font-size="14.00">JsonRpcExt</text>
</g>
<!-- JsonRpcClientBase&#45;&gt;JsonRpcExt -->
<g id="edge70" class="edge"><title>JsonRpcClientBase&#45;&gt;JsonRpcExt</title>
<path fill="none" stroke="black" d="M750.511,-905.905C777.069,-909.469 807.991,-916.226 833.589,-929 873.719,-949.025 910.29,-986.49 932.122,-1011.84"/>
<polygon fill="black" stroke="black" points="929.554,-1014.22 938.679,-1019.61 934.903,-1009.71 929.554,-1014.22"/>
</g>
<!-- JsonRpcExt&#45;&gt;Core_ComponentBase -->
<g id="edge56" class="edge"><title>JsonRpcExt&#45;&gt;Core_ComponentBase</title>
<path fill="none" stroke="black" stroke-dasharray="1,5" d="M994.898,-1053.55C1009.77,-1060.68 1026.06,-1070.2 1038.59,-1082 1083.58,-1124.37 1116.26,-1190.22 1132.3,-1227.26"/>
<polygon fill="black" stroke="black" points="1129.26,-1229.06 1136.38,-1236.9 1135.7,-1226.33 1129.26,-1229.06"/>
</g>
<!-- JsonView -->
<g id="node43" class="node"><title>JsonView</title>
<polygon fill="none" stroke="black" points="724.282,-1136 654.282,-1136 654.282,-1132 650.282,-1132 650.282,-1128 654.282,-1128 654.282,-1108 650.282,-1108 650.282,-1104 654.282,-1104 654.282,-1100 724.282,-1100 724.282,-1136"/>
<polyline fill="none" stroke="black" points="654.282,-1132 658.282,-1132 658.282,-1128 654.282,-1128 "/>
<polyline fill="none" stroke="black" points="654.282,-1108 658.282,-1108 658.282,-1104 654.282,-1104 "/>
<text text-anchor="middle" x="689.282" y="-1114.3" font-family="Times,serif" font-size="14.00">JsonView</text>
</g>
<!-- JsonView&#45;&gt;Core_View -->
<g id="edge72" class="edge"><title>JsonView&#45;&gt;Core_View</title>
<path fill="none" stroke="black" d="M724.479,-1115.36C756.379,-1114.8 803.45,-1119.09 833.589,-1145 862.153,-1169.56 834.689,-1198.63 861.589,-1225 876.396,-1239.52 898.334,-1247.01 917.017,-1250.87"/>
<polygon fill="black" stroke="black" points="916.533,-1254.34 926.995,-1252.67 917.774,-1247.45 916.533,-1254.34"/>
</g>
<!-- Misc -->
<g id="node44" class="node"><title>Misc</title>
<polygon fill="none" stroke="black" points="716.282,-866 662.282,-866 662.282,-862 658.282,-862 658.282,-858 662.282,-858 662.282,-838 658.282,-838 658.282,-834 662.282,-834 662.282,-830 716.282,-830 716.282,-866"/>
<polyline fill="none" stroke="black" points="662.282,-862 666.282,-862 666.282,-858 662.282,-858 "/>
<polyline fill="none" stroke="black" points="662.282,-838 666.282,-838 666.282,-834 662.282,-834 "/>
<text text-anchor="middle" x="689.282" y="-844.3" font-family="Times,serif" font-size="14.00">Misc</text>
</g>
<!-- Misc&#45;&gt;Core_ComponentBase -->
<g id="edge57" class="edge"><title>Misc&#45;&gt;Core_ComponentBase</title>
<path fill="none" stroke="black" stroke-dasharray="1,5" d="M716.749,-841.872C780.487,-828.797 944.192,-805.452 1038.59,-885 1091.98,-929.995 1128.12,-1148.46 1139.56,-1226.89"/>
<polygon fill="black" stroke="black" points="1136.13,-1227.6 1141.01,-1237 1143.06,-1226.6 1136.13,-1227.6"/>
</g>
<!-- RedisManager -->
<g id="node45" class="node"><title>RedisManager</title>
<polygon fill="none" stroke="black" points="737.282,-812 641.282,-812 641.282,-808 637.282,-808 637.282,-804 641.282,-804 641.282,-784 637.282,-784 637.282,-780 641.282,-780 641.282,-776 737.282,-776 737.282,-812"/>
<polyline fill="none" stroke="black" points="641.282,-808 645.282,-808 645.282,-804 641.282,-804 "/>
<polyline fill="none" stroke="black" points="641.282,-784 645.282,-784 645.282,-780 641.282,-780 "/>
<text text-anchor="middle" x="689.282" y="-790.3" font-family="Times,serif" font-size="14.00">RedisManager</text>
</g>
<!-- RedisManager&#45;&gt;Core_ComponentBase -->
<g id="edge59" class="edge"><title>RedisManager&#45;&gt;Core_ComponentBase</title>
<path fill="none" stroke="black" stroke-dasharray="1,5" d="M737.34,-782.694C811.01,-768.019 953.891,-752.171 1038.59,-825 1100.54,-878.268 1131.92,-1139.75 1140.77,-1226.77"/>
<polygon fill="black" stroke="black" points="1137.31,-1227.35 1141.79,-1236.95 1144.28,-1226.65 1137.31,-1227.35"/>
</g>
<!-- RedisCache -->
<g id="node46" class="node"><title>RedisCache</title>
<polygon fill="none" stroke="black" points="729.782,-758 648.782,-758 648.782,-754 644.782,-754 644.782,-750 648.782,-750 648.782,-730 644.782,-730 644.782,-726 648.782,-726 648.782,-722 729.782,-722 729.782,-758"/>
<polyline fill="none" stroke="black" points="648.782,-754 652.782,-754 652.782,-750 648.782,-750 "/>
<polyline fill="none" stroke="black" points="648.782,-730 652.782,-730 652.782,-726 648.782,-726 "/>
<text text-anchor="middle" x="689.282" y="-736.3" font-family="Times,serif" font-size="14.00">RedisCache</text>
</g>
<!-- RedisCache&#45;&gt;Core_ComponentBase -->
<g id="edge60" class="edge"><title>RedisCache&#45;&gt;Core_ComponentBase</title>
<path fill="none" stroke="black" stroke-dasharray="1,5" d="M729.79,-737.641C811.167,-733.657 993.625,-729.508 1038.59,-769 1108.38,-830.297 1134.94,-1132.05 1141.62,-1226.61"/>
<polygon fill="black" stroke="black" points="1138.15,-1227.1 1142.33,-1236.84 1145.13,-1226.62 1138.15,-1227.1"/>
</g>
<!-- RouteHookApiServer -->
<g id="node47" class="node"><title>RouteHookApiServer</title>
<polygon fill="none" stroke="black" points="756.282,-704 622.282,-704 622.282,-700 618.282,-700 618.282,-696 622.282,-696 622.282,-676 618.282,-676 618.282,-672 622.282,-672 622.282,-668 756.282,-668 756.282,-704"/>
<polyline fill="none" stroke="black" points="622.282,-700 626.282,-700 626.282,-696 622.282,-696 "/>
<polyline fill="none" stroke="black" points="622.282,-676 626.282,-676 626.282,-672 622.282,-672 "/>
<text text-anchor="middle" x="689.282" y="-682.3" font-family="Times,serif" font-size="14.00">RouteHookApiServer</text>
</g>
<!-- RouteHookApiServer&#45;&gt;Core_ComponentBase -->
<g id="edge61" class="edge"><title>RouteHookApiServer&#45;&gt;Core_ComponentBase</title>
<path fill="none" stroke="black" stroke-dasharray="1,5" d="M756.504,-674.058C834.497,-664.11 962.981,-661.263 1038.59,-732 1111.92,-800.604 1136.26,-1128.31 1141.98,-1226.89"/>
<polygon fill="black" stroke="black" points="1138.5,-1227.19 1142.55,-1236.98 1145.49,-1226.8 1138.5,-1227.19"/>
</g>
<!-- RouteHookDirectoryMode -->
<g id="node48" class="node"><title>RouteHookDirectoryMode</title>
<polygon fill="none" stroke="black" points="770.782,-596 607.782,-596 607.782,-592 603.782,-592 603.782,-588 607.782,-588 607.782,-568 603.782,-568 603.782,-564 607.782,-564 607.782,-560 770.782,-560 770.782,-596"/>
<polyline fill="none" stroke="black" points="607.782,-592 611.782,-592 611.782,-588 607.782,-588 "/>
<polyline fill="none" stroke="black" points="607.782,-568 611.782,-568 611.782,-564 607.782,-564 "/>
<text text-anchor="middle" x="689.282" y="-574.3" font-family="Times,serif" font-size="14.00">RouteHookDirectoryMode</text>
</g>
<!-- RouteHookDirectoryMode&#45;&gt;Core_ComponentBase -->
<g id="edge62" class="edge"><title>RouteHookDirectoryMode&#45;&gt;Core_ComponentBase</title>
<path fill="none" stroke="black" stroke-dasharray="1,5" d="M770.949,-574.417C851.188,-575.602 971.709,-591.097 1038.59,-666 1114.26,-750.741 1137.17,-1120.75 1142.24,-1226.61"/>
<polygon fill="black" stroke="black" points="1138.75,-1227.01 1142.71,-1236.83 1145.74,-1226.68 1138.75,-1227.01"/>
</g>
<!-- RouteHookManager -->
<g id="node49" class="node"><title>RouteHookManager</title>
<polygon fill="none" stroke="black" points="753.282,-542 625.282,-542 625.282,-538 621.282,-538 621.282,-534 625.282,-534 625.282,-514 621.282,-514 621.282,-510 625.282,-510 625.282,-506 753.282,-506 753.282,-542"/>
<polyline fill="none" stroke="black" points="625.282,-538 629.282,-538 629.282,-534 625.282,-534 "/>
<polyline fill="none" stroke="black" points="625.282,-514 629.282,-514 629.282,-510 625.282,-510 "/>
<text text-anchor="middle" x="689.282" y="-520.3" font-family="Times,serif" font-size="14.00">RouteHookManager</text>
</g>
<!-- RouteHookManager&#45;&gt;Core_ComponentBase -->
<g id="edge63" class="edge"><title>RouteHookManager&#45;&gt;Core_ComponentBase</title>
<path fill="none" stroke="black" stroke-dasharray="1,5" d="M753.496,-514.08C831.838,-505.71 964.082,-505.096 1038.59,-580 1085.22,-626.879 1130.18,-1104.36 1140.99,-1226.61"/>
<polygon fill="black" stroke="black" points="1137.52,-1227.03 1141.88,-1236.69 1144.49,-1226.42 1137.52,-1227.03"/>
</g>
<!-- RouteHookRewrite -->
<g id="node50" class="node"><title>RouteHookRewrite</title>
<polygon fill="none" stroke="black" points="750.282,-1028 628.282,-1028 628.282,-1024 624.282,-1024 624.282,-1020 628.282,-1020 628.282,-1000 624.282,-1000 624.282,-996 628.282,-996 628.282,-992 750.282,-992 750.282,-1028"/>
<polyline fill="none" stroke="black" points="628.282,-1024 632.282,-1024 632.282,-1020 628.282,-1020 "/>
<polyline fill="none" stroke="black" points="628.282,-1000 632.282,-1000 632.282,-996 628.282,-996 "/>
<text text-anchor="middle" x="689.282" y="-1006.3" font-family="Times,serif" font-size="14.00">RouteHookRewrite</text>
</g>
<!-- RouteHookRewrite&#45;&gt;Core_ComponentBase -->
<g id="edge64" class="edge"><title>RouteHookRewrite&#45;&gt;Core_ComponentBase</title>
<path fill="none" stroke="black" stroke-dasharray="1,5" d="M750.366,-1006.66C779.164,-1008.35 812.002,-1015.62 833.589,-1037 878.988,-1081.96 818.036,-1131.26 861.589,-1178 865.421,-1182.11 999.131,-1217.46 1080.99,-1238.81"/>
<polygon fill="black" stroke="black" points="1080.14,-1242.2 1090.7,-1241.34 1081.91,-1235.43 1080.14,-1242.2"/>
</g>
<!-- StrictCheck -->
<g id="node51" class="node"><title>StrictCheck</title>
<polygon fill="none" stroke="black" points="729.282,-650 649.282,-650 649.282,-646 645.282,-646 645.282,-642 649.282,-642 649.282,-622 645.282,-622 645.282,-618 649.282,-618 649.282,-614 729.282,-614 729.282,-650"/>
<polyline fill="none" stroke="black" points="649.282,-646 653.282,-646 653.282,-642 649.282,-642 "/>
<polyline fill="none" stroke="black" points="649.282,-622 653.282,-622 653.282,-618 649.282,-618 "/>
<text text-anchor="middle" x="689.282" y="-628.3" font-family="Times,serif" font-size="14.00">StrictCheck</text>
</g>
<!-- StrictCheck&#45;&gt;Core_ComponentBase -->
<g id="edge65" class="edge"><title>StrictCheck&#45;&gt;Core_ComponentBase</title>
<path fill="none" stroke="black" stroke-dasharray="1,5" d="M729.433,-627.443C762.413,-626.008 808.168,-630.109 833.589,-659 903.732,-738.716 793.329,-1054.67 861.589,-1136 913.565,-1197.93 965.207,-1144.06 1038.59,-1178 1067.24,-1191.25 1095.85,-1212.98 1115.94,-1229.98"/>
<polygon fill="black" stroke="black" points="1113.87,-1232.82 1123.73,-1236.71 1118.44,-1227.52 1113.87,-1232.82"/>
</g>
<!-- StrictCheck&#45;&gt;DbManager -->
<g id="edge73" class="edge"><title>StrictCheck&#45;&gt;DbManager</title>
<path fill="none" stroke="black" d="M729.286,-636.427C762.173,-637.779 807.873,-633.628 833.589,-605 886.175,-546.46 812.017,-313.113 861.589,-252 871.689,-239.549 887.233,-232.654 902.66,-228.893"/>
<polygon fill="black" stroke="black" points="903.62,-232.269 912.722,-226.847 902.225,-225.41 903.62,-232.269"/>
</g>
<!-- DuckPhp -->
<g id="node52" class="node"><title>DuckPhp</title>
<polygon fill="lightgrey" stroke="black" points="325.909,-328 264.242,-310 325.909,-292 387.576,-310 325.909,-328"/>
<polyline fill="none" stroke="black" points="275.761,-313.362 275.761,-306.638 "/>
<polyline fill="none" stroke="black" points="314.39,-295.362 337.428,-295.362 "/>
<polyline fill="none" stroke="black" points="376.057,-306.638 376.057,-313.362 "/>
<polyline fill="none" stroke="black" points="337.428,-324.638 314.39,-324.638 "/>
<text text-anchor="middle" x="325.909" y="-306.3" font-family="Times,serif" font-size="14.00">DuckPhp</text>
</g>
<!-- DuckPhp&#45;&gt;Core_App -->
<g id="edge74" class="edge"><title>DuckPhp&#45;&gt;Core_App</title>
<path fill="none" stroke="black" d="M329.118,-327.236C345.462,-454.773 447.539,-1251.31 467.737,-1408.92"/>
<polygon fill="black" stroke="black" points="464.305,-1409.67 469.048,-1419.15 471.248,-1408.78 464.305,-1409.67"/>
</g>
<!-- DuckPhp&#45;&gt;Cache -->
<g id="edge80" class="edge"><title>DuckPhp&#45;&gt;Cache</title>
<path fill="none" stroke="black" d="M361.669,-317.702C380.97,-321.78 405.454,-326.628 427.441,-330 610.382,-358.06 831.223,-377.278 916.782,-384.176"/>
<polygon fill="black" stroke="black" points="916.757,-387.685 927.004,-384.993 917.314,-380.707 916.757,-387.685"/>
</g>
<!-- DuckPhp&#45;&gt;Console -->
<g id="edge81" class="edge"><title>DuckPhp&#45;&gt;Console</title>
<path fill="none" stroke="black" d="M345.131,-297.522C365.041,-284.054 398.027,-262.222 427.441,-245 478.408,-215.16 488.967,-201.739 544.974,-183 675.21,-139.426 838.753,-124.118 913.059,-119.165"/>
<polygon fill="black" stroke="black" points="913.603,-122.637 923.36,-118.507 913.157,-115.652 913.603,-122.637"/>
</g>
<!-- DuckPhp&#45;&gt;DbManager -->
<g id="edge77" class="edge"><title>DuckPhp&#45;&gt;DbManager</title>
<path fill="none" stroke="black" d="M368.479,-304.357C479.424,-289.297 782.243,-248.191 902.697,-231.84"/>
<polygon fill="black" stroke="black" points="903.317,-235.289 912.755,-230.475 902.375,-228.352 903.317,-235.289"/>
</g>
<!-- DuckPhp&#45;&gt;EventManager -->
<g id="edge78" class="edge"><title>DuckPhp&#45;&gt;EventManager</title>
<path fill="none" stroke="black" d="M380.839,-311.981C498.015,-316.285 774.973,-326.458 895.445,-330.883"/>
<polygon fill="black" stroke="black" points="895.45,-334.385 905.572,-331.255 895.707,-327.39 895.45,-334.385"/>
</g>
<!-- DuckPhp&#45;&gt;Pager -->
<g id="edge76" class="edge"><title>DuckPhp&#45;&gt;Pager</title>
<path fill="none" stroke="black" d="M353.039,-299.894C393.576,-284.556 474.313,-255.353 544.974,-238 680.277,-204.773 844.937,-183.423 916.718,-175.035"/>
<polygon fill="black" stroke="black" points="917.489,-178.47 927.021,-173.846 916.686,-171.516 917.489,-178.47"/>
</g>
<!-- DuckPhp&#45;&gt;RouteHookPathInfoCompat -->
<g id="edge79" class="edge"><title>DuckPhp&#45;&gt;RouteHookPathInfoCompat</title>
<path fill="none" stroke="black" d="M378.952,-307.424C484.567,-302.195 725.36,-290.274 859.125,-283.652"/>
<polygon fill="black" stroke="black" points="859.542,-287.136 869.357,-283.145 859.196,-280.144 859.542,-287.136"/>
</g>
<!-- DuckPhp&#45;&gt;RouteHookRouteMap -->
<g id="edge75" class="edge"><title>DuckPhp&#45;&gt;RouteHookRouteMap</title>
<path fill="none" stroke="black" d="M350.895,-320.813C371.021,-329.576 400.688,-341.777 427.441,-350 582.514,-397.663 771.476,-422.705 875.345,-433.767"/>
<polygon fill="black" stroke="black" points="875.124,-437.263 885.434,-434.826 875.854,-430.301 875.124,-437.263"/>
</g>
<!-- ThrowOn -->
<g id="node53" class="node"><title>ThrowOn</title>
<polygon fill="lightgrey" stroke="black" points="116.188,-1677 52.8443,-1659 116.188,-1641 179.532,-1659 116.188,-1677"/>
<polyline fill="none" stroke="black" points="64.3873,-1662.28 64.3873,-1655.72 "/>
<polyline fill="none" stroke="black" points="104.645,-1644.28 127.731,-1644.28 "/>
<polyline fill="none" stroke="black" points="167.989,-1655.72 167.989,-1662.28 "/>
<polyline fill="none" stroke="black" points="127.731,-1673.72 104.645,-1673.72 "/>
<text text-anchor="middle" x="116.188" y="-1655.3" font-family="Times,serif" font-size="14.00">ThrowOn</text>
</g>
</g>
</svg>
