<?xml version="1.0" encoding="UTF-8" standalone="no"?>
<!DOCTYPE svg PUBLIC "-//W3C//DTD SVG 1.1//EN"
 "http://www.w3.org/Graphics/SVG/1.1/DTD/svg11.dtd">
<!-- Generated by graphviz version 2.38.0 (20140413.2041)
 -->
<!-- Title: G Pages: 1 -->
<svg width="1524pt" height="1689pt"
 viewBox="0.00 0.00 1524.44 1689.00" xmlns="http://www.w3.org/2000/svg" xmlns:xlink="http://www.w3.org/1999/xlink">
<g id="graph0" class="graph" transform="scale(1 1) rotate(0) translate(4 1685)">
<title>G</title>
<polygon fill="white" stroke="none" points="-4,4 -4,-1685 1520.44,-1685 1520.44,4 -4,4"/>
<g id="clust1" class="cluster"><title>cluster_Core</title>
<polygon fill="none" stroke="black" points="427.441,-1146 427.441,-1673 1508.44,-1673 1508.44,-1146 427.441,-1146"/>
<text text-anchor="middle" x="967.939" y="-1657.8" font-family="Times,serif" font-size="14.00">[DuckPhp\Core]</text>
</g>
<g id="clust2" class="cluster"><title>cluster_Helper</title>
<polygon fill="none" stroke="black" points="8,-1337 8,-1628 407.441,-1628 407.441,-1337 8,-1337"/>
<text text-anchor="middle" x="207.721" y="-1612.8" font-family="Times,serif" font-size="14.00">[DuckPhp\Helper]</text>
</g>
<g id="clust3" class="cluster"><title>cluster_DB</title>
<polygon fill="none" stroke="black" points="963.271,-8 963.271,-137 1319.86,-137 1319.86,-8 963.271,-8"/>
<text text-anchor="middle" x="1141.56" y="-121.8" font-family="Times,serif" font-size="14.00">[DuckPhp\DB]</text>
</g>
<g id="clust4" class="cluster"><title>cluster_Ext</title>
<polygon fill="none" stroke="black" points="630.728,-145 630.728,-1138 1068.77,-1138 1068.77,-145 630.728,-145"/>
<text text-anchor="middle" x="849.75" y="-1122.8" font-family="Times,serif" font-size="14.00">[DuckPhp\Ext]</text>
</g>
<g id="clust5" class="cluster"><title>cluster_DuckPhp</title>
<polygon fill="none" stroke="black" points="248.053,-490 248.053,-619 403.765,-619 403.765,-490 248.053,-490"/>
<text text-anchor="middle" x="325.909" y="-603.8" font-family="Times,serif" font-size="14.00">[DuckPhp]</text>
</g>
<!-- Core_AppPluginTrait -->
<g id="node1" class="node"><title>Core_AppPluginTrait</title>
<polygon fill="none" stroke="black" points="742.593,-1286 649.923,-1268 742.593,-1250 835.263,-1268 742.593,-1286"/>
<text text-anchor="middle" x="742.593" y="-1264.3" font-family="Times,serif" font-size="14.00">AppPluginTrait</text>
</g>
<!-- Core_View -->
<g id="node7" class="node"><title>Core_View</title>
<polygon fill="none" stroke="black" points="1025.27,-1244 971.271,-1244 971.271,-1240 967.271,-1240 967.271,-1236 971.271,-1236 971.271,-1216 967.271,-1216 967.271,-1212 971.271,-1212 971.271,-1208 1025.27,-1208 1025.27,-1244"/>
<polyline fill="none" stroke="black" points="971.271,-1240 975.271,-1240 975.271,-1236 971.271,-1236 "/>
<polyline fill="none" stroke="black" points="971.271,-1216 975.271,-1216 975.271,-1212 971.271,-1212 "/>
<text text-anchor="middle" x="998.271" y="-1222.3" font-family="Times,serif" font-size="14.00">View</text>
</g>
<!-- Core_AppPluginTrait&#45;&gt;Core_View -->
<g id="edge23" class="edge"><title>Core_AppPluginTrait&#45;&gt;Core_View</title>
<path fill="none" stroke="black" d="M793.107,-1259.8C842.497,-1251.62 917.183,-1239.26 961.212,-1231.97"/>
<polygon fill="black" stroke="black" points="961.887,-1235.41 971.181,-1230.32 960.743,-1228.5 961.887,-1235.41"/>
</g>
<!-- Core_Configer -->
<g id="node8" class="node"><title>Core_Configer</title>
<polygon fill="none" stroke="black" points="1030.77,-1298 965.771,-1298 965.771,-1294 961.771,-1294 961.771,-1290 965.771,-1290 965.771,-1270 961.771,-1270 961.771,-1266 965.771,-1266 965.771,-1262 1030.77,-1262 1030.77,-1298"/>
<polyline fill="none" stroke="black" points="965.771,-1294 969.771,-1294 969.771,-1290 965.771,-1290 "/>
<polyline fill="none" stroke="black" points="965.771,-1270 969.771,-1270 969.771,-1266 965.771,-1266 "/>
<text text-anchor="middle" x="998.271" y="-1276.3" font-family="Times,serif" font-size="14.00">Configer</text>
</g>
<!-- Core_AppPluginTrait&#45;&gt;Core_Configer -->
<g id="edge22" class="edge"><title>Core_AppPluginTrait&#45;&gt;Core_Configer</title>
<path fill="none" stroke="black" d="M817.649,-1271.5C862.564,-1273.63 918.227,-1276.26 955.582,-1278.03"/>
<polygon fill="black" stroke="black" points="955.454,-1281.53 965.608,-1278.5 955.784,-1274.53 955.454,-1281.53"/>
</g>
<!-- Core_Route -->
<g id="node10" class="node"><title>Core_Route</title>
<polygon fill="lightgrey" stroke="black" points="998.271,-1406 953.194,-1388 998.271,-1370 1043.35,-1388 998.271,-1406"/>
<polyline fill="none" stroke="black" points="964.338,-1392.45 964.338,-1383.55 "/>
<polyline fill="none" stroke="black" points="987.127,-1374.45 1009.42,-1374.45 "/>
<polyline fill="none" stroke="black" points="1032.2,-1383.55 1032.2,-1392.45 "/>
<polyline fill="none" stroke="black" points="1009.42,-1401.55 987.127,-1401.55 "/>
<text text-anchor="middle" x="998.271" y="-1384.3" font-family="Times,serif" font-size="14.00">Route</text>
</g>
<!-- Core_AppPluginTrait&#45;&gt;Core_Route -->
<g id="edge24" class="edge"><title>Core_AppPluginTrait&#45;&gt;Core_Route</title>
<path fill="none" stroke="black" d="M791.975,-1276.43C821.391,-1283.27 858.608,-1295.15 886.901,-1315 908.152,-1329.91 901.885,-1345.76 922.901,-1361 933.605,-1368.76 946.775,-1374.51 959.043,-1378.65"/>
<polygon fill="black" stroke="black" points="958.035,-1382 968.624,-1381.64 960.12,-1375.32 958.035,-1382"/>
</g>
<!-- Core_SuperGlobal -->
<g id="node14" class="node"><title>Core_SuperGlobal</title>
<polygon fill="none" stroke="black" points="1040.77,-1352 955.771,-1352 955.771,-1348 951.771,-1348 951.771,-1344 955.771,-1344 955.771,-1324 951.771,-1324 951.771,-1320 955.771,-1320 955.771,-1316 1040.77,-1316 1040.77,-1352"/>
<polyline fill="none" stroke="black" points="955.771,-1348 959.771,-1348 959.771,-1344 955.771,-1344 "/>
<polyline fill="none" stroke="black" points="955.771,-1324 959.771,-1324 959.771,-1320 955.771,-1320 "/>
<text text-anchor="middle" x="998.271" y="-1330.3" font-family="Times,serif" font-size="14.00">SuperGlobal</text>
</g>
<!-- Core_AppPluginTrait&#45;&gt;Core_SuperGlobal -->
<g id="edge25" class="edge"><title>Core_AppPluginTrait&#45;&gt;Core_SuperGlobal</title>
<path fill="none" stroke="black" d="M788.674,-1277.11C817.009,-1283.07 854.252,-1291.34 886.901,-1300 906.285,-1305.14 927.371,-1311.46 945.87,-1317.24"/>
<polygon fill="black" stroke="black" points="944.978,-1320.63 955.568,-1320.3 947.084,-1313.95 944.978,-1320.63"/>
</g>
<!-- Core_App -->
<g id="node2" class="node"><title>Core_App</title>
<polygon fill="lightgrey" stroke="black" points="498.863,-1447 462.329,-1429 498.863,-1411 535.397,-1429 498.863,-1447"/>
<polyline fill="none" stroke="black" points="473.094,-1434.3 473.094,-1423.7 "/>
<polyline fill="none" stroke="black" points="488.099,-1416.3 509.628,-1416.3 "/>
<polyline fill="none" stroke="black" points="524.633,-1423.7 524.633,-1434.3 "/>
<polyline fill="none" stroke="black" points="509.628,-1441.7 488.099,-1441.7 "/>
<text text-anchor="middle" x="498.863" y="-1425.3" font-family="Times,serif" font-size="14.00">App</text>
</g>
<!-- Core_Kernel -->
<g id="node3" class="node"><title>Core_Kernel</title>
<polygon fill="none" stroke="black" points="742.593,-1360 693.661,-1342 742.593,-1324 791.524,-1342 742.593,-1360"/>
<text text-anchor="middle" x="742.593" y="-1338.3" font-family="Times,serif" font-size="14.00">Kernel</text>
</g>
<!-- Core_App&#45;&gt;Core_Kernel -->
<g id="edge9" class="edge"><title>Core_App&#45;&gt;Core_Kernel</title>
<path fill="none" stroke="black" d="M514.867,-1418.78C533.605,-1406.47 567.014,-1385.94 598.285,-1374 630.102,-1361.86 667.739,-1353.67 696.456,-1348.62"/>
<polygon fill="black" stroke="black" points="697.331,-1352.02 706.605,-1346.9 696.161,-1345.12 697.331,-1352.02"/>
</g>
<!-- Core_AutoLoader -->
<g id="node5" class="node"><title>Core_AutoLoader</title>
<polygon fill="lightgrey" stroke="black" points="998.271,-1642 923.029,-1624 998.271,-1606 1073.51,-1624 998.271,-1642"/>
<polyline fill="none" stroke="black" points="934.7,-1626.79 934.7,-1621.21 "/>
<polyline fill="none" stroke="black" points="986.601,-1608.79 1009.94,-1608.79 "/>
<polyline fill="none" stroke="black" points="1061.84,-1621.21 1061.84,-1626.79 "/>
<polyline fill="none" stroke="black" points="1009.94,-1639.21 986.601,-1639.21 "/>
<text text-anchor="middle" x="998.271" y="-1620.3" font-family="Times,serif" font-size="14.00">AutoLoader</text>
</g>
<!-- Core_App&#45;&gt;Core_AutoLoader -->
<g id="edge12" class="edge"><title>Core_App&#45;&gt;Core_AutoLoader</title>
<path fill="none" stroke="black" stroke-dasharray="1,5" d="M509.318,-1441.97C525.113,-1462.49 559.032,-1501.85 598.285,-1519 716.238,-1570.53 774.568,-1480.16 886.901,-1543 910.484,-1556.19 901.748,-1575.18 922.901,-1592 932.261,-1599.44 943.614,-1605.47 954.601,-1610.21"/>
<polygon fill="black" stroke="black" points="953.52,-1613.54 964.103,-1614.04 956.137,-1607.05 953.52,-1613.54"/>
</g>
<!-- Core_ExceptionManager -->
<g id="node6" class="node"><title>Core_ExceptionManager</title>
<polygon fill="none" stroke="black" points="1058.27,-1460 938.271,-1460 938.271,-1456 934.271,-1456 934.271,-1452 938.271,-1452 938.271,-1432 934.271,-1432 934.271,-1428 938.271,-1428 938.271,-1424 1058.27,-1424 1058.27,-1460"/>
<polyline fill="none" stroke="black" points="938.271,-1456 942.271,-1456 942.271,-1452 938.271,-1452 "/>
<polyline fill="none" stroke="black" points="938.271,-1432 942.271,-1432 942.271,-1428 938.271,-1428 "/>
<text text-anchor="middle" x="998.271" y="-1438.3" font-family="Times,serif" font-size="14.00">ExceptionManager</text>
</g>
<!-- Core_App&#45;&gt;Core_ExceptionManager -->
<g id="edge15" class="edge"><title>Core_App&#45;&gt;Core_ExceptionManager</title>
<path fill="none" stroke="black" stroke-dasharray="1,5" d="M518.218,-1420.33C537.611,-1411.68 569.333,-1398.99 598.285,-1394 724.691,-1372.19 763.072,-1360.52 886.901,-1394 904.782,-1398.83 906.127,-1407.14 922.901,-1415 926.679,-1416.77 930.607,-1418.5 934.598,-1420.18"/>
<polygon fill="black" stroke="black" points="933.395,-1423.46 943.978,-1423.98 936.024,-1416.98 933.395,-1423.46"/>
</g>
<!-- Core_App&#45;&gt;Core_View -->
<g id="edge18" class="edge"><title>Core_App&#45;&gt;Core_View</title>
<path fill="none" stroke="black" stroke-dasharray="1,5" d="M508.789,-1415.46C521.741,-1395.42 545.975,-1356.41 562.285,-1321 582.399,-1277.34 559.04,-1246.77 598.285,-1219 655.824,-1178.29 873.961,-1206.72 961.046,-1220.1"/>
<polygon fill="black" stroke="black" points="960.577,-1223.57 970.997,-1221.65 961.656,-1216.65 960.577,-1223.57"/>
</g>
<!-- Core_App&#45;&gt;Core_Configer -->
<g id="edge13" class="edge"><title>Core_App&#45;&gt;Core_Configer</title>
<path fill="none" stroke="black" stroke-dasharray="1,5" d="M508.402,-1415.27C520.871,-1394.99 544.511,-1355.69 562.285,-1321 580.063,-1286.3 565.543,-1262.17 598.285,-1241 652.144,-1206.18 823.686,-1230.16 886.901,-1241 890.572,-1241.63 926.247,-1254.33 956.06,-1265.07"/>
<polygon fill="black" stroke="black" points="954.891,-1268.37 965.485,-1268.47 957.266,-1261.79 954.891,-1268.37"/>
</g>
<!-- Core_Logger -->
<g id="node9" class="node"><title>Core_Logger</title>
<polygon fill="none" stroke="black" points="1026.27,-1514 970.271,-1514 970.271,-1510 966.271,-1510 966.271,-1506 970.271,-1506 970.271,-1486 966.271,-1486 966.271,-1482 970.271,-1482 970.271,-1478 1026.27,-1478 1026.27,-1514"/>
<polyline fill="none" stroke="black" points="970.271,-1510 974.271,-1510 974.271,-1506 970.271,-1506 "/>
<polyline fill="none" stroke="black" points="970.271,-1486 974.271,-1486 974.271,-1482 970.271,-1482 "/>
<text text-anchor="middle" x="998.271" y="-1492.3" font-family="Times,serif" font-size="14.00">Logger</text>
</g>
<!-- Core_App&#45;&gt;Core_Logger -->
<g id="edge14" class="edge"><title>Core_App&#45;&gt;Core_Logger</title>
<path fill="none" stroke="black" stroke-dasharray="1,5" d="M526.57,-1424.51C603.612,-1412.1 824.716,-1380.38 886.901,-1414 912.6,-1427.89 899.996,-1450.86 922.901,-1469 933.692,-1477.55 947.431,-1483.54 960.156,-1487.67"/>
<polygon fill="black" stroke="black" points="959.487,-1491.12 970.069,-1490.59 961.468,-1484.4 959.487,-1491.12"/>
</g>
<!-- Core_App&#45;&gt;Core_Route -->
<g id="edge16" class="edge"><title>Core_App&#45;&gt;Core_Route</title>
<path fill="none" stroke="black" stroke-dasharray="1,5" d="M510.806,-1441.18C527.58,-1458.83 561.584,-1490.74 598.285,-1503 659.119,-1523.32 833.651,-1538.75 886.901,-1503 921.985,-1479.45 892.427,-1444.28 922.901,-1415 932.032,-1406.23 944.231,-1400.27 956.105,-1396.24"/>
<polygon fill="black" stroke="black" points="957.357,-1399.52 965.927,-1393.29 955.343,-1392.82 957.357,-1399.52"/>
</g>
<!-- Core_RuntimeState -->
<g id="node11" class="node"><title>Core_RuntimeState</title>
<polygon fill="none" stroke="black" points="1043.77,-1568 952.771,-1568 952.771,-1564 948.771,-1564 948.771,-1560 952.771,-1560 952.771,-1540 948.771,-1540 948.771,-1536 952.771,-1536 952.771,-1532 1043.77,-1532 1043.77,-1568"/>
<polyline fill="none" stroke="black" points="952.771,-1564 956.771,-1564 956.771,-1560 952.771,-1560 "/>
<polyline fill="none" stroke="black" points="952.771,-1540 956.771,-1540 956.771,-1536 952.771,-1536 "/>
<text text-anchor="middle" x="998.271" y="-1546.3" font-family="Times,serif" font-size="14.00">RuntimeState</text>
</g>
<!-- Core_App&#45;&gt;Core_RuntimeState -->
<g id="edge17" class="edge"><title>Core_App&#45;&gt;Core_RuntimeState</title>
<path fill="none" stroke="black" stroke-dasharray="1,5" d="M532.222,-1427.4C620.007,-1423.33 858.019,-1414.26 886.901,-1434 922.125,-1458.08 892.189,-1493.38 922.901,-1523 928.67,-1528.57 935.675,-1533 943.05,-1536.52"/>
<polygon fill="black" stroke="black" points="941.953,-1539.86 952.527,-1540.52 944.673,-1533.41 941.953,-1539.86"/>
</g>
<!-- Core_SystemWrapperTrait -->
<g id="node12" class="node"><title>Core_SystemWrapperTrait</title>
<polygon fill="none" stroke="black" points="742.593,-1494 622.274,-1476 742.593,-1458 862.912,-1476 742.593,-1494"/>
<text text-anchor="middle" x="742.593" y="-1472.3" font-family="Times,serif" font-size="14.00">SystemWrapperTrait</text>
</g>
<!-- Core_App&#45;&gt;Core_SystemWrapperTrait -->
<g id="edge11" class="edge"><title>Core_App&#45;&gt;Core_SystemWrapperTrait</title>
<path fill="none" stroke="black" d="M525.733,-1434.03C562.081,-1441.1 629.396,-1454.19 679.228,-1463.87"/>
<polygon fill="black" stroke="black" points="678.778,-1467.35 689.262,-1465.83 680.114,-1460.48 678.778,-1467.35"/>
</g>
<!-- Core_App&#45;&gt;Core_SuperGlobal -->
<g id="edge19" class="edge"><title>Core_App&#45;&gt;Core_SuperGlobal</title>
<path fill="none" stroke="black" stroke-dasharray="1,5" d="M506.894,-1414.7C520.439,-1389.01 552.876,-1335.79 598.285,-1315 656.602,-1288.3 822.997,-1309.54 886.901,-1315 906.189,-1316.65 927.168,-1319.89 945.606,-1323.23"/>
<polygon fill="black" stroke="black" points="945.088,-1326.7 955.561,-1325.09 946.373,-1319.82 945.088,-1326.7"/>
</g>
<!-- Core_ExtendableStaticCallTrait -->
<g id="node15" class="node"><title>Core_ExtendableStaticCallTrait</title>
<polygon fill="none" stroke="black" points="742.593,-1642 598.477,-1624 742.593,-1606 886.708,-1624 742.593,-1642"/>
<text text-anchor="middle" x="742.593" y="-1620.3" font-family="Times,serif" font-size="14.00">ExtendableStaticCallTrait</text>
</g>
<!-- Core_App&#45;&gt;Core_ExtendableStaticCallTrait -->
<g id="edge10" class="edge"><title>Core_App&#45;&gt;Core_ExtendableStaticCallTrait</title>
<path fill="none" stroke="black" d="M504.148,-1444.52C514.32,-1478.24 543.285,-1558.27 598.285,-1597 609.779,-1605.09 623.028,-1610.95 636.73,-1615.15"/>
<polygon fill="black" stroke="black" points="636.198,-1618.63 646.769,-1617.93 638.065,-1611.89 636.198,-1618.63"/>
</g>
<!-- Core_ComponentBase -->
<g id="node18" class="node"><title>Core_ComponentBase</title>
<polygon fill="none" stroke="black" points="1264.25,-1190 1161.25,-1190 1157.25,-1186 1157.25,-1154 1260.25,-1154 1264.25,-1158 1264.25,-1190"/>
<polyline fill="none" stroke="black" points="1260.25,-1186 1157.25,-1186 "/>
<polyline fill="none" stroke="black" points="1260.25,-1186 1260.25,-1154 "/>
<polyline fill="none" stroke="black" points="1260.25,-1186 1264.25,-1190 "/>
<text text-anchor="middle" x="1210.75" y="-1168.3" font-family="Times,serif" font-size="14.00">ComponentBase</text>
</g>
<!-- Core_App&#45;&gt;Core_ComponentBase -->
<g id="edge21" class="edge"><title>Core_App&#45;&gt;Core_ComponentBase</title>
<path fill="none" stroke="black" stroke-dasharray="1,5" d="M532.528,-1430.44C625.219,-1434.55 883.451,-1446.24 886.901,-1449 933.069,-1485.89 875.795,-1541.32 922.901,-1577 949.602,-1597.23 1046.44,-1596.55 1073.64,-1577 1198.5,-1487.24 1210.39,-1277.27 1210.4,-1200.64"/>
<polygon fill="black" stroke="black" points="1213.9,-1200.31 1210.33,-1190.34 1206.9,-1200.36 1213.9,-1200.31"/>
</g>
<!-- Core_Functions -->
<g id="node19" class="node"><title>Core_Functions</title>
<ellipse fill="none" stroke="black" cx="742.593" cy="-1570" rx="45.4919" ry="18"/>
<text text-anchor="middle" x="742.593" y="-1566.3" font-family="Times,serif" font-size="14.00">Functions</text>
</g>
<!-- Core_App&#45;&gt;Core_Functions -->
<g id="edge20" class="edge"><title>Core_App&#45;&gt;Core_Functions</title>
<path fill="none" stroke="black" stroke-dasharray="1,5" d="M508.006,-1442.5C522.851,-1465.88 556.66,-1513.72 598.285,-1538 625.252,-1553.73 659.212,-1561.73 687.304,-1565.8"/>
<polygon fill="black" stroke="black" points="686.992,-1569.29 697.364,-1567.13 687.909,-1562.35 686.992,-1569.29"/>
</g>
<!-- Core_Kernel&#45;&gt;Core_AutoLoader -->
<g id="edge1" class="edge"><title>Core_Kernel&#45;&gt;Core_AutoLoader</title>
<path fill="none" stroke="black" d="M764.574,-1351.98C795.973,-1367.99 854.908,-1402.42 886.901,-1449 920.357,-1497.71 887.576,-1529.62 922.901,-1577 932.544,-1589.93 946.89,-1600.2 960.417,-1607.79"/>
<polygon fill="black" stroke="black" points="959.105,-1611.05 969.583,-1612.62 962.368,-1604.86 959.105,-1611.05"/>
</g>
<!-- Core_Kernel&#45;&gt;Core_ExceptionManager -->
<g id="edge4" class="edge"><title>Core_Kernel&#45;&gt;Core_ExceptionManager</title>
<path fill="none" stroke="black" d="M785.011,-1344.41C815.072,-1347.72 855.759,-1355.55 886.901,-1374 907.762,-1386.36 902.876,-1401.32 922.901,-1415 925.034,-1416.46 927.256,-1417.85 929.542,-1419.17"/>
<polygon fill="black" stroke="black" points="928.141,-1422.39 938.62,-1423.95 931.401,-1416.19 928.141,-1422.39"/>
</g>
<!-- Core_Kernel&#45;&gt;Core_View -->
<g id="edge7" class="edge"><title>Core_Kernel&#45;&gt;Core_View</title>
<path fill="none" stroke="black" d="M776.569,-1336.48C807.16,-1330.19 852.949,-1317.71 886.901,-1295 907.336,-1281.33 902.682,-1266.99 922.901,-1253 934.31,-1245.11 948.293,-1239.24 961.043,-1235.03"/>
<polygon fill="black" stroke="black" points="962.395,-1238.27 970.931,-1232 960.344,-1231.58 962.395,-1238.27"/>
</g>
<!-- Core_Kernel&#45;&gt;Core_Configer -->
<g id="edge2" class="edge"><title>Core_Kernel&#45;&gt;Core_Configer</title>
<path fill="none" stroke="black" d="M772.693,-1334.89C817.714,-1323.88 904.421,-1302.69 955.93,-1290.1"/>
<polygon fill="black" stroke="black" points="956.857,-1293.48 965.74,-1287.71 955.195,-1286.68 956.857,-1293.48"/>
</g>
<!-- Core_Kernel&#45;&gt;Core_Logger -->
<g id="edge3" class="edge"><title>Core_Kernel&#45;&gt;Core_Logger</title>
<path fill="none" stroke="black" d="M778.403,-1346.98C810.069,-1353.13 856.388,-1366.38 886.901,-1394 914.312,-1418.81 895.491,-1444.18 922.901,-1469 933.368,-1478.48 947.421,-1484.7 960.492,-1488.75"/>
<polygon fill="black" stroke="black" points="959.649,-1492.14 970.22,-1491.44 961.516,-1485.4 959.649,-1492.14"/>
</g>
<!-- Core_Kernel&#45;&gt;Core_Route -->
<g id="edge5" class="edge"><title>Core_Kernel&#45;&gt;Core_Route</title>
<path fill="none" stroke="black" d="M775.721,-1347.83C821.747,-1356.17 906.427,-1371.53 956.712,-1380.65"/>
<polygon fill="black" stroke="black" points="956.127,-1384.1 966.591,-1382.44 957.376,-1377.21 956.127,-1384.1"/>
</g>
<!-- Core_Kernel&#45;&gt;Core_RuntimeState -->
<g id="edge6" class="edge"><title>Core_Kernel&#45;&gt;Core_RuntimeState</title>
<path fill="none" stroke="black" d="M772.206,-1349.21C804.48,-1358.77 856.426,-1378.7 886.901,-1414 920.237,-1452.62 887.357,-1486.4 922.901,-1523 928.553,-1528.82 935.555,-1533.39 942.985,-1536.98"/>
<polygon fill="black" stroke="black" points="941.98,-1540.36 952.554,-1541.02 944.704,-1533.91 941.98,-1540.36"/>
</g>
<!-- Core_Kernel&#45;&gt;Core_SuperGlobal -->
<g id="edge8" class="edge"><title>Core_Kernel&#45;&gt;Core_SuperGlobal</title>
<path fill="none" stroke="black" d="M787.78,-1340.61C831.727,-1339.22 899.121,-1337.1 945.539,-1335.63"/>
<polygon fill="black" stroke="black" points="945.808,-1339.12 955.692,-1335.31 945.587,-1332.13 945.808,-1339.12"/>
</g>
<!-- Core_SingletonEx -->
<g id="node4" class="node"><title>Core_SingletonEx</title>
<polygon fill="lightgrey" stroke="black" points="1424.15,-1443 1348.07,-1425 1424.15,-1407 1500.23,-1425 1424.15,-1443"/>
<polyline fill="none" stroke="black" points="1359.74,-1427.76 1359.74,-1422.24 "/>
<polyline fill="none" stroke="black" points="1412.47,-1409.76 1435.82,-1409.76 "/>
<polyline fill="none" stroke="black" points="1488.55,-1422.24 1488.55,-1427.76 "/>
<polyline fill="none" stroke="black" points="1435.82,-1440.24 1412.47,-1440.24 "/>
<text text-anchor="middle" x="1424.15" y="-1421.3" font-family="Times,serif" font-size="14.00">SingletonEx</text>
</g>
<!-- Core_ExceptionManager&#45;&gt;Core_ComponentBase -->
<g id="edge26" class="edge"><title>Core_ExceptionManager&#45;&gt;Core_ComponentBase</title>
<path fill="none" stroke="black" stroke-dasharray="1,5" d="M1058.33,-1425.17C1063.82,-1422.28 1069.04,-1418.91 1073.64,-1415 1143.83,-1355.37 1184.91,-1249.97 1201.35,-1199.91"/>
<polygon fill="black" stroke="black" points="1204.78,-1200.69 1204.49,-1190.1 1198.11,-1198.56 1204.78,-1200.69"/>
</g>
<!-- Core_View&#45;&gt;Core_ComponentBase -->
<g id="edge31" class="edge"><title>Core_View&#45;&gt;Core_ComponentBase</title>
<path fill="none" stroke="black" stroke-dasharray="1,5" d="M1025.5,-1219.27C1055.74,-1211.51 1106.48,-1198.49 1147.07,-1188.08"/>
<polygon fill="black" stroke="black" points="1148.07,-1191.44 1156.88,-1185.56 1146.33,-1184.66 1148.07,-1191.44"/>
</g>
<!-- Core_Configer&#45;&gt;Core_ComponentBase -->
<g id="edge27" class="edge"><title>Core_Configer&#45;&gt;Core_ComponentBase</title>
<path fill="none" stroke="black" stroke-dasharray="1,5" d="M1030.93,-1269.98C1044.34,-1265.37 1059.99,-1259.47 1073.64,-1253 1109.14,-1236.18 1147.4,-1212.91 1174.29,-1195.62"/>
<polygon fill="black" stroke="black" points="1176.46,-1198.39 1182.95,-1190.01 1172.66,-1192.51 1176.46,-1198.39"/>
</g>
<!-- Core_Logger&#45;&gt;Core_ComponentBase -->
<g id="edge32" class="edge"><title>Core_Logger&#45;&gt;Core_ComponentBase</title>
<path fill="none" stroke="black" stroke-dasharray="1,5" d="M1026.4,-1491.52C1041.83,-1487.77 1060.61,-1481.01 1073.64,-1469 1155.7,-1393.37 1192.02,-1258.56 1204.44,-1200.21"/>
<polygon fill="black" stroke="black" points="1207.9,-1200.73 1206.49,-1190.23 1201.05,-1199.33 1207.9,-1200.73"/>
</g>
<!-- Core_Route&#45;&gt;Core_ComponentBase -->
<g id="edge28" class="edge"><title>Core_Route&#45;&gt;Core_ComponentBase</title>
<path fill="none" stroke="black" stroke-dasharray="1,5" d="M1028.08,-1381.86C1042.76,-1377.71 1060.28,-1371.11 1073.64,-1361 1132.31,-1316.63 1176.33,-1239.88 1196.89,-1199.18"/>
<polygon fill="black" stroke="black" points="1200.08,-1200.63 1201.38,-1190.12 1193.8,-1197.52 1200.08,-1200.63"/>
</g>
<!-- Core_RuntimeState&#45;&gt;Core_ComponentBase -->
<g id="edge30" class="edge"><title>Core_RuntimeState&#45;&gt;Core_ComponentBase</title>
<path fill="none" stroke="black" stroke-dasharray="1,5" d="M1044.09,-1540.6C1054.81,-1536.62 1065.49,-1530.97 1073.64,-1523 1167.9,-1430.77 1198.12,-1265.89 1206.7,-1200.17"/>
<polygon fill="black" stroke="black" points="1210.19,-1200.49 1207.94,-1190.14 1203.24,-1199.64 1210.19,-1200.49"/>
</g>
<!-- Core_HttpServer -->
<g id="node13" class="node"><title>Core_HttpServer</title>
<polygon fill="lightgrey" stroke="black" points="998.271,-1190 928.559,-1172 998.271,-1154 1067.98,-1172 998.271,-1190"/>
<polyline fill="none" stroke="black" points="940.178,-1175 940.178,-1169 "/>
<polyline fill="none" stroke="black" points="986.652,-1157 1009.89,-1157 "/>
<polyline fill="none" stroke="black" points="1056.36,-1169 1056.36,-1175 "/>
<polyline fill="none" stroke="black" points="1009.89,-1187 986.652,-1187 "/>
<text text-anchor="middle" x="998.271" y="-1168.3" font-family="Times,serif" font-size="14.00">HttpServer</text>
</g>
<!-- Core_HttpServer&#45;&gt;Core_ComponentBase -->
<g id="edge33" class="edge"><title>Core_HttpServer&#45;&gt;Core_ComponentBase</title>
<path fill="none" stroke="black" stroke-dasharray="1,5" d="M1068.19,-1172C1093.58,-1172 1122.2,-1172 1147.02,-1172"/>
<polygon fill="black" stroke="black" points="1147.04,-1175.5 1157.04,-1172 1147.04,-1168.5 1147.04,-1175.5"/>
</g>
<!-- Core_SuperGlobal&#45;&gt;Core_ComponentBase -->
<g id="edge29" class="edge"><title>Core_SuperGlobal&#45;&gt;Core_ComponentBase</title>
<path fill="none" stroke="black" stroke-dasharray="1,5" d="M1040.9,-1322.46C1052,-1318.44 1063.66,-1313.32 1073.64,-1307 1120.93,-1277.04 1164.83,-1228.18 1189.38,-1198.18"/>
<polygon fill="black" stroke="black" points="1192.23,-1200.23 1195.78,-1190.25 1186.78,-1195.83 1192.23,-1200.23"/>
</g>
<!-- Core_ThrowOn -->
<g id="node16" class="node"><title>Core_ThrowOn</title>
<polygon fill="lightgrey" stroke="black" points="498.863,-1312 435.519,-1294 498.863,-1276 562.207,-1294 498.863,-1312"/>
<polyline fill="none" stroke="black" points="447.063,-1297.28 447.063,-1290.72 "/>
<polyline fill="none" stroke="black" points="487.32,-1279.28 510.406,-1279.28 "/>
<polyline fill="none" stroke="black" points="550.664,-1290.72 550.664,-1297.28 "/>
<polyline fill="none" stroke="black" points="510.406,-1308.72 487.32,-1308.72 "/>
<text text-anchor="middle" x="498.863" y="-1290.3" font-family="Times,serif" font-size="14.00">ThrowOn</text>
</g>
<!-- Core_ComponentInterface -->
<g id="node17" class="node"><title>Core_ComponentInterface</title>
<polygon fill="none" stroke="black" points="1482.15,-1190 1360.15,-1190 1360.15,-1154 1488.15,-1154 1488.15,-1184 1482.15,-1190"/>
<polyline fill="none" stroke="black" points="1482.15,-1190 1482.15,-1184 "/>
<polyline fill="none" stroke="black" points="1488.15,-1184 1482.15,-1184 "/>
<text text-anchor="middle" x="1424.15" y="-1168.3" font-family="Times,serif" font-size="14.00">ComponentInterface</text>
</g>
<!-- Core_ComponentBase&#45;&gt;Core_SingletonEx -->
<g id="edge35" class="edge"><title>Core_ComponentBase&#45;&gt;Core_SingletonEx</title>
<path fill="none" stroke="black" d="M1226.95,-1190.2C1264.63,-1235.29 1362.27,-1352.15 1403.9,-1401.96"/>
<polygon fill="black" stroke="black" points="1401.44,-1404.48 1410.53,-1409.91 1406.81,-1399.99 1401.44,-1404.48"/>
</g>
<!-- Core_ComponentBase&#45;&gt;Core_ComponentInterface -->
<g id="edge34" class="edge"><title>Core_ComponentBase&#45;&gt;Core_ComponentInterface</title>
<path fill="none" stroke="black" d="M1264.28,-1172C1290.09,-1172 1321.62,-1172 1349.77,-1172"/>
<polygon fill="black" stroke="black" points="1349.97,-1175.5 1359.97,-1172 1349.97,-1168.5 1349.97,-1175.5"/>
</g>
<!-- AppHelper -->
<g id="node20" class="node"><title>AppHelper</title>
<polygon fill="lightgrey" stroke="black" points="116.188,-1597 45.6372,-1579 116.188,-1561 186.739,-1579 116.188,-1597"/>
<polyline fill="none" stroke="black" points="57.2647,-1581.97 57.2647,-1576.03 "/>
<polyline fill="none" stroke="black" points="104.561,-1563.97 127.816,-1563.97 "/>
<polyline fill="none" stroke="black" points="175.112,-1576.03 175.112,-1581.97 "/>
<polyline fill="none" stroke="black" points="127.816,-1594.03 104.561,-1594.03 "/>
<text text-anchor="middle" x="116.188" y="-1575.3" font-family="Times,serif" font-size="14.00">AppHelper</text>
</g>
<!-- AppHelper&#45;&gt;Core_App -->
<g id="edge36" class="edge"><title>AppHelper&#45;&gt;Core_App</title>
<path fill="none" stroke="black" d="M151.711,-1569.97C170.823,-1564.87 194.973,-1558.29 216.376,-1552 230.541,-1547.84 233.92,-1546.27 248.053,-1542 318.633,-1520.68 341.353,-1528.69 407.441,-1496 433.629,-1483.05 460.074,-1462.37 477.541,-1447.41"/>
<polygon fill="black" stroke="black" points="480.126,-1449.79 485.354,-1440.58 475.521,-1444.52 480.126,-1449.79"/>
</g>
<!-- HelperTrait -->
<g id="node25" class="node"><title>HelperTrait</title>
<polygon fill="none" stroke="black" points="325.909,-1587 252.344,-1569 325.909,-1551 399.474,-1569 325.909,-1587"/>
<text text-anchor="middle" x="325.909" y="-1565.3" font-family="Times,serif" font-size="14.00">HelperTrait</text>
</g>
<!-- AppHelper&#45;&gt;HelperTrait -->
<g id="edge44" class="edge"><title>AppHelper&#45;&gt;HelperTrait</title>
<path fill="none" stroke="black" d="M175.88,-1576.17C200.132,-1575.01 228.465,-1573.64 253.875,-1572.42"/>
<polygon fill="black" stroke="black" points="254.374,-1575.9 264.194,-1571.92 254.037,-1568.91 254.374,-1575.9"/>
</g>
<!-- ControllerHelper -->
<g id="node21" class="node"><title>ControllerHelper</title>
<polygon fill="lightgrey" stroke="black" points="116.188,-1543 15.8115,-1525 116.188,-1507 216.565,-1525 116.188,-1543"/>
<polyline fill="none" stroke="black" points="27.6231,-1527.12 27.6231,-1522.88 "/>
<polyline fill="none" stroke="black" points="104.377,-1509.12 128,-1509.12 "/>
<polyline fill="none" stroke="black" points="204.753,-1522.88 204.753,-1527.12 "/>
<polyline fill="none" stroke="black" points="128,-1540.88 104.377,-1540.88 "/>
<text text-anchor="middle" x="116.188" y="-1521.3" font-family="Times,serif" font-size="14.00">ControllerHelper</text>
</g>
<!-- ControllerHelper&#45;&gt;Core_App -->
<g id="edge37" class="edge"><title>ControllerHelper&#45;&gt;Core_App</title>
<path fill="none" stroke="black" d="M167.786,-1516.18C226.116,-1505.52 324.602,-1485.99 407.441,-1462 428.24,-1455.98 451.148,-1447.6 468.703,-1440.79"/>
<polygon fill="black" stroke="black" points="470.337,-1443.91 478.363,-1436.99 467.776,-1437.39 470.337,-1443.91"/>
</g>
<!-- ControllerHelper&#45;&gt;HelperTrait -->
<g id="edge45" class="edge"><title>ControllerHelper&#45;&gt;HelperTrait</title>
<path fill="none" stroke="black" d="M162.773,-1534.66C196.252,-1541.75 241.674,-1551.37 275.926,-1558.62"/>
<polygon fill="black" stroke="black" points="275.212,-1562.05 285.72,-1560.7 276.662,-1555.2 275.212,-1562.05"/>
</g>
<!-- ModelHelper -->
<g id="node22" class="node"><title>ModelHelper</title>
<polygon fill="lightgrey" stroke="black" points="116.188,-1489 34.5777,-1471 116.188,-1453 197.799,-1471 116.188,-1489"/>
<polyline fill="none" stroke="black" points="46.296,-1473.58 46.296,-1468.42 "/>
<polyline fill="none" stroke="black" points="104.47,-1455.58 127.906,-1455.58 "/>
<polyline fill="none" stroke="black" points="186.08,-1468.42 186.08,-1473.58 "/>
<polyline fill="none" stroke="black" points="127.906,-1486.42 104.47,-1486.42 "/>
<text text-anchor="middle" x="116.188" y="-1467.3" font-family="Times,serif" font-size="14.00">ModelHelper</text>
</g>
<!-- ModelHelper&#45;&gt;Core_App -->
<g id="edge38" class="edge"><title>ModelHelper&#45;&gt;Core_App</title>
<path fill="none" stroke="black" d="M170.922,-1465.07C248.509,-1456.51 390.099,-1440.89 458.63,-1433.33"/>
<polygon fill="black" stroke="black" points="459.032,-1436.81 468.588,-1432.23 458.264,-1429.85 459.032,-1436.81"/>
</g>
<!-- ModelHelper&#45;&gt;HelperTrait -->
<g id="edge46" class="edge"><title>ModelHelper&#45;&gt;HelperTrait</title>
<path fill="none" stroke="black" d="M159.704,-1479.47C177.64,-1483.83 198.471,-1489.95 216.376,-1498 246.879,-1511.71 278.523,-1533.42 299.715,-1549.22"/>
<polygon fill="black" stroke="black" points="297.764,-1552.13 307.849,-1555.38 301.99,-1546.55 297.764,-1552.13"/>
</g>
<!-- ServiceHelper -->
<g id="node23" class="node"><title>ServiceHelper</title>
<polygon fill="lightgrey" stroke="black" points="116.188,-1435 29.8865,-1417 116.188,-1399 202.49,-1417 116.188,-1435"/>
<polyline fill="none" stroke="black" points="41.6337,-1419.45 41.6337,-1414.55 "/>
<polyline fill="none" stroke="black" points="104.441,-1401.45 127.935,-1401.45 "/>
<polyline fill="none" stroke="black" points="190.743,-1414.55 190.743,-1419.45 "/>
<polyline fill="none" stroke="black" points="127.935,-1432.55 104.441,-1432.55 "/>
<text text-anchor="middle" x="116.188" y="-1413.3" font-family="Times,serif" font-size="14.00">ServiceHelper</text>
</g>
<!-- ServiceHelper&#45;&gt;Core_App -->
<g id="edge39" class="edge"><title>ServiceHelper&#45;&gt;Core_App</title>
<path fill="none" stroke="black" d="M191.49,-1419.34C269.581,-1421.8 389.811,-1425.59 453.97,-1427.62"/>
<polygon fill="black" stroke="black" points="454.042,-1431.12 464.147,-1427.94 454.263,-1424.12 454.042,-1431.12"/>
</g>
<!-- ServiceHelper&#45;&gt;HelperTrait -->
<g id="edge47" class="edge"><title>ServiceHelper&#45;&gt;HelperTrait</title>
<path fill="none" stroke="black" d="M166.719,-1424.47C183.374,-1428.5 201.49,-1434.65 216.376,-1444 257.664,-1469.93 291.891,-1516.38 310.284,-1544.78"/>
<polygon fill="black" stroke="black" points="307.382,-1546.73 315.689,-1553.31 313.296,-1542.99 307.382,-1546.73"/>
</g>
<!-- ViewHelper -->
<g id="node24" class="node"><title>ViewHelper</title>
<polygon fill="lightgrey" stroke="black" points="116.188,-1381 40.1075,-1363 116.188,-1345 192.269,-1363 116.188,-1381"/>
<polyline fill="none" stroke="black" points="51.7851,-1365.76 51.7851,-1360.24 "/>
<polyline fill="none" stroke="black" points="104.511,-1347.76 127.866,-1347.76 "/>
<polyline fill="none" stroke="black" points="180.591,-1360.24 180.591,-1365.76 "/>
<polyline fill="none" stroke="black" points="127.866,-1378.24 104.511,-1378.24 "/>
<text text-anchor="middle" x="116.188" y="-1359.3" font-family="Times,serif" font-size="14.00">ViewHelper</text>
</g>
<!-- ViewHelper&#45;&gt;Core_App -->
<g id="edge40" class="edge"><title>ViewHelper&#45;&gt;Core_App</title>
<path fill="none" stroke="black" d="M160.856,-1370.57C236.46,-1383.68 390.401,-1410.37 460.994,-1422.61"/>
<polygon fill="black" stroke="black" points="460.734,-1426.11 471.185,-1424.37 461.93,-1419.22 460.734,-1426.11"/>
</g>
<!-- ViewHelper&#45;&gt;HelperTrait -->
<g id="edge48" class="edge"><title>ViewHelper&#45;&gt;HelperTrait</title>
<path fill="none" stroke="black" d="M167.172,-1368.95C184.053,-1372.86 202.194,-1379.31 216.376,-1390 269.131,-1429.75 301.685,-1503.29 316.13,-1542.6"/>
<polygon fill="black" stroke="black" points="312.92,-1544.02 319.57,-1552.27 319.516,-1541.67 312.92,-1544.02"/>
</g>
<!-- HelperTrait&#45;&gt;Core_App -->
<g id="edge42" class="edge"><title>HelperTrait&#45;&gt;Core_App</title>
<path fill="none" stroke="black" d="M361.325,-1559.52C376.359,-1554.36 393.665,-1546.96 407.441,-1537 440.126,-1513.37 468.227,-1475.36 484.084,-1451.31"/>
<polygon fill="black" stroke="black" points="487.072,-1453.13 489.546,-1442.83 481.187,-1449.34 487.072,-1453.13"/>
</g>
<!-- HelperTrait&#45;&gt;Core_SingletonEx -->
<g id="edge41" class="edge"><title>HelperTrait&#45;&gt;Core_SingletonEx</title>
<path fill="none" stroke="black" d="M354.012,-1580.39C419.407,-1606.8 591.544,-1670 741.593,-1670 741.593,-1670 741.593,-1670 999.271,-1670 1176.2,-1670 1345.64,-1508.02 1402.8,-1447.48"/>
<polygon fill="black" stroke="black" points="1405.55,-1449.66 1409.81,-1439.96 1400.43,-1444.88 1405.55,-1449.66"/>
</g>
<!-- HelperTrait&#45;&gt;Core_ExtendableStaticCallTrait -->
<g id="edge43" class="edge"><title>HelperTrait&#45;&gt;Core_ExtendableStaticCallTrait</title>
<path fill="none" stroke="black" d="M374.075,-1575.26C444.145,-1584.55 576.618,-1602.12 661.91,-1613.43"/>
<polygon fill="black" stroke="black" points="661.697,-1616.93 672.07,-1614.78 662.617,-1609.99 661.697,-1616.93"/>
</g>
<!-- DB_DB -->
<g id="node26" class="node"><title>DB_DB</title>
<ellipse fill="none" stroke="black" cx="998.271" cy="-88" rx="27" ry="18"/>
<text text-anchor="middle" x="998.271" y="-84.3" font-family="Times,serif" font-size="14.00">DB</text>
</g>
<!-- DB_DBAdvanceTrait -->
<g id="node27" class="node"><title>DB_DBAdvanceTrait</title>
<polygon fill="none" stroke="black" points="1210.75,-52 1109.53,-34 1210.75,-16 1311.96,-34 1210.75,-52"/>
<text text-anchor="middle" x="1210.75" y="-30.3" font-family="Times,serif" font-size="14.00">DBAdvanceTrait</text>
</g>
<!-- DB_DB&#45;&gt;DB_DBAdvanceTrait -->
<g id="edge49" class="edge"><title>DB_DB&#45;&gt;DB_DBAdvanceTrait</title>
<path fill="none" stroke="black" d="M1023.83,-81.6998C1056.66,-73.2774 1115.66,-58.139 1158.41,-47.1709"/>
<polygon fill="black" stroke="black" points="1159.54,-50.4944 1168.36,-44.6191 1157.8,-43.714 1159.54,-50.4944"/>
</g>
<!-- DB_DBInterface -->
<g id="node28" class="node"><title>DB_DBInterface</title>
<polygon fill="none" stroke="black" points="1246.25,-106 1169.25,-106 1169.25,-70 1252.25,-70 1252.25,-100 1246.25,-106"/>
<polyline fill="none" stroke="black" points="1246.25,-106 1246.25,-100 "/>
<polyline fill="none" stroke="black" points="1252.25,-100 1246.25,-100 "/>
<text text-anchor="middle" x="1210.75" y="-84.3" font-family="Times,serif" font-size="14.00">DBInterface</text>
</g>
<!-- DB_DB&#45;&gt;DB_DBInterface -->
<g id="edge50" class="edge"><title>DB_DB&#45;&gt;DB_DBInterface</title>
<path fill="none" stroke="black" d="M1025.5,-88C1058.79,-88 1116.94,-88 1159.02,-88"/>
<polygon fill="black" stroke="black" points="1159.08,-91.5001 1169.08,-88 1159.08,-84.5001 1159.08,-91.5001"/>
</g>
<!-- CallableView -->
<g id="node29" class="node"><title>CallableView</title>
<polygon fill="none" stroke="black" points="788.093,-1107 697.093,-1107 697.093,-1103 693.093,-1103 693.093,-1099 697.093,-1099 697.093,-1079 693.093,-1079 693.093,-1075 697.093,-1075 697.093,-1071 788.093,-1071 788.093,-1107"/>
<polyline fill="none" stroke="black" points="697.093,-1103 701.093,-1103 701.093,-1099 697.093,-1099 "/>
<polyline fill="none" stroke="black" points="697.093,-1079 701.093,-1079 701.093,-1075 697.093,-1075 "/>
<text text-anchor="middle" x="742.593" y="-1085.3" font-family="Times,serif" font-size="14.00">CallableView</text>
</g>
<!-- CallableView&#45;&gt;Core_View -->
<g id="edge52" class="edge"><title>CallableView&#45;&gt;Core_View</title>
<path fill="none" stroke="black" d="M788.407,-1097.63C818.749,-1105.26 858.353,-1118.87 886.901,-1142 910.183,-1160.86 899.562,-1180.21 922.901,-1199 933.984,-1207.92 948.276,-1214.05 961.365,-1218.17"/>
<polygon fill="black" stroke="black" points="960.488,-1221.56 971.066,-1220.95 962.417,-1214.84 960.488,-1221.56"/>
</g>
<!-- Cache -->
<g id="node30" class="node"><title>Cache</title>
<polygon fill="none" stroke="black" points="769.593,-351 715.593,-351 715.593,-347 711.593,-347 711.593,-343 715.593,-343 715.593,-323 711.593,-323 711.593,-319 715.593,-319 715.593,-315 769.593,-315 769.593,-351"/>
<polyline fill="none" stroke="black" points="715.593,-347 719.593,-347 719.593,-343 715.593,-343 "/>
<polyline fill="none" stroke="black" points="715.593,-323 719.593,-323 719.593,-319 715.593,-319 "/>
<text text-anchor="middle" x="742.593" y="-329.3" font-family="Times,serif" font-size="14.00">Cache</text>
</g>
<!-- Cache&#45;&gt;Core_ComponentBase -->
<g id="edge66" class="edge"><title>Cache&#45;&gt;Core_ComponentBase</title>
<path fill="none" stroke="black" stroke-dasharray="1,5" d="M769.715,-326.852C831.729,-313.955 988.948,-291.511 1073.64,-372 1188.25,-480.922 1206.52,-1013.85 1209.28,-1143.52"/>
<polygon fill="black" stroke="black" points="1205.79,-1143.88 1209.48,-1153.81 1212.78,-1143.74 1205.79,-1143.88"/>
</g>
<!-- DBManager -->
<g id="node31" class="node"><title>DBManager</title>
<polygon fill="none" stroke="black" points="784.593,-189 700.593,-189 700.593,-185 696.593,-185 696.593,-181 700.593,-181 700.593,-161 696.593,-161 696.593,-157 700.593,-157 700.593,-153 784.593,-153 784.593,-189"/>
<polyline fill="none" stroke="black" points="700.593,-185 704.593,-185 704.593,-181 700.593,-181 "/>
<polyline fill="none" stroke="black" points="700.593,-161 704.593,-161 704.593,-157 700.593,-157 "/>
<text text-anchor="middle" x="742.593" y="-167.3" font-family="Times,serif" font-size="14.00">DBManager</text>
</g>
<!-- DBManager&#45;&gt;Core_ComponentBase -->
<g id="edge73" class="edge"><title>DBManager&#45;&gt;Core_ComponentBase</title>
<path fill="none" stroke="black" stroke-dasharray="1,5" d="M784.782,-160.373C854.411,-145.137 995.423,-126.494 1073.64,-201 1144.13,-268.144 1197.33,-990.641 1207.85,-1143.64"/>
<polygon fill="black" stroke="black" points="1204.36,-1143.91 1208.53,-1153.65 1211.34,-1143.44 1204.36,-1143.91"/>
</g>
<!-- DBManager&#45;&gt;DB_DB -->
<g id="edge51" class="edge"><title>DBManager&#45;&gt;DB_DB</title>
<path fill="none" stroke="black" d="M784.633,-157.572C834.668,-141.201 918.239,-113.858 964.301,-98.7876"/>
<polygon fill="black" stroke="black" points="965.39,-102.114 973.806,-95.6775 963.214,-95.4607 965.39,-102.114"/>
</g>
<!-- EmptyView -->
<g id="node32" class="node"><title>EmptyView</title>
<polygon fill="none" stroke="black" points="784.093,-1053 701.093,-1053 701.093,-1049 697.093,-1049 697.093,-1045 701.093,-1045 701.093,-1025 697.093,-1025 697.093,-1021 701.093,-1021 701.093,-1017 784.093,-1017 784.093,-1053"/>
<polyline fill="none" stroke="black" points="701.093,-1049 705.093,-1049 705.093,-1045 701.093,-1045 "/>
<polyline fill="none" stroke="black" points="701.093,-1025 705.093,-1025 705.093,-1021 701.093,-1021 "/>
<text text-anchor="middle" x="742.593" y="-1031.3" font-family="Times,serif" font-size="14.00">EmptyView</text>
</g>
<!-- EmptyView&#45;&gt;Core_View -->
<g id="edge53" class="edge"><title>EmptyView&#45;&gt;Core_View</title>
<path fill="none" stroke="black" d="M784.275,-1031.72C816.166,-1031.46 859.578,-1036.54 886.901,-1062 932.964,-1104.91 880.461,-1152.5 922.901,-1199 932.885,-1209.94 947.653,-1216.45 961.403,-1220.33"/>
<polygon fill="black" stroke="black" points="960.608,-1223.74 971.153,-1222.71 962.269,-1216.94 960.608,-1223.74"/>
</g>
<!-- EventManager -->
<g id="node33" class="node"><title>EventManager</title>
<polygon fill="none" stroke="black" points="791.093,-297 694.093,-297 694.093,-293 690.093,-293 690.093,-289 694.093,-289 694.093,-269 690.093,-269 690.093,-265 694.093,-265 694.093,-261 791.093,-261 791.093,-297"/>
<polyline fill="none" stroke="black" points="694.093,-293 698.093,-293 698.093,-289 694.093,-289 "/>
<polyline fill="none" stroke="black" points="694.093,-269 698.093,-269 698.093,-265 694.093,-265 "/>
<text text-anchor="middle" x="742.593" y="-275.3" font-family="Times,serif" font-size="14.00">EventManager</text>
</g>
<!-- EventManager&#45;&gt;Core_ComponentBase -->
<g id="edge74" class="edge"><title>EventManager&#45;&gt;Core_ComponentBase</title>
<path fill="none" stroke="black" stroke-dasharray="1,5" d="M791.282,-267.641C862.77,-253.721 997.44,-240.044 1073.64,-312 1197.65,-429.096 1208.79,-1007.97 1209.69,-1143.55"/>
<polygon fill="black" stroke="black" points="1206.19,-1143.93 1209.75,-1153.92 1213.19,-1143.9 1206.19,-1143.93"/>
</g>
<!-- FacadesAutoLoader -->
<g id="node34" class="node"><title>FacadesAutoLoader</title>
<polygon fill="none" stroke="black" points="1060.77,-822 935.771,-822 935.771,-818 931.771,-818 931.771,-814 935.771,-814 935.771,-794 931.771,-794 931.771,-790 935.771,-790 935.771,-786 1060.77,-786 1060.77,-822"/>
<polyline fill="none" stroke="black" points="935.771,-818 939.771,-818 939.771,-814 935.771,-814 "/>
<polyline fill="none" stroke="black" points="935.771,-794 939.771,-794 939.771,-790 935.771,-790 "/>
<text text-anchor="middle" x="998.271" y="-800.3" font-family="Times,serif" font-size="14.00">FacadesAutoLoader</text>
</g>
<!-- FacadesAutoLoader&#45;&gt;Core_ComponentBase -->
<g id="edge60" class="edge"><title>FacadesAutoLoader&#45;&gt;Core_ComponentBase</title>
<path fill="none" stroke="black" stroke-dasharray="1,5" d="M1061.06,-821.49C1065.62,-824.219 1069.89,-827.368 1073.64,-831 1165.6,-920.104 1197.05,-1079.33 1206.33,-1143.77"/>
<polygon fill="black" stroke="black" points="1202.9,-1144.54 1207.72,-1153.97 1209.83,-1143.59 1202.9,-1144.54"/>
</g>
<!-- FacadesBase -->
<g id="node35" class="node"><title>FacadesBase</title>
<ellipse fill="none" stroke="black" cx="742.593" cy="-711" rx="55.7903" ry="18"/>
<text text-anchor="middle" x="742.593" y="-707.3" font-family="Times,serif" font-size="14.00">FacadesBase</text>
</g>
<!-- FacadesBase&#45;&gt;FacadesAutoLoader -->
<g id="edge55" class="edge"><title>FacadesBase&#45;&gt;FacadesAutoLoader</title>
<path fill="none" stroke="black" d="M798.416,-713.185C826.344,-716.257 859.991,-723.096 886.901,-738 907.536,-749.429 903.258,-763.938 922.901,-777 925.052,-778.431 927.29,-779.797 929.588,-781.101"/>
<polygon fill="black" stroke="black" points="928.216,-784.332 938.705,-785.822 931.434,-778.115 928.216,-784.332"/>
</g>
<!-- JsonRpcClientBase -->
<g id="node36" class="node"><title>JsonRpcClientBase</title>
<ellipse fill="none" stroke="black" cx="742.593" cy="-657" rx="79.0865" ry="18"/>
<text text-anchor="middle" x="742.593" y="-653.3" font-family="Times,serif" font-size="14.00">JsonRpcClientBase</text>
</g>
<!-- JsonRpcExt -->
<g id="node37" class="node"><title>JsonRpcExt</title>
<polygon fill="none" stroke="black" points="1038.77,-768 957.771,-768 957.771,-764 953.771,-764 953.771,-760 957.771,-760 957.771,-740 953.771,-740 953.771,-736 957.771,-736 957.771,-732 1038.77,-732 1038.77,-768"/>
<polyline fill="none" stroke="black" points="957.771,-764 961.771,-764 961.771,-760 957.771,-760 "/>
<polyline fill="none" stroke="black" points="957.771,-740 961.771,-740 961.771,-736 957.771,-736 "/>
<text text-anchor="middle" x="998.271" y="-746.3" font-family="Times,serif" font-size="14.00">JsonRpcExt</text>
</g>
<!-- JsonRpcClientBase&#45;&gt;JsonRpcExt -->
<g id="edge54" class="edge"><title>JsonRpcClientBase&#45;&gt;JsonRpcExt</title>
<path fill="none" stroke="black" d="M818.853,-662.024C841.759,-665.91 866.303,-672.592 886.901,-684 907.536,-695.429 903.258,-709.938 922.901,-723 930.628,-728.139 939.457,-732.446 948.268,-736.002"/>
<polygon fill="black" stroke="black" points="947.176,-739.33 957.768,-739.57 949.637,-732.777 947.176,-739.33"/>
</g>
<!-- JsonRpcExt&#45;&gt;Core_ComponentBase -->
<g id="edge61" class="edge"><title>JsonRpcExt&#45;&gt;Core_ComponentBase</title>
<path fill="none" stroke="black" stroke-dasharray="1,5" d="M1038.89,-757.316C1051.36,-761.325 1064.3,-767.501 1073.64,-777 1177.91,-882.99 1202.46,-1072.49 1208.11,-1143.81"/>
<polygon fill="black" stroke="black" points="1204.62,-1144.12 1208.84,-1153.84 1211.6,-1143.61 1204.62,-1144.12"/>
</g>
<!-- Misc -->
<g id="node38" class="node"><title>Misc</title>
<polygon fill="none" stroke="black" points="769.593,-243 715.593,-243 715.593,-239 711.593,-239 711.593,-235 715.593,-235 715.593,-215 711.593,-215 711.593,-211 715.593,-211 715.593,-207 769.593,-207 769.593,-243"/>
<polyline fill="none" stroke="black" points="715.593,-239 719.593,-239 719.593,-235 715.593,-235 "/>
<polyline fill="none" stroke="black" points="715.593,-215 719.593,-215 719.593,-211 715.593,-211 "/>
<text text-anchor="middle" x="742.593" y="-221.3" font-family="Times,serif" font-size="14.00">Misc</text>
</g>
<!-- Misc&#45;&gt;Core_ComponentBase -->
<g id="edge63" class="edge"><title>Misc&#45;&gt;Core_ComponentBase</title>
<path fill="none" stroke="black" stroke-dasharray="1,5" d="M769.716,-217.899C831.731,-202.784 988.954,-174.983 1073.64,-255 1206.2,-380.242 1210.73,-1002.31 1210.02,-1143.47"/>
<polygon fill="black" stroke="black" points="1206.52,-1143.84 1209.95,-1153.87 1213.52,-1143.89 1206.52,-1143.84"/>
</g>
<!-- Pager -->
<g id="node39" class="node"><title>Pager</title>
<polygon fill="none" stroke="black" points="769.593,-567 715.593,-567 715.593,-563 711.593,-563 711.593,-559 715.593,-559 715.593,-539 711.593,-539 711.593,-535 715.593,-535 715.593,-531 769.593,-531 769.593,-567"/>
<polyline fill="none" stroke="black" points="715.593,-563 719.593,-563 719.593,-559 715.593,-559 "/>
<polyline fill="none" stroke="black" points="715.593,-539 719.593,-539 719.593,-535 715.593,-535 "/>
<text text-anchor="middle" x="742.593" y="-545.3" font-family="Times,serif" font-size="14.00">Pager</text>
</g>
<!-- Pager&#45;&gt;Core_ComponentBase -->
<g id="edge62" class="edge"><title>Pager&#45;&gt;Core_ComponentBase</title>
<path fill="none" stroke="black" stroke-dasharray="1,5" d="M769.848,-543.006C831.467,-530.62 986.698,-509.44 1073.64,-587 1158.85,-663.009 1197.88,-1037.09 1207.38,-1143.63"/>
<polygon fill="black" stroke="black" points="1203.92,-1144.26 1208.28,-1153.92 1210.9,-1143.65 1203.92,-1144.26"/>
</g>
<!-- PagerInterface -->
<g id="node40" class="node"><title>PagerInterface</title>
<polygon fill="none" stroke="black" points="1039.77,-660 950.771,-660 950.771,-624 1045.77,-624 1045.77,-654 1039.77,-660"/>
<polyline fill="none" stroke="black" points="1039.77,-660 1039.77,-654 "/>
<polyline fill="none" stroke="black" points="1045.77,-654 1039.77,-654 "/>
<text text-anchor="middle" x="998.271" y="-638.3" font-family="Times,serif" font-size="14.00">PagerInterface</text>
</g>
<!-- Pager&#45;&gt;PagerInterface -->
<g id="edge56" class="edge"><title>Pager&#45;&gt;PagerInterface</title>
<path fill="none" stroke="black" d="M769.706,-551.138C799.015,-554.166 847.606,-561.094 886.901,-576 914.604,-586.509 943.247,-603.86 964.409,-618.135"/>
<polygon fill="black" stroke="black" points="962.483,-621.058 972.708,-623.834 966.446,-615.287 962.483,-621.058"/>
</g>
<!-- RedisManager -->
<g id="node41" class="node"><title>RedisManager</title>
<polygon fill="none" stroke="black" points="1046.27,-714 950.271,-714 950.271,-710 946.271,-710 946.271,-706 950.271,-706 950.271,-686 946.271,-686 946.271,-682 950.271,-682 950.271,-678 1046.27,-678 1046.27,-714"/>
<polyline fill="none" stroke="black" points="950.271,-710 954.271,-710 954.271,-706 950.271,-706 "/>
<polyline fill="none" stroke="black" points="950.271,-686 954.271,-686 954.271,-682 950.271,-682 "/>
<text text-anchor="middle" x="998.271" y="-692.3" font-family="Times,serif" font-size="14.00">RedisManager</text>
</g>
<!-- RedisManager&#45;&gt;Core_ComponentBase -->
<g id="edge65" class="edge"><title>RedisManager&#45;&gt;Core_ComponentBase</title>
<path fill="none" stroke="black" stroke-dasharray="1,5" d="M1046.45,-705.727C1056.49,-709.678 1066.27,-715.222 1073.64,-723 1190.29,-846.11 1207.23,-1065.97 1209.49,-1143.77"/>
<polygon fill="black" stroke="black" points="1205.99,-1143.86 1209.72,-1153.78 1212.99,-1143.7 1205.99,-1143.86"/>
</g>
<!-- RedisSimpleCache -->
<g id="node42" class="node"><title>RedisSimpleCache</title>
<polygon fill="none" stroke="black" points="802.593,-621 682.593,-621 682.593,-617 678.593,-617 678.593,-613 682.593,-613 682.593,-593 678.593,-593 678.593,-589 682.593,-589 682.593,-585 802.593,-585 802.593,-621"/>
<polyline fill="none" stroke="black" points="682.593,-617 686.593,-617 686.593,-613 682.593,-613 "/>
<polyline fill="none" stroke="black" points="682.593,-593 686.593,-593 686.593,-589 682.593,-589 "/>
<text text-anchor="middle" x="742.593" y="-599.3" font-family="Times,serif" font-size="14.00">RedisSimpleCache</text>
</g>
<!-- RedisSimpleCache&#45;&gt;Core_ComponentBase -->
<g id="edge64" class="edge"><title>RedisSimpleCache&#45;&gt;Core_ComponentBase</title>
<path fill="none" stroke="black" stroke-dasharray="1,5" d="M802.662,-596.956C886.31,-589.733 1033.58,-582.357 1073.64,-615 1157.86,-683.629 1197.41,-1040.16 1207.24,-1143.75"/>
<polygon fill="black" stroke="black" points="1203.76,-1144.14 1208.17,-1153.77 1210.73,-1143.49 1203.76,-1144.14"/>
</g>
<!-- RedisSimpleCache&#45;&gt;RedisManager -->
<g id="edge57" class="edge"><title>RedisSimpleCache&#45;&gt;RedisManager</title>
<path fill="none" stroke="black" d="M802.594,-605.669C829.651,-608.953 861.32,-615.832 886.901,-630 907.536,-641.429 903.258,-655.938 922.901,-669 928.434,-672.679 934.531,-675.932 940.783,-678.789"/>
<polygon fill="black" stroke="black" points="939.43,-682.017 950.003,-682.693 942.16,-675.571 939.43,-682.017"/>
</g>
<!-- RouteHookDirectoryMode -->
<g id="node43" class="node"><title>RouteHookDirectoryMode</title>
<polygon fill="none" stroke="black" points="824.093,-513 661.093,-513 661.093,-509 657.093,-509 657.093,-505 661.093,-505 661.093,-485 657.093,-485 657.093,-481 661.093,-481 661.093,-477 824.093,-477 824.093,-513"/>
<polyline fill="none" stroke="black" points="661.093,-509 665.093,-509 665.093,-505 661.093,-505 "/>
<polyline fill="none" stroke="black" points="661.093,-485 665.093,-485 665.093,-481 661.093,-481 "/>
<text text-anchor="middle" x="742.593" y="-491.3" font-family="Times,serif" font-size="14.00">RouteHookDirectoryMode</text>
</g>
<!-- RouteHookDirectoryMode&#45;&gt;Core_ComponentBase -->
<g id="edge68" class="edge"><title>RouteHookDirectoryMode&#45;&gt;Core_ComponentBase</title>
<path fill="none" stroke="black" stroke-dasharray="1,5" d="M824.39,-479.051C898.536,-469.432 1006.72,-468.816 1073.64,-529 1167.25,-613.178 1200.61,-1029.94 1208.04,-1143.42"/>
<polygon fill="black" stroke="black" points="1204.56,-1143.97 1208.69,-1153.73 1211.55,-1143.53 1204.56,-1143.97"/>
</g>
<!-- RouteHookManager -->
<g id="node44" class="node"><title>RouteHookManager</title>
<polygon fill="none" stroke="black" points="806.593,-459 678.593,-459 678.593,-455 674.593,-455 674.593,-451 678.593,-451 678.593,-431 674.593,-431 674.593,-427 678.593,-427 678.593,-423 806.593,-423 806.593,-459"/>
<polyline fill="none" stroke="black" points="678.593,-455 682.593,-455 682.593,-451 678.593,-451 "/>
<polyline fill="none" stroke="black" points="678.593,-431 682.593,-431 682.593,-427 678.593,-427 "/>
<text text-anchor="middle" x="742.593" y="-437.3" font-family="Times,serif" font-size="14.00">RouteHookManager</text>
</g>
<!-- RouteHookManager&#45;&gt;Core_ComponentBase -->
<g id="edge69" class="edge"><title>RouteHookManager&#45;&gt;Core_ComponentBase</title>
<path fill="none" stroke="black" stroke-dasharray="1,5" d="M806.628,-438.292C891.353,-436.058 1035.74,-437.654 1073.64,-472 1175.62,-564.405 1203.12,-1024.2 1208.6,-1143.62"/>
<polygon fill="black" stroke="black" points="1205.11,-1143.95 1209.05,-1153.79 1212.1,-1143.64 1205.11,-1143.95"/>
</g>
<!-- RouteHookOneFileMode -->
<g id="node45" class="node"><title>RouteHookOneFileMode</title>
<polygon fill="none" stroke="black" points="820.093,-405 665.093,-405 665.093,-401 661.093,-401 661.093,-397 665.093,-397 665.093,-377 661.093,-377 661.093,-373 665.093,-373 665.093,-369 820.093,-369 820.093,-405"/>
<polyline fill="none" stroke="black" points="665.093,-401 669.093,-401 669.093,-397 665.093,-397 "/>
<polyline fill="none" stroke="black" points="665.093,-377 669.093,-377 669.093,-373 665.093,-373 "/>
<text text-anchor="middle" x="742.593" y="-383.3" font-family="Times,serif" font-size="14.00">RouteHookOneFileMode</text>
</g>
<!-- RouteHookOneFileMode&#45;&gt;Core_ComponentBase -->
<g id="edge70" class="edge"><title>RouteHookOneFileMode&#45;&gt;Core_ComponentBase</title>
<path fill="none" stroke="black" stroke-dasharray="1,5" d="M820.238,-375.318C895.05,-368.595 1007.06,-371.735 1073.64,-436 1178.02,-536.736 1203.86,-1021.56 1208.76,-1143.91"/>
<polygon fill="black" stroke="black" points="1205.27,-1144.12 1209.15,-1153.98 1212.26,-1143.85 1205.27,-1144.12"/>
</g>
<!-- RouteHookRewrite -->
<g id="node46" class="node"><title>RouteHookRewrite</title>
<polygon fill="none" stroke="black" points="803.593,-999 681.593,-999 681.593,-995 677.593,-995 677.593,-991 681.593,-991 681.593,-971 677.593,-971 677.593,-967 681.593,-967 681.593,-963 803.593,-963 803.593,-999"/>
<polyline fill="none" stroke="black" points="681.593,-995 685.593,-995 685.593,-991 681.593,-991 "/>
<polyline fill="none" stroke="black" points="681.593,-971 685.593,-971 685.593,-967 681.593,-967 "/>
<text text-anchor="middle" x="742.593" y="-977.3" font-family="Times,serif" font-size="14.00">RouteHookRewrite</text>
</g>
<!-- RouteHookRewrite&#45;&gt;Core_ComponentBase -->
<g id="edge71" class="edge"><title>RouteHookRewrite&#45;&gt;Core_ComponentBase</title>
<path fill="none" stroke="black" stroke-dasharray="1,5" d="M803.833,-988.457C829.822,-992.665 860.297,-998.944 886.901,-1008 995.87,-1045.1 1114.12,-1113.02 1172.63,-1148.7"/>
<polygon fill="black" stroke="black" points="1170.8,-1151.69 1181.16,-1153.93 1174.46,-1145.72 1170.8,-1151.69"/>
</g>
<!-- RouteHookRouteMap -->
<g id="node47" class="node"><title>RouteHookRouteMap</title>
<polygon fill="none" stroke="black" points="811.093,-945 674.093,-945 674.093,-941 670.093,-941 670.093,-937 674.093,-937 674.093,-917 670.093,-917 670.093,-913 674.093,-913 674.093,-909 811.093,-909 811.093,-945"/>
<polyline fill="none" stroke="black" points="674.093,-941 678.093,-941 678.093,-937 674.093,-937 "/>
<polyline fill="none" stroke="black" points="674.093,-917 678.093,-917 678.093,-913 674.093,-913 "/>
<text text-anchor="middle" x="742.593" y="-923.3" font-family="Times,serif" font-size="14.00">RouteHookRouteMap</text>
</g>
<!-- RouteHookRouteMap&#45;&gt;Core_ComponentBase -->
<g id="edge72" class="edge"><title>RouteHookRouteMap&#45;&gt;Core_ComponentBase</title>
<path fill="none" stroke="black" stroke-dasharray="1,5" d="M811.365,-933.09C881.975,-942.163 993.308,-964.376 1073.64,-1018 1125.27,-1052.46 1169.58,-1111.2 1192.68,-1145.3"/>
<polygon fill="black" stroke="black" points="1189.9,-1147.44 1198.35,-1153.82 1195.72,-1143.56 1189.9,-1147.44"/>
</g>
<!-- StrictCheck -->
<g id="node48" class="node"><title>StrictCheck</title>
<polygon fill="none" stroke="black" points="1038.27,-876 958.271,-876 958.271,-872 954.271,-872 954.271,-868 958.271,-868 958.271,-848 954.271,-848 954.271,-844 958.271,-844 958.271,-840 1038.27,-840 1038.27,-876"/>
<polyline fill="none" stroke="black" points="958.271,-872 962.271,-872 962.271,-868 958.271,-868 "/>
<polyline fill="none" stroke="black" points="958.271,-848 962.271,-848 962.271,-844 958.271,-844 "/>
<text text-anchor="middle" x="998.271" y="-854.3" font-family="Times,serif" font-size="14.00">StrictCheck</text>
</g>
<!-- StrictCheck&#45;&gt;Core_ComponentBase -->
<g id="edge67" class="edge"><title>StrictCheck&#45;&gt;Core_ComponentBase</title>
<path fill="none" stroke="black" stroke-dasharray="1,5" d="M1038.28,-871.614C1050.71,-877.371 1063.78,-885.084 1073.64,-895 1146.81,-968.53 1187.15,-1089.26 1202.47,-1143.75"/>
<polygon fill="black" stroke="black" points="1199.19,-1145.01 1205.21,-1153.73 1205.94,-1143.16 1199.19,-1145.01"/>
</g>
<!-- StrictModelTrait -->
<g id="node49" class="node"><title>StrictModelTrait</title>
<polygon fill="none" stroke="black" points="742.593,-837 643.554,-819 742.593,-801 841.631,-819 742.593,-837"/>
<text text-anchor="middle" x="742.593" y="-815.3" font-family="Times,serif" font-size="14.00">StrictModelTrait</text>
</g>
<!-- StrictModelTrait&#45;&gt;StrictCheck -->
<g id="edge58" class="edge"><title>StrictModelTrait&#45;&gt;StrictCheck</title>
<path fill="none" stroke="black" d="M796.772,-827.176C841.427,-834.041 904.723,-843.772 948.187,-850.454"/>
<polygon fill="black" stroke="black" points="947.822,-853.939 958.238,-851.999 948.886,-847.02 947.822,-853.939"/>
</g>
<!-- StrictServiceTrait -->
<g id="node50" class="node"><title>StrictServiceTrait</title>
<polygon fill="none" stroke="black" points="742.593,-783 638.863,-765 742.593,-747 846.323,-765 742.593,-783"/>
<text text-anchor="middle" x="742.593" y="-761.3" font-family="Times,serif" font-size="14.00">StrictServiceTrait</text>
</g>
<!-- StrictServiceTrait&#45;&gt;StrictCheck -->
<g id="edge59" class="edge"><title>StrictServiceTrait&#45;&gt;StrictCheck</title>
<path fill="none" stroke="black" d="M818.114,-769.9C841.23,-773.766 866.082,-780.469 886.901,-792 907.536,-803.429 903.258,-817.938 922.901,-831 930.712,-836.195 939.65,-840.539 948.555,-844.118"/>
<polygon fill="black" stroke="black" points="947.559,-847.482 958.152,-847.704 950.01,-840.925 947.559,-847.482"/>
</g>
<!-- ExceptionWrapper -->
<g id="node51" class="node"><title>ExceptionWrapper</title>
<polygon fill="none" stroke="black" points="802.093,-891 683.093,-891 683.093,-887 679.093,-887 679.093,-883 683.093,-883 683.093,-863 679.093,-863 679.093,-859 683.093,-859 683.093,-855 802.093,-855 802.093,-891"/>
<polyline fill="none" stroke="black" points="683.093,-887 687.093,-887 687.093,-883 683.093,-883 "/>
<polyline fill="none" stroke="black" points="683.093,-863 687.093,-863 687.093,-859 683.093,-859 "/>
<text text-anchor="middle" x="742.593" y="-869.3" font-family="Times,serif" font-size="14.00">ExceptionWrapper</text>
</g>
<!-- ExceptionWrapper&#45;&gt;Core_ComponentBase -->
<g id="edge75" class="edge"><title>ExceptionWrapper&#45;&gt;Core_ComponentBase</title>
<path fill="none" stroke="black" stroke-dasharray="1,5" d="M802.267,-873.554C873.256,-877.066 993.233,-892.425 1073.64,-953 1140.76,-1003.56 1182.63,-1097.73 1200.19,-1144.37"/>
<polygon fill="black" stroke="black" points="1196.93,-1145.65 1203.67,-1153.83 1203.51,-1143.24 1196.93,-1145.65"/>
</g>
<!-- HttpServer -->
<g id="node52" class="node"><title>HttpServer</title>
<polygon fill="lightgrey" stroke="black" points="325.909,-588 256.197,-570 325.909,-552 395.621,-570 325.909,-588"/>
<polyline fill="none" stroke="black" points="267.816,-573 267.816,-567 "/>
<polyline fill="none" stroke="black" points="314.29,-555 337.528,-555 "/>
<polyline fill="none" stroke="black" points="384.002,-567 384.002,-573 "/>
<polyline fill="none" stroke="black" points="337.528,-585 314.29,-585 "/>
<text text-anchor="middle" x="325.909" y="-566.3" font-family="Times,serif" font-size="14.00">HttpServer</text>
</g>
<!-- HttpServer&#45;&gt;Core_HttpServer -->
<g id="edge76" class="edge"><title>HttpServer&#45;&gt;Core_HttpServer</title>
<path fill="none" stroke="black" d="M328.948,-587.241C339.391,-667 394.599,-1002.22 598.285,-1142 650.145,-1177.59 828.287,-1177.84 928.099,-1174.94"/>
<polygon fill="black" stroke="black" points="928.506,-1178.43 938.393,-1174.62 928.289,-1171.43 928.506,-1178.43"/>
</g>
<!-- DuckPhp -->
<g id="node53" class="node"><title>DuckPhp</title>
<polygon fill="lightgrey" stroke="black" points="325.909,-534 264.242,-516 325.909,-498 387.576,-516 325.909,-534"/>
<polyline fill="none" stroke="black" points="275.761,-519.362 275.761,-512.638 "/>
<polyline fill="none" stroke="black" points="314.39,-501.362 337.428,-501.362 "/>
<polyline fill="none" stroke="black" points="376.057,-512.638 376.057,-519.362 "/>
<polyline fill="none" stroke="black" points="337.428,-530.638 314.39,-530.638 "/>
<text text-anchor="middle" x="325.909" y="-512.3" font-family="Times,serif" font-size="14.00">DuckPhp</text>
</g>
<!-- DuckPhp&#45;&gt;Core_App -->
<g id="edge77" class="edge"><title>DuckPhp&#45;&gt;Core_App</title>
<path fill="none" stroke="black" d="M371.256,-520.879C385.037,-524.698 398.852,-531.379 407.441,-543 433.141,-577.77 414.592,-1279.72 427.441,-1321 438.083,-1355.19 462.921,-1388.82 480.059,-1409.24"/>
<polygon fill="black" stroke="black" points="477.472,-1411.6 486.647,-1416.9 482.777,-1407.03 477.472,-1411.6"/>
</g>
<!-- DuckPhp&#45;&gt;Cache -->
<g id="edge83" class="edge"><title>DuckPhp&#45;&gt;Cache</title>
<path fill="none" stroke="black" d="M342.109,-502.38C361.123,-485.787 395.121,-457.553 427.441,-438 498.859,-394.794 518.724,-385.245 598.285,-360 633.855,-348.713 675.973,-341.473 705.307,-337.361"/>
<polygon fill="black" stroke="black" points="706.058,-340.791 715.5,-335.986 705.122,-333.854 706.058,-340.791"/>
</g>
<!-- DuckPhp&#45;&gt;DBManager -->
<g id="edge80" class="edge"><title>DuckPhp&#45;&gt;DBManager</title>
<path fill="none" stroke="black" d="M331.283,-499.303C342.028,-460.928 372.893,-365.059 427.441,-304 486.974,-237.361 514.999,-230.378 598.285,-198 627.708,-186.562 662.466,-179.861 690.382,-175.996"/>
<polygon fill="black" stroke="black" points="690.872,-179.461 700.335,-174.696 689.966,-172.52 690.872,-179.461"/>
</g>
<!-- DuckPhp&#45;&gt;EventManager -->
<g id="edge81" class="edge"><title>DuckPhp&#45;&gt;EventManager</title>
<path fill="none" stroke="black" d="M333.839,-499.874C347.482,-469.936 380.622,-405.496 427.441,-369 503.2,-309.945 616.16,-289.638 683.978,-282.656"/>
<polygon fill="black" stroke="black" points="684.437,-286.128 694.054,-281.683 683.764,-279.161 684.437,-286.128"/>
</g>
<!-- DuckPhp&#45;&gt;Pager -->
<g id="edge79" class="edge"><title>DuckPhp&#45;&gt;Pager</title>
<path fill="none" stroke="black" d="M374.883,-519.818C458.604,-526.48 629.616,-540.089 704.772,-546.07"/>
<polygon fill="black" stroke="black" points="704.897,-549.591 715.143,-546.895 705.452,-542.613 704.897,-549.591"/>
</g>
<!-- DuckPhp&#45;&gt;RouteHookOneFileMode -->
<g id="edge82" class="edge"><title>DuckPhp&#45;&gt;RouteHookOneFileMode</title>
<path fill="none" stroke="black" d="M360.361,-507.948C407.013,-496.05 493.613,-471.512 562.285,-438 579.567,-429.567 580.478,-421.259 598.285,-414 616.053,-406.756 635.861,-401.435 654.944,-397.533"/>
<polygon fill="black" stroke="black" points="655.688,-400.954 664.842,-395.619 654.359,-394.081 655.688,-400.954"/>
</g>
<!-- DuckPhp&#45;&gt;RouteHookRouteMap -->
<g id="edge78" class="edge"><title>DuckPhp&#45;&gt;RouteHookRouteMap</title>
<path fill="none" stroke="black" d="M365.158,-522.554C379.644,-526.547 395.503,-532.91 407.441,-543 544.853,-659.136 453.232,-793.561 598.285,-900 617.132,-913.83 641.028,-921.196 663.877,-924.962"/>
<polygon fill="black" stroke="black" points="663.536,-928.449 673.932,-926.406 664.532,-921.52 663.536,-928.449"/>
</g>
</g>
</svg>
