<?xml version="1.0" encoding="UTF-8" standalone="no"?>
<!DOCTYPE svg PUBLIC "-//W3C//DTD SVG 1.1//EN"
 "http://www.w3.org/Graphics/SVG/1.1/DTD/svg11.dtd">
<!-- Generated by graphviz version 2.38.0 (20140413.2041)
 -->
<!-- Title: G Pages: 1 -->
<svg width="1426pt" height="1503pt"
 viewBox="0.00 0.00 1425.55 1502.70" xmlns="http://www.w3.org/2000/svg" xmlns:xlink="http://www.w3.org/1999/xlink">
<g id="graph0" class="graph" transform="scale(1 1) rotate(0) translate(4 1498.7)">
<title>G</title>
<polygon fill="white" stroke="none" points="-4,4 -4,-1498.7 1421.55,-1498.7 1421.55,4 -4,4"/>
<g id="clust1" class="cluster"><title>cluster_Core</title>
<polygon fill="none" stroke="black" points="427.441,-959.697 427.441,-1486.7 1384.73,-1486.7 1384.73,-959.697 427.441,-959.697"/>
<text text-anchor="middle" x="906.085" y="-1471.5" font-family="Times,serif" font-size="14.00">[DuckPhp\Core]</text>
</g>
<g id="clust2" class="cluster"><title>cluster_Helper</title>
<polygon fill="none" stroke="black" points="8,-1057.7 8,-1348.7 407.441,-1348.7 407.441,-1057.7 8,-1057.7"/>
<text text-anchor="middle" x="207.721" y="-1333.5" font-family="Times,serif" font-size="14.00">[DuckPhp\Helper]</text>
</g>
<g id="clust3" class="cluster"><title>cluster_DB</title>
<polygon fill="none" stroke="black" points="1074.83,-11.6966 1074.83,-140.697 1409.55,-140.697 1409.55,-11.6966 1074.83,-11.6966"/>
<text text-anchor="middle" x="1242.19" y="-125.497" font-family="Times,serif" font-size="14.00">[DuckPhp\DB]</text>
</g>
<g id="clust4" class="cluster"><title>cluster_Ext</title>
<polygon fill="none" stroke="black" points="577.417,-38.6966 577.417,-923.697 1015.46,-923.697 1015.46,-38.6966 577.417,-38.6966"/>
<text text-anchor="middle" x="796.439" y="-908.497" font-family="Times,serif" font-size="14.00">[DuckPhp\Ext]</text>
</g>
<g id="clust5" class="cluster"><title>cluster_DuckPhp</title>
<polygon fill="none" stroke="black" points="248.053,-522.697 248.053,-651.697 403.765,-651.697 403.765,-522.697 248.053,-522.697"/>
<text text-anchor="middle" x="325.909" y="-636.497" font-family="Times,serif" font-size="14.00">[DuckPhp]</text>
</g>
<!-- Core_AppPluginTrait -->
<g id="node1" class="node"><title>Core_AppPluginTrait</title>
<polygon fill="none" stroke="black" points="689.282,-1153.7 596.612,-1135.7 689.282,-1117.7 781.952,-1135.7 689.282,-1153.7"/>
<text text-anchor="middle" x="689.282" y="-1132" font-family="Times,serif" font-size="14.00">AppPluginTrait</text>
</g>
<!-- Core_View -->
<g id="node7" class="node"><title>Core_View</title>
<polygon fill="none" stroke="black" points="971.96,-1057.7 917.96,-1057.7 917.96,-1053.7 913.96,-1053.7 913.96,-1049.7 917.96,-1049.7 917.96,-1029.7 913.96,-1029.7 913.96,-1025.7 917.96,-1025.7 917.96,-1021.7 971.96,-1021.7 971.96,-1057.7"/>
<polyline fill="none" stroke="black" points="917.96,-1053.7 921.96,-1053.7 921.96,-1049.7 917.96,-1049.7 "/>
<polyline fill="none" stroke="black" points="917.96,-1029.7 921.96,-1029.7 921.96,-1025.7 917.96,-1025.7 "/>
<text text-anchor="middle" x="944.96" y="-1036" font-family="Times,serif" font-size="14.00">View</text>
</g>
<!-- Core_AppPluginTrait&#45;&gt;Core_View -->
<g id="edge24" class="edge"><title>Core_AppPluginTrait&#45;&gt;Core_View</title>
<path fill="none" stroke="black" d="M724.211,-1124.38C753.466,-1114.39 796.696,-1099.06 833.589,-1083.7 849.924,-1076.89 853.256,-1073.5 869.589,-1066.7 882.096,-1061.49 896.005,-1056.28 908.38,-1051.85"/>
<polygon fill="black" stroke="black" points="909.656,-1055.12 917.919,-1048.48 907.324,-1048.52 909.656,-1055.12"/>
</g>
<!-- Core_Configer -->
<g id="node8" class="node"><title>Core_Configer</title>
<polygon fill="none" stroke="black" points="977.46,-1111.7 912.46,-1111.7 912.46,-1107.7 908.46,-1107.7 908.46,-1103.7 912.46,-1103.7 912.46,-1083.7 908.46,-1083.7 908.46,-1079.7 912.46,-1079.7 912.46,-1075.7 977.46,-1075.7 977.46,-1111.7"/>
<polyline fill="none" stroke="black" points="912.46,-1107.7 916.46,-1107.7 916.46,-1103.7 912.46,-1103.7 "/>
<polyline fill="none" stroke="black" points="912.46,-1083.7 916.46,-1083.7 916.46,-1079.7 912.46,-1079.7 "/>
<text text-anchor="middle" x="944.96" y="-1090" font-family="Times,serif" font-size="14.00">Configer</text>
</g>
<!-- Core_AppPluginTrait&#45;&gt;Core_Configer -->
<g id="edge23" class="edge"><title>Core_AppPluginTrait&#45;&gt;Core_Configer</title>
<path fill="none" stroke="black" d="M739.796,-1127.5C787.15,-1119.66 857.757,-1107.97 902.303,-1100.59"/>
<polygon fill="black" stroke="black" points="902.921,-1104.04 912.215,-1098.95 901.777,-1097.13 902.921,-1104.04"/>
</g>
<!-- Core_Route -->
<g id="node10" class="node"><title>Core_Route</title>
<polygon fill="lightgrey" stroke="black" points="944.96,-1165.7 899.883,-1147.7 944.96,-1129.7 990.038,-1147.7 944.96,-1165.7"/>
<polyline fill="none" stroke="black" points="911.027,-1152.15 911.027,-1143.25 "/>
<polyline fill="none" stroke="black" points="933.816,-1134.15 956.105,-1134.15 "/>
<polyline fill="none" stroke="black" points="978.893,-1143.25 978.893,-1152.15 "/>
<polyline fill="none" stroke="black" points="956.105,-1161.25 933.816,-1161.25 "/>
<text text-anchor="middle" x="944.96" y="-1144" font-family="Times,serif" font-size="14.00">Route</text>
</g>
<!-- Core_AppPluginTrait&#45;&gt;Core_Route -->
<g id="edge25" class="edge"><title>Core_AppPluginTrait&#45;&gt;Core_Route</title>
<path fill="none" stroke="black" d="M764.338,-1139.2C806.179,-1141.18 857.346,-1143.6 894.351,-1145.35"/>
<polygon fill="black" stroke="black" points="894.24,-1148.85 904.394,-1145.82 894.57,-1141.86 894.24,-1148.85"/>
</g>
<!-- Core_SuperGlobal -->
<g id="node14" class="node"><title>Core_SuperGlobal</title>
<polygon fill="none" stroke="black" points="987.46,-1273.7 902.46,-1273.7 902.46,-1269.7 898.46,-1269.7 898.46,-1265.7 902.46,-1265.7 902.46,-1245.7 898.46,-1245.7 898.46,-1241.7 902.46,-1241.7 902.46,-1237.7 987.46,-1237.7 987.46,-1273.7"/>
<polyline fill="none" stroke="black" points="902.46,-1269.7 906.46,-1269.7 906.46,-1265.7 902.46,-1265.7 "/>
<polyline fill="none" stroke="black" points="902.46,-1245.7 906.46,-1245.7 906.46,-1241.7 902.46,-1241.7 "/>
<text text-anchor="middle" x="944.96" y="-1252" font-family="Times,serif" font-size="14.00">SuperGlobal</text>
</g>
<!-- Core_AppPluginTrait&#45;&gt;Core_SuperGlobal -->
<g id="edge26" class="edge"><title>Core_AppPluginTrait&#45;&gt;Core_SuperGlobal</title>
<path fill="none" stroke="black" d="M720.199,-1147.73C749.778,-1160.08 795.943,-1180.57 833.589,-1202.7 850.604,-1212.7 852.146,-1219.46 869.589,-1228.7 876.839,-1232.53 884.754,-1236.05 892.628,-1239.19"/>
<polygon fill="black" stroke="black" points="891.576,-1242.53 902.166,-1242.82 894.067,-1235.99 891.576,-1242.53"/>
</g>
<!-- Core_App -->
<g id="node2" class="node"><title>Core_App</title>
<polygon fill="lightgrey" stroke="black" points="472.208,-1229.7 435.674,-1211.7 472.208,-1193.7 508.742,-1211.7 472.208,-1229.7"/>
<polyline fill="none" stroke="black" points="446.438,-1217 446.438,-1206.39 "/>
<polyline fill="none" stroke="black" points="461.443,-1199 482.972,-1199 "/>
<polyline fill="none" stroke="black" points="497.977,-1206.39 497.977,-1217 "/>
<polyline fill="none" stroke="black" points="482.972,-1224.39 461.443,-1224.39 "/>
<text text-anchor="middle" x="472.208" y="-1208" font-family="Times,serif" font-size="14.00">App</text>
</g>
<!-- Core_Kernel -->
<g id="node3" class="node"><title>Core_Kernel</title>
<polygon fill="none" stroke="black" points="689.282,-1247.7 640.35,-1229.7 689.282,-1211.7 738.213,-1229.7 689.282,-1247.7"/>
<text text-anchor="middle" x="689.282" y="-1226" font-family="Times,serif" font-size="14.00">Kernel</text>
</g>
<!-- Core_App&#45;&gt;Core_Kernel -->
<g id="edge9" class="edge"><title>Core_App&#45;&gt;Core_Kernel</title>
<path fill="none" stroke="black" d="M504.023,-1214.28C539.251,-1217.22 597.401,-1222.09 638.954,-1225.57"/>
<polygon fill="black" stroke="black" points="638.88,-1229.07 649.137,-1226.42 639.463,-1222.1 638.88,-1229.07"/>
</g>
<!-- Core_AutoLoader -->
<g id="node5" class="node"><title>Core_AutoLoader</title>
<polygon fill="lightgrey" stroke="black" points="944.96,-1435.7 869.718,-1417.7 944.96,-1399.7 1020.2,-1417.7 944.96,-1435.7"/>
<polyline fill="none" stroke="black" points="881.389,-1420.49 881.389,-1414.9 "/>
<polyline fill="none" stroke="black" points="933.29,-1402.49 956.631,-1402.49 "/>
<polyline fill="none" stroke="black" points="1008.53,-1414.9 1008.53,-1420.49 "/>
<polyline fill="none" stroke="black" points="956.631,-1432.9 933.29,-1432.9 "/>
<text text-anchor="middle" x="944.96" y="-1414" font-family="Times,serif" font-size="14.00">AutoLoader</text>
</g>
<!-- Core_App&#45;&gt;Core_AutoLoader -->
<g id="edge13" class="edge"><title>Core_App&#45;&gt;Core_AutoLoader</title>
<path fill="none" stroke="black" stroke-dasharray="1,5" d="M473.116,-1229.41C473.982,-1270.74 482.613,-1373.38 544.974,-1417.7 598.282,-1455.58 790.006,-1437.58 886.962,-1425.52"/>
<polygon fill="black" stroke="black" points="887.407,-1428.99 896.89,-1424.27 886.53,-1422.05 887.407,-1428.99"/>
</g>
<!-- Core_ExceptionManager -->
<g id="node6" class="node"><title>Core_ExceptionManager</title>
<polygon fill="none" stroke="black" points="1004.96,-1219.7 884.96,-1219.7 884.96,-1215.7 880.96,-1215.7 880.96,-1211.7 884.96,-1211.7 884.96,-1191.7 880.96,-1191.7 880.96,-1187.7 884.96,-1187.7 884.96,-1183.7 1004.96,-1183.7 1004.96,-1219.7"/>
<polyline fill="none" stroke="black" points="884.96,-1215.7 888.96,-1215.7 888.96,-1211.7 884.96,-1211.7 "/>
<polyline fill="none" stroke="black" points="884.96,-1191.7 888.96,-1191.7 888.96,-1187.7 884.96,-1187.7 "/>
<text text-anchor="middle" x="944.96" y="-1198" font-family="Times,serif" font-size="14.00">ExceptionManager</text>
</g>
<!-- Core_App&#45;&gt;Core_ExceptionManager -->
<g id="edge16" class="edge"><title>Core_App&#45;&gt;Core_ExceptionManager</title>
<path fill="none" stroke="black" stroke-dasharray="1,5" d="M500.396,-1207.49C513.784,-1205.62 530.187,-1203.64 544.974,-1202.7 660.255,-1195.35 794.651,-1197.15 874.34,-1199.3"/>
<polygon fill="black" stroke="black" points="874.642,-1202.81 884.736,-1199.59 874.838,-1195.81 874.642,-1202.81"/>
</g>
<!-- Core_App&#45;&gt;Core_View -->
<g id="edge19" class="edge"><title>Core_App&#45;&gt;Core_View</title>
<path fill="none" stroke="black" stroke-dasharray="1,5" d="M476.859,-1195.65C484.241,-1167.37 503.856,-1109.24 544.974,-1083.7 572.251,-1066.75 801.86,-1073.64 833.589,-1068.7 858.77,-1064.78 886.511,-1057.47 907.882,-1051.18"/>
<polygon fill="black" stroke="black" points="908.952,-1054.51 917.521,-1048.28 906.937,-1047.81 908.952,-1054.51"/>
</g>
<!-- Core_App&#45;&gt;Core_Configer -->
<g id="edge14" class="edge"><title>Core_App&#45;&gt;Core_Configer</title>
<path fill="none" stroke="black" stroke-dasharray="1,5" d="M478.541,-1196.78C487.867,-1173.21 509.588,-1128.02 544.974,-1108.7 605.467,-1075.66 812.763,-1084.9 902.263,-1090.67"/>
<polygon fill="black" stroke="black" points="902.115,-1094.17 912.324,-1091.33 902.577,-1087.18 902.115,-1094.17"/>
</g>
<!-- Core_Logger -->
<g id="node9" class="node"><title>Core_Logger</title>
<polygon fill="none" stroke="black" points="972.96,-1327.7 916.96,-1327.7 916.96,-1323.7 912.96,-1323.7 912.96,-1319.7 916.96,-1319.7 916.96,-1299.7 912.96,-1299.7 912.96,-1295.7 916.96,-1295.7 916.96,-1291.7 972.96,-1291.7 972.96,-1327.7"/>
<polyline fill="none" stroke="black" points="916.96,-1323.7 920.96,-1323.7 920.96,-1319.7 916.96,-1319.7 "/>
<polyline fill="none" stroke="black" points="916.96,-1299.7 920.96,-1299.7 920.96,-1295.7 916.96,-1295.7 "/>
<text text-anchor="middle" x="944.96" y="-1306" font-family="Times,serif" font-size="14.00">Logger</text>
</g>
<!-- Core_App&#45;&gt;Core_Logger -->
<g id="edge15" class="edge"><title>Core_App&#45;&gt;Core_Logger</title>
<path fill="none" stroke="black" stroke-dasharray="1,5" d="M474.345,-1228.81C477.782,-1265.01 491.432,-1348.94 544.974,-1384.7 598.311,-1420.31 776.224,-1413.38 833.589,-1384.7 857.441,-1372.77 848.165,-1352.57 869.589,-1336.7 880.562,-1328.57 894.229,-1322.68 906.842,-1318.52"/>
<polygon fill="black" stroke="black" points="908.106,-1321.79 916.661,-1315.54 906.076,-1315.09 908.106,-1321.79"/>
</g>
<!-- Core_App&#45;&gt;Core_Route -->
<g id="edge17" class="edge"><title>Core_App&#45;&gt;Core_Route</title>
<path fill="none" stroke="black" stroke-dasharray="1,5" d="M495.66,-1205.21C509.722,-1201.36 528.281,-1196.67 544.974,-1193.7 671.984,-1171.06 705.522,-1178.27 833.589,-1162.7 855.923,-1159.98 880.753,-1156.63 901.197,-1153.79"/>
<polygon fill="black" stroke="black" points="901.732,-1157.25 911.151,-1152.4 900.763,-1150.32 901.732,-1157.25"/>
</g>
<!-- Core_RuntimeState -->
<g id="node11" class="node"><title>Core_RuntimeState</title>
<polygon fill="none" stroke="black" points="990.46,-1381.7 899.46,-1381.7 899.46,-1377.7 895.46,-1377.7 895.46,-1373.7 899.46,-1373.7 899.46,-1353.7 895.46,-1353.7 895.46,-1349.7 899.46,-1349.7 899.46,-1345.7 990.46,-1345.7 990.46,-1381.7"/>
<polyline fill="none" stroke="black" points="899.46,-1377.7 903.46,-1377.7 903.46,-1373.7 899.46,-1373.7 "/>
<polyline fill="none" stroke="black" points="899.46,-1353.7 903.46,-1353.7 903.46,-1349.7 899.46,-1349.7 "/>
<text text-anchor="middle" x="944.96" y="-1360" font-family="Times,serif" font-size="14.00">RuntimeState</text>
</g>
<!-- Core_App&#45;&gt;Core_RuntimeState -->
<g id="edge18" class="edge"><title>Core_App&#45;&gt;Core_RuntimeState</title>
<path fill="none" stroke="black" stroke-dasharray="1,5" d="M473.631,-1229.03C475.635,-1268 486.585,-1362.26 544.974,-1402.7 597.702,-1439.21 770.375,-1413.54 833.589,-1402.7 836.734,-1402.16 863.352,-1392.76 889.657,-1383.33"/>
<polygon fill="black" stroke="black" points="891.062,-1386.54 899.29,-1379.87 888.696,-1379.96 891.062,-1386.54"/>
</g>
<!-- Core_SystemWrapperTrait -->
<g id="node12" class="node"><title>Core_SystemWrapperTrait</title>
<polygon fill="none" stroke="black" points="689.282,-1301.7 568.962,-1283.7 689.282,-1265.7 809.601,-1283.7 689.282,-1301.7"/>
<text text-anchor="middle" x="689.282" y="-1280" font-family="Times,serif" font-size="14.00">SystemWrapperTrait</text>
</g>
<!-- Core_App&#45;&gt;Core_SystemWrapperTrait -->
<g id="edge12" class="edge"><title>Core_App&#45;&gt;Core_SystemWrapperTrait</title>
<path fill="none" stroke="black" d="M486.932,-1222.51C500.789,-1232.88 523.2,-1248.17 544.974,-1256.7 565.224,-1264.62 588.019,-1270.27 609.372,-1274.28"/>
<polygon fill="black" stroke="black" points="608.933,-1277.75 619.392,-1276.06 610.159,-1270.86 608.933,-1277.75"/>
</g>
<!-- Core_App&#45;&gt;Core_SuperGlobal -->
<g id="edge20" class="edge"><title>Core_App&#45;&gt;Core_SuperGlobal</title>
<path fill="none" stroke="black" stroke-dasharray="1,5" d="M478.788,-1226.57C488.328,-1249.57 510.18,-1292.94 544.974,-1310.7 602.105,-1339.84 772.924,-1331.51 833.589,-1310.7 852.762,-1304.12 851.846,-1292.5 869.589,-1282.7 876.935,-1278.64 885.011,-1274.98 893.049,-1271.76"/>
<polygon fill="black" stroke="black" points="894.326,-1275.02 902.422,-1268.19 891.831,-1268.48 894.326,-1275.02"/>
</g>
<!-- Core_ExtendableStaticCallTrait -->
<g id="node15" class="node"><title>Core_ExtendableStaticCallTrait</title>
<polygon fill="none" stroke="black" points="689.282,-1005.7 545.166,-987.697 689.282,-969.697 833.397,-987.697 689.282,-1005.7"/>
<text text-anchor="middle" x="689.282" y="-983.997" font-family="Times,serif" font-size="14.00">ExtendableStaticCallTrait</text>
</g>
<!-- Core_App&#45;&gt;Core_ExtendableStaticCallTrait -->
<g id="edge11" class="edge"><title>Core_App&#45;&gt;Core_ExtendableStaticCallTrait</title>
<path fill="none" stroke="black" d="M474.04,-1194.3C476.89,-1155.55 489.473,-1061.81 544.974,-1014.7 554.569,-1006.55 565.841,-1000.55 577.778,-996.172"/>
<polygon fill="black" stroke="black" points="579.06,-999.435 587.473,-992.996 576.881,-992.783 579.06,-999.435"/>
</g>
<!-- Core_ThrowOn -->
<g id="node16" class="node"><title>Core_ThrowOn</title>
<polygon fill="lightgrey" stroke="black" points="689.282,-1059.7 625.938,-1041.7 689.282,-1023.7 752.626,-1041.7 689.282,-1059.7"/>
<polyline fill="none" stroke="black" points="637.481,-1044.98 637.481,-1038.42 "/>
<polyline fill="none" stroke="black" points="677.739,-1026.98 700.825,-1026.98 "/>
<polyline fill="none" stroke="black" points="741.083,-1038.42 741.083,-1044.98 "/>
<polyline fill="none" stroke="black" points="700.825,-1056.42 677.739,-1056.42 "/>
<text text-anchor="middle" x="689.282" y="-1038" font-family="Times,serif" font-size="14.00">ThrowOn</text>
</g>
<!-- Core_App&#45;&gt;Core_ThrowOn -->
<g id="edge10" class="edge"><title>Core_App&#45;&gt;Core_ThrowOn</title>
<path fill="none" stroke="black" d="M476.83,-1195.6C484.261,-1166.48 504.084,-1105.14 544.974,-1073.7 566.651,-1057.03 595.321,-1048.71 621.319,-1044.67"/>
<polygon fill="black" stroke="black" points="622.074,-1048.1 631.508,-1043.28 621.127,-1041.17 622.074,-1048.1"/>
</g>
<!-- Core_ComponentBase -->
<g id="node18" class="node"><title>Core_ComponentBase</title>
<polygon fill="none" stroke="black" points="1163.33,-1003.7 1060.33,-1003.7 1056.33,-999.697 1056.33,-967.697 1159.33,-967.697 1163.33,-971.697 1163.33,-1003.7"/>
<polyline fill="none" stroke="black" points="1159.33,-999.697 1056.33,-999.697 "/>
<polyline fill="none" stroke="black" points="1159.33,-999.697 1159.33,-967.697 "/>
<polyline fill="none" stroke="black" points="1159.33,-999.697 1163.33,-1003.7 "/>
<text text-anchor="middle" x="1109.83" y="-981.997" font-family="Times,serif" font-size="14.00">ComponentBase</text>
</g>
<!-- Core_App&#45;&gt;Core_ComponentBase -->
<g id="edge22" class="edge"><title>Core_App&#45;&gt;Core_ComponentBase</title>
<path fill="none" stroke="black" stroke-dasharray="1,5" d="M472.681,-1229.71C472.501,-1273.37 478.842,-1384.93 544.974,-1434.7 587.186,-1466.46 979.592,-1478.33 1020.33,-1444.7 1087.38,-1389.34 1104.19,-1105.04 1107.89,-1013.87"/>
<polygon fill="black" stroke="black" points="1111.39,-1013.87 1108.28,-1003.74 1104.4,-1013.6 1111.39,-1013.87"/>
</g>
<!-- Core_Functions -->
<g id="node19" class="node"><title>Core_Functions</title>
<ellipse fill="none" stroke="black" cx="689.282" cy="-1357.7" rx="45.4919" ry="18"/>
<text text-anchor="middle" x="689.282" y="-1354" font-family="Times,serif" font-size="14.00">Functions</text>
</g>
<!-- Core_App&#45;&gt;Core_Functions -->
<g id="edge21" class="edge"><title>Core_App&#45;&gt;Core_Functions</title>
<path fill="none" stroke="black" stroke-dasharray="1,5" d="M478.398,-1226.98C487.65,-1251.8 509.428,-1300.62 544.974,-1325.7 570.67,-1343.82 604.875,-1351.91 633.424,-1355.42"/>
<polygon fill="black" stroke="black" points="633.343,-1358.94 643.659,-1356.52 634.09,-1351.98 633.343,-1358.94"/>
</g>
<!-- Core_Kernel&#45;&gt;Core_AutoLoader -->
<g id="edge1" class="edge"><title>Core_Kernel&#45;&gt;Core_AutoLoader</title>
<path fill="none" stroke="black" d="M729.637,-1226.47C761.615,-1226.09 805.825,-1230.97 833.589,-1256.7 878.825,-1298.61 827.894,-1345.26 869.589,-1390.7 875.796,-1397.46 883.83,-1402.53 892.315,-1406.34"/>
<polygon fill="black" stroke="black" points="891.046,-1409.6 901.633,-1409.98 893.598,-1403.08 891.046,-1409.6"/>
</g>
<!-- Core_Kernel&#45;&gt;Core_ExceptionManager -->
<g id="edge4" class="edge"><title>Core_Kernel&#45;&gt;Core_ExceptionManager</title>
<path fill="none" stroke="black" d="M727.169,-1225.63C765.784,-1221.36 827.317,-1214.57 874.979,-1209.31"/>
<polygon fill="black" stroke="black" points="875.37,-1212.79 884.925,-1208.21 874.602,-1205.83 875.37,-1212.79"/>
</g>
<!-- Core_Kernel&#45;&gt;Core_View -->
<g id="edge7" class="edge"><title>Core_Kernel&#45;&gt;Core_View</title>
<path fill="none" stroke="black" d="M720.072,-1222.93C752.188,-1214.19 802.829,-1195.97 833.589,-1162.7 864.521,-1129.23 837.199,-1098.75 869.589,-1066.7 879.938,-1056.46 894.464,-1050.07 907.936,-1046.1"/>
<polygon fill="black" stroke="black" points="909.141,-1049.4 917.946,-1043.51 907.388,-1042.62 909.141,-1049.4"/>
</g>
<!-- Core_Kernel&#45;&gt;Core_Configer -->
<g id="edge2" class="edge"><title>Core_Kernel&#45;&gt;Core_Configer</title>
<path fill="none" stroke="black" d="M715.88,-1221.47C746.016,-1210.98 796.632,-1190.78 833.589,-1162.7 853.165,-1147.82 849.371,-1134.68 869.589,-1120.7 879.462,-1113.87 891.262,-1108.55 902.523,-1104.52"/>
<polygon fill="black" stroke="black" points="903.833,-1107.77 912.217,-1101.29 901.624,-1101.13 903.833,-1107.77"/>
</g>
<!-- Core_Kernel&#45;&gt;Core_Logger -->
<g id="edge3" class="edge"><title>Core_Kernel&#45;&gt;Core_Logger</title>
<path fill="none" stroke="black" d="M730.577,-1232.55C760.079,-1235.75 800.559,-1242.5 833.589,-1256.7 851.723,-1264.49 852.146,-1273.46 869.589,-1282.7 881.372,-1288.93 894.91,-1294.32 907.179,-1298.61"/>
<polygon fill="black" stroke="black" points="906.094,-1301.94 916.688,-1301.81 908.325,-1295.3 906.094,-1301.94"/>
</g>
<!-- Core_Kernel&#45;&gt;Core_Route -->
<g id="edge5" class="edge"><title>Core_Kernel&#45;&gt;Core_Route</title>
<path fill="none" stroke="black" d="M716.002,-1221.38C761.939,-1206.53 858.089,-1175.45 909.615,-1158.8"/>
<polygon fill="black" stroke="black" points="910.858,-1162.08 919.297,-1155.67 908.705,-1155.41 910.858,-1162.08"/>
</g>
<!-- Core_Kernel&#45;&gt;Core_RuntimeState -->
<g id="edge6" class="edge"><title>Core_Kernel&#45;&gt;Core_RuntimeState</title>
<path fill="none" stroke="black" d="M733.098,-1227.75C764.053,-1228.54 805.246,-1234.38 833.589,-1256.7 864.221,-1280.82 841.011,-1310.17 869.589,-1336.7 875.465,-1342.15 882.527,-1346.52 889.929,-1350.02"/>
<polygon fill="black" stroke="black" points="888.847,-1353.36 899.422,-1354 891.553,-1346.9 888.847,-1353.36"/>
</g>
<!-- Core_Kernel&#45;&gt;Core_SuperGlobal -->
<g id="edge8" class="edge"><title>Core_Kernel&#45;&gt;Core_SuperGlobal</title>
<path fill="none" stroke="black" d="M727.986,-1233.56C771.539,-1238.02 843.445,-1245.39 892.211,-1250.39"/>
<polygon fill="black" stroke="black" points="891.942,-1253.88 902.247,-1251.42 892.656,-1246.92 891.942,-1253.88"/>
</g>
<!-- Core_SingletonEx -->
<g id="node4" class="node"><title>Core_SingletonEx</title>
<polygon fill="lightgrey" stroke="black" points="1300.44,-1256.7 1224.36,-1238.7 1300.44,-1220.7 1376.52,-1238.7 1300.44,-1256.7"/>
<polyline fill="none" stroke="black" points="1236.04,-1241.46 1236.04,-1235.93 "/>
<polyline fill="none" stroke="black" points="1288.76,-1223.46 1312.12,-1223.46 "/>
<polyline fill="none" stroke="black" points="1364.84,-1235.93 1364.84,-1241.46 "/>
<polyline fill="none" stroke="black" points="1312.12,-1253.93 1288.76,-1253.93 "/>
<text text-anchor="middle" x="1300.44" y="-1235" font-family="Times,serif" font-size="14.00">SingletonEx</text>
</g>
<!-- Core_ExceptionManager&#45;&gt;Core_ComponentBase -->
<g id="edge27" class="edge"><title>Core_ExceptionManager&#45;&gt;Core_ComponentBase</title>
<path fill="none" stroke="black" stroke-dasharray="1,5" d="M1005.32,-1185.2C1010.75,-1182.25 1015.87,-1178.77 1020.33,-1174.7 1068.67,-1130.51 1092.87,-1054.49 1102.92,-1013.62"/>
<polygon fill="black" stroke="black" points="1106.35,-1014.33 1105.23,-1003.8 1099.53,-1012.73 1106.35,-1014.33"/>
</g>
<!-- Core_View&#45;&gt;Core_ComponentBase -->
<g id="edge32" class="edge"><title>Core_View&#45;&gt;Core_ComponentBase</title>
<path fill="none" stroke="black" stroke-dasharray="1,5" d="M972.128,-1031.02C992.142,-1024.39 1020.59,-1014.95 1046.35,-1006.41"/>
<polygon fill="black" stroke="black" points="1047.68,-1009.66 1056.07,-1003.19 1045.48,-1003.01 1047.68,-1009.66"/>
</g>
<!-- Core_Configer&#45;&gt;Core_ComponentBase -->
<g id="edge28" class="edge"><title>Core_Configer&#45;&gt;Core_ComponentBase</title>
<path fill="none" stroke="black" stroke-dasharray="1,5" d="M977.592,-1085.25C991.293,-1080.83 1007.17,-1074.67 1020.33,-1066.7 1045.2,-1051.63 1069.27,-1028.9 1086.01,-1011.36"/>
<polygon fill="black" stroke="black" points="1088.89,-1013.4 1093.16,-1003.7 1083.78,-1008.62 1088.89,-1013.4"/>
</g>
<!-- Core_Logger&#45;&gt;Core_ComponentBase -->
<g id="edge33" class="edge"><title>Core_Logger&#45;&gt;Core_ComponentBase</title>
<path fill="none" stroke="black" stroke-dasharray="1,5" d="M973.009,-1306.03C988.801,-1302.55 1007.99,-1295.79 1020.33,-1282.7 1092.81,-1205.84 1106.17,-1072.17 1108.46,-1014.04"/>
<polygon fill="black" stroke="black" points="1111.97,-1013.88 1108.78,-1003.78 1104.97,-1013.67 1111.97,-1013.88"/>
</g>
<!-- Core_Route&#45;&gt;Core_ComponentBase -->
<g id="edge29" class="edge"><title>Core_Route&#45;&gt;Core_ComponentBase</title>
<path fill="none" stroke="black" stroke-dasharray="1,5" d="M975.319,-1141.69C989.97,-1137.61 1007.3,-1131.01 1020.33,-1120.7 1056.82,-1091.82 1083.2,-1043.62 1097.24,-1013.3"/>
<polygon fill="black" stroke="black" points="1100.46,-1014.69 1101.36,-1004.13 1094.07,-1011.82 1100.46,-1014.69"/>
</g>
<!-- Core_RuntimeState&#45;&gt;Core_ComponentBase -->
<g id="edge31" class="edge"><title>Core_RuntimeState&#45;&gt;Core_ComponentBase</title>
<path fill="none" stroke="black" stroke-dasharray="1,5" d="M990.701,-1355.25C1001.68,-1351.25 1012.5,-1345.36 1020.33,-1336.7 1063.9,-1288.47 1094.84,-1089.06 1105.11,-1014.23"/>
<polygon fill="black" stroke="black" points="1108.61,-1014.51 1106.48,-1004.13 1101.67,-1013.57 1108.61,-1014.51"/>
</g>
<!-- Core_HttpServer -->
<g id="node13" class="node"><title>Core_HttpServer</title>
<polygon fill="lightgrey" stroke="black" points="944.96,-1003.7 875.248,-985.697 944.96,-967.697 1014.67,-985.697 944.96,-1003.7"/>
<polyline fill="none" stroke="black" points="886.867,-988.697 886.867,-982.697 "/>
<polyline fill="none" stroke="black" points="933.341,-970.697 956.579,-970.697 "/>
<polyline fill="none" stroke="black" points="1003.05,-982.697 1003.05,-988.697 "/>
<polyline fill="none" stroke="black" points="956.579,-1000.7 933.341,-1000.7 "/>
<text text-anchor="middle" x="944.96" y="-981.997" font-family="Times,serif" font-size="14.00">HttpServer</text>
</g>
<!-- Core_HttpServer&#45;&gt;Core_ComponentBase -->
<g id="edge34" class="edge"><title>Core_HttpServer&#45;&gt;Core_ComponentBase</title>
<path fill="none" stroke="black" stroke-dasharray="1,5" d="M1015.03,-985.697C1025.2,-985.697 1035.63,-985.697 1045.67,-985.697"/>
<polygon fill="black" stroke="black" points="1045.96,-989.197 1055.96,-985.697 1045.96,-982.197 1045.96,-989.197"/>
</g>
<!-- Core_SuperGlobal&#45;&gt;Core_ComponentBase -->
<g id="edge30" class="edge"><title>Core_SuperGlobal&#45;&gt;Core_ComponentBase</title>
<path fill="none" stroke="black" stroke-dasharray="1,5" d="M987.799,-1247.52C999.534,-1243.5 1011.49,-1237.53 1020.33,-1228.7 1080.55,-1168.54 1100.11,-1064.21 1106.21,-1014.13"/>
<polygon fill="black" stroke="black" points="1109.71,-1014.35 1107.35,-1004.02 1102.75,-1013.56 1109.71,-1014.35"/>
</g>
<!-- Core_ComponentInterface -->
<g id="node17" class="node"><title>Core_ComponentInterface</title>
<polygon fill="none" stroke="black" points="1358.44,-1003.7 1236.44,-1003.7 1236.44,-967.697 1364.44,-967.697 1364.44,-997.697 1358.44,-1003.7"/>
<polyline fill="none" stroke="black" points="1358.44,-1003.7 1358.44,-997.697 "/>
<polyline fill="none" stroke="black" points="1364.44,-997.697 1358.44,-997.697 "/>
<text text-anchor="middle" x="1300.44" y="-981.997" font-family="Times,serif" font-size="14.00">ComponentInterface</text>
</g>
<!-- Core_ComponentBase&#45;&gt;Core_SingletonEx -->
<g id="edge36" class="edge"><title>Core_ComponentBase&#45;&gt;Core_SingletonEx</title>
<path fill="none" stroke="black" d="M1124.4,-1003.89C1157.86,-1048.78 1244.36,-1164.81 1281.77,-1214.99"/>
<polygon fill="black" stroke="black" points="1279.17,-1217.36 1287.95,-1223.29 1284.78,-1213.18 1279.17,-1217.36"/>
</g>
<!-- Core_ComponentBase&#45;&gt;Core_ComponentInterface -->
<g id="edge35" class="edge"><title>Core_ComponentBase&#45;&gt;Core_ComponentInterface</title>
<path fill="none" stroke="black" d="M1163.37,-985.697C1182.76,-985.697 1205.1,-985.697 1226,-985.697"/>
<polygon fill="black" stroke="black" points="1226.13,-989.197 1236.13,-985.697 1226.13,-982.197 1226.13,-989.197"/>
</g>
<!-- AppHelper -->
<g id="node20" class="node"><title>AppHelper</title>
<polygon fill="lightgrey" stroke="black" points="116.188,-1317.7 45.6372,-1299.7 116.188,-1281.7 186.739,-1299.7 116.188,-1317.7"/>
<polyline fill="none" stroke="black" points="57.2647,-1302.66 57.2647,-1296.73 "/>
<polyline fill="none" stroke="black" points="104.561,-1284.66 127.816,-1284.66 "/>
<polyline fill="none" stroke="black" points="175.112,-1296.73 175.112,-1302.66 "/>
<polyline fill="none" stroke="black" points="127.816,-1314.73 104.561,-1314.73 "/>
<text text-anchor="middle" x="116.188" y="-1296" font-family="Times,serif" font-size="14.00">AppHelper</text>
</g>
<!-- AppHelper&#45;&gt;Core_App -->
<g id="edge37" class="edge"><title>AppHelper&#45;&gt;Core_App</title>
<path fill="none" stroke="black" d="M162.191,-1293.4C219.895,-1284.64 322.632,-1266.75 407.441,-1239.7 419.825,-1235.75 433.054,-1230.18 444.233,-1225.04"/>
<polygon fill="black" stroke="black" points="445.904,-1228.12 453.458,-1220.7 442.92,-1221.79 445.904,-1228.12"/>
</g>
<!-- HelperTrait -->
<g id="node25" class="node"><title>HelperTrait</title>
<polygon fill="none" stroke="black" points="325.909,-1107.7 252.344,-1089.7 325.909,-1071.7 399.474,-1089.7 325.909,-1107.7"/>
<text text-anchor="middle" x="325.909" y="-1086" font-family="Times,serif" font-size="14.00">HelperTrait</text>
</g>
<!-- AppHelper&#45;&gt;HelperTrait -->
<g id="edge46" class="edge"><title>AppHelper&#45;&gt;HelperTrait</title>
<path fill="none" stroke="black" d="M165.453,-1294.22C182.836,-1290.38 201.75,-1283.83 216.376,-1272.7 270.182,-1231.74 302.535,-1155.78 316.602,-1115.82"/>
<polygon fill="black" stroke="black" points="319.95,-1116.85 319.862,-1106.25 313.324,-1114.59 319.95,-1116.85"/>
</g>
<!-- ControllerHelper -->
<g id="node21" class="node"><title>ControllerHelper</title>
<polygon fill="lightgrey" stroke="black" points="116.188,-1263.7 15.8115,-1245.7 116.188,-1227.7 216.565,-1245.7 116.188,-1263.7"/>
<polyline fill="none" stroke="black" points="27.6231,-1247.81 27.6231,-1243.58 "/>
<polyline fill="none" stroke="black" points="104.377,-1229.81 128,-1229.81 "/>
<polyline fill="none" stroke="black" points="204.753,-1243.58 204.753,-1247.81 "/>
<polyline fill="none" stroke="black" points="128,-1261.58 104.377,-1261.58 "/>
<text text-anchor="middle" x="116.188" y="-1242" font-family="Times,serif" font-size="14.00">ControllerHelper</text>
</g>
<!-- ControllerHelper&#45;&gt;Core_App -->
<g id="edge38" class="edge"><title>ControllerHelper&#45;&gt;Core_App</title>
<path fill="none" stroke="black" d="M182.121,-1239.46C254.808,-1232.48 370.328,-1221.39 430.989,-1215.56"/>
<polygon fill="black" stroke="black" points="431.681,-1219.01 441.301,-1214.57 431.012,-1212.04 431.681,-1219.01"/>
</g>
<!-- ControllerHelper&#45;&gt;HelperTrait -->
<g id="edge47" class="edge"><title>ControllerHelper&#45;&gt;HelperTrait</title>
<path fill="none" stroke="black" d="M170.631,-1237.4C186.202,-1233.38 202.691,-1227.44 216.376,-1218.7 258.438,-1191.82 292.625,-1143.5 310.762,-1114.24"/>
<polygon fill="black" stroke="black" points="313.893,-1115.83 316.076,-1105.46 307.904,-1112.2 313.893,-1115.83"/>
</g>
<!-- ModelHelper -->
<g id="node22" class="node"><title>ModelHelper</title>
<polygon fill="lightgrey" stroke="black" points="116.188,-1209.7 34.5777,-1191.7 116.188,-1173.7 197.799,-1191.7 116.188,-1209.7"/>
<polyline fill="none" stroke="black" points="46.296,-1194.28 46.296,-1189.11 "/>
<polyline fill="none" stroke="black" points="104.47,-1176.28 127.906,-1176.28 "/>
<polyline fill="none" stroke="black" points="186.08,-1189.11 186.08,-1194.28 "/>
<polyline fill="none" stroke="black" points="127.906,-1207.11 104.47,-1207.11 "/>
<text text-anchor="middle" x="116.188" y="-1188" font-family="Times,serif" font-size="14.00">ModelHelper</text>
</g>
<!-- ModelHelper&#45;&gt;Core_App -->
<g id="edge39" class="edge"><title>ModelHelper&#45;&gt;Core_App</title>
<path fill="none" stroke="black" d="M181.709,-1195.34C253.539,-1199.4 367.566,-1205.84 428.88,-1209.31"/>
<polygon fill="black" stroke="black" points="428.792,-1212.81 438.973,-1209.88 429.187,-1205.82 428.792,-1212.81"/>
</g>
<!-- ModelHelper&#45;&gt;HelperTrait -->
<g id="edge48" class="edge"><title>ModelHelper&#45;&gt;HelperTrait</title>
<path fill="none" stroke="black" d="M160.295,-1183.33C178.137,-1179.01 198.737,-1172.9 216.376,-1164.7 247.729,-1150.12 279.845,-1126.65 300.922,-1109.85"/>
<polygon fill="black" stroke="black" points="303.136,-1112.56 308.705,-1103.55 298.731,-1107.12 303.136,-1112.56"/>
</g>
<!-- ServiceHelper -->
<g id="node23" class="node"><title>ServiceHelper</title>
<polygon fill="lightgrey" stroke="black" points="116.188,-1155.7 29.8865,-1137.7 116.188,-1119.7 202.49,-1137.7 116.188,-1155.7"/>
<polyline fill="none" stroke="black" points="41.6337,-1140.15 41.6337,-1135.25 "/>
<polyline fill="none" stroke="black" points="104.441,-1122.15 127.935,-1122.15 "/>
<polyline fill="none" stroke="black" points="190.743,-1135.25 190.743,-1140.15 "/>
<polyline fill="none" stroke="black" points="127.935,-1153.25 104.441,-1153.25 "/>
<text text-anchor="middle" x="116.188" y="-1134" font-family="Times,serif" font-size="14.00">ServiceHelper</text>
</g>
<!-- ServiceHelper&#45;&gt;Core_App -->
<g id="edge40" class="edge"><title>ServiceHelper&#45;&gt;Core_App</title>
<path fill="none" stroke="black" d="M162.58,-1146.06C219.83,-1156.77 321.215,-1176.28 407.441,-1195.7 417.441,-1197.95 428.272,-1200.59 438.12,-1203.07"/>
<polygon fill="black" stroke="black" points="437.398,-1206.5 447.952,-1205.57 439.125,-1199.71 437.398,-1206.5"/>
</g>
<!-- ServiceHelper&#45;&gt;HelperTrait -->
<g id="edge49" class="edge"><title>ServiceHelper&#45;&gt;HelperTrait</title>
<path fill="none" stroke="black" d="M157.732,-1128.33C192.051,-1120.4 241.285,-1109.02 277.437,-1100.67"/>
<polygon fill="black" stroke="black" points="278.309,-1104.06 287.264,-1098.4 276.733,-1097.24 278.309,-1104.06"/>
</g>
<!-- ViewHelper -->
<g id="node24" class="node"><title>ViewHelper</title>
<polygon fill="lightgrey" stroke="black" points="116.188,-1101.7 40.1075,-1083.7 116.188,-1065.7 192.269,-1083.7 116.188,-1101.7"/>
<polyline fill="none" stroke="black" points="51.7851,-1086.46 51.7851,-1080.93 "/>
<polyline fill="none" stroke="black" points="104.511,-1068.46 127.866,-1068.46 "/>
<polyline fill="none" stroke="black" points="180.591,-1080.93 180.591,-1086.46 "/>
<polyline fill="none" stroke="black" points="127.866,-1098.93 104.511,-1098.93 "/>
<text text-anchor="middle" x="116.188" y="-1080" font-family="Times,serif" font-size="14.00">ViewHelper</text>
</g>
<!-- ViewHelper&#45;&gt;Core_App -->
<g id="edge41" class="edge"><title>ViewHelper&#45;&gt;Core_App</title>
<path fill="none" stroke="black" d="M153.378,-1092.96C229.912,-1112.58 401.673,-1156.77 407.441,-1159.7 423.997,-1168.11 440.182,-1181.39 452.104,-1192.42"/>
<polygon fill="black" stroke="black" points="449.981,-1195.23 459.628,-1199.61 454.817,-1190.17 449.981,-1195.23"/>
</g>
<!-- ViewHelper&#45;&gt;HelperTrait -->
<g id="edge50" class="edge"><title>ViewHelper&#45;&gt;HelperTrait</title>
<path fill="none" stroke="black" d="M184.342,-1085.64C205.217,-1086.24 228.362,-1086.91 249.746,-1087.53"/>
<polygon fill="black" stroke="black" points="249.66,-1091.02 259.757,-1087.81 249.862,-1084.03 249.66,-1091.02"/>
</g>
<!-- HelperTrait&#45;&gt;Core_App -->
<g id="edge43" class="edge"><title>HelperTrait&#45;&gt;Core_App</title>
<path fill="none" stroke="black" d="M362.515,-1098.93C377.43,-1103.99 394.314,-1111.37 407.441,-1121.7 430.339,-1139.7 448.539,-1168.08 459.539,-1188.16"/>
<polygon fill="black" stroke="black" points="456.584,-1190.05 464.35,-1197.26 462.773,-1186.78 456.584,-1190.05"/>
</g>
<!-- HelperTrait&#45;&gt;Core_SingletonEx -->
<g id="edge42" class="edge"><title>HelperTrait&#45;&gt;Core_SingletonEx</title>
<path fill="none" stroke="black" d="M331.528,-1106.57C348.598,-1165.49 414.016,-1363.54 544.974,-1455.7 598.047,-1493.04 623.385,-1483.7 688.282,-1483.7 688.282,-1483.7 688.282,-1483.7 945.96,-1483.7 1100.39,-1483.7 1236.02,-1323.78 1282.42,-1262.34"/>
<polygon fill="black" stroke="black" points="1285.45,-1264.13 1288.61,-1254.02 1279.83,-1259.96 1285.45,-1264.13"/>
</g>
<!-- HelperTrait&#45;&gt;Core_ExtendableStaticCallTrait -->
<g id="edge44" class="edge"><title>HelperTrait&#45;&gt;Core_ExtendableStaticCallTrait</title>
<path fill="none" stroke="black" d="M354.735,-1078.67C395.803,-1062.72 475.31,-1033.14 544.974,-1014.7 567.466,-1008.74 592.278,-1003.58 614.845,-999.418"/>
<polygon fill="black" stroke="black" points="615.485,-1002.86 624.702,-997.634 614.238,-995.971 615.485,-1002.86"/>
</g>
<!-- HelperTrait&#45;&gt;Core_ThrowOn -->
<g id="edge45" class="edge"><title>HelperTrait&#45;&gt;Core_ThrowOn</title>
<path fill="none" stroke="black" d="M374.152,-1083.42C441.621,-1074.46 565.177,-1058.05 635.547,-1048.7"/>
<polygon fill="black" stroke="black" points="636.079,-1052.16 645.531,-1047.38 635.157,-1045.22 636.079,-1052.16"/>
</g>
<!-- DB_DB -->
<g id="node26" class="node"><title>DB_DB</title>
<ellipse fill="none" stroke="black" cx="1109.83" cy="-64.6966" rx="27" ry="18"/>
<text text-anchor="middle" x="1109.83" y="-60.9966" font-family="Times,serif" font-size="14.00">DB</text>
</g>
<!-- DB_DBAdvanceTrait -->
<g id="node27" class="node"><title>DB_DBAdvanceTrait</title>
<polygon fill="none" stroke="black" points="1300.44,-55.6966 1199.22,-37.6966 1300.44,-19.6966 1401.65,-37.6966 1300.44,-55.6966"/>
<text text-anchor="middle" x="1300.44" y="-33.9966" font-family="Times,serif" font-size="14.00">DBAdvanceTrait</text>
</g>
<!-- DB_DB&#45;&gt;DB_DBAdvanceTrait -->
<g id="edge51" class="edge"><title>DB_DB&#45;&gt;DB_DBAdvanceTrait</title>
<path fill="none" stroke="black" d="M1136.66,-60.999C1161.53,-57.4389 1200.18,-51.9055 1233.58,-47.1241"/>
<polygon fill="black" stroke="black" points="1234.36,-50.5493 1243.76,-45.6674 1233.36,-43.6199 1234.36,-50.5493"/>
</g>
<!-- DB_DBInterface -->
<g id="node28" class="node"><title>DB_DBInterface</title>
<polygon fill="none" stroke="black" points="1335.94,-109.697 1258.94,-109.697 1258.94,-73.6966 1341.94,-73.6966 1341.94,-103.697 1335.94,-109.697"/>
<polyline fill="none" stroke="black" points="1335.94,-109.697 1335.94,-103.697 "/>
<polyline fill="none" stroke="black" points="1341.94,-103.697 1335.94,-103.697 "/>
<text text-anchor="middle" x="1300.44" y="-87.9966" font-family="Times,serif" font-size="14.00">DBInterface</text>
</g>
<!-- DB_DB&#45;&gt;DB_DBInterface -->
<g id="edge52" class="edge"><title>DB_DB&#45;&gt;DB_DBInterface</title>
<path fill="none" stroke="black" d="M1136.66,-68.3942C1165.31,-72.4955 1212.25,-79.2155 1248.38,-84.3878"/>
<polygon fill="black" stroke="black" points="1248.34,-87.9177 1258.74,-85.8702 1249.34,-80.9884 1248.34,-87.9177"/>
</g>
<!-- CallableView -->
<g id="node29" class="node"><title>CallableView</title>
<polygon fill="none" stroke="black" points="734.782,-892.697 643.782,-892.697 643.782,-888.697 639.782,-888.697 639.782,-884.697 643.782,-884.697 643.782,-864.697 639.782,-864.697 639.782,-860.697 643.782,-860.697 643.782,-856.697 734.782,-856.697 734.782,-892.697"/>
<polyline fill="none" stroke="black" points="643.782,-888.697 647.782,-888.697 647.782,-884.697 643.782,-884.697 "/>
<polyline fill="none" stroke="black" points="643.782,-864.697 647.782,-864.697 647.782,-860.697 643.782,-860.697 "/>
<text text-anchor="middle" x="689.282" y="-870.997" font-family="Times,serif" font-size="14.00">CallableView</text>
</g>
<!-- CallableView&#45;&gt;Core_View -->
<g id="edge54" class="edge"><title>CallableView&#45;&gt;Core_View</title>
<path fill="none" stroke="black" d="M734.695,-892.822C765.045,-906.776 804.822,-928.302 833.589,-955.697 855.288,-976.36 846.251,-993.906 869.589,-1012.7 880.673,-1021.62 894.965,-1027.74 908.053,-1031.87"/>
<polygon fill="black" stroke="black" points="907.177,-1035.26 917.755,-1034.65 909.106,-1028.53 907.177,-1035.26"/>
</g>
<!-- DBManager -->
<g id="node30" class="node"><title>DBManager</title>
<polygon fill="none" stroke="black" points="986.96,-82.6966 902.96,-82.6966 902.96,-78.6966 898.96,-78.6966 898.96,-74.6966 902.96,-74.6966 902.96,-54.6966 898.96,-54.6966 898.96,-50.6966 902.96,-50.6966 902.96,-46.6966 986.96,-46.6966 986.96,-82.6966"/>
<polyline fill="none" stroke="black" points="902.96,-78.6966 906.96,-78.6966 906.96,-74.6966 902.96,-74.6966 "/>
<polyline fill="none" stroke="black" points="902.96,-54.6966 906.96,-54.6966 906.96,-50.6966 902.96,-50.6966 "/>
<text text-anchor="middle" x="944.96" y="-60.9966" font-family="Times,serif" font-size="14.00">DBManager</text>
</g>
<!-- DBManager&#45;&gt;Core_ComponentBase -->
<g id="edge76" class="edge"><title>DBManager&#45;&gt;Core_ComponentBase</title>
<path fill="none" stroke="black" stroke-dasharray="1,5" d="M982.783,-82.7534C996.885,-91.5956 1011.66,-103.623 1020.33,-118.697 1105.3,-266.334 1109.27,-825.005 1108.99,-957.426"/>
<polygon fill="black" stroke="black" points="1105.49,-957.554 1108.96,-967.564 1112.49,-957.576 1105.49,-957.554"/>
</g>
<!-- DBManager&#45;&gt;DB_DB -->
<g id="edge53" class="edge"><title>DBManager&#45;&gt;DB_DB</title>
<path fill="none" stroke="black" d="M987.06,-64.6966C1013.28,-64.6966 1046.97,-64.6966 1072.26,-64.6966"/>
<polygon fill="black" stroke="black" points="1072.54,-68.1967 1082.54,-64.6966 1072.54,-61.1967 1072.54,-68.1967"/>
</g>
<!-- DBReusePoolProxy -->
<g id="node31" class="node"><title>DBReusePoolProxy</title>
<polygon fill="none" stroke="black" points="751.782,-82.6966 626.782,-82.6966 626.782,-78.6966 622.782,-78.6966 622.782,-74.6966 626.782,-74.6966 626.782,-54.6966 622.782,-54.6966 622.782,-50.6966 626.782,-50.6966 626.782,-46.6966 751.782,-46.6966 751.782,-82.6966"/>
<polyline fill="none" stroke="black" points="626.782,-78.6966 630.782,-78.6966 630.782,-74.6966 626.782,-74.6966 "/>
<polyline fill="none" stroke="black" points="626.782,-54.6966 630.782,-54.6966 630.782,-50.6966 626.782,-50.6966 "/>
<text text-anchor="middle" x="689.282" y="-60.9966" font-family="Times,serif" font-size="14.00">DBReusePoolProxy</text>
</g>
<!-- DBReusePoolProxy&#45;&gt;DBManager -->
<g id="edge55" class="edge"><title>DBReusePoolProxy&#45;&gt;DBManager</title>
<path fill="none" stroke="black" d="M752.014,-64.6966C795.052,-64.6966 851.811,-64.6966 892.424,-64.6966"/>
<polygon fill="black" stroke="black" points="892.643,-68.1967 902.643,-64.6966 892.643,-61.1967 892.643,-68.1967"/>
</g>
<!-- EmptyView -->
<g id="node32" class="node"><title>EmptyView</title>
<polygon fill="none" stroke="black" points="730.782,-838.697 647.782,-838.697 647.782,-834.697 643.782,-834.697 643.782,-830.697 647.782,-830.697 647.782,-810.697 643.782,-810.697 643.782,-806.697 647.782,-806.697 647.782,-802.697 730.782,-802.697 730.782,-838.697"/>
<polyline fill="none" stroke="black" points="647.782,-834.697 651.782,-834.697 651.782,-830.697 647.782,-830.697 "/>
<polyline fill="none" stroke="black" points="647.782,-810.697 651.782,-810.697 651.782,-806.697 647.782,-806.697 "/>
<text text-anchor="middle" x="689.282" y="-816.997" font-family="Times,serif" font-size="14.00">EmptyView</text>
</g>
<!-- EmptyView&#45;&gt;Core_View -->
<g id="edge56" class="edge"><title>EmptyView&#45;&gt;Core_View</title>
<path fill="none" stroke="black" d="M730.931,-817.115C763.019,-816.639 806.718,-821.583 833.589,-847.697 887.417,-900.007 820.171,-956.202 869.589,-1012.7 879.341,-1023.84 894.072,-1030.39 907.858,-1034.24"/>
<polygon fill="black" stroke="black" points="907.104,-1037.65 917.644,-1036.58 908.737,-1030.85 907.104,-1037.65"/>
</g>
<!-- FacadesAutoLoader -->
<g id="node33" class="node"><title>FacadesAutoLoader</title>
<polygon fill="none" stroke="black" points="1007.46,-163.697 882.46,-163.697 882.46,-159.697 878.46,-159.697 878.46,-155.697 882.46,-155.697 882.46,-135.697 878.46,-135.697 878.46,-131.697 882.46,-131.697 882.46,-127.697 1007.46,-127.697 1007.46,-163.697"/>
<polyline fill="none" stroke="black" points="882.46,-159.697 886.46,-159.697 886.46,-155.697 882.46,-155.697 "/>
<polyline fill="none" stroke="black" points="882.46,-135.697 886.46,-135.697 886.46,-131.697 882.46,-131.697 "/>
<text text-anchor="middle" x="944.96" y="-141.997" font-family="Times,serif" font-size="14.00">FacadesAutoLoader</text>
</g>
<!-- FacadesAutoLoader&#45;&gt;Core_ComponentBase -->
<g id="edge63" class="edge"><title>FacadesAutoLoader&#45;&gt;Core_ComponentBase</title>
<path fill="none" stroke="black" stroke-dasharray="1,5" d="M982.705,-163.798C996.795,-172.648 1011.58,-184.668 1020.33,-199.697 1097.57,-332.299 1107.4,-832.482 1108.65,-957.328"/>
<polygon fill="black" stroke="black" points="1105.15,-957.617 1108.74,-967.586 1112.15,-957.555 1105.15,-957.617"/>
</g>
<!-- FacadesBase -->
<g id="node34" class="node"><title>FacadesBase</title>
<ellipse fill="none" stroke="black" cx="689.282" cy="-118.697" rx="55.7903" ry="18"/>
<text text-anchor="middle" x="689.282" y="-114.997" font-family="Times,serif" font-size="14.00">FacadesBase</text>
</g>
<!-- FacadesBase&#45;&gt;FacadesAutoLoader -->
<g id="edge58" class="edge"><title>FacadesBase&#45;&gt;FacadesAutoLoader</title>
<path fill="none" stroke="black" d="M742.536,-124.258C780.055,-128.251 831.076,-133.682 872.379,-138.078"/>
<polygon fill="black" stroke="black" points="872.071,-141.565 882.385,-139.143 872.811,-134.604 872.071,-141.565"/>
</g>
<!-- JsonRpcClientBase -->
<g id="node35" class="node"><title>JsonRpcClientBase</title>
<ellipse fill="none" stroke="black" cx="689.282" cy="-280.697" rx="79.0865" ry="18"/>
<text text-anchor="middle" x="689.282" y="-276.997" font-family="Times,serif" font-size="14.00">JsonRpcClientBase</text>
</g>
<!-- JsonRpcExt -->
<g id="node36" class="node"><title>JsonRpcExt</title>
<polygon fill="none" stroke="black" points="985.46,-298.697 904.46,-298.697 904.46,-294.697 900.46,-294.697 900.46,-290.697 904.46,-290.697 904.46,-270.697 900.46,-270.697 900.46,-266.697 904.46,-266.697 904.46,-262.697 985.46,-262.697 985.46,-298.697"/>
<polyline fill="none" stroke="black" points="904.46,-294.697 908.46,-294.697 908.46,-290.697 904.46,-290.697 "/>
<polyline fill="none" stroke="black" points="904.46,-270.697 908.46,-270.697 908.46,-266.697 904.46,-266.697 "/>
<text text-anchor="middle" x="944.96" y="-276.997" font-family="Times,serif" font-size="14.00">JsonRpcExt</text>
</g>
<!-- JsonRpcClientBase&#45;&gt;JsonRpcExt -->
<g id="edge57" class="edge"><title>JsonRpcClientBase&#45;&gt;JsonRpcExt</title>
<path fill="none" stroke="black" d="M768.81,-280.697C809.734,-280.697 858.546,-280.697 894.233,-280.697"/>
<polygon fill="black" stroke="black" points="894.398,-284.197 904.398,-280.697 894.398,-277.197 894.398,-284.197"/>
</g>
<!-- JsonRpcExt&#45;&gt;Core_ComponentBase -->
<g id="edge64" class="edge"><title>JsonRpcExt&#45;&gt;Core_ComponentBase</title>
<path fill="none" stroke="black" stroke-dasharray="1,5" d="M985.576,-286.62C998.506,-290.519 1011.73,-296.983 1020.33,-307.697 1102.55,-410.173 1108.75,-842.357 1108.92,-957.443"/>
<polygon fill="black" stroke="black" points="1105.42,-957.568 1108.93,-967.568 1112.42,-957.568 1105.42,-957.568"/>
</g>
<!-- Misc -->
<g id="node37" class="node"><title>Misc</title>
<polygon fill="none" stroke="black" points="716.282,-676.697 662.282,-676.697 662.282,-672.697 658.282,-672.697 658.282,-668.697 662.282,-668.697 662.282,-648.697 658.282,-648.697 658.282,-644.697 662.282,-644.697 662.282,-640.697 716.282,-640.697 716.282,-676.697"/>
<polyline fill="none" stroke="black" points="662.282,-672.697 666.282,-672.697 666.282,-668.697 662.282,-668.697 "/>
<polyline fill="none" stroke="black" points="662.282,-648.697 666.282,-648.697 666.282,-644.697 662.282,-644.697 "/>
<text text-anchor="middle" x="689.282" y="-654.997" font-family="Times,serif" font-size="14.00">Misc</text>
</g>
<!-- Misc&#45;&gt;Core_ComponentBase -->
<g id="edge66" class="edge"><title>Misc&#45;&gt;Core_ComponentBase</title>
<path fill="none" stroke="black" stroke-dasharray="1,5" d="M716.351,-661.758C745.413,-665.594 793.588,-673.225 833.589,-685.697 850.305,-690.908 853.149,-695.675 869.589,-701.697 935.124,-725.701 969.301,-698.085 1020.33,-745.697 1082.04,-803.275 1100.9,-907.639 1106.52,-957.587"/>
<polygon fill="black" stroke="black" points="1103.06,-958.072 1107.56,-967.662 1110.02,-957.357 1103.06,-958.072"/>
</g>
<!-- Pager -->
<g id="node38" class="node"><title>Pager</title>
<polygon fill="none" stroke="black" points="716.282,-406.697 662.282,-406.697 662.282,-402.697 658.282,-402.697 658.282,-398.697 662.282,-398.697 662.282,-378.697 658.282,-378.697 658.282,-374.697 662.282,-374.697 662.282,-370.697 716.282,-370.697 716.282,-406.697"/>
<polyline fill="none" stroke="black" points="662.282,-402.697 666.282,-402.697 666.282,-398.697 662.282,-398.697 "/>
<polyline fill="none" stroke="black" points="662.282,-378.697 666.282,-378.697 666.282,-374.697 662.282,-374.697 "/>
<text text-anchor="middle" x="689.282" y="-384.997" font-family="Times,serif" font-size="14.00">Pager</text>
</g>
<!-- Pager&#45;&gt;Core_ComponentBase -->
<g id="edge65" class="edge"><title>Pager&#45;&gt;Core_ComponentBase</title>
<path fill="none" stroke="black" stroke-dasharray="1,5" d="M716.312,-386.657C747.568,-385.63 799.976,-388.614 833.589,-415.697 865.537,-441.436 838.938,-473.427 869.589,-500.697 921.732,-547.087 973.147,-493.272 1020.33,-544.697 1076.52,-605.938 1100.46,-870.256 1106.93,-957.578"/>
<polygon fill="black" stroke="black" points="1103.44,-957.831 1107.65,-967.553 1110.42,-957.328 1103.44,-957.831"/>
</g>
<!-- PagerInterface -->
<g id="node39" class="node"><title>PagerInterface</title>
<polygon fill="none" stroke="black" points="986.46,-406.697 897.46,-406.697 897.46,-370.697 992.46,-370.697 992.46,-400.697 986.46,-406.697"/>
<polyline fill="none" stroke="black" points="986.46,-406.697 986.46,-400.697 "/>
<polyline fill="none" stroke="black" points="992.46,-400.697 986.46,-400.697 "/>
<text text-anchor="middle" x="944.96" y="-384.997" font-family="Times,serif" font-size="14.00">PagerInterface</text>
</g>
<!-- Pager&#45;&gt;PagerInterface -->
<g id="edge59" class="edge"><title>Pager&#45;&gt;PagerInterface</title>
<path fill="none" stroke="black" d="M716.474,-388.697C756.469,-388.697 833.725,-388.697 887.028,-388.697"/>
<polygon fill="black" stroke="black" points="887.351,-392.197 897.351,-388.697 887.351,-385.197 887.351,-392.197"/>
</g>
<!-- PluginForSwooleHttpd -->
<g id="node40" class="node"><title>PluginForSwooleHttpd</title>
<polygon fill="none" stroke="black" points="760.282,-622.697 618.282,-622.697 618.282,-618.697 614.282,-618.697 614.282,-614.697 618.282,-614.697 618.282,-594.697 614.282,-594.697 614.282,-590.697 618.282,-590.697 618.282,-586.697 760.282,-586.697 760.282,-622.697"/>
<polyline fill="none" stroke="black" points="618.282,-618.697 622.282,-618.697 622.282,-614.697 618.282,-614.697 "/>
<polyline fill="none" stroke="black" points="618.282,-594.697 622.282,-594.697 622.282,-590.697 618.282,-590.697 "/>
<text text-anchor="middle" x="689.282" y="-600.997" font-family="Times,serif" font-size="14.00">PluginForSwooleHttpd</text>
</g>
<!-- PluginForSwooleHttpd&#45;&gt;Core_ComponentBase -->
<g id="edge69" class="edge"><title>PluginForSwooleHttpd&#45;&gt;Core_ComponentBase</title>
<path fill="none" stroke="black" stroke-dasharray="1,5" d="M760.484,-610.241C784.562,-614.109 811.091,-620.65 833.589,-631.697 852.805,-641.132 850.669,-653.682 869.589,-663.697 930.656,-696.018 970.147,-654.206 1020.33,-701.697 1093.81,-771.227 1106.65,-900.621 1108.64,-957.565"/>
<polygon fill="black" stroke="black" points="1105.14,-957.731 1108.9,-967.637 1112.14,-957.549 1105.14,-957.731"/>
</g>
<!-- RedisManager -->
<g id="node41" class="node"><title>RedisManager</title>
<polygon fill="none" stroke="black" points="992.96,-352.697 896.96,-352.697 896.96,-348.697 892.96,-348.697 892.96,-344.697 896.96,-344.697 896.96,-324.697 892.96,-324.697 892.96,-320.697 896.96,-320.697 896.96,-316.697 992.96,-316.697 992.96,-352.697"/>
<polyline fill="none" stroke="black" points="896.96,-348.697 900.96,-348.697 900.96,-344.697 896.96,-344.697 "/>
<polyline fill="none" stroke="black" points="896.96,-324.697 900.96,-324.697 900.96,-320.697 896.96,-320.697 "/>
<text text-anchor="middle" x="944.96" y="-330.997" font-family="Times,serif" font-size="14.00">RedisManager</text>
</g>
<!-- RedisManager&#45;&gt;Core_ComponentBase -->
<g id="edge68" class="edge"><title>RedisManager&#45;&gt;Core_ComponentBase</title>
<path fill="none" stroke="black" stroke-dasharray="1,5" d="M993.263,-343.335C1003.55,-347.327 1013.41,-353.164 1020.33,-361.697 1096.07,-455.029 1106.99,-847.765 1108.57,-957.252"/>
<polygon fill="black" stroke="black" points="1105.07,-957.552 1108.7,-967.507 1112.07,-957.463 1105.07,-957.552"/>
</g>
<!-- RedisSimpleCache -->
<g id="node42" class="node"><title>RedisSimpleCache</title>
<polygon fill="none" stroke="black" points="749.282,-352.697 629.282,-352.697 629.282,-348.697 625.282,-348.697 625.282,-344.697 629.282,-344.697 629.282,-324.697 625.282,-324.697 625.282,-320.697 629.282,-320.697 629.282,-316.697 749.282,-316.697 749.282,-352.697"/>
<polyline fill="none" stroke="black" points="629.282,-348.697 633.282,-348.697 633.282,-344.697 629.282,-344.697 "/>
<polyline fill="none" stroke="black" points="629.282,-324.697 633.282,-324.697 633.282,-320.697 629.282,-320.697 "/>
<text text-anchor="middle" x="689.282" y="-330.997" font-family="Times,serif" font-size="14.00">RedisSimpleCache</text>
</g>
<!-- RedisSimpleCache&#45;&gt;Core_ComponentBase -->
<g id="edge67" class="edge"><title>RedisSimpleCache&#45;&gt;Core_ComponentBase</title>
<path fill="none" stroke="black" stroke-dasharray="1,5" d="M749.3,-335.476C776.829,-338.307 808.886,-345.352 833.589,-361.697 857.645,-377.613 848.447,-396.075 869.589,-415.697 925.965,-468.018 975.709,-438.05 1020.33,-500.697 1073.59,-575.468 1099.73,-865.456 1106.81,-957.496"/>
<polygon fill="black" stroke="black" points="1103.32,-957.763 1107.56,-967.472 1110.3,-957.237 1103.32,-957.763"/>
</g>
<!-- RedisSimpleCache&#45;&gt;RedisManager -->
<g id="edge60" class="edge"><title>RedisSimpleCache&#45;&gt;RedisManager</title>
<path fill="none" stroke="black" d="M749.438,-334.697C790.738,-334.697 845.578,-334.697 886.501,-334.697"/>
<polygon fill="black" stroke="black" points="886.588,-338.197 896.588,-334.697 886.588,-331.197 886.588,-338.197"/>
</g>
<!-- RouteHookDirectoryMode -->
<g id="node43" class="node"><title>RouteHookDirectoryMode</title>
<polygon fill="none" stroke="black" points="770.782,-568.697 607.782,-568.697 607.782,-564.697 603.782,-564.697 603.782,-560.697 607.782,-560.697 607.782,-540.697 603.782,-540.697 603.782,-536.697 607.782,-536.697 607.782,-532.697 770.782,-532.697 770.782,-568.697"/>
<polyline fill="none" stroke="black" points="607.782,-564.697 611.782,-564.697 611.782,-560.697 607.782,-560.697 "/>
<polyline fill="none" stroke="black" points="607.782,-540.697 611.782,-540.697 611.782,-536.697 607.782,-536.697 "/>
<text text-anchor="middle" x="689.282" y="-546.997" font-family="Times,serif" font-size="14.00">RouteHookDirectoryMode</text>
</g>
<!-- RouteHookDirectoryMode&#45;&gt;Core_ComponentBase -->
<g id="edge71" class="edge"><title>RouteHookDirectoryMode&#45;&gt;Core_ComponentBase</title>
<path fill="none" stroke="black" stroke-dasharray="1,5" d="M771.033,-555.436C792.53,-559.414 814.939,-566.218 833.589,-577.697 855.998,-591.488 847.655,-610.163 869.589,-624.697 927.278,-662.92 971.031,-615.133 1020.33,-663.697 1062.66,-705.395 1093.94,-886.755 1104.73,-957.392"/>
<polygon fill="black" stroke="black" points="1101.28,-957.992 1106.23,-967.361 1108.2,-956.952 1101.28,-957.992"/>
</g>
<!-- RouteHookManager -->
<g id="node44" class="node"><title>RouteHookManager</title>
<polygon fill="none" stroke="black" points="753.282,-514.697 625.282,-514.697 625.282,-510.697 621.282,-510.697 621.282,-506.697 625.282,-506.697 625.282,-486.697 621.282,-486.697 621.282,-482.697 625.282,-482.697 625.282,-478.697 753.282,-478.697 753.282,-514.697"/>
<polyline fill="none" stroke="black" points="625.282,-510.697 629.282,-510.697 629.282,-506.697 625.282,-506.697 "/>
<polyline fill="none" stroke="black" points="625.282,-486.697 629.282,-486.697 629.282,-482.697 625.282,-482.697 "/>
<text text-anchor="middle" x="689.282" y="-492.997" font-family="Times,serif" font-size="14.00">RouteHookManager</text>
</g>
<!-- RouteHookManager&#45;&gt;Core_ComponentBase -->
<g id="edge72" class="edge"><title>RouteHookManager&#45;&gt;Core_ComponentBase</title>
<path fill="none" stroke="black" stroke-dasharray="1,5" d="M753.324,-497.175C780.113,-500.111 810.437,-507.326 833.589,-523.697 859.606,-542.093 844.203,-566.44 869.589,-585.697 924.724,-627.519 971.711,-575.452 1020.33,-624.697 1067.43,-672.403 1096.38,-880.483 1105.61,-957.177"/>
<polygon fill="black" stroke="black" points="1102.18,-957.983 1106.83,-967.504 1109.13,-957.163 1102.18,-957.983"/>
</g>
<!-- RouteHookOneFileMode -->
<g id="node45" class="node"><title>RouteHookOneFileMode</title>
<polygon fill="none" stroke="black" points="766.782,-460.697 611.782,-460.697 611.782,-456.697 607.782,-456.697 607.782,-452.697 611.782,-452.697 611.782,-432.697 607.782,-432.697 607.782,-428.697 611.782,-428.697 611.782,-424.697 766.782,-424.697 766.782,-460.697"/>
<polyline fill="none" stroke="black" points="611.782,-456.697 615.782,-456.697 615.782,-452.697 611.782,-452.697 "/>
<polyline fill="none" stroke="black" points="611.782,-432.697 615.782,-432.697 615.782,-428.697 611.782,-428.697 "/>
<text text-anchor="middle" x="689.282" y="-438.997" font-family="Times,serif" font-size="14.00">RouteHookOneFileMode</text>
</g>
<!-- RouteHookOneFileMode&#45;&gt;Core_ComponentBase -->
<g id="edge73" class="edge"><title>RouteHookOneFileMode&#45;&gt;Core_ComponentBase</title>
<path fill="none" stroke="black" stroke-dasharray="1,5" d="M767.136,-444.039C790.377,-447.714 814.712,-455.204 833.589,-469.697 862.918,-492.213 841.177,-521.035 869.589,-544.697 922.941,-589.128 972.424,-535.442 1020.33,-585.697 1071.99,-639.892 1098.54,-875.51 1106.34,-957.47"/>
<polygon fill="black" stroke="black" points="1102.86,-957.918 1107.28,-967.55 1109.83,-957.269 1102.86,-957.918"/>
</g>
<!-- RouteHookRewrite -->
<g id="node46" class="node"><title>RouteHookRewrite</title>
<polygon fill="none" stroke="black" points="750.282,-784.697 628.282,-784.697 628.282,-780.697 624.282,-780.697 624.282,-776.697 628.282,-776.697 628.282,-756.697 624.282,-756.697 624.282,-752.697 628.282,-752.697 628.282,-748.697 750.282,-748.697 750.282,-784.697"/>
<polyline fill="none" stroke="black" points="628.282,-780.697 632.282,-780.697 632.282,-776.697 628.282,-776.697 "/>
<polyline fill="none" stroke="black" points="628.282,-756.697 632.282,-756.697 632.282,-752.697 628.282,-752.697 "/>
<text text-anchor="middle" x="689.282" y="-762.997" font-family="Times,serif" font-size="14.00">RouteHookRewrite</text>
</g>
<!-- RouteHookRewrite&#45;&gt;Core_ComponentBase -->
<g id="edge74" class="edge"><title>RouteHookRewrite&#45;&gt;Core_ComponentBase</title>
<path fill="none" stroke="black" stroke-dasharray="1,5" d="M750.485,-772.291C776.748,-776.175 807.446,-782.716 833.589,-793.697 934.131,-835.928 1034.79,-919.042 1081.64,-960.681"/>
<polygon fill="black" stroke="black" points="1079.44,-963.408 1089.23,-967.475 1084.12,-958.195 1079.44,-963.408"/>
</g>
<!-- RouteHookRouteMap -->
<g id="node47" class="node"><title>RouteHookRouteMap</title>
<polygon fill="none" stroke="black" points="757.782,-730.697 620.782,-730.697 620.782,-726.697 616.782,-726.697 616.782,-722.697 620.782,-722.697 620.782,-702.697 616.782,-702.697 616.782,-698.697 620.782,-698.697 620.782,-694.697 757.782,-694.697 757.782,-730.697"/>
<polyline fill="none" stroke="black" points="620.782,-726.697 624.782,-726.697 624.782,-722.697 620.782,-722.697 "/>
<polyline fill="none" stroke="black" points="620.782,-702.697 624.782,-702.697 624.782,-698.697 620.782,-698.697 "/>
<text text-anchor="middle" x="689.282" y="-708.997" font-family="Times,serif" font-size="14.00">RouteHookRouteMap</text>
</g>
<!-- RouteHookRouteMap&#45;&gt;Core_ComponentBase -->
<g id="edge75" class="edge"><title>RouteHookRouteMap&#45;&gt;Core_ComponentBase</title>
<path fill="none" stroke="black" stroke-dasharray="1,5" d="M757.908,-722.967C782.005,-727.274 809.206,-732.884 833.589,-739.697 918.956,-763.546 954.386,-750.472 1020.33,-809.697 1065.45,-850.22 1090.53,-919.051 1101.68,-957.529"/>
<polygon fill="black" stroke="black" points="1098.41,-958.832 1104.46,-967.528 1105.15,-956.956 1098.41,-958.832"/>
</g>
<!-- StrictCheck -->
<g id="node48" class="node"><title>StrictCheck</title>
<polygon fill="none" stroke="black" points="984.96,-244.697 904.96,-244.697 904.96,-240.697 900.96,-240.697 900.96,-236.697 904.96,-236.697 904.96,-216.697 900.96,-216.697 900.96,-212.697 904.96,-212.697 904.96,-208.697 984.96,-208.697 984.96,-244.697"/>
<polyline fill="none" stroke="black" points="904.96,-240.697 908.96,-240.697 908.96,-236.697 904.96,-236.697 "/>
<polyline fill="none" stroke="black" points="904.96,-216.697 908.96,-216.697 908.96,-212.697 904.96,-212.697 "/>
<text text-anchor="middle" x="944.96" y="-222.997" font-family="Times,serif" font-size="14.00">StrictCheck</text>
</g>
<!-- StrictCheck&#45;&gt;Core_ComponentBase -->
<g id="edge70" class="edge"><title>StrictCheck&#45;&gt;Core_ComponentBase</title>
<path fill="none" stroke="black" stroke-dasharray="1,5" d="M985.245,-232.459C998.304,-236.341 1011.7,-242.835 1020.33,-253.697 1108.95,-365.22 1110.37,-836.055 1109.23,-957.186"/>
<polygon fill="black" stroke="black" points="1105.73,-957.449 1109.12,-967.486 1112.73,-957.525 1105.73,-957.449"/>
</g>
<!-- StrictModelTrait -->
<g id="node49" class="node"><title>StrictModelTrait</title>
<polygon fill="none" stroke="black" points="689.282,-244.697 590.243,-226.697 689.282,-208.697 788.32,-226.697 689.282,-244.697"/>
<text text-anchor="middle" x="689.282" y="-222.997" font-family="Times,serif" font-size="14.00">StrictModelTrait</text>
</g>
<!-- StrictModelTrait&#45;&gt;StrictCheck -->
<g id="edge61" class="edge"><title>StrictModelTrait&#45;&gt;StrictCheck</title>
<path fill="none" stroke="black" d="M788.36,-226.697C824.654,-226.697 864.263,-226.697 894.436,-226.697"/>
<polygon fill="black" stroke="black" points="894.694,-230.197 904.694,-226.697 894.694,-223.197 894.694,-230.197"/>
</g>
<!-- StrictServiceTrait -->
<g id="node50" class="node"><title>StrictServiceTrait</title>
<polygon fill="none" stroke="black" points="689.282,-190.697 585.552,-172.697 689.282,-154.697 793.011,-172.697 689.282,-190.697"/>
<text text-anchor="middle" x="689.282" y="-168.997" font-family="Times,serif" font-size="14.00">StrictServiceTrait</text>
</g>
<!-- StrictServiceTrait&#45;&gt;StrictCheck -->
<g id="edge62" class="edge"><title>StrictServiceTrait&#45;&gt;StrictCheck</title>
<path fill="none" stroke="black" d="M741.486,-181.655C768.882,-186.621 803.153,-193.112 833.589,-199.697 853.692,-204.046 875.727,-209.331 894.787,-214.068"/>
<polygon fill="black" stroke="black" points="894.195,-217.528 904.746,-216.561 895.895,-210.738 894.195,-217.528"/>
</g>
<!-- HttpServer -->
<g id="node51" class="node"><title>HttpServer</title>
<polygon fill="lightgrey" stroke="black" points="325.909,-620.697 256.197,-602.697 325.909,-584.697 395.621,-602.697 325.909,-620.697"/>
<polyline fill="none" stroke="black" points="267.816,-605.697 267.816,-599.697 "/>
<polyline fill="none" stroke="black" points="314.29,-587.697 337.528,-587.697 "/>
<polyline fill="none" stroke="black" points="384.002,-599.697 384.002,-605.697 "/>
<polyline fill="none" stroke="black" points="337.528,-617.697 314.29,-617.697 "/>
<text text-anchor="middle" x="325.909" y="-598.997" font-family="Times,serif" font-size="14.00">HttpServer</text>
</g>
<!-- HttpServer&#45;&gt;Core_HttpServer -->
<g id="edge77" class="edge"><title>HttpServer&#45;&gt;Core_HttpServer</title>
<path fill="none" stroke="black" d="M332.295,-619.19C351.194,-674.13 420.19,-851.733 544.974,-927.697 600.115,-961.264 769.947,-949.883 833.589,-960.697 855.462,-964.413 879.513,-969.715 899.566,-974.481"/>
<polygon fill="black" stroke="black" points="898.815,-977.9 909.357,-976.84 900.455,-971.095 898.815,-977.9"/>
</g>
<!-- DuckPhp -->
<g id="node52" class="node"><title>DuckPhp</title>
<polygon fill="lightgrey" stroke="black" points="325.909,-566.697 264.242,-548.697 325.909,-530.697 387.576,-548.697 325.909,-566.697"/>
<polyline fill="none" stroke="black" points="275.761,-552.059 275.761,-545.334 "/>
<polyline fill="none" stroke="black" points="314.39,-534.059 337.428,-534.059 "/>
<polyline fill="none" stroke="black" points="376.057,-545.334 376.057,-552.059 "/>
<polyline fill="none" stroke="black" points="337.428,-563.334 314.39,-563.334 "/>
<text text-anchor="middle" x="325.909" y="-544.997" font-family="Times,serif" font-size="14.00">DuckPhp</text>
</g>
<!-- DuckPhp&#45;&gt;Core_App -->
<g id="edge78" class="edge"><title>DuckPhp&#45;&gt;Core_App</title>
<path fill="none" stroke="black" d="M370.35,-553.832C384.227,-557.664 398.334,-564.287 407.441,-575.697 445.918,-623.904 465.658,-1068.07 470.185,-1184.08"/>
<polygon fill="black" stroke="black" points="466.695,-1184.4 470.576,-1194.26 473.69,-1184.14 466.695,-1184.4"/>
</g>
<!-- DuckPhp&#45;&gt;DBManager -->
<g id="edge81" class="edge"><title>DuckPhp&#45;&gt;DBManager</title>
<path fill="none" stroke="black" d="M327.916,-531.068C333.306,-455.337 365.696,-156.111 544.974,-37.6966 651.996,32.9918 812.333,-12.4039 893.304,-43.1536"/>
<polygon fill="black" stroke="black" points="892.187,-46.4742 902.776,-46.8222 894.715,-39.9467 892.187,-46.4742"/>
</g>
<!-- DuckPhp&#45;&gt;Pager -->
<g id="edge80" class="edge"><title>DuckPhp&#45;&gt;Pager</title>
<path fill="none" stroke="black" d="M342.897,-535.513C377.349,-507.921 462.19,-444.282 544.974,-415.697 580.248,-403.517 622.411,-396.412 651.836,-392.575"/>
<polygon fill="black" stroke="black" points="652.571,-396.011 662.065,-391.306 651.71,-389.064 652.571,-396.011"/>
</g>
<!-- DuckPhp&#45;&gt;RouteHookOneFileMode -->
<g id="edge82" class="edge"><title>DuckPhp&#45;&gt;RouteHookOneFileMode</title>
<path fill="none" stroke="black" d="M351.995,-538.102C392.121,-521.5 473.507,-489.237 544.974,-469.697 563.087,-464.744 582.734,-460.395 601.505,-456.715"/>
<polygon fill="black" stroke="black" points="602.364,-460.114 611.528,-454.796 601.048,-453.239 602.364,-460.114"/>
</g>
<!-- DuckPhp&#45;&gt;RouteHookRouteMap -->
<g id="edge79" class="edge"><title>DuckPhp&#45;&gt;RouteHookRouteMap</title>
<path fill="none" stroke="black" d="M359.737,-556.86C374.788,-561.308 392.552,-567.58 407.441,-575.697 476.167,-613.157 473.842,-653.037 544.974,-685.697 565.326,-695.041 588.722,-701.151 610.63,-705.147"/>
<polygon fill="black" stroke="black" points="610.129,-708.612 620.574,-706.838 611.303,-701.711 610.129,-708.612"/>
</g>
</g>
</svg>
