<?xml version="1.0" encoding="UTF-8" standalone="no"?>
<!DOCTYPE svg PUBLIC "-//W3C//DTD SVG 1.1//EN"
 "http://www.w3.org/Graphics/SVG/1.1/DTD/svg11.dtd">
<!-- Generated by graphviz version 2.38.0 (20140413.2041)
 -->
<!-- Title: G Pages: 1 -->
<svg width="1405pt" height="1377pt"
 viewBox="0.00 0.00 1405.32 1376.66" xmlns="http://www.w3.org/2000/svg" xmlns:xlink="http://www.w3.org/1999/xlink">
<g id="graph0" class="graph" transform="scale(1 1) rotate(0) translate(4 1372.66)">
<title>G</title>
<polygon fill="white" stroke="none" points="-4,4 -4,-1372.66 1401.32,-1372.66 1401.32,4 -4,4"/>
<g id="clust1" class="cluster"><title>cluster_Core</title>
<polygon fill="none" stroke="black" points="432.956,-833.663 432.956,-1360.66 1364.5,-1360.66 1364.5,-833.663 432.956,-833.663"/>
<text text-anchor="middle" x="898.729" y="-1345.46" font-family="Times,serif" font-size="14.00">[DuckPhp\Core]</text>
</g>
<g id="clust2" class="cluster"><title>cluster_Helper</title>
<polygon fill="none" stroke="black" points="8,-984.663 8,-1275.66 410.199,-1275.66 410.199,-984.663 8,-984.663"/>
<text text-anchor="middle" x="209.099" y="-1260.46" font-family="Times,serif" font-size="14.00">[DuckPhp\Helper]</text>
</g>
<g id="clust3" class="cluster"><title>cluster_DB</title>
<polygon fill="none" stroke="black" points="1054.6,-13.6631 1054.6,-142.663 1389.32,-142.663 1389.32,-13.6631 1054.6,-13.6631"/>
<text text-anchor="middle" x="1221.96" y="-127.463" font-family="Times,serif" font-size="14.00">[DuckPhp\DB]</text>
</g>
<g id="clust4" class="cluster"><title>cluster_Ext</title>
<polygon fill="none" stroke="black" points="582.932,-40.6631 582.932,-817.663 1008.1,-817.663 1008.1,-40.6631 582.932,-40.6631"/>
<text text-anchor="middle" x="795.518" y="-802.463" font-family="Times,serif" font-size="14.00">[DuckPhp\Ext]</text>
</g>
<g id="clust5" class="cluster"><title>cluster_DuckPhp</title>
<polygon fill="none" stroke="black" points="244.376,-739.663 244.376,-976.663 412.956,-976.663 412.956,-739.663 244.376,-739.663"/>
<text text-anchor="middle" x="328.666" y="-961.463" font-family="Times,serif" font-size="14.00">[DuckPhp]</text>
</g>
<!-- Core_AppPluginTrait -->
<g id="node1" class="node"><title>Core_AppPluginTrait</title>
<polygon fill="none" stroke="black" points="694.797,-1141.66 602.127,-1123.66 694.797,-1105.66 787.467,-1123.66 694.797,-1141.66"/>
<polyline fill="none" stroke="black" points="613.906,-1125.95 613.906,-1121.38 "/>
<polyline fill="none" stroke="black" points="683.017,-1107.95 706.576,-1107.95 "/>
<polyline fill="none" stroke="black" points="775.687,-1121.38 775.687,-1125.95 "/>
<polyline fill="none" stroke="black" points="706.576,-1139.38 683.017,-1139.38 "/>
<text text-anchor="middle" x="694.797" y="-1119.96" font-family="Times,serif" font-size="14.00">AppPluginTrait</text>
</g>
<!-- Core_AutoLoader -->
<g id="node5" class="node"><title>Core_AutoLoader</title>
<polygon fill="none" stroke="black" points="978.604,-1147.66 896.604,-1147.66 896.604,-1143.66 892.604,-1143.66 892.604,-1139.66 896.604,-1139.66 896.604,-1119.66 892.604,-1119.66 892.604,-1115.66 896.604,-1115.66 896.604,-1111.66 978.604,-1111.66 978.604,-1147.66"/>
<polyline fill="none" stroke="black" points="896.604,-1143.66 900.604,-1143.66 900.604,-1139.66 896.604,-1139.66 "/>
<polyline fill="none" stroke="black" points="896.604,-1119.66 900.604,-1119.66 900.604,-1115.66 896.604,-1115.66 "/>
<text text-anchor="middle" x="937.604" y="-1125.96" font-family="Times,serif" font-size="14.00">AutoLoader</text>
</g>
<!-- Core_AppPluginTrait&#45;&gt;Core_AutoLoader -->
<g id="edge22" class="edge"><title>Core_AppPluginTrait&#45;&gt;Core_AutoLoader</title>
<path fill="none" stroke="black" d="M777.323,-1125.69C813.364,-1126.59 854.611,-1127.62 886.1,-1128.4"/>
<polygon fill="black" stroke="black" points="886.299,-1131.91 896.383,-1128.66 886.474,-1124.91 886.299,-1131.91"/>
</g>
<!-- Core_View -->
<g id="node7" class="node"><title>Core_View</title>
<polygon fill="none" stroke="black" points="964.604,-931.663 910.604,-931.663 910.604,-927.663 906.604,-927.663 906.604,-923.663 910.604,-923.663 910.604,-903.663 906.604,-903.663 906.604,-899.663 910.604,-899.663 910.604,-895.663 964.604,-895.663 964.604,-931.663"/>
<polyline fill="none" stroke="black" points="910.604,-927.663 914.604,-927.663 914.604,-923.663 910.604,-923.663 "/>
<polyline fill="none" stroke="black" points="910.604,-903.663 914.604,-903.663 914.604,-899.663 910.604,-899.663 "/>
<text text-anchor="middle" x="937.604" y="-909.963" font-family="Times,serif" font-size="14.00">View</text>
</g>
<!-- Core_AppPluginTrait&#45;&gt;Core_View -->
<g id="edge24" class="edge"><title>Core_AppPluginTrait&#45;&gt;Core_View</title>
<path fill="none" stroke="black" d="M755.543,-1117.39C784.432,-1111.37 817.452,-1099.61 839.104,-1076.66 882.013,-1031.18 834.445,-988.165 875.104,-940.663 881.872,-932.757 891.396,-927.081 900.931,-923.043"/>
<polygon fill="black" stroke="black" points="902.22,-926.298 910.369,-919.527 899.776,-919.738 902.22,-926.298"/>
</g>
<!-- Core_Configer -->
<g id="node8" class="node"><title>Core_Configer</title>
<polygon fill="none" stroke="black" points="970.104,-1039.66 905.104,-1039.66 905.104,-1035.66 901.104,-1035.66 901.104,-1031.66 905.104,-1031.66 905.104,-1011.66 901.104,-1011.66 901.104,-1007.66 905.104,-1007.66 905.104,-1003.66 970.104,-1003.66 970.104,-1039.66"/>
<polyline fill="none" stroke="black" points="905.104,-1035.66 909.104,-1035.66 909.104,-1031.66 905.104,-1031.66 "/>
<polyline fill="none" stroke="black" points="905.104,-1011.66 909.104,-1011.66 909.104,-1007.66 905.104,-1007.66 "/>
<text text-anchor="middle" x="937.604" y="-1017.96" font-family="Times,serif" font-size="14.00">Configer</text>
</g>
<!-- Core_AppPluginTrait&#45;&gt;Core_Configer -->
<g id="edge23" class="edge"><title>Core_AppPluginTrait&#45;&gt;Core_Configer</title>
<path fill="none" stroke="black" d="M737.786,-1113.98C767.202,-1106.24 806.858,-1093.82 839.104,-1076.66 856.999,-1067.14 857.691,-1059.04 875.104,-1048.66 881.509,-1044.85 888.551,-1041.25 895.512,-1038.01"/>
<polygon fill="black" stroke="black" points="897.19,-1041.09 904.887,-1033.81 894.33,-1034.7 897.19,-1041.09"/>
</g>
<!-- Core_Route -->
<g id="node10" class="node"><title>Core_Route</title>
<polygon fill="none" stroke="black" points="937.604,-1093.66 892.527,-1075.66 937.604,-1057.66 982.682,-1075.66 937.604,-1093.66"/>
<polyline fill="none" stroke="black" points="903.671,-1080.11 903.671,-1071.21 "/>
<polyline fill="none" stroke="black" points="926.46,-1062.11 948.749,-1062.11 "/>
<polyline fill="none" stroke="black" points="971.537,-1071.21 971.537,-1080.11 "/>
<polyline fill="none" stroke="black" points="948.749,-1089.21 926.46,-1089.21 "/>
<text text-anchor="middle" x="937.604" y="-1071.96" font-family="Times,serif" font-size="14.00">Route</text>
</g>
<!-- Core_AppPluginTrait&#45;&gt;Core_Route -->
<g id="edge25" class="edge"><title>Core_AppPluginTrait&#45;&gt;Core_Route</title>
<path fill="none" stroke="black" d="M741.091,-1114.63C786.024,-1105.68 854.195,-1092.09 897.022,-1083.55"/>
<polygon fill="black" stroke="black" points="897.948,-1086.94 907.071,-1081.55 896.58,-1080.07 897.948,-1086.94"/>
</g>
<!-- Core_SuperGlobal -->
<g id="node14" class="node"><title>Core_SuperGlobal</title>
<polygon fill="none" stroke="black" points="980.104,-1201.66 895.104,-1201.66 895.104,-1197.66 891.104,-1197.66 891.104,-1193.66 895.104,-1193.66 895.104,-1173.66 891.104,-1173.66 891.104,-1169.66 895.104,-1169.66 895.104,-1165.66 980.104,-1165.66 980.104,-1201.66"/>
<polyline fill="none" stroke="black" points="895.104,-1197.66 899.104,-1197.66 899.104,-1193.66 895.104,-1193.66 "/>
<polyline fill="none" stroke="black" points="895.104,-1173.66 899.104,-1173.66 899.104,-1169.66 895.104,-1169.66 "/>
<text text-anchor="middle" x="937.604" y="-1179.96" font-family="Times,serif" font-size="14.00">SuperGlobal</text>
</g>
<!-- Core_AppPluginTrait&#45;&gt;Core_SuperGlobal -->
<g id="edge26" class="edge"><title>Core_AppPluginTrait&#45;&gt;Core_SuperGlobal</title>
<path fill="none" stroke="black" d="M747.255,-1131.56C774.722,-1136.23 808.981,-1142.77 839.104,-1150.66 854.277,-1154.64 870.508,-1159.77 885.286,-1164.79"/>
<polygon fill="black" stroke="black" points="884.168,-1168.11 894.763,-1168.07 886.453,-1161.49 884.168,-1168.11"/>
</g>
<!-- Core_App -->
<g id="node2" class="node"><title>Core_App</title>
<polygon fill="none" stroke="black" points="477.723,-1104.66 441.189,-1086.66 477.723,-1068.66 514.257,-1086.66 477.723,-1104.66"/>
<polyline fill="none" stroke="black" points="451.953,-1091.97 451.953,-1081.36 "/>
<polyline fill="none" stroke="black" points="466.958,-1073.97 488.487,-1073.97 "/>
<polyline fill="none" stroke="black" points="503.492,-1081.36 503.492,-1091.97 "/>
<polyline fill="none" stroke="black" points="488.487,-1099.36 466.958,-1099.36 "/>
<text text-anchor="middle" x="477.723" y="-1082.96" font-family="Times,serif" font-size="14.00">App</text>
</g>
<!-- Core_Kernel -->
<g id="node3" class="node"><title>Core_Kernel</title>
<polygon fill="none" stroke="black" points="694.797,-1195.66 645.865,-1177.66 694.797,-1159.66 743.728,-1177.66 694.797,-1195.66"/>
<text text-anchor="middle" x="694.797" y="-1173.96" font-family="Times,serif" font-size="14.00">Kernel</text>
</g>
<!-- Core_App&#45;&gt;Core_Kernel -->
<g id="edge9" class="edge"><title>Core_App&#45;&gt;Core_Kernel</title>
<path fill="none" stroke="black" d="M488.957,-1099.24C501.732,-1114.02 525.024,-1138.13 550.489,-1150.66 578.612,-1164.5 613.048,-1171.27 641.115,-1174.57"/>
<polygon fill="black" stroke="black" points="640.83,-1178.06 651.143,-1175.63 641.569,-1171.1 640.83,-1178.06"/>
</g>
<!-- Core_App&#45;&gt;Core_AutoLoader -->
<g id="edge13" class="edge"><title>Core_App&#45;&gt;Core_AutoLoader</title>
<path fill="none" stroke="black" stroke-dasharray="1,5" d="M482.906,-1102.54C490.911,-1129.29 511.196,-1182.57 550.489,-1204.66 606.395,-1236.1 781.739,-1233.35 839.104,-1204.66 862.956,-1192.74 854.211,-1173.23 875.104,-1156.66 878.902,-1153.65 883.087,-1150.91 887.434,-1148.42"/>
<polygon fill="black" stroke="black" points="889.269,-1151.41 896.513,-1143.68 886.029,-1145.21 889.269,-1151.41"/>
</g>
<!-- Core_ExceptionManager -->
<g id="node6" class="node"><title>Core_ExceptionManager</title>
<polygon fill="none" stroke="black" points="997.604,-1255.66 877.604,-1255.66 877.604,-1251.66 873.604,-1251.66 873.604,-1247.66 877.604,-1247.66 877.604,-1227.66 873.604,-1227.66 873.604,-1223.66 877.604,-1223.66 877.604,-1219.66 997.604,-1219.66 997.604,-1255.66"/>
<polyline fill="none" stroke="black" points="877.604,-1251.66 881.604,-1251.66 881.604,-1247.66 877.604,-1247.66 "/>
<polyline fill="none" stroke="black" points="877.604,-1227.66 881.604,-1227.66 881.604,-1223.66 877.604,-1223.66 "/>
<text text-anchor="middle" x="937.604" y="-1233.96" font-family="Times,serif" font-size="14.00">ExceptionManager</text>
</g>
<!-- Core_App&#45;&gt;Core_ExceptionManager -->
<g id="edge16" class="edge"><title>Core_App&#45;&gt;Core_ExceptionManager</title>
<path fill="none" stroke="black" stroke-dasharray="1,5" d="M481.026,-1103.41C486.467,-1135.68 503.401,-1205.91 550.489,-1235.66 601.321,-1267.78 770.53,-1255.87 867.238,-1245.86"/>
<polygon fill="black" stroke="black" points="867.647,-1249.34 877.225,-1244.81 866.913,-1242.38 867.647,-1249.34"/>
</g>
<!-- Core_App&#45;&gt;Core_View -->
<g id="edge19" class="edge"><title>Core_App&#45;&gt;Core_View</title>
<path fill="none" stroke="black" stroke-dasharray="1,5" d="M483.073,-1071.07C491.329,-1044.75 511.984,-992.101 550.489,-968.663 605.406,-935.236 776.185,-961.871 839.104,-948.663 860.141,-944.247 882.787,-936.326 900.954,-929.134"/>
<polygon fill="black" stroke="black" points="902.328,-932.354 910.28,-925.352 899.698,-925.867 902.328,-932.354"/>
</g>
<!-- Core_App&#45;&gt;Core_Configer -->
<g id="edge14" class="edge"><title>Core_App&#45;&gt;Core_Configer</title>
<path fill="none" stroke="black" stroke-dasharray="1,5" d="M479.113,-1069.24C481.049,-1030.07 491.867,-935.335 550.489,-894.663 576.837,-876.383 812.868,-876.223 839.104,-894.663 877.751,-921.825 842.86,-960.143 875.104,-994.663 880.701,-1000.65 887.863,-1005.39 895.308,-1009.11"/>
<polygon fill="black" stroke="black" points="894.231,-1012.46 904.793,-1013.3 897.057,-1006.06 894.231,-1012.46"/>
</g>
<!-- Core_Logger -->
<g id="node9" class="node"><title>Core_Logger</title>
<polygon fill="none" stroke="black" points="965.604,-1329.66 909.604,-1329.66 909.604,-1325.66 905.604,-1325.66 905.604,-1321.66 909.604,-1321.66 909.604,-1301.66 905.604,-1301.66 905.604,-1297.66 909.604,-1297.66 909.604,-1293.66 965.604,-1293.66 965.604,-1329.66"/>
<polyline fill="none" stroke="black" points="909.604,-1325.66 913.604,-1325.66 913.604,-1321.66 909.604,-1321.66 "/>
<polyline fill="none" stroke="black" points="909.604,-1301.66 913.604,-1301.66 913.604,-1297.66 909.604,-1297.66 "/>
<text text-anchor="middle" x="937.604" y="-1307.96" font-family="Times,serif" font-size="14.00">Logger</text>
</g>
<!-- Core_App&#45;&gt;Core_Logger -->
<g id="edge15" class="edge"><title>Core_App&#45;&gt;Core_Logger</title>
<path fill="none" stroke="black" stroke-dasharray="1,5" d="M480.555,-1103.34C485.272,-1137.47 501.151,-1215.14 550.489,-1251.66 602.376,-1290.07 775.736,-1272.34 839.104,-1284.66 859.471,-1288.62 881.801,-1294.68 899.947,-1300.05"/>
<polygon fill="black" stroke="black" points="898.973,-1303.41 909.558,-1302.95 900.994,-1296.71 898.973,-1303.41"/>
</g>
<!-- Core_App&#45;&gt;Core_Route -->
<g id="edge17" class="edge"><title>Core_App&#45;&gt;Core_Route</title>
<path fill="none" stroke="black" stroke-dasharray="1,5" d="M512.764,-1085.85C592.172,-1083.94 790.076,-1079.18 884.664,-1076.91"/>
<polygon fill="black" stroke="black" points="884.942,-1080.41 894.855,-1076.67 884.774,-1073.41 884.942,-1080.41"/>
</g>
<!-- Core_RuntimeState -->
<g id="node11" class="node"><title>Core_RuntimeState</title>
<polygon fill="none" stroke="black" points="983.104,-985.663 892.104,-985.663 892.104,-981.663 888.104,-981.663 888.104,-977.663 892.104,-977.663 892.104,-957.663 888.104,-957.663 888.104,-953.663 892.104,-953.663 892.104,-949.663 983.104,-949.663 983.104,-985.663"/>
<polyline fill="none" stroke="black" points="892.104,-981.663 896.104,-981.663 896.104,-977.663 892.104,-977.663 "/>
<polyline fill="none" stroke="black" points="892.104,-957.663 896.104,-957.663 896.104,-953.663 892.104,-953.663 "/>
<text text-anchor="middle" x="937.604" y="-963.963" font-family="Times,serif" font-size="14.00">RuntimeState</text>
</g>
<!-- Core_App&#45;&gt;Core_RuntimeState -->
<g id="edge18" class="edge"><title>Core_App&#45;&gt;Core_RuntimeState</title>
<path fill="none" stroke="black" stroke-dasharray="1,5" d="M478.531,-1069.01C479.157,-1027.3 487.261,-922.803 550.489,-877.663 602.688,-840.397 783.632,-845.471 839.104,-877.663 866.997,-893.85 851.131,-919.093 875.104,-940.663 877.575,-942.886 880.258,-944.948 883.075,-946.859"/>
<polygon fill="black" stroke="black" points="881.478,-949.983 891.85,-952.142 885.088,-943.986 881.478,-949.983"/>
</g>
<!-- Core_SystemWrapperTrait -->
<g id="node12" class="node"><title>Core_SystemWrapperTrait</title>
<polygon fill="none" stroke="black" points="694.797,-939.663 574.477,-921.663 694.797,-903.663 815.116,-921.663 694.797,-939.663"/>
<text text-anchor="middle" x="694.797" y="-917.963" font-family="Times,serif" font-size="14.00">SystemWrapperTrait</text>
</g>
<!-- Core_App&#45;&gt;Core_SystemWrapperTrait -->
<g id="edge12" class="edge"><title>Core_App&#45;&gt;Core_SystemWrapperTrait</title>
<path fill="none" stroke="black" d="M482.647,-1070.7C490.461,-1042.44 510.738,-983.746 550.489,-953.663 565.722,-942.135 584.316,-934.614 602.999,-929.742"/>
<polygon fill="black" stroke="black" points="603.837,-933.14 612.76,-927.428 602.222,-926.329 603.837,-933.14"/>
</g>
<!-- Core_App&#45;&gt;Core_SuperGlobal -->
<g id="edge20" class="edge"><title>Core_App&#45;&gt;Core_SuperGlobal</title>
<path fill="none" stroke="black" stroke-dasharray="1,5" d="M481.746,-1102.83C488.279,-1132.6 506.806,-1195.41 550.489,-1221.66 605.464,-1254.7 776.072,-1233.51 839.104,-1221.66 848.651,-1219.87 867.234,-1212.94 885.638,-1205.49"/>
<polygon fill="black" stroke="black" points="886.984,-1208.72 894.907,-1201.68 884.327,-1202.24 886.984,-1208.72"/>
</g>
<!-- Core_ExtendableStaticCallTrait -->
<g id="node15" class="node"><title>Core_ExtendableStaticCallTrait</title>
<polygon fill="none" stroke="black" points="694.797,-1329.66 550.681,-1311.66 694.797,-1293.66 838.912,-1311.66 694.797,-1329.66"/>
<text text-anchor="middle" x="694.797" y="-1307.96" font-family="Times,serif" font-size="14.00">ExtendableStaticCallTrait</text>
</g>
<!-- Core_App&#45;&gt;Core_ExtendableStaticCallTrait -->
<g id="edge11" class="edge"><title>Core_App&#45;&gt;Core_ExtendableStaticCallTrait</title>
<path fill="none" stroke="black" d="M479.813,-1103.87C483.181,-1141.76 496.742,-1232.79 550.489,-1279.66 562.309,-1289.97 576.724,-1297.17 591.805,-1302.17"/>
<polygon fill="black" stroke="black" points="591.208,-1305.64 601.791,-1305.14 593.205,-1298.93 591.208,-1305.64"/>
</g>
<!-- Core_ThrowOn -->
<g id="node16" class="node"><title>Core_ThrowOn</title>
<polygon fill="none" stroke="black" points="694.797,-1067.66 631.453,-1049.66 694.797,-1031.66 758.14,-1049.66 694.797,-1067.66"/>
<text text-anchor="middle" x="694.797" y="-1045.96" font-family="Times,serif" font-size="14.00">ThrowOn</text>
</g>
<!-- Core_App&#45;&gt;Core_ThrowOn -->
<g id="edge10" class="edge"><title>Core_App&#45;&gt;Core_ThrowOn</title>
<path fill="none" stroke="black" d="M505.095,-1082.13C539.779,-1076.16 601.395,-1065.56 644.762,-1058.1"/>
<polygon fill="black" stroke="black" points="645.555,-1061.51 654.817,-1056.37 644.369,-1054.62 645.555,-1061.51"/>
</g>
<!-- Core_Functions -->
<g id="node19" class="node"><title>Core_Functions</title>
<ellipse fill="none" stroke="black" cx="694.797" cy="-995.663" rx="45.4919" ry="18"/>
<text text-anchor="middle" x="694.797" y="-991.963" font-family="Times,serif" font-size="14.00">Functions</text>
</g>
<!-- Core_App&#45;&gt;Core_Functions -->
<g id="edge21" class="edge"><title>Core_App&#45;&gt;Core_Functions</title>
<path fill="none" stroke="black" stroke-dasharray="1,5" d="M488.957,-1074.09C501.732,-1059.3 525.024,-1035.19 550.489,-1022.66 578.106,-1009.08 611.811,-1002.3 639.594,-998.939"/>
<polygon fill="black" stroke="black" points="639.982,-1002.42 649.54,-997.847 639.218,-995.459 639.982,-1002.42"/>
</g>
<!-- Core_SingletonEx -->
<g id="node4" class="node"><title>Core_SingletonEx</title>
<polygon fill="none" stroke="black" points="1280.21,-1292.66 1204.13,-1274.66 1280.21,-1256.66 1356.29,-1274.66 1280.21,-1292.66"/>
<polyline fill="none" stroke="black" points="1215.81,-1277.43 1215.81,-1271.9 "/>
<polyline fill="none" stroke="black" points="1268.53,-1259.43 1291.89,-1259.43 "/>
<polyline fill="none" stroke="black" points="1344.61,-1271.9 1344.61,-1277.43 "/>
<polyline fill="none" stroke="black" points="1291.89,-1289.9 1268.53,-1289.9 "/>
<text text-anchor="middle" x="1280.21" y="-1270.96" font-family="Times,serif" font-size="14.00">SingletonEx</text>
</g>
<!-- Core_Kernel&#45;&gt;Core_SingletonEx -->
<g id="edge38" class="edge"><title>Core_Kernel&#45;&gt;Core_SingletonEx</title>
<path fill="none" stroke="black" d="M716.429,-1187.74C763.114,-1210.54 872.987,-1264.15 875.104,-1264.66 993.4,-1293.39 1136.92,-1287.78 1217.17,-1281.17"/>
<polygon fill="black" stroke="black" points="1217.92,-1284.62 1227.59,-1280.28 1217.32,-1277.65 1217.92,-1284.62"/>
</g>
<!-- Core_Kernel&#45;&gt;Core_AutoLoader -->
<g id="edge1" class="edge"><title>Core_Kernel&#45;&gt;Core_AutoLoader</title>
<path fill="none" stroke="black" d="M728.001,-1171.84C757.076,-1166.53 801.01,-1158.35 839.104,-1150.66 854.412,-1147.57 871.035,-1144.05 886.146,-1140.79"/>
<polygon fill="black" stroke="black" points="887.301,-1144.12 896.332,-1138.58 885.817,-1137.28 887.301,-1144.12"/>
</g>
<!-- Core_Kernel&#45;&gt;Core_ExceptionManager -->
<g id="edge4" class="edge"><title>Core_Kernel&#45;&gt;Core_ExceptionManager</title>
<path fill="none" stroke="black" d="M724.844,-1184.9C759.996,-1193.66 820.352,-1208.7 867.656,-1220.48"/>
<polygon fill="black" stroke="black" points="866.989,-1223.92 877.538,-1222.95 868.681,-1217.13 866.989,-1223.92"/>
</g>
<!-- Core_Kernel&#45;&gt;Core_View -->
<g id="edge7" class="edge"><title>Core_Kernel&#45;&gt;Core_View</title>
<path fill="none" stroke="black" d="M733.533,-1181.48C766.057,-1182.53 811.94,-1178.28 839.104,-1150.66 905.511,-1083.16 816.788,-1015.27 875.104,-940.663 881.621,-932.326 891.246,-926.506 900.956,-922.468"/>
<polygon fill="black" stroke="black" points="902.364,-925.681 910.583,-918.995 899.989,-919.096 902.364,-925.681"/>
</g>
<!-- Core_Kernel&#45;&gt;Core_Configer -->
<g id="edge2" class="edge"><title>Core_Kernel&#45;&gt;Core_Configer</title>
<path fill="none" stroke="black" d="M736.571,-1180.32C768.087,-1180.16 810.949,-1174.81 839.104,-1150.66 875.597,-1119.37 842.399,-1083.9 875.104,-1048.66 880.801,-1042.53 888.14,-1037.71 895.752,-1033.95"/>
<polygon fill="black" stroke="black" points="897.317,-1037.09 905.081,-1029.88 894.516,-1030.67 897.317,-1037.09"/>
</g>
<!-- Core_Kernel&#45;&gt;Core_Logger -->
<g id="edge3" class="edge"><title>Core_Kernel&#45;&gt;Core_Logger</title>
<path fill="none" stroke="black" d="M714.512,-1188.62C746.986,-1207.55 815.968,-1247.47 875.104,-1279.66 883.333,-1284.14 892.244,-1288.86 900.662,-1293.25"/>
<polygon fill="black" stroke="black" points="899.058,-1296.36 909.546,-1297.86 902.284,-1290.15 899.058,-1296.36"/>
</g>
<!-- Core_Kernel&#45;&gt;Core_Route -->
<g id="edge5" class="edge"><title>Core_Kernel&#45;&gt;Core_Route</title>
<path fill="none" stroke="black" d="M743.124,-1177.3C772.671,-1175.1 810.41,-1168.52 839.104,-1150.66 861.744,-1136.57 854.211,-1119.23 875.104,-1102.66 883.038,-1096.37 892.666,-1091.24 901.925,-1087.21"/>
<polygon fill="black" stroke="black" points="903.392,-1090.39 911.355,-1083.4 900.771,-1083.9 903.392,-1090.39"/>
</g>
<!-- Core_Kernel&#45;&gt;Core_RuntimeState -->
<g id="edge6" class="edge"><title>Core_Kernel&#45;&gt;Core_RuntimeState</title>
<path fill="none" stroke="black" d="M734.429,-1181.13C766.625,-1181.78 811.529,-1177.14 839.104,-1150.66 890.429,-1101.38 829.704,-1049.45 875.104,-994.663 877.515,-991.753 880.302,-989.148 883.329,-986.816"/>
<polygon fill="black" stroke="black" points="885.365,-989.666 891.816,-981.261 881.532,-983.809 885.365,-989.666"/>
</g>
<!-- Core_Kernel&#45;&gt;Core_SuperGlobal -->
<g id="edge8" class="edge"><title>Core_Kernel&#45;&gt;Core_SuperGlobal</title>
<path fill="none" stroke="black" d="M740.808,-1178.78C781.68,-1179.8 841.947,-1181.3 884.807,-1182.37"/>
<polygon fill="black" stroke="black" points="884.949,-1185.88 895.033,-1182.63 885.123,-1178.88 884.949,-1185.88"/>
</g>
<!-- Core_ComponentBase -->
<g id="node18" class="node"><title>Core_ComponentBase</title>
<polygon fill="none" stroke="black" points="1143.1,-877.663 1040.1,-877.663 1036.1,-873.663 1036.1,-841.663 1139.1,-841.663 1143.1,-845.663 1143.1,-877.663"/>
<polyline fill="none" stroke="black" points="1139.1,-873.663 1036.1,-873.663 "/>
<polyline fill="none" stroke="black" points="1139.1,-873.663 1139.1,-841.663 "/>
<polyline fill="none" stroke="black" points="1139.1,-873.663 1143.1,-877.663 "/>
<text text-anchor="middle" x="1089.6" y="-855.963" font-family="Times,serif" font-size="14.00">ComponentBase</text>
</g>
<!-- Core_AutoLoader&#45;&gt;Core_ComponentBase -->
<g id="edge31" class="edge"><title>Core_AutoLoader&#45;&gt;Core_ComponentBase</title>
<path fill="none" stroke="black" stroke-dasharray="1,5" d="M978.611,-1120.84C989.348,-1116.82 1000.17,-1111.01 1008.1,-1102.66 1066.16,-1041.59 1082.37,-937.703 1086.88,-887.909"/>
<polygon fill="black" stroke="black" points="1090.38,-888.111 1087.7,-877.861 1083.4,-887.545 1090.38,-888.111"/>
</g>
<!-- Core_ExceptionManager&#45;&gt;Core_ComponentBase -->
<g id="edge27" class="edge"><title>Core_ExceptionManager&#45;&gt;Core_ComponentBase</title>
<path fill="none" stroke="black" stroke-dasharray="1,5" d="M997.615,-1219.93C1001.49,-1217.26 1005.06,-1214.19 1008.1,-1210.66 1050.39,-1161.75 1076.89,-962.762 1085.52,-888.124"/>
<polygon fill="black" stroke="black" points="1089.01,-888.377 1086.66,-878.047 1082.05,-887.589 1089.01,-888.377"/>
</g>
<!-- Core_View&#45;&gt;Core_ComponentBase -->
<g id="edge33" class="edge"><title>Core_View&#45;&gt;Core_ComponentBase</title>
<path fill="none" stroke="black" stroke-dasharray="1,5" d="M964.732,-904.257C982.506,-897.858 1006.77,-889.125 1029.11,-881.082"/>
<polygon fill="black" stroke="black" points="1030.32,-884.367 1038.54,-877.687 1027.94,-877.781 1030.32,-884.367"/>
</g>
<!-- Core_Configer&#45;&gt;Core_ComponentBase -->
<g id="edge28" class="edge"><title>Core_Configer&#45;&gt;Core_ComponentBase</title>
<path fill="none" stroke="black" stroke-dasharray="1,5" d="M970.376,-1014.19C983.13,-1010.02 997.329,-1003.77 1008.1,-994.663 1042.55,-965.539 1066.08,-917.735 1078.42,-887.52"/>
<polygon fill="black" stroke="black" points="1081.77,-888.587 1082.18,-878 1075.26,-886.017 1081.77,-888.587"/>
</g>
<!-- Core_Logger&#45;&gt;Core_ComponentBase -->
<g id="edge34" class="edge"><title>Core_Logger&#45;&gt;Core_ComponentBase</title>
<path fill="none" stroke="black" stroke-dasharray="1,5" d="M965.619,-1299.81C980.415,-1291.94 997.79,-1280.19 1008.1,-1264.66 1049.76,-1201.94 1077.26,-969.447 1085.78,-888.04"/>
<polygon fill="black" stroke="black" points="1089.27,-888.324 1086.82,-878.017 1082.31,-887.606 1089.27,-888.324"/>
</g>
<!-- Core_Route&#45;&gt;Core_ComponentBase -->
<g id="edge29" class="edge"><title>Core_Route&#45;&gt;Core_ComponentBase</title>
<path fill="none" stroke="black" stroke-dasharray="1,5" d="M968.2,-1069.75C981.773,-1065.74 997.225,-1059.2 1008.1,-1048.66 1054.2,-1004.02 1075.27,-928.773 1083.71,-887.99"/>
<polygon fill="black" stroke="black" points="1087.2,-888.415 1085.69,-877.929 1080.33,-887.069 1087.2,-888.415"/>
</g>
<!-- Core_RuntimeState&#45;&gt;Core_ComponentBase -->
<g id="edge32" class="edge"><title>Core_RuntimeState&#45;&gt;Core_ComponentBase</title>
<path fill="none" stroke="black" stroke-dasharray="1,5" d="M983.35,-953.474C991.891,-949.892 1000.52,-945.625 1008.1,-940.663 1030.91,-925.734 1052.44,-903.475 1067.49,-886.066"/>
<polygon fill="black" stroke="black" points="1070.55,-887.862 1074.33,-877.963 1065.21,-883.346 1070.55,-887.862"/>
</g>
<!-- Core_HttpServer -->
<g id="node13" class="node"><title>Core_HttpServer</title>
<polygon fill="none" stroke="black" points="975.604,-877.663 899.604,-877.663 899.604,-873.663 895.604,-873.663 895.604,-869.663 899.604,-869.663 899.604,-849.663 895.604,-849.663 895.604,-845.663 899.604,-845.663 899.604,-841.663 975.604,-841.663 975.604,-877.663"/>
<polyline fill="none" stroke="black" points="899.604,-873.663 903.604,-873.663 903.604,-869.663 899.604,-869.663 "/>
<polyline fill="none" stroke="black" points="899.604,-849.663 903.604,-849.663 903.604,-845.663 899.604,-845.663 "/>
<text text-anchor="middle" x="937.604" y="-855.963" font-family="Times,serif" font-size="14.00">HttpServer</text>
</g>
<!-- Core_HttpServer&#45;&gt;Core_ComponentBase -->
<g id="edge35" class="edge"><title>Core_HttpServer&#45;&gt;Core_ComponentBase</title>
<path fill="none" stroke="black" stroke-dasharray="1,5" d="M975.683,-859.663C990.699,-859.663 1008.47,-859.663 1025.41,-859.663"/>
<polygon fill="black" stroke="black" points="1025.82,-863.163 1035.82,-859.663 1025.82,-856.163 1025.82,-863.163"/>
</g>
<!-- Core_SuperGlobal&#45;&gt;Core_ComponentBase -->
<g id="edge30" class="edge"><title>Core_SuperGlobal&#45;&gt;Core_ComponentBase</title>
<path fill="none" stroke="black" stroke-dasharray="1,5" d="M980.358,-1174.57C990.613,-1170.57 1000.75,-1164.84 1008.1,-1156.66 1078.08,-1078.86 1088.1,-946.241 1088.95,-888.24"/>
<polygon fill="black" stroke="black" points="1092.45,-888.011 1089.01,-877.99 1085.45,-887.968 1092.45,-888.011"/>
</g>
<!-- Core_ComponentInterface -->
<g id="node17" class="node"><title>Core_ComponentInterface</title>
<polygon fill="none" stroke="black" points="1338.21,-877.663 1216.21,-877.663 1216.21,-841.663 1344.21,-841.663 1344.21,-871.663 1338.21,-877.663"/>
<polyline fill="none" stroke="black" points="1338.21,-877.663 1338.21,-871.663 "/>
<polyline fill="none" stroke="black" points="1344.21,-871.663 1338.21,-871.663 "/>
<text text-anchor="middle" x="1280.21" y="-855.963" font-family="Times,serif" font-size="14.00">ComponentInterface</text>
</g>
<!-- Core_ComponentBase&#45;&gt;Core_SingletonEx -->
<g id="edge37" class="edge"><title>Core_ComponentBase&#45;&gt;Core_SingletonEx</title>
<path fill="none" stroke="black" d="M1098.83,-877.762C1128.82,-943.754 1232.38,-1171.62 1267.48,-1248.84"/>
<polygon fill="black" stroke="black" points="1264.45,-1250.65 1271.78,-1258.3 1270.82,-1247.75 1264.45,-1250.65"/>
</g>
<!-- Core_ComponentBase&#45;&gt;Core_ComponentInterface -->
<g id="edge36" class="edge"><title>Core_ComponentBase&#45;&gt;Core_ComponentInterface</title>
<path fill="none" stroke="black" d="M1143.14,-859.663C1162.53,-859.663 1184.87,-859.663 1205.78,-859.663"/>
<polygon fill="black" stroke="black" points="1205.9,-863.163 1215.9,-859.663 1205.9,-856.163 1205.9,-863.163"/>
</g>
<!-- AppHelper -->
<g id="node20" class="node"><title>AppHelper</title>
<polygon fill="none" stroke="black" points="116.188,-1082.66 45.6372,-1064.66 116.188,-1046.66 186.739,-1064.66 116.188,-1082.66"/>
<polyline fill="none" stroke="black" points="57.2647,-1067.63 57.2647,-1061.7 "/>
<polyline fill="none" stroke="black" points="104.561,-1049.63 127.816,-1049.63 "/>
<polyline fill="none" stroke="black" points="175.112,-1061.7 175.112,-1067.63 "/>
<polyline fill="none" stroke="black" points="127.816,-1079.7 104.561,-1079.7 "/>
<text text-anchor="middle" x="116.188" y="-1060.96" font-family="Times,serif" font-size="14.00">AppHelper</text>
</g>
<!-- AppHelper&#45;&gt;Core_App -->
<g id="edge39" class="edge"><title>AppHelper&#45;&gt;Core_App</title>
<path fill="none" stroke="black" d="M180.046,-1062.93C240.095,-1062.09 333.032,-1062.9 412.956,-1072.66 423.06,-1073.9 433.922,-1075.99 443.767,-1078.18"/>
<polygon fill="black" stroke="black" points="443.05,-1081.61 453.584,-1080.48 444.642,-1074.79 443.05,-1081.61"/>
</g>
<!-- HelperTrait -->
<g id="node25" class="node"><title>HelperTrait</title>
<polygon fill="none" stroke="black" points="328.666,-1226.66 255.101,-1208.66 328.666,-1190.66 402.232,-1208.66 328.666,-1226.66"/>
<text text-anchor="middle" x="328.666" y="-1204.96" font-family="Times,serif" font-size="14.00">HelperTrait</text>
</g>
<!-- AppHelper&#45;&gt;HelperTrait -->
<g id="edge47" class="edge"><title>AppHelper&#45;&gt;HelperTrait</title>
<path fill="none" stroke="black" d="M161.22,-1071.29C179.211,-1075.32 199.672,-1081.69 216.376,-1091.66 256.604,-1115.67 291.734,-1158.19 311.281,-1184.82"/>
<polygon fill="black" stroke="black" points="308.62,-1187.12 317.297,-1193.2 314.305,-1183.03 308.62,-1187.12"/>
</g>
<!-- ControllerHelper -->
<g id="node21" class="node"><title>ControllerHelper</title>
<polygon fill="none" stroke="black" points="116.188,-1028.66 15.8115,-1010.66 116.188,-992.663 216.565,-1010.66 116.188,-1028.66"/>
<polyline fill="none" stroke="black" points="27.6231,-1012.78 27.6231,-1008.54 "/>
<polyline fill="none" stroke="black" points="104.377,-994.781 128,-994.781 "/>
<polyline fill="none" stroke="black" points="204.753,-1008.54 204.753,-1012.78 "/>
<polyline fill="none" stroke="black" points="128,-1026.54 104.377,-1026.54 "/>
<text text-anchor="middle" x="116.188" y="-1006.96" font-family="Times,serif" font-size="14.00">ControllerHelper</text>
</g>
<!-- ControllerHelper&#45;&gt;Core_App -->
<g id="edge40" class="edge"><title>ControllerHelper&#45;&gt;Core_App</title>
<path fill="none" stroke="black" d="M181.917,-1016.93C242.501,-1023.84 335.101,-1037.08 412.956,-1059.66 425.369,-1063.26 438.602,-1068.6 449.778,-1073.58"/>
<polygon fill="black" stroke="black" points="448.448,-1076.82 458.996,-1077.82 451.369,-1070.46 448.448,-1076.82"/>
</g>
<!-- ControllerHelper&#45;&gt;HelperTrait -->
<g id="edge48" class="edge"><title>ControllerHelper&#45;&gt;HelperTrait</title>
<path fill="none" stroke="black" d="M173.391,-1018.47C188.354,-1022.47 203.829,-1028.52 216.376,-1037.66 268.142,-1075.39 302.307,-1145.15 317.907,-1182.85"/>
<polygon fill="black" stroke="black" points="314.666,-1184.18 321.643,-1192.15 321.161,-1181.57 314.666,-1184.18"/>
</g>
<!-- ModelHelper -->
<g id="node22" class="node"><title>ModelHelper</title>
<polygon fill="none" stroke="black" points="116.188,-1244.66 34.5777,-1226.66 116.188,-1208.66 197.799,-1226.66 116.188,-1244.66"/>
<polyline fill="none" stroke="black" points="46.296,-1229.25 46.296,-1224.08 "/>
<polyline fill="none" stroke="black" points="104.47,-1211.25 127.906,-1211.25 "/>
<polyline fill="none" stroke="black" points="186.08,-1224.08 186.08,-1229.25 "/>
<polyline fill="none" stroke="black" points="127.906,-1242.08 104.47,-1242.08 "/>
<text text-anchor="middle" x="116.188" y="-1222.96" font-family="Times,serif" font-size="14.00">ModelHelper</text>
</g>
<!-- ModelHelper&#45;&gt;Core_App -->
<g id="edge41" class="edge"><title>ModelHelper&#45;&gt;Core_App</title>
<path fill="none" stroke="black" d="M159.672,-1218.12C177.604,-1213.75 198.439,-1207.64 216.376,-1199.66 229.893,-1193.65 230.73,-1187.38 244.376,-1181.66 315.221,-1152 344.675,-1178.83 412.956,-1143.66 430.716,-1134.52 447.42,-1119.24 459.273,-1106.81"/>
<polygon fill="black" stroke="black" points="462.132,-1108.87 466.324,-1099.14 456.979,-1104.13 462.132,-1108.87"/>
</g>
<!-- ModelHelper&#45;&gt;HelperTrait -->
<g id="edge49" class="edge"><title>ModelHelper&#45;&gt;HelperTrait</title>
<path fill="none" stroke="black" d="M175.539,-1221.67C202.952,-1219.33 235.701,-1216.53 263.78,-1214.13"/>
<polygon fill="black" stroke="black" points="264.229,-1217.6 273.895,-1213.26 263.633,-1210.63 264.229,-1217.6"/>
</g>
<!-- ServiceHelper -->
<g id="node23" class="node"><title>ServiceHelper</title>
<polygon fill="none" stroke="black" points="116.188,-1190.66 29.8865,-1172.66 116.188,-1154.66 202.49,-1172.66 116.188,-1190.66"/>
<polyline fill="none" stroke="black" points="41.6337,-1175.11 41.6337,-1170.21 "/>
<polyline fill="none" stroke="black" points="104.441,-1157.11 127.935,-1157.11 "/>
<polyline fill="none" stroke="black" points="190.743,-1170.21 190.743,-1175.11 "/>
<polyline fill="none" stroke="black" points="127.935,-1188.21 104.441,-1188.21 "/>
<text text-anchor="middle" x="116.188" y="-1168.96" font-family="Times,serif" font-size="14.00">ServiceHelper</text>
</g>
<!-- ServiceHelper&#45;&gt;Core_App -->
<g id="edge42" class="edge"><title>ServiceHelper&#45;&gt;Core_App</title>
<path fill="none" stroke="black" d="M162.068,-1164.13C232.651,-1150.57 366.361,-1124.23 412.956,-1110.66 424.608,-1107.27 437.162,-1102.74 448.024,-1098.53"/>
<polygon fill="black" stroke="black" points="449.44,-1101.74 457.449,-1094.8 446.862,-1095.23 449.44,-1101.74"/>
</g>
<!-- ServiceHelper&#45;&gt;HelperTrait -->
<g id="edge50" class="edge"><title>ServiceHelper&#45;&gt;HelperTrait</title>
<path fill="none" stroke="black" d="M164.162,-1180.7C196.882,-1186.29 240.575,-1193.77 274.561,-1199.58"/>
<polygon fill="black" stroke="black" points="274.328,-1203.09 284.775,-1201.33 275.508,-1196.19 274.328,-1203.09"/>
</g>
<!-- ViewHelper -->
<g id="node24" class="node"><title>ViewHelper</title>
<polygon fill="none" stroke="black" points="116.188,-1136.66 40.1075,-1118.66 116.188,-1100.66 192.269,-1118.66 116.188,-1136.66"/>
<polyline fill="none" stroke="black" points="51.7851,-1121.43 51.7851,-1115.9 "/>
<polyline fill="none" stroke="black" points="104.511,-1103.43 127.866,-1103.43 "/>
<polyline fill="none" stroke="black" points="180.591,-1115.9 180.591,-1121.43 "/>
<polyline fill="none" stroke="black" points="127.866,-1133.9 104.511,-1133.9 "/>
<text text-anchor="middle" x="116.188" y="-1114.96" font-family="Times,serif" font-size="14.00">ViewHelper</text>
</g>
<!-- ViewHelper&#45;&gt;Core_App -->
<g id="edge43" class="edge"><title>ViewHelper&#45;&gt;Core_App</title>
<path fill="none" stroke="black" d="M171.794,-1113.8C244.552,-1107.33 371.615,-1096.02 436.34,-1090.26"/>
<polygon fill="black" stroke="black" points="436.9,-1093.72 446.55,-1089.35 436.279,-1086.75 436.9,-1093.72"/>
</g>
<!-- ViewHelper&#45;&gt;HelperTrait -->
<g id="edge51" class="edge"><title>ViewHelper&#45;&gt;HelperTrait</title>
<path fill="none" stroke="black" d="M157.039,-1127.1C175.454,-1131.61 197.397,-1137.85 216.376,-1145.66 245.97,-1157.84 277.52,-1176.28 299.441,-1190.07"/>
<polygon fill="black" stroke="black" points="297.609,-1193.05 307.924,-1195.47 301.371,-1187.15 297.609,-1193.05"/>
</g>
<!-- HelperTrait&#45;&gt;Core_App -->
<g id="edge44" class="edge"><title>HelperTrait&#45;&gt;Core_App</title>
<path fill="none" stroke="black" d="M366.075,-1199.78C381.602,-1194.76 399.257,-1187.31 412.956,-1176.66 425.438,-1166.96 448.339,-1132.35 463.031,-1108.98"/>
<polygon fill="black" stroke="black" points="466.087,-1110.7 468.404,-1100.36 460.145,-1107 466.087,-1110.7"/>
</g>
<!-- HelperTrait&#45;&gt;Core_ExtendableStaticCallTrait -->
<g id="edge45" class="edge"><title>HelperTrait&#45;&gt;Core_ExtendableStaticCallTrait</title>
<path fill="none" stroke="black" d="M359.41,-1219.18C401.579,-1233.88 481.318,-1260.86 550.489,-1279.66 575.894,-1286.57 604.123,-1293.11 628.764,-1298.46"/>
<polygon fill="black" stroke="black" points="628.215,-1301.92 638.727,-1300.6 629.685,-1295.08 628.215,-1301.92"/>
</g>
<!-- HelperTrait&#45;&gt;Core_ThrowOn -->
<g id="edge46" class="edge"><title>HelperTrait&#45;&gt;Core_ThrowOn</title>
<path fill="none" stroke="black" d="M360.229,-1198.25C376.198,-1192.48 395.913,-1184.83 412.956,-1176.66 476.728,-1146.11 485.975,-1125.62 550.489,-1096.66 583.397,-1081.89 622.385,-1069.41 651.382,-1061.03"/>
<polygon fill="black" stroke="black" points="652.534,-1064.34 661.195,-1058.24 650.619,-1057.61 652.534,-1064.34"/>
</g>
<!-- DB_DB -->
<g id="node26" class="node"><title>DB_DB</title>
<ellipse fill="none" stroke="black" cx="1089.6" cy="-66.6631" rx="27" ry="18"/>
<text text-anchor="middle" x="1089.6" y="-62.9631" font-family="Times,serif" font-size="14.00">DB</text>
</g>
<!-- DB_DBAdvanceTrait -->
<g id="node27" class="node"><title>DB_DBAdvanceTrait</title>
<polygon fill="none" stroke="black" points="1280.21,-57.6631 1179,-39.6631 1280.21,-21.6631 1381.43,-39.6631 1280.21,-57.6631"/>
<text text-anchor="middle" x="1280.21" y="-35.9631" font-family="Times,serif" font-size="14.00">DBAdvanceTrait</text>
</g>
<!-- DB_DB&#45;&gt;DB_DBAdvanceTrait -->
<g id="edge52" class="edge"><title>DB_DB&#45;&gt;DB_DBAdvanceTrait</title>
<path fill="none" stroke="black" d="M1116.43,-62.9655C1141.3,-59.4054 1179.96,-53.872 1213.36,-49.0906"/>
<polygon fill="black" stroke="black" points="1214.13,-52.5158 1223.53,-47.6339 1213.14,-45.5864 1214.13,-52.5158"/>
</g>
<!-- DB_DBInterface -->
<g id="node28" class="node"><title>DB_DBInterface</title>
<polygon fill="none" stroke="black" points="1315.71,-111.663 1238.71,-111.663 1238.71,-75.6631 1321.71,-75.6631 1321.71,-105.663 1315.71,-111.663"/>
<polyline fill="none" stroke="black" points="1315.71,-111.663 1315.71,-105.663 "/>
<polyline fill="none" stroke="black" points="1321.71,-105.663 1315.71,-105.663 "/>
<text text-anchor="middle" x="1280.21" y="-89.9631" font-family="Times,serif" font-size="14.00">DBInterface</text>
</g>
<!-- DB_DB&#45;&gt;DB_DBInterface -->
<g id="edge53" class="edge"><title>DB_DB&#45;&gt;DB_DBInterface</title>
<path fill="none" stroke="black" d="M1116.43,-70.3607C1145.08,-74.462 1192.03,-81.182 1228.16,-86.3543"/>
<polygon fill="black" stroke="black" points="1228.12,-89.8842 1238.51,-87.8367 1229.11,-82.9549 1228.12,-89.8842"/>
</g>
<!-- CallableView -->
<g id="node29" class="node"><title>CallableView</title>
<polygon fill="none" stroke="black" points="740.297,-786.663 649.297,-786.663 649.297,-782.663 645.297,-782.663 645.297,-778.663 649.297,-778.663 649.297,-758.663 645.297,-758.663 645.297,-754.663 649.297,-754.663 649.297,-750.663 740.297,-750.663 740.297,-786.663"/>
<polyline fill="none" stroke="black" points="649.297,-782.663 653.297,-782.663 653.297,-778.663 649.297,-778.663 "/>
<polyline fill="none" stroke="black" points="649.297,-758.663 653.297,-758.663 653.297,-754.663 649.297,-754.663 "/>
<text text-anchor="middle" x="694.797" y="-764.963" font-family="Times,serif" font-size="14.00">CallableView</text>
</g>
<!-- CallableView&#45;&gt;Core_View -->
<g id="edge55" class="edge"><title>CallableView&#45;&gt;Core_View</title>
<path fill="none" stroke="black" d="M740.298,-779.979C770.688,-789.417 810.478,-805.308 839.104,-829.663 861.925,-849.079 852.393,-867.119 875.104,-886.663 882.648,-893.155 891.998,-898.319 901.111,-902.32"/>
<polygon fill="black" stroke="black" points="899.853,-905.586 910.436,-906.074 902.467,-899.092 899.853,-905.586"/>
</g>
<!-- DBManager -->
<g id="node30" class="node"><title>DBManager</title>
<polygon fill="none" stroke="black" points="979.604,-84.6631 895.604,-84.6631 895.604,-80.6631 891.604,-80.6631 891.604,-76.6631 895.604,-76.6631 895.604,-56.6631 891.604,-56.6631 891.604,-52.6631 895.604,-52.6631 895.604,-48.6631 979.604,-48.6631 979.604,-84.6631"/>
<polyline fill="none" stroke="black" points="895.604,-80.6631 899.604,-80.6631 899.604,-76.6631 895.604,-76.6631 "/>
<polyline fill="none" stroke="black" points="895.604,-56.6631 899.604,-56.6631 899.604,-52.6631 895.604,-52.6631 "/>
<text text-anchor="middle" x="937.604" y="-62.9631" font-family="Times,serif" font-size="14.00">DBManager</text>
</g>
<!-- DBManager&#45;&gt;Core_ComponentBase -->
<g id="edge75" class="edge"><title>DBManager&#45;&gt;Core_ComponentBase</title>
<path fill="none" stroke="black" stroke-dasharray="1,5" d="M972.276,-84.7588C985.669,-93.7367 999.834,-105.856 1008.1,-120.663 1078.06,-245.905 1087.22,-710.918 1088.42,-831.143"/>
<polygon fill="black" stroke="black" points="1084.93,-831.405 1088.51,-841.373 1091.93,-831.343 1084.93,-831.405"/>
</g>
<!-- DBManager&#45;&gt;DB_DB -->
<g id="edge54" class="edge"><title>DBManager&#45;&gt;DB_DB</title>
<path fill="none" stroke="black" d="M979.99,-66.6631C1002.64,-66.6631 1030.46,-66.6631 1052.27,-66.6631"/>
<polygon fill="black" stroke="black" points="1052.44,-70.1632 1062.44,-66.6631 1052.44,-63.1632 1052.44,-70.1632"/>
</g>
<!-- DBReusePoolProxy -->
<g id="node31" class="node"><title>DBReusePoolProxy</title>
<polygon fill="none" stroke="black" points="757.297,-84.6631 632.297,-84.6631 632.297,-80.6631 628.297,-80.6631 628.297,-76.6631 632.297,-76.6631 632.297,-56.6631 628.297,-56.6631 628.297,-52.6631 632.297,-52.6631 632.297,-48.6631 757.297,-48.6631 757.297,-84.6631"/>
<polyline fill="none" stroke="black" points="632.297,-80.6631 636.297,-80.6631 636.297,-76.6631 632.297,-76.6631 "/>
<polyline fill="none" stroke="black" points="632.297,-56.6631 636.297,-56.6631 636.297,-52.6631 632.297,-52.6631 "/>
<text text-anchor="middle" x="694.797" y="-62.9631" font-family="Times,serif" font-size="14.00">DBReusePoolProxy</text>
</g>
<!-- DBReusePoolProxy&#45;&gt;DBManager -->
<g id="edge56" class="edge"><title>DBReusePoolProxy&#45;&gt;DBManager</title>
<path fill="none" stroke="black" d="M757.498,-66.6631C797.112,-66.6631 847.95,-66.6631 885.337,-66.6631"/>
<polygon fill="black" stroke="black" points="885.505,-70.1632 895.505,-66.6631 885.505,-63.1632 885.505,-70.1632"/>
</g>
<!-- FacadesAutoLoader -->
<g id="node32" class="node"><title>FacadesAutoLoader</title>
<polygon fill="none" stroke="black" points="1000.1,-165.663 875.104,-165.663 875.104,-161.663 871.104,-161.663 871.104,-157.663 875.104,-157.663 875.104,-137.663 871.104,-137.663 871.104,-133.663 875.104,-133.663 875.104,-129.663 1000.1,-129.663 1000.1,-165.663"/>
<polyline fill="none" stroke="black" points="875.104,-161.663 879.104,-161.663 879.104,-157.663 875.104,-157.663 "/>
<polyline fill="none" stroke="black" points="875.104,-137.663 879.104,-137.663 879.104,-133.663 875.104,-133.663 "/>
<text text-anchor="middle" x="937.604" y="-143.963" font-family="Times,serif" font-size="14.00">FacadesAutoLoader</text>
</g>
<!-- FacadesAutoLoader&#45;&gt;Core_ComponentBase -->
<g id="edge63" class="edge"><title>FacadesAutoLoader&#45;&gt;Core_ComponentBase</title>
<path fill="none" stroke="black" stroke-dasharray="1,5" d="M972.182,-165.812C985.558,-174.799 999.736,-186.911 1008.1,-201.663 1070.68,-311.983 1085.18,-720.101 1088,-831.444"/>
<polygon fill="black" stroke="black" points="1084.5,-831.645 1088.24,-841.558 1091.5,-831.476 1084.5,-831.645"/>
</g>
<!-- FacadesBase -->
<g id="node33" class="node"><title>FacadesBase</title>
<ellipse fill="none" stroke="black" cx="694.797" cy="-120.663" rx="55.7903" ry="18"/>
<text text-anchor="middle" x="694.797" y="-116.963" font-family="Times,serif" font-size="14.00">FacadesBase</text>
</g>
<!-- FacadesBase&#45;&gt;FacadesAutoLoader -->
<g id="edge58" class="edge"><title>FacadesBase&#45;&gt;FacadesAutoLoader</title>
<path fill="none" stroke="black" d="M747.752,-126.488C781.875,-130.314 826.981,-135.372 864.554,-139.585"/>
<polygon fill="black" stroke="black" points="864.608,-143.113 874.936,-140.749 865.388,-136.156 864.608,-143.113"/>
</g>
<!-- JsonRpcClientBase -->
<g id="node34" class="node"><title>JsonRpcClientBase</title>
<ellipse fill="none" stroke="black" cx="694.797" cy="-282.663" rx="79.0865" ry="18"/>
<text text-anchor="middle" x="694.797" y="-278.963" font-family="Times,serif" font-size="14.00">JsonRpcClientBase</text>
</g>
<!-- JsonRpcExt -->
<g id="node35" class="node"><title>JsonRpcExt</title>
<polygon fill="none" stroke="black" points="978.104,-300.663 897.104,-300.663 897.104,-296.663 893.104,-296.663 893.104,-292.663 897.104,-292.663 897.104,-272.663 893.104,-272.663 893.104,-268.663 897.104,-268.663 897.104,-264.663 978.104,-264.663 978.104,-300.663"/>
<polyline fill="none" stroke="black" points="897.104,-296.663 901.104,-296.663 901.104,-292.663 897.104,-292.663 "/>
<polyline fill="none" stroke="black" points="897.104,-272.663 901.104,-272.663 901.104,-268.663 897.104,-268.663 "/>
<text text-anchor="middle" x="937.604" y="-278.963" font-family="Times,serif" font-size="14.00">JsonRpcExt</text>
</g>
<!-- JsonRpcClientBase&#45;&gt;JsonRpcExt -->
<g id="edge57" class="edge"><title>JsonRpcClientBase&#45;&gt;JsonRpcExt</title>
<path fill="none" stroke="black" d="M774.313,-282.663C811.343,-282.663 854.412,-282.663 886.873,-282.663"/>
<polygon fill="black" stroke="black" points="887.019,-286.163 897.018,-282.663 887.018,-279.163 887.019,-286.163"/>
</g>
<!-- JsonRpcExt&#45;&gt;Core_ComponentBase -->
<g id="edge64" class="edge"><title>JsonRpcExt&#45;&gt;Core_ComponentBase</title>
<path fill="none" stroke="black" stroke-dasharray="1,5" d="M978.128,-290.111C989.379,-294.11 1000.6,-300.248 1008.1,-309.663 1073.45,-391.677 1085.86,-730.833 1088.12,-831.421"/>
<polygon fill="black" stroke="black" points="1084.62,-831.517 1088.33,-841.442 1091.62,-831.372 1084.62,-831.517"/>
</g>
<!-- Misc -->
<g id="node36" class="node"><title>Misc</title>
<polygon fill="none" stroke="black" points="721.797,-570.663 667.797,-570.663 667.797,-566.663 663.797,-566.663 663.797,-562.663 667.797,-562.663 667.797,-542.663 663.797,-542.663 663.797,-538.663 667.797,-538.663 667.797,-534.663 721.797,-534.663 721.797,-570.663"/>
<polyline fill="none" stroke="black" points="667.797,-566.663 671.797,-566.663 671.797,-562.663 667.797,-562.663 "/>
<polyline fill="none" stroke="black" points="667.797,-542.663 671.797,-542.663 671.797,-538.663 667.797,-538.663 "/>
<text text-anchor="middle" x="694.797" y="-548.963" font-family="Times,serif" font-size="14.00">Misc</text>
</g>
<!-- Misc&#45;&gt;Core_ComponentBase -->
<g id="edge66" class="edge"><title>Misc&#45;&gt;Core_ComponentBase</title>
<path fill="none" stroke="black" stroke-dasharray="1,5" d="M722.033,-552.274C752.323,-552.972 802.648,-557.754 839.104,-579.663 861.057,-592.856 853.831,-610.4 875.104,-624.663 926.268,-658.968 962.332,-622.439 1008.1,-663.663 1058,-708.599 1077.67,-789.099 1084.85,-831.603"/>
<polygon fill="black" stroke="black" points="1081.4,-832.213 1086.41,-841.546 1088.31,-831.123 1081.4,-832.213"/>
</g>
<!-- Pager -->
<g id="node37" class="node"><title>Pager</title>
<polygon fill="none" stroke="black" points="721.797,-408.663 667.797,-408.663 667.797,-404.663 663.797,-404.663 663.797,-400.663 667.797,-400.663 667.797,-380.663 663.797,-380.663 663.797,-376.663 667.797,-376.663 667.797,-372.663 721.797,-372.663 721.797,-408.663"/>
<polyline fill="none" stroke="black" points="667.797,-404.663 671.797,-404.663 671.797,-400.663 667.797,-400.663 "/>
<polyline fill="none" stroke="black" points="667.797,-380.663 671.797,-380.663 671.797,-376.663 667.797,-376.663 "/>
<text text-anchor="middle" x="694.797" y="-386.963" font-family="Times,serif" font-size="14.00">Pager</text>
</g>
<!-- Pager&#45;&gt;Core_ComponentBase -->
<g id="edge65" class="edge"><title>Pager&#45;&gt;Core_ComponentBase</title>
<path fill="none" stroke="black" stroke-dasharray="1,5" d="M722.063,-388.664C753.313,-387.711 805.473,-390.805 839.104,-417.663 870.524,-442.755 845.425,-473.535 875.104,-500.663 921.061,-542.67 965.63,-499.139 1008.1,-544.663 1047.4,-586.777 1075.2,-761.934 1084.86,-831.247"/>
<polygon fill="black" stroke="black" points="1081.43,-831.993 1086.26,-841.426 1088.37,-831.043 1081.43,-831.993"/>
</g>
<!-- PagerInterface -->
<g id="node38" class="node"><title>PagerInterface</title>
<polygon fill="none" stroke="black" points="979.104,-408.663 890.104,-408.663 890.104,-372.663 985.104,-372.663 985.104,-402.663 979.104,-408.663"/>
<polyline fill="none" stroke="black" points="979.104,-408.663 979.104,-402.663 "/>
<polyline fill="none" stroke="black" points="985.104,-402.663 979.104,-402.663 "/>
<text text-anchor="middle" x="937.604" y="-386.963" font-family="Times,serif" font-size="14.00">PagerInterface</text>
</g>
<!-- Pager&#45;&gt;PagerInterface -->
<g id="edge59" class="edge"><title>Pager&#45;&gt;PagerInterface</title>
<path fill="none" stroke="black" d="M722.026,-390.663C759.581,-390.663 829.634,-390.663 879.478,-390.663"/>
<polygon fill="black" stroke="black" points="879.788,-394.163 889.788,-390.663 879.788,-387.163 879.788,-394.163"/>
</g>
<!-- PluginForSwooleHttpd -->
<g id="node39" class="node"><title>PluginForSwooleHttpd</title>
<polygon fill="none" stroke="black" points="765.797,-516.663 623.797,-516.663 623.797,-512.663 619.797,-512.663 619.797,-508.663 623.797,-508.663 623.797,-488.663 619.797,-488.663 619.797,-484.663 623.797,-484.663 623.797,-480.663 765.797,-480.663 765.797,-516.663"/>
<polyline fill="none" stroke="black" points="623.797,-512.663 627.797,-512.663 627.797,-508.663 623.797,-508.663 "/>
<polyline fill="none" stroke="black" points="623.797,-488.663 627.797,-488.663 627.797,-484.663 623.797,-484.663 "/>
<text text-anchor="middle" x="694.797" y="-494.963" font-family="Times,serif" font-size="14.00">PluginForSwooleHttpd</text>
</g>
<!-- PluginForSwooleHttpd&#45;&gt;Core_ComponentBase -->
<g id="edge69" class="edge"><title>PluginForSwooleHttpd&#45;&gt;Core_ComponentBase</title>
<path fill="none" stroke="black" stroke-dasharray="1,5" d="M765.976,-500.198C790.858,-503.621 817.913,-510.905 839.104,-525.663 864.624,-543.435 850.495,-566.65 875.104,-585.663 923.851,-623.324 963.582,-582.092 1008.1,-624.663 1066.93,-680.911 1082.77,-781.944 1087.04,-831.16"/>
<polygon fill="black" stroke="black" points="1083.57,-831.692 1087.82,-841.396 1090.55,-831.158 1083.57,-831.692"/>
</g>
<!-- RedisManager -->
<g id="node40" class="node"><title>RedisManager</title>
<polygon fill="none" stroke="black" points="985.604,-354.663 889.604,-354.663 889.604,-350.663 885.604,-350.663 885.604,-346.663 889.604,-346.663 889.604,-326.663 885.604,-326.663 885.604,-322.663 889.604,-322.663 889.604,-318.663 985.604,-318.663 985.604,-354.663"/>
<polyline fill="none" stroke="black" points="889.604,-350.663 893.604,-350.663 893.604,-346.663 889.604,-346.663 "/>
<polyline fill="none" stroke="black" points="889.604,-326.663 893.604,-326.663 893.604,-322.663 889.604,-322.663 "/>
<text text-anchor="middle" x="937.604" y="-332.963" font-family="Times,serif" font-size="14.00">RedisManager</text>
</g>
<!-- RedisManager&#45;&gt;Core_ComponentBase -->
<g id="edge68" class="edge"><title>RedisManager&#45;&gt;Core_ComponentBase</title>
<path fill="none" stroke="black" stroke-dasharray="1,5" d="M985.615,-347.231C994.177,-351.115 1002.24,-356.419 1008.1,-363.663 1067.18,-436.628 1083.82,-737.495 1087.62,-831.479"/>
<polygon fill="black" stroke="black" points="1084.13,-831.786 1088.02,-841.643 1091.13,-831.515 1084.13,-831.786"/>
</g>
<!-- RedisSimpleCache -->
<g id="node41" class="node"><title>RedisSimpleCache</title>
<polygon fill="none" stroke="black" points="754.797,-354.663 634.797,-354.663 634.797,-350.663 630.797,-350.663 630.797,-346.663 634.797,-346.663 634.797,-326.663 630.797,-326.663 630.797,-322.663 634.797,-322.663 634.797,-318.663 754.797,-318.663 754.797,-354.663"/>
<polyline fill="none" stroke="black" points="634.797,-350.663 638.797,-350.663 638.797,-346.663 634.797,-346.663 "/>
<polyline fill="none" stroke="black" points="634.797,-326.663 638.797,-326.663 638.797,-322.663 634.797,-322.663 "/>
<text text-anchor="middle" x="694.797" y="-332.963" font-family="Times,serif" font-size="14.00">RedisSimpleCache</text>
</g>
<!-- RedisSimpleCache&#45;&gt;Core_ComponentBase -->
<g id="edge67" class="edge"><title>RedisSimpleCache&#45;&gt;Core_ComponentBase</title>
<path fill="none" stroke="black" stroke-dasharray="1,5" d="M754.815,-337.443C782.344,-340.274 814.4,-347.318 839.104,-363.663 863.16,-379.579 854.404,-397.576 875.104,-417.663 925.109,-466.186 967.805,-443.822 1008.1,-500.663 1082.14,-605.088 1089.59,-766.025 1089.34,-830.999"/>
<polygon fill="black" stroke="black" points="1085.84,-831.246 1089.23,-841.283 1092.84,-831.321 1085.84,-831.246"/>
</g>
<!-- RedisSimpleCache&#45;&gt;RedisManager -->
<g id="edge60" class="edge"><title>RedisSimpleCache&#45;&gt;RedisManager</title>
<path fill="none" stroke="black" d="M755.013,-336.663C792.819,-336.663 841.586,-336.663 879.062,-336.663"/>
<polygon fill="black" stroke="black" points="879.314,-340.163 889.314,-336.663 879.314,-333.163 879.314,-340.163"/>
</g>
<!-- RouteHookDirectoryMode -->
<g id="node42" class="node"><title>RouteHookDirectoryMode</title>
<polygon fill="none" stroke="black" points="776.297,-462.663 613.297,-462.663 613.297,-458.663 609.297,-458.663 609.297,-454.663 613.297,-454.663 613.297,-434.663 609.297,-434.663 609.297,-430.663 613.297,-430.663 613.297,-426.663 776.297,-426.663 776.297,-462.663"/>
<polyline fill="none" stroke="black" points="613.297,-458.663 617.297,-458.663 617.297,-454.663 613.297,-454.663 "/>
<polyline fill="none" stroke="black" points="613.297,-434.663 617.297,-434.663 617.297,-430.663 613.297,-430.663 "/>
<text text-anchor="middle" x="694.797" y="-440.963" font-family="Times,serif" font-size="14.00">RouteHookDirectoryMode</text>
</g>
<!-- RouteHookDirectoryMode&#45;&gt;Core_ComponentBase -->
<g id="edge71" class="edge"><title>RouteHookDirectoryMode&#45;&gt;Core_ComponentBase</title>
<path fill="none" stroke="black" stroke-dasharray="1,5" d="M776.647,-446.812C798.626,-450.705 821.26,-458.113 839.104,-471.663 867.915,-493.539 847.573,-521.197 875.104,-544.663 922.181,-584.787 964.657,-541.635 1008.1,-585.663 1075.69,-654.148 1087.07,-776.256 1088.62,-831.334"/>
<polygon fill="black" stroke="black" points="1085.12,-831.489 1088.81,-841.42 1092.12,-831.355 1085.12,-831.489"/>
</g>
<!-- RouteHookOneFileMode -->
<g id="node43" class="node"><title>RouteHookOneFileMode</title>
<polygon fill="none" stroke="black" points="772.297,-732.663 617.297,-732.663 617.297,-728.663 613.297,-728.663 613.297,-724.663 617.297,-724.663 617.297,-704.663 613.297,-704.663 613.297,-700.663 617.297,-700.663 617.297,-696.663 772.297,-696.663 772.297,-732.663"/>
<polyline fill="none" stroke="black" points="617.297,-728.663 621.297,-728.663 621.297,-724.663 617.297,-724.663 "/>
<polyline fill="none" stroke="black" points="617.297,-704.663 621.297,-704.663 621.297,-700.663 617.297,-700.663 "/>
<text text-anchor="middle" x="694.797" y="-710.963" font-family="Times,serif" font-size="14.00">RouteHookOneFileMode</text>
</g>
<!-- RouteHookOneFileMode&#45;&gt;Core_ComponentBase -->
<g id="edge72" class="edge"><title>RouteHookOneFileMode&#45;&gt;Core_ComponentBase</title>
<path fill="none" stroke="black" stroke-dasharray="1,5" d="M772.567,-725.395C794.359,-729.441 817.914,-734.782 839.104,-741.663 915.956,-766.62 999.821,-809.899 1048.11,-836.533"/>
<polygon fill="black" stroke="black" points="1046.55,-839.671 1057,-841.466 1049.95,-833.551 1046.55,-839.671"/>
</g>
<!-- RouteHookRewrite -->
<g id="node44" class="node"><title>RouteHookRewrite</title>
<polygon fill="none" stroke="black" points="755.797,-678.663 633.797,-678.663 633.797,-674.663 629.797,-674.663 629.797,-670.663 633.797,-670.663 633.797,-650.663 629.797,-650.663 629.797,-646.663 633.797,-646.663 633.797,-642.663 755.797,-642.663 755.797,-678.663"/>
<polyline fill="none" stroke="black" points="633.797,-674.663 637.797,-674.663 637.797,-670.663 633.797,-670.663 "/>
<polyline fill="none" stroke="black" points="633.797,-650.663 637.797,-650.663 637.797,-646.663 633.797,-646.663 "/>
<text text-anchor="middle" x="694.797" y="-656.963" font-family="Times,serif" font-size="14.00">RouteHookRewrite</text>
</g>
<!-- RouteHookRewrite&#45;&gt;Core_ComponentBase -->
<g id="edge73" class="edge"><title>RouteHookRewrite&#45;&gt;Core_ComponentBase</title>
<path fill="none" stroke="black" stroke-dasharray="1,5" d="M755.993,-669.441C781.836,-673.867 812.212,-679.951 839.104,-687.663 839.71,-687.837 1007.6,-753.283 1008.1,-753.663 1036.43,-775.054 1059.75,-808.939 1073.87,-832.623"/>
<polygon fill="black" stroke="black" points="1070.95,-834.568 1078.99,-841.462 1077,-831.055 1070.95,-834.568"/>
</g>
<!-- RouteHookRouteMap -->
<g id="node45" class="node"><title>RouteHookRouteMap</title>
<polygon fill="none" stroke="black" points="763.297,-624.663 626.297,-624.663 626.297,-620.663 622.297,-620.663 622.297,-616.663 626.297,-616.663 626.297,-596.663 622.297,-596.663 622.297,-592.663 626.297,-592.663 626.297,-588.663 763.297,-588.663 763.297,-624.663"/>
<polyline fill="none" stroke="black" points="626.297,-620.663 630.297,-620.663 630.297,-616.663 626.297,-616.663 "/>
<polyline fill="none" stroke="black" points="626.297,-596.663 630.297,-596.663 630.297,-592.663 626.297,-592.663 "/>
<text text-anchor="middle" x="694.797" y="-602.963" font-family="Times,serif" font-size="14.00">RouteHookRouteMap</text>
</g>
<!-- RouteHookRouteMap&#45;&gt;Core_ComponentBase -->
<g id="edge74" class="edge"><title>RouteHookRouteMap&#45;&gt;Core_ComponentBase</title>
<path fill="none" stroke="black" stroke-dasharray="1,5" d="M763.623,-612.266C788.25,-616.13 815.745,-622.652 839.104,-633.663 857.944,-642.543 856.694,-653.925 875.104,-663.663 929.447,-692.407 960.649,-662.581 1008.1,-701.663 1049.42,-735.685 1071.74,-796.359 1081.82,-831.8"/>
<polygon fill="black" stroke="black" points="1078.45,-832.772 1084.45,-841.507 1085.21,-830.94 1078.45,-832.772"/>
</g>
<!-- StrictCheck -->
<g id="node46" class="node"><title>StrictCheck</title>
<polygon fill="none" stroke="black" points="977.604,-246.663 897.604,-246.663 897.604,-242.663 893.604,-242.663 893.604,-238.663 897.604,-238.663 897.604,-218.663 893.604,-218.663 893.604,-214.663 897.604,-214.663 897.604,-210.663 977.604,-210.663 977.604,-246.663"/>
<polyline fill="none" stroke="black" points="897.604,-242.663 901.604,-242.663 901.604,-238.663 897.604,-238.663 "/>
<polyline fill="none" stroke="black" points="897.604,-218.663 901.604,-218.663 901.604,-214.663 897.604,-214.663 "/>
<text text-anchor="middle" x="937.604" y="-224.963" font-family="Times,serif" font-size="14.00">StrictCheck</text>
</g>
<!-- StrictCheck&#45;&gt;Core_ComponentBase -->
<g id="edge70" class="edge"><title>StrictCheck&#45;&gt;Core_ComponentBase</title>
<path fill="none" stroke="black" stroke-dasharray="1,5" d="M977.839,-235.925C989.215,-239.917 1000.58,-246.098 1008.1,-255.663 1079.78,-346.812 1087.73,-724.77 1088.54,-831.489"/>
<polygon fill="black" stroke="black" points="1085.04,-831.523 1088.6,-841.502 1092.04,-831.481 1085.04,-831.523"/>
</g>
<!-- StrictModelTrait -->
<g id="node47" class="node"><title>StrictModelTrait</title>
<polygon fill="none" stroke="black" points="694.797,-192.663 595.758,-174.663 694.797,-156.663 793.835,-174.663 694.797,-192.663"/>
<text text-anchor="middle" x="694.797" y="-170.963" font-family="Times,serif" font-size="14.00">StrictModelTrait</text>
</g>
<!-- StrictModelTrait&#45;&gt;StrictCheck -->
<g id="edge61" class="edge"><title>StrictModelTrait&#45;&gt;StrictCheck</title>
<path fill="none" stroke="black" d="M747.085,-183.25C774.504,-188.111 808.771,-194.619 839.104,-201.663 854.963,-205.346 872.121,-209.902 887.557,-214.216"/>
<polygon fill="black" stroke="black" points="886.846,-217.652 897.421,-217.004 888.75,-210.916 886.846,-217.652"/>
</g>
<!-- StrictServiceTrait -->
<g id="node48" class="node"><title>StrictServiceTrait</title>
<polygon fill="none" stroke="black" points="694.797,-246.663 591.067,-228.663 694.797,-210.663 798.526,-228.663 694.797,-246.663"/>
<text text-anchor="middle" x="694.797" y="-224.963" font-family="Times,serif" font-size="14.00">StrictServiceTrait</text>
</g>
<!-- StrictServiceTrait&#45;&gt;StrictCheck -->
<g id="edge62" class="edge"><title>StrictServiceTrait&#45;&gt;StrictCheck</title>
<path fill="none" stroke="black" d="M798.619,-228.663C829.404,-228.663 861.756,-228.663 887.391,-228.663"/>
<polygon fill="black" stroke="black" points="887.582,-232.163 897.582,-228.663 887.582,-225.163 887.582,-232.163"/>
</g>
<!-- HttpServer -->
<g id="node49" class="node"><title>HttpServer</title>
<polygon fill="lightgrey" stroke="black" points="328.666,-837.663 258.954,-819.663 328.666,-801.663 398.379,-819.663 328.666,-837.663"/>
<polyline fill="none" stroke="black" points="270.573,-822.663 270.573,-816.663 "/>
<polyline fill="none" stroke="black" points="317.047,-804.663 340.285,-804.663 "/>
<polyline fill="none" stroke="black" points="386.76,-816.663 386.76,-822.663 "/>
<polyline fill="none" stroke="black" points="340.285,-834.663 317.047,-834.663 "/>
<text text-anchor="middle" x="328.666" y="-815.963" font-family="Times,serif" font-size="14.00">HttpServer</text>
</g>
<!-- HttpServer&#45;&gt;Core_HttpServer -->
<g id="edge76" class="edge"><title>HttpServer&#45;&gt;Core_HttpServer</title>
<path fill="none" stroke="black" d="M388.557,-822.3C483.483,-826.737 676.172,-836.516 839.104,-849.663 855.522,-850.988 873.463,-852.74 889.43,-854.408"/>
<polygon fill="black" stroke="black" points="889.287,-857.912 899.6,-855.486 890.025,-850.951 889.287,-857.912"/>
</g>
<!-- App -->
<g id="node50" class="node"><title>App</title>
<polygon fill="lightgrey" stroke="black" points="328.666,-783.663 292.132,-765.663 328.666,-747.663 365.2,-765.663 328.666,-783.663"/>
<polyline fill="none" stroke="black" points="302.897,-770.967 302.897,-760.36 "/>
<polyline fill="none" stroke="black" points="317.902,-752.967 339.431,-752.967 "/>
<polyline fill="none" stroke="black" points="354.436,-760.36 354.436,-770.967 "/>
<polyline fill="none" stroke="black" points="339.431,-778.36 317.902,-778.36 "/>
<text text-anchor="middle" x="328.666" y="-761.963" font-family="Times,serif" font-size="14.00">App</text>
</g>
<!-- App&#45;&gt;Core_App -->
<g id="edge77" class="edge"><title>App&#45;&gt;Core_App</title>
<path fill="none" stroke="black" d="M360.292,-768.127C378.099,-771.173 399.596,-777.897 412.956,-792.663 448.566,-832.02 467.825,-994.193 474.251,-1059.36"/>
<polygon fill="black" stroke="black" points="470.8,-1060.04 475.238,-1069.66 477.768,-1059.37 470.8,-1060.04"/>
</g>
<!-- App&#45;&gt;DBManager -->
<g id="edge82" class="edge"><title>App&#45;&gt;DBManager</title>
<path fill="none" stroke="black" d="M332.028,-749.161C346.636,-649.607 428.104,-130.359 550.489,-39.6631 650.746,34.6348 808.725,-13.0653 887.927,-44.8653"/>
<polygon fill="black" stroke="black" points="886.606,-48.1063 897.187,-48.6553 889.258,-41.628 886.606,-48.1063"/>
</g>
<!-- App&#45;&gt;Pager -->
<g id="edge81" class="edge"><title>App&#45;&gt;Pager</title>
<path fill="none" stroke="black" d="M334.407,-750.344C352.346,-695.13 421.674,-504.997 550.489,-417.663 582.169,-396.185 626.408,-390.658 657.325,-389.733"/>
<polygon fill="black" stroke="black" points="657.717,-393.228 667.663,-389.579 657.612,-386.229 657.717,-393.228"/>
</g>
<!-- App&#45;&gt;RouteHookRouteMap -->
<g id="edge80" class="edge"><title>App&#45;&gt;RouteHookRouteMap</title>
<path fill="none" stroke="black" d="M343.737,-754.792C377.411,-729.346 466.13,-665.657 550.489,-633.663 571.129,-625.835 594.334,-620.207 615.961,-616.189"/>
<polygon fill="black" stroke="black" points="616.863,-619.584 626.102,-614.399 615.646,-612.691 616.863,-619.584"/>
</g>
<!-- SingletonEx -->
<g id="node51" class="node"><title>SingletonEx</title>
<polygon fill="lightgrey" stroke="black" points="328.666,-945.663 252.586,-927.663 328.666,-909.663 404.747,-927.663 328.666,-945.663"/>
<polyline fill="none" stroke="black" points="264.263,-930.426 264.263,-924.9 "/>
<polyline fill="none" stroke="black" points="316.989,-912.426 340.344,-912.426 "/>
<polyline fill="none" stroke="black" points="393.069,-924.9 393.069,-930.426 "/>
<polyline fill="none" stroke="black" points="340.344,-942.9 316.989,-942.9 "/>
<text text-anchor="middle" x="328.666" y="-923.963" font-family="Times,serif" font-size="14.00">SingletonEx</text>
</g>
<!-- SingletonEx&#45;&gt;Core_SingletonEx -->
<g id="edge78" class="edge"><title>SingletonEx&#45;&gt;Core_SingletonEx</title>
<path fill="none" stroke="black" d="M358.627,-938.613C377.2,-947.185 400.154,-960.979 412.956,-980.663 445.548,-1030.77 414.419,-1056.83 432.956,-1113.66 467.945,-1220.92 458.055,-1273.97 550.489,-1338.66 603.128,-1375.5 629.547,-1357.66 693.797,-1357.66 693.797,-1357.66 693.797,-1357.66 938.604,-1357.66 1051.89,-1357.66 1180.51,-1313.78 1242.27,-1289.83"/>
<polygon fill="black" stroke="black" points="1243.92,-1292.94 1251.95,-1286.03 1241.36,-1286.43 1243.92,-1292.94"/>
</g>
<!-- ThrowOn -->
<g id="node52" class="node"><title>ThrowOn</title>
<polygon fill="lightgrey" stroke="black" points="328.666,-891.663 265.323,-873.663 328.666,-855.663 392.01,-873.663 328.666,-891.663"/>
<polyline fill="none" stroke="black" points="276.866,-876.943 276.866,-870.383 "/>
<polyline fill="none" stroke="black" points="317.123,-858.943 340.209,-858.943 "/>
<polyline fill="none" stroke="black" points="380.467,-870.383 380.467,-876.943 "/>
<polyline fill="none" stroke="black" points="340.209,-888.383 317.123,-888.383 "/>
<text text-anchor="middle" x="328.666" y="-869.963" font-family="Times,serif" font-size="14.00">ThrowOn</text>
</g>
<!-- ThrowOn&#45;&gt;Core_ThrowOn -->
<g id="edge79" class="edge"><title>ThrowOn&#45;&gt;Core_ThrowOn</title>
<path fill="none" stroke="black" d="M364.641,-881.542C380.071,-885.875 398.046,-892.135 412.956,-900.663 483.883,-941.231 477.126,-986.687 550.489,-1022.66 575.574,-1034.96 605.661,-1041.68 631.776,-1045.33"/>
<polygon fill="black" stroke="black" points="631.582,-1048.84 641.946,-1046.63 632.47,-1041.89 631.582,-1048.84"/>
</g>
</g>
</svg>
