<?xml version="1.0" encoding="UTF-8" standalone="no"?>
<!DOCTYPE svg PUBLIC "-//W3C//DTD SVG 1.1//EN"
 "http://www.w3.org/Graphics/SVG/1.1/DTD/svg11.dtd">
<!-- Generated by graphviz version 2.38.0 (20140413.2041)
 -->
<!-- Title: G Pages: 1 -->
<svg width="1426pt" height="1612pt"
 viewBox="0.00 0.00 1425.55 1612.33" xmlns="http://www.w3.org/2000/svg" xmlns:xlink="http://www.w3.org/1999/xlink">
<g id="graph0" class="graph" transform="scale(1 1) rotate(0) translate(4 1608.33)">
<title>G</title>
<polygon fill="white" stroke="none" points="-4,4 -4,-1608.33 1421.55,-1608.33 1421.55,4 -4,4"/>
<g id="clust1" class="cluster"><title>cluster_Core</title>
<polygon fill="none" stroke="black" points="427.441,-1069.33 427.441,-1596.33 1384.73,-1596.33 1384.73,-1069.33 427.441,-1069.33"/>
<text text-anchor="middle" x="906.085" y="-1581.13" font-family="Times,serif" font-size="14.00">[DuckPhp\Core]</text>
</g>
<g id="clust2" class="cluster"><title>cluster_Helper</title>
<polygon fill="none" stroke="black" points="8,-1169.33 8,-1460.33 407.441,-1460.33 407.441,-1169.33 8,-1169.33"/>
<text text-anchor="middle" x="207.721" y="-1445.13" font-family="Times,serif" font-size="14.00">[DuckPhp\Helper]</text>
</g>
<g id="clust3" class="cluster"><title>cluster_DB</title>
<polygon fill="none" stroke="black" points="1074.83,-13.3292 1074.83,-142.329 1409.55,-142.329 1409.55,-13.3292 1074.83,-13.3292"/>
<text text-anchor="middle" x="1242.19" y="-127.129" font-family="Times,serif" font-size="14.00">[DuckPhp\DB]</text>
</g>
<g id="clust4" class="cluster"><title>cluster_Ext</title>
<polygon fill="none" stroke="black" points="577.417,-40.3292 577.417,-1033.33 1015.46,-1033.33 1015.46,-40.3292 577.417,-40.3292"/>
<text text-anchor="middle" x="796.439" y="-1018.13" font-family="Times,serif" font-size="14.00">[DuckPhp\Ext]</text>
</g>
<g id="clust5" class="cluster"><title>cluster_DuckPhp</title>
<polygon fill="none" stroke="black" points="248.053,-605.329 248.053,-734.329 403.765,-734.329 403.765,-605.329 248.053,-605.329"/>
<text text-anchor="middle" x="325.909" y="-719.129" font-family="Times,serif" font-size="14.00">[DuckPhp]</text>
</g>
<!-- Core_AppPluginTrait -->
<g id="node1" class="node"><title>Core_AppPluginTrait</title>
<polygon fill="none" stroke="black" points="689.282,-1263.33 596.612,-1245.33 689.282,-1227.33 781.952,-1245.33 689.282,-1263.33"/>
<text text-anchor="middle" x="689.282" y="-1241.63" font-family="Times,serif" font-size="14.00">AppPluginTrait</text>
</g>
<!-- Core_View -->
<g id="node7" class="node"><title>Core_View</title>
<polygon fill="none" stroke="black" points="971.96,-1167.33 917.96,-1167.33 917.96,-1163.33 913.96,-1163.33 913.96,-1159.33 917.96,-1159.33 917.96,-1139.33 913.96,-1139.33 913.96,-1135.33 917.96,-1135.33 917.96,-1131.33 971.96,-1131.33 971.96,-1167.33"/>
<polyline fill="none" stroke="black" points="917.96,-1163.33 921.96,-1163.33 921.96,-1159.33 917.96,-1159.33 "/>
<polyline fill="none" stroke="black" points="917.96,-1139.33 921.96,-1139.33 921.96,-1135.33 917.96,-1135.33 "/>
<text text-anchor="middle" x="944.96" y="-1145.63" font-family="Times,serif" font-size="14.00">View</text>
</g>
<!-- Core_AppPluginTrait&#45;&gt;Core_View -->
<g id="edge24" class="edge"><title>Core_AppPluginTrait&#45;&gt;Core_View</title>
<path fill="none" stroke="black" d="M724.211,-1234.02C753.466,-1224.03 796.696,-1208.69 833.589,-1193.33 849.924,-1186.53 853.256,-1183.13 869.589,-1176.33 882.096,-1171.12 896.005,-1165.92 908.38,-1161.49"/>
<polygon fill="black" stroke="black" points="909.656,-1164.75 917.919,-1158.12 907.324,-1158.15 909.656,-1164.75"/>
</g>
<!-- Core_Configer -->
<g id="node8" class="node"><title>Core_Configer</title>
<polygon fill="none" stroke="black" points="977.46,-1221.33 912.46,-1221.33 912.46,-1217.33 908.46,-1217.33 908.46,-1213.33 912.46,-1213.33 912.46,-1193.33 908.46,-1193.33 908.46,-1189.33 912.46,-1189.33 912.46,-1185.33 977.46,-1185.33 977.46,-1221.33"/>
<polyline fill="none" stroke="black" points="912.46,-1217.33 916.46,-1217.33 916.46,-1213.33 912.46,-1213.33 "/>
<polyline fill="none" stroke="black" points="912.46,-1193.33 916.46,-1193.33 916.46,-1189.33 912.46,-1189.33 "/>
<text text-anchor="middle" x="944.96" y="-1199.63" font-family="Times,serif" font-size="14.00">Configer</text>
</g>
<!-- Core_AppPluginTrait&#45;&gt;Core_Configer -->
<g id="edge23" class="edge"><title>Core_AppPluginTrait&#45;&gt;Core_Configer</title>
<path fill="none" stroke="black" d="M739.796,-1237.13C787.15,-1229.29 857.757,-1217.6 902.303,-1210.23"/>
<polygon fill="black" stroke="black" points="902.921,-1213.67 912.215,-1208.59 901.777,-1206.77 902.921,-1213.67"/>
</g>
<!-- Core_Route -->
<g id="node10" class="node"><title>Core_Route</title>
<polygon fill="lightgrey" stroke="black" points="944.96,-1275.33 899.883,-1257.33 944.96,-1239.33 990.038,-1257.33 944.96,-1275.33"/>
<polyline fill="none" stroke="black" points="911.027,-1261.78 911.027,-1252.88 "/>
<polyline fill="none" stroke="black" points="933.816,-1243.78 956.105,-1243.78 "/>
<polyline fill="none" stroke="black" points="978.893,-1252.88 978.893,-1261.78 "/>
<polyline fill="none" stroke="black" points="956.105,-1270.88 933.816,-1270.88 "/>
<text text-anchor="middle" x="944.96" y="-1253.63" font-family="Times,serif" font-size="14.00">Route</text>
</g>
<!-- Core_AppPluginTrait&#45;&gt;Core_Route -->
<g id="edge25" class="edge"><title>Core_AppPluginTrait&#45;&gt;Core_Route</title>
<path fill="none" stroke="black" d="M764.338,-1248.83C806.179,-1250.81 857.346,-1253.23 894.351,-1254.98"/>
<polygon fill="black" stroke="black" points="894.24,-1258.48 904.394,-1255.46 894.57,-1251.49 894.24,-1258.48"/>
</g>
<!-- Core_SuperGlobal -->
<g id="node14" class="node"><title>Core_SuperGlobal</title>
<polygon fill="none" stroke="black" points="987.46,-1383.33 902.46,-1383.33 902.46,-1379.33 898.46,-1379.33 898.46,-1375.33 902.46,-1375.33 902.46,-1355.33 898.46,-1355.33 898.46,-1351.33 902.46,-1351.33 902.46,-1347.33 987.46,-1347.33 987.46,-1383.33"/>
<polyline fill="none" stroke="black" points="902.46,-1379.33 906.46,-1379.33 906.46,-1375.33 902.46,-1375.33 "/>
<polyline fill="none" stroke="black" points="902.46,-1355.33 906.46,-1355.33 906.46,-1351.33 902.46,-1351.33 "/>
<text text-anchor="middle" x="944.96" y="-1361.63" font-family="Times,serif" font-size="14.00">SuperGlobal</text>
</g>
<!-- Core_AppPluginTrait&#45;&gt;Core_SuperGlobal -->
<g id="edge26" class="edge"><title>Core_AppPluginTrait&#45;&gt;Core_SuperGlobal</title>
<path fill="none" stroke="black" d="M720.199,-1257.37C749.778,-1269.71 795.943,-1290.2 833.589,-1312.33 850.604,-1322.33 852.146,-1329.1 869.589,-1338.33 876.839,-1342.17 884.754,-1345.68 892.628,-1348.82"/>
<polygon fill="black" stroke="black" points="891.576,-1352.16 902.166,-1352.45 894.067,-1345.62 891.576,-1352.16"/>
</g>
<!-- Core_App -->
<g id="node2" class="node"><title>Core_App</title>
<polygon fill="lightgrey" stroke="black" points="472.208,-1341.33 435.674,-1323.33 472.208,-1305.33 508.742,-1323.33 472.208,-1341.33"/>
<polyline fill="none" stroke="black" points="446.438,-1328.63 446.438,-1318.03 "/>
<polyline fill="none" stroke="black" points="461.443,-1310.63 482.972,-1310.63 "/>
<polyline fill="none" stroke="black" points="497.977,-1318.03 497.977,-1328.63 "/>
<polyline fill="none" stroke="black" points="482.972,-1336.03 461.443,-1336.03 "/>
<text text-anchor="middle" x="472.208" y="-1319.63" font-family="Times,serif" font-size="14.00">App</text>
</g>
<!-- Core_Kernel -->
<g id="node3" class="node"><title>Core_Kernel</title>
<polygon fill="none" stroke="black" points="689.282,-1357.33 640.35,-1339.33 689.282,-1321.33 738.213,-1339.33 689.282,-1357.33"/>
<text text-anchor="middle" x="689.282" y="-1335.63" font-family="Times,serif" font-size="14.00">Kernel</text>
</g>
<!-- Core_App&#45;&gt;Core_Kernel -->
<g id="edge9" class="edge"><title>Core_App&#45;&gt;Core_Kernel</title>
<path fill="none" stroke="black" d="M504.481,-1325.66C539.495,-1328.26 596.731,-1332.52 638.037,-1335.59"/>
<polygon fill="black" stroke="black" points="637.941,-1339.09 648.173,-1336.35 638.46,-1332.11 637.941,-1339.09"/>
</g>
<!-- Core_AutoLoader -->
<g id="node5" class="node"><title>Core_AutoLoader</title>
<polygon fill="lightgrey" stroke="black" points="944.96,-1545.33 869.718,-1527.33 944.96,-1509.33 1020.2,-1527.33 944.96,-1545.33"/>
<polyline fill="none" stroke="black" points="881.389,-1530.12 881.389,-1524.54 "/>
<polyline fill="none" stroke="black" points="933.29,-1512.12 956.631,-1512.12 "/>
<polyline fill="none" stroke="black" points="1008.53,-1524.54 1008.53,-1530.12 "/>
<polyline fill="none" stroke="black" points="956.631,-1542.54 933.29,-1542.54 "/>
<text text-anchor="middle" x="944.96" y="-1523.63" font-family="Times,serif" font-size="14.00">AutoLoader</text>
</g>
<!-- Core_App&#45;&gt;Core_AutoLoader -->
<g id="edge13" class="edge"><title>Core_App&#45;&gt;Core_AutoLoader</title>
<path fill="none" stroke="black" stroke-dasharray="1,5" d="M473.179,-1340.88C474.182,-1381.82 483.086,-1483.49 544.974,-1527.33 598.34,-1565.13 790.036,-1547.17 886.974,-1535.14"/>
<polygon fill="black" stroke="black" points="887.416,-1538.61 896.9,-1533.89 886.54,-1531.67 887.416,-1538.61"/>
</g>
<!-- Core_ExceptionManager -->
<g id="node6" class="node"><title>Core_ExceptionManager</title>
<polygon fill="none" stroke="black" points="1004.96,-1329.33 884.96,-1329.33 884.96,-1325.33 880.96,-1325.33 880.96,-1321.33 884.96,-1321.33 884.96,-1301.33 880.96,-1301.33 880.96,-1297.33 884.96,-1297.33 884.96,-1293.33 1004.96,-1293.33 1004.96,-1329.33"/>
<polyline fill="none" stroke="black" points="884.96,-1325.33 888.96,-1325.33 888.96,-1321.33 884.96,-1321.33 "/>
<polyline fill="none" stroke="black" points="884.96,-1301.33 888.96,-1301.33 888.96,-1297.33 884.96,-1297.33 "/>
<text text-anchor="middle" x="944.96" y="-1307.63" font-family="Times,serif" font-size="14.00">ExceptionManager</text>
</g>
<!-- Core_App&#45;&gt;Core_ExceptionManager -->
<g id="edge16" class="edge"><title>Core_App&#45;&gt;Core_ExceptionManager</title>
<path fill="none" stroke="black" stroke-dasharray="1,5" d="M499.01,-1318.42C512.624,-1316.07 529.642,-1313.52 544.974,-1312.33 660.143,-1303.41 794.574,-1305.69 874.3,-1308.36"/>
<polygon fill="black" stroke="black" points="874.585,-1311.87 884.701,-1308.72 874.828,-1304.87 874.585,-1311.87"/>
</g>
<!-- Core_App&#45;&gt;Core_View -->
<g id="edge19" class="edge"><title>Core_App&#45;&gt;Core_View</title>
<path fill="none" stroke="black" stroke-dasharray="1,5" d="M476.665,-1307.49C483.828,-1278.96 503.233,-1219.45 544.974,-1193.33 572.195,-1176.29 801.86,-1183.27 833.589,-1178.33 858.77,-1174.41 886.511,-1167.11 907.882,-1160.81"/>
<polygon fill="black" stroke="black" points="908.952,-1164.14 917.521,-1157.91 906.937,-1157.44 908.952,-1164.14"/>
</g>
<!-- Core_App&#45;&gt;Core_Configer -->
<g id="edge14" class="edge"><title>Core_App&#45;&gt;Core_Configer</title>
<path fill="none" stroke="black" stroke-dasharray="1,5" d="M478.454,-1308.14C487.659,-1284.11 509.213,-1238.07 544.974,-1218.33 605.318,-1185.02 812.696,-1194.41 902.241,-1200.26"/>
<polygon fill="black" stroke="black" points="902.095,-1203.76 912.307,-1200.94 902.564,-1196.77 902.095,-1203.76"/>
</g>
<!-- Core_Logger -->
<g id="node9" class="node"><title>Core_Logger</title>
<polygon fill="none" stroke="black" points="972.96,-1437.33 916.96,-1437.33 916.96,-1433.33 912.96,-1433.33 912.96,-1429.33 916.96,-1429.33 916.96,-1409.33 912.96,-1409.33 912.96,-1405.33 916.96,-1405.33 916.96,-1401.33 972.96,-1401.33 972.96,-1437.33"/>
<polyline fill="none" stroke="black" points="916.96,-1433.33 920.96,-1433.33 920.96,-1429.33 916.96,-1429.33 "/>
<polyline fill="none" stroke="black" points="916.96,-1409.33 920.96,-1409.33 920.96,-1405.33 916.96,-1405.33 "/>
<text text-anchor="middle" x="944.96" y="-1415.63" font-family="Times,serif" font-size="14.00">Logger</text>
</g>
<!-- Core_App&#45;&gt;Core_Logger -->
<g id="edge15" class="edge"><title>Core_App&#45;&gt;Core_Logger</title>
<path fill="none" stroke="black" stroke-dasharray="1,5" d="M474.415,-1340.25C477.988,-1376.04 491.887,-1459.04 544.974,-1494.33 598.385,-1529.84 776.224,-1523.01 833.589,-1494.33 857.441,-1482.4 848.165,-1462.21 869.589,-1446.33 880.562,-1438.2 894.229,-1432.31 906.842,-1428.15"/>
<polygon fill="black" stroke="black" points="908.106,-1431.42 916.661,-1425.17 906.076,-1424.72 908.106,-1431.42"/>
</g>
<!-- Core_App&#45;&gt;Core_Route -->
<g id="edge17" class="edge"><title>Core_App&#45;&gt;Core_Route</title>
<path fill="none" stroke="black" stroke-dasharray="1,5" d="M494.312,-1316.06C508.479,-1311.45 527.65,-1305.73 544.974,-1302.33 671.516,-1277.45 705.542,-1287.68 833.589,-1272.33 855.928,-1269.65 880.758,-1266.31 901.202,-1263.46"/>
<polygon fill="black" stroke="black" points="901.738,-1266.92 911.154,-1262.06 900.765,-1259.99 901.738,-1266.92"/>
</g>
<!-- Core_RuntimeState -->
<g id="node11" class="node"><title>Core_RuntimeState</title>
<polygon fill="none" stroke="black" points="990.46,-1491.33 899.46,-1491.33 899.46,-1487.33 895.46,-1487.33 895.46,-1483.33 899.46,-1483.33 899.46,-1463.33 895.46,-1463.33 895.46,-1459.33 899.46,-1459.33 899.46,-1455.33 990.46,-1455.33 990.46,-1491.33"/>
<polyline fill="none" stroke="black" points="899.46,-1487.33 903.46,-1487.33 903.46,-1483.33 899.46,-1483.33 "/>
<polyline fill="none" stroke="black" points="899.46,-1463.33 903.46,-1463.33 903.46,-1459.33 899.46,-1459.33 "/>
<text text-anchor="middle" x="944.96" y="-1469.63" font-family="Times,serif" font-size="14.00">RuntimeState</text>
</g>
<!-- Core_App&#45;&gt;Core_RuntimeState -->
<g id="edge18" class="edge"><title>Core_App&#45;&gt;Core_RuntimeState</title>
<path fill="none" stroke="black" stroke-dasharray="1,5" d="M473.713,-1340.78C475.893,-1379.53 487.195,-1472.46 544.974,-1512.33 597.765,-1548.75 770.375,-1523.17 833.589,-1512.33 836.734,-1511.79 863.352,-1502.4 889.657,-1492.96"/>
<polygon fill="black" stroke="black" points="891.062,-1496.18 899.29,-1489.5 888.696,-1489.59 891.062,-1496.18"/>
</g>
<!-- Core_SystemWrapperTrait -->
<g id="node12" class="node"><title>Core_SystemWrapperTrait</title>
<polygon fill="none" stroke="black" points="689.282,-1411.33 568.962,-1393.33 689.282,-1375.33 809.601,-1393.33 689.282,-1411.33"/>
<text text-anchor="middle" x="689.282" y="-1389.63" font-family="Times,serif" font-size="14.00">SystemWrapperTrait</text>
</g>
<!-- Core_App&#45;&gt;Core_SystemWrapperTrait -->
<g id="edge12" class="edge"><title>Core_App&#45;&gt;Core_SystemWrapperTrait</title>
<path fill="none" stroke="black" d="M487.541,-1334.01C501.494,-1343.89 523.656,-1358.23 544.974,-1366.33 565.508,-1374.13 588.584,-1379.74 610.12,-1383.76"/>
<polygon fill="black" stroke="black" points="609.763,-1387.25 620.22,-1385.55 610.984,-1380.36 609.763,-1387.25"/>
</g>
<!-- Core_App&#45;&gt;Core_SuperGlobal -->
<g id="edge20" class="edge"><title>Core_App&#45;&gt;Core_SuperGlobal</title>
<path fill="none" stroke="black" stroke-dasharray="1,5" d="M479.036,-1338.28C488.778,-1360.92 510.742,-1403.07 544.974,-1420.33 602.246,-1449.2 772.924,-1441.14 833.589,-1420.33 852.762,-1413.75 851.846,-1402.13 869.589,-1392.33 876.935,-1388.27 885.011,-1384.61 893.049,-1381.39"/>
<polygon fill="black" stroke="black" points="894.326,-1384.65 902.422,-1377.82 891.831,-1378.11 894.326,-1384.65"/>
</g>
<!-- Core_ExtendableStaticCallTrait -->
<g id="node15" class="node"><title>Core_ExtendableStaticCallTrait</title>
<polygon fill="none" stroke="black" points="689.282,-1115.33 545.166,-1097.33 689.282,-1079.33 833.397,-1097.33 689.282,-1115.33"/>
<text text-anchor="middle" x="689.282" y="-1093.63" font-family="Times,serif" font-size="14.00">ExtendableStaticCallTrait</text>
</g>
<!-- Core_App&#45;&gt;Core_ExtendableStaticCallTrait -->
<g id="edge11" class="edge"><title>Core_App&#45;&gt;Core_ExtendableStaticCallTrait</title>
<path fill="none" stroke="black" d="M473.96,-1306.06C476.644,-1267.1 488.913,-1172.07 544.974,-1124.33 554.48,-1116.23 565.641,-1110.26 577.468,-1105.88"/>
<polygon fill="black" stroke="black" points="578.68,-1109.16 587.076,-1102.7 576.483,-1102.52 578.68,-1109.16"/>
</g>
<!-- Core_ThrowOn -->
<g id="node16" class="node"><title>Core_ThrowOn</title>
<polygon fill="lightgrey" stroke="black" points="689.282,-1169.33 625.938,-1151.33 689.282,-1133.33 752.626,-1151.33 689.282,-1169.33"/>
<polyline fill="none" stroke="black" points="637.481,-1154.61 637.481,-1148.05 "/>
<polyline fill="none" stroke="black" points="677.739,-1136.61 700.825,-1136.61 "/>
<polyline fill="none" stroke="black" points="741.083,-1148.05 741.083,-1154.61 "/>
<polyline fill="none" stroke="black" points="700.825,-1166.05 677.739,-1166.05 "/>
<text text-anchor="middle" x="689.282" y="-1147.63" font-family="Times,serif" font-size="14.00">ThrowOn</text>
</g>
<!-- Core_App&#45;&gt;Core_ThrowOn -->
<g id="edge10" class="edge"><title>Core_App&#45;&gt;Core_ThrowOn</title>
<path fill="none" stroke="black" d="M476.644,-1307.47C483.866,-1278.12 503.495,-1215.42 544.974,-1183.33 566.513,-1166.67 595.029,-1158.34 620.948,-1154.29"/>
<polygon fill="black" stroke="black" points="621.68,-1157.72 631.111,-1152.9 620.728,-1150.79 621.68,-1157.72"/>
</g>
<!-- Core_ComponentBase -->
<g id="node18" class="node"><title>Core_ComponentBase</title>
<polygon fill="none" stroke="black" points="1163.33,-1113.33 1060.33,-1113.33 1056.33,-1109.33 1056.33,-1077.33 1159.33,-1077.33 1163.33,-1081.33 1163.33,-1113.33"/>
<polyline fill="none" stroke="black" points="1159.33,-1109.33 1056.33,-1109.33 "/>
<polyline fill="none" stroke="black" points="1159.33,-1109.33 1159.33,-1077.33 "/>
<polyline fill="none" stroke="black" points="1159.33,-1109.33 1163.33,-1113.33 "/>
<text text-anchor="middle" x="1109.83" y="-1091.63" font-family="Times,serif" font-size="14.00">ComponentBase</text>
</g>
<!-- Core_App&#45;&gt;Core_ComponentBase -->
<g id="edge22" class="edge"><title>Core_App&#45;&gt;Core_ComponentBase</title>
<path fill="none" stroke="black" stroke-dasharray="1,5" d="M472.74,-1341.18C472.694,-1384.47 479.315,-1495.05 544.974,-1544.33 587.228,-1576.04 979.592,-1587.96 1020.33,-1554.33 1087.38,-1498.97 1104.19,-1214.68 1107.89,-1123.51"/>
<polygon fill="black" stroke="black" points="1111.39,-1123.5 1108.28,-1113.37 1104.4,-1123.23 1111.39,-1123.5"/>
</g>
<!-- Core_Functions -->
<g id="node19" class="node"><title>Core_Functions</title>
<ellipse fill="none" stroke="black" cx="689.282" cy="-1467.33" rx="45.4919" ry="18"/>
<text text-anchor="middle" x="689.282" y="-1463.63" font-family="Times,serif" font-size="14.00">Functions</text>
</g>
<!-- Core_App&#45;&gt;Core_Functions -->
<g id="edge21" class="edge"><title>Core_App&#45;&gt;Core_Functions</title>
<path fill="none" stroke="black" stroke-dasharray="1,5" d="M478.475,-1338.35C487.839,-1362.74 509.774,-1410.71 544.974,-1435.33 570.743,-1453.35 604.95,-1461.44 633.482,-1464.97"/>
<polygon fill="black" stroke="black" points="633.392,-1468.48 643.711,-1466.08 634.146,-1461.53 633.392,-1468.48"/>
</g>
<!-- Core_Kernel&#45;&gt;Core_AutoLoader -->
<g id="edge1" class="edge"><title>Core_Kernel&#45;&gt;Core_AutoLoader</title>
<path fill="none" stroke="black" d="M729.637,-1336.1C761.615,-1335.72 805.825,-1340.6 833.589,-1366.33 878.825,-1408.24 827.894,-1454.89 869.589,-1500.33 875.796,-1507.09 883.83,-1512.16 892.315,-1515.97"/>
<polygon fill="black" stroke="black" points="891.046,-1519.23 901.633,-1519.62 893.598,-1512.71 891.046,-1519.23"/>
</g>
<!-- Core_Kernel&#45;&gt;Core_ExceptionManager -->
<g id="edge4" class="edge"><title>Core_Kernel&#45;&gt;Core_ExceptionManager</title>
<path fill="none" stroke="black" d="M727.169,-1335.26C765.784,-1331 827.317,-1324.2 874.979,-1318.94"/>
<polygon fill="black" stroke="black" points="875.37,-1322.42 884.925,-1317.85 874.602,-1315.46 875.37,-1322.42"/>
</g>
<!-- Core_Kernel&#45;&gt;Core_View -->
<g id="edge7" class="edge"><title>Core_Kernel&#45;&gt;Core_View</title>
<path fill="none" stroke="black" d="M720.072,-1332.56C752.188,-1323.82 802.829,-1305.61 833.589,-1272.33 864.521,-1238.87 837.199,-1208.38 869.589,-1176.33 879.938,-1166.09 894.464,-1159.7 907.936,-1155.73"/>
<polygon fill="black" stroke="black" points="909.141,-1159.03 917.946,-1153.14 907.388,-1152.26 909.141,-1159.03"/>
</g>
<!-- Core_Kernel&#45;&gt;Core_Configer -->
<g id="edge2" class="edge"><title>Core_Kernel&#45;&gt;Core_Configer</title>
<path fill="none" stroke="black" d="M715.88,-1331.1C746.016,-1320.61 796.632,-1300.41 833.589,-1272.33 853.165,-1257.46 849.371,-1244.32 869.589,-1230.33 879.462,-1223.5 891.262,-1218.19 902.523,-1214.15"/>
<polygon fill="black" stroke="black" points="903.833,-1217.4 912.217,-1210.92 901.624,-1210.76 903.833,-1217.4"/>
</g>
<!-- Core_Kernel&#45;&gt;Core_Logger -->
<g id="edge3" class="edge"><title>Core_Kernel&#45;&gt;Core_Logger</title>
<path fill="none" stroke="black" d="M730.577,-1342.18C760.079,-1345.38 800.559,-1352.14 833.589,-1366.33 851.723,-1374.12 852.146,-1383.1 869.589,-1392.33 881.372,-1398.57 894.91,-1403.96 907.179,-1408.24"/>
<polygon fill="black" stroke="black" points="906.094,-1411.57 916.688,-1411.44 908.325,-1404.94 906.094,-1411.57"/>
</g>
<!-- Core_Kernel&#45;&gt;Core_Route -->
<g id="edge5" class="edge"><title>Core_Kernel&#45;&gt;Core_Route</title>
<path fill="none" stroke="black" d="M716.002,-1331.02C761.939,-1316.17 858.089,-1285.09 909.615,-1268.43"/>
<polygon fill="black" stroke="black" points="910.858,-1271.71 919.297,-1265.3 908.705,-1265.05 910.858,-1271.71"/>
</g>
<!-- Core_Kernel&#45;&gt;Core_RuntimeState -->
<g id="edge6" class="edge"><title>Core_Kernel&#45;&gt;Core_RuntimeState</title>
<path fill="none" stroke="black" d="M733.098,-1337.38C764.053,-1338.17 805.246,-1344.01 833.589,-1366.33 864.221,-1390.45 841.011,-1419.81 869.589,-1446.33 875.465,-1451.78 882.527,-1456.15 889.929,-1459.65"/>
<polygon fill="black" stroke="black" points="888.847,-1462.99 899.422,-1463.63 891.553,-1456.54 888.847,-1462.99"/>
</g>
<!-- Core_Kernel&#45;&gt;Core_SuperGlobal -->
<g id="edge8" class="edge"><title>Core_Kernel&#45;&gt;Core_SuperGlobal</title>
<path fill="none" stroke="black" d="M727.986,-1343.19C771.539,-1347.66 843.445,-1355.03 892.211,-1360.03"/>
<polygon fill="black" stroke="black" points="891.942,-1363.52 902.247,-1361.05 892.656,-1356.55 891.942,-1363.52"/>
</g>
<!-- Core_SingletonEx -->
<g id="node4" class="node"><title>Core_SingletonEx</title>
<polygon fill="lightgrey" stroke="black" points="1300.44,-1366.33 1224.36,-1348.33 1300.44,-1330.33 1376.52,-1348.33 1300.44,-1366.33"/>
<polyline fill="none" stroke="black" points="1236.04,-1351.09 1236.04,-1345.57 "/>
<polyline fill="none" stroke="black" points="1288.76,-1333.09 1312.12,-1333.09 "/>
<polyline fill="none" stroke="black" points="1364.84,-1345.57 1364.84,-1351.09 "/>
<polyline fill="none" stroke="black" points="1312.12,-1363.57 1288.76,-1363.57 "/>
<text text-anchor="middle" x="1300.44" y="-1344.63" font-family="Times,serif" font-size="14.00">SingletonEx</text>
</g>
<!-- Core_ExceptionManager&#45;&gt;Core_ComponentBase -->
<g id="edge27" class="edge"><title>Core_ExceptionManager&#45;&gt;Core_ComponentBase</title>
<path fill="none" stroke="black" stroke-dasharray="1,5" d="M1005.32,-1294.84C1010.75,-1291.88 1015.87,-1288.41 1020.33,-1284.33 1068.67,-1240.14 1092.87,-1164.12 1102.92,-1123.26"/>
<polygon fill="black" stroke="black" points="1106.35,-1123.96 1105.23,-1113.43 1099.53,-1122.36 1106.35,-1123.96"/>
</g>
<!-- Core_View&#45;&gt;Core_ComponentBase -->
<g id="edge32" class="edge"><title>Core_View&#45;&gt;Core_ComponentBase</title>
<path fill="none" stroke="black" stroke-dasharray="1,5" d="M972.128,-1140.65C992.142,-1134.02 1020.59,-1124.59 1046.35,-1116.04"/>
<polygon fill="black" stroke="black" points="1047.68,-1119.29 1056.07,-1112.82 1045.48,-1112.65 1047.68,-1119.29"/>
</g>
<!-- Core_Configer&#45;&gt;Core_ComponentBase -->
<g id="edge28" class="edge"><title>Core_Configer&#45;&gt;Core_ComponentBase</title>
<path fill="none" stroke="black" stroke-dasharray="1,5" d="M977.592,-1194.88C991.293,-1190.47 1007.17,-1184.3 1020.33,-1176.33 1045.2,-1161.26 1069.27,-1138.54 1086.01,-1120.99"/>
<polygon fill="black" stroke="black" points="1088.89,-1123.03 1093.16,-1113.34 1083.78,-1118.25 1088.89,-1123.03"/>
</g>
<!-- Core_Logger&#45;&gt;Core_ComponentBase -->
<g id="edge33" class="edge"><title>Core_Logger&#45;&gt;Core_ComponentBase</title>
<path fill="none" stroke="black" stroke-dasharray="1,5" d="M973.009,-1415.67C988.801,-1412.18 1007.99,-1405.42 1020.33,-1392.33 1092.81,-1315.47 1106.17,-1181.8 1108.46,-1123.67"/>
<polygon fill="black" stroke="black" points="1111.97,-1123.52 1108.78,-1113.41 1104.97,-1123.3 1111.97,-1123.52"/>
</g>
<!-- Core_Route&#45;&gt;Core_ComponentBase -->
<g id="edge29" class="edge"><title>Core_Route&#45;&gt;Core_ComponentBase</title>
<path fill="none" stroke="black" stroke-dasharray="1,5" d="M975.319,-1251.33C989.97,-1247.24 1007.3,-1240.64 1020.33,-1230.33 1056.82,-1201.46 1083.2,-1153.25 1097.24,-1122.93"/>
<polygon fill="black" stroke="black" points="1100.46,-1124.32 1101.36,-1113.77 1094.07,-1121.45 1100.46,-1124.32"/>
</g>
<!-- Core_RuntimeState&#45;&gt;Core_ComponentBase -->
<g id="edge31" class="edge"><title>Core_RuntimeState&#45;&gt;Core_ComponentBase</title>
<path fill="none" stroke="black" stroke-dasharray="1,5" d="M990.701,-1464.88C1001.68,-1460.88 1012.5,-1454.99 1020.33,-1446.33 1063.9,-1398.11 1094.84,-1198.69 1105.11,-1123.87"/>
<polygon fill="black" stroke="black" points="1108.61,-1124.14 1106.48,-1113.76 1101.67,-1123.2 1108.61,-1124.14"/>
</g>
<!-- Core_HttpServer -->
<g id="node13" class="node"><title>Core_HttpServer</title>
<polygon fill="lightgrey" stroke="black" points="944.96,-1113.33 875.248,-1095.33 944.96,-1077.33 1014.67,-1095.33 944.96,-1113.33"/>
<polyline fill="none" stroke="black" points="886.867,-1098.33 886.867,-1092.33 "/>
<polyline fill="none" stroke="black" points="933.341,-1080.33 956.579,-1080.33 "/>
<polyline fill="none" stroke="black" points="1003.05,-1092.33 1003.05,-1098.33 "/>
<polyline fill="none" stroke="black" points="956.579,-1110.33 933.341,-1110.33 "/>
<text text-anchor="middle" x="944.96" y="-1091.63" font-family="Times,serif" font-size="14.00">HttpServer</text>
</g>
<!-- Core_HttpServer&#45;&gt;Core_ComponentBase -->
<g id="edge34" class="edge"><title>Core_HttpServer&#45;&gt;Core_ComponentBase</title>
<path fill="none" stroke="black" stroke-dasharray="1,5" d="M1015.03,-1095.33C1025.2,-1095.33 1035.63,-1095.33 1045.67,-1095.33"/>
<polygon fill="black" stroke="black" points="1045.96,-1098.83 1055.96,-1095.33 1045.96,-1091.83 1045.96,-1098.83"/>
</g>
<!-- Core_SuperGlobal&#45;&gt;Core_ComponentBase -->
<g id="edge30" class="edge"><title>Core_SuperGlobal&#45;&gt;Core_ComponentBase</title>
<path fill="none" stroke="black" stroke-dasharray="1,5" d="M987.799,-1357.15C999.534,-1353.13 1011.49,-1347.16 1020.33,-1338.33 1080.55,-1278.17 1100.11,-1173.84 1106.21,-1123.76"/>
<polygon fill="black" stroke="black" points="1109.71,-1123.98 1107.35,-1113.65 1102.75,-1123.2 1109.71,-1123.98"/>
</g>
<!-- Core_ComponentInterface -->
<g id="node17" class="node"><title>Core_ComponentInterface</title>
<polygon fill="none" stroke="black" points="1358.44,-1113.33 1236.44,-1113.33 1236.44,-1077.33 1364.44,-1077.33 1364.44,-1107.33 1358.44,-1113.33"/>
<polyline fill="none" stroke="black" points="1358.44,-1113.33 1358.44,-1107.33 "/>
<polyline fill="none" stroke="black" points="1364.44,-1107.33 1358.44,-1107.33 "/>
<text text-anchor="middle" x="1300.44" y="-1091.63" font-family="Times,serif" font-size="14.00">ComponentInterface</text>
</g>
<!-- Core_ComponentBase&#45;&gt;Core_SingletonEx -->
<g id="edge36" class="edge"><title>Core_ComponentBase&#45;&gt;Core_SingletonEx</title>
<path fill="none" stroke="black" d="M1124.4,-1113.52C1157.86,-1158.42 1244.36,-1274.44 1281.77,-1324.62"/>
<polygon fill="black" stroke="black" points="1279.17,-1326.99 1287.95,-1332.92 1284.78,-1322.81 1279.17,-1326.99"/>
</g>
<!-- Core_ComponentBase&#45;&gt;Core_ComponentInterface -->
<g id="edge35" class="edge"><title>Core_ComponentBase&#45;&gt;Core_ComponentInterface</title>
<path fill="none" stroke="black" d="M1163.37,-1095.33C1182.76,-1095.33 1205.1,-1095.33 1226,-1095.33"/>
<polygon fill="black" stroke="black" points="1226.13,-1098.83 1236.13,-1095.33 1226.13,-1091.83 1226.13,-1098.83"/>
</g>
<!-- AppHelper -->
<g id="node20" class="node"><title>AppHelper</title>
<polygon fill="lightgrey" stroke="black" points="116.188,-1429.33 45.6372,-1411.33 116.188,-1393.33 186.739,-1411.33 116.188,-1429.33"/>
<polyline fill="none" stroke="black" points="57.2647,-1414.3 57.2647,-1408.36 "/>
<polyline fill="none" stroke="black" points="104.561,-1396.3 127.816,-1396.3 "/>
<polyline fill="none" stroke="black" points="175.112,-1408.36 175.112,-1414.3 "/>
<polyline fill="none" stroke="black" points="127.816,-1426.36 104.561,-1426.36 "/>
<text text-anchor="middle" x="116.188" y="-1407.63" font-family="Times,serif" font-size="14.00">AppHelper</text>
</g>
<!-- AppHelper&#45;&gt;Core_App -->
<g id="edge37" class="edge"><title>AppHelper&#45;&gt;Core_App</title>
<path fill="none" stroke="black" d="M162.191,-1405.03C219.895,-1396.27 322.632,-1378.38 407.441,-1351.33 419.825,-1347.38 433.054,-1341.81 444.233,-1336.68"/>
<polygon fill="black" stroke="black" points="445.904,-1339.76 453.458,-1332.33 442.92,-1333.42 445.904,-1339.76"/>
</g>
<!-- HelperTrait -->
<g id="node25" class="node"><title>HelperTrait</title>
<polygon fill="none" stroke="black" points="325.909,-1219.33 252.344,-1201.33 325.909,-1183.33 399.474,-1201.33 325.909,-1219.33"/>
<text text-anchor="middle" x="325.909" y="-1197.63" font-family="Times,serif" font-size="14.00">HelperTrait</text>
</g>
<!-- AppHelper&#45;&gt;HelperTrait -->
<g id="edge46" class="edge"><title>AppHelper&#45;&gt;HelperTrait</title>
<path fill="none" stroke="black" d="M165.453,-1405.86C182.836,-1402.01 201.75,-1395.46 216.376,-1384.33 270.182,-1343.37 302.535,-1267.41 316.602,-1227.45"/>
<polygon fill="black" stroke="black" points="319.95,-1228.48 319.862,-1217.88 313.324,-1226.22 319.95,-1228.48"/>
</g>
<!-- ControllerHelper -->
<g id="node21" class="node"><title>ControllerHelper</title>
<polygon fill="lightgrey" stroke="black" points="116.188,-1375.33 15.8115,-1357.33 116.188,-1339.33 216.565,-1357.33 116.188,-1375.33"/>
<polyline fill="none" stroke="black" points="27.6231,-1359.45 27.6231,-1355.21 "/>
<polyline fill="none" stroke="black" points="104.377,-1341.45 128,-1341.45 "/>
<polyline fill="none" stroke="black" points="204.753,-1355.21 204.753,-1359.45 "/>
<polyline fill="none" stroke="black" points="128,-1373.21 104.377,-1373.21 "/>
<text text-anchor="middle" x="116.188" y="-1353.63" font-family="Times,serif" font-size="14.00">ControllerHelper</text>
</g>
<!-- ControllerHelper&#45;&gt;Core_App -->
<g id="edge38" class="edge"><title>ControllerHelper&#45;&gt;Core_App</title>
<path fill="none" stroke="black" d="M182.121,-1351.09C254.808,-1344.11 370.328,-1333.02 430.989,-1327.19"/>
<polygon fill="black" stroke="black" points="431.681,-1330.64 441.301,-1326.2 431.012,-1323.67 431.681,-1330.64"/>
</g>
<!-- ControllerHelper&#45;&gt;HelperTrait -->
<g id="edge47" class="edge"><title>ControllerHelper&#45;&gt;HelperTrait</title>
<path fill="none" stroke="black" d="M170.631,-1349.04C186.202,-1345.01 202.691,-1339.07 216.376,-1330.33 258.438,-1303.45 292.625,-1255.14 310.762,-1225.87"/>
<polygon fill="black" stroke="black" points="313.893,-1227.46 316.076,-1217.09 307.904,-1223.83 313.893,-1227.46"/>
</g>
<!-- ModelHelper -->
<g id="node22" class="node"><title>ModelHelper</title>
<polygon fill="lightgrey" stroke="black" points="116.188,-1321.33 34.5777,-1303.33 116.188,-1285.33 197.799,-1303.33 116.188,-1321.33"/>
<polyline fill="none" stroke="black" points="46.296,-1305.91 46.296,-1300.74 "/>
<polyline fill="none" stroke="black" points="104.47,-1287.91 127.906,-1287.91 "/>
<polyline fill="none" stroke="black" points="186.08,-1300.74 186.08,-1305.91 "/>
<polyline fill="none" stroke="black" points="127.906,-1318.74 104.47,-1318.74 "/>
<text text-anchor="middle" x="116.188" y="-1299.63" font-family="Times,serif" font-size="14.00">ModelHelper</text>
</g>
<!-- ModelHelper&#45;&gt;Core_App -->
<g id="edge39" class="edge"><title>ModelHelper&#45;&gt;Core_App</title>
<path fill="none" stroke="black" d="M181.709,-1306.97C253.539,-1311.03 367.566,-1317.47 428.88,-1320.94"/>
<polygon fill="black" stroke="black" points="428.792,-1324.44 438.973,-1321.51 429.187,-1317.45 428.792,-1324.44"/>
</g>
<!-- ModelHelper&#45;&gt;HelperTrait -->
<g id="edge48" class="edge"><title>ModelHelper&#45;&gt;HelperTrait</title>
<path fill="none" stroke="black" d="M160.295,-1294.96C178.137,-1290.64 198.737,-1284.53 216.376,-1276.33 247.729,-1261.75 279.845,-1238.29 300.922,-1221.48"/>
<polygon fill="black" stroke="black" points="303.136,-1224.2 308.705,-1215.18 298.731,-1218.76 303.136,-1224.2"/>
</g>
<!-- ServiceHelper -->
<g id="node23" class="node"><title>ServiceHelper</title>
<polygon fill="lightgrey" stroke="black" points="116.188,-1267.33 29.8865,-1249.33 116.188,-1231.33 202.49,-1249.33 116.188,-1267.33"/>
<polyline fill="none" stroke="black" points="41.6337,-1251.78 41.6337,-1246.88 "/>
<polyline fill="none" stroke="black" points="104.441,-1233.78 127.935,-1233.78 "/>
<polyline fill="none" stroke="black" points="190.743,-1246.88 190.743,-1251.78 "/>
<polyline fill="none" stroke="black" points="127.935,-1264.88 104.441,-1264.88 "/>
<text text-anchor="middle" x="116.188" y="-1245.63" font-family="Times,serif" font-size="14.00">ServiceHelper</text>
</g>
<!-- ServiceHelper&#45;&gt;Core_App -->
<g id="edge40" class="edge"><title>ServiceHelper&#45;&gt;Core_App</title>
<path fill="none" stroke="black" d="M162.58,-1257.69C219.83,-1268.4 321.215,-1287.91 407.441,-1307.33 417.441,-1309.58 428.272,-1312.22 438.12,-1314.7"/>
<polygon fill="black" stroke="black" points="437.398,-1318.13 447.952,-1317.21 439.125,-1311.35 437.398,-1318.13"/>
</g>
<!-- ServiceHelper&#45;&gt;HelperTrait -->
<g id="edge49" class="edge"><title>ServiceHelper&#45;&gt;HelperTrait</title>
<path fill="none" stroke="black" d="M157.732,-1239.96C192.051,-1232.03 241.285,-1220.65 277.437,-1212.3"/>
<polygon fill="black" stroke="black" points="278.309,-1215.69 287.264,-1210.03 276.733,-1208.87 278.309,-1215.69"/>
</g>
<!-- ViewHelper -->
<g id="node24" class="node"><title>ViewHelper</title>
<polygon fill="lightgrey" stroke="black" points="116.188,-1213.33 40.1075,-1195.33 116.188,-1177.33 192.269,-1195.33 116.188,-1213.33"/>
<polyline fill="none" stroke="black" points="51.7851,-1198.09 51.7851,-1192.57 "/>
<polyline fill="none" stroke="black" points="104.511,-1180.09 127.866,-1180.09 "/>
<polyline fill="none" stroke="black" points="180.591,-1192.57 180.591,-1198.09 "/>
<polyline fill="none" stroke="black" points="127.866,-1210.57 104.511,-1210.57 "/>
<text text-anchor="middle" x="116.188" y="-1191.63" font-family="Times,serif" font-size="14.00">ViewHelper</text>
</g>
<!-- ViewHelper&#45;&gt;Core_App -->
<g id="edge41" class="edge"><title>ViewHelper&#45;&gt;Core_App</title>
<path fill="none" stroke="black" d="M153.378,-1204.59C229.912,-1224.21 401.673,-1268.4 407.441,-1271.33 423.997,-1279.74 440.182,-1293.02 452.104,-1304.05"/>
<polygon fill="black" stroke="black" points="449.981,-1306.86 459.628,-1311.24 454.817,-1301.8 449.981,-1306.86"/>
</g>
<!-- ViewHelper&#45;&gt;HelperTrait -->
<g id="edge50" class="edge"><title>ViewHelper&#45;&gt;HelperTrait</title>
<path fill="none" stroke="black" d="M184.342,-1197.27C205.217,-1197.87 228.362,-1198.54 249.746,-1199.16"/>
<polygon fill="black" stroke="black" points="249.66,-1202.66 259.757,-1199.45 249.862,-1195.66 249.66,-1202.66"/>
</g>
<!-- HelperTrait&#45;&gt;Core_App -->
<g id="edge43" class="edge"><title>HelperTrait&#45;&gt;Core_App</title>
<path fill="none" stroke="black" d="M362.515,-1210.56C377.43,-1215.62 394.314,-1223.01 407.441,-1233.33 430.339,-1251.33 448.539,-1279.72 459.539,-1299.79"/>
<polygon fill="black" stroke="black" points="456.584,-1301.69 464.35,-1308.89 462.773,-1298.42 456.584,-1301.69"/>
</g>
<!-- HelperTrait&#45;&gt;Core_SingletonEx -->
<g id="edge42" class="edge"><title>HelperTrait&#45;&gt;Core_SingletonEx</title>
<path fill="none" stroke="black" d="M331.558,-1218.11C348.727,-1276.72 414.433,-1473.7 544.974,-1565.33 598.092,-1602.61 623.385,-1593.33 688.282,-1593.33 688.282,-1593.33 688.282,-1593.33 945.96,-1593.33 1100.39,-1593.33 1236.02,-1433.41 1282.42,-1371.97"/>
<polygon fill="black" stroke="black" points="1285.45,-1373.77 1288.61,-1363.66 1279.83,-1369.59 1285.45,-1373.77"/>
</g>
<!-- HelperTrait&#45;&gt;Core_ExtendableStaticCallTrait -->
<g id="edge44" class="edge"><title>HelperTrait&#45;&gt;Core_ExtendableStaticCallTrait</title>
<path fill="none" stroke="black" d="M354.362,-1190.1C395.288,-1173.71 474.993,-1143.16 544.974,-1124.33 567.235,-1118.34 591.79,-1113.2 614.191,-1109.05"/>
<polygon fill="black" stroke="black" points="615.099,-1112.44 624.316,-1107.22 613.853,-1105.56 615.099,-1112.44"/>
</g>
<!-- HelperTrait&#45;&gt;Core_ThrowOn -->
<g id="edge45" class="edge"><title>HelperTrait&#45;&gt;Core_ThrowOn</title>
<path fill="none" stroke="black" d="M373.412,-1194.89C440.911,-1185.56 565.643,-1168.3 636.163,-1158.54"/>
<polygon fill="black" stroke="black" points="636.735,-1161.99 646.161,-1157.16 635.776,-1155.06 636.735,-1161.99"/>
</g>
<!-- DB_DB -->
<g id="node26" class="node"><title>DB_DB</title>
<ellipse fill="none" stroke="black" cx="1109.83" cy="-66.3292" rx="27" ry="18"/>
<text text-anchor="middle" x="1109.83" y="-62.6292" font-family="Times,serif" font-size="14.00">DB</text>
</g>
<!-- DB_DBAdvanceTrait -->
<g id="node27" class="node"><title>DB_DBAdvanceTrait</title>
<polygon fill="none" stroke="black" points="1300.44,-57.3292 1199.22,-39.3292 1300.44,-21.3292 1401.65,-39.3292 1300.44,-57.3292"/>
<text text-anchor="middle" x="1300.44" y="-35.6292" font-family="Times,serif" font-size="14.00">DBAdvanceTrait</text>
</g>
<!-- DB_DB&#45;&gt;DB_DBAdvanceTrait -->
<g id="edge51" class="edge"><title>DB_DB&#45;&gt;DB_DBAdvanceTrait</title>
<path fill="none" stroke="black" d="M1136.66,-62.6316C1161.53,-59.0715 1200.18,-53.5381 1233.58,-48.7567"/>
<polygon fill="black" stroke="black" points="1234.36,-52.1819 1243.76,-47.3 1233.36,-45.2525 1234.36,-52.1819"/>
</g>
<!-- DB_DBInterface -->
<g id="node28" class="node"><title>DB_DBInterface</title>
<polygon fill="none" stroke="black" points="1335.94,-111.329 1258.94,-111.329 1258.94,-75.3292 1341.94,-75.3292 1341.94,-105.329 1335.94,-111.329"/>
<polyline fill="none" stroke="black" points="1335.94,-111.329 1335.94,-105.329 "/>
<polyline fill="none" stroke="black" points="1341.94,-105.329 1335.94,-105.329 "/>
<text text-anchor="middle" x="1300.44" y="-89.6292" font-family="Times,serif" font-size="14.00">DBInterface</text>
</g>
<!-- DB_DB&#45;&gt;DB_DBInterface -->
<g id="edge52" class="edge"><title>DB_DB&#45;&gt;DB_DBInterface</title>
<path fill="none" stroke="black" d="M1136.66,-70.0268C1165.31,-74.1281 1212.25,-80.8481 1248.38,-86.0203"/>
<polygon fill="black" stroke="black" points="1248.34,-89.5503 1258.74,-87.5028 1249.34,-82.6209 1248.34,-89.5503"/>
</g>
<!-- CallableView -->
<g id="node29" class="node"><title>CallableView</title>
<polygon fill="none" stroke="black" points="734.782,-1002.33 643.782,-1002.33 643.782,-998.329 639.782,-998.329 639.782,-994.329 643.782,-994.329 643.782,-974.329 639.782,-974.329 639.782,-970.329 643.782,-970.329 643.782,-966.329 734.782,-966.329 734.782,-1002.33"/>
<polyline fill="none" stroke="black" points="643.782,-998.329 647.782,-998.329 647.782,-994.329 643.782,-994.329 "/>
<polyline fill="none" stroke="black" points="643.782,-974.329 647.782,-974.329 647.782,-970.329 643.782,-970.329 "/>
<text text-anchor="middle" x="689.282" y="-980.629" font-family="Times,serif" font-size="14.00">CallableView</text>
</g>
<!-- CallableView&#45;&gt;Core_View -->
<g id="edge54" class="edge"><title>CallableView&#45;&gt;Core_View</title>
<path fill="none" stroke="black" d="M734.695,-1002.45C765.045,-1016.41 804.822,-1037.93 833.589,-1065.33 855.288,-1085.99 846.251,-1103.54 869.589,-1122.33 880.673,-1131.25 894.965,-1137.38 908.053,-1141.5"/>
<polygon fill="black" stroke="black" points="907.177,-1144.89 917.755,-1144.28 909.106,-1138.16 907.177,-1144.89"/>
</g>
<!-- DBManager -->
<g id="node30" class="node"><title>DBManager</title>
<polygon fill="none" stroke="black" points="986.96,-84.3292 902.96,-84.3292 902.96,-80.3292 898.96,-80.3292 898.96,-76.3292 902.96,-76.3292 902.96,-56.3292 898.96,-56.3292 898.96,-52.3292 902.96,-52.3292 902.96,-48.3292 986.96,-48.3292 986.96,-84.3292"/>
<polyline fill="none" stroke="black" points="902.96,-80.3292 906.96,-80.3292 906.96,-76.3292 902.96,-76.3292 "/>
<polyline fill="none" stroke="black" points="902.96,-56.3292 906.96,-56.3292 906.96,-52.3292 902.96,-52.3292 "/>
<text text-anchor="middle" x="944.96" y="-62.6292" font-family="Times,serif" font-size="14.00">DBManager</text>
</g>
<!-- DBManager&#45;&gt;Core_ComponentBase -->
<g id="edge76" class="edge"><title>DBManager&#45;&gt;Core_ComponentBase</title>
<path fill="none" stroke="black" stroke-dasharray="1,5" d="M982.866,-84.3381C996.982,-93.1726 1011.74,-105.207 1020.33,-120.329 1068.3,-204.762 1101.15,-915.438 1107.65,-1066.98"/>
<polygon fill="black" stroke="black" points="1104.17,-1067.44 1108.09,-1077.29 1111.16,-1067.15 1104.17,-1067.44"/>
</g>
<!-- DBManager&#45;&gt;DB_DB -->
<g id="edge53" class="edge"><title>DBManager&#45;&gt;DB_DB</title>
<path fill="none" stroke="black" d="M987.06,-66.3292C1013.28,-66.3292 1046.97,-66.3292 1072.26,-66.3292"/>
<polygon fill="black" stroke="black" points="1072.54,-69.8293 1082.54,-66.3292 1072.54,-62.8293 1072.54,-69.8293"/>
</g>
<!-- DBReusePoolProxy -->
<g id="node31" class="node"><title>DBReusePoolProxy</title>
<polygon fill="none" stroke="black" points="751.782,-84.3292 626.782,-84.3292 626.782,-80.3292 622.782,-80.3292 622.782,-76.3292 626.782,-76.3292 626.782,-56.3292 622.782,-56.3292 622.782,-52.3292 626.782,-52.3292 626.782,-48.3292 751.782,-48.3292 751.782,-84.3292"/>
<polyline fill="none" stroke="black" points="626.782,-80.3292 630.782,-80.3292 630.782,-76.3292 626.782,-76.3292 "/>
<polyline fill="none" stroke="black" points="626.782,-56.3292 630.782,-56.3292 630.782,-52.3292 626.782,-52.3292 "/>
<text text-anchor="middle" x="689.282" y="-62.6292" font-family="Times,serif" font-size="14.00">DBReusePoolProxy</text>
</g>
<!-- DBReusePoolProxy&#45;&gt;DBManager -->
<g id="edge55" class="edge"><title>DBReusePoolProxy&#45;&gt;DBManager</title>
<path fill="none" stroke="black" d="M752.014,-66.3292C795.052,-66.3292 851.811,-66.3292 892.424,-66.3292"/>
<polygon fill="black" stroke="black" points="892.643,-69.8293 902.643,-66.3292 892.643,-62.8293 892.643,-69.8293"/>
</g>
<!-- EmptyView -->
<g id="node32" class="node"><title>EmptyView</title>
<polygon fill="none" stroke="black" points="730.782,-948.329 647.782,-948.329 647.782,-944.329 643.782,-944.329 643.782,-940.329 647.782,-940.329 647.782,-920.329 643.782,-920.329 643.782,-916.329 647.782,-916.329 647.782,-912.329 730.782,-912.329 730.782,-948.329"/>
<polyline fill="none" stroke="black" points="647.782,-944.329 651.782,-944.329 651.782,-940.329 647.782,-940.329 "/>
<polyline fill="none" stroke="black" points="647.782,-920.329 651.782,-920.329 651.782,-916.329 647.782,-916.329 "/>
<text text-anchor="middle" x="689.282" y="-926.629" font-family="Times,serif" font-size="14.00">EmptyView</text>
</g>
<!-- EmptyView&#45;&gt;Core_View -->
<g id="edge56" class="edge"><title>EmptyView&#45;&gt;Core_View</title>
<path fill="none" stroke="black" d="M730.931,-926.748C763.019,-926.272 806.718,-931.215 833.589,-957.329 887.417,-1009.64 820.171,-1065.83 869.589,-1122.33 879.341,-1133.48 894.072,-1140.02 907.858,-1143.87"/>
<polygon fill="black" stroke="black" points="907.104,-1147.29 917.644,-1146.22 908.737,-1140.48 907.104,-1147.29"/>
</g>
<!-- FacadesAutoLoader -->
<g id="node33" class="node"><title>FacadesAutoLoader</title>
<polygon fill="none" stroke="black" points="1007.46,-165.329 882.46,-165.329 882.46,-161.329 878.46,-161.329 878.46,-157.329 882.46,-157.329 882.46,-137.329 878.46,-137.329 878.46,-133.329 882.46,-133.329 882.46,-129.329 1007.46,-129.329 1007.46,-165.329"/>
<polyline fill="none" stroke="black" points="882.46,-161.329 886.46,-161.329 886.46,-157.329 882.46,-157.329 "/>
<polyline fill="none" stroke="black" points="882.46,-137.329 886.46,-137.329 886.46,-133.329 882.46,-133.329 "/>
<text text-anchor="middle" x="944.96" y="-143.629" font-family="Times,serif" font-size="14.00">FacadesAutoLoader</text>
</g>
<!-- FacadesAutoLoader&#45;&gt;Core_ComponentBase -->
<g id="edge63" class="edge"><title>FacadesAutoLoader&#45;&gt;Core_ComponentBase</title>
<path fill="none" stroke="black" stroke-dasharray="1,5" d="M982.805,-165.373C996.911,-174.213 1011.68,-186.242 1020.33,-201.329 1107.79,-353.816 1109.84,-930.899 1109.09,-1066.62"/>
<polygon fill="black" stroke="black" points="1105.59,-1066.98 1109.02,-1077 1112.59,-1067.03 1105.59,-1066.98"/>
</g>
<!-- FacadesBase -->
<g id="node34" class="node"><title>FacadesBase</title>
<ellipse fill="none" stroke="black" cx="689.282" cy="-120.329" rx="55.7903" ry="18"/>
<text text-anchor="middle" x="689.282" y="-116.629" font-family="Times,serif" font-size="14.00">FacadesBase</text>
</g>
<!-- FacadesBase&#45;&gt;FacadesAutoLoader -->
<g id="edge58" class="edge"><title>FacadesBase&#45;&gt;FacadesAutoLoader</title>
<path fill="none" stroke="black" d="M742.536,-125.891C780.055,-129.884 831.076,-135.314 872.379,-139.711"/>
<polygon fill="black" stroke="black" points="872.071,-143.197 882.385,-140.775 872.811,-136.237 872.071,-143.197"/>
</g>
<!-- JsonRpcClientBase -->
<g id="node35" class="node"><title>JsonRpcClientBase</title>
<ellipse fill="none" stroke="black" cx="689.282" cy="-282.329" rx="79.0865" ry="18"/>
<text text-anchor="middle" x="689.282" y="-278.629" font-family="Times,serif" font-size="14.00">JsonRpcClientBase</text>
</g>
<!-- JsonRpcExt -->
<g id="node36" class="node"><title>JsonRpcExt</title>
<polygon fill="none" stroke="black" points="985.46,-300.329 904.46,-300.329 904.46,-296.329 900.46,-296.329 900.46,-292.329 904.46,-292.329 904.46,-272.329 900.46,-272.329 900.46,-268.329 904.46,-268.329 904.46,-264.329 985.46,-264.329 985.46,-300.329"/>
<polyline fill="none" stroke="black" points="904.46,-296.329 908.46,-296.329 908.46,-292.329 904.46,-292.329 "/>
<polyline fill="none" stroke="black" points="904.46,-272.329 908.46,-272.329 908.46,-268.329 904.46,-268.329 "/>
<text text-anchor="middle" x="944.96" y="-278.629" font-family="Times,serif" font-size="14.00">JsonRpcExt</text>
</g>
<!-- JsonRpcClientBase&#45;&gt;JsonRpcExt -->
<g id="edge57" class="edge"><title>JsonRpcClientBase&#45;&gt;JsonRpcExt</title>
<path fill="none" stroke="black" d="M768.81,-282.329C809.734,-282.329 858.546,-282.329 894.233,-282.329"/>
<polygon fill="black" stroke="black" points="894.398,-285.829 904.398,-282.329 894.398,-278.829 894.398,-285.829"/>
</g>
<!-- JsonRpcExt&#45;&gt;Core_ComponentBase -->
<g id="edge64" class="edge"><title>JsonRpcExt&#45;&gt;Core_ComponentBase</title>
<path fill="none" stroke="black" stroke-dasharray="1,5" d="M985.682,-288.169C998.622,-292.06 1011.83,-298.54 1020.33,-309.329 1068.22,-370.113 1100.39,-933.252 1107.39,-1066.95"/>
<polygon fill="black" stroke="black" points="1103.91,-1067.38 1107.92,-1077.19 1110.9,-1067.02 1103.91,-1067.38"/>
</g>
<!-- Misc -->
<g id="node37" class="node"><title>Misc</title>
<polygon fill="none" stroke="black" points="716.282,-894.329 662.282,-894.329 662.282,-890.329 658.282,-890.329 658.282,-886.329 662.282,-886.329 662.282,-866.329 658.282,-866.329 658.282,-862.329 662.282,-862.329 662.282,-858.329 716.282,-858.329 716.282,-894.329"/>
<polyline fill="none" stroke="black" points="662.282,-890.329 666.282,-890.329 666.282,-886.329 662.282,-886.329 "/>
<polyline fill="none" stroke="black" points="662.282,-866.329 666.282,-866.329 666.282,-862.329 662.282,-862.329 "/>
<text text-anchor="middle" x="689.282" y="-872.629" font-family="Times,serif" font-size="14.00">Misc</text>
</g>
<!-- Misc&#45;&gt;Core_ComponentBase -->
<g id="edge66" class="edge"><title>Misc&#45;&gt;Core_ComponentBase</title>
<path fill="none" stroke="black" stroke-dasharray="1,5" d="M716.331,-877.936C745.794,-880.494 794.725,-887.005 833.589,-903.329 934.131,-945.56 1034.79,-1028.67 1081.64,-1070.31"/>
<polygon fill="black" stroke="black" points="1079.44,-1073.04 1089.23,-1077.11 1084.12,-1067.83 1079.44,-1073.04"/>
</g>
<!-- Pager -->
<g id="node38" class="node"><title>Pager</title>
<polygon fill="none" stroke="black" points="716.282,-408.329 662.282,-408.329 662.282,-404.329 658.282,-404.329 658.282,-400.329 662.282,-400.329 662.282,-380.329 658.282,-380.329 658.282,-376.329 662.282,-376.329 662.282,-372.329 716.282,-372.329 716.282,-408.329"/>
<polyline fill="none" stroke="black" points="662.282,-404.329 666.282,-404.329 666.282,-400.329 662.282,-400.329 "/>
<polyline fill="none" stroke="black" points="662.282,-380.329 666.282,-380.329 666.282,-376.329 662.282,-376.329 "/>
<text text-anchor="middle" x="689.282" y="-386.629" font-family="Times,serif" font-size="14.00">Pager</text>
</g>
<!-- Pager&#45;&gt;Core_ComponentBase -->
<g id="edge65" class="edge"><title>Pager&#45;&gt;Core_ComponentBase</title>
<path fill="none" stroke="black" stroke-dasharray="1,5" d="M716.52,-390.412C746.59,-391.564 796.492,-396.783 833.589,-417.329 854.225,-428.758 849.423,-444.091 869.589,-456.329 928.944,-492.351 974.233,-445.41 1020.33,-497.329 1096.71,-583.352 1107.17,-960.563 1108.61,-1067.17"/>
<polygon fill="black" stroke="black" points="1105.11,-1067.22 1108.72,-1077.18 1112.11,-1067.14 1105.11,-1067.22"/>
</g>
<!-- PagerInterface -->
<g id="node39" class="node"><title>PagerInterface</title>
<polygon fill="none" stroke="black" points="986.46,-408.329 897.46,-408.329 897.46,-372.329 992.46,-372.329 992.46,-402.329 986.46,-408.329"/>
<polyline fill="none" stroke="black" points="986.46,-408.329 986.46,-402.329 "/>
<polyline fill="none" stroke="black" points="992.46,-402.329 986.46,-402.329 "/>
<text text-anchor="middle" x="944.96" y="-386.629" font-family="Times,serif" font-size="14.00">PagerInterface</text>
</g>
<!-- Pager&#45;&gt;PagerInterface -->
<g id="edge59" class="edge"><title>Pager&#45;&gt;PagerInterface</title>
<path fill="none" stroke="black" d="M716.474,-390.329C756.469,-390.329 833.725,-390.329 887.028,-390.329"/>
<polygon fill="black" stroke="black" points="887.351,-393.829 897.351,-390.329 887.351,-386.829 887.351,-393.829"/>
</g>
<!-- PluginForSwooleHttpd -->
<g id="node40" class="node"><title>PluginForSwooleHttpd</title>
<polygon fill="none" stroke="black" points="760.282,-840.329 618.282,-840.329 618.282,-836.329 614.282,-836.329 614.282,-832.329 618.282,-832.329 618.282,-812.329 614.282,-812.329 614.282,-808.329 618.282,-808.329 618.282,-804.329 760.282,-804.329 760.282,-840.329"/>
<polyline fill="none" stroke="black" points="618.282,-836.329 622.282,-836.329 622.282,-832.329 618.282,-832.329 "/>
<polyline fill="none" stroke="black" points="618.282,-812.329 622.282,-812.329 622.282,-808.329 618.282,-808.329 "/>
<text text-anchor="middle" x="689.282" y="-818.629" font-family="Times,serif" font-size="14.00">PluginForSwooleHttpd</text>
</g>
<!-- PluginForSwooleHttpd&#45;&gt;Core_ComponentBase -->
<g id="edge69" class="edge"><title>PluginForSwooleHttpd&#45;&gt;Core_ComponentBase</title>
<path fill="none" stroke="black" stroke-dasharray="1,5" d="M760.295,-825.647C833.552,-832.678 947.792,-854.183 1020.33,-919.329 1065.45,-959.853 1090.53,-1028.68 1101.68,-1067.16"/>
<polygon fill="black" stroke="black" points="1098.41,-1068.46 1104.46,-1077.16 1105.15,-1066.59 1098.41,-1068.46"/>
</g>
<!-- RedisManager -->
<g id="node41" class="node"><title>RedisManager</title>
<polygon fill="none" stroke="black" points="992.96,-354.329 896.96,-354.329 896.96,-350.329 892.96,-350.329 892.96,-346.329 896.96,-346.329 896.96,-326.329 892.96,-326.329 892.96,-322.329 896.96,-322.329 896.96,-318.329 992.96,-318.329 992.96,-354.329"/>
<polyline fill="none" stroke="black" points="896.96,-350.329 900.96,-350.329 900.96,-346.329 896.96,-346.329 "/>
<polyline fill="none" stroke="black" points="896.96,-326.329 900.96,-326.329 900.96,-322.329 896.96,-322.329 "/>
<text text-anchor="middle" x="944.96" y="-332.629" font-family="Times,serif" font-size="14.00">RedisManager</text>
</g>
<!-- RedisManager&#45;&gt;Core_ComponentBase -->
<g id="edge68" class="edge"><title>RedisManager&#45;&gt;Core_ComponentBase</title>
<path fill="none" stroke="black" stroke-dasharray="1,5" d="M993.003,-344.718C1003.42,-348.716 1013.41,-354.618 1020.33,-363.329 1108.95,-474.852 1110.37,-945.688 1109.23,-1066.82"/>
<polygon fill="black" stroke="black" points="1105.73,-1067.08 1109.12,-1077.12 1112.73,-1067.16 1105.73,-1067.08"/>
</g>
<!-- RedisSimpleCache -->
<g id="node42" class="node"><title>RedisSimpleCache</title>
<polygon fill="none" stroke="black" points="749.282,-354.329 629.282,-354.329 629.282,-350.329 625.282,-350.329 625.282,-346.329 629.282,-346.329 629.282,-326.329 625.282,-326.329 625.282,-322.329 629.282,-322.329 629.282,-318.329 749.282,-318.329 749.282,-354.329"/>
<polyline fill="none" stroke="black" points="629.282,-350.329 633.282,-350.329 633.282,-346.329 629.282,-346.329 "/>
<polyline fill="none" stroke="black" points="629.282,-326.329 633.282,-326.329 633.282,-322.329 629.282,-322.329 "/>
<text text-anchor="middle" x="689.282" y="-332.629" font-family="Times,serif" font-size="14.00">RedisSimpleCache</text>
</g>
<!-- RedisSimpleCache&#45;&gt;Core_ComponentBase -->
<g id="edge67" class="edge"><title>RedisSimpleCache&#45;&gt;Core_ComponentBase</title>
<path fill="none" stroke="black" stroke-dasharray="1,5" d="M749.3,-337.109C776.829,-339.94 808.886,-346.984 833.589,-363.329 857.645,-379.245 846.08,-400.617 869.589,-417.329 925.993,-457.424 974.305,-404.652 1020.33,-456.329 1102.42,-548.498 1108.76,-955.636 1108.94,-1067.06"/>
<polygon fill="black" stroke="black" points="1105.44,-1067.18 1108.93,-1077.18 1112.44,-1067.18 1105.44,-1067.18"/>
</g>
<!-- RedisSimpleCache&#45;&gt;RedisManager -->
<g id="edge60" class="edge"><title>RedisSimpleCache&#45;&gt;RedisManager</title>
<path fill="none" stroke="black" d="M749.438,-336.329C790.738,-336.329 845.578,-336.329 886.501,-336.329"/>
<polygon fill="black" stroke="black" points="886.588,-339.829 896.588,-336.329 886.588,-332.829 886.588,-339.829"/>
</g>
<!-- RouteHookDirectoryMode -->
<g id="node43" class="node"><title>RouteHookDirectoryMode</title>
<polygon fill="none" stroke="black" points="770.782,-786.329 607.782,-786.329 607.782,-782.329 603.782,-782.329 603.782,-778.329 607.782,-778.329 607.782,-758.329 603.782,-758.329 603.782,-754.329 607.782,-754.329 607.782,-750.329 770.782,-750.329 770.782,-786.329"/>
<polyline fill="none" stroke="black" points="607.782,-782.329 611.782,-782.329 611.782,-778.329 607.782,-778.329 "/>
<polyline fill="none" stroke="black" points="607.782,-758.329 611.782,-758.329 611.782,-754.329 607.782,-754.329 "/>
<text text-anchor="middle" x="689.282" y="-764.629" font-family="Times,serif" font-size="14.00">RouteHookDirectoryMode</text>
</g>
<!-- RouteHookDirectoryMode&#45;&gt;Core_ComponentBase -->
<g id="edge71" class="edge"><title>RouteHookDirectoryMode&#45;&gt;Core_ComponentBase</title>
<path fill="none" stroke="black" stroke-dasharray="1,5" d="M771.066,-765.093C844.941,-766.57 952.708,-780.53 1020.33,-842.329 1086.23,-902.555 1103.06,-1014.61 1107.36,-1066.98"/>
<polygon fill="black" stroke="black" points="1103.89,-1067.49 1108.1,-1077.21 1110.87,-1066.98 1103.89,-1067.49"/>
</g>
<!-- RouteHookManager -->
<g id="node44" class="node"><title>RouteHookManager</title>
<polygon fill="none" stroke="black" points="753.282,-732.329 625.282,-732.329 625.282,-728.329 621.282,-728.329 621.282,-724.329 625.282,-724.329 625.282,-704.329 621.282,-704.329 621.282,-700.329 625.282,-700.329 625.282,-696.329 753.282,-696.329 753.282,-732.329"/>
<polyline fill="none" stroke="black" points="625.282,-728.329 629.282,-728.329 629.282,-724.329 625.282,-724.329 "/>
<polyline fill="none" stroke="black" points="625.282,-704.329 629.282,-704.329 629.282,-700.329 625.282,-700.329 "/>
<text text-anchor="middle" x="689.282" y="-710.629" font-family="Times,serif" font-size="14.00">RouteHookManager</text>
</g>
<!-- RouteHookManager&#45;&gt;Core_ComponentBase -->
<g id="edge72" class="edge"><title>RouteHookManager&#45;&gt;Core_ComponentBase</title>
<path fill="none" stroke="black" stroke-dasharray="1,5" d="M753.582,-717.539C838.248,-723.125 982.155,-737.565 1020.33,-772.329 1064.49,-812.544 1094.77,-996.251 1105.01,-1067.23"/>
<polygon fill="black" stroke="black" points="1101.56,-1067.82 1106.42,-1077.23 1108.49,-1066.84 1101.56,-1067.82"/>
</g>
<!-- RouteHookOneFileMode -->
<g id="node45" class="node"><title>RouteHookOneFileMode</title>
<polygon fill="none" stroke="black" points="766.782,-624.329 611.782,-624.329 611.782,-620.329 607.782,-620.329 607.782,-616.329 611.782,-616.329 611.782,-596.329 607.782,-596.329 607.782,-592.329 611.782,-592.329 611.782,-588.329 766.782,-588.329 766.782,-624.329"/>
<polyline fill="none" stroke="black" points="611.782,-620.329 615.782,-620.329 615.782,-616.329 611.782,-616.329 "/>
<polyline fill="none" stroke="black" points="611.782,-596.329 615.782,-596.329 615.782,-592.329 611.782,-592.329 "/>
<text text-anchor="middle" x="689.282" y="-602.629" font-family="Times,serif" font-size="14.00">RouteHookOneFileMode</text>
</g>
<!-- RouteHookOneFileMode&#45;&gt;Core_ComponentBase -->
<g id="edge73" class="edge"><title>RouteHookOneFileMode&#45;&gt;Core_ComponentBase</title>
<path fill="none" stroke="black" stroke-dasharray="1,5" d="M767.096,-612.892C853.315,-621.876 985.703,-641.066 1020.33,-676.329 1075.48,-732.485 1099.94,-982.343 1106.75,-1067.1"/>
<polygon fill="black" stroke="black" points="1103.28,-1067.57 1107.55,-1077.26 1110.26,-1067.02 1103.28,-1067.57"/>
</g>
<!-- RouteHookRewrite -->
<g id="node46" class="node"><title>RouteHookRewrite</title>
<polygon fill="none" stroke="black" points="750.282,-570.329 628.282,-570.329 628.282,-566.329 624.282,-566.329 624.282,-562.329 628.282,-562.329 628.282,-542.329 624.282,-542.329 624.282,-538.329 628.282,-538.329 628.282,-534.329 750.282,-534.329 750.282,-570.329"/>
<polyline fill="none" stroke="black" points="628.282,-566.329 632.282,-566.329 632.282,-562.329 628.282,-562.329 "/>
<polyline fill="none" stroke="black" points="628.282,-542.329 632.282,-542.329 632.282,-538.329 628.282,-538.329 "/>
<text text-anchor="middle" x="689.282" y="-548.629" font-family="Times,serif" font-size="14.00">RouteHookRewrite</text>
</g>
<!-- RouteHookRewrite&#45;&gt;Core_ComponentBase -->
<g id="edge74" class="edge"><title>RouteHookRewrite&#45;&gt;Core_ComponentBase</title>
<path fill="none" stroke="black" stroke-dasharray="1,5" d="M750.602,-561.567C840.674,-575.912 1001.79,-603.91 1020.33,-623.329 1082.03,-687.932 1102.45,-975.102 1107.46,-1066.97"/>
<polygon fill="black" stroke="black" points="1103.98,-1067.37 1108,-1077.17 1110.97,-1067 1103.98,-1067.37"/>
</g>
<!-- RouteHookRouteMap -->
<g id="node47" class="node"><title>RouteHookRouteMap</title>
<polygon fill="none" stroke="black" points="757.782,-678.329 620.782,-678.329 620.782,-674.329 616.782,-674.329 616.782,-670.329 620.782,-670.329 620.782,-650.329 616.782,-650.329 616.782,-646.329 620.782,-646.329 620.782,-642.329 757.782,-642.329 757.782,-678.329"/>
<polyline fill="none" stroke="black" points="620.782,-674.329 624.782,-674.329 624.782,-670.329 620.782,-670.329 "/>
<polyline fill="none" stroke="black" points="620.782,-650.329 624.782,-650.329 624.782,-646.329 620.782,-646.329 "/>
<text text-anchor="middle" x="689.282" y="-656.629" font-family="Times,serif" font-size="14.00">RouteHookRouteMap</text>
</g>
<!-- RouteHookRouteMap&#45;&gt;Core_ComponentBase -->
<g id="edge75" class="edge"><title>RouteHookRouteMap&#45;&gt;Core_ComponentBase</title>
<path fill="none" stroke="black" stroke-dasharray="1,5" d="M757.83,-665.099C843.249,-672.531 983.64,-689.866 1020.33,-725.329 1069.88,-773.224 1097.46,-988.902 1105.96,-1066.99"/>
<polygon fill="black" stroke="black" points="1102.49,-1067.49 1107.03,-1077.07 1109.45,-1066.75 1102.49,-1067.49"/>
</g>
<!-- StrictCheck -->
<g id="node48" class="node"><title>StrictCheck</title>
<polygon fill="none" stroke="black" points="984.96,-246.329 904.96,-246.329 904.96,-242.329 900.96,-242.329 900.96,-238.329 904.96,-238.329 904.96,-218.329 900.96,-218.329 900.96,-214.329 904.96,-214.329 904.96,-210.329 984.96,-210.329 984.96,-246.329"/>
<polyline fill="none" stroke="black" points="904.96,-242.329 908.96,-242.329 908.96,-238.329 904.96,-238.329 "/>
<polyline fill="none" stroke="black" points="904.96,-218.329 908.96,-218.329 908.96,-214.329 904.96,-214.329 "/>
<text text-anchor="middle" x="944.96" y="-224.629" font-family="Times,serif" font-size="14.00">StrictCheck</text>
</g>
<!-- StrictCheck&#45;&gt;Core_ComponentBase -->
<g id="edge70" class="edge"><title>StrictCheck&#45;&gt;Core_ComponentBase</title>
<path fill="none" stroke="black" stroke-dasharray="1,5" d="M985.337,-234.019C998.405,-237.893 1011.78,-244.401 1020.33,-255.329 1071.46,-320.697 1101.37,-927.265 1107.6,-1066.8"/>
<polygon fill="black" stroke="black" points="1104.12,-1067.26 1108.06,-1077.09 1111.11,-1066.95 1104.12,-1067.26"/>
</g>
<!-- StrictModelTrait -->
<g id="node49" class="node"><title>StrictModelTrait</title>
<polygon fill="none" stroke="black" points="689.282,-246.329 590.243,-228.329 689.282,-210.329 788.32,-228.329 689.282,-246.329"/>
<text text-anchor="middle" x="689.282" y="-224.629" font-family="Times,serif" font-size="14.00">StrictModelTrait</text>
</g>
<!-- StrictModelTrait&#45;&gt;StrictCheck -->
<g id="edge61" class="edge"><title>StrictModelTrait&#45;&gt;StrictCheck</title>
<path fill="none" stroke="black" d="M788.36,-228.329C824.654,-228.329 864.263,-228.329 894.436,-228.329"/>
<polygon fill="black" stroke="black" points="894.694,-231.829 904.694,-228.329 894.694,-224.829 894.694,-231.829"/>
</g>
<!-- StrictServiceTrait -->
<g id="node50" class="node"><title>StrictServiceTrait</title>
<polygon fill="none" stroke="black" points="689.282,-192.329 585.552,-174.329 689.282,-156.329 793.011,-174.329 689.282,-192.329"/>
<text text-anchor="middle" x="689.282" y="-170.629" font-family="Times,serif" font-size="14.00">StrictServiceTrait</text>
</g>
<!-- StrictServiceTrait&#45;&gt;StrictCheck -->
<g id="edge62" class="edge"><title>StrictServiceTrait&#45;&gt;StrictCheck</title>
<path fill="none" stroke="black" d="M741.486,-183.288C768.882,-188.254 803.153,-194.744 833.589,-201.329 853.692,-205.678 875.727,-210.963 894.787,-215.701"/>
<polygon fill="black" stroke="black" points="894.195,-219.161 904.746,-218.193 895.895,-212.37 894.195,-219.161"/>
</g>
<!-- EventManager -->
<g id="node51" class="node"><title>EventManager</title>
<polygon fill="none" stroke="black" points="737.782,-516.329 640.782,-516.329 640.782,-512.329 636.782,-512.329 636.782,-508.329 640.782,-508.329 640.782,-488.329 636.782,-488.329 636.782,-484.329 640.782,-484.329 640.782,-480.329 737.782,-480.329 737.782,-516.329"/>
<polyline fill="none" stroke="black" points="640.782,-512.329 644.782,-512.329 644.782,-508.329 640.782,-508.329 "/>
<polyline fill="none" stroke="black" points="640.782,-488.329 644.782,-488.329 644.782,-484.329 640.782,-484.329 "/>
<text text-anchor="middle" x="689.282" y="-494.629" font-family="Times,serif" font-size="14.00">EventManager</text>
</g>
<!-- EventManager&#45;&gt;Core_ComponentBase -->
<g id="edge77" class="edge"><title>EventManager&#45;&gt;Core_ComponentBase</title>
<path fill="none" stroke="black" stroke-dasharray="1,5" d="M738.008,-505.963C766.016,-510.78 802,-517.552 833.589,-525.329 849.835,-529.329 853.544,-531.59 869.589,-536.329 936.404,-556.065 973.799,-527.478 1020.33,-579.329 1085.95,-652.444 1103.85,-970.003 1107.84,-1067.05"/>
<polygon fill="black" stroke="black" points="1104.35,-1067.41 1108.24,-1077.26 1111.34,-1067.13 1104.35,-1067.41"/>
</g>
<!-- WrapperWithException -->
<g id="node52" class="node"><title>WrapperWithException</title>
<polygon fill="none" stroke="black" points="762.782,-462.329 615.782,-462.329 615.782,-458.329 611.782,-458.329 611.782,-454.329 615.782,-454.329 615.782,-434.329 611.782,-434.329 611.782,-430.329 615.782,-430.329 615.782,-426.329 762.782,-426.329 762.782,-462.329"/>
<polyline fill="none" stroke="black" points="615.782,-458.329 619.782,-458.329 619.782,-454.329 615.782,-454.329 "/>
<polyline fill="none" stroke="black" points="615.782,-434.329 619.782,-434.329 619.782,-430.329 615.782,-430.329 "/>
<text text-anchor="middle" x="689.282" y="-440.629" font-family="Times,serif" font-size="14.00">WrapperWithException</text>
</g>
<!-- WrapperWithException&#45;&gt;Core_ComponentBase -->
<g id="edge78" class="edge"><title>WrapperWithException&#45;&gt;Core_ComponentBase</title>
<path fill="none" stroke="black" stroke-dasharray="1,5" d="M762.811,-451.667C786.059,-455.667 811.492,-461.834 833.589,-471.329 851.723,-479.121 851.727,-488.935 869.589,-497.329 932.22,-526.763 973.806,-485.101 1020.33,-536.329 1092.27,-615.545 1105.86,-964.632 1108.31,-1067.01"/>
<polygon fill="black" stroke="black" points="1104.82,-1067.28 1108.54,-1077.2 1111.82,-1067.12 1104.82,-1067.28"/>
</g>
<!-- HttpServer -->
<g id="node53" class="node"><title>HttpServer</title>
<polygon fill="lightgrey" stroke="black" points="325.909,-703.329 256.197,-685.329 325.909,-667.329 395.621,-685.329 325.909,-703.329"/>
<polyline fill="none" stroke="black" points="267.816,-688.329 267.816,-682.329 "/>
<polyline fill="none" stroke="black" points="314.29,-670.329 337.528,-670.329 "/>
<polyline fill="none" stroke="black" points="384.002,-682.329 384.002,-688.329 "/>
<polyline fill="none" stroke="black" points="337.528,-700.329 314.29,-700.329 "/>
<text text-anchor="middle" x="325.909" y="-681.629" font-family="Times,serif" font-size="14.00">HttpServer</text>
</g>
<!-- HttpServer&#45;&gt;Core_HttpServer -->
<g id="edge79" class="edge"><title>HttpServer&#45;&gt;Core_HttpServer</title>
<path fill="none" stroke="black" d="M331.493,-701.932C348.447,-759.859 413.525,-953.999 544.974,-1037.33 599.496,-1071.89 769.947,-1059.52 833.589,-1070.33 855.462,-1074.05 879.513,-1079.35 899.566,-1084.11"/>
<polygon fill="black" stroke="black" points="898.815,-1087.53 909.357,-1086.47 900.455,-1080.73 898.815,-1087.53"/>
</g>
<!-- DuckPhp -->
<g id="node54" class="node"><title>DuckPhp</title>
<polygon fill="lightgrey" stroke="black" points="325.909,-649.329 264.242,-631.329 325.909,-613.329 387.576,-631.329 325.909,-649.329"/>
<polyline fill="none" stroke="black" points="275.761,-634.692 275.761,-627.967 "/>
<polyline fill="none" stroke="black" points="314.39,-616.692 337.428,-616.692 "/>
<polyline fill="none" stroke="black" points="376.057,-627.967 376.057,-634.692 "/>
<polyline fill="none" stroke="black" points="337.428,-645.967 314.39,-645.967 "/>
<text text-anchor="middle" x="325.909" y="-627.629" font-family="Times,serif" font-size="14.00">DuckPhp</text>
</g>
<!-- DuckPhp&#45;&gt;Core_App -->
<g id="edge80" class="edge"><title>DuckPhp&#45;&gt;Core_App</title>
<path fill="none" stroke="black" d="M370.377,-636.442C384.258,-640.272 398.359,-646.9 407.441,-658.329 447.718,-709.016 466.245,-1177.16 470.323,-1296"/>
<polygon fill="black" stroke="black" points="466.828,-1296.21 470.663,-1306.08 473.824,-1295.97 466.828,-1296.21"/>
</g>
<!-- DuckPhp&#45;&gt;DBManager -->
<g id="edge83" class="edge"><title>DuckPhp&#45;&gt;DBManager</title>
<path fill="none" stroke="black" d="M326.835,-613.59C327.567,-530.774 342.83,-180.291 544.974,-39.3292 650.59,34.3204 812.581,-12.9125 893.833,-44.5337"/>
<polygon fill="black" stroke="black" points="892.746,-47.868 903.332,-48.3034 895.328,-41.3616 892.746,-47.868"/>
</g>
<!-- DuckPhp&#45;&gt;Pager -->
<g id="edge82" class="edge"><title>DuckPhp&#45;&gt;Pager</title>
<path fill="none" stroke="black" d="M337.12,-616.395C365.137,-576.699 447.638,-468.14 544.974,-417.329 578.602,-399.775 621.958,-393.52 652.135,-391.351"/>
<polygon fill="black" stroke="black" points="652.45,-394.839 662.221,-390.743 652.029,-387.851 652.45,-394.839"/>
</g>
<!-- DuckPhp&#45;&gt;RouteHookOneFileMode -->
<g id="edge84" class="edge"><title>DuckPhp&#45;&gt;RouteHookOneFileMode</title>
<path fill="none" stroke="black" d="M376.021,-627.932C433.777,-623.936 530.705,-617.23 601.277,-612.348"/>
<polygon fill="black" stroke="black" points="601.756,-615.824 611.49,-611.642 601.272,-608.84 601.756,-615.824"/>
</g>
<!-- DuckPhp&#45;&gt;RouteHookRouteMap -->
<g id="edge81" class="edge"><title>DuckPhp&#45;&gt;RouteHookRouteMap</title>
<path fill="none" stroke="black" d="M374.524,-635.15C434.532,-639.966 538.481,-648.308 610.188,-654.062"/>
<polygon fill="black" stroke="black" points="610.277,-657.581 620.525,-654.892 610.837,-650.603 610.277,-657.581"/>
</g>
</g>
</svg>
