<?xml version="1.0" encoding="UTF-8" standalone="no"?>
<!DOCTYPE svg PUBLIC "-//W3C//DTD SVG 1.1//EN"
 "http://www.w3.org/Graphics/SVG/1.1/DTD/svg11.dtd">
<!-- Generated by graphviz version 2.38.0 (20140413.2041)
 -->
<!-- Title: gDuckPhp Pages: 1 -->
<svg width="1466pt" height="1884pt"
 viewBox="0.00 0.00 1465.61 1884.37" xmlns="http://www.w3.org/2000/svg" xmlns:xlink="http://www.w3.org/1999/xlink">
<g id="graph0" class="graph" transform="scale(1 1) rotate(0) translate(4 1880.37)">
<title>gDuckPhp</title>
<polygon fill="white" stroke="none" points="-4,4 -4,-1880.37 1461.61,-1880.37 1461.61,4 -4,4"/>
<g id="clust1" class="cluster"><title>cluster_SingletonEx</title>
<polygon fill="none" stroke="black" points="1281.03,-65.3713 1281.03,-140.371 1449.61,-140.371 1449.61,-65.3713 1281.03,-65.3713"/>
<text text-anchor="middle" x="1365.32" y="-125.171" font-family="Times,serif" font-size="14.00">[DuckPhp\SingletonEx]</text>
</g>
<g id="clust2" class="cluster"><title>cluster_Core</title>
<polygon fill="none" stroke="black" points="427.441,-1268.37 427.441,-1741.37 1437.32,-1741.37 1437.32,-1268.37 427.441,-1268.37"/>
<text text-anchor="middle" x="932.381" y="-1726.17" font-family="Times,serif" font-size="14.00">[DuckPhp\Core]</text>
</g>
<g id="clust3" class="cluster"><title>cluster_Helper</title>
<polygon fill="none" stroke="black" points="8,-1411.37 8,-1702.37 407.441,-1702.37 407.441,-1411.37 8,-1411.37"/>
<text text-anchor="middle" x="207.721" y="-1687.17" font-family="Times,serif" font-size="14.00">[DuckPhp\Helper]</text>
</g>
<g id="clust4" class="cluster"><title>cluster_Db</title>
<polygon fill="none" stroke="black" points="906.628,-130.371 906.628,-259.371 1261.03,-259.371 1261.03,-130.371 906.628,-130.371"/>
<text text-anchor="middle" x="1083.83" y="-244.171" font-family="Times,serif" font-size="14.00">[DuckPhp\Db]</text>
</g>
<g id="clust5" class="cluster"><title>cluster_Ext</title>
<polygon fill="none" stroke="black" points="549.842,-267.371 549.842,-1260.37 1015.46,-1260.37 1015.46,-267.371 549.842,-267.371"/>
<text text-anchor="middle" x="782.651" y="-1245.17" font-family="Times,serif" font-size="14.00">[DuckPhp\Ext]</text>
</g>
<g id="clust6" class="cluster"><title>cluster_DuckPhp</title>
<polygon fill="none" stroke="black" points="256.325,-753.371 256.325,-828.371 395.492,-828.371 395.492,-753.371 256.325,-753.371"/>
<text text-anchor="middle" x="325.909" y="-813.171" font-family="Times,serif" font-size="14.00">[DuckPhp]</text>
</g>
<g id="clust7" class="cluster"><title>cluster_HttpServer</title>
<polygon fill="none" stroke="black" points="38.3322,-1710.37 38.3322,-1785.37 194.044,-1785.37 194.044,-1710.37 38.3322,-1710.37"/>
<text text-anchor="middle" x="116.188" y="-1770.17" font-family="Times,serif" font-size="14.00">[DuckPhp\HttpServer]</text>
</g>
<g id="clust8" class="cluster"><title>cluster_ThrowOn</title>
<polygon fill="none" stroke="black" points="44.7663,-1793.37 44.7663,-1868.37 187.61,-1868.37 187.61,-1793.37 44.7663,-1793.37"/>
<text text-anchor="middle" x="116.188" y="-1853.17" font-family="Times,serif" font-size="14.00">[DuckPhp\ThrowOn]</text>
</g>
<!-- SingletonEx -->
<g id="node1" class="node"><title>SingletonEx</title>
<polygon fill="lightgrey" stroke="black" points="1365.32,-109.371 1289.24,-91.3713 1365.32,-73.3713 1441.4,-91.3713 1365.32,-109.371"/>
<polyline fill="none" stroke="black" points="1300.92,-94.1341 1300.92,-88.6085 "/>
<polyline fill="none" stroke="black" points="1353.64,-76.1341 1377,-76.1341 "/>
<polyline fill="none" stroke="black" points="1429.72,-88.6085 1429.72,-94.1341 "/>
<polyline fill="none" stroke="black" points="1377,-106.608 1353.64,-106.608 "/>
<text text-anchor="middle" x="1365.32" y="-87.6713" font-family="Times,serif" font-size="14.00">SingletonEx</text>
</g>
<!-- Core_AppPluginTrait -->
<g id="node2" class="node"><title>Core_AppPluginTrait</title>
<polygon fill="none" stroke="black" points="689.282,-1408.37 596.612,-1390.37 689.282,-1372.37 781.952,-1390.37 689.282,-1408.37"/>
<text text-anchor="middle" x="689.282" y="-1386.67" font-family="Times,serif" font-size="14.00">AppPluginTrait</text>
</g>
<!-- Core_View -->
<g id="node7" class="node"><title>Core_View</title>
<polygon fill="none" stroke="black" points="971.96,-1420.37 917.96,-1420.37 917.96,-1416.37 913.96,-1416.37 913.96,-1412.37 917.96,-1412.37 917.96,-1392.37 913.96,-1392.37 913.96,-1388.37 917.96,-1388.37 917.96,-1384.37 971.96,-1384.37 971.96,-1420.37"/>
<polyline fill="none" stroke="black" points="917.96,-1416.37 921.96,-1416.37 921.96,-1412.37 917.96,-1412.37 "/>
<polyline fill="none" stroke="black" points="917.96,-1392.37 921.96,-1392.37 921.96,-1388.37 917.96,-1388.37 "/>
<text text-anchor="middle" x="944.96" y="-1398.67" font-family="Times,serif" font-size="14.00">View</text>
</g>
<!-- Core_AppPluginTrait&#45;&gt;Core_View -->
<g id="edge23" class="edge"><title>Core_AppPluginTrait&#45;&gt;Core_View</title>
<path fill="none" stroke="black" d="M764.338,-1393.87C811.324,-1396.1 870.071,-1398.88 907.318,-1400.64"/>
<polygon fill="black" stroke="black" points="907.533,-1404.15 917.687,-1401.13 907.864,-1397.16 907.533,-1404.15"/>
</g>
<!-- Core_Configer -->
<g id="node8" class="node"><title>Core_Configer</title>
<polygon fill="none" stroke="black" points="977.46,-1474.37 912.46,-1474.37 912.46,-1470.37 908.46,-1470.37 908.46,-1466.37 912.46,-1466.37 912.46,-1446.37 908.46,-1446.37 908.46,-1442.37 912.46,-1442.37 912.46,-1438.37 977.46,-1438.37 977.46,-1474.37"/>
<polyline fill="none" stroke="black" points="912.46,-1470.37 916.46,-1470.37 916.46,-1466.37 912.46,-1466.37 "/>
<polyline fill="none" stroke="black" points="912.46,-1446.37 916.46,-1446.37 916.46,-1442.37 912.46,-1442.37 "/>
<text text-anchor="middle" x="944.96" y="-1452.67" font-family="Times,serif" font-size="14.00">Configer</text>
</g>
<!-- Core_AppPluginTrait&#45;&gt;Core_Configer -->
<g id="edge22" class="edge"><title>Core_AppPluginTrait&#45;&gt;Core_Configer</title>
<path fill="none" stroke="black" d="M729.641,-1400.61C776.544,-1412.81 854.563,-1433.11 902.411,-1445.56"/>
<polygon fill="black" stroke="black" points="901.582,-1448.96 912.141,-1448.09 903.345,-1442.19 901.582,-1448.96"/>
</g>
<!-- Core_Route -->
<g id="node10" class="node"><title>Core_Route</title>
<polygon fill="lightgrey" stroke="black" points="944.96,-1312.37 899.883,-1294.37 944.96,-1276.37 990.038,-1294.37 944.96,-1312.37"/>
<polyline fill="none" stroke="black" points="911.027,-1298.82 911.027,-1289.92 "/>
<polyline fill="none" stroke="black" points="933.816,-1280.82 956.105,-1280.82 "/>
<polyline fill="none" stroke="black" points="978.893,-1289.92 978.893,-1298.82 "/>
<polyline fill="none" stroke="black" points="956.105,-1307.92 933.816,-1307.92 "/>
<text text-anchor="middle" x="944.96" y="-1290.67" font-family="Times,serif" font-size="14.00">Route</text>
</g>
<!-- Core_AppPluginTrait&#45;&gt;Core_Route -->
<g id="edge24" class="edge"><title>Core_AppPluginTrait&#45;&gt;Core_Route</title>
<path fill="none" stroke="black" d="M729.529,-1380.16C758.866,-1371.9 799.598,-1359.07 833.589,-1343.37 850.612,-1335.51 852.692,-1329.5 869.589,-1321.37 882.189,-1315.31 896.527,-1309.8 909.229,-1305.36"/>
<polygon fill="black" stroke="black" points="910.658,-1308.57 919,-1302.04 908.406,-1301.94 910.658,-1308.57"/>
</g>
<!-- Core_SuperGlobal -->
<g id="node13" class="node"><title>Core_SuperGlobal</title>
<polygon fill="none" stroke="black" points="987.46,-1366.37 902.46,-1366.37 902.46,-1362.37 898.46,-1362.37 898.46,-1358.37 902.46,-1358.37 902.46,-1338.37 898.46,-1338.37 898.46,-1334.37 902.46,-1334.37 902.46,-1330.37 987.46,-1330.37 987.46,-1366.37"/>
<polyline fill="none" stroke="black" points="902.46,-1362.37 906.46,-1362.37 906.46,-1358.37 902.46,-1358.37 "/>
<polyline fill="none" stroke="black" points="902.46,-1338.37 906.46,-1338.37 906.46,-1334.37 902.46,-1334.37 "/>
<text text-anchor="middle" x="944.96" y="-1344.67" font-family="Times,serif" font-size="14.00">SuperGlobal</text>
</g>
<!-- Core_AppPluginTrait&#45;&gt;Core_SuperGlobal -->
<g id="edge25" class="edge"><title>Core_AppPluginTrait&#45;&gt;Core_SuperGlobal</title>
<path fill="none" stroke="black" d="M739.796,-1382.17C783.672,-1374.91 847.511,-1364.34 892.086,-1356.96"/>
<polygon fill="black" stroke="black" points="892.839,-1360.38 902.133,-1355.3 891.695,-1353.48 892.839,-1360.38"/>
</g>
<!-- Core_App -->
<g id="node3" class="node"><title>Core_App</title>
<polygon fill="lightgrey" stroke="black" points="472.208,-1539.37 435.674,-1521.37 472.208,-1503.37 508.742,-1521.37 472.208,-1539.37"/>
<polyline fill="none" stroke="black" points="446.438,-1526.67 446.438,-1516.07 "/>
<polyline fill="none" stroke="black" points="461.443,-1508.67 482.972,-1508.67 "/>
<polyline fill="none" stroke="black" points="497.977,-1516.07 497.977,-1526.67 "/>
<polyline fill="none" stroke="black" points="482.972,-1534.07 461.443,-1534.07 "/>
<text text-anchor="middle" x="472.208" y="-1517.67" font-family="Times,serif" font-size="14.00">App</text>
</g>
<!-- Core_Kernel -->
<g id="node4" class="node"><title>Core_Kernel</title>
<polygon fill="none" stroke="black" points="689.282,-1502.37 640.35,-1484.37 689.282,-1466.37 738.213,-1484.37 689.282,-1502.37"/>
<text text-anchor="middle" x="689.282" y="-1480.67" font-family="Times,serif" font-size="14.00">Kernel</text>
</g>
<!-- Core_App&#45;&gt;Core_Kernel -->
<g id="edge9" class="edge"><title>Core_App&#45;&gt;Core_Kernel</title>
<path fill="none" stroke="black" d="M499.58,-1516.83C535.926,-1510.58 601.845,-1499.24 645.349,-1491.76"/>
<polygon fill="black" stroke="black" points="646.091,-1495.18 655.353,-1490.04 644.905,-1488.28 646.091,-1495.18"/>
</g>
<!-- Core_AutoLoader -->
<g id="node5" class="node"><title>Core_AutoLoader</title>
<polygon fill="lightgrey" stroke="black" points="944.96,-1690.37 869.718,-1672.37 944.96,-1654.37 1020.2,-1672.37 944.96,-1690.37"/>
<polyline fill="none" stroke="black" points="881.389,-1675.16 881.389,-1669.58 "/>
<polyline fill="none" stroke="black" points="933.29,-1657.16 956.631,-1657.16 "/>
<polyline fill="none" stroke="black" points="1008.53,-1669.58 1008.53,-1675.16 "/>
<polyline fill="none" stroke="black" points="956.631,-1687.58 933.29,-1687.58 "/>
<text text-anchor="middle" x="944.96" y="-1668.67" font-family="Times,serif" font-size="14.00">AutoLoader</text>
</g>
<!-- Core_App&#45;&gt;Core_AutoLoader -->
<g id="edge12" class="edge"><title>Core_App&#45;&gt;Core_AutoLoader</title>
<path fill="none" stroke="black" stroke-dasharray="5,2" d="M478.61,-1536.23C488.034,-1559.75 509.888,-1604.97 544.974,-1625.37 600.63,-1657.73 769.857,-1641.29 833.589,-1650.37 854.085,-1653.29 876.522,-1657.56 895.782,-1661.57"/>
<polygon fill="black" stroke="black" points="895.322,-1665.05 905.829,-1663.69 896.769,-1658.2 895.322,-1665.05"/>
</g>
<!-- Core_ExceptionManager -->
<g id="node6" class="node"><title>Core_ExceptionManager</title>
<polygon fill="none" stroke="black" points="1004.96,-1528.37 884.96,-1528.37 884.96,-1524.37 880.96,-1524.37 880.96,-1520.37 884.96,-1520.37 884.96,-1500.37 880.96,-1500.37 880.96,-1496.37 884.96,-1496.37 884.96,-1492.37 1004.96,-1492.37 1004.96,-1528.37"/>
<polyline fill="none" stroke="black" points="884.96,-1524.37 888.96,-1524.37 888.96,-1520.37 884.96,-1520.37 "/>
<polyline fill="none" stroke="black" points="884.96,-1500.37 888.96,-1500.37 888.96,-1496.37 884.96,-1496.37 "/>
<text text-anchor="middle" x="944.96" y="-1506.67" font-family="Times,serif" font-size="14.00">ExceptionManager</text>
</g>
<!-- Core_App&#45;&gt;Core_ExceptionManager -->
<g id="edge15" class="edge"><title>Core_App&#45;&gt;Core_ExceptionManager</title>
<path fill="none" stroke="black" stroke-dasharray="5,2" d="M507.442,-1520.57C584.354,-1518.77 772.096,-1514.39 874.521,-1511.99"/>
<polygon fill="black" stroke="black" points="874.848,-1515.49 884.764,-1511.75 874.685,-1508.49 874.848,-1515.49"/>
</g>
<!-- Core_App&#45;&gt;Core_View -->
<g id="edge18" class="edge"><title>Core_App&#45;&gt;Core_View</title>
<path fill="none" stroke="black" stroke-dasharray="5,2" d="M480.748,-1507.37C491.927,-1488.2 514.859,-1454.44 544.974,-1439.37 602.497,-1410.59 769.625,-1424.15 833.589,-1417.37 858.378,-1414.74 886.188,-1410.96 907.69,-1407.85"/>
<polygon fill="black" stroke="black" points="908.311,-1411.3 917.699,-1406.38 907.297,-1404.37 908.311,-1411.3"/>
</g>
<!-- Core_App&#45;&gt;Core_Configer -->
<g id="edge13" class="edge"><title>Core_App&#45;&gt;Core_Configer</title>
<path fill="none" stroke="black" stroke-dasharray="5,2" d="M482.871,-1508.26C495.248,-1492.7 518.312,-1467.57 544.974,-1457.37 609.151,-1432.82 813.485,-1445.72 902.194,-1452.77"/>
<polygon fill="black" stroke="black" points="901.921,-1456.26 912.171,-1453.58 902.486,-1449.28 901.921,-1456.26"/>
</g>
<!-- Core_Logger -->
<g id="node9" class="node"><title>Core_Logger</title>
<polygon fill="none" stroke="black" points="972.96,-1582.37 916.96,-1582.37 916.96,-1578.37 912.96,-1578.37 912.96,-1574.37 916.96,-1574.37 916.96,-1554.37 912.96,-1554.37 912.96,-1550.37 916.96,-1550.37 916.96,-1546.37 972.96,-1546.37 972.96,-1582.37"/>
<polyline fill="none" stroke="black" points="916.96,-1578.37 920.96,-1578.37 920.96,-1574.37 916.96,-1574.37 "/>
<polyline fill="none" stroke="black" points="916.96,-1554.37 920.96,-1554.37 920.96,-1550.37 916.96,-1550.37 "/>
<text text-anchor="middle" x="944.96" y="-1560.67" font-family="Times,serif" font-size="14.00">Logger</text>
</g>
<!-- Core_App&#45;&gt;Core_Logger -->
<g id="edge14" class="edge"><title>Core_App&#45;&gt;Core_Logger</title>
<path fill="none" stroke="black" stroke-dasharray="5,2" d="M503.372,-1524.13C586.039,-1531.68 816.074,-1552.69 906.639,-1560.96"/>
<polygon fill="black" stroke="black" points="906.446,-1564.46 916.723,-1561.88 907.083,-1557.49 906.446,-1564.46"/>
</g>
<!-- Core_App&#45;&gt;Core_Route -->
<g id="edge16" class="edge"><title>Core_App&#45;&gt;Core_Route</title>
<path fill="none" stroke="black" stroke-dasharray="5,2" d="M475.762,-1504.83C483.635,-1456.26 509.175,-1315.77 544.974,-1289.37 600.605,-1248.35 811.954,-1274.32 902.442,-1287.77"/>
<polygon fill="black" stroke="black" points="901.94,-1291.23 912.35,-1289.26 902.984,-1284.31 901.94,-1291.23"/>
</g>
<!-- Core_RuntimeState -->
<g id="node11" class="node"><title>Core_RuntimeState</title>
<polygon fill="none" stroke="black" points="990.46,-1636.37 899.46,-1636.37 899.46,-1632.37 895.46,-1632.37 895.46,-1628.37 899.46,-1628.37 899.46,-1608.37 895.46,-1608.37 895.46,-1604.37 899.46,-1604.37 899.46,-1600.37 990.46,-1600.37 990.46,-1636.37"/>
<polyline fill="none" stroke="black" points="899.46,-1632.37 903.46,-1632.37 903.46,-1628.37 899.46,-1628.37 "/>
<polyline fill="none" stroke="black" points="899.46,-1608.37 903.46,-1608.37 903.46,-1604.37 899.46,-1604.37 "/>
<text text-anchor="middle" x="944.96" y="-1614.67" font-family="Times,serif" font-size="14.00">RuntimeState</text>
</g>
<!-- Core_App&#45;&gt;Core_RuntimeState -->
<g id="edge17" class="edge"><title>Core_App&#45;&gt;Core_RuntimeState</title>
<path fill="none" stroke="black" stroke-dasharray="5,2" d="M492.328,-1529.5C506.577,-1535.19 526.654,-1542.45 544.974,-1546.37 670.878,-1573.31 710.463,-1533.72 833.589,-1571.37 851.093,-1576.72 852.935,-1583.78 869.589,-1591.37 876.12,-1594.35 883.083,-1597.23 890.03,-1599.94"/>
<polygon fill="black" stroke="black" points="888.859,-1603.24 899.45,-1603.52 891.343,-1596.7 888.859,-1603.24"/>
</g>
<!-- Core_SystemWrapperTrait -->
<g id="node12" class="node"><title>Core_SystemWrapperTrait</title>
<polygon fill="none" stroke="black" points="689.282,-1616.37 568.962,-1598.37 689.282,-1580.37 809.601,-1598.37 689.282,-1616.37"/>
<text text-anchor="middle" x="689.282" y="-1594.67" font-family="Times,serif" font-size="14.00">SystemWrapperTrait</text>
</g>
<!-- Core_App&#45;&gt;Core_SystemWrapperTrait -->
<g id="edge11" class="edge"><title>Core_App&#45;&gt;Core_SystemWrapperTrait</title>
<path fill="none" stroke="black" d="M487.258,-1532.22C501.182,-1542.47 523.482,-1557.54 544.974,-1566.37 567.876,-1575.78 594.027,-1582.66 617.667,-1587.57"/>
<polygon fill="black" stroke="black" points="617.136,-1591.03 627.627,-1589.55 618.505,-1584.17 617.136,-1591.03"/>
</g>
<!-- Core_App&#45;&gt;Core_SuperGlobal -->
<g id="edge19" class="edge"><title>Core_App&#45;&gt;Core_SuperGlobal</title>
<path fill="none" stroke="black" stroke-dasharray="5,2" d="M475.143,-1504.57C480.003,-1471.03 496.065,-1396.19 544.974,-1363.37 573.111,-1344.49 791.035,-1345.7 892.409,-1347.33"/>
<polygon fill="black" stroke="black" points="892.372,-1350.83 902.429,-1347.49 892.489,-1343.83 892.372,-1350.83"/>
</g>
<!-- Core_ExtendableStaticCallTrait -->
<g id="node14" class="node"><title>Core_ExtendableStaticCallTrait</title>
<polygon fill="none" stroke="black" points="689.282,-1710.37 545.166,-1692.37 689.282,-1674.37 833.397,-1692.37 689.282,-1710.37"/>
<text text-anchor="middle" x="689.282" y="-1688.67" font-family="Times,serif" font-size="14.00">ExtendableStaticCallTrait</text>
</g>
<!-- Core_App&#45;&gt;Core_ExtendableStaticCallTrait -->
<g id="edge10" class="edge"><title>Core_App&#45;&gt;Core_ExtendableStaticCallTrait</title>
<path fill="none" stroke="black" d="M476.794,-1537.58C484.166,-1566.91 503.898,-1628.69 544.974,-1660.37 558.389,-1670.72 574.497,-1677.85 590.996,-1682.74"/>
<polygon fill="black" stroke="black" points="590.171,-1686.14 600.737,-1685.36 591.993,-1679.38 590.171,-1686.14"/>
</g>
<!-- Core_ComponentBase -->
<g id="node16" class="node"><title>Core_ComponentBase</title>
<polygon fill="none" stroke="black" points="1208.18,-1312.37 1105.18,-1312.37 1101.18,-1308.37 1101.18,-1276.37 1204.18,-1276.37 1208.18,-1280.37 1208.18,-1312.37"/>
<polyline fill="none" stroke="black" points="1204.18,-1308.37 1101.18,-1308.37 "/>
<polyline fill="none" stroke="black" points="1204.18,-1308.37 1204.18,-1276.37 "/>
<polyline fill="none" stroke="black" points="1204.18,-1308.37 1208.18,-1312.37 "/>
<text text-anchor="middle" x="1154.68" y="-1290.67" font-family="Times,serif" font-size="14.00">ComponentBase</text>
</g>
<!-- Core_App&#45;&gt;Core_ComponentBase -->
<g id="edge21" class="edge"><title>Core_App&#45;&gt;Core_ComponentBase</title>
<path fill="none" stroke="black" stroke-dasharray="1,5" d="M477.284,-1537.02C485.229,-1564.01 505.564,-1618.8 544.974,-1643.37 599.555,-1677.41 774.764,-1639.35 833.589,-1665.37 853.716,-1674.27 849.139,-1691.24 869.589,-1699.37 931.846,-1724.12 966.053,-1738.64 1020.33,-1699.37 1144.66,-1609.41 1155.07,-1399.57 1154.54,-1322.99"/>
<polygon fill="black" stroke="black" points="1158.03,-1322.64 1154.39,-1312.69 1151.03,-1322.74 1158.03,-1322.64"/>
</g>
<!-- Core_Functions -->
<g id="node17" class="node"><title>Core_Functions</title>
<ellipse fill="none" stroke="black" cx="689.282" cy="-1316.37" rx="45.4919" ry="18"/>
<text text-anchor="middle" x="689.282" y="-1312.67" font-family="Times,serif" font-size="14.00">Functions</text>
</g>
<!-- Core_App&#45;&gt;Core_Functions -->
<g id="edge20" class="edge"><title>Core_App&#45;&gt;Core_Functions</title>
<path fill="none" stroke="black" stroke-dasharray="5,2" d="M475.07,-1504.6C479.866,-1469.81 495.924,-1389.57 544.974,-1348.37 569.42,-1327.84 604.244,-1319.74 633.441,-1316.82"/>
<polygon fill="black" stroke="black" points="633.829,-1320.3 643.508,-1315.99 633.255,-1313.32 633.829,-1320.3"/>
</g>
<!-- Core_Kernel&#45;&gt;Core_AutoLoader -->
<g id="edge1" class="edge"><title>Core_Kernel&#45;&gt;Core_AutoLoader</title>
<path fill="none" stroke="black" d="M713.675,-1493.57C744.601,-1506.74 799.185,-1533.61 833.589,-1571.37 858.223,-1598.41 842.412,-1620.9 869.589,-1645.37 876.71,-1651.78 885.474,-1656.71 894.455,-1660.48"/>
<polygon fill="black" stroke="black" points="893.242,-1663.76 903.834,-1664 895.704,-1657.21 893.242,-1663.76"/>
</g>
<!-- Core_Kernel&#45;&gt;Core_ExceptionManager -->
<g id="edge4" class="edge"><title>Core_Kernel&#45;&gt;Core_ExceptionManager</title>
<path fill="none" stroke="black" d="M727.986,-1488.24C766.562,-1492.19 827.38,-1498.42 874.661,-1503.27"/>
<polygon fill="black" stroke="black" points="874.532,-1506.77 884.837,-1504.31 875.246,-1499.81 874.532,-1506.77"/>
</g>
<!-- Core_Kernel&#45;&gt;Core_View -->
<g id="edge7" class="edge"><title>Core_Kernel&#45;&gt;Core_View</title>
<path fill="none" stroke="black" d="M716.002,-1476.06C761.466,-1461.36 856.117,-1430.77 908.011,-1413.99"/>
<polygon fill="black" stroke="black" points="909.354,-1417.24 917.793,-1410.83 907.201,-1410.58 909.354,-1417.24"/>
</g>
<!-- Core_Kernel&#45;&gt;Core_Configer -->
<g id="edge2" class="edge"><title>Core_Kernel&#45;&gt;Core_Configer</title>
<path fill="none" stroke="black" d="M727.169,-1480.3C773.641,-1475.17 853.305,-1466.38 902.037,-1461"/>
<polygon fill="black" stroke="black" points="902.684,-1464.45 912.24,-1459.87 901.916,-1457.49 902.684,-1464.45"/>
</g>
<!-- Core_Kernel&#45;&gt;Core_Logger -->
<g id="edge3" class="edge"><title>Core_Kernel&#45;&gt;Core_Logger</title>
<path fill="none" stroke="black" d="M716.474,-1492.63C761.81,-1506.93 855.021,-1536.32 906.954,-1552.7"/>
<polygon fill="black" stroke="black" points="906.174,-1556.12 916.763,-1555.79 908.279,-1549.45 906.174,-1556.12"/>
</g>
<!-- Core_Kernel&#45;&gt;Core_Route -->
<g id="edge5" class="edge"><title>Core_Kernel&#45;&gt;Core_Route</title>
<path fill="none" stroke="black" d="M720.072,-1477.61C752.188,-1468.86 802.829,-1450.65 833.589,-1417.37 864.521,-1383.91 837.199,-1353.42 869.589,-1321.37 878.591,-1312.46 890.753,-1306.47 902.633,-1302.45"/>
<polygon fill="black" stroke="black" points="903.889,-1305.73 912.47,-1299.51 901.887,-1299.02 903.889,-1305.73"/>
</g>
<!-- Core_Kernel&#45;&gt;Core_RuntimeState -->
<g id="edge6" class="edge"><title>Core_Kernel&#45;&gt;Core_RuntimeState</title>
<path fill="none" stroke="black" d="M713.585,-1493.47C742.993,-1505.51 794.456,-1528.52 833.589,-1556.37 851.772,-1569.31 850.68,-1579.52 869.589,-1591.37 875.831,-1595.28 882.721,-1598.74 889.714,-1601.76"/>
<polygon fill="black" stroke="black" points="888.679,-1605.12 899.263,-1605.62 891.299,-1598.63 888.679,-1605.12"/>
</g>
<!-- Core_Kernel&#45;&gt;Core_SuperGlobal -->
<g id="edge8" class="edge"><title>Core_Kernel&#45;&gt;Core_SuperGlobal</title>
<path fill="none" stroke="black" d="M715.88,-1476.15C746.016,-1465.66 796.632,-1445.45 833.589,-1417.37 853.165,-1402.5 849.371,-1389.36 869.589,-1375.37 876.653,-1370.48 884.703,-1366.37 892.837,-1362.95"/>
<polygon fill="black" stroke="black" points="894.316,-1366.13 902.369,-1359.25 891.78,-1359.61 894.316,-1366.13"/>
</g>
<!-- Core_ExceptionManager&#45;&gt;Core_ComponentBase -->
<g id="edge26" class="edge"><title>Core_ExceptionManager&#45;&gt;Core_ComponentBase</title>
<path fill="none" stroke="black" stroke-dasharray="1,5" d="M1004.99,-1492.85C1010.42,-1490.1 1015.64,-1486.96 1020.33,-1483.37 1078.39,-1439.03 1121.27,-1362.27 1141.23,-1321.55"/>
<polygon fill="black" stroke="black" points="1144.41,-1323.02 1145.58,-1312.49 1138.1,-1319.99 1144.41,-1323.02"/>
</g>
<!-- Core_View&#45;&gt;Core_ComponentBase -->
<g id="edge31" class="edge"><title>Core_View&#45;&gt;Core_ComponentBase</title>
<path fill="none" stroke="black" stroke-dasharray="1,5" d="M972.29,-1394.23C986.754,-1389.41 1004.85,-1382.79 1020.33,-1375.37 1055.22,-1358.64 1092.7,-1335.36 1119.01,-1318.05"/>
<polygon fill="black" stroke="black" points="1121.08,-1320.87 1127.48,-1312.43 1117.21,-1315.04 1121.08,-1320.87"/>
</g>
<!-- Core_Configer&#45;&gt;Core_ComponentBase -->
<g id="edge27" class="edge"><title>Core_Configer&#45;&gt;Core_ComponentBase</title>
<path fill="none" stroke="black" stroke-dasharray="1,5" d="M977.786,-1448.23C991.524,-1443.88 1007.38,-1437.67 1020.33,-1429.37 1066.98,-1399.48 1109.89,-1350.59 1133.84,-1320.57"/>
<polygon fill="black" stroke="black" points="1136.65,-1322.66 1140.08,-1312.64 1131.15,-1318.34 1136.65,-1322.66"/>
</g>
<!-- Core_Logger&#45;&gt;Core_ComponentBase -->
<g id="edge32" class="edge"><title>Core_Logger&#45;&gt;Core_ComponentBase</title>
<path fill="none" stroke="black" stroke-dasharray="1,5" d="M973.133,-1559.45C988.388,-1555.56 1006.98,-1548.81 1020.33,-1537.37 1089.92,-1477.73 1129.77,-1372.34 1145.62,-1322.28"/>
<polygon fill="black" stroke="black" points="1149.04,-1323.06 1148.64,-1312.47 1142.35,-1321 1149.04,-1323.06"/>
</g>
<!-- Core_Route&#45;&gt;Core_ComponentBase -->
<g id="edge28" class="edge"><title>Core_Route&#45;&gt;Core_ComponentBase</title>
<path fill="none" stroke="black" stroke-dasharray="1,5" d="M990.013,-1294.37C1019.24,-1294.37 1058.06,-1294.37 1090.55,-1294.37"/>
<polygon fill="black" stroke="black" points="1090.86,-1297.87 1100.86,-1294.37 1090.86,-1290.87 1090.86,-1297.87"/>
</g>
<!-- Core_RuntimeState&#45;&gt;Core_ComponentBase -->
<g id="edge30" class="edge"><title>Core_RuntimeState&#45;&gt;Core_ComponentBase</title>
<path fill="none" stroke="black" stroke-dasharray="1,5" d="M990.503,-1608.68C1001.22,-1604.7 1011.98,-1599.13 1020.33,-1591.37 1101.81,-1515.69 1136.82,-1380.9 1148.65,-1322.57"/>
<polygon fill="black" stroke="black" points="1152.12,-1323.08 1150.6,-1312.6 1145.25,-1321.74 1152.12,-1323.08"/>
</g>
<!-- Core_SuperGlobal&#45;&gt;Core_ComponentBase -->
<g id="edge29" class="edge"><title>Core_SuperGlobal&#45;&gt;Core_ComponentBase</title>
<path fill="none" stroke="black" stroke-dasharray="1,5" d="M987.496,-1337.57C1017.24,-1329.84 1057.8,-1319.3 1091.4,-1310.56"/>
<polygon fill="black" stroke="black" points="1092.34,-1313.94 1101.13,-1308.03 1090.58,-1307.16 1092.34,-1313.94"/>
</g>
<!-- Core_ComponentInterface -->
<g id="node15" class="node"><title>Core_ComponentInterface</title>
<polygon fill="none" stroke="black" points="1423.32,-1312.37 1301.32,-1312.37 1301.32,-1276.37 1429.32,-1276.37 1429.32,-1306.37 1423.32,-1312.37"/>
<polyline fill="none" stroke="black" points="1423.32,-1312.37 1423.32,-1306.37 "/>
<polyline fill="none" stroke="black" points="1429.32,-1306.37 1423.32,-1306.37 "/>
<text text-anchor="middle" x="1365.32" y="-1290.67" font-family="Times,serif" font-size="14.00">ComponentInterface</text>
</g>
<!-- Core_ComponentBase&#45;&gt;SingletonEx -->
<g id="edge34" class="edge"><title>Core_ComponentBase&#45;&gt;SingletonEx</title>
<path fill="none" stroke="black" d="M1158.87,-1275.96C1182.58,-1139.27 1331.02,-283.373 1359.57,-118.746"/>
<polygon fill="black" stroke="black" points="1363.09,-118.961 1361.35,-108.51 1356.19,-117.765 1363.09,-118.961"/>
</g>
<!-- Core_ComponentBase&#45;&gt;Core_ComponentInterface -->
<g id="edge33" class="edge"><title>Core_ComponentBase&#45;&gt;Core_ComponentInterface</title>
<path fill="none" stroke="black" d="M1208.33,-1294.37C1233.38,-1294.37 1263.74,-1294.37 1291,-1294.37"/>
<polygon fill="black" stroke="black" points="1291.28,-1297.87 1301.28,-1294.37 1291.28,-1290.87 1291.28,-1297.87"/>
</g>
<!-- AppHelper -->
<g id="node18" class="node"><title>AppHelper</title>
<polygon fill="lightgrey" stroke="black" points="116.188,-1509.37 45.6372,-1491.37 116.188,-1473.37 186.739,-1491.37 116.188,-1509.37"/>
<polyline fill="none" stroke="black" points="57.2647,-1494.34 57.2647,-1488.4 "/>
<polyline fill="none" stroke="black" points="104.561,-1476.34 127.816,-1476.34 "/>
<polyline fill="none" stroke="black" points="175.112,-1488.4 175.112,-1494.34 "/>
<polyline fill="none" stroke="black" points="127.816,-1506.4 104.561,-1506.4 "/>
<text text-anchor="middle" x="116.188" y="-1487.67" font-family="Times,serif" font-size="14.00">AppHelper</text>
</g>
<!-- AppHelper&#45;&gt;Core_App -->
<g id="edge35" class="edge"><title>AppHelper&#45;&gt;Core_App</title>
<path fill="none" stroke="black" d="M169.425,-1495.8C240.481,-1501.82 366.114,-1512.47 430.571,-1517.93"/>
<polygon fill="black" stroke="black" points="430.487,-1521.43 440.747,-1518.79 431.078,-1514.46 430.487,-1521.43"/>
</g>
<!-- HelperTrait -->
<g id="node23" class="node"><title>HelperTrait</title>
<polygon fill="none" stroke="black" points="325.909,-1661.37 252.344,-1643.37 325.909,-1625.37 399.474,-1643.37 325.909,-1661.37"/>
<text text-anchor="middle" x="325.909" y="-1639.67" font-family="Times,serif" font-size="14.00">HelperTrait</text>
</g>
<!-- AppHelper&#45;&gt;HelperTrait -->
<g id="edge42" class="edge"><title>AppHelper&#45;&gt;HelperTrait</title>
<path fill="none" stroke="black" d="M161.945,-1497.73C179.85,-1501.71 200.054,-1508.12 216.376,-1518.37 257.664,-1544.3 291.891,-1590.76 310.284,-1619.15"/>
<polygon fill="black" stroke="black" points="307.382,-1621.1 315.689,-1627.68 313.296,-1617.36 307.382,-1621.1"/>
</g>
<!-- ControllerHelper -->
<g id="node19" class="node"><title>ControllerHelper</title>
<polygon fill="lightgrey" stroke="black" points="116.188,-1455.37 15.8115,-1437.37 116.188,-1419.37 216.565,-1437.37 116.188,-1455.37"/>
<polyline fill="none" stroke="black" points="27.6231,-1439.49 27.6231,-1435.25 "/>
<polyline fill="none" stroke="black" points="104.377,-1421.49 128,-1421.49 "/>
<polyline fill="none" stroke="black" points="204.753,-1435.25 204.753,-1439.49 "/>
<polyline fill="none" stroke="black" points="128,-1453.25 104.377,-1453.25 "/>
<text text-anchor="middle" x="116.188" y="-1433.67" font-family="Times,serif" font-size="14.00">ControllerHelper</text>
</g>
<!-- ControllerHelper&#45;&gt;Core_App -->
<g id="edge36" class="edge"><title>ControllerHelper&#45;&gt;Core_App</title>
<path fill="none" stroke="black" d="M166.354,-1446.42C224.388,-1457.47 323.61,-1477.54 407.441,-1500.37 418.435,-1503.37 430.331,-1507.14 440.837,-1510.65"/>
<polygon fill="black" stroke="black" points="439.815,-1514 450.409,-1513.91 442.071,-1507.37 439.815,-1514"/>
</g>
<!-- ControllerHelper&#45;&gt;HelperTrait -->
<g id="edge43" class="edge"><title>ControllerHelper&#45;&gt;HelperTrait</title>
<path fill="none" stroke="black" d="M174.099,-1445.06C188.903,-1449.06 204.118,-1455.13 216.376,-1464.37 269.131,-1504.12 301.685,-1577.66 316.13,-1616.97"/>
<polygon fill="black" stroke="black" points="312.92,-1618.39 319.57,-1626.64 319.516,-1616.04 312.92,-1618.39"/>
</g>
<!-- ModelHelper -->
<g id="node20" class="node"><title>ModelHelper</title>
<polygon fill="lightgrey" stroke="black" points="116.188,-1671.37 34.5777,-1653.37 116.188,-1635.37 197.799,-1653.37 116.188,-1671.37"/>
<polyline fill="none" stroke="black" points="46.296,-1655.96 46.296,-1650.79 "/>
<polyline fill="none" stroke="black" points="104.47,-1637.96 127.906,-1637.96 "/>
<polyline fill="none" stroke="black" points="186.08,-1650.79 186.08,-1655.96 "/>
<polyline fill="none" stroke="black" points="127.906,-1668.79 104.47,-1668.79 "/>
<text text-anchor="middle" x="116.188" y="-1649.67" font-family="Times,serif" font-size="14.00">ModelHelper</text>
</g>
<!-- ModelHelper&#45;&gt;Core_App -->
<g id="edge37" class="edge"><title>ModelHelper&#45;&gt;Core_App</title>
<path fill="none" stroke="black" d="M153.475,-1643.54C172.257,-1638.44 195.555,-1632.1 216.376,-1626.37 232.388,-1621.97 236.336,-1620.67 252.376,-1616.37 321.127,-1597.96 344.379,-1609.37 407.441,-1576.37 424.655,-1567.36 441.181,-1552.89 453.094,-1541.05"/>
<polygon fill="black" stroke="black" points="455.749,-1543.34 460.217,-1533.73 450.733,-1538.45 455.749,-1543.34"/>
</g>
<!-- ModelHelper&#45;&gt;HelperTrait -->
<g id="edge44" class="edge"><title>ModelHelper&#45;&gt;HelperTrait</title>
<path fill="none" stroke="black" d="M183.483,-1650.18C205.929,-1649.1 231.081,-1647.89 253.879,-1646.79"/>
<polygon fill="black" stroke="black" points="254.351,-1650.27 264.171,-1646.3 254.014,-1643.28 254.351,-1650.27"/>
</g>
<!-- ServiceHelper -->
<g id="node21" class="node"><title>ServiceHelper</title>
<polygon fill="lightgrey" stroke="black" points="116.188,-1617.37 29.8865,-1599.37 116.188,-1581.37 202.49,-1599.37 116.188,-1617.37"/>
<polyline fill="none" stroke="black" points="41.6337,-1601.82 41.6337,-1596.92 "/>
<polyline fill="none" stroke="black" points="104.441,-1583.82 127.935,-1583.82 "/>
<polyline fill="none" stroke="black" points="190.743,-1596.92 190.743,-1601.82 "/>
<polyline fill="none" stroke="black" points="127.935,-1614.92 104.441,-1614.92 "/>
<text text-anchor="middle" x="116.188" y="-1595.67" font-family="Times,serif" font-size="14.00">ServiceHelper</text>
</g>
<!-- ServiceHelper&#45;&gt;Core_App -->
<g id="edge38" class="edge"><title>ServiceHelper&#45;&gt;Core_App</title>
<path fill="none" stroke="black" d="M169.463,-1592.48C228.066,-1584.1 325.607,-1568.19 407.441,-1545.37 419.131,-1542.11 431.692,-1537.61 442.55,-1533.39"/>
<polygon fill="black" stroke="black" points="443.977,-1536.58 451.967,-1529.63 441.382,-1530.08 443.977,-1536.58"/>
</g>
<!-- ServiceHelper&#45;&gt;HelperTrait -->
<g id="edge45" class="edge"><title>ServiceHelper&#45;&gt;HelperTrait</title>
<path fill="none" stroke="black" d="M159.725,-1608.38C193.43,-1615.52 240.56,-1625.5 275.855,-1632.98"/>
<polygon fill="black" stroke="black" points="275.429,-1636.47 285.937,-1635.12 276.88,-1629.62 275.429,-1636.47"/>
</g>
<!-- ViewHelper -->
<g id="node22" class="node"><title>ViewHelper</title>
<polygon fill="lightgrey" stroke="black" points="116.188,-1563.37 40.1075,-1545.37 116.188,-1527.37 192.269,-1545.37 116.188,-1563.37"/>
<polyline fill="none" stroke="black" points="51.7851,-1548.13 51.7851,-1542.61 "/>
<polyline fill="none" stroke="black" points="104.511,-1530.13 127.866,-1530.13 "/>
<polyline fill="none" stroke="black" points="180.591,-1542.61 180.591,-1548.13 "/>
<polyline fill="none" stroke="black" points="127.866,-1560.61 104.511,-1560.61 "/>
<text text-anchor="middle" x="116.188" y="-1541.67" font-family="Times,serif" font-size="14.00">ViewHelper</text>
</g>
<!-- ViewHelper&#45;&gt;Core_App -->
<g id="edge39" class="edge"><title>ViewHelper&#45;&gt;Core_App</title>
<path fill="none" stroke="black" d="M175.647,-1541.41C247.122,-1536.56 366.325,-1528.48 429.288,-1524.21"/>
<polygon fill="black" stroke="black" points="429.89,-1527.68 439.63,-1523.51 429.417,-1520.7 429.89,-1527.68"/>
</g>
<!-- ViewHelper&#45;&gt;HelperTrait -->
<g id="edge46" class="edge"><title>ViewHelper&#45;&gt;HelperTrait</title>
<path fill="none" stroke="black" d="M158.243,-1553.49C176.502,-1557.87 197.983,-1564.1 216.376,-1572.37 246.879,-1586.09 278.523,-1607.79 299.715,-1623.59"/>
<polygon fill="black" stroke="black" points="297.764,-1626.5 307.849,-1629.75 301.99,-1620.92 297.764,-1626.5"/>
</g>
<!-- HelperTrait&#45;&gt;Core_App -->
<g id="edge40" class="edge"><title>HelperTrait&#45;&gt;Core_App</title>
<path fill="none" stroke="black" d="M362.515,-1634.14C377.43,-1629.08 394.314,-1621.69 407.441,-1611.37 430.339,-1593.37 448.539,-1564.98 459.539,-1544.91"/>
<polygon fill="black" stroke="black" points="462.773,-1546.29 464.35,-1535.81 456.584,-1543.01 462.773,-1546.29"/>
</g>
<!-- HelperTrait&#45;&gt;Core_ExtendableStaticCallTrait -->
<g id="edge41" class="edge"><title>HelperTrait&#45;&gt;Core_ExtendableStaticCallTrait</title>
<path fill="none" stroke="black" d="M373.782,-1649.73C433.516,-1657.83 537.642,-1671.95 609.626,-1681.71"/>
<polygon fill="black" stroke="black" points="609.183,-1685.18 619.562,-1683.05 610.123,-1678.24 609.183,-1685.18"/>
</g>
<!-- Db_Db -->
<g id="node24" class="node"><title>Db_Db</title>
<polygon fill="lightgrey" stroke="black" points="944.96,-228.371 914.795,-210.371 944.96,-192.371 975.126,-210.371 944.96,-228.371"/>
<polyline fill="none" stroke="black" points="924.85,-216.371 924.85,-204.371 "/>
<polyline fill="none" stroke="black" points="934.905,-198.371 955.015,-198.371 "/>
<polyline fill="none" stroke="black" points="965.071,-204.371 965.071,-216.371 "/>
<polyline fill="none" stroke="black" points="955.015,-222.371 934.905,-222.371 "/>
<text text-anchor="middle" x="944.96" y="-206.671" font-family="Times,serif" font-size="14.00">Db</text>
</g>
<!-- Db_DbAdvanceTrait -->
<g id="node25" class="node"><title>Db_DbAdvanceTrait</title>
<polygon fill="none" stroke="black" points="1154.68,-174.371 1056.48,-156.371 1154.68,-138.371 1252.88,-156.371 1154.68,-174.371"/>
<polyline fill="none" stroke="black" points="1068.28,-158.535 1068.28,-154.208 "/>
<polyline fill="none" stroke="black" points="1142.88,-140.535 1166.48,-140.535 "/>
<polyline fill="none" stroke="black" points="1241.08,-154.208 1241.08,-158.535 "/>
<polyline fill="none" stroke="black" points="1166.48,-172.208 1142.88,-172.208 "/>
<text text-anchor="middle" x="1154.68" y="-152.671" font-family="Times,serif" font-size="14.00">DbAdvanceTrait</text>
</g>
<!-- Db_Db&#45;&gt;Db_DbAdvanceTrait -->
<g id="edge47" class="edge"><title>Db_Db&#45;&gt;Db_DbAdvanceTrait</title>
<path fill="none" stroke="black" d="M966.637,-204.996C998.244,-196.779 1059.51,-180.852 1103.32,-169.464"/>
<polygon fill="black" stroke="black" points="1104.42,-172.795 1113.21,-166.891 1102.66,-166.02 1104.42,-172.795"/>
</g>
<!-- Db_DbInterface -->
<g id="node26" class="node"><title>Db_DbInterface</title>
<polygon fill="none" stroke="black" points="1189.18,-228.371 1114.18,-228.371 1114.18,-192.371 1195.18,-192.371 1195.18,-222.371 1189.18,-228.371"/>
<polyline fill="none" stroke="black" points="1189.18,-228.371 1189.18,-222.371 "/>
<polyline fill="none" stroke="black" points="1195.18,-222.371 1189.18,-222.371 "/>
<text text-anchor="middle" x="1154.68" y="-206.671" font-family="Times,serif" font-size="14.00">DbInterface</text>
</g>
<!-- Db_Db&#45;&gt;Db_DbInterface -->
<g id="edge48" class="edge"><title>Db_Db&#45;&gt;Db_DbInterface</title>
<path fill="none" stroke="black" d="M975.281,-210.371C1008.61,-210.371 1063.59,-210.371 1103.72,-210.371"/>
<polygon fill="black" stroke="black" points="1103.84,-213.871 1113.84,-210.371 1103.84,-206.871 1103.84,-213.871"/>
</g>
<!-- Cache -->
<g id="node27" class="node"><title>Cache</title>
<polygon fill="none" stroke="black" points="716.282,-419.371 662.282,-419.371 662.282,-415.371 658.282,-415.371 658.282,-411.371 662.282,-411.371 662.282,-391.371 658.282,-391.371 658.282,-387.371 662.282,-387.371 662.282,-383.371 716.282,-383.371 716.282,-419.371"/>
<polyline fill="none" stroke="black" points="662.282,-415.371 666.282,-415.371 666.282,-411.371 662.282,-411.371 "/>
<polyline fill="none" stroke="black" points="662.282,-391.371 666.282,-391.371 666.282,-387.371 662.282,-387.371 "/>
<text text-anchor="middle" x="689.282" y="-397.671" font-family="Times,serif" font-size="14.00">Cache</text>
</g>
<!-- Cache&#45;&gt;Core_ComponentBase -->
<g id="edge49" class="edge"><title>Cache&#45;&gt;Core_ComponentBase</title>
<path fill="none" stroke="black" stroke-dasharray="1,5" d="M716.73,-403.467C781.627,-410.189 948.652,-437.397 1020.33,-542.371 1103.71,-664.474 1143.02,-1144.55 1151.76,-1266.22"/>
<polygon fill="black" stroke="black" points="1148.27,-1266.51 1152.47,-1276.24 1155.26,-1266.02 1148.27,-1266.51"/>
</g>
<!-- CallableView -->
<g id="node28" class="node"><title>CallableView</title>
<polygon fill="none" stroke="black" points="734.782,-1229.37 643.782,-1229.37 643.782,-1225.37 639.782,-1225.37 639.782,-1221.37 643.782,-1221.37 643.782,-1201.37 639.782,-1201.37 639.782,-1197.37 643.782,-1197.37 643.782,-1193.37 734.782,-1193.37 734.782,-1229.37"/>
<polyline fill="none" stroke="black" points="643.782,-1225.37 647.782,-1225.37 647.782,-1221.37 643.782,-1221.37 "/>
<polyline fill="none" stroke="black" points="643.782,-1201.37 647.782,-1201.37 647.782,-1197.37 643.782,-1197.37 "/>
<text text-anchor="middle" x="689.282" y="-1207.67" font-family="Times,serif" font-size="14.00">CallableView</text>
</g>
<!-- CallableView&#45;&gt;Core_View -->
<g id="edge65" class="edge"><title>CallableView&#45;&gt;Core_View</title>
<path fill="none" stroke="black" d="M735.04,-1217.45C766.551,-1223.96 807.592,-1237.3 833.589,-1264.37 869.51,-1301.78 833.557,-1338.07 869.589,-1375.37 879.704,-1385.84 894.19,-1392.27 907.695,-1396.21"/>
<polygon fill="black" stroke="black" points="907.189,-1399.69 917.743,-1398.76 908.912,-1392.91 907.189,-1399.69"/>
</g>
<!-- DbManager -->
<g id="node29" class="node"><title>DbManager</title>
<polygon fill="none" stroke="black" points="730.282,-365.371 648.282,-365.371 648.282,-361.371 644.282,-361.371 644.282,-357.371 648.282,-357.371 648.282,-337.371 644.282,-337.371 644.282,-333.371 648.282,-333.371 648.282,-329.371 730.282,-329.371 730.282,-365.371"/>
<polyline fill="none" stroke="black" points="648.282,-361.371 652.282,-361.371 652.282,-357.371 648.282,-357.371 "/>
<polyline fill="none" stroke="black" points="648.282,-337.371 652.282,-337.371 652.282,-333.371 648.282,-333.371 "/>
<text text-anchor="middle" x="689.282" y="-343.671" font-family="Times,serif" font-size="14.00">DbManager</text>
</g>
<!-- DbManager&#45;&gt;Core_ComponentBase -->
<g id="edge50" class="edge"><title>DbManager&#45;&gt;Core_ComponentBase</title>
<path fill="none" stroke="black" stroke-dasharray="1,5" d="M730.51,-344.776C801.283,-342.65 947.45,-349.637 1020.33,-435.371 1130.5,-564.968 1150.04,-1132.34 1153.14,-1266.06"/>
<polygon fill="black" stroke="black" points="1149.65,-1266.37 1153.37,-1276.29 1156.65,-1266.22 1149.65,-1266.37"/>
</g>
<!-- DbManager&#45;&gt;Db_Db -->
<g id="edge67" class="edge"><title>DbManager&#45;&gt;Db_Db</title>
<path fill="none" stroke="black" d="M730.303,-348.195C760.994,-346.966 803.121,-341.075 833.589,-320.371 858.372,-303.531 849.002,-285.142 869.589,-263.371 884.433,-247.675 904.544,-233.673 920.111,-224.008"/>
<polygon fill="black" stroke="black" points="921.923,-227.002 928.677,-218.839 918.307,-221.009 921.923,-227.002"/>
</g>
<!-- EmptyView -->
<g id="node30" class="node"><title>EmptyView</title>
<polygon fill="none" stroke="black" points="730.782,-1175.37 647.782,-1175.37 647.782,-1171.37 643.782,-1171.37 643.782,-1167.37 647.782,-1167.37 647.782,-1147.37 643.782,-1147.37 643.782,-1143.37 647.782,-1143.37 647.782,-1139.37 730.782,-1139.37 730.782,-1175.37"/>
<polyline fill="none" stroke="black" points="647.782,-1171.37 651.782,-1171.37 651.782,-1167.37 647.782,-1167.37 "/>
<polyline fill="none" stroke="black" points="647.782,-1147.37 651.782,-1147.37 651.782,-1143.37 647.782,-1143.37 "/>
<text text-anchor="middle" x="689.282" y="-1153.67" font-family="Times,serif" font-size="14.00">EmptyView</text>
</g>
<!-- EmptyView&#45;&gt;Core_View -->
<g id="edge66" class="edge"><title>EmptyView&#45;&gt;Core_View</title>
<path fill="none" stroke="black" d="M730.805,-1153.59C763.04,-1152.96 807.004,-1157.79 833.589,-1184.37 894.674,-1245.45 813.648,-1309.55 869.589,-1375.37 879.253,-1386.74 894.107,-1393.32 908.006,-1397.13"/>
<polygon fill="black" stroke="black" points="907.336,-1400.57 917.871,-1399.45 908.934,-1393.76 907.336,-1400.57"/>
</g>
<!-- EventManager -->
<g id="node31" class="node"><title>EventManager</title>
<polygon fill="none" stroke="black" points="737.782,-527.371 640.782,-527.371 640.782,-523.371 636.782,-523.371 636.782,-519.371 640.782,-519.371 640.782,-499.371 636.782,-499.371 636.782,-495.371 640.782,-495.371 640.782,-491.371 737.782,-491.371 737.782,-527.371"/>
<polyline fill="none" stroke="black" points="640.782,-523.371 644.782,-523.371 644.782,-519.371 640.782,-519.371 "/>
<polyline fill="none" stroke="black" points="640.782,-499.371 644.782,-499.371 644.782,-495.371 640.782,-495.371 "/>
<text text-anchor="middle" x="689.282" y="-505.671" font-family="Times,serif" font-size="14.00">EventManager</text>
</g>
<!-- EventManager&#45;&gt;Core_ComponentBase -->
<g id="edge51" class="edge"><title>EventManager&#45;&gt;Core_ComponentBase</title>
<path fill="none" stroke="black" stroke-dasharray="1,5" d="M737.86,-513.711C812.096,-523.281 953.847,-553.384 1020.33,-646.371 1093.95,-749.339 1139.65,-1155.35 1150.93,-1266.25"/>
<polygon fill="black" stroke="black" points="1147.46,-1266.73 1151.95,-1276.33 1154.43,-1266.03 1147.46,-1266.73"/>
</g>
<!-- FacadesAutoLoader -->
<g id="node32" class="node"><title>FacadesAutoLoader</title>
<polygon fill="none" stroke="black" points="1007.46,-1175.37 882.46,-1175.37 882.46,-1171.37 878.46,-1171.37 878.46,-1167.37 882.46,-1167.37 882.46,-1147.37 878.46,-1147.37 878.46,-1143.37 882.46,-1143.37 882.46,-1139.37 1007.46,-1139.37 1007.46,-1175.37"/>
<polyline fill="none" stroke="black" points="882.46,-1171.37 886.46,-1171.37 886.46,-1167.37 882.46,-1167.37 "/>
<polyline fill="none" stroke="black" points="882.46,-1147.37 886.46,-1147.37 886.46,-1143.37 882.46,-1143.37 "/>
<text text-anchor="middle" x="944.96" y="-1153.67" font-family="Times,serif" font-size="14.00">FacadesAutoLoader</text>
</g>
<!-- FacadesAutoLoader&#45;&gt;Core_ComponentBase -->
<g id="edge52" class="edge"><title>FacadesAutoLoader&#45;&gt;Core_ComponentBase</title>
<path fill="none" stroke="black" stroke-dasharray="1,5" d="M1002.13,-1175.4C1008.41,-1178.11 1014.61,-1181.1 1020.33,-1184.37 1061.66,-1207.98 1102.96,-1244.55 1128.41,-1268.97"/>
<polygon fill="black" stroke="black" points="1126.16,-1271.67 1135.78,-1276.13 1131.04,-1266.65 1126.16,-1271.67"/>
</g>
<!-- FacadesBase -->
<g id="node33" class="node"><title>FacadesBase</title>
<ellipse fill="none" stroke="black" cx="689.282" cy="-617.371" rx="55.7903" ry="18"/>
<text text-anchor="middle" x="689.282" y="-613.671" font-family="Times,serif" font-size="14.00">FacadesBase</text>
</g>
<!-- FacadesBase&#45;&gt;SingletonEx -->
<g id="edge69" class="edge"><title>FacadesBase&#45;&gt;SingletonEx</title>
<path fill="none" stroke="black" stroke-dasharray="5,2" d="M743.58,-622.007C774.44,-621.555 811.447,-615.064 833.589,-590.371 902.635,-513.374 796.211,-199.252 869.589,-126.371 897.927,-98.2254 1145.07,-92.4929 1278.96,-91.4695"/>
<polygon fill="black" stroke="black" points="1279.21,-94.9679 1289.19,-91.3988 1279.16,-87.9681 1279.21,-94.9679"/>
</g>
<!-- FacadesBase&#45;&gt;FacadesAutoLoader -->
<g id="edge68" class="edge"><title>FacadesBase&#45;&gt;FacadesAutoLoader</title>
<path fill="none" stroke="black" d="M743.611,-612.708C774.482,-613.15 811.49,-619.64 833.589,-644.371 905.749,-725.124 804.202,-1044.04 869.589,-1130.37 871.005,-1132.24 872.561,-1133.98 874.235,-1135.6"/>
<polygon fill="black" stroke="black" points="872.232,-1138.48 882.24,-1141.95 876.585,-1132.99 872.232,-1138.48"/>
</g>
<!-- JsonRpcClientBase -->
<g id="node34" class="node"><title>JsonRpcClientBase</title>
<ellipse fill="none" stroke="black" cx="689.282" cy="-563.371" rx="79.0865" ry="18"/>
<text text-anchor="middle" x="689.282" y="-559.671" font-family="Times,serif" font-size="14.00">JsonRpcClientBase</text>
</g>
<!-- JsonRpcClientBase&#45;&gt;SingletonEx -->
<g id="edge71" class="edge"><title>JsonRpcClientBase&#45;&gt;SingletonEx</title>
<path fill="none" stroke="black" stroke-dasharray="5,2" d="M767.692,-566.281C792.094,-563.086 816.986,-554.808 833.589,-536.371 899.239,-463.47 797.783,-163.217 869.589,-96.3713 931.686,-38.5652 1192.52,-66.9922 1308.42,-82.9904"/>
<polygon fill="black" stroke="black" points="1308.12,-86.4824 1318.51,-84.4023 1309.09,-79.55 1308.12,-86.4824"/>
</g>
<!-- JsonRpcExt -->
<g id="node35" class="node"><title>JsonRpcExt</title>
<polygon fill="none" stroke="black" points="985.46,-1121.37 904.46,-1121.37 904.46,-1117.37 900.46,-1117.37 900.46,-1113.37 904.46,-1113.37 904.46,-1093.37 900.46,-1093.37 900.46,-1089.37 904.46,-1089.37 904.46,-1085.37 985.46,-1085.37 985.46,-1121.37"/>
<polyline fill="none" stroke="black" points="904.46,-1117.37 908.46,-1117.37 908.46,-1113.37 904.46,-1113.37 "/>
<polyline fill="none" stroke="black" points="904.46,-1093.37 908.46,-1093.37 908.46,-1089.37 904.46,-1089.37 "/>
<text text-anchor="middle" x="944.96" y="-1099.67" font-family="Times,serif" font-size="14.00">JsonRpcExt</text>
</g>
<!-- JsonRpcClientBase&#45;&gt;JsonRpcExt -->
<g id="edge70" class="edge"><title>JsonRpcClientBase&#45;&gt;JsonRpcExt</title>
<path fill="none" stroke="black" d="M767.773,-560.388C792.182,-563.577 817.057,-571.87 833.589,-590.371 905.749,-671.124 804.202,-990.044 869.589,-1076.37 875.937,-1084.75 885.137,-1090.54 894.917,-1094.52"/>
<polygon fill="black" stroke="black" points="893.801,-1097.84 904.396,-1097.83 896.104,-1091.23 893.801,-1097.84"/>
</g>
<!-- JsonRpcExt&#45;&gt;Core_ComponentBase -->
<g id="edge53" class="edge"><title>JsonRpcExt&#45;&gt;Core_ComponentBase</title>
<path fill="none" stroke="black" stroke-dasharray="1,5" d="M985.74,-1113.4C997.531,-1117.5 1010.03,-1123.05 1020.33,-1130.37 1072.9,-1167.76 1116.15,-1231.13 1138.09,-1267.17"/>
<polygon fill="black" stroke="black" points="1135.32,-1269.35 1143.46,-1276.14 1141.33,-1265.76 1135.32,-1269.35"/>
</g>
<!-- Misc -->
<g id="node36" class="node"><title>Misc</title>
<polygon fill="none" stroke="black" points="716.282,-311.371 662.282,-311.371 662.282,-307.371 658.282,-307.371 658.282,-303.371 662.282,-303.371 662.282,-283.371 658.282,-283.371 658.282,-279.371 662.282,-279.371 662.282,-275.371 716.282,-275.371 716.282,-311.371"/>
<polyline fill="none" stroke="black" points="662.282,-307.371 666.282,-307.371 666.282,-303.371 662.282,-303.371 "/>
<polyline fill="none" stroke="black" points="662.282,-283.371 666.282,-283.371 666.282,-279.371 662.282,-279.371 "/>
<text text-anchor="middle" x="689.282" y="-289.671" font-family="Times,serif" font-size="14.00">Misc</text>
</g>
<!-- Misc&#45;&gt;Core_ComponentBase -->
<g id="edge54" class="edge"><title>Misc&#45;&gt;Core_ComponentBase</title>
<path fill="none" stroke="black" stroke-dasharray="1,5" d="M716.317,-288.974C778.833,-280.054 938.306,-267.316 1020.33,-352.371 1150.52,-487.365 1154.67,-1124.08 1153.94,-1266.2"/>
<polygon fill="black" stroke="black" points="1150.44,-1266.26 1153.88,-1276.28 1157.44,-1266.3 1150.44,-1266.26"/>
</g>
<!-- Pager -->
<g id="node37" class="node"><title>Pager</title>
<polygon fill="none" stroke="black" points="716.282,-797.371 662.282,-797.371 662.282,-793.371 658.282,-793.371 658.282,-789.371 662.282,-789.371 662.282,-769.371 658.282,-769.371 658.282,-765.371 662.282,-765.371 662.282,-761.371 716.282,-761.371 716.282,-797.371"/>
<polyline fill="none" stroke="black" points="662.282,-793.371 666.282,-793.371 666.282,-789.371 662.282,-789.371 "/>
<polyline fill="none" stroke="black" points="662.282,-769.371 666.282,-769.371 666.282,-765.371 662.282,-765.371 "/>
<text text-anchor="middle" x="689.282" y="-775.671" font-family="Times,serif" font-size="14.00">Pager</text>
</g>
<!-- Pager&#45;&gt;Core_ComponentBase -->
<g id="edge55" class="edge"><title>Pager&#45;&gt;Core_ComponentBase</title>
<path fill="none" stroke="black" stroke-dasharray="1,5" d="M716.733,-773.153C778.101,-760.412 931.668,-738.463 1020.33,-813.371 1091.49,-873.488 1137.18,-1171.86 1149.99,-1265.92"/>
<polygon fill="black" stroke="black" points="1146.56,-1266.66 1151.36,-1276.1 1153.49,-1265.73 1146.56,-1266.66"/>
</g>
<!-- PagerInterface -->
<g id="node38" class="node"><title>PagerInterface</title>
<polygon fill="none" stroke="black" points="986.46,-1229.37 897.46,-1229.37 897.46,-1193.37 992.46,-1193.37 992.46,-1223.37 986.46,-1229.37"/>
<polyline fill="none" stroke="black" points="986.46,-1229.37 986.46,-1223.37 "/>
<polyline fill="none" stroke="black" points="992.46,-1223.37 986.46,-1223.37 "/>
<text text-anchor="middle" x="944.96" y="-1207.67" font-family="Times,serif" font-size="14.00">PagerInterface</text>
</g>
<!-- Pager&#45;&gt;PagerInterface -->
<g id="edge72" class="edge"><title>Pager&#45;&gt;PagerInterface</title>
<path fill="none" stroke="black" d="M716.395,-775.843C748.998,-773.063 804.064,-774.02 833.589,-806.371 890.471,-868.697 817.938,-1117.65 869.589,-1184.37 874.437,-1190.63 880.874,-1195.45 887.938,-1199.14"/>
<polygon fill="black" stroke="black" points="886.59,-1202.37 897.148,-1203.25 889.443,-1195.98 886.59,-1202.37"/>
</g>
<!-- RedisManager -->
<g id="node39" class="node"><title>RedisManager</title>
<polygon fill="none" stroke="black" points="737.282,-743.371 641.282,-743.371 641.282,-739.371 637.282,-739.371 637.282,-735.371 641.282,-735.371 641.282,-715.371 637.282,-715.371 637.282,-711.371 641.282,-711.371 641.282,-707.371 737.282,-707.371 737.282,-743.371"/>
<polyline fill="none" stroke="black" points="641.282,-739.371 645.282,-739.371 645.282,-735.371 641.282,-735.371 "/>
<polyline fill="none" stroke="black" points="641.282,-715.371 645.282,-715.371 645.282,-711.371 641.282,-711.371 "/>
<text text-anchor="middle" x="689.282" y="-721.671" font-family="Times,serif" font-size="14.00">RedisManager</text>
</g>
<!-- RedisManager&#45;&gt;Core_ComponentBase -->
<g id="edge56" class="edge"><title>RedisManager&#45;&gt;Core_ComponentBase</title>
<path fill="none" stroke="black" stroke-dasharray="1,5" d="M737.48,-714.633C808.023,-701.586 941.121,-689.008 1020.33,-757.371 1099.44,-825.649 1140.4,-1165.75 1150.92,-1266.32"/>
<polygon fill="black" stroke="black" points="1147.44,-1266.74 1151.95,-1276.33 1154.41,-1266.03 1147.44,-1266.74"/>
</g>
<!-- RedisCache -->
<g id="node40" class="node"><title>RedisCache</title>
<polygon fill="none" stroke="black" points="729.782,-689.371 648.782,-689.371 648.782,-685.371 644.782,-685.371 644.782,-681.371 648.782,-681.371 648.782,-661.371 644.782,-661.371 644.782,-657.371 648.782,-657.371 648.782,-653.371 729.782,-653.371 729.782,-689.371"/>
<polyline fill="none" stroke="black" points="648.782,-685.371 652.782,-685.371 652.782,-681.371 648.782,-681.371 "/>
<polyline fill="none" stroke="black" points="648.782,-661.371 652.782,-661.371 652.782,-657.371 648.782,-657.371 "/>
<text text-anchor="middle" x="689.282" y="-667.671" font-family="Times,serif" font-size="14.00">RedisCache</text>
</g>
<!-- RedisCache&#45;&gt;Core_ComponentBase -->
<g id="edge57" class="edge"><title>RedisCache&#45;&gt;Core_ComponentBase</title>
<path fill="none" stroke="black" stroke-dasharray="1,5" d="M730.015,-661.611C798.391,-647.388 938.802,-629.847 1020.33,-701.371 1107.37,-777.733 1143.18,-1158.98 1151.63,-1266.25"/>
<polygon fill="black" stroke="black" points="1148.14,-1266.61 1152.4,-1276.31 1155.12,-1266.07 1148.14,-1266.61"/>
</g>
<!-- RouteHookApiServer -->
<g id="node41" class="node"><title>RouteHookApiServer</title>
<polygon fill="none" stroke="black" points="756.282,-959.371 622.282,-959.371 622.282,-955.371 618.282,-955.371 618.282,-951.371 622.282,-951.371 622.282,-931.371 618.282,-931.371 618.282,-927.371 622.282,-927.371 622.282,-923.371 756.282,-923.371 756.282,-959.371"/>
<polyline fill="none" stroke="black" points="622.282,-955.371 626.282,-955.371 626.282,-951.371 622.282,-951.371 "/>
<polyline fill="none" stroke="black" points="622.282,-931.371 626.282,-931.371 626.282,-927.371 622.282,-927.371 "/>
<text text-anchor="middle" x="689.282" y="-937.671" font-family="Times,serif" font-size="14.00">RouteHookApiServer</text>
</g>
<!-- RouteHookApiServer&#45;&gt;Core_Route -->
<g id="edge73" class="edge"><title>RouteHookApiServer&#45;&gt;Core_Route</title>
<path fill="none" stroke="black" stroke-dasharray="5,2" d="M756.531,-937.718C784.083,-939.854 814.117,-947.586 833.589,-968.371 924.195,-1065.08 788.945,-1159.21 869.589,-1264.37 877.678,-1274.92 890.078,-1281.77 902.449,-1286.22"/>
<polygon fill="black" stroke="black" points="901.691,-1289.65 912.28,-1289.29 903.781,-1282.97 901.691,-1289.65"/>
</g>
<!-- RouteHookApiServer&#45;&gt;Core_ComponentBase -->
<g id="edge58" class="edge"><title>RouteHookApiServer&#45;&gt;Core_ComponentBase</title>
<path fill="none" stroke="black" stroke-dasharray="1,5" d="M756.515,-933.894C840.488,-925.833 979.29,-917.686 1020.33,-946.371 1128.31,-1021.84 1148.88,-1197.4 1152.78,-1266.09"/>
<polygon fill="black" stroke="black" points="1149.29,-1266.35 1153.27,-1276.17 1156.28,-1266.01 1149.29,-1266.35"/>
</g>
<!-- RouteHookDirectoryMode -->
<g id="node42" class="node"><title>RouteHookDirectoryMode</title>
<polygon fill="none" stroke="black" points="770.782,-1121.37 607.782,-1121.37 607.782,-1117.37 603.782,-1117.37 603.782,-1113.37 607.782,-1113.37 607.782,-1093.37 603.782,-1093.37 603.782,-1089.37 607.782,-1089.37 607.782,-1085.37 770.782,-1085.37 770.782,-1121.37"/>
<polyline fill="none" stroke="black" points="607.782,-1117.37 611.782,-1117.37 611.782,-1113.37 607.782,-1113.37 "/>
<polyline fill="none" stroke="black" points="607.782,-1093.37 611.782,-1093.37 611.782,-1089.37 607.782,-1089.37 "/>
<text text-anchor="middle" x="689.282" y="-1099.67" font-family="Times,serif" font-size="14.00">RouteHookDirectoryMode</text>
</g>
<!-- RouteHookDirectoryMode&#45;&gt;Core_Route -->
<g id="edge74" class="edge"><title>RouteHookDirectoryMode&#45;&gt;Core_Route</title>
<path fill="none" stroke="black" stroke-dasharray="5,2" d="M771.077,-1103.05C793.696,-1106.78 816.689,-1114.71 833.589,-1130.37 878.825,-1172.28 828.699,-1218.21 869.589,-1264.37 878.476,-1274.4 891.196,-1281.13 903.609,-1285.63"/>
<polygon fill="black" stroke="black" points="902.829,-1289.05 913.42,-1288.77 904.964,-1282.38 902.829,-1289.05"/>
</g>
<!-- RouteHookDirectoryMode&#45;&gt;Core_SuperGlobal -->
<g id="edge75" class="edge"><title>RouteHookDirectoryMode&#45;&gt;Core_SuperGlobal</title>
<path fill="none" stroke="black" stroke-dasharray="5,2" d="M771.089,-1102.14C793.978,-1105.78 817.119,-1113.9 833.589,-1130.37 894.674,-1191.45 813.648,-1255.55 869.589,-1321.37 875.795,-1328.67 884.142,-1334 893.002,-1337.89"/>
<polygon fill="black" stroke="black" points="891.761,-1341.16 902.353,-1341.44 894.247,-1334.62 891.761,-1341.16"/>
</g>
<!-- RouteHookDirectoryMode&#45;&gt;Core_ComponentBase -->
<g id="edge59" class="edge"><title>RouteHookDirectoryMode&#45;&gt;Core_ComponentBase</title>
<path fill="none" stroke="black" stroke-dasharray="1,5" d="M770.796,-1099.56C792.527,-1095.62 815.114,-1088.59 833.589,-1076.37 857.645,-1060.46 844.158,-1035.98 869.589,-1022.37 928.658,-990.759 963.479,-986.927 1020.33,-1022.37 1108.14,-1077.12 1139.74,-1208.38 1149.67,-1266.21"/>
<polygon fill="black" stroke="black" points="1146.22,-1266.8 1151.28,-1276.11 1153.13,-1265.68 1146.22,-1266.8"/>
</g>
<!-- RouteHookManager -->
<g id="node43" class="node"><title>RouteHookManager</title>
<polygon fill="none" stroke="black" points="753.282,-905.371 625.282,-905.371 625.282,-901.371 621.282,-901.371 621.282,-897.371 625.282,-897.371 625.282,-877.371 621.282,-877.371 621.282,-873.371 625.282,-873.371 625.282,-869.371 753.282,-869.371 753.282,-905.371"/>
<polyline fill="none" stroke="black" points="625.282,-901.371 629.282,-901.371 629.282,-897.371 625.282,-897.371 "/>
<polyline fill="none" stroke="black" points="625.282,-877.371 629.282,-877.371 629.282,-873.371 625.282,-873.371 "/>
<text text-anchor="middle" x="689.282" y="-883.671" font-family="Times,serif" font-size="14.00">RouteHookManager</text>
</g>
<!-- RouteHookManager&#45;&gt;Core_Route -->
<g id="edge76" class="edge"><title>RouteHookManager&#45;&gt;Core_Route</title>
<path fill="none" stroke="black" stroke-dasharray="5,2" d="M753.416,-883.323C781.882,-885.054 813.539,-892.567 833.589,-914.371 886.514,-971.924 822.587,-1201.89 869.589,-1264.37 877.58,-1274.99 889.955,-1281.87 902.333,-1286.31"/>
<polygon fill="black" stroke="black" points="901.588,-1289.74 912.176,-1289.37 903.67,-1283.06 901.588,-1289.74"/>
</g>
<!-- RouteHookManager&#45;&gt;Core_ComponentBase -->
<g id="edge60" class="edge"><title>RouteHookManager&#45;&gt;Core_ComponentBase</title>
<path fill="none" stroke="black" stroke-dasharray="1,5" d="M753.489,-875.73C825.865,-866.172 944.222,-862.552 1020.33,-922.371 1130.67,-1009.09 1149.82,-1194.74 1153.06,-1265.85"/>
<polygon fill="black" stroke="black" points="1149.58,-1266.39 1153.45,-1276.25 1156.57,-1266.12 1149.58,-1266.39"/>
</g>
<!-- RouteHookPathInfoByGet -->
<g id="node44" class="node"><title>RouteHookPathInfoByGet</title>
<polygon fill="none" stroke="black" points="769.782,-1067.37 608.782,-1067.37 608.782,-1063.37 604.782,-1063.37 604.782,-1059.37 608.782,-1059.37 608.782,-1039.37 604.782,-1039.37 604.782,-1035.37 608.782,-1035.37 608.782,-1031.37 769.782,-1031.37 769.782,-1067.37"/>
<polyline fill="none" stroke="black" points="608.782,-1063.37 612.782,-1063.37 612.782,-1059.37 608.782,-1059.37 "/>
<polyline fill="none" stroke="black" points="608.782,-1039.37 612.782,-1039.37 612.782,-1035.37 608.782,-1035.37 "/>
<text text-anchor="middle" x="689.282" y="-1045.67" font-family="Times,serif" font-size="14.00">RouteHookPathInfoByGet</text>
</g>
<!-- RouteHookPathInfoByGet&#45;&gt;Core_Route -->
<g id="edge77" class="edge"><title>RouteHookPathInfoByGet&#45;&gt;Core_Route</title>
<path fill="none" stroke="black" stroke-dasharray="5,2" d="M769.94,-1047.99C793.191,-1051.55 816.826,-1059.66 833.589,-1076.37 893.835,-1136.44 815.549,-1198.67 869.589,-1264.37 878.103,-1274.72 890.73,-1281.53 903.173,-1286"/>
<polygon fill="black" stroke="black" points="902.441,-1289.44 913.031,-1289.1 904.543,-1282.76 902.441,-1289.44"/>
</g>
<!-- RouteHookPathInfoByGet&#45;&gt;Core_SuperGlobal -->
<g id="edge78" class="edge"><title>RouteHookPathInfoByGet&#45;&gt;Core_SuperGlobal</title>
<path fill="none" stroke="black" stroke-dasharray="5,2" d="M770.009,-1047.5C793.403,-1051.01 817.104,-1059.21 833.589,-1076.37 909.827,-1155.75 800.025,-1236.09 869.589,-1321.37 875.583,-1328.72 883.752,-1334.07 892.487,-1337.96"/>
<polygon fill="black" stroke="black" points="891.521,-1341.34 902.112,-1341.64 894.02,-1334.8 891.521,-1341.34"/>
</g>
<!-- RouteHookPathInfoByGet&#45;&gt;Core_ComponentBase -->
<g id="edge61" class="edge"><title>RouteHookPathInfoByGet&#45;&gt;Core_ComponentBase</title>
<path fill="none" stroke="black" stroke-dasharray="1,5" d="M770.154,-1041.46C791.421,-1037.46 813.933,-1031.44 833.589,-1022.37 852.246,-1013.77 850.213,-1000.2 869.589,-993.371 932.772,-971.088 964.177,-956.831 1020.33,-993.371 1115.91,-1055.57 1143.51,-1203.65 1151.03,-1265.97"/>
<polygon fill="black" stroke="black" points="1147.59,-1266.68 1152.18,-1276.22 1154.54,-1265.9 1147.59,-1266.68"/>
</g>
<!-- RouteHookRewrite -->
<g id="node45" class="node"><title>RouteHookRewrite</title>
<polygon fill="none" stroke="black" points="750.282,-1013.37 628.282,-1013.37 628.282,-1009.37 624.282,-1009.37 624.282,-1005.37 628.282,-1005.37 628.282,-985.371 624.282,-985.371 624.282,-981.371 628.282,-981.371 628.282,-977.371 750.282,-977.371 750.282,-1013.37"/>
<polyline fill="none" stroke="black" points="628.282,-1009.37 632.282,-1009.37 632.282,-1005.37 628.282,-1005.37 "/>
<polyline fill="none" stroke="black" points="628.282,-985.371 632.282,-985.371 632.282,-981.371 628.282,-981.371 "/>
<text text-anchor="middle" x="689.282" y="-991.671" font-family="Times,serif" font-size="14.00">RouteHookRewrite</text>
</g>
<!-- RouteHookRewrite&#45;&gt;Core_Route -->
<g id="edge79" class="edge"><title>RouteHookRewrite&#45;&gt;Core_Route</title>
<path fill="none" stroke="black" stroke-dasharray="5,2" d="M750.448,-991.58C779.446,-993.117 812.437,-1000.39 833.589,-1022.37 908.984,-1100.73 802.275,-1178.97 869.589,-1264.37 877.818,-1274.81 890.254,-1281.64 902.614,-1286.09"/>
<polygon fill="black" stroke="black" points="901.838,-1289.52 912.428,-1289.18 903.94,-1282.84 901.838,-1289.52"/>
</g>
<!-- RouteHookRewrite&#45;&gt;Core_SuperGlobal -->
<g id="edge80" class="edge"><title>RouteHookRewrite&#45;&gt;Core_SuperGlobal</title>
<path fill="none" stroke="black" stroke-dasharray="5,2" d="M750.346,-991.316C779.499,-992.747 812.659,-1000 833.589,-1022.37 925.041,-1120.11 786.347,-1216.56 869.589,-1321.37 875.613,-1328.96 883.96,-1334.41 892.893,-1338.33"/>
<polygon fill="black" stroke="black" points="891.751,-1341.64 902.343,-1341.89 894.218,-1335.09 891.751,-1341.64"/>
</g>
<!-- RouteHookRewrite&#45;&gt;Core_ComponentBase -->
<g id="edge62" class="edge"><title>RouteHookRewrite&#45;&gt;Core_ComponentBase</title>
<path fill="none" stroke="black" stroke-dasharray="1,5" d="M750.596,-983.566C785.254,-977.383 829.695,-970.467 869.589,-967.371 936.385,-962.187 964.728,-929.997 1020.33,-967.371 1123.24,-1036.54 1146.78,-1200.51 1152.12,-1266.32"/>
<polygon fill="black" stroke="black" points="1148.64,-1266.65 1152.86,-1276.36 1155.62,-1266.14 1148.64,-1266.65"/>
</g>
<!-- RouteHookRouteMap -->
<g id="node46" class="node"><title>RouteHookRouteMap</title>
<polygon fill="none" stroke="black" points="757.782,-851.371 620.782,-851.371 620.782,-847.371 616.782,-847.371 616.782,-843.371 620.782,-843.371 620.782,-823.371 616.782,-823.371 616.782,-819.371 620.782,-819.371 620.782,-815.371 757.782,-815.371 757.782,-851.371"/>
<polyline fill="none" stroke="black" points="620.782,-847.371 624.782,-847.371 624.782,-843.371 620.782,-843.371 "/>
<polyline fill="none" stroke="black" points="620.782,-823.371 624.782,-823.371 624.782,-819.371 620.782,-819.371 "/>
<text text-anchor="middle" x="689.282" y="-829.671" font-family="Times,serif" font-size="14.00">RouteHookRouteMap</text>
</g>
<!-- RouteHookRouteMap&#45;&gt;Core_Route -->
<g id="edge81" class="edge"><title>RouteHookRouteMap&#45;&gt;Core_Route</title>
<path fill="none" stroke="black" stroke-dasharray="5,2" d="M757.954,-829.512C785.258,-831.716 814.708,-839.557 833.589,-860.371 894.147,-927.131 815.898,-1191.97 869.589,-1264.37 877.508,-1275.05 889.864,-1281.93 902.247,-1286.37"/>
<polygon fill="black" stroke="black" points="901.511,-1289.81 912.1,-1289.43 903.587,-1283.12 901.511,-1289.81"/>
</g>
<!-- RouteHookRouteMap&#45;&gt;Core_ComponentBase -->
<g id="edge63" class="edge"><title>RouteHookRouteMap&#45;&gt;Core_ComponentBase</title>
<path fill="none" stroke="black" stroke-dasharray="1,5" d="M757.87,-820.65C830.943,-810.987 946.796,-808.106 1020.33,-868.371 1145.13,-970.648 1155.14,-1188.35 1154.52,-1266.07"/>
<polygon fill="black" stroke="black" points="1151.02,-1266.03 1154.38,-1276.08 1158.02,-1266.13 1151.02,-1266.03"/>
</g>
<!-- StrictCheck -->
<g id="node47" class="node"><title>StrictCheck</title>
<polygon fill="none" stroke="black" points="984.96,-1067.37 904.96,-1067.37 904.96,-1063.37 900.96,-1063.37 900.96,-1059.37 904.96,-1059.37 904.96,-1039.37 900.96,-1039.37 900.96,-1035.37 904.96,-1035.37 904.96,-1031.37 984.96,-1031.37 984.96,-1067.37"/>
<polyline fill="none" stroke="black" points="904.96,-1063.37 908.96,-1063.37 908.96,-1059.37 904.96,-1059.37 "/>
<polyline fill="none" stroke="black" points="904.96,-1039.37 908.96,-1039.37 908.96,-1035.37 904.96,-1035.37 "/>
<text text-anchor="middle" x="944.96" y="-1045.67" font-family="Times,serif" font-size="14.00">StrictCheck</text>
</g>
<!-- StrictCheck&#45;&gt;Core_ComponentBase -->
<g id="edge64" class="edge"><title>StrictCheck&#45;&gt;Core_ComponentBase</title>
<path fill="none" stroke="black" stroke-dasharray="1,5" d="M985.217,-1058.18C997.379,-1062.27 1010.23,-1068.11 1020.33,-1076.37 1084.53,-1128.83 1126.06,-1220.86 1143.81,-1266.74"/>
<polygon fill="black" stroke="black" points="1140.62,-1268.2 1147.42,-1276.32 1147.16,-1265.73 1140.62,-1268.2"/>
</g>
<!-- StrictCheckObjectTrait -->
<g id="node48" class="node"><title>StrictCheckObjectTrait</title>
<polygon fill="none" stroke="black" points="689.282,-473.371 557.903,-455.371 689.282,-437.371 820.661,-455.371 689.282,-473.371"/>
<text text-anchor="middle" x="689.282" y="-451.671" font-family="Times,serif" font-size="14.00">StrictCheckObjectTrait</text>
</g>
<!-- StrictCheckObjectTrait&#45;&gt;SingletonEx -->
<g id="edge83" class="edge"><title>StrictCheckObjectTrait&#45;&gt;SingletonEx</title>
<path fill="none" stroke="black" stroke-dasharray="5,2" d="M795.635,-451.838C810.02,-447.019 823.338,-439.581 833.589,-428.371 889.34,-367.41 808.412,-113.885 869.589,-58.3713 1001.39,61.2265 1242.99,-33.8777 1331.07,-74.8974"/>
<polygon fill="black" stroke="black" points="1329.78,-78.1581 1340.31,-79.2684 1332.77,-71.8298 1329.78,-78.1581"/>
</g>
<!-- StrictCheckObjectTrait&#45;&gt;StrictCheck -->
<g id="edge82" class="edge"><title>StrictCheckObjectTrait&#45;&gt;StrictCheck</title>
<path fill="none" stroke="black" d="M792.9,-459.21C808.082,-463.899 822.367,-471.216 833.589,-482.371 911.214,-559.53 936.706,-917.316 942.533,-1021.09"/>
<polygon fill="black" stroke="black" points="939.041,-1021.33 943.08,-1031.13 946.031,-1020.95 939.041,-1021.33"/>
</g>
<!-- DuckPhp -->
<g id="node49" class="node"><title>DuckPhp</title>
<polygon fill="lightgrey" stroke="black" points="325.909,-797.371 264.242,-779.371 325.909,-761.371 387.576,-779.371 325.909,-797.371"/>
<polyline fill="none" stroke="black" points="275.761,-782.734 275.761,-776.009 "/>
<polyline fill="none" stroke="black" points="314.39,-764.734 337.428,-764.734 "/>
<polyline fill="none" stroke="black" points="376.057,-776.009 376.057,-782.734 "/>
<polyline fill="none" stroke="black" points="337.428,-794.009 314.39,-794.009 "/>
<text text-anchor="middle" x="325.909" y="-775.671" font-family="Times,serif" font-size="14.00">DuckPhp</text>
</g>
<!-- DuckPhp&#45;&gt;Core_App -->
<g id="edge84" class="edge"><title>DuckPhp&#45;&gt;Core_App</title>
<path fill="none" stroke="black" d="M330.194,-796.263C349.009,-893.012 443.065,-1376.66 466.107,-1495.14"/>
<polygon fill="black" stroke="black" points="462.708,-1496 468.052,-1505.15 469.579,-1494.66 462.708,-1496"/>
</g>
<!-- DuckPhp&#45;&gt;Cache -->
<g id="edge90" class="edge"><title>DuckPhp&#45;&gt;Cache</title>
<path fill="none" stroke="black" d="M331.085,-762.697C346.871,-703.688 409.037,-504.24 544.974,-428.371 578.099,-409.884 621.54,-403.788 651.875,-401.912"/>
<polygon fill="black" stroke="black" points="652.204,-405.4 662.019,-401.411 651.859,-398.409 652.204,-405.4"/>
</g>
<!-- DuckPhp&#45;&gt;DbManager -->
<g id="edge87" class="edge"><title>DuckPhp&#45;&gt;DbManager</title>
<path fill="none" stroke="black" d="M328.053,-761.697C332.285,-708.94 351.038,-550.029 427.441,-449.371 477.742,-383.103 577.325,-359.853 637.843,-351.72"/>
<polygon fill="black" stroke="black" points="638.45,-355.172 647.937,-350.455 637.579,-348.226 638.45,-355.172"/>
</g>
<!-- DuckPhp&#45;&gt;EventManager -->
<g id="edge88" class="edge"><title>DuckPhp&#45;&gt;EventManager</title>
<path fill="none" stroke="black" d="M335.637,-763.999C361.342,-720.278 441.498,-594.636 544.974,-536.371 570.795,-521.832 602.963,-514.944 630.275,-511.749"/>
<polygon fill="black" stroke="black" points="630.893,-515.204 640.482,-510.698 630.176,-508.241 630.893,-515.204"/>
</g>
<!-- DuckPhp&#45;&gt;Pager -->
<g id="edge86" class="edge"><title>DuckPhp&#45;&gt;Pager</title>
<path fill="none" stroke="black" d="M387.802,-779.371C463.482,-779.371 590.19,-779.371 652.067,-779.371"/>
<polygon fill="black" stroke="black" points="652.133,-782.871 662.133,-779.371 652.132,-775.871 652.133,-782.871"/>
</g>
<!-- DuckPhp&#45;&gt;RouteHookPathInfoByGet -->
<g id="edge89" class="edge"><title>DuckPhp&#45;&gt;RouteHookPathInfoByGet</title>
<path fill="none" stroke="black" d="M335.637,-794.744C361.342,-838.465 441.498,-964.106 544.974,-1022.37 561.243,-1031.53 580.031,-1037.66 598.537,-1041.73"/>
<polygon fill="black" stroke="black" points="597.976,-1045.19 608.471,-1043.74 599.361,-1038.33 597.976,-1045.19"/>
</g>
<!-- DuckPhp&#45;&gt;RouteHookRouteMap -->
<g id="edge85" class="edge"><title>DuckPhp&#45;&gt;RouteHookRouteMap</title>
<path fill="none" stroke="black" d="M367.311,-785.409C425.887,-794.162 535.54,-810.547 610.213,-821.705"/>
<polygon fill="black" stroke="black" points="610.101,-825.227 620.508,-823.244 611.135,-818.304 610.101,-825.227"/>
</g>
<!-- HttpServer -->
<g id="node50" class="node"><title>HttpServer</title>
<polygon fill="lightgrey" stroke="black" points="116.188,-1754.37 46.4759,-1736.37 116.188,-1718.37 185.9,-1736.37 116.188,-1754.37"/>
<polyline fill="none" stroke="black" points="58.0949,-1739.37 58.0949,-1733.37 "/>
<polyline fill="none" stroke="black" points="104.569,-1721.37 127.807,-1721.37 "/>
<polyline fill="none" stroke="black" points="174.281,-1733.37 174.281,-1739.37 "/>
<polyline fill="none" stroke="black" points="127.807,-1751.37 104.569,-1751.37 "/>
<text text-anchor="middle" x="116.188" y="-1732.67" font-family="Times,serif" font-size="14.00">HttpServer</text>
</g>
<!-- ThrowOn -->
<g id="node51" class="node"><title>ThrowOn</title>
<polygon fill="lightgrey" stroke="black" points="116.188,-1837.37 52.8443,-1819.37 116.188,-1801.37 179.532,-1819.37 116.188,-1837.37"/>
<polyline fill="none" stroke="black" points="64.3873,-1822.65 64.3873,-1816.09 "/>
<polyline fill="none" stroke="black" points="104.645,-1804.65 127.731,-1804.65 "/>
<polyline fill="none" stroke="black" points="167.989,-1816.09 167.989,-1822.65 "/>
<polyline fill="none" stroke="black" points="127.731,-1834.09 104.645,-1834.09 "/>
<text text-anchor="middle" x="116.188" y="-1815.67" font-family="Times,serif" font-size="14.00">ThrowOn</text>
</g>
</g>
</svg>
