<?xml version="1.0" encoding="UTF-8" standalone="no"?>
<!DOCTYPE svg PUBLIC "-//W3C//DTD SVG 1.1//EN"
 "http://www.w3.org/Graphics/SVG/1.1/DTD/svg11.dtd">
<!-- Generated by graphviz version 2.38.0 (20140413.2041)
 -->
<!-- Title: G Pages: 1 -->
<svg width="1495pt" height="1506pt"
 viewBox="0.00 0.00 1495.40 1506.42" xmlns="http://www.w3.org/2000/svg" xmlns:xlink="http://www.w3.org/1999/xlink">
<g id="graph0" class="graph" transform="scale(1 1) rotate(0) translate(4 1502.42)">
<title>G</title>
<polygon fill="white" stroke="none" points="-4,4 -4,-1502.42 1491.4,-1502.42 1491.4,4 -4,4"/>
<g id="clust1" class="cluster"><title>cluster_Core</title>
<polygon fill="none" stroke="black" points="427.441,-963.423 427.441,-1490.42 1454.58,-1490.42 1454.58,-963.423 427.441,-963.423"/>
<text text-anchor="middle" x="941.013" y="-1475.22" font-family="Times,serif" font-size="14.00">[DuckPhp\Core]</text>
</g>
<g id="clust2" class="cluster"><title>cluster_Helper</title>
<polygon fill="none" stroke="black" points="8,-1063.42 8,-1354.42 407.441,-1354.42 407.441,-1063.42 8,-1063.42"/>
<text text-anchor="middle" x="207.721" y="-1339.22" font-family="Times,serif" font-size="14.00">[DuckPhp\Helper]</text>
</g>
<g id="clust3" class="cluster"><title>cluster_DB</title>
<polygon fill="none" stroke="black" points="1144.69,-15.4233 1144.69,-144.423 1479.4,-144.423 1479.4,-15.4233 1144.69,-15.4233"/>
<text text-anchor="middle" x="1312.04" y="-129.223" font-family="Times,serif" font-size="14.00">[DuckPhp\DB]</text>
</g>
<g id="clust4" class="cluster"><title>cluster_Ext</title>
<polygon fill="none" stroke="black" points="577.417,-42.4233 577.417,-927.423 1050.39,-927.423 1050.39,-42.4233 577.417,-42.4233"/>
<text text-anchor="middle" x="813.903" y="-912.223" font-family="Times,serif" font-size="14.00">[DuckPhp\Ext]</text>
</g>
<g id="clust5" class="cluster"><title>cluster_DuckPhp</title>
<polygon fill="none" stroke="black" points="248.053,-526.423 248.053,-655.423 403.765,-655.423 403.765,-526.423 248.053,-526.423"/>
<text text-anchor="middle" x="325.909" y="-640.223" font-family="Times,serif" font-size="14.00">[DuckPhp]</text>
</g>
<!-- Core_AppPluginTrait -->
<g id="node1" class="node"><title>Core_AppPluginTrait</title>
<polygon fill="none" stroke="black" points="689.282,-1157.42 596.612,-1139.42 689.282,-1121.42 781.952,-1139.42 689.282,-1157.42"/>
<text text-anchor="middle" x="689.282" y="-1135.72" font-family="Times,serif" font-size="14.00">AppPluginTrait</text>
</g>
<!-- Core_View -->
<g id="node7" class="node"><title>Core_View</title>
<polygon fill="none" stroke="black" points="1006.89,-1061.42 952.888,-1061.42 952.888,-1057.42 948.888,-1057.42 948.888,-1053.42 952.888,-1053.42 952.888,-1033.42 948.888,-1033.42 948.888,-1029.42 952.888,-1029.42 952.888,-1025.42 1006.89,-1025.42 1006.89,-1061.42"/>
<polyline fill="none" stroke="black" points="952.888,-1057.42 956.888,-1057.42 956.888,-1053.42 952.888,-1053.42 "/>
<polyline fill="none" stroke="black" points="952.888,-1033.42 956.888,-1033.42 956.888,-1029.42 952.888,-1029.42 "/>
<text text-anchor="middle" x="979.888" y="-1039.72" font-family="Times,serif" font-size="14.00">View</text>
</g>
<!-- Core_AppPluginTrait&#45;&gt;Core_View -->
<g id="edge24" class="edge"><title>Core_AppPluginTrait&#45;&gt;Core_View</title>
<path fill="none" stroke="black" d="M724.211,-1128.11C753.466,-1118.12 796.696,-1102.79 833.589,-1087.42 849.924,-1080.62 852.918,-1076.35 869.589,-1070.42 893.487,-1061.92 921.241,-1055.1 942.802,-1050.44"/>
<polygon fill="black" stroke="black" points="943.779,-1053.82 952.844,-1048.33 942.338,-1046.97 943.779,-1053.82"/>
</g>
<!-- Core_Configer -->
<g id="node8" class="node"><title>Core_Configer</title>
<polygon fill="none" stroke="black" points="1012.39,-1169.42 947.388,-1169.42 947.388,-1165.42 943.388,-1165.42 943.388,-1161.42 947.388,-1161.42 947.388,-1141.42 943.388,-1141.42 943.388,-1137.42 947.388,-1137.42 947.388,-1133.42 1012.39,-1133.42 1012.39,-1169.42"/>
<polyline fill="none" stroke="black" points="947.388,-1165.42 951.388,-1165.42 951.388,-1161.42 947.388,-1161.42 "/>
<polyline fill="none" stroke="black" points="947.388,-1141.42 951.388,-1141.42 951.388,-1137.42 947.388,-1137.42 "/>
<text text-anchor="middle" x="979.888" y="-1147.72" font-family="Times,serif" font-size="14.00">Configer</text>
</g>
<!-- Core_AppPluginTrait&#45;&gt;Core_Configer -->
<g id="edge23" class="edge"><title>Core_AppPluginTrait&#45;&gt;Core_Configer</title>
<path fill="none" stroke="black" d="M766.11,-1142.58C820.689,-1144.85 892.281,-1147.82 936.932,-1149.68"/>
<polygon fill="black" stroke="black" points="936.992,-1153.18 947.129,-1150.1 937.283,-1146.19 936.992,-1153.18"/>
</g>
<!-- Core_Route -->
<g id="node10" class="node"><title>Core_Route</title>
<polygon fill="lightgrey" stroke="black" points="979.888,-1115.42 934.811,-1097.42 979.888,-1079.42 1024.97,-1097.42 979.888,-1115.42"/>
<polyline fill="none" stroke="black" points="945.955,-1101.87 945.955,-1092.97 "/>
<polyline fill="none" stroke="black" points="968.744,-1083.87 991.033,-1083.87 "/>
<polyline fill="none" stroke="black" points="1013.82,-1092.97 1013.82,-1101.87 "/>
<polyline fill="none" stroke="black" points="991.033,-1110.97 968.744,-1110.97 "/>
<text text-anchor="middle" x="979.888" y="-1093.72" font-family="Times,serif" font-size="14.00">Route</text>
</g>
<!-- Core_AppPluginTrait&#45;&gt;Core_Route -->
<g id="edge25" class="edge"><title>Core_AppPluginTrait&#45;&gt;Core_Route</title>
<path fill="none" stroke="black" d="M742.881,-1131.77C798.4,-1123.69 884.842,-1111.11 936.264,-1103.63"/>
<polygon fill="black" stroke="black" points="936.98,-1107.06 946.371,-1102.16 935.972,-1100.13 936.98,-1107.06"/>
</g>
<!-- Core_SuperGlobal -->
<g id="node14" class="node"><title>Core_SuperGlobal</title>
<polygon fill="none" stroke="black" points="1022.39,-1223.42 937.388,-1223.42 937.388,-1219.42 933.388,-1219.42 933.388,-1215.42 937.388,-1215.42 937.388,-1195.42 933.388,-1195.42 933.388,-1191.42 937.388,-1191.42 937.388,-1187.42 1022.39,-1187.42 1022.39,-1223.42"/>
<polyline fill="none" stroke="black" points="937.388,-1219.42 941.388,-1219.42 941.388,-1215.42 937.388,-1215.42 "/>
<polyline fill="none" stroke="black" points="937.388,-1195.42 941.388,-1195.42 941.388,-1191.42 937.388,-1191.42 "/>
<text text-anchor="middle" x="979.888" y="-1201.72" font-family="Times,serif" font-size="14.00">SuperGlobal</text>
</g>
<!-- Core_AppPluginTrait&#45;&gt;Core_SuperGlobal -->
<g id="edge26" class="edge"><title>Core_AppPluginTrait&#45;&gt;Core_SuperGlobal</title>
<path fill="none" stroke="black" d="M732.557,-1149.09C784.145,-1160.89 871.352,-1180.83 926.968,-1193.55"/>
<polygon fill="black" stroke="black" points="926.441,-1197.02 936.969,-1195.84 928.001,-1190.2 926.441,-1197.02"/>
</g>
<!-- Core_App -->
<g id="node2" class="node"><title>Core_App</title>
<polygon fill="lightgrey" stroke="black" points="472.208,-1235.42 435.674,-1217.42 472.208,-1199.42 508.742,-1217.42 472.208,-1235.42"/>
<polyline fill="none" stroke="black" points="446.438,-1222.73 446.438,-1212.12 "/>
<polyline fill="none" stroke="black" points="461.443,-1204.73 482.972,-1204.73 "/>
<polyline fill="none" stroke="black" points="497.977,-1212.12 497.977,-1222.73 "/>
<polyline fill="none" stroke="black" points="482.972,-1230.12 461.443,-1230.12 "/>
<text text-anchor="middle" x="472.208" y="-1213.72" font-family="Times,serif" font-size="14.00">App</text>
</g>
<!-- Core_Kernel -->
<g id="node3" class="node"><title>Core_Kernel</title>
<polygon fill="none" stroke="black" points="689.282,-1251.42 640.35,-1233.42 689.282,-1215.42 738.213,-1233.42 689.282,-1251.42"/>
<text text-anchor="middle" x="689.282" y="-1229.72" font-family="Times,serif" font-size="14.00">Kernel</text>
</g>
<!-- Core_App&#45;&gt;Core_Kernel -->
<g id="edge9" class="edge"><title>Core_App&#45;&gt;Core_Kernel</title>
<path fill="none" stroke="black" d="M504.481,-1219.75C539.495,-1222.35 596.731,-1226.61 638.037,-1229.69"/>
<polygon fill="black" stroke="black" points="637.941,-1233.19 648.173,-1230.44 638.46,-1226.21 637.941,-1233.19"/>
</g>
<!-- Core_AutoLoader -->
<g id="node5" class="node"><title>Core_AutoLoader</title>
<polygon fill="lightgrey" stroke="black" points="979.888,-1331.42 904.646,-1313.42 979.888,-1295.42 1055.13,-1313.42 979.888,-1331.42"/>
<polyline fill="none" stroke="black" points="916.317,-1316.22 916.317,-1310.63 "/>
<polyline fill="none" stroke="black" points="968.218,-1298.22 991.559,-1298.22 "/>
<polyline fill="none" stroke="black" points="1043.46,-1310.63 1043.46,-1316.22 "/>
<polyline fill="none" stroke="black" points="991.559,-1328.63 968.218,-1328.63 "/>
<text text-anchor="middle" x="979.888" y="-1309.72" font-family="Times,serif" font-size="14.00">AutoLoader</text>
</g>
<!-- Core_App&#45;&gt;Core_AutoLoader -->
<g id="edge13" class="edge"><title>Core_App&#45;&gt;Core_AutoLoader</title>
<path fill="none" stroke="black" stroke-dasharray="1,5" d="M483.643,-1229.89C496.441,-1244.19 519.584,-1267 544.974,-1277.42 561.579,-1284.24 792.467,-1300.76 910.48,-1308.83"/>
<polygon fill="black" stroke="black" points="910.287,-1312.33 920.503,-1309.52 910.764,-1305.34 910.287,-1312.33"/>
</g>
<!-- Core_ExceptionManager -->
<g id="node6" class="node"><title>Core_ExceptionManager</title>
<polygon fill="lightgrey" stroke="black" points="979.888,-1385.42 869.79,-1367.42 979.888,-1349.42 1089.99,-1367.42 979.888,-1385.42"/>
<polyline fill="none" stroke="black" points="881.633,-1369.36 881.633,-1365.49 "/>
<polyline fill="none" stroke="black" points="968.046,-1351.36 991.731,-1351.36 "/>
<polyline fill="none" stroke="black" points="1078.14,-1365.49 1078.14,-1369.36 "/>
<polyline fill="none" stroke="black" points="991.731,-1383.49 968.046,-1383.49 "/>
<text text-anchor="middle" x="979.888" y="-1363.72" font-family="Times,serif" font-size="14.00">ExceptionManager</text>
</g>
<!-- Core_App&#45;&gt;Core_ExceptionManager -->
<g id="edge16" class="edge"><title>Core_App&#45;&gt;Core_ExceptionManager</title>
<path fill="none" stroke="black" stroke-dasharray="1,5" d="M472.954,-1235.24C473.444,-1277.33 481.271,-1382.8 544.974,-1428.42 597.119,-1465.77 773.99,-1452.12 833.589,-1428.42 854.04,-1420.29 850.27,-1404.96 869.589,-1394.42 882.415,-1387.42 897.069,-1382.21 911.391,-1378.34"/>
<polygon fill="black" stroke="black" points="912.382,-1381.7 921.226,-1375.86 910.674,-1374.91 912.382,-1381.7"/>
</g>
<!-- Core_App&#45;&gt;Core_View -->
<g id="edge19" class="edge"><title>Core_App&#45;&gt;Core_View</title>
<path fill="none" stroke="black" stroke-dasharray="1,5" d="M477.145,-1201.38C484.875,-1173.69 504.888,-1117.52 544.974,-1092.42 599.465,-1058.31 769.867,-1080.95 833.589,-1072.42 871.22,-1067.39 913.758,-1058.52 943.036,-1051.91"/>
<polygon fill="black" stroke="black" points="943.839,-1055.32 952.809,-1049.68 942.28,-1048.49 943.839,-1055.32"/>
</g>
<!-- Core_App&#45;&gt;Core_Configer -->
<g id="edge14" class="edge"><title>Core_App&#45;&gt;Core_Configer</title>
<path fill="none" stroke="black" stroke-dasharray="1,5" d="M494.311,-1210.15C508.478,-1205.54 527.65,-1199.83 544.974,-1196.42 546.174,-1196.19 828.099,-1167.02 936.816,-1155.77"/>
<polygon fill="black" stroke="black" points="937.497,-1159.22 947.084,-1154.71 936.777,-1152.26 937.497,-1159.22"/>
</g>
<!-- Core_Logger -->
<g id="node9" class="node"><title>Core_Logger</title>
<polygon fill="none" stroke="black" points="1007.89,-1439.42 951.888,-1439.42 951.888,-1435.42 947.888,-1435.42 947.888,-1431.42 951.888,-1431.42 951.888,-1411.42 947.888,-1411.42 947.888,-1407.42 951.888,-1407.42 951.888,-1403.42 1007.89,-1403.42 1007.89,-1439.42"/>
<polyline fill="none" stroke="black" points="951.888,-1435.42 955.888,-1435.42 955.888,-1431.42 951.888,-1431.42 "/>
<polyline fill="none" stroke="black" points="951.888,-1411.42 955.888,-1411.42 955.888,-1407.42 951.888,-1407.42 "/>
<text text-anchor="middle" x="979.888" y="-1417.72" font-family="Times,serif" font-size="14.00">Logger</text>
</g>
<!-- Core_App&#45;&gt;Core_Logger -->
<g id="edge15" class="edge"><title>Core_App&#45;&gt;Core_Logger</title>
<path fill="none" stroke="black" stroke-dasharray="1,5" d="M472.439,-1235.63C471.672,-1280.3 476.716,-1395.35 544.974,-1445.42 607.421,-1491.23 848.78,-1448.13 941.925,-1429.26"/>
<polygon fill="black" stroke="black" points="942.663,-1432.69 951.758,-1427.25 941.259,-1425.83 942.663,-1432.69"/>
</g>
<!-- Core_App&#45;&gt;Core_Route -->
<g id="edge17" class="edge"><title>Core_App&#45;&gt;Core_Route</title>
<path fill="none" stroke="black" stroke-dasharray="1,5" d="M478.447,-1202.22C487.642,-1178.18 509.183,-1132.11 544.974,-1112.42 577.564,-1094.5 817.853,-1095.3 926.184,-1096.6"/>
<polygon fill="black" stroke="black" points="926.2,-1100.1 936.244,-1096.73 926.289,-1093.1 926.2,-1100.1"/>
</g>
<!-- Core_RuntimeState -->
<g id="node11" class="node"><title>Core_RuntimeState</title>
<polygon fill="none" stroke="black" points="1025.39,-1277.42 934.388,-1277.42 934.388,-1273.42 930.388,-1273.42 930.388,-1269.42 934.388,-1269.42 934.388,-1249.42 930.388,-1249.42 930.388,-1245.42 934.388,-1245.42 934.388,-1241.42 1025.39,-1241.42 1025.39,-1277.42"/>
<polyline fill="none" stroke="black" points="934.388,-1273.42 938.388,-1273.42 938.388,-1269.42 934.388,-1269.42 "/>
<polyline fill="none" stroke="black" points="934.388,-1249.42 938.388,-1249.42 938.388,-1245.42 934.388,-1245.42 "/>
<text text-anchor="middle" x="979.888" y="-1255.72" font-family="Times,serif" font-size="14.00">RuntimeState</text>
</g>
<!-- Core_App&#45;&gt;Core_RuntimeState -->
<g id="edge18" class="edge"><title>Core_App&#45;&gt;Core_RuntimeState</title>
<path fill="none" stroke="black" stroke-dasharray="1,5" d="M486.466,-1228.41C500.142,-1238.98 522.576,-1254.23 544.974,-1260.42 677.052,-1296.96 840.525,-1281.07 924.083,-1268.81"/>
<polygon fill="black" stroke="black" points="924.746,-1272.25 934.113,-1267.3 923.703,-1265.33 924.746,-1272.25"/>
</g>
<!-- Core_SystemWrapperTrait -->
<g id="node12" class="node"><title>Core_SystemWrapperTrait</title>
<polygon fill="none" stroke="black" points="689.282,-1365.42 568.962,-1347.42 689.282,-1329.42 809.601,-1347.42 689.282,-1365.42"/>
<text text-anchor="middle" x="689.282" y="-1343.72" font-family="Times,serif" font-size="14.00">SystemWrapperTrait</text>
</g>
<!-- Core_App&#45;&gt;Core_SystemWrapperTrait -->
<g id="edge12" class="edge"><title>Core_App&#45;&gt;Core_SystemWrapperTrait</title>
<path fill="none" stroke="black" d="M479.679,-1231.99C490.131,-1253.75 512.853,-1294.42 544.974,-1315.42 562.117,-1326.64 582.616,-1333.96 602.677,-1338.74"/>
<polygon fill="black" stroke="black" points="601.955,-1342.16 612.473,-1340.88 603.453,-1335.32 601.955,-1342.16"/>
</g>
<!-- Core_App&#45;&gt;Core_SuperGlobal -->
<g id="edge20" class="edge"><title>Core_App&#45;&gt;Core_SuperGlobal</title>
<path fill="none" stroke="black" stroke-dasharray="1,5" d="M499.01,-1212.51C512.624,-1210.16 529.642,-1207.61 544.974,-1206.42 682.446,-1195.79 845.15,-1199.85 926.733,-1203.03"/>
<polygon fill="black" stroke="black" points="927.089,-1206.55 937.222,-1203.45 927.37,-1199.55 927.089,-1206.55"/>
</g>
<!-- Core_ExtendableStaticCallTrait -->
<g id="node15" class="node"><title>Core_ExtendableStaticCallTrait</title>
<polygon fill="none" stroke="black" points="689.282,-1009.42 545.166,-991.423 689.282,-973.423 833.397,-991.423 689.282,-1009.42"/>
<text text-anchor="middle" x="689.282" y="-987.723" font-family="Times,serif" font-size="14.00">ExtendableStaticCallTrait</text>
</g>
<!-- Core_App&#45;&gt;Core_ExtendableStaticCallTrait -->
<g id="edge11" class="edge"><title>Core_App&#45;&gt;Core_ExtendableStaticCallTrait</title>
<path fill="none" stroke="black" d="M473.96,-1200.15C476.644,-1161.19 488.913,-1066.17 544.974,-1018.42 554.48,-1010.33 565.641,-1004.35 577.468,-999.973"/>
<polygon fill="black" stroke="black" points="578.68,-1003.26 587.076,-996.797 576.483,-996.612 578.68,-1003.26"/>
</g>
<!-- Core_ThrowOn -->
<g id="node16" class="node"><title>Core_ThrowOn</title>
<polygon fill="lightgrey" stroke="black" points="689.282,-1063.42 625.938,-1045.42 689.282,-1027.42 752.626,-1045.42 689.282,-1063.42"/>
<polyline fill="none" stroke="black" points="637.481,-1048.7 637.481,-1042.14 "/>
<polyline fill="none" stroke="black" points="677.739,-1030.7 700.825,-1030.7 "/>
<polyline fill="none" stroke="black" points="741.083,-1042.14 741.083,-1048.7 "/>
<polyline fill="none" stroke="black" points="700.825,-1060.14 677.739,-1060.14 "/>
<text text-anchor="middle" x="689.282" y="-1041.72" font-family="Times,serif" font-size="14.00">ThrowOn</text>
</g>
<!-- Core_App&#45;&gt;Core_ThrowOn -->
<g id="edge10" class="edge"><title>Core_App&#45;&gt;Core_ThrowOn</title>
<path fill="none" stroke="black" d="M476.644,-1201.56C483.866,-1172.22 503.495,-1109.51 544.974,-1077.42 566.513,-1060.76 595.029,-1052.43 620.948,-1048.38"/>
<polygon fill="black" stroke="black" points="621.68,-1051.82 631.111,-1046.99 620.728,-1044.88 621.68,-1051.82"/>
</g>
<!-- Core_ComponentBase -->
<g id="node18" class="node"><title>Core_ComponentBase</title>
<polygon fill="none" stroke="black" points="1233.19,-1007.42 1130.19,-1007.42 1126.19,-1003.42 1126.19,-971.423 1229.19,-971.423 1233.19,-975.423 1233.19,-1007.42"/>
<polyline fill="none" stroke="black" points="1229.19,-1003.42 1126.19,-1003.42 "/>
<polyline fill="none" stroke="black" points="1229.19,-1003.42 1229.19,-971.423 "/>
<polyline fill="none" stroke="black" points="1229.19,-1003.42 1233.19,-1007.42 "/>
<text text-anchor="middle" x="1179.69" y="-985.723" font-family="Times,serif" font-size="14.00">ComponentBase</text>
</g>
<!-- Core_App&#45;&gt;Core_ComponentBase -->
<g id="edge22" class="edge"><title>Core_App&#45;&gt;Core_ComponentBase</title>
<path fill="none" stroke="black" stroke-dasharray="1,5" d="M481.337,-1231.33C492.886,-1249.63 515.907,-1281.14 544.974,-1295.42 602.753,-1323.81 784.001,-1279.37 833.589,-1320.42 879.11,-1358.11 822.484,-1412.74 869.589,-1448.42 908.665,-1478.02 1052.38,-1479.63 1090.19,-1448.42 1157.24,-1393.06 1174.05,-1108.77 1177.74,-1017.6"/>
<polygon fill="black" stroke="black" points="1181.25,-1017.59 1178.13,-1007.47 1174.25,-1017.33 1181.25,-1017.59"/>
</g>
<!-- Core_Functions -->
<g id="node19" class="node"><title>Core_Functions</title>
<ellipse fill="none" stroke="black" cx="689.282" cy="-1401.42" rx="45.4919" ry="18"/>
<text text-anchor="middle" x="689.282" y="-1397.72" font-family="Times,serif" font-size="14.00">Functions</text>
</g>
<!-- Core_App&#45;&gt;Core_Functions -->
<g id="edge21" class="edge"><title>Core_App&#45;&gt;Core_Functions</title>
<path fill="none" stroke="black" stroke-dasharray="1,5" d="M475.651,-1233.78C481.403,-1266.16 498.955,-1338.4 544.974,-1374.42 569.941,-1393.97 604.776,-1400.85 633.849,-1402.78"/>
<polygon fill="black" stroke="black" points="633.708,-1406.28 643.867,-1403.27 634.05,-1399.29 633.708,-1406.28"/>
</g>
<!-- Core_Kernel&#45;&gt;Core_AutoLoader -->
<g id="edge1" class="edge"><title>Core_Kernel&#45;&gt;Core_AutoLoader</title>
<path fill="none" stroke="black" d="M716.308,-1241.52C751.103,-1252.25 814.762,-1271.56 869.589,-1286.42 889.831,-1291.91 912.305,-1297.54 931.585,-1302.23"/>
<polygon fill="black" stroke="black" points="930.804,-1305.64 941.347,-1304.59 932.45,-1298.84 930.804,-1305.64"/>
</g>
<!-- Core_Kernel&#45;&gt;Core_ExceptionManager -->
<g id="edge4" class="edge"><title>Core_Kernel&#45;&gt;Core_ExceptionManager</title>
<path fill="none" stroke="black" d="M713.585,-1242.52C742.993,-1254.57 794.456,-1277.58 833.589,-1305.42 851.772,-1318.36 850.078,-1329.59 869.589,-1340.42 882.294,-1347.48 896.838,-1352.71 911.081,-1356.59"/>
<polygon fill="black" stroke="black" points="910.314,-1360 920.867,-1359.06 912.029,-1353.21 910.314,-1360"/>
</g>
<!-- Core_Kernel&#45;&gt;Core_View -->
<g id="edge7" class="edge"><title>Core_Kernel&#45;&gt;Core_View</title>
<path fill="none" stroke="black" d="M720.072,-1226.66C752.188,-1217.91 802.829,-1199.7 833.589,-1166.42 864.521,-1132.96 835.545,-1100.71 869.589,-1070.42 889.471,-1052.73 919.12,-1046.22 942.523,-1044"/>
<polygon fill="black" stroke="black" points="943.058,-1047.48 952.779,-1043.26 942.553,-1040.49 943.058,-1047.48"/>
</g>
<!-- Core_Kernel&#45;&gt;Core_Configer -->
<g id="edge2" class="edge"><title>Core_Kernel&#45;&gt;Core_Configer</title>
<path fill="none" stroke="black" d="M715.983,-1225.05C750.682,-1213.85 814.513,-1193.66 869.589,-1178.42 891.829,-1172.27 916.8,-1166.05 937.255,-1161.13"/>
<polygon fill="black" stroke="black" points="938.286,-1164.49 947.2,-1158.76 936.661,-1157.68 938.286,-1164.49"/>
</g>
<!-- Core_Kernel&#45;&gt;Core_Logger -->
<g id="edge3" class="edge"><title>Core_Kernel&#45;&gt;Core_Logger</title>
<path fill="none" stroke="black" d="M718.201,-1240.91C750.074,-1250.77 801.883,-1271.03 833.589,-1305.42 862.511,-1336.79 837.351,-1366.47 869.589,-1394.42 889.312,-1411.52 918.201,-1418.13 941.326,-1420.54"/>
<polygon fill="black" stroke="black" points="941.24,-1424.04 951.492,-1421.37 941.812,-1417.07 941.24,-1424.04"/>
</g>
<!-- Core_Kernel&#45;&gt;Core_Route -->
<g id="edge5" class="edge"><title>Core_Kernel&#45;&gt;Core_Route</title>
<path fill="none" stroke="black" d="M715.88,-1225.2C746.016,-1214.71 796.632,-1194.5 833.589,-1166.42 853.165,-1151.55 848.658,-1137.32 869.589,-1124.42 888.523,-1112.76 912.217,-1106.13 932.699,-1102.36"/>
<polygon fill="black" stroke="black" points="933.477,-1105.78 942.767,-1100.69 932.329,-1098.88 933.477,-1105.78"/>
</g>
<!-- Core_Kernel&#45;&gt;Core_RuntimeState -->
<g id="edge6" class="edge"><title>Core_Kernel&#45;&gt;Core_RuntimeState</title>
<path fill="none" stroke="black" d="M728.905,-1236.9C779.081,-1241.42 866.992,-1249.34 924.061,-1254.48"/>
<polygon fill="black" stroke="black" points="924.068,-1258 934.342,-1255.41 924.696,-1251.03 924.068,-1258"/>
</g>
<!-- Core_Kernel&#45;&gt;Core_SuperGlobal -->
<g id="edge8" class="edge"><title>Core_Kernel&#45;&gt;Core_SuperGlobal</title>
<path fill="none" stroke="black" d="M728.309,-1229.73C779.175,-1224.8 869.573,-1216.03 926.758,-1210.48"/>
<polygon fill="black" stroke="black" points="927.417,-1213.93 937.033,-1209.48 926.741,-1206.97 927.417,-1213.93"/>
</g>
<!-- Core_SingletonEx -->
<g id="node4" class="node"><title>Core_SingletonEx</title>
<polygon fill="lightgrey" stroke="black" points="1370.29,-1260.42 1294.21,-1242.42 1370.29,-1224.42 1446.38,-1242.42 1370.29,-1260.42"/>
<polyline fill="none" stroke="black" points="1305.89,-1245.19 1305.89,-1239.66 "/>
<polyline fill="none" stroke="black" points="1358.62,-1227.19 1381.97,-1227.19 "/>
<polyline fill="none" stroke="black" points="1434.7,-1239.66 1434.7,-1245.19 "/>
<polyline fill="none" stroke="black" points="1381.97,-1257.66 1358.62,-1257.66 "/>
<text text-anchor="middle" x="1370.29" y="-1238.72" font-family="Times,serif" font-size="14.00">SingletonEx</text>
</g>
<!-- Core_View&#45;&gt;Core_ComponentBase -->
<g id="edge31" class="edge"><title>Core_View&#45;&gt;Core_ComponentBase</title>
<path fill="none" stroke="black" stroke-dasharray="1,5" d="M1007.05,-1037.38C1029.26,-1032.15 1061.92,-1024.22 1090.19,-1016.42 1098.63,-1014.1 1107.48,-1011.54 1116.19,-1008.95"/>
<polygon fill="black" stroke="black" points="1117.37,-1012.25 1125.94,-1006.02 1115.36,-1005.54 1117.37,-1012.25"/>
</g>
<!-- Core_Configer&#45;&gt;Core_ComponentBase -->
<g id="edge27" class="edge"><title>Core_Configer&#45;&gt;Core_ComponentBase</title>
<path fill="none" stroke="black" stroke-dasharray="1,5" d="M1012.64,-1149.73C1035.95,-1147.11 1067.38,-1140.58 1090.19,-1124.42 1128.57,-1097.23 1154.66,-1047.67 1168.08,-1016.76"/>
<polygon fill="black" stroke="black" points="1171.36,-1018 1172,-1007.43 1164.9,-1015.29 1171.36,-1018"/>
</g>
<!-- Core_Logger&#45;&gt;Core_ComponentBase -->
<g id="edge32" class="edge"><title>Core_Logger&#45;&gt;Core_ComponentBase</title>
<path fill="none" stroke="black" stroke-dasharray="1,5" d="M1008.16,-1422.28C1032.99,-1421.52 1068.92,-1416.27 1090.19,-1394.42 1143.09,-1340.07 1168.87,-1100.7 1176.33,-1017.8"/>
<polygon fill="black" stroke="black" points="1179.82,-1018.1 1177.2,-1007.83 1172.84,-1017.49 1179.82,-1018.1"/>
</g>
<!-- Core_Route&#45;&gt;Core_ComponentBase -->
<g id="edge28" class="edge"><title>Core_Route&#45;&gt;Core_ComponentBase</title>
<path fill="none" stroke="black" stroke-dasharray="1,5" d="M1015.47,-1093.38C1037.8,-1089.71 1066.93,-1082.88 1090.19,-1070.42 1115.98,-1056.61 1140.12,-1033.56 1156.65,-1015.58"/>
<polygon fill="black" stroke="black" points="1159.62,-1017.51 1163.68,-1007.72 1154.41,-1012.84 1159.62,-1017.51"/>
</g>
<!-- Core_RuntimeState&#45;&gt;Core_ComponentBase -->
<g id="edge30" class="edge"><title>Core_RuntimeState&#45;&gt;Core_ComponentBase</title>
<path fill="none" stroke="black" stroke-dasharray="1,5" d="M1025.61,-1257.97C1047.42,-1255.07 1072.67,-1248.16 1090.19,-1232.42 1153.82,-1175.26 1171.76,-1068.59 1176.77,-1017.76"/>
<polygon fill="black" stroke="black" points="1180.28,-1017.79 1177.68,-1007.52 1173.31,-1017.17 1180.28,-1017.79"/>
</g>
<!-- Core_HttpServer -->
<g id="node13" class="node"><title>Core_HttpServer</title>
<polygon fill="lightgrey" stroke="black" points="979.888,-1007.42 910.176,-989.423 979.888,-971.423 1049.6,-989.423 979.888,-1007.42"/>
<polyline fill="none" stroke="black" points="921.795,-992.423 921.795,-986.423 "/>
<polyline fill="none" stroke="black" points="968.269,-974.423 991.507,-974.423 "/>
<polyline fill="none" stroke="black" points="1037.98,-986.423 1037.98,-992.423 "/>
<polyline fill="none" stroke="black" points="991.507,-1004.42 968.269,-1004.42 "/>
<text text-anchor="middle" x="979.888" y="-985.723" font-family="Times,serif" font-size="14.00">HttpServer</text>
</g>
<!-- Core_HttpServer&#45;&gt;Core_ComponentBase -->
<g id="edge33" class="edge"><title>Core_HttpServer&#45;&gt;Core_ComponentBase</title>
<path fill="none" stroke="black" stroke-dasharray="1,5" d="M1049.79,-989.423C1071.25,-989.423 1094.8,-989.423 1115.82,-989.423"/>
<polygon fill="black" stroke="black" points="1115.92,-992.923 1125.92,-989.423 1115.92,-985.923 1115.92,-992.923"/>
</g>
<!-- Core_SuperGlobal&#45;&gt;Core_ComponentBase -->
<g id="edge29" class="edge"><title>Core_SuperGlobal&#45;&gt;Core_ComponentBase</title>
<path fill="none" stroke="black" stroke-dasharray="1,5" d="M1022.63,-1203.63C1044.8,-1200.73 1071.31,-1193.93 1090.19,-1178.42 1140.93,-1136.75 1164.18,-1059.37 1173.43,-1017.71"/>
<polygon fill="black" stroke="black" points="1176.91,-1018.2 1175.54,-1007.69 1170.06,-1016.76 1176.91,-1018.2"/>
</g>
<!-- Core_ComponentInterface -->
<g id="node17" class="node"><title>Core_ComponentInterface</title>
<polygon fill="none" stroke="black" points="1428.29,-1007.42 1306.29,-1007.42 1306.29,-971.423 1434.29,-971.423 1434.29,-1001.42 1428.29,-1007.42"/>
<polyline fill="none" stroke="black" points="1428.29,-1007.42 1428.29,-1001.42 "/>
<polyline fill="none" stroke="black" points="1434.29,-1001.42 1428.29,-1001.42 "/>
<text text-anchor="middle" x="1370.29" y="-985.723" font-family="Times,serif" font-size="14.00">ComponentInterface</text>
</g>
<!-- Core_ComponentBase&#45;&gt;Core_SingletonEx -->
<g id="edge35" class="edge"><title>Core_ComponentBase&#45;&gt;Core_SingletonEx</title>
<path fill="none" stroke="black" d="M1194.25,-1007.62C1227.72,-1052.51 1314.21,-1168.53 1351.62,-1218.72"/>
<polygon fill="black" stroke="black" points="1349.02,-1221.09 1357.81,-1227.01 1354.64,-1216.9 1349.02,-1221.09"/>
</g>
<!-- Core_ComponentBase&#45;&gt;Core_ComponentInterface -->
<g id="edge34" class="edge"><title>Core_ComponentBase&#45;&gt;Core_ComponentInterface</title>
<path fill="none" stroke="black" d="M1233.22,-989.423C1252.61,-989.423 1274.96,-989.423 1295.86,-989.423"/>
<polygon fill="black" stroke="black" points="1295.98,-992.923 1305.98,-989.423 1295.98,-985.923 1295.98,-992.923"/>
</g>
<!-- AppHelper -->
<g id="node20" class="node"><title>AppHelper</title>
<polygon fill="lightgrey" stroke="black" points="116.188,-1323.42 45.6372,-1305.42 116.188,-1287.42 186.739,-1305.42 116.188,-1323.42"/>
<polyline fill="none" stroke="black" points="57.2647,-1308.39 57.2647,-1302.46 "/>
<polyline fill="none" stroke="black" points="104.561,-1290.39 127.816,-1290.39 "/>
<polyline fill="none" stroke="black" points="175.112,-1302.46 175.112,-1308.39 "/>
<polyline fill="none" stroke="black" points="127.816,-1320.46 104.561,-1320.46 "/>
<text text-anchor="middle" x="116.188" y="-1301.72" font-family="Times,serif" font-size="14.00">AppHelper</text>
</g>
<!-- AppHelper&#45;&gt;Core_App -->
<g id="edge36" class="edge"><title>AppHelper&#45;&gt;Core_App</title>
<path fill="none" stroke="black" d="M162.191,-1299.12C219.895,-1290.37 322.632,-1272.48 407.441,-1245.42 419.825,-1241.47 433.054,-1235.9 444.233,-1230.77"/>
<polygon fill="black" stroke="black" points="445.904,-1233.85 453.458,-1226.42 442.92,-1227.52 445.904,-1233.85"/>
</g>
<!-- HelperTrait -->
<g id="node25" class="node"><title>HelperTrait</title>
<polygon fill="none" stroke="black" points="325.909,-1113.42 252.344,-1095.42 325.909,-1077.42 399.474,-1095.42 325.909,-1113.42"/>
<text text-anchor="middle" x="325.909" y="-1091.72" font-family="Times,serif" font-size="14.00">HelperTrait</text>
</g>
<!-- AppHelper&#45;&gt;HelperTrait -->
<g id="edge45" class="edge"><title>AppHelper&#45;&gt;HelperTrait</title>
<path fill="none" stroke="black" d="M165.453,-1299.95C182.836,-1296.1 201.75,-1289.56 216.376,-1278.42 270.182,-1237.47 302.535,-1161.51 316.602,-1121.55"/>
<polygon fill="black" stroke="black" points="319.95,-1122.57 319.862,-1111.98 313.324,-1120.32 319.95,-1122.57"/>
</g>
<!-- ControllerHelper -->
<g id="node21" class="node"><title>ControllerHelper</title>
<polygon fill="lightgrey" stroke="black" points="116.188,-1269.42 15.8115,-1251.42 116.188,-1233.42 216.565,-1251.42 116.188,-1269.42"/>
<polyline fill="none" stroke="black" points="27.6231,-1253.54 27.6231,-1249.31 "/>
<polyline fill="none" stroke="black" points="104.377,-1235.54 128,-1235.54 "/>
<polyline fill="none" stroke="black" points="204.753,-1249.31 204.753,-1253.54 "/>
<polyline fill="none" stroke="black" points="128,-1267.31 104.377,-1267.31 "/>
<text text-anchor="middle" x="116.188" y="-1247.72" font-family="Times,serif" font-size="14.00">ControllerHelper</text>
</g>
<!-- ControllerHelper&#45;&gt;Core_App -->
<g id="edge37" class="edge"><title>ControllerHelper&#45;&gt;Core_App</title>
<path fill="none" stroke="black" d="M182.121,-1245.19C254.808,-1238.21 370.328,-1227.11 430.989,-1221.29"/>
<polygon fill="black" stroke="black" points="431.681,-1224.74 441.301,-1220.3 431.012,-1217.77 431.681,-1224.74"/>
</g>
<!-- ControllerHelper&#45;&gt;HelperTrait -->
<g id="edge46" class="edge"><title>ControllerHelper&#45;&gt;HelperTrait</title>
<path fill="none" stroke="black" d="M170.631,-1243.13C186.202,-1239.11 202.691,-1233.17 216.376,-1224.42 258.438,-1197.55 292.625,-1149.23 310.762,-1119.97"/>
<polygon fill="black" stroke="black" points="313.893,-1121.55 316.076,-1111.19 307.904,-1117.93 313.893,-1121.55"/>
</g>
<!-- ModelHelper -->
<g id="node22" class="node"><title>ModelHelper</title>
<polygon fill="lightgrey" stroke="black" points="116.188,-1215.42 34.5777,-1197.42 116.188,-1179.42 197.799,-1197.42 116.188,-1215.42"/>
<polyline fill="none" stroke="black" points="46.296,-1200.01 46.296,-1194.84 "/>
<polyline fill="none" stroke="black" points="104.47,-1182.01 127.906,-1182.01 "/>
<polyline fill="none" stroke="black" points="186.08,-1194.84 186.08,-1200.01 "/>
<polyline fill="none" stroke="black" points="127.906,-1212.84 104.47,-1212.84 "/>
<text text-anchor="middle" x="116.188" y="-1193.72" font-family="Times,serif" font-size="14.00">ModelHelper</text>
</g>
<!-- ModelHelper&#45;&gt;Core_App -->
<g id="edge38" class="edge"><title>ModelHelper&#45;&gt;Core_App</title>
<path fill="none" stroke="black" d="M181.709,-1201.07C253.539,-1205.13 367.566,-1211.57 428.88,-1215.03"/>
<polygon fill="black" stroke="black" points="428.792,-1218.53 438.973,-1215.6 429.187,-1211.54 428.792,-1218.53"/>
</g>
<!-- ModelHelper&#45;&gt;HelperTrait -->
<g id="edge47" class="edge"><title>ModelHelper&#45;&gt;HelperTrait</title>
<path fill="none" stroke="black" d="M160.295,-1189.05C178.137,-1184.74 198.737,-1178.63 216.376,-1170.42 247.729,-1155.85 279.845,-1132.38 300.922,-1115.58"/>
<polygon fill="black" stroke="black" points="303.136,-1118.29 308.705,-1109.28 298.731,-1112.85 303.136,-1118.29"/>
</g>
<!-- ServiceHelper -->
<g id="node23" class="node"><title>ServiceHelper</title>
<polygon fill="lightgrey" stroke="black" points="116.188,-1161.42 29.8865,-1143.42 116.188,-1125.42 202.49,-1143.42 116.188,-1161.42"/>
<polyline fill="none" stroke="black" points="41.6337,-1145.87 41.6337,-1140.97 "/>
<polyline fill="none" stroke="black" points="104.441,-1127.87 127.935,-1127.87 "/>
<polyline fill="none" stroke="black" points="190.743,-1140.97 190.743,-1145.87 "/>
<polyline fill="none" stroke="black" points="127.935,-1158.97 104.441,-1158.97 "/>
<text text-anchor="middle" x="116.188" y="-1139.72" font-family="Times,serif" font-size="14.00">ServiceHelper</text>
</g>
<!-- ServiceHelper&#45;&gt;Core_App -->
<g id="edge39" class="edge"><title>ServiceHelper&#45;&gt;Core_App</title>
<path fill="none" stroke="black" d="M162.58,-1151.79C219.83,-1162.5 321.215,-1182 407.441,-1201.42 417.441,-1203.68 428.272,-1206.32 438.12,-1208.8"/>
<polygon fill="black" stroke="black" points="437.398,-1212.22 447.952,-1211.3 439.125,-1205.44 437.398,-1212.22"/>
</g>
<!-- ServiceHelper&#45;&gt;HelperTrait -->
<g id="edge48" class="edge"><title>ServiceHelper&#45;&gt;HelperTrait</title>
<path fill="none" stroke="black" d="M157.732,-1134.05C192.051,-1126.12 241.285,-1114.75 277.437,-1106.39"/>
<polygon fill="black" stroke="black" points="278.309,-1109.78 287.264,-1104.12 276.733,-1102.96 278.309,-1109.78"/>
</g>
<!-- ViewHelper -->
<g id="node24" class="node"><title>ViewHelper</title>
<polygon fill="lightgrey" stroke="black" points="116.188,-1107.42 40.1075,-1089.42 116.188,-1071.42 192.269,-1089.42 116.188,-1107.42"/>
<polyline fill="none" stroke="black" points="51.7851,-1092.19 51.7851,-1086.66 "/>
<polyline fill="none" stroke="black" points="104.511,-1074.19 127.866,-1074.19 "/>
<polyline fill="none" stroke="black" points="180.591,-1086.66 180.591,-1092.19 "/>
<polyline fill="none" stroke="black" points="127.866,-1104.66 104.511,-1104.66 "/>
<text text-anchor="middle" x="116.188" y="-1085.72" font-family="Times,serif" font-size="14.00">ViewHelper</text>
</g>
<!-- ViewHelper&#45;&gt;Core_App -->
<g id="edge40" class="edge"><title>ViewHelper&#45;&gt;Core_App</title>
<path fill="none" stroke="black" d="M153.378,-1098.69C229.912,-1118.3 401.673,-1162.49 407.441,-1165.42 423.997,-1173.84 440.182,-1187.11 452.104,-1198.15"/>
<polygon fill="black" stroke="black" points="449.981,-1200.96 459.628,-1205.34 454.817,-1195.9 449.981,-1200.96"/>
</g>
<!-- ViewHelper&#45;&gt;HelperTrait -->
<g id="edge49" class="edge"><title>ViewHelper&#45;&gt;HelperTrait</title>
<path fill="none" stroke="black" d="M184.342,-1091.36C205.217,-1091.97 228.362,-1092.63 249.746,-1093.25"/>
<polygon fill="black" stroke="black" points="249.66,-1096.75 259.757,-1093.54 249.862,-1089.75 249.66,-1096.75"/>
</g>
<!-- HelperTrait&#45;&gt;Core_App -->
<g id="edge42" class="edge"><title>HelperTrait&#45;&gt;Core_App</title>
<path fill="none" stroke="black" d="M362.515,-1104.66C377.43,-1109.71 394.314,-1117.1 407.441,-1127.42 430.339,-1145.43 448.539,-1173.81 459.539,-1193.88"/>
<polygon fill="black" stroke="black" points="456.584,-1195.78 464.35,-1202.99 462.773,-1192.51 456.584,-1195.78"/>
</g>
<!-- HelperTrait&#45;&gt;Core_SingletonEx -->
<g id="edge41" class="edge"><title>HelperTrait&#45;&gt;Core_SingletonEx</title>
<path fill="none" stroke="black" d="M331.484,-1112.36C348.407,-1171.49 413.397,-1370.15 544.974,-1461.42 598.162,-1498.32 623.55,-1487.42 688.282,-1487.42 688.282,-1487.42 688.282,-1487.42 980.888,-1487.42 1146.5,-1487.42 1299.09,-1326.11 1350.74,-1265.27"/>
<polygon fill="black" stroke="black" points="1353.61,-1267.29 1357.35,-1257.38 1348.24,-1262.8 1353.61,-1267.29"/>
</g>
<!-- HelperTrait&#45;&gt;Core_ExtendableStaticCallTrait -->
<g id="edge43" class="edge"><title>HelperTrait&#45;&gt;Core_ExtendableStaticCallTrait</title>
<path fill="none" stroke="black" d="M354.362,-1084.19C395.288,-1067.81 474.993,-1037.25 544.974,-1018.42 567.235,-1012.43 591.79,-1007.29 614.191,-1003.15"/>
<polygon fill="black" stroke="black" points="615.099,-1006.54 624.316,-1001.31 613.853,-999.651 615.099,-1006.54"/>
</g>
<!-- HelperTrait&#45;&gt;Core_ThrowOn -->
<g id="edge44" class="edge"><title>HelperTrait&#45;&gt;Core_ThrowOn</title>
<path fill="none" stroke="black" d="M373.412,-1088.99C440.911,-1079.65 565.643,-1062.39 636.163,-1052.63"/>
<polygon fill="black" stroke="black" points="636.735,-1056.09 646.161,-1051.25 635.776,-1049.15 636.735,-1056.09"/>
</g>
<!-- DB_DB -->
<g id="node26" class="node"><title>DB_DB</title>
<ellipse fill="none" stroke="black" cx="1179.69" cy="-68.4233" rx="27" ry="18"/>
<text text-anchor="middle" x="1179.69" y="-64.7233" font-family="Times,serif" font-size="14.00">DB</text>
</g>
<!-- DB_DBAdvanceTrait -->
<g id="node27" class="node"><title>DB_DBAdvanceTrait</title>
<polygon fill="none" stroke="black" points="1370.29,-59.4233 1269.08,-41.4233 1370.29,-23.4233 1471.51,-41.4233 1370.29,-59.4233"/>
<text text-anchor="middle" x="1370.29" y="-37.7233" font-family="Times,serif" font-size="14.00">DBAdvanceTrait</text>
</g>
<!-- DB_DB&#45;&gt;DB_DBAdvanceTrait -->
<g id="edge50" class="edge"><title>DB_DB&#45;&gt;DB_DBAdvanceTrait</title>
<path fill="none" stroke="black" d="M1206.52,-64.7257C1231.39,-61.1656 1270.04,-55.6323 1303.44,-50.8509"/>
<polygon fill="black" stroke="black" points="1304.21,-54.276 1313.61,-49.3941 1303.22,-47.3466 1304.21,-54.276"/>
</g>
<!-- DB_DBInterface -->
<g id="node28" class="node"><title>DB_DBInterface</title>
<polygon fill="none" stroke="black" points="1405.79,-113.423 1328.79,-113.423 1328.79,-77.4233 1411.79,-77.4233 1411.79,-107.423 1405.79,-113.423"/>
<polyline fill="none" stroke="black" points="1405.79,-113.423 1405.79,-107.423 "/>
<polyline fill="none" stroke="black" points="1411.79,-107.423 1405.79,-107.423 "/>
<text text-anchor="middle" x="1370.29" y="-91.7233" font-family="Times,serif" font-size="14.00">DBInterface</text>
</g>
<!-- DB_DB&#45;&gt;DB_DBInterface -->
<g id="edge51" class="edge"><title>DB_DB&#45;&gt;DB_DBInterface</title>
<path fill="none" stroke="black" d="M1206.52,-72.121C1235.17,-76.2222 1282.11,-82.9422 1318.24,-88.1145"/>
<polygon fill="black" stroke="black" points="1318.2,-91.6444 1328.59,-89.5969 1319.19,-84.7151 1318.2,-91.6444"/>
</g>
<!-- CallableView -->
<g id="node29" class="node"><title>CallableView</title>
<polygon fill="none" stroke="black" points="734.782,-896.423 643.782,-896.423 643.782,-892.423 639.782,-892.423 639.782,-888.423 643.782,-888.423 643.782,-868.423 639.782,-868.423 639.782,-864.423 643.782,-864.423 643.782,-860.423 734.782,-860.423 734.782,-896.423"/>
<polyline fill="none" stroke="black" points="643.782,-892.423 647.782,-892.423 647.782,-888.423 643.782,-888.423 "/>
<polyline fill="none" stroke="black" points="643.782,-868.423 647.782,-868.423 647.782,-864.423 643.782,-864.423 "/>
<text text-anchor="middle" x="689.282" y="-874.723" font-family="Times,serif" font-size="14.00">CallableView</text>
</g>
<!-- CallableView&#45;&gt;Core_View -->
<g id="edge53" class="edge"><title>CallableView&#45;&gt;Core_View</title>
<path fill="none" stroke="black" d="M734.695,-896.549C765.045,-910.503 804.822,-932.028 833.589,-959.423 855.288,-980.086 845.288,-998.896 869.589,-1016.42 890.898,-1031.79 919.962,-1038.46 942.763,-1041.34"/>
<polygon fill="black" stroke="black" points="942.432,-1044.82 952.748,-1042.41 943.178,-1037.86 942.432,-1044.82"/>
</g>
<!-- DBManager -->
<g id="node30" class="node"><title>DBManager</title>
<polygon fill="none" stroke="black" points="1021.89,-86.4233 937.888,-86.4233 937.888,-82.4233 933.888,-82.4233 933.888,-78.4233 937.888,-78.4233 937.888,-58.4233 933.888,-58.4233 933.888,-54.4233 937.888,-54.4233 937.888,-50.4233 1021.89,-50.4233 1021.89,-86.4233"/>
<polyline fill="none" stroke="black" points="937.888,-82.4233 941.888,-82.4233 941.888,-78.4233 937.888,-78.4233 "/>
<polyline fill="none" stroke="black" points="937.888,-58.4233 941.888,-58.4233 941.888,-54.4233 937.888,-54.4233 "/>
<text text-anchor="middle" x="979.888" y="-64.7233" font-family="Times,serif" font-size="14.00">DBManager</text>
</g>
<!-- DBManager&#45;&gt;Core_ComponentBase -->
<g id="edge75" class="edge"><title>DBManager&#45;&gt;Core_ComponentBase</title>
<path fill="none" stroke="black" stroke-dasharray="1,5" d="M1022.04,-78.0938C1045.91,-85.937 1074.32,-99.5602 1090.19,-122.423 1139.12,-192.908 1170.82,-819.218 1177.41,-960.983"/>
<polygon fill="black" stroke="black" points="1173.92,-961.229 1177.87,-971.058 1180.91,-960.908 1173.92,-961.229"/>
</g>
<!-- DBManager&#45;&gt;DB_DB -->
<g id="edge52" class="edge"><title>DBManager&#45;&gt;DB_DB</title>
<path fill="none" stroke="black" d="M1022.35,-68.4233C1057.72,-68.4233 1108.09,-68.4233 1142.01,-68.4233"/>
<polygon fill="black" stroke="black" points="1142.4,-71.9234 1152.4,-68.4233 1142.4,-64.9234 1142.4,-71.9234"/>
</g>
<!-- DBReusePoolProxy -->
<g id="node31" class="node"><title>DBReusePoolProxy</title>
<polygon fill="none" stroke="black" points="751.782,-86.4233 626.782,-86.4233 626.782,-82.4233 622.782,-82.4233 622.782,-78.4233 626.782,-78.4233 626.782,-58.4233 622.782,-58.4233 622.782,-54.4233 626.782,-54.4233 626.782,-50.4233 751.782,-50.4233 751.782,-86.4233"/>
<polyline fill="none" stroke="black" points="626.782,-82.4233 630.782,-82.4233 630.782,-78.4233 626.782,-78.4233 "/>
<polyline fill="none" stroke="black" points="626.782,-58.4233 630.782,-58.4233 630.782,-54.4233 626.782,-54.4233 "/>
<text text-anchor="middle" x="689.282" y="-64.7233" font-family="Times,serif" font-size="14.00">DBReusePoolProxy</text>
</g>
<!-- DBReusePoolProxy&#45;&gt;DBManager -->
<g id="edge54" class="edge"><title>DBReusePoolProxy&#45;&gt;DBManager</title>
<path fill="none" stroke="black" d="M751.841,-68.4233C804.235,-68.4233 878.61,-68.4233 927.771,-68.4233"/>
<polygon fill="black" stroke="black" points="927.862,-71.9234 937.862,-68.4233 927.862,-64.9234 927.862,-71.9234"/>
</g>
<!-- EmptyView -->
<g id="node32" class="node"><title>EmptyView</title>
<polygon fill="none" stroke="black" points="730.782,-842.423 647.782,-842.423 647.782,-838.423 643.782,-838.423 643.782,-834.423 647.782,-834.423 647.782,-814.423 643.782,-814.423 643.782,-810.423 647.782,-810.423 647.782,-806.423 730.782,-806.423 730.782,-842.423"/>
<polyline fill="none" stroke="black" points="647.782,-838.423 651.782,-838.423 651.782,-834.423 647.782,-834.423 "/>
<polyline fill="none" stroke="black" points="647.782,-814.423 651.782,-814.423 651.782,-810.423 647.782,-810.423 "/>
<text text-anchor="middle" x="689.282" y="-820.723" font-family="Times,serif" font-size="14.00">EmptyView</text>
</g>
<!-- EmptyView&#45;&gt;Core_View -->
<g id="edge55" class="edge"><title>EmptyView&#45;&gt;Core_View</title>
<path fill="none" stroke="black" d="M730.931,-820.842C763.019,-820.366 806.718,-825.31 833.589,-851.423 887.417,-903.734 817.246,-962.628 869.589,-1016.42 888.35,-1035.7 918.53,-1042.06 942.428,-1043.81"/>
<polygon fill="black" stroke="black" points="942.407,-1047.31 952.568,-1044.31 942.754,-1040.32 942.407,-1047.31"/>
</g>
<!-- FacadesAutoLoader -->
<g id="node33" class="node"><title>FacadesAutoLoader</title>
<polygon fill="none" stroke="black" points="1042.39,-167.423 917.388,-167.423 917.388,-163.423 913.388,-163.423 913.388,-159.423 917.388,-159.423 917.388,-139.423 913.388,-139.423 913.388,-135.423 917.388,-135.423 917.388,-131.423 1042.39,-131.423 1042.39,-167.423"/>
<polyline fill="none" stroke="black" points="917.388,-163.423 921.388,-163.423 921.388,-159.423 917.388,-159.423 "/>
<polyline fill="none" stroke="black" points="917.388,-139.423 921.388,-139.423 921.388,-135.423 917.388,-135.423 "/>
<text text-anchor="middle" x="979.888" y="-145.723" font-family="Times,serif" font-size="14.00">FacadesAutoLoader</text>
</g>
<!-- FacadesAutoLoader&#45;&gt;Core_ComponentBase -->
<g id="edge62" class="edge"><title>FacadesAutoLoader&#45;&gt;Core_ComponentBase</title>
<path fill="none" stroke="black" stroke-dasharray="1,5" d="M1042.5,-167.106C1060.61,-175.287 1078.64,-186.966 1090.19,-203.423 1178.35,-329.028 1180.03,-834.432 1179.03,-960.716"/>
<polygon fill="black" stroke="black" points="1175.53,-961.062 1178.94,-971.093 1182.53,-961.126 1175.53,-961.062"/>
</g>
<!-- FacadesBase -->
<g id="node34" class="node"><title>FacadesBase</title>
<ellipse fill="none" stroke="black" cx="689.282" cy="-122.423" rx="55.7903" ry="18"/>
<text text-anchor="middle" x="689.282" y="-118.723" font-family="Times,serif" font-size="14.00">FacadesBase</text>
</g>
<!-- FacadesBase&#45;&gt;FacadesAutoLoader -->
<g id="edge57" class="edge"><title>FacadesBase&#45;&gt;FacadesAutoLoader</title>
<path fill="none" stroke="black" d="M743.217,-127.376C789.194,-131.677 856.193,-137.945 907.013,-142.699"/>
<polygon fill="black" stroke="black" points="906.991,-146.212 917.274,-143.659 907.643,-139.243 906.991,-146.212"/>
</g>
<!-- JsonRpcClientBase -->
<g id="node35" class="node"><title>JsonRpcClientBase</title>
<ellipse fill="none" stroke="black" cx="689.282" cy="-284.423" rx="79.0865" ry="18"/>
<text text-anchor="middle" x="689.282" y="-280.723" font-family="Times,serif" font-size="14.00">JsonRpcClientBase</text>
</g>
<!-- JsonRpcExt -->
<g id="node36" class="node"><title>JsonRpcExt</title>
<polygon fill="none" stroke="black" points="1020.39,-302.423 939.388,-302.423 939.388,-298.423 935.388,-298.423 935.388,-294.423 939.388,-294.423 939.388,-274.423 935.388,-274.423 935.388,-270.423 939.388,-270.423 939.388,-266.423 1020.39,-266.423 1020.39,-302.423"/>
<polyline fill="none" stroke="black" points="939.388,-298.423 943.388,-298.423 943.388,-294.423 939.388,-294.423 "/>
<polyline fill="none" stroke="black" points="939.388,-274.423 943.388,-274.423 943.388,-270.423 939.388,-270.423 "/>
<text text-anchor="middle" x="979.888" y="-280.723" font-family="Times,serif" font-size="14.00">JsonRpcExt</text>
</g>
<!-- JsonRpcClientBase&#45;&gt;JsonRpcExt -->
<g id="edge56" class="edge"><title>JsonRpcClientBase&#45;&gt;JsonRpcExt</title>
<path fill="none" stroke="black" d="M768.764,-284.423C819.758,-284.423 884.71,-284.423 928.807,-284.423"/>
<polygon fill="black" stroke="black" points="928.992,-287.923 938.992,-284.423 928.992,-280.923 928.992,-287.923"/>
</g>
<!-- JsonRpcExt&#45;&gt;Core_ComponentBase -->
<g id="edge63" class="edge"><title>JsonRpcExt&#45;&gt;Core_ComponentBase</title>
<path fill="none" stroke="black" stroke-dasharray="1,5" d="M1020.61,-283.728C1044.26,-285.557 1072.93,-292.111 1090.19,-311.423 1177.73,-409.397 1180.05,-844.865 1179.07,-960.922"/>
<polygon fill="black" stroke="black" points="1175.57,-961.1 1178.97,-971.134 1182.57,-961.17 1175.57,-961.1"/>
</g>
<!-- Misc -->
<g id="node37" class="node"><title>Misc</title>
<polygon fill="none" stroke="black" points="716.282,-680.423 662.282,-680.423 662.282,-676.423 658.282,-676.423 658.282,-672.423 662.282,-672.423 662.282,-652.423 658.282,-652.423 658.282,-648.423 662.282,-648.423 662.282,-644.423 716.282,-644.423 716.282,-680.423"/>
<polyline fill="none" stroke="black" points="662.282,-676.423 666.282,-676.423 666.282,-672.423 662.282,-672.423 "/>
<polyline fill="none" stroke="black" points="662.282,-652.423 666.282,-652.423 666.282,-648.423 662.282,-648.423 "/>
<text text-anchor="middle" x="689.282" y="-658.723" font-family="Times,serif" font-size="14.00">Misc</text>
</g>
<!-- Misc&#45;&gt;Core_ComponentBase -->
<g id="edge65" class="edge"><title>Misc&#45;&gt;Core_ComponentBase</title>
<path fill="none" stroke="black" stroke-dasharray="1,5" d="M716.351,-665.485C745.413,-669.321 793.588,-676.952 833.589,-689.423 850.305,-694.635 852.89,-700.159 869.589,-705.423 964.857,-735.454 1014.16,-683.64 1090.19,-748.423 1154.82,-803.498 1172.27,-910.079 1176.97,-960.998"/>
<polygon fill="black" stroke="black" points="1173.5,-961.584 1177.81,-971.265 1180.48,-961.012 1173.5,-961.584"/>
</g>
<!-- Pager -->
<g id="node38" class="node"><title>Pager</title>
<polygon fill="none" stroke="black" points="716.282,-410.423 662.282,-410.423 662.282,-406.423 658.282,-406.423 658.282,-402.423 662.282,-402.423 662.282,-382.423 658.282,-382.423 658.282,-378.423 662.282,-378.423 662.282,-374.423 716.282,-374.423 716.282,-410.423"/>
<polyline fill="none" stroke="black" points="662.282,-406.423 666.282,-406.423 666.282,-402.423 662.282,-402.423 "/>
<polyline fill="none" stroke="black" points="662.282,-382.423 666.282,-382.423 666.282,-378.423 662.282,-378.423 "/>
<text text-anchor="middle" x="689.282" y="-388.723" font-family="Times,serif" font-size="14.00">Pager</text>
</g>
<!-- Pager&#45;&gt;Core_ComponentBase -->
<g id="edge64" class="edge"><title>Pager&#45;&gt;Core_ComponentBase</title>
<path fill="none" stroke="black" stroke-dasharray="1,5" d="M716.312,-390.384C747.568,-389.357 799.976,-392.341 833.589,-419.423 865.537,-445.163 837.78,-478.514 869.589,-504.423 947.105,-567.56 1019.45,-477.772 1090.19,-548.423 1149.06,-607.226 1171.24,-873.739 1177.02,-961.389"/>
<polygon fill="black" stroke="black" points="1173.53,-961.638 1177.66,-971.394 1180.52,-961.192 1173.53,-961.638"/>
</g>
<!-- PagerInterface -->
<g id="node39" class="node"><title>PagerInterface</title>
<polygon fill="none" stroke="black" points="1021.39,-410.423 932.388,-410.423 932.388,-374.423 1027.39,-374.423 1027.39,-404.423 1021.39,-410.423"/>
<polyline fill="none" stroke="black" points="1021.39,-410.423 1021.39,-404.423 "/>
<polyline fill="none" stroke="black" points="1027.39,-404.423 1021.39,-404.423 "/>
<text text-anchor="middle" x="979.888" y="-388.723" font-family="Times,serif" font-size="14.00">PagerInterface</text>
</g>
<!-- Pager&#45;&gt;PagerInterface -->
<g id="edge58" class="edge"><title>Pager&#45;&gt;PagerInterface</title>
<path fill="none" stroke="black" d="M716.403,-392.423C762.669,-392.423 859.999,-392.423 922.261,-392.423"/>
<polygon fill="black" stroke="black" points="922.318,-395.923 932.318,-392.423 922.318,-388.923 922.318,-395.923"/>
</g>
<!-- PluginForSwooleHttpd -->
<g id="node40" class="node"><title>PluginForSwooleHttpd</title>
<polygon fill="none" stroke="black" points="760.282,-626.423 618.282,-626.423 618.282,-622.423 614.282,-622.423 614.282,-618.423 618.282,-618.423 618.282,-598.423 614.282,-598.423 614.282,-594.423 618.282,-594.423 618.282,-590.423 760.282,-590.423 760.282,-626.423"/>
<polyline fill="none" stroke="black" points="618.282,-622.423 622.282,-622.423 622.282,-618.423 618.282,-618.423 "/>
<polyline fill="none" stroke="black" points="618.282,-598.423 622.282,-598.423 622.282,-594.423 618.282,-594.423 "/>
<text text-anchor="middle" x="689.282" y="-604.723" font-family="Times,serif" font-size="14.00">PluginForSwooleHttpd</text>
</g>
<!-- PluginForSwooleHttpd&#45;&gt;Core_ComponentBase -->
<g id="edge68" class="edge"><title>PluginForSwooleHttpd&#45;&gt;Core_ComponentBase</title>
<path fill="none" stroke="black" stroke-dasharray="1,5" d="M760.484,-613.968C784.562,-617.836 811.091,-624.376 833.589,-635.423 852.805,-644.859 850.3,-658.139 869.589,-667.423 959.232,-710.573 1015.37,-639.849 1090.19,-705.423 1166.44,-772.259 1177.79,-903.635 1178.93,-961.234"/>
<polygon fill="black" stroke="black" points="1175.43,-961.452 1179.04,-971.414 1182.43,-961.377 1175.43,-961.452"/>
</g>
<!-- RedisManager -->
<g id="node41" class="node"><title>RedisManager</title>
<polygon fill="none" stroke="black" points="1027.89,-356.423 931.888,-356.423 931.888,-352.423 927.888,-352.423 927.888,-348.423 931.888,-348.423 931.888,-328.423 927.888,-328.423 927.888,-324.423 931.888,-324.423 931.888,-320.423 1027.89,-320.423 1027.89,-356.423"/>
<polyline fill="none" stroke="black" points="931.888,-352.423 935.888,-352.423 935.888,-348.423 931.888,-348.423 "/>
<polyline fill="none" stroke="black" points="931.888,-328.423 935.888,-328.423 935.888,-324.423 931.888,-324.423 "/>
<text text-anchor="middle" x="979.888" y="-334.723" font-family="Times,serif" font-size="14.00">RedisManager</text>
</g>
<!-- RedisManager&#45;&gt;Core_ComponentBase -->
<g id="edge67" class="edge"><title>RedisManager&#45;&gt;Core_ComponentBase</title>
<path fill="none" stroke="black" stroke-dasharray="1,5" d="M1027.89,-338.517C1049.88,-341.117 1074.59,-348.165 1090.19,-365.423 1170.86,-454.708 1178.24,-851.187 1178.72,-961.092"/>
<polygon fill="black" stroke="black" points="1175.22,-961.387 1178.74,-971.378 1182.22,-961.368 1175.22,-961.387"/>
</g>
<!-- RedisSimpleCache -->
<g id="node42" class="node"><title>RedisSimpleCache</title>
<polygon fill="none" stroke="black" points="749.282,-356.423 629.282,-356.423 629.282,-352.423 625.282,-352.423 625.282,-348.423 629.282,-348.423 629.282,-328.423 625.282,-328.423 625.282,-324.423 629.282,-324.423 629.282,-320.423 749.282,-320.423 749.282,-356.423"/>
<polyline fill="none" stroke="black" points="629.282,-352.423 633.282,-352.423 633.282,-348.423 629.282,-348.423 "/>
<polyline fill="none" stroke="black" points="629.282,-328.423 633.282,-328.423 633.282,-324.423 629.282,-324.423 "/>
<text text-anchor="middle" x="689.282" y="-334.723" font-family="Times,serif" font-size="14.00">RedisSimpleCache</text>
</g>
<!-- RedisSimpleCache&#45;&gt;Core_ComponentBase -->
<g id="edge66" class="edge"><title>RedisSimpleCache&#45;&gt;Core_ComponentBase</title>
<path fill="none" stroke="black" stroke-dasharray="1,5" d="M749.3,-339.203C776.829,-342.034 808.886,-349.079 833.589,-365.423 857.645,-381.339 847.076,-401.392 869.589,-419.423 951.599,-485.105 1023.16,-423.506 1090.19,-504.423 1148.81,-575.201 1171.36,-868.519 1177.1,-961.214"/>
<polygon fill="black" stroke="black" points="1173.61,-961.483 1177.7,-971.254 1180.6,-961.062 1173.61,-961.483"/>
</g>
<!-- RedisSimpleCache&#45;&gt;RedisManager -->
<g id="edge59" class="edge"><title>RedisSimpleCache&#45;&gt;RedisManager</title>
<path fill="none" stroke="black" d="M749.382,-338.423C799.728,-338.423 871.631,-338.423 921.484,-338.423"/>
<polygon fill="black" stroke="black" points="921.772,-341.923 931.772,-338.423 921.772,-334.923 921.772,-341.923"/>
</g>
<!-- RouteHookDirectoryMode -->
<g id="node43" class="node"><title>RouteHookDirectoryMode</title>
<polygon fill="none" stroke="black" points="770.782,-572.423 607.782,-572.423 607.782,-568.423 603.782,-568.423 603.782,-564.423 607.782,-564.423 607.782,-544.423 603.782,-544.423 603.782,-540.423 607.782,-540.423 607.782,-536.423 770.782,-536.423 770.782,-572.423"/>
<polyline fill="none" stroke="black" points="607.782,-568.423 611.782,-568.423 611.782,-564.423 607.782,-564.423 "/>
<polyline fill="none" stroke="black" points="607.782,-544.423 611.782,-544.423 611.782,-540.423 607.782,-540.423 "/>
<text text-anchor="middle" x="689.282" y="-550.723" font-family="Times,serif" font-size="14.00">RouteHookDirectoryMode</text>
</g>
<!-- RouteHookDirectoryMode&#45;&gt;Core_ComponentBase -->
<g id="edge70" class="edge"><title>RouteHookDirectoryMode&#45;&gt;Core_ComponentBase</title>
<path fill="none" stroke="black" stroke-dasharray="1,5" d="M771.033,-559.163C792.53,-563.141 814.939,-569.945 833.589,-581.423 855.998,-595.214 847.104,-614.758 869.589,-628.423 954.674,-680.13 1016.58,-600.378 1090.19,-667.423 1134.22,-707.528 1164.58,-890.657 1174.85,-961.411"/>
<polygon fill="black" stroke="black" points="1171.39,-961.978 1176.27,-971.384 1178.32,-960.99 1171.39,-961.978"/>
</g>
<!-- RouteHookManager -->
<g id="node44" class="node"><title>RouteHookManager</title>
<polygon fill="none" stroke="black" points="753.282,-518.423 625.282,-518.423 625.282,-514.423 621.282,-514.423 621.282,-510.423 625.282,-510.423 625.282,-490.423 621.282,-490.423 621.282,-486.423 625.282,-486.423 625.282,-482.423 753.282,-482.423 753.282,-518.423"/>
<polyline fill="none" stroke="black" points="625.282,-514.423 629.282,-514.423 629.282,-510.423 625.282,-510.423 "/>
<polyline fill="none" stroke="black" points="625.282,-490.423 629.282,-490.423 629.282,-486.423 625.282,-486.423 "/>
<text text-anchor="middle" x="689.282" y="-496.723" font-family="Times,serif" font-size="14.00">RouteHookManager</text>
</g>
<!-- RouteHookManager&#45;&gt;Core_ComponentBase -->
<g id="edge71" class="edge"><title>RouteHookManager&#45;&gt;Core_ComponentBase</title>
<path fill="none" stroke="black" stroke-dasharray="1,5" d="M753.324,-500.902C780.113,-503.838 810.437,-511.052 833.589,-527.423 859.606,-545.82 843.47,-571.173 869.589,-589.423 951.205,-646.449 1017.52,-560.361 1090.19,-628.423 1139.12,-674.252 1166.92,-883.503 1175.66,-960.704"/>
<polygon fill="black" stroke="black" points="1172.23,-961.546 1176.81,-971.101 1179.19,-960.776 1172.23,-961.546"/>
</g>
<!-- RouteHookOneFileMode -->
<g id="node45" class="node"><title>RouteHookOneFileMode</title>
<polygon fill="none" stroke="black" points="766.782,-464.423 611.782,-464.423 611.782,-460.423 607.782,-460.423 607.782,-456.423 611.782,-456.423 611.782,-436.423 607.782,-436.423 607.782,-432.423 611.782,-432.423 611.782,-428.423 766.782,-428.423 766.782,-464.423"/>
<polyline fill="none" stroke="black" points="611.782,-460.423 615.782,-460.423 615.782,-456.423 611.782,-456.423 "/>
<polyline fill="none" stroke="black" points="611.782,-436.423 615.782,-436.423 615.782,-432.423 611.782,-432.423 "/>
<text text-anchor="middle" x="689.282" y="-442.723" font-family="Times,serif" font-size="14.00">RouteHookOneFileMode</text>
</g>
<!-- RouteHookOneFileMode&#45;&gt;Core_ComponentBase -->
<g id="edge72" class="edge"><title>RouteHookOneFileMode&#45;&gt;Core_ComponentBase</title>
<path fill="none" stroke="black" stroke-dasharray="1,5" d="M767.136,-447.765C790.377,-451.441 814.712,-458.931 833.589,-473.423 862.918,-495.939 840.234,-525.943 869.589,-548.423 948.764,-609.053 1018.48,-520.117 1090.19,-589.423 1144.02,-641.46 1169.17,-878.471 1176.4,-960.993"/>
<polygon fill="black" stroke="black" points="1172.93,-961.477 1177.27,-971.143 1179.9,-960.882 1172.93,-961.477"/>
</g>
<!-- RouteHookRewrite -->
<g id="node46" class="node"><title>RouteHookRewrite</title>
<polygon fill="none" stroke="black" points="750.282,-788.423 628.282,-788.423 628.282,-784.423 624.282,-784.423 624.282,-780.423 628.282,-780.423 628.282,-760.423 624.282,-760.423 624.282,-756.423 628.282,-756.423 628.282,-752.423 750.282,-752.423 750.282,-788.423"/>
<polyline fill="none" stroke="black" points="628.282,-784.423 632.282,-784.423 632.282,-780.423 628.282,-780.423 "/>
<polyline fill="none" stroke="black" points="628.282,-760.423 632.282,-760.423 632.282,-756.423 628.282,-756.423 "/>
<text text-anchor="middle" x="689.282" y="-766.723" font-family="Times,serif" font-size="14.00">RouteHookRewrite</text>
</g>
<!-- RouteHookRewrite&#45;&gt;Core_ComponentBase -->
<g id="edge73" class="edge"><title>RouteHookRewrite&#45;&gt;Core_ComponentBase</title>
<path fill="none" stroke="black" stroke-dasharray="1,5" d="M750.34,-777.344C776.435,-781.465 807.043,-787.824 833.589,-797.423 954.96,-841.311 1084.43,-924.469 1144.47,-965.415"/>
<polygon fill="black" stroke="black" points="1142.58,-968.369 1152.81,-971.141 1146.54,-962.597 1142.58,-968.369"/>
</g>
<!-- RouteHookRouteMap -->
<g id="node47" class="node"><title>RouteHookRouteMap</title>
<polygon fill="none" stroke="black" points="757.782,-734.423 620.782,-734.423 620.782,-730.423 616.782,-730.423 616.782,-726.423 620.782,-726.423 620.782,-706.423 616.782,-706.423 616.782,-702.423 620.782,-702.423 620.782,-698.423 757.782,-698.423 757.782,-734.423"/>
<polyline fill="none" stroke="black" points="620.782,-730.423 624.782,-730.423 624.782,-726.423 620.782,-726.423 "/>
<polyline fill="none" stroke="black" points="620.782,-706.423 624.782,-706.423 624.782,-702.423 620.782,-702.423 "/>
<text text-anchor="middle" x="689.282" y="-712.723" font-family="Times,serif" font-size="14.00">RouteHookRouteMap</text>
</g>
<!-- RouteHookRouteMap&#45;&gt;Core_ComponentBase -->
<g id="edge74" class="edge"><title>RouteHookRouteMap&#45;&gt;Core_ComponentBase</title>
<path fill="none" stroke="black" stroke-dasharray="1,5" d="M757.863,-728.79C865.017,-748.892 1064.47,-788.51 1090.19,-809.423 1138.67,-848.855 1162.67,-921.46 1172.69,-961.35"/>
<polygon fill="black" stroke="black" points="1169.32,-962.301 1175.04,-971.213 1176.12,-960.673 1169.32,-962.301"/>
</g>
<!-- StrictCheck -->
<g id="node48" class="node"><title>StrictCheck</title>
<polygon fill="none" stroke="black" points="1019.89,-248.423 939.888,-248.423 939.888,-244.423 935.888,-244.423 935.888,-240.423 939.888,-240.423 939.888,-220.423 935.888,-220.423 935.888,-216.423 939.888,-216.423 939.888,-212.423 1019.89,-212.423 1019.89,-248.423"/>
<polyline fill="none" stroke="black" points="939.888,-244.423 943.888,-244.423 943.888,-240.423 939.888,-240.423 "/>
<polyline fill="none" stroke="black" points="939.888,-220.423 943.888,-220.423 943.888,-216.423 939.888,-216.423 "/>
<text text-anchor="middle" x="979.888" y="-226.723" font-family="Times,serif" font-size="14.00">StrictCheck</text>
</g>
<!-- StrictCheck&#45;&gt;Core_ComponentBase -->
<g id="edge69" class="edge"><title>StrictCheck&#45;&gt;Core_ComponentBase</title>
<path fill="none" stroke="black" stroke-dasharray="1,5" d="M1020.14,-229.631C1043.91,-231.38 1072.89,-237.883 1090.19,-257.423 1137.74,-311.156 1169.88,-832.281 1177.13,-960.858"/>
<polygon fill="black" stroke="black" points="1173.65,-961.289 1177.7,-971.078 1180.64,-960.899 1173.65,-961.289"/>
</g>
<!-- StrictModelTrait -->
<g id="node49" class="node"><title>StrictModelTrait</title>
<polygon fill="none" stroke="black" points="689.282,-248.423 590.243,-230.423 689.282,-212.423 788.32,-230.423 689.282,-248.423"/>
<text text-anchor="middle" x="689.282" y="-226.723" font-family="Times,serif" font-size="14.00">StrictModelTrait</text>
</g>
<!-- StrictModelTrait&#45;&gt;StrictCheck -->
<g id="edge60" class="edge"><title>StrictModelTrait&#45;&gt;StrictCheck</title>
<path fill="none" stroke="black" d="M788.393,-230.423C835.744,-230.423 890.512,-230.423 929.136,-230.423"/>
<polygon fill="black" stroke="black" points="929.582,-233.923 939.582,-230.423 929.582,-226.923 929.582,-233.923"/>
</g>
<!-- StrictServiceTrait -->
<g id="node50" class="node"><title>StrictServiceTrait</title>
<polygon fill="none" stroke="black" points="689.282,-194.423 585.552,-176.423 689.282,-158.423 793.011,-176.423 689.282,-194.423"/>
<text text-anchor="middle" x="689.282" y="-172.723" font-family="Times,serif" font-size="14.00">StrictServiceTrait</text>
</g>
<!-- StrictServiceTrait&#45;&gt;StrictCheck -->
<g id="edge61" class="edge"><title>StrictServiceTrait&#45;&gt;StrictCheck</title>
<path fill="none" stroke="black" d="M739.895,-185.706C793.039,-195.65 876.861,-211.333 929.801,-221.239"/>
<polygon fill="black" stroke="black" points="929.163,-224.68 939.636,-223.079 930.45,-217.799 929.163,-224.68"/>
</g>
<!-- HttpServer -->
<g id="node51" class="node"><title>HttpServer</title>
<polygon fill="lightgrey" stroke="black" points="325.909,-624.423 256.197,-606.423 325.909,-588.423 395.621,-606.423 325.909,-624.423"/>
<polyline fill="none" stroke="black" points="267.816,-609.423 267.816,-603.423 "/>
<polyline fill="none" stroke="black" points="314.29,-591.423 337.528,-591.423 "/>
<polyline fill="none" stroke="black" points="384.002,-603.423 384.002,-609.423 "/>
<polyline fill="none" stroke="black" points="337.528,-621.423 314.29,-621.423 "/>
<text text-anchor="middle" x="325.909" y="-602.723" font-family="Times,serif" font-size="14.00">HttpServer</text>
</g>
<!-- HttpServer&#45;&gt;Core_HttpServer -->
<g id="edge76" class="edge"><title>HttpServer&#45;&gt;Core_HttpServer</title>
<path fill="none" stroke="black" d="M332.295,-622.917C351.194,-677.857 420.19,-855.46 544.974,-931.423 600.115,-964.991 769.686,-955.28 833.589,-964.423 865.409,-968.976 900.974,-975.078 928.953,-980.114"/>
<polygon fill="black" stroke="black" points="928.433,-983.576 938.897,-981.916 929.682,-976.689 928.433,-983.576"/>
</g>
<!-- DuckPhp -->
<g id="node52" class="node"><title>DuckPhp</title>
<polygon fill="lightgrey" stroke="black" points="325.909,-570.423 264.242,-552.423 325.909,-534.423 387.576,-552.423 325.909,-570.423"/>
<polyline fill="none" stroke="black" points="275.761,-555.786 275.761,-549.061 "/>
<polyline fill="none" stroke="black" points="314.39,-537.786 337.428,-537.786 "/>
<polyline fill="none" stroke="black" points="376.057,-549.061 376.057,-555.786 "/>
<polyline fill="none" stroke="black" points="337.428,-567.061 314.39,-567.061 "/>
<text text-anchor="middle" x="325.909" y="-548.723" font-family="Times,serif" font-size="14.00">DuckPhp</text>
</g>
<!-- DuckPhp&#45;&gt;Core_App -->
<g id="edge77" class="edge"><title>DuckPhp&#45;&gt;Core_App</title>
<path fill="none" stroke="black" d="M370.352,-557.557C384.23,-561.389 398.336,-568.012 407.441,-579.423 446.03,-627.786 465.688,-1073.35 470.191,-1189.72"/>
<polygon fill="black" stroke="black" points="466.702,-1190.07 470.58,-1199.93 473.697,-1189.81 466.702,-1190.07"/>
</g>
<!-- DuckPhp&#45;&gt;DBManager -->
<g id="edge80" class="edge"><title>DuckPhp&#45;&gt;DBManager</title>
<path fill="none" stroke="black" d="M327.916,-534.794C333.306,-459.063 365.696,-159.838 544.974,-41.4233 663.348,36.7631 841.801,-14.4129 928.305,-47.1426"/>
<polygon fill="black" stroke="black" points="927.048,-50.409 937.638,-50.7379 929.564,-43.8769 927.048,-50.409"/>
</g>
<!-- DuckPhp&#45;&gt;Pager -->
<g id="edge79" class="edge"><title>DuckPhp&#45;&gt;Pager</title>
<path fill="none" stroke="black" d="M342.897,-539.24C377.349,-511.648 462.19,-448.008 544.974,-419.423 580.248,-407.243 622.411,-400.138 651.836,-396.302"/>
<polygon fill="black" stroke="black" points="652.571,-399.738 662.065,-395.033 651.71,-392.791 652.571,-399.738"/>
</g>
<!-- DuckPhp&#45;&gt;RouteHookOneFileMode -->
<g id="edge81" class="edge"><title>DuckPhp&#45;&gt;RouteHookOneFileMode</title>
<path fill="none" stroke="black" d="M351.995,-541.828C392.121,-525.226 473.507,-492.964 544.974,-473.423 563.087,-468.471 582.734,-464.122 601.505,-460.442"/>
<polygon fill="black" stroke="black" points="602.364,-463.841 611.528,-458.523 601.048,-456.966 602.364,-463.841"/>
</g>
<!-- DuckPhp&#45;&gt;RouteHookRouteMap -->
<g id="edge78" class="edge"><title>DuckPhp&#45;&gt;RouteHookRouteMap</title>
<path fill="none" stroke="black" d="M359.737,-560.587C374.788,-565.034 392.552,-571.307 407.441,-579.423 476.167,-616.884 473.842,-656.764 544.974,-689.423 565.326,-698.767 588.722,-704.878 610.63,-708.873"/>
<polygon fill="black" stroke="black" points="610.129,-712.338 620.574,-710.565 611.303,-705.438 610.129,-712.338"/>
</g>
</g>
</svg>
