<?xml version="1.0" encoding="UTF-8" standalone="no"?>
<!DOCTYPE svg PUBLIC "-//W3C//DTD SVG 1.1//EN"
 "http://www.w3.org/Graphics/SVG/1.1/DTD/svg11.dtd">
<!-- Generated by graphviz version 2.38.0 (20140413.2041)
 -->
<!-- Title: G Pages: 1 -->
<svg width="1479pt" height="1580pt"
 viewBox="0.00 0.00 1478.86 1579.93" xmlns="http://www.w3.org/2000/svg" xmlns:xlink="http://www.w3.org/1999/xlink">
<g id="graph0" class="graph" transform="scale(1 1) rotate(0) translate(4 1575.93)">
<title>G</title>
<polygon fill="white" stroke="none" points="-4,4 -4,-1575.93 1474.86,-1575.93 1474.86,4 -4,4"/>
<g id="clust1" class="cluster"><title>cluster_Core</title>
<polygon fill="none" stroke="black" points="427.441,-1036.93 427.441,-1563.93 1438.04,-1563.93 1438.04,-1036.93 427.441,-1036.93"/>
<text text-anchor="middle" x="932.741" y="-1548.73" font-family="Times,serif" font-size="14.00">[DuckPhp\Core]</text>
</g>
<g id="clust2" class="cluster"><title>cluster_Helper</title>
<polygon fill="none" stroke="black" points="8,-1228.93 8,-1519.93 407.441,-1519.93 407.441,-1228.93 8,-1228.93"/>
<text text-anchor="middle" x="207.721" y="-1504.73" font-family="Times,serif" font-size="14.00">[DuckPhp\Helper]</text>
</g>
<g id="clust3" class="cluster"><title>cluster_DB</title>
<polygon fill="none" stroke="black" points="1128.14,-8.92842 1128.14,-137.928 1462.86,-137.928 1462.86,-8.92842 1128.14,-8.92842"/>
<text text-anchor="middle" x="1295.5" y="-122.728" font-family="Times,serif" font-size="14.00">[DuckPhp\DB]</text>
</g>
<g id="clust4" class="cluster"><title>cluster_Ext</title>
<polygon fill="none" stroke="black" points="630.728,-35.9284 630.728,-1028.93 1068.77,-1028.93 1068.77,-35.9284 630.728,-35.9284"/>
<text text-anchor="middle" x="849.75" y="-1013.73" font-family="Times,serif" font-size="14.00">[DuckPhp\Ext]</text>
</g>
<g id="clust5" class="cluster"><title>cluster_DuckPhp</title>
<polygon fill="none" stroke="black" points="248.053,-521.928 248.053,-650.928 403.765,-650.928 403.765,-521.928 248.053,-521.928"/>
<text text-anchor="middle" x="325.909" y="-635.728" font-family="Times,serif" font-size="14.00">[DuckPhp]</text>
</g>
<!-- Core_AppPluginTrait -->
<g id="node1" class="node"><title>Core_AppPluginTrait</title>
<polygon fill="none" stroke="black" points="742.593,-1176.93 649.923,-1158.93 742.593,-1140.93 835.263,-1158.93 742.593,-1176.93"/>
<text text-anchor="middle" x="742.593" y="-1155.23" font-family="Times,serif" font-size="14.00">AppPluginTrait</text>
</g>
<!-- Core_View -->
<g id="node7" class="node"><title>Core_View</title>
<polygon fill="none" stroke="black" points="1025.27,-1134.93 971.271,-1134.93 971.271,-1130.93 967.271,-1130.93 967.271,-1126.93 971.271,-1126.93 971.271,-1106.93 967.271,-1106.93 967.271,-1102.93 971.271,-1102.93 971.271,-1098.93 1025.27,-1098.93 1025.27,-1134.93"/>
<polyline fill="none" stroke="black" points="971.271,-1130.93 975.271,-1130.93 975.271,-1126.93 971.271,-1126.93 "/>
<polyline fill="none" stroke="black" points="971.271,-1106.93 975.271,-1106.93 975.271,-1102.93 971.271,-1102.93 "/>
<text text-anchor="middle" x="998.271" y="-1113.23" font-family="Times,serif" font-size="14.00">View</text>
</g>
<!-- Core_AppPluginTrait&#45;&gt;Core_View -->
<g id="edge23" class="edge"><title>Core_AppPluginTrait&#45;&gt;Core_View</title>
<path fill="none" stroke="black" d="M793.107,-1150.73C842.497,-1142.55 917.183,-1130.19 961.212,-1122.9"/>
<polygon fill="black" stroke="black" points="961.887,-1126.33 971.181,-1121.25 960.743,-1119.43 961.887,-1126.33"/>
</g>
<!-- Core_Configer -->
<g id="node8" class="node"><title>Core_Configer</title>
<polygon fill="none" stroke="black" points="1030.77,-1188.93 965.771,-1188.93 965.771,-1184.93 961.771,-1184.93 961.771,-1180.93 965.771,-1180.93 965.771,-1160.93 961.771,-1160.93 961.771,-1156.93 965.771,-1156.93 965.771,-1152.93 1030.77,-1152.93 1030.77,-1188.93"/>
<polyline fill="none" stroke="black" points="965.771,-1184.93 969.771,-1184.93 969.771,-1180.93 965.771,-1180.93 "/>
<polyline fill="none" stroke="black" points="965.771,-1160.93 969.771,-1160.93 969.771,-1156.93 965.771,-1156.93 "/>
<text text-anchor="middle" x="998.271" y="-1167.23" font-family="Times,serif" font-size="14.00">Configer</text>
</g>
<!-- Core_AppPluginTrait&#45;&gt;Core_Configer -->
<g id="edge22" class="edge"><title>Core_AppPluginTrait&#45;&gt;Core_Configer</title>
<path fill="none" stroke="black" d="M817.649,-1162.43C862.564,-1164.56 918.227,-1167.19 955.582,-1168.96"/>
<polygon fill="black" stroke="black" points="955.454,-1172.45 965.608,-1169.43 955.784,-1165.46 955.454,-1172.45"/>
</g>
<!-- Core_Route -->
<g id="node10" class="node"><title>Core_Route</title>
<polygon fill="lightgrey" stroke="black" points="998.271,-1296.93 953.194,-1278.93 998.271,-1260.93 1043.35,-1278.93 998.271,-1296.93"/>
<polyline fill="none" stroke="black" points="964.338,-1283.38 964.338,-1274.48 "/>
<polyline fill="none" stroke="black" points="987.127,-1265.38 1009.42,-1265.38 "/>
<polyline fill="none" stroke="black" points="1032.2,-1274.48 1032.2,-1283.38 "/>
<polyline fill="none" stroke="black" points="1009.42,-1292.48 987.127,-1292.48 "/>
<text text-anchor="middle" x="998.271" y="-1275.23" font-family="Times,serif" font-size="14.00">Route</text>
</g>
<!-- Core_AppPluginTrait&#45;&gt;Core_Route -->
<g id="edge24" class="edge"><title>Core_AppPluginTrait&#45;&gt;Core_Route</title>
<path fill="none" stroke="black" d="M791.975,-1167.35C821.391,-1174.2 858.608,-1186.08 886.901,-1205.93 908.152,-1220.84 901.885,-1236.69 922.901,-1251.93 933.605,-1259.69 946.775,-1265.43 959.043,-1269.58"/>
<polygon fill="black" stroke="black" points="958.035,-1272.93 968.624,-1272.57 960.12,-1266.25 958.035,-1272.93"/>
</g>
<!-- Core_SuperGlobal -->
<g id="node14" class="node"><title>Core_SuperGlobal</title>
<polygon fill="none" stroke="black" points="1040.77,-1242.93 955.771,-1242.93 955.771,-1238.93 951.771,-1238.93 951.771,-1234.93 955.771,-1234.93 955.771,-1214.93 951.771,-1214.93 951.771,-1210.93 955.771,-1210.93 955.771,-1206.93 1040.77,-1206.93 1040.77,-1242.93"/>
<polyline fill="none" stroke="black" points="955.771,-1238.93 959.771,-1238.93 959.771,-1234.93 955.771,-1234.93 "/>
<polyline fill="none" stroke="black" points="955.771,-1214.93 959.771,-1214.93 959.771,-1210.93 955.771,-1210.93 "/>
<text text-anchor="middle" x="998.271" y="-1221.23" font-family="Times,serif" font-size="14.00">SuperGlobal</text>
</g>
<!-- Core_AppPluginTrait&#45;&gt;Core_SuperGlobal -->
<g id="edge25" class="edge"><title>Core_AppPluginTrait&#45;&gt;Core_SuperGlobal</title>
<path fill="none" stroke="black" d="M788.674,-1168.04C817.009,-1174 854.252,-1182.27 886.901,-1190.93 906.285,-1196.07 927.371,-1202.38 945.87,-1208.17"/>
<polygon fill="black" stroke="black" points="944.978,-1211.56 955.568,-1211.23 947.084,-1204.88 944.978,-1211.56"/>
</g>
<!-- Core_App -->
<g id="node2" class="node"><title>Core_App</title>
<polygon fill="lightgrey" stroke="black" points="498.863,-1337.93 462.329,-1319.93 498.863,-1301.93 535.397,-1319.93 498.863,-1337.93"/>
<polyline fill="none" stroke="black" points="473.094,-1325.23 473.094,-1314.62 "/>
<polyline fill="none" stroke="black" points="488.099,-1307.23 509.628,-1307.23 "/>
<polyline fill="none" stroke="black" points="524.633,-1314.62 524.633,-1325.23 "/>
<polyline fill="none" stroke="black" points="509.628,-1332.62 488.099,-1332.62 "/>
<text text-anchor="middle" x="498.863" y="-1316.23" font-family="Times,serif" font-size="14.00">App</text>
</g>
<!-- Core_Kernel -->
<g id="node3" class="node"><title>Core_Kernel</title>
<polygon fill="none" stroke="black" points="742.593,-1250.93 693.661,-1232.93 742.593,-1214.93 791.524,-1232.93 742.593,-1250.93"/>
<text text-anchor="middle" x="742.593" y="-1229.23" font-family="Times,serif" font-size="14.00">Kernel</text>
</g>
<!-- Core_App&#45;&gt;Core_Kernel -->
<g id="edge9" class="edge"><title>Core_App&#45;&gt;Core_Kernel</title>
<path fill="none" stroke="black" d="M514.867,-1309.71C533.605,-1297.39 567.014,-1276.86 598.285,-1264.93 630.102,-1252.78 667.739,-1244.6 696.456,-1239.55"/>
<polygon fill="black" stroke="black" points="697.331,-1242.95 706.605,-1237.83 696.161,-1236.05 697.331,-1242.95"/>
</g>
<!-- Core_AutoLoader -->
<g id="node5" class="node"><title>Core_AutoLoader</title>
<polygon fill="lightgrey" stroke="black" points="998.271,-1512.93 923.029,-1494.93 998.271,-1476.93 1073.51,-1494.93 998.271,-1512.93"/>
<polyline fill="none" stroke="black" points="934.7,-1497.72 934.7,-1492.14 "/>
<polyline fill="none" stroke="black" points="986.601,-1479.72 1009.94,-1479.72 "/>
<polyline fill="none" stroke="black" points="1061.84,-1492.14 1061.84,-1497.72 "/>
<polyline fill="none" stroke="black" points="1009.94,-1510.14 986.601,-1510.14 "/>
<text text-anchor="middle" x="998.271" y="-1491.23" font-family="Times,serif" font-size="14.00">AutoLoader</text>
</g>
<!-- Core_App&#45;&gt;Core_AutoLoader -->
<g id="edge12" class="edge"><title>Core_App&#45;&gt;Core_AutoLoader</title>
<path fill="none" stroke="black" stroke-dasharray="1,5" d="M509.318,-1332.9C525.113,-1353.42 559.032,-1392.78 598.285,-1409.93 716.238,-1461.45 769.366,-1381.45 886.901,-1433.93 906.997,-1442.9 904.168,-1456.38 922.901,-1467.93 932.027,-1473.56 942.502,-1478.26 952.654,-1482.08"/>
<polygon fill="black" stroke="black" points="951.64,-1485.44 962.235,-1485.48 953.979,-1478.84 951.64,-1485.44"/>
</g>
<!-- Core_ExceptionManager -->
<g id="node6" class="node"><title>Core_ExceptionManager</title>
<polygon fill="none" stroke="black" points="1058.27,-1350.93 938.271,-1350.93 938.271,-1346.93 934.271,-1346.93 934.271,-1342.93 938.271,-1342.93 938.271,-1322.93 934.271,-1322.93 934.271,-1318.93 938.271,-1318.93 938.271,-1314.93 1058.27,-1314.93 1058.27,-1350.93"/>
<polyline fill="none" stroke="black" points="938.271,-1346.93 942.271,-1346.93 942.271,-1342.93 938.271,-1342.93 "/>
<polyline fill="none" stroke="black" points="938.271,-1322.93 942.271,-1322.93 942.271,-1318.93 938.271,-1318.93 "/>
<text text-anchor="middle" x="998.271" y="-1329.23" font-family="Times,serif" font-size="14.00">ExceptionManager</text>
</g>
<!-- Core_App&#45;&gt;Core_ExceptionManager -->
<g id="edge15" class="edge"><title>Core_App&#45;&gt;Core_ExceptionManager</title>
<path fill="none" stroke="black" stroke-dasharray="1,5" d="M518.218,-1311.26C537.611,-1302.61 569.333,-1289.92 598.285,-1284.93 724.691,-1263.12 763.072,-1251.45 886.901,-1284.93 904.782,-1289.76 906.127,-1298.07 922.901,-1305.93 926.679,-1307.7 930.607,-1309.43 934.598,-1311.1"/>
<polygon fill="black" stroke="black" points="933.395,-1314.39 943.978,-1314.9 936.024,-1307.91 933.395,-1314.39"/>
</g>
<!-- Core_App&#45;&gt;Core_View -->
<g id="edge18" class="edge"><title>Core_App&#45;&gt;Core_View</title>
<path fill="none" stroke="black" stroke-dasharray="1,5" d="M508.789,-1306.39C521.741,-1286.34 545.975,-1247.33 562.285,-1211.93 582.399,-1168.26 559.04,-1137.69 598.285,-1109.93 655.824,-1069.22 873.961,-1097.65 961.046,-1111.02"/>
<polygon fill="black" stroke="black" points="960.577,-1114.49 970.997,-1112.58 961.656,-1107.58 960.577,-1114.49"/>
</g>
<!-- Core_App&#45;&gt;Core_Configer -->
<g id="edge13" class="edge"><title>Core_App&#45;&gt;Core_Configer</title>
<path fill="none" stroke="black" stroke-dasharray="1,5" d="M508.402,-1306.2C520.871,-1285.92 544.511,-1246.62 562.285,-1211.93 580.063,-1177.23 565.543,-1153.1 598.285,-1131.93 652.144,-1097.1 823.686,-1121.09 886.901,-1131.93 890.572,-1132.56 926.247,-1145.26 956.06,-1156"/>
<polygon fill="black" stroke="black" points="954.891,-1159.3 965.485,-1159.4 957.266,-1152.71 954.891,-1159.3"/>
</g>
<!-- Core_Logger -->
<g id="node9" class="node"><title>Core_Logger</title>
<polygon fill="none" stroke="black" points="1026.27,-1404.93 970.271,-1404.93 970.271,-1400.93 966.271,-1400.93 966.271,-1396.93 970.271,-1396.93 970.271,-1376.93 966.271,-1376.93 966.271,-1372.93 970.271,-1372.93 970.271,-1368.93 1026.27,-1368.93 1026.27,-1404.93"/>
<polyline fill="none" stroke="black" points="970.271,-1400.93 974.271,-1400.93 974.271,-1396.93 970.271,-1396.93 "/>
<polyline fill="none" stroke="black" points="970.271,-1376.93 974.271,-1376.93 974.271,-1372.93 970.271,-1372.93 "/>
<text text-anchor="middle" x="998.271" y="-1383.23" font-family="Times,serif" font-size="14.00">Logger</text>
</g>
<!-- Core_App&#45;&gt;Core_Logger -->
<g id="edge14" class="edge"><title>Core_App&#45;&gt;Core_Logger</title>
<path fill="none" stroke="black" stroke-dasharray="1,5" d="M526.57,-1315.44C603.612,-1303.03 824.716,-1271.31 886.901,-1304.93 912.6,-1318.82 899.996,-1341.79 922.901,-1359.93 933.692,-1368.47 947.431,-1374.47 960.156,-1378.59"/>
<polygon fill="black" stroke="black" points="959.487,-1382.05 970.069,-1381.52 961.468,-1375.33 959.487,-1382.05"/>
</g>
<!-- Core_App&#45;&gt;Core_Route -->
<g id="edge16" class="edge"><title>Core_App&#45;&gt;Core_Route</title>
<path fill="none" stroke="black" stroke-dasharray="1,5" d="M510.806,-1332.1C527.58,-1349.75 561.584,-1381.67 598.285,-1393.93 659.119,-1414.25 833.651,-1429.68 886.901,-1393.93 921.985,-1370.37 892.427,-1335.2 922.901,-1305.93 932.032,-1297.16 944.231,-1291.2 956.105,-1287.17"/>
<polygon fill="black" stroke="black" points="957.357,-1290.45 965.927,-1284.22 955.343,-1283.74 957.357,-1290.45"/>
</g>
<!-- Core_RuntimeState -->
<g id="node11" class="node"><title>Core_RuntimeState</title>
<polygon fill="none" stroke="black" points="1043.77,-1458.93 952.771,-1458.93 952.771,-1454.93 948.771,-1454.93 948.771,-1450.93 952.771,-1450.93 952.771,-1430.93 948.771,-1430.93 948.771,-1426.93 952.771,-1426.93 952.771,-1422.93 1043.77,-1422.93 1043.77,-1458.93"/>
<polyline fill="none" stroke="black" points="952.771,-1454.93 956.771,-1454.93 956.771,-1450.93 952.771,-1450.93 "/>
<polyline fill="none" stroke="black" points="952.771,-1430.93 956.771,-1430.93 956.771,-1426.93 952.771,-1426.93 "/>
<text text-anchor="middle" x="998.271" y="-1437.23" font-family="Times,serif" font-size="14.00">RuntimeState</text>
</g>
<!-- Core_App&#45;&gt;Core_RuntimeState -->
<g id="edge17" class="edge"><title>Core_App&#45;&gt;Core_RuntimeState</title>
<path fill="none" stroke="black" stroke-dasharray="1,5" d="M532.222,-1318.32C620.007,-1314.25 858.019,-1305.18 886.901,-1324.93 922.125,-1349.01 892.189,-1384.31 922.901,-1413.93 928.67,-1419.49 935.675,-1423.92 943.05,-1427.45"/>
<polygon fill="black" stroke="black" points="941.953,-1430.78 952.527,-1431.45 944.673,-1424.33 941.953,-1430.78"/>
</g>
<!-- Core_SystemWrapperTrait -->
<g id="node12" class="node"><title>Core_SystemWrapperTrait</title>
<polygon fill="none" stroke="black" points="742.593,-1384.93 622.274,-1366.93 742.593,-1348.93 862.912,-1366.93 742.593,-1384.93"/>
<text text-anchor="middle" x="742.593" y="-1363.23" font-family="Times,serif" font-size="14.00">SystemWrapperTrait</text>
</g>
<!-- Core_App&#45;&gt;Core_SystemWrapperTrait -->
<g id="edge11" class="edge"><title>Core_App&#45;&gt;Core_SystemWrapperTrait</title>
<path fill="none" stroke="black" d="M525.733,-1324.96C562.081,-1332.03 629.396,-1345.11 679.228,-1354.8"/>
<polygon fill="black" stroke="black" points="678.778,-1358.28 689.262,-1356.75 680.114,-1351.41 678.778,-1358.28"/>
</g>
<!-- Core_App&#45;&gt;Core_SuperGlobal -->
<g id="edge19" class="edge"><title>Core_App&#45;&gt;Core_SuperGlobal</title>
<path fill="none" stroke="black" stroke-dasharray="1,5" d="M506.894,-1305.63C520.439,-1279.94 552.876,-1226.72 598.285,-1205.93 656.602,-1179.23 822.997,-1200.47 886.901,-1205.93 906.189,-1207.58 927.168,-1210.82 945.606,-1214.16"/>
<polygon fill="black" stroke="black" points="945.088,-1217.62 955.561,-1216.02 946.373,-1210.74 945.088,-1217.62"/>
</g>
<!-- Core_ExtendableStaticCallTrait -->
<g id="node15" class="node"><title>Core_ExtendableStaticCallTrait</title>
<polygon fill="none" stroke="black" points="742.593,-1532.93 598.477,-1514.93 742.593,-1496.93 886.708,-1514.93 742.593,-1532.93"/>
<text text-anchor="middle" x="742.593" y="-1511.23" font-family="Times,serif" font-size="14.00">ExtendableStaticCallTrait</text>
</g>
<!-- Core_App&#45;&gt;Core_ExtendableStaticCallTrait -->
<g id="edge10" class="edge"><title>Core_App&#45;&gt;Core_ExtendableStaticCallTrait</title>
<path fill="none" stroke="black" d="M504.148,-1335.45C514.32,-1369.16 543.285,-1449.2 598.285,-1487.93 609.779,-1496.02 623.028,-1501.87 636.73,-1506.08"/>
<polygon fill="black" stroke="black" points="636.198,-1509.56 646.769,-1508.86 638.065,-1502.82 636.198,-1509.56"/>
</g>
<!-- Core_ComponentBase -->
<g id="node18" class="node"><title>Core_ComponentBase</title>
<polygon fill="none" stroke="black" points="1216.64,-1080.93 1113.64,-1080.93 1109.64,-1076.93 1109.64,-1044.93 1212.64,-1044.93 1216.64,-1048.93 1216.64,-1080.93"/>
<polyline fill="none" stroke="black" points="1212.64,-1076.93 1109.64,-1076.93 "/>
<polyline fill="none" stroke="black" points="1212.64,-1076.93 1212.64,-1044.93 "/>
<polyline fill="none" stroke="black" points="1212.64,-1076.93 1216.64,-1080.93 "/>
<text text-anchor="middle" x="1163.14" y="-1059.23" font-family="Times,serif" font-size="14.00">ComponentBase</text>
</g>
<!-- Core_App&#45;&gt;Core_ComponentBase -->
<g id="edge21" class="edge"><title>Core_App&#45;&gt;Core_ComponentBase</title>
<path fill="none" stroke="black" stroke-dasharray="1,5" d="M532.539,-1321.35C625.259,-1325.43 883.562,-1337.04 886.901,-1339.93 949.24,-1393.9 859.189,-1469.58 922.901,-1521.93 948.784,-1543.19 1047.81,-1543.26 1073.64,-1521.93 1140.7,-1466.57 1157.5,-1182.28 1161.2,-1091.1"/>
<polygon fill="black" stroke="black" points="1164.7,-1091.1 1161.59,-1080.97 1157.71,-1090.83 1164.7,-1091.1"/>
</g>
<!-- Core_Functions -->
<g id="node19" class="node"><title>Core_Functions</title>
<ellipse fill="none" stroke="black" cx="742.593" cy="-1460.93" rx="45.4919" ry="18"/>
<text text-anchor="middle" x="742.593" y="-1457.23" font-family="Times,serif" font-size="14.00">Functions</text>
</g>
<!-- Core_App&#45;&gt;Core_Functions -->
<g id="edge20" class="edge"><title>Core_App&#45;&gt;Core_Functions</title>
<path fill="none" stroke="black" stroke-dasharray="1,5" d="M508.006,-1333.43C522.851,-1356.81 556.66,-1404.65 598.285,-1428.93 625.252,-1444.66 659.212,-1452.66 687.304,-1456.73"/>
<polygon fill="black" stroke="black" points="686.992,-1460.22 697.364,-1458.06 687.909,-1453.28 686.992,-1460.22"/>
</g>
<!-- Core_Kernel&#45;&gt;Core_AutoLoader -->
<g id="edge1" class="edge"><title>Core_Kernel&#45;&gt;Core_AutoLoader</title>
<path fill="none" stroke="black" d="M767.657,-1241.78C799.86,-1254.88 856.438,-1282.56 886.901,-1324.93 925.159,-1378.14 878.971,-1419.29 922.901,-1467.93 929.053,-1474.74 937.062,-1479.84 945.538,-1483.65"/>
<polygon fill="black" stroke="black" points="944.266,-1486.91 954.853,-1487.3 946.82,-1480.39 944.266,-1486.91"/>
</g>
<!-- Core_Kernel&#45;&gt;Core_ExceptionManager -->
<g id="edge4" class="edge"><title>Core_Kernel&#45;&gt;Core_ExceptionManager</title>
<path fill="none" stroke="black" d="M785.011,-1235.33C815.072,-1238.65 855.759,-1246.47 886.901,-1264.93 907.762,-1277.29 902.876,-1292.25 922.901,-1305.93 925.034,-1307.39 927.256,-1308.77 929.542,-1310.1"/>
<polygon fill="black" stroke="black" points="928.141,-1313.32 938.62,-1314.88 931.401,-1307.12 928.141,-1313.32"/>
</g>
<!-- Core_Kernel&#45;&gt;Core_View -->
<g id="edge7" class="edge"><title>Core_Kernel&#45;&gt;Core_View</title>
<path fill="none" stroke="black" d="M776.569,-1227.41C807.16,-1221.12 852.949,-1208.64 886.901,-1185.93 907.336,-1172.26 902.682,-1157.92 922.901,-1143.93 934.31,-1136.04 948.293,-1130.17 961.043,-1125.96"/>
<polygon fill="black" stroke="black" points="962.395,-1129.2 970.931,-1122.93 960.344,-1122.51 962.395,-1129.2"/>
</g>
<!-- Core_Kernel&#45;&gt;Core_Configer -->
<g id="edge2" class="edge"><title>Core_Kernel&#45;&gt;Core_Configer</title>
<path fill="none" stroke="black" d="M772.693,-1225.82C817.714,-1214.81 904.421,-1193.62 955.93,-1181.03"/>
<polygon fill="black" stroke="black" points="956.857,-1184.41 965.74,-1178.63 955.195,-1177.61 956.857,-1184.41"/>
</g>
<!-- Core_Kernel&#45;&gt;Core_Logger -->
<g id="edge3" class="edge"><title>Core_Kernel&#45;&gt;Core_Logger</title>
<path fill="none" stroke="black" d="M778.403,-1237.91C810.069,-1244.06 856.388,-1257.31 886.901,-1284.93 914.312,-1309.74 895.491,-1335.11 922.901,-1359.93 933.368,-1369.41 947.421,-1375.62 960.492,-1379.67"/>
<polygon fill="black" stroke="black" points="959.649,-1383.07 970.22,-1382.37 961.516,-1376.33 959.649,-1383.07"/>
</g>
<!-- Core_Kernel&#45;&gt;Core_Route -->
<g id="edge5" class="edge"><title>Core_Kernel&#45;&gt;Core_Route</title>
<path fill="none" stroke="black" d="M775.721,-1238.75C821.747,-1247.1 906.427,-1262.46 956.712,-1271.57"/>
<polygon fill="black" stroke="black" points="956.127,-1275.02 966.591,-1273.37 957.376,-1268.14 956.127,-1275.02"/>
</g>
<!-- Core_Kernel&#45;&gt;Core_RuntimeState -->
<g id="edge6" class="edge"><title>Core_Kernel&#45;&gt;Core_RuntimeState</title>
<path fill="none" stroke="black" d="M772.206,-1240.14C804.48,-1249.7 856.426,-1269.62 886.901,-1304.93 920.237,-1343.55 887.357,-1377.33 922.901,-1413.93 928.553,-1419.75 935.555,-1424.32 942.985,-1427.91"/>
<polygon fill="black" stroke="black" points="941.98,-1431.28 952.554,-1431.95 944.704,-1424.84 941.98,-1431.28"/>
</g>
<!-- Core_Kernel&#45;&gt;Core_SuperGlobal -->
<g id="edge8" class="edge"><title>Core_Kernel&#45;&gt;Core_SuperGlobal</title>
<path fill="none" stroke="black" d="M787.78,-1231.53C831.727,-1230.15 899.121,-1228.02 945.539,-1226.56"/>
<polygon fill="black" stroke="black" points="945.808,-1230.05 955.692,-1226.24 945.587,-1223.06 945.808,-1230.05"/>
</g>
<!-- Core_SingletonEx -->
<g id="node4" class="node"><title>Core_SingletonEx</title>
<polygon fill="lightgrey" stroke="black" points="1353.75,-1333.93 1277.67,-1315.93 1353.75,-1297.93 1429.83,-1315.93 1353.75,-1333.93"/>
<polyline fill="none" stroke="black" points="1289.35,-1318.69 1289.35,-1313.17 "/>
<polyline fill="none" stroke="black" points="1342.07,-1300.69 1365.43,-1300.69 "/>
<polyline fill="none" stroke="black" points="1418.15,-1313.17 1418.15,-1318.69 "/>
<polyline fill="none" stroke="black" points="1365.43,-1331.17 1342.07,-1331.17 "/>
<text text-anchor="middle" x="1353.75" y="-1312.23" font-family="Times,serif" font-size="14.00">SingletonEx</text>
</g>
<!-- Core_ExceptionManager&#45;&gt;Core_ComponentBase -->
<g id="edge26" class="edge"><title>Core_ExceptionManager&#45;&gt;Core_ComponentBase</title>
<path fill="none" stroke="black" stroke-dasharray="1,5" d="M1058.28,-1317.25C1063.91,-1314.13 1069.17,-1310.39 1073.64,-1305.93 1133.86,-1245.77 1153.43,-1141.44 1159.52,-1091.36"/>
<polygon fill="black" stroke="black" points="1163.02,-1091.58 1160.66,-1081.25 1156.06,-1090.8 1163.02,-1091.58"/>
</g>
<!-- Core_View&#45;&gt;Core_ComponentBase -->
<g id="edge31" class="edge"><title>Core_View&#45;&gt;Core_ComponentBase</title>
<path fill="none" stroke="black" stroke-dasharray="1,5" d="M1025.44,-1108.25C1045.45,-1101.62 1073.9,-1092.19 1099.66,-1083.64"/>
<polygon fill="black" stroke="black" points="1100.99,-1086.89 1109.38,-1080.42 1098.79,-1080.25 1100.99,-1086.89"/>
</g>
<!-- Core_Configer&#45;&gt;Core_ComponentBase -->
<g id="edge27" class="edge"><title>Core_Configer&#45;&gt;Core_ComponentBase</title>
<path fill="none" stroke="black" stroke-dasharray="1,5" d="M1030.9,-1162.48C1044.6,-1158.06 1060.48,-1151.9 1073.64,-1143.93 1098.51,-1128.86 1122.58,-1106.13 1139.32,-1088.59"/>
<polygon fill="black" stroke="black" points="1142.2,-1090.63 1146.47,-1080.93 1137.09,-1085.85 1142.2,-1090.63"/>
</g>
<!-- Core_Logger&#45;&gt;Core_ComponentBase -->
<g id="edge32" class="edge"><title>Core_Logger&#45;&gt;Core_ComponentBase</title>
<path fill="none" stroke="black" stroke-dasharray="1,5" d="M1026.32,-1383.27C1042.11,-1379.78 1061.3,-1373.02 1073.64,-1359.93 1146.12,-1283.07 1159.48,-1149.4 1161.77,-1091.27"/>
<polygon fill="black" stroke="black" points="1165.28,-1091.12 1162.09,-1081.01 1158.28,-1090.9 1165.28,-1091.12"/>
</g>
<!-- Core_Route&#45;&gt;Core_ComponentBase -->
<g id="edge28" class="edge"><title>Core_Route&#45;&gt;Core_ComponentBase</title>
<path fill="none" stroke="black" stroke-dasharray="1,5" d="M1030.01,-1273.48C1044.66,-1269.57 1061.58,-1262.96 1073.64,-1251.93 1121.98,-1207.74 1146.18,-1131.72 1156.23,-1090.86"/>
<polygon fill="black" stroke="black" points="1159.66,-1091.56 1158.54,-1081.03 1152.84,-1089.96 1159.66,-1091.56"/>
</g>
<!-- Core_RuntimeState&#45;&gt;Core_ComponentBase -->
<g id="edge30" class="edge"><title>Core_RuntimeState&#45;&gt;Core_ComponentBase</title>
<path fill="none" stroke="black" stroke-dasharray="1,5" d="M1044.01,-1432.48C1054.99,-1428.48 1065.81,-1422.59 1073.64,-1413.93 1117.21,-1365.71 1148.15,-1166.29 1158.42,-1091.47"/>
<polygon fill="black" stroke="black" points="1161.92,-1091.74 1159.79,-1081.36 1154.98,-1090.8 1161.92,-1091.74"/>
</g>
<!-- Core_HttpServer -->
<g id="node13" class="node"><title>Core_HttpServer</title>
<polygon fill="lightgrey" stroke="black" points="998.271,-1080.93 928.559,-1062.93 998.271,-1044.93 1067.98,-1062.93 998.271,-1080.93"/>
<polyline fill="none" stroke="black" points="940.178,-1065.93 940.178,-1059.93 "/>
<polyline fill="none" stroke="black" points="986.652,-1047.93 1009.89,-1047.93 "/>
<polyline fill="none" stroke="black" points="1056.36,-1059.93 1056.36,-1065.93 "/>
<polyline fill="none" stroke="black" points="1009.89,-1077.93 986.652,-1077.93 "/>
<text text-anchor="middle" x="998.271" y="-1059.23" font-family="Times,serif" font-size="14.00">HttpServer</text>
</g>
<!-- Core_HttpServer&#45;&gt;Core_ComponentBase -->
<g id="edge33" class="edge"><title>Core_HttpServer&#45;&gt;Core_ComponentBase</title>
<path fill="none" stroke="black" stroke-dasharray="1,5" d="M1068.34,-1062.93C1078.51,-1062.93 1088.94,-1062.93 1098.98,-1062.93"/>
<polygon fill="black" stroke="black" points="1099.27,-1066.43 1109.27,-1062.93 1099.27,-1059.43 1099.27,-1066.43"/>
</g>
<!-- Core_SuperGlobal&#45;&gt;Core_ComponentBase -->
<g id="edge29" class="edge"><title>Core_SuperGlobal&#45;&gt;Core_ComponentBase</title>
<path fill="none" stroke="black" stroke-dasharray="1,5" d="M1041.07,-1215C1052.41,-1210.96 1064.16,-1205.43 1073.64,-1197.93 1110.13,-1169.06 1136.52,-1120.85 1150.55,-1090.53"/>
<polygon fill="black" stroke="black" points="1153.77,-1091.92 1154.67,-1081.36 1147.38,-1089.05 1153.77,-1091.92"/>
</g>
<!-- Core_ThrowOn -->
<g id="node16" class="node"><title>Core_ThrowOn</title>
<polygon fill="lightgrey" stroke="black" points="498.863,-1202.93 435.519,-1184.93 498.863,-1166.93 562.207,-1184.93 498.863,-1202.93"/>
<polyline fill="none" stroke="black" points="447.063,-1188.21 447.063,-1181.65 "/>
<polyline fill="none" stroke="black" points="487.32,-1170.21 510.406,-1170.21 "/>
<polyline fill="none" stroke="black" points="550.664,-1181.65 550.664,-1188.21 "/>
<polyline fill="none" stroke="black" points="510.406,-1199.65 487.32,-1199.65 "/>
<text text-anchor="middle" x="498.863" y="-1181.23" font-family="Times,serif" font-size="14.00">ThrowOn</text>
</g>
<!-- Core_ComponentInterface -->
<g id="node17" class="node"><title>Core_ComponentInterface</title>
<polygon fill="none" stroke="black" points="1411.75,-1080.93 1289.75,-1080.93 1289.75,-1044.93 1417.75,-1044.93 1417.75,-1074.93 1411.75,-1080.93"/>
<polyline fill="none" stroke="black" points="1411.75,-1080.93 1411.75,-1074.93 "/>
<polyline fill="none" stroke="black" points="1417.75,-1074.93 1411.75,-1074.93 "/>
<text text-anchor="middle" x="1353.75" y="-1059.23" font-family="Times,serif" font-size="14.00">ComponentInterface</text>
</g>
<!-- Core_ComponentBase&#45;&gt;Core_SingletonEx -->
<g id="edge35" class="edge"><title>Core_ComponentBase&#45;&gt;Core_SingletonEx</title>
<path fill="none" stroke="black" d="M1177.71,-1081.12C1211.17,-1126.02 1297.67,-1242.04 1335.08,-1292.22"/>
<polygon fill="black" stroke="black" points="1332.48,-1294.59 1341.26,-1300.52 1338.09,-1290.41 1332.48,-1294.59"/>
</g>
<!-- Core_ComponentBase&#45;&gt;Core_ComponentInterface -->
<g id="edge34" class="edge"><title>Core_ComponentBase&#45;&gt;Core_ComponentInterface</title>
<path fill="none" stroke="black" d="M1216.68,-1062.93C1236.07,-1062.93 1258.41,-1062.93 1279.31,-1062.93"/>
<polygon fill="black" stroke="black" points="1279.44,-1066.43 1289.44,-1062.93 1279.44,-1059.43 1279.44,-1066.43"/>
</g>
<!-- AppHelper -->
<g id="node20" class="node"><title>AppHelper</title>
<polygon fill="lightgrey" stroke="black" points="116.188,-1380.93 45.6372,-1362.93 116.188,-1344.93 186.739,-1362.93 116.188,-1380.93"/>
<polyline fill="none" stroke="black" points="57.2647,-1365.9 57.2647,-1359.96 "/>
<polyline fill="none" stroke="black" points="104.561,-1347.9 127.816,-1347.9 "/>
<polyline fill="none" stroke="black" points="175.112,-1359.96 175.112,-1365.9 "/>
<polyline fill="none" stroke="black" points="127.816,-1377.96 104.561,-1377.96 "/>
<text text-anchor="middle" x="116.188" y="-1359.23" font-family="Times,serif" font-size="14.00">AppHelper</text>
</g>
<!-- AppHelper&#45;&gt;Core_App -->
<g id="edge36" class="edge"><title>AppHelper&#45;&gt;Core_App</title>
<path fill="none" stroke="black" d="M165.401,-1357.48C241.52,-1348.88 388.097,-1332.33 458.384,-1324.39"/>
<polygon fill="black" stroke="black" points="459.041,-1327.84 468.585,-1323.24 458.255,-1320.88 459.041,-1327.84"/>
</g>
<!-- HelperTrait -->
<g id="node25" class="node"><title>HelperTrait</title>
<polygon fill="none" stroke="black" points="325.909,-1478.93 252.344,-1460.93 325.909,-1442.93 399.474,-1460.93 325.909,-1478.93"/>
<text text-anchor="middle" x="325.909" y="-1457.23" font-family="Times,serif" font-size="14.00">HelperTrait</text>
</g>
<!-- AppHelper&#45;&gt;HelperTrait -->
<g id="edge44" class="edge"><title>AppHelper&#45;&gt;HelperTrait</title>
<path fill="none" stroke="black" d="M156.795,-1370.7C175.359,-1375.1 197.495,-1381.44 216.376,-1389.93 246.879,-1403.64 278.523,-1425.35 299.715,-1441.15"/>
<polygon fill="black" stroke="black" points="297.764,-1444.06 307.849,-1447.31 301.99,-1438.48 297.764,-1444.06"/>
</g>
<!-- ControllerHelper -->
<g id="node21" class="node"><title>ControllerHelper</title>
<polygon fill="lightgrey" stroke="black" points="116.188,-1326.93 15.8115,-1308.93 116.188,-1290.93 216.565,-1308.93 116.188,-1326.93"/>
<polyline fill="none" stroke="black" points="27.6231,-1311.05 27.6231,-1306.81 "/>
<polyline fill="none" stroke="black" points="104.377,-1293.05 128,-1293.05 "/>
<polyline fill="none" stroke="black" points="204.753,-1306.81 204.753,-1311.05 "/>
<polyline fill="none" stroke="black" points="128,-1324.81 104.377,-1324.81 "/>
<text text-anchor="middle" x="116.188" y="-1305.23" font-family="Times,serif" font-size="14.00">ControllerHelper</text>
</g>
<!-- ControllerHelper&#45;&gt;Core_App -->
<g id="edge37" class="edge"><title>ControllerHelper&#45;&gt;Core_App</title>
<path fill="none" stroke="black" d="M203.094,-1311.41C281.037,-1313.66 392.821,-1316.89 453.897,-1318.66"/>
<polygon fill="black" stroke="black" points="453.874,-1322.16 463.971,-1318.95 454.076,-1315.16 453.874,-1322.16"/>
</g>
<!-- ControllerHelper&#45;&gt;HelperTrait -->
<g id="edge45" class="edge"><title>ControllerHelper&#45;&gt;HelperTrait</title>
<path fill="none" stroke="black" d="M170.29,-1317.29C185.933,-1321.32 202.548,-1327.24 216.376,-1335.93 257.664,-1361.86 291.891,-1408.31 310.284,-1436.7"/>
<polygon fill="black" stroke="black" points="307.382,-1438.66 315.689,-1445.24 313.296,-1434.92 307.382,-1438.66"/>
</g>
<!-- ModelHelper -->
<g id="node22" class="node"><title>ModelHelper</title>
<polygon fill="lightgrey" stroke="black" points="116.188,-1272.93 34.5777,-1254.93 116.188,-1236.93 197.799,-1254.93 116.188,-1272.93"/>
<polyline fill="none" stroke="black" points="46.296,-1257.51 46.296,-1252.34 "/>
<polyline fill="none" stroke="black" points="104.47,-1239.51 127.906,-1239.51 "/>
<polyline fill="none" stroke="black" points="186.08,-1252.34 186.08,-1257.51 "/>
<polyline fill="none" stroke="black" points="127.906,-1270.34 104.47,-1270.34 "/>
<text text-anchor="middle" x="116.188" y="-1251.23" font-family="Times,serif" font-size="14.00">ModelHelper</text>
</g>
<!-- ModelHelper&#45;&gt;Core_App -->
<g id="edge38" class="edge"><title>ModelHelper&#45;&gt;Core_App</title>
<path fill="none" stroke="black" d="M162.728,-1262.7C238.94,-1275.72 390.842,-1301.65 460.9,-1313.62"/>
<polygon fill="black" stroke="black" points="460.574,-1317.11 471.02,-1315.35 461.752,-1310.21 460.574,-1317.11"/>
</g>
<!-- ModelHelper&#45;&gt;HelperTrait -->
<g id="edge46" class="edge"><title>ModelHelper&#45;&gt;HelperTrait</title>
<path fill="none" stroke="black" d="M168.958,-1261.3C185.324,-1265.24 202.693,-1271.62 216.376,-1281.93 269.131,-1321.68 301.685,-1395.22 316.13,-1434.53"/>
<polygon fill="black" stroke="black" points="312.92,-1435.95 319.57,-1444.2 319.516,-1433.6 312.92,-1435.95"/>
</g>
<!-- ServiceHelper -->
<g id="node23" class="node"><title>ServiceHelper</title>
<polygon fill="lightgrey" stroke="black" points="116.188,-1488.93 29.8865,-1470.93 116.188,-1452.93 202.49,-1470.93 116.188,-1488.93"/>
<polyline fill="none" stroke="black" points="41.6337,-1473.38 41.6337,-1468.48 "/>
<polyline fill="none" stroke="black" points="104.441,-1455.38 127.935,-1455.38 "/>
<polyline fill="none" stroke="black" points="190.743,-1468.48 190.743,-1473.38 "/>
<polyline fill="none" stroke="black" points="127.935,-1486.48 104.441,-1486.48 "/>
<text text-anchor="middle" x="116.188" y="-1467.23" font-family="Times,serif" font-size="14.00">ServiceHelper</text>
</g>
<!-- ServiceHelper&#45;&gt;Core_App -->
<g id="edge39" class="edge"><title>ServiceHelper&#45;&gt;Core_App</title>
<path fill="none" stroke="black" d="M155.441,-1460.9C173.903,-1455.96 196.342,-1449.81 216.376,-1443.93 230.541,-1439.77 233.92,-1438.2 248.053,-1433.93 318.633,-1412.61 341.47,-1420.85 407.441,-1387.93 433.873,-1374.74 460.455,-1353.58 477.889,-1338.36"/>
<polygon fill="black" stroke="black" points="480.531,-1340.7 485.672,-1331.43 475.876,-1335.47 480.531,-1340.7"/>
</g>
<!-- ServiceHelper&#45;&gt;HelperTrait -->
<g id="edge47" class="edge"><title>ServiceHelper&#45;&gt;HelperTrait</title>
<path fill="none" stroke="black" d="M186.645,-1467.58C208.332,-1466.54 232.275,-1465.39 254.056,-1464.34"/>
<polygon fill="black" stroke="black" points="254.405,-1467.83 264.225,-1463.85 254.068,-1460.83 254.405,-1467.83"/>
</g>
<!-- ViewHelper -->
<g id="node24" class="node"><title>ViewHelper</title>
<polygon fill="lightgrey" stroke="black" points="116.188,-1434.93 40.1075,-1416.93 116.188,-1398.93 192.269,-1416.93 116.188,-1434.93"/>
<polyline fill="none" stroke="black" points="51.7851,-1419.69 51.7851,-1414.17 "/>
<polyline fill="none" stroke="black" points="104.511,-1401.69 127.866,-1401.69 "/>
<polyline fill="none" stroke="black" points="180.591,-1414.17 180.591,-1419.69 "/>
<polyline fill="none" stroke="black" points="127.866,-1432.17 104.511,-1432.17 "/>
<text text-anchor="middle" x="116.188" y="-1413.23" font-family="Times,serif" font-size="14.00">ViewHelper</text>
</g>
<!-- ViewHelper&#45;&gt;Core_App -->
<g id="edge40" class="edge"><title>ViewHelper&#45;&gt;Core_App</title>
<path fill="none" stroke="black" d="M160.961,-1409.49C218.219,-1399.29 321.381,-1379.3 407.441,-1353.93 428.42,-1347.74 451.489,-1339.04 469.075,-1331.98"/>
<polygon fill="black" stroke="black" points="470.794,-1335.06 478.738,-1328.05 468.157,-1328.58 470.794,-1335.06"/>
</g>
<!-- ViewHelper&#45;&gt;HelperTrait -->
<g id="edge48" class="edge"><title>ViewHelper&#45;&gt;HelperTrait</title>
<path fill="none" stroke="black" d="M157.239,-1425.41C191.076,-1432.58 239.666,-1442.87 275.836,-1450.53"/>
<polygon fill="black" stroke="black" points="275.177,-1453.97 285.686,-1452.62 276.628,-1447.12 275.177,-1453.97"/>
</g>
<!-- HelperTrait&#45;&gt;Core_App -->
<g id="edge42" class="edge"><title>HelperTrait&#45;&gt;Core_App</title>
<path fill="none" stroke="black" d="M361.346,-1451.48C376.384,-1446.33 393.687,-1438.92 407.441,-1428.93 440.426,-1404.97 468.617,-1366.32 484.386,-1342.06"/>
<polygon fill="black" stroke="black" points="487.398,-1343.84 489.805,-1333.53 481.489,-1340.09 487.398,-1343.84"/>
</g>
<!-- HelperTrait&#45;&gt;Core_SingletonEx -->
<g id="edge41" class="edge"><title>HelperTrait&#45;&gt;Core_SingletonEx</title>
<path fill="none" stroke="black" d="M354.023,-1472.21C419.441,-1498.36 591.626,-1560.93 741.593,-1560.93 741.593,-1560.93 741.593,-1560.93 999.271,-1560.93 1153.7,-1560.93 1289.33,-1401.01 1335.73,-1339.57"/>
<polygon fill="black" stroke="black" points="1338.76,-1341.37 1341.92,-1331.25 1333.14,-1337.19 1338.76,-1341.37"/>
</g>
<!-- HelperTrait&#45;&gt;Core_ExtendableStaticCallTrait -->
<g id="edge43" class="edge"><title>HelperTrait&#45;&gt;Core_ExtendableStaticCallTrait</title>
<path fill="none" stroke="black" d="M374.478,-1467.12C444.496,-1476.24 576.193,-1493.39 661.34,-1504.48"/>
<polygon fill="black" stroke="black" points="661.117,-1507.98 671.486,-1505.8 662.021,-1501.04 661.117,-1507.98"/>
</g>
<!-- DB_DB -->
<g id="node26" class="node"><title>DB_DB</title>
<ellipse fill="none" stroke="black" cx="1163.14" cy="-61.9284" rx="27" ry="18"/>
<text text-anchor="middle" x="1163.14" y="-58.2284" font-family="Times,serif" font-size="14.00">DB</text>
</g>
<!-- DB_DBAdvanceTrait -->
<g id="node27" class="node"><title>DB_DBAdvanceTrait</title>
<polygon fill="none" stroke="black" points="1353.75,-52.9284 1252.53,-34.9284 1353.75,-16.9284 1454.96,-34.9284 1353.75,-52.9284"/>
<text text-anchor="middle" x="1353.75" y="-31.2284" font-family="Times,serif" font-size="14.00">DBAdvanceTrait</text>
</g>
<!-- DB_DB&#45;&gt;DB_DBAdvanceTrait -->
<g id="edge49" class="edge"><title>DB_DB&#45;&gt;DB_DBAdvanceTrait</title>
<path fill="none" stroke="black" d="M1189.97,-58.2308C1214.84,-54.6707 1253.49,-49.1373 1286.89,-44.3559"/>
<polygon fill="black" stroke="black" points="1287.67,-47.7811 1297.07,-42.8992 1286.67,-40.8517 1287.67,-47.7811"/>
</g>
<!-- DB_DBInterface -->
<g id="node28" class="node"><title>DB_DBInterface</title>
<polygon fill="none" stroke="black" points="1389.25,-106.928 1312.25,-106.928 1312.25,-70.9284 1395.25,-70.9284 1395.25,-100.928 1389.25,-106.928"/>
<polyline fill="none" stroke="black" points="1389.25,-106.928 1389.25,-100.928 "/>
<polyline fill="none" stroke="black" points="1395.25,-100.928 1389.25,-100.928 "/>
<text text-anchor="middle" x="1353.75" y="-85.2284" font-family="Times,serif" font-size="14.00">DBInterface</text>
</g>
<!-- DB_DB&#45;&gt;DB_DBInterface -->
<g id="edge50" class="edge"><title>DB_DB&#45;&gt;DB_DBInterface</title>
<path fill="none" stroke="black" d="M1189.97,-65.626C1218.62,-69.7273 1265.56,-76.4473 1301.69,-81.6196"/>
<polygon fill="black" stroke="black" points="1301.65,-85.1495 1312.05,-83.102 1302.65,-78.2202 1301.65,-85.1495"/>
</g>
<!-- CallableView -->
<g id="node29" class="node"><title>CallableView</title>
<polygon fill="none" stroke="black" points="788.093,-997.928 697.093,-997.928 697.093,-993.928 693.093,-993.928 693.093,-989.928 697.093,-989.928 697.093,-969.928 693.093,-969.928 693.093,-965.928 697.093,-965.928 697.093,-961.928 788.093,-961.928 788.093,-997.928"/>
<polyline fill="none" stroke="black" points="697.093,-993.928 701.093,-993.928 701.093,-989.928 697.093,-989.928 "/>
<polyline fill="none" stroke="black" points="697.093,-969.928 701.093,-969.928 701.093,-965.928 697.093,-965.928 "/>
<text text-anchor="middle" x="742.593" y="-976.228" font-family="Times,serif" font-size="14.00">CallableView</text>
</g>
<!-- CallableView&#45;&gt;Core_View -->
<g id="edge52" class="edge"><title>CallableView&#45;&gt;Core_View</title>
<path fill="none" stroke="black" d="M788.407,-988.559C818.749,-996.186 858.353,-1009.8 886.901,-1032.93 910.183,-1051.79 899.562,-1071.14 922.901,-1089.93 933.984,-1098.85 948.276,-1104.98 961.365,-1109.1"/>
<polygon fill="black" stroke="black" points="960.488,-1112.49 971.066,-1111.88 962.417,-1105.76 960.488,-1112.49"/>
</g>
<!-- DBManager -->
<g id="node30" class="node"><title>DBManager</title>
<polygon fill="none" stroke="black" points="1040.27,-79.9284 956.271,-79.9284 956.271,-75.9284 952.271,-75.9284 952.271,-71.9284 956.271,-71.9284 956.271,-51.9284 952.271,-51.9284 952.271,-47.9284 956.271,-47.9284 956.271,-43.9284 1040.27,-43.9284 1040.27,-79.9284"/>
<polyline fill="none" stroke="black" points="956.271,-75.9284 960.271,-75.9284 960.271,-71.9284 956.271,-71.9284 "/>
<polyline fill="none" stroke="black" points="956.271,-51.9284 960.271,-51.9284 960.271,-47.9284 956.271,-47.9284 "/>
<text text-anchor="middle" x="998.271" y="-58.2284" font-family="Times,serif" font-size="14.00">DBManager</text>
</g>
<!-- DBManager&#45;&gt;Core_ComponentBase -->
<g id="edge74" class="edge"><title>DBManager&#45;&gt;Core_ComponentBase</title>
<path fill="none" stroke="black" stroke-dasharray="1,5" d="M1036.16,-79.9487C1050.27,-88.785 1065.03,-100.818 1073.64,-115.928 1166.18,-278.309 1164.26,-893.986 1162.58,-1034.33"/>
<polygon fill="black" stroke="black" points="1159.08,-1034.62 1162.44,-1044.67 1166.07,-1034.72 1159.08,-1034.62"/>
</g>
<!-- DBManager&#45;&gt;DB_DB -->
<g id="edge51" class="edge"><title>DBManager&#45;&gt;DB_DB</title>
<path fill="none" stroke="black" d="M1040.37,-61.9284C1066.59,-61.9284 1100.28,-61.9284 1125.57,-61.9284"/>
<polygon fill="black" stroke="black" points="1125.85,-65.4285 1135.85,-61.9284 1125.85,-58.4285 1125.85,-65.4285"/>
</g>
<!-- DBReusePoolProxy -->
<g id="node31" class="node"><title>DBReusePoolProxy</title>
<polygon fill="none" stroke="black" points="805.093,-79.9284 680.093,-79.9284 680.093,-75.9284 676.093,-75.9284 676.093,-71.9284 680.093,-71.9284 680.093,-51.9284 676.093,-51.9284 676.093,-47.9284 680.093,-47.9284 680.093,-43.9284 805.093,-43.9284 805.093,-79.9284"/>
<polyline fill="none" stroke="black" points="680.093,-75.9284 684.093,-75.9284 684.093,-71.9284 680.093,-71.9284 "/>
<polyline fill="none" stroke="black" points="680.093,-51.9284 684.093,-51.9284 684.093,-47.9284 680.093,-47.9284 "/>
<text text-anchor="middle" x="742.593" y="-58.2284" font-family="Times,serif" font-size="14.00">DBReusePoolProxy</text>
</g>
<!-- DBReusePoolProxy&#45;&gt;DBManager -->
<g id="edge53" class="edge"><title>DBReusePoolProxy&#45;&gt;DBManager</title>
<path fill="none" stroke="black" d="M805.325,-61.9284C848.363,-61.9284 905.122,-61.9284 945.735,-61.9284"/>
<polygon fill="black" stroke="black" points="945.954,-65.4285 955.954,-61.9284 945.954,-58.4285 945.954,-65.4285"/>
</g>
<!-- EmptyView -->
<g id="node32" class="node"><title>EmptyView</title>
<polygon fill="none" stroke="black" points="784.093,-943.928 701.093,-943.928 701.093,-939.928 697.093,-939.928 697.093,-935.928 701.093,-935.928 701.093,-915.928 697.093,-915.928 697.093,-911.928 701.093,-911.928 701.093,-907.928 784.093,-907.928 784.093,-943.928"/>
<polyline fill="none" stroke="black" points="701.093,-939.928 705.093,-939.928 705.093,-935.928 701.093,-935.928 "/>
<polyline fill="none" stroke="black" points="701.093,-915.928 705.093,-915.928 705.093,-911.928 701.093,-911.928 "/>
<text text-anchor="middle" x="742.593" y="-922.228" font-family="Times,serif" font-size="14.00">EmptyView</text>
</g>
<!-- EmptyView&#45;&gt;Core_View -->
<g id="edge54" class="edge"><title>EmptyView&#45;&gt;Core_View</title>
<path fill="none" stroke="black" d="M784.275,-922.65C816.166,-922.388 859.578,-927.473 886.901,-952.928 932.964,-995.843 880.461,-1043.43 922.901,-1089.93 932.885,-1100.87 947.653,-1107.38 961.403,-1111.26"/>
<polygon fill="black" stroke="black" points="960.608,-1114.67 971.153,-1113.64 962.269,-1107.87 960.608,-1114.67"/>
</g>
<!-- FacadesAutoLoader -->
<g id="node33" class="node"><title>FacadesAutoLoader</title>
<polygon fill="none" stroke="black" points="1060.77,-160.928 935.771,-160.928 935.771,-156.928 931.771,-156.928 931.771,-152.928 935.771,-152.928 935.771,-132.928 931.771,-132.928 931.771,-128.928 935.771,-128.928 935.771,-124.928 1060.77,-124.928 1060.77,-160.928"/>
<polyline fill="none" stroke="black" points="935.771,-156.928 939.771,-156.928 939.771,-152.928 935.771,-152.928 "/>
<polyline fill="none" stroke="black" points="935.771,-132.928 939.771,-132.928 939.771,-128.928 935.771,-128.928 "/>
<text text-anchor="middle" x="998.271" y="-139.228" font-family="Times,serif" font-size="14.00">FacadesAutoLoader</text>
</g>
<!-- FacadesAutoLoader&#45;&gt;Core_ComponentBase -->
<g id="edge61" class="edge"><title>FacadesAutoLoader&#45;&gt;Core_ComponentBase</title>
<path fill="none" stroke="black" stroke-dasharray="1,5" d="M1036.09,-160.986C1050.2,-169.828 1064.97,-181.855 1073.64,-196.928 1158.53,-344.392 1162.56,-902.422 1162.29,-1034.69"/>
<polygon fill="black" stroke="black" points="1158.79,-1034.81 1162.26,-1044.82 1165.79,-1034.83 1158.79,-1034.81"/>
</g>
<!-- FacadesBase -->
<g id="node34" class="node"><title>FacadesBase</title>
<ellipse fill="none" stroke="black" cx="742.593" cy="-115.928" rx="55.7903" ry="18"/>
<text text-anchor="middle" x="742.593" y="-112.228" font-family="Times,serif" font-size="14.00">FacadesBase</text>
</g>
<!-- FacadesBase&#45;&gt;FacadesAutoLoader -->
<g id="edge56" class="edge"><title>FacadesBase&#45;&gt;FacadesAutoLoader</title>
<path fill="none" stroke="black" d="M795.848,-121.49C833.366,-125.483 884.387,-130.914 925.69,-135.31"/>
<polygon fill="black" stroke="black" points="925.382,-138.797 935.696,-136.375 926.123,-131.836 925.382,-138.797"/>
</g>
<!-- JsonRpcClientBase -->
<g id="node35" class="node"><title>JsonRpcClientBase</title>
<ellipse fill="none" stroke="black" cx="742.593" cy="-277.928" rx="79.0865" ry="18"/>
<text text-anchor="middle" x="742.593" y="-274.228" font-family="Times,serif" font-size="14.00">JsonRpcClientBase</text>
</g>
<!-- JsonRpcExt -->
<g id="node36" class="node"><title>JsonRpcExt</title>
<polygon fill="none" stroke="black" points="1038.77,-295.928 957.771,-295.928 957.771,-291.928 953.771,-291.928 953.771,-287.928 957.771,-287.928 957.771,-267.928 953.771,-267.928 953.771,-263.928 957.771,-263.928 957.771,-259.928 1038.77,-259.928 1038.77,-295.928"/>
<polyline fill="none" stroke="black" points="957.771,-291.928 961.771,-291.928 961.771,-287.928 957.771,-287.928 "/>
<polyline fill="none" stroke="black" points="957.771,-267.928 961.771,-267.928 961.771,-263.928 957.771,-263.928 "/>
<text text-anchor="middle" x="998.271" y="-274.228" font-family="Times,serif" font-size="14.00">JsonRpcExt</text>
</g>
<!-- JsonRpcClientBase&#45;&gt;JsonRpcExt -->
<g id="edge55" class="edge"><title>JsonRpcClientBase&#45;&gt;JsonRpcExt</title>
<path fill="none" stroke="black" d="M822.121,-277.928C863.045,-277.928 911.857,-277.928 947.544,-277.928"/>
<polygon fill="black" stroke="black" points="947.709,-281.429 957.709,-277.928 947.709,-274.429 947.709,-281.429"/>
</g>
<!-- JsonRpcExt&#45;&gt;Core_ComponentBase -->
<g id="edge62" class="edge"><title>JsonRpcExt&#45;&gt;Core_ComponentBase</title>
<path fill="none" stroke="black" stroke-dasharray="1,5" d="M1038.97,-283.787C1051.91,-287.68 1065.12,-294.156 1073.64,-304.928 1165.42,-420.913 1164.43,-911.118 1162.67,-1034.6"/>
<polygon fill="black" stroke="black" points="1159.17,-1034.7 1162.51,-1044.76 1166.17,-1034.81 1159.17,-1034.7"/>
</g>
<!-- Misc -->
<g id="node37" class="node"><title>Misc</title>
<polygon fill="none" stroke="black" points="769.593,-781.928 715.593,-781.928 715.593,-777.928 711.593,-777.928 711.593,-773.928 715.593,-773.928 715.593,-753.928 711.593,-753.928 711.593,-749.928 715.593,-749.928 715.593,-745.928 769.593,-745.928 769.593,-781.928"/>
<polyline fill="none" stroke="black" points="715.593,-777.928 719.593,-777.928 719.593,-773.928 715.593,-773.928 "/>
<polyline fill="none" stroke="black" points="715.593,-753.928 719.593,-753.928 719.593,-749.928 715.593,-749.928 "/>
<text text-anchor="middle" x="742.593" y="-760.228" font-family="Times,serif" font-size="14.00">Misc</text>
</g>
<!-- Misc&#45;&gt;Core_ComponentBase -->
<g id="edge64" class="edge"><title>Misc&#45;&gt;Core_ComponentBase</title>
<path fill="none" stroke="black" stroke-dasharray="1,5" d="M770.018,-761.938C831.33,-758.812 984.786,-759.79 1073.64,-837.928 1132.98,-890.113 1152.91,-987.227 1159.3,-1034.97"/>
<polygon fill="black" stroke="black" points="1155.83,-1035.41 1160.53,-1044.91 1162.77,-1034.56 1155.83,-1035.41"/>
</g>
<!-- Pager -->
<g id="node38" class="node"><title>Pager</title>
<polygon fill="none" stroke="black" points="769.593,-403.928 715.593,-403.928 715.593,-399.928 711.593,-399.928 711.593,-395.928 715.593,-395.928 715.593,-375.928 711.593,-375.928 711.593,-371.928 715.593,-371.928 715.593,-367.928 769.593,-367.928 769.593,-403.928"/>
<polyline fill="none" stroke="black" points="715.593,-399.928 719.593,-399.928 719.593,-395.928 715.593,-395.928 "/>
<polyline fill="none" stroke="black" points="715.593,-375.928 719.593,-375.928 719.593,-371.928 715.593,-371.928 "/>
<text text-anchor="middle" x="742.593" y="-382.228" font-family="Times,serif" font-size="14.00">Pager</text>
</g>
<!-- Pager&#45;&gt;Core_ComponentBase -->
<g id="edge63" class="edge"><title>Pager&#45;&gt;Core_ComponentBase</title>
<path fill="none" stroke="black" stroke-dasharray="1,5" d="M769.735,-384.832C800.393,-384.817 851.511,-388.881 886.901,-412.928 911.683,-429.769 898.97,-451.897 922.901,-469.928 978.64,-511.929 1027.45,-461.611 1073.64,-513.928 1143.16,-592.657 1158.44,-934.116 1161.46,-1034.85"/>
<polygon fill="black" stroke="black" points="1157.96,-1034.98 1161.74,-1044.88 1164.96,-1034.79 1157.96,-1034.98"/>
</g>
<!-- PagerInterface -->
<g id="node39" class="node"><title>PagerInterface</title>
<polygon fill="none" stroke="black" points="1039.77,-403.928 950.771,-403.928 950.771,-367.928 1045.77,-367.928 1045.77,-397.928 1039.77,-403.928"/>
<polyline fill="none" stroke="black" points="1039.77,-403.928 1039.77,-397.928 "/>
<polyline fill="none" stroke="black" points="1045.77,-397.928 1039.77,-397.928 "/>
<text text-anchor="middle" x="998.271" y="-382.228" font-family="Times,serif" font-size="14.00">PagerInterface</text>
</g>
<!-- Pager&#45;&gt;PagerInterface -->
<g id="edge57" class="edge"><title>Pager&#45;&gt;PagerInterface</title>
<path fill="none" stroke="black" d="M769.785,-385.928C809.78,-385.928 887.036,-385.928 940.339,-385.928"/>
<polygon fill="black" stroke="black" points="940.662,-389.429 950.662,-385.928 940.662,-382.429 940.662,-389.429"/>
</g>
<!-- PluginForSwooleHttpd -->
<g id="node40" class="node"><title>PluginForSwooleHttpd</title>
<polygon fill="none" stroke="black" points="813.593,-727.928 671.593,-727.928 671.593,-723.928 667.593,-723.928 667.593,-719.928 671.593,-719.928 671.593,-699.928 667.593,-699.928 667.593,-695.928 671.593,-695.928 671.593,-691.928 813.593,-691.928 813.593,-727.928"/>
<polyline fill="none" stroke="black" points="671.593,-723.928 675.593,-723.928 675.593,-719.928 671.593,-719.928 "/>
<polyline fill="none" stroke="black" points="671.593,-699.928 675.593,-699.928 675.593,-695.928 671.593,-695.928 "/>
<text text-anchor="middle" x="742.593" y="-706.228" font-family="Times,serif" font-size="14.00">PluginForSwooleHttpd</text>
</g>
<!-- PluginForSwooleHttpd&#45;&gt;Core_ComponentBase -->
<g id="edge67" class="edge"><title>PluginForSwooleHttpd&#45;&gt;Core_ComponentBase</title>
<path fill="none" stroke="black" stroke-dasharray="1,5" d="M813.691,-713.979C898.932,-720.313 1036.1,-735.488 1073.64,-768.928 1152.15,-838.851 1162.22,-975.533 1162.7,-1034.61"/>
<polygon fill="black" stroke="black" points="1159.2,-1034.7 1162.7,-1044.7 1166.2,-1034.71 1159.2,-1034.7"/>
</g>
<!-- RedisManager -->
<g id="node41" class="node"><title>RedisManager</title>
<polygon fill="none" stroke="black" points="1046.27,-349.928 950.271,-349.928 950.271,-345.928 946.271,-345.928 946.271,-341.928 950.271,-341.928 950.271,-321.928 946.271,-321.928 946.271,-317.928 950.271,-317.928 950.271,-313.928 1046.27,-313.928 1046.27,-349.928"/>
<polyline fill="none" stroke="black" points="950.271,-345.928 954.271,-345.928 954.271,-341.928 950.271,-341.928 "/>
<polyline fill="none" stroke="black" points="950.271,-321.928 954.271,-321.928 954.271,-317.928 950.271,-317.928 "/>
<text text-anchor="middle" x="998.271" y="-328.228" font-family="Times,serif" font-size="14.00">RedisManager</text>
</g>
<!-- RedisManager&#45;&gt;Core_ComponentBase -->
<g id="edge66" class="edge"><title>RedisManager&#45;&gt;Core_ComponentBase</title>
<path fill="none" stroke="black" stroke-dasharray="1,5" d="M1046.28,-340.341C1056.71,-344.338 1066.7,-350.234 1073.64,-358.928 1158.99,-465.813 1162.86,-917.003 1162.39,-1034.73"/>
<polygon fill="black" stroke="black" points="1158.89,-1034.75 1162.33,-1044.77 1165.89,-1034.78 1158.89,-1034.75"/>
</g>
<!-- RedisSimpleCache -->
<g id="node42" class="node"><title>RedisSimpleCache</title>
<polygon fill="none" stroke="black" points="802.593,-349.928 682.593,-349.928 682.593,-345.928 678.593,-345.928 678.593,-341.928 682.593,-341.928 682.593,-321.928 678.593,-321.928 678.593,-317.928 682.593,-317.928 682.593,-313.928 802.593,-313.928 802.593,-349.928"/>
<polyline fill="none" stroke="black" points="682.593,-345.928 686.593,-345.928 686.593,-341.928 682.593,-341.928 "/>
<polyline fill="none" stroke="black" points="682.593,-321.928 686.593,-321.928 686.593,-317.928 682.593,-317.928 "/>
<text text-anchor="middle" x="742.593" y="-328.228" font-family="Times,serif" font-size="14.00">RedisSimpleCache</text>
</g>
<!-- RedisSimpleCache&#45;&gt;Core_ComponentBase -->
<g id="edge65" class="edge"><title>RedisSimpleCache&#45;&gt;Core_ComponentBase</title>
<path fill="none" stroke="black" stroke-dasharray="1,5" d="M802.611,-332.708C830.14,-335.539 862.197,-342.584 886.901,-358.928 910.956,-374.844 900.33,-394.968 922.901,-412.928 978.947,-457.528 1028.68,-414.176 1073.64,-469.928 1145.12,-558.55 1159.06,-928.729 1161.61,-1034.56"/>
<polygon fill="black" stroke="black" points="1158.11,-1034.86 1161.84,-1044.78 1165.11,-1034.7 1158.11,-1034.86"/>
</g>
<!-- RedisSimpleCache&#45;&gt;RedisManager -->
<g id="edge58" class="edge"><title>RedisSimpleCache&#45;&gt;RedisManager</title>
<path fill="none" stroke="black" d="M802.749,-331.928C844.049,-331.928 898.889,-331.928 939.812,-331.928"/>
<polygon fill="black" stroke="black" points="939.899,-335.429 949.899,-331.928 939.899,-328.429 939.899,-335.429"/>
</g>
<!-- RouteHookDirectoryMode -->
<g id="node43" class="node"><title>RouteHookDirectoryMode</title>
<polygon fill="none" stroke="black" points="824.093,-673.928 661.093,-673.928 661.093,-669.928 657.093,-669.928 657.093,-665.928 661.093,-665.928 661.093,-645.928 657.093,-645.928 657.093,-641.928 661.093,-641.928 661.093,-637.928 824.093,-637.928 824.093,-673.928"/>
<polyline fill="none" stroke="black" points="661.093,-669.928 665.093,-669.928 665.093,-665.928 661.093,-665.928 "/>
<polyline fill="none" stroke="black" points="661.093,-645.928 665.093,-645.928 665.093,-641.928 661.093,-641.928 "/>
<text text-anchor="middle" x="742.593" y="-652.228" font-family="Times,serif" font-size="14.00">RouteHookDirectoryMode</text>
</g>
<!-- RouteHookDirectoryMode&#45;&gt;Core_ComponentBase -->
<g id="edge69" class="edge"><title>RouteHookDirectoryMode&#45;&gt;Core_ComponentBase</title>
<path fill="none" stroke="black" stroke-dasharray="1,5" d="M824.271,-662.258C910.18,-670.65 1038.53,-688.467 1073.64,-721.928 1119.43,-765.566 1149,-961.276 1158.67,-1034.85"/>
<polygon fill="black" stroke="black" points="1155.2,-1035.32 1159.95,-1044.79 1162.14,-1034.42 1155.2,-1035.32"/>
</g>
<!-- RouteHookManager -->
<g id="node44" class="node"><title>RouteHookManager</title>
<polygon fill="none" stroke="black" points="806.593,-619.928 678.593,-619.928 678.593,-615.928 674.593,-615.928 674.593,-611.928 678.593,-611.928 678.593,-591.928 674.593,-591.928 674.593,-587.928 678.593,-587.928 678.593,-583.928 806.593,-583.928 806.593,-619.928"/>
<polyline fill="none" stroke="black" points="678.593,-615.928 682.593,-615.928 682.593,-611.928 678.593,-611.928 "/>
<polyline fill="none" stroke="black" points="678.593,-591.928 682.593,-591.928 682.593,-587.928 678.593,-587.928 "/>
<text text-anchor="middle" x="742.593" y="-598.228" font-family="Times,serif" font-size="14.00">RouteHookManager</text>
</g>
<!-- RouteHookManager&#45;&gt;Core_ComponentBase -->
<g id="edge70" class="edge"><title>RouteHookManager&#45;&gt;Core_ComponentBase</title>
<path fill="none" stroke="black" stroke-dasharray="1,5" d="M806.871,-613.322C900.034,-630.357 1064.18,-661.476 1073.64,-670.928 1125.48,-722.725 1151.84,-953.468 1159.62,-1034.6"/>
<polygon fill="black" stroke="black" points="1156.14,-1034.97 1160.56,-1044.6 1163.11,-1034.31 1156.14,-1034.97"/>
</g>
<!-- RouteHookOneFileMode -->
<g id="node45" class="node"><title>RouteHookOneFileMode</title>
<polygon fill="none" stroke="black" points="820.093,-565.928 665.093,-565.928 665.093,-561.928 661.093,-561.928 661.093,-557.928 665.093,-557.928 665.093,-537.928 661.093,-537.928 661.093,-533.928 665.093,-533.928 665.093,-529.928 820.093,-529.928 820.093,-565.928"/>
<polyline fill="none" stroke="black" points="665.093,-561.928 669.093,-561.928 669.093,-557.928 665.093,-557.928 "/>
<polyline fill="none" stroke="black" points="665.093,-537.928 669.093,-537.928 669.093,-533.928 665.093,-533.928 "/>
<text text-anchor="middle" x="742.593" y="-544.228" font-family="Times,serif" font-size="14.00">RouteHookOneFileMode</text>
</g>
<!-- RouteHookOneFileMode&#45;&gt;Core_ComponentBase -->
<g id="edge71" class="edge"><title>RouteHookOneFileMode&#45;&gt;Core_ComponentBase</title>
<path fill="none" stroke="black" stroke-dasharray="1,5" d="M820.194,-557.993C842.092,-562.036 865.747,-567.542 886.901,-574.928 903.981,-580.892 906.029,-587.396 922.901,-593.928 987.435,-618.914 1025.95,-582.783 1073.64,-632.928 1129.36,-691.52 1153.51,-948.367 1160.15,-1034.59"/>
<polygon fill="black" stroke="black" points="1156.67,-1034.98 1160.9,-1044.69 1163.65,-1034.45 1156.67,-1034.98"/>
</g>
<!-- RouteHookRewrite -->
<g id="node46" class="node"><title>RouteHookRewrite</title>
<polygon fill="none" stroke="black" points="803.593,-511.928 681.593,-511.928 681.593,-507.928 677.593,-507.928 677.593,-503.928 681.593,-503.928 681.593,-483.928 677.593,-483.928 677.593,-479.928 681.593,-479.928 681.593,-475.928 803.593,-475.928 803.593,-511.928"/>
<polyline fill="none" stroke="black" points="681.593,-507.928 685.593,-507.928 685.593,-503.928 681.593,-503.928 "/>
<polyline fill="none" stroke="black" points="681.593,-483.928 685.593,-483.928 685.593,-479.928 681.593,-479.928 "/>
<text text-anchor="middle" x="742.593" y="-490.228" font-family="Times,serif" font-size="14.00">RouteHookRewrite</text>
</g>
<!-- RouteHookRewrite&#45;&gt;Core_ComponentBase -->
<g id="edge72" class="edge"><title>RouteHookRewrite&#45;&gt;Core_ComponentBase</title>
<path fill="none" stroke="black" stroke-dasharray="1,5" d="M803.927,-497.626C830.505,-501.149 861.414,-507.933 886.901,-520.928 906.507,-530.925 903.64,-544.281 922.901,-554.928 983.465,-588.409 1026.37,-543.391 1073.64,-593.928 1134.29,-658.763 1155.42,-943.675 1160.69,-1034.8"/>
<polygon fill="black" stroke="black" points="1157.2,-1035.13 1161.26,-1044.92 1164.19,-1034.74 1157.2,-1035.13"/>
</g>
<!-- RouteHookRouteMap -->
<g id="node47" class="node"><title>RouteHookRouteMap</title>
<polygon fill="none" stroke="black" points="811.093,-457.928 674.093,-457.928 674.093,-453.928 670.093,-453.928 670.093,-449.928 674.093,-449.928 674.093,-429.928 670.093,-429.928 670.093,-425.928 674.093,-425.928 674.093,-421.928 811.093,-421.928 811.093,-457.928"/>
<polyline fill="none" stroke="black" points="674.093,-453.928 678.093,-453.928 678.093,-449.928 674.093,-449.928 "/>
<polyline fill="none" stroke="black" points="674.093,-429.928 678.093,-429.928 678.093,-425.928 674.093,-425.928 "/>
<text text-anchor="middle" x="742.593" y="-436.228" font-family="Times,serif" font-size="14.00">RouteHookRouteMap</text>
</g>
<!-- RouteHookRouteMap&#45;&gt;Core_ComponentBase -->
<g id="edge73" class="edge"><title>RouteHookRouteMap&#45;&gt;Core_ComponentBase</title>
<path fill="none" stroke="black" stroke-dasharray="1,5" d="M811.447,-442.585C836.621,-446.084 864.477,-453.128 886.901,-466.928 909.309,-480.72 901.056,-499.259 922.901,-513.928 980.54,-552.635 1026.88,-503.603 1073.64,-554.928 1138.73,-626.378 1156.98,-938.708 1161.1,-1034.74"/>
<polygon fill="black" stroke="black" points="1157.61,-1035 1161.52,-1044.85 1164.6,-1034.71 1157.61,-1035"/>
</g>
<!-- StrictCheck -->
<g id="node48" class="node"><title>StrictCheck</title>
<polygon fill="none" stroke="black" points="1038.27,-241.928 958.271,-241.928 958.271,-237.928 954.271,-237.928 954.271,-233.928 958.271,-233.928 958.271,-213.928 954.271,-213.928 954.271,-209.928 958.271,-209.928 958.271,-205.928 1038.27,-205.928 1038.27,-241.928"/>
<polyline fill="none" stroke="black" points="958.271,-237.928 962.271,-237.928 962.271,-233.928 958.271,-233.928 "/>
<polyline fill="none" stroke="black" points="958.271,-213.928 962.271,-213.928 962.271,-209.928 958.271,-209.928 "/>
<text text-anchor="middle" x="998.271" y="-220.228" font-family="Times,serif" font-size="14.00">StrictCheck</text>
</g>
<!-- StrictCheck&#45;&gt;Core_ComponentBase -->
<g id="edge68" class="edge"><title>StrictCheck&#45;&gt;Core_ComponentBase</title>
<path fill="none" stroke="black" stroke-dasharray="1,5" d="M1038.63,-229.635C1051.69,-233.511 1065.08,-240.016 1073.64,-250.928 1123.09,-313.917 1154.18,-897.932 1160.81,-1034.47"/>
<polygon fill="black" stroke="black" points="1157.32,-1034.74 1161.29,-1044.56 1164.31,-1034.41 1157.32,-1034.74"/>
</g>
<!-- StrictModelTrait -->
<g id="node49" class="node"><title>StrictModelTrait</title>
<polygon fill="none" stroke="black" points="742.593,-187.928 643.554,-169.928 742.593,-151.928 841.631,-169.928 742.593,-187.928"/>
<text text-anchor="middle" x="742.593" y="-166.228" font-family="Times,serif" font-size="14.00">StrictModelTrait</text>
</g>
<!-- StrictModelTrait&#45;&gt;StrictCheck -->
<g id="edge59" class="edge"><title>StrictModelTrait&#45;&gt;StrictCheck</title>
<path fill="none" stroke="black" d="M793.798,-178.706C821.356,-183.695 856.093,-190.263 886.901,-196.928 907.003,-201.278 929.038,-206.563 948.098,-211.3"/>
<polygon fill="black" stroke="black" points="947.507,-214.76 958.057,-213.792 949.206,-207.969 947.507,-214.76"/>
</g>
<!-- StrictServiceTrait -->
<g id="node50" class="node"><title>StrictServiceTrait</title>
<polygon fill="none" stroke="black" points="742.593,-241.928 638.863,-223.928 742.593,-205.928 846.323,-223.928 742.593,-241.928"/>
<text text-anchor="middle" x="742.593" y="-220.228" font-family="Times,serif" font-size="14.00">StrictServiceTrait</text>
</g>
<!-- StrictServiceTrait&#45;&gt;StrictCheck -->
<g id="edge60" class="edge"><title>StrictServiceTrait&#45;&gt;StrictCheck</title>
<path fill="none" stroke="black" d="M846.408,-223.928C881.391,-223.928 918.906,-223.928 947.774,-223.928"/>
<polygon fill="black" stroke="black" points="947.998,-227.429 957.998,-223.928 947.998,-220.429 947.998,-227.429"/>
</g>
<!-- EventManager -->
<g id="node51" class="node"><title>EventManager</title>
<polygon fill="none" stroke="black" points="791.093,-889.928 694.093,-889.928 694.093,-885.928 690.093,-885.928 690.093,-881.928 694.093,-881.928 694.093,-861.928 690.093,-861.928 690.093,-857.928 694.093,-857.928 694.093,-853.928 791.093,-853.928 791.093,-889.928"/>
<polyline fill="none" stroke="black" points="694.093,-885.928 698.093,-885.928 698.093,-881.928 694.093,-881.928 "/>
<polyline fill="none" stroke="black" points="694.093,-861.928 698.093,-861.928 698.093,-857.928 694.093,-857.928 "/>
<text text-anchor="middle" x="742.593" y="-868.228" font-family="Times,serif" font-size="14.00">EventManager</text>
</g>
<!-- EventManager&#45;&gt;Core_ComponentBase -->
<g id="edge75" class="edge"><title>EventManager&#45;&gt;Core_ComponentBase</title>
<path fill="none" stroke="black" stroke-dasharray="1,5" d="M791.197,-876.646C819.644,-880.498 856.118,-887.279 886.901,-898.928 981.619,-934.774 1080.83,-1002.59 1130.23,-1038.76"/>
<polygon fill="black" stroke="black" points="1128.46,-1041.8 1138.58,-1044.92 1132.61,-1036.17 1128.46,-1041.8"/>
</g>
<!-- WrapperWithException -->
<g id="node52" class="node"><title>WrapperWithException</title>
<polygon fill="none" stroke="black" points="816.093,-835.928 669.093,-835.928 669.093,-831.928 665.093,-831.928 665.093,-827.928 669.093,-827.928 669.093,-807.928 665.093,-807.928 665.093,-803.928 669.093,-803.928 669.093,-799.928 816.093,-799.928 816.093,-835.928"/>
<polyline fill="none" stroke="black" points="669.093,-831.928 673.093,-831.928 673.093,-827.928 669.093,-827.928 "/>
<polyline fill="none" stroke="black" points="669.093,-807.928 673.093,-807.928 673.093,-803.928 669.093,-803.928 "/>
<text text-anchor="middle" x="742.593" y="-814.228" font-family="Times,serif" font-size="14.00">WrapperWithException</text>
</g>
<!-- WrapperWithException&#45;&gt;Core_ComponentBase -->
<g id="edge76" class="edge"><title>WrapperWithException&#45;&gt;Core_ComponentBase</title>
<path fill="none" stroke="black" stroke-dasharray="1,5" d="M816.393,-821.922C889.002,-829.425 1000.05,-850.871 1073.64,-911.928 1113.7,-945.161 1139.77,-1001.52 1152.64,-1035.18"/>
<polygon fill="black" stroke="black" points="1149.46,-1036.68 1156.21,-1044.85 1156.03,-1034.26 1149.46,-1036.68"/>
</g>
<!-- HttpServer -->
<g id="node53" class="node"><title>HttpServer</title>
<polygon fill="lightgrey" stroke="black" points="325.909,-619.928 256.197,-601.928 325.909,-583.928 395.621,-601.928 325.909,-619.928"/>
<polyline fill="none" stroke="black" points="267.816,-604.928 267.816,-598.928 "/>
<polyline fill="none" stroke="black" points="314.29,-586.928 337.528,-586.928 "/>
<polyline fill="none" stroke="black" points="384.002,-598.928 384.002,-604.928 "/>
<polyline fill="none" stroke="black" points="337.528,-616.928 314.29,-616.928 "/>
<text text-anchor="middle" x="325.909" y="-598.228" font-family="Times,serif" font-size="14.00">HttpServer</text>
</g>
<!-- HttpServer&#45;&gt;Core_HttpServer -->
<g id="edge77" class="edge"><title>HttpServer&#45;&gt;Core_HttpServer</title>
<path fill="none" stroke="black" d="M331.481,-618.692C350.629,-685.283 431.251,-932.358 598.285,-1032.93 708.774,-1099.45 868.86,-1085.26 948.488,-1072.44"/>
<polygon fill="black" stroke="black" points="949.429,-1075.84 958.715,-1070.73 948.274,-1068.93 949.429,-1075.84"/>
</g>
<!-- DuckPhp -->
<g id="node54" class="node"><title>DuckPhp</title>
<polygon fill="lightgrey" stroke="black" points="325.909,-565.928 264.242,-547.928 325.909,-529.928 387.576,-547.928 325.909,-565.928"/>
<polyline fill="none" stroke="black" points="275.761,-551.291 275.761,-544.566 "/>
<polyline fill="none" stroke="black" points="314.39,-533.291 337.428,-533.291 "/>
<polyline fill="none" stroke="black" points="376.057,-544.566 376.057,-551.291 "/>
<polyline fill="none" stroke="black" points="337.428,-562.566 314.39,-562.566 "/>
<text text-anchor="middle" x="325.909" y="-544.228" font-family="Times,serif" font-size="14.00">DuckPhp</text>
</g>
<!-- DuckPhp&#45;&gt;Core_App -->
<g id="edge78" class="edge"><title>DuckPhp&#45;&gt;Core_App</title>
<path fill="none" stroke="black" d="M371.218,-552.835C384.996,-556.657 398.819,-563.331 407.441,-574.928 449.693,-631.755 406.204,-1144.38 427.441,-1211.93 438.18,-1246.09 462.994,-1279.72 480.1,-1300.16"/>
<polygon fill="black" stroke="black" points="477.506,-1302.51 486.675,-1307.81 482.818,-1297.95 477.506,-1302.51"/>
</g>
<!-- DuckPhp&#45;&gt;DBManager -->
<g id="edge81" class="edge"><title>DuckPhp&#45;&gt;DBManager</title>
<path fill="none" stroke="black" d="M329.593,-530.841C342.46,-455.443 405.382,-151.114 598.285,-34.9284 707.869,31.0742 866.403,-11.9235 946.651,-41.2058"/>
<polygon fill="black" stroke="black" points="945.448,-44.4925 956.041,-44.7006 947.889,-37.9322 945.448,-44.4925"/>
</g>
<!-- DuckPhp&#45;&gt;Pager -->
<g id="edge80" class="edge"><title>DuckPhp&#45;&gt;Pager</title>
<path fill="none" stroke="black" d="M341.929,-534.403C360.761,-518.015 394.575,-490.431 427.441,-472.928 520.507,-423.366 644.507,-399.864 705.119,-390.741"/>
<polygon fill="black" stroke="black" points="705.941,-394.158 715.331,-389.251 704.93,-387.232 705.941,-394.158"/>
</g>
<!-- DuckPhp&#45;&gt;RouteHookOneFileMode -->
<g id="edge83" class="edge"><title>DuckPhp&#45;&gt;RouteHookOneFileMode</title>
<path fill="none" stroke="black" d="M387.652,-547.928C458.09,-547.928 574.744,-547.928 654.746,-547.928"/>
<polygon fill="black" stroke="black" points="654.803,-551.429 664.803,-547.928 654.803,-544.429 654.803,-551.429"/>
</g>
<!-- DuckPhp&#45;&gt;RouteHookRouteMap -->
<g id="edge79" class="edge"><title>DuckPhp&#45;&gt;RouteHookRouteMap</title>
<path fill="none" stroke="black" d="M355.165,-538.435C404.21,-522.196 508.458,-488.734 598.285,-466.928 619.418,-461.798 642.504,-457.071 663.852,-453.054"/>
<polygon fill="black" stroke="black" points="664.655,-456.465 673.849,-451.2 663.379,-449.582 664.655,-456.465"/>
</g>
<!-- DuckPhp&#45;&gt;EventManager -->
<g id="edge82" class="edge"><title>DuckPhp&#45;&gt;EventManager</title>
<path fill="none" stroke="black" d="M363.723,-555.037C378.333,-559.133 394.663,-565.424 407.441,-574.928 525.354,-662.627 474.636,-765.523 598.285,-844.928 623.614,-861.194 656.328,-868.175 684.104,-870.987"/>
<polygon fill="black" stroke="black" points="683.828,-874.476 694.091,-871.844 684.426,-867.502 683.828,-874.476"/>
</g>
</g>
</svg>
