<?xml version="1.0" encoding="UTF-8" standalone="no"?>
<!DOCTYPE svg PUBLIC "-//W3C//DTD SVG 1.1//EN"
 "http://www.w3.org/Graphics/SVG/1.1/DTD/svg11.dtd">
<!-- Generated by graphviz version 2.38.0 (20140413.2041)
 -->
<!-- Title: gDuckPhp Pages: 1 -->
<svg width="1420pt" height="2056pt"
 viewBox="0.00 0.00 1420.03 2055.84" xmlns="http://www.w3.org/2000/svg" xmlns:xlink="http://www.w3.org/1999/xlink">
<g id="graph0" class="graph" transform="scale(1 1) rotate(0) translate(4 2051.84)">
<title>gDuckPhp</title>
<polygon fill="white" stroke="none" points="-4,4 -4,-2051.84 1416.03,-2051.84 1416.03,4 -4,4"/>
<g id="clust1" class="cluster"><title>cluster_SingletonEx</title>
<polygon fill="none" stroke="black" points="31.8981,-8 31.8981,-83 200.478,-83 200.478,-8 31.8981,-8"/>
<text text-anchor="middle" x="116.188" y="-67.8" font-family="Times,serif" font-size="14.00">[DuckPhp\SingletonEx]</text>
</g>
<g id="clust2" class="cluster"><title>cluster_Core</title>
<polygon fill="none" stroke="black" points="427.441,-46 427.441,-519 1369.68,-519 1369.68,-46 427.441,-46"/>
<text text-anchor="middle" x="898.561" y="-503.8" font-family="Times,serif" font-size="14.00">[DuckPhp\Core]</text>
</g>
<g id="clust3" class="cluster"><title>cluster_Helper</title>
<polygon fill="none" stroke="black" points="8,-91 8,-382 407.441,-382 407.441,-91 8,-91"/>
<text text-anchor="middle" x="207.721" y="-366.8" font-family="Times,serif" font-size="14.00">[DuckPhp\Helper]</text>
</g>
<g id="clust4" class="cluster"><title>cluster_Db</title>
<polygon fill="none" stroke="black" points="1071.5,-1874 1071.5,-2003 1404.03,-2003 1404.03,-1874 1071.5,-1874"/>
<text text-anchor="middle" x="1237.76" y="-1987.8" font-family="Times,serif" font-size="14.00">[DuckPhp\Db]</text>
</g>
<g id="clust5" class="cluster"><title>cluster_HttpServer</title>
<polygon fill="none" stroke="black" points="867.104,-954 867.104,-1029 1022.82,-1029 1022.82,-954 867.104,-954"/>
<text text-anchor="middle" x="944.96" y="-1013.8" font-family="Times,serif" font-size="14.00">[DuckPhp\HttpServer]</text>
</g>
<g id="clust6" class="cluster"><title>cluster_Ext</title>
<polygon fill="none" stroke="black" points="596.782,-1037 596.782,-2030 1015.46,-2030 1015.46,-1037 596.782,-1037"/>
<text text-anchor="middle" x="806.121" y="-2014.8" font-family="Times,serif" font-size="14.00">[DuckPhp\Ext]</text>
</g>
<g id="clust7" class="cluster"><title>cluster_DuckPhp</title>
<polygon fill="none" stroke="black" points="256.325,-1602 256.325,-1677 395.492,-1677 395.492,-1602 256.325,-1602"/>
<text text-anchor="middle" x="325.909" y="-1661.8" font-family="Times,serif" font-size="14.00">[DuckPhp]</text>
</g>
<g id="clust8" class="cluster"><title>cluster_ThrowOn</title>
<polygon fill="none" stroke="black" points="44.7663,-1170 44.7663,-1245 187.61,-1245 187.61,-1170 44.7663,-1170"/>
<text text-anchor="middle" x="116.188" y="-1229.8" font-family="Times,serif" font-size="14.00">[DuckPhp\ThrowOn]</text>
</g>
<!-- SingletonEx -->
<g id="node1" class="node"><title>SingletonEx</title>
<polygon fill="lightgrey" stroke="black" points="116.188,-52 40.1075,-34 116.188,-16 192.269,-34 116.188,-52"/>
<polyline fill="none" stroke="black" points="51.7851,-36.7628 51.7851,-31.2372 "/>
<polyline fill="none" stroke="black" points="104.511,-18.7628 127.866,-18.7628 "/>
<polyline fill="none" stroke="black" points="180.591,-31.2372 180.591,-36.7628 "/>
<polyline fill="none" stroke="black" points="127.866,-49.2372 104.511,-49.2372 "/>
<text text-anchor="middle" x="116.188" y="-30.3" font-family="Times,serif" font-size="14.00">SingletonEx</text>
</g>
<!-- Core_AppPluginTrait -->
<g id="node2" class="node"><title>Core_AppPluginTrait</title>
<polygon fill="none" stroke="black" points="689.282,-374 596.612,-356 689.282,-338 781.952,-356 689.282,-374"/>
<text text-anchor="middle" x="689.282" y="-352.3" font-family="Times,serif" font-size="14.00">AppPluginTrait</text>
</g>
<!-- Core_View -->
<g id="node7" class="node"><title>Core_View</title>
<polygon fill="none" stroke="black" points="971.96,-468 917.96,-468 917.96,-464 913.96,-464 913.96,-460 917.96,-460 917.96,-440 913.96,-440 913.96,-436 917.96,-436 917.96,-432 971.96,-432 971.96,-468"/>
<polyline fill="none" stroke="black" points="917.96,-464 921.96,-464 921.96,-460 917.96,-460 "/>
<polyline fill="none" stroke="black" points="917.96,-440 921.96,-440 921.96,-436 917.96,-436 "/>
<text text-anchor="middle" x="944.96" y="-446.3" font-family="Times,serif" font-size="14.00">View</text>
</g>
<!-- Core_AppPluginTrait&#45;&gt;Core_View -->
<g id="edge23" class="edge"><title>Core_AppPluginTrait&#45;&gt;Core_View</title>
<path fill="none" stroke="black" d="M752.403,-361.793C778.724,-366.241 808.94,-374.103 833.589,-388 852.35,-398.577 849.001,-411.333 867.104,-423 879.419,-430.936 894.353,-436.871 907.769,-441.124"/>
<polygon fill="black" stroke="black" points="907.082,-444.571 917.664,-444.054 909.069,-437.859 907.082,-444.571"/>
</g>
<!-- Core_Configer -->
<g id="node8" class="node"><title>Core_Configer</title>
<polygon fill="none" stroke="black" points="977.46,-360 912.46,-360 912.46,-356 908.46,-356 908.46,-352 912.46,-352 912.46,-332 908.46,-332 908.46,-328 912.46,-328 912.46,-324 977.46,-324 977.46,-360"/>
<polyline fill="none" stroke="black" points="912.46,-356 916.46,-356 916.46,-352 912.46,-352 "/>
<polyline fill="none" stroke="black" points="912.46,-332 916.46,-332 916.46,-328 912.46,-328 "/>
<text text-anchor="middle" x="944.96" y="-338.3" font-family="Times,serif" font-size="14.00">Configer</text>
</g>
<!-- Core_AppPluginTrait&#45;&gt;Core_Configer -->
<g id="edge22" class="edge"><title>Core_AppPluginTrait&#45;&gt;Core_Configer</title>
<path fill="none" stroke="black" d="M761.959,-352.044C807.225,-349.546 864.132,-346.406 902.149,-344.307"/>
<polygon fill="black" stroke="black" points="902.554,-347.791 912.346,-343.745 902.168,-340.801 902.554,-347.791"/>
</g>
<!-- Core_Route -->
<g id="node10" class="node"><title>Core_Route</title>
<polygon fill="lightgrey" stroke="black" points="944.96,-414 899.883,-396 944.96,-378 990.038,-396 944.96,-414"/>
<polyline fill="none" stroke="black" points="911.027,-400.45 911.027,-391.55 "/>
<polyline fill="none" stroke="black" points="933.816,-382.45 956.105,-382.45 "/>
<polyline fill="none" stroke="black" points="978.893,-391.55 978.893,-400.45 "/>
<polyline fill="none" stroke="black" points="956.105,-409.55 933.816,-409.55 "/>
<text text-anchor="middle" x="944.96" y="-392.3" font-family="Times,serif" font-size="14.00">Route</text>
</g>
<!-- Core_AppPluginTrait&#45;&gt;Core_Route -->
<g id="edge24" class="edge"><title>Core_AppPluginTrait&#45;&gt;Core_Route</title>
<path fill="none" stroke="black" d="M741.008,-363.998C788.26,-371.449 857.875,-382.426 902.055,-389.392"/>
<polygon fill="black" stroke="black" points="901.743,-392.886 912.166,-390.987 902.833,-385.972 901.743,-392.886"/>
</g>
<!-- Core_SuperGlobal -->
<g id="node13" class="node"><title>Core_SuperGlobal</title>
<polygon fill="none" stroke="black" points="987.46,-252 902.46,-252 902.46,-248 898.46,-248 898.46,-244 902.46,-244 902.46,-224 898.46,-224 898.46,-220 902.46,-220 902.46,-216 987.46,-216 987.46,-252"/>
<polyline fill="none" stroke="black" points="902.46,-248 906.46,-248 906.46,-244 902.46,-244 "/>
<polyline fill="none" stroke="black" points="902.46,-224 906.46,-224 906.46,-220 902.46,-220 "/>
<text text-anchor="middle" x="944.96" y="-230.3" font-family="Times,serif" font-size="14.00">SuperGlobal</text>
</g>
<!-- Core_AppPluginTrait&#45;&gt;Core_SuperGlobal -->
<g id="edge25" class="edge"><title>Core_AppPluginTrait&#45;&gt;Core_SuperGlobal</title>
<path fill="none" stroke="black" d="M771.134,-353.854C793.113,-349.961 815.746,-342.552 833.589,-329 860.422,-308.621 841.893,-283.352 867.104,-261 874.409,-254.524 883.361,-249.578 892.542,-245.806"/>
<polygon fill="black" stroke="black" points="893.951,-249.018 902.133,-242.287 891.54,-242.446 893.951,-249.018"/>
</g>
<!-- Core_App -->
<g id="node3" class="node"><title>Core_App</title>
<polygon fill="lightgrey" stroke="black" points="472.208,-263 435.674,-245 472.208,-227 508.742,-245 472.208,-263"/>
<polyline fill="none" stroke="black" points="446.438,-250.304 446.438,-239.696 "/>
<polyline fill="none" stroke="black" points="461.443,-232.304 482.972,-232.304 "/>
<polyline fill="none" stroke="black" points="497.977,-239.696 497.977,-250.304 "/>
<polyline fill="none" stroke="black" points="482.972,-257.696 461.443,-257.696 "/>
<text text-anchor="middle" x="472.208" y="-241.3" font-family="Times,serif" font-size="14.00">App</text>
</g>
<!-- Core_Kernel -->
<g id="node4" class="node"><title>Core_Kernel</title>
<polygon fill="none" stroke="black" points="689.282,-226 640.35,-208 689.282,-190 738.213,-208 689.282,-226"/>
<text text-anchor="middle" x="689.282" y="-204.3" font-family="Times,serif" font-size="14.00">Kernel</text>
</g>
<!-- Core_App&#45;&gt;Core_Kernel -->
<g id="edge9" class="edge"><title>Core_App&#45;&gt;Core_Kernel</title>
<path fill="none" stroke="black" d="M499.58,-240.463C535.926,-234.21 601.845,-222.87 645.349,-215.386"/>
<polygon fill="black" stroke="black" points="646.091,-218.81 655.353,-213.665 644.905,-211.911 646.091,-218.81"/>
</g>
<!-- Core_AutoLoader -->
<g id="node5" class="node"><title>Core_AutoLoader</title>
<polygon fill="lightgrey" stroke="black" points="944.96,-306 869.718,-288 944.96,-270 1020.2,-288 944.96,-306"/>
<polyline fill="none" stroke="black" points="881.389,-290.792 881.389,-285.208 "/>
<polyline fill="none" stroke="black" points="933.29,-272.792 956.631,-272.792 "/>
<polyline fill="none" stroke="black" points="1008.53,-285.208 1008.53,-290.792 "/>
<polyline fill="none" stroke="black" points="956.631,-303.208 933.29,-303.208 "/>
<text text-anchor="middle" x="944.96" y="-284.3" font-family="Times,serif" font-size="14.00">AutoLoader</text>
</g>
<!-- Core_App&#45;&gt;Core_AutoLoader -->
<g id="edge12" class="edge"><title>Core_App&#45;&gt;Core_AutoLoader</title>
<path fill="none" stroke="black" stroke-dasharray="5,2" d="M507.211,-244.086C571.39,-242.875 714.62,-242.625 833.589,-260 856.451,-263.339 881.443,-269.465 901.855,-275.138"/>
<polygon fill="black" stroke="black" points="900.902,-278.506 911.478,-277.872 902.815,-271.772 900.902,-278.506"/>
</g>
<!-- Core_ExceptionManager -->
<g id="node6" class="node"><title>Core_ExceptionManager</title>
<polygon fill="none" stroke="black" points="1004.96,-198 884.96,-198 884.96,-194 880.96,-194 880.96,-190 884.96,-190 884.96,-170 880.96,-170 880.96,-166 884.96,-166 884.96,-162 1004.96,-162 1004.96,-198"/>
<polyline fill="none" stroke="black" points="884.96,-194 888.96,-194 888.96,-190 884.96,-190 "/>
<polyline fill="none" stroke="black" points="884.96,-170 888.96,-170 888.96,-166 884.96,-166 "/>
<text text-anchor="middle" x="944.96" y="-176.3" font-family="Times,serif" font-size="14.00">ExceptionManager</text>
</g>
<!-- Core_App&#45;&gt;Core_ExceptionManager -->
<g id="edge15" class="edge"><title>Core_App&#45;&gt;Core_ExceptionManager</title>
<path fill="none" stroke="black" stroke-dasharray="5,2" d="M480.317,-230.674C491.129,-210.714 513.793,-175.372 544.974,-161 603.222,-134.153 769.686,-155.54 833.589,-161 846.943,-162.141 861.107,-164.045 874.678,-166.218"/>
<polygon fill="black" stroke="black" points="874.477,-169.733 884.916,-167.925 875.627,-162.828 874.477,-169.733"/>
</g>
<!-- Core_App&#45;&gt;Core_View -->
<g id="edge18" class="edge"><title>Core_App&#45;&gt;Core_View</title>
<path fill="none" stroke="black" stroke-dasharray="5,2" d="M476.337,-261.163C483.047,-290.977 501.857,-354.204 544.974,-383 598.51,-418.754 771.272,-391.848 833.589,-408 849.387,-412.095 851.945,-416.957 867.104,-423 880.4,-428.3 895.194,-433.629 908.225,-438.136"/>
<polygon fill="black" stroke="black" points="907.197,-441.484 917.791,-441.408 909.462,-434.86 907.197,-441.484"/>
</g>
<!-- Core_App&#45;&gt;Core_Configer -->
<g id="edge13" class="edge"><title>Core_App&#45;&gt;Core_Configer</title>
<path fill="none" stroke="black" stroke-dasharray="5,2" d="M499.027,-249.981C512.646,-252.44 529.662,-255.247 544.974,-257 608.818,-264.309 776.233,-246.021 833.589,-275 854.29,-285.459 848.036,-301.797 867.104,-315 877.642,-322.296 890.35,-327.81 902.372,-331.889"/>
<polygon fill="black" stroke="black" points="901.656,-335.333 912.246,-334.986 903.751,-328.654 901.656,-335.333"/>
</g>
<!-- Core_Logger -->
<g id="node9" class="node"><title>Core_Logger</title>
<polygon fill="none" stroke="black" points="972.96,-90 916.96,-90 916.96,-86 912.96,-86 912.96,-82 916.96,-82 916.96,-62 912.96,-62 912.96,-58 916.96,-58 916.96,-54 972.96,-54 972.96,-90"/>
<polyline fill="none" stroke="black" points="916.96,-86 920.96,-86 920.96,-82 916.96,-82 "/>
<polyline fill="none" stroke="black" points="916.96,-62 920.96,-62 920.96,-58 916.96,-58 "/>
<text text-anchor="middle" x="944.96" y="-68.3" font-family="Times,serif" font-size="14.00">Logger</text>
</g>
<!-- Core_App&#45;&gt;Core_Logger -->
<g id="edge14" class="edge"><title>Core_App&#45;&gt;Core_Logger</title>
<path fill="none" stroke="black" stroke-dasharray="5,2" d="M476.819,-228.835C484.136,-200.343 503.654,-141.763 544.974,-116 572.223,-99.0103 801.86,-105.939 833.589,-101 858.432,-97.1326 885.767,-89.9733 907.018,-83.736"/>
<polygon fill="black" stroke="black" points="908.048,-87.0812 916.623,-80.8588 906.039,-80.3757 908.048,-87.0812"/>
</g>
<!-- Core_App&#45;&gt;Core_Route -->
<g id="edge16" class="edge"><title>Core_App&#45;&gt;Core_Route</title>
<path fill="none" stroke="black" stroke-dasharray="5,2" d="M475.762,-261.538C483.635,-310.113 509.175,-450.601 544.974,-477 648.213,-553.13 721.494,-539.359 833.589,-477 858.274,-463.268 845.08,-440.686 867.104,-423 877.633,-414.545 890.998,-408.642 903.62,-404.562"/>
<polygon fill="black" stroke="black" points="904.9,-407.834 913.515,-401.667 902.934,-401.116 904.9,-407.834"/>
</g>
<!-- Core_RuntimeState -->
<g id="node11" class="node"><title>Core_RuntimeState</title>
<polygon fill="none" stroke="black" points="990.46,-144 899.46,-144 899.46,-140 895.46,-140 895.46,-136 899.46,-136 899.46,-116 895.46,-116 895.46,-112 899.46,-112 899.46,-108 990.46,-108 990.46,-144"/>
<polyline fill="none" stroke="black" points="899.46,-140 903.46,-140 903.46,-136 899.46,-136 "/>
<polyline fill="none" stroke="black" points="899.46,-116 903.46,-116 903.46,-112 899.46,-112 "/>
<text text-anchor="middle" x="944.96" y="-122.3" font-family="Times,serif" font-size="14.00">RuntimeState</text>
</g>
<!-- Core_App&#45;&gt;Core_RuntimeState -->
<g id="edge17" class="edge"><title>Core_App&#45;&gt;Core_RuntimeState</title>
<path fill="none" stroke="black" stroke-dasharray="5,2" d="M478.798,-230.021C488.351,-206.832 510.222,-162.942 544.974,-144 602.761,-112.502 794.238,-117.82 889.358,-122.673"/>
<polygon fill="black" stroke="black" points="889.191,-126.169 899.361,-123.2 889.559,-119.179 889.191,-126.169"/>
</g>
<!-- Core_SystemWrapperTrait -->
<g id="node12" class="node"><title>Core_SystemWrapperTrait</title>
<polygon fill="none" stroke="black" points="689.282,-468 568.962,-450 689.282,-432 809.601,-450 689.282,-468"/>
<text text-anchor="middle" x="689.282" y="-446.3" font-family="Times,serif" font-size="14.00">SystemWrapperTrait</text>
</g>
<!-- Core_App&#45;&gt;Core_SystemWrapperTrait -->
<g id="edge11" class="edge"><title>Core_App&#45;&gt;Core_SystemWrapperTrait</title>
<path fill="none" stroke="black" d="M475.07,-261.766C479.866,-296.563 495.924,-376.8 544.974,-418 558.809,-429.621 575.968,-437.26 593.55,-442.231"/>
<polygon fill="black" stroke="black" points="592.788,-445.648 603.342,-444.727 594.516,-438.865 592.788,-445.648"/>
</g>
<!-- Core_App&#45;&gt;Core_SuperGlobal -->
<g id="edge19" class="edge"><title>Core_App&#45;&gt;Core_SuperGlobal</title>
<path fill="none" stroke="black" stroke-dasharray="5,2" d="M482.867,-231.881C495.239,-216.307 518.299,-191.167 544.974,-181 604.906,-158.159 772.911,-160.223 833.589,-181 851.425,-187.107 850.549,-197.981 867.104,-207 875.13,-211.372 884.002,-215.258 892.781,-218.623"/>
<polygon fill="black" stroke="black" points="891.632,-221.93 902.226,-222.07 894.031,-215.354 891.632,-221.93"/>
</g>
<!-- Core_ExtendableStaticCallTrait -->
<g id="node14" class="node"><title>Core_ExtendableStaticCallTrait</title>
<polygon fill="none" stroke="black" points="689.282,-92 545.166,-74 689.282,-56 833.397,-74 689.282,-92"/>
<text text-anchor="middle" x="689.282" y="-70.3" font-family="Times,serif" font-size="14.00">ExtendableStaticCallTrait</text>
</g>
<!-- Core_App&#45;&gt;Core_ExtendableStaticCallTrait -->
<g id="edge10" class="edge"><title>Core_App&#45;&gt;Core_ExtendableStaticCallTrait</title>
<path fill="none" stroke="black" d="M476.794,-228.794C484.166,-199.462 503.898,-137.679 544.974,-106 558.389,-95.6538 574.497,-88.5228 590.996,-83.6349"/>
<polygon fill="black" stroke="black" points="591.993,-86.9911 600.737,-81.0089 590.171,-80.2324 591.993,-86.9911"/>
</g>
<!-- Core_ComponentBase -->
<g id="node16" class="node"><title>Core_ComponentBase</title>
<polygon fill="none" stroke="black" points="1163.33,-488 1060.33,-488 1056.33,-484 1056.33,-452 1159.33,-452 1163.33,-456 1163.33,-488"/>
<polyline fill="none" stroke="black" points="1159.33,-484 1056.33,-484 "/>
<polyline fill="none" stroke="black" points="1159.33,-484 1159.33,-452 "/>
<polyline fill="none" stroke="black" points="1159.33,-484 1163.33,-488 "/>
<text text-anchor="middle" x="1109.83" y="-466.3" font-family="Times,serif" font-size="14.00">ComponentBase</text>
</g>
<!-- Core_App&#45;&gt;Core_ComponentBase -->
<g id="edge21" class="edge"><title>Core_App&#45;&gt;Core_ComponentBase</title>
<path fill="none" stroke="black" stroke-dasharray="1,5" d="M475.362,-261.696C480.593,-294.664 497.254,-367.8 544.974,-401 597.775,-437.735 778.609,-389.615 833.589,-423 857.734,-437.661 842.42,-463.268 867.104,-477 897.343,-493.822 988.242,-478.405 1022.82,-477 1030.31,-476.696 1038.16,-476.242 1045.95,-475.711"/>
<polygon fill="black" stroke="black" points="1046.39,-479.188 1056.11,-474.972 1045.88,-472.206 1046.39,-479.188"/>
</g>
<!-- Core_Functions -->
<g id="node17" class="node"><title>Core_Functions</title>
<ellipse fill="none" stroke="black" cx="689.282" cy="-302" rx="45.4919" ry="18"/>
<text text-anchor="middle" x="689.282" y="-298.3" font-family="Times,serif" font-size="14.00">Functions</text>
</g>
<!-- Core_App&#45;&gt;Core_Functions -->
<g id="edge20" class="edge"><title>Core_App&#45;&gt;Core_Functions</title>
<path fill="none" stroke="black" stroke-dasharray="5,2" d="M493.424,-252.745C507.694,-258.038 527.336,-264.977 544.974,-270 575.544,-278.706 610.332,-286.523 637.977,-292.251"/>
<polygon fill="black" stroke="black" points="637.319,-295.689 647.818,-294.265 638.722,-288.831 637.319,-295.689"/>
</g>
<!-- Core_Kernel&#45;&gt;Core_AutoLoader -->
<g id="edge1" class="edge"><title>Core_Kernel&#45;&gt;Core_AutoLoader</title>
<path fill="none" stroke="black" d="M726.046,-212.535C755.671,-217.096 798.454,-225.569 833.589,-240 849.849,-246.678 851.267,-253.373 867.104,-261 877.846,-266.173 889.848,-270.867 901.115,-274.836"/>
<polygon fill="black" stroke="black" points="900.183,-278.216 910.777,-278.132 902.443,-271.591 900.183,-278.216"/>
</g>
<!-- Core_Kernel&#45;&gt;Core_ExceptionManager -->
<g id="edge4" class="edge"><title>Core_Kernel&#45;&gt;Core_ExceptionManager</title>
<path fill="none" stroke="black" d="M727.169,-203.929C765.784,-199.666 827.317,-192.875 874.979,-187.614"/>
<polygon fill="black" stroke="black" points="875.37,-191.092 884.925,-186.516 874.602,-184.134 875.37,-191.092"/>
</g>
<!-- Core_Kernel&#45;&gt;Core_View -->
<g id="edge7" class="edge"><title>Core_Kernel&#45;&gt;Core_View</title>
<path fill="none" stroke="black" d="M721.556,-214.149C754.468,-222.291 805.335,-239.922 833.589,-275 875.896,-327.523 822.238,-372.645 867.104,-423 877.577,-434.754 893.473,-441.391 908.096,-445.138"/>
<polygon fill="black" stroke="black" points="907.416,-448.572 917.934,-447.299 908.917,-441.735 907.416,-448.572"/>
</g>
<!-- Core_Kernel&#45;&gt;Core_Configer -->
<g id="edge2" class="edge"><title>Core_Kernel&#45;&gt;Core_Configer</title>
<path fill="none" stroke="black" d="M723.573,-213.509C754.817,-220.089 801.431,-233.685 833.589,-260 855.743,-278.128 844.858,-296.985 867.104,-315 877.338,-323.287 890.294,-329.117 902.639,-333.182"/>
<polygon fill="black" stroke="black" points="901.761,-336.573 912.344,-336.077 903.762,-329.865 901.761,-336.573"/>
</g>
<!-- Core_Kernel&#45;&gt;Core_Logger -->
<g id="edge3" class="edge"><title>Core_Kernel&#45;&gt;Core_Logger</title>
<path fill="none" stroke="black" d="M706.668,-196.223C737.106,-174.736 804.937,-128.658 867.104,-99 879.819,-92.9344 894.275,-87.5013 907.192,-83.1268"/>
<polygon fill="black" stroke="black" points="908.31,-86.4438 916.716,-79.995 906.123,-79.7941 908.31,-86.4438"/>
</g>
<!-- Core_Kernel&#45;&gt;Core_Route -->
<g id="edge5" class="edge"><title>Core_Kernel&#45;&gt;Core_Route</title>
<path fill="none" stroke="black" d="M720.175,-214.67C752.381,-223.331 803.101,-241.473 833.589,-275 863.43,-307.814 835.669,-337.71 867.104,-369 876.437,-378.289 889.148,-384.393 901.545,-388.4"/>
<polygon fill="black" stroke="black" points="900.773,-391.819 911.349,-391.184 902.686,-385.085 900.773,-391.819"/>
</g>
<!-- Core_Kernel&#45;&gt;Core_RuntimeState -->
<g id="edge6" class="edge"><title>Core_Kernel&#45;&gt;Core_RuntimeState</title>
<path fill="none" stroke="black" d="M716.002,-199.686C756.438,-186.615 835.783,-160.968 889.349,-143.653"/>
<polygon fill="black" stroke="black" points="890.597,-146.928 899.036,-140.522 888.444,-140.267 890.597,-146.928"/>
</g>
<!-- Core_Kernel&#45;&gt;Core_SuperGlobal -->
<g id="edge8" class="edge"><title>Core_Kernel&#45;&gt;Core_SuperGlobal</title>
<path fill="none" stroke="black" d="M727.986,-211.864C771.539,-216.328 843.445,-223.698 892.211,-228.696"/>
<polygon fill="black" stroke="black" points="891.942,-232.187 902.247,-229.725 892.656,-225.223 891.942,-232.187"/>
</g>
<!-- Core_ExceptionManager&#45;&gt;Core_ComponentBase -->
<g id="edge26" class="edge"><title>Core_ExceptionManager&#45;&gt;Core_ComponentBase</title>
<path fill="none" stroke="black" stroke-dasharray="1,5" d="M1005.18,-194.295C1011.69,-197.672 1017.77,-201.845 1022.82,-207 1087.57,-273.174 1103.57,-388.767 1107.53,-441.867"/>
<polygon fill="black" stroke="black" points="1104.04,-442.166 1108.19,-451.916 1111.03,-441.708 1104.04,-442.166"/>
</g>
<!-- Core_View&#45;&gt;Core_ComponentBase -->
<g id="edge31" class="edge"><title>Core_View&#45;&gt;Core_ComponentBase</title>
<path fill="none" stroke="black" stroke-dasharray="1,5" d="M972.128,-453.213C992.054,-455.66 1020.34,-459.133 1046.01,-462.286"/>
<polygon fill="black" stroke="black" points="1045.72,-465.776 1056.07,-463.521 1046.57,-458.829 1045.72,-465.776"/>
</g>
<!-- Core_Configer&#45;&gt;Core_ComponentBase -->
<g id="edge27" class="edge"><title>Core_Configer&#45;&gt;Core_ComponentBase</title>
<path fill="none" stroke="black" stroke-dasharray="1,5" d="M977.641,-349.062C992.243,-353.301 1009.29,-359.715 1022.82,-369 1051.65,-388.793 1076.54,-420.639 1092.02,-443.277"/>
<polygon fill="black" stroke="black" points="1089.21,-445.378 1097.68,-451.755 1095.04,-441.494 1089.21,-445.378"/>
</g>
<!-- Core_Logger&#45;&gt;Core_ComponentBase -->
<g id="edge32" class="edge"><title>Core_Logger&#45;&gt;Core_ComponentBase</title>
<path fill="none" stroke="black" stroke-dasharray="1,5" d="M973.074,-74.9332C989.708,-78.1473 1010.17,-84.8832 1022.82,-99 1068.84,-150.391 1096.99,-364.53 1105.82,-441.931"/>
<polygon fill="black" stroke="black" points="1102.35,-442.365 1106.94,-451.914 1109.3,-441.586 1102.35,-442.365"/>
</g>
<!-- Core_Route&#45;&gt;Core_ComponentBase -->
<g id="edge28" class="edge"><title>Core_Route&#45;&gt;Core_ComponentBase</title>
<path fill="none" stroke="black" stroke-dasharray="1,5" d="M970.932,-403.635C986.163,-408.57 1005.89,-415.463 1022.82,-423 1038.37,-429.928 1054.91,-438.622 1069.29,-446.643"/>
<polygon fill="black" stroke="black" points="1067.96,-449.914 1078.39,-451.791 1071.41,-443.821 1067.96,-449.914"/>
</g>
<!-- Core_RuntimeState&#45;&gt;Core_ComponentBase -->
<g id="edge30" class="edge"><title>Core_RuntimeState&#45;&gt;Core_ComponentBase</title>
<path fill="none" stroke="black" stroke-dasharray="1,5" d="M990.467,-133.71C1002.35,-137.709 1014.25,-143.781 1022.82,-153 1099.92,-235.935 1109.16,-380.944 1109.43,-441.825"/>
<polygon fill="black" stroke="black" points="1105.93,-441.837 1109.39,-451.85 1112.93,-441.862 1105.93,-441.837"/>
</g>
<!-- Core_SuperGlobal&#45;&gt;Core_ComponentBase -->
<g id="edge29" class="edge"><title>Core_SuperGlobal&#45;&gt;Core_ComponentBase</title>
<path fill="none" stroke="black" stroke-dasharray="1,5" d="M987.753,-241.76C1000.25,-245.779 1013.17,-251.85 1022.82,-261 1075.28,-310.773 1096.78,-397.206 1104.71,-441.715"/>
<polygon fill="black" stroke="black" points="1101.3,-442.542 1106.41,-451.826 1108.21,-441.385 1101.3,-442.542"/>
</g>
<!-- Core_ComponentInterface -->
<g id="node15" class="node"><title>Core_ComponentInterface</title>
<polygon fill="none" stroke="black" points="1355.68,-488 1233.68,-488 1233.68,-452 1361.68,-452 1361.68,-482 1355.68,-488"/>
<polyline fill="none" stroke="black" points="1355.68,-488 1355.68,-482 "/>
<polyline fill="none" stroke="black" points="1361.68,-482 1355.68,-482 "/>
<text text-anchor="middle" x="1297.68" y="-466.3" font-family="Times,serif" font-size="14.00">ComponentInterface</text>
</g>
<!-- Core_ComponentBase&#45;&gt;Core_ComponentInterface -->
<g id="edge33" class="edge"><title>Core_ComponentBase&#45;&gt;Core_ComponentInterface</title>
<path fill="none" stroke="black" d="M1163.59,-470C1182.23,-470 1203.53,-470 1223.55,-470"/>
<polygon fill="black" stroke="black" points="1223.57,-473.5 1233.57,-470 1223.57,-466.5 1223.57,-473.5"/>
</g>
<!-- AppHelper -->
<g id="node18" class="node"><title>AppHelper</title>
<polygon fill="lightgrey" stroke="black" points="116.188,-135 45.6372,-117 116.188,-99 186.739,-117 116.188,-135"/>
<polyline fill="none" stroke="black" points="57.2647,-119.967 57.2647,-114.033 "/>
<polyline fill="none" stroke="black" points="104.561,-101.967 127.816,-101.967 "/>
<polyline fill="none" stroke="black" points="175.112,-114.033 175.112,-119.967 "/>
<polyline fill="none" stroke="black" points="127.816,-132.033 104.561,-132.033 "/>
<text text-anchor="middle" x="116.188" y="-113.3" font-family="Times,serif" font-size="14.00">AppHelper</text>
</g>
<!-- AppHelper&#45;&gt;Core_App -->
<g id="edge34" class="edge"><title>AppHelper&#45;&gt;Core_App</title>
<path fill="none" stroke="black" d="M152.946,-125.756C225.37,-143.613 384.487,-183.52 407.441,-195 423.594,-203.078 439.582,-215.628 451.508,-226.133"/>
<polygon fill="black" stroke="black" points="449.312,-228.867 459.068,-232.999 454.019,-223.685 449.312,-228.867"/>
</g>
<!-- HelperTrait -->
<g id="node23" class="node"><title>HelperTrait</title>
<polygon fill="none" stroke="black" points="325.909,-141 252.344,-123 325.909,-105 399.474,-123 325.909,-141"/>
<text text-anchor="middle" x="325.909" y="-119.3" font-family="Times,serif" font-size="14.00">HelperTrait</text>
</g>
<!-- AppHelper&#45;&gt;HelperTrait -->
<g id="edge41" class="edge"><title>AppHelper&#45;&gt;HelperTrait</title>
<path fill="none" stroke="black" d="M179.793,-118.808C201.853,-119.446 226.879,-120.168 249.86,-120.832"/>
<polygon fill="black" stroke="black" points="249.816,-124.332 259.913,-121.123 250.018,-117.335 249.816,-124.332"/>
</g>
<!-- ControllerHelper -->
<g id="node19" class="node"><title>ControllerHelper</title>
<polygon fill="lightgrey" stroke="black" points="116.188,-351 15.8115,-333 116.188,-315 216.565,-333 116.188,-351"/>
<polyline fill="none" stroke="black" points="27.6231,-335.118 27.6231,-330.882 "/>
<polyline fill="none" stroke="black" points="104.377,-317.118 128,-317.118 "/>
<polyline fill="none" stroke="black" points="204.753,-330.882 204.753,-335.118 "/>
<polyline fill="none" stroke="black" points="128,-348.882 104.377,-348.882 "/>
<text text-anchor="middle" x="116.188" y="-329.3" font-family="Times,serif" font-size="14.00">ControllerHelper</text>
</g>
<!-- ControllerHelper&#45;&gt;Core_App -->
<g id="edge35" class="edge"><title>ControllerHelper&#45;&gt;Core_App</title>
<path fill="none" stroke="black" d="M174.075,-325.333C233.312,-316.451 328.325,-299.665 407.441,-274 420.057,-269.908 433.496,-264.039 444.768,-258.651"/>
<polygon fill="black" stroke="black" points="446.608,-261.646 454.04,-254.095 443.521,-255.363 446.608,-261.646"/>
</g>
<!-- ControllerHelper&#45;&gt;HelperTrait -->
<g id="edge42" class="edge"><title>ControllerHelper&#45;&gt;HelperTrait</title>
<path fill="none" stroke="black" d="M174.159,-325.392C188.963,-321.394 204.164,-315.296 216.376,-306 270.182,-265.043 302.535,-189.083 316.602,-149.125"/>
<polygon fill="black" stroke="black" points="319.95,-150.15 319.862,-139.555 313.324,-147.893 319.95,-150.15"/>
</g>
<!-- ModelHelper -->
<g id="node20" class="node"><title>ModelHelper</title>
<polygon fill="lightgrey" stroke="black" points="116.188,-297 34.5777,-279 116.188,-261 197.799,-279 116.188,-297"/>
<polyline fill="none" stroke="black" points="46.296,-281.585 46.296,-276.415 "/>
<polyline fill="none" stroke="black" points="104.47,-263.585 127.906,-263.585 "/>
<polyline fill="none" stroke="black" points="186.08,-276.415 186.08,-281.585 "/>
<polyline fill="none" stroke="black" points="127.906,-294.415 104.47,-294.415 "/>
<text text-anchor="middle" x="116.188" y="-275.3" font-family="Times,serif" font-size="14.00">ModelHelper</text>
</g>
<!-- ModelHelper&#45;&gt;Core_App -->
<g id="edge36" class="edge"><title>ModelHelper&#45;&gt;Core_App</title>
<path fill="none" stroke="black" d="M175.039,-273.903C233.641,-268.673 326.88,-260.168 407.441,-252 415.388,-251.194 423.887,-250.291 432.005,-249.407"/>
<polygon fill="black" stroke="black" points="432.455,-252.879 442.013,-248.308 431.691,-245.921 432.455,-252.879"/>
</g>
<!-- ModelHelper&#45;&gt;HelperTrait -->
<g id="edge43" class="edge"><title>ModelHelper&#45;&gt;HelperTrait</title>
<path fill="none" stroke="black" d="M165.789,-271.906C182.728,-267.893 201.262,-261.657 216.376,-252 258.438,-225.125 292.625,-176.807 310.762,-147.543"/>
<polygon fill="black" stroke="black" points="313.893,-149.13 316.076,-138.763 307.904,-145.506 313.893,-149.13"/>
</g>
<!-- ServiceHelper -->
<g id="node21" class="node"><title>ServiceHelper</title>
<polygon fill="lightgrey" stroke="black" points="116.188,-243 29.8865,-225 116.188,-207 202.49,-225 116.188,-243"/>
<polyline fill="none" stroke="black" points="41.6337,-227.45 41.6337,-222.55 "/>
<polyline fill="none" stroke="black" points="104.441,-209.45 127.935,-209.45 "/>
<polyline fill="none" stroke="black" points="190.743,-222.55 190.743,-227.45 "/>
<polyline fill="none" stroke="black" points="127.935,-240.55 104.441,-240.55 "/>
<text text-anchor="middle" x="116.188" y="-221.3" font-family="Times,serif" font-size="14.00">ServiceHelper</text>
</g>
<!-- ServiceHelper&#45;&gt;Core_App -->
<g id="edge37" class="edge"><title>ServiceHelper&#45;&gt;Core_App</title>
<path fill="none" stroke="black" d="M184.61,-228.809C256.526,-232.872 368.231,-239.182 428.755,-242.602"/>
<polygon fill="black" stroke="black" points="428.902,-246.115 439.083,-243.185 429.297,-239.127 428.902,-246.115"/>
</g>
<!-- ServiceHelper&#45;&gt;HelperTrait -->
<g id="edge44" class="edge"><title>ServiceHelper&#45;&gt;HelperTrait</title>
<path fill="none" stroke="black" d="M161.28,-216.39C178.892,-212.089 199.06,-206.051 216.376,-198 247.729,-183.422 279.845,-159.957 300.922,-143.155"/>
<polygon fill="black" stroke="black" points="303.136,-145.866 308.705,-136.853 298.731,-140.426 303.136,-145.866"/>
</g>
<!-- ViewHelper -->
<g id="node22" class="node"><title>ViewHelper</title>
<polygon fill="lightgrey" stroke="black" points="116.188,-189 40.1075,-171 116.188,-153 192.269,-171 116.188,-189"/>
<polyline fill="none" stroke="black" points="51.7851,-173.763 51.7851,-168.237 "/>
<polyline fill="none" stroke="black" points="104.511,-155.763 127.866,-155.763 "/>
<polyline fill="none" stroke="black" points="180.591,-168.237 180.591,-173.763 "/>
<polyline fill="none" stroke="black" points="127.866,-186.237 104.511,-186.237 "/>
<text text-anchor="middle" x="116.188" y="-167.3" font-family="Times,serif" font-size="14.00">ViewHelper</text>
</g>
<!-- ViewHelper&#45;&gt;Core_App -->
<g id="edge38" class="edge"><title>ViewHelper&#45;&gt;Core_App</title>
<path fill="none" stroke="black" d="M158.608,-179.007C214.999,-190.002 319.038,-210.622 407.441,-230 417.15,-232.128 427.661,-234.551 437.295,-236.82"/>
<polygon fill="black" stroke="black" points="436.788,-240.297 447.325,-239.2 438.404,-233.486 436.788,-240.297"/>
</g>
<!-- ViewHelper&#45;&gt;HelperTrait -->
<g id="edge45" class="edge"><title>ViewHelper&#45;&gt;HelperTrait</title>
<path fill="none" stroke="black" d="M155.287,-162.196C189.653,-154.255 240.337,-142.543 277.349,-133.99"/>
<polygon fill="black" stroke="black" points="278.446,-137.329 287.401,-131.667 276.87,-130.509 278.446,-137.329"/>
</g>
<!-- HelperTrait&#45;&gt;Core_App -->
<g id="edge39" class="edge"><title>HelperTrait&#45;&gt;Core_App</title>
<path fill="none" stroke="black" d="M362.515,-132.235C377.43,-137.291 394.314,-144.678 407.441,-155 430.339,-173.003 448.539,-201.387 459.539,-221.459"/>
<polygon fill="black" stroke="black" points="456.584,-223.357 464.35,-230.563 462.773,-220.086 456.584,-223.357"/>
</g>
<!-- HelperTrait&#45;&gt;Core_ExtendableStaticCallTrait -->
<g id="edge40" class="edge"><title>HelperTrait&#45;&gt;Core_ExtendableStaticCallTrait</title>
<path fill="none" stroke="black" d="M373.782,-116.644C433.516,-108.545 537.642,-94.4259 609.626,-84.6652"/>
<polygon fill="black" stroke="black" points="610.123,-88.1299 619.562,-83.3179 609.183,-81.1934 610.123,-88.1299"/>
</g>
<!-- Db_Db -->
<g id="node24" class="node"><title>Db_Db</title>
<polygon fill="lightgrey" stroke="black" points="1109.83,-1945 1079.67,-1927 1109.83,-1909 1140,-1927 1109.83,-1945"/>
<polyline fill="none" stroke="black" points="1089.72,-1933 1089.72,-1921 "/>
<polyline fill="none" stroke="black" points="1099.78,-1915 1119.89,-1915 "/>
<polyline fill="none" stroke="black" points="1129.94,-1921 1129.94,-1933 "/>
<polyline fill="none" stroke="black" points="1119.89,-1939 1099.78,-1939 "/>
<text text-anchor="middle" x="1109.83" y="-1923.3" font-family="Times,serif" font-size="14.00">Db</text>
</g>
<!-- Db_DbAdvanceTrait -->
<g id="node25" class="node"><title>Db_DbAdvanceTrait</title>
<polygon fill="none" stroke="black" points="1297.68,-1972 1199.48,-1954 1297.68,-1936 1395.88,-1954 1297.68,-1972"/>
<polyline fill="none" stroke="black" points="1211.28,-1956.16 1211.28,-1951.84 "/>
<polyline fill="none" stroke="black" points="1285.88,-1938.16 1309.48,-1938.16 "/>
<polyline fill="none" stroke="black" points="1384.08,-1951.84 1384.08,-1956.16 "/>
<polyline fill="none" stroke="black" points="1309.48,-1969.84 1285.88,-1969.84 "/>
<text text-anchor="middle" x="1297.68" y="-1950.3" font-family="Times,serif" font-size="14.00">DbAdvanceTrait</text>
</g>
<!-- Db_Db&#45;&gt;Db_DbAdvanceTrait -->
<g id="edge46" class="edge"><title>Db_Db&#45;&gt;Db_DbAdvanceTrait</title>
<path fill="none" stroke="black" d="M1134.37,-1930.42C1158.8,-1933.97 1198.1,-1939.68 1231.91,-1944.59"/>
<polygon fill="black" stroke="black" points="1231.8,-1948.11 1242.2,-1946.08 1232.81,-1941.18 1231.8,-1948.11"/>
</g>
<!-- Db_DbInterface -->
<g id="node26" class="node"><title>Db_DbInterface</title>
<polygon fill="none" stroke="black" points="1332.18,-1918 1257.18,-1918 1257.18,-1882 1338.18,-1882 1338.18,-1912 1332.18,-1918"/>
<polyline fill="none" stroke="black" points="1332.18,-1918 1332.18,-1912 "/>
<polyline fill="none" stroke="black" points="1338.18,-1912 1332.18,-1912 "/>
<text text-anchor="middle" x="1297.68" y="-1896.3" font-family="Times,serif" font-size="14.00">DbInterface</text>
</g>
<!-- Db_Db&#45;&gt;Db_DbInterface -->
<g id="edge47" class="edge"><title>Db_Db&#45;&gt;Db_DbInterface</title>
<path fill="none" stroke="black" d="M1134.37,-1923.58C1162.58,-1919.48 1210.62,-1912.5 1247.14,-1907.2"/>
<polygon fill="black" stroke="black" points="1247.71,-1910.65 1257.1,-1905.75 1246.7,-1903.72 1247.71,-1910.65"/>
</g>
<!-- HttpServer -->
<g id="node27" class="node"><title>HttpServer</title>
<polygon fill="lightgrey" stroke="black" points="944.96,-998 875.248,-980 944.96,-962 1014.67,-980 944.96,-998"/>
<polyline fill="none" stroke="black" points="886.867,-983 886.867,-977 "/>
<polyline fill="none" stroke="black" points="933.341,-965 956.579,-965 "/>
<polyline fill="none" stroke="black" points="1003.05,-977 1003.05,-983 "/>
<polyline fill="none" stroke="black" points="956.579,-995 933.341,-995 "/>
<text text-anchor="middle" x="944.96" y="-976.3" font-family="Times,serif" font-size="14.00">HttpServer</text>
</g>
<!-- Cache -->
<g id="node28" class="node"><title>Cache</title>
<polygon fill="none" stroke="black" points="716.282,-1513 662.282,-1513 662.282,-1509 658.282,-1509 658.282,-1505 662.282,-1505 662.282,-1485 658.282,-1485 658.282,-1481 662.282,-1481 662.282,-1477 716.282,-1477 716.282,-1513"/>
<polyline fill="none" stroke="black" points="662.282,-1509 666.282,-1509 666.282,-1505 662.282,-1505 "/>
<polyline fill="none" stroke="black" points="662.282,-1485 666.282,-1485 666.282,-1481 662.282,-1481 "/>
<text text-anchor="middle" x="689.282" y="-1491.3" font-family="Times,serif" font-size="14.00">Cache</text>
</g>
<!-- Cache&#45;&gt;Core_ComponentBase -->
<g id="edge48" class="edge"><title>Cache&#45;&gt;Core_ComponentBase</title>
<path fill="none" stroke="black" stroke-dasharray="1,5" d="M716.354,-1498.72C749.177,-1501.76 804.751,-1501.13 833.589,-1468 884.711,-1409.26 819.194,-829.383 867.104,-768 911.583,-711.014 970.763,-771.162 1022.82,-721 1086.3,-659.825 1102.94,-549.832 1107.29,-498.206"/>
<polygon fill="black" stroke="black" points="1110.79,-498.348 1108.05,-488.114 1103.81,-497.825 1110.79,-498.348"/>
</g>
<!-- CallableView -->
<g id="node29" class="node"><title>CallableView</title>
<polygon fill="none" stroke="black" points="734.782,-1135 643.782,-1135 643.782,-1131 639.782,-1131 639.782,-1127 643.782,-1127 643.782,-1107 639.782,-1107 639.782,-1103 643.782,-1103 643.782,-1099 734.782,-1099 734.782,-1135"/>
<polyline fill="none" stroke="black" points="643.782,-1131 647.782,-1131 647.782,-1127 643.782,-1127 "/>
<polyline fill="none" stroke="black" points="643.782,-1107 647.782,-1107 647.782,-1103 643.782,-1103 "/>
<text text-anchor="middle" x="689.282" y="-1113.3" font-family="Times,serif" font-size="14.00">CallableView</text>
</g>
<!-- CallableView&#45;&gt;Core_View -->
<g id="edge66" class="edge"><title>CallableView&#45;&gt;Core_View</title>
<path fill="none" stroke="black" d="M735.093,-1121.75C767.487,-1122.47 809.613,-1117.3 833.589,-1090 919.963,-991.67 802.477,-615.81 867.104,-502 876.414,-485.605 893.274,-473.333 908.835,-464.84"/>
<polygon fill="black" stroke="black" points="910.465,-467.938 917.781,-460.274 907.283,-461.703 910.465,-467.938"/>
</g>
<!-- Console -->
<g id="node30" class="node"><title>Console</title>
<polygon fill="none" stroke="black" points="719.782,-1621 658.782,-1621 658.782,-1617 654.782,-1617 654.782,-1613 658.782,-1613 658.782,-1593 654.782,-1593 654.782,-1589 658.782,-1589 658.782,-1585 719.782,-1585 719.782,-1621"/>
<polyline fill="none" stroke="black" points="658.782,-1617 662.782,-1617 662.782,-1613 658.782,-1613 "/>
<polyline fill="none" stroke="black" points="658.782,-1593 662.782,-1593 662.782,-1589 658.782,-1589 "/>
<text text-anchor="middle" x="689.282" y="-1599.3" font-family="Times,serif" font-size="14.00">Console</text>
</g>
<!-- Console&#45;&gt;Core_ComponentBase -->
<g id="edge49" class="edge"><title>Console&#45;&gt;Core_ComponentBase</title>
<path fill="none" stroke="black" stroke-dasharray="1,5" d="M719.85,-1607.03C753.012,-1609.7 805.781,-1608.02 833.589,-1576 886.979,-1514.53 817.076,-908.235 867.104,-844 911.523,-786.968 972.627,-849.026 1022.82,-797 1064.68,-753.601 1094.75,-569.245 1104.99,-498.135"/>
<polygon fill="black" stroke="black" points="1108.47,-498.506 1106.41,-488.114 1101.54,-497.524 1108.47,-498.506"/>
</g>
<!-- Console&#45;&gt;HttpServer -->
<g id="edge68" class="edge"><title>Console&#45;&gt;HttpServer</title>
<path fill="none" stroke="black" d="M720.056,-1606.97C753.151,-1609.53 805.612,-1607.7 833.589,-1576 913.589,-1485.36 807.626,-1138.25 867.104,-1033 876.303,-1016.72 892.818,-1004.35 908.187,-995.674"/>
<polygon fill="black" stroke="black" points="909.839,-998.76 917.04,-990.989 906.565,-992.573 909.839,-998.76"/>
</g>
<!-- Installer -->
<g id="node36" class="node"><title>Installer</title>
<polygon fill="none" stroke="black" points="975.46,-1616 914.46,-1616 914.46,-1612 910.46,-1612 910.46,-1608 914.46,-1608 914.46,-1588 910.46,-1588 910.46,-1584 914.46,-1584 914.46,-1580 975.46,-1580 975.46,-1616"/>
<polyline fill="none" stroke="black" points="914.46,-1612 918.46,-1612 918.46,-1608 914.46,-1608 "/>
<polyline fill="none" stroke="black" points="914.46,-1588 918.46,-1588 918.46,-1584 914.46,-1584 "/>
<text text-anchor="middle" x="944.96" y="-1594.3" font-family="Times,serif" font-size="14.00">Installer</text>
</g>
<!-- Console&#45;&gt;Installer -->
<g id="edge67" class="edge"><title>Console&#45;&gt;Installer</title>
<path fill="none" stroke="black" d="M719.878,-1602.42C765.487,-1601.52 853.017,-1599.79 904.138,-1598.78"/>
<polygon fill="black" stroke="black" points="904.231,-1602.28 914.16,-1598.59 904.093,-1595.29 904.231,-1602.28"/>
</g>
<!-- DbManager -->
<g id="node31" class="node"><title>DbManager</title>
<polygon fill="none" stroke="black" points="985.96,-1945 903.96,-1945 903.96,-1941 899.96,-1941 899.96,-1937 903.96,-1937 903.96,-1917 899.96,-1917 899.96,-1913 903.96,-1913 903.96,-1909 985.96,-1909 985.96,-1945"/>
<polyline fill="none" stroke="black" points="903.96,-1941 907.96,-1941 907.96,-1937 903.96,-1937 "/>
<polyline fill="none" stroke="black" points="903.96,-1917 907.96,-1917 907.96,-1913 903.96,-1913 "/>
<text text-anchor="middle" x="944.96" y="-1923.3" font-family="Times,serif" font-size="14.00">DbManager</text>
</g>
<!-- DbManager&#45;&gt;Core_ComponentBase -->
<g id="edge50" class="edge"><title>DbManager&#45;&gt;Core_ComponentBase</title>
<path fill="none" stroke="black" stroke-dasharray="1,5" d="M963.712,-1908.96C982.2,-1888.89 1010.19,-1854.57 1022.82,-1819 1113.55,-1563.37 1110.56,-669.373 1109.12,-498.386"/>
<polygon fill="black" stroke="black" points="1112.62,-498.152 1109.03,-488.184 1105.62,-498.215 1112.62,-498.152"/>
</g>
<!-- DbManager&#45;&gt;Db_Db -->
<g id="edge70" class="edge"><title>DbManager&#45;&gt;Db_Db</title>
<path fill="none" stroke="black" d="M986.221,-1927C1011.53,-1927 1044.03,-1927 1069.21,-1927"/>
<polygon fill="black" stroke="black" points="1069.51,-1930.5 1079.51,-1927 1069.51,-1923.5 1069.51,-1930.5"/>
</g>
<!-- EmptyView -->
<g id="node32" class="node"><title>EmptyView</title>
<polygon fill="none" stroke="black" points="730.782,-1081 647.782,-1081 647.782,-1077 643.782,-1077 643.782,-1073 647.782,-1073 647.782,-1053 643.782,-1053 643.782,-1049 647.782,-1049 647.782,-1045 730.782,-1045 730.782,-1081"/>
<polyline fill="none" stroke="black" points="647.782,-1077 651.782,-1077 651.782,-1073 647.782,-1073 "/>
<polyline fill="none" stroke="black" points="647.782,-1053 651.782,-1053 651.782,-1049 647.782,-1049 "/>
<text text-anchor="middle" x="689.282" y="-1059.3" font-family="Times,serif" font-size="14.00">EmptyView</text>
</g>
<!-- EmptyView&#45;&gt;Core_View -->
<g id="edge69" class="edge"><title>EmptyView&#45;&gt;Core_View</title>
<path fill="none" stroke="black" d="M691.706,-1044.81C698.365,-970.21 732.058,-683.137 867.104,-502 877.949,-487.454 894.127,-475.642 908.847,-466.974"/>
<polygon fill="black" stroke="black" points="910.744,-469.923 917.763,-461.987 907.327,-463.814 910.744,-469.923"/>
</g>
<!-- EventManager -->
<g id="node33" class="node"><title>EventManager</title>
<polygon fill="none" stroke="black" points="737.782,-1459 640.782,-1459 640.782,-1455 636.782,-1455 636.782,-1451 640.782,-1451 640.782,-1431 636.782,-1431 636.782,-1427 640.782,-1427 640.782,-1423 737.782,-1423 737.782,-1459"/>
<polyline fill="none" stroke="black" points="640.782,-1455 644.782,-1455 644.782,-1451 640.782,-1451 "/>
<polyline fill="none" stroke="black" points="640.782,-1431 644.782,-1431 644.782,-1427 640.782,-1427 "/>
<text text-anchor="middle" x="689.282" y="-1437.3" font-family="Times,serif" font-size="14.00">EventManager</text>
</g>
<!-- EventManager&#45;&gt;Core_ComponentBase -->
<g id="edge51" class="edge"><title>EventManager&#45;&gt;Core_ComponentBase</title>
<path fill="none" stroke="black" stroke-dasharray="1,5" d="M737.89,-1445.86C769.918,-1446.25 810.387,-1440.63 833.589,-1414 883.578,-1356.63 820.253,-789.957 867.104,-730 911.615,-673.039 969.436,-731.747 1022.82,-683 1077.48,-633.081 1098.09,-543.571 1105.3,-498.127"/>
<polygon fill="black" stroke="black" points="1108.78,-498.494 1106.78,-488.09 1101.86,-497.47 1108.78,-498.494"/>
</g>
<!-- FacadesAutoLoader -->
<g id="node34" class="node"><title>FacadesAutoLoader</title>
<polygon fill="none" stroke="black" points="1007.46,-1810 882.46,-1810 882.46,-1806 878.46,-1806 878.46,-1802 882.46,-1802 882.46,-1782 878.46,-1782 878.46,-1778 882.46,-1778 882.46,-1774 1007.46,-1774 1007.46,-1810"/>
<polyline fill="none" stroke="black" points="882.46,-1806 886.46,-1806 886.46,-1802 882.46,-1802 "/>
<polyline fill="none" stroke="black" points="882.46,-1782 886.46,-1782 886.46,-1778 882.46,-1778 "/>
<text text-anchor="middle" x="944.96" y="-1788.3" font-family="Times,serif" font-size="14.00">FacadesAutoLoader</text>
</g>
<!-- FacadesAutoLoader&#45;&gt;Core_ComponentBase -->
<g id="edge52" class="edge"><title>FacadesAutoLoader&#45;&gt;Core_ComponentBase</title>
<path fill="none" stroke="black" stroke-dasharray="1,5" d="M963.664,-1773.94C982.11,-1753.85 1010.07,-1719.52 1022.82,-1684 1104.81,-1455.56 1108.91,-659.445 1108.89,-498.498"/>
<polygon fill="black" stroke="black" points="1112.39,-498.021 1108.88,-488.024 1105.39,-498.027 1112.39,-498.021"/>
</g>
<!-- FacadesBase -->
<g id="node35" class="node"><title>FacadesBase</title>
<polygon fill="none" stroke="black" points="732.282,-1891 646.282,-1891 646.282,-1887 642.282,-1887 642.282,-1883 646.282,-1883 646.282,-1863 642.282,-1863 642.282,-1859 646.282,-1859 646.282,-1855 732.282,-1855 732.282,-1891"/>
<polyline fill="none" stroke="black" points="646.282,-1887 650.282,-1887 650.282,-1883 646.282,-1883 "/>
<polyline fill="none" stroke="black" points="646.282,-1863 650.282,-1863 650.282,-1859 646.282,-1859 "/>
<text text-anchor="middle" x="689.282" y="-1869.3" font-family="Times,serif" font-size="14.00">FacadesBase</text>
</g>
<!-- FacadesBase&#45;&gt;Core_ComponentBase -->
<g id="edge72" class="edge"><title>FacadesBase&#45;&gt;Core_ComponentBase</title>
<path fill="none" stroke="black" stroke-dasharray="1,5" d="M732.565,-1877.82C765.373,-1878.96 809.237,-1874.31 833.589,-1846 900.729,-1767.95 804.231,-1001.53 867.104,-920 911.25,-862.756 973.861,-926.189 1022.82,-873 1073.82,-817.585 1099.11,-580.724 1106.48,-498.361"/>
<polygon fill="black" stroke="black" points="1109.98,-498.499 1107.37,-488.232 1103.01,-497.889 1109.98,-498.499"/>
</g>
<!-- FacadesBase&#45;&gt;FacadesAutoLoader -->
<g id="edge71" class="edge"><title>FacadesBase&#45;&gt;FacadesAutoLoader</title>
<path fill="none" stroke="black" d="M732.421,-1868.1C761.379,-1864 800.432,-1857.01 833.589,-1846 857.641,-1838.01 883.14,-1825.81 903.562,-1815.02"/>
<polygon fill="black" stroke="black" points="905.412,-1818 912.565,-1810.19 902.099,-1811.84 905.412,-1818"/>
</g>
<!-- Installer&#45;&gt;Core_ComponentBase -->
<g id="edge53" class="edge"><title>Installer&#45;&gt;Core_ComponentBase</title>
<path fill="none" stroke="black" stroke-dasharray="1,5" d="M975.603,-1591.09C992.318,-1585.57 1011.97,-1576.02 1022.82,-1560 1084.07,-1469.54 1104.71,-660.326 1108.25,-498.203"/>
<polygon fill="black" stroke="black" points="1111.76,-498.142 1108.47,-488.069 1104.76,-497.992 1111.76,-498.142"/>
</g>
<!-- JsonRpcClientBase -->
<g id="node37" class="node"><title>JsonRpcClientBase</title>
<polygon fill="none" stroke="black" points="750.282,-1567 628.282,-1567 628.282,-1563 624.282,-1563 624.282,-1559 628.282,-1559 628.282,-1539 624.282,-1539 624.282,-1535 628.282,-1535 628.282,-1531 750.282,-1531 750.282,-1567"/>
<polyline fill="none" stroke="black" points="628.282,-1563 632.282,-1563 632.282,-1559 628.282,-1559 "/>
<polyline fill="none" stroke="black" points="628.282,-1539 632.282,-1539 632.282,-1535 628.282,-1535 "/>
<text text-anchor="middle" x="689.282" y="-1545.3" font-family="Times,serif" font-size="14.00">JsonRpcClientBase</text>
</g>
<!-- JsonRpcClientBase&#45;&gt;Core_ComponentBase -->
<g id="edge74" class="edge"><title>JsonRpcClientBase&#45;&gt;Core_ComponentBase</title>
<path fill="none" stroke="black" stroke-dasharray="1,5" d="M750.312,-1553.71C779.827,-1552.53 813.323,-1545.31 833.589,-1522 885.845,-1461.9 818.135,-868.809 867.104,-806 911.552,-748.99 971.799,-810.215 1022.82,-759 1095.18,-686.354 1107.16,-555.685 1108.8,-498.314"/>
<polygon fill="black" stroke="black" points="1112.3,-498.237 1109,-488.17 1105.3,-498.099 1112.3,-498.237"/>
</g>
<!-- JsonRpcExt -->
<g id="node38" class="node"><title>JsonRpcExt</title>
<polygon fill="none" stroke="black" points="985.46,-1551 904.46,-1551 904.46,-1547 900.46,-1547 900.46,-1543 904.46,-1543 904.46,-1523 900.46,-1523 900.46,-1519 904.46,-1519 904.46,-1515 985.46,-1515 985.46,-1551"/>
<polyline fill="none" stroke="black" points="904.46,-1547 908.46,-1547 908.46,-1543 904.46,-1543 "/>
<polyline fill="none" stroke="black" points="904.46,-1523 908.46,-1523 908.46,-1519 904.46,-1519 "/>
<text text-anchor="middle" x="944.96" y="-1529.3" font-family="Times,serif" font-size="14.00">JsonRpcExt</text>
</g>
<!-- JsonRpcClientBase&#45;&gt;JsonRpcExt -->
<g id="edge73" class="edge"><title>JsonRpcClientBase&#45;&gt;JsonRpcExt</title>
<path fill="none" stroke="black" d="M750.4,-1545.21C794.298,-1542.44 853.1,-1538.73 894.332,-1536.13"/>
<polygon fill="black" stroke="black" points="894.657,-1539.62 904.417,-1535.49 894.216,-1532.63 894.657,-1539.62"/>
</g>
<!-- JsonRpcExt&#45;&gt;Core_ComponentBase -->
<g id="edge54" class="edge"><title>JsonRpcExt&#45;&gt;Core_ComponentBase</title>
<path fill="none" stroke="black" stroke-dasharray="1,5" d="M985.716,-1514.8C999.807,-1506.28 1014.27,-1494.72 1022.82,-1480 1073.4,-1392.87 1102.32,-653.408 1107.85,-498.419"/>
<polygon fill="black" stroke="black" points="1111.35,-498.405 1108.21,-488.287 1104.36,-498.157 1111.35,-498.405"/>
</g>
<!-- Misc -->
<g id="node39" class="node"><title>Misc</title>
<polygon fill="none" stroke="black" points="716.282,-1405 662.282,-1405 662.282,-1401 658.282,-1401 658.282,-1397 662.282,-1397 662.282,-1377 658.282,-1377 658.282,-1373 662.282,-1373 662.282,-1369 716.282,-1369 716.282,-1405"/>
<polyline fill="none" stroke="black" points="662.282,-1401 666.282,-1401 666.282,-1397 662.282,-1397 "/>
<polyline fill="none" stroke="black" points="662.282,-1377 666.282,-1377 666.282,-1373 662.282,-1373 "/>
<text text-anchor="middle" x="689.282" y="-1383.3" font-family="Times,serif" font-size="14.00">Misc</text>
</g>
<!-- Misc&#45;&gt;Core_ComponentBase -->
<g id="edge55" class="edge"><title>Misc&#45;&gt;Core_ComponentBase</title>
<path fill="none" stroke="black" stroke-dasharray="1,5" d="M716.342,-1390.71C749.153,-1393.74 804.713,-1393.1 833.589,-1360 882.444,-1304 821.312,-750.531 867.104,-692 911.648,-635.065 967.692,-691.766 1022.82,-645 1068.71,-606.063 1092.35,-536.806 1102.5,-498.121"/>
<polygon fill="black" stroke="black" points="1105.98,-498.622 1105.02,-488.071 1099.19,-496.923 1105.98,-498.622"/>
</g>
<!-- Pager -->
<g id="node40" class="node"><title>Pager</title>
<polygon fill="none" stroke="black" points="716.282,-1675 662.282,-1675 662.282,-1671 658.282,-1671 658.282,-1667 662.282,-1667 662.282,-1647 658.282,-1647 658.282,-1643 662.282,-1643 662.282,-1639 716.282,-1639 716.282,-1675"/>
<polyline fill="none" stroke="black" points="662.282,-1671 666.282,-1671 666.282,-1667 662.282,-1667 "/>
<polyline fill="none" stroke="black" points="662.282,-1647 666.282,-1647 666.282,-1643 662.282,-1643 "/>
<text text-anchor="middle" x="689.282" y="-1653.3" font-family="Times,serif" font-size="14.00">Pager</text>
</g>
<!-- Pager&#45;&gt;Core_ComponentBase -->
<g id="edge56" class="edge"><title>Pager&#45;&gt;Core_ComponentBase</title>
<path fill="none" stroke="black" stroke-dasharray="1,5" d="M716.369,-1660.73C749.21,-1663.79 804.802,-1663.18 833.589,-1630 888.113,-1567.16 816.017,-947.661 867.104,-882 911.495,-824.946 973.301,-887.669 1022.82,-835 1069.14,-785.721 1096.93,-575.986 1105.76,-498.725"/>
<polygon fill="black" stroke="black" points="1109.29,-498.649 1106.92,-488.322 1102.33,-497.87 1109.29,-498.649"/>
</g>
<!-- PagerInterface -->
<g id="node41" class="node"><title>PagerInterface</title>
<polygon fill="none" stroke="black" points="986.46,-1675 897.46,-1675 897.46,-1639 992.46,-1639 992.46,-1669 986.46,-1675"/>
<polyline fill="none" stroke="black" points="986.46,-1675 986.46,-1669 "/>
<polyline fill="none" stroke="black" points="992.46,-1669 986.46,-1669 "/>
<text text-anchor="middle" x="944.96" y="-1653.3" font-family="Times,serif" font-size="14.00">PagerInterface</text>
</g>
<!-- Pager&#45;&gt;PagerInterface -->
<g id="edge76" class="edge"><title>Pager&#45;&gt;PagerInterface</title>
<path fill="none" stroke="black" d="M716.474,-1657C756.469,-1657 833.725,-1657 887.028,-1657"/>
<polygon fill="black" stroke="black" points="887.351,-1660.5 897.351,-1657 887.351,-1653.5 887.351,-1660.5"/>
</g>
<!-- RedisManager -->
<g id="node42" class="node"><title>RedisManager</title>
<polygon fill="none" stroke="black" points="737.282,-1351 641.282,-1351 641.282,-1347 637.282,-1347 637.282,-1343 641.282,-1343 641.282,-1323 637.282,-1323 637.282,-1319 641.282,-1319 641.282,-1315 737.282,-1315 737.282,-1351"/>
<polyline fill="none" stroke="black" points="641.282,-1347 645.282,-1347 645.282,-1343 641.282,-1343 "/>
<polyline fill="none" stroke="black" points="641.282,-1323 645.282,-1323 645.282,-1319 641.282,-1319 "/>
<text text-anchor="middle" x="689.282" y="-1329.3" font-family="Times,serif" font-size="14.00">RedisManager</text>
</g>
<!-- RedisManager&#45;&gt;Core_ComponentBase -->
<g id="edge57" class="edge"><title>RedisManager&#45;&gt;Core_ComponentBase</title>
<path fill="none" stroke="black" stroke-dasharray="1,5" d="M737.526,-1337.84C769.599,-1338.27 810.272,-1332.69 833.589,-1306 929.031,-1196.73 777.638,-768.21 867.104,-654 911.683,-597.092 965.34,-650.843 1022.82,-607 1060.29,-578.413 1085.6,-528.424 1098.59,-497.383"/>
<polygon fill="black" stroke="black" points="1101.87,-498.605 1102.37,-488.022 1095.38,-495.982 1101.87,-498.605"/>
</g>
<!-- RedisCache -->
<g id="node43" class="node"><title>RedisCache</title>
<polygon fill="none" stroke="black" points="729.782,-1297 648.782,-1297 648.782,-1293 644.782,-1293 644.782,-1289 648.782,-1289 648.782,-1269 644.782,-1269 644.782,-1265 648.782,-1265 648.782,-1261 729.782,-1261 729.782,-1297"/>
<polyline fill="none" stroke="black" points="648.782,-1293 652.782,-1293 652.782,-1289 648.782,-1289 "/>
<polyline fill="none" stroke="black" points="648.782,-1269 652.782,-1269 652.782,-1265 648.782,-1265 "/>
<text text-anchor="middle" x="689.282" y="-1275.3" font-family="Times,serif" font-size="14.00">RedisCache</text>
</g>
<!-- RedisCache&#45;&gt;Core_ComponentBase -->
<g id="edge58" class="edge"><title>RedisCache&#45;&gt;Core_ComponentBase</title>
<path fill="none" stroke="black" stroke-dasharray="1,5" d="M729.802,-1283.61C762.784,-1285.03 808.338,-1280.87 833.589,-1252 926.764,-1145.47 779.756,-727.359 867.104,-616 911.72,-559.121 962.124,-608.271 1022.82,-569 1051.84,-550.218 1076.7,-518.887 1092.12,-496.502"/>
<polygon fill="black" stroke="black" points="1095.08,-498.364 1097.75,-488.11 1089.27,-494.465 1095.08,-498.364"/>
</g>
<!-- RouteHookApiServer -->
<g id="node44" class="node"><title>RouteHookApiServer</title>
<polygon fill="none" stroke="black" points="756.282,-1243 622.282,-1243 622.282,-1239 618.282,-1239 618.282,-1235 622.282,-1235 622.282,-1215 618.282,-1215 618.282,-1211 622.282,-1211 622.282,-1207 756.282,-1207 756.282,-1243"/>
<polyline fill="none" stroke="black" points="622.282,-1239 626.282,-1239 626.282,-1235 622.282,-1235 "/>
<polyline fill="none" stroke="black" points="622.282,-1215 626.282,-1215 626.282,-1211 622.282,-1211 "/>
<text text-anchor="middle" x="689.282" y="-1221.3" font-family="Times,serif" font-size="14.00">RouteHookApiServer</text>
</g>
<!-- RouteHookApiServer&#45;&gt;Core_ComponentBase -->
<g id="edge59" class="edge"><title>RouteHookApiServer&#45;&gt;Core_ComponentBase</title>
<path fill="none" stroke="black" stroke-dasharray="1,5" d="M756.461,-1229.31C784.343,-1227.37 814.657,-1219.62 833.589,-1198 924.497,-1094.2 781.873,-686.507 867.104,-578 911.758,-521.151 957.882,-562.768 1022.82,-531 1042.98,-521.134 1063.56,-506.724 1079.54,-494.386"/>
<polygon fill="black" stroke="black" points="1081.75,-497.096 1087.44,-488.159 1077.42,-491.597 1081.75,-497.096"/>
</g>
<!-- RouteHookDirectoryMode -->
<g id="node45" class="node"><title>RouteHookDirectoryMode</title>
<polygon fill="none" stroke="black" points="770.782,-1189 607.782,-1189 607.782,-1185 603.782,-1185 603.782,-1181 607.782,-1181 607.782,-1161 603.782,-1161 603.782,-1157 607.782,-1157 607.782,-1153 770.782,-1153 770.782,-1189"/>
<polyline fill="none" stroke="black" points="607.782,-1185 611.782,-1185 611.782,-1181 607.782,-1181 "/>
<polyline fill="none" stroke="black" points="607.782,-1161 611.782,-1161 611.782,-1157 607.782,-1157 "/>
<text text-anchor="middle" x="689.282" y="-1167.3" font-family="Times,serif" font-size="14.00">RouteHookDirectoryMode</text>
</g>
<!-- RouteHookDirectoryMode&#45;&gt;Core_ComponentBase -->
<g id="edge60" class="edge"><title>RouteHookDirectoryMode&#45;&gt;Core_ComponentBase</title>
<path fill="none" stroke="black" stroke-dasharray="1,5" d="M770.962,-1173.74C794.407,-1170.28 817.897,-1161.89 833.589,-1144 922.23,-1042.94 783.397,-645.186 867.104,-540 872.858,-532.77 976.577,-504.525 1046.27,-486.198"/>
<polygon fill="black" stroke="black" points="1047.5,-489.493 1056.29,-483.57 1045.72,-482.722 1047.5,-489.493"/>
</g>
<!-- RouteHookManager -->
<g id="node46" class="node"><title>RouteHookManager</title>
<polygon fill="none" stroke="black" points="753.282,-1999 625.282,-1999 625.282,-1995 621.282,-1995 621.282,-1991 625.282,-1991 625.282,-1971 621.282,-1971 621.282,-1967 625.282,-1967 625.282,-1963 753.282,-1963 753.282,-1999"/>
<polyline fill="none" stroke="black" points="625.282,-1995 629.282,-1995 629.282,-1991 625.282,-1991 "/>
<polyline fill="none" stroke="black" points="625.282,-1971 629.282,-1971 629.282,-1967 625.282,-1967 "/>
<text text-anchor="middle" x="689.282" y="-1977.3" font-family="Times,serif" font-size="14.00">RouteHookManager</text>
</g>
<!-- RouteHookManager&#45;&gt;Core_ComponentBase -->
<g id="edge61" class="edge"><title>RouteHookManager&#45;&gt;Core_ComponentBase</title>
<path fill="none" stroke="black" stroke-dasharray="1,5" d="M753.32,-1985.31C781.943,-1983.68 813.76,-1976.18 833.589,-1954 900.137,-1879.58 820.946,-1594.52 867.104,-1506 908.394,-1426.81 980.749,-1457.78 1022.82,-1379 1107.15,-1221.07 1109.63,-634.14 1109.04,-498.225"/>
<polygon fill="black" stroke="black" points="1112.54,-498.174 1108.99,-488.193 1105.54,-498.211 1112.54,-498.174"/>
</g>
<!-- RouteHookPathInfoCompat -->
<g id="node47" class="node"><title>RouteHookPathInfoCompat</title>
<polygon fill="none" stroke="black" points="773.782,-1837 604.782,-1837 604.782,-1833 600.782,-1833 600.782,-1829 604.782,-1829 604.782,-1809 600.782,-1809 600.782,-1805 604.782,-1805 604.782,-1801 773.782,-1801 773.782,-1837"/>
<polyline fill="none" stroke="black" points="604.782,-1833 608.782,-1833 608.782,-1829 604.782,-1829 "/>
<polyline fill="none" stroke="black" points="604.782,-1809 608.782,-1809 608.782,-1805 604.782,-1805 "/>
<text text-anchor="middle" x="689.282" y="-1815.3" font-family="Times,serif" font-size="14.00">RouteHookPathInfoCompat</text>
</g>
<!-- RouteHookPathInfoCompat&#45;&gt;Core_ComponentBase -->
<g id="edge62" class="edge"><title>RouteHookPathInfoCompat&#45;&gt;Core_ComponentBase</title>
<path fill="none" stroke="black" stroke-dasharray="1,5" d="M773.87,-1820.8C796.168,-1817.04 818.287,-1808.71 833.589,-1792 884.862,-1736.01 836.653,-1521.55 867.104,-1452 908.861,-1356.63 980.682,-1372.2 1022.82,-1277 1086.61,-1132.86 1104.6,-624.215 1108.12,-498.337"/>
<polygon fill="black" stroke="black" points="1111.62,-498.097 1108.4,-488.006 1104.63,-497.908 1111.62,-498.097"/>
</g>
<!-- RouteHookRewrite -->
<g id="node48" class="node"><title>RouteHookRewrite</title>
<polygon fill="none" stroke="black" points="750.282,-1783 628.282,-1783 628.282,-1779 624.282,-1779 624.282,-1775 628.282,-1775 628.282,-1755 624.282,-1755 624.282,-1751 628.282,-1751 628.282,-1747 750.282,-1747 750.282,-1783"/>
<polyline fill="none" stroke="black" points="628.282,-1779 632.282,-1779 632.282,-1775 628.282,-1775 "/>
<polyline fill="none" stroke="black" points="628.282,-1755 632.282,-1755 632.282,-1751 628.282,-1751 "/>
<text text-anchor="middle" x="689.282" y="-1761.3" font-family="Times,serif" font-size="14.00">RouteHookRewrite</text>
</g>
<!-- RouteHookRewrite&#45;&gt;Core_ComponentBase -->
<g id="edge63" class="edge"><title>RouteHookRewrite&#45;&gt;Core_ComponentBase</title>
<path fill="none" stroke="black" stroke-dasharray="1,5" d="M750.616,-1769.3C779.84,-1767.94 812.982,-1760.67 833.589,-1738 888.678,-1677.4 838.421,-1447.71 867.104,-1371 908.554,-1260.15 979.496,-1265.13 1022.82,-1155 1071.22,-1031.94 1100.08,-612.123 1107.13,-498.534"/>
<polygon fill="black" stroke="black" points="1110.65,-498.423 1107.76,-488.228 1103.66,-497.995 1110.65,-498.423"/>
</g>
<!-- RouteHookRouteMap -->
<g id="node49" class="node"><title>RouteHookRouteMap</title>
<polygon fill="none" stroke="black" points="757.782,-1729 620.782,-1729 620.782,-1725 616.782,-1725 616.782,-1721 620.782,-1721 620.782,-1701 616.782,-1701 616.782,-1697 620.782,-1697 620.782,-1693 757.782,-1693 757.782,-1729"/>
<polyline fill="none" stroke="black" points="620.782,-1725 624.782,-1725 624.782,-1721 620.782,-1721 "/>
<polyline fill="none" stroke="black" points="620.782,-1701 624.782,-1701 624.782,-1697 620.782,-1697 "/>
<text text-anchor="middle" x="689.282" y="-1707.3" font-family="Times,serif" font-size="14.00">RouteHookRouteMap</text>
</g>
<!-- RouteHookRouteMap&#45;&gt;Core_ComponentBase -->
<g id="edge64" class="edge"><title>RouteHookRouteMap&#45;&gt;Core_ComponentBase</title>
<path fill="none" stroke="black" stroke-dasharray="1,5" d="M758.076,-1714.97C785.402,-1712.78 814.835,-1704.93 833.589,-1684 898.439,-1611.63 833.622,-1339.22 867.104,-1248 907.756,-1137.24 978.046,-1142.16 1022.82,-1033 1101.89,-840.191 1109.07,-583.253 1109.13,-498.466"/>
<polygon fill="black" stroke="black" points="1112.63,-498.32 1109.1,-488.329 1105.63,-498.339 1112.63,-498.32"/>
</g>
<!-- StrictCheck -->
<g id="node50" class="node"><title>StrictCheck</title>
<polygon fill="none" stroke="black" points="729.282,-1945 649.282,-1945 649.282,-1941 645.282,-1941 645.282,-1937 649.282,-1937 649.282,-1917 645.282,-1917 645.282,-1913 649.282,-1913 649.282,-1909 729.282,-1909 729.282,-1945"/>
<polyline fill="none" stroke="black" points="649.282,-1941 653.282,-1941 653.282,-1937 649.282,-1937 "/>
<polyline fill="none" stroke="black" points="649.282,-1917 653.282,-1917 653.282,-1913 649.282,-1913 "/>
<text text-anchor="middle" x="689.282" y="-1923.3" font-family="Times,serif" font-size="14.00">StrictCheck</text>
</g>
<!-- StrictCheck&#45;&gt;Core_ComponentBase -->
<g id="edge65" class="edge"><title>StrictCheck&#45;&gt;Core_ComponentBase</title>
<path fill="none" stroke="black" stroke-dasharray="1,5" d="M729.601,-1931.7C762.689,-1933.23 808.507,-1929.19 833.589,-1900 902.43,-1819.9 800.664,-1032.11 867.104,-950 911.982,-894.54 973.718,-962.761 1022.82,-911 1079.95,-850.763 1101.54,-585.779 1107.19,-498.204"/>
<polygon fill="black" stroke="black" points="1110.69,-498.398 1107.82,-488.199 1103.7,-497.961 1110.69,-498.398"/>
</g>
<!-- StrictCheck&#45;&gt;DbManager -->
<g id="edge75" class="edge"><title>StrictCheck&#45;&gt;DbManager</title>
<path fill="none" stroke="black" d="M729.363,-1927C773.387,-1927 845.075,-1927 893.348,-1927"/>
<polygon fill="black" stroke="black" points="893.576,-1930.5 903.576,-1927 893.576,-1923.5 893.576,-1930.5"/>
</g>
<!-- DuckPhp -->
<g id="node51" class="node"><title>DuckPhp</title>
<polygon fill="lightgrey" stroke="black" points="325.909,-1646 264.242,-1628 325.909,-1610 387.576,-1628 325.909,-1646"/>
<polyline fill="none" stroke="black" points="275.761,-1631.36 275.761,-1624.64 "/>
<polyline fill="none" stroke="black" points="314.39,-1613.36 337.428,-1613.36 "/>
<polyline fill="none" stroke="black" points="376.057,-1624.64 376.057,-1631.36 "/>
<polyline fill="none" stroke="black" points="337.428,-1642.64 314.39,-1642.64 "/>
<text text-anchor="middle" x="325.909" y="-1624.3" font-family="Times,serif" font-size="14.00">DuckPhp</text>
</g>
<!-- DuckPhp&#45;&gt;Core_App -->
<g id="edge77" class="edge"><title>DuckPhp&#45;&gt;Core_App</title>
<path fill="none" stroke="black" d="M328.733,-1610.51C343.944,-1464.73 449.597,-452.126 468.361,-272.281"/>
<polygon fill="black" stroke="black" points="471.867,-272.405 469.424,-262.096 464.905,-271.679 471.867,-272.405"/>
</g>
<!-- DuckPhp&#45;&gt;Cache -->
<g id="edge83" class="edge"><title>DuckPhp&#45;&gt;Cache</title>
<path fill="none" stroke="black" d="M346.887,-1616.02C384.384,-1594.07 468.439,-1547.31 544.974,-1522 580.405,-1510.28 622.544,-1503.11 651.921,-1499.13"/>
<polygon fill="black" stroke="black" points="652.664,-1502.56 662.131,-1497.81 651.763,-1495.62 652.664,-1502.56"/>
</g>
<!-- DuckPhp&#45;&gt;Console -->
<g id="edge84" class="edge"><title>DuckPhp&#45;&gt;Console</title>
<path fill="none" stroke="black" d="M376.021,-1624.6C448.378,-1619.6 582.217,-1610.34 648.688,-1605.74"/>
<polygon fill="black" stroke="black" points="649.023,-1609.22 658.758,-1605.04 648.54,-1602.24 649.023,-1609.22"/>
</g>
<!-- DuckPhp&#45;&gt;DbManager -->
<g id="edge80" class="edge"><title>DuckPhp&#45;&gt;DbManager</title>
<path fill="none" stroke="black" d="M330.412,-1645.14C344.243,-1707.77 401.481,-1924.9 544.974,-2008 655.978,-2072.28 711.689,-2047.93 833.589,-2008 867.037,-1997.04 898.719,-1971.66 919.487,-1952.21"/>
<polygon fill="black" stroke="black" points="922.112,-1954.54 926.893,-1945.08 917.259,-1949.49 922.112,-1954.54"/>
</g>
<!-- DuckPhp&#45;&gt;EventManager -->
<g id="edge81" class="edge"><title>DuckPhp&#45;&gt;EventManager</title>
<path fill="none" stroke="black" d="M339.504,-1613.55C357.578,-1593.39 392.553,-1556.43 427.441,-1531 475.339,-1496.09 489.082,-1487.72 544.974,-1468 572.39,-1458.33 604.045,-1451.9 630.619,-1447.75"/>
<polygon fill="black" stroke="black" points="631.162,-1451.21 640.536,-1446.27 630.129,-1444.29 631.162,-1451.21"/>
</g>
<!-- DuckPhp&#45;&gt;Pager -->
<g id="edge79" class="edge"><title>DuckPhp&#45;&gt;Pager</title>
<path fill="none" stroke="black" d="M374.524,-1631.82C447.688,-1637.69 586.175,-1648.81 651.901,-1654.08"/>
<polygon fill="black" stroke="black" points="651.929,-1657.59 662.177,-1654.91 652.489,-1650.62 651.929,-1657.59"/>
</g>
<!-- DuckPhp&#45;&gt;RouteHookPathInfoCompat -->
<g id="edge82" class="edge"><title>DuckPhp&#45;&gt;RouteHookPathInfoCompat</title>
<path fill="none" stroke="black" d="M340.717,-1642.13C373.112,-1674.38 457.862,-1753.57 544.974,-1792 560.464,-1798.83 577.641,-1803.94 594.566,-1807.76"/>
<polygon fill="black" stroke="black" points="593.98,-1811.21 604.488,-1809.86 595.429,-1804.36 593.98,-1811.21"/>
</g>
<!-- DuckPhp&#45;&gt;RouteHookRouteMap -->
<g id="edge78" class="edge"><title>DuckPhp&#45;&gt;RouteHookRouteMap</title>
<path fill="none" stroke="black" d="M358.172,-1636.71C400.376,-1648.32 478.012,-1669.11 544.974,-1684 566.202,-1688.72 589.319,-1693.31 610.667,-1697.33"/>
<polygon fill="black" stroke="black" points="610.19,-1700.8 620.662,-1699.2 611.473,-1693.92 610.19,-1700.8"/>
</g>
<!-- ThrowOn -->
<g id="node52" class="node"><title>ThrowOn</title>
<polygon fill="lightgrey" stroke="black" points="116.188,-1214 52.8443,-1196 116.188,-1178 179.532,-1196 116.188,-1214"/>
<polyline fill="none" stroke="black" points="64.3873,-1199.28 64.3873,-1192.72 "/>
<polyline fill="none" stroke="black" points="104.645,-1181.28 127.731,-1181.28 "/>
<polyline fill="none" stroke="black" points="167.989,-1192.72 167.989,-1199.28 "/>
<polyline fill="none" stroke="black" points="127.731,-1210.72 104.645,-1210.72 "/>
<text text-anchor="middle" x="116.188" y="-1192.3" font-family="Times,serif" font-size="14.00">ThrowOn</text>
</g>
</g>
</svg>
