<?xml version="1.0" encoding="UTF-8" standalone="no"?>
<!DOCTYPE svg PUBLIC "-//W3C//DTD SVG 1.1//EN"
 "http://www.w3.org/Graphics/SVG/1.1/DTD/svg11.dtd">
<!-- Generated by graphviz version 2.38.0 (20140413.2041)
 -->
<!-- Title: gDuckPhp Pages: 1 -->
<svg width="1471pt" height="1760pt"
 viewBox="0.00 0.00 1471.00 1760.00" xmlns="http://www.w3.org/2000/svg" xmlns:xlink="http://www.w3.org/1999/xlink">
<g id="graph0" class="graph" transform="scale(1 1) rotate(0) translate(4 1756)">
<title>gDuckPhp</title>
<polygon fill="white" stroke="none" points="-4,4 -4,-1756 1467,-1756 1467,4 -4,4"/>
<g id="clust1" class="cluster"><title>cluster_SingletonEx</title>
<polygon fill="none" stroke="black" points="31.8981,-625 31.8981,-754 200.478,-754 200.478,-625 31.8981,-625"/>
<text text-anchor="middle" x="116.188" y="-738.8" font-family="Times,serif" font-size="14.00">[DuckPhp\SingletonEx]</text>
</g>
<g id="clust2" class="cluster"><title>cluster_Core</title>
<polygon fill="none" stroke="black" points="427.441,-1229 427.441,-1734 1420.65,-1734 1420.65,-1229 427.441,-1229"/>
<text text-anchor="middle" x="924.046" y="-1718.8" font-family="Times,serif" font-size="14.00">[DuckPhp\Core]</text>
</g>
<g id="clust3" class="cluster"><title>cluster_Helper</title>
<polygon fill="none" stroke="black" points="8,-1370 8,-1661 407.441,-1661 407.441,-1370 8,-1370"/>
<text text-anchor="middle" x="207.721" y="-1645.8" font-family="Times,serif" font-size="14.00">[DuckPhp\Helper]</text>
</g>
<g id="clust4" class="cluster"><title>cluster_Db</title>
<polygon fill="none" stroke="black" points="1106.11,-498 1106.11,-627 1455,-627 1455,-498 1106.11,-498"/>
<text text-anchor="middle" x="1280.56" y="-611.8" font-family="Times,serif" font-size="14.00">[DuckPhp\Db]</text>
</g>
<g id="clust5" class="cluster"><title>cluster_HttpServer</title>
<polygon fill="none" stroke="black" points="1066.59,-8 1066.59,-83 1222.3,-83 1222.3,-8 1066.59,-8"/>
<text text-anchor="middle" x="1144.45" y="-67.8" font-family="Times,serif" font-size="14.00">[DuckPhp\HttpServer]</text>
</g>
<g id="clust6" class="cluster"><title>cluster_DefaultExt</title>
<polygon fill="none" stroke="black" points="861.589,-91 861.589,-490 1199.95,-490 1199.95,-91 861.589,-91"/>
<text text-anchor="middle" x="1030.77" y="-474.8" font-family="Times,serif" font-size="14.00">[DuckPhp\Ext]</text>
</g>
<g id="clust7" class="cluster"><title>cluster_Ext</title>
<polygon fill="none" stroke="black" points="599.782,-498 599.782,-1221 1024.59,-1221 1024.59,-498 599.782,-498"/>
<text text-anchor="middle" x="812.186" y="-1205.8" font-family="Times,serif" font-size="14.00">[DuckPhp\Ext]</text>
</g>
<g id="clust8" class="cluster"><title>cluster_DuckPhp</title>
<polygon fill="none" stroke="black" points="256.325,-282 256.325,-357 395.492,-357 395.492,-282 256.325,-282"/>
<text text-anchor="middle" x="325.909" y="-341.8" font-family="Times,serif" font-size="14.00">[DuckPhp]</text>
</g>
<g id="clust9" class="cluster"><title>cluster_ThrowOn</title>
<polygon fill="none" stroke="black" points="44.7663,-1669 44.7663,-1744 187.61,-1744 187.61,-1669 44.7663,-1669"/>
<text text-anchor="middle" x="116.188" y="-1728.8" font-family="Times,serif" font-size="14.00">[DuckPhp\ThrowOn]</text>
</g>
<!-- SingletonEx -->
<g id="node1" class="node"><title>SingletonEx</title>
<polygon fill="lightgrey" stroke="black" points="116.188,-723 40.1075,-705 116.188,-687 192.269,-705 116.188,-723"/>
<polyline fill="none" stroke="black" points="51.7851,-707.763 51.7851,-702.237 "/>
<polyline fill="none" stroke="black" points="104.511,-689.763 127.866,-689.763 "/>
<polyline fill="none" stroke="black" points="180.591,-702.237 180.591,-707.763 "/>
<polyline fill="none" stroke="black" points="127.866,-720.237 104.511,-720.237 "/>
<text text-anchor="middle" x="116.188" y="-701.3" font-family="Times,serif" font-size="14.00">SingletonEx</text>
</g>
<!-- SimpleReplacer -->
<g id="node2" class="node"><title>SimpleReplacer</title>
<ellipse fill="none" stroke="black" cx="116.188" cy="-651" rx="67.6881" ry="18"/>
<text text-anchor="middle" x="116.188" y="-647.3" font-family="Times,serif" font-size="14.00">SimpleReplacer</text>
</g>
<!-- Core_AppPluginTrait -->
<g id="node3" class="node"><title>Core_AppPluginTrait</title>
<polygon fill="none" stroke="black" points="689.282,-1367 596.612,-1349 689.282,-1331 781.952,-1349 689.282,-1367"/>
<text text-anchor="middle" x="689.282" y="-1345.3" font-family="Times,serif" font-size="14.00">AppPluginTrait</text>
</g>
<!-- Core_View -->
<g id="node8" class="node"><title>Core_View</title>
<polygon fill="none" stroke="black" points="981.089,-1273 927.089,-1273 927.089,-1269 923.089,-1269 923.089,-1265 927.089,-1265 927.089,-1245 923.089,-1245 923.089,-1241 927.089,-1241 927.089,-1237 981.089,-1237 981.089,-1273"/>
<polyline fill="none" stroke="black" points="927.089,-1269 931.089,-1269 931.089,-1265 927.089,-1265 "/>
<polyline fill="none" stroke="black" points="927.089,-1245 931.089,-1245 931.089,-1241 927.089,-1241 "/>
<text text-anchor="middle" x="954.089" y="-1251.3" font-family="Times,serif" font-size="14.00">View</text>
</g>
<!-- Core_AppPluginTrait&#45;&gt;Core_View -->
<g id="edge21" class="edge"><title>Core_AppPluginTrait&#45;&gt;Core_View</title>
<path fill="none" stroke="black" d="M765.792,-1345.75C788.961,-1341.97 813.594,-1334.91 833.589,-1322 851.822,-1310.23 843.972,-1294.67 861.589,-1282 877.851,-1270.3 899.168,-1263.63 917.136,-1259.85"/>
<polygon fill="black" stroke="black" points="917.816,-1263.28 926.991,-1257.99 916.515,-1256.41 917.816,-1263.28"/>
</g>
<!-- Core_Configer -->
<g id="node9" class="node"><title>Core_Configer</title>
<polygon fill="none" stroke="black" points="986.589,-1327 921.589,-1327 921.589,-1323 917.589,-1323 917.589,-1319 921.589,-1319 921.589,-1299 917.589,-1299 917.589,-1295 921.589,-1295 921.589,-1291 986.589,-1291 986.589,-1327"/>
<polyline fill="none" stroke="black" points="921.589,-1323 925.589,-1323 925.589,-1319 921.589,-1319 "/>
<polyline fill="none" stroke="black" points="921.589,-1299 925.589,-1299 925.589,-1295 921.589,-1295 "/>
<text text-anchor="middle" x="954.089" y="-1305.3" font-family="Times,serif" font-size="14.00">Configer</text>
</g>
<!-- Core_AppPluginTrait&#45;&gt;Core_Configer -->
<g id="edge20" class="edge"><title>Core_AppPluginTrait&#45;&gt;Core_Configer</title>
<path fill="none" stroke="black" d="M741.89,-1341.15C791.505,-1333.59 865.544,-1322.32 911.493,-1315.33"/>
<polygon fill="black" stroke="black" points="912.054,-1318.79 921.414,-1313.82 911.001,-1311.87 912.054,-1318.79"/>
</g>
<!-- Core_Route -->
<g id="node11" class="node"><title>Core_Route</title>
<polygon fill="lightgrey" stroke="black" points="954.089,-1381 909.012,-1363 954.089,-1345 999.167,-1363 954.089,-1381"/>
<polyline fill="none" stroke="black" points="920.156,-1367.45 920.156,-1358.55 "/>
<polyline fill="none" stroke="black" points="942.945,-1349.45 965.234,-1349.45 "/>
<polyline fill="none" stroke="black" points="988.022,-1358.55 988.022,-1367.45 "/>
<polyline fill="none" stroke="black" points="965.234,-1376.55 942.945,-1376.55 "/>
<text text-anchor="middle" x="954.089" y="-1359.3" font-family="Times,serif" font-size="14.00">Route</text>
</g>
<!-- Core_AppPluginTrait&#45;&gt;Core_Route -->
<g id="edge22" class="edge"><title>Core_AppPluginTrait&#45;&gt;Core_Route</title>
<path fill="none" stroke="black" d="M762.443,-1352.84C807.454,-1355.24 864.196,-1358.26 904.028,-1360.39"/>
<polygon fill="black" stroke="black" points="903.855,-1363.88 914.027,-1360.92 904.227,-1356.89 903.855,-1363.88"/>
</g>
<!-- Core_App -->
<g id="node4" class="node"><title>Core_App</title>
<polygon fill="lightgrey" stroke="black" points="472.208,-1498 435.674,-1480 472.208,-1462 508.742,-1480 472.208,-1498"/>
<polyline fill="none" stroke="black" points="446.438,-1485.3 446.438,-1474.7 "/>
<polyline fill="none" stroke="black" points="461.443,-1467.3 482.972,-1467.3 "/>
<polyline fill="none" stroke="black" points="497.977,-1474.7 497.977,-1485.3 "/>
<polyline fill="none" stroke="black" points="482.972,-1492.7 461.443,-1492.7 "/>
<text text-anchor="middle" x="472.208" y="-1476.3" font-family="Times,serif" font-size="14.00">App</text>
</g>
<!-- Core_Kernel -->
<g id="node5" class="node"><title>Core_Kernel</title>
<polygon fill="none" stroke="black" points="689.282,-1441 640.35,-1423 689.282,-1405 738.213,-1423 689.282,-1441"/>
<text text-anchor="middle" x="689.282" y="-1419.3" font-family="Times,serif" font-size="14.00">Kernel</text>
</g>
<!-- Core_App&#45;&gt;Core_Kernel -->
<g id="edge7" class="edge"><title>Core_App&#45;&gt;Core_Kernel</title>
<path fill="none" stroke="black" d="M493.424,-1472.26C507.694,-1466.96 527.336,-1460.02 544.974,-1455 578.711,-1445.39 617.583,-1436.87 646.324,-1431.04"/>
<polygon fill="black" stroke="black" points="647.308,-1434.41 656.426,-1429.01 645.933,-1427.55 647.308,-1434.41"/>
</g>
<!-- Core_AutoLoader -->
<g id="node6" class="node"><title>Core_AutoLoader</title>
<polygon fill="lightgrey" stroke="black" points="954.089,-1543 878.847,-1525 954.089,-1507 1029.33,-1525 954.089,-1543"/>
<polyline fill="none" stroke="black" points="890.518,-1527.79 890.518,-1522.21 "/>
<polyline fill="none" stroke="black" points="942.419,-1509.79 965.76,-1509.79 "/>
<polyline fill="none" stroke="black" points="1017.66,-1522.21 1017.66,-1527.79 "/>
<polyline fill="none" stroke="black" points="965.76,-1540.21 942.419,-1540.21 "/>
<text text-anchor="middle" x="954.089" y="-1521.3" font-family="Times,serif" font-size="14.00">AutoLoader</text>
</g>
<!-- Core_App&#45;&gt;Core_AutoLoader -->
<g id="edge10" class="edge"><title>Core_App&#45;&gt;Core_AutoLoader</title>
<path fill="none" stroke="black" stroke-dasharray="5,2" d="M503.226,-1482.81C579.977,-1490.01 784.683,-1509.21 889.425,-1519.03"/>
<polygon fill="black" stroke="black" points="889.265,-1522.53 899.548,-1519.98 889.919,-1515.56 889.265,-1522.53"/>
</g>
<!-- Core_ExceptionManager -->
<g id="node7" class="node"><title>Core_ExceptionManager</title>
<polygon fill="none" stroke="black" points="1014.09,-1489 894.089,-1489 894.089,-1485 890.089,-1485 890.089,-1481 894.089,-1481 894.089,-1461 890.089,-1461 890.089,-1457 894.089,-1457 894.089,-1453 1014.09,-1453 1014.09,-1489"/>
<polyline fill="none" stroke="black" points="894.089,-1485 898.089,-1485 898.089,-1481 894.089,-1481 "/>
<polyline fill="none" stroke="black" points="894.089,-1461 898.089,-1461 898.089,-1457 894.089,-1457 "/>
<text text-anchor="middle" x="954.089" y="-1467.3" font-family="Times,serif" font-size="14.00">ExceptionManager</text>
</g>
<!-- Core_App&#45;&gt;Core_ExceptionManager -->
<g id="edge13" class="edge"><title>Core_App&#45;&gt;Core_ExceptionManager</title>
<path fill="none" stroke="black" stroke-dasharray="5,2" d="M507.72,-1479.35C586.233,-1477.88 779.458,-1474.26 883.717,-1472.3"/>
<polygon fill="black" stroke="black" points="883.897,-1475.8 893.829,-1472.11 883.765,-1468.8 883.897,-1475.8"/>
</g>
<!-- Core_App&#45;&gt;Core_View -->
<g id="edge16" class="edge"><title>Core_App&#45;&gt;Core_View</title>
<path fill="none" stroke="black" stroke-dasharray="5,2" d="M475.661,-1463.53C483.34,-1414.46 508.59,-1270.97 544.974,-1244 596.502,-1205.81 769.52,-1241.06 833.589,-1244 861.69,-1245.29 893.391,-1248.28 917.077,-1250.82"/>
<polygon fill="black" stroke="black" points="916.707,-1254.3 927.028,-1251.91 917.469,-1247.34 916.707,-1254.3"/>
</g>
<!-- Core_App&#45;&gt;Core_Configer -->
<g id="edge11" class="edge"><title>Core_App&#45;&gt;Core_Configer</title>
<path fill="none" stroke="black" stroke-dasharray="5,2" d="M472.923,-1462.1C473.344,-1419.82 481.034,-1313.86 544.974,-1268 597.092,-1230.62 771.168,-1253.26 833.589,-1268 847.131,-1271.2 848.644,-1276.9 861.589,-1282 877.517,-1288.27 895.499,-1293.88 911.279,-1298.34"/>
<polygon fill="black" stroke="black" points="910.718,-1301.82 921.288,-1301.1 912.578,-1295.07 910.718,-1301.82"/>
</g>
<!-- Core_Logger -->
<g id="node10" class="node"><title>Core_Logger</title>
<polygon fill="none" stroke="black" points="982.089,-1617 926.089,-1617 926.089,-1613 922.089,-1613 922.089,-1609 926.089,-1609 926.089,-1589 922.089,-1589 922.089,-1585 926.089,-1585 926.089,-1581 982.089,-1581 982.089,-1617"/>
<polyline fill="none" stroke="black" points="926.089,-1613 930.089,-1613 930.089,-1609 926.089,-1609 "/>
<polyline fill="none" stroke="black" points="926.089,-1589 930.089,-1589 930.089,-1585 926.089,-1585 "/>
<text text-anchor="middle" x="954.089" y="-1595.3" font-family="Times,serif" font-size="14.00">Logger</text>
</g>
<!-- Core_App&#45;&gt;Core_Logger -->
<g id="edge12" class="edge"><title>Core_App&#45;&gt;Core_Logger</title>
<path fill="none" stroke="black" stroke-dasharray="5,2" d="M486.502,-1491.09C500.207,-1501.82 522.663,-1517.53 544.974,-1525 667.06,-1565.9 711.212,-1509.98 833.589,-1550 847.427,-1554.52 848.424,-1560.79 861.589,-1567 879.145,-1575.29 899.459,-1582.6 916.48,-1588.14"/>
<polygon fill="black" stroke="black" points="915.486,-1591.5 926.076,-1591.19 917.605,-1584.83 915.486,-1591.5"/>
</g>
<!-- Core_App&#45;&gt;Core_Route -->
<g id="edge14" class="edge"><title>Core_App&#45;&gt;Core_Route</title>
<path fill="none" stroke="black" stroke-dasharray="5,2" d="M480.457,-1465.96C491.44,-1446.36 514.308,-1411.44 544.974,-1396 602.396,-1367.09 769.552,-1381.7 833.589,-1376 858.646,-1373.77 886.6,-1370.76 909.168,-1368.19"/>
<polygon fill="black" stroke="black" points="909.592,-1371.67 919.128,-1367.05 908.795,-1364.71 909.592,-1371.67"/>
</g>
<!-- Core_RuntimeState -->
<g id="node12" class="node"><title>Core_RuntimeState</title>
<polygon fill="none" stroke="black" points="999.589,-1435 908.589,-1435 908.589,-1431 904.589,-1431 904.589,-1427 908.589,-1427 908.589,-1407 904.589,-1407 904.589,-1403 908.589,-1403 908.589,-1399 999.589,-1399 999.589,-1435"/>
<polyline fill="none" stroke="black" points="908.589,-1431 912.589,-1431 912.589,-1427 908.589,-1427 "/>
<polyline fill="none" stroke="black" points="908.589,-1407 912.589,-1407 912.589,-1403 908.589,-1403 "/>
<text text-anchor="middle" x="954.089" y="-1413.3" font-family="Times,serif" font-size="14.00">RuntimeState</text>
</g>
<!-- Core_App&#45;&gt;Core_RuntimeState -->
<g id="edge15" class="edge"><title>Core_App&#45;&gt;Core_RuntimeState</title>
<path fill="none" stroke="black" stroke-dasharray="5,2" d="M500.416,-1475.76C513.809,-1473.78 530.21,-1471.54 544.974,-1470 672.863,-1456.67 706.847,-1471.67 833.589,-1450 846.325,-1447.82 873.4,-1440.43 898.562,-1433.19"/>
<polygon fill="black" stroke="black" points="899.812,-1436.47 908.443,-1430.33 897.864,-1429.75 899.812,-1436.47"/>
</g>
<!-- Core_SystemWrapperTrait -->
<g id="node13" class="node"><title>Core_SystemWrapperTrait</title>
<polygon fill="none" stroke="black" points="689.282,-1595 568.962,-1577 689.282,-1559 809.601,-1577 689.282,-1595"/>
<text text-anchor="middle" x="689.282" y="-1573.3" font-family="Times,serif" font-size="14.00">SystemWrapperTrait</text>
</g>
<!-- Core_App&#45;&gt;Core_SystemWrapperTrait -->
<g id="edge9" class="edge"><title>Core_App&#45;&gt;Core_SystemWrapperTrait</title>
<path fill="none" stroke="black" d="M483.472,-1492.63C496.277,-1507.51 519.597,-1531.86 544.974,-1545 565.096,-1555.42 588.521,-1562.46 610.53,-1567.22"/>
<polygon fill="black" stroke="black" points="610.03,-1570.69 620.526,-1569.24 611.421,-1563.82 610.03,-1570.69"/>
</g>
<!-- Core_SuperGlobal -->
<g id="node14" class="node"><title>Core_SuperGlobal</title>
<polygon fill="none" stroke="black" points="731.782,-1649 646.782,-1649 646.782,-1645 642.782,-1645 642.782,-1641 646.782,-1641 646.782,-1621 642.782,-1621 642.782,-1617 646.782,-1617 646.782,-1613 731.782,-1613 731.782,-1649"/>
<polyline fill="none" stroke="black" points="646.782,-1645 650.782,-1645 650.782,-1641 646.782,-1641 "/>
<polyline fill="none" stroke="black" points="646.782,-1621 650.782,-1621 650.782,-1617 646.782,-1617 "/>
<text text-anchor="middle" x="689.282" y="-1627.3" font-family="Times,serif" font-size="14.00">SuperGlobal</text>
</g>
<!-- Core_App&#45;&gt;Core_SuperGlobal -->
<g id="edge17" class="edge"><title>Core_App&#45;&gt;Core_SuperGlobal</title>
<path fill="none" stroke="black" stroke-dasharray="5,2" d="M477.498,-1495.45C485.776,-1522.19 506.609,-1576.83 544.974,-1604 571.496,-1622.78 607.452,-1629.52 636.713,-1631.56"/>
<polygon fill="black" stroke="black" points="636.583,-1635.06 646.757,-1632.1 636.96,-1628.07 636.583,-1635.06"/>
</g>
<!-- Core_ExtendableStaticCallTrait -->
<g id="node15" class="node"><title>Core_ExtendableStaticCallTrait</title>
<polygon fill="none" stroke="black" points="689.282,-1703 545.166,-1685 689.282,-1667 833.397,-1685 689.282,-1703"/>
<text text-anchor="middle" x="689.282" y="-1681.3" font-family="Times,serif" font-size="14.00">ExtendableStaticCallTrait</text>
</g>
<!-- Core_App&#45;&gt;Core_ExtendableStaticCallTrait -->
<g id="edge8" class="edge"><title>Core_App&#45;&gt;Core_ExtendableStaticCallTrait</title>
<path fill="none" stroke="black" d="M474.734,-1496.83C478.928,-1532.56 493.962,-1616.16 544.974,-1658 554.86,-1666.11 566.422,-1672.07 578.615,-1676.41"/>
<polygon fill="black" stroke="black" points="577.918,-1679.86 588.508,-1679.56 580.04,-1673.19 577.918,-1679.86"/>
</g>
<!-- Core_ComponentBase -->
<g id="node17" class="node"><title>Core_ComponentBase</title>
<polygon fill="none" stroke="black" points="1197.95,-1273 1094.95,-1273 1090.95,-1269 1090.95,-1237 1193.95,-1237 1197.95,-1241 1197.95,-1273"/>
<polyline fill="none" stroke="black" points="1193.95,-1269 1090.95,-1269 "/>
<polyline fill="none" stroke="black" points="1193.95,-1269 1193.95,-1237 "/>
<polyline fill="none" stroke="black" points="1193.95,-1269 1197.95,-1273 "/>
<text text-anchor="middle" x="1144.45" y="-1251.3" font-family="Times,serif" font-size="14.00">ComponentBase</text>
</g>
<!-- Core_App&#45;&gt;Core_ComponentBase -->
<g id="edge19" class="edge"><title>Core_App&#45;&gt;Core_ComponentBase</title>
<path fill="none" stroke="black" stroke-dasharray="1,5" d="M491.971,-1488.45C506.208,-1494.45 526.427,-1502.11 544.974,-1506 607.882,-1519.19 774.808,-1499 833.589,-1525 849.399,-1531.99 845.558,-1545.53 861.589,-1552 898.064,-1566.72 1006.48,-1574.72 1038.59,-1552 1127.45,-1489.14 1141.52,-1344.48 1143.38,-1283.22"/>
<polygon fill="black" stroke="black" points="1146.88,-1283.2 1143.6,-1273.13 1139.88,-1283.05 1146.88,-1283.2"/>
</g>
<!-- Core_Functions -->
<g id="node18" class="node"><title>Core_Functions</title>
<ellipse fill="none" stroke="black" cx="689.282" cy="-1295" rx="45.4919" ry="18"/>
<text text-anchor="middle" x="689.282" y="-1291.3" font-family="Times,serif" font-size="14.00">Functions</text>
</g>
<!-- Core_App&#45;&gt;Core_Functions -->
<g id="edge18" class="edge"><title>Core_App&#45;&gt;Core_Functions</title>
<path fill="none" stroke="black" stroke-dasharray="5,2" d="M475.618,-1463.54C481.308,-1430.96 498.756,-1358.27 544.974,-1322 569.918,-1302.43 604.752,-1295.54 633.831,-1293.62"/>
<polygon fill="black" stroke="black" points="634.032,-1297.11 643.851,-1293.13 633.692,-1290.12 634.032,-1297.11"/>
</g>
<!-- Core_Kernel&#45;&gt;Core_AutoLoader -->
<g id="edge1" class="edge"><title>Core_Kernel&#45;&gt;Core_AutoLoader</title>
<path fill="none" stroke="black" d="M711.034,-1433.1C742.913,-1448.39 806.079,-1477.75 861.589,-1498 876.381,-1503.4 892.804,-1508.51 907.608,-1512.8"/>
<polygon fill="black" stroke="black" points="906.981,-1516.26 917.557,-1515.64 908.9,-1509.53 906.981,-1516.26"/>
</g>
<!-- Core_Kernel&#45;&gt;Core_ExceptionManager -->
<g id="edge3" class="edge"><title>Core_Kernel&#45;&gt;Core_ExceptionManager</title>
<path fill="none" stroke="black" d="M722.507,-1428.89C762.489,-1436.19 831.758,-1448.84 883.965,-1458.37"/>
<polygon fill="black" stroke="black" points="883.368,-1461.82 893.834,-1460.18 884.625,-1454.94 883.368,-1461.82"/>
</g>
<!-- Core_Kernel&#45;&gt;Core_View -->
<g id="edge6" class="edge"><title>Core_Kernel&#45;&gt;Core_View</title>
<path fill="none" stroke="black" d="M729.879,-1419.93C762.004,-1415.37 806.292,-1404.06 833.589,-1376 863.988,-1344.76 830.726,-1312.78 861.589,-1282 876.134,-1267.49 898.063,-1260.7 916.808,-1257.56"/>
<polygon fill="black" stroke="black" points="917.406,-1261.01 926.826,-1256.17 916.439,-1254.08 917.406,-1261.01"/>
</g>
<!-- Core_Kernel&#45;&gt;Core_Configer -->
<g id="edge2" class="edge"><title>Core_Kernel&#45;&gt;Core_Configer</title>
<path fill="none" stroke="black" d="M724.983,-1418.01C755.927,-1412.16 801.21,-1400.03 833.589,-1376 851.015,-1363.07 843.972,-1348.67 861.589,-1336 876.176,-1325.51 894.832,-1319.06 911.488,-1315.11"/>
<polygon fill="black" stroke="black" points="912.498,-1318.48 921.546,-1312.96 911.036,-1311.63 912.498,-1318.48"/>
</g>
<!-- Core_Kernel&#45;&gt;Core_Route -->
<g id="edge4" class="edge"><title>Core_Kernel&#45;&gt;Core_Route</title>
<path fill="none" stroke="black" d="M720.497,-1416.35C749.514,-1409.94 794.574,-1399.93 833.589,-1391 860.911,-1384.75 891.705,-1377.53 915.189,-1371.99"/>
<polygon fill="black" stroke="black" points="916.173,-1375.35 925.1,-1369.65 914.563,-1368.54 916.173,-1375.35"/>
</g>
<!-- Core_Kernel&#45;&gt;Core_RuntimeState -->
<g id="edge5" class="edge"><title>Core_Kernel&#45;&gt;Core_RuntimeState</title>
<path fill="none" stroke="black" d="M735.46,-1421.97C780.58,-1420.94 849.983,-1419.35 898.238,-1418.25"/>
<polygon fill="black" stroke="black" points="898.583,-1421.75 908.501,-1418.02 898.423,-1414.75 898.583,-1421.75"/>
</g>
<!-- Core_ExceptionManager&#45;&gt;Core_ComponentBase -->
<g id="edge23" class="edge"><title>Core_ExceptionManager&#45;&gt;Core_ComponentBase</title>
<path fill="none" stroke="black" stroke-dasharray="1,5" d="M1014.13,-1458.15C1022.92,-1454.53 1031.41,-1449.91 1038.59,-1444 1091.21,-1400.7 1121.94,-1323.72 1135.36,-1282.63"/>
<polygon fill="black" stroke="black" points="1138.73,-1283.59 1138.4,-1273 1132.05,-1281.49 1138.73,-1283.59"/>
</g>
<!-- Core_View&#45;&gt;Core_ComponentBase -->
<g id="edge28" class="edge"><title>Core_View&#45;&gt;Core_ComponentBase</title>
<path fill="none" stroke="black" stroke-dasharray="1,5" d="M981.279,-1255C1006.84,-1255 1046.7,-1255 1080.51,-1255"/>
<polygon fill="black" stroke="black" points="1080.78,-1258.5 1090.78,-1255 1080.78,-1251.5 1080.78,-1258.5"/>
</g>
<!-- Core_Configer&#45;&gt;Core_ComponentBase -->
<g id="edge24" class="edge"><title>Core_Configer&#45;&gt;Core_ComponentBase</title>
<path fill="none" stroke="black" stroke-dasharray="1,5" d="M986.616,-1299.96C1012.34,-1292.59 1049.47,-1281.94 1081.14,-1272.86"/>
<polygon fill="black" stroke="black" points="1082.13,-1276.22 1090.78,-1270.1 1080.2,-1269.49 1082.13,-1276.22"/>
</g>
<!-- Core_Logger&#45;&gt;Core_ComponentBase -->
<g id="edge29" class="edge"><title>Core_Logger&#45;&gt;Core_ComponentBase</title>
<path fill="none" stroke="black" stroke-dasharray="1,5" d="M982.111,-1594.82C1000.32,-1590.67 1023.65,-1582.57 1038.59,-1567 1116.79,-1485.47 1136.74,-1343.8 1141.77,-1283.49"/>
<polygon fill="black" stroke="black" points="1145.29,-1283.45 1142.55,-1273.21 1138.31,-1282.92 1145.29,-1283.45"/>
</g>
<!-- Core_Route&#45;&gt;Core_ComponentBase -->
<g id="edge25" class="edge"><title>Core_Route&#45;&gt;Core_ComponentBase</title>
<path fill="none" stroke="black" stroke-dasharray="1,5" d="M983.128,-1356.53C999.811,-1352.06 1021.07,-1345.24 1038.59,-1336 1067.51,-1320.75 1096.64,-1297.47 1116.83,-1279.77"/>
<polygon fill="black" stroke="black" points="1119.24,-1282.31 1124.38,-1273.05 1114.58,-1277.08 1119.24,-1282.31"/>
</g>
<!-- Core_RuntimeState&#45;&gt;Core_ComponentBase -->
<g id="edge27" class="edge"><title>Core_RuntimeState&#45;&gt;Core_ComponentBase</title>
<path fill="none" stroke="black" stroke-dasharray="1,5" d="M999.859,-1407.86C1013.1,-1403.8 1027.11,-1398.05 1038.59,-1390 1079.33,-1361.43 1111.68,-1312.38 1129.16,-1281.93"/>
<polygon fill="black" stroke="black" points="1132.26,-1283.55 1134.1,-1273.12 1126.15,-1280.13 1132.26,-1283.55"/>
</g>
<!-- Core_SuperGlobal&#45;&gt;Core_ComponentBase -->
<g id="edge26" class="edge"><title>Core_SuperGlobal&#45;&gt;Core_ComponentBase</title>
<path fill="none" stroke="black" stroke-dasharray="1,5" d="M731.905,-1636.36C813.753,-1645.97 991.763,-1661.96 1038.59,-1626 1094.11,-1583.37 1128.9,-1362.74 1139.78,-1283.43"/>
<polygon fill="black" stroke="black" points="1143.29,-1283.59 1141.15,-1273.21 1136.35,-1282.66 1143.29,-1283.59"/>
</g>
<!-- Core_ComponentInterface -->
<g id="node16" class="node"><title>Core_ComponentInterface</title>
<polygon fill="none" stroke="black" points="1406.65,-1273 1284.65,-1273 1284.65,-1237 1412.65,-1237 1412.65,-1267 1406.65,-1273"/>
<polyline fill="none" stroke="black" points="1406.65,-1273 1406.65,-1267 "/>
<polyline fill="none" stroke="black" points="1412.65,-1267 1406.65,-1267 "/>
<text text-anchor="middle" x="1348.65" y="-1251.3" font-family="Times,serif" font-size="14.00">ComponentInterface</text>
</g>
<!-- Core_ComponentBase&#45;&gt;Core_ComponentInterface -->
<g id="edge30" class="edge"><title>Core_ComponentBase&#45;&gt;Core_ComponentInterface</title>
<path fill="none" stroke="black" d="M1198.04,-1255C1221.29,-1255 1249.01,-1255 1274.25,-1255"/>
<polygon fill="black" stroke="black" points="1274.51,-1258.5 1284.51,-1255 1274.51,-1251.5 1274.51,-1258.5"/>
</g>
<!-- AppHelper -->
<g id="node19" class="node"><title>AppHelper</title>
<polygon fill="lightgrey" stroke="black" points="116.188,-1630 45.6372,-1612 116.188,-1594 186.739,-1612 116.188,-1630"/>
<polyline fill="none" stroke="black" points="57.2647,-1614.97 57.2647,-1609.03 "/>
<polyline fill="none" stroke="black" points="104.561,-1596.97 127.816,-1596.97 "/>
<polyline fill="none" stroke="black" points="175.112,-1609.03 175.112,-1614.97 "/>
<polyline fill="none" stroke="black" points="127.816,-1627.03 104.561,-1627.03 "/>
<text text-anchor="middle" x="116.188" y="-1608.3" font-family="Times,serif" font-size="14.00">AppHelper</text>
</g>
<!-- AppHelper&#45;&gt;Core_App -->
<g id="edge31" class="edge"><title>AppHelper&#45;&gt;Core_App</title>
<path fill="none" stroke="black" d="M151.171,-1602.8C170.327,-1597.6 194.694,-1590.96 216.376,-1585 232.388,-1580.6 236.336,-1579.3 252.376,-1575 321.127,-1556.59 344.379,-1568 407.441,-1535 424.655,-1525.99 441.181,-1511.52 453.094,-1499.68"/>
<polygon fill="black" stroke="black" points="455.749,-1501.97 460.217,-1492.36 450.733,-1497.08 455.749,-1501.97"/>
</g>
<!-- HelperTrait -->
<g id="node24" class="node"><title>HelperTrait</title>
<polygon fill="none" stroke="black" points="325.909,-1620 252.344,-1602 325.909,-1584 399.474,-1602 325.909,-1620"/>
<text text-anchor="middle" x="325.909" y="-1598.3" font-family="Times,serif" font-size="14.00">HelperTrait</text>
</g>
<!-- AppHelper&#45;&gt;HelperTrait -->
<g id="edge38" class="edge"><title>AppHelper&#45;&gt;HelperTrait</title>
<path fill="none" stroke="black" d="M175.88,-1609.17C200.132,-1608.01 228.465,-1606.64 253.875,-1605.42"/>
<polygon fill="black" stroke="black" points="254.374,-1608.9 264.194,-1604.92 254.037,-1601.91 254.374,-1608.9"/>
</g>
<!-- ControllerHelper -->
<g id="node20" class="node"><title>ControllerHelper</title>
<polygon fill="lightgrey" stroke="black" points="116.188,-1576 15.8115,-1558 116.188,-1540 216.565,-1558 116.188,-1576"/>
<polyline fill="none" stroke="black" points="27.6231,-1560.12 27.6231,-1555.88 "/>
<polyline fill="none" stroke="black" points="104.377,-1542.12 128,-1542.12 "/>
<polyline fill="none" stroke="black" points="204.753,-1555.88 204.753,-1560.12 "/>
<polyline fill="none" stroke="black" points="128,-1573.88 104.377,-1573.88 "/>
<text text-anchor="middle" x="116.188" y="-1554.3" font-family="Times,serif" font-size="14.00">ControllerHelper</text>
</g>
<!-- ControllerHelper&#45;&gt;Core_App -->
<g id="edge32" class="edge"><title>ControllerHelper&#45;&gt;Core_App</title>
<path fill="none" stroke="black" d="M174.321,-1550.41C233.351,-1541.86 327.829,-1526.2 407.441,-1504 419.131,-1500.74 431.692,-1496.24 442.55,-1492.01"/>
<polygon fill="black" stroke="black" points="443.977,-1495.21 451.967,-1488.26 441.382,-1488.71 443.977,-1495.21"/>
</g>
<!-- ControllerHelper&#45;&gt;HelperTrait -->
<g id="edge39" class="edge"><title>ControllerHelper&#45;&gt;HelperTrait</title>
<path fill="none" stroke="black" d="M162.773,-1567.66C196.252,-1574.75 241.674,-1584.37 275.926,-1591.62"/>
<polygon fill="black" stroke="black" points="275.212,-1595.05 285.72,-1593.7 276.662,-1588.2 275.212,-1595.05"/>
</g>
<!-- ModelHelper -->
<g id="node21" class="node"><title>ModelHelper</title>
<polygon fill="lightgrey" stroke="black" points="116.188,-1522 34.5777,-1504 116.188,-1486 197.799,-1504 116.188,-1522"/>
<polyline fill="none" stroke="black" points="46.296,-1506.58 46.296,-1501.42 "/>
<polyline fill="none" stroke="black" points="104.47,-1488.58 127.906,-1488.58 "/>
<polyline fill="none" stroke="black" points="186.08,-1501.42 186.08,-1506.58 "/>
<polyline fill="none" stroke="black" points="127.906,-1519.42 104.47,-1519.42 "/>
<text text-anchor="middle" x="116.188" y="-1500.3" font-family="Times,serif" font-size="14.00">ModelHelper</text>
</g>
<!-- ModelHelper&#45;&gt;Core_App -->
<g id="edge33" class="edge"><title>ModelHelper&#45;&gt;Core_App</title>
<path fill="none" stroke="black" d="M178.854,-1499.82C250.765,-1494.94 367.663,-1487.02 429.611,-1482.82"/>
<polygon fill="black" stroke="black" points="430.051,-1486.3 439.791,-1482.13 429.577,-1479.31 430.051,-1486.3"/>
</g>
<!-- ModelHelper&#45;&gt;HelperTrait -->
<g id="edge40" class="edge"><title>ModelHelper&#45;&gt;HelperTrait</title>
<path fill="none" stroke="black" d="M159.704,-1512.47C177.64,-1516.83 198.471,-1522.95 216.376,-1531 246.879,-1544.71 278.523,-1566.42 299.715,-1582.22"/>
<polygon fill="black" stroke="black" points="297.764,-1585.13 307.849,-1588.38 301.99,-1579.55 297.764,-1585.13"/>
</g>
<!-- ServiceHelper -->
<g id="node22" class="node"><title>ServiceHelper</title>
<polygon fill="lightgrey" stroke="black" points="116.188,-1468 29.8865,-1450 116.188,-1432 202.49,-1450 116.188,-1468"/>
<polyline fill="none" stroke="black" points="41.6337,-1452.45 41.6337,-1447.55 "/>
<polyline fill="none" stroke="black" points="104.441,-1434.45 127.935,-1434.45 "/>
<polyline fill="none" stroke="black" points="190.743,-1447.55 190.743,-1452.45 "/>
<polyline fill="none" stroke="black" points="127.935,-1465.55 104.441,-1465.55 "/>
<text text-anchor="middle" x="116.188" y="-1446.3" font-family="Times,serif" font-size="14.00">ServiceHelper</text>
</g>
<!-- ServiceHelper&#45;&gt;Core_App -->
<g id="edge34" class="edge"><title>ServiceHelper&#45;&gt;Core_App</title>
<path fill="none" stroke="black" d="M178.046,-1455.16C250.183,-1461.27 368.399,-1471.29 430.375,-1476.54"/>
<polygon fill="black" stroke="black" points="430.287,-1480.04 440.547,-1477.4 430.879,-1473.07 430.287,-1480.04"/>
</g>
<!-- ServiceHelper&#45;&gt;HelperTrait -->
<g id="edge41" class="edge"><title>ServiceHelper&#45;&gt;HelperTrait</title>
<path fill="none" stroke="black" d="M166.719,-1457.47C183.374,-1461.5 201.49,-1467.65 216.376,-1477 257.664,-1502.93 291.891,-1549.38 310.284,-1577.78"/>
<polygon fill="black" stroke="black" points="307.382,-1579.73 315.689,-1586.31 313.296,-1575.99 307.382,-1579.73"/>
</g>
<!-- ViewHelper -->
<g id="node23" class="node"><title>ViewHelper</title>
<polygon fill="lightgrey" stroke="black" points="116.188,-1414 40.1075,-1396 116.188,-1378 192.269,-1396 116.188,-1414"/>
<polyline fill="none" stroke="black" points="51.7851,-1398.76 51.7851,-1393.24 "/>
<polyline fill="none" stroke="black" points="104.511,-1380.76 127.866,-1380.76 "/>
<polyline fill="none" stroke="black" points="180.591,-1393.24 180.591,-1398.76 "/>
<polyline fill="none" stroke="black" points="127.866,-1411.24 104.511,-1411.24 "/>
<text text-anchor="middle" x="116.188" y="-1392.3" font-family="Times,serif" font-size="14.00">ViewHelper</text>
</g>
<!-- ViewHelper&#45;&gt;Core_App -->
<g id="edge35" class="edge"><title>ViewHelper&#45;&gt;Core_App</title>
<path fill="none" stroke="black" d="M159.825,-1403.81C216.71,-1414.55 320.376,-1435.28 407.441,-1459 418.435,-1461.99 430.331,-1465.76 440.837,-1469.28"/>
<polygon fill="black" stroke="black" points="439.815,-1472.63 450.409,-1472.54 442.071,-1466 439.815,-1472.63"/>
</g>
<!-- ViewHelper&#45;&gt;HelperTrait -->
<g id="edge42" class="edge"><title>ViewHelper&#45;&gt;HelperTrait</title>
<path fill="none" stroke="black" d="M167.172,-1401.95C184.053,-1405.86 202.194,-1412.31 216.376,-1423 269.131,-1462.75 301.685,-1536.29 316.13,-1575.6"/>
<polygon fill="black" stroke="black" points="312.92,-1577.02 319.57,-1585.27 319.516,-1574.67 312.92,-1577.02"/>
</g>
<!-- HelperTrait&#45;&gt;Core_App -->
<g id="edge36" class="edge"><title>HelperTrait&#45;&gt;Core_App</title>
<path fill="none" stroke="black" d="M362.515,-1592.77C377.43,-1587.71 394.314,-1580.32 407.441,-1570 430.339,-1552 448.539,-1523.61 459.539,-1503.54"/>
<polygon fill="black" stroke="black" points="462.773,-1504.91 464.35,-1494.44 456.584,-1501.64 462.773,-1504.91"/>
</g>
<!-- HelperTrait&#45;&gt;Core_ExtendableStaticCallTrait -->
<g id="edge37" class="edge"><title>HelperTrait&#45;&gt;Core_ExtendableStaticCallTrait</title>
<path fill="none" stroke="black" d="M361.112,-1611.52C403.909,-1623.26 479.538,-1643.45 544.974,-1658 568.761,-1663.29 594.919,-1668.42 618.303,-1672.76"/>
<polygon fill="black" stroke="black" points="617.671,-1676.2 628.14,-1674.57 618.938,-1669.32 617.671,-1676.2"/>
</g>
<!-- Db_Db -->
<g id="node25" class="node"><title>Db_Db</title>
<polygon fill="lightgrey" stroke="black" points="1144.45,-542 1114.28,-524 1144.45,-506 1174.61,-524 1144.45,-542"/>
<polyline fill="none" stroke="black" points="1124.34,-530 1124.34,-518 "/>
<polyline fill="none" stroke="black" points="1134.39,-512 1154.5,-512 "/>
<polyline fill="none" stroke="black" points="1164.56,-518 1164.56,-530 "/>
<polyline fill="none" stroke="black" points="1154.5,-536 1134.39,-536 "/>
<text text-anchor="middle" x="1144.45" y="-520.3" font-family="Times,serif" font-size="14.00">Db</text>
</g>
<!-- Db_DbAdvanceTrait -->
<g id="node26" class="node"><title>Db_DbAdvanceTrait</title>
<polygon fill="none" stroke="black" points="1348.65,-542 1250.45,-524 1348.65,-506 1446.85,-524 1348.65,-542"/>
<polyline fill="none" stroke="black" points="1262.25,-526.164 1262.25,-521.836 "/>
<polyline fill="none" stroke="black" points="1336.85,-508.164 1360.45,-508.164 "/>
<polyline fill="none" stroke="black" points="1435.05,-521.836 1435.05,-526.164 "/>
<polyline fill="none" stroke="black" points="1360.45,-539.836 1336.85,-539.836 "/>
<text text-anchor="middle" x="1348.65" y="-520.3" font-family="Times,serif" font-size="14.00">DbAdvanceTrait</text>
</g>
<!-- Db_Db&#45;&gt;Db_DbAdvanceTrait -->
<g id="edge43" class="edge"><title>Db_Db&#45;&gt;Db_DbAdvanceTrait</title>
<path fill="none" stroke="black" d="M1174.85,-524C1192.39,-524 1215.86,-524 1239.83,-524"/>
<polygon fill="black" stroke="black" points="1240.12,-527.5 1250.12,-524 1240.12,-520.5 1240.12,-527.5"/>
</g>
<!-- Db_DbInterface -->
<g id="node27" class="node"><title>Db_DbInterface</title>
<polygon fill="none" stroke="black" points="1383.15,-596 1308.15,-596 1308.15,-560 1389.15,-560 1389.15,-590 1383.15,-596"/>
<polyline fill="none" stroke="black" points="1383.15,-596 1383.15,-590 "/>
<polyline fill="none" stroke="black" points="1389.15,-590 1383.15,-590 "/>
<text text-anchor="middle" x="1348.65" y="-574.3" font-family="Times,serif" font-size="14.00">DbInterface</text>
</g>
<!-- Db_Db&#45;&gt;Db_DbInterface -->
<g id="edge44" class="edge"><title>Db_Db&#45;&gt;Db_DbInterface</title>
<path fill="none" stroke="black" d="M1165.95,-529.475C1196.71,-537.691 1255.74,-553.455 1298.18,-564.788"/>
<polygon fill="black" stroke="black" points="1297.48,-568.223 1308.04,-567.422 1299.28,-561.46 1297.48,-568.223"/>
</g>
<!-- HttpServer -->
<g id="node28" class="node"><title>HttpServer</title>
<polygon fill="lightgrey" stroke="black" points="1144.45,-52 1074.73,-34 1144.45,-16 1214.16,-34 1144.45,-52"/>
<polyline fill="none" stroke="black" points="1086.35,-37.0001 1086.35,-30.9999 "/>
<polyline fill="none" stroke="black" points="1132.83,-19.0001 1156.06,-19.0001 "/>
<polyline fill="none" stroke="black" points="1202.54,-30.9999 1202.54,-37.0001 "/>
<polyline fill="none" stroke="black" points="1156.06,-48.9999 1132.83,-48.9999 "/>
<text text-anchor="middle" x="1144.45" y="-30.3" font-family="Times,serif" font-size="14.00">HttpServer</text>
</g>
<!-- Cache -->
<g id="node29" class="node"><title>Cache</title>
<polygon fill="none" stroke="black" points="981.089,-297 927.089,-297 927.089,-293 923.089,-293 923.089,-289 927.089,-289 927.089,-269 923.089,-269 923.089,-265 927.089,-265 927.089,-261 981.089,-261 981.089,-297"/>
<polyline fill="none" stroke="black" points="927.089,-293 931.089,-293 931.089,-289 927.089,-289 "/>
<polyline fill="none" stroke="black" points="927.089,-269 931.089,-269 931.089,-265 927.089,-265 "/>
<text text-anchor="middle" x="954.089" y="-275.3" font-family="Times,serif" font-size="14.00">Cache</text>
</g>
<!-- Cache&#45;&gt;Core_ComponentBase -->
<g id="edge45" class="edge"><title>Cache&#45;&gt;Core_ComponentBase</title>
<path fill="none" stroke="black" stroke-dasharray="1,5" d="M981.209,-280.123C1000.22,-282.434 1024.93,-288.831 1038.59,-306 1061.15,-334.364 1062.82,-594.952 1066.59,-631 1090.71,-861.571 1127.71,-1139.07 1139.61,-1226.92"/>
<polygon fill="black" stroke="black" points="1136.16,-1227.47 1140.97,-1236.91 1143.09,-1226.53 1136.16,-1227.47"/>
</g>
<!-- Console -->
<g id="node30" class="node"><title>Console</title>
<polygon fill="none" stroke="black" points="984.589,-135 923.589,-135 923.589,-131 919.589,-131 919.589,-127 923.589,-127 923.589,-107 919.589,-107 919.589,-103 923.589,-103 923.589,-99 984.589,-99 984.589,-135"/>
<polyline fill="none" stroke="black" points="923.589,-131 927.589,-131 927.589,-127 923.589,-127 "/>
<polyline fill="none" stroke="black" points="923.589,-107 927.589,-107 927.589,-103 923.589,-103 "/>
<text text-anchor="middle" x="954.089" y="-113.3" font-family="Times,serif" font-size="14.00">Console</text>
</g>
<!-- Console&#45;&gt;Core_ComponentBase -->
<g id="edge46" class="edge"><title>Console&#45;&gt;Core_ComponentBase</title>
<path fill="none" stroke="black" stroke-dasharray="1,5" d="M984.991,-118.485C1003.48,-121.105 1026.02,-127.723 1038.59,-144 1071.72,-186.893 1061.72,-577.019 1066.59,-631 1087.42,-861.891 1126.59,-1139.18 1139.33,-1226.95"/>
<polygon fill="black" stroke="black" points="1135.88,-1227.53 1140.78,-1236.92 1142.8,-1226.52 1135.88,-1227.53"/>
</g>
<!-- Console&#45;&gt;HttpServer -->
<g id="edge54" class="edge"><title>Console&#45;&gt;HttpServer</title>
<path fill="none" stroke="black" d="M984.935,-103.848C1018.5,-89.0575 1072.95,-65.0638 1108.48,-49.4071"/>
<polygon fill="black" stroke="black" points="1110.23,-52.4621 1117.97,-45.2268 1107.41,-46.0564 1110.23,-52.4621"/>
</g>
<!-- Installer -->
<g id="node33" class="node"><title>Installer</title>
<polygon fill="none" stroke="black" points="1174.95,-135 1113.95,-135 1113.95,-131 1109.95,-131 1109.95,-127 1113.95,-127 1113.95,-107 1109.95,-107 1109.95,-103 1113.95,-103 1113.95,-99 1174.95,-99 1174.95,-135"/>
<polyline fill="none" stroke="black" points="1113.95,-131 1117.95,-131 1117.95,-127 1113.95,-127 "/>
<polyline fill="none" stroke="black" points="1113.95,-107 1117.95,-107 1117.95,-103 1113.95,-103 "/>
<text text-anchor="middle" x="1144.45" y="-113.3" font-family="Times,serif" font-size="14.00">Installer</text>
</g>
<!-- Console&#45;&gt;Installer -->
<g id="edge53" class="edge"><title>Console&#45;&gt;Installer</title>
<path fill="none" stroke="black" d="M984.935,-117C1017.04,-117 1068.24,-117 1103.72,-117"/>
<polygon fill="black" stroke="black" points="1103.74,-120.5 1113.74,-117 1103.74,-113.5 1103.74,-120.5"/>
</g>
<!-- DbManager -->
<g id="node31" class="node"><title>DbManager</title>
<polygon fill="none" stroke="black" points="995.089,-243 913.089,-243 913.089,-239 909.089,-239 909.089,-235 913.089,-235 913.089,-215 909.089,-215 909.089,-211 913.089,-211 913.089,-207 995.089,-207 995.089,-243"/>
<polyline fill="none" stroke="black" points="913.089,-239 917.089,-239 917.089,-235 913.089,-235 "/>
<polyline fill="none" stroke="black" points="913.089,-215 917.089,-215 917.089,-211 913.089,-211 "/>
<text text-anchor="middle" x="954.089" y="-221.3" font-family="Times,serif" font-size="14.00">DbManager</text>
</g>
<!-- DbManager&#45;&gt;Core_ComponentBase -->
<g id="edge47" class="edge"><title>DbManager&#45;&gt;Core_ComponentBase</title>
<path fill="none" stroke="black" stroke-dasharray="1,5" d="M995.486,-228.47C1011.36,-231.983 1028.24,-238.821 1038.59,-252 1064.68,-285.205 1062.45,-588.977 1066.59,-631 1089.31,-861.714 1127.23,-1139.12 1139.49,-1226.93"/>
<polygon fill="black" stroke="black" points="1136.04,-1227.5 1140.89,-1236.91 1142.97,-1226.52 1136.04,-1227.5"/>
</g>
<!-- DbManager&#45;&gt;Db_Db -->
<g id="edge55" class="edge"><title>DbManager&#45;&gt;Db_Db</title>
<path fill="none" stroke="black" d="M995.221,-228.682C1011.05,-232.231 1027.97,-239.039 1038.59,-252 1107.23,-335.737 1000.47,-408.261 1066.59,-494 1076.85,-507.305 1093.84,-514.716 1109.25,-518.841"/>
<polygon fill="black" stroke="black" points="1108.52,-522.265 1119.05,-521.105 1110.1,-515.445 1108.52,-522.265"/>
</g>
<!-- EventManager -->
<g id="node32" class="node"><title>EventManager</title>
<polygon fill="none" stroke="black" points="1002.59,-459 905.589,-459 905.589,-455 901.589,-455 901.589,-451 905.589,-451 905.589,-431 901.589,-431 901.589,-427 905.589,-427 905.589,-423 1002.59,-423 1002.59,-459"/>
<polyline fill="none" stroke="black" points="905.589,-455 909.589,-455 909.589,-451 905.589,-451 "/>
<polyline fill="none" stroke="black" points="905.589,-431 909.589,-431 909.589,-427 905.589,-427 "/>
<text text-anchor="middle" x="954.089" y="-437.3" font-family="Times,serif" font-size="14.00">EventManager</text>
</g>
<!-- EventManager&#45;&gt;Core_ComponentBase -->
<g id="edge48" class="edge"><title>EventManager&#45;&gt;Core_ComponentBase</title>
<path fill="none" stroke="black" stroke-dasharray="1,5" d="M998.671,-459.221C1013.65,-467.635 1029.03,-479.121 1038.59,-494 1058.9,-525.615 1124.74,-1091.57 1140.18,-1226.36"/>
<polygon fill="black" stroke="black" points="1136.75,-1227.15 1141.36,-1236.68 1143.7,-1226.35 1136.75,-1227.15"/>
</g>
<!-- Installer&#45;&gt;Core_ComponentBase -->
<g id="edge49" class="edge"><title>Installer&#45;&gt;Core_ComponentBase</title>
<path fill="none" stroke="black" stroke-dasharray="1,5" d="M1113.87,-119.212C1091.99,-122.667 1064.41,-131.352 1052.59,-153 1027.62,-198.739 1048.84,-570.024 1052.59,-622 1069.59,-857.508 1121.72,-1138.49 1138.89,-1226.93"/>
<polygon fill="black" stroke="black" points="1135.5,-1227.83 1140.86,-1236.98 1142.37,-1226.49 1135.5,-1227.83"/>
</g>
<!-- Pager -->
<g id="node34" class="node"><title>Pager</title>
<polygon fill="none" stroke="black" points="981.089,-189 927.089,-189 927.089,-185 923.089,-185 923.089,-181 927.089,-181 927.089,-161 923.089,-161 923.089,-157 927.089,-157 927.089,-153 981.089,-153 981.089,-189"/>
<polyline fill="none" stroke="black" points="927.089,-185 931.089,-185 931.089,-181 927.089,-181 "/>
<polyline fill="none" stroke="black" points="927.089,-161 931.089,-161 931.089,-157 927.089,-157 "/>
<text text-anchor="middle" x="954.089" y="-167.3" font-family="Times,serif" font-size="14.00">Pager</text>
</g>
<!-- Pager&#45;&gt;Core_ComponentBase -->
<g id="edge50" class="edge"><title>Pager&#45;&gt;Core_ComponentBase</title>
<path fill="none" stroke="black" stroke-dasharray="1,5" d="M981.315,-164.642C1000.38,-165.307 1025.12,-171.686 1038.59,-189 1068.2,-227.048 1062.09,-573.999 1066.59,-622 1088.52,-855.684 1127.83,-1137.05 1139.86,-1226.46"/>
<polygon fill="black" stroke="black" points="1136.42,-1227.18 1141.21,-1236.63 1143.36,-1226.25 1136.42,-1227.18"/>
</g>
<!-- Pager&#45;&gt;Core_ComponentBase -->
<g id="edge60" class="edge"><title>Pager&#45;&gt;Core_ComponentBase</title>
<path fill="none" stroke="black" stroke-dasharray="1,5" d="M981.315,-179.438C1000.38,-183.307 1025.12,-189.686 1038.59,-207 1068.2,-245.048 1062.09,-591.999 1066.59,-640 1087.93,-867.425 1125.74,-1140.01 1138.83,-1227.03"/>
<polygon fill="black" stroke="black" points="1135.37,-1227.58 1140.34,-1236.94 1142.29,-1226.52 1135.37,-1227.58"/>
</g>
<!-- PagerInterface -->
<g id="node35" class="node"><title>PagerInterface</title>
<polygon fill="none" stroke="black" points="1185.95,-189 1096.95,-189 1096.95,-153 1191.95,-153 1191.95,-183 1185.95,-189"/>
<polyline fill="none" stroke="black" points="1185.95,-189 1185.95,-183 "/>
<polyline fill="none" stroke="black" points="1191.95,-183 1185.95,-183 "/>
<text text-anchor="middle" x="1144.45" y="-167.3" font-family="Times,serif" font-size="14.00">PagerInterface</text>
</g>
<!-- Pager&#45;&gt;PagerInterface -->
<g id="edge56" class="edge"><title>Pager&#45;&gt;PagerInterface</title>
<path fill="none" stroke="black" d="M981.279,-171C1008.42,-171 1051.69,-171 1086.71,-171"/>
<polygon fill="black" stroke="black" points="1086.82,-174.5 1096.82,-171 1086.82,-167.5 1086.82,-174.5"/>
</g>
<!-- RouteHookPathInfoCompat -->
<g id="node36" class="node"><title>RouteHookPathInfoCompat</title>
<polygon fill="none" stroke="black" points="1038.59,-405 869.589,-405 869.589,-401 865.589,-401 865.589,-397 869.589,-397 869.589,-377 865.589,-377 865.589,-373 869.589,-373 869.589,-369 1038.59,-369 1038.59,-405"/>
<polyline fill="none" stroke="black" points="869.589,-401 873.589,-401 873.589,-397 869.589,-397 "/>
<polyline fill="none" stroke="black" points="869.589,-377 873.589,-377 873.589,-373 869.589,-373 "/>
<text text-anchor="middle" x="954.089" y="-383.3" font-family="Times,serif" font-size="14.00">RouteHookPathInfoCompat</text>
</g>
<!-- RouteHookPathInfoCompat&#45;&gt;Core_ComponentBase -->
<g id="edge51" class="edge"><title>RouteHookPathInfoCompat&#45;&gt;Core_ComponentBase</title>
<path fill="none" stroke="black" stroke-dasharray="1,5" d="M1028.98,-405.008C1032.52,-407.616 1035.77,-410.595 1038.59,-414 1040.26,-416.018 1121.98,-1080.36 1139.97,-1226.71"/>
<polygon fill="black" stroke="black" points="1136.5,-1227.2 1141.2,-1236.7 1143.45,-1226.35 1136.5,-1227.2"/>
</g>
<!-- RouteHookRouteMap -->
<g id="node37" class="node"><title>RouteHookRouteMap</title>
<polygon fill="none" stroke="black" points="1022.59,-351 885.589,-351 885.589,-347 881.589,-347 881.589,-343 885.589,-343 885.589,-323 881.589,-323 881.589,-319 885.589,-319 885.589,-315 1022.59,-315 1022.59,-351"/>
<polyline fill="none" stroke="black" points="885.589,-347 889.589,-347 889.589,-343 885.589,-343 "/>
<polyline fill="none" stroke="black" points="885.589,-323 889.589,-323 889.589,-319 885.589,-319 "/>
<text text-anchor="middle" x="954.089" y="-329.3" font-family="Times,serif" font-size="14.00">RouteHookRouteMap</text>
</g>
<!-- RouteHookRouteMap&#45;&gt;Core_ComponentBase -->
<g id="edge52" class="edge"><title>RouteHookRouteMap&#45;&gt;Core_ComponentBase</title>
<path fill="none" stroke="black" stroke-dasharray="1,5" d="M1022.96,-346.93C1028.9,-350.381 1034.28,-354.671 1038.59,-360 1076.68,-407.057 1059.78,-570.842 1066.59,-631 1092.67,-861.357 1128.38,-1139 1139.79,-1226.9"/>
<polygon fill="black" stroke="black" points="1136.32,-1227.43 1141.08,-1236.89 1143.27,-1226.53 1136.32,-1227.43"/>
</g>
<!-- CallableView -->
<g id="node38" class="node"><title>CallableView</title>
<polygon fill="none" stroke="black" points="734.782,-1190 643.782,-1190 643.782,-1186 639.782,-1186 639.782,-1182 643.782,-1182 643.782,-1162 639.782,-1162 639.782,-1158 643.782,-1158 643.782,-1154 734.782,-1154 734.782,-1190"/>
<polyline fill="none" stroke="black" points="643.782,-1186 647.782,-1186 647.782,-1182 643.782,-1182 "/>
<polyline fill="none" stroke="black" points="643.782,-1162 647.782,-1162 647.782,-1158 643.782,-1158 "/>
<text text-anchor="middle" x="689.282" y="-1168.3" font-family="Times,serif" font-size="14.00">CallableView</text>
</g>
<!-- CallableView&#45;&gt;Core_View -->
<g id="edge68" class="edge"><title>CallableView&#45;&gt;Core_View</title>
<path fill="none" stroke="black" d="M734.863,-1186.08C786.27,-1202.32 869.766,-1228.68 917.186,-1243.66"/>
<polygon fill="black" stroke="black" points="916.143,-1247 926.733,-1246.68 918.251,-1240.33 916.143,-1247"/>
</g>
<!-- EmptyView -->
<g id="node39" class="node"><title>EmptyView</title>
<polygon fill="none" stroke="black" points="730.782,-1136 647.782,-1136 647.782,-1132 643.782,-1132 643.782,-1128 647.782,-1128 647.782,-1108 643.782,-1108 643.782,-1104 647.782,-1104 647.782,-1100 730.782,-1100 730.782,-1136"/>
<polyline fill="none" stroke="black" points="647.782,-1132 651.782,-1132 651.782,-1128 647.782,-1128 "/>
<polyline fill="none" stroke="black" points="647.782,-1108 651.782,-1108 651.782,-1104 647.782,-1104 "/>
<text text-anchor="middle" x="689.282" y="-1114.3" font-family="Times,serif" font-size="14.00">EmptyView</text>
</g>
<!-- EmptyView&#45;&gt;Core_View -->
<g id="edge69" class="edge"><title>EmptyView&#45;&gt;Core_View</title>
<path fill="none" stroke="black" d="M731.073,-1115.32C762.599,-1115.47 805.466,-1120.82 833.589,-1145 862.153,-1169.56 834.689,-1198.63 861.589,-1225 876.396,-1239.52 898.334,-1247.01 917.017,-1250.87"/>
<polygon fill="black" stroke="black" points="916.533,-1254.34 926.995,-1252.67 917.774,-1247.45 916.533,-1254.34"/>
</g>
<!-- FacadesAutoLoader -->
<g id="node40" class="node"><title>FacadesAutoLoader</title>
<polygon fill="none" stroke="black" points="1016.59,-1127 891.589,-1127 891.589,-1123 887.589,-1123 887.589,-1119 891.589,-1119 891.589,-1099 887.589,-1099 887.589,-1095 891.589,-1095 891.589,-1091 1016.59,-1091 1016.59,-1127"/>
<polyline fill="none" stroke="black" points="891.589,-1123 895.589,-1123 895.589,-1119 891.589,-1119 "/>
<polyline fill="none" stroke="black" points="891.589,-1099 895.589,-1099 895.589,-1095 891.589,-1095 "/>
<text text-anchor="middle" x="954.089" y="-1105.3" font-family="Times,serif" font-size="14.00">FacadesAutoLoader</text>
</g>
<!-- FacadesAutoLoader&#45;&gt;Core_ComponentBase -->
<g id="edge57" class="edge"><title>FacadesAutoLoader&#45;&gt;Core_ComponentBase</title>
<path fill="none" stroke="black" stroke-dasharray="1,5" d="M998.683,-1127.07C1012.02,-1133.46 1026.38,-1141.26 1038.59,-1150 1070.82,-1173.07 1102.18,-1206.34 1122.08,-1229.21"/>
<polygon fill="black" stroke="black" points="1119.46,-1231.53 1128.62,-1236.83 1124.77,-1226.97 1119.46,-1231.53"/>
</g>
<!-- FacadesBase -->
<g id="node41" class="node"><title>FacadesBase</title>
<polygon fill="none" stroke="black" points="732.282,-974 646.282,-974 646.282,-970 642.282,-970 642.282,-966 646.282,-966 646.282,-946 642.282,-946 642.282,-942 646.282,-942 646.282,-938 732.282,-938 732.282,-974"/>
<polyline fill="none" stroke="black" points="646.282,-970 650.282,-970 650.282,-966 646.282,-966 "/>
<polyline fill="none" stroke="black" points="646.282,-946 650.282,-946 650.282,-942 646.282,-942 "/>
<text text-anchor="middle" x="689.282" y="-952.3" font-family="Times,serif" font-size="14.00">FacadesBase</text>
</g>
<!-- FacadesBase&#45;&gt;Core_ComponentBase -->
<g id="edge71" class="edge"><title>FacadesBase&#45;&gt;Core_ComponentBase</title>
<path fill="none" stroke="black" stroke-dasharray="1,5" d="M732.284,-950.575C803.243,-943.796 947.963,-940.553 1038.59,-1011 1108.26,-1065.16 1132.36,-1174.71 1140.09,-1226.57"/>
<polygon fill="black" stroke="black" points="1136.66,-1227.29 1141.5,-1236.71 1143.59,-1226.33 1136.66,-1227.29"/>
</g>
<!-- FacadesBase&#45;&gt;FacadesAutoLoader -->
<g id="edge70" class="edge"><title>FacadesBase&#45;&gt;FacadesAutoLoader</title>
<path fill="none" stroke="black" d="M732.422,-953.27C763.846,-953.529 805.941,-959.043 833.589,-983 862.694,-1008.22 836.028,-1036.2 861.589,-1065 869.1,-1073.46 878.597,-1080.45 888.613,-1086.17"/>
<polygon fill="black" stroke="black" points="887.035,-1089.29 897.511,-1090.87 890.305,-1083.1 887.035,-1089.29"/>
</g>
<!-- JsonRpcClientBase -->
<g id="node42" class="node"><title>JsonRpcClientBase</title>
<polygon fill="none" stroke="black" points="750.282,-920 628.282,-920 628.282,-916 624.282,-916 624.282,-912 628.282,-912 628.282,-892 624.282,-892 624.282,-888 628.282,-888 628.282,-884 750.282,-884 750.282,-920"/>
<polyline fill="none" stroke="black" points="628.282,-916 632.282,-916 632.282,-912 628.282,-912 "/>
<polyline fill="none" stroke="black" points="628.282,-892 632.282,-892 632.282,-888 628.282,-888 "/>
<text text-anchor="middle" x="689.282" y="-898.3" font-family="Times,serif" font-size="14.00">JsonRpcClientBase</text>
</g>
<!-- JsonRpcClientBase&#45;&gt;Core_ComponentBase -->
<g id="edge73" class="edge"><title>JsonRpcClientBase&#45;&gt;Core_ComponentBase</title>
<path fill="none" stroke="black" stroke-dasharray="1,5" d="M750.303,-892.102C826.203,-883.153 956.822,-880.121 1038.59,-947 1125.62,-1018.18 1140.7,-1164.88 1143.11,-1226.62"/>
<polygon fill="black" stroke="black" points="1139.61,-1226.9 1143.42,-1236.79 1146.61,-1226.69 1139.61,-1226.9"/>
</g>
<!-- JsonRpcExt -->
<g id="node43" class="node"><title>JsonRpcExt</title>
<polygon fill="none" stroke="black" points="994.589,-1056 913.589,-1056 913.589,-1052 909.589,-1052 909.589,-1048 913.589,-1048 913.589,-1028 909.589,-1028 909.589,-1024 913.589,-1024 913.589,-1020 994.589,-1020 994.589,-1056"/>
<polyline fill="none" stroke="black" points="913.589,-1052 917.589,-1052 917.589,-1048 913.589,-1048 "/>
<polyline fill="none" stroke="black" points="913.589,-1028 917.589,-1028 917.589,-1024 913.589,-1024 "/>
<text text-anchor="middle" x="954.089" y="-1034.3" font-family="Times,serif" font-size="14.00">JsonRpcExt</text>
</g>
<!-- JsonRpcClientBase&#45;&gt;JsonRpcExt -->
<g id="edge72" class="edge"><title>JsonRpcClientBase&#45;&gt;JsonRpcExt</title>
<path fill="none" stroke="black" d="M750.511,-905.905C777.069,-909.469 807.991,-916.226 833.589,-929 873.719,-949.025 910.29,-986.49 932.122,-1011.84"/>
<polygon fill="black" stroke="black" points="929.554,-1014.22 938.679,-1019.61 934.903,-1009.71 929.554,-1014.22"/>
</g>
<!-- JsonRpcExt&#45;&gt;Core_ComponentBase -->
<g id="edge58" class="edge"><title>JsonRpcExt&#45;&gt;Core_ComponentBase</title>
<path fill="none" stroke="black" stroke-dasharray="1,5" d="M994.898,-1053.55C1009.77,-1060.68 1026.06,-1070.2 1038.59,-1082 1083.58,-1124.37 1116.26,-1190.22 1132.3,-1227.26"/>
<polygon fill="black" stroke="black" points="1129.26,-1229.06 1136.38,-1236.9 1135.7,-1226.33 1129.26,-1229.06"/>
</g>
<!-- JsonView -->
<g id="node44" class="node"><title>JsonView</title>
<polygon fill="none" stroke="black" points="724.282,-1082 654.282,-1082 654.282,-1078 650.282,-1078 650.282,-1074 654.282,-1074 654.282,-1054 650.282,-1054 650.282,-1050 654.282,-1050 654.282,-1046 724.282,-1046 724.282,-1082"/>
<polyline fill="none" stroke="black" points="654.282,-1078 658.282,-1078 658.282,-1074 654.282,-1074 "/>
<polyline fill="none" stroke="black" points="654.282,-1054 658.282,-1054 658.282,-1050 654.282,-1050 "/>
<text text-anchor="middle" x="689.282" y="-1060.3" font-family="Times,serif" font-size="14.00">JsonView</text>
</g>
<!-- JsonView&#45;&gt;Core_View -->
<g id="edge74" class="edge"><title>JsonView&#45;&gt;Core_View</title>
<path fill="none" stroke="black" d="M724.34,-1060.54C756.828,-1059.25 804.935,-1062.91 833.589,-1091 877.034,-1133.59 821.017,-1179.66 861.589,-1225 875.575,-1240.63 897.827,-1248.14 916.885,-1251.74"/>
<polygon fill="black" stroke="black" points="916.356,-1255.2 926.784,-1253.33 917.464,-1248.29 916.356,-1255.2"/>
</g>
<!-- Misc -->
<g id="node45" class="node"><title>Misc</title>
<polygon fill="none" stroke="black" points="716.282,-596 662.282,-596 662.282,-592 658.282,-592 658.282,-588 662.282,-588 662.282,-568 658.282,-568 658.282,-564 662.282,-564 662.282,-560 716.282,-560 716.282,-596"/>
<polyline fill="none" stroke="black" points="662.282,-592 666.282,-592 666.282,-588 662.282,-588 "/>
<polyline fill="none" stroke="black" points="662.282,-568 666.282,-568 666.282,-564 662.282,-564 "/>
<text text-anchor="middle" x="689.282" y="-574.3" font-family="Times,serif" font-size="14.00">Misc</text>
</g>
<!-- Misc&#45;&gt;Core_ComponentBase -->
<g id="edge59" class="edge"><title>Misc&#45;&gt;Core_ComponentBase</title>
<path fill="none" stroke="black" stroke-dasharray="1,5" d="M716.585,-575.7C782.146,-571.566 953.639,-570.86 1038.59,-666 1114.26,-750.741 1137.17,-1120.75 1142.24,-1226.61"/>
<polygon fill="black" stroke="black" points="1138.75,-1227.01 1142.71,-1236.83 1145.74,-1226.68 1138.75,-1227.01"/>
</g>
<!-- RedisManager -->
<g id="node46" class="node"><title>RedisManager</title>
<polygon fill="none" stroke="black" points="737.282,-542 641.282,-542 641.282,-538 637.282,-538 637.282,-534 641.282,-534 641.282,-514 637.282,-514 637.282,-510 641.282,-510 641.282,-506 737.282,-506 737.282,-542"/>
<polyline fill="none" stroke="black" points="641.282,-538 645.282,-538 645.282,-534 641.282,-534 "/>
<polyline fill="none" stroke="black" points="641.282,-514 645.282,-514 645.282,-510 641.282,-510 "/>
<text text-anchor="middle" x="689.282" y="-520.3" font-family="Times,serif" font-size="14.00">RedisManager</text>
</g>
<!-- RedisManager&#45;&gt;Core_ComponentBase -->
<g id="edge61" class="edge"><title>RedisManager&#45;&gt;Core_ComponentBase</title>
<path fill="none" stroke="black" stroke-dasharray="1,5" d="M737.357,-515.996C812.369,-506.196 958.682,-499.668 1038.59,-580 1085.22,-626.879 1130.18,-1104.36 1140.99,-1226.61"/>
<polygon fill="black" stroke="black" points="1137.52,-1227.03 1141.88,-1236.69 1144.49,-1226.42 1137.52,-1227.03"/>
</g>
<!-- RedisCache -->
<g id="node47" class="node"><title>RedisCache</title>
<polygon fill="none" stroke="black" points="729.782,-866 648.782,-866 648.782,-862 644.782,-862 644.782,-858 648.782,-858 648.782,-838 644.782,-838 644.782,-834 648.782,-834 648.782,-830 729.782,-830 729.782,-866"/>
<polyline fill="none" stroke="black" points="648.782,-862 652.782,-862 652.782,-858 648.782,-858 "/>
<polyline fill="none" stroke="black" points="648.782,-838 652.782,-838 652.782,-834 648.782,-834 "/>
<text text-anchor="middle" x="689.282" y="-844.3" font-family="Times,serif" font-size="14.00">RedisCache</text>
</g>
<!-- RedisCache&#45;&gt;Core_ComponentBase -->
<g id="edge62" class="edge"><title>RedisCache&#45;&gt;Core_ComponentBase</title>
<path fill="none" stroke="black" stroke-dasharray="1,5" d="M729.9,-839.315C800.778,-826.27 950.121,-810.448 1038.59,-885 1091.98,-929.995 1128.12,-1148.46 1139.56,-1226.89"/>
<polygon fill="black" stroke="black" points="1136.13,-1227.6 1141.01,-1237 1143.06,-1226.6 1136.13,-1227.6"/>
</g>
<!-- RouteHookApiServer -->
<g id="node48" class="node"><title>RouteHookApiServer</title>
<polygon fill="none" stroke="black" points="756.282,-812 622.282,-812 622.282,-808 618.282,-808 618.282,-804 622.282,-804 622.282,-784 618.282,-784 618.282,-780 622.282,-780 622.282,-776 756.282,-776 756.282,-812"/>
<polyline fill="none" stroke="black" points="622.282,-808 626.282,-808 626.282,-804 622.282,-804 "/>
<polyline fill="none" stroke="black" points="622.282,-784 626.282,-784 626.282,-780 622.282,-780 "/>
<text text-anchor="middle" x="689.282" y="-790.3" font-family="Times,serif" font-size="14.00">RouteHookApiServer</text>
</g>
<!-- RouteHookApiServer&#45;&gt;Core_ComponentBase -->
<g id="edge63" class="edge"><title>RouteHookApiServer&#45;&gt;Core_ComponentBase</title>
<path fill="none" stroke="black" stroke-dasharray="1,5" d="M756.325,-779.189C833.544,-766.048 960.68,-758.009 1038.59,-825 1100.54,-878.268 1131.92,-1139.75 1140.77,-1226.77"/>
<polygon fill="black" stroke="black" points="1137.31,-1227.35 1141.79,-1236.95 1144.28,-1226.65 1137.31,-1227.35"/>
</g>
<!-- RouteHookDirectoryMode -->
<g id="node49" class="node"><title>RouteHookDirectoryMode</title>
<polygon fill="none" stroke="black" points="770.782,-758 607.782,-758 607.782,-754 603.782,-754 603.782,-750 607.782,-750 607.782,-730 603.782,-730 603.782,-726 607.782,-726 607.782,-722 770.782,-722 770.782,-758"/>
<polyline fill="none" stroke="black" points="607.782,-754 611.782,-754 611.782,-750 607.782,-750 "/>
<polyline fill="none" stroke="black" points="607.782,-730 611.782,-730 611.782,-726 607.782,-726 "/>
<text text-anchor="middle" x="689.282" y="-736.3" font-family="Times,serif" font-size="14.00">RouteHookDirectoryMode</text>
</g>
<!-- RouteHookDirectoryMode&#45;&gt;Core_ComponentBase -->
<g id="edge64" class="edge"><title>RouteHookDirectoryMode&#45;&gt;Core_ComponentBase</title>
<path fill="none" stroke="black" stroke-dasharray="1,5" d="M771.077,-736.024C861.434,-733.375 1000.18,-735.264 1038.59,-769 1108.38,-830.297 1134.94,-1132.05 1141.62,-1226.61"/>
<polygon fill="black" stroke="black" points="1138.15,-1227.1 1142.33,-1236.84 1145.13,-1226.62 1138.15,-1227.1"/>
</g>
<!-- RouteHookManager -->
<g id="node50" class="node"><title>RouteHookManager</title>
<polygon fill="none" stroke="black" points="753.282,-704 625.282,-704 625.282,-700 621.282,-700 621.282,-696 625.282,-696 625.282,-676 621.282,-676 621.282,-672 625.282,-672 625.282,-668 753.282,-668 753.282,-704"/>
<polyline fill="none" stroke="black" points="625.282,-700 629.282,-700 629.282,-696 625.282,-696 "/>
<polyline fill="none" stroke="black" points="625.282,-676 629.282,-676 629.282,-672 625.282,-672 "/>
<text text-anchor="middle" x="689.282" y="-682.3" font-family="Times,serif" font-size="14.00">RouteHookManager</text>
</g>
<!-- RouteHookManager&#45;&gt;Core_ComponentBase -->
<g id="edge65" class="edge"><title>RouteHookManager&#45;&gt;Core_ComponentBase</title>
<path fill="none" stroke="black" stroke-dasharray="1,5" d="M753.429,-674.457C831.082,-664.199 961.978,-660.326 1038.59,-732 1111.92,-800.604 1136.26,-1128.31 1141.98,-1226.89"/>
<polygon fill="black" stroke="black" points="1138.5,-1227.19 1142.55,-1236.98 1145.49,-1226.8 1138.5,-1227.19"/>
</g>
<!-- RouteHookRewrite -->
<g id="node51" class="node"><title>RouteHookRewrite</title>
<polygon fill="none" stroke="black" points="750.282,-1028 628.282,-1028 628.282,-1024 624.282,-1024 624.282,-1020 628.282,-1020 628.282,-1000 624.282,-1000 624.282,-996 628.282,-996 628.282,-992 750.282,-992 750.282,-1028"/>
<polyline fill="none" stroke="black" points="628.282,-1024 632.282,-1024 632.282,-1020 628.282,-1020 "/>
<polyline fill="none" stroke="black" points="628.282,-1000 632.282,-1000 632.282,-996 628.282,-996 "/>
<text text-anchor="middle" x="689.282" y="-1006.3" font-family="Times,serif" font-size="14.00">RouteHookRewrite</text>
</g>
<!-- RouteHookRewrite&#45;&gt;Core_ComponentBase -->
<g id="edge66" class="edge"><title>RouteHookRewrite&#45;&gt;Core_ComponentBase</title>
<path fill="none" stroke="black" stroke-dasharray="1,5" d="M750.366,-1006.66C779.164,-1008.35 812.002,-1015.62 833.589,-1037 878.988,-1081.96 818.036,-1131.26 861.589,-1178 865.421,-1182.11 999.131,-1217.46 1080.99,-1238.81"/>
<polygon fill="black" stroke="black" points="1080.14,-1242.2 1090.7,-1241.34 1081.91,-1235.43 1080.14,-1242.2"/>
</g>
<!-- StrictCheck -->
<g id="node52" class="node"><title>StrictCheck</title>
<polygon fill="none" stroke="black" points="729.282,-650 649.282,-650 649.282,-646 645.282,-646 645.282,-642 649.282,-642 649.282,-622 645.282,-622 645.282,-618 649.282,-618 649.282,-614 729.282,-614 729.282,-650"/>
<polyline fill="none" stroke="black" points="649.282,-646 653.282,-646 653.282,-642 649.282,-642 "/>
<polyline fill="none" stroke="black" points="649.282,-622 653.282,-622 653.282,-618 649.282,-618 "/>
<text text-anchor="middle" x="689.282" y="-628.3" font-family="Times,serif" font-size="14.00">StrictCheck</text>
</g>
<!-- StrictCheck&#45;&gt;Core_ComponentBase -->
<g id="edge67" class="edge"><title>StrictCheck&#45;&gt;Core_ComponentBase</title>
<path fill="none" stroke="black" stroke-dasharray="1,5" d="M729.433,-627.443C762.413,-626.008 808.168,-630.109 833.589,-659 903.732,-738.716 793.329,-1054.67 861.589,-1136 913.565,-1197.93 965.207,-1144.06 1038.59,-1178 1067.24,-1191.25 1095.85,-1212.98 1115.94,-1229.98"/>
<polygon fill="black" stroke="black" points="1113.87,-1232.82 1123.73,-1236.71 1118.44,-1227.52 1113.87,-1232.82"/>
</g>
<!-- StrictCheck&#45;&gt;DbManager -->
<g id="edge75" class="edge"><title>StrictCheck&#45;&gt;DbManager</title>
<path fill="none" stroke="black" d="M729.286,-636.427C762.173,-637.779 807.873,-633.628 833.589,-605 886.175,-546.46 812.017,-313.113 861.589,-252 871.689,-239.549 887.233,-232.654 902.66,-228.893"/>
<polygon fill="black" stroke="black" points="903.62,-232.269 912.722,-226.847 902.225,-225.41 903.62,-232.269"/>
</g>
<!-- DuckPhp -->
<g id="node53" class="node"><title>DuckPhp</title>
<polygon fill="lightgrey" stroke="black" points="325.909,-326 264.242,-308 325.909,-290 387.576,-308 325.909,-326"/>
<polyline fill="none" stroke="black" points="275.761,-311.362 275.761,-304.638 "/>
<polyline fill="none" stroke="black" points="314.39,-293.362 337.428,-293.362 "/>
<polyline fill="none" stroke="black" points="376.057,-304.638 376.057,-311.362 "/>
<polyline fill="none" stroke="black" points="337.428,-322.638 314.39,-322.638 "/>
<text text-anchor="middle" x="325.909" y="-304.3" font-family="Times,serif" font-size="14.00">DuckPhp</text>
</g>
<!-- DuckPhp&#45;&gt;Core_App -->
<g id="edge76" class="edge"><title>DuckPhp&#45;&gt;Core_App</title>
<path fill="none" stroke="black" d="M329.061,-325.477C345.271,-457.14 448.131,-1292.57 467.917,-1453.28"/>
<polygon fill="black" stroke="black" points="464.452,-1453.77 469.148,-1463.27 471.399,-1452.92 464.452,-1453.77"/>
</g>
<!-- DuckPhp&#45;&gt;Cache -->
<g id="edge82" class="edge"><title>DuckPhp&#45;&gt;Cache</title>
<path fill="none" stroke="black" d="M379.488,-305.565C503.44,-299.824 811.427,-285.561 916.947,-280.674"/>
<polygon fill="black" stroke="black" points="917.259,-284.163 927.086,-280.204 916.935,-277.171 917.259,-284.163"/>
</g>
<!-- DuckPhp&#45;&gt;Console -->
<g id="edge83" class="edge"><title>DuckPhp&#45;&gt;Console</title>
<path fill="none" stroke="black" d="M345.554,-295.733C365.547,-282.717 398.349,-261.758 427.441,-245 478.617,-215.521 488.967,-201.739 544.974,-183 675.21,-139.426 838.753,-124.118 913.059,-119.165"/>
<polygon fill="black" stroke="black" points="913.603,-122.637 923.36,-118.507 913.157,-115.652 913.603,-122.637"/>
</g>
<!-- DuckPhp&#45;&gt;DbManager -->
<g id="edge79" class="edge"><title>DuckPhp&#45;&gt;DbManager</title>
<path fill="none" stroke="black" d="M368.967,-302.425C480.342,-287.663 782.602,-247.598 902.806,-231.665"/>
<polygon fill="black" stroke="black" points="903.39,-235.118 912.843,-230.335 902.47,-228.179 903.39,-235.118"/>
</g>
<!-- DuckPhp&#45;&gt;EventManager -->
<g id="edge80" class="edge"><title>DuckPhp&#45;&gt;EventManager</title>
<path fill="none" stroke="black" d="M350.912,-318.756C371.049,-327.485 400.721,-339.669 427.441,-348 593.002,-399.621 797.385,-425.467 895.373,-435.637"/>
<polygon fill="black" stroke="black" points="895.066,-439.124 905.37,-436.658 895.777,-432.16 895.066,-439.124"/>
</g>
<!-- DuckPhp&#45;&gt;Pager -->
<g id="edge78" class="edge"><title>DuckPhp&#45;&gt;Pager</title>
<path fill="none" stroke="black" d="M353.739,-297.965C394.529,-283.034 474.819,-254.92 544.974,-238 680.414,-205.334 845.003,-183.695 916.742,-175.134"/>
<polygon fill="black" stroke="black" points="917.518,-178.567 927.039,-173.919 916.698,-171.615 917.518,-178.567"/>
</g>
<!-- DuckPhp&#45;&gt;RouteHookPathInfoCompat -->
<g id="edge81" class="edge"><title>DuckPhp&#45;&gt;RouteHookPathInfoCompat</title>
<path fill="none" stroke="black" d="M361.674,-315.67C380.976,-319.738 405.46,-324.586 427.441,-328 577.984,-351.38 754.16,-369.235 859.526,-378.907"/>
<polygon fill="black" stroke="black" points="859.221,-382.394 869.498,-379.818 859.858,-375.423 859.221,-382.394"/>
</g>
<!-- DuckPhp&#45;&gt;RouteHookRouteMap -->
<g id="edge77" class="edge"><title>DuckPhp&#45;&gt;RouteHookRouteMap</title>
<path fill="none" stroke="black" d="M380.297,-310.131C491.017,-314.552 746.05,-324.734 875.167,-329.889"/>
<polygon fill="black" stroke="black" points="875.243,-333.395 885.375,-330.297 875.523,-326.4 875.243,-333.395"/>
</g>
<!-- ThrowOn -->
<g id="node54" class="node"><title>ThrowOn</title>
<polygon fill="lightgrey" stroke="black" points="116.188,-1713 52.8443,-1695 116.188,-1677 179.532,-1695 116.188,-1713"/>
<polyline fill="none" stroke="black" points="64.3873,-1698.28 64.3873,-1691.72 "/>
<polyline fill="none" stroke="black" points="104.645,-1680.28 127.731,-1680.28 "/>
<polyline fill="none" stroke="black" points="167.989,-1691.72 167.989,-1698.28 "/>
<polyline fill="none" stroke="black" points="127.731,-1709.72 104.645,-1709.72 "/>
<text text-anchor="middle" x="116.188" y="-1691.3" font-family="Times,serif" font-size="14.00">ThrowOn</text>
</g>
</g>
</svg>
