<?xml version="1.0" encoding="UTF-8" standalone="no"?>
<!DOCTYPE svg PUBLIC "-//W3C//DTD SVG 1.1//EN"
 "http://www.w3.org/Graphics/SVG/1.1/DTD/svg11.dtd">
<!-- Generated by graphviz version 2.38.0 (20140413.2041)
 -->
<!-- Title: G Pages: 1 -->
<svg width="1206pt" height="1304pt"
 viewBox="0.00 0.00 1206.41 1303.76" xmlns="http://www.w3.org/2000/svg" xmlns:xlink="http://www.w3.org/1999/xlink">
<g id="graph0" class="graph" transform="scale(1 1) rotate(0) translate(4 1299.76)">
<title>G</title>
<polygon fill="white" stroke="none" points="-4,4 -4,-1299.76 1202.41,-1299.76 1202.41,4 -4,4"/>
<g id="clust1" class="cluster"><title>cluster_Core</title>
<path fill="none" stroke="black" d="M444.956,-834.756C444.956,-834.756 999.424,-834.756 999.424,-834.756 1005.42,-834.756 1011.42,-840.756 1011.42,-846.756 1011.42,-846.756 1011.42,-1275.76 1011.42,-1275.76 1011.42,-1281.76 1005.42,-1287.76 999.424,-1287.76 999.424,-1287.76 444.956,-1287.76 444.956,-1287.76 438.956,-1287.76 432.956,-1281.76 432.956,-1275.76 432.956,-1275.76 432.956,-846.756 432.956,-846.756 432.956,-840.756 438.956,-834.756 444.956,-834.756"/>
<text text-anchor="middle" x="722.19" y="-1272.56" font-family="Times,serif" font-size="14.00">[DuckPhp\Core]</text>
</g>
<g id="clust2" class="cluster"><title>cluster_Helper</title>
<polygon fill="none" stroke="black" points="8,-990.756 8,-1281.76 388.662,-1281.76 388.662,-990.756 8,-990.756"/>
<text text-anchor="middle" x="198.331" y="-1266.56" font-family="Times,serif" font-size="14.00">[DuckPhp\Helper]</text>
</g>
<g id="clust3" class="cluster"><title>cluster_DB</title>
<polygon fill="none" stroke="black" points="908.424,-8.75612 908.424,-137.756 1190.41,-137.756 1190.41,-8.75612 908.424,-8.75612"/>
<text text-anchor="middle" x="1049.42" y="-122.556" font-family="Times,serif" font-size="14.00">[DuckPhp\DB]</text>
</g>
<g id="clust4" class="cluster"><title>cluster_Ext</title>
<polygon fill="none" stroke="black" points="434.649,-35.7561 434.649,-812.756 815.883,-812.756 815.883,-35.7561 434.649,-35.7561"/>
<text text-anchor="middle" x="625.266" y="-797.556" font-family="Times,serif" font-size="14.00">[DuckPhp\Ext]</text>
</g>
<g id="clust5" class="cluster"><title>cluster_DuckPhp</title>
<polygon fill="none" stroke="black" points="244.376,-745.756 244.376,-982.756 412.956,-982.756 412.956,-745.756 244.376,-745.756"/>
<text text-anchor="middle" x="328.666" y="-967.556" font-family="Times,serif" font-size="14.00">[DuckPhp]</text>
</g>
<!-- SingletonEx -->
<g id="node1" class="node"><title>SingletonEx</title>
<polygon fill="lightgrey" stroke="black" points="328.666,-897.756 252.586,-879.756 328.666,-861.756 404.747,-879.756 328.666,-897.756"/>
<polyline fill="none" stroke="black" points="264.263,-882.519 264.263,-876.993 "/>
<polyline fill="none" stroke="black" points="316.989,-864.519 340.344,-864.519 "/>
<polyline fill="none" stroke="black" points="393.069,-876.993 393.069,-882.519 "/>
<polyline fill="none" stroke="black" points="340.344,-894.993 316.989,-894.993 "/>
<text text-anchor="middle" x="328.666" y="-876.056" font-family="Times,serif" font-size="14.00">SingletonEx</text>
</g>
<!-- Core_SingletonEx -->
<g id="node5" class="node"><title>Core_SingletonEx</title>
<polygon fill="none" stroke="black" points="524.149,-1002.76 448.068,-984.756 524.149,-966.756 600.23,-984.756 524.149,-1002.76"/>
<polyline fill="none" stroke="black" points="459.746,-987.519 459.746,-981.993 "/>
<polyline fill="none" stroke="black" points="512.471,-969.519 535.827,-969.519 "/>
<polyline fill="none" stroke="black" points="588.552,-981.993 588.552,-987.519 "/>
<polyline fill="none" stroke="black" points="535.827,-999.993 512.471,-999.993 "/>
<text text-anchor="middle" x="524.149" y="-981.056" font-family="Times,serif" font-size="14.00">SingletonEx</text>
</g>
<!-- SingletonEx&#45;&gt;Core_SingletonEx -->
<g id="edge52" class="edge"><title>SingletonEx&#45;&gt;Core_SingletonEx</title>
<path fill="none" stroke="black" d="M375.448,-886.869C388.857,-890.852 402.664,-897.065 412.956,-906.756 430.683,-923.446 415.042,-941.268 432.956,-957.756 441.788,-965.885 452.975,-971.572 464.439,-975.549"/>
<polygon fill="black" stroke="black" points="463.502,-978.922 474.088,-978.504 465.551,-972.229 463.502,-978.922"/>
</g>
<!-- Core_AppPluginTrait -->
<g id="node2" class="node"><title>Core_AppPluginTrait</title>
<polygon fill="none" stroke="black" points="745.383,-974.756 652.713,-956.756 745.383,-938.756 838.053,-956.756 745.383,-974.756"/>
<polyline fill="none" stroke="black" points="664.492,-959.044 664.492,-954.468 "/>
<polyline fill="none" stroke="black" points="733.603,-941.044 757.162,-941.044 "/>
<polyline fill="none" stroke="black" points="826.273,-954.468 826.273,-959.044 "/>
<polyline fill="none" stroke="black" points="757.162,-972.468 733.603,-972.468 "/>
<text text-anchor="middle" x="745.383" y="-953.056" font-family="Times,serif" font-size="14.00">AppPluginTrait</text>
</g>
<!-- Core_AutoLoader -->
<g id="node6" class="node"><title>Core_AutoLoader</title>
<polygon fill="none" stroke="black" points="984.424,-1040.76 902.424,-1040.76 902.424,-1036.76 898.424,-1036.76 898.424,-1032.76 902.424,-1032.76 902.424,-1012.76 898.424,-1012.76 898.424,-1008.76 902.424,-1008.76 902.424,-1004.76 984.424,-1004.76 984.424,-1040.76"/>
<polyline fill="none" stroke="black" points="902.424,-1036.76 906.424,-1036.76 906.424,-1032.76 902.424,-1032.76 "/>
<polyline fill="none" stroke="black" points="902.424,-1012.76 906.424,-1012.76 906.424,-1008.76 902.424,-1008.76 "/>
<text text-anchor="middle" x="943.424" y="-1019.06" font-family="Times,serif" font-size="14.00">AutoLoader</text>
</g>
<!-- Core_AppPluginTrait&#45;&gt;Core_AutoLoader -->
<g id="edge21" class="edge"><title>Core_AppPluginTrait&#45;&gt;Core_AutoLoader</title>
<path fill="none" stroke="black" d="M780.083,-968.102C811.104,-978.545 857.512,-994.169 892.774,-1006.04"/>
<polygon fill="black" stroke="black" points="891.809,-1009.41 902.403,-1009.28 894.042,-1002.77 891.809,-1009.41"/>
</g>
<!-- Core_View -->
<g id="node8" class="node"><title>Core_View</title>
<polygon fill="none" stroke="black" points="970.424,-878.756 916.424,-878.756 916.424,-874.756 912.424,-874.756 912.424,-870.756 916.424,-870.756 916.424,-850.756 912.424,-850.756 912.424,-846.756 916.424,-846.756 916.424,-842.756 970.424,-842.756 970.424,-878.756"/>
<polyline fill="none" stroke="black" points="916.424,-874.756 920.424,-874.756 920.424,-870.756 916.424,-870.756 "/>
<polyline fill="none" stroke="black" points="916.424,-850.756 920.424,-850.756 920.424,-846.756 916.424,-846.756 "/>
<text text-anchor="middle" x="943.424" y="-857.056" font-family="Times,serif" font-size="14.00">View</text>
</g>
<!-- Core_AppPluginTrait&#45;&gt;Core_View -->
<g id="edge23" class="edge"><title>Core_AppPluginTrait&#45;&gt;Core_View</title>
<path fill="none" stroke="black" d="M775.114,-944.432C795.57,-935.407 823.55,-922.55 847.424,-909.756 863.951,-900.899 866.869,-896.562 883.424,-887.756 890.918,-883.769 899.113,-879.79 906.946,-876.16"/>
<polygon fill="black" stroke="black" points="908.598,-879.254 916.251,-871.927 905.699,-872.882 908.598,-879.254"/>
</g>
<!-- Core_Configer -->
<g id="node9" class="node"><title>Core_Configer</title>
<polygon fill="none" stroke="black" points="975.924,-932.756 910.924,-932.756 910.924,-928.756 906.924,-928.756 906.924,-924.756 910.924,-924.756 910.924,-904.756 906.924,-904.756 906.924,-900.756 910.924,-900.756 910.924,-896.756 975.924,-896.756 975.924,-932.756"/>
<polyline fill="none" stroke="black" points="910.924,-928.756 914.924,-928.756 914.924,-924.756 910.924,-924.756 "/>
<polyline fill="none" stroke="black" points="910.924,-904.756 914.924,-904.756 914.924,-900.756 910.924,-900.756 "/>
<text text-anchor="middle" x="943.424" y="-911.056" font-family="Times,serif" font-size="14.00">Configer</text>
</g>
<!-- Core_AppPluginTrait&#45;&gt;Core_Configer -->
<g id="edge22" class="edge"><title>Core_AppPluginTrait&#45;&gt;Core_Configer</title>
<path fill="none" stroke="black" d="M790.378,-947.33C823.382,-940.26 868.27,-930.643 900.709,-923.693"/>
<polygon fill="black" stroke="black" points="901.728,-927.054 910.773,-921.537 900.262,-920.21 901.728,-927.054"/>
</g>
<!-- Core_Route -->
<g id="node11" class="node"><title>Core_Route</title>
<polygon fill="none" stroke="black" points="943.424,-1094.76 898.346,-1076.76 943.424,-1058.76 988.501,-1076.76 943.424,-1094.76"/>
<polyline fill="none" stroke="black" points="909.49,-1081.21 909.49,-1072.31 "/>
<polyline fill="none" stroke="black" points="932.279,-1063.21 954.568,-1063.21 "/>
<polyline fill="none" stroke="black" points="977.357,-1072.31 977.357,-1081.21 "/>
<polyline fill="none" stroke="black" points="954.568,-1090.31 932.279,-1090.31 "/>
<text text-anchor="middle" x="943.424" y="-1073.06" font-family="Times,serif" font-size="14.00">Route</text>
</g>
<!-- Core_AppPluginTrait&#45;&gt;Core_Route -->
<g id="edge24" class="edge"><title>Core_AppPluginTrait&#45;&gt;Core_Route</title>
<path fill="none" stroke="black" d="M767.838,-970.628C788.406,-984.009 820.253,-1004.95 847.424,-1023.76 863.651,-1034.99 866.368,-1039.82 883.424,-1049.76 892.165,-1054.85 902.035,-1059.69 911.164,-1063.83"/>
<polygon fill="black" stroke="black" points="909.77,-1067.04 920.333,-1067.87 912.595,-1060.64 909.77,-1067.04"/>
</g>
<!-- Core_SuperGlobal -->
<g id="node15" class="node"><title>Core_SuperGlobal</title>
<polygon fill="none" stroke="black" points="985.924,-986.756 900.924,-986.756 900.924,-982.756 896.924,-982.756 896.924,-978.756 900.924,-978.756 900.924,-958.756 896.924,-958.756 896.924,-954.756 900.924,-954.756 900.924,-950.756 985.924,-950.756 985.924,-986.756"/>
<polyline fill="none" stroke="black" points="900.924,-982.756 904.924,-982.756 904.924,-978.756 900.924,-978.756 "/>
<polyline fill="none" stroke="black" points="900.924,-958.756 904.924,-958.756 904.924,-954.756 900.924,-954.756 "/>
<text text-anchor="middle" x="943.424" y="-965.056" font-family="Times,serif" font-size="14.00">SuperGlobal</text>
</g>
<!-- Core_AppPluginTrait&#45;&gt;Core_SuperGlobal -->
<g id="edge25" class="edge"><title>Core_AppPluginTrait&#45;&gt;Core_SuperGlobal</title>
<path fill="none" stroke="black" d="M816.328,-961.038C840.834,-962.538 867.898,-964.194 890.65,-965.587"/>
<polygon fill="black" stroke="black" points="890.58,-969.089 900.775,-966.207 891.007,-962.102 890.58,-969.089"/>
</g>
<!-- Core_App -->
<g id="node3" class="node"><title>Core_App</title>
<polygon fill="none" stroke="black" points="524.149,-1110.76 487.615,-1092.76 524.149,-1074.76 560.683,-1092.76 524.149,-1110.76"/>
<polyline fill="none" stroke="black" points="498.379,-1098.06 498.379,-1087.45 "/>
<polyline fill="none" stroke="black" points="513.385,-1080.06 534.913,-1080.06 "/>
<polyline fill="none" stroke="black" points="549.919,-1087.45 549.919,-1098.06 "/>
<polyline fill="none" stroke="black" points="534.913,-1105.45 513.385,-1105.45 "/>
<text text-anchor="middle" x="524.149" y="-1089.06" font-family="Times,serif" font-size="14.00">App</text>
</g>
<!-- Core_Kernel -->
<g id="node4" class="node"><title>Core_Kernel</title>
<ellipse fill="none" stroke="black" cx="745.383" cy="-1050.76" rx="34.394" ry="18"/>
<text text-anchor="middle" x="745.383" y="-1047.06" font-family="Times,serif" font-size="14.00">Kernel</text>
</g>
<!-- Core_App&#45;&gt;Core_Kernel -->
<g id="edge9" class="edge"><title>Core_App&#45;&gt;Core_Kernel</title>
<path fill="none" stroke="black" d="M551.159,-1087.77C588.62,-1080.6 658.153,-1067.28 702.794,-1058.72"/>
<polygon fill="black" stroke="black" points="703.583,-1062.14 712.746,-1056.82 702.266,-1055.26 703.583,-1062.14"/>
</g>
<!-- Core_App&#45;&gt;Core_AutoLoader -->
<g id="edge13" class="edge"><title>Core_App&#45;&gt;Core_AutoLoader</title>
<path fill="none" stroke="black" stroke-dasharray="1,5" d="M551.207,-1088.01C568.23,-1084.03 590.366,-1077.12 607.342,-1065.76 627.774,-1052.08 621.023,-1034.07 643.342,-1023.76 686.079,-1004.01 818.33,-1011.74 891.842,-1017.92"/>
<polygon fill="black" stroke="black" points="891.981,-1021.45 902.245,-1018.82 892.583,-1014.47 891.981,-1021.45"/>
</g>
<!-- Core_ExceptionManager -->
<g id="node7" class="node"><title>Core_ExceptionManager</title>
<polygon fill="none" stroke="black" points="1003.42,-1148.76 883.424,-1148.76 883.424,-1144.76 879.424,-1144.76 879.424,-1140.76 883.424,-1140.76 883.424,-1120.76 879.424,-1120.76 879.424,-1116.76 883.424,-1116.76 883.424,-1112.76 1003.42,-1112.76 1003.42,-1148.76"/>
<polyline fill="none" stroke="black" points="883.424,-1144.76 887.424,-1144.76 887.424,-1140.76 883.424,-1140.76 "/>
<polyline fill="none" stroke="black" points="883.424,-1120.76 887.424,-1120.76 887.424,-1116.76 883.424,-1116.76 "/>
<text text-anchor="middle" x="943.424" y="-1127.06" font-family="Times,serif" font-size="14.00">ExceptionManager</text>
</g>
<!-- Core_App&#45;&gt;Core_ExceptionManager -->
<g id="edge16" class="edge"><title>Core_App&#45;&gt;Core_ExceptionManager</title>
<path fill="none" stroke="black" stroke-dasharray="1,5" d="M555.158,-1095.49C621.261,-1101.51 780.88,-1116.04 873.242,-1124.46"/>
<polygon fill="black" stroke="black" points="873.061,-1127.95 883.337,-1125.38 873.696,-1120.98 873.061,-1127.95"/>
</g>
<!-- Core_App&#45;&gt;Core_View -->
<g id="edge19" class="edge"><title>Core_App&#45;&gt;Core_View</title>
<path fill="none" stroke="black" stroke-dasharray="1,5" d="M556.015,-1090.32C573.595,-1087.27 594.591,-1080.54 607.342,-1065.76 669.181,-994.042 570.946,-916.797 643.342,-855.756 682.049,-823.119 835.306,-843.101 906.155,-854.479"/>
<polygon fill="black" stroke="black" points="905.954,-857.992 916.388,-856.155 907.085,-851.084 905.954,-857.992"/>
</g>
<!-- Core_App&#45;&gt;Core_Configer -->
<g id="edge14" class="edge"><title>Core_App&#45;&gt;Core_Configer</title>
<path fill="none" stroke="black" stroke-dasharray="1,5" d="M555.145,-1089.97C572.636,-1086.81 593.842,-1080.07 607.342,-1065.76 650.24,-1020.27 594.765,-969.124 643.342,-929.756 662.823,-913.968 822.801,-913.457 900.451,-914.164"/>
<polygon fill="black" stroke="black" points="900.802,-917.668 910.838,-914.27 900.874,-910.668 900.802,-917.668"/>
</g>
<!-- Core_Logger -->
<g id="node10" class="node"><title>Core_Logger</title>
<polygon fill="none" stroke="black" points="971.424,-1202.76 915.424,-1202.76 915.424,-1198.76 911.424,-1198.76 911.424,-1194.76 915.424,-1194.76 915.424,-1174.76 911.424,-1174.76 911.424,-1170.76 915.424,-1170.76 915.424,-1166.76 971.424,-1166.76 971.424,-1202.76"/>
<polyline fill="none" stroke="black" points="915.424,-1198.76 919.424,-1198.76 919.424,-1194.76 915.424,-1194.76 "/>
<polyline fill="none" stroke="black" points="915.424,-1174.76 919.424,-1174.76 919.424,-1170.76 915.424,-1170.76 "/>
<text text-anchor="middle" x="943.424" y="-1181.06" font-family="Times,serif" font-size="14.00">Logger</text>
</g>
<!-- Core_App&#45;&gt;Core_Logger -->
<g id="edge15" class="edge"><title>Core_App&#45;&gt;Core_Logger</title>
<path fill="none" stroke="black" stroke-dasharray="1,5" d="M548.533,-1098.8C572.261,-1104.72 610.127,-1113.58 643.342,-1118.76 733.349,-1132.79 760.396,-1110.84 847.424,-1137.76 864.91,-1143.16 867.089,-1149.5 883.424,-1157.76 890.633,-1161.4 898.434,-1165.12 905.929,-1168.59"/>
<polygon fill="black" stroke="black" points="904.641,-1171.85 915.191,-1172.83 907.552,-1165.49 904.641,-1171.85"/>
</g>
<!-- Core_App&#45;&gt;Core_Route -->
<g id="edge17" class="edge"><title>Core_App&#45;&gt;Core_Route</title>
<path fill="none" stroke="black" stroke-dasharray="1,5" d="M558.241,-1091.49C631.037,-1088.7 805.458,-1082.01 891.984,-1078.69"/>
<polygon fill="black" stroke="black" points="892.228,-1082.18 902.087,-1078.3 891.96,-1075.19 892.228,-1082.18"/>
</g>
<!-- Core_RuntimeState -->
<g id="node12" class="node"><title>Core_RuntimeState</title>
<polygon fill="none" stroke="black" points="988.924,-1256.76 897.924,-1256.76 897.924,-1252.76 893.924,-1252.76 893.924,-1248.76 897.924,-1248.76 897.924,-1228.76 893.924,-1228.76 893.924,-1224.76 897.924,-1224.76 897.924,-1220.76 988.924,-1220.76 988.924,-1256.76"/>
<polyline fill="none" stroke="black" points="897.924,-1252.76 901.924,-1252.76 901.924,-1248.76 897.924,-1248.76 "/>
<polyline fill="none" stroke="black" points="897.924,-1228.76 901.924,-1228.76 901.924,-1224.76 897.924,-1224.76 "/>
<text text-anchor="middle" x="943.424" y="-1235.06" font-family="Times,serif" font-size="14.00">RuntimeState</text>
</g>
<!-- Core_App&#45;&gt;Core_RuntimeState -->
<g id="edge18" class="edge"><title>Core_App&#45;&gt;Core_RuntimeState</title>
<path fill="none" stroke="black" stroke-dasharray="1,5" d="M535.614,-1105.53C554.504,-1127.54 596.696,-1172.17 643.342,-1191.76 727.374,-1227.03 757.88,-1194.79 847.424,-1211.76 860.714,-1214.27 874.835,-1217.81 888.012,-1221.48"/>
<polygon fill="black" stroke="black" points="887.298,-1224.92 897.876,-1224.31 889.228,-1218.19 887.298,-1224.92"/>
</g>
<!-- Core_SystemWrapperTrait -->
<g id="node13" class="node"><title>Core_SystemWrapperTrait</title>
<ellipse fill="none" stroke="black" cx="745.383" cy="-1164.76" rx="85.2851" ry="18"/>
<text text-anchor="middle" x="745.383" y="-1161.06" font-family="Times,serif" font-size="14.00">SystemWrapperTrait</text>
</g>
<!-- Core_App&#45;&gt;Core_SystemWrapperTrait -->
<g id="edge12" class="edge"><title>Core_App&#45;&gt;Core_SystemWrapperTrait</title>
<path fill="none" stroke="black" d="M546.459,-1100.11C570.093,-1108.23 609.374,-1121.63 643.342,-1132.76 657.478,-1137.39 672.763,-1142.28 687.061,-1146.82"/>
<polygon fill="black" stroke="black" points="686.185,-1150.21 696.775,-1149.89 688.296,-1143.54 686.185,-1150.21"/>
</g>
<!-- Core_App&#45;&gt;Core_SuperGlobal -->
<g id="edge20" class="edge"><title>Core_App&#45;&gt;Core_SuperGlobal</title>
<path fill="none" stroke="black" stroke-dasharray="1,5" d="M552.578,-1088.68C569.742,-1085.01 591.521,-1078.2 607.342,-1065.76 631.191,-1047 617.736,-1024.03 643.342,-1007.76 681.88,-983.261 802.186,-989.985 847.424,-983.756 861.533,-981.813 876.786,-979.5 890.855,-977.279"/>
<polygon fill="black" stroke="black" points="891.533,-980.715 900.857,-975.684 890.431,-973.802 891.533,-980.715"/>
</g>
<!-- Core_ExtendableStaticCallTrait -->
<g id="node16" class="node"><title>Core_ExtendableStaticCallTrait</title>
<ellipse fill="none" stroke="black" cx="745.383" cy="-1238.76" rx="102.082" ry="18"/>
<text text-anchor="middle" x="745.383" y="-1235.06" font-family="Times,serif" font-size="14.00">ExtendableStaticCallTrait</text>
</g>
<!-- Core_App&#45;&gt;Core_ExtendableStaticCallTrait -->
<g id="edge11" class="edge"><title>Core_App&#45;&gt;Core_ExtendableStaticCallTrait</title>
<path fill="none" stroke="black" d="M535.09,-1105.68C553.79,-1129.15 596.554,-1178.9 643.342,-1206.76 652.723,-1212.34 663.183,-1217.06 673.719,-1221.01"/>
<polygon fill="black" stroke="black" points="672.792,-1224.39 683.387,-1224.42 675.123,-1217.79 672.792,-1224.39"/>
</g>
<!-- Core_ThrowOn -->
<g id="node17" class="node"><title>Core_ThrowOn</title>
<ellipse fill="none" stroke="black" cx="745.383" cy="-882.756" rx="44.6926" ry="18"/>
<text text-anchor="middle" x="745.383" y="-879.056" font-family="Times,serif" font-size="14.00">ThrowOn</text>
</g>
<!-- Core_App&#45;&gt;Core_ThrowOn -->
<g id="edge10" class="edge"><title>Core_App&#45;&gt;Core_ThrowOn</title>
<path fill="none" stroke="black" d="M555.273,-1090.09C572.81,-1086.97 594.02,-1080.24 607.342,-1065.76 654.051,-1014.98 596.361,-965.281 643.342,-914.756 655.806,-901.351 673.84,-893.533 691.233,-888.982"/>
<polygon fill="black" stroke="black" points="692.388,-892.309 701.353,-886.664 690.824,-885.485 692.388,-892.309"/>
</g>
<!-- Core_Kernel&#45;&gt;Core_AutoLoader -->
<g id="edge1" class="edge"><title>Core_Kernel&#45;&gt;Core_AutoLoader</title>
<path fill="none" stroke="black" d="M778.755,-1046.13C809.538,-1041.74 856.308,-1035.06 891.98,-1029.96"/>
<polygon fill="black" stroke="black" points="892.789,-1033.38 902.193,-1028.5 891.799,-1026.45 892.789,-1033.38"/>
</g>
<!-- Core_Kernel&#45;&gt;Core_ExceptionManager -->
<g id="edge4" class="edge"><title>Core_Kernel&#45;&gt;Core_ExceptionManager</title>
<path fill="none" stroke="black" d="M773.23,-1061.71C802.908,-1073.82 851.473,-1093.64 888.977,-1108.95"/>
<polygon fill="black" stroke="black" points="887.674,-1112.19 898.255,-1112.73 890.319,-1105.71 887.674,-1112.19"/>
</g>
<!-- Core_Kernel&#45;&gt;Core_View -->
<g id="edge7" class="edge"><title>Core_Kernel&#45;&gt;Core_View</title>
<path fill="none" stroke="black" d="M772.554,-1039.18C795.199,-1027.97 827.375,-1008.96 847.424,-983.756 875.793,-948.096 852.356,-921.092 883.424,-887.756 889.785,-880.93 898.206,-875.695 906.688,-871.736"/>
<polygon fill="black" stroke="black" points="908.292,-874.859 916.184,-867.791 905.607,-868.395 908.292,-874.859"/>
</g>
<!-- Core_Kernel&#45;&gt;Core_Configer -->
<g id="edge2" class="edge"><title>Core_Kernel&#45;&gt;Core_Configer</title>
<path fill="none" stroke="black" d="M769.741,-1037.79C791.095,-1025.37 822.979,-1005.36 847.424,-983.756 865.844,-967.474 863.787,-956.55 883.424,-941.756 888.924,-937.612 895.163,-933.907 901.473,-930.668"/>
<polygon fill="black" stroke="black" points="903.181,-933.731 910.692,-926.259 900.161,-927.416 903.181,-933.731"/>
</g>
<!-- Core_Kernel&#45;&gt;Core_Logger -->
<g id="edge3" class="edge"><title>Core_Kernel&#45;&gt;Core_Logger</title>
<path fill="none" stroke="black" d="M767.978,-1064.75C788.926,-1078.64 821.289,-1100.96 847.424,-1122.76 864.56,-1137.05 865.009,-1145.15 883.424,-1157.76 890.363,-1162.51 898.271,-1166.78 905.995,-1170.46"/>
<polygon fill="black" stroke="black" points="904.691,-1173.71 915.245,-1174.63 907.57,-1167.33 904.691,-1173.71"/>
</g>
<!-- Core_Kernel&#45;&gt;Core_Route -->
<g id="edge5" class="edge"><title>Core_Kernel&#45;&gt;Core_Route</title>
<path fill="none" stroke="black" d="M779.195,-1055.11C812.033,-1059.46 862.739,-1066.19 898.918,-1070.99"/>
<polygon fill="black" stroke="black" points="898.802,-1074.5 909.176,-1072.35 899.723,-1067.56 898.802,-1074.5"/>
</g>
<!-- Core_Kernel&#45;&gt;Core_RuntimeState -->
<g id="edge6" class="edge"><title>Core_Kernel&#45;&gt;Core_RuntimeState</title>
<path fill="none" stroke="black" d="M767.176,-1064.74C789.305,-1080.43 824.257,-1107.68 847.424,-1137.76 869.742,-1166.73 857.258,-1186.2 883.424,-1211.76 885.257,-1213.55 887.23,-1215.23 889.305,-1216.82"/>
<polygon fill="black" stroke="black" points="887.462,-1219.8 897.721,-1222.44 891.352,-1213.98 887.462,-1219.8"/>
</g>
<!-- Core_Kernel&#45;&gt;Core_SuperGlobal -->
<g id="edge8" class="edge"><title>Core_Kernel&#45;&gt;Core_SuperGlobal</title>
<path fill="none" stroke="black" d="M772.822,-1039.7C803.075,-1027.04 853.331,-1006.02 891.303,-990.139"/>
<polygon fill="black" stroke="black" points="892.797,-993.308 900.672,-986.22 890.096,-986.85 892.797,-993.308"/>
</g>
<!-- Core_HttpServer -->
<g id="node14" class="node"><title>Core_HttpServer</title>
<polygon fill="none" stroke="black" points="562.149,-1056.76 486.149,-1056.76 486.149,-1052.76 482.149,-1052.76 482.149,-1048.76 486.149,-1048.76 486.149,-1028.76 482.149,-1028.76 482.149,-1024.76 486.149,-1024.76 486.149,-1020.76 562.149,-1020.76 562.149,-1056.76"/>
<polyline fill="none" stroke="black" points="486.149,-1052.76 490.149,-1052.76 490.149,-1048.76 486.149,-1048.76 "/>
<polyline fill="none" stroke="black" points="486.149,-1028.76 490.149,-1028.76 490.149,-1024.76 486.149,-1024.76 "/>
<text text-anchor="middle" x="524.149" y="-1035.06" font-family="Times,serif" font-size="14.00">HttpServer</text>
</g>
<!-- Core_ComponentInterface -->
<g id="node18" class="node"><title>Core_ComponentInterface</title>
<ellipse fill="none" stroke="black" cx="524.149" cy="-930.756" rx="83.3857" ry="18"/>
<text text-anchor="middle" x="524.149" y="-927.056" font-family="Times,serif" font-size="14.00">ComponentInterface</text>
</g>
<!-- Core_Functions -->
<g id="node19" class="node"><title>Core_Functions</title>
<ellipse fill="none" stroke="black" cx="524.149" cy="-876.756" rx="45.4919" ry="18"/>
<text text-anchor="middle" x="524.149" y="-873.056" font-family="Times,serif" font-size="14.00">Functions</text>
</g>
<!-- AppHelper -->
<g id="node20" class="node"><title>AppHelper</title>
<polygon fill="none" stroke="black" points="116.188,-1250.76 45.6372,-1232.76 116.188,-1214.76 186.739,-1232.76 116.188,-1250.76"/>
<polyline fill="none" stroke="black" points="57.2647,-1235.72 57.2647,-1229.79 "/>
<polyline fill="none" stroke="black" points="104.561,-1217.72 127.816,-1217.72 "/>
<polyline fill="none" stroke="black" points="175.112,-1229.79 175.112,-1235.72 "/>
<polyline fill="none" stroke="black" points="127.816,-1247.79 104.561,-1247.79 "/>
<text text-anchor="middle" x="116.188" y="-1229.06" font-family="Times,serif" font-size="14.00">AppHelper</text>
</g>
<!-- AppHelper&#45;&gt;Core_App -->
<g id="edge26" class="edge"><title>AppHelper&#45;&gt;Core_App</title>
<path fill="none" stroke="black" d="M156.765,-1224.91C175.322,-1220.5 197.461,-1214.17 216.376,-1205.76 229.893,-1199.74 230.746,-1193.51 244.376,-1187.76 315.229,-1157.86 340.683,-1175.04 412.956,-1148.76 443.348,-1137.7 476.144,-1120.26 497.981,-1107.78"/>
<polygon fill="black" stroke="black" points="500.017,-1110.64 506.913,-1102.6 496.506,-1104.59 500.017,-1110.64"/>
</g>
<!-- HelperTrait -->
<g id="node25" class="node"><title>HelperTrait</title>
<ellipse fill="none" stroke="black" cx="328.666" cy="-1214.76" rx="51.9908" ry="18"/>
<text text-anchor="middle" x="328.666" y="-1211.06" font-family="Times,serif" font-size="14.00">HelperTrait</text>
</g>
<!-- AppHelper&#45;&gt;HelperTrait -->
<g id="edge34" class="edge"><title>AppHelper&#45;&gt;HelperTrait</title>
<path fill="none" stroke="black" d="M169.487,-1228.28C199.239,-1225.74 236.625,-1222.54 267.58,-1219.89"/>
<polygon fill="black" stroke="black" points="268.146,-1223.36 277.811,-1219.02 267.549,-1216.38 268.146,-1223.36"/>
</g>
<!-- ControllerHelper -->
<g id="node21" class="node"><title>ControllerHelper</title>
<polygon fill="none" stroke="black" points="116.188,-1196.76 15.8115,-1178.76 116.188,-1160.76 216.565,-1178.76 116.188,-1196.76"/>
<polyline fill="none" stroke="black" points="27.6231,-1180.87 27.6231,-1176.64 "/>
<polyline fill="none" stroke="black" points="104.377,-1162.87 128,-1162.87 "/>
<polyline fill="none" stroke="black" points="204.753,-1176.64 204.753,-1180.87 "/>
<polyline fill="none" stroke="black" points="128,-1194.64 104.377,-1194.64 "/>
<text text-anchor="middle" x="116.188" y="-1175.06" font-family="Times,serif" font-size="14.00">ControllerHelper</text>
</g>
<!-- ControllerHelper&#45;&gt;Core_App -->
<g id="edge27" class="edge"><title>ControllerHelper&#45;&gt;Core_App</title>
<path fill="none" stroke="black" d="M163.319,-1169.2C221.53,-1157.12 324.71,-1135.62 412.956,-1116.76 438.131,-1111.38 466.515,-1105.19 488.169,-1100.45"/>
<polygon fill="black" stroke="black" points="489.197,-1103.81 498.216,-1098.24 487.698,-1096.97 489.197,-1103.81"/>
</g>
<!-- ControllerHelper&#45;&gt;HelperTrait -->
<g id="edge35" class="edge"><title>ControllerHelper&#45;&gt;HelperTrait</title>
<path fill="none" stroke="black" d="M168.139,-1187.47C199.427,-1192.82 239.531,-1199.68 271.701,-1205.18"/>
<polygon fill="black" stroke="black" points="271.399,-1208.68 281.846,-1206.92 272.579,-1201.78 271.399,-1208.68"/>
</g>
<!-- ModelHelper -->
<g id="node22" class="node"><title>ModelHelper</title>
<polygon fill="none" stroke="black" points="116.188,-1142.76 34.5777,-1124.76 116.188,-1106.76 197.799,-1124.76 116.188,-1142.76"/>
<polyline fill="none" stroke="black" points="46.296,-1127.34 46.296,-1122.17 "/>
<polyline fill="none" stroke="black" points="104.47,-1109.34 127.906,-1109.34 "/>
<polyline fill="none" stroke="black" points="186.08,-1122.17 186.08,-1127.34 "/>
<polyline fill="none" stroke="black" points="127.906,-1140.17 104.47,-1140.17 "/>
<text text-anchor="middle" x="116.188" y="-1121.06" font-family="Times,serif" font-size="14.00">ModelHelper</text>
</g>
<!-- ModelHelper&#45;&gt;Core_App -->
<g id="edge28" class="edge"><title>ModelHelper&#45;&gt;Core_App</title>
<path fill="none" stroke="black" d="M176.653,-1120.07C260.197,-1113.48 410.151,-1101.66 482.246,-1095.98"/>
<polygon fill="black" stroke="black" points="482.607,-1099.46 492.301,-1095.19 482.057,-1092.48 482.607,-1099.46"/>
</g>
<!-- ModelHelper&#45;&gt;HelperTrait -->
<g id="edge36" class="edge"><title>ModelHelper&#45;&gt;HelperTrait</title>
<path fill="none" stroke="black" d="M158.487,-1133.55C176.596,-1138.03 197.892,-1144.15 216.376,-1151.76 244.166,-1163.19 273.68,-1180.15 295.327,-1193.59"/>
<polygon fill="black" stroke="black" points="293.473,-1196.56 303.801,-1198.92 297.201,-1190.63 293.473,-1196.56"/>
</g>
<!-- ServiceHelper -->
<g id="node23" class="node"><title>ServiceHelper</title>
<polygon fill="none" stroke="black" points="116.188,-1088.76 29.8865,-1070.76 116.188,-1052.76 202.49,-1070.76 116.188,-1088.76"/>
<polyline fill="none" stroke="black" points="41.6337,-1073.21 41.6337,-1068.31 "/>
<polyline fill="none" stroke="black" points="104.441,-1055.21 127.935,-1055.21 "/>
<polyline fill="none" stroke="black" points="190.743,-1068.31 190.743,-1073.21 "/>
<polyline fill="none" stroke="black" points="127.935,-1086.31 104.441,-1086.31 "/>
<text text-anchor="middle" x="116.188" y="-1067.06" font-family="Times,serif" font-size="14.00">ServiceHelper</text>
</g>
<!-- ServiceHelper&#45;&gt;Core_App -->
<g id="edge29" class="edge"><title>ServiceHelper&#45;&gt;Core_App</title>
<path fill="none" stroke="black" d="M202.406,-1070.82C261.561,-1071.42 342.15,-1073.31 412.956,-1078.76 437.412,-1080.64 464.766,-1084.1 486.103,-1087.12"/>
<polygon fill="black" stroke="black" points="485.658,-1090.59 496.055,-1088.55 486.657,-1083.66 485.658,-1090.59"/>
</g>
<!-- ServiceHelper&#45;&gt;HelperTrait -->
<g id="edge37" class="edge"><title>ServiceHelper&#45;&gt;HelperTrait</title>
<path fill="none" stroke="black" d="M165.724,-1078.43C182.564,-1082.49 201.051,-1088.61 216.376,-1097.76 255.693,-1121.22 290.14,-1162.37 309.929,-1189.08"/>
<polygon fill="black" stroke="black" points="307.12,-1191.17 315.826,-1197.21 312.785,-1187.06 307.12,-1191.17"/>
</g>
<!-- ViewHelper -->
<g id="node24" class="node"><title>ViewHelper</title>
<polygon fill="none" stroke="black" points="116.188,-1034.76 40.1075,-1016.76 116.188,-998.756 192.269,-1016.76 116.188,-1034.76"/>
<polyline fill="none" stroke="black" points="51.7851,-1019.52 51.7851,-1013.99 "/>
<polyline fill="none" stroke="black" points="104.511,-1001.52 127.866,-1001.52 "/>
<polyline fill="none" stroke="black" points="180.591,-1013.99 180.591,-1019.52 "/>
<polyline fill="none" stroke="black" points="127.866,-1031.99 104.511,-1031.99 "/>
<text text-anchor="middle" x="116.188" y="-1013.06" font-family="Times,serif" font-size="14.00">ViewHelper</text>
</g>
<!-- ViewHelper&#45;&gt;Core_App -->
<g id="edge30" class="edge"><title>ViewHelper&#45;&gt;Core_App</title>
<path fill="none" stroke="black" d="M162.674,-1023.84C220.862,-1033.08 324.682,-1050.14 412.956,-1067.76 438.698,-1072.89 467.635,-1079.49 489.394,-1084.62"/>
<polygon fill="black" stroke="black" points="488.613,-1088.03 499.151,-1086.93 490.229,-1081.22 488.613,-1088.03"/>
</g>
<!-- ViewHelper&#45;&gt;HelperTrait -->
<g id="edge38" class="edge"><title>ViewHelper&#45;&gt;HelperTrait</title>
<path fill="none" stroke="black" d="M166.729,-1022.91C183.664,-1026.83 201.954,-1033.24 216.376,-1043.76 267.485,-1081.01 301.437,-1149.47 317.304,-1187.5"/>
<polygon fill="black" stroke="black" points="314.122,-1188.96 321.123,-1196.92 320.609,-1186.33 314.122,-1188.96"/>
</g>
<!-- HelperTrait&#45;&gt;Core_App -->
<g id="edge31" class="edge"><title>HelperTrait&#45;&gt;Core_App</title>
<path fill="none" stroke="black" d="M372.349,-1204.98C386.507,-1200.11 401.548,-1193 412.956,-1182.76 427.448,-1169.74 419.466,-1157.81 432.956,-1143.76 449.901,-1126.11 474.302,-1112.81 493.451,-1104.23"/>
<polygon fill="black" stroke="black" points="494.836,-1107.45 502.646,-1100.29 492.077,-1101.01 494.836,-1107.45"/>
</g>
<!-- HelperTrait&#45;&gt;Core_ExtendableStaticCallTrait -->
<g id="edge32" class="edge"><title>HelperTrait&#45;&gt;Core_ExtendableStaticCallTrait</title>
<path fill="none" stroke="black" d="M380.104,-1217.67C443.825,-1221.36 555.156,-1227.81 638.018,-1232.6"/>
<polygon fill="black" stroke="black" points="638.047,-1236.11 648.232,-1233.19 638.451,-1229.12 638.047,-1236.11"/>
</g>
<!-- HelperTrait&#45;&gt;Core_ThrowOn -->
<g id="edge33" class="edge"><title>HelperTrait&#45;&gt;Core_ThrowOn</title>
<path fill="none" stroke="black" d="M380.371,-1212.25C443.402,-1206.27 549.689,-1186.26 607.342,-1119.76 663.638,-1054.81 590.556,-997.583 643.342,-929.756 656.454,-912.907 677.038,-901.851 696.215,-894.724"/>
<polygon fill="black" stroke="black" points="697.452,-897.999 705.771,-891.439 695.177,-891.38 697.452,-897.999"/>
</g>
<!-- DB_DB -->
<g id="node26" class="node"><title>DB_DB</title>
<ellipse fill="none" stroke="black" cx="943.424" cy="-61.7561" rx="27" ry="18"/>
<text text-anchor="middle" x="943.424" y="-58.0561" font-family="Times,serif" font-size="14.00">DB</text>
</g>
<!-- DB_DBAdvanceTrait -->
<g id="node27" class="node"><title>DB_DBAdvanceTrait</title>
<ellipse fill="none" stroke="black" cx="1110.92" cy="-34.7561" rx="71.4873" ry="18"/>
<text text-anchor="middle" x="1110.92" y="-31.0561" font-family="Times,serif" font-size="14.00">DBAdvanceTrait</text>
</g>
<!-- DB_DB&#45;&gt;DB_DBAdvanceTrait -->
<g id="edge39" class="edge"><title>DB_DB&#45;&gt;DB_DBAdvanceTrait</title>
<path fill="none" stroke="black" d="M969.919,-57.5965C988.726,-54.5283 1015.27,-50.1974 1040.2,-46.1305"/>
<polygon fill="black" stroke="black" points="1041.08,-49.5332 1050.39,-44.4686 1039.95,-42.6245 1041.08,-49.5332"/>
</g>
<!-- DB_DBInterface -->
<g id="node28" class="node"><title>DB_DBInterface</title>
<ellipse fill="none" stroke="black" cx="1110.92" cy="-88.7561" rx="53.8905" ry="18"/>
<text text-anchor="middle" x="1110.92" y="-85.0561" font-family="Times,serif" font-size="14.00">DBInterface</text>
</g>
<!-- DB_DB&#45;&gt;DB_DBInterface -->
<g id="edge40" class="edge"><title>DB_DB&#45;&gt;DB_DBInterface</title>
<path fill="none" stroke="black" d="M969.919,-65.9157C991.722,-69.4728 1023.93,-74.7269 1051.95,-79.2993"/>
<polygon fill="black" stroke="black" points="1051.63,-82.7926 1062.06,-80.9486 1052.76,-75.884 1051.63,-82.7926"/>
</g>
<!-- CallableView -->
<g id="node29" class="node"><title>CallableView</title>
<polygon fill="none" stroke="black" points="569.649,-781.756 478.649,-781.756 478.649,-777.756 474.649,-777.756 474.649,-773.756 478.649,-773.756 478.649,-753.756 474.649,-753.756 474.649,-749.756 478.649,-749.756 478.649,-745.756 569.649,-745.756 569.649,-781.756"/>
<polyline fill="none" stroke="black" points="478.649,-777.756 482.649,-777.756 482.649,-773.756 478.649,-773.756 "/>
<polyline fill="none" stroke="black" points="478.649,-753.756 482.649,-753.756 482.649,-749.756 478.649,-749.756 "/>
<text text-anchor="middle" x="524.149" y="-760.056" font-family="Times,serif" font-size="14.00">CallableView</text>
</g>
<!-- CallableView&#45;&gt;Core_View -->
<g id="edge42" class="edge"><title>CallableView&#45;&gt;Core_View</title>
<path fill="none" stroke="black" d="M569.805,-774.137C652.936,-793.462 829.898,-834.598 906.186,-852.332"/>
<polygon fill="black" stroke="black" points="905.729,-855.819 916.262,-854.675 907.314,-849.001 905.729,-855.819"/>
</g>
<!-- DBManager -->
<g id="node30" class="node"><title>DBManager</title>
<polygon fill="none" stroke="black" points="787.383,-79.7561 703.383,-79.7561 703.383,-75.7561 699.383,-75.7561 699.383,-71.7561 703.383,-71.7561 703.383,-51.7561 699.383,-51.7561 699.383,-47.7561 703.383,-47.7561 703.383,-43.7561 787.383,-43.7561 787.383,-79.7561"/>
<polyline fill="none" stroke="black" points="703.383,-75.7561 707.383,-75.7561 707.383,-71.7561 703.383,-71.7561 "/>
<polyline fill="none" stroke="black" points="703.383,-51.7561 707.383,-51.7561 707.383,-47.7561 703.383,-47.7561 "/>
<text text-anchor="middle" x="745.383" y="-58.0561" font-family="Times,serif" font-size="14.00">DBManager</text>
</g>
<!-- DBManager&#45;&gt;DB_DB -->
<g id="edge41" class="edge"><title>DBManager&#45;&gt;DB_DB</title>
<path fill="none" stroke="black" d="M787.479,-61.7561C822.533,-61.7561 872.451,-61.7561 906.07,-61.7561"/>
<polygon fill="black" stroke="black" points="906.373,-65.2562 916.373,-61.7561 906.373,-58.2562 906.373,-65.2562"/>
</g>
<!-- DBReusePoolProxy -->
<g id="node31" class="node"><title>DBReusePoolProxy</title>
<polygon fill="none" stroke="black" points="586.649,-79.7561 461.649,-79.7561 461.649,-75.7561 457.649,-75.7561 457.649,-71.7561 461.649,-71.7561 461.649,-51.7561 457.649,-51.7561 457.649,-47.7561 461.649,-47.7561 461.649,-43.7561 586.649,-43.7561 586.649,-79.7561"/>
<polyline fill="none" stroke="black" points="461.649,-75.7561 465.649,-75.7561 465.649,-71.7561 461.649,-71.7561 "/>
<polyline fill="none" stroke="black" points="461.649,-51.7561 465.649,-51.7561 465.649,-47.7561 461.649,-47.7561 "/>
<text text-anchor="middle" x="524.149" y="-58.0561" font-family="Times,serif" font-size="14.00">DBReusePoolProxy</text>
</g>
<!-- DBReusePoolProxy&#45;&gt;DBManager -->
<g id="edge43" class="edge"><title>DBReusePoolProxy&#45;&gt;DBManager</title>
<path fill="none" stroke="black" d="M586.801,-61.7561C620.254,-61.7561 661.131,-61.7561 692.868,-61.7561"/>
<polygon fill="black" stroke="black" points="693.257,-65.2562 703.257,-61.7561 693.257,-58.2562 693.257,-65.2562"/>
</g>
<!-- FacadesAutoLoader -->
<g id="node32" class="node"><title>FacadesAutoLoader</title>
<polygon fill="none" stroke="black" points="807.883,-727.756 682.883,-727.756 682.883,-723.756 678.883,-723.756 678.883,-719.756 682.883,-719.756 682.883,-699.756 678.883,-699.756 678.883,-695.756 682.883,-695.756 682.883,-691.756 807.883,-691.756 807.883,-727.756"/>
<polyline fill="none" stroke="black" points="682.883,-723.756 686.883,-723.756 686.883,-719.756 682.883,-719.756 "/>
<polyline fill="none" stroke="black" points="682.883,-699.756 686.883,-699.756 686.883,-695.756 682.883,-695.756 "/>
<text text-anchor="middle" x="745.383" y="-706.056" font-family="Times,serif" font-size="14.00">FacadesAutoLoader</text>
</g>
<!-- FacadesBase -->
<g id="node33" class="node"><title>FacadesBase</title>
<ellipse fill="none" stroke="black" cx="524.149" cy="-709.756" rx="55.7903" ry="18"/>
<text text-anchor="middle" x="524.149" y="-706.056" font-family="Times,serif" font-size="14.00">FacadesBase</text>
</g>
<!-- FacadesBase&#45;&gt;FacadesAutoLoader -->
<g id="edge45" class="edge"><title>FacadesBase&#45;&gt;FacadesAutoLoader</title>
<path fill="none" stroke="black" d="M580.188,-709.756C608.221,-709.756 642.648,-709.756 672.725,-709.756"/>
<polygon fill="black" stroke="black" points="672.743,-713.256 682.743,-709.756 672.743,-706.256 672.743,-713.256"/>
</g>
<!-- JsonRpcClientBase -->
<g id="node34" class="node"><title>JsonRpcClientBase</title>
<ellipse fill="none" stroke="black" cx="524.149" cy="-655.756" rx="79.0865" ry="18"/>
<text text-anchor="middle" x="524.149" y="-652.056" font-family="Times,serif" font-size="14.00">JsonRpcClientBase</text>
</g>
<!-- JsonRpcExt -->
<g id="node35" class="node"><title>JsonRpcExt</title>
<polygon fill="none" stroke="black" points="785.883,-673.756 704.883,-673.756 704.883,-669.756 700.883,-669.756 700.883,-665.756 704.883,-665.756 704.883,-645.756 700.883,-645.756 700.883,-641.756 704.883,-641.756 704.883,-637.756 785.883,-637.756 785.883,-673.756"/>
<polyline fill="none" stroke="black" points="704.883,-669.756 708.883,-669.756 708.883,-665.756 704.883,-665.756 "/>
<polyline fill="none" stroke="black" points="704.883,-645.756 708.883,-645.756 708.883,-641.756 704.883,-641.756 "/>
<text text-anchor="middle" x="745.383" y="-652.056" font-family="Times,serif" font-size="14.00">JsonRpcExt</text>
</g>
<!-- JsonRpcClientBase&#45;&gt;JsonRpcExt -->
<g id="edge44" class="edge"><title>JsonRpcClientBase&#45;&gt;JsonRpcExt</title>
<path fill="none" stroke="black" d="M603.678,-655.756C633.94,-655.756 667.649,-655.756 694.484,-655.756"/>
<polygon fill="black" stroke="black" points="694.783,-659.256 704.783,-655.756 694.783,-652.256 694.783,-659.256"/>
</g>
<!-- Misc -->
<g id="node36" class="node"><title>Misc</title>
<polygon fill="none" stroke="black" points="551.149,-565.756 497.149,-565.756 497.149,-561.756 493.149,-561.756 493.149,-557.756 497.149,-557.756 497.149,-537.756 493.149,-537.756 493.149,-533.756 497.149,-533.756 497.149,-529.756 551.149,-529.756 551.149,-565.756"/>
<polyline fill="none" stroke="black" points="497.149,-561.756 501.149,-561.756 501.149,-557.756 497.149,-557.756 "/>
<polyline fill="none" stroke="black" points="497.149,-537.756 501.149,-537.756 501.149,-533.756 497.149,-533.756 "/>
<text text-anchor="middle" x="524.149" y="-544.056" font-family="Times,serif" font-size="14.00">Misc</text>
</g>
<!-- Pager -->
<g id="node37" class="node"><title>Pager</title>
<polygon fill="none" stroke="black" points="551.149,-619.756 497.149,-619.756 497.149,-615.756 493.149,-615.756 493.149,-611.756 497.149,-611.756 497.149,-591.756 493.149,-591.756 493.149,-587.756 497.149,-587.756 497.149,-583.756 551.149,-583.756 551.149,-619.756"/>
<polyline fill="none" stroke="black" points="497.149,-615.756 501.149,-615.756 501.149,-611.756 497.149,-611.756 "/>
<polyline fill="none" stroke="black" points="497.149,-591.756 501.149,-591.756 501.149,-587.756 497.149,-587.756 "/>
<text text-anchor="middle" x="524.149" y="-598.056" font-family="Times,serif" font-size="14.00">Pager</text>
</g>
<!-- PagerInterface -->
<g id="node38" class="node"><title>PagerInterface</title>
<ellipse fill="none" stroke="black" cx="745.383" cy="-601.756" rx="61.99" ry="18"/>
<text text-anchor="middle" x="745.383" y="-598.056" font-family="Times,serif" font-size="14.00">PagerInterface</text>
</g>
<!-- Pager&#45;&gt;PagerInterface -->
<g id="edge46" class="edge"><title>Pager&#45;&gt;PagerInterface</title>
<path fill="none" stroke="black" d="M551.159,-601.756C581.127,-601.756 631.621,-601.756 673.476,-601.756"/>
<polygon fill="black" stroke="black" points="673.637,-605.256 683.637,-601.756 673.637,-598.256 673.637,-605.256"/>
</g>
<!-- PluginForSwooleHttpd -->
<g id="node39" class="node"><title>PluginForSwooleHttpd</title>
<polygon fill="none" stroke="black" points="595.149,-457.756 453.149,-457.756 453.149,-453.756 449.149,-453.756 449.149,-449.756 453.149,-449.756 453.149,-429.756 449.149,-429.756 449.149,-425.756 453.149,-425.756 453.149,-421.756 595.149,-421.756 595.149,-457.756"/>
<polyline fill="none" stroke="black" points="453.149,-453.756 457.149,-453.756 457.149,-449.756 453.149,-449.756 "/>
<polyline fill="none" stroke="black" points="453.149,-429.756 457.149,-429.756 457.149,-425.756 453.149,-425.756 "/>
<text text-anchor="middle" x="524.149" y="-436.056" font-family="Times,serif" font-size="14.00">PluginForSwooleHttpd</text>
</g>
<!-- RedisManager -->
<g id="node40" class="node"><title>RedisManager</title>
<polygon fill="none" stroke="black" points="793.383,-511.756 697.383,-511.756 697.383,-507.756 693.383,-507.756 693.383,-503.756 697.383,-503.756 697.383,-483.756 693.383,-483.756 693.383,-479.756 697.383,-479.756 697.383,-475.756 793.383,-475.756 793.383,-511.756"/>
<polyline fill="none" stroke="black" points="697.383,-507.756 701.383,-507.756 701.383,-503.756 697.383,-503.756 "/>
<polyline fill="none" stroke="black" points="697.383,-483.756 701.383,-483.756 701.383,-479.756 697.383,-479.756 "/>
<text text-anchor="middle" x="745.383" y="-490.056" font-family="Times,serif" font-size="14.00">RedisManager</text>
</g>
<!-- RedisSimpleCache -->
<g id="node41" class="node"><title>RedisSimpleCache</title>
<polygon fill="none" stroke="black" points="584.149,-511.756 464.149,-511.756 464.149,-507.756 460.149,-507.756 460.149,-503.756 464.149,-503.756 464.149,-483.756 460.149,-483.756 460.149,-479.756 464.149,-479.756 464.149,-475.756 584.149,-475.756 584.149,-511.756"/>
<polyline fill="none" stroke="black" points="464.149,-507.756 468.149,-507.756 468.149,-503.756 464.149,-503.756 "/>
<polyline fill="none" stroke="black" points="464.149,-483.756 468.149,-483.756 468.149,-479.756 464.149,-479.756 "/>
<text text-anchor="middle" x="524.149" y="-490.056" font-family="Times,serif" font-size="14.00">RedisSimpleCache</text>
</g>
<!-- RedisSimpleCache&#45;&gt;RedisManager -->
<g id="edge47" class="edge"><title>RedisSimpleCache&#45;&gt;RedisManager</title>
<path fill="none" stroke="black" d="M584.188,-493.756C615.978,-493.756 655.037,-493.756 686.628,-493.756"/>
<polygon fill="black" stroke="black" points="687.034,-497.256 697.034,-493.756 687.034,-490.256 687.034,-497.256"/>
</g>
<!-- RouteHookDirectoryMode -->
<g id="node42" class="node"><title>RouteHookDirectoryMode</title>
<polygon fill="none" stroke="black" points="605.649,-349.756 442.649,-349.756 442.649,-345.756 438.649,-345.756 438.649,-341.756 442.649,-341.756 442.649,-321.756 438.649,-321.756 438.649,-317.756 442.649,-317.756 442.649,-313.756 605.649,-313.756 605.649,-349.756"/>
<polyline fill="none" stroke="black" points="442.649,-345.756 446.649,-345.756 446.649,-341.756 442.649,-341.756 "/>
<polyline fill="none" stroke="black" points="442.649,-321.756 446.649,-321.756 446.649,-317.756 442.649,-317.756 "/>
<text text-anchor="middle" x="524.149" y="-328.056" font-family="Times,serif" font-size="14.00">RouteHookDirectoryMode</text>
</g>
<!-- RouteHookOneFileMode -->
<g id="node43" class="node"><title>RouteHookOneFileMode</title>
<polygon fill="none" stroke="black" points="601.649,-295.756 446.649,-295.756 446.649,-291.756 442.649,-291.756 442.649,-287.756 446.649,-287.756 446.649,-267.756 442.649,-267.756 442.649,-263.756 446.649,-263.756 446.649,-259.756 601.649,-259.756 601.649,-295.756"/>
<polyline fill="none" stroke="black" points="446.649,-291.756 450.649,-291.756 450.649,-287.756 446.649,-287.756 "/>
<polyline fill="none" stroke="black" points="446.649,-267.756 450.649,-267.756 450.649,-263.756 446.649,-263.756 "/>
<text text-anchor="middle" x="524.149" y="-274.056" font-family="Times,serif" font-size="14.00">RouteHookOneFileMode</text>
</g>
<!-- RouteHookRewrite -->
<g id="node44" class="node"><title>RouteHookRewrite</title>
<polygon fill="none" stroke="black" points="585.149,-241.756 463.149,-241.756 463.149,-237.756 459.149,-237.756 459.149,-233.756 463.149,-233.756 463.149,-213.756 459.149,-213.756 459.149,-209.756 463.149,-209.756 463.149,-205.756 585.149,-205.756 585.149,-241.756"/>
<polyline fill="none" stroke="black" points="463.149,-237.756 467.149,-237.756 467.149,-233.756 463.149,-233.756 "/>
<polyline fill="none" stroke="black" points="463.149,-213.756 467.149,-213.756 467.149,-209.756 463.149,-209.756 "/>
<text text-anchor="middle" x="524.149" y="-220.056" font-family="Times,serif" font-size="14.00">RouteHookRewrite</text>
</g>
<!-- RouteHookRouteMap -->
<g id="node45" class="node"><title>RouteHookRouteMap</title>
<polygon fill="none" stroke="black" points="592.649,-187.756 455.649,-187.756 455.649,-183.756 451.649,-183.756 451.649,-179.756 455.649,-179.756 455.649,-159.756 451.649,-159.756 451.649,-155.756 455.649,-155.756 455.649,-151.756 592.649,-151.756 592.649,-187.756"/>
<polyline fill="none" stroke="black" points="455.649,-183.756 459.649,-183.756 459.649,-179.756 455.649,-179.756 "/>
<polyline fill="none" stroke="black" points="455.649,-159.756 459.649,-159.756 459.649,-155.756 455.649,-155.756 "/>
<text text-anchor="middle" x="524.149" y="-166.056" font-family="Times,serif" font-size="14.00">RouteHookRouteMap</text>
</g>
<!-- StrictCheck -->
<g id="node46" class="node"><title>StrictCheck</title>
<polygon fill="none" stroke="black" points="785.383,-268.756 705.383,-268.756 705.383,-264.756 701.383,-264.756 701.383,-260.756 705.383,-260.756 705.383,-240.756 701.383,-240.756 701.383,-236.756 705.383,-236.756 705.383,-232.756 785.383,-232.756 785.383,-268.756"/>
<polyline fill="none" stroke="black" points="705.383,-264.756 709.383,-264.756 709.383,-260.756 705.383,-260.756 "/>
<polyline fill="none" stroke="black" points="705.383,-240.756 709.383,-240.756 709.383,-236.756 705.383,-236.756 "/>
<text text-anchor="middle" x="745.383" y="-247.056" font-family="Times,serif" font-size="14.00">StrictCheck</text>
</g>
<!-- StrictModelTrait -->
<g id="node47" class="node"><title>StrictModelTrait</title>
<ellipse fill="none" stroke="black" cx="524.149" cy="-385.756" rx="70.3881" ry="18"/>
<text text-anchor="middle" x="524.149" y="-382.056" font-family="Times,serif" font-size="14.00">StrictModelTrait</text>
</g>
<!-- StrictModelTrait&#45;&gt;StrictCheck -->
<g id="edge48" class="edge"><title>StrictModelTrait&#45;&gt;StrictCheck</title>
<path fill="none" stroke="black" d="M573.696,-372.928C585.056,-369.084 596.886,-364.366 607.342,-358.756 649.675,-336.044 692.152,-300.024 718.347,-275.9"/>
<polygon fill="black" stroke="black" points="721.009,-278.204 725.936,-268.824 716.235,-273.084 721.009,-278.204"/>
</g>
<!-- StrictServiceTrait -->
<g id="node48" class="node"><title>StrictServiceTrait</title>
<ellipse fill="none" stroke="black" cx="524.149" cy="-115.756" rx="73.387" ry="18"/>
<text text-anchor="middle" x="524.149" y="-112.056" font-family="Times,serif" font-size="14.00">StrictServiceTrait</text>
</g>
<!-- StrictServiceTrait&#45;&gt;StrictCheck -->
<g id="edge49" class="edge"><title>StrictServiceTrait&#45;&gt;StrictCheck</title>
<path fill="none" stroke="black" d="M574.559,-128.878C585.654,-132.668 597.15,-137.289 607.342,-142.756 649.675,-165.468 692.152,-201.489 718.347,-225.612"/>
<polygon fill="black" stroke="black" points="716.235,-228.428 725.936,-232.688 721.009,-223.309 716.235,-228.428"/>
</g>
<!-- HttpServer -->
<g id="node49" class="node"><title>HttpServer</title>
<polygon fill="lightgrey" stroke="black" points="328.666,-951.756 258.954,-933.756 328.666,-915.756 398.379,-933.756 328.666,-951.756"/>
<polyline fill="none" stroke="black" points="270.573,-936.756 270.573,-930.756 "/>
<polyline fill="none" stroke="black" points="317.047,-918.756 340.285,-918.756 "/>
<polyline fill="none" stroke="black" points="386.76,-930.756 386.76,-936.756 "/>
<polyline fill="none" stroke="black" points="340.285,-948.756 317.047,-948.756 "/>
<text text-anchor="middle" x="328.666" y="-930.056" font-family="Times,serif" font-size="14.00">HttpServer</text>
</g>
<!-- HttpServer&#45;&gt;Core_HttpServer -->
<g id="edge50" class="edge"><title>HttpServer&#45;&gt;Core_HttpServer</title>
<path fill="none" stroke="black" d="M352.632,-945.646C370.196,-955.359 394.46,-970.157 412.956,-986.756 423.546,-996.26 421.16,-1003.8 432.956,-1011.76 445.727,-1020.37 461.32,-1026.3 475.925,-1030.36"/>
<polygon fill="black" stroke="black" points="475.278,-1033.81 485.832,-1032.88 477.003,-1027.02 475.278,-1033.81"/>
</g>
<!-- App -->
<g id="node50" class="node"><title>App</title>
<polygon fill="lightgrey" stroke="black" points="328.666,-789.756 292.132,-771.756 328.666,-753.756 365.2,-771.756 328.666,-789.756"/>
<polyline fill="none" stroke="black" points="302.897,-777.06 302.897,-766.453 "/>
<polyline fill="none" stroke="black" points="317.902,-759.06 339.431,-759.06 "/>
<polyline fill="none" stroke="black" points="354.436,-766.453 354.436,-777.06 "/>
<polyline fill="none" stroke="black" points="339.431,-784.453 317.902,-784.453 "/>
<text text-anchor="middle" x="328.666" y="-768.056" font-family="Times,serif" font-size="14.00">App</text>
</g>
<!-- App&#45;&gt;Core_App -->
<g id="edge51" class="edge"><title>App&#45;&gt;Core_App</title>
<path fill="none" stroke="black" d="M361.462,-773.648C379.459,-776.499 400.746,-783.218 412.956,-798.756 449.72,-845.539 395.666,-1019.39 432.956,-1065.76 444.26,-1079.81 462.576,-1086.77 479.759,-1090.13"/>
<polygon fill="black" stroke="black" points="479.255,-1093.59 489.683,-1091.72 480.364,-1086.68 479.255,-1093.59"/>
</g>
<!-- App&#45;&gt;DBManager -->
<g id="edge56" class="edge"><title>App&#45;&gt;DBManager</title>
<path fill="none" stroke="black" d="M330.751,-754.492C337.607,-648.048 376.471,-83.8771 432.956,-34.7561 507.019,29.6503 631.867,-10.4208 698.78,-39.4946"/>
<polygon fill="black" stroke="black" points="697.66,-42.8267 708.219,-43.6907 700.503,-36.4303 697.66,-42.8267"/>
</g>
<!-- App&#45;&gt;Pager -->
<g id="edge55" class="edge"><title>App&#45;&gt;Pager</title>
<path fill="none" stroke="black" d="M336.175,-757.162C349.831,-728.218 384.285,-663.361 432.956,-628.756 448.88,-617.434 469.599,-610.799 487.162,-606.942"/>
<polygon fill="black" stroke="black" points="487.949,-610.354 497.078,-604.977 486.589,-603.487 487.949,-610.354"/>
</g>
<!-- App&#45;&gt;RouteHookRouteMap -->
<g id="edge54" class="edge"><title>App&#45;&gt;RouteHookRouteMap</title>
<path fill="none" stroke="black" d="M330.391,-754.597C334.373,-668.317 356.289,-282.627 432.956,-196.756 436.931,-192.304 441.607,-188.572 446.704,-185.447"/>
<polygon fill="black" stroke="black" points="448.417,-188.5 455.628,-180.738 445.15,-182.309 448.417,-188.5"/>
</g>
<!-- ThrowOn -->
<g id="node51" class="node"><title>ThrowOn</title>
<polygon fill="lightgrey" stroke="black" points="328.666,-843.756 265.323,-825.756 328.666,-807.756 392.01,-825.756 328.666,-843.756"/>
<polyline fill="none" stroke="black" points="276.866,-829.036 276.866,-822.476 "/>
<polyline fill="none" stroke="black" points="317.123,-811.036 340.209,-811.036 "/>
<polyline fill="none" stroke="black" points="380.467,-822.476 380.467,-829.036 "/>
<polyline fill="none" stroke="black" points="340.209,-840.476 317.123,-840.476 "/>
<text text-anchor="middle" x="328.666" y="-822.056" font-family="Times,serif" font-size="14.00">ThrowOn</text>
</g>
<!-- ThrowOn&#45;&gt;Core_ThrowOn -->
<g id="edge53" class="edge"><title>ThrowOn&#45;&gt;Core_ThrowOn</title>
<path fill="none" stroke="black" d="M384.236,-828.051C440.446,-830.98 530.449,-837.248 607.342,-849.756 638.077,-854.756 672.115,-862.938 698.58,-869.904"/>
<polygon fill="black" stroke="black" points="697.764,-873.309 708.329,-872.505 699.569,-866.546 697.764,-873.309"/>
</g>
</g>
</svg>
