<?xml version="1.0" encoding="UTF-8" standalone="no"?>
<!DOCTYPE svg PUBLIC "-//W3C//DTD SVG 1.1//EN"
 "http://www.w3.org/Graphics/SVG/1.1/DTD/svg11.dtd">
<!-- Generated by graphviz version 2.38.0 (20140413.2041)
 -->
<!-- Title: G Pages: 1 -->
<svg width="1431pt" height="1396pt"
 viewBox="0.00 0.00 1430.79 1396.16" xmlns="http://www.w3.org/2000/svg" xmlns:xlink="http://www.w3.org/1999/xlink">
<g id="graph0" class="graph" transform="scale(1 1) rotate(0) translate(4 1392.16)">
<title>G</title>
<polygon fill="white" stroke="none" points="-4,4 -4,-1392.16 1426.79,-1392.16 1426.79,4 -4,4"/>
<g id="clust1" class="cluster"><title>cluster_Core</title>
<polygon fill="none" stroke="black" points="427.441,-853.165 427.441,-1380.16 1389.97,-1380.16 1389.97,-853.165 427.441,-853.165"/>
<text text-anchor="middle" x="908.707" y="-1364.96" font-family="Times,serif" font-size="14.00">[DuckPhp\Core]</text>
</g>
<g id="clust2" class="cluster"><title>cluster_Helper</title>
<polygon fill="none" stroke="black" points="8,-1018.16 8,-1309.16 407.441,-1309.16 407.441,-1018.16 8,-1018.16"/>
<text text-anchor="middle" x="207.721" y="-1293.96" font-family="Times,serif" font-size="14.00">[DuckPhp\Helper]</text>
</g>
<g id="clust3" class="cluster"><title>cluster_DB</title>
<polygon fill="none" stroke="black" points="1080.08,-13.1647 1080.08,-142.165 1414.79,-142.165 1414.79,-13.1647 1080.08,-13.1647"/>
<text text-anchor="middle" x="1247.43" y="-126.965" font-family="Times,serif" font-size="14.00">[DuckPhp\DB]</text>
</g>
<g id="clust4" class="cluster"><title>cluster_Ext</title>
<polygon fill="none" stroke="black" points="577.417,-40.1647 577.417,-817.165 1018.08,-817.165 1018.08,-40.1647 577.417,-40.1647"/>
<text text-anchor="middle" x="797.75" y="-801.965" font-family="Times,serif" font-size="14.00">[DuckPhp\Ext]</text>
</g>
<g id="clust5" class="cluster"><title>cluster_DuckPhp</title>
<polygon fill="none" stroke="black" points="248.053,-580.165 248.053,-709.165 403.765,-709.165 403.765,-580.165 248.053,-580.165"/>
<text text-anchor="middle" x="325.909" y="-693.965" font-family="Times,serif" font-size="14.00">[DuckPhp]</text>
</g>
<!-- Core_AppPluginTrait -->
<g id="node1" class="node"><title>Core_AppPluginTrait</title>
<polygon fill="none" stroke="black" points="689.282,-939.165 596.612,-921.165 689.282,-903.165 781.952,-921.165 689.282,-939.165"/>
<text text-anchor="middle" x="689.282" y="-917.465" font-family="Times,serif" font-size="14.00">AppPluginTrait</text>
</g>
<!-- Core_View -->
<g id="node7" class="node"><title>Core_View</title>
<polygon fill="none" stroke="black" points="974.582,-951.165 920.582,-951.165 920.582,-947.165 916.582,-947.165 916.582,-943.165 920.582,-943.165 920.582,-923.165 916.582,-923.165 916.582,-919.165 920.582,-919.165 920.582,-915.165 974.582,-915.165 974.582,-951.165"/>
<polyline fill="none" stroke="black" points="920.582,-947.165 924.582,-947.165 924.582,-943.165 920.582,-943.165 "/>
<polyline fill="none" stroke="black" points="920.582,-923.165 924.582,-923.165 924.582,-919.165 920.582,-919.165 "/>
<text text-anchor="middle" x="947.582" y="-929.465" font-family="Times,serif" font-size="14.00">View</text>
</g>
<!-- Core_AppPluginTrait&#45;&gt;Core_View -->
<g id="edge24" class="edge"><title>Core_AppPluginTrait&#45;&gt;Core_View</title>
<path fill="none" stroke="black" d="M764.415,-924.636C812.388,-926.882 872.724,-929.707 910.483,-931.474"/>
<polygon fill="black" stroke="black" points="910.353,-934.972 920.505,-931.944 910.68,-927.98 910.353,-934.972"/>
</g>
<!-- Core_Configer -->
<g id="node8" class="node"><title>Core_Configer</title>
<polygon fill="none" stroke="black" points="980.082,-1005.16 915.082,-1005.16 915.082,-1001.16 911.082,-1001.16 911.082,-997.165 915.082,-997.165 915.082,-977.165 911.082,-977.165 911.082,-973.165 915.082,-973.165 915.082,-969.165 980.082,-969.165 980.082,-1005.16"/>
<polyline fill="none" stroke="black" points="915.082,-1001.16 919.082,-1001.16 919.082,-997.165 915.082,-997.165 "/>
<polyline fill="none" stroke="black" points="915.082,-977.165 919.082,-977.165 919.082,-973.165 915.082,-973.165 "/>
<text text-anchor="middle" x="947.582" y="-983.465" font-family="Times,serif" font-size="14.00">Configer</text>
</g>
<!-- Core_AppPluginTrait&#45;&gt;Core_Configer -->
<g id="edge23" class="edge"><title>Core_AppPluginTrait&#45;&gt;Core_Configer</title>
<path fill="none" stroke="black" d="M735.023,-930.282C763.39,-936.278 800.789,-944.58 833.589,-953.165 857.37,-959.389 883.683,-967.248 904.93,-973.842"/>
<polygon fill="black" stroke="black" points="904.024,-977.226 914.613,-976.869 906.112,-970.545 904.024,-977.226"/>
</g>
<!-- Core_Route -->
<g id="node10" class="node"><title>Core_Route</title>
<polygon fill="lightgrey" stroke="black" points="947.582,-1167.16 902.505,-1149.16 947.582,-1131.16 992.66,-1149.16 947.582,-1167.16"/>
<polyline fill="none" stroke="black" points="913.649,-1153.61 913.649,-1144.71 "/>
<polyline fill="none" stroke="black" points="936.438,-1135.61 958.727,-1135.61 "/>
<polyline fill="none" stroke="black" points="981.516,-1144.71 981.516,-1153.61 "/>
<polyline fill="none" stroke="black" points="958.727,-1162.71 936.438,-1162.71 "/>
<text text-anchor="middle" x="947.582" y="-1145.46" font-family="Times,serif" font-size="14.00">Route</text>
</g>
<!-- Core_AppPluginTrait&#45;&gt;Core_Route -->
<g id="edge25" class="edge"><title>Core_AppPluginTrait&#45;&gt;Core_Route</title>
<path fill="none" stroke="black" d="M732.978,-930.725C765.126,-940.091 807.908,-957.548 833.589,-988.165 873.22,-1035.41 827.645,-1076.96 869.589,-1122.16 878.56,-1131.83 891.19,-1138.04 903.631,-1142.02"/>
<polygon fill="black" stroke="black" points="902.922,-1145.46 913.495,-1144.77 904.798,-1138.72 902.922,-1145.46"/>
</g>
<!-- Core_SuperGlobal -->
<g id="node14" class="node"><title>Core_SuperGlobal</title>
<polygon fill="none" stroke="black" points="990.082,-1059.16 905.082,-1059.16 905.082,-1055.16 901.082,-1055.16 901.082,-1051.16 905.082,-1051.16 905.082,-1031.16 901.082,-1031.16 901.082,-1027.16 905.082,-1027.16 905.082,-1023.16 990.082,-1023.16 990.082,-1059.16"/>
<polyline fill="none" stroke="black" points="905.082,-1055.16 909.082,-1055.16 909.082,-1051.16 905.082,-1051.16 "/>
<polyline fill="none" stroke="black" points="905.082,-1031.16 909.082,-1031.16 909.082,-1027.16 905.082,-1027.16 "/>
<text text-anchor="middle" x="947.582" y="-1037.46" font-family="Times,serif" font-size="14.00">SuperGlobal</text>
</g>
<!-- Core_AppPluginTrait&#45;&gt;Core_SuperGlobal -->
<g id="edge26" class="edge"><title>Core_AppPluginTrait&#45;&gt;Core_SuperGlobal</title>
<path fill="none" stroke="black" d="M760.635,-925.372C785.536,-929.687 812.558,-937.874 833.589,-953.165 859.051,-971.677 845.26,-994.188 869.589,-1014.16 877.146,-1020.37 886.224,-1025.19 895.455,-1028.92"/>
<polygon fill="black" stroke="black" points="894.479,-1032.29 905.073,-1032.43 896.878,-1025.72 894.479,-1032.29"/>
</g>
<!-- Core_App -->
<g id="node2" class="node"><title>Core_App</title>
<polygon fill="lightgrey" stroke="black" points="472.208,-1144.16 435.674,-1126.16 472.208,-1108.16 508.742,-1126.16 472.208,-1144.16"/>
<polyline fill="none" stroke="black" points="446.438,-1131.47 446.438,-1120.86 "/>
<polyline fill="none" stroke="black" points="461.443,-1113.47 482.972,-1113.47 "/>
<polyline fill="none" stroke="black" points="497.977,-1120.86 497.977,-1131.47 "/>
<polyline fill="none" stroke="black" points="482.972,-1138.86 461.443,-1138.86 "/>
<text text-anchor="middle" x="472.208" y="-1122.46" font-family="Times,serif" font-size="14.00">App</text>
</g>
<!-- Core_Kernel -->
<g id="node3" class="node"><title>Core_Kernel</title>
<polygon fill="none" stroke="black" points="689.282,-1033.16 640.35,-1015.16 689.282,-997.165 738.213,-1015.16 689.282,-1033.16"/>
<text text-anchor="middle" x="689.282" y="-1011.46" font-family="Times,serif" font-size="14.00">Kernel</text>
</g>
<!-- Core_App&#45;&gt;Core_Kernel -->
<g id="edge9" class="edge"><title>Core_App&#45;&gt;Core_Kernel</title>
<path fill="none" stroke="black" d="M480.907,-1112.29C492.275,-1093.2 515.43,-1059.28 544.974,-1042.16 571.412,-1026.85 604.771,-1019.98 632.649,-1016.99"/>
<polygon fill="black" stroke="black" points="633.019,-1020.47 642.65,-1016.05 632.367,-1013.5 633.019,-1020.47"/>
</g>
<!-- Core_AutoLoader -->
<g id="node5" class="node"><title>Core_AutoLoader</title>
<ellipse fill="none" stroke="black" cx="947.582" cy="-1311.16" rx="53.0913" ry="18"/>
<text text-anchor="middle" x="947.582" y="-1307.46" font-family="Times,serif" font-size="14.00">AutoLoader</text>
</g>
<!-- Core_App&#45;&gt;Core_AutoLoader -->
<g id="edge13" class="edge"><title>Core_App&#45;&gt;Core_AutoLoader</title>
<path fill="none" stroke="black" stroke-dasharray="1,5" d="M480.493,-1140.13C491.52,-1159.65 514.442,-1194.46 544.974,-1210.16 659.469,-1269.06 721.333,-1172.11 833.589,-1235.16 857.15,-1248.4 847.869,-1268.09 869.589,-1284.16 876.786,-1289.49 885.123,-1293.83 893.598,-1297.35"/>
<polygon fill="black" stroke="black" points="892.581,-1300.71 903.172,-1300.99 895.064,-1294.17 892.581,-1300.71"/>
</g>
<!-- Core_ExceptionManager -->
<g id="node6" class="node"><title>Core_ExceptionManager</title>
<ellipse fill="none" stroke="black" cx="947.582" cy="-1257.16" rx="77.9862" ry="18"/>
<text text-anchor="middle" x="947.582" y="-1253.46" font-family="Times,serif" font-size="14.00">ExceptionManager</text>
</g>
<!-- Core_App&#45;&gt;Core_ExceptionManager -->
<g id="edge16" class="edge"><title>Core_App&#45;&gt;Core_ExceptionManager</title>
<path fill="none" stroke="black" stroke-dasharray="1,5" d="M499.72,-1130.79C513.229,-1133 529.938,-1135.52 544.974,-1137.16 576.921,-1140.66 806.918,-1138.23 833.589,-1156.16 863.942,-1176.57 842.278,-1205.84 869.589,-1230.16 873.754,-1233.87 878.459,-1237.08 883.44,-1239.85"/>
<polygon fill="black" stroke="black" points="882.128,-1243.11 892.646,-1244.39 885.22,-1236.83 882.128,-1243.11"/>
</g>
<!-- Core_App&#45;&gt;Core_View -->
<g id="edge19" class="edge"><title>Core_App&#45;&gt;Core_View</title>
<path fill="none" stroke="black" stroke-dasharray="1,5" d="M475.411,-1109.53C482.545,-1058.5 506.779,-905.906 544.974,-877.165 596.222,-838.601 773.104,-855.833 833.589,-877.165 852.965,-883.998 851.635,-896.176 869.589,-906.165 882.314,-913.244 897.234,-918.991 910.534,-923.335"/>
<polygon fill="black" stroke="black" points="909.738,-926.753 920.327,-926.382 911.818,-920.069 909.738,-926.753"/>
</g>
<!-- Core_App&#45;&gt;Core_Configer -->
<g id="edge14" class="edge"><title>Core_App&#45;&gt;Core_Configer</title>
<path fill="none" stroke="black" stroke-dasharray="1,5" d="M475.762,-1109.63C483.635,-1061.05 509.175,-920.563 544.974,-894.165 570.784,-875.132 806.014,-877.795 833.589,-894.165 862.321,-911.221 844.128,-938.528 869.589,-960.165 879.725,-968.777 892.783,-974.705 905.257,-978.757"/>
<polygon fill="black" stroke="black" points="904.488,-982.179 915.068,-981.621 906.45,-975.459 904.488,-982.179"/>
</g>
<!-- Core_Logger -->
<g id="node9" class="node"><title>Core_Logger</title>
<polygon fill="none" stroke="black" points="975.582,-1221.16 919.582,-1221.16 919.582,-1217.16 915.582,-1217.16 915.582,-1213.16 919.582,-1213.16 919.582,-1193.16 915.582,-1193.16 915.582,-1189.16 919.582,-1189.16 919.582,-1185.16 975.582,-1185.16 975.582,-1221.16"/>
<polyline fill="none" stroke="black" points="919.582,-1217.16 923.582,-1217.16 923.582,-1213.16 919.582,-1213.16 "/>
<polyline fill="none" stroke="black" points="919.582,-1193.16 923.582,-1193.16 923.582,-1189.16 919.582,-1189.16 "/>
<text text-anchor="middle" x="947.582" y="-1199.46" font-family="Times,serif" font-size="14.00">Logger</text>
</g>
<!-- Core_App&#45;&gt;Core_Logger -->
<g id="edge15" class="edge"><title>Core_App&#45;&gt;Core_Logger</title>
<path fill="none" stroke="black" stroke-dasharray="1,5" d="M505.645,-1124.6C582.808,-1121.33 775.208,-1116.04 833.589,-1141.16 854.087,-1149.99 850.615,-1164.42 869.589,-1176.16 881.778,-1183.71 896.363,-1189.51 909.544,-1193.76"/>
<polygon fill="black" stroke="black" points="908.701,-1197.17 919.287,-1196.72 910.733,-1190.47 908.701,-1197.17"/>
</g>
<!-- Core_App&#45;&gt;Core_Route -->
<g id="edge17" class="edge"><title>Core_App&#45;&gt;Core_Route</title>
<path fill="none" stroke="black" stroke-dasharray="1,5" d="M502.782,-1123.07C564.527,-1117.19 711.541,-1106.27 833.589,-1121.16 860.381,-1124.43 889.969,-1131.91 912.146,-1138.32"/>
<polygon fill="black" stroke="black" points="911.195,-1141.69 921.777,-1141.17 913.18,-1134.97 911.195,-1141.69"/>
</g>
<!-- Core_RuntimeState -->
<g id="node11" class="node"><title>Core_RuntimeState</title>
<polygon fill="none" stroke="black" points="993.082,-1113.16 902.082,-1113.16 902.082,-1109.16 898.082,-1109.16 898.082,-1105.16 902.082,-1105.16 902.082,-1085.16 898.082,-1085.16 898.082,-1081.16 902.082,-1081.16 902.082,-1077.16 993.082,-1077.16 993.082,-1113.16"/>
<polyline fill="none" stroke="black" points="902.082,-1109.16 906.082,-1109.16 906.082,-1105.16 902.082,-1105.16 "/>
<polyline fill="none" stroke="black" points="902.082,-1085.16 906.082,-1085.16 906.082,-1081.16 902.082,-1081.16 "/>
<text text-anchor="middle" x="947.582" y="-1091.46" font-family="Times,serif" font-size="14.00">RuntimeState</text>
</g>
<!-- Core_App&#45;&gt;Core_RuntimeState -->
<g id="edge18" class="edge"><title>Core_App&#45;&gt;Core_RuntimeState</title>
<path fill="none" stroke="black" stroke-dasharray="1,5" d="M476.111,-1109.65C482.445,-1079.24 500.654,-1015.07 544.974,-988.165 572.386,-971.523 806.66,-970.752 833.589,-988.165 866.331,-1009.33 840.865,-1041.8 869.589,-1068.16 876.11,-1074.15 884.034,-1078.82 892.289,-1082.46"/>
<polygon fill="black" stroke="black" points="891.104,-1085.76 901.691,-1086.16 893.662,-1079.24 891.104,-1085.76"/>
</g>
<!-- Core_SystemWrapperTrait -->
<g id="node12" class="node"><title>Core_SystemWrapperTrait</title>
<polygon fill="none" stroke="black" points="689.282,-1087.16 568.962,-1069.16 689.282,-1051.16 809.601,-1069.16 689.282,-1087.16"/>
<text text-anchor="middle" x="689.282" y="-1065.46" font-family="Times,serif" font-size="14.00">SystemWrapperTrait</text>
</g>
<!-- Core_App&#45;&gt;Core_SystemWrapperTrait -->
<g id="edge12" class="edge"><title>Core_App&#45;&gt;Core_SystemWrapperTrait</title>
<path fill="none" stroke="black" d="M493.424,-1118.42C507.694,-1113.13 527.336,-1106.19 544.974,-1101.16 571.38,-1093.64 600.933,-1086.79 626.311,-1081.37"/>
<polygon fill="black" stroke="black" points="627.117,-1084.77 636.179,-1079.29 625.672,-1077.93 627.117,-1084.77"/>
</g>
<!-- Core_App&#45;&gt;Core_SuperGlobal -->
<g id="edge20" class="edge"><title>Core_App&#45;&gt;Core_SuperGlobal</title>
<path fill="none" stroke="black" stroke-dasharray="1,5" d="M475.19,-1109.62C480.134,-1076.62 496.343,-1003.15 544.974,-972.165 599.062,-937.697 775.32,-945.365 833.589,-972.165 855.926,-982.438 849.294,-1000.29 869.589,-1014.16 877.318,-1019.45 886.188,-1023.8 895.094,-1027.36"/>
<polygon fill="black" stroke="black" points="894.128,-1030.73 904.721,-1030.91 896.549,-1024.16 894.128,-1030.73"/>
</g>
<!-- Core_ExtendableStaticCallTrait -->
<g id="node15" class="node"><title>Core_ExtendableStaticCallTrait</title>
<polygon fill="none" stroke="black" points="689.282,-1349.16 545.166,-1331.16 689.282,-1313.16 833.397,-1331.16 689.282,-1349.16"/>
<text text-anchor="middle" x="689.282" y="-1327.46" font-family="Times,serif" font-size="14.00">ExtendableStaticCallTrait</text>
</g>
<!-- Core_App&#45;&gt;Core_ExtendableStaticCallTrait -->
<g id="edge11" class="edge"><title>Core_App&#45;&gt;Core_ExtendableStaticCallTrait</title>
<path fill="none" stroke="black" d="M474.734,-1142.99C478.928,-1178.73 493.962,-1262.33 544.974,-1304.16 554.86,-1312.27 566.422,-1318.23 578.615,-1322.58"/>
<polygon fill="black" stroke="black" points="577.918,-1326.03 588.508,-1325.72 580.04,-1319.36 577.918,-1326.03"/>
</g>
<!-- Core_ThrowOn -->
<g id="node16" class="node"><title>Core_ThrowOn</title>
<polygon fill="lightgrey" stroke="black" points="689.282,-1295.16 625.938,-1277.16 689.282,-1259.16 752.626,-1277.16 689.282,-1295.16"/>
<polyline fill="none" stroke="black" points="637.481,-1280.44 637.481,-1273.88 "/>
<polyline fill="none" stroke="black" points="677.739,-1262.44 700.825,-1262.44 "/>
<polyline fill="none" stroke="black" points="741.083,-1273.88 741.083,-1280.44 "/>
<polyline fill="none" stroke="black" points="700.825,-1291.88 677.739,-1291.88 "/>
<text text-anchor="middle" x="689.282" y="-1273.46" font-family="Times,serif" font-size="14.00">ThrowOn</text>
</g>
<!-- Core_App&#45;&gt;Core_ThrowOn -->
<g id="edge10" class="edge"><title>Core_App&#45;&gt;Core_ThrowOn</title>
<path fill="none" stroke="black" d="M478.058,-1141.7C486.942,-1167.46 508.358,-1218.81 544.974,-1245.16 567.44,-1261.34 596.631,-1269.55 622.8,-1273.64"/>
<polygon fill="black" stroke="black" points="622.652,-1277.15 633.038,-1275.06 623.614,-1270.22 622.652,-1277.15"/>
</g>
<!-- Core_ComponentBase -->
<g id="node18" class="node"><title>Core_ComponentBase</title>
<polygon fill="none" stroke="black" points="1168.58,-897.165 1065.58,-897.165 1061.58,-893.165 1061.58,-861.165 1164.58,-861.165 1168.58,-865.165 1168.58,-897.165"/>
<polyline fill="none" stroke="black" points="1164.58,-893.165 1061.58,-893.165 "/>
<polyline fill="none" stroke="black" points="1164.58,-893.165 1164.58,-861.165 "/>
<polyline fill="none" stroke="black" points="1164.58,-893.165 1168.58,-897.165 "/>
<text text-anchor="middle" x="1115.08" y="-875.465" font-family="Times,serif" font-size="14.00">ComponentBase</text>
</g>
<!-- Core_App&#45;&gt;Core_ComponentBase -->
<g id="edge22" class="edge"><title>Core_App&#45;&gt;Core_ComponentBase</title>
<path fill="none" stroke="black" stroke-dasharray="1,5" d="M478.826,-1141.16C488.417,-1164.4 510.338,-1208.48 544.974,-1228.16 600.894,-1259.95 781.587,-1212.31 833.589,-1250.16 867.752,-1275.04 834.505,-1314.61 869.589,-1338.16 927.148,-1376.81 972.114,-1382.3 1025.58,-1338.16 1092.63,-1282.8 1109.44,-998.512 1113.13,-907.341"/>
<polygon fill="black" stroke="black" points="1116.64,-907.334 1113.52,-897.208 1109.64,-907.066 1116.64,-907.334"/>
</g>
<!-- Core_Functions -->
<g id="node19" class="node"><title>Core_Functions</title>
<ellipse fill="none" stroke="black" cx="689.282" cy="-1183.16" rx="45.4919" ry="18"/>
<text text-anchor="middle" x="689.282" y="-1179.46" font-family="Times,serif" font-size="14.00">Functions</text>
</g>
<!-- Core_App&#45;&gt;Core_Functions -->
<g id="edge21" class="edge"><title>Core_App&#45;&gt;Core_Functions</title>
<path fill="none" stroke="black" stroke-dasharray="1,5" d="M493.424,-1133.91C507.694,-1139.2 527.336,-1146.14 544.974,-1151.16 575.544,-1159.87 610.332,-1167.69 637.977,-1173.42"/>
<polygon fill="black" stroke="black" points="637.319,-1176.85 647.818,-1175.43 638.722,-1170 637.319,-1176.85"/>
</g>
<!-- Core_Kernel&#45;&gt;Core_AutoLoader -->
<g id="edge1" class="edge"><title>Core_Kernel&#45;&gt;Core_AutoLoader</title>
<path fill="none" stroke="black" d="M727.529,-1011.23C760.188,-1010.01 806.556,-1014.07 833.589,-1042.16 908.984,-1120.52 800.323,-1200.34 869.589,-1284.16 875.037,-1290.76 882.198,-1295.74 889.96,-1299.51"/>
<polygon fill="black" stroke="black" points="888.706,-1302.78 899.282,-1303.4 891.401,-1296.32 888.706,-1302.78"/>
</g>
<!-- Core_Kernel&#45;&gt;Core_ExceptionManager -->
<g id="edge4" class="edge"><title>Core_Kernel&#45;&gt;Core_ExceptionManager</title>
<path fill="none" stroke="black" d="M728.207,-1011.47C760.627,-1010.54 806.248,-1014.9 833.589,-1042.16 893.835,-1102.23 814.048,-1165.72 869.589,-1230.16 872.829,-1233.92 876.624,-1237.16 880.761,-1239.94"/>
<polygon fill="black" stroke="black" points="879.25,-1243.11 889.666,-1245.05 882.733,-1237.04 879.25,-1243.11"/>
</g>
<!-- Core_Kernel&#45;&gt;Core_View -->
<g id="edge7" class="edge"><title>Core_Kernel&#45;&gt;Core_View</title>
<path fill="none" stroke="black" d="M716.268,-1006.85C762.417,-992.086 858.728,-961.272 910.996,-944.55"/>
<polygon fill="black" stroke="black" points="912.07,-947.881 920.528,-941.501 909.937,-941.214 912.07,-947.881"/>
</g>
<!-- Core_Kernel&#45;&gt;Core_Configer -->
<g id="edge2" class="edge"><title>Core_Kernel&#45;&gt;Core_Configer</title>
<path fill="none" stroke="black" d="M727.276,-1011.12C774.386,-1005.98 855.571,-997.107 904.845,-991.724"/>
<polygon fill="black" stroke="black" points="905.291,-995.197 914.852,-990.631 904.531,-988.238 905.291,-995.197"/>
</g>
<!-- Core_Kernel&#45;&gt;Core_Logger -->
<g id="edge3" class="edge"><title>Core_Kernel&#45;&gt;Core_Logger</title>
<path fill="none" stroke="black" d="M729.637,-1011.94C761.615,-1011.55 805.825,-1016.44 833.589,-1042.16 878.825,-1084.08 827.645,-1130.96 869.589,-1176.16 879.901,-1187.28 895.047,-1193.82 909.183,-1197.67"/>
<polygon fill="black" stroke="black" points="908.68,-1201.14 919.215,-1200.02 910.278,-1194.33 908.68,-1201.14"/>
</g>
<!-- Core_Kernel&#45;&gt;Core_Route -->
<g id="edge5" class="edge"><title>Core_Kernel&#45;&gt;Core_Route</title>
<path fill="none" stroke="black" d="M733.098,-1013.22C764.053,-1014.01 805.246,-1019.84 833.589,-1042.16 864.221,-1066.29 840.865,-1095.8 869.589,-1122.16 879.47,-1131.23 892.575,-1137.29 905.167,-1141.32"/>
<polygon fill="black" stroke="black" points="904.508,-1144.77 915.084,-1144.13 906.42,-1138.03 904.508,-1144.77"/>
</g>
<!-- Core_Kernel&#45;&gt;Core_RuntimeState -->
<g id="edge6" class="edge"><title>Core_Kernel&#45;&gt;Core_RuntimeState</title>
<path fill="none" stroke="black" d="M730.577,-1018.01C760.079,-1021.22 800.559,-1027.97 833.589,-1042.16 851.723,-1049.96 852.096,-1059.03 869.589,-1068.16 876.73,-1071.89 884.498,-1075.3 892.263,-1078.34"/>
<polygon fill="black" stroke="black" points="891.097,-1081.64 901.689,-1081.87 893.549,-1075.09 891.097,-1081.64"/>
</g>
<!-- Core_Kernel&#45;&gt;Core_SuperGlobal -->
<g id="edge8" class="edge"><title>Core_Kernel&#45;&gt;Core_SuperGlobal</title>
<path fill="none" stroke="black" d="M728.1,-1019C772.17,-1023.47 845.239,-1030.88 894.617,-1035.89"/>
<polygon fill="black" stroke="black" points="894.473,-1039.4 904.775,-1036.92 895.179,-1032.43 894.473,-1039.4"/>
</g>
<!-- Core_SingletonEx -->
<g id="node4" class="node"><title>Core_SingletonEx</title>
<polygon fill="lightgrey" stroke="black" points="1305.68,-897.165 1229.6,-879.165 1305.68,-861.165 1381.76,-879.165 1305.68,-897.165"/>
<polyline fill="none" stroke="black" points="1241.28,-881.927 1241.28,-876.402 "/>
<polyline fill="none" stroke="black" points="1294.01,-863.927 1317.36,-863.927 "/>
<polyline fill="none" stroke="black" points="1370.09,-876.402 1370.09,-881.927 "/>
<polyline fill="none" stroke="black" points="1317.36,-894.402 1294.01,-894.402 "/>
<text text-anchor="middle" x="1305.68" y="-875.465" font-family="Times,serif" font-size="14.00">SingletonEx</text>
</g>
<!-- Core_View&#45;&gt;Core_ComponentBase -->
<g id="edge31" class="edge"><title>Core_View&#45;&gt;Core_ComponentBase</title>
<path fill="none" stroke="black" stroke-dasharray="1,5" d="M974.805,-924.608C995.423,-917.881 1025.01,-908.227 1051.61,-899.546"/>
<polygon fill="black" stroke="black" points="1052.84,-902.828 1061.26,-896.398 1050.67,-896.173 1052.84,-902.828"/>
</g>
<!-- Core_Configer&#45;&gt;Core_ComponentBase -->
<g id="edge27" class="edge"><title>Core_Configer&#45;&gt;Core_ComponentBase</title>
<path fill="none" stroke="black" stroke-dasharray="1,5" d="M980.202,-979.227C994.641,-974.827 1011.6,-968.529 1025.58,-960.165 1050.53,-945.233 1074.59,-922.495 1091.31,-904.908"/>
<polygon fill="black" stroke="black" points="1094.2,-906.94 1098.45,-897.236 1089.07,-902.171 1094.2,-906.94"/>
</g>
<!-- Core_Logger&#45;&gt;Core_ComponentBase -->
<g id="edge32" class="edge"><title>Core_Logger&#45;&gt;Core_ComponentBase</title>
<path fill="none" stroke="black" stroke-dasharray="1,5" d="M975.821,-1199.9C992.302,-1196.55 1012.58,-1189.8 1025.58,-1176.16 1098.47,-1099.71 1111.61,-965.821 1113.77,-907.575"/>
<polygon fill="black" stroke="black" points="1117.28,-907.388 1114.07,-897.292 1110.28,-907.187 1117.28,-907.388"/>
</g>
<!-- Core_Route&#45;&gt;Core_ComponentBase -->
<g id="edge28" class="edge"><title>Core_Route&#45;&gt;Core_ComponentBase</title>
<path fill="none" stroke="black" stroke-dasharray="1,5" d="M980.831,-1144.42C996.105,-1140.68 1013.59,-1134.01 1025.58,-1122.16 1086.27,-1062.19 1105.63,-957.334 1111.57,-907.292"/>
<polygon fill="black" stroke="black" points="1115.06,-907.522 1112.67,-897.201 1108.1,-906.762 1115.06,-907.522"/>
</g>
<!-- Core_RuntimeState&#45;&gt;Core_ComponentBase -->
<g id="edge30" class="edge"><title>Core_RuntimeState&#45;&gt;Core_ComponentBase</title>
<path fill="none" stroke="black" stroke-dasharray="1,5" d="M993.392,-1086.07C1004.89,-1082.06 1016.54,-1076.33 1025.58,-1068.16 1074.16,-1024.24 1098.26,-948.113 1108.23,-907.161"/>
<polygon fill="black" stroke="black" points="1111.66,-907.843 1110.51,-897.31 1104.84,-906.259 1111.66,-907.843"/>
</g>
<!-- Core_HttpServer -->
<g id="node13" class="node"><title>Core_HttpServer</title>
<polygon fill="lightgrey" stroke="black" points="947.582,-897.165 877.87,-879.165 947.582,-861.165 1017.29,-879.165 947.582,-897.165"/>
<polyline fill="none" stroke="black" points="889.489,-882.165 889.489,-876.165 "/>
<polyline fill="none" stroke="black" points="935.964,-864.165 959.201,-864.165 "/>
<polyline fill="none" stroke="black" points="1005.68,-876.165 1005.68,-882.165 "/>
<polyline fill="none" stroke="black" points="959.201,-894.165 935.964,-894.165 "/>
<text text-anchor="middle" x="947.582" y="-875.465" font-family="Times,serif" font-size="14.00">HttpServer</text>
</g>
<!-- Core_HttpServer&#45;&gt;Core_ComponentBase -->
<g id="edge33" class="edge"><title>Core_HttpServer&#45;&gt;Core_ComponentBase</title>
<path fill="none" stroke="black" stroke-dasharray="1,5" d="M1017.33,-879.165C1028.62,-879.165 1040.26,-879.165 1051.39,-879.165"/>
<polygon fill="black" stroke="black" points="1051.44,-882.665 1061.44,-879.165 1051.44,-875.665 1051.44,-882.665"/>
</g>
<!-- Core_SuperGlobal&#45;&gt;Core_ComponentBase -->
<g id="edge29" class="edge"><title>Core_SuperGlobal&#45;&gt;Core_ComponentBase</title>
<path fill="none" stroke="black" stroke-dasharray="1,5" d="M990.255,-1032.01C1002.48,-1027.94 1015.31,-1022.19 1025.58,-1014.16 1062.42,-985.337 1088.85,-936.702 1102.77,-906.349"/>
<polygon fill="black" stroke="black" points="1105.98,-907.744 1106.85,-897.185 1099.59,-904.897 1105.98,-907.744"/>
</g>
<!-- Core_ComponentInterface -->
<g id="node17" class="node"><title>Core_ComponentInterface</title>
<polygon fill="none" stroke="black" points="1363.68,-951.165 1241.68,-951.165 1241.68,-915.165 1369.68,-915.165 1369.68,-945.165 1363.68,-951.165"/>
<polyline fill="none" stroke="black" points="1363.68,-951.165 1363.68,-945.165 "/>
<polyline fill="none" stroke="black" points="1369.68,-945.165 1363.68,-945.165 "/>
<text text-anchor="middle" x="1305.68" y="-929.465" font-family="Times,serif" font-size="14.00">ComponentInterface</text>
</g>
<!-- Core_ComponentBase&#45;&gt;Core_SingletonEx -->
<g id="edge35" class="edge"><title>Core_ComponentBase&#45;&gt;Core_SingletonEx</title>
<path fill="none" stroke="black" d="M1168.61,-879.165C1184.38,-879.165 1202.09,-879.165 1219.4,-879.165"/>
<polygon fill="black" stroke="black" points="1219.52,-882.665 1229.52,-879.165 1219.52,-875.665 1219.52,-882.665"/>
</g>
<!-- Core_ComponentBase&#45;&gt;Core_ComponentInterface -->
<g id="edge34" class="edge"><title>Core_ComponentBase&#45;&gt;Core_ComponentInterface</title>
<path fill="none" stroke="black" d="M1168.87,-895.581C1180.61,-899.143 1193,-902.838 1204.58,-906.165 1213.34,-908.683 1222.56,-911.263 1231.71,-913.78"/>
<polygon fill="black" stroke="black" points="1231.01,-917.219 1241.58,-916.482 1232.86,-910.467 1231.01,-917.219"/>
</g>
<!-- AppHelper -->
<g id="node20" class="node"><title>AppHelper</title>
<polygon fill="lightgrey" stroke="black" points="116.188,-1278.16 45.6372,-1260.16 116.188,-1242.16 186.739,-1260.16 116.188,-1278.16"/>
<polyline fill="none" stroke="black" points="57.2647,-1263.13 57.2647,-1257.2 "/>
<polyline fill="none" stroke="black" points="104.561,-1245.13 127.816,-1245.13 "/>
<polyline fill="none" stroke="black" points="175.112,-1257.2 175.112,-1263.13 "/>
<polyline fill="none" stroke="black" points="127.816,-1275.2 104.561,-1275.2 "/>
<text text-anchor="middle" x="116.188" y="-1256.46" font-family="Times,serif" font-size="14.00">AppHelper</text>
</g>
<!-- AppHelper&#45;&gt;Core_App -->
<g id="edge36" class="edge"><title>AppHelper&#45;&gt;Core_App</title>
<path fill="none" stroke="black" d="M152.251,-1251.33C226.968,-1232.43 396.026,-1189.32 407.441,-1183.16 424.811,-1173.8 441.331,-1158.8 453.202,-1146.54"/>
<polygon fill="black" stroke="black" points="456.016,-1148.65 460.294,-1138.96 450.905,-1143.87 456.016,-1148.65"/>
</g>
<!-- HelperTrait -->
<g id="node25" class="node"><title>HelperTrait</title>
<polygon fill="none" stroke="black" points="325.909,-1272.16 252.344,-1254.16 325.909,-1236.16 399.474,-1254.16 325.909,-1272.16"/>
<text text-anchor="middle" x="325.909" y="-1250.46" font-family="Times,serif" font-size="14.00">HelperTrait</text>
</g>
<!-- AppHelper&#45;&gt;HelperTrait -->
<g id="edge44" class="edge"><title>AppHelper&#45;&gt;HelperTrait</title>
<path fill="none" stroke="black" d="M179.793,-1258.36C201.853,-1257.72 226.879,-1257 249.86,-1256.33"/>
<polygon fill="black" stroke="black" points="250.018,-1259.83 259.913,-1256.04 249.816,-1252.83 250.018,-1259.83"/>
</g>
<!-- ControllerHelper -->
<g id="node21" class="node"><title>ControllerHelper</title>
<polygon fill="lightgrey" stroke="black" points="116.188,-1224.16 15.8115,-1206.16 116.188,-1188.16 216.565,-1206.16 116.188,-1224.16"/>
<polyline fill="none" stroke="black" points="27.6231,-1208.28 27.6231,-1204.05 "/>
<polyline fill="none" stroke="black" points="104.377,-1190.28 128,-1190.28 "/>
<polyline fill="none" stroke="black" points="204.753,-1204.05 204.753,-1208.28 "/>
<polyline fill="none" stroke="black" points="128,-1222.05 104.377,-1222.05 "/>
<text text-anchor="middle" x="116.188" y="-1202.46" font-family="Times,serif" font-size="14.00">ControllerHelper</text>
</g>
<!-- ControllerHelper&#45;&gt;Core_App -->
<g id="edge37" class="edge"><title>ControllerHelper&#45;&gt;Core_App</title>
<path fill="none" stroke="black" d="M174.379,-1198.55C233.456,-1189.93 327.971,-1174.06 407.441,-1151.16 419.339,-1147.74 432.108,-1142.96 443.07,-1138.5"/>
<polygon fill="black" stroke="black" points="444.674,-1141.63 452.553,-1134.54 441.977,-1135.17 444.674,-1141.63"/>
</g>
<!-- ControllerHelper&#45;&gt;HelperTrait -->
<g id="edge45" class="edge"><title>ControllerHelper&#45;&gt;HelperTrait</title>
<path fill="none" stroke="black" d="M160.733,-1216.23C194.841,-1224.11 242.228,-1235.06 277.329,-1243.17"/>
<polygon fill="black" stroke="black" points="276.809,-1246.64 287.34,-1245.48 278.385,-1239.82 276.809,-1246.64"/>
</g>
<!-- ModelHelper -->
<g id="node22" class="node"><title>ModelHelper</title>
<polygon fill="lightgrey" stroke="black" points="116.188,-1170.16 34.5777,-1152.16 116.188,-1134.16 197.799,-1152.16 116.188,-1170.16"/>
<polyline fill="none" stroke="black" points="46.296,-1154.75 46.296,-1149.58 "/>
<polyline fill="none" stroke="black" points="104.47,-1136.75 127.906,-1136.75 "/>
<polyline fill="none" stroke="black" points="186.08,-1149.58 186.08,-1154.75 "/>
<polyline fill="none" stroke="black" points="127.906,-1167.58 104.47,-1167.58 "/>
<text text-anchor="middle" x="116.188" y="-1148.46" font-family="Times,serif" font-size="14.00">ModelHelper</text>
</g>
<!-- ModelHelper&#45;&gt;Core_App -->
<g id="edge38" class="edge"><title>ModelHelper&#45;&gt;Core_App</title>
<path fill="none" stroke="black" d="M178.046,-1147.7C249.996,-1142.41 367.786,-1133.76 429.893,-1129.2"/>
<polygon fill="black" stroke="black" points="430.376,-1132.67 440.093,-1128.45 429.863,-1125.69 430.376,-1132.67"/>
</g>
<!-- ModelHelper&#45;&gt;HelperTrait -->
<g id="edge46" class="edge"><title>ModelHelper&#45;&gt;HelperTrait</title>
<path fill="none" stroke="black" d="M160.295,-1160.54C178.137,-1164.85 198.737,-1170.96 216.376,-1179.16 247.729,-1193.74 279.845,-1217.21 300.922,-1234.01"/>
<polygon fill="black" stroke="black" points="298.731,-1236.74 308.705,-1240.31 303.136,-1231.3 298.731,-1236.74"/>
</g>
<!-- ServiceHelper -->
<g id="node23" class="node"><title>ServiceHelper</title>
<polygon fill="lightgrey" stroke="black" points="116.188,-1116.16 29.8865,-1098.16 116.188,-1080.16 202.49,-1098.16 116.188,-1116.16"/>
<polyline fill="none" stroke="black" points="41.6337,-1100.61 41.6337,-1095.71 "/>
<polyline fill="none" stroke="black" points="104.441,-1082.61 127.935,-1082.61 "/>
<polyline fill="none" stroke="black" points="190.743,-1095.71 190.743,-1100.61 "/>
<polyline fill="none" stroke="black" points="127.935,-1113.71 104.441,-1113.71 "/>
<text text-anchor="middle" x="116.188" y="-1094.46" font-family="Times,serif" font-size="14.00">ServiceHelper</text>
</g>
<!-- ServiceHelper&#45;&gt;Core_App -->
<g id="edge39" class="edge"><title>ServiceHelper&#45;&gt;Core_App</title>
<path fill="none" stroke="black" d="M179.259,-1103.07C251.43,-1108.78 368.514,-1118.04 430.194,-1122.92"/>
<polygon fill="black" stroke="black" points="430.078,-1126.42 440.323,-1123.72 430.63,-1119.44 430.078,-1126.42"/>
</g>
<!-- ServiceHelper&#45;&gt;HelperTrait -->
<g id="edge47" class="edge"><title>ServiceHelper&#45;&gt;HelperTrait</title>
<path fill="none" stroke="black" d="M167.056,-1105.56C183.648,-1109.58 201.638,-1115.75 216.376,-1125.16 258.438,-1152.04 292.625,-1200.36 310.762,-1229.62"/>
<polygon fill="black" stroke="black" points="307.904,-1231.66 316.076,-1238.4 313.893,-1228.03 307.904,-1231.66"/>
</g>
<!-- ViewHelper -->
<g id="node24" class="node"><title>ViewHelper</title>
<polygon fill="lightgrey" stroke="black" points="116.188,-1062.16 40.1075,-1044.16 116.188,-1026.16 192.269,-1044.16 116.188,-1062.16"/>
<polyline fill="none" stroke="black" points="51.7851,-1046.93 51.7851,-1041.4 "/>
<polyline fill="none" stroke="black" points="104.511,-1028.93 127.866,-1028.93 "/>
<polyline fill="none" stroke="black" points="180.591,-1041.4 180.591,-1046.93 "/>
<polyline fill="none" stroke="black" points="127.866,-1059.4 104.511,-1059.4 "/>
<text text-anchor="middle" x="116.188" y="-1040.46" font-family="Times,serif" font-size="14.00">ViewHelper</text>
</g>
<!-- ViewHelper&#45;&gt;Core_App -->
<g id="edge40" class="edge"><title>ViewHelper&#45;&gt;Core_App</title>
<path fill="none" stroke="black" d="M160.818,-1051.77C217.922,-1062.08 320.918,-1081.9 407.441,-1105.16 418.445,-1108.12 430.343,-1111.88 440.848,-1115.4"/>
<polygon fill="black" stroke="black" points="439.824,-1118.75 450.419,-1118.67 442.085,-1112.13 439.824,-1118.75"/>
</g>
<!-- ViewHelper&#45;&gt;HelperTrait -->
<g id="edge48" class="edge"><title>ViewHelper&#45;&gt;HelperTrait</title>
<path fill="none" stroke="black" d="M167.485,-1050.1C184.299,-1054 202.318,-1060.46 216.376,-1071.16 270.182,-1112.12 302.535,-1188.08 316.602,-1228.04"/>
<polygon fill="black" stroke="black" points="313.324,-1229.27 319.862,-1237.61 319.95,-1227.01 313.324,-1229.27"/>
</g>
<!-- HelperTrait&#45;&gt;Core_App -->
<g id="edge41" class="edge"><title>HelperTrait&#45;&gt;Core_App</title>
<path fill="none" stroke="black" d="M362.666,-1245.12C377.607,-1240.1 394.471,-1232.68 407.441,-1222.16 431.565,-1202.6 449.878,-1171.47 460.558,-1149.99"/>
<polygon fill="black" stroke="black" points="463.76,-1151.4 464.921,-1140.87 457.447,-1148.38 463.76,-1151.4"/>
</g>
<!-- HelperTrait&#45;&gt;Core_ExtendableStaticCallTrait -->
<g id="edge42" class="edge"><title>HelperTrait&#45;&gt;Core_ExtendableStaticCallTrait</title>
<path fill="none" stroke="black" d="M363.467,-1263.01C406.706,-1273.36 480.908,-1290.79 544.974,-1304.16 569.153,-1309.21 595.717,-1314.33 619.336,-1318.74"/>
<polygon fill="black" stroke="black" points="618.791,-1322.2 629.262,-1320.58 620.069,-1315.32 618.791,-1322.2"/>
</g>
<!-- HelperTrait&#45;&gt;Core_ThrowOn -->
<g id="edge43" class="edge"><title>HelperTrait&#45;&gt;Core_ThrowOn</title>
<path fill="none" stroke="black" d="M384.569,-1257.83C450.908,-1262.06 559.381,-1268.96 627.149,-1273.27"/>
<polygon fill="black" stroke="black" points="627.051,-1276.77 637.253,-1273.92 627.495,-1269.79 627.051,-1276.77"/>
</g>
<!-- DB_DB -->
<g id="node26" class="node"><title>DB_DB</title>
<ellipse fill="none" stroke="black" cx="1115.08" cy="-66.1647" rx="27" ry="18"/>
<text text-anchor="middle" x="1115.08" y="-62.4647" font-family="Times,serif" font-size="14.00">DB</text>
</g>
<!-- DB_DBAdvanceTrait -->
<g id="node27" class="node"><title>DB_DBAdvanceTrait</title>
<polygon fill="none" stroke="black" points="1305.68,-57.1647 1204.47,-39.1647 1305.68,-21.1647 1406.9,-39.1647 1305.68,-57.1647"/>
<text text-anchor="middle" x="1305.68" y="-35.4647" font-family="Times,serif" font-size="14.00">DBAdvanceTrait</text>
</g>
<!-- DB_DB&#45;&gt;DB_DBAdvanceTrait -->
<g id="edge49" class="edge"><title>DB_DB&#45;&gt;DB_DBAdvanceTrait</title>
<path fill="none" stroke="black" d="M1141.91,-62.467C1166.77,-58.9069 1205.43,-53.3736 1238.83,-48.5922"/>
<polygon fill="black" stroke="black" points="1239.6,-52.0173 1249,-47.1354 1238.61,-45.088 1239.6,-52.0173"/>
</g>
<!-- DB_DBInterface -->
<g id="node28" class="node"><title>DB_DBInterface</title>
<polygon fill="none" stroke="black" points="1341.18,-111.165 1264.18,-111.165 1264.18,-75.1647 1347.18,-75.1647 1347.18,-105.165 1341.18,-111.165"/>
<polyline fill="none" stroke="black" points="1341.18,-111.165 1341.18,-105.165 "/>
<polyline fill="none" stroke="black" points="1347.18,-105.165 1341.18,-105.165 "/>
<text text-anchor="middle" x="1305.68" y="-89.4647" font-family="Times,serif" font-size="14.00">DBInterface</text>
</g>
<!-- DB_DB&#45;&gt;DB_DBInterface -->
<g id="edge50" class="edge"><title>DB_DB&#45;&gt;DB_DBInterface</title>
<path fill="none" stroke="black" d="M1141.91,-69.8623C1170.55,-73.9635 1217.5,-80.6835 1253.63,-85.8558"/>
<polygon fill="black" stroke="black" points="1253.59,-89.3858 1263.98,-87.3383 1254.58,-82.4564 1253.59,-89.3858"/>
</g>
<!-- CallableView -->
<g id="node29" class="node"><title>CallableView</title>
<polygon fill="none" stroke="black" points="734.782,-786.165 643.782,-786.165 643.782,-782.165 639.782,-782.165 639.782,-778.165 643.782,-778.165 643.782,-758.165 639.782,-758.165 639.782,-754.165 643.782,-754.165 643.782,-750.165 734.782,-750.165 734.782,-786.165"/>
<polyline fill="none" stroke="black" points="643.782,-782.165 647.782,-782.165 647.782,-778.165 643.782,-778.165 "/>
<polyline fill="none" stroke="black" points="643.782,-758.165 647.782,-758.165 647.782,-754.165 643.782,-754.165 "/>
<text text-anchor="middle" x="689.282" y="-764.465" font-family="Times,serif" font-size="14.00">CallableView</text>
</g>
<!-- CallableView&#45;&gt;Core_View -->
<g id="edge52" class="edge"><title>CallableView&#45;&gt;Core_View</title>
<path fill="none" stroke="black" d="M734.695,-786.29C765.045,-800.244 804.822,-821.77 833.589,-849.165 855.288,-869.828 846.148,-887.502 869.589,-906.165 881.45,-915.607 896.85,-921.873 910.757,-925.969"/>
<polygon fill="black" stroke="black" points="909.983,-929.385 920.548,-928.582 911.788,-922.622 909.983,-929.385"/>
</g>
<!-- DBManager -->
<g id="node30" class="node"><title>DBManager</title>
<polygon fill="none" stroke="black" points="989.582,-84.1647 905.582,-84.1647 905.582,-80.1647 901.582,-80.1647 901.582,-76.1647 905.582,-76.1647 905.582,-56.1647 901.582,-56.1647 901.582,-52.1647 905.582,-52.1647 905.582,-48.1647 989.582,-48.1647 989.582,-84.1647"/>
<polyline fill="none" stroke="black" points="905.582,-80.1647 909.582,-80.1647 909.582,-76.1647 905.582,-76.1647 "/>
<polyline fill="none" stroke="black" points="905.582,-56.1647 909.582,-56.1647 909.582,-52.1647 905.582,-52.1647 "/>
<text text-anchor="middle" x="947.582" y="-62.4647" font-family="Times,serif" font-size="14.00">DBManager</text>
</g>
<!-- DBManager&#45;&gt;Core_ComponentBase -->
<g id="edge72" class="edge"><title>DBManager&#45;&gt;Core_ComponentBase</title>
<path fill="none" stroke="black" stroke-dasharray="1,5" d="M986.974,-84.2551C1001.43,-93.0419 1016.55,-105.019 1025.58,-120.165 1101.33,-247.229 1112.26,-728.935 1113.82,-850.945"/>
<polygon fill="black" stroke="black" points="1110.32,-851.031 1113.94,-860.989 1117.32,-850.949 1110.32,-851.031"/>
</g>
<!-- DBManager&#45;&gt;DB_DB -->
<g id="edge51" class="edge"><title>DBManager&#45;&gt;DB_DB</title>
<path fill="none" stroke="black" d="M989.916,-66.1647C1016.84,-66.1647 1051.65,-66.1647 1077.56,-66.1647"/>
<polygon fill="black" stroke="black" points="1077.72,-69.6648 1087.72,-66.1647 1077.72,-62.6648 1077.72,-69.6648"/>
</g>
<!-- DBReusePoolProxy -->
<g id="node31" class="node"><title>DBReusePoolProxy</title>
<polygon fill="none" stroke="black" points="751.782,-84.1647 626.782,-84.1647 626.782,-80.1647 622.782,-80.1647 622.782,-76.1647 626.782,-76.1647 626.782,-56.1647 622.782,-56.1647 622.782,-52.1647 626.782,-52.1647 626.782,-48.1647 751.782,-48.1647 751.782,-84.1647"/>
<polyline fill="none" stroke="black" points="626.782,-80.1647 630.782,-80.1647 630.782,-76.1647 626.782,-76.1647 "/>
<polyline fill="none" stroke="black" points="626.782,-56.1647 630.782,-56.1647 630.782,-52.1647 626.782,-52.1647 "/>
<text text-anchor="middle" x="689.282" y="-62.4647" font-family="Times,serif" font-size="14.00">DBReusePoolProxy</text>
</g>
<!-- DBReusePoolProxy&#45;&gt;DBManager -->
<g id="edge53" class="edge"><title>DBReusePoolProxy&#45;&gt;DBManager</title>
<path fill="none" stroke="black" d="M751.998,-66.1647C795.831,-66.1647 853.997,-66.1647 895.285,-66.1647"/>
<polygon fill="black" stroke="black" points="895.399,-69.6648 905.399,-66.1647 895.399,-62.6648 895.399,-69.6648"/>
</g>
<!-- FacadesAutoLoader -->
<g id="node32" class="node"><title>FacadesAutoLoader</title>
<polygon fill="none" stroke="black" points="1010.08,-165.165 885.082,-165.165 885.082,-161.165 881.082,-161.165 881.082,-157.165 885.082,-157.165 885.082,-137.165 881.082,-137.165 881.082,-133.165 885.082,-133.165 885.082,-129.165 1010.08,-129.165 1010.08,-165.165"/>
<polyline fill="none" stroke="black" points="885.082,-161.165 889.082,-161.165 889.082,-157.165 885.082,-157.165 "/>
<polyline fill="none" stroke="black" points="885.082,-137.165 889.082,-137.165 889.082,-133.165 885.082,-133.165 "/>
<text text-anchor="middle" x="947.582" y="-143.465" font-family="Times,serif" font-size="14.00">FacadesAutoLoader</text>
</g>
<!-- FacadesAutoLoader&#45;&gt;Core_ComponentBase -->
<g id="edge60" class="edge"><title>FacadesAutoLoader&#45;&gt;Core_ComponentBase</title>
<path fill="none" stroke="black" stroke-dasharray="1,5" d="M986.87,-165.318C1001.31,-174.114 1016.44,-186.081 1025.58,-201.165 1093.49,-313.315 1110.09,-736.723 1113.37,-850.739"/>
<polygon fill="black" stroke="black" points="1109.88,-851.177 1113.65,-861.077 1116.88,-850.984 1109.88,-851.177"/>
</g>
<!-- FacadesBase -->
<g id="node33" class="node"><title>FacadesBase</title>
<ellipse fill="none" stroke="black" cx="689.282" cy="-120.165" rx="55.7903" ry="18"/>
<text text-anchor="middle" x="689.282" y="-116.465" font-family="Times,serif" font-size="14.00">FacadesBase</text>
</g>
<!-- FacadesBase&#45;&gt;FacadesAutoLoader -->
<g id="edge55" class="edge"><title>FacadesBase&#45;&gt;FacadesAutoLoader</title>
<path fill="none" stroke="black" d="M742.766,-125.694C780.785,-129.699 832.647,-135.162 874.54,-139.575"/>
<polygon fill="black" stroke="black" points="874.374,-143.077 884.686,-140.644 875.108,-136.116 874.374,-143.077"/>
</g>
<!-- JsonRpcClientBase -->
<g id="node34" class="node"><title>JsonRpcClientBase</title>
<ellipse fill="none" stroke="black" cx="689.282" cy="-282.165" rx="79.0865" ry="18"/>
<text text-anchor="middle" x="689.282" y="-278.465" font-family="Times,serif" font-size="14.00">JsonRpcClientBase</text>
</g>
<!-- JsonRpcExt -->
<g id="node35" class="node"><title>JsonRpcExt</title>
<polygon fill="none" stroke="black" points="988.082,-300.165 907.082,-300.165 907.082,-296.165 903.082,-296.165 903.082,-292.165 907.082,-292.165 907.082,-272.165 903.082,-272.165 903.082,-268.165 907.082,-268.165 907.082,-264.165 988.082,-264.165 988.082,-300.165"/>
<polyline fill="none" stroke="black" points="907.082,-296.165 911.082,-296.165 911.082,-292.165 907.082,-292.165 "/>
<polyline fill="none" stroke="black" points="907.082,-272.165 911.082,-272.165 911.082,-268.165 907.082,-268.165 "/>
<text text-anchor="middle" x="947.582" y="-278.465" font-family="Times,serif" font-size="14.00">JsonRpcExt</text>
</g>
<!-- JsonRpcClientBase&#45;&gt;JsonRpcExt -->
<g id="edge54" class="edge"><title>JsonRpcClientBase&#45;&gt;JsonRpcExt</title>
<path fill="none" stroke="black" d="M768.922,-282.165C810.44,-282.165 860.151,-282.165 896.417,-282.165"/>
<polygon fill="black" stroke="black" points="896.743,-285.665 906.743,-282.165 896.743,-278.665 896.743,-285.665"/>
</g>
<!-- JsonRpcExt&#45;&gt;Core_ComponentBase -->
<g id="edge61" class="edge"><title>JsonRpcExt&#45;&gt;Core_ComponentBase</title>
<path fill="none" stroke="black" stroke-dasharray="1,5" d="M988.217,-287.549C1001.96,-291.386 1016.25,-297.947 1025.58,-309.165 1095.39,-393.11 1110.48,-747.598 1113.42,-850.841"/>
<polygon fill="black" stroke="black" points="1109.93,-851.198 1113.7,-861.1 1116.93,-851.01 1109.93,-851.198"/>
</g>
<!-- Misc -->
<g id="node36" class="node"><title>Misc</title>
<polygon fill="none" stroke="black" points="716.282,-570.165 662.282,-570.165 662.282,-566.165 658.282,-566.165 658.282,-562.165 662.282,-562.165 662.282,-542.165 658.282,-542.165 658.282,-538.165 662.282,-538.165 662.282,-534.165 716.282,-534.165 716.282,-570.165"/>
<polyline fill="none" stroke="black" points="662.282,-566.165 666.282,-566.165 666.282,-562.165 662.282,-562.165 "/>
<polyline fill="none" stroke="black" points="662.282,-542.165 666.282,-542.165 666.282,-538.165 662.282,-538.165 "/>
<text text-anchor="middle" x="689.282" y="-548.465" font-family="Times,serif" font-size="14.00">Misc</text>
</g>
<!-- Misc&#45;&gt;Core_ComponentBase -->
<g id="edge63" class="edge"><title>Misc&#45;&gt;Core_ComponentBase</title>
<path fill="none" stroke="black" stroke-dasharray="1,5" d="M716.357,-551.168C746.949,-551.249 798.006,-555.405 833.589,-579.165 857.886,-595.388 845.78,-617.234 869.589,-634.165 927.828,-675.576 971.15,-626.855 1025.58,-673.165 1080.35,-719.772 1102.16,-806.41 1110.06,-851.017"/>
<polygon fill="black" stroke="black" points="1106.65,-851.855 1111.74,-861.147 1113.55,-850.709 1106.65,-851.855"/>
</g>
<!-- Pager -->
<g id="node37" class="node"><title>Pager</title>
<polygon fill="none" stroke="black" points="716.282,-408.165 662.282,-408.165 662.282,-404.165 658.282,-404.165 658.282,-400.165 662.282,-400.165 662.282,-380.165 658.282,-380.165 658.282,-376.165 662.282,-376.165 662.282,-372.165 716.282,-372.165 716.282,-408.165"/>
<polyline fill="none" stroke="black" points="662.282,-404.165 666.282,-404.165 666.282,-400.165 662.282,-400.165 "/>
<polyline fill="none" stroke="black" points="662.282,-380.165 666.282,-380.165 666.282,-376.165 662.282,-376.165 "/>
<text text-anchor="middle" x="689.282" y="-386.465" font-family="Times,serif" font-size="14.00">Pager</text>
</g>
<!-- Pager&#45;&gt;Core_ComponentBase -->
<g id="edge62" class="edge"><title>Pager&#45;&gt;Core_ComponentBase</title>
<path fill="none" stroke="black" stroke-dasharray="1,5" d="M716.455,-387.951C747.854,-386.749 800.403,-389.56 833.589,-417.165 867.664,-445.508 836.805,-480.338 869.589,-510.165 922.871,-558.639 974.872,-502.999 1025.58,-554.165 1107.7,-637.04 1115.57,-788.147 1115.05,-850.789"/>
<polygon fill="black" stroke="black" points="1111.54,-851.025 1114.87,-861.082 1118.54,-851.141 1111.54,-851.025"/>
</g>
<!-- PagerInterface -->
<g id="node38" class="node"><title>PagerInterface</title>
<polygon fill="none" stroke="black" points="989.082,-408.165 900.082,-408.165 900.082,-372.165 995.082,-372.165 995.082,-402.165 989.082,-408.165"/>
<polyline fill="none" stroke="black" points="989.082,-408.165 989.082,-402.165 "/>
<polyline fill="none" stroke="black" points="995.082,-402.165 989.082,-402.165 "/>
<text text-anchor="middle" x="947.582" y="-386.465" font-family="Times,serif" font-size="14.00">PagerInterface</text>
</g>
<!-- Pager&#45;&gt;PagerInterface -->
<g id="edge56" class="edge"><title>Pager&#45;&gt;PagerInterface</title>
<path fill="none" stroke="black" d="M716.745,-390.165C757.358,-390.165 835.998,-390.165 889.877,-390.165"/>
<polygon fill="black" stroke="black" points="889.969,-393.665 899.969,-390.165 889.969,-386.665 889.969,-393.665"/>
</g>
<!-- PluginForSwooleHttpd -->
<g id="node39" class="node"><title>PluginForSwooleHttpd</title>
<polygon fill="none" stroke="black" points="760.282,-516.165 618.282,-516.165 618.282,-512.165 614.282,-512.165 614.282,-508.165 618.282,-508.165 618.282,-488.165 614.282,-488.165 614.282,-484.165 618.282,-484.165 618.282,-480.165 760.282,-480.165 760.282,-516.165"/>
<polyline fill="none" stroke="black" points="618.282,-512.165 622.282,-512.165 622.282,-508.165 618.282,-508.165 "/>
<polyline fill="none" stroke="black" points="618.282,-488.165 622.282,-488.165 622.282,-484.165 618.282,-484.165 "/>
<text text-anchor="middle" x="689.282" y="-494.465" font-family="Times,serif" font-size="14.00">PluginForSwooleHttpd</text>
</g>
<!-- PluginForSwooleHttpd&#45;&gt;Core_ComponentBase -->
<g id="edge66" class="edge"><title>PluginForSwooleHttpd&#45;&gt;Core_ComponentBase</title>
<path fill="none" stroke="black" stroke-dasharray="1,5" d="M760.631,-498.907C785.673,-502.226 812.79,-509.646 833.589,-525.165 861.629,-546.085 842.176,-573.429 869.589,-595.165 925.585,-639.563 972.543,-586.266 1025.58,-634.165 1089.65,-692.038 1107.38,-799.856 1112.25,-850.935"/>
<polygon fill="black" stroke="black" points="1108.76,-851.27 1113.1,-860.935 1115.74,-850.672 1108.76,-851.27"/>
</g>
<!-- RedisManager -->
<g id="node40" class="node"><title>RedisManager</title>
<polygon fill="none" stroke="black" points="995.582,-354.165 899.582,-354.165 899.582,-350.165 895.582,-350.165 895.582,-346.165 899.582,-346.165 899.582,-326.165 895.582,-326.165 895.582,-322.165 899.582,-322.165 899.582,-318.165 995.582,-318.165 995.582,-354.165"/>
<polyline fill="none" stroke="black" points="899.582,-350.165 903.582,-350.165 903.582,-346.165 899.582,-346.165 "/>
<polyline fill="none" stroke="black" points="899.582,-326.165 903.582,-326.165 903.582,-322.165 899.582,-322.165 "/>
<text text-anchor="middle" x="947.582" y="-332.465" font-family="Times,serif" font-size="14.00">RedisManager</text>
</g>
<!-- RedisManager&#45;&gt;Core_ComponentBase -->
<g id="edge65" class="edge"><title>RedisManager&#45;&gt;Core_ComponentBase</title>
<path fill="none" stroke="black" stroke-dasharray="1,5" d="M995.746,-344.045C1006.97,-348.046 1017.89,-354.077 1025.58,-363.165 1088.92,-438.112 1108.37,-753.731 1112.91,-850.703"/>
<polygon fill="black" stroke="black" points="1109.42,-851.082 1113.37,-860.914 1116.41,-850.767 1109.42,-851.082"/>
</g>
<!-- RedisSimpleCache -->
<g id="node41" class="node"><title>RedisSimpleCache</title>
<polygon fill="none" stroke="black" points="749.282,-354.165 629.282,-354.165 629.282,-350.165 625.282,-350.165 625.282,-346.165 629.282,-346.165 629.282,-326.165 625.282,-326.165 625.282,-322.165 629.282,-322.165 629.282,-318.165 749.282,-318.165 749.282,-354.165"/>
<polyline fill="none" stroke="black" points="629.282,-350.165 633.282,-350.165 633.282,-346.165 629.282,-346.165 "/>
<polyline fill="none" stroke="black" points="629.282,-326.165 633.282,-326.165 633.282,-322.165 629.282,-322.165 "/>
<text text-anchor="middle" x="689.282" y="-332.465" font-family="Times,serif" font-size="14.00">RedisSimpleCache</text>
</g>
<!-- RedisSimpleCache&#45;&gt;Core_ComponentBase -->
<g id="edge64" class="edge"><title>RedisSimpleCache&#45;&gt;Core_ComponentBase</title>
<path fill="none" stroke="black" stroke-dasharray="1,5" d="M749.3,-336.944C776.829,-339.775 808.886,-346.82 833.589,-363.165 857.645,-379.081 848.686,-397.289 869.589,-417.165 928.082,-472.782 977.745,-445.15 1025.58,-510.165 1104.35,-617.234 1113.92,-784.747 1114.45,-850.916"/>
<polygon fill="black" stroke="black" points="1110.95,-851.001 1114.46,-860.997 1117.95,-850.992 1110.95,-851.001"/>
</g>
<!-- RedisSimpleCache&#45;&gt;RedisManager -->
<g id="edge57" class="edge"><title>RedisSimpleCache&#45;&gt;RedisManager</title>
<path fill="none" stroke="black" d="M749.404,-336.165C791.38,-336.165 847.44,-336.165 889.054,-336.165"/>
<polygon fill="black" stroke="black" points="889.305,-339.665 899.305,-336.165 889.305,-332.665 889.305,-339.665"/>
</g>
<!-- RouteHookDirectoryMode -->
<g id="node42" class="node"><title>RouteHookDirectoryMode</title>
<polygon fill="none" stroke="black" points="770.782,-462.165 607.782,-462.165 607.782,-458.165 603.782,-458.165 603.782,-454.165 607.782,-454.165 607.782,-434.165 603.782,-434.165 603.782,-430.165 607.782,-430.165 607.782,-426.165 770.782,-426.165 770.782,-462.165"/>
<polyline fill="none" stroke="black" points="607.782,-458.165 611.782,-458.165 611.782,-454.165 607.782,-454.165 "/>
<polyline fill="none" stroke="black" points="607.782,-434.165 611.782,-434.165 611.782,-430.165 607.782,-430.165 "/>
<text text-anchor="middle" x="689.282" y="-440.465" font-family="Times,serif" font-size="14.00">RouteHookDirectoryMode</text>
</g>
<!-- RouteHookDirectoryMode&#45;&gt;Core_ComponentBase -->
<g id="edge68" class="edge"><title>RouteHookDirectoryMode&#45;&gt;Core_ComponentBase</title>
<path fill="none" stroke="black" stroke-dasharray="1,5" d="M770.82,-445.628C793.042,-449.472 815.883,-457.025 833.589,-471.165 865.009,-496.256 839.078,-527.977 869.589,-554.165 923.983,-600.851 973.76,-545.632 1025.58,-595.165 1098.7,-665.065 1111.73,-794.263 1113.82,-851.094"/>
<polygon fill="black" stroke="black" points="1110.33,-851.247 1114.1,-861.145 1117.32,-851.052 1110.33,-851.247"/>
</g>
<!-- RouteHookOneFileMode -->
<g id="node43" class="node"><title>RouteHookOneFileMode</title>
<polygon fill="none" stroke="black" points="766.782,-732.165 611.782,-732.165 611.782,-728.165 607.782,-728.165 607.782,-724.165 611.782,-724.165 611.782,-704.165 607.782,-704.165 607.782,-700.165 611.782,-700.165 611.782,-696.165 766.782,-696.165 766.782,-732.165"/>
<polyline fill="none" stroke="black" points="611.782,-728.165 615.782,-728.165 615.782,-724.165 611.782,-724.165 "/>
<polyline fill="none" stroke="black" points="611.782,-704.165 615.782,-704.165 615.782,-700.165 611.782,-700.165 "/>
<text text-anchor="middle" x="689.282" y="-710.465" font-family="Times,serif" font-size="14.00">RouteHookOneFileMode</text>
</g>
<!-- RouteHookOneFileMode&#45;&gt;Core_ComponentBase -->
<g id="edge69" class="edge"><title>RouteHookOneFileMode&#45;&gt;Core_ComponentBase</title>
<path fill="none" stroke="black" stroke-dasharray="1,5" d="M767.122,-724.685C788.914,-728.728 812.453,-734.12 833.589,-741.165 924.116,-771.338 1022.6,-825.163 1075.41,-855.916"/>
<polygon fill="black" stroke="black" points="1073.71,-858.976 1084.11,-861.013 1077.25,-852.937 1073.71,-858.976"/>
</g>
<!-- RouteHookRewrite -->
<g id="node44" class="node"><title>RouteHookRewrite</title>
<polygon fill="none" stroke="black" points="750.282,-678.165 628.282,-678.165 628.282,-674.165 624.282,-674.165 624.282,-670.165 628.282,-670.165 628.282,-650.165 624.282,-650.165 624.282,-646.165 628.282,-646.165 628.282,-642.165 750.282,-642.165 750.282,-678.165"/>
<polyline fill="none" stroke="black" points="628.282,-674.165 632.282,-674.165 632.282,-670.165 628.282,-670.165 "/>
<polyline fill="none" stroke="black" points="628.282,-650.165 632.282,-650.165 632.282,-646.165 628.282,-646.165 "/>
<text text-anchor="middle" x="689.282" y="-656.465" font-family="Times,serif" font-size="14.00">RouteHookRewrite</text>
</g>
<!-- RouteHookRewrite&#45;&gt;Core_ComponentBase -->
<g id="edge70" class="edge"><title>RouteHookRewrite&#45;&gt;Core_ComponentBase</title>
<path fill="none" stroke="black" stroke-dasharray="1,5" d="M750.377,-666.022C776.62,-669.954 807.332,-676.46 833.589,-687.165 851.396,-694.424 852.051,-703.279 869.589,-711.165 934.968,-740.558 966.805,-711.123 1025.58,-752.165 1061.8,-777.462 1088,-822.65 1102.11,-851.744"/>
<polygon fill="black" stroke="black" points="1099.01,-853.378 1106.43,-860.942 1105.35,-850.403 1099.01,-853.378"/>
</g>
<!-- RouteHookRouteMap -->
<g id="node45" class="node"><title>RouteHookRouteMap</title>
<polygon fill="none" stroke="black" points="757.782,-624.165 620.782,-624.165 620.782,-620.165 616.782,-620.165 616.782,-616.165 620.782,-616.165 620.782,-596.165 616.782,-596.165 616.782,-592.165 620.782,-592.165 620.782,-588.165 757.782,-588.165 757.782,-624.165"/>
<polyline fill="none" stroke="black" points="620.782,-620.165 624.782,-620.165 624.782,-616.165 620.782,-616.165 "/>
<polyline fill="none" stroke="black" points="620.782,-596.165 624.782,-596.165 624.782,-592.165 620.782,-592.165 "/>
<text text-anchor="middle" x="689.282" y="-602.465" font-family="Times,serif" font-size="14.00">RouteHookRouteMap</text>
</g>
<!-- RouteHookRouteMap&#45;&gt;Core_ComponentBase -->
<g id="edge71" class="edge"><title>RouteHookRouteMap&#45;&gt;Core_ComponentBase</title>
<path fill="none" stroke="black" stroke-dasharray="1,5" d="M757.939,-609.824C782.951,-613.454 810.747,-620.325 833.589,-633.165 854.439,-644.885 849.056,-660.899 869.589,-673.165 930.847,-709.757 969.313,-667.278 1025.58,-711.165 1071.55,-747.027 1096.24,-813.529 1107.11,-851.213"/>
<polygon fill="black" stroke="black" points="1103.79,-852.319 1109.82,-861.029 1110.54,-850.458 1103.79,-852.319"/>
</g>
<!-- StrictCheck -->
<g id="node46" class="node"><title>StrictCheck</title>
<polygon fill="none" stroke="black" points="987.582,-246.165 907.582,-246.165 907.582,-242.165 903.582,-242.165 903.582,-238.165 907.582,-238.165 907.582,-218.165 903.582,-218.165 903.582,-214.165 907.582,-214.165 907.582,-210.165 987.582,-210.165 987.582,-246.165"/>
<polyline fill="none" stroke="black" points="907.582,-242.165 911.582,-242.165 911.582,-238.165 907.582,-238.165 "/>
<polyline fill="none" stroke="black" points="907.582,-218.165 911.582,-218.165 911.582,-214.165 907.582,-214.165 "/>
<text text-anchor="middle" x="947.582" y="-224.465" font-family="Times,serif" font-size="14.00">StrictCheck</text>
</g>
<!-- StrictCheck&#45;&gt;Core_ComponentBase -->
<g id="edge67" class="edge"><title>StrictCheck&#45;&gt;Core_ComponentBase</title>
<path fill="none" stroke="black" stroke-dasharray="1,5" d="M987.896,-233.373C1001.77,-237.186 1016.23,-243.777 1025.58,-255.165 1101.83,-348.08 1112.38,-741.115 1113.84,-850.695"/>
<polygon fill="black" stroke="black" points="1110.34,-851 1113.96,-860.958 1117.34,-850.918 1110.34,-851"/>
</g>
<!-- StrictModelTrait -->
<g id="node47" class="node"><title>StrictModelTrait</title>
<polygon fill="none" stroke="black" points="689.282,-192.165 590.243,-174.165 689.282,-156.165 788.32,-174.165 689.282,-192.165"/>
<text text-anchor="middle" x="689.282" y="-170.465" font-family="Times,serif" font-size="14.00">StrictModelTrait</text>
</g>
<!-- StrictModelTrait&#45;&gt;StrictCheck -->
<g id="edge58" class="edge"><title>StrictModelTrait&#45;&gt;StrictCheck</title>
<path fill="none" stroke="black" d="M740.142,-182.947C767.748,-187.963 802.64,-194.556 833.589,-201.165 854.681,-205.669 877.868,-211.121 897.719,-215.944"/>
<polygon fill="black" stroke="black" points="896.924,-219.352 907.469,-218.326 898.585,-212.552 896.924,-219.352"/>
</g>
<!-- StrictServiceTrait -->
<g id="node48" class="node"><title>StrictServiceTrait</title>
<polygon fill="none" stroke="black" points="689.282,-246.165 585.552,-228.165 689.282,-210.165 793.011,-228.165 689.282,-246.165"/>
<text text-anchor="middle" x="689.282" y="-224.465" font-family="Times,serif" font-size="14.00">StrictServiceTrait</text>
</g>
<!-- StrictServiceTrait&#45;&gt;StrictCheck -->
<g id="edge59" class="edge"><title>StrictServiceTrait&#45;&gt;StrictCheck</title>
<path fill="none" stroke="black" d="M793.052,-228.165C829.056,-228.165 867.843,-228.165 897.424,-228.165"/>
<polygon fill="black" stroke="black" points="897.484,-231.665 907.484,-228.165 897.484,-224.665 897.484,-231.665"/>
</g>
<!-- HttpServer -->
<g id="node49" class="node"><title>HttpServer</title>
<polygon fill="lightgrey" stroke="black" points="325.909,-678.165 256.197,-660.165 325.909,-642.165 395.621,-660.165 325.909,-678.165"/>
<polyline fill="none" stroke="black" points="267.816,-663.165 267.816,-657.165 "/>
<polyline fill="none" stroke="black" points="314.29,-645.165 337.528,-645.165 "/>
<polyline fill="none" stroke="black" points="384.002,-657.165 384.002,-663.165 "/>
<polyline fill="none" stroke="black" points="337.528,-675.165 314.29,-675.165 "/>
<text text-anchor="middle" x="325.909" y="-656.465" font-family="Times,serif" font-size="14.00">HttpServer</text>
</g>
<!-- HttpServer&#45;&gt;Core_HttpServer -->
<g id="edge73" class="edge"><title>HttpServer&#45;&gt;Core_HttpServer</title>
<path fill="none" stroke="black" d="M340.567,-674.532C372.647,-707.224 456.779,-786.98 544.974,-821.165 665.222,-867.773 706.555,-828.934 833.589,-851.165 857.028,-855.266 882.806,-861.517 903.815,-867.073"/>
<polygon fill="black" stroke="black" points="903.149,-870.518 913.714,-869.733 904.965,-863.758 903.149,-870.518"/>
</g>
<!-- App -->
<g id="node50" class="node"><title>App</title>
<polygon fill="lightgrey" stroke="black" points="325.909,-624.165 289.375,-606.165 325.909,-588.165 362.443,-606.165 325.909,-624.165"/>
<polyline fill="none" stroke="black" points="300.139,-611.468 300.139,-600.861 "/>
<polyline fill="none" stroke="black" points="315.144,-593.468 336.673,-593.468 "/>
<polyline fill="none" stroke="black" points="351.679,-600.861 351.679,-611.468 "/>
<polyline fill="none" stroke="black" points="336.673,-618.861 315.144,-618.861 "/>
<text text-anchor="middle" x="325.909" y="-602.465" font-family="Times,serif" font-size="14.00">App</text>
</g>
<!-- App&#45;&gt;Core_App -->
<g id="edge74" class="edge"><title>App&#45;&gt;Core_App</title>
<path fill="none" stroke="black" d="M357.785,-608.656C375.008,-611.728 395.363,-618.469 407.441,-633.165 466.48,-704.994 471.309,-1005.16 471.358,-1098.41"/>
<polygon fill="black" stroke="black" points="467.858,-1098.48 471.345,-1108.48 474.858,-1098.49 467.858,-1098.48"/>
</g>
<!-- App&#45;&gt;DBManager -->
<g id="edge77" class="edge"><title>App&#45;&gt;DBManager</title>
<path fill="none" stroke="black" d="M327.136,-588.612C329.241,-508.202 349.801,-173.212 544.974,-39.1647 651.667,34.1137 814.205,-12.7783 895.927,-44.3095"/>
<polygon fill="black" stroke="black" points="894.896,-47.665 905.483,-48.0695 897.459,-41.151 894.896,-47.665"/>
</g>
<!-- App&#45;&gt;Pager -->
<g id="edge76" class="edge"><title>App&#45;&gt;Pager</title>
<path fill="none" stroke="black" d="M337.137,-593.505C365.833,-558.937 451.149,-462.507 544.974,-417.165 579.027,-400.708 622.137,-394.264 652.137,-391.75"/>
<polygon fill="black" stroke="black" points="652.448,-395.237 662.166,-391.015 651.937,-388.256 652.448,-395.237"/>
</g>
<!-- App&#45;&gt;RouteHookRouteMap -->
<g id="edge75" class="edge"><title>App&#45;&gt;RouteHookRouteMap</title>
<path fill="none" stroke="black" d="M362.548,-606.165C419.806,-606.165 533.628,-606.165 610.378,-606.165"/>
<polygon fill="black" stroke="black" points="610.483,-609.665 620.483,-606.165 610.483,-602.665 610.483,-609.665"/>
</g>
</g>
</svg>
