<?xml version="1.0" encoding="UTF-8" standalone="no"?>
<!DOCTYPE svg PUBLIC "-//W3C//DTD SVG 1.1//EN"
 "http://www.w3.org/Graphics/SVG/1.1/DTD/svg11.dtd">
<!-- Generated by graphviz version 2.38.0 (20140413.2041)
 -->
<!-- Title: gDuckPhp Pages: 1 -->
<svg width="1466pt" height="1849pt"
 viewBox="0.00 0.00 1465.61 1849.45" xmlns="http://www.w3.org/2000/svg" xmlns:xlink="http://www.w3.org/1999/xlink">
<g id="graph0" class="graph" transform="scale(1 1) rotate(0) translate(4 1845.45)">
<title>gDuckPhp</title>
<polygon fill="white" stroke="none" points="-4,4 -4,-1845.45 1461.61,-1845.45 1461.61,4 -4,4"/>
<g id="clust1" class="cluster"><title>cluster_SingletonEx</title>
<polygon fill="none" stroke="black" points="1281.03,-49.4483 1281.03,-124.448 1449.61,-124.448 1449.61,-49.4483 1281.03,-49.4483"/>
<text text-anchor="middle" x="1365.32" y="-109.248" font-family="Times,serif" font-size="14.00">[DuckPhp\SingletonEx]</text>
</g>
<g id="clust2" class="cluster"><title>cluster_Core</title>
<polygon fill="none" stroke="black" points="427.441,-1233.45 427.441,-1706.45 1437.32,-1706.45 1437.32,-1233.45 427.441,-1233.45"/>
<text text-anchor="middle" x="932.381" y="-1691.25" font-family="Times,serif" font-size="14.00">[DuckPhp\Core]</text>
</g>
<g id="clust3" class="cluster"><title>cluster_Helper</title>
<polygon fill="none" stroke="black" points="8,-1376.45 8,-1667.45 407.441,-1667.45 407.441,-1376.45 8,-1376.45"/>
<text text-anchor="middle" x="207.721" y="-1652.25" font-family="Times,serif" font-size="14.00">[DuckPhp\Helper]</text>
</g>
<g id="clust4" class="cluster"><title>cluster_Db</title>
<polygon fill="none" stroke="black" points="906.628,-95.4483 906.628,-224.448 1261.03,-224.448 1261.03,-95.4483 906.628,-95.4483"/>
<text text-anchor="middle" x="1083.83" y="-209.248" font-family="Times,serif" font-size="14.00">[DuckPhp\Db]</text>
</g>
<g id="clust5" class="cluster"><title>cluster_Ext</title>
<polygon fill="none" stroke="black" points="599.782,-232.448 599.782,-1225.45 1015.46,-1225.45 1015.46,-232.448 599.782,-232.448"/>
<text text-anchor="middle" x="807.621" y="-1210.25" font-family="Times,serif" font-size="14.00">[DuckPhp\Ext]</text>
</g>
<g id="clust6" class="cluster"><title>cluster_DuckPhp</title>
<polygon fill="none" stroke="black" points="256.325,-718.448 256.325,-793.448 395.492,-793.448 395.492,-718.448 256.325,-718.448"/>
<text text-anchor="middle" x="325.909" y="-778.248" font-family="Times,serif" font-size="14.00">[DuckPhp]</text>
</g>
<g id="clust7" class="cluster"><title>cluster_HttpServer</title>
<polygon fill="none" stroke="black" points="38.3322,-1675.45 38.3322,-1750.45 194.044,-1750.45 194.044,-1675.45 38.3322,-1675.45"/>
<text text-anchor="middle" x="116.188" y="-1735.25" font-family="Times,serif" font-size="14.00">[DuckPhp\HttpServer]</text>
</g>
<g id="clust8" class="cluster"><title>cluster_ThrowOn</title>
<polygon fill="none" stroke="black" points="44.7663,-1758.45 44.7663,-1833.45 187.61,-1833.45 187.61,-1758.45 44.7663,-1758.45"/>
<text text-anchor="middle" x="116.188" y="-1818.25" font-family="Times,serif" font-size="14.00">[DuckPhp\ThrowOn]</text>
</g>
<!-- SingletonEx -->
<g id="node1" class="node"><title>SingletonEx</title>
<polygon fill="lightgrey" stroke="black" points="1365.32,-93.4483 1289.24,-75.4483 1365.32,-57.4483 1441.4,-75.4483 1365.32,-93.4483"/>
<polyline fill="none" stroke="black" points="1300.92,-78.2112 1300.92,-72.6855 "/>
<polyline fill="none" stroke="black" points="1353.64,-60.2112 1377,-60.2112 "/>
<polyline fill="none" stroke="black" points="1429.72,-72.6855 1429.72,-78.2112 "/>
<polyline fill="none" stroke="black" points="1377,-90.6855 1353.64,-90.6855 "/>
<text text-anchor="middle" x="1365.32" y="-71.7483" font-family="Times,serif" font-size="14.00">SingletonEx</text>
</g>
<!-- Core_AppPluginTrait -->
<g id="node2" class="node"><title>Core_AppPluginTrait</title>
<polygon fill="none" stroke="black" points="689.282,-1373.45 596.612,-1355.45 689.282,-1337.45 781.952,-1355.45 689.282,-1373.45"/>
<text text-anchor="middle" x="689.282" y="-1351.75" font-family="Times,serif" font-size="14.00">AppPluginTrait</text>
</g>
<!-- Core_View -->
<g id="node7" class="node"><title>Core_View</title>
<polygon fill="none" stroke="black" points="971.96,-1385.45 917.96,-1385.45 917.96,-1381.45 913.96,-1381.45 913.96,-1377.45 917.96,-1377.45 917.96,-1357.45 913.96,-1357.45 913.96,-1353.45 917.96,-1353.45 917.96,-1349.45 971.96,-1349.45 971.96,-1385.45"/>
<polyline fill="none" stroke="black" points="917.96,-1381.45 921.96,-1381.45 921.96,-1377.45 917.96,-1377.45 "/>
<polyline fill="none" stroke="black" points="917.96,-1357.45 921.96,-1357.45 921.96,-1353.45 917.96,-1353.45 "/>
<text text-anchor="middle" x="944.96" y="-1363.75" font-family="Times,serif" font-size="14.00">View</text>
</g>
<!-- Core_AppPluginTrait&#45;&gt;Core_View -->
<g id="edge23" class="edge"><title>Core_AppPluginTrait&#45;&gt;Core_View</title>
<path fill="none" stroke="black" d="M764.338,-1358.95C811.324,-1361.17 870.071,-1363.95 907.318,-1365.71"/>
<polygon fill="black" stroke="black" points="907.533,-1369.23 917.687,-1366.21 907.864,-1362.24 907.533,-1369.23"/>
</g>
<!-- Core_Configer -->
<g id="node8" class="node"><title>Core_Configer</title>
<polygon fill="none" stroke="black" points="977.46,-1439.45 912.46,-1439.45 912.46,-1435.45 908.46,-1435.45 908.46,-1431.45 912.46,-1431.45 912.46,-1411.45 908.46,-1411.45 908.46,-1407.45 912.46,-1407.45 912.46,-1403.45 977.46,-1403.45 977.46,-1439.45"/>
<polyline fill="none" stroke="black" points="912.46,-1435.45 916.46,-1435.45 916.46,-1431.45 912.46,-1431.45 "/>
<polyline fill="none" stroke="black" points="912.46,-1411.45 916.46,-1411.45 916.46,-1407.45 912.46,-1407.45 "/>
<text text-anchor="middle" x="944.96" y="-1417.75" font-family="Times,serif" font-size="14.00">Configer</text>
</g>
<!-- Core_AppPluginTrait&#45;&gt;Core_Configer -->
<g id="edge22" class="edge"><title>Core_AppPluginTrait&#45;&gt;Core_Configer</title>
<path fill="none" stroke="black" d="M729.641,-1365.69C776.544,-1377.89 854.563,-1398.19 902.411,-1410.64"/>
<polygon fill="black" stroke="black" points="901.582,-1414.04 912.141,-1413.17 903.345,-1407.26 901.582,-1414.04"/>
</g>
<!-- Core_Route -->
<g id="node10" class="node"><title>Core_Route</title>
<polygon fill="lightgrey" stroke="black" points="944.96,-1277.45 899.883,-1259.45 944.96,-1241.45 990.038,-1259.45 944.96,-1277.45"/>
<polyline fill="none" stroke="black" points="911.027,-1263.9 911.027,-1255 "/>
<polyline fill="none" stroke="black" points="933.816,-1245.9 956.105,-1245.9 "/>
<polyline fill="none" stroke="black" points="978.893,-1255 978.893,-1263.9 "/>
<polyline fill="none" stroke="black" points="956.105,-1273 933.816,-1273 "/>
<text text-anchor="middle" x="944.96" y="-1255.75" font-family="Times,serif" font-size="14.00">Route</text>
</g>
<!-- Core_AppPluginTrait&#45;&gt;Core_Route -->
<g id="edge24" class="edge"><title>Core_AppPluginTrait&#45;&gt;Core_Route</title>
<path fill="none" stroke="black" d="M729.529,-1345.24C758.866,-1336.98 799.598,-1324.15 833.589,-1308.45 850.612,-1300.59 852.692,-1294.58 869.589,-1286.45 882.189,-1280.39 896.527,-1274.88 909.229,-1270.44"/>
<polygon fill="black" stroke="black" points="910.658,-1273.65 919,-1267.12 908.406,-1267.02 910.658,-1273.65"/>
</g>
<!-- Core_SuperGlobal -->
<g id="node13" class="node"><title>Core_SuperGlobal</title>
<polygon fill="none" stroke="black" points="987.46,-1331.45 902.46,-1331.45 902.46,-1327.45 898.46,-1327.45 898.46,-1323.45 902.46,-1323.45 902.46,-1303.45 898.46,-1303.45 898.46,-1299.45 902.46,-1299.45 902.46,-1295.45 987.46,-1295.45 987.46,-1331.45"/>
<polyline fill="none" stroke="black" points="902.46,-1327.45 906.46,-1327.45 906.46,-1323.45 902.46,-1323.45 "/>
<polyline fill="none" stroke="black" points="902.46,-1303.45 906.46,-1303.45 906.46,-1299.45 902.46,-1299.45 "/>
<text text-anchor="middle" x="944.96" y="-1309.75" font-family="Times,serif" font-size="14.00">SuperGlobal</text>
</g>
<!-- Core_AppPluginTrait&#45;&gt;Core_SuperGlobal -->
<g id="edge25" class="edge"><title>Core_AppPluginTrait&#45;&gt;Core_SuperGlobal</title>
<path fill="none" stroke="black" d="M739.796,-1347.25C783.672,-1339.99 847.511,-1329.42 892.086,-1322.04"/>
<polygon fill="black" stroke="black" points="892.839,-1325.46 902.133,-1320.37 891.695,-1318.55 892.839,-1325.46"/>
</g>
<!-- Core_App -->
<g id="node3" class="node"><title>Core_App</title>
<polygon fill="lightgrey" stroke="black" points="472.208,-1504.45 435.674,-1486.45 472.208,-1468.45 508.742,-1486.45 472.208,-1504.45"/>
<polyline fill="none" stroke="black" points="446.438,-1491.75 446.438,-1481.14 "/>
<polyline fill="none" stroke="black" points="461.443,-1473.75 482.972,-1473.75 "/>
<polyline fill="none" stroke="black" points="497.977,-1481.14 497.977,-1491.75 "/>
<polyline fill="none" stroke="black" points="482.972,-1499.14 461.443,-1499.14 "/>
<text text-anchor="middle" x="472.208" y="-1482.75" font-family="Times,serif" font-size="14.00">App</text>
</g>
<!-- Core_Kernel -->
<g id="node4" class="node"><title>Core_Kernel</title>
<polygon fill="none" stroke="black" points="689.282,-1467.45 640.35,-1449.45 689.282,-1431.45 738.213,-1449.45 689.282,-1467.45"/>
<text text-anchor="middle" x="689.282" y="-1445.75" font-family="Times,serif" font-size="14.00">Kernel</text>
</g>
<!-- Core_App&#45;&gt;Core_Kernel -->
<g id="edge9" class="edge"><title>Core_App&#45;&gt;Core_Kernel</title>
<path fill="none" stroke="black" d="M499.58,-1481.91C535.926,-1475.66 601.845,-1464.32 645.349,-1456.83"/>
<polygon fill="black" stroke="black" points="646.091,-1460.26 655.353,-1455.11 644.905,-1453.36 646.091,-1460.26"/>
</g>
<!-- Core_AutoLoader -->
<g id="node5" class="node"><title>Core_AutoLoader</title>
<polygon fill="lightgrey" stroke="black" points="944.96,-1655.45 869.718,-1637.45 944.96,-1619.45 1020.2,-1637.45 944.96,-1655.45"/>
<polyline fill="none" stroke="black" points="881.389,-1640.24 881.389,-1634.66 "/>
<polyline fill="none" stroke="black" points="933.29,-1622.24 956.631,-1622.24 "/>
<polyline fill="none" stroke="black" points="1008.53,-1634.66 1008.53,-1640.24 "/>
<polyline fill="none" stroke="black" points="956.631,-1652.66 933.29,-1652.66 "/>
<text text-anchor="middle" x="944.96" y="-1633.75" font-family="Times,serif" font-size="14.00">AutoLoader</text>
</g>
<!-- Core_App&#45;&gt;Core_AutoLoader -->
<g id="edge12" class="edge"><title>Core_App&#45;&gt;Core_AutoLoader</title>
<path fill="none" stroke="black" stroke-dasharray="5,2" d="M478.61,-1501.3C488.034,-1524.82 509.888,-1570.05 544.974,-1590.45 600.63,-1622.8 769.857,-1606.36 833.589,-1615.45 854.085,-1618.37 876.522,-1622.64 895.782,-1626.65"/>
<polygon fill="black" stroke="black" points="895.322,-1630.13 905.829,-1628.77 896.769,-1623.28 895.322,-1630.13"/>
</g>
<!-- Core_ExceptionManager -->
<g id="node6" class="node"><title>Core_ExceptionManager</title>
<polygon fill="none" stroke="black" points="1004.96,-1493.45 884.96,-1493.45 884.96,-1489.45 880.96,-1489.45 880.96,-1485.45 884.96,-1485.45 884.96,-1465.45 880.96,-1465.45 880.96,-1461.45 884.96,-1461.45 884.96,-1457.45 1004.96,-1457.45 1004.96,-1493.45"/>
<polyline fill="none" stroke="black" points="884.96,-1489.45 888.96,-1489.45 888.96,-1485.45 884.96,-1485.45 "/>
<polyline fill="none" stroke="black" points="884.96,-1465.45 888.96,-1465.45 888.96,-1461.45 884.96,-1461.45 "/>
<text text-anchor="middle" x="944.96" y="-1471.75" font-family="Times,serif" font-size="14.00">ExceptionManager</text>
</g>
<!-- Core_App&#45;&gt;Core_ExceptionManager -->
<g id="edge15" class="edge"><title>Core_App&#45;&gt;Core_ExceptionManager</title>
<path fill="none" stroke="black" stroke-dasharray="5,2" d="M507.442,-1485.65C584.354,-1483.85 772.096,-1479.46 874.521,-1477.07"/>
<polygon fill="black" stroke="black" points="874.848,-1480.56 884.764,-1476.83 874.685,-1473.57 874.848,-1480.56"/>
</g>
<!-- Core_App&#45;&gt;Core_View -->
<g id="edge18" class="edge"><title>Core_App&#45;&gt;Core_View</title>
<path fill="none" stroke="black" stroke-dasharray="5,2" d="M480.748,-1472.45C491.927,-1453.27 514.859,-1419.52 544.974,-1404.45 602.497,-1375.66 769.625,-1389.23 833.589,-1382.45 858.378,-1379.82 886.188,-1376.04 907.69,-1372.93"/>
<polygon fill="black" stroke="black" points="908.311,-1376.37 917.699,-1371.46 907.297,-1369.45 908.311,-1376.37"/>
</g>
<!-- Core_App&#45;&gt;Core_Configer -->
<g id="edge13" class="edge"><title>Core_App&#45;&gt;Core_Configer</title>
<path fill="none" stroke="black" stroke-dasharray="5,2" d="M482.871,-1473.34C495.248,-1457.78 518.312,-1432.65 544.974,-1422.45 609.151,-1397.9 813.485,-1410.8 902.194,-1417.85"/>
<polygon fill="black" stroke="black" points="901.921,-1421.34 912.171,-1418.66 902.486,-1414.36 901.921,-1421.34"/>
</g>
<!-- Core_Logger -->
<g id="node9" class="node"><title>Core_Logger</title>
<polygon fill="none" stroke="black" points="972.96,-1547.45 916.96,-1547.45 916.96,-1543.45 912.96,-1543.45 912.96,-1539.45 916.96,-1539.45 916.96,-1519.45 912.96,-1519.45 912.96,-1515.45 916.96,-1515.45 916.96,-1511.45 972.96,-1511.45 972.96,-1547.45"/>
<polyline fill="none" stroke="black" points="916.96,-1543.45 920.96,-1543.45 920.96,-1539.45 916.96,-1539.45 "/>
<polyline fill="none" stroke="black" points="916.96,-1519.45 920.96,-1519.45 920.96,-1515.45 916.96,-1515.45 "/>
<text text-anchor="middle" x="944.96" y="-1525.75" font-family="Times,serif" font-size="14.00">Logger</text>
</g>
<!-- Core_App&#45;&gt;Core_Logger -->
<g id="edge14" class="edge"><title>Core_App&#45;&gt;Core_Logger</title>
<path fill="none" stroke="black" stroke-dasharray="5,2" d="M503.372,-1489.2C586.039,-1496.75 816.074,-1517.77 906.639,-1526.04"/>
<polygon fill="black" stroke="black" points="906.446,-1529.54 916.723,-1526.96 907.083,-1522.57 906.446,-1529.54"/>
</g>
<!-- Core_App&#45;&gt;Core_Route -->
<g id="edge16" class="edge"><title>Core_App&#45;&gt;Core_Route</title>
<path fill="none" stroke="black" stroke-dasharray="5,2" d="M475.762,-1469.91C483.635,-1421.34 509.175,-1280.85 544.974,-1254.45 600.605,-1213.43 811.954,-1239.4 902.442,-1252.84"/>
<polygon fill="black" stroke="black" points="901.94,-1256.31 912.35,-1254.34 902.984,-1249.39 901.94,-1256.31"/>
</g>
<!-- Core_RuntimeState -->
<g id="node11" class="node"><title>Core_RuntimeState</title>
<polygon fill="none" stroke="black" points="990.46,-1601.45 899.46,-1601.45 899.46,-1597.45 895.46,-1597.45 895.46,-1593.45 899.46,-1593.45 899.46,-1573.45 895.46,-1573.45 895.46,-1569.45 899.46,-1569.45 899.46,-1565.45 990.46,-1565.45 990.46,-1601.45"/>
<polyline fill="none" stroke="black" points="899.46,-1597.45 903.46,-1597.45 903.46,-1593.45 899.46,-1593.45 "/>
<polyline fill="none" stroke="black" points="899.46,-1573.45 903.46,-1573.45 903.46,-1569.45 899.46,-1569.45 "/>
<text text-anchor="middle" x="944.96" y="-1579.75" font-family="Times,serif" font-size="14.00">RuntimeState</text>
</g>
<!-- Core_App&#45;&gt;Core_RuntimeState -->
<g id="edge17" class="edge"><title>Core_App&#45;&gt;Core_RuntimeState</title>
<path fill="none" stroke="black" stroke-dasharray="5,2" d="M492.328,-1494.57C506.577,-1500.26 526.654,-1507.53 544.974,-1511.45 670.878,-1538.39 710.463,-1498.8 833.589,-1536.45 851.093,-1541.8 852.935,-1548.86 869.589,-1556.45 876.12,-1559.43 883.083,-1562.31 890.03,-1565.02"/>
<polygon fill="black" stroke="black" points="888.859,-1568.32 899.45,-1568.6 891.343,-1561.78 888.859,-1568.32"/>
</g>
<!-- Core_SystemWrapperTrait -->
<g id="node12" class="node"><title>Core_SystemWrapperTrait</title>
<polygon fill="none" stroke="black" points="689.282,-1581.45 568.962,-1563.45 689.282,-1545.45 809.601,-1563.45 689.282,-1581.45"/>
<text text-anchor="middle" x="689.282" y="-1559.75" font-family="Times,serif" font-size="14.00">SystemWrapperTrait</text>
</g>
<!-- Core_App&#45;&gt;Core_SystemWrapperTrait -->
<g id="edge11" class="edge"><title>Core_App&#45;&gt;Core_SystemWrapperTrait</title>
<path fill="none" stroke="black" d="M487.258,-1497.3C501.182,-1507.55 523.482,-1522.62 544.974,-1531.45 567.876,-1540.86 594.027,-1547.73 617.667,-1552.64"/>
<polygon fill="black" stroke="black" points="617.136,-1556.11 627.627,-1554.63 618.505,-1549.24 617.136,-1556.11"/>
</g>
<!-- Core_App&#45;&gt;Core_SuperGlobal -->
<g id="edge19" class="edge"><title>Core_App&#45;&gt;Core_SuperGlobal</title>
<path fill="none" stroke="black" stroke-dasharray="5,2" d="M475.143,-1469.64C480.003,-1436.11 496.065,-1361.27 544.974,-1328.45 573.111,-1309.57 791.035,-1310.78 892.409,-1312.4"/>
<polygon fill="black" stroke="black" points="892.372,-1315.9 902.429,-1312.57 892.489,-1308.9 892.372,-1315.9"/>
</g>
<!-- Core_ExtendableStaticCallTrait -->
<g id="node14" class="node"><title>Core_ExtendableStaticCallTrait</title>
<polygon fill="none" stroke="black" points="689.282,-1675.45 545.166,-1657.45 689.282,-1639.45 833.397,-1657.45 689.282,-1675.45"/>
<text text-anchor="middle" x="689.282" y="-1653.75" font-family="Times,serif" font-size="14.00">ExtendableStaticCallTrait</text>
</g>
<!-- Core_App&#45;&gt;Core_ExtendableStaticCallTrait -->
<g id="edge10" class="edge"><title>Core_App&#45;&gt;Core_ExtendableStaticCallTrait</title>
<path fill="none" stroke="black" d="M476.794,-1502.65C484.166,-1531.99 503.898,-1593.77 544.974,-1625.45 558.389,-1635.79 574.497,-1642.93 590.996,-1647.81"/>
<polygon fill="black" stroke="black" points="590.171,-1651.22 600.737,-1650.44 591.993,-1644.46 590.171,-1651.22"/>
</g>
<!-- Core_ComponentBase -->
<g id="node16" class="node"><title>Core_ComponentBase</title>
<polygon fill="none" stroke="black" points="1208.18,-1277.45 1105.18,-1277.45 1101.18,-1273.45 1101.18,-1241.45 1204.18,-1241.45 1208.18,-1245.45 1208.18,-1277.45"/>
<polyline fill="none" stroke="black" points="1204.18,-1273.45 1101.18,-1273.45 "/>
<polyline fill="none" stroke="black" points="1204.18,-1273.45 1204.18,-1241.45 "/>
<polyline fill="none" stroke="black" points="1204.18,-1273.45 1208.18,-1277.45 "/>
<text text-anchor="middle" x="1154.68" y="-1255.75" font-family="Times,serif" font-size="14.00">ComponentBase</text>
</g>
<!-- Core_App&#45;&gt;Core_ComponentBase -->
<g id="edge21" class="edge"><title>Core_App&#45;&gt;Core_ComponentBase</title>
<path fill="none" stroke="black" stroke-dasharray="1,5" d="M477.284,-1502.09C485.229,-1529.09 505.564,-1583.87 544.974,-1608.45 599.555,-1642.48 774.764,-1604.43 833.589,-1630.45 853.716,-1639.35 849.139,-1656.32 869.589,-1664.45 931.846,-1689.2 966.053,-1703.72 1020.33,-1664.45 1144.66,-1574.49 1155.07,-1364.65 1154.54,-1288.07"/>
<polygon fill="black" stroke="black" points="1158.03,-1287.72 1154.39,-1277.77 1151.03,-1287.82 1158.03,-1287.72"/>
</g>
<!-- Core_Functions -->
<g id="node17" class="node"><title>Core_Functions</title>
<ellipse fill="none" stroke="black" cx="689.282" cy="-1281.45" rx="45.4919" ry="18"/>
<text text-anchor="middle" x="689.282" y="-1277.75" font-family="Times,serif" font-size="14.00">Functions</text>
</g>
<!-- Core_App&#45;&gt;Core_Functions -->
<g id="edge20" class="edge"><title>Core_App&#45;&gt;Core_Functions</title>
<path fill="none" stroke="black" stroke-dasharray="5,2" d="M475.07,-1469.68C479.866,-1434.89 495.924,-1354.65 544.974,-1313.45 569.42,-1292.91 604.244,-1284.81 633.441,-1281.89"/>
<polygon fill="black" stroke="black" points="633.829,-1285.37 643.508,-1281.07 633.255,-1278.4 633.829,-1285.37"/>
</g>
<!-- Core_Kernel&#45;&gt;Core_AutoLoader -->
<g id="edge1" class="edge"><title>Core_Kernel&#45;&gt;Core_AutoLoader</title>
<path fill="none" stroke="black" d="M713.675,-1458.65C744.601,-1471.82 799.185,-1498.69 833.589,-1536.45 858.223,-1563.48 842.412,-1585.97 869.589,-1610.45 876.71,-1616.86 885.474,-1621.78 894.455,-1625.55"/>
<polygon fill="black" stroke="black" points="893.242,-1628.84 903.834,-1629.08 895.704,-1622.28 893.242,-1628.84"/>
</g>
<!-- Core_Kernel&#45;&gt;Core_ExceptionManager -->
<g id="edge4" class="edge"><title>Core_Kernel&#45;&gt;Core_ExceptionManager</title>
<path fill="none" stroke="black" d="M727.986,-1453.31C766.562,-1457.27 827.38,-1463.5 874.661,-1468.35"/>
<polygon fill="black" stroke="black" points="874.532,-1471.85 884.837,-1469.39 875.246,-1464.89 874.532,-1471.85"/>
</g>
<!-- Core_Kernel&#45;&gt;Core_View -->
<g id="edge7" class="edge"><title>Core_Kernel&#45;&gt;Core_View</title>
<path fill="none" stroke="black" d="M716.002,-1441.13C761.466,-1426.44 856.117,-1395.84 908.011,-1379.07"/>
<polygon fill="black" stroke="black" points="909.354,-1382.31 917.793,-1375.91 907.201,-1375.65 909.354,-1382.31"/>
</g>
<!-- Core_Kernel&#45;&gt;Core_Configer -->
<g id="edge2" class="edge"><title>Core_Kernel&#45;&gt;Core_Configer</title>
<path fill="none" stroke="black" d="M727.169,-1445.38C773.641,-1440.25 853.305,-1431.45 902.037,-1426.08"/>
<polygon fill="black" stroke="black" points="902.684,-1429.53 912.24,-1424.95 901.916,-1422.57 902.684,-1429.53"/>
</g>
<!-- Core_Kernel&#45;&gt;Core_Logger -->
<g id="edge3" class="edge"><title>Core_Kernel&#45;&gt;Core_Logger</title>
<path fill="none" stroke="black" d="M716.474,-1457.71C761.81,-1472.01 855.021,-1501.4 906.954,-1517.78"/>
<polygon fill="black" stroke="black" points="906.174,-1521.2 916.763,-1520.87 908.279,-1514.53 906.174,-1521.2"/>
</g>
<!-- Core_Kernel&#45;&gt;Core_Route -->
<g id="edge5" class="edge"><title>Core_Kernel&#45;&gt;Core_Route</title>
<path fill="none" stroke="black" d="M720.072,-1442.68C752.188,-1433.94 802.829,-1415.73 833.589,-1382.45 864.521,-1348.99 837.199,-1318.5 869.589,-1286.45 878.591,-1277.54 890.753,-1271.55 902.633,-1267.53"/>
<polygon fill="black" stroke="black" points="903.889,-1270.8 912.47,-1264.59 901.887,-1264.1 903.889,-1270.8"/>
</g>
<!-- Core_Kernel&#45;&gt;Core_RuntimeState -->
<g id="edge6" class="edge"><title>Core_Kernel&#45;&gt;Core_RuntimeState</title>
<path fill="none" stroke="black" d="M713.585,-1458.54C742.993,-1470.59 794.456,-1493.6 833.589,-1521.45 851.772,-1534.39 850.68,-1544.6 869.589,-1556.45 875.831,-1560.36 882.721,-1563.82 889.714,-1566.84"/>
<polygon fill="black" stroke="black" points="888.679,-1570.2 899.263,-1570.69 891.299,-1563.7 888.679,-1570.2"/>
</g>
<!-- Core_Kernel&#45;&gt;Core_SuperGlobal -->
<g id="edge8" class="edge"><title>Core_Kernel&#45;&gt;Core_SuperGlobal</title>
<path fill="none" stroke="black" d="M715.88,-1441.22C746.016,-1430.73 796.632,-1410.53 833.589,-1382.45 853.165,-1367.57 849.371,-1354.44 869.589,-1340.45 876.653,-1335.56 884.703,-1331.45 892.837,-1328.03"/>
<polygon fill="black" stroke="black" points="894.316,-1331.21 902.369,-1324.32 891.78,-1324.69 894.316,-1331.21"/>
</g>
<!-- Core_ExceptionManager&#45;&gt;Core_ComponentBase -->
<g id="edge26" class="edge"><title>Core_ExceptionManager&#45;&gt;Core_ComponentBase</title>
<path fill="none" stroke="black" stroke-dasharray="1,5" d="M1004.99,-1457.92C1010.42,-1455.18 1015.64,-1452.03 1020.33,-1448.45 1078.39,-1404.1 1121.27,-1327.34 1141.23,-1286.63"/>
<polygon fill="black" stroke="black" points="1144.41,-1288.1 1145.58,-1277.57 1138.1,-1285.07 1144.41,-1288.1"/>
</g>
<!-- Core_View&#45;&gt;Core_ComponentBase -->
<g id="edge31" class="edge"><title>Core_View&#45;&gt;Core_ComponentBase</title>
<path fill="none" stroke="black" stroke-dasharray="1,5" d="M972.29,-1359.31C986.754,-1354.48 1004.85,-1347.87 1020.33,-1340.45 1055.22,-1323.72 1092.7,-1300.44 1119.01,-1283.13"/>
<polygon fill="black" stroke="black" points="1121.08,-1285.95 1127.48,-1277.5 1117.21,-1280.12 1121.08,-1285.95"/>
</g>
<!-- Core_Configer&#45;&gt;Core_ComponentBase -->
<g id="edge27" class="edge"><title>Core_Configer&#45;&gt;Core_ComponentBase</title>
<path fill="none" stroke="black" stroke-dasharray="1,5" d="M977.786,-1413.31C991.524,-1408.95 1007.38,-1402.75 1020.33,-1394.45 1066.98,-1364.55 1109.89,-1315.67 1133.84,-1285.65"/>
<polygon fill="black" stroke="black" points="1136.65,-1287.74 1140.08,-1277.72 1131.15,-1283.41 1136.65,-1287.74"/>
</g>
<!-- Core_Logger&#45;&gt;Core_ComponentBase -->
<g id="edge32" class="edge"><title>Core_Logger&#45;&gt;Core_ComponentBase</title>
<path fill="none" stroke="black" stroke-dasharray="1,5" d="M973.133,-1524.53C988.388,-1520.64 1006.98,-1513.89 1020.33,-1502.45 1089.92,-1442.81 1129.77,-1337.41 1145.62,-1287.35"/>
<polygon fill="black" stroke="black" points="1149.04,-1288.13 1148.64,-1277.55 1142.35,-1286.07 1149.04,-1288.13"/>
</g>
<!-- Core_Route&#45;&gt;Core_ComponentBase -->
<g id="edge28" class="edge"><title>Core_Route&#45;&gt;Core_ComponentBase</title>
<path fill="none" stroke="black" stroke-dasharray="1,5" d="M990.013,-1259.45C1019.24,-1259.45 1058.06,-1259.45 1090.55,-1259.45"/>
<polygon fill="black" stroke="black" points="1090.86,-1262.95 1100.86,-1259.45 1090.86,-1255.95 1090.86,-1262.95"/>
</g>
<!-- Core_RuntimeState&#45;&gt;Core_ComponentBase -->
<g id="edge30" class="edge"><title>Core_RuntimeState&#45;&gt;Core_ComponentBase</title>
<path fill="none" stroke="black" stroke-dasharray="1,5" d="M990.503,-1573.75C1001.22,-1569.77 1011.98,-1564.21 1020.33,-1556.45 1101.81,-1480.77 1136.82,-1345.98 1148.65,-1287.65"/>
<polygon fill="black" stroke="black" points="1152.12,-1288.16 1150.6,-1277.68 1145.25,-1286.82 1152.12,-1288.16"/>
</g>
<!-- Core_SuperGlobal&#45;&gt;Core_ComponentBase -->
<g id="edge29" class="edge"><title>Core_SuperGlobal&#45;&gt;Core_ComponentBase</title>
<path fill="none" stroke="black" stroke-dasharray="1,5" d="M987.496,-1302.65C1017.24,-1294.92 1057.8,-1284.37 1091.4,-1275.64"/>
<polygon fill="black" stroke="black" points="1092.34,-1279.01 1101.13,-1273.11 1090.58,-1272.24 1092.34,-1279.01"/>
</g>
<!-- Core_ComponentInterface -->
<g id="node15" class="node"><title>Core_ComponentInterface</title>
<polygon fill="none" stroke="black" points="1423.32,-1277.45 1301.32,-1277.45 1301.32,-1241.45 1429.32,-1241.45 1429.32,-1271.45 1423.32,-1277.45"/>
<polyline fill="none" stroke="black" points="1423.32,-1277.45 1423.32,-1271.45 "/>
<polyline fill="none" stroke="black" points="1429.32,-1271.45 1423.32,-1271.45 "/>
<text text-anchor="middle" x="1365.32" y="-1255.75" font-family="Times,serif" font-size="14.00">ComponentInterface</text>
</g>
<!-- Core_ComponentBase&#45;&gt;SingletonEx -->
<g id="edge34" class="edge"><title>Core_ComponentBase&#45;&gt;SingletonEx</title>
<path fill="none" stroke="black" d="M1158.87,-1241.32C1182.56,-1106.94 1330.71,-266.198 1359.48,-102.907"/>
<polygon fill="black" stroke="black" points="1362.99,-103.196 1361.27,-92.7405 1356.09,-101.981 1362.99,-103.196"/>
</g>
<!-- Core_ComponentBase&#45;&gt;Core_ComponentInterface -->
<g id="edge33" class="edge"><title>Core_ComponentBase&#45;&gt;Core_ComponentInterface</title>
<path fill="none" stroke="black" d="M1208.33,-1259.45C1233.38,-1259.45 1263.74,-1259.45 1291,-1259.45"/>
<polygon fill="black" stroke="black" points="1291.28,-1262.95 1301.28,-1259.45 1291.28,-1255.95 1291.28,-1262.95"/>
</g>
<!-- AppHelper -->
<g id="node18" class="node"><title>AppHelper</title>
<polygon fill="lightgrey" stroke="black" points="116.188,-1636.45 45.6372,-1618.45 116.188,-1600.45 186.739,-1618.45 116.188,-1636.45"/>
<polyline fill="none" stroke="black" points="57.2647,-1621.41 57.2647,-1615.48 "/>
<polyline fill="none" stroke="black" points="104.561,-1603.41 127.816,-1603.41 "/>
<polyline fill="none" stroke="black" points="175.112,-1615.48 175.112,-1621.41 "/>
<polyline fill="none" stroke="black" points="127.816,-1633.48 104.561,-1633.48 "/>
<text text-anchor="middle" x="116.188" y="-1614.75" font-family="Times,serif" font-size="14.00">AppHelper</text>
</g>
<!-- AppHelper&#45;&gt;Core_App -->
<g id="edge35" class="edge"><title>AppHelper&#45;&gt;Core_App</title>
<path fill="none" stroke="black" d="M151.171,-1609.24C170.327,-1604.04 194.694,-1597.41 216.376,-1591.45 232.388,-1587.05 236.336,-1585.74 252.376,-1581.45 321.127,-1563.03 344.379,-1574.45 407.441,-1541.45 424.655,-1532.44 441.181,-1517.96 453.094,-1506.12"/>
<polygon fill="black" stroke="black" points="455.749,-1508.41 460.217,-1498.81 450.733,-1503.53 455.749,-1508.41"/>
</g>
<!-- HelperTrait -->
<g id="node23" class="node"><title>HelperTrait</title>
<polygon fill="none" stroke="black" points="325.909,-1626.45 252.344,-1608.45 325.909,-1590.45 399.474,-1608.45 325.909,-1626.45"/>
<text text-anchor="middle" x="325.909" y="-1604.75" font-family="Times,serif" font-size="14.00">HelperTrait</text>
</g>
<!-- AppHelper&#45;&gt;HelperTrait -->
<g id="edge42" class="edge"><title>AppHelper&#45;&gt;HelperTrait</title>
<path fill="none" stroke="black" d="M175.88,-1615.62C200.132,-1614.46 228.465,-1613.09 253.875,-1611.87"/>
<polygon fill="black" stroke="black" points="254.374,-1615.35 264.194,-1611.37 254.037,-1608.36 254.374,-1615.35"/>
</g>
<!-- ControllerHelper -->
<g id="node19" class="node"><title>ControllerHelper</title>
<polygon fill="lightgrey" stroke="black" points="116.188,-1582.45 15.8115,-1564.45 116.188,-1546.45 216.565,-1564.45 116.188,-1582.45"/>
<polyline fill="none" stroke="black" points="27.6231,-1566.57 27.6231,-1562.33 "/>
<polyline fill="none" stroke="black" points="104.377,-1548.57 128,-1548.57 "/>
<polyline fill="none" stroke="black" points="204.753,-1562.33 204.753,-1566.57 "/>
<polyline fill="none" stroke="black" points="128,-1580.33 104.377,-1580.33 "/>
<text text-anchor="middle" x="116.188" y="-1560.75" font-family="Times,serif" font-size="14.00">ControllerHelper</text>
</g>
<!-- ControllerHelper&#45;&gt;Core_App -->
<g id="edge36" class="edge"><title>ControllerHelper&#45;&gt;Core_App</title>
<path fill="none" stroke="black" d="M174.321,-1556.86C233.351,-1548.31 327.829,-1532.65 407.441,-1510.45 419.131,-1507.19 431.692,-1502.69 442.55,-1498.46"/>
<polygon fill="black" stroke="black" points="443.977,-1501.66 451.967,-1494.7 441.382,-1495.16 443.977,-1501.66"/>
</g>
<!-- ControllerHelper&#45;&gt;HelperTrait -->
<g id="edge43" class="edge"><title>ControllerHelper&#45;&gt;HelperTrait</title>
<path fill="none" stroke="black" d="M162.773,-1574.1C196.252,-1581.2 241.674,-1590.82 275.926,-1598.07"/>
<polygon fill="black" stroke="black" points="275.212,-1601.5 285.72,-1600.15 276.662,-1594.65 275.212,-1601.5"/>
</g>
<!-- ModelHelper -->
<g id="node20" class="node"><title>ModelHelper</title>
<polygon fill="lightgrey" stroke="black" points="116.188,-1528.45 34.5777,-1510.45 116.188,-1492.45 197.799,-1510.45 116.188,-1528.45"/>
<polyline fill="none" stroke="black" points="46.296,-1513.03 46.296,-1507.86 "/>
<polyline fill="none" stroke="black" points="104.47,-1495.03 127.906,-1495.03 "/>
<polyline fill="none" stroke="black" points="186.08,-1507.86 186.08,-1513.03 "/>
<polyline fill="none" stroke="black" points="127.906,-1525.86 104.47,-1525.86 "/>
<text text-anchor="middle" x="116.188" y="-1506.75" font-family="Times,serif" font-size="14.00">ModelHelper</text>
</g>
<!-- ModelHelper&#45;&gt;Core_App -->
<g id="edge37" class="edge"><title>ModelHelper&#45;&gt;Core_App</title>
<path fill="none" stroke="black" d="M178.854,-1506.27C250.765,-1501.39 367.663,-1493.47 429.611,-1489.27"/>
<polygon fill="black" stroke="black" points="430.051,-1492.75 439.791,-1488.58 429.577,-1485.76 430.051,-1492.75"/>
</g>
<!-- ModelHelper&#45;&gt;HelperTrait -->
<g id="edge44" class="edge"><title>ModelHelper&#45;&gt;HelperTrait</title>
<path fill="none" stroke="black" d="M159.704,-1518.92C177.64,-1523.28 198.471,-1529.4 216.376,-1537.45 246.879,-1551.16 278.523,-1572.87 299.715,-1588.67"/>
<polygon fill="black" stroke="black" points="297.764,-1591.58 307.849,-1594.83 301.99,-1586 297.764,-1591.58"/>
</g>
<!-- ServiceHelper -->
<g id="node21" class="node"><title>ServiceHelper</title>
<polygon fill="lightgrey" stroke="black" points="116.188,-1474.45 29.8865,-1456.45 116.188,-1438.45 202.49,-1456.45 116.188,-1474.45"/>
<polyline fill="none" stroke="black" points="41.6337,-1458.9 41.6337,-1454 "/>
<polyline fill="none" stroke="black" points="104.441,-1440.9 127.935,-1440.9 "/>
<polyline fill="none" stroke="black" points="190.743,-1454 190.743,-1458.9 "/>
<polyline fill="none" stroke="black" points="127.935,-1472 104.441,-1472 "/>
<text text-anchor="middle" x="116.188" y="-1452.75" font-family="Times,serif" font-size="14.00">ServiceHelper</text>
</g>
<!-- ServiceHelper&#45;&gt;Core_App -->
<g id="edge38" class="edge"><title>ServiceHelper&#45;&gt;Core_App</title>
<path fill="none" stroke="black" d="M178.046,-1461.61C250.183,-1467.72 368.399,-1477.74 430.375,-1482.99"/>
<polygon fill="black" stroke="black" points="430.287,-1486.49 440.547,-1483.85 430.879,-1479.52 430.287,-1486.49"/>
</g>
<!-- ServiceHelper&#45;&gt;HelperTrait -->
<g id="edge45" class="edge"><title>ServiceHelper&#45;&gt;HelperTrait</title>
<path fill="none" stroke="black" d="M166.719,-1463.92C183.374,-1467.95 201.49,-1474.1 216.376,-1483.45 257.664,-1509.38 291.891,-1555.83 310.284,-1584.22"/>
<polygon fill="black" stroke="black" points="307.382,-1586.18 315.689,-1592.76 313.296,-1582.44 307.382,-1586.18"/>
</g>
<!-- ViewHelper -->
<g id="node22" class="node"><title>ViewHelper</title>
<polygon fill="lightgrey" stroke="black" points="116.188,-1420.45 40.1075,-1402.45 116.188,-1384.45 192.269,-1402.45 116.188,-1420.45"/>
<polyline fill="none" stroke="black" points="51.7851,-1405.21 51.7851,-1399.69 "/>
<polyline fill="none" stroke="black" points="104.511,-1387.21 127.866,-1387.21 "/>
<polyline fill="none" stroke="black" points="180.591,-1399.69 180.591,-1405.21 "/>
<polyline fill="none" stroke="black" points="127.866,-1417.69 104.511,-1417.69 "/>
<text text-anchor="middle" x="116.188" y="-1398.75" font-family="Times,serif" font-size="14.00">ViewHelper</text>
</g>
<!-- ViewHelper&#45;&gt;Core_App -->
<g id="edge39" class="edge"><title>ViewHelper&#45;&gt;Core_App</title>
<path fill="none" stroke="black" d="M159.825,-1410.26C216.71,-1421 320.376,-1441.73 407.441,-1465.45 418.435,-1468.44 430.331,-1472.21 440.837,-1475.73"/>
<polygon fill="black" stroke="black" points="439.815,-1479.08 450.409,-1478.99 442.071,-1472.45 439.815,-1479.08"/>
</g>
<!-- ViewHelper&#45;&gt;HelperTrait -->
<g id="edge46" class="edge"><title>ViewHelper&#45;&gt;HelperTrait</title>
<path fill="none" stroke="black" d="M167.172,-1408.4C184.053,-1412.3 202.194,-1418.76 216.376,-1429.45 269.131,-1469.2 301.685,-1542.74 316.13,-1582.05"/>
<polygon fill="black" stroke="black" points="312.92,-1583.47 319.57,-1591.72 319.516,-1581.12 312.92,-1583.47"/>
</g>
<!-- HelperTrait&#45;&gt;Core_App -->
<g id="edge40" class="edge"><title>HelperTrait&#45;&gt;Core_App</title>
<path fill="none" stroke="black" d="M362.515,-1599.21C377.43,-1594.16 394.314,-1586.77 407.441,-1576.45 430.339,-1558.44 448.539,-1530.06 459.539,-1509.99"/>
<polygon fill="black" stroke="black" points="462.773,-1511.36 464.35,-1500.89 456.584,-1508.09 462.773,-1511.36"/>
</g>
<!-- HelperTrait&#45;&gt;Core_ExtendableStaticCallTrait -->
<g id="edge41" class="edge"><title>HelperTrait&#45;&gt;Core_ExtendableStaticCallTrait</title>
<path fill="none" stroke="black" d="M373.782,-1614.8C433.516,-1622.9 537.642,-1637.02 609.626,-1646.78"/>
<polygon fill="black" stroke="black" points="609.183,-1650.25 619.562,-1648.13 610.123,-1643.32 609.183,-1650.25"/>
</g>
<!-- Db_Db -->
<g id="node24" class="node"><title>Db_Db</title>
<polygon fill="lightgrey" stroke="black" points="944.96,-193.448 914.795,-175.448 944.96,-157.448 975.126,-175.448 944.96,-193.448"/>
<polyline fill="none" stroke="black" points="924.85,-181.448 924.85,-169.448 "/>
<polyline fill="none" stroke="black" points="934.905,-163.448 955.015,-163.448 "/>
<polyline fill="none" stroke="black" points="965.071,-169.448 965.071,-181.448 "/>
<polyline fill="none" stroke="black" points="955.015,-187.448 934.905,-187.448 "/>
<text text-anchor="middle" x="944.96" y="-171.748" font-family="Times,serif" font-size="14.00">Db</text>
</g>
<!-- Db_DbAdvanceTrait -->
<g id="node25" class="node"><title>Db_DbAdvanceTrait</title>
<polygon fill="none" stroke="black" points="1154.68,-193.448 1056.48,-175.448 1154.68,-157.448 1252.88,-175.448 1154.68,-193.448"/>
<polyline fill="none" stroke="black" points="1068.28,-177.612 1068.28,-173.285 "/>
<polyline fill="none" stroke="black" points="1142.88,-159.612 1166.48,-159.612 "/>
<polyline fill="none" stroke="black" points="1241.08,-173.285 1241.08,-177.612 "/>
<polyline fill="none" stroke="black" points="1166.48,-191.285 1142.88,-191.285 "/>
<text text-anchor="middle" x="1154.68" y="-171.748" font-family="Times,serif" font-size="14.00">DbAdvanceTrait</text>
</g>
<!-- Db_Db&#45;&gt;Db_DbAdvanceTrait -->
<g id="edge47" class="edge"><title>Db_Db&#45;&gt;Db_DbAdvanceTrait</title>
<path fill="none" stroke="black" d="M975.281,-175.448C994.221,-175.448 1020.15,-175.448 1046.38,-175.448"/>
<polygon fill="black" stroke="black" points="1046.43,-178.948 1056.43,-175.448 1046.43,-171.948 1046.43,-178.948"/>
</g>
<!-- Db_DbInterface -->
<g id="node26" class="node"><title>Db_DbInterface</title>
<polygon fill="none" stroke="black" points="1189.18,-139.448 1114.18,-139.448 1114.18,-103.448 1195.18,-103.448 1195.18,-133.448 1189.18,-139.448"/>
<polyline fill="none" stroke="black" points="1189.18,-139.448 1189.18,-133.448 "/>
<polyline fill="none" stroke="black" points="1195.18,-133.448 1189.18,-133.448 "/>
<text text-anchor="middle" x="1154.68" y="-117.748" font-family="Times,serif" font-size="14.00">DbInterface</text>
</g>
<!-- Db_Db&#45;&gt;Db_DbInterface -->
<g id="edge48" class="edge"><title>Db_Db&#45;&gt;Db_DbInterface</title>
<path fill="none" stroke="black" d="M966.637,-170.073C998.434,-161.807 1060.25,-145.736 1104.11,-134.336"/>
<polygon fill="black" stroke="black" points="1105.21,-137.666 1114.01,-131.762 1103.45,-130.891 1105.21,-137.666"/>
</g>
<!-- Cache -->
<g id="node27" class="node"><title>Cache</title>
<polygon fill="none" stroke="black" points="716.282,-600.448 662.282,-600.448 662.282,-596.448 658.282,-596.448 658.282,-592.448 662.282,-592.448 662.282,-572.448 658.282,-572.448 658.282,-568.448 662.282,-568.448 662.282,-564.448 716.282,-564.448 716.282,-600.448"/>
<polyline fill="none" stroke="black" points="662.282,-596.448 666.282,-596.448 666.282,-592.448 662.282,-592.448 "/>
<polyline fill="none" stroke="black" points="662.282,-572.448 666.282,-572.448 666.282,-568.448 662.282,-568.448 "/>
<text text-anchor="middle" x="689.282" y="-578.748" font-family="Times,serif" font-size="14.00">Cache</text>
</g>
<!-- Cache&#45;&gt;Core_ComponentBase -->
<g id="edge49" class="edge"><title>Cache&#45;&gt;Core_ComponentBase</title>
<path fill="none" stroke="black" stroke-dasharray="1,5" d="M716.562,-575.458C778.235,-560.786 933.573,-534.159 1020.33,-611.448 1115.15,-695.917 1145.66,-1117.91 1152.21,-1231.34"/>
<polygon fill="black" stroke="black" points="1148.72,-1231.54 1152.77,-1241.33 1155.7,-1231.15 1148.72,-1231.54"/>
</g>
<!-- CallableView -->
<g id="node28" class="node"><title>CallableView</title>
<polygon fill="none" stroke="black" points="734.782,-1194.45 643.782,-1194.45 643.782,-1190.45 639.782,-1190.45 639.782,-1186.45 643.782,-1186.45 643.782,-1166.45 639.782,-1166.45 639.782,-1162.45 643.782,-1162.45 643.782,-1158.45 734.782,-1158.45 734.782,-1194.45"/>
<polyline fill="none" stroke="black" points="643.782,-1190.45 647.782,-1190.45 647.782,-1186.45 643.782,-1186.45 "/>
<polyline fill="none" stroke="black" points="643.782,-1166.45 647.782,-1166.45 647.782,-1162.45 643.782,-1162.45 "/>
<text text-anchor="middle" x="689.282" y="-1172.75" font-family="Times,serif" font-size="14.00">CallableView</text>
</g>
<!-- CallableView&#45;&gt;Core_View -->
<g id="edge65" class="edge"><title>CallableView&#45;&gt;Core_View</title>
<path fill="none" stroke="black" d="M735.04,-1182.52C766.551,-1189.04 807.592,-1202.37 833.589,-1229.45 869.51,-1266.86 833.557,-1303.15 869.589,-1340.45 879.704,-1350.92 894.19,-1357.35 907.695,-1361.29"/>
<polygon fill="black" stroke="black" points="907.189,-1364.77 917.743,-1363.84 908.912,-1357.98 907.189,-1364.77"/>
</g>
<!-- DbManager -->
<g id="node29" class="node"><title>DbManager</title>
<polygon fill="none" stroke="black" points="730.282,-276.448 648.282,-276.448 648.282,-272.448 644.282,-272.448 644.282,-268.448 648.282,-268.448 648.282,-248.448 644.282,-248.448 644.282,-244.448 648.282,-244.448 648.282,-240.448 730.282,-240.448 730.282,-276.448"/>
<polyline fill="none" stroke="black" points="648.282,-272.448 652.282,-272.448 652.282,-268.448 648.282,-268.448 "/>
<polyline fill="none" stroke="black" points="648.282,-248.448 652.282,-248.448 652.282,-244.448 648.282,-244.448 "/>
<text text-anchor="middle" x="689.282" y="-254.748" font-family="Times,serif" font-size="14.00">DbManager</text>
</g>
<!-- DbManager&#45;&gt;Core_ComponentBase -->
<g id="edge50" class="edge"><title>DbManager&#45;&gt;Core_ComponentBase</title>
<path fill="none" stroke="black" stroke-dasharray="1,5" d="M730.499,-255.43C801.253,-252.571 947.393,-258.092 1020.33,-343.448 1138.5,-481.731 1151.95,-1091.69 1153.48,-1231.03"/>
<polygon fill="black" stroke="black" points="1149.99,-1231.33 1153.58,-1241.3 1156.99,-1231.27 1149.99,-1231.33"/>
</g>
<!-- DbManager&#45;&gt;Db_Db -->
<g id="edge67" class="edge"><title>DbManager&#45;&gt;Db_Db</title>
<path fill="none" stroke="black" d="M730.478,-245.297C781.934,-228.461 869.831,-199.702 915.114,-184.887"/>
<polygon fill="black" stroke="black" points="916.467,-188.126 924.883,-181.69 914.29,-181.474 916.467,-188.126"/>
</g>
<!-- EmptyView -->
<g id="node30" class="node"><title>EmptyView</title>
<polygon fill="none" stroke="black" points="730.782,-1140.45 647.782,-1140.45 647.782,-1136.45 643.782,-1136.45 643.782,-1132.45 647.782,-1132.45 647.782,-1112.45 643.782,-1112.45 643.782,-1108.45 647.782,-1108.45 647.782,-1104.45 730.782,-1104.45 730.782,-1140.45"/>
<polyline fill="none" stroke="black" points="647.782,-1136.45 651.782,-1136.45 651.782,-1132.45 647.782,-1132.45 "/>
<polyline fill="none" stroke="black" points="647.782,-1112.45 651.782,-1112.45 651.782,-1108.45 647.782,-1108.45 "/>
<text text-anchor="middle" x="689.282" y="-1118.75" font-family="Times,serif" font-size="14.00">EmptyView</text>
</g>
<!-- EmptyView&#45;&gt;Core_View -->
<g id="edge66" class="edge"><title>EmptyView&#45;&gt;Core_View</title>
<path fill="none" stroke="black" d="M730.805,-1118.67C763.04,-1118.04 807.004,-1122.86 833.589,-1149.45 894.674,-1210.53 813.648,-1274.63 869.589,-1340.45 879.253,-1351.82 894.107,-1358.4 908.006,-1362.21"/>
<polygon fill="black" stroke="black" points="907.336,-1365.65 917.871,-1364.52 908.934,-1358.83 907.336,-1365.65"/>
</g>
<!-- EventManager -->
<g id="node31" class="node"><title>EventManager</title>
<polygon fill="none" stroke="black" points="737.782,-546.448 640.782,-546.448 640.782,-542.448 636.782,-542.448 636.782,-538.448 640.782,-538.448 640.782,-518.448 636.782,-518.448 636.782,-514.448 640.782,-514.448 640.782,-510.448 737.782,-510.448 737.782,-546.448"/>
<polyline fill="none" stroke="black" points="640.782,-542.448 644.782,-542.448 644.782,-538.448 640.782,-538.448 "/>
<polyline fill="none" stroke="black" points="640.782,-518.448 644.782,-518.448 644.782,-514.448 640.782,-514.448 "/>
<text text-anchor="middle" x="689.282" y="-524.748" font-family="Times,serif" font-size="14.00">EventManager</text>
</g>
<!-- EventManager&#45;&gt;Core_ComponentBase -->
<g id="edge51" class="edge"><title>EventManager&#45;&gt;Core_ComponentBase</title>
<path fill="none" stroke="black" stroke-dasharray="1,5" d="M737.904,-516.652C808.999,-502.148 942.802,-487.314 1020.33,-557.448 1122.59,-649.954 1147.81,-1111.18 1152.67,-1230.98"/>
<polygon fill="black" stroke="black" points="1149.18,-1231.32 1153.07,-1241.18 1156.18,-1231.05 1149.18,-1231.32"/>
</g>
<!-- FacadesAutoLoader -->
<g id="node32" class="node"><title>FacadesAutoLoader</title>
<polygon fill="none" stroke="black" points="1007.46,-1086.45 882.46,-1086.45 882.46,-1082.45 878.46,-1082.45 878.46,-1078.45 882.46,-1078.45 882.46,-1058.45 878.46,-1058.45 878.46,-1054.45 882.46,-1054.45 882.46,-1050.45 1007.46,-1050.45 1007.46,-1086.45"/>
<polyline fill="none" stroke="black" points="882.46,-1082.45 886.46,-1082.45 886.46,-1078.45 882.46,-1078.45 "/>
<polyline fill="none" stroke="black" points="882.46,-1058.45 886.46,-1058.45 886.46,-1054.45 882.46,-1054.45 "/>
<text text-anchor="middle" x="944.96" y="-1064.75" font-family="Times,serif" font-size="14.00">FacadesAutoLoader</text>
</g>
<!-- FacadesAutoLoader&#45;&gt;Core_ComponentBase -->
<g id="edge52" class="edge"><title>FacadesAutoLoader&#45;&gt;Core_ComponentBase</title>
<path fill="none" stroke="black" stroke-dasharray="1,5" d="M1005.13,-1086.5C1010.47,-1089.13 1015.63,-1092.1 1020.33,-1095.45 1072.9,-1132.83 1116.15,-1196.21 1138.09,-1232.25"/>
<polygon fill="black" stroke="black" points="1135.32,-1234.43 1143.46,-1241.22 1141.33,-1230.84 1135.32,-1234.43"/>
</g>
<!-- FacadesBase -->
<g id="node33" class="node"><title>FacadesBase</title>
<ellipse fill="none" stroke="black" cx="689.282" cy="-366.448" rx="55.7903" ry="18"/>
<text text-anchor="middle" x="689.282" y="-362.748" font-family="Times,serif" font-size="14.00">FacadesBase</text>
</g>
<!-- FacadesBase&#45;&gt;SingletonEx -->
<g id="edge69" class="edge"><title>FacadesBase&#45;&gt;SingletonEx</title>
<path fill="none" stroke="black" stroke-dasharray="5,2" d="M743.836,-370.657C774.392,-369.969 810.994,-363.38 833.589,-339.448 919.12,-248.858 776.007,-143.694 869.589,-61.4483 1001.63,54.5958 1238.58,-23.7728 1328.44,-59.936"/>
<polygon fill="black" stroke="black" points="1327.33,-63.2642 1337.91,-63.8126 1329.99,-56.7857 1327.33,-63.2642"/>
</g>
<!-- FacadesBase&#45;&gt;FacadesAutoLoader -->
<g id="edge68" class="edge"><title>FacadesBase&#45;&gt;FacadesAutoLoader</title>
<path fill="none" stroke="black" d="M743.9,-362.525C774.284,-363.353 810.688,-369.987 833.589,-393.448 925.493,-487.598 940.99,-924.539 943.496,-1040.26"/>
<polygon fill="black" stroke="black" points="940,-1040.51 943.7,-1050.44 946.998,-1040.37 940,-1040.51"/>
</g>
<!-- JsonRpcClientBase -->
<g id="node34" class="node"><title>JsonRpcClientBase</title>
<ellipse fill="none" stroke="black" cx="689.282" cy="-420.448" rx="79.0865" ry="18"/>
<text text-anchor="middle" x="689.282" y="-416.748" font-family="Times,serif" font-size="14.00">JsonRpcClientBase</text>
</g>
<!-- JsonRpcClientBase&#45;&gt;SingletonEx -->
<g id="edge71" class="edge"><title>JsonRpcClientBase&#45;&gt;SingletonEx</title>
<path fill="none" stroke="black" stroke-dasharray="5,2" d="M768.051,-422.904C792.185,-419.612 816.821,-411.39 833.589,-393.448 925.887,-294.693 769.973,-182.817 869.589,-91.4483 931.449,-34.7102 1186.99,-55.2488 1304.6,-68.1641"/>
<polygon fill="black" stroke="black" points="1304.53,-71.6786 1314.86,-69.3104 1305.31,-64.7219 1304.53,-71.6786"/>
</g>
<!-- JsonRpcExt -->
<g id="node35" class="node"><title>JsonRpcExt</title>
<polygon fill="none" stroke="black" points="985.46,-1140.45 904.46,-1140.45 904.46,-1136.45 900.46,-1136.45 900.46,-1132.45 904.46,-1132.45 904.46,-1112.45 900.46,-1112.45 900.46,-1108.45 904.46,-1108.45 904.46,-1104.45 985.46,-1104.45 985.46,-1140.45"/>
<polyline fill="none" stroke="black" points="904.46,-1136.45 908.46,-1136.45 908.46,-1132.45 904.46,-1132.45 "/>
<polyline fill="none" stroke="black" points="904.46,-1112.45 908.46,-1112.45 908.46,-1108.45 904.46,-1108.45 "/>
<text text-anchor="middle" x="944.96" y="-1118.75" font-family="Times,serif" font-size="14.00">JsonRpcExt</text>
</g>
<!-- JsonRpcClientBase&#45;&gt;JsonRpcExt -->
<g id="edge70" class="edge"><title>JsonRpcClientBase&#45;&gt;JsonRpcExt</title>
<path fill="none" stroke="black" d="M767.595,-417.244C792.139,-420.383 817.145,-428.701 833.589,-447.448 928.691,-555.872 783.574,-979.684 869.589,-1095.45 875.86,-1103.89 885.029,-1109.69 894.802,-1113.69"/>
<polygon fill="black" stroke="black" points="893.689,-1117.01 904.284,-1116.99 895.99,-1110.39 893.689,-1117.01"/>
</g>
<!-- JsonRpcExt&#45;&gt;Core_ComponentBase -->
<g id="edge53" class="edge"><title>JsonRpcExt&#45;&gt;Core_ComponentBase</title>
<path fill="none" stroke="black" stroke-dasharray="1,5" d="M985.678,-1134.05C997.218,-1138.16 1009.6,-1143.32 1020.33,-1149.45 1061.66,-1173.06 1102.96,-1209.63 1128.41,-1234.04"/>
<polygon fill="black" stroke="black" points="1126.16,-1236.75 1135.78,-1241.2 1131.04,-1231.73 1126.16,-1236.75"/>
</g>
<!-- Misc -->
<g id="node36" class="node"><title>Misc</title>
<polygon fill="none" stroke="black" points="716.282,-492.448 662.282,-492.448 662.282,-488.448 658.282,-488.448 658.282,-484.448 662.282,-484.448 662.282,-464.448 658.282,-464.448 658.282,-460.448 662.282,-460.448 662.282,-456.448 716.282,-456.448 716.282,-492.448"/>
<polyline fill="none" stroke="black" points="662.282,-488.448 666.282,-488.448 666.282,-484.448 662.282,-484.448 "/>
<polyline fill="none" stroke="black" points="662.282,-464.448 666.282,-464.448 666.282,-460.448 662.282,-460.448 "/>
<text text-anchor="middle" x="689.282" y="-470.748" font-family="Times,serif" font-size="14.00">Misc</text>
</g>
<!-- Misc&#45;&gt;Core_ComponentBase -->
<g id="edge54" class="edge"><title>Misc&#45;&gt;Core_ComponentBase</title>
<path fill="none" stroke="black" stroke-dasharray="1,5" d="M716.709,-467.295C778.701,-452.27 934.677,-424.936 1020.33,-503.448 1130.12,-604.087 1149.85,-1105.25 1153.09,-1230.86"/>
<polygon fill="black" stroke="black" points="1149.6,-1231.28 1153.34,-1241.19 1156.59,-1231.11 1149.6,-1231.28"/>
</g>
<!-- Pager -->
<g id="node37" class="node"><title>Pager</title>
<polygon fill="none" stroke="black" points="716.282,-762.448 662.282,-762.448 662.282,-758.448 658.282,-758.448 658.282,-754.448 662.282,-754.448 662.282,-734.448 658.282,-734.448 658.282,-730.448 662.282,-730.448 662.282,-726.448 716.282,-726.448 716.282,-762.448"/>
<polyline fill="none" stroke="black" points="662.282,-758.448 666.282,-758.448 666.282,-754.448 662.282,-754.448 "/>
<polyline fill="none" stroke="black" points="662.282,-734.448 666.282,-734.448 666.282,-730.448 662.282,-730.448 "/>
<text text-anchor="middle" x="689.282" y="-740.748" font-family="Times,serif" font-size="14.00">Pager</text>
</g>
<!-- Pager&#45;&gt;Core_ComponentBase -->
<g id="edge55" class="edge"><title>Pager&#45;&gt;Core_ComponentBase</title>
<path fill="none" stroke="black" stroke-dasharray="1,5" d="M716.724,-738.131C778.073,-725.165 931.602,-702.672 1020.33,-777.448 1091.78,-837.66 1137.35,-1137.32 1150.05,-1231.25"/>
<polygon fill="black" stroke="black" points="1146.61,-1231.96 1151.4,-1241.41 1153.55,-1231.03 1146.61,-1231.96"/>
</g>
<!-- PagerInterface -->
<g id="node38" class="node"><title>PagerInterface</title>
<polygon fill="none" stroke="black" points="986.46,-1194.45 897.46,-1194.45 897.46,-1158.45 992.46,-1158.45 992.46,-1188.45 986.46,-1194.45"/>
<polyline fill="none" stroke="black" points="986.46,-1194.45 986.46,-1188.45 "/>
<polyline fill="none" stroke="black" points="992.46,-1188.45 986.46,-1188.45 "/>
<text text-anchor="middle" x="944.96" y="-1172.75" font-family="Times,serif" font-size="14.00">PagerInterface</text>
</g>
<!-- Pager&#45;&gt;PagerInterface -->
<g id="edge72" class="edge"><title>Pager&#45;&gt;PagerInterface</title>
<path fill="none" stroke="black" d="M716.395,-740.92C748.998,-738.14 804.064,-739.097 833.589,-771.448 890.471,-833.774 817.938,-1082.72 869.589,-1149.45 874.437,-1155.71 880.874,-1160.52 887.938,-1164.22"/>
<polygon fill="black" stroke="black" points="886.59,-1167.45 897.148,-1168.33 889.443,-1161.06 886.59,-1167.45"/>
</g>
<!-- RedisManager -->
<g id="node39" class="node"><title>RedisManager</title>
<polygon fill="none" stroke="black" points="737.282,-330.448 641.282,-330.448 641.282,-326.448 637.282,-326.448 637.282,-322.448 641.282,-322.448 641.282,-302.448 637.282,-302.448 637.282,-298.448 641.282,-298.448 641.282,-294.448 737.282,-294.448 737.282,-330.448"/>
<polyline fill="none" stroke="black" points="641.282,-326.448 645.282,-326.448 645.282,-322.448 641.282,-322.448 "/>
<polyline fill="none" stroke="black" points="641.282,-302.448 645.282,-302.448 645.282,-298.448 641.282,-298.448 "/>
<text text-anchor="middle" x="689.282" y="-308.748" font-family="Times,serif" font-size="14.00">RedisManager</text>
</g>
<!-- RedisManager&#45;&gt;Core_ComponentBase -->
<g id="edge56" class="edge"><title>RedisManager&#45;&gt;Core_ComponentBase</title>
<path fill="none" stroke="black" stroke-dasharray="1,5" d="M737.338,-316.097C811.856,-324.681 955.227,-353.222 1020.33,-447.448 1111.37,-579.213 1145.23,-1103.05 1152.23,-1231.1"/>
<polygon fill="black" stroke="black" points="1148.75,-1231.47 1152.78,-1241.27 1155.74,-1231.09 1148.75,-1231.47"/>
</g>
<!-- RedisCache -->
<g id="node40" class="node"><title>RedisCache</title>
<polygon fill="none" stroke="black" points="729.782,-708.448 648.782,-708.448 648.782,-704.448 644.782,-704.448 644.782,-700.448 648.782,-700.448 648.782,-680.448 644.782,-680.448 644.782,-676.448 648.782,-676.448 648.782,-672.448 729.782,-672.448 729.782,-708.448"/>
<polyline fill="none" stroke="black" points="648.782,-704.448 652.782,-704.448 652.782,-700.448 648.782,-700.448 "/>
<polyline fill="none" stroke="black" points="648.782,-680.448 652.782,-680.448 652.782,-676.448 648.782,-676.448 "/>
<text text-anchor="middle" x="689.282" y="-686.748" font-family="Times,serif" font-size="14.00">RedisCache</text>
</g>
<!-- RedisCache&#45;&gt;Core_ComponentBase -->
<g id="edge57" class="edge"><title>RedisCache&#45;&gt;Core_ComponentBase</title>
<path fill="none" stroke="black" stroke-dasharray="1,5" d="M729.885,-681.161C798.063,-667.709 938.179,-651.547 1020.33,-722.448 1099.44,-790.726 1140.4,-1130.83 1150.92,-1231.4"/>
<polygon fill="black" stroke="black" points="1147.44,-1231.82 1151.95,-1241.41 1154.41,-1231.11 1147.44,-1231.82"/>
</g>
<!-- RouteHookApiServer -->
<g id="node41" class="node"><title>RouteHookApiServer</title>
<polygon fill="none" stroke="black" points="756.282,-924.448 622.282,-924.448 622.282,-920.448 618.282,-920.448 618.282,-916.448 622.282,-916.448 622.282,-896.448 618.282,-896.448 618.282,-892.448 622.282,-892.448 622.282,-888.448 756.282,-888.448 756.282,-924.448"/>
<polyline fill="none" stroke="black" points="622.282,-920.448 626.282,-920.448 626.282,-916.448 622.282,-916.448 "/>
<polyline fill="none" stroke="black" points="622.282,-896.448 626.282,-896.448 626.282,-892.448 622.282,-892.448 "/>
<text text-anchor="middle" x="689.282" y="-902.748" font-family="Times,serif" font-size="14.00">RouteHookApiServer</text>
</g>
<!-- RouteHookApiServer&#45;&gt;Core_Route -->
<g id="edge73" class="edge"><title>RouteHookApiServer&#45;&gt;Core_Route</title>
<path fill="none" stroke="black" stroke-dasharray="5,2" d="M756.531,-902.795C784.083,-904.931 814.117,-912.663 833.589,-933.448 924.195,-1030.16 788.945,-1124.29 869.589,-1229.45 877.678,-1240 890.078,-1246.85 902.449,-1251.3"/>
<polygon fill="black" stroke="black" points="901.691,-1254.73 912.28,-1254.37 903.781,-1248.05 901.691,-1254.73"/>
</g>
<!-- RouteHookApiServer&#45;&gt;Core_ComponentBase -->
<g id="edge58" class="edge"><title>RouteHookApiServer&#45;&gt;Core_ComponentBase</title>
<path fill="none" stroke="black" stroke-dasharray="1,5" d="M756.457,-894.079C828.558,-884.485 943.816,-880.964 1020.33,-937.448 1118.12,-1009.64 1144.55,-1166.8 1151.4,-1231.13"/>
<polygon fill="black" stroke="black" points="1147.94,-1231.72 1152.4,-1241.33 1154.9,-1231.04 1147.94,-1231.72"/>
</g>
<!-- RouteHookDirectoryMode -->
<g id="node42" class="node"><title>RouteHookDirectoryMode</title>
<polygon fill="none" stroke="black" points="770.782,-1086.45 607.782,-1086.45 607.782,-1082.45 603.782,-1082.45 603.782,-1078.45 607.782,-1078.45 607.782,-1058.45 603.782,-1058.45 603.782,-1054.45 607.782,-1054.45 607.782,-1050.45 770.782,-1050.45 770.782,-1086.45"/>
<polyline fill="none" stroke="black" points="607.782,-1082.45 611.782,-1082.45 611.782,-1078.45 607.782,-1078.45 "/>
<polyline fill="none" stroke="black" points="607.782,-1058.45 611.782,-1058.45 611.782,-1054.45 607.782,-1054.45 "/>
<text text-anchor="middle" x="689.282" y="-1064.75" font-family="Times,serif" font-size="14.00">RouteHookDirectoryMode</text>
</g>
<!-- RouteHookDirectoryMode&#45;&gt;Core_Route -->
<g id="edge74" class="edge"><title>RouteHookDirectoryMode&#45;&gt;Core_Route</title>
<path fill="none" stroke="black" stroke-dasharray="5,2" d="M771.077,-1068.12C793.696,-1071.85 816.689,-1079.79 833.589,-1095.45 878.825,-1137.36 828.699,-1183.29 869.589,-1229.45 878.476,-1239.48 891.196,-1246.21 903.609,-1250.7"/>
<polygon fill="black" stroke="black" points="902.829,-1254.13 913.42,-1253.85 904.964,-1247.46 902.829,-1254.13"/>
</g>
<!-- RouteHookDirectoryMode&#45;&gt;Core_SuperGlobal -->
<g id="edge75" class="edge"><title>RouteHookDirectoryMode&#45;&gt;Core_SuperGlobal</title>
<path fill="none" stroke="black" stroke-dasharray="5,2" d="M771.089,-1067.22C793.978,-1070.86 817.119,-1078.98 833.589,-1095.45 894.674,-1156.53 813.648,-1220.63 869.589,-1286.45 875.795,-1293.75 884.142,-1299.08 893.002,-1302.96"/>
<polygon fill="black" stroke="black" points="891.761,-1306.24 902.353,-1306.52 894.247,-1299.69 891.761,-1306.24"/>
</g>
<!-- RouteHookDirectoryMode&#45;&gt;Core_ComponentBase -->
<g id="edge59" class="edge"><title>RouteHookDirectoryMode&#45;&gt;Core_ComponentBase</title>
<path fill="none" stroke="black" stroke-dasharray="1,5" d="M771.218,-1053.64C801.913,-1048.71 837.255,-1043.87 869.589,-1041.45 936.399,-1036.45 961.89,-1008.69 1020.33,-1041.45 1093.86,-1082.66 1131.7,-1182.77 1146.32,-1231.66"/>
<polygon fill="black" stroke="black" points="1142.96,-1232.64 1149.09,-1241.27 1149.68,-1230.7 1142.96,-1232.64"/>
</g>
<!-- RouteHookManager -->
<g id="node43" class="node"><title>RouteHookManager</title>
<polygon fill="none" stroke="black" points="753.282,-870.448 625.282,-870.448 625.282,-866.448 621.282,-866.448 621.282,-862.448 625.282,-862.448 625.282,-842.448 621.282,-842.448 621.282,-838.448 625.282,-838.448 625.282,-834.448 753.282,-834.448 753.282,-870.448"/>
<polyline fill="none" stroke="black" points="625.282,-866.448 629.282,-866.448 629.282,-862.448 625.282,-862.448 "/>
<polyline fill="none" stroke="black" points="625.282,-842.448 629.282,-842.448 629.282,-838.448 625.282,-838.448 "/>
<text text-anchor="middle" x="689.282" y="-848.748" font-family="Times,serif" font-size="14.00">RouteHookManager</text>
</g>
<!-- RouteHookManager&#45;&gt;Core_Route -->
<g id="edge76" class="edge"><title>RouteHookManager&#45;&gt;Core_Route</title>
<path fill="none" stroke="black" stroke-dasharray="5,2" d="M753.416,-848.4C781.882,-850.131 813.539,-857.645 833.589,-879.448 886.514,-937.001 822.587,-1166.97 869.589,-1229.45 877.58,-1240.07 889.955,-1246.94 902.333,-1251.38"/>
<polygon fill="black" stroke="black" points="901.588,-1254.82 912.176,-1254.45 903.67,-1248.13 901.588,-1254.82"/>
</g>
<!-- RouteHookManager&#45;&gt;Core_ComponentBase -->
<g id="edge60" class="edge"><title>RouteHookManager&#45;&gt;Core_ComponentBase</title>
<path fill="none" stroke="black" stroke-dasharray="1,5" d="M753.475,-840.569C825.838,-830.749 944.181,-826.729 1020.33,-886.448 1131.03,-973.259 1149.96,-1159.49 1153.1,-1230.83"/>
<polygon fill="black" stroke="black" points="1149.62,-1231.4 1153.48,-1241.26 1156.61,-1231.14 1149.62,-1231.4"/>
</g>
<!-- RouteHookPathInfoByGet -->
<g id="node44" class="node"><title>RouteHookPathInfoByGet</title>
<polygon fill="none" stroke="black" points="769.782,-1032.45 608.782,-1032.45 608.782,-1028.45 604.782,-1028.45 604.782,-1024.45 608.782,-1024.45 608.782,-1004.45 604.782,-1004.45 604.782,-1000.45 608.782,-1000.45 608.782,-996.448 769.782,-996.448 769.782,-1032.45"/>
<polyline fill="none" stroke="black" points="608.782,-1028.45 612.782,-1028.45 612.782,-1024.45 608.782,-1024.45 "/>
<polyline fill="none" stroke="black" points="608.782,-1004.45 612.782,-1004.45 612.782,-1000.45 608.782,-1000.45 "/>
<text text-anchor="middle" x="689.282" y="-1010.75" font-family="Times,serif" font-size="14.00">RouteHookPathInfoByGet</text>
</g>
<!-- RouteHookPathInfoByGet&#45;&gt;Core_Route -->
<g id="edge77" class="edge"><title>RouteHookPathInfoByGet&#45;&gt;Core_Route</title>
<path fill="none" stroke="black" stroke-dasharray="5,2" d="M769.94,-1013.07C793.191,-1016.63 816.826,-1024.73 833.589,-1041.45 893.835,-1101.51 815.549,-1163.74 869.589,-1229.45 878.103,-1239.8 890.73,-1246.61 903.173,-1251.07"/>
<polygon fill="black" stroke="black" points="902.441,-1254.51 913.031,-1254.18 904.543,-1247.84 902.441,-1254.51"/>
</g>
<!-- RouteHookPathInfoByGet&#45;&gt;Core_SuperGlobal -->
<g id="edge78" class="edge"><title>RouteHookPathInfoByGet&#45;&gt;Core_SuperGlobal</title>
<path fill="none" stroke="black" stroke-dasharray="5,2" d="M770.009,-1012.58C793.403,-1016.08 817.104,-1024.28 833.589,-1041.45 909.827,-1120.82 800.025,-1201.16 869.589,-1286.45 875.583,-1293.8 883.752,-1299.14 892.487,-1303.04"/>
<polygon fill="black" stroke="black" points="891.521,-1306.42 902.112,-1306.72 894.02,-1299.88 891.521,-1306.42"/>
</g>
<!-- RouteHookPathInfoByGet&#45;&gt;Core_ComponentBase -->
<g id="edge61" class="edge"><title>RouteHookPathInfoByGet&#45;&gt;Core_ComponentBase</title>
<path fill="none" stroke="black" stroke-dasharray="1,5" d="M764.904,-996.433C835.864,-983.629 942.961,-975.937 1020.33,-1022.45 1098.12,-1069.21 1134.28,-1179.4 1147.46,-1231.38"/>
<polygon fill="black" stroke="black" points="1144.1,-1232.37 1149.87,-1241.25 1150.9,-1230.71 1144.1,-1232.37"/>
</g>
<!-- RouteHookRewrite -->
<g id="node45" class="node"><title>RouteHookRewrite</title>
<polygon fill="none" stroke="black" points="750.282,-978.448 628.282,-978.448 628.282,-974.448 624.282,-974.448 624.282,-970.448 628.282,-970.448 628.282,-950.448 624.282,-950.448 624.282,-946.448 628.282,-946.448 628.282,-942.448 750.282,-942.448 750.282,-978.448"/>
<polyline fill="none" stroke="black" points="628.282,-974.448 632.282,-974.448 632.282,-970.448 628.282,-970.448 "/>
<polyline fill="none" stroke="black" points="628.282,-950.448 632.282,-950.448 632.282,-946.448 628.282,-946.448 "/>
<text text-anchor="middle" x="689.282" y="-956.748" font-family="Times,serif" font-size="14.00">RouteHookRewrite</text>
</g>
<!-- RouteHookRewrite&#45;&gt;Core_Route -->
<g id="edge79" class="edge"><title>RouteHookRewrite&#45;&gt;Core_Route</title>
<path fill="none" stroke="black" stroke-dasharray="5,2" d="M750.448,-956.657C779.446,-958.194 812.437,-965.464 833.589,-987.448 908.984,-1065.81 802.275,-1144.05 869.589,-1229.45 877.818,-1239.89 890.254,-1246.71 902.614,-1251.17"/>
<polygon fill="black" stroke="black" points="901.838,-1254.59 912.428,-1254.26 903.94,-1247.92 901.838,-1254.59"/>
</g>
<!-- RouteHookRewrite&#45;&gt;Core_SuperGlobal -->
<g id="edge80" class="edge"><title>RouteHookRewrite&#45;&gt;Core_SuperGlobal</title>
<path fill="none" stroke="black" stroke-dasharray="5,2" d="M750.346,-956.393C779.499,-957.824 812.659,-965.08 833.589,-987.448 925.041,-1085.18 786.347,-1181.63 869.589,-1286.45 875.613,-1294.03 883.96,-1299.49 892.893,-1303.41"/>
<polygon fill="black" stroke="black" points="891.751,-1306.72 902.343,-1306.97 894.218,-1300.17 891.751,-1306.72"/>
</g>
<!-- RouteHookRewrite&#45;&gt;Core_ComponentBase -->
<g id="edge62" class="edge"><title>RouteHookRewrite&#45;&gt;Core_ComponentBase</title>
<path fill="none" stroke="black" stroke-dasharray="1,5" d="M750.563,-947.806C821.509,-936.457 939.83,-928.946 1020.33,-983.448 1107.03,-1042.15 1139.23,-1173.65 1149.49,-1231.38"/>
<polygon fill="black" stroke="black" points="1146.04,-1231.98 1151.16,-1241.26 1152.95,-1230.82 1146.04,-1231.98"/>
</g>
<!-- RouteHookRouteMap -->
<g id="node46" class="node"><title>RouteHookRouteMap</title>
<polygon fill="none" stroke="black" points="757.782,-816.448 620.782,-816.448 620.782,-812.448 616.782,-812.448 616.782,-808.448 620.782,-808.448 620.782,-788.448 616.782,-788.448 616.782,-784.448 620.782,-784.448 620.782,-780.448 757.782,-780.448 757.782,-816.448"/>
<polyline fill="none" stroke="black" points="620.782,-812.448 624.782,-812.448 624.782,-808.448 620.782,-808.448 "/>
<polyline fill="none" stroke="black" points="620.782,-788.448 624.782,-788.448 624.782,-784.448 620.782,-784.448 "/>
<text text-anchor="middle" x="689.282" y="-794.748" font-family="Times,serif" font-size="14.00">RouteHookRouteMap</text>
</g>
<!-- RouteHookRouteMap&#45;&gt;Core_Route -->
<g id="edge81" class="edge"><title>RouteHookRouteMap&#45;&gt;Core_Route</title>
<path fill="none" stroke="black" stroke-dasharray="5,2" d="M757.954,-794.589C785.258,-796.793 814.708,-804.634 833.589,-825.448 894.147,-892.208 815.898,-1157.05 869.589,-1229.45 877.508,-1240.13 889.864,-1247.01 902.247,-1251.45"/>
<polygon fill="black" stroke="black" points="901.511,-1254.88 912.1,-1254.51 903.587,-1248.2 901.511,-1254.88"/>
</g>
<!-- RouteHookRouteMap&#45;&gt;Core_ComponentBase -->
<g id="edge63" class="edge"><title>RouteHookRouteMap&#45;&gt;Core_ComponentBase</title>
<path fill="none" stroke="black" stroke-dasharray="1,5" d="M757.852,-785.477C830.909,-775.554 946.749,-772.288 1020.33,-832.448 1145.52,-934.798 1155.28,-1153.11 1154.56,-1231.06"/>
<polygon fill="black" stroke="black" points="1151.06,-1231.05 1154.4,-1241.1 1158.06,-1231.16 1151.06,-1231.05"/>
</g>
<!-- StrictCheck -->
<g id="node47" class="node"><title>StrictCheck</title>
<polygon fill="none" stroke="black" points="729.282,-654.448 649.282,-654.448 649.282,-650.448 645.282,-650.448 645.282,-646.448 649.282,-646.448 649.282,-626.448 645.282,-626.448 645.282,-622.448 649.282,-622.448 649.282,-618.448 729.282,-618.448 729.282,-654.448"/>
<polyline fill="none" stroke="black" points="649.282,-650.448 653.282,-650.448 653.282,-646.448 649.282,-646.448 "/>
<polyline fill="none" stroke="black" points="649.282,-626.448 653.282,-626.448 653.282,-622.448 649.282,-622.448 "/>
<text text-anchor="middle" x="689.282" y="-632.748" font-family="Times,serif" font-size="14.00">StrictCheck</text>
</g>
<!-- StrictCheck&#45;&gt;Core_ComponentBase -->
<g id="edge64" class="edge"><title>StrictCheck&#45;&gt;Core_ComponentBase</title>
<path fill="none" stroke="black" stroke-dasharray="1,5" d="M729.472,-626.801C797.646,-612.559 938.586,-594.734 1020.33,-666.448 1107.37,-742.81 1143.18,-1124.06 1151.63,-1231.32"/>
<polygon fill="black" stroke="black" points="1148.14,-1231.68 1152.4,-1241.38 1155.12,-1231.14 1148.14,-1231.68"/>
</g>
<!-- DuckPhp -->
<g id="node48" class="node"><title>DuckPhp</title>
<polygon fill="lightgrey" stroke="black" points="325.909,-762.448 264.242,-744.448 325.909,-726.448 387.576,-744.448 325.909,-762.448"/>
<polyline fill="none" stroke="black" points="275.761,-747.811 275.761,-741.086 "/>
<polyline fill="none" stroke="black" points="314.39,-729.811 337.428,-729.811 "/>
<polyline fill="none" stroke="black" points="376.057,-741.086 376.057,-747.811 "/>
<polyline fill="none" stroke="black" points="337.428,-759.086 314.39,-759.086 "/>
<text text-anchor="middle" x="325.909" y="-740.748" font-family="Times,serif" font-size="14.00">DuckPhp</text>
</g>
<!-- DuckPhp&#45;&gt;Core_App -->
<g id="edge82" class="edge"><title>DuckPhp&#45;&gt;Core_App</title>
<path fill="none" stroke="black" d="M330.194,-761.34C349.009,-858.089 443.065,-1341.74 466.107,-1460.22"/>
<polygon fill="black" stroke="black" points="462.708,-1461.08 468.052,-1470.22 469.579,-1459.74 462.708,-1461.08"/>
</g>
<!-- DuckPhp&#45;&gt;Cache -->
<g id="edge88" class="edge"><title>DuckPhp&#45;&gt;Cache</title>
<path fill="none" stroke="black" d="M343.288,-731.3C378.149,-704.024 463.202,-641.191 544.974,-609.448 579.868,-595.903 622.255,-588.998 651.842,-585.581"/>
<polygon fill="black" stroke="black" points="652.558,-589.024 662.126,-584.474 651.809,-582.064 652.558,-589.024"/>
</g>
<!-- DuckPhp&#45;&gt;DbManager -->
<g id="edge85" class="edge"><title>DuckPhp&#45;&gt;DbManager</title>
<path fill="none" stroke="black" d="M329.438,-727.269C340.465,-658.914 390.908,-404.219 544.974,-285.448 571.251,-265.191 608.179,-258.599 637.967,-256.989"/>
<polygon fill="black" stroke="black" points="638.313,-260.478 648.177,-256.613 638.055,-253.483 638.313,-260.478"/>
</g>
<!-- DuckPhp&#45;&gt;EventManager -->
<g id="edge86" class="edge"><title>DuckPhp&#45;&gt;EventManager</title>
<path fill="none" stroke="black" d="M336.589,-729.447C353.016,-704.832 388.392,-655.328 427.441,-622.448 473.436,-583.72 488.536,-576.188 544.974,-555.448 572.367,-545.382 604.148,-538.906 630.81,-534.829"/>
<polygon fill="black" stroke="black" points="631.367,-538.285 640.758,-533.381 630.359,-531.358 631.367,-538.285"/>
</g>
<!-- DuckPhp&#45;&gt;Pager -->
<g id="edge84" class="edge"><title>DuckPhp&#45;&gt;Pager</title>
<path fill="none" stroke="black" d="M387.802,-744.448C463.482,-744.448 590.19,-744.448 652.067,-744.448"/>
<polygon fill="black" stroke="black" points="652.133,-747.948 662.133,-744.448 652.132,-740.948 652.133,-747.948"/>
</g>
<!-- DuckPhp&#45;&gt;RouteHookPathInfoByGet -->
<g id="edge87" class="edge"><title>DuckPhp&#45;&gt;RouteHookPathInfoByGet</title>
<path fill="none" stroke="black" d="M335.637,-759.821C361.342,-803.542 441.498,-929.184 544.974,-987.448 561.243,-996.609 580.031,-1002.73 598.537,-1006.81"/>
<polygon fill="black" stroke="black" points="597.976,-1010.27 608.471,-1008.81 599.361,-1003.4 597.976,-1010.27"/>
</g>
<!-- DuckPhp&#45;&gt;RouteHookRouteMap -->
<g id="edge83" class="edge"><title>DuckPhp&#45;&gt;RouteHookRouteMap</title>
<path fill="none" stroke="black" d="M367.311,-750.486C425.887,-759.239 535.54,-775.624 610.213,-786.782"/>
<polygon fill="black" stroke="black" points="610.101,-790.305 620.508,-788.321 611.135,-783.381 610.101,-790.305"/>
</g>
<!-- HttpServer -->
<g id="node49" class="node"><title>HttpServer</title>
<polygon fill="lightgrey" stroke="black" points="116.188,-1719.45 46.4759,-1701.45 116.188,-1683.45 185.9,-1701.45 116.188,-1719.45"/>
<polyline fill="none" stroke="black" points="58.0949,-1704.45 58.0949,-1698.45 "/>
<polyline fill="none" stroke="black" points="104.569,-1686.45 127.807,-1686.45 "/>
<polyline fill="none" stroke="black" points="174.281,-1698.45 174.281,-1704.45 "/>
<polyline fill="none" stroke="black" points="127.807,-1716.45 104.569,-1716.45 "/>
<text text-anchor="middle" x="116.188" y="-1697.75" font-family="Times,serif" font-size="14.00">HttpServer</text>
</g>
<!-- ThrowOn -->
<g id="node50" class="node"><title>ThrowOn</title>
<polygon fill="lightgrey" stroke="black" points="116.188,-1802.45 52.8443,-1784.45 116.188,-1766.45 179.532,-1784.45 116.188,-1802.45"/>
<polyline fill="none" stroke="black" points="64.3873,-1787.73 64.3873,-1781.17 "/>
<polyline fill="none" stroke="black" points="104.645,-1769.73 127.731,-1769.73 "/>
<polyline fill="none" stroke="black" points="167.989,-1781.17 167.989,-1787.73 "/>
<polyline fill="none" stroke="black" points="127.731,-1799.17 104.645,-1799.17 "/>
<text text-anchor="middle" x="116.188" y="-1780.75" font-family="Times,serif" font-size="14.00">ThrowOn</text>
</g>
</g>
</svg>
