<?xml version="1.0" encoding="UTF-8" standalone="no"?>
<!DOCTYPE svg PUBLIC "-//W3C//DTD SVG 1.1//EN"
 "http://www.w3.org/Graphics/SVG/1.1/DTD/svg11.dtd">
<!-- Generated by graphviz version 2.38.0 (20140413.2041)
 -->
<!-- Title: G Pages: 1 -->
<svg width="1431pt" height="1451pt"
 viewBox="0.00 0.00 1430.79 1451.29" xmlns="http://www.w3.org/2000/svg" xmlns:xlink="http://www.w3.org/1999/xlink">
<g id="graph0" class="graph" transform="scale(1 1) rotate(0) translate(4 1447.29)">
<title>G</title>
<polygon fill="white" stroke="none" points="-4,4 -4,-1447.29 1426.79,-1447.29 1426.79,4 -4,4"/>
<g id="clust1" class="cluster"><title>cluster_Core</title>
<polygon fill="none" stroke="black" points="427.441,-908.287 427.441,-1435.29 1389.97,-1435.29 1389.97,-908.287 427.441,-908.287"/>
<text text-anchor="middle" x="908.707" y="-1420.09" font-family="Times,serif" font-size="14.00">[DuckPhp\Core]</text>
</g>
<g id="clust2" class="cluster"><title>cluster_Helper</title>
<polygon fill="none" stroke="black" points="8,-1008.29 8,-1299.29 407.441,-1299.29 407.441,-1008.29 8,-1008.29"/>
<text text-anchor="middle" x="207.721" y="-1284.09" font-family="Times,serif" font-size="14.00">[DuckPhp\Helper]</text>
</g>
<g id="clust3" class="cluster"><title>cluster_DB</title>
<polygon fill="none" stroke="black" points="1080.08,-14.2872 1080.08,-143.287 1414.79,-143.287 1414.79,-14.2872 1080.08,-14.2872"/>
<text text-anchor="middle" x="1247.43" y="-128.087" font-family="Times,serif" font-size="14.00">[DuckPhp\DB]</text>
</g>
<g id="clust4" class="cluster"><title>cluster_Ext</title>
<polygon fill="none" stroke="black" points="577.417,-41.2872 577.417,-872.287 1018.08,-872.287 1018.08,-41.2872 577.417,-41.2872"/>
<text text-anchor="middle" x="797.75" y="-857.087" font-family="Times,serif" font-size="14.00">[DuckPhp\Ext]</text>
</g>
<g id="clust5" class="cluster"><title>cluster_DuckPhp</title>
<polygon fill="none" stroke="black" points="248.053,-646.287 248.053,-775.287 403.765,-775.287 403.765,-646.287 248.053,-646.287"/>
<text text-anchor="middle" x="325.909" y="-760.087" font-family="Times,serif" font-size="14.00">[DuckPhp]</text>
</g>
<!-- Core_AppPluginTrait -->
<g id="node1" class="node"><title>Core_AppPluginTrait</title>
<polygon fill="none" stroke="black" points="689.282,-1102.29 596.612,-1084.29 689.282,-1066.29 781.952,-1084.29 689.282,-1102.29"/>
<text text-anchor="middle" x="689.282" y="-1080.59" font-family="Times,serif" font-size="14.00">AppPluginTrait</text>
</g>
<!-- Core_View -->
<g id="node7" class="node"><title>Core_View</title>
<polygon fill="none" stroke="black" points="974.582,-1006.29 920.582,-1006.29 920.582,-1002.29 916.582,-1002.29 916.582,-998.287 920.582,-998.287 920.582,-978.287 916.582,-978.287 916.582,-974.287 920.582,-974.287 920.582,-970.287 974.582,-970.287 974.582,-1006.29"/>
<polyline fill="none" stroke="black" points="920.582,-1002.29 924.582,-1002.29 924.582,-998.287 920.582,-998.287 "/>
<polyline fill="none" stroke="black" points="920.582,-978.287 924.582,-978.287 924.582,-974.287 920.582,-974.287 "/>
<text text-anchor="middle" x="947.582" y="-984.587" font-family="Times,serif" font-size="14.00">View</text>
</g>
<!-- Core_AppPluginTrait&#45;&gt;Core_View -->
<g id="edge24" class="edge"><title>Core_AppPluginTrait&#45;&gt;Core_View</title>
<path fill="none" stroke="black" d="M724.211,-1072.97C753.466,-1062.98 796.696,-1047.65 833.589,-1032.29 849.924,-1025.48 853.219,-1022 869.589,-1015.29 882.852,-1009.85 897.662,-1004.49 910.722,-999.998"/>
<polygon fill="black" stroke="black" points="911.967,-1003.27 920.314,-996.745 909.719,-996.642 911.967,-1003.27"/>
</g>
<!-- Core_Configer -->
<g id="node8" class="node"><title>Core_Configer</title>
<polygon fill="none" stroke="black" points="980.082,-1114.29 915.082,-1114.29 915.082,-1110.29 911.082,-1110.29 911.082,-1106.29 915.082,-1106.29 915.082,-1086.29 911.082,-1086.29 911.082,-1082.29 915.082,-1082.29 915.082,-1078.29 980.082,-1078.29 980.082,-1114.29"/>
<polyline fill="none" stroke="black" points="915.082,-1110.29 919.082,-1110.29 919.082,-1106.29 915.082,-1106.29 "/>
<polyline fill="none" stroke="black" points="915.082,-1086.29 919.082,-1086.29 919.082,-1082.29 915.082,-1082.29 "/>
<text text-anchor="middle" x="947.582" y="-1092.59" font-family="Times,serif" font-size="14.00">Configer</text>
</g>
<!-- Core_AppPluginTrait&#45;&gt;Core_Configer -->
<g id="edge23" class="edge"><title>Core_AppPluginTrait&#45;&gt;Core_Configer</title>
<path fill="none" stroke="black" d="M764.415,-1087.76C810.091,-1089.9 866.974,-1092.56 904.907,-1094.34"/>
<polygon fill="black" stroke="black" points="904.926,-1097.84 915.079,-1094.81 905.253,-1090.85 904.926,-1097.84"/>
</g>
<!-- Core_Route -->
<g id="node10" class="node"><title>Core_Route</title>
<polygon fill="lightgrey" stroke="black" points="947.582,-1060.29 902.505,-1042.29 947.582,-1024.29 992.66,-1042.29 947.582,-1060.29"/>
<polyline fill="none" stroke="black" points="913.649,-1046.74 913.649,-1037.84 "/>
<polyline fill="none" stroke="black" points="936.438,-1028.74 958.727,-1028.74 "/>
<polyline fill="none" stroke="black" points="981.516,-1037.84 981.516,-1046.74 "/>
<polyline fill="none" stroke="black" points="958.727,-1055.84 936.438,-1055.84 "/>
<text text-anchor="middle" x="947.582" y="-1038.59" font-family="Times,serif" font-size="14.00">Route</text>
</g>
<!-- Core_AppPluginTrait&#45;&gt;Core_Route -->
<g id="edge25" class="edge"><title>Core_AppPluginTrait&#45;&gt;Core_Route</title>
<path fill="none" stroke="black" d="M740.308,-1076.09C788.422,-1068.21 860.295,-1056.43 905.255,-1049.06"/>
<polygon fill="black" stroke="black" points="905.945,-1052.49 915.247,-1047.42 904.813,-1045.59 905.945,-1052.49"/>
</g>
<!-- Core_SuperGlobal -->
<g id="node14" class="node"><title>Core_SuperGlobal</title>
<polygon fill="none" stroke="black" points="990.082,-1168.29 905.082,-1168.29 905.082,-1164.29 901.082,-1164.29 901.082,-1160.29 905.082,-1160.29 905.082,-1140.29 901.082,-1140.29 901.082,-1136.29 905.082,-1136.29 905.082,-1132.29 990.082,-1132.29 990.082,-1168.29"/>
<polyline fill="none" stroke="black" points="905.082,-1164.29 909.082,-1164.29 909.082,-1160.29 905.082,-1160.29 "/>
<polyline fill="none" stroke="black" points="905.082,-1140.29 909.082,-1140.29 909.082,-1136.29 905.082,-1136.29 "/>
<text text-anchor="middle" x="947.582" y="-1146.59" font-family="Times,serif" font-size="14.00">SuperGlobal</text>
</g>
<!-- Core_AppPluginTrait&#45;&gt;Core_SuperGlobal -->
<g id="edge26" class="edge"><title>Core_AppPluginTrait&#45;&gt;Core_SuperGlobal</title>
<path fill="none" stroke="black" d="M729.767,-1094.46C774.17,-1105.89 846.427,-1124.5 895.196,-1137.05"/>
<polygon fill="black" stroke="black" points="894.368,-1140.46 904.924,-1139.56 896.113,-1133.68 894.368,-1140.46"/>
</g>
<!-- Core_App -->
<g id="node2" class="node"><title>Core_App</title>
<polygon fill="lightgrey" stroke="black" points="472.208,-1180.29 435.674,-1162.29 472.208,-1144.29 508.742,-1162.29 472.208,-1180.29"/>
<polyline fill="none" stroke="black" points="446.438,-1167.59 446.438,-1156.98 "/>
<polyline fill="none" stroke="black" points="461.443,-1149.59 482.972,-1149.59 "/>
<polyline fill="none" stroke="black" points="497.977,-1156.98 497.977,-1167.59 "/>
<polyline fill="none" stroke="black" points="482.972,-1174.98 461.443,-1174.98 "/>
<text text-anchor="middle" x="472.208" y="-1158.59" font-family="Times,serif" font-size="14.00">App</text>
</g>
<!-- Core_Kernel -->
<g id="node3" class="node"><title>Core_Kernel</title>
<polygon fill="none" stroke="black" points="689.282,-1196.29 640.35,-1178.29 689.282,-1160.29 738.213,-1178.29 689.282,-1196.29"/>
<text text-anchor="middle" x="689.282" y="-1174.59" font-family="Times,serif" font-size="14.00">Kernel</text>
</g>
<!-- Core_App&#45;&gt;Core_Kernel -->
<g id="edge9" class="edge"><title>Core_App&#45;&gt;Core_Kernel</title>
<path fill="none" stroke="black" d="M504.481,-1164.61C539.495,-1167.22 596.731,-1171.48 638.037,-1174.55"/>
<polygon fill="black" stroke="black" points="637.941,-1178.05 648.173,-1175.3 638.46,-1171.07 637.941,-1178.05"/>
</g>
<!-- Core_AutoLoader -->
<g id="node5" class="node"><title>Core_AutoLoader</title>
<ellipse fill="none" stroke="black" cx="947.582" cy="-1258.29" rx="53.0913" ry="18"/>
<text text-anchor="middle" x="947.582" y="-1254.59" font-family="Times,serif" font-size="14.00">AutoLoader</text>
</g>
<!-- Core_App&#45;&gt;Core_AutoLoader -->
<g id="edge13" class="edge"><title>Core_App&#45;&gt;Core_AutoLoader</title>
<path fill="none" stroke="black" stroke-dasharray="1,5" d="M483.934,-1174.76C496.836,-1188.8 519.911,-1210.99 544.974,-1221.29 560.443,-1227.65 776.578,-1245.13 885.194,-1253.58"/>
<polygon fill="black" stroke="black" points="885.118,-1257.09 895.359,-1254.37 885.661,-1250.11 885.118,-1257.09"/>
</g>
<!-- Core_ExceptionManager -->
<g id="node6" class="node"><title>Core_ExceptionManager</title>
<ellipse fill="none" stroke="black" cx="947.582" cy="-1332.29" rx="77.9862" ry="18"/>
<text text-anchor="middle" x="947.582" y="-1328.59" font-family="Times,serif" font-size="14.00">ExceptionManager</text>
</g>
<!-- Core_App&#45;&gt;Core_ExceptionManager -->
<g id="edge16" class="edge"><title>Core_App&#45;&gt;Core_ExceptionManager</title>
<path fill="none" stroke="black" stroke-dasharray="1,5" d="M472.954,-1180.1C473.444,-1222.2 481.271,-1327.67 544.974,-1373.29 597.119,-1410.63 770.552,-1385.11 833.589,-1373.29 850.462,-1370.12 853.487,-1365.24 869.589,-1359.29 877.42,-1356.39 885.726,-1353.4 893.873,-1350.51"/>
<polygon fill="black" stroke="black" points="895.062,-1353.8 903.326,-1347.17 892.732,-1347.2 895.062,-1353.8"/>
</g>
<!-- Core_App&#45;&gt;Core_View -->
<g id="edge19" class="edge"><title>Core_App&#45;&gt;Core_View</title>
<path fill="none" stroke="black" stroke-dasharray="1,5" d="M476.665,-1146.45C483.828,-1117.92 503.233,-1058.41 544.974,-1032.29 572.195,-1015.25 801.846,-1022.14 833.589,-1017.29 859.805,-1013.28 888.765,-1005.79 910.803,-999.42"/>
<polygon fill="black" stroke="black" points="911.804,-1002.77 920.407,-996.591 909.825,-996.06 911.804,-1002.77"/>
</g>
<!-- Core_App&#45;&gt;Core_Configer -->
<g id="edge14" class="edge"><title>Core_App&#45;&gt;Core_Configer</title>
<path fill="none" stroke="black" stroke-dasharray="1,5" d="M494.312,-1155.02C508.479,-1150.41 527.65,-1144.69 544.974,-1141.29 671.516,-1116.41 705.518,-1126.44 833.589,-1111.29 857.233,-1108.49 883.61,-1105.01 904.929,-1102.1"/>
<polygon fill="black" stroke="black" points="905.522,-1105.56 914.954,-1100.73 904.572,-1098.62 905.522,-1105.56"/>
</g>
<!-- Core_Logger -->
<g id="node9" class="node"><title>Core_Logger</title>
<polygon fill="none" stroke="black" points="975.582,-1404.29 919.582,-1404.29 919.582,-1400.29 915.582,-1400.29 915.582,-1396.29 919.582,-1396.29 919.582,-1376.29 915.582,-1376.29 915.582,-1372.29 919.582,-1372.29 919.582,-1368.29 975.582,-1368.29 975.582,-1404.29"/>
<polyline fill="none" stroke="black" points="919.582,-1400.29 923.582,-1400.29 923.582,-1396.29 919.582,-1396.29 "/>
<polyline fill="none" stroke="black" points="919.582,-1376.29 923.582,-1376.29 923.582,-1372.29 919.582,-1372.29 "/>
<text text-anchor="middle" x="947.582" y="-1382.59" font-family="Times,serif" font-size="14.00">Logger</text>
</g>
<!-- Core_App&#45;&gt;Core_Logger -->
<g id="edge15" class="edge"><title>Core_App&#45;&gt;Core_Logger</title>
<path fill="none" stroke="black" stroke-dasharray="1,5" d="M472.499,-1180.34C471.868,-1224.63 477.198,-1338.7 544.974,-1388.29 602.089,-1430.08 821.15,-1404.33 909.411,-1391.88"/>
<polygon fill="black" stroke="black" points="910.104,-1395.32 919.506,-1390.44 909.11,-1388.39 910.104,-1395.32"/>
</g>
<!-- Core_App&#45;&gt;Core_Route -->
<g id="edge17" class="edge"><title>Core_App&#45;&gt;Core_Route</title>
<path fill="none" stroke="black" stroke-dasharray="1,5" d="M478.454,-1147.09C487.658,-1123.07 509.21,-1077.02 544.974,-1057.29 604.529,-1024.42 806.347,-1032.92 899.166,-1038.84"/>
<polygon fill="black" stroke="black" points="899.19,-1042.35 909.397,-1039.51 899.648,-1035.36 899.19,-1042.35"/>
</g>
<!-- Core_RuntimeState -->
<g id="node11" class="node"><title>Core_RuntimeState</title>
<polygon fill="none" stroke="black" points="993.082,-1222.29 902.082,-1222.29 902.082,-1218.29 898.082,-1218.29 898.082,-1214.29 902.082,-1214.29 902.082,-1194.29 898.082,-1194.29 898.082,-1190.29 902.082,-1190.29 902.082,-1186.29 993.082,-1186.29 993.082,-1222.29"/>
<polyline fill="none" stroke="black" points="902.082,-1218.29 906.082,-1218.29 906.082,-1214.29 902.082,-1214.29 "/>
<polyline fill="none" stroke="black" points="902.082,-1194.29 906.082,-1194.29 906.082,-1190.29 902.082,-1190.29 "/>
<text text-anchor="middle" x="947.582" y="-1200.59" font-family="Times,serif" font-size="14.00">RuntimeState</text>
</g>
<!-- Core_App&#45;&gt;Core_RuntimeState -->
<g id="edge18" class="edge"><title>Core_App&#45;&gt;Core_RuntimeState</title>
<path fill="none" stroke="black" stroke-dasharray="1,5" d="M486.466,-1173.28C500.142,-1183.84 522.576,-1199.09 544.974,-1205.29 665.077,-1238.51 813.229,-1224.86 891.725,-1213.59"/>
<polygon fill="black" stroke="black" points="892.488,-1217.01 901.868,-1212.09 891.464,-1210.09 892.488,-1217.01"/>
</g>
<!-- Core_SystemWrapperTrait -->
<g id="node12" class="node"><title>Core_SystemWrapperTrait</title>
<polygon fill="none" stroke="black" points="689.282,-1310.29 568.962,-1292.29 689.282,-1274.29 809.601,-1292.29 689.282,-1310.29"/>
<text text-anchor="middle" x="689.282" y="-1288.59" font-family="Times,serif" font-size="14.00">SystemWrapperTrait</text>
</g>
<!-- Core_App&#45;&gt;Core_SystemWrapperTrait -->
<g id="edge12" class="edge"><title>Core_App&#45;&gt;Core_SystemWrapperTrait</title>
<path fill="none" stroke="black" d="M479.679,-1176.85C490.131,-1198.61 512.853,-1239.28 544.974,-1260.29 562.117,-1271.5 582.616,-1278.83 602.677,-1283.6"/>
<polygon fill="black" stroke="black" points="601.955,-1287.03 612.473,-1285.75 603.453,-1280.19 601.955,-1287.03"/>
</g>
<!-- Core_App&#45;&gt;Core_SuperGlobal -->
<g id="edge20" class="edge"><title>Core_App&#45;&gt;Core_SuperGlobal</title>
<path fill="none" stroke="black" stroke-dasharray="1,5" d="M499.01,-1157.38C512.624,-1155.03 529.642,-1152.47 544.974,-1151.29 670.125,-1141.59 817.871,-1145.04 894.537,-1147.94"/>
<polygon fill="black" stroke="black" points="894.745,-1151.45 904.874,-1148.34 895.018,-1144.45 894.745,-1151.45"/>
</g>
<!-- Core_ExtendableStaticCallTrait -->
<g id="node15" class="node"><title>Core_ExtendableStaticCallTrait</title>
<polygon fill="none" stroke="black" points="689.282,-954.287 545.166,-936.287 689.282,-918.287 833.397,-936.287 689.282,-954.287"/>
<text text-anchor="middle" x="689.282" y="-932.587" font-family="Times,serif" font-size="14.00">ExtendableStaticCallTrait</text>
</g>
<!-- Core_App&#45;&gt;Core_ExtendableStaticCallTrait -->
<g id="edge11" class="edge"><title>Core_App&#45;&gt;Core_ExtendableStaticCallTrait</title>
<path fill="none" stroke="black" d="M473.96,-1145.02C476.644,-1106.06 488.913,-1011.03 544.974,-963.287 554.48,-955.192 565.641,-949.213 577.468,-944.837"/>
<polygon fill="black" stroke="black" points="578.68,-948.122 587.076,-941.66 576.483,-941.476 578.68,-948.122"/>
</g>
<!-- Core_ThrowOn -->
<g id="node16" class="node"><title>Core_ThrowOn</title>
<polygon fill="lightgrey" stroke="black" points="689.282,-1008.29 625.938,-990.287 689.282,-972.287 752.626,-990.287 689.282,-1008.29"/>
<polyline fill="none" stroke="black" points="637.481,-993.567 637.481,-987.007 "/>
<polyline fill="none" stroke="black" points="677.739,-975.567 700.825,-975.567 "/>
<polyline fill="none" stroke="black" points="741.083,-987.007 741.083,-993.567 "/>
<polyline fill="none" stroke="black" points="700.825,-1005.01 677.739,-1005.01 "/>
<text text-anchor="middle" x="689.282" y="-986.587" font-family="Times,serif" font-size="14.00">ThrowOn</text>
</g>
<!-- Core_App&#45;&gt;Core_ThrowOn -->
<g id="edge10" class="edge"><title>Core_App&#45;&gt;Core_ThrowOn</title>
<path fill="none" stroke="black" d="M476.644,-1146.43C483.866,-1117.08 503.495,-1054.37 544.974,-1022.29 566.513,-1005.63 595.029,-997.297 620.948,-993.249"/>
<polygon fill="black" stroke="black" points="621.68,-996.681 631.111,-991.853 620.728,-989.746 621.68,-996.681"/>
</g>
<!-- Core_ComponentBase -->
<g id="node18" class="node"><title>Core_ComponentBase</title>
<polygon fill="none" stroke="black" points="1168.58,-952.287 1065.58,-952.287 1061.58,-948.287 1061.58,-916.287 1164.58,-916.287 1168.58,-920.287 1168.58,-952.287"/>
<polyline fill="none" stroke="black" points="1164.58,-948.287 1061.58,-948.287 "/>
<polyline fill="none" stroke="black" points="1164.58,-948.287 1164.58,-916.287 "/>
<polyline fill="none" stroke="black" points="1164.58,-948.287 1168.58,-952.287 "/>
<text text-anchor="middle" x="1115.08" y="-930.587" font-family="Times,serif" font-size="14.00">ComponentBase</text>
</g>
<!-- Core_App&#45;&gt;Core_ComponentBase -->
<g id="edge22" class="edge"><title>Core_App&#45;&gt;Core_ComponentBase</title>
<path fill="none" stroke="black" stroke-dasharray="1,5" d="M481.089,-1176.07C492.512,-1194.57 515.559,-1226.78 544.974,-1241.29 660.416,-1298.22 710.435,-1227.86 833.589,-1265.29 851.102,-1270.61 851.871,-1280.7 869.589,-1285.29 903.145,-1293.98 998.232,-1306.59 1025.58,-1285.29 1077.08,-1245.16 1103.28,-1038.94 1111.32,-962.683"/>
<polygon fill="black" stroke="black" points="1114.84,-962.715 1112.38,-952.41 1107.87,-962 1114.84,-962.715"/>
</g>
<!-- Core_Functions -->
<g id="node19" class="node"><title>Core_Functions</title>
<ellipse fill="none" stroke="black" cx="689.282" cy="-1346.29" rx="45.4919" ry="18"/>
<text text-anchor="middle" x="689.282" y="-1342.59" font-family="Times,serif" font-size="14.00">Functions</text>
</g>
<!-- Core_App&#45;&gt;Core_Functions -->
<g id="edge21" class="edge"><title>Core_App&#45;&gt;Core_Functions</title>
<path fill="none" stroke="black" stroke-dasharray="1,5" d="M475.651,-1178.65C481.403,-1211.03 498.955,-1283.27 544.974,-1319.29 569.941,-1338.83 604.776,-1345.71 633.849,-1347.65"/>
<polygon fill="black" stroke="black" points="633.708,-1351.14 643.867,-1348.14 634.05,-1344.15 633.708,-1351.14"/>
</g>
<!-- Core_Kernel&#45;&gt;Core_AutoLoader -->
<g id="edge1" class="edge"><title>Core_Kernel&#45;&gt;Core_AutoLoader</title>
<path fill="none" stroke="black" d="M716.268,-1186.4C758.799,-1199.67 843.935,-1226.25 897.936,-1243.1"/>
<polygon fill="black" stroke="black" points="897.051,-1246.49 907.64,-1246.13 899.137,-1239.81 897.051,-1246.49"/>
</g>
<!-- Core_Kernel&#45;&gt;Core_ExceptionManager -->
<g id="edge4" class="edge"><title>Core_Kernel&#45;&gt;Core_ExceptionManager</title>
<path fill="none" stroke="black" d="M708.714,-1189.36C750.683,-1214.58 854.023,-1276.67 909.673,-1310.11"/>
<polygon fill="black" stroke="black" points="908.131,-1313.27 918.505,-1315.42 911.736,-1307.27 908.131,-1313.27"/>
</g>
<!-- Core_Kernel&#45;&gt;Core_View -->
<g id="edge7" class="edge"><title>Core_Kernel&#45;&gt;Core_View</title>
<path fill="none" stroke="black" d="M720.072,-1171.52C752.188,-1162.78 802.829,-1144.56 833.589,-1111.29 864.521,-1077.83 837.024,-1047.16 869.589,-1015.29 880.586,-1004.52 896.115,-998.034 910.348,-994.128"/>
<polygon fill="black" stroke="black" points="911.492,-997.453 920.4,-991.716 909.859,-990.646 911.492,-997.453"/>
</g>
<!-- Core_Kernel&#45;&gt;Core_Configer -->
<g id="edge2" class="edge"><title>Core_Kernel&#45;&gt;Core_Configer</title>
<path fill="none" stroke="black" d="M716.268,-1169.97C760.743,-1155.74 851.808,-1126.61 905.139,-1109.55"/>
<polygon fill="black" stroke="black" points="906.5,-1112.79 914.958,-1106.4 904.367,-1106.12 906.5,-1112.79"/>
</g>
<!-- Core_Kernel&#45;&gt;Core_Logger -->
<g id="edge3" class="edge"><title>Core_Kernel&#45;&gt;Core_Logger</title>
<path fill="none" stroke="black" d="M714.442,-1187.16C745.969,-1199.89 800.953,-1226.18 833.589,-1265.29 862.254,-1299.63 837.509,-1328.11 869.589,-1359.29 880.379,-1369.77 895.47,-1376.21 909.435,-1380.14"/>
<polygon fill="black" stroke="black" points="908.779,-1383.59 919.327,-1382.59 910.461,-1376.79 908.779,-1383.59"/>
</g>
<!-- Core_Kernel&#45;&gt;Core_Route -->
<g id="edge5" class="edge"><title>Core_Kernel&#45;&gt;Core_Route</title>
<path fill="none" stroke="black" d="M715.88,-1170.06C746.016,-1159.57 796.632,-1139.37 833.589,-1111.29 853.165,-1096.41 849.294,-1083.16 869.589,-1069.29 881.144,-1061.39 895.249,-1055.56 908.215,-1051.39"/>
<polygon fill="black" stroke="black" points="909.267,-1054.73 917.847,-1048.51 907.263,-1048.02 909.267,-1054.73"/>
</g>
<!-- Core_Kernel&#45;&gt;Core_RuntimeState -->
<g id="edge6" class="edge"><title>Core_Kernel&#45;&gt;Core_RuntimeState</title>
<path fill="none" stroke="black" d="M728.1,-1182.12C771.26,-1186.5 842.233,-1193.7 891.528,-1198.7"/>
<polygon fill="black" stroke="black" points="891.398,-1202.21 901.7,-1199.73 892.104,-1195.24 891.398,-1202.21"/>
</g>
<!-- Core_Kernel&#45;&gt;Core_SuperGlobal -->
<g id="edge8" class="edge"><title>Core_Kernel&#45;&gt;Core_SuperGlobal</title>
<path fill="none" stroke="black" d="M727.276,-1174.25C771.28,-1169.44 845.014,-1161.38 894.702,-1155.96"/>
<polygon fill="black" stroke="black" points="895.359,-1159.4 904.92,-1154.84 894.599,-1152.45 895.359,-1159.4"/>
</g>
<!-- Core_SingletonEx -->
<g id="node4" class="node"><title>Core_SingletonEx</title>
<polygon fill="lightgrey" stroke="black" points="1305.68,-1205.29 1229.6,-1187.29 1305.68,-1169.29 1381.76,-1187.29 1305.68,-1205.29"/>
<polyline fill="none" stroke="black" points="1241.28,-1190.05 1241.28,-1184.52 "/>
<polyline fill="none" stroke="black" points="1294.01,-1172.05 1317.36,-1172.05 "/>
<polyline fill="none" stroke="black" points="1370.09,-1184.52 1370.09,-1190.05 "/>
<polyline fill="none" stroke="black" points="1317.36,-1202.52 1294.01,-1202.52 "/>
<text text-anchor="middle" x="1305.68" y="-1183.59" font-family="Times,serif" font-size="14.00">SingletonEx</text>
</g>
<!-- Core_View&#45;&gt;Core_ComponentBase -->
<g id="edge31" class="edge"><title>Core_View&#45;&gt;Core_ComponentBase</title>
<path fill="none" stroke="black" stroke-dasharray="1,5" d="M974.805,-979.731C995.423,-973.003 1025.01,-963.349 1051.61,-954.668"/>
<polygon fill="black" stroke="black" points="1052.84,-957.95 1061.26,-951.521 1050.67,-951.296 1052.84,-957.95"/>
</g>
<!-- Core_Configer&#45;&gt;Core_ComponentBase -->
<g id="edge27" class="edge"><title>Core_Configer&#45;&gt;Core_ComponentBase</title>
<path fill="none" stroke="black" stroke-dasharray="1,5" d="M980.105,-1090.19C995.025,-1086.13 1012.41,-1079.59 1025.58,-1069.29 1062.42,-1040.46 1088.85,-991.824 1102.77,-961.472"/>
<polygon fill="black" stroke="black" points="1105.98,-962.867 1106.85,-952.308 1099.59,-960.02 1105.98,-962.867"/>
</g>
<!-- Core_Logger&#45;&gt;Core_ComponentBase -->
<g id="edge32" class="edge"><title>Core_Logger&#45;&gt;Core_ComponentBase</title>
<path fill="none" stroke="black" stroke-dasharray="1,5" d="M975.853,-1383.46C992.559,-1380.29 1013.07,-1373.56 1025.58,-1359.29 1078.15,-1299.27 1104.29,-1047.84 1111.77,-962.648"/>
<polygon fill="black" stroke="black" points="1115.28,-962.697 1112.64,-952.435 1108.3,-962.099 1115.28,-962.697"/>
</g>
<!-- Core_Route&#45;&gt;Core_ComponentBase -->
<g id="edge28" class="edge"><title>Core_Route&#45;&gt;Core_ComponentBase</title>
<path fill="none" stroke="black" stroke-dasharray="1,5" d="M976.133,-1035.56C991.37,-1031.14 1010.26,-1024.45 1025.58,-1015.29 1050.53,-1000.36 1074.59,-977.618 1091.31,-960.03"/>
<polygon fill="black" stroke="black" points="1094.2,-962.063 1098.45,-952.358 1089.07,-957.293 1094.2,-962.063"/>
</g>
<!-- Core_RuntimeState&#45;&gt;Core_ComponentBase -->
<g id="edge30" class="edge"><title>Core_RuntimeState&#45;&gt;Core_ComponentBase</title>
<path fill="none" stroke="black" stroke-dasharray="1,5" d="M993.482,-1195.85C1005.11,-1191.84 1016.81,-1185.95 1025.58,-1177.29 1086.27,-1117.31 1105.63,-1012.46 1111.57,-962.415"/>
<polygon fill="black" stroke="black" points="1115.06,-962.645 1112.67,-952.324 1108.1,-961.885 1115.06,-962.645"/>
</g>
<!-- Core_HttpServer -->
<g id="node13" class="node"><title>Core_HttpServer</title>
<polygon fill="lightgrey" stroke="black" points="947.582,-952.287 877.87,-934.287 947.582,-916.287 1017.29,-934.287 947.582,-952.287"/>
<polyline fill="none" stroke="black" points="889.489,-937.287 889.489,-931.287 "/>
<polyline fill="none" stroke="black" points="935.964,-919.287 959.201,-919.287 "/>
<polyline fill="none" stroke="black" points="1005.68,-931.287 1005.68,-937.287 "/>
<polyline fill="none" stroke="black" points="959.201,-949.287 935.964,-949.287 "/>
<text text-anchor="middle" x="947.582" y="-930.587" font-family="Times,serif" font-size="14.00">HttpServer</text>
</g>
<!-- Core_HttpServer&#45;&gt;Core_ComponentBase -->
<g id="edge33" class="edge"><title>Core_HttpServer&#45;&gt;Core_ComponentBase</title>
<path fill="none" stroke="black" stroke-dasharray="1,5" d="M1017.33,-934.287C1028.62,-934.287 1040.26,-934.287 1051.39,-934.287"/>
<polygon fill="black" stroke="black" points="1051.44,-937.787 1061.44,-934.287 1051.44,-930.787 1051.44,-937.787"/>
</g>
<!-- Core_SuperGlobal&#45;&gt;Core_ComponentBase -->
<g id="edge29" class="edge"><title>Core_SuperGlobal&#45;&gt;Core_ComponentBase</title>
<path fill="none" stroke="black" stroke-dasharray="1,5" d="M990.191,-1142.26C1002.69,-1138.23 1015.7,-1132.22 1025.58,-1123.29 1074.16,-1079.36 1098.26,-1003.24 1108.23,-962.283"/>
<polygon fill="black" stroke="black" points="1111.66,-962.965 1110.51,-952.433 1104.84,-961.381 1111.66,-962.965"/>
</g>
<!-- Core_ComponentInterface -->
<g id="node17" class="node"><title>Core_ComponentInterface</title>
<polygon fill="none" stroke="black" points="1363.68,-952.287 1241.68,-952.287 1241.68,-916.287 1369.68,-916.287 1369.68,-946.287 1363.68,-952.287"/>
<polyline fill="none" stroke="black" points="1363.68,-952.287 1363.68,-946.287 "/>
<polyline fill="none" stroke="black" points="1369.68,-946.287 1363.68,-946.287 "/>
<text text-anchor="middle" x="1305.68" y="-930.587" font-family="Times,serif" font-size="14.00">ComponentInterface</text>
</g>
<!-- Core_ComponentBase&#45;&gt;Core_SingletonEx -->
<g id="edge35" class="edge"><title>Core_ComponentBase&#45;&gt;Core_SingletonEx</title>
<path fill="none" stroke="black" d="M1129.64,-952.482C1163.11,-997.374 1249.6,-1113.4 1287.01,-1163.58"/>
<polygon fill="black" stroke="black" points="1284.41,-1165.95 1293.2,-1171.88 1290.02,-1161.77 1284.41,-1165.95"/>
</g>
<!-- Core_ComponentBase&#45;&gt;Core_ComponentInterface -->
<g id="edge34" class="edge"><title>Core_ComponentBase&#45;&gt;Core_ComponentInterface</title>
<path fill="none" stroke="black" d="M1168.61,-934.287C1188,-934.287 1210.35,-934.287 1231.25,-934.287"/>
<polygon fill="black" stroke="black" points="1231.37,-937.787 1241.37,-934.287 1231.37,-930.787 1231.37,-937.787"/>
</g>
<!-- AppHelper -->
<g id="node20" class="node"><title>AppHelper</title>
<polygon fill="lightgrey" stroke="black" points="116.188,-1268.29 45.6372,-1250.29 116.188,-1232.29 186.739,-1250.29 116.188,-1268.29"/>
<polyline fill="none" stroke="black" points="57.2647,-1253.25 57.2647,-1247.32 "/>
<polyline fill="none" stroke="black" points="104.561,-1235.25 127.816,-1235.25 "/>
<polyline fill="none" stroke="black" points="175.112,-1247.32 175.112,-1253.25 "/>
<polyline fill="none" stroke="black" points="127.816,-1265.32 104.561,-1265.32 "/>
<text text-anchor="middle" x="116.188" y="-1246.59" font-family="Times,serif" font-size="14.00">AppHelper</text>
</g>
<!-- AppHelper&#45;&gt;Core_App -->
<g id="edge36" class="edge"><title>AppHelper&#45;&gt;Core_App</title>
<path fill="none" stroke="black" d="M162.191,-1243.99C219.895,-1235.23 322.632,-1217.34 407.441,-1190.29 419.825,-1186.34 433.054,-1180.77 444.233,-1175.63"/>
<polygon fill="black" stroke="black" points="445.904,-1178.72 453.458,-1171.29 442.92,-1172.38 445.904,-1178.72"/>
</g>
<!-- HelperTrait -->
<g id="node25" class="node"><title>HelperTrait</title>
<polygon fill="none" stroke="black" points="325.909,-1058.29 252.344,-1040.29 325.909,-1022.29 399.474,-1040.29 325.909,-1058.29"/>
<text text-anchor="middle" x="325.909" y="-1036.59" font-family="Times,serif" font-size="14.00">HelperTrait</text>
</g>
<!-- AppHelper&#45;&gt;HelperTrait -->
<g id="edge45" class="edge"><title>AppHelper&#45;&gt;HelperTrait</title>
<path fill="none" stroke="black" d="M165.453,-1244.81C182.836,-1240.97 201.75,-1234.42 216.376,-1223.29 270.182,-1182.33 302.535,-1106.37 316.602,-1066.41"/>
<polygon fill="black" stroke="black" points="319.95,-1067.44 319.862,-1056.84 313.324,-1065.18 319.95,-1067.44"/>
</g>
<!-- ControllerHelper -->
<g id="node21" class="node"><title>ControllerHelper</title>
<polygon fill="lightgrey" stroke="black" points="116.188,-1214.29 15.8115,-1196.29 116.188,-1178.29 216.565,-1196.29 116.188,-1214.29"/>
<polyline fill="none" stroke="black" points="27.6231,-1198.41 27.6231,-1194.17 "/>
<polyline fill="none" stroke="black" points="104.377,-1180.41 128,-1180.41 "/>
<polyline fill="none" stroke="black" points="204.753,-1194.17 204.753,-1198.41 "/>
<polyline fill="none" stroke="black" points="128,-1212.17 104.377,-1212.17 "/>
<text text-anchor="middle" x="116.188" y="-1192.59" font-family="Times,serif" font-size="14.00">ControllerHelper</text>
</g>
<!-- ControllerHelper&#45;&gt;Core_App -->
<g id="edge37" class="edge"><title>ControllerHelper&#45;&gt;Core_App</title>
<path fill="none" stroke="black" d="M182.121,-1190.05C254.808,-1183.07 370.328,-1171.98 430.989,-1166.15"/>
<polygon fill="black" stroke="black" points="431.681,-1169.6 441.301,-1165.16 431.012,-1162.63 431.681,-1169.6"/>
</g>
<!-- ControllerHelper&#45;&gt;HelperTrait -->
<g id="edge46" class="edge"><title>ControllerHelper&#45;&gt;HelperTrait</title>
<path fill="none" stroke="black" d="M170.631,-1187.99C186.202,-1183.97 202.691,-1178.03 216.376,-1169.29 258.438,-1142.41 292.625,-1094.09 310.762,-1064.83"/>
<polygon fill="black" stroke="black" points="313.893,-1066.42 316.076,-1056.05 307.904,-1062.79 313.893,-1066.42"/>
</g>
<!-- ModelHelper -->
<g id="node22" class="node"><title>ModelHelper</title>
<polygon fill="lightgrey" stroke="black" points="116.188,-1160.29 34.5777,-1142.29 116.188,-1124.29 197.799,-1142.29 116.188,-1160.29"/>
<polyline fill="none" stroke="black" points="46.296,-1144.87 46.296,-1139.7 "/>
<polyline fill="none" stroke="black" points="104.47,-1126.87 127.906,-1126.87 "/>
<polyline fill="none" stroke="black" points="186.08,-1139.7 186.08,-1144.87 "/>
<polyline fill="none" stroke="black" points="127.906,-1157.7 104.47,-1157.7 "/>
<text text-anchor="middle" x="116.188" y="-1138.59" font-family="Times,serif" font-size="14.00">ModelHelper</text>
</g>
<!-- ModelHelper&#45;&gt;Core_App -->
<g id="edge38" class="edge"><title>ModelHelper&#45;&gt;Core_App</title>
<path fill="none" stroke="black" d="M181.709,-1145.93C253.539,-1149.99 367.566,-1156.43 428.88,-1159.9"/>
<polygon fill="black" stroke="black" points="428.792,-1163.4 438.973,-1160.47 429.187,-1156.41 428.792,-1163.4"/>
</g>
<!-- ModelHelper&#45;&gt;HelperTrait -->
<g id="edge47" class="edge"><title>ModelHelper&#45;&gt;HelperTrait</title>
<path fill="none" stroke="black" d="M160.295,-1133.92C178.137,-1129.6 198.737,-1123.49 216.376,-1115.29 247.729,-1100.71 279.845,-1077.24 300.922,-1060.44"/>
<polygon fill="black" stroke="black" points="303.136,-1063.15 308.705,-1054.14 298.731,-1057.71 303.136,-1063.15"/>
</g>
<!-- ServiceHelper -->
<g id="node23" class="node"><title>ServiceHelper</title>
<polygon fill="lightgrey" stroke="black" points="116.188,-1106.29 29.8865,-1088.29 116.188,-1070.29 202.49,-1088.29 116.188,-1106.29"/>
<polyline fill="none" stroke="black" points="41.6337,-1090.74 41.6337,-1085.84 "/>
<polyline fill="none" stroke="black" points="104.441,-1072.74 127.935,-1072.74 "/>
<polyline fill="none" stroke="black" points="190.743,-1085.84 190.743,-1090.74 "/>
<polyline fill="none" stroke="black" points="127.935,-1103.84 104.441,-1103.84 "/>
<text text-anchor="middle" x="116.188" y="-1084.59" font-family="Times,serif" font-size="14.00">ServiceHelper</text>
</g>
<!-- ServiceHelper&#45;&gt;Core_App -->
<g id="edge39" class="edge"><title>ServiceHelper&#45;&gt;Core_App</title>
<path fill="none" stroke="black" d="M162.58,-1096.65C219.83,-1107.36 321.215,-1126.87 407.441,-1146.29 417.441,-1148.54 428.272,-1151.18 438.12,-1153.66"/>
<polygon fill="black" stroke="black" points="437.398,-1157.09 447.952,-1156.16 439.125,-1150.3 437.398,-1157.09"/>
</g>
<!-- ServiceHelper&#45;&gt;HelperTrait -->
<g id="edge48" class="edge"><title>ServiceHelper&#45;&gt;HelperTrait</title>
<path fill="none" stroke="black" d="M157.732,-1078.92C192.051,-1070.99 241.285,-1059.61 277.437,-1051.26"/>
<polygon fill="black" stroke="black" points="278.309,-1054.65 287.264,-1048.99 276.733,-1047.83 278.309,-1054.65"/>
</g>
<!-- ViewHelper -->
<g id="node24" class="node"><title>ViewHelper</title>
<polygon fill="lightgrey" stroke="black" points="116.188,-1052.29 40.1075,-1034.29 116.188,-1016.29 192.269,-1034.29 116.188,-1052.29"/>
<polyline fill="none" stroke="black" points="51.7851,-1037.05 51.7851,-1031.52 "/>
<polyline fill="none" stroke="black" points="104.511,-1019.05 127.866,-1019.05 "/>
<polyline fill="none" stroke="black" points="180.591,-1031.52 180.591,-1037.05 "/>
<polyline fill="none" stroke="black" points="127.866,-1049.52 104.511,-1049.52 "/>
<text text-anchor="middle" x="116.188" y="-1030.59" font-family="Times,serif" font-size="14.00">ViewHelper</text>
</g>
<!-- ViewHelper&#45;&gt;Core_App -->
<g id="edge40" class="edge"><title>ViewHelper&#45;&gt;Core_App</title>
<path fill="none" stroke="black" d="M153.378,-1043.55C229.912,-1063.17 401.673,-1107.36 407.441,-1110.29 423.997,-1118.7 440.182,-1131.98 452.104,-1143.01"/>
<polygon fill="black" stroke="black" points="449.981,-1145.82 459.628,-1150.2 454.817,-1140.76 449.981,-1145.82"/>
</g>
<!-- ViewHelper&#45;&gt;HelperTrait -->
<g id="edge49" class="edge"><title>ViewHelper&#45;&gt;HelperTrait</title>
<path fill="none" stroke="black" d="M184.342,-1036.23C205.217,-1036.83 228.362,-1037.5 249.746,-1038.12"/>
<polygon fill="black" stroke="black" points="249.66,-1041.62 259.757,-1038.41 249.862,-1034.62 249.66,-1041.62"/>
</g>
<!-- HelperTrait&#45;&gt;Core_App -->
<g id="edge42" class="edge"><title>HelperTrait&#45;&gt;Core_App</title>
<path fill="none" stroke="black" d="M362.515,-1049.52C377.43,-1054.58 394.314,-1061.97 407.441,-1072.29 430.339,-1090.29 448.539,-1118.67 459.539,-1138.75"/>
<polygon fill="black" stroke="black" points="456.584,-1140.64 464.35,-1147.85 462.773,-1137.37 456.584,-1140.64"/>
</g>
<!-- HelperTrait&#45;&gt;Core_SingletonEx -->
<g id="edge41" class="edge"><title>HelperTrait&#45;&gt;Core_SingletonEx</title>
<path fill="none" stroke="black" d="M331.521,-1057.14C348.567,-1116.01 413.916,-1313.84 544.974,-1405.29 598.126,-1442.38 623.469,-1432.29 688.282,-1432.29 688.282,-1432.29 688.282,-1432.29 948.582,-1432.29 1103.79,-1432.29 1240.65,-1272.37 1287.49,-1210.93"/>
<polygon fill="black" stroke="black" points="1290.54,-1212.71 1293.75,-1202.61 1284.94,-1208.51 1290.54,-1212.71"/>
</g>
<!-- HelperTrait&#45;&gt;Core_ExtendableStaticCallTrait -->
<g id="edge43" class="edge"><title>HelperTrait&#45;&gt;Core_ExtendableStaticCallTrait</title>
<path fill="none" stroke="black" d="M354.362,-1029.06C395.288,-1012.67 474.993,-982.116 544.974,-963.287 567.235,-957.298 591.79,-952.153 614.191,-948.01"/>
<polygon fill="black" stroke="black" points="615.099,-951.403 624.316,-946.178 613.853,-944.515 615.099,-951.403"/>
</g>
<!-- HelperTrait&#45;&gt;Core_ThrowOn -->
<g id="edge44" class="edge"><title>HelperTrait&#45;&gt;Core_ThrowOn</title>
<path fill="none" stroke="black" d="M373.412,-1033.85C440.911,-1024.51 565.643,-1007.26 636.163,-997.498"/>
<polygon fill="black" stroke="black" points="636.735,-1000.95 646.161,-996.115 635.776,-994.019 636.735,-1000.95"/>
</g>
<!-- DB_DB -->
<g id="node26" class="node"><title>DB_DB</title>
<ellipse fill="none" stroke="black" cx="1115.08" cy="-67.2872" rx="27" ry="18"/>
<text text-anchor="middle" x="1115.08" y="-63.5872" font-family="Times,serif" font-size="14.00">DB</text>
</g>
<!-- DB_DBAdvanceTrait -->
<g id="node27" class="node"><title>DB_DBAdvanceTrait</title>
<polygon fill="none" stroke="black" points="1305.68,-58.2872 1204.47,-40.2872 1305.68,-22.2872 1406.9,-40.2872 1305.68,-58.2872"/>
<text text-anchor="middle" x="1305.68" y="-36.5872" font-family="Times,serif" font-size="14.00">DBAdvanceTrait</text>
</g>
<!-- DB_DB&#45;&gt;DB_DBAdvanceTrait -->
<g id="edge50" class="edge"><title>DB_DB&#45;&gt;DB_DBAdvanceTrait</title>
<path fill="none" stroke="black" d="M1141.91,-63.5896C1166.77,-60.0295 1205.43,-54.4961 1238.83,-49.7147"/>
<polygon fill="black" stroke="black" points="1239.6,-53.1399 1249,-48.258 1238.61,-46.2105 1239.6,-53.1399"/>
</g>
<!-- DB_DBInterface -->
<g id="node28" class="node"><title>DB_DBInterface</title>
<polygon fill="none" stroke="black" points="1341.18,-112.287 1264.18,-112.287 1264.18,-76.2872 1347.18,-76.2872 1347.18,-106.287 1341.18,-112.287"/>
<polyline fill="none" stroke="black" points="1341.18,-112.287 1341.18,-106.287 "/>
<polyline fill="none" stroke="black" points="1347.18,-106.287 1341.18,-106.287 "/>
<text text-anchor="middle" x="1305.68" y="-90.5872" font-family="Times,serif" font-size="14.00">DBInterface</text>
</g>
<!-- DB_DB&#45;&gt;DB_DBInterface -->
<g id="edge51" class="edge"><title>DB_DB&#45;&gt;DB_DBInterface</title>
<path fill="none" stroke="black" d="M1141.91,-70.9848C1170.55,-75.0861 1217.5,-81.8061 1253.63,-86.9784"/>
<polygon fill="black" stroke="black" points="1253.59,-90.5083 1263.98,-88.4608 1254.58,-83.579 1253.59,-90.5083"/>
</g>
<!-- CallableView -->
<g id="node29" class="node"><title>CallableView</title>
<polygon fill="none" stroke="black" points="734.782,-841.287 643.782,-841.287 643.782,-837.287 639.782,-837.287 639.782,-833.287 643.782,-833.287 643.782,-813.287 639.782,-813.287 639.782,-809.287 643.782,-809.287 643.782,-805.287 734.782,-805.287 734.782,-841.287"/>
<polyline fill="none" stroke="black" points="643.782,-837.287 647.782,-837.287 647.782,-833.287 643.782,-833.287 "/>
<polyline fill="none" stroke="black" points="643.782,-813.287 647.782,-813.287 647.782,-809.287 643.782,-809.287 "/>
<text text-anchor="middle" x="689.282" y="-819.587" font-family="Times,serif" font-size="14.00">CallableView</text>
</g>
<!-- CallableView&#45;&gt;Core_View -->
<g id="edge53" class="edge"><title>CallableView&#45;&gt;Core_View</title>
<path fill="none" stroke="black" d="M734.695,-841.413C765.045,-855.366 804.822,-876.892 833.589,-904.287 855.288,-924.95 846.148,-942.625 869.589,-961.287 881.45,-970.73 896.85,-976.996 910.757,-981.091"/>
<polygon fill="black" stroke="black" points="909.983,-984.507 920.548,-983.704 911.788,-977.744 909.983,-984.507"/>
</g>
<!-- DBManager -->
<g id="node30" class="node"><title>DBManager</title>
<polygon fill="none" stroke="black" points="989.582,-85.2872 905.582,-85.2872 905.582,-81.2872 901.582,-81.2872 901.582,-77.2872 905.582,-77.2872 905.582,-57.2872 901.582,-57.2872 901.582,-53.2872 905.582,-53.2872 905.582,-49.2872 989.582,-49.2872 989.582,-85.2872"/>
<polyline fill="none" stroke="black" points="905.582,-81.2872 909.582,-81.2872 909.582,-77.2872 905.582,-77.2872 "/>
<polyline fill="none" stroke="black" points="905.582,-57.2872 909.582,-57.2872 909.582,-53.2872 905.582,-53.2872 "/>
<text text-anchor="middle" x="947.582" y="-63.5872" font-family="Times,serif" font-size="14.00">DBManager</text>
</g>
<!-- DBManager&#45;&gt;Core_ComponentBase -->
<g id="edge73" class="edge"><title>DBManager&#45;&gt;Core_ComponentBase</title>
<path fill="none" stroke="black" stroke-dasharray="1,5" d="M987.032,-85.3432C1001.5,-94.1246 1016.6,-106.107 1025.58,-121.287 1106.56,-258.314 1113.57,-778.963 1114.07,-906.138"/>
<polygon fill="black" stroke="black" points="1110.57,-906.245 1114.09,-916.236 1117.57,-906.226 1110.57,-906.245"/>
</g>
<!-- DBManager&#45;&gt;DB_DB -->
<g id="edge52" class="edge"><title>DBManager&#45;&gt;DB_DB</title>
<path fill="none" stroke="black" d="M989.916,-67.2872C1016.84,-67.2872 1051.65,-67.2872 1077.56,-67.2872"/>
<polygon fill="black" stroke="black" points="1077.72,-70.7873 1087.72,-67.2872 1077.72,-63.7873 1077.72,-70.7873"/>
</g>
<!-- DBReusePoolProxy -->
<g id="node31" class="node"><title>DBReusePoolProxy</title>
<polygon fill="none" stroke="black" points="751.782,-85.2872 626.782,-85.2872 626.782,-81.2872 622.782,-81.2872 622.782,-77.2872 626.782,-77.2872 626.782,-57.2872 622.782,-57.2872 622.782,-53.2872 626.782,-53.2872 626.782,-49.2872 751.782,-49.2872 751.782,-85.2872"/>
<polyline fill="none" stroke="black" points="626.782,-81.2872 630.782,-81.2872 630.782,-77.2872 626.782,-77.2872 "/>
<polyline fill="none" stroke="black" points="626.782,-57.2872 630.782,-57.2872 630.782,-53.2872 626.782,-53.2872 "/>
<text text-anchor="middle" x="689.282" y="-63.5872" font-family="Times,serif" font-size="14.00">DBReusePoolProxy</text>
</g>
<!-- DBReusePoolProxy&#45;&gt;DBManager -->
<g id="edge54" class="edge"><title>DBReusePoolProxy&#45;&gt;DBManager</title>
<path fill="none" stroke="black" d="M751.998,-67.2872C795.831,-67.2872 853.997,-67.2872 895.285,-67.2872"/>
<polygon fill="black" stroke="black" points="895.399,-70.7873 905.399,-67.2872 895.399,-63.7873 895.399,-70.7873"/>
</g>
<!-- EmptyView -->
<g id="node32" class="node"><title>EmptyView</title>
<polygon fill="none" stroke="black" points="730.782,-733.287 647.782,-733.287 647.782,-729.287 643.782,-729.287 643.782,-725.287 647.782,-725.287 647.782,-705.287 643.782,-705.287 643.782,-701.287 647.782,-701.287 647.782,-697.287 730.782,-697.287 730.782,-733.287"/>
<polyline fill="none" stroke="black" points="647.782,-729.287 651.782,-729.287 651.782,-725.287 647.782,-725.287 "/>
<polyline fill="none" stroke="black" points="647.782,-705.287 651.782,-705.287 651.782,-701.287 647.782,-701.287 "/>
<text text-anchor="middle" x="689.282" y="-711.587" font-family="Times,serif" font-size="14.00">EmptyView</text>
</g>
<!-- FacadesAutoLoader -->
<g id="node33" class="node"><title>FacadesAutoLoader</title>
<polygon fill="none" stroke="black" points="1010.08,-166.287 885.082,-166.287 885.082,-162.287 881.082,-162.287 881.082,-158.287 885.082,-158.287 885.082,-138.287 881.082,-138.287 881.082,-134.287 885.082,-134.287 885.082,-130.287 1010.08,-130.287 1010.08,-166.287"/>
<polyline fill="none" stroke="black" points="885.082,-162.287 889.082,-162.287 889.082,-158.287 885.082,-158.287 "/>
<polyline fill="none" stroke="black" points="885.082,-138.287 889.082,-138.287 889.082,-134.287 885.082,-134.287 "/>
<text text-anchor="middle" x="947.582" y="-144.587" font-family="Times,serif" font-size="14.00">FacadesAutoLoader</text>
</g>
<!-- FacadesAutoLoader&#45;&gt;Core_ComponentBase -->
<g id="edge61" class="edge"><title>FacadesAutoLoader&#45;&gt;Core_ComponentBase</title>
<path fill="none" stroke="black" stroke-dasharray="1,5" d="M986.942,-166.397C1001.39,-175.187 1016.51,-187.161 1025.58,-202.287 1098.7,-324.348 1111.56,-786.426 1113.68,-905.933"/>
<polygon fill="black" stroke="black" points="1110.18,-906.163 1113.85,-916.103 1117.18,-906.047 1110.18,-906.163"/>
</g>
<!-- FacadesBase -->
<g id="node34" class="node"><title>FacadesBase</title>
<ellipse fill="none" stroke="black" cx="689.282" cy="-121.287" rx="55.7903" ry="18"/>
<text text-anchor="middle" x="689.282" y="-117.587" font-family="Times,serif" font-size="14.00">FacadesBase</text>
</g>
<!-- FacadesBase&#45;&gt;FacadesAutoLoader -->
<g id="edge56" class="edge"><title>FacadesBase&#45;&gt;FacadesAutoLoader</title>
<path fill="none" stroke="black" d="M742.766,-126.816C780.785,-130.821 832.647,-136.285 874.54,-140.698"/>
<polygon fill="black" stroke="black" points="874.374,-144.2 884.686,-141.767 875.108,-137.238 874.374,-144.2"/>
</g>
<!-- JsonRpcClientBase -->
<g id="node35" class="node"><title>JsonRpcClientBase</title>
<ellipse fill="none" stroke="black" cx="689.282" cy="-283.287" rx="79.0865" ry="18"/>
<text text-anchor="middle" x="689.282" y="-279.587" font-family="Times,serif" font-size="14.00">JsonRpcClientBase</text>
</g>
<!-- JsonRpcExt -->
<g id="node36" class="node"><title>JsonRpcExt</title>
<polygon fill="none" stroke="black" points="988.082,-301.287 907.082,-301.287 907.082,-297.287 903.082,-297.287 903.082,-293.287 907.082,-293.287 907.082,-273.287 903.082,-273.287 903.082,-269.287 907.082,-269.287 907.082,-265.287 988.082,-265.287 988.082,-301.287"/>
<polyline fill="none" stroke="black" points="907.082,-297.287 911.082,-297.287 911.082,-293.287 907.082,-293.287 "/>
<polyline fill="none" stroke="black" points="907.082,-273.287 911.082,-273.287 911.082,-269.287 907.082,-269.287 "/>
<text text-anchor="middle" x="947.582" y="-279.587" font-family="Times,serif" font-size="14.00">JsonRpcExt</text>
</g>
<!-- JsonRpcClientBase&#45;&gt;JsonRpcExt -->
<g id="edge55" class="edge"><title>JsonRpcClientBase&#45;&gt;JsonRpcExt</title>
<path fill="none" stroke="black" d="M768.922,-283.287C810.44,-283.287 860.151,-283.287 896.417,-283.287"/>
<polygon fill="black" stroke="black" points="896.743,-286.787 906.743,-283.287 896.743,-279.787 896.743,-286.787"/>
</g>
<!-- JsonRpcExt&#45;&gt;Core_ComponentBase -->
<g id="edge62" class="edge"><title>JsonRpcExt&#45;&gt;Core_ComponentBase</title>
<path fill="none" stroke="black" stroke-dasharray="1,5" d="M988.296,-288.606C1002.05,-292.435 1016.32,-299.009 1025.58,-310.287 1101.83,-403.203 1112.38,-796.237 1113.84,-905.818"/>
<polygon fill="black" stroke="black" points="1110.34,-906.123 1113.96,-916.081 1117.34,-906.041 1110.34,-906.123"/>
</g>
<!-- Misc -->
<g id="node37" class="node"><title>Misc</title>
<polygon fill="none" stroke="black" points="716.282,-571.287 662.282,-571.287 662.282,-567.287 658.282,-567.287 658.282,-563.287 662.282,-563.287 662.282,-543.287 658.282,-543.287 658.282,-539.287 662.282,-539.287 662.282,-535.287 716.282,-535.287 716.282,-571.287"/>
<polyline fill="none" stroke="black" points="662.282,-567.287 666.282,-567.287 666.282,-563.287 662.282,-563.287 "/>
<polyline fill="none" stroke="black" points="662.282,-543.287 666.282,-543.287 666.282,-539.287 662.282,-539.287 "/>
<text text-anchor="middle" x="689.282" y="-549.587" font-family="Times,serif" font-size="14.00">Misc</text>
</g>
<!-- Misc&#45;&gt;Core_ComponentBase -->
<g id="edge64" class="edge"><title>Misc&#45;&gt;Core_ComponentBase</title>
<path fill="none" stroke="black" stroke-dasharray="1,5" d="M716.289,-552.824C746.589,-553.435 797.143,-558.117 833.589,-580.287 855.769,-593.779 847.858,-612.084 869.589,-626.287 929.499,-665.443 973.278,-617.427 1025.58,-666.287 1094.91,-731.068 1109.99,-851.204 1113.22,-905.873"/>
<polygon fill="black" stroke="black" points="1109.74,-906.387 1113.74,-916.201 1116.74,-906.039 1109.74,-906.387"/>
</g>
<!-- Pager -->
<g id="node38" class="node"><title>Pager</title>
<polygon fill="none" stroke="black" points="716.282,-409.287 662.282,-409.287 662.282,-405.287 658.282,-405.287 658.282,-401.287 662.282,-401.287 662.282,-381.287 658.282,-381.287 658.282,-377.287 662.282,-377.287 662.282,-373.287 716.282,-373.287 716.282,-409.287"/>
<polyline fill="none" stroke="black" points="662.282,-405.287 666.282,-405.287 666.282,-401.287 662.282,-401.287 "/>
<polyline fill="none" stroke="black" points="662.282,-381.287 666.282,-381.287 666.282,-377.287 662.282,-377.287 "/>
<text text-anchor="middle" x="689.282" y="-387.587" font-family="Times,serif" font-size="14.00">Pager</text>
</g>
<!-- Pager&#45;&gt;Core_ComponentBase -->
<g id="edge63" class="edge"><title>Pager&#45;&gt;Core_ComponentBase</title>
<path fill="none" stroke="black" stroke-dasharray="1,5" d="M716.423,-389.806C747.312,-389.393 798.885,-393.045 833.589,-418.287 860.611,-437.941 844.084,-462.702 869.589,-484.287 925.589,-531.682 976.723,-483.555 1025.58,-538.287 1074.85,-593.489 1102.85,-824.743 1111.31,-905.949"/>
<polygon fill="black" stroke="black" points="1107.83,-906.358 1112.33,-915.95 1114.8,-905.646 1107.83,-906.358"/>
</g>
<!-- PagerInterface -->
<g id="node39" class="node"><title>PagerInterface</title>
<polygon fill="none" stroke="black" points="989.082,-409.287 900.082,-409.287 900.082,-373.287 995.082,-373.287 995.082,-403.287 989.082,-409.287"/>
<polyline fill="none" stroke="black" points="989.082,-409.287 989.082,-403.287 "/>
<polyline fill="none" stroke="black" points="995.082,-403.287 989.082,-403.287 "/>
<text text-anchor="middle" x="947.582" y="-387.587" font-family="Times,serif" font-size="14.00">PagerInterface</text>
</g>
<!-- Pager&#45;&gt;PagerInterface -->
<g id="edge57" class="edge"><title>Pager&#45;&gt;PagerInterface</title>
<path fill="none" stroke="black" d="M716.745,-391.287C757.358,-391.287 835.998,-391.287 889.877,-391.287"/>
<polygon fill="black" stroke="black" points="889.969,-394.787 899.969,-391.287 889.969,-387.787 889.969,-394.787"/>
</g>
<!-- PluginForSwooleHttpd -->
<g id="node40" class="node"><title>PluginForSwooleHttpd</title>
<polygon fill="none" stroke="black" points="760.282,-517.287 618.282,-517.287 618.282,-513.287 614.282,-513.287 614.282,-509.287 618.282,-509.287 618.282,-489.287 614.282,-489.287 614.282,-485.287 618.282,-485.287 618.282,-481.287 760.282,-481.287 760.282,-517.287"/>
<polyline fill="none" stroke="black" points="618.282,-513.287 622.282,-513.287 622.282,-509.287 618.282,-509.287 "/>
<polyline fill="none" stroke="black" points="618.282,-489.287 622.282,-489.287 622.282,-485.287 618.282,-485.287 "/>
<text text-anchor="middle" x="689.282" y="-495.587" font-family="Times,serif" font-size="14.00">PluginForSwooleHttpd</text>
</g>
<!-- PluginForSwooleHttpd&#45;&gt;Core_ComponentBase -->
<g id="edge67" class="edge"><title>PluginForSwooleHttpd&#45;&gt;Core_ComponentBase</title>
<path fill="none" stroke="black" stroke-dasharray="1,5" d="M760.341,-500.996C785.21,-504.438 812.287,-511.69 833.589,-526.287 858.617,-543.437 845.239,-566.189 869.589,-584.287 927.213,-627.115 974.384,-575.947 1025.58,-626.287 1104,-703.406 1114.08,-845.096 1114.6,-905.636"/>
<polygon fill="black" stroke="black" points="1111.1,-905.962 1114.6,-915.962 1118.1,-905.962 1111.1,-905.962"/>
</g>
<!-- RedisManager -->
<g id="node41" class="node"><title>RedisManager</title>
<polygon fill="none" stroke="black" points="995.582,-355.287 899.582,-355.287 899.582,-351.287 895.582,-351.287 895.582,-347.287 899.582,-347.287 899.582,-327.287 895.582,-327.287 895.582,-323.287 899.582,-323.287 899.582,-319.287 995.582,-319.287 995.582,-355.287"/>
<polyline fill="none" stroke="black" points="899.582,-351.287 903.582,-351.287 903.582,-347.287 899.582,-347.287 "/>
<polyline fill="none" stroke="black" points="899.582,-327.287 903.582,-327.287 903.582,-323.287 899.582,-323.287 "/>
<text text-anchor="middle" x="947.582" y="-333.587" font-family="Times,serif" font-size="14.00">RedisManager</text>
</g>
<!-- RedisManager&#45;&gt;Core_ComponentBase -->
<g id="edge66" class="edge"><title>RedisManager&#45;&gt;Core_ComponentBase</title>
<path fill="none" stroke="black" stroke-dasharray="1,5" d="M995.843,-345.085C1007.06,-349.088 1017.97,-355.139 1025.58,-364.287 1095.39,-448.232 1110.48,-802.72 1113.42,-905.963"/>
<polygon fill="black" stroke="black" points="1109.93,-906.32 1113.7,-916.223 1116.93,-906.133 1109.93,-906.32"/>
</g>
<!-- RedisSimpleCache -->
<g id="node42" class="node"><title>RedisSimpleCache</title>
<polygon fill="none" stroke="black" points="749.282,-355.287 629.282,-355.287 629.282,-351.287 625.282,-351.287 625.282,-347.287 629.282,-347.287 629.282,-327.287 625.282,-327.287 625.282,-323.287 629.282,-323.287 629.282,-319.287 749.282,-319.287 749.282,-355.287"/>
<polyline fill="none" stroke="black" points="629.282,-351.287 633.282,-351.287 633.282,-347.287 629.282,-347.287 "/>
<polyline fill="none" stroke="black" points="629.282,-327.287 633.282,-327.287 633.282,-323.287 629.282,-323.287 "/>
<text text-anchor="middle" x="689.282" y="-333.587" font-family="Times,serif" font-size="14.00">RedisSimpleCache</text>
</g>
<!-- RedisSimpleCache&#45;&gt;Core_ComponentBase -->
<g id="edge65" class="edge"><title>RedisSimpleCache&#45;&gt;Core_ComponentBase</title>
<path fill="none" stroke="black" stroke-dasharray="1,5" d="M749.3,-338.067C776.829,-340.898 808.886,-347.942 833.589,-364.287 857.645,-380.203 847.371,-399.893 869.589,-418.287 927.573,-466.293 978.104,-425.865 1025.58,-484.287 1079.08,-550.132 1104.83,-818.199 1111.96,-906.172"/>
<polygon fill="black" stroke="black" points="1108.48,-906.52 1112.76,-916.212 1115.46,-905.967 1108.48,-906.52"/>
</g>
<!-- RedisSimpleCache&#45;&gt;RedisManager -->
<g id="edge58" class="edge"><title>RedisSimpleCache&#45;&gt;RedisManager</title>
<path fill="none" stroke="black" d="M749.404,-337.287C791.38,-337.287 847.44,-337.287 889.054,-337.287"/>
<polygon fill="black" stroke="black" points="889.305,-340.787 899.305,-337.287 889.305,-333.787 889.305,-340.787"/>
</g>
<!-- RouteHookDirectoryMode -->
<g id="node43" class="node"><title>RouteHookDirectoryMode</title>
<polygon fill="none" stroke="black" points="770.782,-463.287 607.782,-463.287 607.782,-459.287 603.782,-459.287 603.782,-455.287 607.782,-455.287 607.782,-435.287 603.782,-435.287 603.782,-431.287 607.782,-431.287 607.782,-427.287 770.782,-427.287 770.782,-463.287"/>
<polyline fill="none" stroke="black" points="607.782,-459.287 611.782,-459.287 611.782,-455.287 607.782,-455.287 "/>
<polyline fill="none" stroke="black" points="607.782,-435.287 611.782,-435.287 611.782,-431.287 607.782,-431.287 "/>
<text text-anchor="middle" x="689.282" y="-441.587" font-family="Times,serif" font-size="14.00">RouteHookDirectoryMode</text>
</g>
<!-- RouteHookDirectoryMode&#45;&gt;Core_ComponentBase -->
<g id="edge69" class="edge"><title>RouteHookDirectoryMode&#45;&gt;Core_ComponentBase</title>
<path fill="none" stroke="black" stroke-dasharray="1,5" d="M771.151,-447.978C793.007,-451.897 815.572,-459.182 833.589,-472.287 860.611,-491.941 843.589,-517.3 869.589,-538.287 925.832,-583.686 975.476,-532.189 1025.58,-584.287 1070.61,-631.114 1100.74,-831.614 1110.58,-906.197"/>
<polygon fill="black" stroke="black" points="1107.12,-906.786 1111.88,-916.254 1114.06,-905.887 1107.12,-906.786"/>
</g>
<!-- RouteHookOneFileMode -->
<g id="node44" class="node"><title>RouteHookOneFileMode</title>
<polygon fill="none" stroke="black" points="766.782,-787.287 611.782,-787.287 611.782,-783.287 607.782,-783.287 607.782,-779.287 611.782,-779.287 611.782,-759.287 607.782,-759.287 607.782,-755.287 611.782,-755.287 611.782,-751.287 766.782,-751.287 766.782,-787.287"/>
<polyline fill="none" stroke="black" points="611.782,-783.287 615.782,-783.287 615.782,-779.287 611.782,-779.287 "/>
<polyline fill="none" stroke="black" points="611.782,-759.287 615.782,-759.287 615.782,-755.287 611.782,-755.287 "/>
<text text-anchor="middle" x="689.282" y="-765.587" font-family="Times,serif" font-size="14.00">RouteHookOneFileMode</text>
</g>
<!-- RouteHookOneFileMode&#45;&gt;Core_ComponentBase -->
<g id="edge70" class="edge"><title>RouteHookOneFileMode&#45;&gt;Core_ComponentBase</title>
<path fill="none" stroke="black" stroke-dasharray="1,5" d="M767.122,-779.807C788.914,-783.85 812.453,-789.242 833.589,-796.287 924.116,-826.46 1022.6,-880.285 1075.41,-911.039"/>
<polygon fill="black" stroke="black" points="1073.71,-914.099 1084.11,-916.135 1077.25,-908.059 1073.71,-914.099"/>
</g>
<!-- RouteHookRewrite -->
<g id="node45" class="node"><title>RouteHookRewrite</title>
<polygon fill="none" stroke="black" points="750.282,-679.287 628.282,-679.287 628.282,-675.287 624.282,-675.287 624.282,-671.287 628.282,-671.287 628.282,-651.287 624.282,-651.287 624.282,-647.287 628.282,-647.287 628.282,-643.287 750.282,-643.287 750.282,-679.287"/>
<polyline fill="none" stroke="black" points="628.282,-675.287 632.282,-675.287 632.282,-671.287 628.282,-671.287 "/>
<polyline fill="none" stroke="black" points="628.282,-651.287 632.282,-651.287 632.282,-647.287 628.282,-647.287 "/>
<text text-anchor="middle" x="689.282" y="-657.587" font-family="Times,serif" font-size="14.00">RouteHookRewrite</text>
</g>
<!-- RouteHookRewrite&#45;&gt;Core_ComponentBase -->
<g id="edge71" class="edge"><title>RouteHookRewrite&#45;&gt;Core_ComponentBase</title>
<path fill="none" stroke="black" stroke-dasharray="1,5" d="M750.41,-660.516C778.191,-662.993 810.14,-670.188 833.589,-688.287 863.177,-711.124 840.972,-740.246 869.589,-764.287 924.652,-810.544 966.863,-765.762 1025.58,-807.287 1061.65,-832.801 1087.89,-877.927 1102.05,-906.95"/>
<polygon fill="black" stroke="black" points="1098.95,-908.578 1106.39,-916.124 1105.28,-905.587 1098.95,-908.578"/>
</g>
<!-- RouteHookRouteMap -->
<g id="node46" class="node"><title>RouteHookRouteMap</title>
<polygon fill="none" stroke="black" points="757.782,-625.287 620.782,-625.287 620.782,-621.287 616.782,-621.287 616.782,-617.287 620.782,-617.287 620.782,-597.287 616.782,-597.287 616.782,-593.287 620.782,-593.287 620.782,-589.287 757.782,-589.287 757.782,-625.287"/>
<polyline fill="none" stroke="black" points="620.782,-621.287 624.782,-621.287 624.782,-617.287 620.782,-617.287 "/>
<polyline fill="none" stroke="black" points="620.782,-597.287 624.782,-597.287 624.782,-593.287 620.782,-593.287 "/>
<text text-anchor="middle" x="689.282" y="-603.587" font-family="Times,serif" font-size="14.00">RouteHookRouteMap</text>
</g>
<!-- RouteHookRouteMap&#45;&gt;Core_ComponentBase -->
<g id="edge72" class="edge"><title>RouteHookRouteMap&#45;&gt;Core_ComponentBase</title>
<path fill="none" stroke="black" stroke-dasharray="1,5" d="M757.94,-612.431C782.681,-616.243 810.295,-622.85 833.589,-634.287 852.805,-643.722 852.467,-653.438 869.589,-666.287 935.074,-715.431 970.072,-704.098 1025.58,-764.287 1064.89,-806.921 1091.69,-870.304 1104.8,-906.419"/>
<polygon fill="black" stroke="black" points="1101.65,-908.007 1108.28,-916.271 1108.25,-905.676 1101.65,-908.007"/>
</g>
<!-- StrictCheck -->
<g id="node47" class="node"><title>StrictCheck</title>
<polygon fill="none" stroke="black" points="987.582,-247.287 907.582,-247.287 907.582,-243.287 903.582,-243.287 903.582,-239.287 907.582,-239.287 907.582,-219.287 903.582,-219.287 903.582,-215.287 907.582,-215.287 907.582,-211.287 987.582,-211.287 987.582,-247.287"/>
<polyline fill="none" stroke="black" points="907.582,-243.287 911.582,-243.287 911.582,-239.287 907.582,-239.287 "/>
<polyline fill="none" stroke="black" points="907.582,-219.287 911.582,-219.287 911.582,-215.287 907.582,-215.287 "/>
<text text-anchor="middle" x="947.582" y="-225.587" font-family="Times,serif" font-size="14.00">StrictCheck</text>
</g>
<!-- StrictCheck&#45;&gt;Core_ComponentBase -->
<g id="edge68" class="edge"><title>StrictCheck&#45;&gt;Core_ComponentBase</title>
<path fill="none" stroke="black" stroke-dasharray="1,5" d="M987.962,-234.441C1001.85,-238.247 1016.29,-244.848 1025.58,-256.287 1108.36,-358.311 1114.15,-790.825 1114.2,-906.008"/>
<polygon fill="black" stroke="black" points="1110.7,-906.139 1114.19,-916.143 1117.7,-906.146 1110.7,-906.139"/>
</g>
<!-- StrictModelTrait -->
<g id="node48" class="node"><title>StrictModelTrait</title>
<polygon fill="none" stroke="black" points="689.282,-247.287 590.243,-229.287 689.282,-211.287 788.32,-229.287 689.282,-247.287"/>
<text text-anchor="middle" x="689.282" y="-225.587" font-family="Times,serif" font-size="14.00">StrictModelTrait</text>
</g>
<!-- StrictModelTrait&#45;&gt;StrictCheck -->
<g id="edge59" class="edge"><title>StrictModelTrait&#45;&gt;StrictCheck</title>
<path fill="none" stroke="black" d="M788.641,-229.287C825.803,-229.287 866.502,-229.287 897.279,-229.287"/>
<polygon fill="black" stroke="black" points="897.316,-232.787 907.316,-229.287 897.316,-225.787 897.316,-232.787"/>
</g>
<!-- StrictServiceTrait -->
<g id="node49" class="node"><title>StrictServiceTrait</title>
<polygon fill="none" stroke="black" points="689.282,-193.287 585.552,-175.287 689.282,-157.287 793.011,-175.287 689.282,-193.287"/>
<text text-anchor="middle" x="689.282" y="-171.587" font-family="Times,serif" font-size="14.00">StrictServiceTrait</text>
</g>
<!-- StrictServiceTrait&#45;&gt;StrictCheck -->
<g id="edge60" class="edge"><title>StrictServiceTrait&#45;&gt;StrictCheck</title>
<path fill="none" stroke="black" d="M741.472,-184.312C768.863,-189.297 803.135,-195.784 833.589,-202.287 854.681,-206.791 877.868,-212.244 897.719,-217.066"/>
<polygon fill="black" stroke="black" points="896.924,-220.475 907.469,-219.449 898.585,-213.675 896.924,-220.475"/>
</g>
<!-- HttpServer -->
<g id="node50" class="node"><title>HttpServer</title>
<polygon fill="lightgrey" stroke="black" points="325.909,-744.287 256.197,-726.287 325.909,-708.287 395.621,-726.287 325.909,-744.287"/>
<polyline fill="none" stroke="black" points="267.816,-729.287 267.816,-723.287 "/>
<polyline fill="none" stroke="black" points="314.29,-711.287 337.528,-711.287 "/>
<polyline fill="none" stroke="black" points="384.002,-723.287 384.002,-729.287 "/>
<polyline fill="none" stroke="black" points="337.528,-741.287 314.29,-741.287 "/>
<text text-anchor="middle" x="325.909" y="-722.587" font-family="Times,serif" font-size="14.00">HttpServer</text>
</g>
<!-- HttpServer&#45;&gt;Core_HttpServer -->
<g id="edge74" class="edge"><title>HttpServer&#45;&gt;Core_HttpServer</title>
<path fill="none" stroke="black" d="M341.54,-740.285C374.646,-771.006 459.121,-844.149 544.974,-876.287 665.889,-921.55 706.251,-887.98 833.589,-909.287 856.153,-913.063 880.999,-918.426 901.633,-923.217"/>
<polygon fill="black" stroke="black" points="900.86,-926.631 911.396,-925.514 902.463,-919.817 900.86,-926.631"/>
</g>
<!-- App -->
<g id="node51" class="node"><title>App</title>
<polygon fill="lightgrey" stroke="black" points="325.909,-690.287 289.375,-672.287 325.909,-654.287 362.443,-672.287 325.909,-690.287"/>
<polyline fill="none" stroke="black" points="300.139,-677.591 300.139,-666.984 "/>
<polyline fill="none" stroke="black" points="315.144,-659.591 336.673,-659.591 "/>
<polyline fill="none" stroke="black" points="351.679,-666.984 351.679,-677.591 "/>
<polyline fill="none" stroke="black" points="336.673,-684.984 315.144,-684.984 "/>
<text text-anchor="middle" x="325.909" y="-668.587" font-family="Times,serif" font-size="14.00">App</text>
</g>
<!-- App&#45;&gt;Core_App -->
<g id="edge75" class="edge"><title>App&#45;&gt;Core_App</title>
<path fill="none" stroke="black" d="M357.741,-674.816C374.948,-677.9 395.302,-684.641 407.441,-699.287 462.864,-766.154 470.185,-1044.95 471.097,-1134.48"/>
<polygon fill="black" stroke="black" points="467.598,-1134.69 471.18,-1144.66 474.598,-1134.63 467.598,-1134.69"/>
</g>
<!-- App&#45;&gt;DBManager -->
<g id="edge78" class="edge"><title>App&#45;&gt;DBManager</title>
<path fill="none" stroke="black" d="M326.386,-654.27C324.974,-567.696 331.605,-192.38 544.974,-40.2872 650.782,35.1344 814.759,-13.2506 896.585,-45.3819"/>
<polygon fill="black" stroke="black" points="895.562,-48.7426 906.147,-49.2104 898.164,-42.2441 895.562,-48.7426"/>
</g>
<!-- App&#45;&gt;Pager -->
<g id="edge77" class="edge"><title>App&#45;&gt;Pager</title>
<path fill="none" stroke="black" d="M334.394,-658.129C358.376,-614.294 438.029,-480.06 544.974,-418.287 577.92,-399.257 621.571,-393.265 652.004,-391.562"/>
<polygon fill="black" stroke="black" points="652.338,-395.051 662.178,-391.124 652.037,-388.057 652.338,-395.051"/>
</g>
<!-- App&#45;&gt;RouteHookOneFileMode -->
<g id="edge79" class="edge"><title>App&#45;&gt;RouteHookOneFileMode</title>
<path fill="none" stroke="black" d="M348.115,-679.467C395.016,-695.286 506.433,-732.511 544.974,-742.287 563.176,-746.904 582.86,-751.112 601.639,-754.761"/>
<polygon fill="black" stroke="black" points="601.184,-758.237 611.663,-756.673 602.496,-751.361 601.184,-758.237"/>
</g>
<!-- App&#45;&gt;RouteHookRouteMap -->
<g id="edge76" class="edge"><title>App&#45;&gt;RouteHookRouteMap</title>
<path fill="none" stroke="black" d="M353.189,-667.56C406.536,-657.965 529.339,-635.876 610.532,-621.272"/>
<polygon fill="black" stroke="black" points="611.49,-624.656 620.712,-619.441 610.251,-617.767 611.49,-624.656"/>
</g>
</g>
</svg>
