<?xml version="1.0" encoding="UTF-8" standalone="no"?>
<!DOCTYPE svg PUBLIC "-//W3C//DTD SVG 1.1//EN"
 "http://www.w3.org/Graphics/SVG/1.1/DTD/svg11.dtd">
<!-- Generated by graphviz version 2.38.0 (20140413.2041)
 -->
<!-- Title: gDuckPhp Pages: 1 -->
<svg width="1471pt" height="1816pt"
 viewBox="0.00 0.00 1471.00 1816.00" xmlns="http://www.w3.org/2000/svg" xmlns:xlink="http://www.w3.org/1999/xlink">
<g id="graph0" class="graph" transform="scale(1 1) rotate(0) translate(4 1812)">
<title>gDuckPhp</title>
<polygon fill="white" stroke="none" points="-4,4 -4,-1812 1467,-1812 1467,4 -4,4"/>
<g id="clust1" class="cluster"><title>cluster_SingletonEx</title>
<polygon fill="none" stroke="black" points="31.8981,-676 31.8981,-751 200.478,-751 200.478,-676 31.8981,-676"/>
<text text-anchor="middle" x="116.188" y="-735.8" font-family="Times,serif" font-size="14.00">[DuckPhp\SingletonEx]</text>
</g>
<g id="clust2" class="cluster"><title>cluster_Core</title>
<polygon fill="none" stroke="black" points="427.441,-1283 427.441,-1756 1420.65,-1756 1420.65,-1283 427.441,-1283"/>
<text text-anchor="middle" x="924.046" y="-1740.8" font-family="Times,serif" font-size="14.00">[DuckPhp\Core]</text>
</g>
<g id="clust3" class="cluster"><title>cluster_Helper</title>
<polygon fill="none" stroke="black" points="8,-1426 8,-1717 407.441,-1717 407.441,-1426 8,-1426"/>
<text text-anchor="middle" x="207.721" y="-1701.8" font-family="Times,serif" font-size="14.00">[DuckPhp\Helper]</text>
</g>
<g id="clust4" class="cluster"><title>cluster_Db</title>
<polygon fill="none" stroke="black" points="1106.11,-498 1106.11,-627 1455,-627 1455,-498 1106.11,-498"/>
<text text-anchor="middle" x="1280.56" y="-611.8" font-family="Times,serif" font-size="14.00">[DuckPhp\Db]</text>
</g>
<g id="clust5" class="cluster"><title>cluster_HttpServer</title>
<polygon fill="none" stroke="black" points="1066.59,-8 1066.59,-83 1222.3,-83 1222.3,-8 1066.59,-8"/>
<text text-anchor="middle" x="1144.45" y="-67.8" font-family="Times,serif" font-size="14.00">[DuckPhp\HttpServer]</text>
</g>
<g id="clust6" class="cluster"><title>cluster_DefaultExt</title>
<polygon fill="none" stroke="black" points="861.589,-91 861.589,-490 1199.95,-490 1199.95,-91 861.589,-91"/>
<text text-anchor="middle" x="1030.77" y="-474.8" font-family="Times,serif" font-size="14.00">[DuckPhp\Ext]</text>
</g>
<g id="clust7" class="cluster"><title>cluster_Ext</title>
<polygon fill="none" stroke="black" points="599.782,-498 599.782,-1275 1024.59,-1275 1024.59,-498 599.782,-498"/>
<text text-anchor="middle" x="812.186" y="-1259.8" font-family="Times,serif" font-size="14.00">[DuckPhp\Ext]</text>
</g>
<g id="clust8" class="cluster"><title>cluster_DuckPhp</title>
<polygon fill="none" stroke="black" points="256.325,-278 256.325,-353 395.492,-353 395.492,-278 256.325,-278"/>
<text text-anchor="middle" x="325.909" y="-337.8" font-family="Times,serif" font-size="14.00">[DuckPhp]</text>
</g>
<g id="clust9" class="cluster"><title>cluster_ThrowOn</title>
<polygon fill="none" stroke="black" points="44.7663,-1725 44.7663,-1800 187.61,-1800 187.61,-1725 44.7663,-1725"/>
<text text-anchor="middle" x="116.188" y="-1784.8" font-family="Times,serif" font-size="14.00">[DuckPhp\ThrowOn]</text>
</g>
<!-- SingletonEx -->
<g id="node1" class="node"><title>SingletonEx</title>
<polygon fill="lightgrey" stroke="black" points="116.188,-720 40.1075,-702 116.188,-684 192.269,-702 116.188,-720"/>
<polyline fill="none" stroke="black" points="51.7851,-704.763 51.7851,-699.237 "/>
<polyline fill="none" stroke="black" points="104.511,-686.763 127.866,-686.763 "/>
<polyline fill="none" stroke="black" points="180.591,-699.237 180.591,-704.763 "/>
<polyline fill="none" stroke="black" points="127.866,-717.237 104.511,-717.237 "/>
<text text-anchor="middle" x="116.188" y="-698.3" font-family="Times,serif" font-size="14.00">SingletonEx</text>
</g>
<!-- Core_AppPluginTrait -->
<g id="node2" class="node"><title>Core_AppPluginTrait</title>
<polygon fill="none" stroke="black" points="689.282,-1423 596.612,-1405 689.282,-1387 781.952,-1405 689.282,-1423"/>
<text text-anchor="middle" x="689.282" y="-1401.3" font-family="Times,serif" font-size="14.00">AppPluginTrait</text>
</g>
<!-- Core_View -->
<g id="node7" class="node"><title>Core_View</title>
<polygon fill="none" stroke="black" points="981.089,-1327 927.089,-1327 927.089,-1323 923.089,-1323 923.089,-1319 927.089,-1319 927.089,-1299 923.089,-1299 923.089,-1295 927.089,-1295 927.089,-1291 981.089,-1291 981.089,-1327"/>
<polyline fill="none" stroke="black" points="927.089,-1323 931.089,-1323 931.089,-1319 927.089,-1319 "/>
<polyline fill="none" stroke="black" points="927.089,-1299 931.089,-1299 931.089,-1295 927.089,-1295 "/>
<text text-anchor="middle" x="954.089" y="-1305.3" font-family="Times,serif" font-size="14.00">View</text>
</g>
<!-- Core_AppPluginTrait&#45;&gt;Core_View -->
<g id="edge23" class="edge"><title>Core_AppPluginTrait&#45;&gt;Core_View</title>
<path fill="none" stroke="black" d="M726.417,-1394.08C755.887,-1384.66 798.265,-1369.93 833.589,-1353 846.718,-1346.71 848.274,-1341.89 861.589,-1336 879.152,-1328.24 899.573,-1321.97 916.663,-1317.43"/>
<polygon fill="black" stroke="black" points="917.997,-1320.7 926.817,-1314.83 916.262,-1313.92 917.997,-1320.7"/>
</g>
<!-- Core_Configer -->
<g id="node8" class="node"><title>Core_Configer</title>
<polygon fill="none" stroke="black" points="986.589,-1489 921.589,-1489 921.589,-1485 917.589,-1485 917.589,-1481 921.589,-1481 921.589,-1461 917.589,-1461 917.589,-1457 921.589,-1457 921.589,-1453 986.589,-1453 986.589,-1489"/>
<polyline fill="none" stroke="black" points="921.589,-1485 925.589,-1485 925.589,-1481 921.589,-1481 "/>
<polyline fill="none" stroke="black" points="921.589,-1461 925.589,-1461 925.589,-1457 921.589,-1457 "/>
<text text-anchor="middle" x="954.089" y="-1467.3" font-family="Times,serif" font-size="14.00">Configer</text>
</g>
<!-- Core_AppPluginTrait&#45;&gt;Core_Configer -->
<g id="edge22" class="edge"><title>Core_AppPluginTrait&#45;&gt;Core_Configer</title>
<path fill="none" stroke="black" d="M730.483,-1415.1C779.583,-1427.43 862.207,-1448.18 911.798,-1460.63"/>
<polygon fill="black" stroke="black" points="911.004,-1464.04 921.555,-1463.08 912.709,-1457.25 911.004,-1464.04"/>
</g>
<!-- Core_Route -->
<g id="node10" class="node"><title>Core_Route</title>
<polygon fill="lightgrey" stroke="black" points="954.089,-1381 909.012,-1363 954.089,-1345 999.167,-1363 954.089,-1381"/>
<polyline fill="none" stroke="black" points="920.156,-1367.45 920.156,-1358.55 "/>
<polyline fill="none" stroke="black" points="942.945,-1349.45 965.234,-1349.45 "/>
<polyline fill="none" stroke="black" points="988.022,-1358.55 988.022,-1367.45 "/>
<polyline fill="none" stroke="black" points="965.234,-1376.55 942.945,-1376.55 "/>
<text text-anchor="middle" x="954.089" y="-1359.3" font-family="Times,serif" font-size="14.00">Route</text>
</g>
<!-- Core_AppPluginTrait&#45;&gt;Core_Route -->
<g id="edge24" class="edge"><title>Core_AppPluginTrait&#45;&gt;Core_Route</title>
<path fill="none" stroke="black" d="M740.643,-1396.95C790.249,-1389.02 865.135,-1377.06 911.473,-1369.65"/>
<polygon fill="black" stroke="black" points="912.151,-1373.09 921.473,-1368.05 911.046,-1366.17 912.151,-1373.09"/>
</g>
<!-- Core_SuperGlobal -->
<g id="node13" class="node"><title>Core_SuperGlobal</title>
<polygon fill="none" stroke="black" points="996.589,-1435 911.589,-1435 911.589,-1431 907.589,-1431 907.589,-1427 911.589,-1427 911.589,-1407 907.589,-1407 907.589,-1403 911.589,-1403 911.589,-1399 996.589,-1399 996.589,-1435"/>
<polyline fill="none" stroke="black" points="911.589,-1431 915.589,-1431 915.589,-1427 911.589,-1427 "/>
<polyline fill="none" stroke="black" points="911.589,-1407 915.589,-1407 915.589,-1403 911.589,-1403 "/>
<text text-anchor="middle" x="954.089" y="-1413.3" font-family="Times,serif" font-size="14.00">SuperGlobal</text>
</g>
<!-- Core_AppPluginTrait&#45;&gt;Core_SuperGlobal -->
<g id="edge25" class="edge"><title>Core_AppPluginTrait&#45;&gt;Core_SuperGlobal</title>
<path fill="none" stroke="black" d="M764.538,-1408.39C808.15,-1410.38 862.193,-1412.85 901.225,-1414.63"/>
<polygon fill="black" stroke="black" points="901.162,-1418.13 911.311,-1415.09 901.481,-1411.14 901.162,-1418.13"/>
</g>
<!-- Core_App -->
<g id="node3" class="node"><title>Core_App</title>
<polygon fill="lightgrey" stroke="black" points="472.208,-1554 435.674,-1536 472.208,-1518 508.742,-1536 472.208,-1554"/>
<polyline fill="none" stroke="black" points="446.438,-1541.3 446.438,-1530.7 "/>
<polyline fill="none" stroke="black" points="461.443,-1523.3 482.972,-1523.3 "/>
<polyline fill="none" stroke="black" points="497.977,-1530.7 497.977,-1541.3 "/>
<polyline fill="none" stroke="black" points="482.972,-1548.7 461.443,-1548.7 "/>
<text text-anchor="middle" x="472.208" y="-1532.3" font-family="Times,serif" font-size="14.00">App</text>
</g>
<!-- Core_Kernel -->
<g id="node4" class="node"><title>Core_Kernel</title>
<polygon fill="none" stroke="black" points="689.282,-1517 640.35,-1499 689.282,-1481 738.213,-1499 689.282,-1517"/>
<text text-anchor="middle" x="689.282" y="-1495.3" font-family="Times,serif" font-size="14.00">Kernel</text>
</g>
<!-- Core_App&#45;&gt;Core_Kernel -->
<g id="edge9" class="edge"><title>Core_App&#45;&gt;Core_Kernel</title>
<path fill="none" stroke="black" d="M499.58,-1531.46C535.926,-1525.21 601.845,-1513.87 645.349,-1506.39"/>
<polygon fill="black" stroke="black" points="646.091,-1509.81 655.353,-1504.66 644.905,-1502.91 646.091,-1509.81"/>
</g>
<!-- Core_AutoLoader -->
<g id="node5" class="node"><title>Core_AutoLoader</title>
<polygon fill="lightgrey" stroke="black" points="954.089,-1705 878.847,-1687 954.089,-1669 1029.33,-1687 954.089,-1705"/>
<polyline fill="none" stroke="black" points="890.518,-1689.79 890.518,-1684.21 "/>
<polyline fill="none" stroke="black" points="942.419,-1671.79 965.76,-1671.79 "/>
<polyline fill="none" stroke="black" points="1017.66,-1684.21 1017.66,-1689.79 "/>
<polyline fill="none" stroke="black" points="965.76,-1702.21 942.419,-1702.21 "/>
<text text-anchor="middle" x="954.089" y="-1683.3" font-family="Times,serif" font-size="14.00">AutoLoader</text>
</g>
<!-- Core_App&#45;&gt;Core_AutoLoader -->
<g id="edge12" class="edge"><title>Core_App&#45;&gt;Core_AutoLoader</title>
<path fill="none" stroke="black" stroke-dasharray="5,2" d="M486.502,-1547.09C500.207,-1557.82 522.663,-1573.53 544.974,-1581 606.017,-1601.45 780.075,-1570.21 833.589,-1606 856.062,-1621.03 840.734,-1642.8 861.589,-1660 871.369,-1668.07 883.48,-1673.72 895.654,-1677.69"/>
<polygon fill="black" stroke="black" points="894.808,-1681.09 905.387,-1680.52 896.764,-1674.37 894.808,-1681.09"/>
</g>
<!-- Core_ExceptionManager -->
<g id="node6" class="node"><title>Core_ExceptionManager</title>
<polygon fill="none" stroke="black" points="1014.09,-1597 894.089,-1597 894.089,-1593 890.089,-1593 890.089,-1589 894.089,-1589 894.089,-1569 890.089,-1569 890.089,-1565 894.089,-1565 894.089,-1561 1014.09,-1561 1014.09,-1597"/>
<polyline fill="none" stroke="black" points="894.089,-1593 898.089,-1593 898.089,-1589 894.089,-1589 "/>
<polyline fill="none" stroke="black" points="894.089,-1569 898.089,-1569 898.089,-1565 894.089,-1565 "/>
<text text-anchor="middle" x="954.089" y="-1575.3" font-family="Times,serif" font-size="14.00">ExceptionManager</text>
</g>
<!-- Core_App&#45;&gt;Core_ExceptionManager -->
<g id="edge15" class="edge"><title>Core_App&#45;&gt;Core_ExceptionManager</title>
<path fill="none" stroke="black" stroke-dasharray="5,2" d="M503.591,-1538.72C579.336,-1545.51 778.062,-1563.32 884.103,-1572.82"/>
<polygon fill="black" stroke="black" points="883.796,-1576.3 894.069,-1573.71 884.421,-1569.33 883.796,-1576.3"/>
</g>
<!-- Core_App&#45;&gt;Core_View -->
<g id="edge18" class="edge"><title>Core_App&#45;&gt;Core_View</title>
<path fill="none" stroke="black" stroke-dasharray="5,2" d="M474.301,-1518.87C477.66,-1482.15 491.179,-1396.03 544.974,-1357 570.987,-1338.13 801.822,-1342.86 833.589,-1338 861.899,-1333.67 893.353,-1325.91 916.882,-1319.51"/>
<polygon fill="black" stroke="black" points="918.068,-1322.81 926.772,-1316.77 916.2,-1316.07 918.068,-1322.81"/>
</g>
<!-- Core_App&#45;&gt;Core_Configer -->
<g id="edge13" class="edge"><title>Core_App&#45;&gt;Core_Configer</title>
<path fill="none" stroke="black" stroke-dasharray="5,2" d="M482.871,-1522.89C495.247,-1507.33 518.311,-1482.2 544.974,-1472 610.859,-1446.8 821.151,-1460.19 911.352,-1467.39"/>
<polygon fill="black" stroke="black" points="911.235,-1470.9 921.486,-1468.22 911.802,-1463.92 911.235,-1470.9"/>
</g>
<!-- Core_Logger -->
<g id="node9" class="node"><title>Core_Logger</title>
<polygon fill="none" stroke="black" points="982.089,-1651 926.089,-1651 926.089,-1647 922.089,-1647 922.089,-1643 926.089,-1643 926.089,-1623 922.089,-1623 922.089,-1619 926.089,-1619 926.089,-1615 982.089,-1615 982.089,-1651"/>
<polyline fill="none" stroke="black" points="926.089,-1647 930.089,-1647 930.089,-1643 926.089,-1643 "/>
<polyline fill="none" stroke="black" points="926.089,-1623 930.089,-1623 930.089,-1619 926.089,-1619 "/>
<text text-anchor="middle" x="954.089" y="-1629.3" font-family="Times,serif" font-size="14.00">Logger</text>
</g>
<!-- Core_App&#45;&gt;Core_Logger -->
<g id="edge14" class="edge"><title>Core_App&#45;&gt;Core_Logger</title>
<path fill="none" stroke="black" stroke-dasharray="5,2" d="M492.651,-1544.15C506.89,-1549.78 526.817,-1556.95 544.974,-1561 670.847,-1589.07 710.297,-1553.17 833.589,-1591 847.086,-1595.14 848.528,-1600.64 861.589,-1606 878.974,-1613.13 898.92,-1619.25 915.744,-1623.84"/>
<polygon fill="black" stroke="black" points="915.201,-1627.32 925.765,-1626.51 916.998,-1620.56 915.201,-1627.32"/>
</g>
<!-- Core_App&#45;&gt;Core_Route -->
<g id="edge16" class="edge"><title>Core_App&#45;&gt;Core_Route</title>
<path fill="none" stroke="black" stroke-dasharray="5,2" d="M475.141,-1519.19C479.997,-1485.65 496.051,-1410.8 544.974,-1378 573.798,-1358.68 797.22,-1360.14 900.744,-1361.89"/>
<polygon fill="black" stroke="black" points="900.913,-1365.4 910.973,-1362.07 901.037,-1358.4 900.913,-1365.4"/>
</g>
<!-- Core_RuntimeState -->
<g id="node11" class="node"><title>Core_RuntimeState</title>
<polygon fill="none" stroke="black" points="999.589,-1543 908.589,-1543 908.589,-1539 904.589,-1539 904.589,-1535 908.589,-1535 908.589,-1515 904.589,-1515 904.589,-1511 908.589,-1511 908.589,-1507 999.589,-1507 999.589,-1543"/>
<polyline fill="none" stroke="black" points="908.589,-1539 912.589,-1539 912.589,-1535 908.589,-1535 "/>
<polyline fill="none" stroke="black" points="908.589,-1515 912.589,-1515 912.589,-1511 908.589,-1511 "/>
<text text-anchor="middle" x="954.089" y="-1521.3" font-family="Times,serif" font-size="14.00">RuntimeState</text>
</g>
<!-- Core_App&#45;&gt;Core_RuntimeState -->
<g id="edge17" class="edge"><title>Core_App&#45;&gt;Core_RuntimeState</title>
<path fill="none" stroke="black" stroke-dasharray="5,2" d="M507.335,-1535.22C589.335,-1533.34 798.036,-1528.55 898.036,-1526.26"/>
<polygon fill="black" stroke="black" points="898.316,-1529.76 908.233,-1526.03 898.156,-1522.76 898.316,-1529.76"/>
</g>
<!-- Core_SystemWrapperTrait -->
<g id="node12" class="node"><title>Core_SystemWrapperTrait</title>
<polygon fill="none" stroke="black" points="689.282,-1651 568.962,-1633 689.282,-1615 809.601,-1633 689.282,-1651"/>
<text text-anchor="middle" x="689.282" y="-1629.3" font-family="Times,serif" font-size="14.00">SystemWrapperTrait</text>
</g>
<!-- Core_App&#45;&gt;Core_SystemWrapperTrait -->
<g id="edge11" class="edge"><title>Core_App&#45;&gt;Core_SystemWrapperTrait</title>
<path fill="none" stroke="black" d="M483.472,-1548.63C496.277,-1563.51 519.597,-1587.86 544.974,-1601 565.096,-1611.42 588.521,-1618.46 610.53,-1623.22"/>
<polygon fill="black" stroke="black" points="610.03,-1626.69 620.526,-1625.24 611.421,-1619.82 610.03,-1626.69"/>
</g>
<!-- Core_App&#45;&gt;Core_SuperGlobal -->
<g id="edge19" class="edge"><title>Core_App&#45;&gt;Core_SuperGlobal</title>
<path fill="none" stroke="black" stroke-dasharray="5,2" d="M480.748,-1522C491.927,-1502.83 514.859,-1469.07 544.974,-1454 602.497,-1425.22 769.591,-1438.45 833.589,-1432 855.848,-1429.76 880.374,-1426.77 901.385,-1424.05"/>
<polygon fill="black" stroke="black" points="901.93,-1427.51 911.392,-1422.74 901.022,-1420.57 901.93,-1427.51"/>
</g>
<!-- Core_ExtendableStaticCallTrait -->
<g id="node14" class="node"><title>Core_ExtendableStaticCallTrait</title>
<polygon fill="none" stroke="black" points="689.282,-1725 545.166,-1707 689.282,-1689 833.397,-1707 689.282,-1725"/>
<text text-anchor="middle" x="689.282" y="-1703.3" font-family="Times,serif" font-size="14.00">ExtendableStaticCallTrait</text>
</g>
<!-- Core_App&#45;&gt;Core_ExtendableStaticCallTrait -->
<g id="edge10" class="edge"><title>Core_App&#45;&gt;Core_ExtendableStaticCallTrait</title>
<path fill="none" stroke="black" d="M476.794,-1552.21C484.166,-1581.54 503.898,-1643.32 544.974,-1675 558.389,-1685.35 574.497,-1692.48 590.996,-1697.37"/>
<polygon fill="black" stroke="black" points="590.171,-1700.77 600.737,-1699.99 591.993,-1694.01 590.171,-1700.77"/>
</g>
<!-- Core_ComponentBase -->
<g id="node16" class="node"><title>Core_ComponentBase</title>
<polygon fill="none" stroke="black" points="1197.95,-1327 1094.95,-1327 1090.95,-1323 1090.95,-1291 1193.95,-1291 1197.95,-1295 1197.95,-1327"/>
<polyline fill="none" stroke="black" points="1193.95,-1323 1090.95,-1323 "/>
<polyline fill="none" stroke="black" points="1193.95,-1323 1193.95,-1291 "/>
<polyline fill="none" stroke="black" points="1193.95,-1323 1197.95,-1327 "/>
<text text-anchor="middle" x="1144.45" y="-1305.3" font-family="Times,serif" font-size="14.00">ComponentBase</text>
</g>
<!-- Core_App&#45;&gt;Core_ComponentBase -->
<g id="edge21" class="edge"><title>Core_App&#45;&gt;Core_ComponentBase</title>
<path fill="none" stroke="black" stroke-dasharray="1,5" d="M477.185,-1551.92C484.978,-1579.39 505.086,-1635.12 544.974,-1660 599.524,-1694.02 776.432,-1650.57 833.589,-1680 850.993,-1688.96 843.886,-1705.65 861.589,-1714 932.732,-1747.57 976.382,-1762.15 1038.59,-1714 1099.25,-1667.04 1131.2,-1421.82 1140.51,-1337.51"/>
<polygon fill="black" stroke="black" points="1144.01,-1337.69 1141.61,-1327.38 1137.05,-1336.94 1144.01,-1337.69"/>
</g>
<!-- Core_Functions -->
<g id="node17" class="node"><title>Core_Functions</title>
<ellipse fill="none" stroke="black" cx="689.282" cy="-1311" rx="45.4919" ry="18"/>
<text text-anchor="middle" x="689.282" y="-1307.3" font-family="Times,serif" font-size="14.00">Functions</text>
</g>
<!-- Core_App&#45;&gt;Core_Functions -->
<g id="edge20" class="edge"><title>Core_App&#45;&gt;Core_Functions</title>
<path fill="none" stroke="black" stroke-dasharray="5,2" d="M474.298,-1518.8C477.666,-1480.9 491.227,-1389.88 544.974,-1343 569.12,-1321.94 604.098,-1313.85 633.452,-1311.06"/>
<polygon fill="black" stroke="black" points="633.871,-1314.54 643.574,-1310.29 633.336,-1307.56 633.871,-1314.54"/>
</g>
<!-- Core_Kernel&#45;&gt;Core_AutoLoader -->
<g id="edge1" class="edge"><title>Core_Kernel&#45;&gt;Core_AutoLoader</title>
<path fill="none" stroke="black" d="M713.252,-1508.37C744.454,-1522.17 800.166,-1550.73 833.589,-1591 854.727,-1616.47 837.063,-1637.78 861.589,-1660 870.699,-1668.25 882.217,-1673.99 893.982,-1677.98"/>
<polygon fill="black" stroke="black" points="893.292,-1681.42 903.875,-1680.93 895.294,-1674.72 893.292,-1681.42"/>
</g>
<!-- Core_Kernel&#45;&gt;Core_ExceptionManager -->
<g id="edge4" class="edge"><title>Core_Kernel&#45;&gt;Core_ExceptionManager</title>
<path fill="none" stroke="black" d="M716.369,-1507.19C749.926,-1517.69 810.034,-1536.42 861.589,-1552 868.947,-1554.22 876.644,-1556.53 884.315,-1558.81"/>
<polygon fill="black" stroke="black" points="883.408,-1562.19 893.991,-1561.68 885.401,-1555.48 883.408,-1562.19"/>
</g>
<!-- Core_Kernel&#45;&gt;Core_View -->
<g id="edge7" class="edge"><title>Core_Kernel&#45;&gt;Core_View</title>
<path fill="none" stroke="black" d="M720.849,-1492.59C753.399,-1484.19 804.187,-1466.3 833.589,-1432 862.514,-1398.26 830.212,-1367.48 861.589,-1336 876.092,-1321.45 898.021,-1314.66 916.775,-1311.53"/>
<polygon fill="black" stroke="black" points="917.375,-1314.98 926.8,-1310.14 916.413,-1308.05 917.375,-1314.98"/>
</g>
<!-- Core_Kernel&#45;&gt;Core_Configer -->
<g id="edge2" class="edge"><title>Core_Kernel&#45;&gt;Core_Configer</title>
<path fill="none" stroke="black" d="M727.657,-1495.02C776.18,-1489.85 860.627,-1480.85 911.246,-1475.46"/>
<polygon fill="black" stroke="black" points="911.631,-1478.94 921.204,-1474.4 910.889,-1471.98 911.631,-1478.94"/>
</g>
<!-- Core_Kernel&#45;&gt;Core_Logger -->
<g id="edge3" class="edge"><title>Core_Kernel&#45;&gt;Core_Logger</title>
<path fill="none" stroke="black" d="M714.951,-1507.63C745.079,-1518.97 796.592,-1541.03 833.589,-1571 849.069,-1583.54 845.053,-1594.89 861.589,-1606 877.795,-1616.89 898.474,-1623.47 916.073,-1627.41"/>
<polygon fill="black" stroke="black" points="915.524,-1630.87 926.021,-1629.43 916.92,-1624.01 915.524,-1630.87"/>
</g>
<!-- Core_Kernel&#45;&gt;Core_Route -->
<g id="edge5" class="edge"><title>Core_Kernel&#45;&gt;Core_Route</title>
<path fill="none" stroke="black" d="M717.313,-1491.27C748.119,-1481.42 798.704,-1461.99 833.589,-1432 850.602,-1417.38 843.526,-1403.31 861.589,-1390 875.504,-1379.75 893.277,-1373.37 909.451,-1369.41"/>
<polygon fill="black" stroke="black" points="910.256,-1372.82 919.266,-1367.24 908.747,-1365.98 910.256,-1372.82"/>
</g>
<!-- Core_Kernel&#45;&gt;Core_RuntimeState -->
<g id="edge6" class="edge"><title>Core_Kernel&#45;&gt;Core_RuntimeState</title>
<path fill="none" stroke="black" d="M728.216,-1502.75C772.899,-1507.17 847.479,-1514.55 898.402,-1519.59"/>
<polygon fill="black" stroke="black" points="898.277,-1523.09 908.573,-1520.6 898.966,-1516.13 898.277,-1523.09"/>
</g>
<!-- Core_Kernel&#45;&gt;Core_SuperGlobal -->
<g id="edge8" class="edge"><title>Core_Kernel&#45;&gt;Core_SuperGlobal</title>
<path fill="none" stroke="black" d="M715.763,-1490.61C749.174,-1479.66 809.647,-1460 861.589,-1444 874.581,-1440 888.648,-1435.79 901.765,-1431.91"/>
<polygon fill="black" stroke="black" points="902.973,-1435.21 911.577,-1429.02 900.996,-1428.49 902.973,-1435.21"/>
</g>
<!-- Core_ExceptionManager&#45;&gt;Core_ComponentBase -->
<g id="edge26" class="edge"><title>Core_ExceptionManager&#45;&gt;Core_ComponentBase</title>
<path fill="none" stroke="black" stroke-dasharray="1,5" d="M1014.23,-1566.93C1023.1,-1563.22 1031.6,-1558.36 1038.59,-1552 1103.32,-1493.12 1129.77,-1387.35 1139.07,-1337.05"/>
<polygon fill="black" stroke="black" points="1142.52,-1337.65 1140.81,-1327.2 1135.63,-1336.44 1142.52,-1337.65"/>
</g>
<!-- Core_View&#45;&gt;Core_ComponentBase -->
<g id="edge31" class="edge"><title>Core_View&#45;&gt;Core_ComponentBase</title>
<path fill="none" stroke="black" stroke-dasharray="1,5" d="M981.279,-1309C1006.84,-1309 1046.7,-1309 1080.51,-1309"/>
<polygon fill="black" stroke="black" points="1080.78,-1312.5 1090.78,-1309 1080.78,-1305.5 1080.78,-1312.5"/>
</g>
<!-- Core_Configer&#45;&gt;Core_ComponentBase -->
<g id="edge27" class="edge"><title>Core_Configer&#45;&gt;Core_ComponentBase</title>
<path fill="none" stroke="black" stroke-dasharray="1,5" d="M986.861,-1465.42C1003.37,-1461.41 1023.25,-1454.76 1038.59,-1444 1079.33,-1415.43 1111.68,-1366.38 1129.16,-1335.93"/>
<polygon fill="black" stroke="black" points="1132.26,-1337.55 1134.1,-1327.12 1126.15,-1334.13 1132.26,-1337.55"/>
</g>
<!-- Core_Logger&#45;&gt;Core_ComponentBase -->
<g id="edge32" class="edge"><title>Core_Logger&#45;&gt;Core_ComponentBase</title>
<path fill="none" stroke="black" stroke-dasharray="1,5" d="M982.355,-1630.43C1000.44,-1627.37 1023.53,-1620.67 1038.59,-1606 1115.67,-1530.94 1136.21,-1395.82 1141.58,-1337.3"/>
<polygon fill="black" stroke="black" points="1145.07,-1337.55 1142.42,-1327.29 1138.1,-1336.97 1145.07,-1337.55"/>
</g>
<!-- Core_Route&#45;&gt;Core_ComponentBase -->
<g id="edge28" class="edge"><title>Core_Route&#45;&gt;Core_ComponentBase</title>
<path fill="none" stroke="black" stroke-dasharray="1,5" d="M980.885,-1355.6C1006.56,-1348.24 1046.95,-1336.66 1081.05,-1326.89"/>
<polygon fill="black" stroke="black" points="1082.29,-1330.17 1090.94,-1324.05 1080.36,-1323.44 1082.29,-1330.17"/>
</g>
<!-- Core_RuntimeState&#45;&gt;Core_ComponentBase -->
<g id="edge30" class="edge"><title>Core_RuntimeState&#45;&gt;Core_ComponentBase</title>
<path fill="none" stroke="black" stroke-dasharray="1,5" d="M999.797,-1517.18C1013.33,-1513.16 1027.53,-1507.1 1038.59,-1498 1091.21,-1454.7 1121.94,-1377.72 1135.36,-1336.63"/>
<polygon fill="black" stroke="black" points="1138.73,-1337.59 1138.4,-1327 1132.05,-1335.49 1138.73,-1337.59"/>
</g>
<!-- Core_SuperGlobal&#45;&gt;Core_ComponentBase -->
<g id="edge29" class="edge"><title>Core_SuperGlobal&#45;&gt;Core_ComponentBase</title>
<path fill="none" stroke="black" stroke-dasharray="1,5" d="M997.008,-1406.54C1010.68,-1402.32 1025.65,-1396.82 1038.59,-1390 1067.51,-1374.75 1096.64,-1351.47 1116.83,-1333.77"/>
<polygon fill="black" stroke="black" points="1119.24,-1336.31 1124.38,-1327.05 1114.58,-1331.08 1119.24,-1336.31"/>
</g>
<!-- Core_ComponentInterface -->
<g id="node15" class="node"><title>Core_ComponentInterface</title>
<polygon fill="none" stroke="black" points="1406.65,-1327 1284.65,-1327 1284.65,-1291 1412.65,-1291 1412.65,-1321 1406.65,-1327"/>
<polyline fill="none" stroke="black" points="1406.65,-1327 1406.65,-1321 "/>
<polyline fill="none" stroke="black" points="1412.65,-1321 1406.65,-1321 "/>
<text text-anchor="middle" x="1348.65" y="-1305.3" font-family="Times,serif" font-size="14.00">ComponentInterface</text>
</g>
<!-- Core_ComponentBase&#45;&gt;Core_ComponentInterface -->
<g id="edge33" class="edge"><title>Core_ComponentBase&#45;&gt;Core_ComponentInterface</title>
<path fill="none" stroke="black" d="M1198.04,-1309C1221.29,-1309 1249.01,-1309 1274.25,-1309"/>
<polygon fill="black" stroke="black" points="1274.51,-1312.5 1284.51,-1309 1274.51,-1305.5 1274.51,-1312.5"/>
</g>
<!-- AppHelper -->
<g id="node18" class="node"><title>AppHelper</title>
<polygon fill="lightgrey" stroke="black" points="116.188,-1578 45.6372,-1560 116.188,-1542 186.739,-1560 116.188,-1578"/>
<polyline fill="none" stroke="black" points="57.2647,-1562.97 57.2647,-1557.03 "/>
<polyline fill="none" stroke="black" points="104.561,-1544.97 127.816,-1544.97 "/>
<polyline fill="none" stroke="black" points="175.112,-1557.03 175.112,-1562.97 "/>
<polyline fill="none" stroke="black" points="127.816,-1575.03 104.561,-1575.03 "/>
<text text-anchor="middle" x="116.188" y="-1556.3" font-family="Times,serif" font-size="14.00">AppHelper</text>
</g>
<!-- AppHelper&#45;&gt;Core_App -->
<g id="edge34" class="edge"><title>AppHelper&#45;&gt;Core_App</title>
<path fill="none" stroke="black" d="M172.504,-1556.25C243.794,-1551.42 366.129,-1543.12 429.865,-1538.8"/>
<polygon fill="black" stroke="black" points="430.206,-1542.29 439.946,-1538.12 429.732,-1535.3 430.206,-1542.29"/>
</g>
<!-- HelperTrait -->
<g id="node23" class="node"><title>HelperTrait</title>
<polygon fill="none" stroke="black" points="325.909,-1676 252.344,-1658 325.909,-1640 399.474,-1658 325.909,-1676"/>
<text text-anchor="middle" x="325.909" y="-1654.3" font-family="Times,serif" font-size="14.00">HelperTrait</text>
</g>
<!-- AppHelper&#45;&gt;HelperTrait -->
<g id="edge41" class="edge"><title>AppHelper&#45;&gt;HelperTrait</title>
<path fill="none" stroke="black" d="M156.795,-1567.78C175.359,-1572.17 197.495,-1578.51 216.376,-1587 246.879,-1600.71 278.523,-1622.42 299.715,-1638.22"/>
<polygon fill="black" stroke="black" points="297.764,-1641.13 307.849,-1644.38 301.99,-1635.55 297.764,-1641.13"/>
</g>
<!-- ControllerHelper -->
<g id="node19" class="node"><title>ControllerHelper</title>
<polygon fill="lightgrey" stroke="black" points="116.188,-1524 15.8115,-1506 116.188,-1488 216.565,-1506 116.188,-1524"/>
<polyline fill="none" stroke="black" points="27.6231,-1508.12 27.6231,-1503.88 "/>
<polyline fill="none" stroke="black" points="104.377,-1490.12 128,-1490.12 "/>
<polyline fill="none" stroke="black" points="204.753,-1503.88 204.753,-1508.12 "/>
<polyline fill="none" stroke="black" points="128,-1521.88 104.377,-1521.88 "/>
<text text-anchor="middle" x="116.188" y="-1502.3" font-family="Times,serif" font-size="14.00">ControllerHelper</text>
</g>
<!-- ControllerHelper&#45;&gt;Core_App -->
<g id="edge35" class="edge"><title>ControllerHelper&#45;&gt;Core_App</title>
<path fill="none" stroke="black" d="M185.028,-1511.75C257.568,-1517.9 370.24,-1527.44 430.28,-1532.53"/>
<polygon fill="black" stroke="black" points="430.246,-1536.04 440.506,-1533.4 430.837,-1529.07 430.246,-1536.04"/>
</g>
<!-- ControllerHelper&#45;&gt;HelperTrait -->
<g id="edge42" class="edge"><title>ControllerHelper&#45;&gt;HelperTrait</title>
<path fill="none" stroke="black" d="M170.29,-1514.36C185.933,-1518.39 202.548,-1524.32 216.376,-1533 257.664,-1558.93 291.891,-1605.38 310.284,-1633.78"/>
<polygon fill="black" stroke="black" points="307.382,-1635.73 315.689,-1642.31 313.296,-1631.99 307.382,-1635.73"/>
</g>
<!-- ModelHelper -->
<g id="node20" class="node"><title>ModelHelper</title>
<polygon fill="lightgrey" stroke="black" points="116.188,-1470 34.5777,-1452 116.188,-1434 197.799,-1452 116.188,-1470"/>
<polyline fill="none" stroke="black" points="46.296,-1454.58 46.296,-1449.42 "/>
<polyline fill="none" stroke="black" points="104.47,-1436.58 127.906,-1436.58 "/>
<polyline fill="none" stroke="black" points="186.08,-1449.42 186.08,-1454.58 "/>
<polyline fill="none" stroke="black" points="127.906,-1467.42 104.47,-1467.42 "/>
<text text-anchor="middle" x="116.188" y="-1448.3" font-family="Times,serif" font-size="14.00">ModelHelper</text>
</g>
<!-- ModelHelper&#45;&gt;Core_App -->
<g id="edge36" class="edge"><title>ModelHelper&#45;&gt;Core_App</title>
<path fill="none" stroke="black" d="M161.298,-1460.09C218.486,-1470.91 321.122,-1491.49 407.441,-1515 418.435,-1517.99 430.331,-1521.76 440.837,-1525.28"/>
<polygon fill="black" stroke="black" points="439.815,-1528.63 450.409,-1528.54 442.071,-1522 439.815,-1528.63"/>
</g>
<!-- ModelHelper&#45;&gt;HelperTrait -->
<g id="edge43" class="edge"><title>ModelHelper&#45;&gt;HelperTrait</title>
<path fill="none" stroke="black" d="M168.958,-1458.37C185.324,-1462.31 202.693,-1468.69 216.376,-1479 269.131,-1518.75 301.685,-1592.29 316.13,-1631.6"/>
<polygon fill="black" stroke="black" points="312.92,-1633.02 319.57,-1641.27 319.516,-1630.67 312.92,-1633.02"/>
</g>
<!-- ServiceHelper -->
<g id="node21" class="node"><title>ServiceHelper</title>
<polygon fill="lightgrey" stroke="black" points="116.188,-1686 29.8865,-1668 116.188,-1650 202.49,-1668 116.188,-1686"/>
<polyline fill="none" stroke="black" points="41.6337,-1670.45 41.6337,-1665.55 "/>
<polyline fill="none" stroke="black" points="104.441,-1652.45 127.935,-1652.45 "/>
<polyline fill="none" stroke="black" points="190.743,-1665.55 190.743,-1670.45 "/>
<polyline fill="none" stroke="black" points="127.935,-1683.55 104.441,-1683.55 "/>
<text text-anchor="middle" x="116.188" y="-1664.3" font-family="Times,serif" font-size="14.00">ServiceHelper</text>
</g>
<!-- ServiceHelper&#45;&gt;Core_App -->
<g id="edge37" class="edge"><title>ServiceHelper&#45;&gt;Core_App</title>
<path fill="none" stroke="black" d="M154.41,-1657.92C173.026,-1652.86 195.899,-1646.63 216.376,-1641 232.388,-1636.6 236.336,-1635.3 252.376,-1631 321.127,-1612.59 344.379,-1624 407.441,-1591 424.655,-1581.99 441.181,-1567.52 453.094,-1555.68"/>
<polygon fill="black" stroke="black" points="455.749,-1557.97 460.217,-1548.36 450.733,-1553.08 455.749,-1557.97"/>
</g>
<!-- ServiceHelper&#45;&gt;HelperTrait -->
<g id="edge44" class="edge"><title>ServiceHelper&#45;&gt;HelperTrait</title>
<path fill="none" stroke="black" d="M186.645,-1664.66C208.332,-1663.61 232.275,-1662.46 254.056,-1661.41"/>
<polygon fill="black" stroke="black" points="254.405,-1664.9 264.225,-1660.92 254.068,-1657.91 254.405,-1664.9"/>
</g>
<!-- ViewHelper -->
<g id="node22" class="node"><title>ViewHelper</title>
<polygon fill="lightgrey" stroke="black" points="116.188,-1632 40.1075,-1614 116.188,-1596 192.269,-1614 116.188,-1632"/>
<polyline fill="none" stroke="black" points="51.7851,-1616.76 51.7851,-1611.24 "/>
<polyline fill="none" stroke="black" points="104.511,-1598.76 127.866,-1598.76 "/>
<polyline fill="none" stroke="black" points="180.591,-1611.24 180.591,-1616.76 "/>
<polyline fill="none" stroke="black" points="127.866,-1629.24 104.511,-1629.24 "/>
<text text-anchor="middle" x="116.188" y="-1610.3" font-family="Times,serif" font-size="14.00">ViewHelper</text>
</g>
<!-- ViewHelper&#45;&gt;Core_App -->
<g id="edge38" class="edge"><title>ViewHelper&#45;&gt;Core_App</title>
<path fill="none" stroke="black" d="M165.545,-1607.66C223.644,-1599.44 323.756,-1583.34 407.441,-1560 419.131,-1556.74 431.692,-1552.24 442.55,-1548.01"/>
<polygon fill="black" stroke="black" points="443.977,-1551.21 451.967,-1544.26 441.382,-1544.71 443.977,-1551.21"/>
</g>
<!-- ViewHelper&#45;&gt;HelperTrait -->
<g id="edge45" class="edge"><title>ViewHelper&#45;&gt;HelperTrait</title>
<path fill="none" stroke="black" d="M157.239,-1622.48C191.076,-1629.65 239.666,-1639.94 275.836,-1647.61"/>
<polygon fill="black" stroke="black" points="275.177,-1651.04 285.686,-1649.69 276.628,-1644.2 275.177,-1651.04"/>
</g>
<!-- HelperTrait&#45;&gt;Core_App -->
<g id="edge39" class="edge"><title>HelperTrait&#45;&gt;Core_App</title>
<path fill="none" stroke="black" d="M362.515,-1648.77C377.43,-1643.71 394.314,-1636.32 407.441,-1626 430.339,-1608 448.539,-1579.61 459.539,-1559.54"/>
<polygon fill="black" stroke="black" points="462.773,-1560.91 464.35,-1550.44 456.584,-1557.64 462.773,-1560.91"/>
</g>
<!-- HelperTrait&#45;&gt;Core_ExtendableStaticCallTrait -->
<g id="edge40" class="edge"><title>HelperTrait&#45;&gt;Core_ExtendableStaticCallTrait</title>
<path fill="none" stroke="black" d="M373.782,-1664.36C433.516,-1672.46 537.642,-1686.57 609.626,-1696.33"/>
<polygon fill="black" stroke="black" points="609.183,-1699.81 619.562,-1697.68 610.123,-1692.87 609.183,-1699.81"/>
</g>
<!-- Db_Db -->
<g id="node24" class="node"><title>Db_Db</title>
<polygon fill="lightgrey" stroke="black" points="1144.45,-542 1114.28,-524 1144.45,-506 1174.61,-524 1144.45,-542"/>
<polyline fill="none" stroke="black" points="1124.34,-530 1124.34,-518 "/>
<polyline fill="none" stroke="black" points="1134.39,-512 1154.5,-512 "/>
<polyline fill="none" stroke="black" points="1164.56,-518 1164.56,-530 "/>
<polyline fill="none" stroke="black" points="1154.5,-536 1134.39,-536 "/>
<text text-anchor="middle" x="1144.45" y="-520.3" font-family="Times,serif" font-size="14.00">Db</text>
</g>
<!-- Db_DbAdvanceTrait -->
<g id="node25" class="node"><title>Db_DbAdvanceTrait</title>
<polygon fill="none" stroke="black" points="1348.65,-596 1250.45,-578 1348.65,-560 1446.85,-578 1348.65,-596"/>
<polyline fill="none" stroke="black" points="1262.25,-580.164 1262.25,-575.836 "/>
<polyline fill="none" stroke="black" points="1336.85,-562.164 1360.45,-562.164 "/>
<polyline fill="none" stroke="black" points="1435.05,-575.836 1435.05,-580.164 "/>
<polyline fill="none" stroke="black" points="1360.45,-593.836 1336.85,-593.836 "/>
<text text-anchor="middle" x="1348.65" y="-574.3" font-family="Times,serif" font-size="14.00">DbAdvanceTrait</text>
</g>
<!-- Db_Db&#45;&gt;Db_DbAdvanceTrait -->
<g id="edge46" class="edge"><title>Db_Db&#45;&gt;Db_DbAdvanceTrait</title>
<path fill="none" stroke="black" d="M1165.95,-529.475C1196.71,-537.691 1255.74,-553.455 1298.18,-564.788"/>
<polygon fill="black" stroke="black" points="1297.48,-568.223 1308.04,-567.422 1299.28,-561.46 1297.48,-568.223"/>
</g>
<!-- Db_DbInterface -->
<g id="node26" class="node"><title>Db_DbInterface</title>
<polygon fill="none" stroke="black" points="1383.15,-542 1308.15,-542 1308.15,-506 1389.15,-506 1389.15,-536 1383.15,-542"/>
<polyline fill="none" stroke="black" points="1383.15,-542 1383.15,-536 "/>
<polyline fill="none" stroke="black" points="1389.15,-536 1383.15,-536 "/>
<text text-anchor="middle" x="1348.65" y="-520.3" font-family="Times,serif" font-size="14.00">DbInterface</text>
</g>
<!-- Db_Db&#45;&gt;Db_DbInterface -->
<g id="edge47" class="edge"><title>Db_Db&#45;&gt;Db_DbInterface</title>
<path fill="none" stroke="black" d="M1174.85,-524C1207.12,-524 1259.49,-524 1298.12,-524"/>
<polygon fill="black" stroke="black" points="1298.13,-527.5 1308.13,-524 1298.13,-520.5 1298.13,-527.5"/>
</g>
<!-- HttpServer -->
<g id="node27" class="node"><title>HttpServer</title>
<polygon fill="lightgrey" stroke="black" points="1144.45,-52 1074.73,-34 1144.45,-16 1214.16,-34 1144.45,-52"/>
<polyline fill="none" stroke="black" points="1086.35,-37.0001 1086.35,-30.9999 "/>
<polyline fill="none" stroke="black" points="1132.83,-19.0001 1156.06,-19.0001 "/>
<polyline fill="none" stroke="black" points="1202.54,-30.9999 1202.54,-37.0001 "/>
<polyline fill="none" stroke="black" points="1156.06,-48.9999 1132.83,-48.9999 "/>
<text text-anchor="middle" x="1144.45" y="-30.3" font-family="Times,serif" font-size="14.00">HttpServer</text>
</g>
<!-- Cache -->
<g id="node28" class="node"><title>Cache</title>
<polygon fill="none" stroke="black" points="981.089,-459 927.089,-459 927.089,-455 923.089,-455 923.089,-451 927.089,-451 927.089,-431 923.089,-431 923.089,-427 927.089,-427 927.089,-423 981.089,-423 981.089,-459"/>
<polyline fill="none" stroke="black" points="927.089,-455 931.089,-455 931.089,-451 927.089,-451 "/>
<polyline fill="none" stroke="black" points="927.089,-431 931.089,-431 931.089,-427 927.089,-427 "/>
<text text-anchor="middle" x="954.089" y="-437.3" font-family="Times,serif" font-size="14.00">Cache</text>
</g>
<!-- Cache&#45;&gt;Core_ComponentBase -->
<g id="edge48" class="edge"><title>Cache&#45;&gt;Core_ComponentBase</title>
<path fill="none" stroke="black" stroke-dasharray="1,5" d="M981.431,-450.578C1000.56,-458.977 1025.32,-473.139 1038.59,-494 1060.28,-528.096 1125.73,-1140.46 1140.47,-1280.59"/>
<polygon fill="black" stroke="black" points="1137.03,-1281.34 1141.56,-1290.92 1144,-1280.61 1137.03,-1281.34"/>
</g>
<!-- Console -->
<g id="node29" class="node"><title>Console</title>
<polygon fill="none" stroke="black" points="984.589,-135 923.589,-135 923.589,-131 919.589,-131 919.589,-127 923.589,-127 923.589,-107 919.589,-107 919.589,-103 923.589,-103 923.589,-99 984.589,-99 984.589,-135"/>
<polyline fill="none" stroke="black" points="923.589,-131 927.589,-131 927.589,-127 923.589,-127 "/>
<polyline fill="none" stroke="black" points="923.589,-107 927.589,-107 927.589,-103 923.589,-103 "/>
<text text-anchor="middle" x="954.089" y="-113.3" font-family="Times,serif" font-size="14.00">Console</text>
</g>
<!-- Console&#45;&gt;Core_ComponentBase -->
<g id="edge49" class="edge"><title>Console&#45;&gt;Core_ComponentBase</title>
<path fill="none" stroke="black" stroke-dasharray="1,5" d="M984.991,-118.485C1003.48,-121.105 1026.02,-127.723 1038.59,-144 1071.72,-186.893 1061.98,-576.996 1066.59,-631 1088.18,-883.905 1127.47,-1188.42 1139.7,-1280.98"/>
<polygon fill="black" stroke="black" points="1136.24,-1281.51 1141.03,-1290.96 1143.18,-1280.59 1136.24,-1281.51"/>
</g>
<!-- Console&#45;&gt;HttpServer -->
<g id="edge57" class="edge"><title>Console&#45;&gt;HttpServer</title>
<path fill="none" stroke="black" d="M984.935,-103.848C1018.5,-89.0575 1072.95,-65.0638 1108.48,-49.4071"/>
<polygon fill="black" stroke="black" points="1110.23,-52.4621 1117.97,-45.2268 1107.41,-46.0564 1110.23,-52.4621"/>
</g>
<!-- Installer -->
<g id="node32" class="node"><title>Installer</title>
<polygon fill="none" stroke="black" points="1174.95,-135 1113.95,-135 1113.95,-131 1109.95,-131 1109.95,-127 1113.95,-127 1113.95,-107 1109.95,-107 1109.95,-103 1113.95,-103 1113.95,-99 1174.95,-99 1174.95,-135"/>
<polyline fill="none" stroke="black" points="1113.95,-131 1117.95,-131 1117.95,-127 1113.95,-127 "/>
<polyline fill="none" stroke="black" points="1113.95,-107 1117.95,-107 1117.95,-103 1113.95,-103 "/>
<text text-anchor="middle" x="1144.45" y="-113.3" font-family="Times,serif" font-size="14.00">Installer</text>
</g>
<!-- Console&#45;&gt;Installer -->
<g id="edge56" class="edge"><title>Console&#45;&gt;Installer</title>
<path fill="none" stroke="black" d="M984.935,-117C1017.04,-117 1068.24,-117 1103.72,-117"/>
<polygon fill="black" stroke="black" points="1103.74,-120.5 1113.74,-117 1103.74,-113.5 1103.74,-120.5"/>
</g>
<!-- DbManager -->
<g id="node30" class="node"><title>DbManager</title>
<polygon fill="none" stroke="black" points="995.089,-243 913.089,-243 913.089,-239 909.089,-239 909.089,-235 913.089,-235 913.089,-215 909.089,-215 909.089,-211 913.089,-211 913.089,-207 995.089,-207 995.089,-243"/>
<polyline fill="none" stroke="black" points="913.089,-239 917.089,-239 917.089,-235 913.089,-235 "/>
<polyline fill="none" stroke="black" points="913.089,-215 917.089,-215 917.089,-211 913.089,-211 "/>
<text text-anchor="middle" x="954.089" y="-221.3" font-family="Times,serif" font-size="14.00">DbManager</text>
</g>
<!-- DbManager&#45;&gt;Core_ComponentBase -->
<g id="edge50" class="edge"><title>DbManager&#45;&gt;Core_ComponentBase</title>
<path fill="none" stroke="black" stroke-dasharray="1,5" d="M995.486,-228.47C1011.36,-231.983 1028.24,-238.821 1038.59,-252 1064.68,-285.205 1062.66,-588.958 1066.59,-631 1090.24,-883.72 1128.14,-1188.36 1139.87,-1280.97"/>
<polygon fill="black" stroke="black" points="1136.41,-1281.47 1141.14,-1290.95 1143.35,-1280.59 1136.41,-1281.47"/>
</g>
<!-- DbManager&#45;&gt;Db_Db -->
<g id="edge58" class="edge"><title>DbManager&#45;&gt;Db_Db</title>
<path fill="none" stroke="black" d="M995.221,-228.682C1011.05,-232.231 1027.97,-239.039 1038.59,-252 1107.23,-335.737 1000.47,-408.261 1066.59,-494 1076.85,-507.305 1093.84,-514.716 1109.25,-518.841"/>
<polygon fill="black" stroke="black" points="1108.52,-522.265 1119.05,-521.105 1110.1,-515.445 1108.52,-522.265"/>
</g>
<!-- EventManager -->
<g id="node31" class="node"><title>EventManager</title>
<polygon fill="none" stroke="black" points="1002.59,-405 905.589,-405 905.589,-401 901.589,-401 901.589,-397 905.589,-397 905.589,-377 901.589,-377 901.589,-373 905.589,-373 905.589,-369 1002.59,-369 1002.59,-405"/>
<polyline fill="none" stroke="black" points="905.589,-401 909.589,-401 909.589,-397 905.589,-397 "/>
<polyline fill="none" stroke="black" points="905.589,-377 909.589,-377 909.589,-373 905.589,-373 "/>
<text text-anchor="middle" x="954.089" y="-383.3" font-family="Times,serif" font-size="14.00">EventManager</text>
</g>
<!-- EventManager&#45;&gt;Core_ComponentBase -->
<g id="edge51" class="edge"><title>EventManager&#45;&gt;Core_ComponentBase</title>
<path fill="none" stroke="black" stroke-dasharray="1,5" d="M1002.6,-392.579C1016.12,-396.49 1029.6,-403.048 1038.59,-414 1042.13,-418.318 1122.91,-1128.16 1140.21,-1280.45"/>
<polygon fill="black" stroke="black" points="1136.78,-1281.27 1141.38,-1290.81 1143.73,-1280.48 1136.78,-1281.27"/>
</g>
<!-- Installer&#45;&gt;Core_ComponentBase -->
<g id="edge52" class="edge"><title>Installer&#45;&gt;Core_ComponentBase</title>
<path fill="none" stroke="black" stroke-dasharray="1,5" d="M1113.87,-119.212C1091.99,-122.667 1064.41,-131.352 1052.59,-153 1027.62,-198.739 1049.13,-570.004 1052.59,-622 1069.71,-879.262 1122.52,-1187.14 1139.28,-1280.69"/>
<polygon fill="black" stroke="black" points="1135.88,-1281.56 1141.1,-1290.78 1142.77,-1280.32 1135.88,-1281.56"/>
</g>
<!-- Pager -->
<g id="node33" class="node"><title>Pager</title>
<polygon fill="none" stroke="black" points="981.089,-189 927.089,-189 927.089,-185 923.089,-185 923.089,-181 927.089,-181 927.089,-161 923.089,-161 923.089,-157 927.089,-157 927.089,-153 981.089,-153 981.089,-189"/>
<polyline fill="none" stroke="black" points="927.089,-185 931.089,-185 931.089,-181 927.089,-181 "/>
<polyline fill="none" stroke="black" points="927.089,-161 931.089,-161 931.089,-157 927.089,-157 "/>
<text text-anchor="middle" x="954.089" y="-167.3" font-family="Times,serif" font-size="14.00">Pager</text>
</g>
<!-- Pager&#45;&gt;Core_ComponentBase -->
<g id="edge53" class="edge"><title>Pager&#45;&gt;Core_ComponentBase</title>
<path fill="none" stroke="black" stroke-dasharray="1,5" d="M981.315,-164.642C1000.38,-165.307 1025.12,-171.686 1038.59,-189 1068.2,-227.048 1062.32,-573.978 1066.59,-622 1089.36,-877.947 1128.72,-1186.92 1140.21,-1280.78"/>
<polygon fill="black" stroke="black" points="1136.76,-1281.4 1141.44,-1290.9 1143.71,-1280.55 1136.76,-1281.4"/>
</g>
<!-- Pager&#45;&gt;Core_ComponentBase -->
<g id="edge64" class="edge"><title>Pager&#45;&gt;Core_ComponentBase</title>
<path fill="none" stroke="black" stroke-dasharray="1,5" d="M981.315,-179.438C1000.38,-183.307 1025.12,-189.686 1038.59,-207 1068.2,-245.048 1062.32,-591.978 1066.59,-640 1088.78,-889.421 1126.72,-1189.2 1139.28,-1281.05"/>
<polygon fill="black" stroke="black" points="1135.81,-1281.54 1140.65,-1290.97 1142.75,-1280.59 1135.81,-1281.54"/>
</g>
<!-- PagerInterface -->
<g id="node34" class="node"><title>PagerInterface</title>
<polygon fill="none" stroke="black" points="1185.95,-189 1096.95,-189 1096.95,-153 1191.95,-153 1191.95,-183 1185.95,-189"/>
<polyline fill="none" stroke="black" points="1185.95,-189 1185.95,-183 "/>
<polyline fill="none" stroke="black" points="1191.95,-183 1185.95,-183 "/>
<text text-anchor="middle" x="1144.45" y="-167.3" font-family="Times,serif" font-size="14.00">PagerInterface</text>
</g>
<!-- Pager&#45;&gt;PagerInterface -->
<g id="edge59" class="edge"><title>Pager&#45;&gt;PagerInterface</title>
<path fill="none" stroke="black" d="M981.279,-171C1008.42,-171 1051.69,-171 1086.71,-171"/>
<polygon fill="black" stroke="black" points="1086.82,-174.5 1096.82,-171 1086.82,-167.5 1086.82,-174.5"/>
</g>
<!-- RouteHookPathInfoCompat -->
<g id="node35" class="node"><title>RouteHookPathInfoCompat</title>
<polygon fill="none" stroke="black" points="1038.59,-351 869.589,-351 869.589,-347 865.589,-347 865.589,-343 869.589,-343 869.589,-323 865.589,-323 865.589,-319 869.589,-319 869.589,-315 1038.59,-315 1038.59,-351"/>
<polyline fill="none" stroke="black" points="869.589,-347 873.589,-347 873.589,-343 869.589,-343 "/>
<polyline fill="none" stroke="black" points="869.589,-323 873.589,-323 873.589,-319 869.589,-319 "/>
<text text-anchor="middle" x="954.089" y="-329.3" font-family="Times,serif" font-size="14.00">RouteHookPathInfoCompat</text>
</g>
<!-- RouteHookPathInfoCompat&#45;&gt;Core_ComponentBase -->
<g id="edge54" class="edge"><title>RouteHookPathInfoCompat&#45;&gt;Core_ComponentBase</title>
<path fill="none" stroke="black" stroke-dasharray="1,5" d="M1029.42,-351.211C1032.81,-353.771 1035.91,-356.684 1038.59,-360 1076.68,-407.057 1060.07,-570.809 1066.59,-631 1093.93,-883.348 1129.34,-1188.24 1140.16,-1280.94"/>
<polygon fill="black" stroke="black" points="1136.69,-1281.41 1141.33,-1290.94 1143.65,-1280.6 1136.69,-1281.41"/>
</g>
<!-- RouteHookRouteMap -->
<g id="node36" class="node"><title>RouteHookRouteMap</title>
<polygon fill="none" stroke="black" points="1022.59,-297 885.589,-297 885.589,-293 881.589,-293 881.589,-289 885.589,-289 885.589,-269 881.589,-269 881.589,-265 885.589,-265 885.589,-261 1022.59,-261 1022.59,-297"/>
<polyline fill="none" stroke="black" points="885.589,-293 889.589,-293 889.589,-289 885.589,-289 "/>
<polyline fill="none" stroke="black" points="885.589,-269 889.589,-269 889.589,-265 885.589,-265 "/>
<text text-anchor="middle" x="954.089" y="-275.3" font-family="Times,serif" font-size="14.00">RouteHookRouteMap</text>
</g>
<!-- RouteHookRouteMap&#45;&gt;Core_ComponentBase -->
<g id="edge55" class="edge"><title>RouteHookRouteMap&#45;&gt;Core_ComponentBase</title>
<path fill="none" stroke="black" stroke-dasharray="1,5" d="M1022.66,-292.626C1028.74,-296.13 1034.23,-300.515 1038.59,-306 1061.15,-334.364 1062.99,-594.934 1066.59,-631 1091.78,-883.571 1128.64,-1188.31 1139.99,-1280.96"/>
<polygon fill="black" stroke="black" points="1136.53,-1281.45 1141.22,-1290.95 1143.47,-1280.59 1136.53,-1281.45"/>
</g>
<!-- CallableView -->
<g id="node37" class="node"><title>CallableView</title>
<polygon fill="none" stroke="black" points="734.782,-1136 643.782,-1136 643.782,-1132 639.782,-1132 639.782,-1128 643.782,-1128 643.782,-1108 639.782,-1108 639.782,-1104 643.782,-1104 643.782,-1100 734.782,-1100 734.782,-1136"/>
<polyline fill="none" stroke="black" points="643.782,-1132 647.782,-1132 647.782,-1128 643.782,-1128 "/>
<polyline fill="none" stroke="black" points="643.782,-1108 647.782,-1108 647.782,-1104 643.782,-1104 "/>
<text text-anchor="middle" x="689.282" y="-1114.3" font-family="Times,serif" font-size="14.00">CallableView</text>
</g>
<!-- CallableView&#45;&gt;Core_View -->
<g id="edge72" class="edge"><title>CallableView&#45;&gt;Core_View</title>
<path fill="none" stroke="black" d="M734.955,-1114.32C766.633,-1114.28 807.918,-1119.83 833.589,-1145 877.034,-1187.59 821.017,-1233.66 861.589,-1279 875.575,-1294.63 897.827,-1302.14 916.885,-1305.74"/>
<polygon fill="black" stroke="black" points="916.356,-1309.2 926.784,-1307.33 917.464,-1302.29 916.356,-1309.2"/>
</g>
<!-- EmptyView -->
<g id="node38" class="node"><title>EmptyView</title>
<polygon fill="none" stroke="black" points="730.782,-1244 647.782,-1244 647.782,-1240 643.782,-1240 643.782,-1236 647.782,-1236 647.782,-1216 643.782,-1216 643.782,-1212 647.782,-1212 647.782,-1208 730.782,-1208 730.782,-1244"/>
<polyline fill="none" stroke="black" points="647.782,-1240 651.782,-1240 651.782,-1236 647.782,-1236 "/>
<polyline fill="none" stroke="black" points="647.782,-1216 651.782,-1216 651.782,-1212 647.782,-1212 "/>
<text text-anchor="middle" x="689.282" y="-1222.3" font-family="Times,serif" font-size="14.00">EmptyView</text>
</g>
<!-- EmptyView&#45;&gt;Core_View -->
<g id="edge73" class="edge"><title>EmptyView&#45;&gt;Core_View</title>
<path fill="none" stroke="black" d="M731.057,-1238.88C782.071,-1254.99 868.616,-1282.32 917.219,-1297.67"/>
<polygon fill="black" stroke="black" points="916.398,-1301.08 926.988,-1300.76 918.506,-1294.41 916.398,-1301.08"/>
</g>
<!-- FacadesAutoLoader -->
<g id="node39" class="node"><title>FacadesAutoLoader</title>
<polygon fill="none" stroke="black" points="1016.59,-1181 891.589,-1181 891.589,-1177 887.589,-1177 887.589,-1173 891.589,-1173 891.589,-1153 887.589,-1153 887.589,-1149 891.589,-1149 891.589,-1145 1016.59,-1145 1016.59,-1181"/>
<polyline fill="none" stroke="black" points="891.589,-1177 895.589,-1177 895.589,-1173 891.589,-1173 "/>
<polyline fill="none" stroke="black" points="891.589,-1153 895.589,-1153 895.589,-1149 891.589,-1149 "/>
<text text-anchor="middle" x="954.089" y="-1159.3" font-family="Times,serif" font-size="14.00">FacadesAutoLoader</text>
</g>
<!-- FacadesAutoLoader&#45;&gt;Core_ComponentBase -->
<g id="edge60" class="edge"><title>FacadesAutoLoader&#45;&gt;Core_ComponentBase</title>
<path fill="none" stroke="black" stroke-dasharray="1,5" d="M998.683,-1181.07C1012.02,-1187.46 1026.38,-1195.26 1038.59,-1204 1070.82,-1227.07 1102.18,-1260.34 1122.08,-1283.21"/>
<polygon fill="black" stroke="black" points="1119.46,-1285.53 1128.62,-1290.83 1124.77,-1280.97 1119.46,-1285.53"/>
</g>
<!-- FacadesBase -->
<g id="node40" class="node"><title>FacadesBase</title>
<polygon fill="none" stroke="black" points="732.282,-1028 646.282,-1028 646.282,-1024 642.282,-1024 642.282,-1020 646.282,-1020 646.282,-1000 642.282,-1000 642.282,-996 646.282,-996 646.282,-992 732.282,-992 732.282,-1028"/>
<polyline fill="none" stroke="black" points="646.282,-1024 650.282,-1024 650.282,-1020 646.282,-1020 "/>
<polyline fill="none" stroke="black" points="646.282,-1000 650.282,-1000 650.282,-996 646.282,-996 "/>
<text text-anchor="middle" x="689.282" y="-1006.3" font-family="Times,serif" font-size="14.00">FacadesBase</text>
</g>
<!-- FacadesBase&#45;&gt;Core_ComponentBase -->
<g id="edge75" class="edge"><title>FacadesBase&#45;&gt;Core_ComponentBase</title>
<path fill="none" stroke="black" stroke-dasharray="1,5" d="M732.284,-1004.57C803.243,-997.796 947.963,-994.553 1038.59,-1065 1108.26,-1119.16 1132.36,-1228.71 1140.09,-1280.57"/>
<polygon fill="black" stroke="black" points="1136.66,-1281.29 1141.5,-1290.71 1143.59,-1280.33 1136.66,-1281.29"/>
</g>
<!-- FacadesBase&#45;&gt;FacadesAutoLoader -->
<g id="edge74" class="edge"><title>FacadesBase&#45;&gt;FacadesAutoLoader</title>
<path fill="none" stroke="black" d="M732.422,-1007.27C763.846,-1007.53 805.941,-1013.04 833.589,-1037 862.694,-1062.22 836.028,-1090.2 861.589,-1119 869.1,-1127.46 878.597,-1134.45 888.613,-1140.17"/>
<polygon fill="black" stroke="black" points="887.035,-1143.29 897.511,-1144.87 890.305,-1137.1 887.035,-1143.29"/>
</g>
<!-- FakeMiddleware -->
<g id="node41" class="node"><title>FakeMiddleware</title>
<polygon fill="none" stroke="black" points="743.782,-758 634.782,-758 634.782,-754 630.782,-754 630.782,-750 634.782,-750 634.782,-730 630.782,-730 630.782,-726 634.782,-726 634.782,-722 743.782,-722 743.782,-758"/>
<polyline fill="none" stroke="black" points="634.782,-754 638.782,-754 638.782,-750 634.782,-750 "/>
<polyline fill="none" stroke="black" points="634.782,-730 638.782,-730 638.782,-726 634.782,-726 "/>
<text text-anchor="middle" x="689.282" y="-736.3" font-family="Times,serif" font-size="14.00">FakeMiddleware</text>
</g>
<!-- FakeMiddleware&#45;&gt;Core_ComponentBase -->
<g id="edge61" class="edge"><title>FakeMiddleware&#45;&gt;Core_ComponentBase</title>
<path fill="none" stroke="black" stroke-dasharray="1,5" d="M744.124,-744.904C831.472,-753.989 998.364,-776.407 1038.59,-818 1103.8,-885.428 1133.48,-1186.53 1141.28,-1280.74"/>
<polygon fill="black" stroke="black" points="1137.8,-1281.24 1142.1,-1290.92 1144.78,-1280.67 1137.8,-1281.24"/>
</g>
<!-- JsonRpcClientBase -->
<g id="node42" class="node"><title>JsonRpcClientBase</title>
<polygon fill="none" stroke="black" points="750.282,-974 628.282,-974 628.282,-970 624.282,-970 624.282,-966 628.282,-966 628.282,-946 624.282,-946 624.282,-942 628.282,-942 628.282,-938 750.282,-938 750.282,-974"/>
<polyline fill="none" stroke="black" points="628.282,-970 632.282,-970 632.282,-966 628.282,-966 "/>
<polyline fill="none" stroke="black" points="628.282,-946 632.282,-946 632.282,-942 628.282,-942 "/>
<text text-anchor="middle" x="689.282" y="-952.3" font-family="Times,serif" font-size="14.00">JsonRpcClientBase</text>
</g>
<!-- JsonRpcClientBase&#45;&gt;Core_ComponentBase -->
<g id="edge77" class="edge"><title>JsonRpcClientBase&#45;&gt;Core_ComponentBase</title>
<path fill="none" stroke="black" stroke-dasharray="1,5" d="M750.363,-956.308C838.147,-957.969 995.7,-965.92 1038.59,-1001 1125.62,-1072.18 1140.7,-1218.88 1143.11,-1280.62"/>
<polygon fill="black" stroke="black" points="1139.61,-1280.9 1143.42,-1290.79 1146.61,-1280.69 1139.61,-1280.9"/>
</g>
<!-- JsonRpcExt -->
<g id="node43" class="node"><title>JsonRpcExt</title>
<polygon fill="none" stroke="black" points="994.589,-1110 913.589,-1110 913.589,-1106 909.589,-1106 909.589,-1102 913.589,-1102 913.589,-1082 909.589,-1082 909.589,-1078 913.589,-1078 913.589,-1074 994.589,-1074 994.589,-1110"/>
<polyline fill="none" stroke="black" points="913.589,-1106 917.589,-1106 917.589,-1102 913.589,-1102 "/>
<polyline fill="none" stroke="black" points="913.589,-1082 917.589,-1082 917.589,-1078 913.589,-1078 "/>
<text text-anchor="middle" x="954.089" y="-1088.3" font-family="Times,serif" font-size="14.00">JsonRpcExt</text>
</g>
<!-- JsonRpcClientBase&#45;&gt;JsonRpcExt -->
<g id="edge76" class="edge"><title>JsonRpcClientBase&#45;&gt;JsonRpcExt</title>
<path fill="none" stroke="black" d="M750.511,-959.905C777.069,-963.469 807.991,-970.226 833.589,-983 873.719,-1003.03 910.29,-1040.49 932.122,-1065.84"/>
<polygon fill="black" stroke="black" points="929.554,-1068.22 938.679,-1073.61 934.903,-1063.71 929.554,-1068.22"/>
</g>
<!-- JsonRpcExt&#45;&gt;Core_ComponentBase -->
<g id="edge62" class="edge"><title>JsonRpcExt&#45;&gt;Core_ComponentBase</title>
<path fill="none" stroke="black" stroke-dasharray="1,5" d="M994.898,-1107.55C1009.77,-1114.68 1026.06,-1124.2 1038.59,-1136 1083.58,-1178.37 1116.26,-1244.22 1132.3,-1281.26"/>
<polygon fill="black" stroke="black" points="1129.26,-1283.06 1136.38,-1290.9 1135.7,-1280.33 1129.26,-1283.06"/>
</g>
<!-- JsonView -->
<g id="node44" class="node"><title>JsonView</title>
<polygon fill="none" stroke="black" points="724.282,-1190 654.282,-1190 654.282,-1186 650.282,-1186 650.282,-1182 654.282,-1182 654.282,-1162 650.282,-1162 650.282,-1158 654.282,-1158 654.282,-1154 724.282,-1154 724.282,-1190"/>
<polyline fill="none" stroke="black" points="654.282,-1186 658.282,-1186 658.282,-1182 654.282,-1182 "/>
<polyline fill="none" stroke="black" points="654.282,-1162 658.282,-1162 658.282,-1158 654.282,-1158 "/>
<text text-anchor="middle" x="689.282" y="-1168.3" font-family="Times,serif" font-size="14.00">JsonView</text>
</g>
<!-- JsonView&#45;&gt;Core_View -->
<g id="edge78" class="edge"><title>JsonView&#45;&gt;Core_View</title>
<path fill="none" stroke="black" d="M724.479,-1169.36C756.379,-1168.8 803.45,-1173.09 833.589,-1199 862.153,-1223.56 834.689,-1252.63 861.589,-1279 876.396,-1293.52 898.334,-1301.01 917.017,-1304.87"/>
<polygon fill="black" stroke="black" points="916.533,-1308.34 926.995,-1306.67 917.774,-1301.45 916.533,-1308.34"/>
</g>
<!-- Misc -->
<g id="node45" class="node"><title>Misc</title>
<polygon fill="none" stroke="black" points="716.282,-704 662.282,-704 662.282,-700 658.282,-700 658.282,-696 662.282,-696 662.282,-676 658.282,-676 658.282,-672 662.282,-672 662.282,-668 716.282,-668 716.282,-704"/>
<polyline fill="none" stroke="black" points="662.282,-700 666.282,-700 666.282,-696 662.282,-696 "/>
<polyline fill="none" stroke="black" points="662.282,-676 666.282,-676 666.282,-672 662.282,-672 "/>
<text text-anchor="middle" x="689.282" y="-682.3" font-family="Times,serif" font-size="14.00">Misc</text>
</g>
<!-- Misc&#45;&gt;Core_ComponentBase -->
<g id="edge63" class="edge"><title>Misc&#45;&gt;Core_ComponentBase</title>
<path fill="none" stroke="black" stroke-dasharray="1,5" d="M716.669,-682.449C781.677,-675.323 950.629,-666.929 1038.59,-757 1112.81,-833.005 1136.64,-1179.28 1142.1,-1280.89"/>
<polygon fill="black" stroke="black" points="1138.61,-1281.19 1142.62,-1291 1145.6,-1280.83 1138.61,-1281.19"/>
</g>
<!-- RedisManager -->
<g id="node46" class="node"><title>RedisManager</title>
<polygon fill="none" stroke="black" points="737.282,-596 641.282,-596 641.282,-592 637.282,-592 637.282,-588 641.282,-588 641.282,-568 637.282,-568 637.282,-564 641.282,-564 641.282,-560 737.282,-560 737.282,-596"/>
<polyline fill="none" stroke="black" points="641.282,-592 645.282,-592 645.282,-588 641.282,-588 "/>
<polyline fill="none" stroke="black" points="641.282,-568 645.282,-568 645.282,-564 641.282,-564 "/>
<text text-anchor="middle" x="689.282" y="-574.3" font-family="Times,serif" font-size="14.00">RedisManager</text>
</g>
<!-- RedisManager&#45;&gt;Core_ComponentBase -->
<g id="edge65" class="edge"><title>RedisManager&#45;&gt;Core_ComponentBase</title>
<path fill="none" stroke="black" stroke-dasharray="1,5" d="M737.38,-576.478C813.793,-576.831 963.751,-589.808 1038.59,-680 1116.33,-773.695 1137.89,-1170.7 1142.42,-1280.66"/>
<polygon fill="black" stroke="black" points="1138.93,-1281.1 1142.83,-1290.95 1145.93,-1280.82 1138.93,-1281.1"/>
</g>
<!-- RedisCache -->
<g id="node47" class="node"><title>RedisCache</title>
<polygon fill="none" stroke="black" points="729.782,-542 648.782,-542 648.782,-538 644.782,-538 644.782,-534 648.782,-534 648.782,-514 644.782,-514 644.782,-510 648.782,-510 648.782,-506 729.782,-506 729.782,-542"/>
<polyline fill="none" stroke="black" points="648.782,-538 652.782,-538 652.782,-534 648.782,-534 "/>
<polyline fill="none" stroke="black" points="648.782,-514 652.782,-514 652.782,-510 648.782,-510 "/>
<text text-anchor="middle" x="689.282" y="-520.3" font-family="Times,serif" font-size="14.00">RedisCache</text>
</g>
<!-- RedisCache&#45;&gt;Core_ComponentBase -->
<g id="edge66" class="edge"><title>RedisCache&#45;&gt;Core_ComponentBase</title>
<path fill="none" stroke="black" stroke-dasharray="1,5" d="M729.876,-517.602C802.419,-508.362 956.697,-500.652 1038.59,-585 1088.18,-636.078 1131.34,-1153.06 1141.29,-1280.65"/>
<polygon fill="black" stroke="black" points="1137.81,-1281.09 1142.08,-1290.79 1144.79,-1280.55 1137.81,-1281.09"/>
</g>
<!-- RouteHookApiServer -->
<g id="node48" class="node"><title>RouteHookApiServer</title>
<polygon fill="none" stroke="black" points="756.282,-920 622.282,-920 622.282,-916 618.282,-916 618.282,-912 622.282,-912 622.282,-892 618.282,-892 618.282,-888 622.282,-888 622.282,-884 756.282,-884 756.282,-920"/>
<polyline fill="none" stroke="black" points="622.282,-916 626.282,-916 626.282,-912 622.282,-912 "/>
<polyline fill="none" stroke="black" points="622.282,-892 626.282,-892 626.282,-888 622.282,-888 "/>
<text text-anchor="middle" x="689.282" y="-898.3" font-family="Times,serif" font-size="14.00">RouteHookApiServer</text>
</g>
<!-- RouteHookApiServer&#45;&gt;Core_ComponentBase -->
<g id="edge67" class="edge"><title>RouteHookApiServer&#45;&gt;Core_ComponentBase</title>
<path fill="none" stroke="black" stroke-dasharray="1,5" d="M756.549,-904.645C845.662,-909.544 997.682,-923.052 1038.59,-959 1134.95,-1043.68 1144.5,-1213 1144.26,-1280.38"/>
<polygon fill="black" stroke="black" points="1140.76,-1280.62 1144.15,-1290.66 1147.76,-1280.7 1140.76,-1280.62"/>
</g>
<!-- RouteHookDirectoryMode -->
<g id="node49" class="node"><title>RouteHookDirectoryMode</title>
<polygon fill="none" stroke="black" points="770.782,-866 607.782,-866 607.782,-862 603.782,-862 603.782,-858 607.782,-858 607.782,-838 603.782,-838 603.782,-834 607.782,-834 607.782,-830 770.782,-830 770.782,-866"/>
<polyline fill="none" stroke="black" points="607.782,-862 611.782,-862 611.782,-858 607.782,-858 "/>
<polyline fill="none" stroke="black" points="607.782,-838 611.782,-838 611.782,-834 607.782,-834 "/>
<text text-anchor="middle" x="689.282" y="-844.3" font-family="Times,serif" font-size="14.00">RouteHookDirectoryMode</text>
</g>
<!-- RouteHookDirectoryMode&#45;&gt;Core_ComponentBase -->
<g id="edge68" class="edge"><title>RouteHookDirectoryMode&#45;&gt;Core_ComponentBase</title>
<path fill="none" stroke="black" stroke-dasharray="1,5" d="M771.065,-857.994C867.747,-870.661 1019.13,-893.012 1038.59,-911 1093.83,-962.058 1129.13,-1198.35 1139.93,-1280.64"/>
<polygon fill="black" stroke="black" points="1136.48,-1281.3 1141.23,-1290.77 1143.42,-1280.4 1136.48,-1281.3"/>
</g>
<!-- RouteHookManager -->
<g id="node50" class="node"><title>RouteHookManager</title>
<polygon fill="none" stroke="black" points="753.282,-812 625.282,-812 625.282,-808 621.282,-808 621.282,-804 625.282,-804 625.282,-784 621.282,-784 621.282,-780 625.282,-780 625.282,-776 753.282,-776 753.282,-812"/>
<polyline fill="none" stroke="black" points="625.282,-808 629.282,-808 629.282,-804 625.282,-804 "/>
<polyline fill="none" stroke="black" points="625.282,-784 629.282,-784 629.282,-780 625.282,-780 "/>
<text text-anchor="middle" x="689.282" y="-790.3" font-family="Times,serif" font-size="14.00">RouteHookManager</text>
</g>
<!-- RouteHookManager&#45;&gt;Core_ComponentBase -->
<g id="edge69" class="edge"><title>RouteHookManager&#45;&gt;Core_ComponentBase</title>
<path fill="none" stroke="black" stroke-dasharray="1,5" d="M753.414,-803.456C848.209,-818.21 1018.43,-847.081 1038.59,-867 1098.37,-926.059 1131.29,-1193.09 1140.64,-1280.91"/>
<polygon fill="black" stroke="black" points="1137.16,-1281.35 1141.68,-1290.94 1144.13,-1280.63 1137.16,-1281.35"/>
</g>
<!-- RouteHookRewrite -->
<g id="node51" class="node"><title>RouteHookRewrite</title>
<polygon fill="none" stroke="black" points="750.282,-1082 628.282,-1082 628.282,-1078 624.282,-1078 624.282,-1074 628.282,-1074 628.282,-1054 624.282,-1054 624.282,-1050 628.282,-1050 628.282,-1046 750.282,-1046 750.282,-1082"/>
<polyline fill="none" stroke="black" points="628.282,-1078 632.282,-1078 632.282,-1074 628.282,-1074 "/>
<polyline fill="none" stroke="black" points="628.282,-1054 632.282,-1054 632.282,-1050 628.282,-1050 "/>
<text text-anchor="middle" x="689.282" y="-1060.3" font-family="Times,serif" font-size="14.00">RouteHookRewrite</text>
</g>
<!-- RouteHookRewrite&#45;&gt;Core_ComponentBase -->
<g id="edge70" class="edge"><title>RouteHookRewrite&#45;&gt;Core_ComponentBase</title>
<path fill="none" stroke="black" stroke-dasharray="1,5" d="M750.366,-1060.66C779.164,-1062.35 812.002,-1069.62 833.589,-1091 878.988,-1135.96 818.036,-1185.26 861.589,-1232 865.421,-1236.11 999.131,-1271.46 1080.99,-1292.81"/>
<polygon fill="black" stroke="black" points="1080.14,-1296.2 1090.7,-1295.34 1081.91,-1289.43 1080.14,-1296.2"/>
</g>
<!-- StrictCheck -->
<g id="node52" class="node"><title>StrictCheck</title>
<polygon fill="none" stroke="black" points="729.282,-650 649.282,-650 649.282,-646 645.282,-646 645.282,-642 649.282,-642 649.282,-622 645.282,-622 645.282,-618 649.282,-618 649.282,-614 729.282,-614 729.282,-650"/>
<polyline fill="none" stroke="black" points="649.282,-646 653.282,-646 653.282,-642 649.282,-642 "/>
<polyline fill="none" stroke="black" points="649.282,-622 653.282,-622 653.282,-618 649.282,-618 "/>
<text text-anchor="middle" x="689.282" y="-628.3" font-family="Times,serif" font-size="14.00">StrictCheck</text>
</g>
<!-- StrictCheck&#45;&gt;Core_ComponentBase -->
<g id="edge71" class="edge"><title>StrictCheck&#45;&gt;Core_ComponentBase</title>
<path fill="none" stroke="black" stroke-dasharray="1,5" d="M729.475,-627.406C762.483,-625.946 808.254,-630.034 833.589,-659 911.383,-747.943 785.896,-1099.26 861.589,-1190 913.381,-1252.09 965.207,-1198.06 1038.59,-1232 1067.24,-1245.25 1095.85,-1266.98 1115.94,-1283.98"/>
<polygon fill="black" stroke="black" points="1113.87,-1286.82 1123.73,-1290.71 1118.44,-1281.52 1113.87,-1286.82"/>
</g>
<!-- StrictCheck&#45;&gt;DbManager -->
<g id="edge79" class="edge"><title>StrictCheck&#45;&gt;DbManager</title>
<path fill="none" stroke="black" d="M729.286,-636.427C762.173,-637.779 807.873,-633.628 833.589,-605 886.175,-546.46 812.017,-313.113 861.589,-252 871.689,-239.549 887.233,-232.654 902.66,-228.893"/>
<polygon fill="black" stroke="black" points="903.62,-232.269 912.722,-226.847 902.225,-225.41 903.62,-232.269"/>
</g>
<!-- DuckPhp -->
<g id="node53" class="node"><title>DuckPhp</title>
<polygon fill="lightgrey" stroke="black" points="325.909,-322 264.242,-304 325.909,-286 387.576,-304 325.909,-322"/>
<polyline fill="none" stroke="black" points="275.761,-307.362 275.761,-300.638 "/>
<polyline fill="none" stroke="black" points="314.39,-289.362 337.428,-289.362 "/>
<polyline fill="none" stroke="black" points="376.057,-300.638 376.057,-307.362 "/>
<polyline fill="none" stroke="black" points="337.428,-318.638 314.39,-318.638 "/>
<text text-anchor="middle" x="325.909" y="-300.3" font-family="Times,serif" font-size="14.00">DuckPhp</text>
</g>
<!-- DuckPhp&#45;&gt;Core_App -->
<g id="edge80" class="edge"><title>DuckPhp&#45;&gt;Core_App</title>
<path fill="none" stroke="black" d="M328.949,-321.416C344.821,-456.932 448.475,-1341.91 468.029,-1508.86"/>
<polygon fill="black" stroke="black" points="464.602,-1509.69 469.242,-1519.21 471.554,-1508.87 464.602,-1509.69"/>
</g>
<!-- DuckPhp&#45;&gt;Cache -->
<g id="edge86" class="edge"><title>DuckPhp&#45;&gt;Cache</title>
<path fill="none" stroke="black" d="M349.182,-315.423C369.239,-325.356 399.738,-339.592 427.441,-349 604.92,-409.27 830.173,-431.738 916.847,-438.511"/>
<polygon fill="black" stroke="black" points="916.719,-442.011 926.955,-439.278 917.249,-435.031 916.719,-442.011"/>
</g>
<!-- DuckPhp&#45;&gt;Console -->
<g id="edge87" class="edge"><title>DuckPhp&#45;&gt;Console</title>
<path fill="none" stroke="black" d="M346.307,-291.647C366.373,-279.008 398.735,-259.008 427.441,-243 478.665,-214.435 489.231,-201.236 544.974,-183 675.499,-140.299 838.899,-124.559 913.114,-119.332"/>
<polygon fill="black" stroke="black" points="913.662,-122.803 923.402,-118.635 913.189,-115.819 913.662,-122.803"/>
</g>
<!-- DuckPhp&#45;&gt;DbManager -->
<g id="edge83" class="edge"><title>DuckPhp&#45;&gt;DbManager</title>
<path fill="none" stroke="black" d="M369.456,-298.632C481.259,-284.527 782.96,-246.464 902.915,-231.33"/>
<polygon fill="black" stroke="black" points="903.448,-234.791 912.931,-230.066 902.571,-227.846 903.448,-234.791"/>
</g>
<!-- DuckPhp&#45;&gt;EventManager -->
<g id="edge84" class="edge"><title>DuckPhp&#45;&gt;EventManager</title>
<path fill="none" stroke="black" d="M358.397,-312.567C378.11,-317.668 404.109,-323.921 427.441,-328 596.109,-357.484 797.929,-375.318 895.133,-382.831"/>
<polygon fill="black" stroke="black" points="895.097,-386.338 905.335,-383.611 895.631,-379.359 895.097,-386.338"/>
</g>
<!-- DuckPhp&#45;&gt;Pager -->
<g id="edge82" class="edge"><title>DuckPhp&#45;&gt;Pager</title>
<path fill="none" stroke="black" d="M354.457,-294.193C395.503,-279.889 475.356,-253.243 544.974,-237 680.601,-205.357 845.094,-183.765 916.775,-175.166"/>
<polygon fill="black" stroke="black" points="917.546,-178.599 927.064,-173.945 916.721,-171.648 917.546,-178.599"/>
</g>
<!-- DuckPhp&#45;&gt;RouteHookPathInfoCompat -->
<g id="edge85" class="edge"><title>DuckPhp&#45;&gt;RouteHookPathInfoCompat</title>
<path fill="none" stroke="black" d="M373.683,-308.108C390.609,-309.492 409.876,-310.951 427.441,-312 578.316,-321.013 753.789,-327.149 859.009,-330.361"/>
<polygon fill="black" stroke="black" points="859.181,-333.868 869.283,-330.672 859.393,-326.871 859.181,-333.868"/>
</g>
<!-- DuckPhp&#45;&gt;RouteHookRouteMap -->
<g id="edge81" class="edge"><title>DuckPhp&#45;&gt;RouteHookRouteMap</title>
<path fill="none" stroke="black" d="M380.297,-301.869C491.017,-297.448 746.05,-287.266 875.167,-282.111"/>
<polygon fill="black" stroke="black" points="875.523,-285.6 885.375,-281.703 875.243,-278.605 875.523,-285.6"/>
</g>
<!-- ThrowOn -->
<g id="node54" class="node"><title>ThrowOn</title>
<polygon fill="lightgrey" stroke="black" points="116.188,-1769 52.8443,-1751 116.188,-1733 179.532,-1751 116.188,-1769"/>
<polyline fill="none" stroke="black" points="64.3873,-1754.28 64.3873,-1747.72 "/>
<polyline fill="none" stroke="black" points="104.645,-1736.28 127.731,-1736.28 "/>
<polyline fill="none" stroke="black" points="167.989,-1747.72 167.989,-1754.28 "/>
<polyline fill="none" stroke="black" points="127.731,-1765.72 104.645,-1765.72 "/>
<text text-anchor="middle" x="116.188" y="-1747.3" font-family="Times,serif" font-size="14.00">ThrowOn</text>
</g>
</g>
</svg>
