<?xml version="1.0" encoding="UTF-8" standalone="no"?>
<!DOCTYPE svg PUBLIC "-//W3C//DTD SVG 1.1//EN"
 "http://www.w3.org/Graphics/SVG/1.1/DTD/svg11.dtd">
<!-- Generated by graphviz version 2.38.0 (20140413.2041)
 -->
<!-- Title: gDuckPhp Pages: 1 -->
<svg width="1471pt" height="1762pt"
 viewBox="0.00 0.00 1471.00 1762.00" xmlns="http://www.w3.org/2000/svg" xmlns:xlink="http://www.w3.org/1999/xlink">
<g id="graph0" class="graph" transform="scale(1 1) rotate(0) translate(4 1758)">
<title>gDuckPhp</title>
<polygon fill="white" stroke="none" points="-4,4 -4,-1758 1467,-1758 1467,4 -4,4"/>
<g id="clust1" class="cluster"><title>cluster_SingletonEx</title>
<polygon fill="none" stroke="black" points="31.8981,-622 31.8981,-751 200.478,-751 200.478,-622 31.8981,-622"/>
<text text-anchor="middle" x="116.188" y="-735.8" font-family="Times,serif" font-size="14.00">[DuckPhp\SingletonEx]</text>
</g>
<g id="clust2" class="cluster"><title>cluster_Core</title>
<polygon fill="none" stroke="black" points="427.441,-1229 427.441,-1702 1420.65,-1702 1420.65,-1229 427.441,-1229"/>
<text text-anchor="middle" x="924.046" y="-1686.8" font-family="Times,serif" font-size="14.00">[DuckPhp\Core]</text>
</g>
<g id="clust3" class="cluster"><title>cluster_Helper</title>
<polygon fill="none" stroke="black" points="8,-1372 8,-1663 407.441,-1663 407.441,-1372 8,-1372"/>
<text text-anchor="middle" x="207.721" y="-1647.8" font-family="Times,serif" font-size="14.00">[DuckPhp\Helper]</text>
</g>
<g id="clust4" class="cluster"><title>cluster_Db</title>
<polygon fill="none" stroke="black" points="1106.11,-498 1106.11,-627 1455,-627 1455,-498 1106.11,-498"/>
<text text-anchor="middle" x="1280.56" y="-611.8" font-family="Times,serif" font-size="14.00">[DuckPhp\Db]</text>
</g>
<g id="clust5" class="cluster"><title>cluster_HttpServer</title>
<polygon fill="none" stroke="black" points="1066.59,-8 1066.59,-83 1222.3,-83 1222.3,-8 1066.59,-8"/>
<text text-anchor="middle" x="1144.45" y="-67.8" font-family="Times,serif" font-size="14.00">[DuckPhp\HttpServer]</text>
</g>
<g id="clust6" class="cluster"><title>cluster_DefaultExt</title>
<polygon fill="none" stroke="black" points="861.589,-91 861.589,-490 1199.95,-490 1199.95,-91 861.589,-91"/>
<text text-anchor="middle" x="1030.77" y="-474.8" font-family="Times,serif" font-size="14.00">[DuckPhp\Ext]</text>
</g>
<g id="clust7" class="cluster"><title>cluster_Ext</title>
<polygon fill="none" stroke="black" points="599.782,-498 599.782,-1221 1024.59,-1221 1024.59,-498 599.782,-498"/>
<text text-anchor="middle" x="812.186" y="-1205.8" font-family="Times,serif" font-size="14.00">[DuckPhp\Ext]</text>
</g>
<g id="clust8" class="cluster"><title>cluster_DuckPhp</title>
<polygon fill="none" stroke="black" points="256.325,-275 256.325,-350 395.492,-350 395.492,-275 256.325,-275"/>
<text text-anchor="middle" x="325.909" y="-334.8" font-family="Times,serif" font-size="14.00">[DuckPhp]</text>
</g>
<g id="clust9" class="cluster"><title>cluster_ThrowOn</title>
<polygon fill="none" stroke="black" points="44.7663,-1671 44.7663,-1746 187.61,-1746 187.61,-1671 44.7663,-1671"/>
<text text-anchor="middle" x="116.188" y="-1730.8" font-family="Times,serif" font-size="14.00">[DuckPhp\ThrowOn]</text>
</g>
<!-- SingletonEx -->
<g id="node1" class="node"><title>SingletonEx</title>
<polygon fill="lightgrey" stroke="black" points="116.188,-720 40.1075,-702 116.188,-684 192.269,-702 116.188,-720"/>
<polyline fill="none" stroke="black" points="51.7851,-704.763 51.7851,-699.237 "/>
<polyline fill="none" stroke="black" points="104.511,-686.763 127.866,-686.763 "/>
<polyline fill="none" stroke="black" points="180.591,-699.237 180.591,-704.763 "/>
<polyline fill="none" stroke="black" points="127.866,-717.237 104.511,-717.237 "/>
<text text-anchor="middle" x="116.188" y="-698.3" font-family="Times,serif" font-size="14.00">SingletonEx</text>
</g>
<!-- SimpleReplacer -->
<g id="node2" class="node"><title>SimpleReplacer</title>
<ellipse fill="none" stroke="black" cx="116.188" cy="-648" rx="67.6881" ry="18"/>
<text text-anchor="middle" x="116.188" y="-644.3" font-family="Times,serif" font-size="14.00">SimpleReplacer</text>
</g>
<!-- Core_AppPluginTrait -->
<g id="node3" class="node"><title>Core_AppPluginTrait</title>
<polygon fill="none" stroke="black" points="689.282,-1369 596.612,-1351 689.282,-1333 781.952,-1351 689.282,-1369"/>
<text text-anchor="middle" x="689.282" y="-1347.3" font-family="Times,serif" font-size="14.00">AppPluginTrait</text>
</g>
<!-- Core_View -->
<g id="node8" class="node"><title>Core_View</title>
<polygon fill="none" stroke="black" points="981.089,-1273 927.089,-1273 927.089,-1269 923.089,-1269 923.089,-1265 927.089,-1265 927.089,-1245 923.089,-1245 923.089,-1241 927.089,-1241 927.089,-1237 981.089,-1237 981.089,-1273"/>
<polyline fill="none" stroke="black" points="927.089,-1269 931.089,-1269 931.089,-1265 927.089,-1265 "/>
<polyline fill="none" stroke="black" points="927.089,-1245 931.089,-1245 931.089,-1241 927.089,-1241 "/>
<text text-anchor="middle" x="954.089" y="-1251.3" font-family="Times,serif" font-size="14.00">View</text>
</g>
<!-- Core_AppPluginTrait&#45;&gt;Core_View -->
<g id="edge23" class="edge"><title>Core_AppPluginTrait&#45;&gt;Core_View</title>
<path fill="none" stroke="black" d="M766.34,-1347.96C789.41,-1344.18 813.847,-1337.06 833.589,-1324 852.299,-1311.62 843.526,-1295.31 861.589,-1282 877.717,-1270.12 899.027,-1263.44 917.024,-1259.7"/>
<polygon fill="black" stroke="black" points="917.708,-1263.13 926.9,-1257.86 916.428,-1256.25 917.708,-1263.13"/>
</g>
<!-- Core_Configer -->
<g id="node9" class="node"><title>Core_Configer</title>
<polygon fill="none" stroke="black" points="986.589,-1489 921.589,-1489 921.589,-1485 917.589,-1485 917.589,-1481 921.589,-1481 921.589,-1461 917.589,-1461 917.589,-1457 921.589,-1457 921.589,-1453 986.589,-1453 986.589,-1489"/>
<polyline fill="none" stroke="black" points="921.589,-1485 925.589,-1485 925.589,-1481 921.589,-1481 "/>
<polyline fill="none" stroke="black" points="921.589,-1461 925.589,-1461 925.589,-1457 921.589,-1457 "/>
<text text-anchor="middle" x="954.089" y="-1467.3" font-family="Times,serif" font-size="14.00">Configer</text>
</g>
<!-- Core_AppPluginTrait&#45;&gt;Core_Configer -->
<g id="edge22" class="edge"><title>Core_AppPluginTrait&#45;&gt;Core_Configer</title>
<path fill="none" stroke="black" d="M722.245,-1362.61C752.322,-1374.29 797.942,-1393.98 833.589,-1418 847.674,-1427.49 846.832,-1435.6 861.589,-1444 876.965,-1452.76 895.441,-1458.91 911.754,-1463.1"/>
<polygon fill="black" stroke="black" points="911.042,-1466.53 921.584,-1465.46 912.68,-1459.72 911.042,-1466.53"/>
</g>
<!-- Core_Route -->
<g id="node11" class="node"><title>Core_Route</title>
<polygon fill="lightgrey" stroke="black" points="954.089,-1327 909.012,-1309 954.089,-1291 999.167,-1309 954.089,-1327"/>
<polyline fill="none" stroke="black" points="920.156,-1313.45 920.156,-1304.55 "/>
<polyline fill="none" stroke="black" points="942.945,-1295.45 965.234,-1295.45 "/>
<polyline fill="none" stroke="black" points="988.022,-1304.55 988.022,-1313.45 "/>
<polyline fill="none" stroke="black" points="965.234,-1322.55 942.945,-1322.55 "/>
<text text-anchor="middle" x="954.089" y="-1305.3" font-family="Times,serif" font-size="14.00">Route</text>
</g>
<!-- Core_AppPluginTrait&#45;&gt;Core_Route -->
<g id="edge24" class="edge"><title>Core_AppPluginTrait&#45;&gt;Core_Route</title>
<path fill="none" stroke="black" d="M740.643,-1342.95C790.249,-1335.02 865.135,-1323.06 911.473,-1315.65"/>
<polygon fill="black" stroke="black" points="912.151,-1319.09 921.473,-1314.05 911.046,-1312.17 912.151,-1319.09"/>
</g>
<!-- Core_SuperGlobal -->
<g id="node14" class="node"><title>Core_SuperGlobal</title>
<polygon fill="none" stroke="black" points="996.589,-1381 911.589,-1381 911.589,-1377 907.589,-1377 907.589,-1373 911.589,-1373 911.589,-1353 907.589,-1353 907.589,-1349 911.589,-1349 911.589,-1345 996.589,-1345 996.589,-1381"/>
<polyline fill="none" stroke="black" points="911.589,-1377 915.589,-1377 915.589,-1373 911.589,-1373 "/>
<polyline fill="none" stroke="black" points="911.589,-1353 915.589,-1353 915.589,-1349 911.589,-1349 "/>
<text text-anchor="middle" x="954.089" y="-1359.3" font-family="Times,serif" font-size="14.00">SuperGlobal</text>
</g>
<!-- Core_AppPluginTrait&#45;&gt;Core_SuperGlobal -->
<g id="edge25" class="edge"><title>Core_AppPluginTrait&#45;&gt;Core_SuperGlobal</title>
<path fill="none" stroke="black" d="M764.538,-1354.39C808.15,-1356.38 862.193,-1358.85 901.225,-1360.63"/>
<polygon fill="black" stroke="black" points="901.162,-1364.13 911.311,-1361.09 901.481,-1357.14 901.162,-1364.13"/>
</g>
<!-- Core_App -->
<g id="node4" class="node"><title>Core_App</title>
<polygon fill="lightgrey" stroke="black" points="472.208,-1500 435.674,-1482 472.208,-1464 508.742,-1482 472.208,-1500"/>
<polyline fill="none" stroke="black" points="446.438,-1487.3 446.438,-1476.7 "/>
<polyline fill="none" stroke="black" points="461.443,-1469.3 482.972,-1469.3 "/>
<polyline fill="none" stroke="black" points="497.977,-1476.7 497.977,-1487.3 "/>
<polyline fill="none" stroke="black" points="482.972,-1494.7 461.443,-1494.7 "/>
<text text-anchor="middle" x="472.208" y="-1478.3" font-family="Times,serif" font-size="14.00">App</text>
</g>
<!-- Core_Kernel -->
<g id="node5" class="node"><title>Core_Kernel</title>
<polygon fill="none" stroke="black" points="689.282,-1463 640.35,-1445 689.282,-1427 738.213,-1445 689.282,-1463"/>
<text text-anchor="middle" x="689.282" y="-1441.3" font-family="Times,serif" font-size="14.00">Kernel</text>
</g>
<!-- Core_App&#45;&gt;Core_Kernel -->
<g id="edge9" class="edge"><title>Core_App&#45;&gt;Core_Kernel</title>
<path fill="none" stroke="black" d="M499.58,-1477.46C535.926,-1471.21 601.845,-1459.87 645.349,-1452.39"/>
<polygon fill="black" stroke="black" points="646.091,-1455.81 655.353,-1450.66 644.905,-1448.91 646.091,-1455.81"/>
</g>
<!-- Core_AutoLoader -->
<g id="node6" class="node"><title>Core_AutoLoader</title>
<polygon fill="lightgrey" stroke="black" points="954.089,-1651 878.847,-1633 954.089,-1615 1029.33,-1633 954.089,-1651"/>
<polyline fill="none" stroke="black" points="890.518,-1635.79 890.518,-1630.21 "/>
<polyline fill="none" stroke="black" points="942.419,-1617.79 965.76,-1617.79 "/>
<polyline fill="none" stroke="black" points="1017.66,-1630.21 1017.66,-1635.79 "/>
<polyline fill="none" stroke="black" points="965.76,-1648.21 942.419,-1648.21 "/>
<text text-anchor="middle" x="954.089" y="-1629.3" font-family="Times,serif" font-size="14.00">AutoLoader</text>
</g>
<!-- Core_App&#45;&gt;Core_AutoLoader -->
<g id="edge12" class="edge"><title>Core_App&#45;&gt;Core_AutoLoader</title>
<path fill="none" stroke="black" stroke-dasharray="5,2" d="M486.502,-1493.09C500.207,-1503.82 522.663,-1519.53 544.974,-1527 606.017,-1547.45 780.075,-1516.21 833.589,-1552 856.062,-1567.03 840.734,-1588.8 861.589,-1606 871.369,-1614.07 883.48,-1619.72 895.654,-1623.69"/>
<polygon fill="black" stroke="black" points="894.808,-1627.09 905.387,-1626.52 896.764,-1620.37 894.808,-1627.09"/>
</g>
<!-- Core_ExceptionManager -->
<g id="node7" class="node"><title>Core_ExceptionManager</title>
<polygon fill="none" stroke="black" points="1014.09,-1543 894.089,-1543 894.089,-1539 890.089,-1539 890.089,-1535 894.089,-1535 894.089,-1515 890.089,-1515 890.089,-1511 894.089,-1511 894.089,-1507 1014.09,-1507 1014.09,-1543"/>
<polyline fill="none" stroke="black" points="894.089,-1539 898.089,-1539 898.089,-1535 894.089,-1535 "/>
<polyline fill="none" stroke="black" points="894.089,-1515 898.089,-1515 898.089,-1511 894.089,-1511 "/>
<text text-anchor="middle" x="954.089" y="-1521.3" font-family="Times,serif" font-size="14.00">ExceptionManager</text>
</g>
<!-- Core_App&#45;&gt;Core_ExceptionManager -->
<g id="edge15" class="edge"><title>Core_App&#45;&gt;Core_ExceptionManager</title>
<path fill="none" stroke="black" stroke-dasharray="5,2" d="M503.591,-1484.72C579.336,-1491.51 778.062,-1509.32 884.103,-1518.82"/>
<polygon fill="black" stroke="black" points="883.796,-1522.3 894.069,-1519.71 884.421,-1515.33 883.796,-1522.3"/>
</g>
<!-- Core_App&#45;&gt;Core_View -->
<g id="edge18" class="edge"><title>Core_App&#45;&gt;Core_View</title>
<path fill="none" stroke="black" stroke-dasharray="5,2" d="M475.673,-1465.6C483.384,-1416.73 508.715,-1273.84 544.974,-1247 574.385,-1225.23 821.99,-1243.8 916.568,-1251.78"/>
<polygon fill="black" stroke="black" points="916.538,-1255.29 926.8,-1252.65 917.134,-1248.32 916.538,-1255.29"/>
</g>
<!-- Core_App&#45;&gt;Core_Configer -->
<g id="edge13" class="edge"><title>Core_App&#45;&gt;Core_Configer</title>
<path fill="none" stroke="black" stroke-dasharray="5,2" d="M507.335,-1481.22C593.106,-1479.25 817.504,-1474.11 911.122,-1471.96"/>
<polygon fill="black" stroke="black" points="911.431,-1475.46 921.348,-1471.73 911.27,-1468.46 911.431,-1475.46"/>
</g>
<!-- Core_Logger -->
<g id="node10" class="node"><title>Core_Logger</title>
<polygon fill="none" stroke="black" points="982.089,-1597 926.089,-1597 926.089,-1593 922.089,-1593 922.089,-1589 926.089,-1589 926.089,-1569 922.089,-1569 922.089,-1565 926.089,-1565 926.089,-1561 982.089,-1561 982.089,-1597"/>
<polyline fill="none" stroke="black" points="926.089,-1593 930.089,-1593 930.089,-1589 926.089,-1589 "/>
<polyline fill="none" stroke="black" points="926.089,-1569 930.089,-1569 930.089,-1565 926.089,-1565 "/>
<text text-anchor="middle" x="954.089" y="-1575.3" font-family="Times,serif" font-size="14.00">Logger</text>
</g>
<!-- Core_App&#45;&gt;Core_Logger -->
<g id="edge14" class="edge"><title>Core_App&#45;&gt;Core_Logger</title>
<path fill="none" stroke="black" stroke-dasharray="5,2" d="M492.651,-1490.15C506.89,-1495.78 526.817,-1502.95 544.974,-1507 670.847,-1535.07 710.297,-1499.17 833.589,-1537 847.086,-1541.14 848.528,-1546.64 861.589,-1552 878.974,-1559.13 898.92,-1565.25 915.744,-1569.84"/>
<polygon fill="black" stroke="black" points="915.201,-1573.32 925.765,-1572.51 916.998,-1566.56 915.201,-1573.32"/>
</g>
<!-- Core_App&#45;&gt;Core_Route -->
<g id="edge16" class="edge"><title>Core_App&#45;&gt;Core_Route</title>
<path fill="none" stroke="black" stroke-dasharray="5,2" d="M472.923,-1464.1C473.344,-1421.82 481.034,-1315.86 544.974,-1270 597.092,-1232.62 770.762,-1257.1 833.589,-1270 846.852,-1272.72 848.852,-1277.41 861.589,-1282 879.396,-1288.42 899.539,-1294.49 916.384,-1299.24"/>
<polygon fill="black" stroke="black" points="915.823,-1302.72 926.395,-1302.02 917.696,-1295.97 915.823,-1302.72"/>
</g>
<!-- Core_RuntimeState -->
<g id="node12" class="node"><title>Core_RuntimeState</title>
<polygon fill="none" stroke="black" points="999.589,-1435 908.589,-1435 908.589,-1431 904.589,-1431 904.589,-1427 908.589,-1427 908.589,-1407 904.589,-1407 904.589,-1403 908.589,-1403 908.589,-1399 999.589,-1399 999.589,-1435"/>
<polyline fill="none" stroke="black" points="908.589,-1431 912.589,-1431 912.589,-1427 908.589,-1427 "/>
<polyline fill="none" stroke="black" points="908.589,-1407 912.589,-1407 912.589,-1403 908.589,-1403 "/>
<text text-anchor="middle" x="954.089" y="-1413.3" font-family="Times,serif" font-size="14.00">RuntimeState</text>
</g>
<!-- Core_App&#45;&gt;Core_RuntimeState -->
<g id="edge17" class="edge"><title>Core_App&#45;&gt;Core_RuntimeState</title>
<path fill="none" stroke="black" stroke-dasharray="5,2" d="M482.871,-1468.89C495.247,-1453.33 518.311,-1428.2 544.974,-1418 607.867,-1393.94 802.35,-1405.06 898.346,-1412.38"/>
<polygon fill="black" stroke="black" points="898.195,-1415.88 908.436,-1413.16 898.737,-1408.9 898.195,-1415.88"/>
</g>
<!-- Core_SystemWrapperTrait -->
<g id="node13" class="node"><title>Core_SystemWrapperTrait</title>
<polygon fill="none" stroke="black" points="689.282,-1597 568.962,-1579 689.282,-1561 809.601,-1579 689.282,-1597"/>
<text text-anchor="middle" x="689.282" y="-1575.3" font-family="Times,serif" font-size="14.00">SystemWrapperTrait</text>
</g>
<!-- Core_App&#45;&gt;Core_SystemWrapperTrait -->
<g id="edge11" class="edge"><title>Core_App&#45;&gt;Core_SystemWrapperTrait</title>
<path fill="none" stroke="black" d="M483.472,-1494.63C496.277,-1509.51 519.597,-1533.86 544.974,-1547 565.096,-1557.42 588.521,-1564.46 610.53,-1569.22"/>
<polygon fill="black" stroke="black" points="610.03,-1572.69 620.526,-1571.24 611.421,-1565.82 610.03,-1572.69"/>
</g>
<!-- Core_App&#45;&gt;Core_SuperGlobal -->
<g id="edge19" class="edge"><title>Core_App&#45;&gt;Core_SuperGlobal</title>
<path fill="none" stroke="black" stroke-dasharray="5,2" d="M480.748,-1468C491.927,-1448.83 514.859,-1415.07 544.974,-1400 602.497,-1371.22 769.591,-1384.45 833.589,-1378 855.848,-1375.76 880.374,-1372.77 901.385,-1370.05"/>
<polygon fill="black" stroke="black" points="901.93,-1373.51 911.392,-1368.74 901.022,-1366.57 901.93,-1373.51"/>
</g>
<!-- Core_ExtendableStaticCallTrait -->
<g id="node15" class="node"><title>Core_ExtendableStaticCallTrait</title>
<polygon fill="none" stroke="black" points="689.282,-1671 545.166,-1653 689.282,-1635 833.397,-1653 689.282,-1671"/>
<text text-anchor="middle" x="689.282" y="-1649.3" font-family="Times,serif" font-size="14.00">ExtendableStaticCallTrait</text>
</g>
<!-- Core_App&#45;&gt;Core_ExtendableStaticCallTrait -->
<g id="edge10" class="edge"><title>Core_App&#45;&gt;Core_ExtendableStaticCallTrait</title>
<path fill="none" stroke="black" d="M476.794,-1498.21C484.166,-1527.54 503.898,-1589.32 544.974,-1621 558.389,-1631.35 574.497,-1638.48 590.996,-1643.37"/>
<polygon fill="black" stroke="black" points="590.171,-1646.77 600.737,-1645.99 591.993,-1640.01 590.171,-1646.77"/>
</g>
<!-- Core_ComponentBase -->
<g id="node17" class="node"><title>Core_ComponentBase</title>
<polygon fill="none" stroke="black" points="1197.95,-1273 1094.95,-1273 1090.95,-1269 1090.95,-1237 1193.95,-1237 1197.95,-1241 1197.95,-1273"/>
<polyline fill="none" stroke="black" points="1193.95,-1269 1090.95,-1269 "/>
<polyline fill="none" stroke="black" points="1193.95,-1269 1193.95,-1237 "/>
<polyline fill="none" stroke="black" points="1193.95,-1269 1197.95,-1273 "/>
<text text-anchor="middle" x="1144.45" y="-1251.3" font-family="Times,serif" font-size="14.00">ComponentBase</text>
</g>
<!-- Core_App&#45;&gt;Core_ComponentBase -->
<g id="edge21" class="edge"><title>Core_App&#45;&gt;Core_ComponentBase</title>
<path fill="none" stroke="black" stroke-dasharray="1,5" d="M477.185,-1497.92C484.978,-1525.39 505.086,-1581.12 544.974,-1606 599.524,-1640.02 776.432,-1596.57 833.589,-1626 850.993,-1634.96 843.886,-1651.65 861.589,-1660 932.732,-1693.57 976.382,-1708.15 1038.59,-1660 1099.25,-1613.04 1131.2,-1367.82 1140.51,-1283.51"/>
<polygon fill="black" stroke="black" points="1144.01,-1283.69 1141.61,-1273.38 1137.05,-1282.94 1144.01,-1283.69"/>
</g>
<!-- Core_Functions -->
<g id="node18" class="node"><title>Core_Functions</title>
<ellipse fill="none" stroke="black" cx="689.282" cy="-1297" rx="45.4919" ry="18"/>
<text text-anchor="middle" x="689.282" y="-1293.3" font-family="Times,serif" font-size="14.00">Functions</text>
</g>
<!-- Core_App&#45;&gt;Core_Functions -->
<g id="edge20" class="edge"><title>Core_App&#45;&gt;Core_Functions</title>
<path fill="none" stroke="black" stroke-dasharray="5,2" d="M475.618,-1465.54C481.308,-1432.96 498.756,-1360.27 544.974,-1324 569.918,-1304.43 604.752,-1297.54 633.831,-1295.62"/>
<polygon fill="black" stroke="black" points="634.032,-1299.11 643.851,-1295.13 633.692,-1292.12 634.032,-1299.11"/>
</g>
<!-- Core_Kernel&#45;&gt;Core_AutoLoader -->
<g id="edge1" class="edge"><title>Core_Kernel&#45;&gt;Core_AutoLoader</title>
<path fill="none" stroke="black" d="M713.252,-1454.37C744.454,-1468.17 800.166,-1496.73 833.589,-1537 854.727,-1562.47 837.063,-1583.78 861.589,-1606 870.699,-1614.25 882.217,-1619.99 893.982,-1623.98"/>
<polygon fill="black" stroke="black" points="893.292,-1627.42 903.875,-1626.93 895.294,-1620.72 893.292,-1627.42"/>
</g>
<!-- Core_Kernel&#45;&gt;Core_ExceptionManager -->
<g id="edge4" class="edge"><title>Core_Kernel&#45;&gt;Core_ExceptionManager</title>
<path fill="none" stroke="black" d="M716.369,-1453.19C749.926,-1463.69 810.034,-1482.42 861.589,-1498 868.947,-1500.22 876.644,-1502.53 884.315,-1504.81"/>
<polygon fill="black" stroke="black" points="883.408,-1508.19 893.991,-1507.68 885.401,-1501.48 883.408,-1508.19"/>
</g>
<!-- Core_Kernel&#45;&gt;Core_View -->
<g id="edge7" class="edge"><title>Core_Kernel&#45;&gt;Core_View</title>
<path fill="none" stroke="black" d="M720.849,-1438.59C753.399,-1430.19 804.187,-1412.3 833.589,-1378 862.514,-1344.26 830.212,-1313.48 861.589,-1282 876.092,-1267.45 898.021,-1260.66 916.775,-1257.53"/>
<polygon fill="black" stroke="black" points="917.375,-1260.98 926.8,-1256.14 916.413,-1254.05 917.375,-1260.98"/>
</g>
<!-- Core_Kernel&#45;&gt;Core_Configer -->
<g id="edge2" class="edge"><title>Core_Kernel&#45;&gt;Core_Configer</title>
<path fill="none" stroke="black" d="M728.216,-1448.75C776.787,-1453.56 860.684,-1461.86 911.122,-1466.85"/>
<polygon fill="black" stroke="black" points="911.057,-1470.36 921.353,-1467.86 911.746,-1463.39 911.057,-1470.36"/>
</g>
<!-- Core_Kernel&#45;&gt;Core_Logger -->
<g id="edge3" class="edge"><title>Core_Kernel&#45;&gt;Core_Logger</title>
<path fill="none" stroke="black" d="M714.951,-1453.63C745.079,-1464.97 796.592,-1487.03 833.589,-1517 849.069,-1529.54 845.053,-1540.89 861.589,-1552 877.795,-1562.89 898.474,-1569.47 916.073,-1573.41"/>
<polygon fill="black" stroke="black" points="915.524,-1576.87 926.021,-1575.43 916.92,-1570.01 915.524,-1576.87"/>
</g>
<!-- Core_Kernel&#45;&gt;Core_Route -->
<g id="edge5" class="edge"><title>Core_Kernel&#45;&gt;Core_Route</title>
<path fill="none" stroke="black" d="M717.313,-1437.27C748.119,-1427.42 798.704,-1407.99 833.589,-1378 850.602,-1363.38 843.526,-1349.31 861.589,-1336 875.504,-1325.75 893.277,-1319.37 909.451,-1315.41"/>
<polygon fill="black" stroke="black" points="910.256,-1318.82 919.266,-1313.24 908.747,-1311.98 910.256,-1318.82"/>
</g>
<!-- Core_Kernel&#45;&gt;Core_RuntimeState -->
<g id="edge6" class="edge"><title>Core_Kernel&#45;&gt;Core_RuntimeState</title>
<path fill="none" stroke="black" d="M727.657,-1441.02C772.203,-1436.27 847.025,-1428.3 898.155,-1422.85"/>
<polygon fill="black" stroke="black" points="898.795,-1426.3 908.368,-1421.76 898.054,-1419.34 898.795,-1426.3"/>
</g>
<!-- Core_Kernel&#45;&gt;Core_SuperGlobal -->
<g id="edge8" class="edge"><title>Core_Kernel&#45;&gt;Core_SuperGlobal</title>
<path fill="none" stroke="black" d="M715.763,-1436.61C749.174,-1425.66 809.647,-1406 861.589,-1390 874.581,-1386 888.648,-1381.79 901.765,-1377.91"/>
<polygon fill="black" stroke="black" points="902.973,-1381.21 911.577,-1375.02 900.996,-1374.49 902.973,-1381.21"/>
</g>
<!-- Core_ExceptionManager&#45;&gt;Core_ComponentBase -->
<g id="edge26" class="edge"><title>Core_ExceptionManager&#45;&gt;Core_ComponentBase</title>
<path fill="none" stroke="black" stroke-dasharray="1,5" d="M1014.23,-1512.93C1023.1,-1509.22 1031.6,-1504.36 1038.59,-1498 1103.32,-1439.12 1129.77,-1333.35 1139.07,-1283.05"/>
<polygon fill="black" stroke="black" points="1142.52,-1283.65 1140.81,-1273.2 1135.63,-1282.44 1142.52,-1283.65"/>
</g>
<!-- Core_View&#45;&gt;Core_ComponentBase -->
<g id="edge31" class="edge"><title>Core_View&#45;&gt;Core_ComponentBase</title>
<path fill="none" stroke="black" stroke-dasharray="1,5" d="M981.279,-1255C1006.84,-1255 1046.7,-1255 1080.51,-1255"/>
<polygon fill="black" stroke="black" points="1080.78,-1258.5 1090.78,-1255 1080.78,-1251.5 1080.78,-1258.5"/>
</g>
<!-- Core_Configer&#45;&gt;Core_ComponentBase -->
<g id="edge27" class="edge"><title>Core_Configer&#45;&gt;Core_ComponentBase</title>
<path fill="none" stroke="black" stroke-dasharray="1,5" d="M986.754,-1466.53C1003.63,-1462.82 1023.88,-1456.1 1038.59,-1444 1091.21,-1400.7 1121.94,-1323.72 1135.36,-1282.63"/>
<polygon fill="black" stroke="black" points="1138.73,-1283.59 1138.4,-1273 1132.05,-1281.49 1138.73,-1283.59"/>
</g>
<!-- Core_Logger&#45;&gt;Core_ComponentBase -->
<g id="edge32" class="edge"><title>Core_Logger&#45;&gt;Core_ComponentBase</title>
<path fill="none" stroke="black" stroke-dasharray="1,5" d="M982.355,-1576.43C1000.44,-1573.37 1023.53,-1566.67 1038.59,-1552 1115.67,-1476.94 1136.21,-1341.82 1141.58,-1283.3"/>
<polygon fill="black" stroke="black" points="1145.07,-1283.55 1142.42,-1273.29 1138.1,-1282.97 1145.07,-1283.55"/>
</g>
<!-- Core_Route&#45;&gt;Core_ComponentBase -->
<g id="edge28" class="edge"><title>Core_Route&#45;&gt;Core_ComponentBase</title>
<path fill="none" stroke="black" stroke-dasharray="1,5" d="M980.885,-1301.6C1006.56,-1294.24 1046.95,-1282.66 1081.05,-1272.89"/>
<polygon fill="black" stroke="black" points="1082.29,-1276.17 1090.94,-1270.05 1080.36,-1269.44 1082.29,-1276.17"/>
</g>
<!-- Core_RuntimeState&#45;&gt;Core_ComponentBase -->
<g id="edge30" class="edge"><title>Core_RuntimeState&#45;&gt;Core_ComponentBase</title>
<path fill="none" stroke="black" stroke-dasharray="1,5" d="M999.859,-1407.86C1013.1,-1403.8 1027.11,-1398.05 1038.59,-1390 1079.33,-1361.43 1111.68,-1312.38 1129.16,-1281.93"/>
<polygon fill="black" stroke="black" points="1132.26,-1283.55 1134.1,-1273.12 1126.15,-1280.13 1132.26,-1283.55"/>
</g>
<!-- Core_SuperGlobal&#45;&gt;Core_ComponentBase -->
<g id="edge29" class="edge"><title>Core_SuperGlobal&#45;&gt;Core_ComponentBase</title>
<path fill="none" stroke="black" stroke-dasharray="1,5" d="M997.008,-1352.54C1010.68,-1348.32 1025.65,-1342.82 1038.59,-1336 1067.51,-1320.75 1096.64,-1297.47 1116.83,-1279.77"/>
<polygon fill="black" stroke="black" points="1119.24,-1282.31 1124.38,-1273.05 1114.58,-1277.08 1119.24,-1282.31"/>
</g>
<!-- Core_ComponentInterface -->
<g id="node16" class="node"><title>Core_ComponentInterface</title>
<polygon fill="none" stroke="black" points="1406.65,-1273 1284.65,-1273 1284.65,-1237 1412.65,-1237 1412.65,-1267 1406.65,-1273"/>
<polyline fill="none" stroke="black" points="1406.65,-1273 1406.65,-1267 "/>
<polyline fill="none" stroke="black" points="1412.65,-1267 1406.65,-1267 "/>
<text text-anchor="middle" x="1348.65" y="-1251.3" font-family="Times,serif" font-size="14.00">ComponentInterface</text>
</g>
<!-- Core_ComponentBase&#45;&gt;Core_ComponentInterface -->
<g id="edge33" class="edge"><title>Core_ComponentBase&#45;&gt;Core_ComponentInterface</title>
<path fill="none" stroke="black" d="M1198.04,-1255C1221.29,-1255 1249.01,-1255 1274.25,-1255"/>
<polygon fill="black" stroke="black" points="1274.51,-1258.5 1284.51,-1255 1274.51,-1251.5 1274.51,-1258.5"/>
</g>
<!-- AppHelper -->
<g id="node19" class="node"><title>AppHelper</title>
<polygon fill="lightgrey" stroke="black" points="116.188,-1578 45.6372,-1560 116.188,-1542 186.739,-1560 116.188,-1578"/>
<polyline fill="none" stroke="black" points="57.2647,-1562.97 57.2647,-1557.03 "/>
<polyline fill="none" stroke="black" points="104.561,-1544.97 127.816,-1544.97 "/>
<polyline fill="none" stroke="black" points="175.112,-1557.03 175.112,-1562.97 "/>
<polyline fill="none" stroke="black" points="127.816,-1575.03 104.561,-1575.03 "/>
<text text-anchor="middle" x="116.188" y="-1556.3" font-family="Times,serif" font-size="14.00">AppHelper</text>
</g>
<!-- AppHelper&#45;&gt;Core_App -->
<g id="edge34" class="edge"><title>AppHelper&#45;&gt;Core_App</title>
<path fill="none" stroke="black" d="M163.254,-1553.99C220.984,-1545.87 322.645,-1529.65 407.441,-1506 419.131,-1502.74 431.692,-1498.24 442.55,-1494.01"/>
<polygon fill="black" stroke="black" points="443.977,-1497.21 451.967,-1490.26 441.382,-1490.71 443.977,-1497.21"/>
</g>
<!-- HelperTrait -->
<g id="node24" class="node"><title>HelperTrait</title>
<polygon fill="none" stroke="black" points="325.909,-1622 252.344,-1604 325.909,-1586 399.474,-1604 325.909,-1622"/>
<text text-anchor="middle" x="325.909" y="-1600.3" font-family="Times,serif" font-size="14.00">HelperTrait</text>
</g>
<!-- AppHelper&#45;&gt;HelperTrait -->
<g id="edge41" class="edge"><title>AppHelper&#45;&gt;HelperTrait</title>
<path fill="none" stroke="black" d="M155.287,-1568.07C189.225,-1575.26 239.076,-1585.82 275.959,-1593.63"/>
<polygon fill="black" stroke="black" points="275.486,-1597.11 285.994,-1595.76 276.937,-1590.26 275.486,-1597.11"/>
</g>
<!-- ControllerHelper -->
<g id="node20" class="node"><title>ControllerHelper</title>
<polygon fill="lightgrey" stroke="black" points="116.188,-1524 15.8115,-1506 116.188,-1488 216.565,-1506 116.188,-1524"/>
<polyline fill="none" stroke="black" points="27.6231,-1508.12 27.6231,-1503.88 "/>
<polyline fill="none" stroke="black" points="104.377,-1490.12 128,-1490.12 "/>
<polyline fill="none" stroke="black" points="204.753,-1503.88 204.753,-1508.12 "/>
<polyline fill="none" stroke="black" points="128,-1521.88 104.377,-1521.88 "/>
<text text-anchor="middle" x="116.188" y="-1502.3" font-family="Times,serif" font-size="14.00">ControllerHelper</text>
</g>
<!-- ControllerHelper&#45;&gt;Core_App -->
<g id="edge35" class="edge"><title>ControllerHelper&#45;&gt;Core_App</title>
<path fill="none" stroke="black" d="M189.684,-1501.09C262.009,-1496.18 370.604,-1488.82 429.546,-1484.82"/>
<polygon fill="black" stroke="black" points="429.867,-1488.31 439.607,-1484.14 429.393,-1481.33 429.867,-1488.31"/>
</g>
<!-- ControllerHelper&#45;&gt;HelperTrait -->
<g id="edge42" class="edge"><title>ControllerHelper&#45;&gt;HelperTrait</title>
<path fill="none" stroke="black" d="M163.911,-1515.52C180.842,-1519.79 199.855,-1525.57 216.376,-1533 246.879,-1546.71 278.523,-1568.42 299.715,-1584.22"/>
<polygon fill="black" stroke="black" points="297.764,-1587.13 307.849,-1590.38 301.99,-1581.55 297.764,-1587.13"/>
</g>
<!-- ModelHelper -->
<g id="node21" class="node"><title>ModelHelper</title>
<polygon fill="lightgrey" stroke="black" points="116.188,-1470 34.5777,-1452 116.188,-1434 197.799,-1452 116.188,-1470"/>
<polyline fill="none" stroke="black" points="46.296,-1454.58 46.296,-1449.42 "/>
<polyline fill="none" stroke="black" points="104.47,-1436.58 127.906,-1436.58 "/>
<polyline fill="none" stroke="black" points="186.08,-1449.42 186.08,-1454.58 "/>
<polyline fill="none" stroke="black" points="127.906,-1467.42 104.47,-1467.42 "/>
<text text-anchor="middle" x="116.188" y="-1448.3" font-family="Times,serif" font-size="14.00">ModelHelper</text>
</g>
<!-- ModelHelper&#45;&gt;Core_App -->
<g id="edge36" class="edge"><title>ModelHelper&#45;&gt;Core_App</title>
<path fill="none" stroke="black" d="M175.647,-1456.95C247.494,-1463.04 367.565,-1473.22 430.264,-1478.53"/>
<polygon fill="black" stroke="black" points="430.29,-1482.05 440.55,-1479.4 430.881,-1475.07 430.29,-1482.05"/>
</g>
<!-- ModelHelper&#45;&gt;HelperTrait -->
<g id="edge43" class="edge"><title>ModelHelper&#45;&gt;HelperTrait</title>
<path fill="none" stroke="black" d="M165.454,-1459.16C182.453,-1463.19 201.112,-1469.41 216.376,-1479 257.664,-1504.93 291.891,-1551.38 310.284,-1579.78"/>
<polygon fill="black" stroke="black" points="307.382,-1581.73 315.689,-1588.31 313.296,-1577.99 307.382,-1581.73"/>
</g>
<!-- ServiceHelper -->
<g id="node22" class="node"><title>ServiceHelper</title>
<polygon fill="lightgrey" stroke="black" points="116.188,-1416 29.8865,-1398 116.188,-1380 202.49,-1398 116.188,-1416"/>
<polyline fill="none" stroke="black" points="41.6337,-1400.45 41.6337,-1395.55 "/>
<polyline fill="none" stroke="black" points="104.441,-1382.45 127.935,-1382.45 "/>
<polyline fill="none" stroke="black" points="190.743,-1395.55 190.743,-1400.45 "/>
<polyline fill="none" stroke="black" points="127.935,-1413.55 104.441,-1413.55 "/>
<text text-anchor="middle" x="116.188" y="-1394.3" font-family="Times,serif" font-size="14.00">ServiceHelper</text>
</g>
<!-- ServiceHelper&#45;&gt;Core_App -->
<g id="edge37" class="edge"><title>ServiceHelper&#45;&gt;Core_App</title>
<path fill="none" stroke="black" d="M162.791,-1406.37C220.259,-1417.26 321.868,-1437.69 407.441,-1461 418.435,-1463.99 430.331,-1467.76 440.837,-1471.28"/>
<polygon fill="black" stroke="black" points="439.815,-1474.63 450.409,-1474.54 442.071,-1468 439.815,-1474.63"/>
</g>
<!-- ServiceHelper&#45;&gt;HelperTrait -->
<g id="edge44" class="edge"><title>ServiceHelper&#45;&gt;HelperTrait</title>
<path fill="none" stroke="black" d="M170.495,-1404.75C186.406,-1408.72 203.121,-1415.01 216.376,-1425 269.131,-1464.75 301.685,-1538.29 316.13,-1577.6"/>
<polygon fill="black" stroke="black" points="312.92,-1579.02 319.57,-1587.27 319.516,-1576.67 312.92,-1579.02"/>
</g>
<!-- ViewHelper -->
<g id="node23" class="node"><title>ViewHelper</title>
<polygon fill="lightgrey" stroke="black" points="116.188,-1632 40.1075,-1614 116.188,-1596 192.269,-1614 116.188,-1632"/>
<polyline fill="none" stroke="black" points="51.7851,-1616.76 51.7851,-1611.24 "/>
<polyline fill="none" stroke="black" points="104.511,-1598.76 127.866,-1598.76 "/>
<polyline fill="none" stroke="black" points="180.591,-1611.24 180.591,-1616.76 "/>
<polyline fill="none" stroke="black" points="127.866,-1629.24 104.511,-1629.24 "/>
<text text-anchor="middle" x="116.188" y="-1610.3" font-family="Times,serif" font-size="14.00">ViewHelper</text>
</g>
<!-- ViewHelper&#45;&gt;Core_App -->
<g id="edge38" class="edge"><title>ViewHelper&#45;&gt;Core_App</title>
<path fill="none" stroke="black" d="M152.548,-1604.42C171.486,-1599.28 195.21,-1592.82 216.376,-1587 232.388,-1582.6 236.336,-1581.3 252.376,-1577 321.127,-1558.59 344.379,-1570 407.441,-1537 424.655,-1527.99 441.181,-1513.52 453.094,-1501.68"/>
<polygon fill="black" stroke="black" points="455.749,-1503.97 460.217,-1494.36 450.733,-1499.08 455.749,-1503.97"/>
</g>
<!-- ViewHelper&#45;&gt;HelperTrait -->
<g id="edge45" class="edge"><title>ViewHelper&#45;&gt;HelperTrait</title>
<path fill="none" stroke="black" d="M179.793,-1610.99C203.206,-1609.86 229.96,-1608.57 254.065,-1607.41"/>
<polygon fill="black" stroke="black" points="254.397,-1610.9 264.217,-1606.92 254.06,-1603.91 254.397,-1610.9"/>
</g>
<!-- HelperTrait&#45;&gt;Core_App -->
<g id="edge39" class="edge"><title>HelperTrait&#45;&gt;Core_App</title>
<path fill="none" stroke="black" d="M362.515,-1594.77C377.43,-1589.71 394.314,-1582.32 407.441,-1572 430.339,-1554 448.539,-1525.61 459.539,-1505.54"/>
<polygon fill="black" stroke="black" points="462.773,-1506.91 464.35,-1496.44 456.584,-1503.64 462.773,-1506.91"/>
</g>
<!-- HelperTrait&#45;&gt;Core_ExtendableStaticCallTrait -->
<g id="edge40" class="edge"><title>HelperTrait&#45;&gt;Core_ExtendableStaticCallTrait</title>
<path fill="none" stroke="black" d="M373.782,-1610.36C433.516,-1618.46 537.642,-1632.57 609.626,-1642.33"/>
<polygon fill="black" stroke="black" points="609.183,-1645.81 619.562,-1643.68 610.123,-1638.87 609.183,-1645.81"/>
</g>
<!-- Db_Db -->
<g id="node25" class="node"><title>Db_Db</title>
<polygon fill="lightgrey" stroke="black" points="1144.45,-542 1114.28,-524 1144.45,-506 1174.61,-524 1144.45,-542"/>
<polyline fill="none" stroke="black" points="1124.34,-530 1124.34,-518 "/>
<polyline fill="none" stroke="black" points="1134.39,-512 1154.5,-512 "/>
<polyline fill="none" stroke="black" points="1164.56,-518 1164.56,-530 "/>
<polyline fill="none" stroke="black" points="1154.5,-536 1134.39,-536 "/>
<text text-anchor="middle" x="1144.45" y="-520.3" font-family="Times,serif" font-size="14.00">Db</text>
</g>
<!-- Db_DbAdvanceTrait -->
<g id="node26" class="node"><title>Db_DbAdvanceTrait</title>
<polygon fill="none" stroke="black" points="1348.65,-542 1250.45,-524 1348.65,-506 1446.85,-524 1348.65,-542"/>
<polyline fill="none" stroke="black" points="1262.25,-526.164 1262.25,-521.836 "/>
<polyline fill="none" stroke="black" points="1336.85,-508.164 1360.45,-508.164 "/>
<polyline fill="none" stroke="black" points="1435.05,-521.836 1435.05,-526.164 "/>
<polyline fill="none" stroke="black" points="1360.45,-539.836 1336.85,-539.836 "/>
<text text-anchor="middle" x="1348.65" y="-520.3" font-family="Times,serif" font-size="14.00">DbAdvanceTrait</text>
</g>
<!-- Db_Db&#45;&gt;Db_DbAdvanceTrait -->
<g id="edge46" class="edge"><title>Db_Db&#45;&gt;Db_DbAdvanceTrait</title>
<path fill="none" stroke="black" d="M1174.85,-524C1192.39,-524 1215.86,-524 1239.83,-524"/>
<polygon fill="black" stroke="black" points="1240.12,-527.5 1250.12,-524 1240.12,-520.5 1240.12,-527.5"/>
</g>
<!-- Db_DbInterface -->
<g id="node27" class="node"><title>Db_DbInterface</title>
<polygon fill="none" stroke="black" points="1383.15,-596 1308.15,-596 1308.15,-560 1389.15,-560 1389.15,-590 1383.15,-596"/>
<polyline fill="none" stroke="black" points="1383.15,-596 1383.15,-590 "/>
<polyline fill="none" stroke="black" points="1389.15,-590 1383.15,-590 "/>
<text text-anchor="middle" x="1348.65" y="-574.3" font-family="Times,serif" font-size="14.00">DbInterface</text>
</g>
<!-- Db_Db&#45;&gt;Db_DbInterface -->
<g id="edge47" class="edge"><title>Db_Db&#45;&gt;Db_DbInterface</title>
<path fill="none" stroke="black" d="M1165.95,-529.475C1196.71,-537.691 1255.74,-553.455 1298.18,-564.788"/>
<polygon fill="black" stroke="black" points="1297.48,-568.223 1308.04,-567.422 1299.28,-561.46 1297.48,-568.223"/>
</g>
<!-- HttpServer -->
<g id="node28" class="node"><title>HttpServer</title>
<polygon fill="lightgrey" stroke="black" points="1144.45,-52 1074.73,-34 1144.45,-16 1214.16,-34 1144.45,-52"/>
<polyline fill="none" stroke="black" points="1086.35,-37.0001 1086.35,-30.9999 "/>
<polyline fill="none" stroke="black" points="1132.83,-19.0001 1156.06,-19.0001 "/>
<polyline fill="none" stroke="black" points="1202.54,-30.9999 1202.54,-37.0001 "/>
<polyline fill="none" stroke="black" points="1156.06,-48.9999 1132.83,-48.9999 "/>
<text text-anchor="middle" x="1144.45" y="-30.3" font-family="Times,serif" font-size="14.00">HttpServer</text>
</g>
<!-- Cache -->
<g id="node29" class="node"><title>Cache</title>
<polygon fill="none" stroke="black" points="981.089,-297 927.089,-297 927.089,-293 923.089,-293 923.089,-289 927.089,-289 927.089,-269 923.089,-269 923.089,-265 927.089,-265 927.089,-261 981.089,-261 981.089,-297"/>
<polyline fill="none" stroke="black" points="927.089,-293 931.089,-293 931.089,-289 927.089,-289 "/>
<polyline fill="none" stroke="black" points="927.089,-269 931.089,-269 931.089,-265 927.089,-265 "/>
<text text-anchor="middle" x="954.089" y="-275.3" font-family="Times,serif" font-size="14.00">Cache</text>
</g>
<!-- Cache&#45;&gt;Core_ComponentBase -->
<g id="edge48" class="edge"><title>Cache&#45;&gt;Core_ComponentBase</title>
<path fill="none" stroke="black" stroke-dasharray="1,5" d="M981.209,-280.123C1000.22,-282.434 1024.93,-288.831 1038.59,-306 1061.15,-334.364 1062.82,-594.952 1066.59,-631 1090.71,-861.571 1127.71,-1139.07 1139.61,-1226.92"/>
<polygon fill="black" stroke="black" points="1136.16,-1227.47 1140.97,-1236.91 1143.09,-1226.53 1136.16,-1227.47"/>
</g>
<!-- Console -->
<g id="node30" class="node"><title>Console</title>
<polygon fill="none" stroke="black" points="984.589,-135 923.589,-135 923.589,-131 919.589,-131 919.589,-127 923.589,-127 923.589,-107 919.589,-107 919.589,-103 923.589,-103 923.589,-99 984.589,-99 984.589,-135"/>
<polyline fill="none" stroke="black" points="923.589,-131 927.589,-131 927.589,-127 923.589,-127 "/>
<polyline fill="none" stroke="black" points="923.589,-107 927.589,-107 927.589,-103 923.589,-103 "/>
<text text-anchor="middle" x="954.089" y="-113.3" font-family="Times,serif" font-size="14.00">Console</text>
</g>
<!-- Console&#45;&gt;Core_ComponentBase -->
<g id="edge49" class="edge"><title>Console&#45;&gt;Core_ComponentBase</title>
<path fill="none" stroke="black" stroke-dasharray="1,5" d="M984.991,-118.485C1003.48,-121.105 1026.02,-127.723 1038.59,-144 1071.72,-186.893 1061.72,-577.019 1066.59,-631 1087.42,-861.891 1126.59,-1139.18 1139.33,-1226.95"/>
<polygon fill="black" stroke="black" points="1135.88,-1227.53 1140.78,-1236.92 1142.8,-1226.52 1135.88,-1227.53"/>
</g>
<!-- Console&#45;&gt;HttpServer -->
<g id="edge57" class="edge"><title>Console&#45;&gt;HttpServer</title>
<path fill="none" stroke="black" d="M984.935,-103.848C1018.5,-89.0575 1072.95,-65.0638 1108.48,-49.4071"/>
<polygon fill="black" stroke="black" points="1110.23,-52.4621 1117.97,-45.2268 1107.41,-46.0564 1110.23,-52.4621"/>
</g>
<!-- Installer -->
<g id="node33" class="node"><title>Installer</title>
<polygon fill="none" stroke="black" points="1174.95,-135 1113.95,-135 1113.95,-131 1109.95,-131 1109.95,-127 1113.95,-127 1113.95,-107 1109.95,-107 1109.95,-103 1113.95,-103 1113.95,-99 1174.95,-99 1174.95,-135"/>
<polyline fill="none" stroke="black" points="1113.95,-131 1117.95,-131 1117.95,-127 1113.95,-127 "/>
<polyline fill="none" stroke="black" points="1113.95,-107 1117.95,-107 1117.95,-103 1113.95,-103 "/>
<text text-anchor="middle" x="1144.45" y="-113.3" font-family="Times,serif" font-size="14.00">Installer</text>
</g>
<!-- Console&#45;&gt;Installer -->
<g id="edge56" class="edge"><title>Console&#45;&gt;Installer</title>
<path fill="none" stroke="black" d="M984.935,-117C1017.04,-117 1068.24,-117 1103.72,-117"/>
<polygon fill="black" stroke="black" points="1103.74,-120.5 1113.74,-117 1103.74,-113.5 1103.74,-120.5"/>
</g>
<!-- DbManager -->
<g id="node31" class="node"><title>DbManager</title>
<polygon fill="none" stroke="black" points="995.089,-243 913.089,-243 913.089,-239 909.089,-239 909.089,-235 913.089,-235 913.089,-215 909.089,-215 909.089,-211 913.089,-211 913.089,-207 995.089,-207 995.089,-243"/>
<polyline fill="none" stroke="black" points="913.089,-239 917.089,-239 917.089,-235 913.089,-235 "/>
<polyline fill="none" stroke="black" points="913.089,-215 917.089,-215 917.089,-211 913.089,-211 "/>
<text text-anchor="middle" x="954.089" y="-221.3" font-family="Times,serif" font-size="14.00">DbManager</text>
</g>
<!-- DbManager&#45;&gt;Core_ComponentBase -->
<g id="edge50" class="edge"><title>DbManager&#45;&gt;Core_ComponentBase</title>
<path fill="none" stroke="black" stroke-dasharray="1,5" d="M995.486,-228.47C1011.36,-231.983 1028.24,-238.821 1038.59,-252 1064.68,-285.205 1062.45,-588.977 1066.59,-631 1089.31,-861.714 1127.23,-1139.12 1139.49,-1226.93"/>
<polygon fill="black" stroke="black" points="1136.04,-1227.5 1140.89,-1236.91 1142.97,-1226.52 1136.04,-1227.5"/>
</g>
<!-- DbManager&#45;&gt;Db_Db -->
<g id="edge58" class="edge"><title>DbManager&#45;&gt;Db_Db</title>
<path fill="none" stroke="black" d="M995.221,-228.682C1011.05,-232.231 1027.97,-239.039 1038.59,-252 1107.23,-335.737 1000.47,-408.261 1066.59,-494 1076.85,-507.305 1093.84,-514.716 1109.25,-518.841"/>
<polygon fill="black" stroke="black" points="1108.52,-522.265 1119.05,-521.105 1110.1,-515.445 1108.52,-522.265"/>
</g>
<!-- EventManager -->
<g id="node32" class="node"><title>EventManager</title>
<polygon fill="none" stroke="black" points="1002.59,-459 905.589,-459 905.589,-455 901.589,-455 901.589,-451 905.589,-451 905.589,-431 901.589,-431 901.589,-427 905.589,-427 905.589,-423 1002.59,-423 1002.59,-459"/>
<polyline fill="none" stroke="black" points="905.589,-455 909.589,-455 909.589,-451 905.589,-451 "/>
<polyline fill="none" stroke="black" points="905.589,-431 909.589,-431 909.589,-427 905.589,-427 "/>
<text text-anchor="middle" x="954.089" y="-437.3" font-family="Times,serif" font-size="14.00">EventManager</text>
</g>
<!-- EventManager&#45;&gt;Core_ComponentBase -->
<g id="edge51" class="edge"><title>EventManager&#45;&gt;Core_ComponentBase</title>
<path fill="none" stroke="black" stroke-dasharray="1,5" d="M998.671,-459.221C1013.65,-467.635 1029.03,-479.121 1038.59,-494 1058.9,-525.615 1124.74,-1091.57 1140.18,-1226.36"/>
<polygon fill="black" stroke="black" points="1136.75,-1227.15 1141.36,-1236.68 1143.7,-1226.35 1136.75,-1227.15"/>
</g>
<!-- Installer&#45;&gt;Core_ComponentBase -->
<g id="edge52" class="edge"><title>Installer&#45;&gt;Core_ComponentBase</title>
<path fill="none" stroke="black" stroke-dasharray="1,5" d="M1113.87,-119.212C1091.99,-122.667 1064.41,-131.352 1052.59,-153 1027.62,-198.739 1048.84,-570.024 1052.59,-622 1069.59,-857.508 1121.72,-1138.49 1138.89,-1226.93"/>
<polygon fill="black" stroke="black" points="1135.5,-1227.83 1140.86,-1236.98 1142.37,-1226.49 1135.5,-1227.83"/>
</g>
<!-- Pager -->
<g id="node34" class="node"><title>Pager</title>
<polygon fill="none" stroke="black" points="981.089,-189 927.089,-189 927.089,-185 923.089,-185 923.089,-181 927.089,-181 927.089,-161 923.089,-161 923.089,-157 927.089,-157 927.089,-153 981.089,-153 981.089,-189"/>
<polyline fill="none" stroke="black" points="927.089,-185 931.089,-185 931.089,-181 927.089,-181 "/>
<polyline fill="none" stroke="black" points="927.089,-161 931.089,-161 931.089,-157 927.089,-157 "/>
<text text-anchor="middle" x="954.089" y="-167.3" font-family="Times,serif" font-size="14.00">Pager</text>
</g>
<!-- Pager&#45;&gt;Core_ComponentBase -->
<g id="edge53" class="edge"><title>Pager&#45;&gt;Core_ComponentBase</title>
<path fill="none" stroke="black" stroke-dasharray="1,5" d="M981.315,-164.642C1000.38,-165.307 1025.12,-171.686 1038.59,-189 1068.2,-227.048 1062.09,-573.999 1066.59,-622 1088.52,-855.684 1127.83,-1137.05 1139.86,-1226.46"/>
<polygon fill="black" stroke="black" points="1136.42,-1227.18 1141.21,-1236.63 1143.36,-1226.25 1136.42,-1227.18"/>
</g>
<!-- Pager&#45;&gt;Core_ComponentBase -->
<g id="edge63" class="edge"><title>Pager&#45;&gt;Core_ComponentBase</title>
<path fill="none" stroke="black" stroke-dasharray="1,5" d="M981.315,-179.438C1000.38,-183.307 1025.12,-189.686 1038.59,-207 1068.2,-245.048 1062.09,-591.999 1066.59,-640 1087.93,-867.425 1125.74,-1140.01 1138.83,-1227.03"/>
<polygon fill="black" stroke="black" points="1135.37,-1227.58 1140.34,-1236.94 1142.29,-1226.52 1135.37,-1227.58"/>
</g>
<!-- PagerInterface -->
<g id="node35" class="node"><title>PagerInterface</title>
<polygon fill="none" stroke="black" points="1185.95,-189 1096.95,-189 1096.95,-153 1191.95,-153 1191.95,-183 1185.95,-189"/>
<polyline fill="none" stroke="black" points="1185.95,-189 1185.95,-183 "/>
<polyline fill="none" stroke="black" points="1191.95,-183 1185.95,-183 "/>
<text text-anchor="middle" x="1144.45" y="-167.3" font-family="Times,serif" font-size="14.00">PagerInterface</text>
</g>
<!-- Pager&#45;&gt;PagerInterface -->
<g id="edge59" class="edge"><title>Pager&#45;&gt;PagerInterface</title>
<path fill="none" stroke="black" d="M981.279,-171C1008.42,-171 1051.69,-171 1086.71,-171"/>
<polygon fill="black" stroke="black" points="1086.82,-174.5 1096.82,-171 1086.82,-167.5 1086.82,-174.5"/>
</g>
<!-- RouteHookPathInfoCompat -->
<g id="node36" class="node"><title>RouteHookPathInfoCompat</title>
<polygon fill="none" stroke="black" points="1038.59,-405 869.589,-405 869.589,-401 865.589,-401 865.589,-397 869.589,-397 869.589,-377 865.589,-377 865.589,-373 869.589,-373 869.589,-369 1038.59,-369 1038.59,-405"/>
<polyline fill="none" stroke="black" points="869.589,-401 873.589,-401 873.589,-397 869.589,-397 "/>
<polyline fill="none" stroke="black" points="869.589,-377 873.589,-377 873.589,-373 869.589,-373 "/>
<text text-anchor="middle" x="954.089" y="-383.3" font-family="Times,serif" font-size="14.00">RouteHookPathInfoCompat</text>
</g>
<!-- RouteHookPathInfoCompat&#45;&gt;Core_ComponentBase -->
<g id="edge54" class="edge"><title>RouteHookPathInfoCompat&#45;&gt;Core_ComponentBase</title>
<path fill="none" stroke="black" stroke-dasharray="1,5" d="M1028.98,-405.008C1032.52,-407.616 1035.77,-410.595 1038.59,-414 1040.26,-416.018 1121.98,-1080.36 1139.97,-1226.71"/>
<polygon fill="black" stroke="black" points="1136.5,-1227.2 1141.2,-1236.7 1143.45,-1226.35 1136.5,-1227.2"/>
</g>
<!-- RouteHookRouteMap -->
<g id="node37" class="node"><title>RouteHookRouteMap</title>
<polygon fill="none" stroke="black" points="1022.59,-351 885.589,-351 885.589,-347 881.589,-347 881.589,-343 885.589,-343 885.589,-323 881.589,-323 881.589,-319 885.589,-319 885.589,-315 1022.59,-315 1022.59,-351"/>
<polyline fill="none" stroke="black" points="885.589,-347 889.589,-347 889.589,-343 885.589,-343 "/>
<polyline fill="none" stroke="black" points="885.589,-323 889.589,-323 889.589,-319 885.589,-319 "/>
<text text-anchor="middle" x="954.089" y="-329.3" font-family="Times,serif" font-size="14.00">RouteHookRouteMap</text>
</g>
<!-- RouteHookRouteMap&#45;&gt;Core_ComponentBase -->
<g id="edge55" class="edge"><title>RouteHookRouteMap&#45;&gt;Core_ComponentBase</title>
<path fill="none" stroke="black" stroke-dasharray="1,5" d="M1022.96,-346.93C1028.9,-350.381 1034.28,-354.671 1038.59,-360 1076.68,-407.057 1059.78,-570.842 1066.59,-631 1092.67,-861.357 1128.38,-1139 1139.79,-1226.9"/>
<polygon fill="black" stroke="black" points="1136.32,-1227.43 1141.08,-1236.89 1143.27,-1226.53 1136.32,-1227.43"/>
</g>
<!-- CallableView -->
<g id="node38" class="node"><title>CallableView</title>
<polygon fill="none" stroke="black" points="734.782,-1136 643.782,-1136 643.782,-1132 639.782,-1132 639.782,-1128 643.782,-1128 643.782,-1108 639.782,-1108 639.782,-1104 643.782,-1104 643.782,-1100 734.782,-1100 734.782,-1136"/>
<polyline fill="none" stroke="black" points="643.782,-1132 647.782,-1132 647.782,-1128 643.782,-1128 "/>
<polyline fill="none" stroke="black" points="643.782,-1108 647.782,-1108 647.782,-1104 643.782,-1104 "/>
<text text-anchor="middle" x="689.282" y="-1114.3" font-family="Times,serif" font-size="14.00">CallableView</text>
</g>
<!-- CallableView&#45;&gt;Core_View -->
<g id="edge71" class="edge"><title>CallableView&#45;&gt;Core_View</title>
<path fill="none" stroke="black" d="M735.002,-1115.37C766.086,-1115.94 806.618,-1121.81 833.589,-1145 862.153,-1169.56 834.689,-1198.63 861.589,-1225 876.396,-1239.52 898.334,-1247.01 917.017,-1250.87"/>
<polygon fill="black" stroke="black" points="916.533,-1254.34 926.995,-1252.67 917.774,-1247.45 916.533,-1254.34"/>
</g>
<!-- EmptyView -->
<g id="node39" class="node"><title>EmptyView</title>
<polygon fill="none" stroke="black" points="730.782,-1082 647.782,-1082 647.782,-1078 643.782,-1078 643.782,-1074 647.782,-1074 647.782,-1054 643.782,-1054 643.782,-1050 647.782,-1050 647.782,-1046 730.782,-1046 730.782,-1082"/>
<polyline fill="none" stroke="black" points="647.782,-1078 651.782,-1078 651.782,-1074 647.782,-1074 "/>
<polyline fill="none" stroke="black" points="647.782,-1054 651.782,-1054 651.782,-1050 647.782,-1050 "/>
<text text-anchor="middle" x="689.282" y="-1060.3" font-family="Times,serif" font-size="14.00">EmptyView</text>
</g>
<!-- EmptyView&#45;&gt;Core_View -->
<g id="edge72" class="edge"><title>EmptyView&#45;&gt;Core_View</title>
<path fill="none" stroke="black" d="M730.992,-1060.36C763.117,-1059.84 806.834,-1064.77 833.589,-1091 877.034,-1133.59 821.017,-1179.66 861.589,-1225 875.575,-1240.63 897.827,-1248.14 916.885,-1251.74"/>
<polygon fill="black" stroke="black" points="916.356,-1255.2 926.784,-1253.33 917.464,-1248.29 916.356,-1255.2"/>
</g>
<!-- FacadesAutoLoader -->
<g id="node40" class="node"><title>FacadesAutoLoader</title>
<polygon fill="none" stroke="black" points="1016.59,-1127 891.589,-1127 891.589,-1123 887.589,-1123 887.589,-1119 891.589,-1119 891.589,-1099 887.589,-1099 887.589,-1095 891.589,-1095 891.589,-1091 1016.59,-1091 1016.59,-1127"/>
<polyline fill="none" stroke="black" points="891.589,-1123 895.589,-1123 895.589,-1119 891.589,-1119 "/>
<polyline fill="none" stroke="black" points="891.589,-1099 895.589,-1099 895.589,-1095 891.589,-1095 "/>
<text text-anchor="middle" x="954.089" y="-1105.3" font-family="Times,serif" font-size="14.00">FacadesAutoLoader</text>
</g>
<!-- FacadesAutoLoader&#45;&gt;Core_ComponentBase -->
<g id="edge60" class="edge"><title>FacadesAutoLoader&#45;&gt;Core_ComponentBase</title>
<path fill="none" stroke="black" stroke-dasharray="1,5" d="M998.683,-1127.07C1012.02,-1133.46 1026.38,-1141.26 1038.59,-1150 1070.82,-1173.07 1102.18,-1206.34 1122.08,-1229.21"/>
<polygon fill="black" stroke="black" points="1119.46,-1231.53 1128.62,-1236.83 1124.77,-1226.97 1119.46,-1231.53"/>
</g>
<!-- FacadesBase -->
<g id="node41" class="node"><title>FacadesBase</title>
<polygon fill="none" stroke="black" points="732.282,-974 646.282,-974 646.282,-970 642.282,-970 642.282,-966 646.282,-966 646.282,-946 642.282,-946 642.282,-942 646.282,-942 646.282,-938 732.282,-938 732.282,-974"/>
<polyline fill="none" stroke="black" points="646.282,-970 650.282,-970 650.282,-966 646.282,-966 "/>
<polyline fill="none" stroke="black" points="646.282,-946 650.282,-946 650.282,-942 646.282,-942 "/>
<text text-anchor="middle" x="689.282" y="-952.3" font-family="Times,serif" font-size="14.00">FacadesBase</text>
</g>
<!-- FacadesBase&#45;&gt;Core_ComponentBase -->
<g id="edge74" class="edge"><title>FacadesBase&#45;&gt;Core_ComponentBase</title>
<path fill="none" stroke="black" stroke-dasharray="1,5" d="M732.284,-950.575C803.243,-943.796 947.963,-940.553 1038.59,-1011 1108.26,-1065.16 1132.36,-1174.71 1140.09,-1226.57"/>
<polygon fill="black" stroke="black" points="1136.66,-1227.29 1141.5,-1236.71 1143.59,-1226.33 1136.66,-1227.29"/>
</g>
<!-- FacadesBase&#45;&gt;FacadesAutoLoader -->
<g id="edge73" class="edge"><title>FacadesBase&#45;&gt;FacadesAutoLoader</title>
<path fill="none" stroke="black" d="M732.422,-953.27C763.846,-953.529 805.941,-959.043 833.589,-983 862.694,-1008.22 836.028,-1036.2 861.589,-1065 869.1,-1073.46 878.597,-1080.45 888.613,-1086.17"/>
<polygon fill="black" stroke="black" points="887.035,-1089.29 897.511,-1090.87 890.305,-1083.1 887.035,-1089.29"/>
</g>
<!-- JsonRpcClientBase -->
<g id="node42" class="node"><title>JsonRpcClientBase</title>
<polygon fill="none" stroke="black" points="750.282,-920 628.282,-920 628.282,-916 624.282,-916 624.282,-912 628.282,-912 628.282,-892 624.282,-892 624.282,-888 628.282,-888 628.282,-884 750.282,-884 750.282,-920"/>
<polyline fill="none" stroke="black" points="628.282,-916 632.282,-916 632.282,-912 628.282,-912 "/>
<polyline fill="none" stroke="black" points="628.282,-892 632.282,-892 632.282,-888 628.282,-888 "/>
<text text-anchor="middle" x="689.282" y="-898.3" font-family="Times,serif" font-size="14.00">JsonRpcClientBase</text>
</g>
<!-- JsonRpcClientBase&#45;&gt;Core_ComponentBase -->
<g id="edge76" class="edge"><title>JsonRpcClientBase&#45;&gt;Core_ComponentBase</title>
<path fill="none" stroke="black" stroke-dasharray="1,5" d="M750.303,-892.102C826.203,-883.153 956.822,-880.121 1038.59,-947 1125.62,-1018.18 1140.7,-1164.88 1143.11,-1226.62"/>
<polygon fill="black" stroke="black" points="1139.61,-1226.9 1143.42,-1236.79 1146.61,-1226.69 1139.61,-1226.9"/>
</g>
<!-- JsonRpcExt -->
<g id="node43" class="node"><title>JsonRpcExt</title>
<polygon fill="none" stroke="black" points="994.589,-1056 913.589,-1056 913.589,-1052 909.589,-1052 909.589,-1048 913.589,-1048 913.589,-1028 909.589,-1028 909.589,-1024 913.589,-1024 913.589,-1020 994.589,-1020 994.589,-1056"/>
<polyline fill="none" stroke="black" points="913.589,-1052 917.589,-1052 917.589,-1048 913.589,-1048 "/>
<polyline fill="none" stroke="black" points="913.589,-1028 917.589,-1028 917.589,-1024 913.589,-1024 "/>
<text text-anchor="middle" x="954.089" y="-1034.3" font-family="Times,serif" font-size="14.00">JsonRpcExt</text>
</g>
<!-- JsonRpcClientBase&#45;&gt;JsonRpcExt -->
<g id="edge75" class="edge"><title>JsonRpcClientBase&#45;&gt;JsonRpcExt</title>
<path fill="none" stroke="black" d="M750.511,-905.905C777.069,-909.469 807.991,-916.226 833.589,-929 873.719,-949.025 910.29,-986.49 932.122,-1011.84"/>
<polygon fill="black" stroke="black" points="929.554,-1014.22 938.679,-1019.61 934.903,-1009.71 929.554,-1014.22"/>
</g>
<!-- JsonRpcExt&#45;&gt;Core_ComponentBase -->
<g id="edge61" class="edge"><title>JsonRpcExt&#45;&gt;Core_ComponentBase</title>
<path fill="none" stroke="black" stroke-dasharray="1,5" d="M994.898,-1053.55C1009.77,-1060.68 1026.06,-1070.2 1038.59,-1082 1083.58,-1124.37 1116.26,-1190.22 1132.3,-1227.26"/>
<polygon fill="black" stroke="black" points="1129.26,-1229.06 1136.38,-1236.9 1135.7,-1226.33 1129.26,-1229.06"/>
</g>
<!-- JsonView -->
<g id="node44" class="node"><title>JsonView</title>
<polygon fill="none" stroke="black" points="724.282,-1190 654.282,-1190 654.282,-1186 650.282,-1186 650.282,-1182 654.282,-1182 654.282,-1162 650.282,-1162 650.282,-1158 654.282,-1158 654.282,-1154 724.282,-1154 724.282,-1190"/>
<polyline fill="none" stroke="black" points="654.282,-1186 658.282,-1186 658.282,-1182 654.282,-1182 "/>
<polyline fill="none" stroke="black" points="654.282,-1162 658.282,-1162 658.282,-1158 654.282,-1158 "/>
<text text-anchor="middle" x="689.282" y="-1168.3" font-family="Times,serif" font-size="14.00">JsonView</text>
</g>
<!-- JsonView&#45;&gt;Core_View -->
<g id="edge77" class="edge"><title>JsonView&#45;&gt;Core_View</title>
<path fill="none" stroke="black" d="M724.37,-1182.77C774.238,-1198.52 866.649,-1227.7 917.407,-1243.73"/>
<polygon fill="black" stroke="black" points="916.388,-1247.08 926.978,-1246.75 918.497,-1240.4 916.388,-1247.08"/>
</g>
<!-- Misc -->
<g id="node45" class="node"><title>Misc</title>
<polygon fill="none" stroke="black" points="716.282,-758 662.282,-758 662.282,-754 658.282,-754 658.282,-750 662.282,-750 662.282,-730 658.282,-730 658.282,-726 662.282,-726 662.282,-722 716.282,-722 716.282,-758"/>
<polyline fill="none" stroke="black" points="662.282,-754 666.282,-754 666.282,-750 662.282,-750 "/>
<polyline fill="none" stroke="black" points="662.282,-730 666.282,-730 666.282,-726 662.282,-726 "/>
<text text-anchor="middle" x="689.282" y="-736.3" font-family="Times,serif" font-size="14.00">Misc</text>
</g>
<!-- Misc&#45;&gt;Core_ComponentBase -->
<g id="edge62" class="edge"><title>Misc&#45;&gt;Core_ComponentBase</title>
<path fill="none" stroke="black" stroke-dasharray="1,5" d="M716.374,-738.342C788.942,-734.306 990.946,-727.156 1038.59,-769 1108.38,-830.297 1134.94,-1132.05 1141.62,-1226.61"/>
<polygon fill="black" stroke="black" points="1138.15,-1227.1 1142.33,-1236.84 1145.13,-1226.62 1138.15,-1227.1"/>
</g>
<!-- RedisManager -->
<g id="node46" class="node"><title>RedisManager</title>
<polygon fill="none" stroke="black" points="737.282,-704 641.282,-704 641.282,-700 637.282,-700 637.282,-696 641.282,-696 641.282,-676 637.282,-676 637.282,-672 641.282,-672 641.282,-668 737.282,-668 737.282,-704"/>
<polyline fill="none" stroke="black" points="641.282,-700 645.282,-700 645.282,-696 641.282,-696 "/>
<polyline fill="none" stroke="black" points="641.282,-676 645.282,-676 645.282,-672 641.282,-672 "/>
<text text-anchor="middle" x="689.282" y="-682.3" font-family="Times,serif" font-size="14.00">RedisManager</text>
</g>
<!-- RedisManager&#45;&gt;Core_ComponentBase -->
<g id="edge64" class="edge"><title>RedisManager&#45;&gt;Core_ComponentBase</title>
<path fill="none" stroke="black" stroke-dasharray="1,5" d="M737.384,-676.768C811.769,-665.161 956.411,-655.117 1038.59,-732 1111.92,-800.604 1136.26,-1128.31 1141.98,-1226.89"/>
<polygon fill="black" stroke="black" points="1138.5,-1227.19 1142.55,-1236.98 1145.49,-1226.8 1138.5,-1227.19"/>
</g>
<!-- RedisCache -->
<g id="node47" class="node"><title>RedisCache</title>
<polygon fill="none" stroke="black" points="729.782,-596 648.782,-596 648.782,-592 644.782,-592 644.782,-588 648.782,-588 648.782,-568 644.782,-568 644.782,-564 648.782,-564 648.782,-560 729.782,-560 729.782,-596"/>
<polyline fill="none" stroke="black" points="648.782,-592 652.782,-592 652.782,-588 648.782,-588 "/>
<polyline fill="none" stroke="black" points="648.782,-568 652.782,-568 652.782,-564 648.782,-564 "/>
<text text-anchor="middle" x="689.282" y="-574.3" font-family="Times,serif" font-size="14.00">RedisCache</text>
</g>
<!-- RedisCache&#45;&gt;Core_ComponentBase -->
<g id="edge65" class="edge"><title>RedisCache&#45;&gt;Core_ComponentBase</title>
<path fill="none" stroke="black" stroke-dasharray="1,5" d="M730.036,-574.989C803.194,-571.85 958.935,-576.792 1038.59,-666 1114.26,-750.741 1137.17,-1120.75 1142.24,-1226.61"/>
<polygon fill="black" stroke="black" points="1138.75,-1227.01 1142.71,-1236.83 1145.74,-1226.68 1138.75,-1227.01"/>
</g>
<!-- RouteHookApiServer -->
<g id="node48" class="node"><title>RouteHookApiServer</title>
<polygon fill="none" stroke="black" points="756.282,-542 622.282,-542 622.282,-538 618.282,-538 618.282,-534 622.282,-534 622.282,-514 618.282,-514 618.282,-510 622.282,-510 622.282,-506 756.282,-506 756.282,-542"/>
<polyline fill="none" stroke="black" points="622.282,-538 626.282,-538 626.282,-534 622.282,-534 "/>
<polyline fill="none" stroke="black" points="622.282,-514 626.282,-514 626.282,-510 622.282,-510 "/>
<text text-anchor="middle" x="689.282" y="-520.3" font-family="Times,serif" font-size="14.00">RouteHookApiServer</text>
</g>
<!-- RouteHookApiServer&#45;&gt;Core_ComponentBase -->
<g id="edge66" class="edge"><title>RouteHookApiServer&#45;&gt;Core_ComponentBase</title>
<path fill="none" stroke="black" stroke-dasharray="1,5" d="M756.589,-513.757C835.278,-505.707 965.053,-506.073 1038.59,-580 1085.22,-626.879 1130.18,-1104.36 1140.99,-1226.61"/>
<polygon fill="black" stroke="black" points="1137.52,-1227.03 1141.88,-1236.69 1144.49,-1226.42 1137.52,-1227.03"/>
</g>
<!-- RouteHookDirectoryMode -->
<g id="node49" class="node"><title>RouteHookDirectoryMode</title>
<polygon fill="none" stroke="black" points="770.782,-866 607.782,-866 607.782,-862 603.782,-862 603.782,-858 607.782,-858 607.782,-838 603.782,-838 603.782,-834 607.782,-834 607.782,-830 770.782,-830 770.782,-866"/>
<polyline fill="none" stroke="black" points="607.782,-862 611.782,-862 611.782,-858 607.782,-858 "/>
<polyline fill="none" stroke="black" points="607.782,-838 611.782,-838 611.782,-834 607.782,-834 "/>
<text text-anchor="middle" x="689.282" y="-844.3" font-family="Times,serif" font-size="14.00">RouteHookDirectoryMode</text>
</g>
<!-- RouteHookDirectoryMode&#45;&gt;Core_ComponentBase -->
<g id="edge67" class="edge"><title>RouteHookDirectoryMode&#45;&gt;Core_ComponentBase</title>
<path fill="none" stroke="black" stroke-dasharray="1,5" d="M770.927,-833.03C848.563,-823.508 964.769,-822.792 1038.59,-885 1091.98,-929.995 1128.12,-1148.46 1139.56,-1226.89"/>
<polygon fill="black" stroke="black" points="1136.13,-1227.6 1141.01,-1237 1143.06,-1226.6 1136.13,-1227.6"/>
</g>
<!-- RouteHookManager -->
<g id="node50" class="node"><title>RouteHookManager</title>
<polygon fill="none" stroke="black" points="753.282,-812 625.282,-812 625.282,-808 621.282,-808 621.282,-804 625.282,-804 625.282,-784 621.282,-784 621.282,-780 625.282,-780 625.282,-776 753.282,-776 753.282,-812"/>
<polyline fill="none" stroke="black" points="625.282,-808 629.282,-808 629.282,-804 625.282,-804 "/>
<polyline fill="none" stroke="black" points="625.282,-784 629.282,-784 629.282,-780 625.282,-780 "/>
<text text-anchor="middle" x="689.282" y="-790.3" font-family="Times,serif" font-size="14.00">RouteHookManager</text>
</g>
<!-- RouteHookManager&#45;&gt;Core_ComponentBase -->
<g id="edge68" class="edge"><title>RouteHookManager&#45;&gt;Core_ComponentBase</title>
<path fill="none" stroke="black" stroke-dasharray="1,5" d="M753.609,-779.657C830.532,-766.248 959.76,-757.217 1038.59,-825 1100.54,-878.268 1131.92,-1139.75 1140.77,-1226.77"/>
<polygon fill="black" stroke="black" points="1137.31,-1227.35 1141.79,-1236.95 1144.28,-1226.65 1137.31,-1227.35"/>
</g>
<!-- RouteHookRewrite -->
<g id="node51" class="node"><title>RouteHookRewrite</title>
<polygon fill="none" stroke="black" points="750.282,-1028 628.282,-1028 628.282,-1024 624.282,-1024 624.282,-1020 628.282,-1020 628.282,-1000 624.282,-1000 624.282,-996 628.282,-996 628.282,-992 750.282,-992 750.282,-1028"/>
<polyline fill="none" stroke="black" points="628.282,-1024 632.282,-1024 632.282,-1020 628.282,-1020 "/>
<polyline fill="none" stroke="black" points="628.282,-1000 632.282,-1000 632.282,-996 628.282,-996 "/>
<text text-anchor="middle" x="689.282" y="-1006.3" font-family="Times,serif" font-size="14.00">RouteHookRewrite</text>
</g>
<!-- RouteHookRewrite&#45;&gt;Core_ComponentBase -->
<g id="edge69" class="edge"><title>RouteHookRewrite&#45;&gt;Core_ComponentBase</title>
<path fill="none" stroke="black" stroke-dasharray="1,5" d="M750.366,-1006.66C779.164,-1008.35 812.002,-1015.62 833.589,-1037 878.988,-1081.96 818.036,-1131.26 861.589,-1178 865.421,-1182.11 999.131,-1217.46 1080.99,-1238.81"/>
<polygon fill="black" stroke="black" points="1080.14,-1242.2 1090.7,-1241.34 1081.91,-1235.43 1080.14,-1242.2"/>
</g>
<!-- StrictCheck -->
<g id="node52" class="node"><title>StrictCheck</title>
<polygon fill="none" stroke="black" points="729.282,-650 649.282,-650 649.282,-646 645.282,-646 645.282,-642 649.282,-642 649.282,-622 645.282,-622 645.282,-618 649.282,-618 649.282,-614 729.282,-614 729.282,-650"/>
<polyline fill="none" stroke="black" points="649.282,-646 653.282,-646 653.282,-642 649.282,-642 "/>
<polyline fill="none" stroke="black" points="649.282,-622 653.282,-622 653.282,-618 649.282,-618 "/>
<text text-anchor="middle" x="689.282" y="-628.3" font-family="Times,serif" font-size="14.00">StrictCheck</text>
</g>
<!-- StrictCheck&#45;&gt;Core_ComponentBase -->
<g id="edge70" class="edge"><title>StrictCheck&#45;&gt;Core_ComponentBase</title>
<path fill="none" stroke="black" stroke-dasharray="1,5" d="M729.433,-627.443C762.413,-626.008 808.168,-630.109 833.589,-659 903.732,-738.716 793.329,-1054.67 861.589,-1136 913.565,-1197.93 965.207,-1144.06 1038.59,-1178 1067.24,-1191.25 1095.85,-1212.98 1115.94,-1229.98"/>
<polygon fill="black" stroke="black" points="1113.87,-1232.82 1123.73,-1236.71 1118.44,-1227.52 1113.87,-1232.82"/>
</g>
<!-- StrictCheck&#45;&gt;DbManager -->
<g id="edge78" class="edge"><title>StrictCheck&#45;&gt;DbManager</title>
<path fill="none" stroke="black" d="M729.286,-636.427C762.173,-637.779 807.873,-633.628 833.589,-605 886.175,-546.46 812.017,-313.113 861.589,-252 871.689,-239.549 887.233,-232.654 902.66,-228.893"/>
<polygon fill="black" stroke="black" points="903.62,-232.269 912.722,-226.847 902.225,-225.41 903.62,-232.269"/>
</g>
<!-- DuckPhp -->
<g id="node53" class="node"><title>DuckPhp</title>
<polygon fill="lightgrey" stroke="black" points="325.909,-319 264.242,-301 325.909,-283 387.576,-301 325.909,-319"/>
<polyline fill="none" stroke="black" points="275.761,-304.362 275.761,-297.638 "/>
<polyline fill="none" stroke="black" points="314.39,-286.362 337.428,-286.362 "/>
<polyline fill="none" stroke="black" points="376.057,-297.638 376.057,-304.362 "/>
<polyline fill="none" stroke="black" points="337.428,-315.638 314.39,-315.638 "/>
<text text-anchor="middle" x="325.909" y="-297.3" font-family="Times,serif" font-size="14.00">DuckPhp</text>
</g>
<!-- DuckPhp&#45;&gt;Core_App -->
<g id="edge79" class="edge"><title>DuckPhp&#45;&gt;Core_App</title>
<path fill="none" stroke="black" d="M329.004,-318.15C345.029,-449.307 448.085,-1292.75 467.911,-1455.02"/>
<polygon fill="black" stroke="black" points="464.456,-1455.6 469.144,-1465.11 471.405,-1454.75 464.456,-1455.6"/>
</g>
<!-- DuckPhp&#45;&gt;Cache -->
<g id="edge85" class="edge"><title>DuckPhp&#45;&gt;Cache</title>
<path fill="none" stroke="black" d="M381.11,-299.096C506.06,-294.706 811.655,-283.969 916.828,-280.274"/>
<polygon fill="black" stroke="black" points="917.069,-283.768 926.94,-279.919 916.823,-276.772 917.069,-283.768"/>
</g>
<!-- DuckPhp&#45;&gt;Console -->
<g id="edge86" class="edge"><title>DuckPhp&#45;&gt;Console</title>
<path fill="none" stroke="black" d="M347.146,-288.916C367.326,-276.964 399.289,-258.294 427.441,-243 478.977,-215.003 489.231,-201.236 544.974,-183 675.499,-140.299 838.899,-124.559 913.114,-119.332"/>
<polygon fill="black" stroke="black" points="913.662,-122.803 923.402,-118.635 913.189,-115.819 913.662,-122.803"/>
</g>
<!-- DuckPhp&#45;&gt;DbManager -->
<g id="edge82" class="edge"><title>DuckPhp&#45;&gt;DbManager</title>
<path fill="none" stroke="black" d="M369.949,-295.776C482.176,-282.155 783.318,-245.605 903.024,-231.077"/>
<polygon fill="black" stroke="black" points="903.513,-234.543 913.019,-229.863 902.67,-227.594 903.513,-234.543"/>
</g>
<!-- DuckPhp&#45;&gt;EventManager -->
<g id="edge83" class="edge"><title>DuckPhp&#45;&gt;EventManager</title>
<path fill="none" stroke="black" d="M347.941,-312.597C367.917,-323.233 399.034,-338.833 427.441,-349 590.879,-407.492 796.659,-429.646 895.248,-437.32"/>
<polygon fill="black" stroke="black" points="895.07,-440.817 905.305,-438.082 895.598,-433.837 895.07,-440.817"/>
</g>
<!-- DuckPhp&#45;&gt;Pager -->
<g id="edge81" class="edge"><title>DuckPhp&#45;&gt;Pager</title>
<path fill="none" stroke="black" d="M355.186,-291.465C396.484,-277.822 475.904,-252.656 544.974,-237 680.798,-206.213 845.189,-184.179 916.809,-175.317"/>
<polygon fill="black" stroke="black" points="917.589,-178.747 927.089,-174.057 916.738,-171.8 917.589,-178.747"/>
</g>
<!-- DuckPhp&#45;&gt;RouteHookPathInfoCompat -->
<g id="edge84" class="edge"><title>DuckPhp&#45;&gt;RouteHookPathInfoCompat</title>
<path fill="none" stroke="black" d="M356.55,-310.223C376.429,-316.094 403.292,-323.429 427.441,-328 577.13,-356.335 753.56,-372.723 859.209,-380.749"/>
<polygon fill="black" stroke="black" points="858.975,-384.241 869.209,-381.499 859.499,-377.26 858.975,-384.241"/>
</g>
<!-- DuckPhp&#45;&gt;RouteHookRouteMap -->
<g id="edge80" class="edge"><title>DuckPhp&#45;&gt;RouteHookRouteMap</title>
<path fill="none" stroke="black" d="M370.905,-305.928C388.472,-307.751 408.896,-309.691 427.441,-311 586.217,-322.21 772.405,-328.353 875.111,-331.132"/>
<polygon fill="black" stroke="black" points="875.303,-334.639 885.393,-331.407 875.49,-327.641 875.303,-334.639"/>
</g>
<!-- ThrowOn -->
<g id="node54" class="node"><title>ThrowOn</title>
<polygon fill="lightgrey" stroke="black" points="116.188,-1715 52.8443,-1697 116.188,-1679 179.532,-1697 116.188,-1715"/>
<polyline fill="none" stroke="black" points="64.3873,-1700.28 64.3873,-1693.72 "/>
<polyline fill="none" stroke="black" points="104.645,-1682.28 127.731,-1682.28 "/>
<polyline fill="none" stroke="black" points="167.989,-1693.72 167.989,-1700.28 "/>
<polyline fill="none" stroke="black" points="127.731,-1711.72 104.645,-1711.72 "/>
<text text-anchor="middle" x="116.188" y="-1693.3" font-family="Times,serif" font-size="14.00">ThrowOn</text>
</g>
</g>
</svg>
