<?xml version="1.0" encoding="UTF-8" standalone="no"?>
<!DOCTYPE svg PUBLIC "-//W3C//DTD SVG 1.1//EN"
 "http://www.w3.org/Graphics/SVG/1.1/DTD/svg11.dtd">
<!-- Generated by graphviz version 2.38.0 (20140413.2041)
 -->
<!-- Title: G Pages: 1 -->
<svg width="1519pt" height="1635pt"
 viewBox="0.00 0.00 1518.92 1635.00" xmlns="http://www.w3.org/2000/svg" xmlns:xlink="http://www.w3.org/1999/xlink">
<g id="graph0" class="graph" transform="scale(1 1) rotate(0) translate(4 1631)">
<title>G</title>
<polygon fill="white" stroke="none" points="-4,4 -4,-1631 1514.92,-1631 1514.92,4 -4,4"/>
<g id="clust1" class="cluster"><title>cluster_Core</title>
<polygon fill="none" stroke="black" points="427.441,-1092 427.441,-1619 1502.92,-1619 1502.92,-1092 427.441,-1092"/>
<text text-anchor="middle" x="965.182" y="-1603.8" font-family="Times,serif" font-size="14.00">[DuckPhp\Core]</text>
</g>
<g id="clust2" class="cluster"><title>cluster_Helper</title>
<polygon fill="none" stroke="black" points="8,-1283 8,-1574 407.441,-1574 407.441,-1283 8,-1283"/>
<text text-anchor="middle" x="207.721" y="-1558.8" font-family="Times,serif" font-size="14.00">[DuckPhp\Helper]</text>
</g>
<g id="clust3" class="cluster"><title>cluster_Db</title>
<polygon fill="none" stroke="black" points="963.271,-8 963.271,-137 1314.34,-137 1314.34,-8 963.271,-8"/>
<text text-anchor="middle" x="1138.81" y="-121.8" font-family="Times,serif" font-size="14.00">[DuckPhp\Db]</text>
</g>
<g id="clust4" class="cluster"><title>cluster_Ext</title>
<polygon fill="none" stroke="black" points="603.153,-145 603.153,-1084 1068.77,-1084 1068.77,-145 603.153,-145"/>
<text text-anchor="middle" x="835.962" y="-1068.8" font-family="Times,serif" font-size="14.00">[DuckPhp\Ext]</text>
</g>
<g id="clust5" class="cluster"><title>cluster_DuckPhp</title>
<polygon fill="none" stroke="black" points="248.053,-744 248.053,-873 403.765,-873 403.765,-744 248.053,-744"/>
<text text-anchor="middle" x="325.909" y="-857.8" font-family="Times,serif" font-size="14.00">[DuckPhp]</text>
</g>
<!-- Core_AppPluginTrait -->
<g id="node1" class="node"><title>Core_AppPluginTrait</title>
<polygon fill="none" stroke="black" points="742.593,-1252 649.923,-1234 742.593,-1216 835.263,-1234 742.593,-1252"/>
<text text-anchor="middle" x="742.593" y="-1230.3" font-family="Times,serif" font-size="14.00">AppPluginTrait</text>
</g>
<!-- Core_View -->
<g id="node7" class="node"><title>Core_View</title>
<polygon fill="none" stroke="black" points="1025.27,-1190 971.271,-1190 971.271,-1186 967.271,-1186 967.271,-1182 971.271,-1182 971.271,-1162 967.271,-1162 967.271,-1158 971.271,-1158 971.271,-1154 1025.27,-1154 1025.27,-1190"/>
<polyline fill="none" stroke="black" points="971.271,-1186 975.271,-1186 975.271,-1182 971.271,-1182 "/>
<polyline fill="none" stroke="black" points="971.271,-1162 975.271,-1162 975.271,-1158 971.271,-1158 "/>
<text text-anchor="middle" x="998.271" y="-1168.3" font-family="Times,serif" font-size="14.00">View</text>
</g>
<!-- Core_AppPluginTrait&#45;&gt;Core_View -->
<g id="edge23" class="edge"><title>Core_AppPluginTrait&#45;&gt;Core_View</title>
<path fill="none" stroke="black" d="M784.351,-1224.04C833.179,-1212.1 914.233,-1192.29 960.986,-1180.87"/>
<polygon fill="black" stroke="black" points="962.094,-1184.2 970.977,-1178.43 960.432,-1177.4 962.094,-1184.2"/>
</g>
<!-- Core_Configer -->
<g id="node8" class="node"><title>Core_Configer</title>
<polygon fill="none" stroke="black" points="1030.77,-1298 965.771,-1298 965.771,-1294 961.771,-1294 961.771,-1290 965.771,-1290 965.771,-1270 961.771,-1270 961.771,-1266 965.771,-1266 965.771,-1262 1030.77,-1262 1030.77,-1298"/>
<polyline fill="none" stroke="black" points="965.771,-1294 969.771,-1294 969.771,-1290 965.771,-1290 "/>
<polyline fill="none" stroke="black" points="965.771,-1270 969.771,-1270 969.771,-1266 965.771,-1266 "/>
<text text-anchor="middle" x="998.271" y="-1276.3" font-family="Times,serif" font-size="14.00">Configer</text>
</g>
<!-- Core_AppPluginTrait&#45;&gt;Core_Configer -->
<g id="edge22" class="edge"><title>Core_AppPluginTrait&#45;&gt;Core_Configer</title>
<path fill="none" stroke="black" d="M791.01,-1242.6C838.373,-1251.19 910.459,-1264.26 955.664,-1272.46"/>
<polygon fill="black" stroke="black" points="955.25,-1275.94 965.714,-1274.28 956.499,-1269.05 955.25,-1275.94"/>
</g>
<!-- Core_Route -->
<g id="node10" class="node"><title>Core_Route</title>
<polygon fill="lightgrey" stroke="black" points="998.271,-1406 953.194,-1388 998.271,-1370 1043.35,-1388 998.271,-1406"/>
<polyline fill="none" stroke="black" points="964.338,-1392.45 964.338,-1383.55 "/>
<polyline fill="none" stroke="black" points="987.127,-1374.45 1009.42,-1374.45 "/>
<polyline fill="none" stroke="black" points="1032.2,-1383.55 1032.2,-1392.45 "/>
<polyline fill="none" stroke="black" points="1009.42,-1401.55 987.127,-1401.55 "/>
<text text-anchor="middle" x="998.271" y="-1384.3" font-family="Times,serif" font-size="14.00">Route</text>
</g>
<!-- Core_AppPluginTrait&#45;&gt;Core_Route -->
<g id="edge24" class="edge"><title>Core_AppPluginTrait&#45;&gt;Core_Route</title>
<path fill="none" stroke="black" d="M798.648,-1241.13C827.827,-1247.4 862.564,-1259.11 886.901,-1281 915.891,-1307.07 894.322,-1334.48 922.901,-1361 932.261,-1369.69 944.631,-1375.63 956.591,-1379.67"/>
<polygon fill="black" stroke="black" points="955.88,-1383.11 966.465,-1382.63 957.894,-1376.4 955.88,-1383.11"/>
</g>
<!-- Core_SuperGlobal -->
<g id="node14" class="node"><title>Core_SuperGlobal</title>
<polygon fill="none" stroke="black" points="1040.77,-1352 955.771,-1352 955.771,-1348 951.771,-1348 951.771,-1344 955.771,-1344 955.771,-1324 951.771,-1324 951.771,-1320 955.771,-1320 955.771,-1316 1040.77,-1316 1040.77,-1352"/>
<polyline fill="none" stroke="black" points="955.771,-1348 959.771,-1348 959.771,-1344 955.771,-1344 "/>
<polyline fill="none" stroke="black" points="955.771,-1324 959.771,-1324 959.771,-1320 955.771,-1320 "/>
<text text-anchor="middle" x="998.271" y="-1330.3" font-family="Times,serif" font-size="14.00">SuperGlobal</text>
</g>
<!-- Core_AppPluginTrait&#45;&gt;Core_SuperGlobal -->
<g id="edge25" class="edge"><title>Core_AppPluginTrait&#45;&gt;Core_SuperGlobal</title>
<path fill="none" stroke="black" d="M807.438,-1239.52C833.467,-1243.93 862.996,-1251.83 886.901,-1266 907.762,-1278.36 902.876,-1293.32 922.901,-1307 929.993,-1311.84 938.058,-1315.93 946.198,-1319.35"/>
<polygon fill="black" stroke="black" points="945.144,-1322.69 955.732,-1323.05 947.677,-1316.17 945.144,-1322.69"/>
</g>
<!-- Core_App -->
<g id="node2" class="node"><title>Core_App</title>
<polygon fill="lightgrey" stroke="black" points="498.863,-1393 462.329,-1375 498.863,-1357 535.397,-1375 498.863,-1393"/>
<polyline fill="none" stroke="black" points="473.094,-1380.3 473.094,-1369.7 "/>
<polyline fill="none" stroke="black" points="488.099,-1362.3 509.628,-1362.3 "/>
<polyline fill="none" stroke="black" points="524.633,-1369.7 524.633,-1380.3 "/>
<polyline fill="none" stroke="black" points="509.628,-1387.7 488.099,-1387.7 "/>
<text text-anchor="middle" x="498.863" y="-1371.3" font-family="Times,serif" font-size="14.00">App</text>
</g>
<!-- Core_Kernel -->
<g id="node3" class="node"><title>Core_Kernel</title>
<polygon fill="none" stroke="black" points="742.593,-1326 693.661,-1308 742.593,-1290 791.524,-1308 742.593,-1326"/>
<text text-anchor="middle" x="742.593" y="-1304.3" font-family="Times,serif" font-size="14.00">Kernel</text>
</g>
<!-- Core_App&#45;&gt;Core_Kernel -->
<g id="edge9" class="edge"><title>Core_App&#45;&gt;Core_Kernel</title>
<path fill="none" stroke="black" d="M519.613,-1367.17C539.322,-1359.55 570.578,-1347.99 598.285,-1340 631.991,-1330.28 670.866,-1321.77 699.615,-1315.97"/>
<polygon fill="black" stroke="black" points="700.596,-1319.34 709.72,-1313.96 699.23,-1312.48 700.596,-1319.34"/>
</g>
<!-- Core_AutoLoader -->
<g id="node5" class="node"><title>Core_AutoLoader</title>
<polygon fill="lightgrey" stroke="black" points="998.271,-1568 923.029,-1550 998.271,-1532 1073.51,-1550 998.271,-1568"/>
<polyline fill="none" stroke="black" points="934.7,-1552.79 934.7,-1547.21 "/>
<polyline fill="none" stroke="black" points="986.601,-1534.79 1009.94,-1534.79 "/>
<polyline fill="none" stroke="black" points="1061.84,-1547.21 1061.84,-1552.79 "/>
<polyline fill="none" stroke="black" points="1009.94,-1565.21 986.601,-1565.21 "/>
<text text-anchor="middle" x="998.271" y="-1546.3" font-family="Times,serif" font-size="14.00">AutoLoader</text>
</g>
<!-- Core_App&#45;&gt;Core_AutoLoader -->
<g id="edge12" class="edge"><title>Core_App&#45;&gt;Core_AutoLoader</title>
<path fill="none" stroke="black" stroke-dasharray="5,2" d="M509.66,-1387.98C525.68,-1408.09 559.601,-1446.2 598.285,-1463 716.419,-1514.3 769.477,-1436.09 886.901,-1489 906.966,-1498.04 904.168,-1511.45 922.901,-1523 932.027,-1528.63 942.502,-1533.33 952.654,-1537.16"/>
<polygon fill="black" stroke="black" points="951.64,-1540.51 962.235,-1540.55 953.979,-1533.91 951.64,-1540.51"/>
</g>
<!-- Core_ExceptionManager -->
<g id="node6" class="node"><title>Core_ExceptionManager</title>
<polygon fill="none" stroke="black" points="1058.27,-1460 938.271,-1460 938.271,-1456 934.271,-1456 934.271,-1452 938.271,-1452 938.271,-1432 934.271,-1432 934.271,-1428 938.271,-1428 938.271,-1424 1058.27,-1424 1058.27,-1460"/>
<polyline fill="none" stroke="black" points="938.271,-1456 942.271,-1456 942.271,-1452 938.271,-1452 "/>
<polyline fill="none" stroke="black" points="938.271,-1432 942.271,-1432 942.271,-1428 938.271,-1428 "/>
<text text-anchor="middle" x="998.271" y="-1438.3" font-family="Times,serif" font-size="14.00">ExceptionManager</text>
</g>
<!-- Core_App&#45;&gt;Core_ExceptionManager -->
<g id="edge15" class="edge"><title>Core_App&#45;&gt;Core_ExceptionManager</title>
<path fill="none" stroke="black" stroke-dasharray="5,2" d="M526.57,-1370.51C603.612,-1358.1 824.716,-1326.38 886.901,-1360 912.6,-1373.89 899.996,-1396.86 922.901,-1415 924.926,-1416.6 927.056,-1418.12 929.264,-1419.55"/>
<polygon fill="black" stroke="black" points="927.696,-1422.68 938.107,-1424.64 931.191,-1416.62 927.696,-1422.68"/>
</g>
<!-- Core_App&#45;&gt;Core_View -->
<g id="edge18" class="edge"><title>Core_App&#45;&gt;Core_View</title>
<path fill="none" stroke="black" stroke-dasharray="5,2" d="M508.831,-1361.48C521.835,-1341.46 546.135,-1302.48 562.285,-1267 582.724,-1222.1 558.141,-1190.67 598.285,-1162 655.717,-1120.98 874.405,-1151.58 961.332,-1165.79"/>
<polygon fill="black" stroke="black" points="960.823,-1169.25 971.26,-1167.43 961.967,-1162.34 960.823,-1169.25"/>
</g>
<!-- Core_App&#45;&gt;Core_Configer -->
<g id="edge13" class="edge"><title>Core_App&#45;&gt;Core_Configer</title>
<path fill="none" stroke="black" stroke-dasharray="5,2" d="M507.738,-1361.35C530.744,-1321.52 596.351,-1208.11 598.285,-1207 653.931,-1175.11 829.243,-1178.91 886.901,-1207 910.239,-1218.37 901.885,-1237.76 922.901,-1253 932.705,-1260.11 944.578,-1265.53 955.931,-1269.57"/>
<polygon fill="black" stroke="black" points="955.117,-1272.99 965.71,-1272.78 957.3,-1266.34 955.117,-1272.99"/>
</g>
<!-- Core_Logger -->
<g id="node9" class="node"><title>Core_Logger</title>
<polygon fill="none" stroke="black" points="1026.27,-1514 970.271,-1514 970.271,-1510 966.271,-1510 966.271,-1506 970.271,-1506 970.271,-1486 966.271,-1486 966.271,-1482 970.271,-1482 970.271,-1478 1026.27,-1478 1026.27,-1514"/>
<polyline fill="none" stroke="black" points="970.271,-1510 974.271,-1510 974.271,-1506 970.271,-1506 "/>
<polyline fill="none" stroke="black" points="970.271,-1486 974.271,-1486 974.271,-1482 970.271,-1482 "/>
<text text-anchor="middle" x="998.271" y="-1492.3" font-family="Times,serif" font-size="14.00">Logger</text>
</g>
<!-- Core_App&#45;&gt;Core_Logger -->
<g id="edge14" class="edge"><title>Core_App&#45;&gt;Core_Logger</title>
<path fill="none" stroke="black" stroke-dasharray="5,2" d="M532.222,-1373.4C620.007,-1369.33 858.019,-1360.26 886.901,-1380 922.125,-1404.08 892.189,-1439.38 922.901,-1469 933.064,-1478.8 947.057,-1485.09 960.165,-1489.1"/>
<polygon fill="black" stroke="black" points="959.371,-1492.51 969.938,-1491.74 961.199,-1485.75 959.371,-1492.51"/>
</g>
<!-- Core_App&#45;&gt;Core_Route -->
<g id="edge16" class="edge"><title>Core_App&#45;&gt;Core_Route</title>
<path fill="none" stroke="black" stroke-dasharray="5,2" d="M510.806,-1387.18C527.58,-1404.83 561.584,-1436.74 598.285,-1449 659.119,-1469.32 827.301,-1472.7 886.901,-1449 907.351,-1440.87 904.168,-1426.55 922.901,-1415 934.433,-1407.89 948.119,-1402.25 960.587,-1398"/>
<polygon fill="black" stroke="black" points="961.81,-1401.29 970.26,-1394.9 959.669,-1394.62 961.81,-1401.29"/>
</g>
<!-- Core_RuntimeState -->
<g id="node11" class="node"><title>Core_RuntimeState</title>
<polygon fill="none" stroke="black" points="1043.77,-1244 952.771,-1244 952.771,-1240 948.771,-1240 948.771,-1236 952.771,-1236 952.771,-1216 948.771,-1216 948.771,-1212 952.771,-1212 952.771,-1208 1043.77,-1208 1043.77,-1244"/>
<polyline fill="none" stroke="black" points="952.771,-1240 956.771,-1240 956.771,-1236 952.771,-1236 "/>
<polyline fill="none" stroke="black" points="952.771,-1216 956.771,-1216 956.771,-1212 952.771,-1212 "/>
<text text-anchor="middle" x="998.271" y="-1222.3" font-family="Times,serif" font-size="14.00">RuntimeState</text>
</g>
<!-- Core_App&#45;&gt;Core_RuntimeState -->
<g id="edge17" class="edge"><title>Core_App&#45;&gt;Core_RuntimeState</title>
<path fill="none" stroke="black" stroke-dasharray="5,2" d="M508.504,-1361.32C521.101,-1341.11 544.897,-1301.89 562.285,-1267 580.585,-1230.28 564.083,-1204.66 598.285,-1182 651.754,-1146.58 824.318,-1167.97 886.901,-1182 904.166,-1185.87 906.567,-1192.2 922.901,-1199 929.29,-1201.66 936.046,-1204.32 942.776,-1206.88"/>
<polygon fill="black" stroke="black" points="941.98,-1210.32 952.572,-1210.54 944.428,-1203.76 941.98,-1210.32"/>
</g>
<!-- Core_SystemWrapperTrait -->
<g id="node12" class="node"><title>Core_SystemWrapperTrait</title>
<polygon fill="none" stroke="black" points="742.593,-1440 622.274,-1422 742.593,-1404 862.912,-1422 742.593,-1440"/>
<text text-anchor="middle" x="742.593" y="-1418.3" font-family="Times,serif" font-size="14.00">SystemWrapperTrait</text>
</g>
<!-- Core_App&#45;&gt;Core_SystemWrapperTrait -->
<g id="edge11" class="edge"><title>Core_App&#45;&gt;Core_SystemWrapperTrait</title>
<path fill="none" stroke="black" d="M525.733,-1380.03C562.081,-1387.1 629.396,-1400.19 679.228,-1409.87"/>
<polygon fill="black" stroke="black" points="678.778,-1413.35 689.262,-1411.83 680.114,-1406.48 678.778,-1413.35"/>
</g>
<!-- Core_App&#45;&gt;Core_SuperGlobal -->
<g id="edge19" class="edge"><title>Core_App&#45;&gt;Core_SuperGlobal</title>
<path fill="none" stroke="black" stroke-dasharray="5,2" d="M508.765,-1361.43C524.02,-1339.56 557.491,-1297.35 598.285,-1281 657.818,-1257.14 825.875,-1261.27 886.901,-1281 905.68,-1287.07 905.457,-1297.77 922.901,-1307 930.15,-1310.84 938.065,-1314.35 945.94,-1317.49"/>
<polygon fill="black" stroke="black" points="944.887,-1320.84 955.478,-1321.12 947.378,-1314.29 944.887,-1320.84"/>
</g>
<!-- Core_ExtendableStaticCallTrait -->
<g id="node15" class="node"><title>Core_ExtendableStaticCallTrait</title>
<polygon fill="none" stroke="black" points="742.593,-1588 598.477,-1570 742.593,-1552 886.708,-1570 742.593,-1588"/>
<text text-anchor="middle" x="742.593" y="-1566.3" font-family="Times,serif" font-size="14.00">ExtendableStaticCallTrait</text>
</g>
<!-- Core_App&#45;&gt;Core_ExtendableStaticCallTrait -->
<g id="edge10" class="edge"><title>Core_App&#45;&gt;Core_ExtendableStaticCallTrait</title>
<path fill="none" stroke="black" d="M504.148,-1390.52C514.32,-1424.24 543.285,-1504.27 598.285,-1543 609.779,-1551.09 623.028,-1556.95 636.73,-1561.15"/>
<polygon fill="black" stroke="black" points="636.198,-1564.63 646.769,-1563.93 638.065,-1557.89 636.198,-1564.63"/>
</g>
<!-- Core_ComponentBase -->
<g id="node18" class="node"><title>Core_ComponentBase</title>
<polygon fill="none" stroke="black" points="1261.49,-1136 1158.49,-1136 1154.49,-1132 1154.49,-1100 1257.49,-1100 1261.49,-1104 1261.49,-1136"/>
<polyline fill="none" stroke="black" points="1257.49,-1132 1154.49,-1132 "/>
<polyline fill="none" stroke="black" points="1257.49,-1132 1257.49,-1100 "/>
<polyline fill="none" stroke="black" points="1257.49,-1132 1261.49,-1136 "/>
<text text-anchor="middle" x="1207.99" y="-1114.3" font-family="Times,serif" font-size="14.00">ComponentBase</text>
</g>
<!-- Core_App&#45;&gt;Core_ComponentBase -->
<g id="edge21" class="edge"><title>Core_App&#45;&gt;Core_ComponentBase</title>
<path fill="none" stroke="black" stroke-dasharray="1,5" d="M532.539,-1376.43C625.259,-1380.5 883.562,-1392.11 886.901,-1395 949.24,-1448.97 859.189,-1524.66 922.901,-1577 948.784,-1598.26 1046.85,-1597.11 1073.64,-1577 1144.82,-1523.56 1190.34,-1237.41 1203.23,-1146.05"/>
<polygon fill="black" stroke="black" points="1206.69,-1146.53 1204.6,-1136.15 1199.76,-1145.57 1206.69,-1146.53"/>
</g>
<!-- Core_Functions -->
<g id="node19" class="node"><title>Core_Functions</title>
<ellipse fill="none" stroke="black" cx="742.593" cy="-1516" rx="45.4919" ry="18"/>
<text text-anchor="middle" x="742.593" y="-1512.3" font-family="Times,serif" font-size="14.00">Functions</text>
</g>
<!-- Core_App&#45;&gt;Core_Functions -->
<g id="edge20" class="edge"><title>Core_App&#45;&gt;Core_Functions</title>
<path fill="none" stroke="black" stroke-dasharray="5,2" d="M508.006,-1388.5C522.851,-1411.88 556.66,-1459.72 598.285,-1484 625.252,-1499.73 659.212,-1507.73 687.304,-1511.8"/>
<polygon fill="black" stroke="black" points="686.992,-1515.29 697.364,-1513.13 687.909,-1508.35 686.992,-1515.29"/>
</g>
<!-- Core_Kernel&#45;&gt;Core_AutoLoader -->
<g id="edge1" class="edge"><title>Core_Kernel&#45;&gt;Core_AutoLoader</title>
<path fill="none" stroke="black" d="M772.964,-1314.9C805.689,-1324.14 857.81,-1343.73 886.901,-1380 927.903,-1431.13 878.971,-1474.36 922.901,-1523 929.053,-1529.81 937.062,-1534.91 945.538,-1538.72"/>
<polygon fill="black" stroke="black" points="944.266,-1541.98 954.853,-1542.37 946.82,-1535.46 944.266,-1541.98"/>
</g>
<!-- Core_Kernel&#45;&gt;Core_ExceptionManager -->
<g id="edge4" class="edge"><title>Core_Kernel&#45;&gt;Core_ExceptionManager</title>
<path fill="none" stroke="black" d="M790.981,-1308.31C821.293,-1310.8 859.857,-1318.51 886.901,-1340 915.848,-1363 895.491,-1390.18 922.901,-1415 924.861,-1416.77 926.947,-1418.44 929.128,-1419.99"/>
<polygon fill="black" stroke="black" points="927.612,-1423.17 937.954,-1425.46 931.302,-1417.22 927.612,-1423.17"/>
</g>
<!-- Core_Kernel&#45;&gt;Core_View -->
<g id="edge7" class="edge"><title>Core_Kernel&#45;&gt;Core_View</title>
<path fill="none" stroke="black" d="M779.71,-1303.49C810.957,-1298 855.873,-1286.13 886.901,-1261 911.661,-1240.94 898.458,-1219.44 922.901,-1199 933.9,-1189.8 948.296,-1183.61 961.488,-1179.51"/>
<polygon fill="black" stroke="black" points="962.584,-1182.84 971.266,-1176.77 960.692,-1176.1 962.584,-1182.84"/>
</g>
<!-- Core_Kernel&#45;&gt;Core_Configer -->
<g id="edge2" class="edge"><title>Core_Kernel&#45;&gt;Core_Configer</title>
<path fill="none" stroke="black" d="M780.48,-1303.93C826.952,-1298.8 906.616,-1290.01 955.348,-1284.63"/>
<polygon fill="black" stroke="black" points="955.995,-1288.08 965.551,-1283.5 955.227,-1281.12 955.995,-1288.08"/>
</g>
<!-- Core_Kernel&#45;&gt;Core_Logger -->
<g id="edge3" class="edge"><title>Core_Kernel&#45;&gt;Core_Logger</title>
<path fill="none" stroke="black" d="M780.19,-1312.26C812.41,-1317.88 858.502,-1330.76 886.901,-1360 922.447,-1396.6 887.357,-1432.4 922.901,-1469 932.814,-1479.21 946.883,-1485.58 960.121,-1489.54"/>
<polygon fill="black" stroke="black" points="959.438,-1492.98 969.999,-1492.13 961.211,-1486.21 959.438,-1492.98"/>
</g>
<!-- Core_Kernel&#45;&gt;Core_Route -->
<g id="edge5" class="edge"><title>Core_Kernel&#45;&gt;Core_Route</title>
<path fill="none" stroke="black" d="M778.942,-1312.78C808.508,-1317.51 851.422,-1326.08 886.901,-1340 904.144,-1346.77 906.127,-1353.14 922.901,-1361 935.562,-1366.93 949.912,-1372.42 962.607,-1376.87"/>
<polygon fill="black" stroke="black" points="961.774,-1380.28 972.369,-1380.21 964.04,-1373.66 961.774,-1380.28"/>
</g>
<!-- Core_Kernel&#45;&gt;Core_RuntimeState -->
<g id="edge6" class="edge"><title>Core_Kernel&#45;&gt;Core_RuntimeState</title>
<path fill="none" stroke="black" d="M769.313,-1299.69C809.749,-1286.62 889.094,-1260.97 942.66,-1243.65"/>
<polygon fill="black" stroke="black" points="943.908,-1246.93 952.347,-1240.52 941.755,-1240.27 943.908,-1246.93"/>
</g>
<!-- Core_Kernel&#45;&gt;Core_SuperGlobal -->
<g id="edge8" class="edge"><title>Core_Kernel&#45;&gt;Core_SuperGlobal</title>
<path fill="none" stroke="black" d="M781.297,-1311.86C824.85,-1316.33 896.756,-1323.7 945.522,-1328.7"/>
<polygon fill="black" stroke="black" points="945.253,-1332.19 955.558,-1329.72 945.967,-1325.22 945.253,-1332.19"/>
</g>
<!-- Core_SingletonEx -->
<g id="node4" class="node"><title>Core_SingletonEx</title>
<polygon fill="lightgrey" stroke="black" points="1418.63,-1389 1342.55,-1371 1418.63,-1353 1494.71,-1371 1418.63,-1389"/>
<polyline fill="none" stroke="black" points="1354.23,-1373.76 1354.23,-1368.24 "/>
<polyline fill="none" stroke="black" points="1406.95,-1355.76 1430.31,-1355.76 "/>
<polyline fill="none" stroke="black" points="1483.04,-1368.24 1483.04,-1373.76 "/>
<polyline fill="none" stroke="black" points="1430.31,-1386.24 1406.95,-1386.24 "/>
<text text-anchor="middle" x="1418.63" y="-1367.3" font-family="Times,serif" font-size="14.00">SingletonEx</text>
</g>
<!-- Core_ExceptionManager&#45;&gt;Core_ComponentBase -->
<g id="edge26" class="edge"><title>Core_ExceptionManager&#45;&gt;Core_ComponentBase</title>
<path fill="none" stroke="black" stroke-dasharray="1,5" d="M1058.33,-1425.78C1063.88,-1422.77 1069.11,-1419.21 1073.64,-1415 1155.12,-1339.32 1190.13,-1204.53 1201.96,-1146.2"/>
<polygon fill="black" stroke="black" points="1205.43,-1146.71 1203.91,-1136.23 1198.56,-1145.37 1205.43,-1146.71"/>
</g>
<!-- Core_View&#45;&gt;Core_ComponentBase -->
<g id="edge31" class="edge"><title>Core_View&#45;&gt;Core_ComponentBase</title>
<path fill="none" stroke="black" stroke-dasharray="1,5" d="M1025.58,-1165.16C1055.27,-1157.44 1104.6,-1144.62 1144.33,-1134.29"/>
<polygon fill="black" stroke="black" points="1145.41,-1137.63 1154.21,-1131.72 1143.65,-1130.85 1145.41,-1137.63"/>
</g>
<!-- Core_Configer&#45;&gt;Core_ComponentBase -->
<g id="edge27" class="edge"><title>Core_Configer&#45;&gt;Core_ComponentBase</title>
<path fill="none" stroke="black" stroke-dasharray="1,5" d="M1031.1,-1271.86C1044.84,-1267.51 1060.69,-1261.3 1073.64,-1253 1120.29,-1223.11 1163.2,-1174.22 1187.15,-1144.2"/>
<polygon fill="black" stroke="black" points="1189.96,-1146.29 1193.39,-1136.27 1184.46,-1141.97 1189.96,-1146.29"/>
</g>
<!-- Core_Logger&#45;&gt;Core_ComponentBase -->
<g id="edge32" class="edge"><title>Core_Logger&#45;&gt;Core_ComponentBase</title>
<path fill="none" stroke="black" stroke-dasharray="1,5" d="M1026.34,-1491.92C1041.94,-1488.3 1060.92,-1481.53 1073.64,-1469 1167.33,-1376.69 1196.17,-1211.85 1204.19,-1146.15"/>
<polygon fill="black" stroke="black" points="1207.68,-1146.47 1205.34,-1136.13 1200.72,-1145.67 1207.68,-1146.47"/>
</g>
<!-- Core_Route&#45;&gt;Core_ComponentBase -->
<g id="edge28" class="edge"><title>Core_Route&#45;&gt;Core_ComponentBase</title>
<path fill="none" stroke="black" stroke-dasharray="1,5" d="M1029.34,-1382.32C1044,-1378.33 1061.13,-1371.73 1073.64,-1361 1143.23,-1301.36 1183.08,-1195.96 1198.93,-1145.9"/>
<polygon fill="black" stroke="black" points="1202.35,-1146.68 1201.95,-1136.1 1195.66,-1144.63 1202.35,-1146.68"/>
</g>
<!-- Core_RuntimeState&#45;&gt;Core_ComponentBase -->
<g id="edge30" class="edge"><title>Core_RuntimeState&#45;&gt;Core_ComponentBase</title>
<path fill="none" stroke="black" stroke-dasharray="1,5" d="M1043.91,-1211.42C1053.85,-1207.73 1064.23,-1203.51 1073.64,-1199 1108.53,-1182.27 1146.01,-1158.99 1172.32,-1141.68"/>
<polygon fill="black" stroke="black" points="1174.4,-1144.5 1180.79,-1136.06 1170.53,-1138.67 1174.4,-1144.5"/>
</g>
<!-- Core_HttpServer -->
<g id="node13" class="node"><title>Core_HttpServer</title>
<polygon fill="lightgrey" stroke="black" points="998.271,-1136 928.559,-1118 998.271,-1100 1067.98,-1118 998.271,-1136"/>
<polyline fill="none" stroke="black" points="940.178,-1121 940.178,-1115 "/>
<polyline fill="none" stroke="black" points="986.652,-1103 1009.89,-1103 "/>
<polyline fill="none" stroke="black" points="1056.36,-1115 1056.36,-1121 "/>
<polyline fill="none" stroke="black" points="1009.89,-1133 986.652,-1133 "/>
<text text-anchor="middle" x="998.271" y="-1114.3" font-family="Times,serif" font-size="14.00">HttpServer</text>
</g>
<!-- Core_HttpServer&#45;&gt;Core_ComponentBase -->
<g id="edge33" class="edge"><title>Core_HttpServer&#45;&gt;Core_ComponentBase</title>
<path fill="none" stroke="black" stroke-dasharray="1,5" d="M1068.15,-1118C1092.74,-1118 1120.3,-1118 1144.34,-1118"/>
<polygon fill="black" stroke="black" points="1144.41,-1121.5 1154.41,-1118 1144.41,-1114.5 1144.41,-1121.5"/>
</g>
<!-- Core_SuperGlobal&#45;&gt;Core_ComponentBase -->
<g id="edge29" class="edge"><title>Core_SuperGlobal&#45;&gt;Core_ComponentBase</title>
<path fill="none" stroke="black" stroke-dasharray="1,5" d="M1040.91,-1323.86C1052.25,-1319.82 1064.04,-1314.34 1073.64,-1307 1131.7,-1262.66 1174.58,-1185.9 1194.54,-1145.18"/>
<polygon fill="black" stroke="black" points="1197.72,-1146.65 1198.89,-1136.12 1191.41,-1143.62 1197.72,-1146.65"/>
</g>
<!-- Core_ThrowOn -->
<g id="node16" class="node"><title>Core_ThrowOn</title>
<polygon fill="lightgrey" stroke="black" points="498.863,-1258 435.519,-1240 498.863,-1222 562.207,-1240 498.863,-1258"/>
<polyline fill="none" stroke="black" points="447.063,-1243.28 447.063,-1236.72 "/>
<polyline fill="none" stroke="black" points="487.32,-1225.28 510.406,-1225.28 "/>
<polyline fill="none" stroke="black" points="550.664,-1236.72 550.664,-1243.28 "/>
<polyline fill="none" stroke="black" points="510.406,-1254.72 487.32,-1254.72 "/>
<text text-anchor="middle" x="498.863" y="-1236.3" font-family="Times,serif" font-size="14.00">ThrowOn</text>
</g>
<!-- Core_ComponentInterface -->
<g id="node17" class="node"><title>Core_ComponentInterface</title>
<polygon fill="none" stroke="black" points="1476.63,-1136 1354.63,-1136 1354.63,-1100 1482.63,-1100 1482.63,-1130 1476.63,-1136"/>
<polyline fill="none" stroke="black" points="1476.63,-1136 1476.63,-1130 "/>
<polyline fill="none" stroke="black" points="1482.63,-1130 1476.63,-1130 "/>
<text text-anchor="middle" x="1418.63" y="-1114.3" font-family="Times,serif" font-size="14.00">ComponentInterface</text>
</g>
<!-- Core_ComponentBase&#45;&gt;Core_SingletonEx -->
<g id="edge35" class="edge"><title>Core_ComponentBase&#45;&gt;Core_SingletonEx</title>
<path fill="none" stroke="black" d="M1224,-1136.2C1261.18,-1181.29 1357.55,-1298.15 1398.63,-1347.96"/>
<polygon fill="black" stroke="black" points="1396.12,-1350.42 1405.18,-1355.91 1401.52,-1345.96 1396.12,-1350.42"/>
</g>
<!-- Core_ComponentBase&#45;&gt;Core_ComponentInterface -->
<g id="edge34" class="edge"><title>Core_ComponentBase&#45;&gt;Core_ComponentInterface</title>
<path fill="none" stroke="black" d="M1261.64,-1118C1286.69,-1118 1317.05,-1118 1344.31,-1118"/>
<polygon fill="black" stroke="black" points="1344.59,-1121.5 1354.59,-1118 1344.59,-1114.5 1344.59,-1121.5"/>
</g>
<!-- AppHelper -->
<g id="node20" class="node"><title>AppHelper</title>
<polygon fill="lightgrey" stroke="black" points="116.188,-1381 45.6372,-1363 116.188,-1345 186.739,-1363 116.188,-1381"/>
<polyline fill="none" stroke="black" points="57.2647,-1365.97 57.2647,-1360.03 "/>
<polyline fill="none" stroke="black" points="104.561,-1347.97 127.816,-1347.97 "/>
<polyline fill="none" stroke="black" points="175.112,-1360.03 175.112,-1365.97 "/>
<polyline fill="none" stroke="black" points="127.816,-1378.03 104.561,-1378.03 "/>
<text text-anchor="middle" x="116.188" y="-1359.3" font-family="Times,serif" font-size="14.00">AppHelper</text>
</g>
<!-- AppHelper&#45;&gt;Core_App -->
<g id="edge36" class="edge"><title>AppHelper&#45;&gt;Core_App</title>
<path fill="none" stroke="black" d="M179.197,-1364.95C256.391,-1367.39 386.295,-1371.48 453.936,-1373.62"/>
<polygon fill="black" stroke="black" points="454.135,-1377.12 464.24,-1373.94 454.355,-1370.13 454.135,-1377.12"/>
</g>
<!-- HelperTrait -->
<g id="node25" class="node"><title>HelperTrait</title>
<polygon fill="none" stroke="black" points="325.909,-1533 252.344,-1515 325.909,-1497 399.474,-1515 325.909,-1533"/>
<text text-anchor="middle" x="325.909" y="-1511.3" font-family="Times,serif" font-size="14.00">HelperTrait</text>
</g>
<!-- AppHelper&#45;&gt;HelperTrait -->
<g id="edge44" class="edge"><title>AppHelper&#45;&gt;HelperTrait</title>
<path fill="none" stroke="black" d="M161.945,-1369.36C179.85,-1373.34 200.054,-1379.75 216.376,-1390 257.664,-1415.93 291.891,-1462.38 310.284,-1490.78"/>
<polygon fill="black" stroke="black" points="307.382,-1492.73 315.689,-1499.31 313.296,-1488.99 307.382,-1492.73"/>
</g>
<!-- ControllerHelper -->
<g id="node21" class="node"><title>ControllerHelper</title>
<polygon fill="lightgrey" stroke="black" points="116.188,-1327 15.8115,-1309 116.188,-1291 216.565,-1309 116.188,-1327"/>
<polyline fill="none" stroke="black" points="27.6231,-1311.12 27.6231,-1306.88 "/>
<polyline fill="none" stroke="black" points="104.377,-1293.12 128,-1293.12 "/>
<polyline fill="none" stroke="black" points="204.753,-1306.88 204.753,-1311.12 "/>
<polyline fill="none" stroke="black" points="128,-1324.88 104.377,-1324.88 "/>
<text text-anchor="middle" x="116.188" y="-1305.3" font-family="Times,serif" font-size="14.00">ControllerHelper</text>
</g>
<!-- ControllerHelper&#45;&gt;Core_App -->
<g id="edge37" class="edge"><title>ControllerHelper&#45;&gt;Core_App</title>
<path fill="none" stroke="black" d="M167.739,-1317.76C245.65,-1331.27 393.203,-1356.85 461.497,-1368.69"/>
<polygon fill="black" stroke="black" points="460.917,-1372.15 471.368,-1370.41 462.113,-1365.25 460.917,-1372.15"/>
</g>
<!-- ControllerHelper&#45;&gt;HelperTrait -->
<g id="edge45" class="edge"><title>ControllerHelper&#45;&gt;HelperTrait</title>
<path fill="none" stroke="black" d="M174.099,-1316.69C188.903,-1320.69 204.118,-1326.76 216.376,-1336 269.131,-1375.75 301.685,-1449.29 316.13,-1488.6"/>
<polygon fill="black" stroke="black" points="312.92,-1490.02 319.57,-1498.27 319.516,-1487.67 312.92,-1490.02"/>
</g>
<!-- ModelHelper -->
<g id="node22" class="node"><title>ModelHelper</title>
<polygon fill="lightgrey" stroke="black" points="116.188,-1543 34.5777,-1525 116.188,-1507 197.799,-1525 116.188,-1543"/>
<polyline fill="none" stroke="black" points="46.296,-1527.58 46.296,-1522.42 "/>
<polyline fill="none" stroke="black" points="104.47,-1509.58 127.906,-1509.58 "/>
<polyline fill="none" stroke="black" points="186.08,-1522.42 186.08,-1527.58 "/>
<polyline fill="none" stroke="black" points="127.906,-1540.42 104.47,-1540.42 "/>
<text text-anchor="middle" x="116.188" y="-1521.3" font-family="Times,serif" font-size="14.00">ModelHelper</text>
</g>
<!-- ModelHelper&#45;&gt;Core_App -->
<g id="edge38" class="edge"><title>ModelHelper&#45;&gt;Core_App</title>
<path fill="none" stroke="black" d="M154.497,-1515.22C173.135,-1510.24 196,-1503.99 216.376,-1498 230.541,-1493.84 233.92,-1492.27 248.053,-1488 318.633,-1466.68 341.353,-1474.69 407.441,-1442 433.629,-1429.05 460.074,-1408.37 477.541,-1393.41"/>
<polygon fill="black" stroke="black" points="480.126,-1395.79 485.354,-1386.58 475.521,-1390.52 480.126,-1395.79"/>
</g>
<!-- ModelHelper&#45;&gt;HelperTrait -->
<g id="edge46" class="edge"><title>ModelHelper&#45;&gt;HelperTrait</title>
<path fill="none" stroke="black" d="M183.483,-1521.81C205.929,-1520.73 231.081,-1519.52 253.879,-1518.42"/>
<polygon fill="black" stroke="black" points="254.351,-1521.9 264.171,-1517.92 254.014,-1514.91 254.351,-1521.9"/>
</g>
<!-- ServiceHelper -->
<g id="node23" class="node"><title>ServiceHelper</title>
<polygon fill="lightgrey" stroke="black" points="116.188,-1489 29.8865,-1471 116.188,-1453 202.49,-1471 116.188,-1489"/>
<polyline fill="none" stroke="black" points="41.6337,-1473.45 41.6337,-1468.55 "/>
<polyline fill="none" stroke="black" points="104.441,-1455.45 127.935,-1455.45 "/>
<polyline fill="none" stroke="black" points="190.743,-1468.55 190.743,-1473.45 "/>
<polyline fill="none" stroke="black" points="127.935,-1486.55 104.441,-1486.55 "/>
<text text-anchor="middle" x="116.188" y="-1467.3" font-family="Times,serif" font-size="14.00">ServiceHelper</text>
</g>
<!-- ServiceHelper&#45;&gt;Core_App -->
<g id="edge39" class="edge"><title>ServiceHelper&#45;&gt;Core_App</title>
<path fill="none" stroke="black" d="M163.924,-1462.89C221.692,-1452.39 322.745,-1432.52 407.441,-1408 428.24,-1401.98 451.148,-1393.6 468.703,-1386.79"/>
<polygon fill="black" stroke="black" points="470.337,-1389.91 478.363,-1382.99 467.776,-1383.39 470.337,-1389.91"/>
</g>
<!-- ServiceHelper&#45;&gt;HelperTrait -->
<g id="edge47" class="edge"><title>ServiceHelper&#45;&gt;HelperTrait</title>
<path fill="none" stroke="black" d="M159.725,-1480.01C193.43,-1487.15 240.56,-1497.13 275.855,-1504.61"/>
<polygon fill="black" stroke="black" points="275.429,-1508.1 285.937,-1506.74 276.88,-1501.25 275.429,-1508.1"/>
</g>
<!-- ViewHelper -->
<g id="node24" class="node"><title>ViewHelper</title>
<polygon fill="lightgrey" stroke="black" points="116.188,-1435 40.1075,-1417 116.188,-1399 192.269,-1417 116.188,-1435"/>
<polyline fill="none" stroke="black" points="51.7851,-1419.76 51.7851,-1414.24 "/>
<polyline fill="none" stroke="black" points="104.511,-1401.76 127.866,-1401.76 "/>
<polyline fill="none" stroke="black" points="180.591,-1414.24 180.591,-1419.76 "/>
<polyline fill="none" stroke="black" points="127.866,-1432.24 104.511,-1432.24 "/>
<text text-anchor="middle" x="116.188" y="-1413.3" font-family="Times,serif" font-size="14.00">ViewHelper</text>
</g>
<!-- ViewHelper&#45;&gt;Core_App -->
<g id="edge40" class="edge"><title>ViewHelper&#45;&gt;Core_App</title>
<path fill="none" stroke="black" d="M168.528,-1411.34C245.549,-1402.84 389.339,-1386.97 458.594,-1379.33"/>
<polygon fill="black" stroke="black" points="459.096,-1382.8 468.651,-1378.22 458.328,-1375.84 459.096,-1382.8"/>
</g>
<!-- ViewHelper&#45;&gt;HelperTrait -->
<g id="edge48" class="edge"><title>ViewHelper&#45;&gt;HelperTrait</title>
<path fill="none" stroke="black" d="M158.243,-1425.12C176.502,-1429.5 197.983,-1435.73 216.376,-1444 246.879,-1457.71 278.523,-1479.42 299.715,-1495.22"/>
<polygon fill="black" stroke="black" points="297.764,-1498.13 307.849,-1501.38 301.99,-1492.55 297.764,-1498.13"/>
</g>
<!-- HelperTrait&#45;&gt;Core_App -->
<g id="edge42" class="edge"><title>HelperTrait&#45;&gt;Core_App</title>
<path fill="none" stroke="black" d="M361.325,-1505.52C376.359,-1500.36 393.665,-1492.96 407.441,-1483 440.126,-1459.37 468.227,-1421.36 484.084,-1397.31"/>
<polygon fill="black" stroke="black" points="487.072,-1399.13 489.546,-1388.83 481.187,-1395.34 487.072,-1399.13"/>
</g>
<!-- HelperTrait&#45;&gt;Core_SingletonEx -->
<g id="edge41" class="edge"><title>HelperTrait&#45;&gt;Core_SingletonEx</title>
<path fill="none" stroke="black" d="M354.012,-1526.39C419.407,-1552.8 591.544,-1616 741.593,-1616 741.593,-1616 741.593,-1616 999.271,-1616 1174.48,-1616 1341.35,-1454.02 1397.61,-1393.48"/>
<polygon fill="black" stroke="black" points="1400.33,-1395.69 1404.51,-1385.96 1395.17,-1390.96 1400.33,-1395.69"/>
</g>
<!-- HelperTrait&#45;&gt;Core_ExtendableStaticCallTrait -->
<g id="edge43" class="edge"><title>HelperTrait&#45;&gt;Core_ExtendableStaticCallTrait</title>
<path fill="none" stroke="black" d="M374.075,-1521.26C444.145,-1530.55 576.618,-1548.12 661.91,-1559.43"/>
<polygon fill="black" stroke="black" points="661.697,-1562.93 672.07,-1560.78 662.617,-1555.99 661.697,-1562.93"/>
</g>
<!-- Db_Db -->
<g id="node26" class="node"><title>Db_Db</title>
<ellipse fill="none" stroke="black" cx="998.271" cy="-88" rx="27" ry="18"/>
<text text-anchor="middle" x="998.271" y="-84.3" font-family="Times,serif" font-size="14.00">Db</text>
</g>
<!-- Db_DbAdvanceTrait -->
<g id="node27" class="node"><title>Db_DbAdvanceTrait</title>
<polygon fill="none" stroke="black" points="1207.99,-52 1109.79,-34 1207.99,-16 1306.19,-34 1207.99,-52"/>
<text text-anchor="middle" x="1207.99" y="-30.3" font-family="Times,serif" font-size="14.00">DbAdvanceTrait</text>
</g>
<!-- Db_Db&#45;&gt;Db_DbAdvanceTrait -->
<g id="edge49" class="edge"><title>Db_Db&#45;&gt;Db_DbAdvanceTrait</title>
<path fill="none" stroke="black" d="M1023.92,-81.5934C1056.55,-73.11 1114.87,-57.9486 1156.93,-47.0144"/>
<polygon fill="black" stroke="black" points="1157.91,-50.3753 1166.71,-44.4718 1156.15,-43.6004 1157.91,-50.3753"/>
</g>
<!-- Db_DbInterface -->
<g id="node28" class="node"><title>Db_DbInterface</title>
<polygon fill="none" stroke="black" points="1242.49,-106 1167.49,-106 1167.49,-70 1248.49,-70 1248.49,-100 1242.49,-106"/>
<polyline fill="none" stroke="black" points="1242.49,-106 1242.49,-100 "/>
<polyline fill="none" stroke="black" points="1248.49,-100 1242.49,-100 "/>
<text text-anchor="middle" x="1207.99" y="-84.3" font-family="Times,serif" font-size="14.00">DbInterface</text>
</g>
<!-- Db_Db&#45;&gt;Db_DbInterface -->
<g id="edge50" class="edge"><title>Db_Db&#45;&gt;Db_DbInterface</title>
<path fill="none" stroke="black" d="M1025.58,-88C1058.59,-88 1115.88,-88 1157.26,-88"/>
<polygon fill="black" stroke="black" points="1157.42,-91.5001 1167.42,-88 1157.42,-84.5001 1157.42,-91.5001"/>
</g>
<!-- Cache -->
<g id="node29" class="node"><title>Cache</title>
<polygon fill="none" stroke="black" points="769.593,-513 715.593,-513 715.593,-509 711.593,-509 711.593,-505 715.593,-505 715.593,-485 711.593,-485 711.593,-481 715.593,-481 715.593,-477 769.593,-477 769.593,-513"/>
<polyline fill="none" stroke="black" points="715.593,-509 719.593,-509 719.593,-505 715.593,-505 "/>
<polyline fill="none" stroke="black" points="715.593,-485 719.593,-485 719.593,-481 715.593,-481 "/>
<text text-anchor="middle" x="742.593" y="-491.3" font-family="Times,serif" font-size="14.00">Cache</text>
</g>
<!-- Cache&#45;&gt;Core_ComponentBase -->
<g id="edge51" class="edge"><title>Cache&#45;&gt;Core_ComponentBase</title>
<path fill="none" stroke="black" stroke-dasharray="1,5" d="M769.749,-487.824C831.156,-472.705 985.959,-444.895 1073.64,-521 1161.65,-597.387 1196.77,-981.554 1205,-1089.66"/>
<polygon fill="black" stroke="black" points="1201.52,-1090.08 1205.75,-1099.79 1208.5,-1089.56 1201.52,-1090.08"/>
</g>
<!-- CallableView -->
<g id="node30" class="node"><title>CallableView</title>
<polygon fill="none" stroke="black" points="788.093,-999 697.093,-999 697.093,-995 693.093,-995 693.093,-991 697.093,-991 697.093,-971 693.093,-971 693.093,-967 697.093,-967 697.093,-963 788.093,-963 788.093,-999"/>
<polyline fill="none" stroke="black" points="697.093,-995 701.093,-995 701.093,-991 697.093,-991 "/>
<polyline fill="none" stroke="black" points="697.093,-971 701.093,-971 701.093,-967 697.093,-967 "/>
<text text-anchor="middle" x="742.593" y="-977.3" font-family="Times,serif" font-size="14.00">CallableView</text>
</g>
<!-- CallableView&#45;&gt;Core_View -->
<g id="edge66" class="edge"><title>CallableView&#45;&gt;Core_View</title>
<path fill="none" stroke="black" d="M788.222,-977.717C819.671,-977.907 860.689,-983.58 886.901,-1008 932.964,-1050.91 880.461,-1098.5 922.901,-1145 932.885,-1155.94 947.653,-1162.45 961.403,-1166.33"/>
<polygon fill="black" stroke="black" points="960.608,-1169.74 971.153,-1168.71 962.269,-1162.94 960.608,-1169.74"/>
</g>
<!-- DbManager -->
<g id="node31" class="node"><title>DbManager</title>
<polygon fill="none" stroke="black" points="783.593,-189 701.593,-189 701.593,-185 697.593,-185 697.593,-181 701.593,-181 701.593,-161 697.593,-161 697.593,-157 701.593,-157 701.593,-153 783.593,-153 783.593,-189"/>
<polyline fill="none" stroke="black" points="701.593,-185 705.593,-185 705.593,-181 701.593,-181 "/>
<polyline fill="none" stroke="black" points="701.593,-161 705.593,-161 705.593,-157 701.593,-157 "/>
<text text-anchor="middle" x="742.593" y="-167.3" font-family="Times,serif" font-size="14.00">DbManager</text>
</g>
<!-- DbManager&#45;&gt;Core_ComponentBase -->
<g id="edge52" class="edge"><title>DbManager&#45;&gt;Core_ComponentBase</title>
<path fill="none" stroke="black" stroke-dasharray="1,5" d="M783.636,-160.658C852.806,-145.445 994.814,-126.3 1073.64,-201 1205.95,-326.383 1208.51,-948.34 1207.35,-1089.48"/>
<polygon fill="black" stroke="black" points="1203.85,-1089.84 1207.25,-1099.87 1210.85,-1089.9 1203.85,-1089.84"/>
</g>
<!-- DbManager&#45;&gt;Db_Db -->
<g id="edge68" class="edge"><title>DbManager&#45;&gt;Db_Db</title>
<path fill="none" stroke="black" d="M783.789,-157.848C833.639,-141.538 917.692,-114.037 964.064,-98.865"/>
<polygon fill="black" stroke="black" points="965.219,-102.17 973.635,-95.7336 963.042,-95.5168 965.219,-102.17"/>
</g>
<!-- EmptyView -->
<g id="node32" class="node"><title>EmptyView</title>
<polygon fill="none" stroke="black" points="784.093,-1053 701.093,-1053 701.093,-1049 697.093,-1049 697.093,-1045 701.093,-1045 701.093,-1025 697.093,-1025 697.093,-1021 701.093,-1021 701.093,-1017 784.093,-1017 784.093,-1053"/>
<polyline fill="none" stroke="black" points="701.093,-1049 705.093,-1049 705.093,-1045 701.093,-1045 "/>
<polyline fill="none" stroke="black" points="701.093,-1025 705.093,-1025 705.093,-1021 701.093,-1021 "/>
<text text-anchor="middle" x="742.593" y="-1031.3" font-family="Times,serif" font-size="14.00">EmptyView</text>
</g>
<!-- EmptyView&#45;&gt;Core_View -->
<g id="edge67" class="edge"><title>EmptyView&#45;&gt;Core_View</title>
<path fill="none" stroke="black" d="M784.199,-1042.6C815.007,-1050 857.013,-1063.79 886.901,-1088 910.183,-1106.86 899.562,-1126.21 922.901,-1145 933.984,-1153.92 948.276,-1160.05 961.365,-1164.17"/>
<polygon fill="black" stroke="black" points="960.488,-1167.56 971.066,-1166.95 962.417,-1160.84 960.488,-1167.56"/>
</g>
<!-- EventManager -->
<g id="node33" class="node"><title>EventManager</title>
<polygon fill="none" stroke="black" points="791.093,-459 694.093,-459 694.093,-455 690.093,-455 690.093,-451 694.093,-451 694.093,-431 690.093,-431 690.093,-427 694.093,-427 694.093,-423 791.093,-423 791.093,-459"/>
<polyline fill="none" stroke="black" points="694.093,-455 698.093,-455 698.093,-451 694.093,-451 "/>
<polyline fill="none" stroke="black" points="694.093,-431 698.093,-431 698.093,-427 694.093,-427 "/>
<text text-anchor="middle" x="742.593" y="-437.3" font-family="Times,serif" font-size="14.00">EventManager</text>
</g>
<!-- EventManager&#45;&gt;Core_ComponentBase -->
<g id="edge53" class="edge"><title>EventManager&#45;&gt;Core_ComponentBase</title>
<path fill="none" stroke="black" stroke-dasharray="1,5" d="M791.355,-429.121C862.326,-414.578 995.615,-399.678 1073.64,-469 1168.71,-553.465 1199.04,-976.202 1205.53,-1089.84"/>
<polygon fill="black" stroke="black" points="1202.04,-1090.06 1206.09,-1099.85 1209.03,-1089.67 1202.04,-1090.06"/>
</g>
<!-- FacadesAutoLoader -->
<g id="node34" class="node"><title>FacadesAutoLoader</title>
<polygon fill="none" stroke="black" points="1060.77,-790 935.771,-790 935.771,-786 931.771,-786 931.771,-782 935.771,-782 935.771,-762 931.771,-762 931.771,-758 935.771,-758 935.771,-754 1060.77,-754 1060.77,-790"/>
<polyline fill="none" stroke="black" points="935.771,-786 939.771,-786 939.771,-782 935.771,-782 "/>
<polyline fill="none" stroke="black" points="935.771,-762 939.771,-762 939.771,-758 935.771,-758 "/>
<text text-anchor="middle" x="998.271" y="-768.3" font-family="Times,serif" font-size="14.00">FacadesAutoLoader</text>
</g>
<!-- FacadesAutoLoader&#45;&gt;Core_ComponentBase -->
<g id="edge54" class="edge"><title>FacadesAutoLoader&#45;&gt;Core_ComponentBase</title>
<path fill="none" stroke="black" stroke-dasharray="1,5" d="M1026.6,-790.226C1041.9,-801.468 1060.49,-816.968 1073.64,-834 1137.93,-917.27 1181.11,-1036.53 1198.44,-1090.09"/>
<polygon fill="black" stroke="black" points="1195.2,-1091.43 1201.57,-1099.9 1201.87,-1089.3 1195.2,-1091.43"/>
</g>
<!-- FacadesBase -->
<g id="node35" class="node"><title>FacadesBase</title>
<ellipse fill="none" stroke="black" cx="742.593" cy="-657" rx="55.7903" ry="18"/>
<text text-anchor="middle" x="742.593" y="-653.3" font-family="Times,serif" font-size="14.00">FacadesBase</text>
</g>
<!-- FacadesBase&#45;&gt;FacadesAutoLoader -->
<g id="edge69" class="edge"><title>FacadesBase&#45;&gt;FacadesAutoLoader</title>
<path fill="none" stroke="black" d="M797.201,-660.873C824.957,-664.398 858.821,-671.133 886.901,-684 920.037,-699.184 951.926,-726.429 972.831,-746.595"/>
<polygon fill="black" stroke="black" points="970.436,-749.148 980.018,-753.669 975.346,-744.159 970.436,-749.148"/>
</g>
<!-- JsonRpcClientBase -->
<g id="node36" class="node"><title>JsonRpcClientBase</title>
<ellipse fill="none" stroke="black" cx="742.593" cy="-765" rx="79.0865" ry="18"/>
<text text-anchor="middle" x="742.593" y="-761.3" font-family="Times,serif" font-size="14.00">JsonRpcClientBase</text>
</g>
<!-- JsonRpcExt -->
<g id="node37" class="node"><title>JsonRpcExt</title>
<polygon fill="none" stroke="black" points="1038.77,-950 957.771,-950 957.771,-946 953.771,-946 953.771,-942 957.771,-942 957.771,-922 953.771,-922 953.771,-918 957.771,-918 957.771,-914 1038.77,-914 1038.77,-950"/>
<polyline fill="none" stroke="black" points="957.771,-946 961.771,-946 961.771,-942 957.771,-942 "/>
<polyline fill="none" stroke="black" points="957.771,-922 961.771,-922 961.771,-918 957.771,-918 "/>
<text text-anchor="middle" x="998.271" y="-928.3" font-family="Times,serif" font-size="14.00">JsonRpcExt</text>
</g>
<!-- JsonRpcClientBase&#45;&gt;JsonRpcExt -->
<g id="edge70" class="edge"><title>JsonRpcClientBase&#45;&gt;JsonRpcExt</title>
<path fill="none" stroke="black" d="M821.985,-765.47C845.038,-769.141 868.879,-776.847 886.901,-792 921.779,-821.325 893.626,-853.079 922.901,-888 930.058,-896.538 939.322,-903.825 948.867,-909.869"/>
<polygon fill="black" stroke="black" points="947.271,-912.991 957.66,-915.07 950.835,-906.966 947.271,-912.991"/>
</g>
<!-- JsonRpcExt&#45;&gt;Core_ComponentBase -->
<g id="edge55" class="edge"><title>JsonRpcExt&#45;&gt;Core_ComponentBase</title>
<path fill="none" stroke="black" stroke-dasharray="1,5" d="M1037.83,-950.195C1049.82,-956.641 1062.74,-964.442 1073.64,-973 1119.13,-1008.71 1162.71,-1060.51 1187.05,-1091.56"/>
<polygon fill="black" stroke="black" points="1184.5,-1093.98 1193.39,-1099.74 1190.03,-1089.69 1184.5,-1093.98"/>
</g>
<!-- Misc -->
<g id="node38" class="node"><title>Misc</title>
<polygon fill="none" stroke="black" points="769.593,-405 715.593,-405 715.593,-401 711.593,-401 711.593,-397 715.593,-397 715.593,-377 711.593,-377 711.593,-373 715.593,-373 715.593,-369 769.593,-369 769.593,-405"/>
<polyline fill="none" stroke="black" points="715.593,-401 719.593,-401 719.593,-397 715.593,-397 "/>
<polyline fill="none" stroke="black" points="715.593,-377 719.593,-377 719.593,-373 715.593,-373 "/>
<text text-anchor="middle" x="742.593" y="-383.3" font-family="Times,serif" font-size="14.00">Misc</text>
</g>
<!-- Misc&#45;&gt;Core_ComponentBase -->
<g id="edge56" class="edge"><title>Misc&#45;&gt;Core_ComponentBase</title>
<path fill="none" stroke="black" stroke-dasharray="1,5" d="M769.625,-385.431C839.579,-381.792 1029.33,-375.917 1073.64,-416 1175.9,-508.506 1201.12,-969.736 1205.98,-1089.53"/>
<polygon fill="black" stroke="black" points="1202.5,-1089.88 1206.38,-1099.73 1209.49,-1089.6 1202.5,-1089.88"/>
</g>
<!-- Pager -->
<g id="node39" class="node"><title>Pager</title>
<polygon fill="none" stroke="black" points="769.593,-621 715.593,-621 715.593,-617 711.593,-617 711.593,-613 715.593,-613 715.593,-593 711.593,-593 711.593,-589 715.593,-589 715.593,-585 769.593,-585 769.593,-621"/>
<polyline fill="none" stroke="black" points="715.593,-617 719.593,-617 719.593,-613 715.593,-613 "/>
<polyline fill="none" stroke="black" points="715.593,-593 719.593,-593 719.593,-589 715.593,-589 "/>
<text text-anchor="middle" x="742.593" y="-599.3" font-family="Times,serif" font-size="14.00">Pager</text>
</g>
<!-- Pager&#45;&gt;Core_ComponentBase -->
<g id="edge57" class="edge"><title>Pager&#45;&gt;Core_ComponentBase</title>
<path fill="none" stroke="black" stroke-dasharray="1,5" d="M769.901,-595.295C830.962,-579.157 983.921,-549.025 1073.64,-622 1148.33,-682.746 1191.89,-993.892 1203.7,-1089.81"/>
<polygon fill="black" stroke="black" points="1200.25,-1090.41 1204.93,-1099.92 1207.2,-1089.57 1200.25,-1090.41"/>
</g>
<!-- PagerInterface -->
<g id="node40" class="node"><title>PagerInterface</title>
<polygon fill="none" stroke="black" points="1039.77,-667 950.771,-667 950.771,-631 1045.77,-631 1045.77,-661 1039.77,-667"/>
<polyline fill="none" stroke="black" points="1039.77,-667 1039.77,-661 "/>
<polyline fill="none" stroke="black" points="1045.77,-661 1039.77,-661 "/>
<text text-anchor="middle" x="998.271" y="-645.3" font-family="Times,serif" font-size="14.00">PagerInterface</text>
</g>
<!-- Pager&#45;&gt;PagerInterface -->
<g id="edge71" class="edge"><title>Pager&#45;&gt;PagerInterface</title>
<path fill="none" stroke="black" d="M769.785,-607.75C809.864,-615.017 887.358,-629.069 940.672,-638.737"/>
<polygon fill="black" stroke="black" points="940.198,-642.208 950.662,-640.548 941.447,-635.32 940.198,-642.208"/>
</g>
<!-- RedisManager -->
<g id="node41" class="node"><title>RedisManager</title>
<polygon fill="none" stroke="black" points="790.593,-351 694.593,-351 694.593,-347 690.593,-347 690.593,-343 694.593,-343 694.593,-323 690.593,-323 690.593,-319 694.593,-319 694.593,-315 790.593,-315 790.593,-351"/>
<polyline fill="none" stroke="black" points="694.593,-347 698.593,-347 698.593,-343 694.593,-343 "/>
<polyline fill="none" stroke="black" points="694.593,-323 698.593,-323 698.593,-319 694.593,-319 "/>
<text text-anchor="middle" x="742.593" y="-329.3" font-family="Times,serif" font-size="14.00">RedisManager</text>
</g>
<!-- RedisManager&#45;&gt;Core_ComponentBase -->
<g id="edge58" class="edge"><title>RedisManager&#45;&gt;Core_ComponentBase</title>
<path fill="none" stroke="black" stroke-dasharray="1,5" d="M790.795,-324.442C862.265,-314.447 997.639,-307.581 1073.64,-381 1178.04,-481.848 1201.77,-967.346 1206.13,-1089.87"/>
<polygon fill="black" stroke="black" points="1202.63,-1090.08 1206.47,-1099.95 1209.63,-1089.84 1202.63,-1090.08"/>
</g>
<!-- RedisCache -->
<g id="node42" class="node"><title>RedisCache</title>
<polygon fill="none" stroke="black" points="783.093,-297 702.093,-297 702.093,-293 698.093,-293 698.093,-289 702.093,-289 702.093,-269 698.093,-269 698.093,-265 702.093,-265 702.093,-261 783.093,-261 783.093,-297"/>
<polyline fill="none" stroke="black" points="702.093,-293 706.093,-293 706.093,-289 702.093,-289 "/>
<polyline fill="none" stroke="black" points="702.093,-269 706.093,-269 706.093,-265 702.093,-265 "/>
<text text-anchor="middle" x="742.593" y="-275.3" font-family="Times,serif" font-size="14.00">RedisCache</text>
</g>
<!-- RedisCache&#45;&gt;Core_ComponentBase -->
<g id="edge59" class="edge"><title>RedisCache&#45;&gt;Core_ComponentBase</title>
<path fill="none" stroke="black" stroke-dasharray="1,5" d="M783.364,-270.152C852.435,-257.351 994.72,-242.744 1073.64,-318 1188.01,-427.052 1204.34,-959.88 1206.63,-1089.53"/>
<polygon fill="black" stroke="black" points="1203.13,-1089.87 1206.79,-1099.81 1210.13,-1089.76 1203.13,-1089.87"/>
</g>
<!-- RouteHookDirectoryMode -->
<g id="node43" class="node"><title>RouteHookDirectoryMode</title>
<polygon fill="none" stroke="black" points="824.093,-243 661.093,-243 661.093,-239 657.093,-239 657.093,-235 661.093,-235 661.093,-215 657.093,-215 657.093,-211 661.093,-211 661.093,-207 824.093,-207 824.093,-243"/>
<polyline fill="none" stroke="black" points="661.093,-239 665.093,-239 665.093,-235 661.093,-235 "/>
<polyline fill="none" stroke="black" points="661.093,-215 665.093,-215 665.093,-211 661.093,-211 "/>
<text text-anchor="middle" x="742.593" y="-221.3" font-family="Times,serif" font-size="14.00">RouteHookDirectoryMode</text>
</g>
<!-- RouteHookDirectoryMode&#45;&gt;Core_ComponentBase -->
<g id="edge60" class="edge"><title>RouteHookDirectoryMode&#45;&gt;Core_ComponentBase</title>
<path fill="none" stroke="black" stroke-dasharray="1,5" d="M824.403,-208.043C899.087,-197.495 1008.11,-195.925 1073.64,-258 1197.4,-375.232 1206.59,-954.002 1207.03,-1089.56"/>
<polygon fill="black" stroke="black" points="1203.53,-1089.93 1207.05,-1099.92 1210.53,-1089.91 1203.53,-1089.93"/>
</g>
<!-- RouteHookManager -->
<g id="node44" class="node"><title>RouteHookManager</title>
<polygon fill="none" stroke="black" points="806.593,-567 678.593,-567 678.593,-563 674.593,-563 674.593,-559 678.593,-559 678.593,-539 674.593,-539 674.593,-535 678.593,-535 678.593,-531 806.593,-531 806.593,-567"/>
<polyline fill="none" stroke="black" points="678.593,-563 682.593,-563 682.593,-559 678.593,-559 "/>
<polyline fill="none" stroke="black" points="678.593,-539 682.593,-539 682.593,-535 678.593,-535 "/>
<text text-anchor="middle" x="742.593" y="-545.3" font-family="Times,serif" font-size="14.00">RouteHookManager</text>
</g>
<!-- RouteHookManager&#45;&gt;Core_ComponentBase -->
<g id="edge61" class="edge"><title>RouteHookManager&#45;&gt;Core_ComponentBase</title>
<path fill="none" stroke="black" stroke-dasharray="1,5" d="M806.649,-533.423C879.714,-519.421 999.533,-509.526 1073.64,-572 1154.89,-640.494 1194.42,-987.693 1204.4,-1089.75"/>
<polygon fill="black" stroke="black" points="1200.93,-1090.28 1205.37,-1099.9 1207.9,-1089.62 1200.93,-1090.28"/>
</g>
<!-- RouteHookPathInfoByGet -->
<g id="node45" class="node"><title>RouteHookPathInfoByGet</title>
<polygon fill="none" stroke="black" points="823.093,-837 662.093,-837 662.093,-833 658.093,-833 658.093,-829 662.093,-829 662.093,-809 658.093,-809 658.093,-805 662.093,-805 662.093,-801 823.093,-801 823.093,-837"/>
<polyline fill="none" stroke="black" points="662.093,-833 666.093,-833 666.093,-829 662.093,-829 "/>
<polyline fill="none" stroke="black" points="662.093,-809 666.093,-809 666.093,-805 662.093,-805 "/>
<text text-anchor="middle" x="742.593" y="-815.3" font-family="Times,serif" font-size="14.00">RouteHookPathInfoByGet</text>
</g>
<!-- RouteHookPathInfoByGet&#45;&gt;Core_ComponentBase -->
<g id="edge62" class="edge"><title>RouteHookPathInfoByGet&#45;&gt;Core_ComponentBase</title>
<path fill="none" stroke="black" stroke-dasharray="1,5" d="M823.2,-819.043C846.041,-822.739 869.456,-830.566 886.901,-846 926.378,-880.926 884.952,-922.419 922.901,-959 972.972,-1007.27 1012.47,-967.904 1073.64,-1001 1117.77,-1024.88 1159.74,-1065.75 1184.43,-1092.31"/>
<polygon fill="black" stroke="black" points="1181.88,-1094.72 1191.22,-1099.73 1187.05,-1089.99 1181.88,-1094.72"/>
</g>
<!-- RouteHookRewrite -->
<g id="node46" class="node"><title>RouteHookRewrite</title>
<polygon fill="none" stroke="black" points="803.593,-945 681.593,-945 681.593,-941 677.593,-941 677.593,-937 681.593,-937 681.593,-917 677.593,-917 677.593,-913 681.593,-913 681.593,-909 803.593,-909 803.593,-945"/>
<polyline fill="none" stroke="black" points="681.593,-941 685.593,-941 685.593,-937 681.593,-937 "/>
<polyline fill="none" stroke="black" points="681.593,-917 685.593,-917 685.593,-913 681.593,-913 "/>
<text text-anchor="middle" x="742.593" y="-923.3" font-family="Times,serif" font-size="14.00">RouteHookRewrite</text>
</g>
<!-- RouteHookRewrite&#45;&gt;Core_ComponentBase -->
<g id="edge63" class="edge"><title>RouteHookRewrite&#45;&gt;Core_ComponentBase</title>
<path fill="none" stroke="black" stroke-dasharray="1,5" d="M803.836,-925.604C831.81,-927.914 863.888,-935.149 886.901,-954 919.908,-981.039 890.886,-1014.79 922.901,-1043 939.624,-1057.73 1065.93,-1087.31 1144.39,-1104.59"/>
<polygon fill="black" stroke="black" points="1143.67,-1108.01 1154.19,-1106.74 1145.17,-1101.18 1143.67,-1108.01"/>
</g>
<!-- RouteHookRouteMap -->
<g id="node47" class="node"><title>RouteHookRouteMap</title>
<polygon fill="none" stroke="black" points="811.093,-891 674.093,-891 674.093,-887 670.093,-887 670.093,-883 674.093,-883 674.093,-863 670.093,-863 670.093,-859 674.093,-859 674.093,-855 811.093,-855 811.093,-891"/>
<polyline fill="none" stroke="black" points="674.093,-887 678.093,-887 678.093,-883 674.093,-883 "/>
<polyline fill="none" stroke="black" points="674.093,-863 678.093,-863 678.093,-859 674.093,-859 "/>
<text text-anchor="middle" x="742.593" y="-869.3" font-family="Times,serif" font-size="14.00">RouteHookRouteMap</text>
</g>
<!-- RouteHookRouteMap&#45;&gt;Core_ComponentBase -->
<g id="edge64" class="edge"><title>RouteHookRouteMap&#45;&gt;Core_ComponentBase</title>
<path fill="none" stroke="black" stroke-dasharray="1,5" d="M811.43,-871.863C837.63,-874.722 866.213,-882.315 886.901,-900 923.124,-930.966 888.034,-968.514 922.901,-1001 973.785,-1048.41 1009.37,-1016.43 1073.64,-1043 1107.9,-1057.16 1144.43,-1078.17 1170.58,-1094.35"/>
<polygon fill="black" stroke="black" points="1169.04,-1097.52 1179.37,-1099.86 1172.75,-1091.58 1169.04,-1097.52"/>
</g>
<!-- StrictCheck -->
<g id="node48" class="node"><title>StrictCheck</title>
<polygon fill="none" stroke="black" points="1038.27,-879 958.271,-879 958.271,-875 954.271,-875 954.271,-871 958.271,-871 958.271,-851 954.271,-851 954.271,-847 958.271,-847 958.271,-843 1038.27,-843 1038.27,-879"/>
<polyline fill="none" stroke="black" points="958.271,-875 962.271,-875 962.271,-871 958.271,-871 "/>
<polyline fill="none" stroke="black" points="958.271,-851 962.271,-851 962.271,-847 958.271,-847 "/>
<text text-anchor="middle" x="998.271" y="-857.3" font-family="Times,serif" font-size="14.00">StrictCheck</text>
</g>
<!-- StrictCheck&#45;&gt;Core_ComponentBase -->
<g id="edge65" class="edge"><title>StrictCheck&#45;&gt;Core_ComponentBase</title>
<path fill="none" stroke="black" stroke-dasharray="1,5" d="M1037.64,-879.078C1050.02,-886.063 1063.22,-894.84 1073.64,-905 1131.28,-961.212 1175.12,-1047.07 1195.1,-1090.62"/>
<polygon fill="black" stroke="black" points="1191.91,-1092.07 1199.22,-1099.74 1198.29,-1089.19 1191.91,-1092.07"/>
</g>
<!-- StrictCheckObjectTrait -->
<g id="node49" class="node"><title>StrictCheckObjectTrait</title>
<polygon fill="none" stroke="black" points="742.593,-729 611.214,-711 742.593,-693 873.972,-711 742.593,-729"/>
<text text-anchor="middle" x="742.593" y="-707.3" font-family="Times,serif" font-size="14.00">StrictCheckObjectTrait</text>
</g>
<!-- StrictCheckObjectTrait&#45;&gt;StrictCheck -->
<g id="edge72" class="edge"><title>StrictCheckObjectTrait&#45;&gt;StrictCheck</title>
<path fill="none" stroke="black" d="M835.396,-716.39C853.619,-720.626 871.772,-727.383 886.901,-738 912.668,-756.084 902.512,-775.014 922.901,-799 934.621,-812.789 949.636,-825.945 963.102,-836.562"/>
<polygon fill="black" stroke="black" points="961.184,-839.502 971.243,-842.827 965.453,-833.954 961.184,-839.502"/>
</g>
<!-- HttpServer -->
<g id="node50" class="node"><title>HttpServer</title>
<polygon fill="lightgrey" stroke="black" points="325.909,-842 256.197,-824 325.909,-806 395.621,-824 325.909,-842"/>
<polyline fill="none" stroke="black" points="267.816,-827 267.816,-821 "/>
<polyline fill="none" stroke="black" points="314.29,-809 337.528,-809 "/>
<polyline fill="none" stroke="black" points="384.002,-821 384.002,-827 "/>
<polyline fill="none" stroke="black" points="337.528,-839 314.29,-839 "/>
<text text-anchor="middle" x="325.909" y="-820.3" font-family="Times,serif" font-size="14.00">HttpServer</text>
</g>
<!-- HttpServer&#45;&gt;Core_HttpServer -->
<g id="edge73" class="edge"><title>HttpServer&#45;&gt;Core_HttpServer</title>
<path fill="none" stroke="black" d="M336.722,-839.307C368.021,-886.596 470.939,-1030.62 598.285,-1088 711.93,-1139.21 862.291,-1133.37 942.058,-1125.29"/>
<polygon fill="black" stroke="black" points="942.791,-1128.74 952.365,-1124.2 942.051,-1121.78 942.791,-1128.74"/>
</g>
<!-- DuckPhp -->
<g id="node51" class="node"><title>DuckPhp</title>
<polygon fill="lightgrey" stroke="black" points="325.909,-788 264.242,-770 325.909,-752 387.576,-770 325.909,-788"/>
<polyline fill="none" stroke="black" points="275.761,-773.362 275.761,-766.638 "/>
<polyline fill="none" stroke="black" points="314.39,-755.362 337.428,-755.362 "/>
<polyline fill="none" stroke="black" points="376.057,-766.638 376.057,-773.362 "/>
<polyline fill="none" stroke="black" points="337.428,-784.638 314.39,-784.638 "/>
<text text-anchor="middle" x="325.909" y="-766.3" font-family="Times,serif" font-size="14.00">DuckPhp</text>
</g>
<!-- DuckPhp&#45;&gt;Core_App -->
<g id="edge74" class="edge"><title>DuckPhp&#45;&gt;Core_App</title>
<path fill="none" stroke="black" d="M371.145,-774.962C384.917,-778.788 398.754,-785.451 407.441,-797 438.862,-838.771 411.488,-1217.22 427.441,-1267 438.37,-1301.1 463.136,-1334.75 480.181,-1355.2"/>
<polygon fill="black" stroke="black" points="477.574,-1357.54 486.729,-1362.87 482.896,-1352.99 477.574,-1357.54"/>
</g>
<!-- DuckPhp&#45;&gt;Cache -->
<g id="edge80" class="edge"><title>DuckPhp&#45;&gt;Cache</title>
<path fill="none" stroke="black" d="M337.449,-755.033C370.066,-710.099 474.633,-576.146 598.285,-522 632.827,-506.875 675.683,-500.21 705.488,-497.281"/>
<polygon fill="black" stroke="black" points="705.802,-500.767 715.451,-496.393 705.18,-493.795 705.802,-500.767"/>
</g>
<!-- DuckPhp&#45;&gt;DbManager -->
<g id="edge77" class="edge"><title>DuckPhp&#45;&gt;DbManager</title>
<path fill="none" stroke="black" d="M328.901,-752.69C339.135,-672.625 393.552,-336.24 598.285,-198 625.501,-179.624 661.927,-172.937 691.243,-170.813"/>
<polygon fill="black" stroke="black" points="691.505,-174.304 701.289,-170.24 691.106,-167.315 691.505,-174.304"/>
</g>
<!-- DuckPhp&#45;&gt;EventManager -->
<g id="edge78" class="edge"><title>DuckPhp&#45;&gt;EventManager</title>
<path fill="none" stroke="black" d="M329.937,-752.901C338.163,-711.205 364.655,-603.17 427.441,-541 496.979,-472.145 613.758,-450.657 683.66,-443.979"/>
<polygon fill="black" stroke="black" points="684.388,-447.429 694.042,-443.064 683.773,-440.456 684.388,-447.429"/>
</g>
<!-- DuckPhp&#45;&gt;Pager -->
<g id="edge76" class="edge"><title>DuckPhp&#45;&gt;Pager</title>
<path fill="none" stroke="black" d="M349.016,-758.735C390.766,-737.44 484.045,-689.756 562.285,-649 578.33,-640.642 581.205,-635.964 598.285,-630 633.517,-617.699 675.687,-610.612 705.125,-606.813"/>
<polygon fill="black" stroke="black" points="705.858,-610.249 715.358,-605.559 705.006,-603.301 705.858,-610.249"/>
</g>
<!-- DuckPhp&#45;&gt;RouteHookPathInfoByGet -->
<g id="edge79" class="edge"><title>DuckPhp&#45;&gt;RouteHookPathInfoByGet</title>
<path fill="none" stroke="black" d="M370.114,-775.105C436.462,-782.945 564.878,-798.119 651.926,-808.405"/>
<polygon fill="black" stroke="black" points="651.723,-811.905 662.065,-809.603 652.544,-804.953 651.723,-811.905"/>
</g>
<!-- DuckPhp&#45;&gt;RouteHookRouteMap -->
<g id="edge75" class="edge"><title>DuckPhp&#45;&gt;RouteHookRouteMap</title>
<path fill="none" stroke="black" d="M356.124,-779.35C371.473,-784.375 390.554,-790.797 407.441,-797 416.428,-800.301 418.318,-802.098 427.441,-805 501.853,-828.674 521.928,-829.655 598.285,-846 619.55,-850.552 642.679,-855.089 664.027,-859.109"/>
<polygon fill="black" stroke="black" points="663.548,-862.58 674.021,-860.978 664.835,-855.699 663.548,-862.58"/>
</g>
</g>
</svg>
