<?xml version="1.0" encoding="UTF-8" standalone="no"?>
<!DOCTYPE svg PUBLIC "-//W3C//DTD SVG 1.1//EN"
 "http://www.w3.org/Graphics/SVG/1.1/DTD/svg11.dtd">
<!-- Generated by graphviz version 2.38.0 (20140413.2041)
 -->
<!-- Title: gDuckPhp Pages: 1 -->
<svg width="1441pt" height="1772pt"
 viewBox="0.00 0.00 1441.03 1772.00" xmlns="http://www.w3.org/2000/svg" xmlns:xlink="http://www.w3.org/1999/xlink">
<g id="graph0" class="graph" transform="scale(1 1) rotate(0) translate(4 1768)">
<title>gDuckPhp</title>
<polygon fill="white" stroke="none" points="-4,4 -4,-1768 1437.03,-1768 1437.03,4 -4,4"/>
<g id="clust1" class="cluster"><title>cluster_SingletonEx</title>
<polygon fill="none" stroke="black" points="31.8981,-649 31.8981,-724 200.478,-724 200.478,-649 31.8981,-649"/>
<text text-anchor="middle" x="116.188" y="-708.8" font-family="Times,serif" font-size="14.00">[DuckPhp\SingletonEx]</text>
</g>
<g id="clust2" class="cluster"><title>cluster_Core</title>
<polygon fill="none" stroke="black" points="427.441,-1283 427.441,-1756 1425.03,-1756 1425.03,-1283 427.441,-1283"/>
<text text-anchor="middle" x="926.236" y="-1740.8" font-family="Times,serif" font-size="14.00">[DuckPhp\Core]</text>
</g>
<g id="clust3" class="cluster"><title>cluster_Helper</title>
<polygon fill="none" stroke="black" points="8,-1360 8,-1651 407.441,-1651 407.441,-1360 8,-1360"/>
<text text-anchor="middle" x="207.721" y="-1635.8" font-family="Times,serif" font-size="14.00">[DuckPhp\Helper]</text>
</g>
<g id="clust4" class="cluster"><title>cluster_Db</title>
<polygon fill="none" stroke="black" points="906.628,-8 906.628,-137 1261.03,-137 1261.03,-8 906.628,-8"/>
<text text-anchor="middle" x="1083.83" y="-121.8" font-family="Times,serif" font-size="14.00">[DuckPhp\Db]</text>
</g>
<g id="clust5" class="cluster"><title>cluster_HttpServer</title>
<polygon fill="none" stroke="black" points="867.104,-145 867.104,-220 1022.82,-220 1022.82,-145 867.104,-145"/>
<text text-anchor="middle" x="944.96" y="-204.8" font-family="Times,serif" font-size="14.00">[DuckPhp\HttpServer]</text>
</g>
<g id="clust6" class="cluster"><title>cluster_Ext</title>
<polygon fill="none" stroke="black" points="596.782,-228 596.782,-1275 1015.46,-1275 1015.46,-228 596.782,-228"/>
<text text-anchor="middle" x="806.121" y="-1259.8" font-family="Times,serif" font-size="14.00">[DuckPhp\Ext]</text>
</g>
<g id="clust7" class="cluster"><title>cluster_DuckPhp</title>
<polygon fill="none" stroke="black" points="256.325,-644 256.325,-719 395.492,-719 395.492,-644 256.325,-644"/>
<text text-anchor="middle" x="325.909" y="-703.8" font-family="Times,serif" font-size="14.00">[DuckPhp]</text>
</g>
<g id="clust8" class="cluster"><title>cluster_ThrowOn</title>
<polygon fill="none" stroke="black" points="44.7663,-1676 44.7663,-1751 187.61,-1751 187.61,-1676 44.7663,-1676"/>
<text text-anchor="middle" x="116.188" y="-1735.8" font-family="Times,serif" font-size="14.00">[DuckPhp\ThrowOn]</text>
</g>
<!-- SingletonEx -->
<g id="node1" class="node"><title>SingletonEx</title>
<polygon fill="lightgrey" stroke="black" points="116.188,-693 40.1075,-675 116.188,-657 192.269,-675 116.188,-693"/>
<polyline fill="none" stroke="black" points="51.7851,-677.763 51.7851,-672.237 "/>
<polyline fill="none" stroke="black" points="104.511,-659.763 127.866,-659.763 "/>
<polyline fill="none" stroke="black" points="180.591,-672.237 180.591,-677.763 "/>
<polyline fill="none" stroke="black" points="127.866,-690.237 104.511,-690.237 "/>
<text text-anchor="middle" x="116.188" y="-671.3" font-family="Times,serif" font-size="14.00">SingletonEx</text>
</g>
<!-- Core_AppPluginTrait -->
<g id="node2" class="node"><title>Core_AppPluginTrait</title>
<polygon fill="none" stroke="black" points="689.282,-1475 596.612,-1457 689.282,-1439 781.952,-1457 689.282,-1475"/>
<text text-anchor="middle" x="689.282" y="-1453.3" font-family="Times,serif" font-size="14.00">AppPluginTrait</text>
</g>
<!-- Core_View -->
<g id="node7" class="node"><title>Core_View</title>
<polygon fill="none" stroke="black" points="971.96,-1327 917.96,-1327 917.96,-1323 913.96,-1323 913.96,-1319 917.96,-1319 917.96,-1299 913.96,-1299 913.96,-1295 917.96,-1295 917.96,-1291 971.96,-1291 971.96,-1327"/>
<polyline fill="none" stroke="black" points="917.96,-1323 921.96,-1323 921.96,-1319 917.96,-1319 "/>
<polyline fill="none" stroke="black" points="917.96,-1299 921.96,-1299 921.96,-1295 917.96,-1295 "/>
<text text-anchor="middle" x="944.96" y="-1305.3" font-family="Times,serif" font-size="14.00">View</text>
</g>
<!-- Core_AppPluginTrait&#45;&gt;Core_View -->
<g id="edge23" class="edge"><title>Core_AppPluginTrait&#45;&gt;Core_View</title>
<path fill="none" stroke="black" d="M745.316,-1449.84C774.489,-1443.57 809.227,-1431.86 833.589,-1410 860.464,-1385.89 840.483,-1360.39 867.104,-1336 878.348,-1325.7 893.756,-1319.28 907.824,-1315.31"/>
<polygon fill="black" stroke="black" points="908.9,-1318.65 917.753,-1312.83 907.202,-1311.86 908.9,-1318.65"/>
</g>
<!-- Core_Configer -->
<g id="node8" class="node"><title>Core_Configer</title>
<polygon fill="none" stroke="black" points="977.46,-1381 912.46,-1381 912.46,-1377 908.46,-1377 908.46,-1373 912.46,-1373 912.46,-1353 908.46,-1353 908.46,-1349 912.46,-1349 912.46,-1345 977.46,-1345 977.46,-1381"/>
<polyline fill="none" stroke="black" points="912.46,-1377 916.46,-1377 916.46,-1373 912.46,-1373 "/>
<polyline fill="none" stroke="black" points="912.46,-1353 916.46,-1353 916.46,-1349 912.46,-1349 "/>
<text text-anchor="middle" x="944.96" y="-1359.3" font-family="Times,serif" font-size="14.00">Configer</text>
</g>
<!-- Core_AppPluginTrait&#45;&gt;Core_Configer -->
<g id="edge22" class="edge"><title>Core_AppPluginTrait&#45;&gt;Core_Configer</title>
<path fill="none" stroke="black" d="M752.403,-1451.21C778.724,-1446.76 808.94,-1438.9 833.589,-1425 852.35,-1414.42 849.001,-1401.67 867.104,-1390 877.785,-1383.12 890.435,-1377.74 902.356,-1373.66"/>
<polygon fill="black" stroke="black" points="903.68,-1376.91 912.14,-1370.53 901.549,-1370.24 903.68,-1376.91"/>
</g>
<!-- Core_Route -->
<g id="node10" class="node"><title>Core_Route</title>
<polygon fill="lightgrey" stroke="black" points="944.96,-1489 899.883,-1471 944.96,-1453 990.038,-1471 944.96,-1489"/>
<polyline fill="none" stroke="black" points="911.027,-1475.45 911.027,-1466.55 "/>
<polyline fill="none" stroke="black" points="933.816,-1457.45 956.105,-1457.45 "/>
<polyline fill="none" stroke="black" points="978.893,-1466.55 978.893,-1475.45 "/>
<polyline fill="none" stroke="black" points="956.105,-1484.55 933.816,-1484.55 "/>
<text text-anchor="middle" x="944.96" y="-1467.3" font-family="Times,serif" font-size="14.00">Route</text>
</g>
<!-- Core_AppPluginTrait&#45;&gt;Core_Route -->
<g id="edge24" class="edge"><title>Core_AppPluginTrait&#45;&gt;Core_Route</title>
<path fill="none" stroke="black" d="M761.959,-1460.96C804.412,-1463.3 857.106,-1466.21 894.852,-1468.29"/>
<polygon fill="black" stroke="black" points="894.903,-1471.8 905.081,-1468.85 895.289,-1464.81 894.903,-1471.8"/>
</g>
<!-- Core_SuperGlobal -->
<g id="node13" class="node"><title>Core_SuperGlobal</title>
<polygon fill="none" stroke="black" points="987.46,-1435 902.46,-1435 902.46,-1431 898.46,-1431 898.46,-1427 902.46,-1427 902.46,-1407 898.46,-1407 898.46,-1403 902.46,-1403 902.46,-1399 987.46,-1399 987.46,-1435"/>
<polyline fill="none" stroke="black" points="902.46,-1431 906.46,-1431 906.46,-1427 902.46,-1427 "/>
<polyline fill="none" stroke="black" points="902.46,-1407 906.46,-1407 906.46,-1403 902.46,-1403 "/>
<text text-anchor="middle" x="944.96" y="-1413.3" font-family="Times,serif" font-size="14.00">SuperGlobal</text>
</g>
<!-- Core_AppPluginTrait&#45;&gt;Core_SuperGlobal -->
<g id="edge25" class="edge"><title>Core_AppPluginTrait&#45;&gt;Core_SuperGlobal</title>
<path fill="none" stroke="black" d="M741.008,-1449C784.872,-1442.09 848.007,-1432.13 892.177,-1425.17"/>
<polygon fill="black" stroke="black" points="892.803,-1428.61 902.136,-1423.59 891.713,-1421.7 892.803,-1428.61"/>
</g>
<!-- Core_App -->
<g id="node3" class="node"><title>Core_App</title>
<polygon fill="lightgrey" stroke="black" points="472.208,-1532 435.674,-1514 472.208,-1496 508.742,-1514 472.208,-1532"/>
<polyline fill="none" stroke="black" points="446.438,-1519.3 446.438,-1508.7 "/>
<polyline fill="none" stroke="black" points="461.443,-1501.3 482.972,-1501.3 "/>
<polyline fill="none" stroke="black" points="497.977,-1508.7 497.977,-1519.3 "/>
<polyline fill="none" stroke="black" points="482.972,-1526.7 461.443,-1526.7 "/>
<text text-anchor="middle" x="472.208" y="-1510.3" font-family="Times,serif" font-size="14.00">App</text>
</g>
<!-- Core_Kernel -->
<g id="node4" class="node"><title>Core_Kernel</title>
<polygon fill="none" stroke="black" points="689.282,-1569 640.35,-1551 689.282,-1533 738.213,-1551 689.282,-1569"/>
<text text-anchor="middle" x="689.282" y="-1547.3" font-family="Times,serif" font-size="14.00">Kernel</text>
</g>
<!-- Core_App&#45;&gt;Core_Kernel -->
<g id="edge9" class="edge"><title>Core_App&#45;&gt;Core_Kernel</title>
<path fill="none" stroke="black" d="M499.58,-1518.54C535.926,-1524.79 601.845,-1536.13 645.349,-1543.61"/>
<polygon fill="black" stroke="black" points="644.905,-1547.09 655.353,-1545.34 646.091,-1540.19 644.905,-1547.09"/>
</g>
<!-- Core_AutoLoader -->
<g id="node5" class="node"><title>Core_AutoLoader</title>
<polygon fill="lightgrey" stroke="black" points="944.96,-1705 869.718,-1687 944.96,-1669 1020.2,-1687 944.96,-1705"/>
<polyline fill="none" stroke="black" points="881.389,-1689.79 881.389,-1684.21 "/>
<polyline fill="none" stroke="black" points="933.29,-1671.79 956.631,-1671.79 "/>
<polyline fill="none" stroke="black" points="1008.53,-1684.21 1008.53,-1689.79 "/>
<polyline fill="none" stroke="black" points="956.631,-1702.21 933.29,-1702.21 "/>
<text text-anchor="middle" x="944.96" y="-1683.3" font-family="Times,serif" font-size="14.00">AutoLoader</text>
</g>
<!-- Core_App&#45;&gt;Core_AutoLoader -->
<g id="edge12" class="edge"><title>Core_App&#45;&gt;Core_AutoLoader</title>
<path fill="none" stroke="black" stroke-dasharray="5,2" d="M477.856,-1529.69C486.443,-1555.63 507.433,-1606.99 544.974,-1631 599.382,-1665.79 769.803,-1654.9 833.589,-1665 853.792,-1668.2 875.928,-1672.46 895.038,-1676.38"/>
<polygon fill="black" stroke="black" points="894.517,-1679.85 905.02,-1678.45 895.94,-1672.99 894.517,-1679.85"/>
</g>
<!-- Core_ExceptionManager -->
<g id="node6" class="node"><title>Core_ExceptionManager</title>
<polygon fill="none" stroke="black" points="1004.96,-1543 884.96,-1543 884.96,-1539 880.96,-1539 880.96,-1535 884.96,-1535 884.96,-1515 880.96,-1515 880.96,-1511 884.96,-1511 884.96,-1507 1004.96,-1507 1004.96,-1543"/>
<polyline fill="none" stroke="black" points="884.96,-1539 888.96,-1539 888.96,-1535 884.96,-1535 "/>
<polyline fill="none" stroke="black" points="884.96,-1515 888.96,-1515 888.96,-1511 884.96,-1511 "/>
<text text-anchor="middle" x="944.96" y="-1521.3" font-family="Times,serif" font-size="14.00">ExceptionManager</text>
</g>
<!-- Core_App&#45;&gt;Core_ExceptionManager -->
<g id="edge15" class="edge"><title>Core_App&#45;&gt;Core_ExceptionManager</title>
<path fill="none" stroke="black" stroke-dasharray="5,2" d="M482.867,-1527.12C495.239,-1542.69 518.299,-1567.83 544.974,-1578 604.906,-1600.84 772.911,-1598.78 833.589,-1578 851.425,-1571.89 850.549,-1561.02 867.104,-1552 870.178,-1550.33 873.376,-1548.72 876.645,-1547.19"/>
<polygon fill="black" stroke="black" points="878.258,-1550.31 886.003,-1543.08 875.44,-1543.9 878.258,-1550.31"/>
</g>
<!-- Core_App&#45;&gt;Core_View -->
<g id="edge18" class="edge"><title>Core_App&#45;&gt;Core_View</title>
<path fill="none" stroke="black" stroke-dasharray="5,2" d="M475.231,-1497.33C480.251,-1464.02 496.59,-1389.59 544.974,-1356 571.38,-1337.67 801.827,-1340.95 833.589,-1336 858.829,-1332.07 886.775,-1325.21 908.231,-1319.38"/>
<polygon fill="black" stroke="black" points="909.194,-1322.75 917.9,-1316.71 907.329,-1316 909.194,-1322.75"/>
</g>
<!-- Core_App&#45;&gt;Core_Configer -->
<g id="edge13" class="edge"><title>Core_App&#45;&gt;Core_Configer</title>
<path fill="none" stroke="black" stroke-dasharray="5,2" d="M480.457,-1499.96C491.44,-1480.36 514.308,-1445.44 544.974,-1430 602.396,-1401.09 772.239,-1429.22 833.589,-1410 850.142,-1404.81 851.395,-1397.36 867.104,-1390 878.411,-1384.71 891.06,-1379.85 902.78,-1375.76"/>
<polygon fill="black" stroke="black" points="904.009,-1379.04 912.356,-1372.52 901.762,-1372.41 904.009,-1379.04"/>
</g>
<!-- Core_Logger -->
<g id="node9" class="node"><title>Core_Logger</title>
<polygon fill="none" stroke="black" points="972.96,-1597 916.96,-1597 916.96,-1593 912.96,-1593 912.96,-1589 916.96,-1589 916.96,-1569 912.96,-1569 912.96,-1565 916.96,-1565 916.96,-1561 972.96,-1561 972.96,-1597"/>
<polyline fill="none" stroke="black" points="916.96,-1593 920.96,-1593 920.96,-1589 916.96,-1589 "/>
<polyline fill="none" stroke="black" points="916.96,-1569 920.96,-1569 920.96,-1565 916.96,-1565 "/>
<text text-anchor="middle" x="944.96" y="-1575.3" font-family="Times,serif" font-size="14.00">Logger</text>
</g>
<!-- Core_App&#45;&gt;Core_Logger -->
<g id="edge14" class="edge"><title>Core_App&#45;&gt;Core_Logger</title>
<path fill="none" stroke="black" stroke-dasharray="5,2" d="M480.972,-1527.96C492.259,-1546.64 515.148,-1578.91 544.974,-1592 668.322,-1646.12 834.352,-1610.57 907.157,-1590.31"/>
<polygon fill="black" stroke="black" points="908.139,-1593.67 916.797,-1587.57 906.221,-1586.94 908.139,-1593.67"/>
</g>
<!-- Core_App&#45;&gt;Core_Route -->
<g id="edge16" class="edge"><title>Core_App&#45;&gt;Core_Route</title>
<path fill="none" stroke="black" stroke-dasharray="5,2" d="M507.211,-1514.91C571.39,-1516.13 714.62,-1516.38 833.589,-1499 859.426,-1495.23 887.983,-1487.89 909.575,-1481.68"/>
<polygon fill="black" stroke="black" points="910.664,-1485.01 919.271,-1478.83 908.69,-1478.29 910.664,-1485.01"/>
</g>
<!-- Core_RuntimeState -->
<g id="node11" class="node"><title>Core_RuntimeState</title>
<polygon fill="none" stroke="black" points="990.46,-1651 899.46,-1651 899.46,-1647 895.46,-1647 895.46,-1643 899.46,-1643 899.46,-1623 895.46,-1623 895.46,-1619 899.46,-1619 899.46,-1615 990.46,-1615 990.46,-1651"/>
<polyline fill="none" stroke="black" points="899.46,-1647 903.46,-1647 903.46,-1643 899.46,-1643 "/>
<polyline fill="none" stroke="black" points="899.46,-1623 903.46,-1623 903.46,-1619 899.46,-1619 "/>
<text text-anchor="middle" x="944.96" y="-1629.3" font-family="Times,serif" font-size="14.00">RuntimeState</text>
</g>
<!-- Core_App&#45;&gt;Core_RuntimeState -->
<g id="edge17" class="edge"><title>Core_App&#45;&gt;Core_RuntimeState</title>
<path fill="none" stroke="black" stroke-dasharray="5,2" d="M479.105,-1528.88C488.941,-1551.45 511.027,-1593.65 544.974,-1612 602.889,-1643.31 794.304,-1639.73 889.384,-1635.79"/>
<polygon fill="black" stroke="black" points="889.542,-1639.29 899.382,-1635.36 889.241,-1632.3 889.542,-1639.29"/>
</g>
<!-- Core_SystemWrapperTrait -->
<g id="node12" class="node"><title>Core_SystemWrapperTrait</title>
<polygon fill="none" stroke="black" points="689.282,-1725 568.962,-1707 689.282,-1689 809.601,-1707 689.282,-1725"/>
<text text-anchor="middle" x="689.282" y="-1703.3" font-family="Times,serif" font-size="14.00">SystemWrapperTrait</text>
</g>
<!-- Core_App&#45;&gt;Core_SystemWrapperTrait -->
<g id="edge11" class="edge"><title>Core_App&#45;&gt;Core_SystemWrapperTrait</title>
<path fill="none" stroke="black" d="M475.579,-1530.38C481.232,-1563.2 498.664,-1637.12 544.974,-1675 559.126,-1686.58 576.596,-1694.18 594.414,-1699.12"/>
<polygon fill="black" stroke="black" points="593.78,-1702.57 604.33,-1701.6 595.48,-1695.78 593.78,-1702.57"/>
</g>
<!-- Core_App&#45;&gt;Core_SuperGlobal -->
<g id="edge19" class="edge"><title>Core_App&#45;&gt;Core_SuperGlobal</title>
<path fill="none" stroke="black" stroke-dasharray="5,2" d="M496.973,-1508.07C510.875,-1504.85 528.817,-1501.1 544.974,-1499 576.819,-1494.87 804.854,-1498.33 833.589,-1484 854.344,-1473.65 848.036,-1457.2 867.104,-1444 874.789,-1438.68 883.629,-1434.31 892.515,-1430.75"/>
<polygon fill="black" stroke="black" points="893.956,-1433.94 902.123,-1427.2 891.529,-1427.38 893.956,-1433.94"/>
</g>
<!-- Core_ExtendableStaticCallTrait -->
<g id="node14" class="node"><title>Core_ExtendableStaticCallTrait</title>
<polygon fill="none" stroke="black" points="689.282,-1327 545.166,-1309 689.282,-1291 833.397,-1309 689.282,-1327"/>
<text text-anchor="middle" x="689.282" y="-1305.3" font-family="Times,serif" font-size="14.00">ExtendableStaticCallTrait</text>
</g>
<!-- Core_App&#45;&gt;Core_ExtendableStaticCallTrait -->
<g id="edge10" class="edge"><title>Core_App&#45;&gt;Core_ExtendableStaticCallTrait</title>
<path fill="none" stroke="black" d="M475.07,-1497.23C479.866,-1462.44 495.924,-1382.2 544.974,-1341 557.34,-1330.61 572.362,-1323.41 587.968,-1318.44"/>
<polygon fill="black" stroke="black" points="589.098,-1321.76 597.742,-1315.64 587.164,-1315.03 589.098,-1321.76"/>
</g>
<!-- Core_ComponentBase -->
<g id="node16" class="node"><title>Core_ComponentBase</title>
<polygon fill="none" stroke="black" points="1208.18,-1327 1105.18,-1327 1101.18,-1323 1101.18,-1291 1204.18,-1291 1208.18,-1295 1208.18,-1327"/>
<polyline fill="none" stroke="black" points="1204.18,-1323 1101.18,-1323 "/>
<polyline fill="none" stroke="black" points="1204.18,-1323 1204.18,-1291 "/>
<polyline fill="none" stroke="black" points="1204.18,-1323 1208.18,-1327 "/>
<text text-anchor="middle" x="1154.68" y="-1305.3" font-family="Times,serif" font-size="14.00">ComponentBase</text>
</g>
<!-- Core_App&#45;&gt;Core_ComponentBase -->
<g id="edge21" class="edge"><title>Core_App&#45;&gt;Core_ComponentBase</title>
<path fill="none" stroke="black" stroke-dasharray="1,5" d="M476.317,-1530.25C482.995,-1560.23 501.754,-1623.83 544.974,-1653 598.366,-1689.04 775.389,-1652.39 833.589,-1680 852.76,-1689.09 847.53,-1705.81 867.104,-1714 930.946,-1740.71 966.861,-1754.72 1022.82,-1714 1085.98,-1668.03 1134.08,-1421.68 1148.91,-1337.34"/>
<polygon fill="black" stroke="black" points="1152.37,-1337.89 1150.63,-1327.44 1145.47,-1336.69 1152.37,-1337.89"/>
</g>
<!-- Core_Functions -->
<g id="node17" class="node"><title>Core_Functions</title>
<ellipse fill="none" stroke="black" cx="689.282" cy="-1383" rx="45.4919" ry="18"/>
<text text-anchor="middle" x="689.282" y="-1379.3" font-family="Times,serif" font-size="14.00">Functions</text>
</g>
<!-- Core_App&#45;&gt;Core_Functions -->
<g id="edge20" class="edge"><title>Core_App&#45;&gt;Core_Functions</title>
<path fill="none" stroke="black" stroke-dasharray="5,2" d="M479.638,-1499.29C490.037,-1477.31 512.691,-1436.23 544.974,-1415 571.154,-1397.79 605.228,-1389.73 633.582,-1386"/>
<polygon fill="black" stroke="black" points="634.218,-1389.45 643.744,-1384.81 633.405,-1382.49 634.218,-1389.45"/>
</g>
<!-- Core_Kernel&#45;&gt;Core_AutoLoader -->
<g id="edge1" class="edge"><title>Core_Kernel&#45;&gt;Core_AutoLoader</title>
<path fill="none" stroke="black" d="M706.668,-1562.78C737.106,-1584.26 804.937,-1630.34 867.104,-1660 877.865,-1665.13 889.874,-1669.81 901.141,-1673.78"/>
<polygon fill="black" stroke="black" points="900.207,-1677.16 910.802,-1677.08 902.469,-1670.54 900.207,-1677.16"/>
</g>
<!-- Core_Kernel&#45;&gt;Core_ExceptionManager -->
<g id="edge4" class="edge"><title>Core_Kernel&#45;&gt;Core_ExceptionManager</title>
<path fill="none" stroke="black" d="M727.986,-1547.14C766.562,-1543.18 827.38,-1536.95 874.661,-1532.1"/>
<polygon fill="black" stroke="black" points="875.246,-1535.56 884.837,-1531.06 874.532,-1528.6 875.246,-1535.56"/>
</g>
<!-- Core_Kernel&#45;&gt;Core_View -->
<g id="edge7" class="edge"><title>Core_Kernel&#45;&gt;Core_View</title>
<path fill="none" stroke="black" d="M721.556,-1544.85C754.468,-1536.71 805.335,-1519.08 833.589,-1484 875.896,-1431.48 822.238,-1386.35 867.104,-1336 877.577,-1324.25 893.473,-1317.61 908.096,-1313.86"/>
<polygon fill="black" stroke="black" points="908.917,-1317.26 917.934,-1311.7 907.416,-1310.43 908.917,-1317.26"/>
</g>
<!-- Core_Kernel&#45;&gt;Core_Configer -->
<g id="edge2" class="edge"><title>Core_Kernel&#45;&gt;Core_Configer</title>
<path fill="none" stroke="black" d="M720.175,-1544.33C752.381,-1535.67 803.101,-1517.53 833.589,-1484 863.43,-1451.19 835.669,-1421.29 867.104,-1390 876.595,-1380.55 889.58,-1374.4 902.175,-1370.4"/>
<polygon fill="black" stroke="black" points="903.425,-1373.68 912.118,-1367.63 901.546,-1366.94 903.425,-1373.68"/>
</g>
<!-- Core_Kernel&#45;&gt;Core_Logger -->
<g id="edge3" class="edge"><title>Core_Kernel&#45;&gt;Core_Logger</title>
<path fill="none" stroke="black" d="M727.169,-1555.07C775.177,-1560.37 858.608,-1569.58 906.767,-1574.89"/>
<polygon fill="black" stroke="black" points="906.446,-1578.38 916.77,-1576 907.214,-1571.42 906.446,-1578.38"/>
</g>
<!-- Core_Kernel&#45;&gt;Core_Route -->
<g id="edge5" class="edge"><title>Core_Kernel&#45;&gt;Core_Route</title>
<path fill="none" stroke="black" d="M726.046,-1546.47C755.671,-1541.9 798.454,-1533.43 833.589,-1519 849.849,-1512.32 851.267,-1505.63 867.104,-1498 880.203,-1491.69 895.174,-1486.1 908.403,-1481.66"/>
<polygon fill="black" stroke="black" points="909.692,-1484.92 918.119,-1478.5 907.526,-1478.26 909.692,-1484.92"/>
</g>
<!-- Core_Kernel&#45;&gt;Core_RuntimeState -->
<g id="edge6" class="edge"><title>Core_Kernel&#45;&gt;Core_RuntimeState</title>
<path fill="none" stroke="black" d="M716.002,-1559.31C756.438,-1572.38 835.783,-1598.03 889.349,-1615.35"/>
<polygon fill="black" stroke="black" points="888.444,-1618.73 899.036,-1618.48 890.597,-1612.07 888.444,-1618.73"/>
</g>
<!-- Core_Kernel&#45;&gt;Core_SuperGlobal -->
<g id="edge8" class="edge"><title>Core_Kernel&#45;&gt;Core_SuperGlobal</title>
<path fill="none" stroke="black" d="M723.573,-1545.49C754.817,-1538.91 801.431,-1525.32 833.589,-1499 855.743,-1480.87 844.858,-1462.01 867.104,-1444 874.609,-1437.92 883.578,-1433.17 892.696,-1429.46"/>
<polygon fill="black" stroke="black" points="894.021,-1432.7 902.197,-1425.96 891.604,-1426.13 894.021,-1432.7"/>
</g>
<!-- Core_ExceptionManager&#45;&gt;Core_ComponentBase -->
<g id="edge26" class="edge"><title>Core_ExceptionManager&#45;&gt;Core_ComponentBase</title>
<path fill="none" stroke="black" stroke-dasharray="1,5" d="M1005.03,-1508.64C1011.34,-1505.64 1017.42,-1502.12 1022.82,-1498 1080.55,-1453.97 1122.31,-1377.08 1141.65,-1336.26"/>
<polygon fill="black" stroke="black" points="1144.83,-1337.72 1145.87,-1327.18 1138.48,-1334.77 1144.83,-1337.72"/>
</g>
<!-- Core_View&#45;&gt;Core_ComponentBase -->
<g id="edge31" class="edge"><title>Core_View&#45;&gt;Core_ComponentBase</title>
<path fill="none" stroke="black" stroke-dasharray="1,5" d="M972.268,-1309C1001.89,-1309 1051.08,-1309 1090.77,-1309"/>
<polygon fill="black" stroke="black" points="1090.9,-1312.5 1100.9,-1309 1090.9,-1305.5 1090.9,-1312.5"/>
</g>
<!-- Core_Configer&#45;&gt;Core_ComponentBase -->
<g id="edge27" class="edge"><title>Core_Configer&#45;&gt;Core_ComponentBase</title>
<path fill="none" stroke="black" stroke-dasharray="1,5" d="M977.509,-1354.8C1007.51,-1347 1053.5,-1335.04 1090.97,-1325.3"/>
<polygon fill="black" stroke="black" points="1092,-1328.65 1100.79,-1322.75 1090.24,-1321.88 1092,-1328.65"/>
</g>
<!-- Core_Logger&#45;&gt;Core_ComponentBase -->
<g id="edge32" class="edge"><title>Core_Logger&#45;&gt;Core_ComponentBase</title>
<path fill="none" stroke="black" stroke-dasharray="1,5" d="M972.965,-1574.59C988.939,-1570.83 1008.73,-1564.04 1022.82,-1552 1092.18,-1492.7 1130.77,-1387.14 1145.98,-1336.97"/>
<polygon fill="black" stroke="black" points="1149.41,-1337.72 1148.87,-1327.14 1142.69,-1335.75 1149.41,-1337.72"/>
</g>
<!-- Core_Route&#45;&gt;Core_ComponentBase -->
<g id="edge28" class="edge"><title>Core_Route&#45;&gt;Core_ComponentBase</title>
<path fill="none" stroke="black" stroke-dasharray="1,5" d="M974.043,-1464.51C989.254,-1460.19 1007.93,-1453.53 1022.82,-1444 1069.05,-1414.4 1111.02,-1365.43 1134.37,-1335.31"/>
<polygon fill="black" stroke="black" points="1137.17,-1337.42 1140.45,-1327.35 1131.6,-1333.17 1137.17,-1337.42"/>
</g>
<!-- Core_RuntimeState&#45;&gt;Core_ComponentBase -->
<g id="edge30" class="edge"><title>Core_RuntimeState&#45;&gt;Core_ComponentBase</title>
<path fill="none" stroke="black" stroke-dasharray="1,5" d="M990.815,-1624.02C1002.29,-1620.02 1013.89,-1614.26 1022.82,-1606 1104.17,-1530.69 1137.78,-1395.7 1148.97,-1337.26"/>
<polygon fill="black" stroke="black" points="1152.44,-1337.74 1150.81,-1327.27 1145.56,-1336.47 1152.44,-1337.74"/>
</g>
<!-- Core_SuperGlobal&#45;&gt;Core_ComponentBase -->
<g id="edge29" class="edge"><title>Core_SuperGlobal&#45;&gt;Core_ComponentBase</title>
<path fill="none" stroke="black" stroke-dasharray="1,5" d="M987.708,-1404.18C999.284,-1400.13 1011.72,-1395.31 1022.82,-1390 1057.25,-1373.53 1094,-1350.22 1119.77,-1332.83"/>
<polygon fill="black" stroke="black" points="1121.77,-1335.7 1128.06,-1327.18 1117.83,-1329.92 1121.77,-1335.7"/>
</g>
<!-- Core_ComponentInterface -->
<g id="node15" class="node"><title>Core_ComponentInterface</title>
<polygon fill="none" stroke="black" points="1411.03,-1327 1289.03,-1327 1289.03,-1291 1417.03,-1291 1417.03,-1321 1411.03,-1327"/>
<polyline fill="none" stroke="black" points="1411.03,-1327 1411.03,-1321 "/>
<polyline fill="none" stroke="black" points="1417.03,-1321 1411.03,-1321 "/>
<text text-anchor="middle" x="1353.03" y="-1305.3" font-family="Times,serif" font-size="14.00">ComponentInterface</text>
</g>
<!-- Core_ComponentBase&#45;&gt;Core_ComponentInterface -->
<g id="edge33" class="edge"><title>Core_ComponentBase&#45;&gt;Core_ComponentInterface</title>
<path fill="none" stroke="black" d="M1208.3,-1309C1229.87,-1309 1255.21,-1309 1278.56,-1309"/>
<polygon fill="black" stroke="black" points="1278.78,-1312.5 1288.78,-1309 1278.78,-1305.5 1278.78,-1312.5"/>
</g>
<!-- AppHelper -->
<g id="node18" class="node"><title>AppHelper</title>
<polygon fill="lightgrey" stroke="black" points="116.188,-1620 45.6372,-1602 116.188,-1584 186.739,-1602 116.188,-1620"/>
<polyline fill="none" stroke="black" points="57.2647,-1604.97 57.2647,-1599.03 "/>
<polyline fill="none" stroke="black" points="104.561,-1586.97 127.816,-1586.97 "/>
<polyline fill="none" stroke="black" points="175.112,-1599.03 175.112,-1604.97 "/>
<polyline fill="none" stroke="black" points="127.816,-1617.03 104.561,-1617.03 "/>
<text text-anchor="middle" x="116.188" y="-1598.3" font-family="Times,serif" font-size="14.00">AppHelper</text>
</g>
<!-- AppHelper&#45;&gt;Core_App -->
<g id="edge34" class="edge"><title>AppHelper&#45;&gt;Core_App</title>
<path fill="none" stroke="black" d="M163.258,-1595.93C221.206,-1587.54 323.312,-1570.29 407.441,-1543 420.057,-1538.91 433.496,-1533.04 444.768,-1527.65"/>
<polygon fill="black" stroke="black" points="446.608,-1530.65 454.04,-1523.1 443.521,-1524.36 446.608,-1530.65"/>
</g>
<!-- HelperTrait -->
<g id="node23" class="node"><title>HelperTrait</title>
<polygon fill="none" stroke="black" points="325.909,-1410 252.344,-1392 325.909,-1374 399.474,-1392 325.909,-1410"/>
<text text-anchor="middle" x="325.909" y="-1388.3" font-family="Times,serif" font-size="14.00">HelperTrait</text>
</g>
<!-- AppHelper&#45;&gt;HelperTrait -->
<g id="edge41" class="edge"><title>AppHelper&#45;&gt;HelperTrait</title>
<path fill="none" stroke="black" d="M165.453,-1596.53C182.836,-1592.68 201.75,-1586.13 216.376,-1575 270.182,-1534.04 302.535,-1458.08 316.602,-1418.13"/>
<polygon fill="black" stroke="black" points="319.95,-1419.15 319.862,-1408.56 313.324,-1416.89 319.95,-1419.15"/>
</g>
<!-- ControllerHelper -->
<g id="node19" class="node"><title>ControllerHelper</title>
<polygon fill="lightgrey" stroke="black" points="116.188,-1566 15.8115,-1548 116.188,-1530 216.565,-1548 116.188,-1566"/>
<polyline fill="none" stroke="black" points="27.6231,-1550.12 27.6231,-1545.88 "/>
<polyline fill="none" stroke="black" points="104.377,-1532.12 128,-1532.12 "/>
<polyline fill="none" stroke="black" points="204.753,-1545.88 204.753,-1550.12 "/>
<polyline fill="none" stroke="black" points="128,-1563.88 104.377,-1563.88 "/>
<text text-anchor="middle" x="116.188" y="-1544.3" font-family="Times,serif" font-size="14.00">ControllerHelper</text>
</g>
<!-- ControllerHelper&#45;&gt;Core_App -->
<g id="edge35" class="edge"><title>ControllerHelper&#45;&gt;Core_App</title>
<path fill="none" stroke="black" d="M183.793,-1542.12C242.643,-1536.85 330.783,-1528.77 407.441,-1521 415.388,-1520.19 423.887,-1519.29 432.005,-1518.41"/>
<polygon fill="black" stroke="black" points="432.455,-1521.88 442.013,-1517.31 431.691,-1514.92 432.455,-1521.88"/>
</g>
<!-- ControllerHelper&#45;&gt;HelperTrait -->
<g id="edge42" class="edge"><title>ControllerHelper&#45;&gt;HelperTrait</title>
<path fill="none" stroke="black" d="M170.631,-1539.71C186.202,-1535.68 202.691,-1529.74 216.376,-1521 258.438,-1494.13 292.625,-1445.81 310.762,-1416.54"/>
<polygon fill="black" stroke="black" points="313.893,-1418.13 316.076,-1407.76 307.904,-1414.51 313.893,-1418.13"/>
</g>
<!-- ModelHelper -->
<g id="node20" class="node"><title>ModelHelper</title>
<polygon fill="lightgrey" stroke="black" points="116.188,-1512 34.5777,-1494 116.188,-1476 197.799,-1494 116.188,-1512"/>
<polyline fill="none" stroke="black" points="46.296,-1496.58 46.296,-1491.42 "/>
<polyline fill="none" stroke="black" points="104.47,-1478.58 127.906,-1478.58 "/>
<polyline fill="none" stroke="black" points="186.08,-1491.42 186.08,-1496.58 "/>
<polyline fill="none" stroke="black" points="127.906,-1509.42 104.47,-1509.42 "/>
<text text-anchor="middle" x="116.188" y="-1490.3" font-family="Times,serif" font-size="14.00">ModelHelper</text>
</g>
<!-- ModelHelper&#45;&gt;Core_App -->
<g id="edge36" class="edge"><title>ModelHelper&#45;&gt;Core_App</title>
<path fill="none" stroke="black" d="M181.709,-1497.65C253.539,-1501.7 367.566,-1508.14 428.88,-1511.61"/>
<polygon fill="black" stroke="black" points="428.792,-1515.11 438.973,-1512.18 429.187,-1508.12 428.792,-1515.11"/>
</g>
<!-- ModelHelper&#45;&gt;HelperTrait -->
<g id="edge43" class="edge"><title>ModelHelper&#45;&gt;HelperTrait</title>
<path fill="none" stroke="black" d="M160.295,-1485.63C178.137,-1481.31 198.737,-1475.2 216.376,-1467 247.729,-1452.42 279.845,-1428.96 300.922,-1412.16"/>
<polygon fill="black" stroke="black" points="303.136,-1414.87 308.705,-1405.85 298.731,-1409.43 303.136,-1414.87"/>
</g>
<!-- ServiceHelper -->
<g id="node21" class="node"><title>ServiceHelper</title>
<polygon fill="lightgrey" stroke="black" points="116.188,-1458 29.8865,-1440 116.188,-1422 202.49,-1440 116.188,-1458"/>
<polyline fill="none" stroke="black" points="41.6337,-1442.45 41.6337,-1437.55 "/>
<polyline fill="none" stroke="black" points="104.441,-1424.45 127.935,-1424.45 "/>
<polyline fill="none" stroke="black" points="190.743,-1437.55 190.743,-1442.45 "/>
<polyline fill="none" stroke="black" points="127.935,-1455.55 104.441,-1455.55 "/>
<text text-anchor="middle" x="116.188" y="-1436.3" font-family="Times,serif" font-size="14.00">ServiceHelper</text>
</g>
<!-- ServiceHelper&#45;&gt;Core_App -->
<g id="edge37" class="edge"><title>ServiceHelper&#45;&gt;Core_App</title>
<path fill="none" stroke="black" d="M161.533,-1448.58C218.542,-1459.7 320.545,-1479.95 407.441,-1499 417.15,-1501.13 427.661,-1503.55 437.295,-1505.82"/>
<polygon fill="black" stroke="black" points="436.788,-1509.3 447.325,-1508.2 438.404,-1502.49 436.788,-1509.3"/>
</g>
<!-- ServiceHelper&#45;&gt;HelperTrait -->
<g id="edge44" class="edge"><title>ServiceHelper&#45;&gt;HelperTrait</title>
<path fill="none" stroke="black" d="M157.732,-1430.63C192.051,-1422.7 241.285,-1411.32 277.437,-1402.97"/>
<polygon fill="black" stroke="black" points="278.309,-1406.36 287.264,-1400.7 276.733,-1399.54 278.309,-1406.36"/>
</g>
<!-- ViewHelper -->
<g id="node22" class="node"><title>ViewHelper</title>
<polygon fill="lightgrey" stroke="black" points="116.188,-1404 40.1075,-1386 116.188,-1368 192.269,-1386 116.188,-1404"/>
<polyline fill="none" stroke="black" points="51.7851,-1388.76 51.7851,-1383.24 "/>
<polyline fill="none" stroke="black" points="104.511,-1370.76 127.866,-1370.76 "/>
<polyline fill="none" stroke="black" points="180.591,-1383.24 180.591,-1388.76 "/>
<polyline fill="none" stroke="black" points="127.866,-1401.24 104.511,-1401.24 "/>
<text text-anchor="middle" x="116.188" y="-1382.3" font-family="Times,serif" font-size="14.00">ViewHelper</text>
</g>
<!-- ViewHelper&#45;&gt;Core_App -->
<g id="edge38" class="edge"><title>ViewHelper&#45;&gt;Core_App</title>
<path fill="none" stroke="black" d="M154.337,-1395.1C227.386,-1413.12 384.633,-1452.59 407.441,-1464 423.594,-1472.08 439.582,-1484.63 451.508,-1495.13"/>
<polygon fill="black" stroke="black" points="449.312,-1497.87 459.068,-1502 454.019,-1492.69 449.312,-1497.87"/>
</g>
<!-- ViewHelper&#45;&gt;HelperTrait -->
<g id="edge45" class="edge"><title>ViewHelper&#45;&gt;HelperTrait</title>
<path fill="none" stroke="black" d="M184.342,-1387.94C205.217,-1388.54 228.362,-1389.21 249.746,-1389.83"/>
<polygon fill="black" stroke="black" points="249.66,-1393.33 259.757,-1390.12 249.862,-1386.33 249.66,-1393.33"/>
</g>
<!-- HelperTrait&#45;&gt;Core_App -->
<g id="edge39" class="edge"><title>HelperTrait&#45;&gt;Core_App</title>
<path fill="none" stroke="black" d="M362.515,-1401.23C377.43,-1406.29 394.314,-1413.68 407.441,-1424 430.339,-1442 448.539,-1470.39 459.539,-1490.46"/>
<polygon fill="black" stroke="black" points="456.584,-1492.36 464.35,-1499.56 462.773,-1489.09 456.584,-1492.36"/>
</g>
<!-- HelperTrait&#45;&gt;Core_ExtendableStaticCallTrait -->
<g id="edge40" class="edge"><title>HelperTrait&#45;&gt;Core_ExtendableStaticCallTrait</title>
<path fill="none" stroke="black" d="M363.923,-1383.22C407.284,-1372.97 481.298,-1355.56 544.974,-1341 571.74,-1334.88 601.35,-1328.25 626.673,-1322.61"/>
<polygon fill="black" stroke="black" points="627.512,-1326.01 636.514,-1320.43 625.993,-1319.18 627.512,-1326.01"/>
</g>
<!-- Db_Db -->
<g id="node24" class="node"><title>Db_Db</title>
<polygon fill="lightgrey" stroke="black" points="944.96,-106 914.795,-88 944.96,-70 975.126,-88 944.96,-106"/>
<polyline fill="none" stroke="black" points="924.85,-94 924.85,-82 "/>
<polyline fill="none" stroke="black" points="934.905,-76 955.015,-76 "/>
<polyline fill="none" stroke="black" points="965.071,-82 965.071,-94 "/>
<polyline fill="none" stroke="black" points="955.015,-100 934.905,-100 "/>
<text text-anchor="middle" x="944.96" y="-84.3" font-family="Times,serif" font-size="14.00">Db</text>
</g>
<!-- Db_DbAdvanceTrait -->
<g id="node25" class="node"><title>Db_DbAdvanceTrait</title>
<polygon fill="none" stroke="black" points="1154.68,-106 1056.48,-88 1154.68,-70 1252.88,-88 1154.68,-106"/>
<polyline fill="none" stroke="black" points="1068.28,-90.1635 1068.28,-85.8365 "/>
<polyline fill="none" stroke="black" points="1142.88,-72.1635 1166.48,-72.1635 "/>
<polyline fill="none" stroke="black" points="1241.08,-85.8365 1241.08,-90.1635 "/>
<polyline fill="none" stroke="black" points="1166.48,-103.836 1142.88,-103.836 "/>
<text text-anchor="middle" x="1154.68" y="-84.3" font-family="Times,serif" font-size="14.00">DbAdvanceTrait</text>
</g>
<!-- Db_Db&#45;&gt;Db_DbAdvanceTrait -->
<g id="edge46" class="edge"><title>Db_Db&#45;&gt;Db_DbAdvanceTrait</title>
<path fill="none" stroke="black" d="M975.281,-88C994.221,-88 1020.15,-88 1046.38,-88"/>
<polygon fill="black" stroke="black" points="1046.43,-91.5001 1056.43,-88 1046.43,-84.5001 1046.43,-91.5001"/>
</g>
<!-- Db_DbInterface -->
<g id="node26" class="node"><title>Db_DbInterface</title>
<polygon fill="none" stroke="black" points="1189.18,-52 1114.18,-52 1114.18,-16 1195.18,-16 1195.18,-46 1189.18,-52"/>
<polyline fill="none" stroke="black" points="1189.18,-52 1189.18,-46 "/>
<polyline fill="none" stroke="black" points="1195.18,-46 1189.18,-46 "/>
<text text-anchor="middle" x="1154.68" y="-30.3" font-family="Times,serif" font-size="14.00">DbInterface</text>
</g>
<!-- Db_Db&#45;&gt;Db_DbInterface -->
<g id="edge47" class="edge"><title>Db_Db&#45;&gt;Db_DbInterface</title>
<path fill="none" stroke="black" d="M966.637,-82.6249C998.434,-74.3586 1060.25,-58.2881 1104.11,-46.8873"/>
<polygon fill="black" stroke="black" points="1105.21,-50.2175 1114.01,-44.314 1103.45,-43.4426 1105.21,-50.2175"/>
</g>
<!-- HttpServer -->
<g id="node27" class="node"><title>HttpServer</title>
<polygon fill="lightgrey" stroke="black" points="944.96,-189 875.248,-171 944.96,-153 1014.67,-171 944.96,-189"/>
<polyline fill="none" stroke="black" points="886.867,-174 886.867,-168 "/>
<polyline fill="none" stroke="black" points="933.341,-156 956.579,-156 "/>
<polyline fill="none" stroke="black" points="1003.05,-168 1003.05,-174 "/>
<polyline fill="none" stroke="black" points="956.579,-186 933.341,-186 "/>
<text text-anchor="middle" x="944.96" y="-167.3" font-family="Times,serif" font-size="14.00">HttpServer</text>
</g>
<!-- Cache -->
<g id="node28" class="node"><title>Cache</title>
<polygon fill="none" stroke="black" points="716.282,-326 662.282,-326 662.282,-322 658.282,-322 658.282,-318 662.282,-318 662.282,-298 658.282,-298 658.282,-294 662.282,-294 662.282,-290 716.282,-290 716.282,-326"/>
<polyline fill="none" stroke="black" points="662.282,-322 666.282,-322 666.282,-318 662.282,-318 "/>
<polyline fill="none" stroke="black" points="662.282,-298 666.282,-298 666.282,-294 662.282,-294 "/>
<text text-anchor="middle" x="689.282" y="-304.3" font-family="Times,serif" font-size="14.00">Cache</text>
</g>
<!-- Cache&#45;&gt;Core_ComponentBase -->
<g id="edge48" class="edge"><title>Cache&#45;&gt;Core_ComponentBase</title>
<path fill="none" stroke="black" stroke-dasharray="1,5" d="M716.4,-302.426C779.135,-290.721 939.294,-271.136 1022.82,-355 1156.76,-489.493 1156.05,-1136.04 1154.18,-1280.38"/>
<polygon fill="black" stroke="black" points="1150.67,-1280.57 1154.03,-1290.62 1157.67,-1280.67 1150.67,-1280.57"/>
</g>
<!-- CallableView -->
<g id="node29" class="node"><title>CallableView</title>
<polygon fill="none" stroke="black" points="734.782,-1244 643.782,-1244 643.782,-1240 639.782,-1240 639.782,-1236 643.782,-1236 643.782,-1216 639.782,-1216 639.782,-1212 643.782,-1212 643.782,-1208 734.782,-1208 734.782,-1244"/>
<polyline fill="none" stroke="black" points="643.782,-1240 647.782,-1240 647.782,-1236 643.782,-1236 "/>
<polyline fill="none" stroke="black" points="643.782,-1216 647.782,-1216 647.782,-1212 643.782,-1212 "/>
<text text-anchor="middle" x="689.282" y="-1222.3" font-family="Times,serif" font-size="14.00">CallableView</text>
</g>
<!-- CallableView&#45;&gt;Core_View -->
<g id="edge66" class="edge"><title>CallableView&#45;&gt;Core_View</title>
<path fill="none" stroke="black" d="M735.05,-1240.65C784.375,-1256.79 862.717,-1282.42 908.144,-1297.28"/>
<polygon fill="black" stroke="black" points="907.267,-1300.68 917.859,-1300.46 909.444,-1294.02 907.267,-1300.68"/>
</g>
<!-- Console -->
<g id="node30" class="node"><title>Console</title>
<polygon fill="none" stroke="black" points="719.782,-974 658.782,-974 658.782,-970 654.782,-970 654.782,-966 658.782,-966 658.782,-946 654.782,-946 654.782,-942 658.782,-942 658.782,-938 719.782,-938 719.782,-974"/>
<polyline fill="none" stroke="black" points="658.782,-970 662.782,-970 662.782,-966 658.782,-966 "/>
<polyline fill="none" stroke="black" points="658.782,-946 662.782,-946 662.782,-942 658.782,-942 "/>
<text text-anchor="middle" x="689.282" y="-952.3" font-family="Times,serif" font-size="14.00">Console</text>
</g>
<!-- Console&#45;&gt;Core_ComponentBase -->
<g id="edge49" class="edge"><title>Console&#45;&gt;Core_ComponentBase</title>
<path fill="none" stroke="black" stroke-dasharray="1,5" d="M719.894,-952.039C792.045,-943.026 974.548,-924.267 1022.82,-958 1131.35,-1033.85 1150.02,-1211.08 1153.12,-1280.44"/>
<polygon fill="black" stroke="black" points="1149.63,-1280.75 1153.49,-1290.62 1156.62,-1280.5 1149.63,-1280.75"/>
</g>
<!-- Console&#45;&gt;HttpServer -->
<g id="edge68" class="edge"><title>Console&#45;&gt;HttpServer</title>
<path fill="none" stroke="black" d="M719.84,-960.021C752.993,-962.678 805.753,-960.992 833.589,-929 885.066,-869.838 829.006,-292.546 867.104,-224 876.188,-207.657 892.691,-195.281 908.083,-186.615"/>
<polygon fill="black" stroke="black" points="909.738,-189.699 916.952,-181.94 906.474,-183.507 909.738,-189.699"/>
</g>
<!-- Installer -->
<g id="node36" class="node"><title>Installer</title>
<polygon fill="none" stroke="black" points="975.46,-1082 914.46,-1082 914.46,-1078 910.46,-1078 910.46,-1074 914.46,-1074 914.46,-1054 910.46,-1054 910.46,-1050 914.46,-1050 914.46,-1046 975.46,-1046 975.46,-1082"/>
<polyline fill="none" stroke="black" points="914.46,-1078 918.46,-1078 918.46,-1074 914.46,-1074 "/>
<polyline fill="none" stroke="black" points="914.46,-1054 918.46,-1054 918.46,-1050 914.46,-1050 "/>
<text text-anchor="middle" x="944.96" y="-1060.3" font-family="Times,serif" font-size="14.00">Installer</text>
</g>
<!-- Console&#45;&gt;Installer -->
<g id="edge67" class="edge"><title>Console&#45;&gt;Installer</title>
<path fill="none" stroke="black" d="M719.95,-957.736C749.743,-960.352 796.433,-966.866 833.589,-983 865.1,-996.683 896.212,-1020.74 917.33,-1039.09"/>
<polygon fill="black" stroke="black" points="915.109,-1041.79 924.915,-1045.81 919.751,-1036.56 915.109,-1041.79"/>
</g>
<!-- DbManager -->
<g id="node31" class="node"><title>DbManager</title>
<polygon fill="none" stroke="black" points="730.282,-272 648.282,-272 648.282,-268 644.282,-268 644.282,-264 648.282,-264 648.282,-244 644.282,-244 644.282,-240 648.282,-240 648.282,-236 730.282,-236 730.282,-272"/>
<polyline fill="none" stroke="black" points="648.282,-268 652.282,-268 652.282,-264 648.282,-264 "/>
<polyline fill="none" stroke="black" points="648.282,-244 652.282,-244 652.282,-240 648.282,-240 "/>
<text text-anchor="middle" x="689.282" y="-250.3" font-family="Times,serif" font-size="14.00">DbManager</text>
</g>
<!-- DbManager&#45;&gt;Core_ComponentBase -->
<g id="edge50" class="edge"><title>DbManager&#45;&gt;Core_ComponentBase</title>
<path fill="none" stroke="black" stroke-dasharray="1,5" d="M730.327,-244.516C800.205,-230.59 944.424,-213.932 1022.82,-291 1095.64,-362.595 1142.98,-1122.32 1152.08,-1280.32"/>
<polygon fill="black" stroke="black" points="1148.6,-1280.85 1152.67,-1290.64 1155.59,-1280.45 1148.6,-1280.85"/>
</g>
<!-- DbManager&#45;&gt;Db_Db -->
<g id="edge70" class="edge"><title>DbManager&#45;&gt;Db_Db</title>
<path fill="none" stroke="black" d="M717.913,-235.919C768.476,-202.832 874.959,-133.152 921.448,-102.731"/>
<polygon fill="black" stroke="black" points="923.461,-105.597 929.912,-97.1929 919.628,-99.7399 923.461,-105.597"/>
</g>
<!-- EmptyView -->
<g id="node32" class="node"><title>EmptyView</title>
<polygon fill="none" stroke="black" points="730.782,-1190 647.782,-1190 647.782,-1186 643.782,-1186 643.782,-1182 647.782,-1182 647.782,-1162 643.782,-1162 643.782,-1158 647.782,-1158 647.782,-1154 730.782,-1154 730.782,-1190"/>
<polyline fill="none" stroke="black" points="647.782,-1186 651.782,-1186 651.782,-1182 647.782,-1182 "/>
<polyline fill="none" stroke="black" points="647.782,-1162 651.782,-1162 651.782,-1158 647.782,-1158 "/>
<text text-anchor="middle" x="689.282" y="-1168.3" font-family="Times,serif" font-size="14.00">EmptyView</text>
</g>
<!-- EmptyView&#45;&gt;Core_View -->
<g id="edge69" class="edge"><title>EmptyView&#45;&gt;Core_View</title>
<path fill="none" stroke="black" d="M731.003,-1169.79C762.281,-1170.24 804.851,-1175.75 833.589,-1199 863.561,-1223.24 839.513,-1252.08 867.104,-1279 878.241,-1289.87 893.766,-1296.91 907.949,-1301.42"/>
<polygon fill="black" stroke="black" points="907.381,-1304.9 917.957,-1304.28 909.301,-1298.17 907.381,-1304.9"/>
</g>
<!-- EventManager -->
<g id="node33" class="node"><title>EventManager</title>
<polygon fill="none" stroke="black" points="737.782,-920 640.782,-920 640.782,-916 636.782,-916 636.782,-912 640.782,-912 640.782,-892 636.782,-892 636.782,-888 640.782,-888 640.782,-884 737.782,-884 737.782,-920"/>
<polyline fill="none" stroke="black" points="640.782,-916 644.782,-916 644.782,-912 640.782,-912 "/>
<polyline fill="none" stroke="black" points="640.782,-892 644.782,-892 644.782,-888 640.782,-888 "/>
<text text-anchor="middle" x="689.282" y="-898.3" font-family="Times,serif" font-size="14.00">EventManager</text>
</g>
<!-- EventManager&#45;&gt;Core_ComponentBase -->
<g id="edge51" class="edge"><title>EventManager&#45;&gt;Core_ComponentBase</title>
<path fill="none" stroke="black" stroke-dasharray="1,5" d="M737.932,-892.12C808.226,-880.462 940.285,-870.075 1022.82,-935 1133.64,-1022.18 1150.89,-1209.53 1153.36,-1280.74"/>
<polygon fill="black" stroke="black" points="1149.87,-1280.86 1153.64,-1290.76 1156.86,-1280.67 1149.87,-1280.86"/>
</g>
<!-- FacadesAutoLoader -->
<g id="node34" class="node"><title>FacadesAutoLoader</title>
<polygon fill="none" stroke="black" points="1007.46,-1190 882.46,-1190 882.46,-1186 878.46,-1186 878.46,-1182 882.46,-1182 882.46,-1162 878.46,-1162 878.46,-1158 882.46,-1158 882.46,-1154 1007.46,-1154 1007.46,-1190"/>
<polyline fill="none" stroke="black" points="882.46,-1186 886.46,-1186 886.46,-1182 882.46,-1182 "/>
<polyline fill="none" stroke="black" points="882.46,-1162 886.46,-1162 886.46,-1158 882.46,-1158 "/>
<text text-anchor="middle" x="944.96" y="-1168.3" font-family="Times,serif" font-size="14.00">FacadesAutoLoader</text>
</g>
<!-- FacadesAutoLoader&#45;&gt;Core_ComponentBase -->
<g id="edge52" class="edge"><title>FacadesAutoLoader&#45;&gt;Core_ComponentBase</title>
<path fill="none" stroke="black" stroke-dasharray="1,5" d="M1004.45,-1190.02C1010.8,-1192.71 1017.04,-1195.71 1022.82,-1199 1063.7,-1222.32 1104.15,-1258.97 1129.02,-1283.47"/>
<polygon fill="black" stroke="black" points="1126.67,-1286.07 1136.22,-1290.66 1131.61,-1281.12 1126.67,-1286.07"/>
</g>
<!-- FacadesBase -->
<g id="node35" class="node"><title>FacadesBase</title>
<polygon fill="none" stroke="black" points="732.282,-1082 646.282,-1082 646.282,-1078 642.282,-1078 642.282,-1074 646.282,-1074 646.282,-1054 642.282,-1054 642.282,-1050 646.282,-1050 646.282,-1046 732.282,-1046 732.282,-1082"/>
<polyline fill="none" stroke="black" points="646.282,-1078 650.282,-1078 650.282,-1074 646.282,-1074 "/>
<polyline fill="none" stroke="black" points="646.282,-1054 650.282,-1054 650.282,-1050 646.282,-1050 "/>
<text text-anchor="middle" x="689.282" y="-1060.3" font-family="Times,serif" font-size="14.00">FacadesBase</text>
</g>
<!-- FacadesBase&#45;&gt;Core_ComponentBase -->
<g id="edge72" class="edge"><title>FacadesBase&#45;&gt;Core_ComponentBase</title>
<path fill="none" stroke="black" stroke-dasharray="1,5" d="M732.308,-1062.05C761.921,-1059.28 801.8,-1052.68 833.589,-1037 851.519,-1028.16 848.43,-1014.14 867.104,-1007 931.749,-982.294 964.965,-969.019 1022.82,-1007 1118.12,-1069.57 1144.36,-1218.05 1151.3,-1280.52"/>
<polygon fill="black" stroke="black" points="1147.85,-1281.22 1152.35,-1290.81 1154.82,-1280.5 1147.85,-1281.22"/>
</g>
<!-- FacadesBase&#45;&gt;FacadesAutoLoader -->
<g id="edge71" class="edge"><title>FacadesBase&#45;&gt;FacadesAutoLoader</title>
<path fill="none" stroke="black" d="M732.584,-1063.2C763.085,-1064.59 803.934,-1070.68 833.589,-1091 856.89,-1106.97 845.08,-1127.31 867.104,-1145 869.131,-1146.63 871.262,-1148.16 873.473,-1149.6"/>
<polygon fill="black" stroke="black" points="871.933,-1152.76 882.341,-1154.74 875.441,-1146.7 871.933,-1152.76"/>
</g>
<!-- Installer&#45;&gt;Core_ComponentBase -->
<g id="edge53" class="edge"><title>Installer&#45;&gt;Core_ComponentBase</title>
<path fill="none" stroke="black" stroke-dasharray="1,5" d="M975.722,-1069.39C991.065,-1073.35 1009.33,-1080.01 1022.82,-1091 1086.75,-1143.12 1127.07,-1235.31 1144.19,-1281.3"/>
<polygon fill="black" stroke="black" points="1140.98,-1282.69 1147.68,-1290.9 1147.56,-1280.31 1140.98,-1282.69"/>
</g>
<!-- JsonRpcClientBase -->
<g id="node37" class="node"><title>JsonRpcClientBase</title>
<polygon fill="none" stroke="black" points="750.282,-1136 628.282,-1136 628.282,-1132 624.282,-1132 624.282,-1128 628.282,-1128 628.282,-1108 624.282,-1108 624.282,-1104 628.282,-1104 628.282,-1100 750.282,-1100 750.282,-1136"/>
<polyline fill="none" stroke="black" points="628.282,-1132 632.282,-1132 632.282,-1128 628.282,-1128 "/>
<polyline fill="none" stroke="black" points="628.282,-1108 632.282,-1108 632.282,-1104 628.282,-1104 "/>
<text text-anchor="middle" x="689.282" y="-1114.3" font-family="Times,serif" font-size="14.00">JsonRpcClientBase</text>
</g>
<!-- JsonRpcClientBase&#45;&gt;Core_ComponentBase -->
<g id="edge74" class="edge"><title>JsonRpcClientBase&#45;&gt;Core_ComponentBase</title>
<path fill="none" stroke="black" stroke-dasharray="1,5" d="M750.601,-1117.47C777.941,-1114.64 809.468,-1107.53 833.589,-1091 856.89,-1075.03 842.42,-1050.73 867.104,-1037 927.582,-1003.36 964.225,-1000.17 1022.82,-1037 1110.11,-1091.87 1140.52,-1223.07 1149.92,-1280.85"/>
<polygon fill="black" stroke="black" points="1146.47,-1281.4 1151.44,-1290.76 1153.39,-1280.34 1146.47,-1281.4"/>
</g>
<!-- JsonRpcExt -->
<g id="node38" class="node"><title>JsonRpcExt</title>
<polygon fill="none" stroke="black" points="985.46,-1244 904.46,-1244 904.46,-1240 900.46,-1240 900.46,-1236 904.46,-1236 904.46,-1216 900.46,-1216 900.46,-1212 904.46,-1212 904.46,-1208 985.46,-1208 985.46,-1244"/>
<polyline fill="none" stroke="black" points="904.46,-1240 908.46,-1240 908.46,-1236 904.46,-1236 "/>
<polyline fill="none" stroke="black" points="904.46,-1216 908.46,-1216 908.46,-1212 904.46,-1212 "/>
<text text-anchor="middle" x="944.96" y="-1222.3" font-family="Times,serif" font-size="14.00">JsonRpcExt</text>
</g>
<!-- JsonRpcClientBase&#45;&gt;JsonRpcExt -->
<g id="edge73" class="edge"><title>JsonRpcClientBase&#45;&gt;JsonRpcExt</title>
<path fill="none" stroke="black" d="M750.601,-1118.53C777.941,-1121.36 809.468,-1128.47 833.589,-1145 856.89,-1160.97 845.08,-1181.31 867.104,-1199 875.127,-1205.44 884.796,-1210.4 894.529,-1214.2"/>
<polygon fill="black" stroke="black" points="893.629,-1217.6 904.224,-1217.63 895.962,-1211 893.629,-1217.6"/>
</g>
<!-- JsonRpcExt&#45;&gt;Core_ComponentBase -->
<g id="edge54" class="edge"><title>JsonRpcExt&#45;&gt;Core_ComponentBase</title>
<path fill="none" stroke="black" stroke-dasharray="1,5" d="M985.52,-1241.81C1017.72,-1254.67 1063.52,-1272.97 1099.19,-1287.23"/>
<polygon fill="black" stroke="black" points="1097.91,-1290.48 1108.49,-1290.94 1100.5,-1283.98 1097.91,-1290.48"/>
</g>
<!-- Misc -->
<g id="node39" class="node"><title>Misc</title>
<polygon fill="none" stroke="black" points="716.282,-866 662.282,-866 662.282,-862 658.282,-862 658.282,-858 662.282,-858 662.282,-838 658.282,-838 658.282,-834 662.282,-834 662.282,-830 716.282,-830 716.282,-866"/>
<polyline fill="none" stroke="black" points="662.282,-862 666.282,-862 666.282,-858 662.282,-858 "/>
<polyline fill="none" stroke="black" points="662.282,-838 666.282,-838 666.282,-834 662.282,-834 "/>
<text text-anchor="middle" x="689.282" y="-844.3" font-family="Times,serif" font-size="14.00">Misc</text>
</g>
<!-- Misc&#45;&gt;Core_ComponentBase -->
<g id="edge55" class="edge"><title>Misc&#45;&gt;Core_ComponentBase</title>
<path fill="none" stroke="black" stroke-dasharray="1,5" d="M716.328,-841.871C777.533,-829.117 932.172,-806.721 1022.82,-881 1086.78,-933.419 1134.85,-1194.6 1149.24,-1281.11"/>
<polygon fill="black" stroke="black" points="1145.79,-1281.7 1150.86,-1291 1152.69,-1280.56 1145.79,-1281.7"/>
</g>
<!-- Pager -->
<g id="node40" class="node"><title>Pager</title>
<polygon fill="none" stroke="black" points="716.282,-1028 662.282,-1028 662.282,-1024 658.282,-1024 658.282,-1020 662.282,-1020 662.282,-1000 658.282,-1000 658.282,-996 662.282,-996 662.282,-992 716.282,-992 716.282,-1028"/>
<polyline fill="none" stroke="black" points="662.282,-1024 666.282,-1024 666.282,-1020 662.282,-1020 "/>
<polyline fill="none" stroke="black" points="662.282,-1000 666.282,-1000 666.282,-996 662.282,-996 "/>
<text text-anchor="middle" x="689.282" y="-1006.3" font-family="Times,serif" font-size="14.00">Pager</text>
</g>
<!-- Pager&#45;&gt;Core_ComponentBase -->
<g id="edge56" class="edge"><title>Pager&#45;&gt;Core_ComponentBase</title>
<path fill="none" stroke="black" stroke-dasharray="1,5" d="M716.468,-1004.14C750.831,-996.772 813.117,-984.547 867.104,-980 936.065,-974.191 965.547,-941.146 1022.82,-980 1125.69,-1049.8 1147.7,-1214.65 1152.4,-1280.8"/>
<polygon fill="black" stroke="black" points="1148.92,-1281.14 1153.04,-1290.9 1155.9,-1280.7 1148.92,-1281.14"/>
</g>
<!-- PagerInterface -->
<g id="node41" class="node"><title>PagerInterface</title>
<polygon fill="none" stroke="black" points="986.46,-1136 897.46,-1136 897.46,-1100 992.46,-1100 992.46,-1130 986.46,-1136"/>
<polyline fill="none" stroke="black" points="986.46,-1136 986.46,-1130 "/>
<polyline fill="none" stroke="black" points="992.46,-1130 986.46,-1130 "/>
<text text-anchor="middle" x="944.96" y="-1114.3" font-family="Times,serif" font-size="14.00">PagerInterface</text>
</g>
<!-- Pager&#45;&gt;PagerInterface -->
<g id="edge75" class="edge"><title>Pager&#45;&gt;PagerInterface</title>
<path fill="none" stroke="black" d="M716.457,-1008.86C747.146,-1008.79 798.295,-1012.81 833.589,-1037 856.89,-1052.97 845.08,-1073.31 867.104,-1091 873.307,-1095.98 880.495,-1100.08 887.935,-1103.44"/>
<polygon fill="black" stroke="black" points="886.857,-1106.78 897.439,-1107.31 889.498,-1100.29 886.857,-1106.78"/>
</g>
<!-- RedisManager -->
<g id="node42" class="node"><title>RedisManager</title>
<polygon fill="none" stroke="black" points="737.282,-812 641.282,-812 641.282,-808 637.282,-808 637.282,-804 641.282,-804 641.282,-784 637.282,-784 637.282,-780 641.282,-780 641.282,-776 737.282,-776 737.282,-812"/>
<polyline fill="none" stroke="black" points="641.282,-808 645.282,-808 645.282,-804 641.282,-804 "/>
<polyline fill="none" stroke="black" points="641.282,-784 645.282,-784 645.282,-780 641.282,-780 "/>
<text text-anchor="middle" x="689.282" y="-790.3" font-family="Times,serif" font-size="14.00">RedisManager</text>
</g>
<!-- RedisManager&#45;&gt;Core_ComponentBase -->
<g id="edge57" class="edge"><title>RedisManager&#45;&gt;Core_ComponentBase</title>
<path fill="none" stroke="black" stroke-dasharray="1,5" d="M737.355,-783.408C808.11,-770.463 942.155,-757.912 1022.82,-826 1094.26,-886.306 1138.07,-1186.61 1150.22,-1280.74"/>
<polygon fill="black" stroke="black" points="1146.78,-1281.44 1151.51,-1290.92 1153.72,-1280.56 1146.78,-1281.44"/>
</g>
<!-- RedisCache -->
<g id="node43" class="node"><title>RedisCache</title>
<polygon fill="none" stroke="black" points="729.782,-758 648.782,-758 648.782,-754 644.782,-754 644.782,-750 648.782,-750 648.782,-730 644.782,-730 644.782,-726 648.782,-726 648.782,-722 729.782,-722 729.782,-758"/>
<polyline fill="none" stroke="black" points="648.782,-754 652.782,-754 652.782,-750 648.782,-750 "/>
<polyline fill="none" stroke="black" points="648.782,-730 652.782,-730 652.782,-726 648.782,-726 "/>
<text text-anchor="middle" x="689.282" y="-736.3" font-family="Times,serif" font-size="14.00">RedisCache</text>
</g>
<!-- RedisCache&#45;&gt;Core_ComponentBase -->
<g id="edge58" class="edge"><title>RedisCache&#45;&gt;Core_ComponentBase</title>
<path fill="none" stroke="black" stroke-dasharray="1,5" d="M729.924,-730.481C798.536,-716.556 940.004,-699.449 1022.82,-771 1101.94,-839.367 1141.1,-1180.13 1151.07,-1280.89"/>
<polygon fill="black" stroke="black" points="1147.59,-1281.31 1152.04,-1290.93 1154.56,-1280.64 1147.59,-1281.31"/>
</g>
<!-- RouteHookApiServer -->
<g id="node44" class="node"><title>RouteHookApiServer</title>
<polygon fill="none" stroke="black" points="756.282,-704 622.282,-704 622.282,-700 618.282,-700 618.282,-696 622.282,-696 622.282,-676 618.282,-676 618.282,-672 622.282,-672 622.282,-668 756.282,-668 756.282,-704"/>
<polyline fill="none" stroke="black" points="622.282,-700 626.282,-700 626.282,-696 622.282,-696 "/>
<polyline fill="none" stroke="black" points="622.282,-676 626.282,-676 626.282,-672 622.282,-672 "/>
<text text-anchor="middle" x="689.282" y="-682.3" font-family="Times,serif" font-size="14.00">RouteHookApiServer</text>
</g>
<!-- RouteHookApiServer&#45;&gt;Core_ComponentBase -->
<g id="edge59" class="edge"><title>RouteHookApiServer&#45;&gt;Core_ComponentBase</title>
<path fill="none" stroke="black" stroke-dasharray="1,5" d="M756.54,-670.927C830.737,-658.265 950.088,-651.152 1022.82,-715 1109.9,-791.447 1143.85,-1173.37 1151.77,-1280.83"/>
<polygon fill="black" stroke="black" points="1148.28,-1281.18 1152.49,-1290.9 1155.26,-1280.68 1148.28,-1281.18"/>
</g>
<!-- RouteHookDirectoryMode -->
<g id="node45" class="node"><title>RouteHookDirectoryMode</title>
<polygon fill="none" stroke="black" points="770.782,-650 607.782,-650 607.782,-646 603.782,-646 603.782,-642 607.782,-642 607.782,-622 603.782,-622 603.782,-618 607.782,-618 607.782,-614 770.782,-614 770.782,-650"/>
<polyline fill="none" stroke="black" points="607.782,-646 611.782,-646 611.782,-642 607.782,-642 "/>
<polyline fill="none" stroke="black" points="607.782,-622 611.782,-622 611.782,-618 607.782,-618 "/>
<text text-anchor="middle" x="689.282" y="-628.3" font-family="Times,serif" font-size="14.00">RouteHookDirectoryMode</text>
</g>
<!-- RouteHookDirectoryMode&#45;&gt;Core_ComponentBase -->
<g id="edge60" class="edge"><title>RouteHookDirectoryMode&#45;&gt;Core_ComponentBase</title>
<path fill="none" stroke="black" stroke-dasharray="1,5" d="M770.901,-614.118C845.573,-602.653 955.017,-599.58 1022.82,-660 1117.69,-744.546 1146.3,-1167.22 1152.34,-1280.84"/>
<polygon fill="black" stroke="black" points="1148.84,-1281.05 1152.85,-1290.85 1155.83,-1280.69 1148.84,-1281.05"/>
</g>
<!-- RouteHookManager -->
<g id="node46" class="node"><title>RouteHookManager</title>
<polygon fill="none" stroke="black" points="753.282,-596 625.282,-596 625.282,-592 621.282,-592 621.282,-588 625.282,-588 625.282,-568 621.282,-568 621.282,-564 625.282,-564 625.282,-560 753.282,-560 753.282,-596"/>
<polyline fill="none" stroke="black" points="625.282,-592 629.282,-592 629.282,-588 625.282,-588 "/>
<polyline fill="none" stroke="black" points="625.282,-568 629.282,-568 629.282,-564 625.282,-564 "/>
<text text-anchor="middle" x="689.282" y="-574.3" font-family="Times,serif" font-size="14.00">RouteHookManager</text>
</g>
<!-- RouteHookManager&#45;&gt;Core_ComponentBase -->
<g id="edge61" class="edge"><title>RouteHookManager&#45;&gt;Core_ComponentBase</title>
<path fill="none" stroke="black" stroke-dasharray="1,5" d="M753.579,-562.865C827.824,-549.205 949.992,-540.12 1022.82,-606 1125.15,-698.575 1148.44,-1160.51 1152.8,-1280.49"/>
<polygon fill="black" stroke="black" points="1149.3,-1280.83 1153.15,-1290.7 1156.3,-1280.59 1149.3,-1280.83"/>
</g>
<!-- RouteHookPathInfoCompat -->
<g id="node47" class="node"><title>RouteHookPathInfoCompat</title>
<polygon fill="none" stroke="black" points="773.782,-542 604.782,-542 604.782,-538 600.782,-538 600.782,-534 604.782,-534 604.782,-514 600.782,-514 600.782,-510 604.782,-510 604.782,-506 773.782,-506 773.782,-542"/>
<polyline fill="none" stroke="black" points="604.782,-538 608.782,-538 608.782,-534 604.782,-534 "/>
<polyline fill="none" stroke="black" points="604.782,-514 608.782,-514 608.782,-510 604.782,-510 "/>
<text text-anchor="middle" x="689.282" y="-520.3" font-family="Times,serif" font-size="14.00">RouteHookPathInfoCompat</text>
</g>
<!-- RouteHookPathInfoCompat&#45;&gt;Core_ComponentBase -->
<g id="edge62" class="edge"><title>RouteHookPathInfoCompat&#45;&gt;Core_ComponentBase</title>
<path fill="none" stroke="black" stroke-dasharray="1,5" d="M771.313,-505.981C846.281,-494.468 955.931,-491.535 1022.82,-553 1132.42,-653.722 1150.39,-1154.82 1153.19,-1280.42"/>
<polygon fill="black" stroke="black" points="1149.7,-1280.82 1153.4,-1290.74 1156.69,-1280.67 1149.7,-1280.82"/>
</g>
<!-- RouteHookRewrite -->
<g id="node48" class="node"><title>RouteHookRewrite</title>
<polygon fill="none" stroke="black" points="750.282,-488 628.282,-488 628.282,-484 624.282,-484 624.282,-480 628.282,-480 628.282,-460 624.282,-460 624.282,-456 628.282,-456 628.282,-452 750.282,-452 750.282,-488"/>
<polyline fill="none" stroke="black" points="628.282,-484 632.282,-484 632.282,-480 628.282,-480 "/>
<polyline fill="none" stroke="black" points="628.282,-460 632.282,-460 632.282,-456 628.282,-456 "/>
<text text-anchor="middle" x="689.282" y="-466.3" font-family="Times,serif" font-size="14.00">RouteHookRewrite</text>
</g>
<!-- RouteHookRewrite&#45;&gt;Core_ComponentBase -->
<g id="edge63" class="edge"><title>RouteHookRewrite&#45;&gt;Core_ComponentBase</title>
<path fill="none" stroke="black" stroke-dasharray="1,5" d="M750.288,-455.462C824.427,-441.409 949.698,-431.046 1022.82,-499 1140.05,-607.95 1152.3,-1149.68 1153.55,-1280.52"/>
<polygon fill="black" stroke="black" points="1150.05,-1280.92 1153.63,-1290.89 1157.05,-1280.87 1150.05,-1280.92"/>
</g>
<!-- RouteHookRouteMap -->
<g id="node49" class="node"><title>RouteHookRouteMap</title>
<polygon fill="none" stroke="black" points="757.782,-434 620.782,-434 620.782,-430 616.782,-430 616.782,-426 620.782,-426 620.782,-406 616.782,-406 616.782,-402 620.782,-402 620.782,-398 757.782,-398 757.782,-434"/>
<polyline fill="none" stroke="black" points="620.782,-430 624.782,-430 624.782,-426 620.782,-426 "/>
<polyline fill="none" stroke="black" points="620.782,-406 624.782,-406 624.782,-402 620.782,-402 "/>
<text text-anchor="middle" x="689.282" y="-412.3" font-family="Times,serif" font-size="14.00">RouteHookRouteMap</text>
</g>
<!-- RouteHookRouteMap&#45;&gt;Core_ComponentBase -->
<g id="edge64" class="edge"><title>RouteHookRouteMap&#45;&gt;Core_ComponentBase</title>
<path fill="none" stroke="black" stroke-dasharray="1,5" d="M757.999,-399.942C832.959,-386.561 952.463,-378.967 1022.82,-445 1147.75,-562.262 1154.1,-1145.26 1153.86,-1280.81"/>
<polygon fill="black" stroke="black" points="1150.36,-1280.81 1153.83,-1290.82 1157.36,-1280.83 1150.36,-1280.81"/>
</g>
<!-- StrictCheck -->
<g id="node50" class="node"><title>StrictCheck</title>
<polygon fill="none" stroke="black" points="729.282,-380 649.282,-380 649.282,-376 645.282,-376 645.282,-372 649.282,-372 649.282,-352 645.282,-352 645.282,-348 649.282,-348 649.282,-344 729.282,-344 729.282,-380"/>
<polyline fill="none" stroke="black" points="649.282,-376 653.282,-376 653.282,-372 649.282,-372 "/>
<polyline fill="none" stroke="black" points="649.282,-352 653.282,-352 653.282,-348 649.282,-348 "/>
<text text-anchor="middle" x="689.282" y="-358.3" font-family="Times,serif" font-size="14.00">StrictCheck</text>
</g>
<!-- StrictCheck&#45;&gt;Core_ComponentBase -->
<g id="edge65" class="edge"><title>StrictCheck&#45;&gt;Core_ComponentBase</title>
<path fill="none" stroke="black" stroke-dasharray="1,5" d="M729.422,-359.613C808.118,-355.707 981.524,-351.904 1022.82,-391 1155.27,-516.412 1155.77,-1139.13 1154.14,-1280.44"/>
<polygon fill="black" stroke="black" points="1150.63,-1280.8 1154.01,-1290.85 1157.63,-1280.89 1150.63,-1280.8"/>
</g>
<!-- DuckPhp -->
<g id="node51" class="node"><title>DuckPhp</title>
<polygon fill="lightgrey" stroke="black" points="325.909,-688 264.242,-670 325.909,-652 387.576,-670 325.909,-688"/>
<polyline fill="none" stroke="black" points="275.761,-673.362 275.761,-666.638 "/>
<polyline fill="none" stroke="black" points="314.39,-655.362 337.428,-655.362 "/>
<polyline fill="none" stroke="black" points="376.057,-666.638 376.057,-673.362 "/>
<polyline fill="none" stroke="black" points="337.428,-684.638 314.39,-684.638 "/>
<text text-anchor="middle" x="325.909" y="-666.3" font-family="Times,serif" font-size="14.00">DuckPhp</text>
</g>
<!-- DuckPhp&#45;&gt;Core_App -->
<g id="edge76" class="edge"><title>DuckPhp&#45;&gt;Core_App</title>
<path fill="none" stroke="black" d="M329.857,-687.242C348.013,-793.438 444.61,-1358.43 466.704,-1487.66"/>
<polygon fill="black" stroke="black" points="463.307,-1488.56 468.442,-1497.83 470.207,-1487.38 463.307,-1488.56"/>
</g>
<!-- DuckPhp&#45;&gt;Cache -->
<g id="edge82" class="edge"><title>DuckPhp&#45;&gt;Cache</title>
<path fill="none" stroke="black" d="M331.609,-653.333C348.739,-596.16 413.801,-407.541 544.974,-335 578.17,-316.642 621.6,-310.524 651.912,-308.607"/>
<polygon fill="black" stroke="black" points="652.239,-312.095 662.048,-308.091 651.883,-305.104 652.239,-312.095"/>
</g>
<!-- DuckPhp&#45;&gt;Console -->
<g id="edge83" class="edge"><title>DuckPhp&#45;&gt;Console</title>
<path fill="none" stroke="black" d="M334.288,-685.754C357.404,-733.028 433.578,-873.804 544.974,-929 577.544,-945.138 618.656,-951.667 648.485,-954.289"/>
<polygon fill="black" stroke="black" points="648.293,-957.785 658.532,-955.063 648.831,-950.805 648.293,-957.785"/>
</g>
<!-- DuckPhp&#45;&gt;DbManager -->
<g id="edge79" class="edge"><title>DuckPhp&#45;&gt;DbManager</title>
<path fill="none" stroke="black" d="M328.676,-652.551C334.499,-602.572 356.932,-456.418 427.441,-362 465.401,-311.169 486.414,-305.402 544.974,-281 574.529,-268.684 609.858,-261.947 638.042,-258.283"/>
<polygon fill="black" stroke="black" points="638.572,-261.745 648.079,-257.067 637.73,-254.795 638.572,-261.745"/>
</g>
<!-- DuckPhp&#45;&gt;EventManager -->
<g id="edge80" class="edge"><title>DuckPhp&#45;&gt;EventManager</title>
<path fill="none" stroke="black" d="M340.591,-683.726C384.461,-727.614 520.194,-862.401 544.974,-875 571.289,-888.38 603.363,-895.172 630.491,-898.603"/>
<polygon fill="black" stroke="black" points="630.291,-902.103 640.623,-899.76 631.085,-895.148 630.291,-902.103"/>
</g>
<!-- DuckPhp&#45;&gt;Pager -->
<g id="edge78" class="edge"><title>DuckPhp&#45;&gt;Pager</title>
<path fill="none" stroke="black" d="M331.794,-686.519C343.614,-724.582 376.585,-820.23 427.441,-886 468.872,-939.58 483.641,-954.268 544.974,-983 579.223,-999.044 622.3,-1005.56 652.239,-1008.2"/>
<polygon fill="black" stroke="black" points="652.003,-1011.69 662.245,-1008.98 652.549,-1004.71 652.003,-1011.69"/>
</g>
<!-- DuckPhp&#45;&gt;RouteHookPathInfoCompat -->
<g id="edge81" class="edge"><title>DuckPhp&#45;&gt;RouteHookPathInfoCompat</title>
<path fill="none" stroke="black" d="M345.219,-657.391C381.575,-632.965 466.175,-579.13 544.974,-551 560.72,-545.379 577.879,-540.861 594.674,-537.252"/>
<polygon fill="black" stroke="black" points="595.417,-540.672 604.507,-535.23 594.007,-533.816 595.417,-540.672"/>
</g>
<!-- DuckPhp&#45;&gt;RouteHookRouteMap -->
<g id="edge77" class="edge"><title>DuckPhp&#45;&gt;RouteHookRouteMap</title>
<path fill="none" stroke="black" d="M336.267,-655.004C363.037,-613.514 444.494,-496.724 544.974,-443 564.916,-432.337 588.388,-425.828 610.499,-421.873"/>
<polygon fill="black" stroke="black" points="611.241,-425.298 620.545,-420.229 610.111,-418.39 611.241,-425.298"/>
</g>
<!-- ThrowOn -->
<g id="node52" class="node"><title>ThrowOn</title>
<polygon fill="lightgrey" stroke="black" points="116.188,-1720 52.8443,-1702 116.188,-1684 179.532,-1702 116.188,-1720"/>
<polyline fill="none" stroke="black" points="64.3873,-1705.28 64.3873,-1698.72 "/>
<polyline fill="none" stroke="black" points="104.645,-1687.28 127.731,-1687.28 "/>
<polyline fill="none" stroke="black" points="167.989,-1698.72 167.989,-1705.28 "/>
<polyline fill="none" stroke="black" points="127.731,-1716.72 104.645,-1716.72 "/>
<text text-anchor="middle" x="116.188" y="-1698.3" font-family="Times,serif" font-size="14.00">ThrowOn</text>
</g>
</g>
</svg>
