<?xml version="1.0" encoding="UTF-8" standalone="no"?>
<!DOCTYPE svg PUBLIC "-//W3C//DTD SVG 1.1//EN"
 "http://www.w3.org/Graphics/SVG/1.1/DTD/svg11.dtd">
<!-- Generated by graphviz version 2.38.0 (20140413.2041)
 -->
<!-- Title: G Pages: 1 -->
<svg width="1431pt" height="1451pt"
 viewBox="0.00 0.00 1430.79 1451.26" xmlns="http://www.w3.org/2000/svg" xmlns:xlink="http://www.w3.org/1999/xlink">
<g id="graph0" class="graph" transform="scale(1 1) rotate(0) translate(4 1447.26)">
<title>G</title>
<polygon fill="white" stroke="none" points="-4,4 -4,-1447.26 1426.79,-1447.26 1426.79,4 -4,4"/>
<g id="clust1" class="cluster"><title>cluster_Core</title>
<polygon fill="none" stroke="black" points="427.441,-908.256 427.441,-1435.26 1389.97,-1435.26 1389.97,-908.256 427.441,-908.256"/>
<text text-anchor="middle" x="908.707" y="-1420.06" font-family="Times,serif" font-size="14.00">[DuckPhp\Core]</text>
</g>
<g id="clust2" class="cluster"><title>cluster_Helper</title>
<polygon fill="none" stroke="black" points="8,-1008.26 8,-1299.26 407.441,-1299.26 407.441,-1008.26 8,-1008.26"/>
<text text-anchor="middle" x="207.721" y="-1284.06" font-family="Times,serif" font-size="14.00">[DuckPhp\Helper]</text>
</g>
<g id="clust3" class="cluster"><title>cluster_DB</title>
<polygon fill="none" stroke="black" points="1080.08,-14.2555 1080.08,-143.256 1414.79,-143.256 1414.79,-14.2555 1080.08,-14.2555"/>
<text text-anchor="middle" x="1247.43" y="-128.056" font-family="Times,serif" font-size="14.00">[DuckPhp\DB]</text>
</g>
<g id="clust4" class="cluster"><title>cluster_Ext</title>
<polygon fill="none" stroke="black" points="577.417,-41.2555 577.417,-872.256 1018.08,-872.256 1018.08,-41.2555 577.417,-41.2555"/>
<text text-anchor="middle" x="797.75" y="-857.056" font-family="Times,serif" font-size="14.00">[DuckPhp\Ext]</text>
</g>
<g id="clust5" class="cluster"><title>cluster_DuckPhp</title>
<polygon fill="none" stroke="black" points="248.053,-644.256 248.053,-773.256 403.765,-773.256 403.765,-644.256 248.053,-644.256"/>
<text text-anchor="middle" x="325.909" y="-758.056" font-family="Times,serif" font-size="14.00">[DuckPhp]</text>
</g>
<!-- Core_AppPluginTrait -->
<g id="node1" class="node"><title>Core_AppPluginTrait</title>
<polygon fill="none" stroke="black" points="689.282,-1102.26 596.612,-1084.26 689.282,-1066.26 781.952,-1084.26 689.282,-1102.26"/>
<text text-anchor="middle" x="689.282" y="-1080.56" font-family="Times,serif" font-size="14.00">AppPluginTrait</text>
</g>
<!-- Core_View -->
<g id="node7" class="node"><title>Core_View</title>
<polygon fill="none" stroke="black" points="974.582,-1006.26 920.582,-1006.26 920.582,-1002.26 916.582,-1002.26 916.582,-998.256 920.582,-998.256 920.582,-978.256 916.582,-978.256 916.582,-974.256 920.582,-974.256 920.582,-970.256 974.582,-970.256 974.582,-1006.26"/>
<polyline fill="none" stroke="black" points="920.582,-1002.26 924.582,-1002.26 924.582,-998.256 920.582,-998.256 "/>
<polyline fill="none" stroke="black" points="920.582,-978.256 924.582,-978.256 924.582,-974.256 920.582,-974.256 "/>
<text text-anchor="middle" x="947.582" y="-984.556" font-family="Times,serif" font-size="14.00">View</text>
</g>
<!-- Core_AppPluginTrait&#45;&gt;Core_View -->
<g id="edge24" class="edge"><title>Core_AppPluginTrait&#45;&gt;Core_View</title>
<path fill="none" stroke="black" d="M724.211,-1072.94C753.466,-1062.95 796.696,-1047.62 833.589,-1032.26 849.924,-1025.45 853.219,-1021.97 869.589,-1015.26 882.852,-1009.82 897.662,-1004.46 910.722,-999.966"/>
<polygon fill="black" stroke="black" points="911.967,-1003.24 920.314,-996.713 909.719,-996.61 911.967,-1003.24"/>
</g>
<!-- Core_Configer -->
<g id="node8" class="node"><title>Core_Configer</title>
<polygon fill="none" stroke="black" points="980.082,-1114.26 915.082,-1114.26 915.082,-1110.26 911.082,-1110.26 911.082,-1106.26 915.082,-1106.26 915.082,-1086.26 911.082,-1086.26 911.082,-1082.26 915.082,-1082.26 915.082,-1078.26 980.082,-1078.26 980.082,-1114.26"/>
<polyline fill="none" stroke="black" points="915.082,-1110.26 919.082,-1110.26 919.082,-1106.26 915.082,-1106.26 "/>
<polyline fill="none" stroke="black" points="915.082,-1086.26 919.082,-1086.26 919.082,-1082.26 915.082,-1082.26 "/>
<text text-anchor="middle" x="947.582" y="-1092.56" font-family="Times,serif" font-size="14.00">Configer</text>
</g>
<!-- Core_AppPluginTrait&#45;&gt;Core_Configer -->
<g id="edge23" class="edge"><title>Core_AppPluginTrait&#45;&gt;Core_Configer</title>
<path fill="none" stroke="black" d="M764.415,-1087.73C810.091,-1089.86 866.974,-1092.53 904.907,-1094.3"/>
<polygon fill="black" stroke="black" points="904.926,-1097.81 915.079,-1094.78 905.253,-1090.82 904.926,-1097.81"/>
</g>
<!-- Core_Route -->
<g id="node10" class="node"><title>Core_Route</title>
<polygon fill="lightgrey" stroke="black" points="947.582,-1060.26 902.505,-1042.26 947.582,-1024.26 992.66,-1042.26 947.582,-1060.26"/>
<polyline fill="none" stroke="black" points="913.649,-1046.71 913.649,-1037.81 "/>
<polyline fill="none" stroke="black" points="936.438,-1028.71 958.727,-1028.71 "/>
<polyline fill="none" stroke="black" points="981.516,-1037.81 981.516,-1046.71 "/>
<polyline fill="none" stroke="black" points="958.727,-1055.81 936.438,-1055.81 "/>
<text text-anchor="middle" x="947.582" y="-1038.56" font-family="Times,serif" font-size="14.00">Route</text>
</g>
<!-- Core_AppPluginTrait&#45;&gt;Core_Route -->
<g id="edge25" class="edge"><title>Core_AppPluginTrait&#45;&gt;Core_Route</title>
<path fill="none" stroke="black" d="M740.308,-1076.06C788.422,-1068.17 860.295,-1056.4 905.255,-1049.03"/>
<polygon fill="black" stroke="black" points="905.945,-1052.46 915.247,-1047.39 904.813,-1045.55 905.945,-1052.46"/>
</g>
<!-- Core_SuperGlobal -->
<g id="node14" class="node"><title>Core_SuperGlobal</title>
<polygon fill="none" stroke="black" points="990.082,-1168.26 905.082,-1168.26 905.082,-1164.26 901.082,-1164.26 901.082,-1160.26 905.082,-1160.26 905.082,-1140.26 901.082,-1140.26 901.082,-1136.26 905.082,-1136.26 905.082,-1132.26 990.082,-1132.26 990.082,-1168.26"/>
<polyline fill="none" stroke="black" points="905.082,-1164.26 909.082,-1164.26 909.082,-1160.26 905.082,-1160.26 "/>
<polyline fill="none" stroke="black" points="905.082,-1140.26 909.082,-1140.26 909.082,-1136.26 905.082,-1136.26 "/>
<text text-anchor="middle" x="947.582" y="-1146.56" font-family="Times,serif" font-size="14.00">SuperGlobal</text>
</g>
<!-- Core_AppPluginTrait&#45;&gt;Core_SuperGlobal -->
<g id="edge26" class="edge"><title>Core_AppPluginTrait&#45;&gt;Core_SuperGlobal</title>
<path fill="none" stroke="black" d="M729.767,-1094.42C774.17,-1105.86 846.427,-1124.46 895.196,-1137.02"/>
<polygon fill="black" stroke="black" points="894.368,-1140.42 904.924,-1139.53 896.113,-1133.64 894.368,-1140.42"/>
</g>
<!-- Core_App -->
<g id="node2" class="node"><title>Core_App</title>
<polygon fill="lightgrey" stroke="black" points="472.208,-1180.26 435.674,-1162.26 472.208,-1144.26 508.742,-1162.26 472.208,-1180.26"/>
<polyline fill="none" stroke="black" points="446.438,-1167.56 446.438,-1156.95 "/>
<polyline fill="none" stroke="black" points="461.443,-1149.56 482.972,-1149.56 "/>
<polyline fill="none" stroke="black" points="497.977,-1156.95 497.977,-1167.56 "/>
<polyline fill="none" stroke="black" points="482.972,-1174.95 461.443,-1174.95 "/>
<text text-anchor="middle" x="472.208" y="-1158.56" font-family="Times,serif" font-size="14.00">App</text>
</g>
<!-- Core_Kernel -->
<g id="node3" class="node"><title>Core_Kernel</title>
<polygon fill="none" stroke="black" points="689.282,-1196.26 640.35,-1178.26 689.282,-1160.26 738.213,-1178.26 689.282,-1196.26"/>
<text text-anchor="middle" x="689.282" y="-1174.56" font-family="Times,serif" font-size="14.00">Kernel</text>
</g>
<!-- Core_App&#45;&gt;Core_Kernel -->
<g id="edge9" class="edge"><title>Core_App&#45;&gt;Core_Kernel</title>
<path fill="none" stroke="black" d="M504.481,-1164.58C539.495,-1167.19 596.731,-1171.44 638.037,-1174.52"/>
<polygon fill="black" stroke="black" points="637.941,-1178.02 648.173,-1175.27 638.46,-1171.04 637.941,-1178.02"/>
</g>
<!-- Core_AutoLoader -->
<g id="node5" class="node"><title>Core_AutoLoader</title>
<ellipse fill="none" stroke="black" cx="947.582" cy="-1258.26" rx="53.0913" ry="18"/>
<text text-anchor="middle" x="947.582" y="-1254.56" font-family="Times,serif" font-size="14.00">AutoLoader</text>
</g>
<!-- Core_App&#45;&gt;Core_AutoLoader -->
<g id="edge13" class="edge"><title>Core_App&#45;&gt;Core_AutoLoader</title>
<path fill="none" stroke="black" stroke-dasharray="1,5" d="M483.934,-1174.73C496.836,-1188.76 519.911,-1210.95 544.974,-1221.26 560.443,-1227.61 776.578,-1245.09 885.194,-1253.55"/>
<polygon fill="black" stroke="black" points="885.118,-1257.06 895.359,-1254.34 885.661,-1250.08 885.118,-1257.06"/>
</g>
<!-- Core_ExceptionManager -->
<g id="node6" class="node"><title>Core_ExceptionManager</title>
<ellipse fill="none" stroke="black" cx="947.582" cy="-1332.26" rx="77.9862" ry="18"/>
<text text-anchor="middle" x="947.582" y="-1328.56" font-family="Times,serif" font-size="14.00">ExceptionManager</text>
</g>
<!-- Core_App&#45;&gt;Core_ExceptionManager -->
<g id="edge16" class="edge"><title>Core_App&#45;&gt;Core_ExceptionManager</title>
<path fill="none" stroke="black" stroke-dasharray="1,5" d="M472.954,-1180.07C473.444,-1222.16 481.271,-1327.64 544.974,-1373.26 597.119,-1410.6 770.552,-1385.08 833.589,-1373.26 850.462,-1370.09 853.487,-1365.21 869.589,-1359.26 877.42,-1356.36 885.726,-1353.37 893.873,-1350.48"/>
<polygon fill="black" stroke="black" points="895.062,-1353.77 903.326,-1347.14 892.732,-1347.17 895.062,-1353.77"/>
</g>
<!-- Core_App&#45;&gt;Core_View -->
<g id="edge19" class="edge"><title>Core_App&#45;&gt;Core_View</title>
<path fill="none" stroke="black" stroke-dasharray="1,5" d="M476.665,-1146.42C483.828,-1117.89 503.233,-1058.38 544.974,-1032.26 572.195,-1015.22 801.846,-1022.1 833.589,-1017.26 859.805,-1013.25 888.765,-1005.76 910.803,-999.388"/>
<polygon fill="black" stroke="black" points="911.804,-1002.74 920.407,-996.559 909.825,-996.028 911.804,-1002.74"/>
</g>
<!-- Core_App&#45;&gt;Core_Configer -->
<g id="edge14" class="edge"><title>Core_App&#45;&gt;Core_Configer</title>
<path fill="none" stroke="black" stroke-dasharray="1,5" d="M494.312,-1154.98C508.479,-1150.38 527.65,-1144.66 544.974,-1141.26 671.516,-1116.38 705.518,-1126.41 833.589,-1111.26 857.233,-1108.46 883.61,-1104.98 904.929,-1102.07"/>
<polygon fill="black" stroke="black" points="905.522,-1105.52 914.954,-1100.7 904.572,-1098.59 905.522,-1105.52"/>
</g>
<!-- Core_Logger -->
<g id="node9" class="node"><title>Core_Logger</title>
<polygon fill="none" stroke="black" points="975.582,-1404.26 919.582,-1404.26 919.582,-1400.26 915.582,-1400.26 915.582,-1396.26 919.582,-1396.26 919.582,-1376.26 915.582,-1376.26 915.582,-1372.26 919.582,-1372.26 919.582,-1368.26 975.582,-1368.26 975.582,-1404.26"/>
<polyline fill="none" stroke="black" points="919.582,-1400.26 923.582,-1400.26 923.582,-1396.26 919.582,-1396.26 "/>
<polyline fill="none" stroke="black" points="919.582,-1376.26 923.582,-1376.26 923.582,-1372.26 919.582,-1372.26 "/>
<text text-anchor="middle" x="947.582" y="-1382.56" font-family="Times,serif" font-size="14.00">Logger</text>
</g>
<!-- Core_App&#45;&gt;Core_Logger -->
<g id="edge15" class="edge"><title>Core_App&#45;&gt;Core_Logger</title>
<path fill="none" stroke="black" stroke-dasharray="1,5" d="M472.499,-1180.3C471.868,-1224.6 477.198,-1338.67 544.974,-1388.26 602.089,-1430.04 821.15,-1404.3 909.411,-1391.85"/>
<polygon fill="black" stroke="black" points="910.104,-1395.29 919.506,-1390.4 909.11,-1388.36 910.104,-1395.29"/>
</g>
<!-- Core_App&#45;&gt;Core_Route -->
<g id="edge17" class="edge"><title>Core_App&#45;&gt;Core_Route</title>
<path fill="none" stroke="black" stroke-dasharray="1,5" d="M478.454,-1147.06C487.658,-1123.04 509.21,-1076.99 544.974,-1057.26 604.529,-1024.39 806.347,-1032.89 899.166,-1038.8"/>
<polygon fill="black" stroke="black" points="899.19,-1042.31 909.397,-1039.47 899.648,-1035.33 899.19,-1042.31"/>
</g>
<!-- Core_RuntimeState -->
<g id="node11" class="node"><title>Core_RuntimeState</title>
<polygon fill="none" stroke="black" points="993.082,-1222.26 902.082,-1222.26 902.082,-1218.26 898.082,-1218.26 898.082,-1214.26 902.082,-1214.26 902.082,-1194.26 898.082,-1194.26 898.082,-1190.26 902.082,-1190.26 902.082,-1186.26 993.082,-1186.26 993.082,-1222.26"/>
<polyline fill="none" stroke="black" points="902.082,-1218.26 906.082,-1218.26 906.082,-1214.26 902.082,-1214.26 "/>
<polyline fill="none" stroke="black" points="902.082,-1194.26 906.082,-1194.26 906.082,-1190.26 902.082,-1190.26 "/>
<text text-anchor="middle" x="947.582" y="-1200.56" font-family="Times,serif" font-size="14.00">RuntimeState</text>
</g>
<!-- Core_App&#45;&gt;Core_RuntimeState -->
<g id="edge18" class="edge"><title>Core_App&#45;&gt;Core_RuntimeState</title>
<path fill="none" stroke="black" stroke-dasharray="1,5" d="M486.466,-1173.25C500.142,-1183.81 522.576,-1199.06 544.974,-1205.26 665.077,-1238.48 813.229,-1224.83 891.725,-1213.56"/>
<polygon fill="black" stroke="black" points="892.488,-1216.98 901.868,-1212.06 891.464,-1210.06 892.488,-1216.98"/>
</g>
<!-- Core_SystemWrapperTrait -->
<g id="node12" class="node"><title>Core_SystemWrapperTrait</title>
<polygon fill="none" stroke="black" points="689.282,-1310.26 568.962,-1292.26 689.282,-1274.26 809.601,-1292.26 689.282,-1310.26"/>
<text text-anchor="middle" x="689.282" y="-1288.56" font-family="Times,serif" font-size="14.00">SystemWrapperTrait</text>
</g>
<!-- Core_App&#45;&gt;Core_SystemWrapperTrait -->
<g id="edge12" class="edge"><title>Core_App&#45;&gt;Core_SystemWrapperTrait</title>
<path fill="none" stroke="black" d="M479.679,-1176.82C490.131,-1198.58 512.853,-1239.25 544.974,-1260.26 562.117,-1271.47 582.616,-1278.79 602.677,-1283.57"/>
<polygon fill="black" stroke="black" points="601.955,-1286.99 612.473,-1285.71 603.453,-1280.16 601.955,-1286.99"/>
</g>
<!-- Core_App&#45;&gt;Core_SuperGlobal -->
<g id="edge20" class="edge"><title>Core_App&#45;&gt;Core_SuperGlobal</title>
<path fill="none" stroke="black" stroke-dasharray="1,5" d="M499.01,-1157.35C512.624,-1155 529.642,-1152.44 544.974,-1151.26 670.125,-1141.56 817.871,-1145.01 894.537,-1147.91"/>
<polygon fill="black" stroke="black" points="894.745,-1151.42 904.874,-1148.31 895.018,-1144.42 894.745,-1151.42"/>
</g>
<!-- Core_ExtendableStaticCallTrait -->
<g id="node15" class="node"><title>Core_ExtendableStaticCallTrait</title>
<polygon fill="none" stroke="black" points="689.282,-954.256 545.166,-936.256 689.282,-918.256 833.397,-936.256 689.282,-954.256"/>
<text text-anchor="middle" x="689.282" y="-932.556" font-family="Times,serif" font-size="14.00">ExtendableStaticCallTrait</text>
</g>
<!-- Core_App&#45;&gt;Core_ExtendableStaticCallTrait -->
<g id="edge11" class="edge"><title>Core_App&#45;&gt;Core_ExtendableStaticCallTrait</title>
<path fill="none" stroke="black" d="M473.96,-1144.98C476.644,-1106.03 488.913,-1011 544.974,-963.256 554.48,-955.16 565.641,-949.182 577.468,-944.805"/>
<polygon fill="black" stroke="black" points="578.68,-948.091 587.076,-941.629 576.483,-941.444 578.68,-948.091"/>
</g>
<!-- Core_ThrowOn -->
<g id="node16" class="node"><title>Core_ThrowOn</title>
<polygon fill="lightgrey" stroke="black" points="689.282,-1008.26 625.938,-990.256 689.282,-972.256 752.626,-990.256 689.282,-1008.26"/>
<polyline fill="none" stroke="black" points="637.481,-993.536 637.481,-986.975 "/>
<polyline fill="none" stroke="black" points="677.739,-975.536 700.825,-975.536 "/>
<polyline fill="none" stroke="black" points="741.083,-986.975 741.083,-993.536 "/>
<polyline fill="none" stroke="black" points="700.825,-1004.98 677.739,-1004.98 "/>
<text text-anchor="middle" x="689.282" y="-986.556" font-family="Times,serif" font-size="14.00">ThrowOn</text>
</g>
<!-- Core_App&#45;&gt;Core_ThrowOn -->
<g id="edge10" class="edge"><title>Core_App&#45;&gt;Core_ThrowOn</title>
<path fill="none" stroke="black" d="M476.644,-1146.4C483.866,-1117.05 503.495,-1054.34 544.974,-1022.26 566.513,-1005.59 595.029,-997.266 620.948,-993.217"/>
<polygon fill="black" stroke="black" points="621.68,-996.649 631.111,-991.821 620.728,-989.714 621.68,-996.649"/>
</g>
<!-- Core_ComponentBase -->
<g id="node18" class="node"><title>Core_ComponentBase</title>
<polygon fill="none" stroke="black" points="1168.58,-952.256 1065.58,-952.256 1061.58,-948.256 1061.58,-916.256 1164.58,-916.256 1168.58,-920.256 1168.58,-952.256"/>
<polyline fill="none" stroke="black" points="1164.58,-948.256 1061.58,-948.256 "/>
<polyline fill="none" stroke="black" points="1164.58,-948.256 1164.58,-916.256 "/>
<polyline fill="none" stroke="black" points="1164.58,-948.256 1168.58,-952.256 "/>
<text text-anchor="middle" x="1115.08" y="-930.556" font-family="Times,serif" font-size="14.00">ComponentBase</text>
</g>
<!-- Core_App&#45;&gt;Core_ComponentBase -->
<g id="edge22" class="edge"><title>Core_App&#45;&gt;Core_ComponentBase</title>
<path fill="none" stroke="black" stroke-dasharray="1,5" d="M481.089,-1176.04C492.512,-1194.54 515.559,-1226.75 544.974,-1241.26 660.416,-1298.19 710.435,-1227.83 833.589,-1265.26 851.102,-1270.58 851.871,-1280.66 869.589,-1285.26 903.145,-1293.95 998.232,-1306.56 1025.58,-1285.26 1077.08,-1245.13 1103.28,-1038.91 1111.32,-962.651"/>
<polygon fill="black" stroke="black" points="1114.84,-962.683 1112.38,-952.378 1107.87,-961.968 1114.84,-962.683"/>
</g>
<!-- Core_Functions -->
<g id="node19" class="node"><title>Core_Functions</title>
<ellipse fill="none" stroke="black" cx="689.282" cy="-1346.26" rx="45.4919" ry="18"/>
<text text-anchor="middle" x="689.282" y="-1342.56" font-family="Times,serif" font-size="14.00">Functions</text>
</g>
<!-- Core_App&#45;&gt;Core_Functions -->
<g id="edge21" class="edge"><title>Core_App&#45;&gt;Core_Functions</title>
<path fill="none" stroke="black" stroke-dasharray="1,5" d="M475.651,-1178.61C481.403,-1211 498.955,-1283.23 544.974,-1319.26 569.941,-1338.8 604.776,-1345.68 633.849,-1347.62"/>
<polygon fill="black" stroke="black" points="633.708,-1351.11 643.867,-1348.11 634.05,-1344.12 633.708,-1351.11"/>
</g>
<!-- Core_Kernel&#45;&gt;Core_AutoLoader -->
<g id="edge1" class="edge"><title>Core_Kernel&#45;&gt;Core_AutoLoader</title>
<path fill="none" stroke="black" d="M716.268,-1186.37C758.799,-1199.64 843.935,-1226.22 897.936,-1243.07"/>
<polygon fill="black" stroke="black" points="897.051,-1246.46 907.64,-1246.1 899.137,-1239.78 897.051,-1246.46"/>
</g>
<!-- Core_Kernel&#45;&gt;Core_ExceptionManager -->
<g id="edge4" class="edge"><title>Core_Kernel&#45;&gt;Core_ExceptionManager</title>
<path fill="none" stroke="black" d="M708.714,-1189.33C750.683,-1214.55 854.023,-1276.64 909.673,-1310.08"/>
<polygon fill="black" stroke="black" points="908.131,-1313.23 918.505,-1315.39 911.736,-1307.23 908.131,-1313.23"/>
</g>
<!-- Core_Kernel&#45;&gt;Core_View -->
<g id="edge7" class="edge"><title>Core_Kernel&#45;&gt;Core_View</title>
<path fill="none" stroke="black" d="M720.072,-1171.49C752.188,-1162.75 802.829,-1144.53 833.589,-1111.26 864.521,-1077.79 837.024,-1047.13 869.589,-1015.26 880.586,-1004.49 896.115,-998.002 910.348,-994.096"/>
<polygon fill="black" stroke="black" points="911.492,-997.421 920.4,-991.685 909.859,-990.614 911.492,-997.421"/>
</g>
<!-- Core_Kernel&#45;&gt;Core_Configer -->
<g id="edge2" class="edge"><title>Core_Kernel&#45;&gt;Core_Configer</title>
<path fill="none" stroke="black" d="M716.268,-1169.94C760.743,-1155.71 851.808,-1126.58 905.139,-1109.51"/>
<polygon fill="black" stroke="black" points="906.5,-1112.75 914.958,-1106.37 904.367,-1106.09 906.5,-1112.75"/>
</g>
<!-- Core_Kernel&#45;&gt;Core_Logger -->
<g id="edge3" class="edge"><title>Core_Kernel&#45;&gt;Core_Logger</title>
<path fill="none" stroke="black" d="M714.442,-1187.13C745.969,-1199.85 800.953,-1226.15 833.589,-1265.26 862.254,-1299.6 837.509,-1328.08 869.589,-1359.26 880.379,-1369.74 895.47,-1376.17 909.435,-1380.11"/>
<polygon fill="black" stroke="black" points="908.779,-1383.56 919.327,-1382.56 910.461,-1376.76 908.779,-1383.56"/>
</g>
<!-- Core_Kernel&#45;&gt;Core_Route -->
<g id="edge5" class="edge"><title>Core_Kernel&#45;&gt;Core_Route</title>
<path fill="none" stroke="black" d="M715.88,-1170.03C746.016,-1159.54 796.632,-1139.34 833.589,-1111.26 853.165,-1096.38 849.294,-1083.13 869.589,-1069.26 881.144,-1061.36 895.249,-1055.53 908.215,-1051.36"/>
<polygon fill="black" stroke="black" points="909.267,-1054.7 917.847,-1048.48 907.263,-1047.99 909.267,-1054.7"/>
</g>
<!-- Core_Kernel&#45;&gt;Core_RuntimeState -->
<g id="edge6" class="edge"><title>Core_Kernel&#45;&gt;Core_RuntimeState</title>
<path fill="none" stroke="black" d="M728.1,-1182.09C771.26,-1186.47 842.233,-1193.67 891.528,-1198.67"/>
<polygon fill="black" stroke="black" points="891.398,-1202.18 901.7,-1199.7 892.104,-1195.21 891.398,-1202.18"/>
</g>
<!-- Core_Kernel&#45;&gt;Core_SuperGlobal -->
<g id="edge8" class="edge"><title>Core_Kernel&#45;&gt;Core_SuperGlobal</title>
<path fill="none" stroke="black" d="M727.276,-1174.21C771.28,-1169.41 845.014,-1161.35 894.702,-1155.92"/>
<polygon fill="black" stroke="black" points="895.359,-1159.37 904.92,-1154.81 894.599,-1152.41 895.359,-1159.37"/>
</g>
<!-- Core_SingletonEx -->
<g id="node4" class="node"><title>Core_SingletonEx</title>
<polygon fill="lightgrey" stroke="black" points="1305.68,-1205.26 1229.6,-1187.26 1305.68,-1169.26 1381.76,-1187.26 1305.68,-1205.26"/>
<polyline fill="none" stroke="black" points="1241.28,-1190.02 1241.28,-1184.49 "/>
<polyline fill="none" stroke="black" points="1294.01,-1172.02 1317.36,-1172.02 "/>
<polyline fill="none" stroke="black" points="1370.09,-1184.49 1370.09,-1190.02 "/>
<polyline fill="none" stroke="black" points="1317.36,-1202.49 1294.01,-1202.49 "/>
<text text-anchor="middle" x="1305.68" y="-1183.56" font-family="Times,serif" font-size="14.00">SingletonEx</text>
</g>
<!-- Core_View&#45;&gt;Core_ComponentBase -->
<g id="edge31" class="edge"><title>Core_View&#45;&gt;Core_ComponentBase</title>
<path fill="none" stroke="black" stroke-dasharray="1,5" d="M974.805,-979.699C995.423,-972.971 1025.01,-963.317 1051.61,-954.636"/>
<polygon fill="black" stroke="black" points="1052.84,-957.919 1061.26,-951.489 1050.67,-951.264 1052.84,-957.919"/>
</g>
<!-- Core_Configer&#45;&gt;Core_ComponentBase -->
<g id="edge27" class="edge"><title>Core_Configer&#45;&gt;Core_ComponentBase</title>
<path fill="none" stroke="black" stroke-dasharray="1,5" d="M980.105,-1090.16C995.025,-1086.1 1012.41,-1079.56 1025.58,-1069.26 1062.42,-1040.43 1088.85,-991.793 1102.77,-961.44"/>
<polygon fill="black" stroke="black" points="1105.98,-962.835 1106.85,-952.276 1099.59,-959.988 1105.98,-962.835"/>
</g>
<!-- Core_Logger&#45;&gt;Core_ComponentBase -->
<g id="edge32" class="edge"><title>Core_Logger&#45;&gt;Core_ComponentBase</title>
<path fill="none" stroke="black" stroke-dasharray="1,5" d="M975.853,-1383.43C992.559,-1380.26 1013.07,-1373.53 1025.58,-1359.26 1078.15,-1299.24 1104.29,-1047.8 1111.77,-962.616"/>
<polygon fill="black" stroke="black" points="1115.28,-962.665 1112.64,-952.403 1108.3,-962.067 1115.28,-962.665"/>
</g>
<!-- Core_Route&#45;&gt;Core_ComponentBase -->
<g id="edge28" class="edge"><title>Core_Route&#45;&gt;Core_ComponentBase</title>
<path fill="none" stroke="black" stroke-dasharray="1,5" d="M976.133,-1035.53C991.37,-1031.1 1010.26,-1024.42 1025.58,-1015.26 1050.53,-1000.32 1074.59,-977.586 1091.31,-959.999"/>
<polygon fill="black" stroke="black" points="1094.2,-962.031 1098.45,-952.327 1089.07,-957.262 1094.2,-962.031"/>
</g>
<!-- Core_RuntimeState&#45;&gt;Core_ComponentBase -->
<g id="edge30" class="edge"><title>Core_RuntimeState&#45;&gt;Core_ComponentBase</title>
<path fill="none" stroke="black" stroke-dasharray="1,5" d="M993.482,-1195.82C1005.11,-1191.81 1016.81,-1185.92 1025.58,-1177.26 1086.27,-1117.28 1105.63,-1012.42 1111.57,-962.383"/>
<polygon fill="black" stroke="black" points="1115.06,-962.613 1112.67,-952.292 1108.1,-961.853 1115.06,-962.613"/>
</g>
<!-- Core_HttpServer -->
<g id="node13" class="node"><title>Core_HttpServer</title>
<polygon fill="lightgrey" stroke="black" points="947.582,-952.256 877.87,-934.256 947.582,-916.256 1017.29,-934.256 947.582,-952.256"/>
<polyline fill="none" stroke="black" points="889.489,-937.256 889.489,-931.255 "/>
<polyline fill="none" stroke="black" points="935.964,-919.256 959.201,-919.256 "/>
<polyline fill="none" stroke="black" points="1005.68,-931.255 1005.68,-937.256 "/>
<polyline fill="none" stroke="black" points="959.201,-949.255 935.964,-949.255 "/>
<text text-anchor="middle" x="947.582" y="-930.556" font-family="Times,serif" font-size="14.00">HttpServer</text>
</g>
<!-- Core_HttpServer&#45;&gt;Core_ComponentBase -->
<g id="edge33" class="edge"><title>Core_HttpServer&#45;&gt;Core_ComponentBase</title>
<path fill="none" stroke="black" stroke-dasharray="1,5" d="M1017.33,-934.256C1028.62,-934.256 1040.26,-934.256 1051.39,-934.256"/>
<polygon fill="black" stroke="black" points="1051.44,-937.756 1061.44,-934.256 1051.44,-930.756 1051.44,-937.756"/>
</g>
<!-- Core_SuperGlobal&#45;&gt;Core_ComponentBase -->
<g id="edge29" class="edge"><title>Core_SuperGlobal&#45;&gt;Core_ComponentBase</title>
<path fill="none" stroke="black" stroke-dasharray="1,5" d="M990.191,-1142.23C1002.69,-1138.2 1015.7,-1132.19 1025.58,-1123.26 1074.16,-1079.33 1098.26,-1003.2 1108.23,-962.252"/>
<polygon fill="black" stroke="black" points="1111.66,-962.934 1110.51,-952.401 1104.84,-961.349 1111.66,-962.934"/>
</g>
<!-- Core_ComponentInterface -->
<g id="node17" class="node"><title>Core_ComponentInterface</title>
<polygon fill="none" stroke="black" points="1363.68,-952.256 1241.68,-952.256 1241.68,-916.256 1369.68,-916.256 1369.68,-946.256 1363.68,-952.256"/>
<polyline fill="none" stroke="black" points="1363.68,-952.256 1363.68,-946.256 "/>
<polyline fill="none" stroke="black" points="1369.68,-946.256 1363.68,-946.256 "/>
<text text-anchor="middle" x="1305.68" y="-930.556" font-family="Times,serif" font-size="14.00">ComponentInterface</text>
</g>
<!-- Core_ComponentBase&#45;&gt;Core_SingletonEx -->
<g id="edge35" class="edge"><title>Core_ComponentBase&#45;&gt;Core_SingletonEx</title>
<path fill="none" stroke="black" d="M1129.64,-952.451C1163.11,-997.342 1249.6,-1113.37 1287.01,-1163.55"/>
<polygon fill="black" stroke="black" points="1284.41,-1165.92 1293.2,-1171.85 1290.02,-1161.74 1284.41,-1165.92"/>
</g>
<!-- Core_ComponentBase&#45;&gt;Core_ComponentInterface -->
<g id="edge34" class="edge"><title>Core_ComponentBase&#45;&gt;Core_ComponentInterface</title>
<path fill="none" stroke="black" d="M1168.61,-934.256C1188,-934.256 1210.35,-934.256 1231.25,-934.256"/>
<polygon fill="black" stroke="black" points="1231.37,-937.756 1241.37,-934.256 1231.37,-930.756 1231.37,-937.756"/>
</g>
<!-- AppHelper -->
<g id="node20" class="node"><title>AppHelper</title>
<polygon fill="lightgrey" stroke="black" points="116.188,-1268.26 45.6372,-1250.26 116.188,-1232.26 186.739,-1250.26 116.188,-1268.26"/>
<polyline fill="none" stroke="black" points="57.2647,-1253.22 57.2647,-1247.29 "/>
<polyline fill="none" stroke="black" points="104.561,-1235.22 127.816,-1235.22 "/>
<polyline fill="none" stroke="black" points="175.112,-1247.29 175.112,-1253.22 "/>
<polyline fill="none" stroke="black" points="127.816,-1265.29 104.561,-1265.29 "/>
<text text-anchor="middle" x="116.188" y="-1246.56" font-family="Times,serif" font-size="14.00">AppHelper</text>
</g>
<!-- AppHelper&#45;&gt;Core_App -->
<g id="edge36" class="edge"><title>AppHelper&#45;&gt;Core_App</title>
<path fill="none" stroke="black" d="M162.191,-1243.96C219.895,-1235.2 322.632,-1217.31 407.441,-1190.26 419.825,-1186.31 433.054,-1180.73 444.233,-1175.6"/>
<polygon fill="black" stroke="black" points="445.904,-1178.68 453.458,-1171.25 442.92,-1172.35 445.904,-1178.68"/>
</g>
<!-- HelperTrait -->
<g id="node25" class="node"><title>HelperTrait</title>
<polygon fill="none" stroke="black" points="325.909,-1058.26 252.344,-1040.26 325.909,-1022.26 399.474,-1040.26 325.909,-1058.26"/>
<text text-anchor="middle" x="325.909" y="-1036.56" font-family="Times,serif" font-size="14.00">HelperTrait</text>
</g>
<!-- AppHelper&#45;&gt;HelperTrait -->
<g id="edge45" class="edge"><title>AppHelper&#45;&gt;HelperTrait</title>
<path fill="none" stroke="black" d="M165.453,-1244.78C182.836,-1240.93 201.75,-1234.39 216.376,-1223.26 270.182,-1182.3 302.535,-1106.34 316.602,-1066.38"/>
<polygon fill="black" stroke="black" points="319.95,-1067.41 319.862,-1056.81 313.324,-1065.15 319.95,-1067.41"/>
</g>
<!-- ControllerHelper -->
<g id="node21" class="node"><title>ControllerHelper</title>
<polygon fill="lightgrey" stroke="black" points="116.188,-1214.26 15.8115,-1196.26 116.188,-1178.26 216.565,-1196.26 116.188,-1214.26"/>
<polyline fill="none" stroke="black" points="27.6231,-1198.37 27.6231,-1194.14 "/>
<polyline fill="none" stroke="black" points="104.377,-1180.37 128,-1180.37 "/>
<polyline fill="none" stroke="black" points="204.753,-1194.14 204.753,-1198.37 "/>
<polyline fill="none" stroke="black" points="128,-1212.14 104.377,-1212.14 "/>
<text text-anchor="middle" x="116.188" y="-1192.56" font-family="Times,serif" font-size="14.00">ControllerHelper</text>
</g>
<!-- ControllerHelper&#45;&gt;Core_App -->
<g id="edge37" class="edge"><title>ControllerHelper&#45;&gt;Core_App</title>
<path fill="none" stroke="black" d="M182.121,-1190.02C254.808,-1183.04 370.328,-1171.94 430.989,-1166.12"/>
<polygon fill="black" stroke="black" points="431.681,-1169.57 441.301,-1165.13 431.012,-1162.6 431.681,-1169.57"/>
</g>
<!-- ControllerHelper&#45;&gt;HelperTrait -->
<g id="edge46" class="edge"><title>ControllerHelper&#45;&gt;HelperTrait</title>
<path fill="none" stroke="black" d="M170.631,-1187.96C186.202,-1183.94 202.691,-1178 216.376,-1169.26 258.438,-1142.38 292.625,-1094.06 310.762,-1064.8"/>
<polygon fill="black" stroke="black" points="313.893,-1066.39 316.076,-1056.02 307.904,-1062.76 313.893,-1066.39"/>
</g>
<!-- ModelHelper -->
<g id="node22" class="node"><title>ModelHelper</title>
<polygon fill="lightgrey" stroke="black" points="116.188,-1160.26 34.5777,-1142.26 116.188,-1124.26 197.799,-1142.26 116.188,-1160.26"/>
<polyline fill="none" stroke="black" points="46.296,-1144.84 46.296,-1139.67 "/>
<polyline fill="none" stroke="black" points="104.47,-1126.84 127.906,-1126.84 "/>
<polyline fill="none" stroke="black" points="186.08,-1139.67 186.08,-1144.84 "/>
<polyline fill="none" stroke="black" points="127.906,-1157.67 104.47,-1157.67 "/>
<text text-anchor="middle" x="116.188" y="-1138.56" font-family="Times,serif" font-size="14.00">ModelHelper</text>
</g>
<!-- ModelHelper&#45;&gt;Core_App -->
<g id="edge38" class="edge"><title>ModelHelper&#45;&gt;Core_App</title>
<path fill="none" stroke="black" d="M181.709,-1145.9C253.539,-1149.96 367.566,-1156.4 428.88,-1159.86"/>
<polygon fill="black" stroke="black" points="428.792,-1163.36 438.973,-1160.43 429.187,-1156.38 428.792,-1163.36"/>
</g>
<!-- ModelHelper&#45;&gt;HelperTrait -->
<g id="edge47" class="edge"><title>ModelHelper&#45;&gt;HelperTrait</title>
<path fill="none" stroke="black" d="M160.295,-1133.88C178.137,-1129.57 198.737,-1123.46 216.376,-1115.26 247.729,-1100.68 279.845,-1077.21 300.922,-1060.41"/>
<polygon fill="black" stroke="black" points="303.136,-1063.12 308.705,-1054.11 298.731,-1057.68 303.136,-1063.12"/>
</g>
<!-- ServiceHelper -->
<g id="node23" class="node"><title>ServiceHelper</title>
<polygon fill="lightgrey" stroke="black" points="116.188,-1106.26 29.8865,-1088.26 116.188,-1070.26 202.49,-1088.26 116.188,-1106.26"/>
<polyline fill="none" stroke="black" points="41.6337,-1090.71 41.6337,-1085.81 "/>
<polyline fill="none" stroke="black" points="104.441,-1072.71 127.935,-1072.71 "/>
<polyline fill="none" stroke="black" points="190.743,-1085.81 190.743,-1090.71 "/>
<polyline fill="none" stroke="black" points="127.935,-1103.81 104.441,-1103.81 "/>
<text text-anchor="middle" x="116.188" y="-1084.56" font-family="Times,serif" font-size="14.00">ServiceHelper</text>
</g>
<!-- ServiceHelper&#45;&gt;Core_App -->
<g id="edge39" class="edge"><title>ServiceHelper&#45;&gt;Core_App</title>
<path fill="none" stroke="black" d="M162.58,-1096.62C219.83,-1107.33 321.215,-1126.83 407.441,-1146.26 417.441,-1148.51 428.272,-1151.15 438.12,-1153.63"/>
<polygon fill="black" stroke="black" points="437.398,-1157.06 447.952,-1156.13 439.125,-1150.27 437.398,-1157.06"/>
</g>
<!-- ServiceHelper&#45;&gt;HelperTrait -->
<g id="edge48" class="edge"><title>ServiceHelper&#45;&gt;HelperTrait</title>
<path fill="none" stroke="black" d="M157.732,-1078.89C192.051,-1070.96 241.285,-1059.58 277.437,-1051.23"/>
<polygon fill="black" stroke="black" points="278.309,-1054.62 287.264,-1048.95 276.733,-1047.8 278.309,-1054.62"/>
</g>
<!-- ViewHelper -->
<g id="node24" class="node"><title>ViewHelper</title>
<polygon fill="lightgrey" stroke="black" points="116.188,-1052.26 40.1075,-1034.26 116.188,-1016.26 192.269,-1034.26 116.188,-1052.26"/>
<polyline fill="none" stroke="black" points="51.7851,-1037.02 51.7851,-1031.49 "/>
<polyline fill="none" stroke="black" points="104.511,-1019.02 127.866,-1019.02 "/>
<polyline fill="none" stroke="black" points="180.591,-1031.49 180.591,-1037.02 "/>
<polyline fill="none" stroke="black" points="127.866,-1049.49 104.511,-1049.49 "/>
<text text-anchor="middle" x="116.188" y="-1030.56" font-family="Times,serif" font-size="14.00">ViewHelper</text>
</g>
<!-- ViewHelper&#45;&gt;Core_App -->
<g id="edge40" class="edge"><title>ViewHelper&#45;&gt;Core_App</title>
<path fill="none" stroke="black" d="M153.378,-1043.52C229.912,-1063.14 401.673,-1107.32 407.441,-1110.26 423.997,-1118.67 440.182,-1131.95 452.104,-1142.98"/>
<polygon fill="black" stroke="black" points="449.981,-1145.79 459.628,-1150.17 454.817,-1140.73 449.981,-1145.79"/>
</g>
<!-- ViewHelper&#45;&gt;HelperTrait -->
<g id="edge49" class="edge"><title>ViewHelper&#45;&gt;HelperTrait</title>
<path fill="none" stroke="black" d="M184.342,-1036.2C205.217,-1036.8 228.362,-1037.47 249.746,-1038.08"/>
<polygon fill="black" stroke="black" points="249.66,-1041.58 259.757,-1038.37 249.862,-1034.59 249.66,-1041.58"/>
</g>
<!-- HelperTrait&#45;&gt;Core_App -->
<g id="edge42" class="edge"><title>HelperTrait&#45;&gt;Core_App</title>
<path fill="none" stroke="black" d="M362.515,-1049.49C377.43,-1054.55 394.314,-1061.93 407.441,-1072.26 430.339,-1090.26 448.539,-1118.64 459.539,-1138.71"/>
<polygon fill="black" stroke="black" points="456.584,-1140.61 464.35,-1147.82 462.773,-1137.34 456.584,-1140.61"/>
</g>
<!-- HelperTrait&#45;&gt;Core_SingletonEx -->
<g id="edge41" class="edge"><title>HelperTrait&#45;&gt;Core_SingletonEx</title>
<path fill="none" stroke="black" d="M331.521,-1057.11C348.567,-1115.98 413.916,-1313.8 544.974,-1405.26 598.126,-1442.34 623.469,-1432.26 688.282,-1432.26 688.282,-1432.26 688.282,-1432.26 948.582,-1432.26 1103.79,-1432.26 1240.65,-1272.33 1287.49,-1210.9"/>
<polygon fill="black" stroke="black" points="1290.54,-1212.68 1293.75,-1202.58 1284.94,-1208.47 1290.54,-1212.68"/>
</g>
<!-- HelperTrait&#45;&gt;Core_ExtendableStaticCallTrait -->
<g id="edge43" class="edge"><title>HelperTrait&#45;&gt;Core_ExtendableStaticCallTrait</title>
<path fill="none" stroke="black" d="M354.362,-1029.03C395.288,-1012.64 474.993,-982.084 544.974,-963.256 567.235,-957.266 591.79,-952.122 614.191,-947.979"/>
<polygon fill="black" stroke="black" points="615.099,-951.371 624.316,-946.146 613.853,-944.483 615.099,-951.371"/>
</g>
<!-- HelperTrait&#45;&gt;Core_ThrowOn -->
<g id="edge44" class="edge"><title>HelperTrait&#45;&gt;Core_ThrowOn</title>
<path fill="none" stroke="black" d="M373.412,-1033.82C440.911,-1024.48 565.643,-1007.22 636.163,-997.467"/>
<polygon fill="black" stroke="black" points="636.735,-1000.92 646.161,-996.083 635.776,-993.987 636.735,-1000.92"/>
</g>
<!-- DB_DB -->
<g id="node26" class="node"><title>DB_DB</title>
<ellipse fill="none" stroke="black" cx="1115.08" cy="-67.2555" rx="27" ry="18"/>
<text text-anchor="middle" x="1115.08" y="-63.5555" font-family="Times,serif" font-size="14.00">DB</text>
</g>
<!-- DB_DBAdvanceTrait -->
<g id="node27" class="node"><title>DB_DBAdvanceTrait</title>
<polygon fill="none" stroke="black" points="1305.68,-58.2555 1204.47,-40.2555 1305.68,-22.2555 1406.9,-40.2555 1305.68,-58.2555"/>
<text text-anchor="middle" x="1305.68" y="-36.5555" font-family="Times,serif" font-size="14.00">DBAdvanceTrait</text>
</g>
<!-- DB_DB&#45;&gt;DB_DBAdvanceTrait -->
<g id="edge50" class="edge"><title>DB_DB&#45;&gt;DB_DBAdvanceTrait</title>
<path fill="none" stroke="black" d="M1141.91,-63.5579C1166.77,-59.9978 1205.43,-54.4644 1238.83,-49.683"/>
<polygon fill="black" stroke="black" points="1239.6,-53.1082 1249,-48.2263 1238.61,-46.1788 1239.6,-53.1082"/>
</g>
<!-- DB_DBInterface -->
<g id="node28" class="node"><title>DB_DBInterface</title>
<polygon fill="none" stroke="black" points="1341.18,-112.256 1264.18,-112.256 1264.18,-76.2555 1347.18,-76.2555 1347.18,-106.256 1341.18,-112.256"/>
<polyline fill="none" stroke="black" points="1341.18,-112.256 1341.18,-106.256 "/>
<polyline fill="none" stroke="black" points="1347.18,-106.256 1341.18,-106.256 "/>
<text text-anchor="middle" x="1305.68" y="-90.5555" font-family="Times,serif" font-size="14.00">DBInterface</text>
</g>
<!-- DB_DB&#45;&gt;DB_DBInterface -->
<g id="edge51" class="edge"><title>DB_DB&#45;&gt;DB_DBInterface</title>
<path fill="none" stroke="black" d="M1141.91,-70.9531C1170.55,-75.0544 1217.5,-81.7744 1253.63,-86.9467"/>
<polygon fill="black" stroke="black" points="1253.59,-90.4766 1263.98,-88.4291 1254.58,-83.5473 1253.59,-90.4766"/>
</g>
<!-- CallableView -->
<g id="node29" class="node"><title>CallableView</title>
<polygon fill="none" stroke="black" points="734.782,-841.256 643.782,-841.256 643.782,-837.256 639.782,-837.256 639.782,-833.256 643.782,-833.256 643.782,-813.256 639.782,-813.256 639.782,-809.256 643.782,-809.256 643.782,-805.256 734.782,-805.256 734.782,-841.256"/>
<polyline fill="none" stroke="black" points="643.782,-837.256 647.782,-837.256 647.782,-833.256 643.782,-833.256 "/>
<polyline fill="none" stroke="black" points="643.782,-813.256 647.782,-813.256 647.782,-809.256 643.782,-809.256 "/>
<text text-anchor="middle" x="689.282" y="-819.556" font-family="Times,serif" font-size="14.00">CallableView</text>
</g>
<!-- CallableView&#45;&gt;Core_View -->
<g id="edge53" class="edge"><title>CallableView&#45;&gt;Core_View</title>
<path fill="none" stroke="black" d="M734.695,-841.381C765.045,-855.335 804.822,-876.86 833.589,-904.256 855.288,-924.919 846.148,-942.593 869.589,-961.256 881.45,-970.698 896.85,-976.964 910.757,-981.06"/>
<polygon fill="black" stroke="black" points="909.983,-984.476 920.548,-983.673 911.788,-977.712 909.983,-984.476"/>
</g>
<!-- DBManager -->
<g id="node30" class="node"><title>DBManager</title>
<polygon fill="none" stroke="black" points="989.582,-85.2555 905.582,-85.2555 905.582,-81.2555 901.582,-81.2555 901.582,-77.2555 905.582,-77.2555 905.582,-57.2555 901.582,-57.2555 901.582,-53.2555 905.582,-53.2555 905.582,-49.2555 989.582,-49.2555 989.582,-85.2555"/>
<polyline fill="none" stroke="black" points="905.582,-81.2555 909.582,-81.2555 909.582,-77.2555 905.582,-77.2555 "/>
<polyline fill="none" stroke="black" points="905.582,-57.2555 909.582,-57.2555 909.582,-53.2555 905.582,-53.2555 "/>
<text text-anchor="middle" x="947.582" y="-63.5555" font-family="Times,serif" font-size="14.00">DBManager</text>
</g>
<!-- DBManager&#45;&gt;Core_ComponentBase -->
<g id="edge74" class="edge"><title>DBManager&#45;&gt;Core_ComponentBase</title>
<path fill="none" stroke="black" stroke-dasharray="1,5" d="M987.032,-85.3115C1001.5,-94.0929 1016.6,-106.076 1025.58,-121.256 1106.56,-258.282 1113.57,-778.931 1114.07,-906.106"/>
<polygon fill="black" stroke="black" points="1110.57,-906.214 1114.09,-916.204 1117.57,-906.194 1110.57,-906.214"/>
</g>
<!-- DBManager&#45;&gt;DB_DB -->
<g id="edge52" class="edge"><title>DBManager&#45;&gt;DB_DB</title>
<path fill="none" stroke="black" d="M989.916,-67.2555C1016.84,-67.2555 1051.65,-67.2555 1077.56,-67.2555"/>
<polygon fill="black" stroke="black" points="1077.72,-70.7556 1087.72,-67.2555 1077.72,-63.7556 1077.72,-70.7556"/>
</g>
<!-- DBReusePoolProxy -->
<g id="node31" class="node"><title>DBReusePoolProxy</title>
<polygon fill="none" stroke="black" points="751.782,-85.2555 626.782,-85.2555 626.782,-81.2555 622.782,-81.2555 622.782,-77.2555 626.782,-77.2555 626.782,-57.2555 622.782,-57.2555 622.782,-53.2555 626.782,-53.2555 626.782,-49.2555 751.782,-49.2555 751.782,-85.2555"/>
<polyline fill="none" stroke="black" points="626.782,-81.2555 630.782,-81.2555 630.782,-77.2555 626.782,-77.2555 "/>
<polyline fill="none" stroke="black" points="626.782,-57.2555 630.782,-57.2555 630.782,-53.2555 626.782,-53.2555 "/>
<text text-anchor="middle" x="689.282" y="-63.5555" font-family="Times,serif" font-size="14.00">DBReusePoolProxy</text>
</g>
<!-- DBReusePoolProxy&#45;&gt;DBManager -->
<g id="edge54" class="edge"><title>DBReusePoolProxy&#45;&gt;DBManager</title>
<path fill="none" stroke="black" d="M751.998,-67.2555C795.831,-67.2555 853.997,-67.2555 895.285,-67.2555"/>
<polygon fill="black" stroke="black" points="895.399,-70.7556 905.399,-67.2555 895.399,-63.7556 895.399,-70.7556"/>
</g>
<!-- EmptyView -->
<g id="node32" class="node"><title>EmptyView</title>
<polygon fill="none" stroke="black" points="730.782,-787.256 647.782,-787.256 647.782,-783.256 643.782,-783.256 643.782,-779.256 647.782,-779.256 647.782,-759.256 643.782,-759.256 643.782,-755.256 647.782,-755.256 647.782,-751.256 730.782,-751.256 730.782,-787.256"/>
<polyline fill="none" stroke="black" points="647.782,-783.256 651.782,-783.256 651.782,-779.256 647.782,-779.256 "/>
<polyline fill="none" stroke="black" points="647.782,-759.256 651.782,-759.256 651.782,-755.256 647.782,-755.256 "/>
<text text-anchor="middle" x="689.282" y="-765.556" font-family="Times,serif" font-size="14.00">EmptyView</text>
</g>
<!-- EmptyView&#45;&gt;Core_View -->
<g id="edge55" class="edge"><title>EmptyView&#45;&gt;Core_View</title>
<path fill="none" stroke="black" d="M730.931,-765.674C763.019,-765.198 806.718,-770.142 833.589,-796.256 887.417,-848.566 819.862,-905.033 869.589,-961.256 880.035,-973.066 895.954,-979.711 910.611,-983.449"/>
<polygon fill="black" stroke="black" points="909.957,-986.888 920.474,-985.6 911.449,-980.049 909.957,-986.888"/>
</g>
<!-- FacadesAutoLoader -->
<g id="node33" class="node"><title>FacadesAutoLoader</title>
<polygon fill="none" stroke="black" points="1010.08,-166.256 885.082,-166.256 885.082,-162.256 881.082,-162.256 881.082,-158.256 885.082,-158.256 885.082,-138.256 881.082,-138.256 881.082,-134.256 885.082,-134.256 885.082,-130.256 1010.08,-130.256 1010.08,-166.256"/>
<polyline fill="none" stroke="black" points="885.082,-162.256 889.082,-162.256 889.082,-158.256 885.082,-158.256 "/>
<polyline fill="none" stroke="black" points="885.082,-138.256 889.082,-138.256 889.082,-134.256 885.082,-134.256 "/>
<text text-anchor="middle" x="947.582" y="-144.556" font-family="Times,serif" font-size="14.00">FacadesAutoLoader</text>
</g>
<!-- FacadesAutoLoader&#45;&gt;Core_ComponentBase -->
<g id="edge62" class="edge"><title>FacadesAutoLoader&#45;&gt;Core_ComponentBase</title>
<path fill="none" stroke="black" stroke-dasharray="1,5" d="M986.942,-166.365C1001.39,-175.155 1016.51,-187.129 1025.58,-202.256 1098.7,-324.316 1111.56,-786.394 1113.68,-905.901"/>
<polygon fill="black" stroke="black" points="1110.18,-906.131 1113.85,-916.072 1117.18,-906.015 1110.18,-906.131"/>
</g>
<!-- FacadesBase -->
<g id="node34" class="node"><title>FacadesBase</title>
<ellipse fill="none" stroke="black" cx="689.282" cy="-121.256" rx="55.7903" ry="18"/>
<text text-anchor="middle" x="689.282" y="-117.556" font-family="Times,serif" font-size="14.00">FacadesBase</text>
</g>
<!-- FacadesBase&#45;&gt;FacadesAutoLoader -->
<g id="edge57" class="edge"><title>FacadesBase&#45;&gt;FacadesAutoLoader</title>
<path fill="none" stroke="black" d="M742.766,-126.785C780.785,-130.79 832.647,-136.253 874.54,-140.666"/>
<polygon fill="black" stroke="black" points="874.374,-144.168 884.686,-141.735 875.108,-137.207 874.374,-144.168"/>
</g>
<!-- JsonRpcClientBase -->
<g id="node35" class="node"><title>JsonRpcClientBase</title>
<ellipse fill="none" stroke="black" cx="689.282" cy="-283.256" rx="79.0865" ry="18"/>
<text text-anchor="middle" x="689.282" y="-279.556" font-family="Times,serif" font-size="14.00">JsonRpcClientBase</text>
</g>
<!-- JsonRpcExt -->
<g id="node36" class="node"><title>JsonRpcExt</title>
<polygon fill="none" stroke="black" points="988.082,-301.256 907.082,-301.256 907.082,-297.256 903.082,-297.256 903.082,-293.256 907.082,-293.256 907.082,-273.256 903.082,-273.256 903.082,-269.256 907.082,-269.256 907.082,-265.256 988.082,-265.256 988.082,-301.256"/>
<polyline fill="none" stroke="black" points="907.082,-297.256 911.082,-297.256 911.082,-293.256 907.082,-293.256 "/>
<polyline fill="none" stroke="black" points="907.082,-273.256 911.082,-273.256 911.082,-269.256 907.082,-269.256 "/>
<text text-anchor="middle" x="947.582" y="-279.556" font-family="Times,serif" font-size="14.00">JsonRpcExt</text>
</g>
<!-- JsonRpcClientBase&#45;&gt;JsonRpcExt -->
<g id="edge56" class="edge"><title>JsonRpcClientBase&#45;&gt;JsonRpcExt</title>
<path fill="none" stroke="black" d="M768.922,-283.256C810.44,-283.256 860.151,-283.256 896.417,-283.256"/>
<polygon fill="black" stroke="black" points="896.743,-286.756 906.743,-283.256 896.743,-279.756 896.743,-286.756"/>
</g>
<!-- JsonRpcExt&#45;&gt;Core_ComponentBase -->
<g id="edge63" class="edge"><title>JsonRpcExt&#45;&gt;Core_ComponentBase</title>
<path fill="none" stroke="black" stroke-dasharray="1,5" d="M988.296,-288.575C1002.05,-292.404 1016.32,-298.977 1025.58,-310.256 1101.83,-403.171 1112.38,-796.206 1113.84,-905.786"/>
<polygon fill="black" stroke="black" points="1110.34,-906.091 1113.96,-916.049 1117.34,-906.009 1110.34,-906.091"/>
</g>
<!-- Misc -->
<g id="node37" class="node"><title>Misc</title>
<polygon fill="none" stroke="black" points="716.282,-571.256 662.282,-571.256 662.282,-567.256 658.282,-567.256 658.282,-563.256 662.282,-563.256 662.282,-543.256 658.282,-543.256 658.282,-539.256 662.282,-539.256 662.282,-535.256 716.282,-535.256 716.282,-571.256"/>
<polyline fill="none" stroke="black" points="662.282,-567.256 666.282,-567.256 666.282,-563.256 662.282,-563.256 "/>
<polyline fill="none" stroke="black" points="662.282,-543.256 666.282,-543.256 666.282,-539.256 662.282,-539.256 "/>
<text text-anchor="middle" x="689.282" y="-549.556" font-family="Times,serif" font-size="14.00">Misc</text>
</g>
<!-- Misc&#45;&gt;Core_ComponentBase -->
<g id="edge65" class="edge"><title>Misc&#45;&gt;Core_ComponentBase</title>
<path fill="none" stroke="black" stroke-dasharray="1,5" d="M716.355,-556.958C787.362,-567.555 981.788,-600.166 1025.58,-645.256 1097.18,-718.991 1111.02,-849.082 1113.57,-906.122"/>
<polygon fill="black" stroke="black" points="1110.08,-906.339 1113.94,-916.205 1117.07,-906.085 1110.08,-906.339"/>
</g>
<!-- Pager -->
<g id="node38" class="node"><title>Pager</title>
<polygon fill="none" stroke="black" points="716.282,-409.256 662.282,-409.256 662.282,-405.256 658.282,-405.256 658.282,-401.256 662.282,-401.256 662.282,-381.256 658.282,-381.256 658.282,-377.256 662.282,-377.256 662.282,-373.256 716.282,-373.256 716.282,-409.256"/>
<polyline fill="none" stroke="black" points="662.282,-405.256 666.282,-405.256 666.282,-401.256 662.282,-401.256 "/>
<polyline fill="none" stroke="black" points="662.282,-381.256 666.282,-381.256 666.282,-377.256 662.282,-377.256 "/>
<text text-anchor="middle" x="689.282" y="-387.556" font-family="Times,serif" font-size="14.00">Pager</text>
</g>
<!-- Pager&#45;&gt;Core_ComponentBase -->
<g id="edge64" class="edge"><title>Pager&#45;&gt;Core_ComponentBase</title>
<path fill="none" stroke="black" stroke-dasharray="1,5" d="M716.52,-391.338C746.59,-392.491 796.492,-397.709 833.589,-418.256 854.225,-429.685 849.371,-445.103 869.589,-457.256 931.027,-494.184 976.348,-446.151 1025.58,-498.256 1081.91,-557.884 1105.69,-818.736 1112.15,-905.83"/>
<polygon fill="black" stroke="black" points="1108.68,-906.3 1112.89,-916.022 1115.66,-905.796 1108.68,-906.3"/>
</g>
<!-- PagerInterface -->
<g id="node39" class="node"><title>PagerInterface</title>
<polygon fill="none" stroke="black" points="989.082,-409.256 900.082,-409.256 900.082,-373.256 995.082,-373.256 995.082,-403.256 989.082,-409.256"/>
<polyline fill="none" stroke="black" points="989.082,-409.256 989.082,-403.256 "/>
<polyline fill="none" stroke="black" points="995.082,-403.256 989.082,-403.256 "/>
<text text-anchor="middle" x="947.582" y="-387.556" font-family="Times,serif" font-size="14.00">PagerInterface</text>
</g>
<!-- Pager&#45;&gt;PagerInterface -->
<g id="edge58" class="edge"><title>Pager&#45;&gt;PagerInterface</title>
<path fill="none" stroke="black" d="M716.745,-391.256C757.358,-391.256 835.998,-391.256 889.877,-391.256"/>
<polygon fill="black" stroke="black" points="889.969,-394.756 899.969,-391.256 889.969,-387.756 889.969,-394.756"/>
</g>
<!-- PluginForSwooleHttpd -->
<g id="node40" class="node"><title>PluginForSwooleHttpd</title>
<polygon fill="none" stroke="black" points="760.282,-517.256 618.282,-517.256 618.282,-513.256 614.282,-513.256 614.282,-509.256 618.282,-509.256 618.282,-489.256 614.282,-489.256 614.282,-485.256 618.282,-485.256 618.282,-481.256 760.282,-481.256 760.282,-517.256"/>
<polyline fill="none" stroke="black" points="618.282,-513.256 622.282,-513.256 622.282,-509.256 618.282,-509.256 "/>
<polyline fill="none" stroke="black" points="618.282,-489.256 622.282,-489.256 622.282,-485.256 618.282,-485.256 "/>
<text text-anchor="middle" x="689.282" y="-495.556" font-family="Times,serif" font-size="14.00">PluginForSwooleHttpd</text>
</g>
<!-- PluginForSwooleHttpd&#45;&gt;Core_ComponentBase -->
<g id="edge68" class="edge"><title>PluginForSwooleHttpd&#45;&gt;Core_ComponentBase</title>
<path fill="none" stroke="black" stroke-dasharray="1,5" d="M760.589,-510.904C783.937,-515.196 809.989,-520.446 833.589,-526.256 849.835,-530.255 853.566,-532.445 869.589,-537.256 938.816,-558.039 975.493,-531.14 1025.58,-583.256 1070.71,-630.223 1100.78,-831.292 1110.59,-906.085"/>
<polygon fill="black" stroke="black" points="1107.14,-906.7 1111.89,-916.171 1114.08,-905.806 1107.14,-906.7"/>
</g>
<!-- RedisManager -->
<g id="node41" class="node"><title>RedisManager</title>
<polygon fill="none" stroke="black" points="995.582,-355.256 899.582,-355.256 899.582,-351.256 895.582,-351.256 895.582,-347.256 899.582,-347.256 899.582,-327.256 895.582,-327.256 895.582,-323.256 899.582,-323.256 899.582,-319.256 995.582,-319.256 995.582,-355.256"/>
<polyline fill="none" stroke="black" points="899.582,-351.256 903.582,-351.256 903.582,-347.256 899.582,-347.256 "/>
<polyline fill="none" stroke="black" points="899.582,-327.256 903.582,-327.256 903.582,-323.256 899.582,-323.256 "/>
<text text-anchor="middle" x="947.582" y="-333.556" font-family="Times,serif" font-size="14.00">RedisManager</text>
</g>
<!-- RedisManager&#45;&gt;Core_ComponentBase -->
<g id="edge67" class="edge"><title>RedisManager&#45;&gt;Core_ComponentBase</title>
<path fill="none" stroke="black" stroke-dasharray="1,5" d="M995.843,-345.054C1007.06,-349.056 1017.97,-355.107 1025.58,-364.256 1095.39,-448.201 1110.48,-802.689 1113.42,-905.932"/>
<polygon fill="black" stroke="black" points="1109.93,-906.289 1113.7,-916.191 1116.93,-906.101 1109.93,-906.289"/>
</g>
<!-- RedisSimpleCache -->
<g id="node42" class="node"><title>RedisSimpleCache</title>
<polygon fill="none" stroke="black" points="749.282,-355.256 629.282,-355.256 629.282,-351.256 625.282,-351.256 625.282,-347.256 629.282,-347.256 629.282,-327.256 625.282,-327.256 625.282,-323.256 629.282,-323.256 629.282,-319.256 749.282,-319.256 749.282,-355.256"/>
<polyline fill="none" stroke="black" points="629.282,-351.256 633.282,-351.256 633.282,-347.256 629.282,-347.256 "/>
<polyline fill="none" stroke="black" points="629.282,-327.256 633.282,-327.256 633.282,-323.256 629.282,-323.256 "/>
<text text-anchor="middle" x="689.282" y="-333.556" font-family="Times,serif" font-size="14.00">RedisSimpleCache</text>
</g>
<!-- RedisSimpleCache&#45;&gt;Core_ComponentBase -->
<g id="edge66" class="edge"><title>RedisSimpleCache&#45;&gt;Core_ComponentBase</title>
<path fill="none" stroke="black" stroke-dasharray="1,5" d="M749.3,-338.035C776.829,-340.866 808.886,-347.911 833.589,-364.256 857.645,-380.172 846.012,-401.64 869.589,-418.256 928.002,-459.421 976.624,-405.194 1025.58,-457.256 1087.46,-523.074 1107.78,-813.555 1112.73,-905.94"/>
<polygon fill="black" stroke="black" points="1109.25,-906.39 1113.26,-916.196 1116.24,-906.029 1109.25,-906.39"/>
</g>
<!-- RedisSimpleCache&#45;&gt;RedisManager -->
<g id="edge59" class="edge"><title>RedisSimpleCache&#45;&gt;RedisManager</title>
<path fill="none" stroke="black" d="M749.404,-337.256C791.38,-337.256 847.44,-337.256 889.054,-337.256"/>
<polygon fill="black" stroke="black" points="889.305,-340.756 899.305,-337.256 889.305,-333.756 889.305,-340.756"/>
</g>
<!-- RouteHookDirectoryMode -->
<g id="node43" class="node"><title>RouteHookDirectoryMode</title>
<polygon fill="none" stroke="black" points="770.782,-463.256 607.782,-463.256 607.782,-459.256 603.782,-459.256 603.782,-455.256 607.782,-455.256 607.782,-435.256 603.782,-435.256 603.782,-431.256 607.782,-431.256 607.782,-427.256 770.782,-427.256 770.782,-463.256"/>
<polyline fill="none" stroke="black" points="607.782,-459.256 611.782,-459.256 611.782,-455.256 607.782,-455.256 "/>
<polyline fill="none" stroke="black" points="607.782,-435.256 611.782,-435.256 611.782,-431.256 607.782,-431.256 "/>
<text text-anchor="middle" x="689.282" y="-441.556" font-family="Times,serif" font-size="14.00">RouteHookDirectoryMode</text>
</g>
<!-- RouteHookDirectoryMode&#45;&gt;Core_ComponentBase -->
<g id="edge70" class="edge"><title>RouteHookDirectoryMode&#45;&gt;Core_ComponentBase</title>
<path fill="none" stroke="black" stroke-dasharray="1,5" d="M770.966,-454.072C791.904,-458.066 814.05,-463.859 833.589,-472.256 851.723,-480.048 851.693,-489.934 869.589,-498.256 934.388,-528.386 975.697,-486.081 1025.58,-537.256 1077.46,-590.491 1103.86,-824.699 1111.6,-906.189"/>
<polygon fill="black" stroke="black" points="1108.12,-906.577 1112.53,-916.211 1115.09,-905.93 1108.12,-906.577"/>
</g>
<!-- RouteHookOneFileMode -->
<g id="node44" class="node"><title>RouteHookOneFileMode</title>
<polygon fill="none" stroke="black" points="766.782,-733.256 611.782,-733.256 611.782,-729.256 607.782,-729.256 607.782,-725.256 611.782,-725.256 611.782,-705.256 607.782,-705.256 607.782,-701.256 611.782,-701.256 611.782,-697.256 766.782,-697.256 766.782,-733.256"/>
<polyline fill="none" stroke="black" points="611.782,-729.256 615.782,-729.256 615.782,-725.256 611.782,-725.256 "/>
<polyline fill="none" stroke="black" points="611.782,-705.256 615.782,-705.256 615.782,-701.256 611.782,-701.256 "/>
<text text-anchor="middle" x="689.282" y="-711.556" font-family="Times,serif" font-size="14.00">RouteHookOneFileMode</text>
</g>
<!-- RouteHookOneFileMode&#45;&gt;Core_ComponentBase -->
<g id="edge71" class="edge"><title>RouteHookOneFileMode&#45;&gt;Core_ComponentBase</title>
<path fill="none" stroke="black" stroke-dasharray="1,5" d="M767.025,-721.284C789.386,-725.233 813.253,-731.7 833.589,-742.256 853.396,-752.536 852.113,-763.379 869.589,-777.256 936.718,-830.556 1022.45,-882.27 1072.51,-911.021"/>
<polygon fill="black" stroke="black" points="1071.01,-914.195 1081.43,-916.117 1074.48,-908.117 1071.01,-914.195"/>
</g>
<!-- RouteHookRewrite -->
<g id="node45" class="node"><title>RouteHookRewrite</title>
<polygon fill="none" stroke="black" points="750.282,-679.256 628.282,-679.256 628.282,-675.256 624.282,-675.256 624.282,-671.256 628.282,-671.256 628.282,-651.256 624.282,-651.256 624.282,-647.256 628.282,-647.256 628.282,-643.256 750.282,-643.256 750.282,-679.256"/>
<polyline fill="none" stroke="black" points="628.282,-675.256 632.282,-675.256 632.282,-671.256 628.282,-671.256 "/>
<polyline fill="none" stroke="black" points="628.282,-651.256 632.282,-651.256 632.282,-647.256 628.282,-647.256 "/>
<text text-anchor="middle" x="689.282" y="-657.556" font-family="Times,serif" font-size="14.00">RouteHookRewrite</text>
</g>
<!-- RouteHookRewrite&#45;&gt;Core_ComponentBase -->
<g id="edge72" class="edge"><title>RouteHookRewrite&#45;&gt;Core_ComponentBase</title>
<path fill="none" stroke="black" stroke-dasharray="1,5" d="M750.523,-662.48C777.689,-665.468 809.096,-672.515 833.589,-688.256 856.93,-703.255 846.652,-723.646 869.589,-739.256 928.58,-779.401 968.695,-734.173 1025.58,-777.256 1068.94,-810.097 1094.22,-870.732 1105.98,-906.27"/>
<polygon fill="black" stroke="black" points="1102.71,-907.537 1109.07,-916.009 1109.38,-905.419 1102.71,-907.537"/>
</g>
<!-- RouteHookRouteMap -->
<g id="node46" class="node"><title>RouteHookRouteMap</title>
<polygon fill="none" stroke="black" points="757.782,-625.256 620.782,-625.256 620.782,-621.256 616.782,-621.256 616.782,-617.256 620.782,-617.256 620.782,-597.256 616.782,-597.256 616.782,-593.256 620.782,-593.256 620.782,-589.256 757.782,-589.256 757.782,-625.256"/>
<polyline fill="none" stroke="black" points="620.782,-621.256 624.782,-621.256 624.782,-617.256 620.782,-617.256 "/>
<polyline fill="none" stroke="black" points="620.782,-597.256 624.782,-597.256 624.782,-593.256 620.782,-593.256 "/>
<text text-anchor="middle" x="689.282" y="-603.556" font-family="Times,serif" font-size="14.00">RouteHookRouteMap</text>
</g>
<!-- RouteHookRouteMap&#45;&gt;Core_ComponentBase -->
<g id="edge73" class="edge"><title>RouteHookRouteMap&#45;&gt;Core_ComponentBase</title>
<path fill="none" stroke="black" stroke-dasharray="1,5" d="M757.908,-616.26C833.471,-629.842 954.501,-662.684 1025.58,-739.256 1071.3,-788.511 1096.57,-865.433 1107.48,-906.391"/>
<polygon fill="black" stroke="black" points="1104.13,-907.413 1110.01,-916.228 1110.91,-905.671 1104.13,-907.413"/>
</g>
<!-- StrictCheck -->
<g id="node47" class="node"><title>StrictCheck</title>
<polygon fill="none" stroke="black" points="987.582,-247.256 907.582,-247.256 907.582,-243.256 903.582,-243.256 903.582,-239.256 907.582,-239.256 907.582,-219.256 903.582,-219.256 903.582,-215.256 907.582,-215.256 907.582,-211.256 987.582,-211.256 987.582,-247.256"/>
<polyline fill="none" stroke="black" points="907.582,-243.256 911.582,-243.256 911.582,-239.256 907.582,-239.256 "/>
<polyline fill="none" stroke="black" points="907.582,-219.256 911.582,-219.256 911.582,-215.256 907.582,-215.256 "/>
<text text-anchor="middle" x="947.582" y="-225.556" font-family="Times,serif" font-size="14.00">StrictCheck</text>
</g>
<!-- StrictCheck&#45;&gt;Core_ComponentBase -->
<g id="edge69" class="edge"><title>StrictCheck&#45;&gt;Core_ComponentBase</title>
<path fill="none" stroke="black" stroke-dasharray="1,5" d="M987.962,-234.409C1001.85,-238.215 1016.29,-244.816 1025.58,-256.256 1108.36,-358.279 1114.15,-790.793 1114.2,-905.977"/>
<polygon fill="black" stroke="black" points="1110.7,-906.107 1114.19,-916.111 1117.7,-906.115 1110.7,-906.107"/>
</g>
<!-- StrictModelTrait -->
<g id="node48" class="node"><title>StrictModelTrait</title>
<polygon fill="none" stroke="black" points="689.282,-247.256 590.243,-229.256 689.282,-211.256 788.32,-229.256 689.282,-247.256"/>
<text text-anchor="middle" x="689.282" y="-225.556" font-family="Times,serif" font-size="14.00">StrictModelTrait</text>
</g>
<!-- StrictModelTrait&#45;&gt;StrictCheck -->
<g id="edge60" class="edge"><title>StrictModelTrait&#45;&gt;StrictCheck</title>
<path fill="none" stroke="black" d="M788.641,-229.256C825.803,-229.256 866.502,-229.256 897.279,-229.256"/>
<polygon fill="black" stroke="black" points="897.316,-232.756 907.316,-229.256 897.316,-225.756 897.316,-232.756"/>
</g>
<!-- StrictServiceTrait -->
<g id="node49" class="node"><title>StrictServiceTrait</title>
<polygon fill="none" stroke="black" points="689.282,-193.256 585.552,-175.256 689.282,-157.256 793.011,-175.256 689.282,-193.256"/>
<text text-anchor="middle" x="689.282" y="-171.556" font-family="Times,serif" font-size="14.00">StrictServiceTrait</text>
</g>
<!-- StrictServiceTrait&#45;&gt;StrictCheck -->
<g id="edge61" class="edge"><title>StrictServiceTrait&#45;&gt;StrictCheck</title>
<path fill="none" stroke="black" d="M741.472,-184.28C768.863,-189.265 803.135,-195.752 833.589,-202.256 854.681,-206.76 877.868,-212.212 897.719,-217.034"/>
<polygon fill="black" stroke="black" points="896.924,-220.443 907.469,-219.417 898.585,-213.643 896.924,-220.443"/>
</g>
<!-- HttpServer -->
<g id="node50" class="node"><title>HttpServer</title>
<polygon fill="lightgrey" stroke="black" points="325.909,-742.256 256.197,-724.256 325.909,-706.256 395.621,-724.256 325.909,-742.256"/>
<polyline fill="none" stroke="black" points="267.816,-727.256 267.816,-721.255 "/>
<polyline fill="none" stroke="black" points="314.29,-709.256 337.528,-709.256 "/>
<polyline fill="none" stroke="black" points="384.002,-721.255 384.002,-727.256 "/>
<polyline fill="none" stroke="black" points="337.528,-739.255 314.29,-739.255 "/>
<text text-anchor="middle" x="325.909" y="-720.556" font-family="Times,serif" font-size="14.00">HttpServer</text>
</g>
<!-- HttpServer&#45;&gt;Core_HttpServer -->
<g id="edge75" class="edge"><title>HttpServer&#45;&gt;Core_HttpServer</title>
<path fill="none" stroke="black" d="M341.501,-738.444C374.528,-769.581 458.852,-843.712 544.974,-876.256 665.748,-921.893 706.251,-887.948 833.589,-909.256 856.153,-913.031 880.999,-918.394 901.633,-923.185"/>
<polygon fill="black" stroke="black" points="900.86,-926.599 911.396,-925.482 902.463,-919.785 900.86,-926.599"/>
</g>
<!-- DuckPhp -->
<g id="node51" class="node"><title>DuckPhp</title>
<polygon fill="lightgrey" stroke="black" points="325.909,-688.256 264.242,-670.256 325.909,-652.256 387.576,-670.256 325.909,-688.256"/>
<polyline fill="none" stroke="black" points="275.761,-673.618 275.761,-666.893 "/>
<polyline fill="none" stroke="black" points="314.39,-655.618 337.428,-655.618 "/>
<polyline fill="none" stroke="black" points="376.057,-666.893 376.057,-673.618 "/>
<polyline fill="none" stroke="black" points="337.428,-684.893 314.39,-684.893 "/>
<text text-anchor="middle" x="325.909" y="-666.556" font-family="Times,serif" font-size="14.00">DuckPhp</text>
</g>
<!-- DuckPhp&#45;&gt;Core_App -->
<g id="edge76" class="edge"><title>DuckPhp&#45;&gt;Core_App</title>
<path fill="none" stroke="black" d="M370.117,-675.579C383.975,-679.428 398.129,-686.013 407.441,-697.256 463.079,-764.422 470.256,-1044.41 471.114,-1134.33"/>
<polygon fill="black" stroke="black" points="467.616,-1134.58 471.191,-1144.56 474.615,-1134.53 467.616,-1134.58"/>
</g>
<!-- DuckPhp&#45;&gt;DBManager -->
<g id="edge79" class="edge"><title>DuckPhp&#45;&gt;DBManager</title>
<path fill="none" stroke="black" d="M326.408,-652.293C325.099,-565.983 332.134,-191.814 544.974,-40.2555 650.819,35.1143 814.779,-13.2473 896.593,-45.3619"/>
<polygon fill="black" stroke="black" points="895.569,-48.7219 906.154,-49.1883 898.17,-42.2231 895.569,-48.7219"/>
</g>
<!-- DuckPhp&#45;&gt;Pager -->
<g id="edge78" class="edge"><title>DuckPhp&#45;&gt;Pager</title>
<path fill="none" stroke="black" d="M335.299,-654.637C360.383,-609.595 439.647,-478.82 544.974,-418.256 577.957,-399.29 621.601,-393.287 652.023,-391.563"/>
<polygon fill="black" stroke="black" points="652.356,-395.052 662.193,-391.117 652.05,-388.058 652.356,-395.052"/>
</g>
<!-- DuckPhp&#45;&gt;RouteHookOneFileMode -->
<g id="edge80" class="edge"><title>DuckPhp&#45;&gt;RouteHookOneFileMode</title>
<path fill="none" stroke="black" d="M369.782,-675.594C426.654,-682.676 528.374,-695.343 601.576,-704.458"/>
<polygon fill="black" stroke="black" points="601.352,-707.958 611.708,-705.72 602.217,-701.011 601.352,-707.958"/>
</g>
<!-- DuckPhp&#45;&gt;RouteHookRouteMap -->
<g id="edge77" class="edge"><title>DuckPhp&#45;&gt;RouteHookRouteMap</title>
<path fill="none" stroke="black" d="M364.899,-663.632C422.91,-653.519 534.8,-634.013 610.515,-620.813"/>
<polygon fill="black" stroke="black" points="611.236,-624.24 620.487,-619.075 610.034,-617.344 611.236,-624.24"/>
</g>
</g>
</svg>
