<?xml version="1.0" encoding="UTF-8" standalone="no"?>
<!DOCTYPE svg PUBLIC "-//W3C//DTD SVG 1.1//EN"
 "http://www.w3.org/Graphics/SVG/1.1/DTD/svg11.dtd">
<!-- Generated by graphviz version 2.38.0 (20140413.2041)
 -->
<!-- Title: G Pages: 1 -->
<svg width="1524pt" height="1635pt"
 viewBox="0.00 0.00 1524.44 1635.00" xmlns="http://www.w3.org/2000/svg" xmlns:xlink="http://www.w3.org/1999/xlink">
<g id="graph0" class="graph" transform="scale(1 1) rotate(0) translate(4 1631)">
<title>G</title>
<polygon fill="white" stroke="none" points="-4,4 -4,-1631 1520.44,-1631 1520.44,4 -4,4"/>
<g id="clust1" class="cluster"><title>cluster_Core</title>
<polygon fill="none" stroke="black" points="427.441,-1092 427.441,-1619 1508.44,-1619 1508.44,-1092 427.441,-1092"/>
<text text-anchor="middle" x="967.939" y="-1603.8" font-family="Times,serif" font-size="14.00">[DuckPhp\Core]</text>
</g>
<g id="clust2" class="cluster"><title>cluster_Helper</title>
<polygon fill="none" stroke="black" points="8,-1283 8,-1574 407.441,-1574 407.441,-1283 8,-1283"/>
<text text-anchor="middle" x="207.721" y="-1558.8" font-family="Times,serif" font-size="14.00">[DuckPhp\Helper]</text>
</g>
<g id="clust3" class="cluster"><title>cluster_DB</title>
<polygon fill="none" stroke="black" points="963.271,-8 963.271,-137 1319.86,-137 1319.86,-8 963.271,-8"/>
<text text-anchor="middle" x="1141.56" y="-121.8" font-family="Times,serif" font-size="14.00">[DuckPhp\DB]</text>
</g>
<g id="clust4" class="cluster"><title>cluster_Ext</title>
<polygon fill="none" stroke="black" points="603.153,-145 603.153,-1084 1068.77,-1084 1068.77,-145 603.153,-145"/>
<text text-anchor="middle" x="835.962" y="-1068.8" font-family="Times,serif" font-size="14.00">[DuckPhp\Ext]</text>
</g>
<g id="clust5" class="cluster"><title>cluster_DuckPhp</title>
<polygon fill="none" stroke="black" points="248.053,-490 248.053,-619 403.765,-619 403.765,-490 248.053,-490"/>
<text text-anchor="middle" x="325.909" y="-603.8" font-family="Times,serif" font-size="14.00">[DuckPhp]</text>
</g>
<!-- Core_AppPluginTrait -->
<g id="node1" class="node"><title>Core_AppPluginTrait</title>
<polygon fill="none" stroke="black" points="742.593,-1232 649.923,-1214 742.593,-1196 835.263,-1214 742.593,-1232"/>
<text text-anchor="middle" x="742.593" y="-1210.3" font-family="Times,serif" font-size="14.00">AppPluginTrait</text>
</g>
<!-- Core_View -->
<g id="node7" class="node"><title>Core_View</title>
<polygon fill="none" stroke="black" points="1025.27,-1190 971.271,-1190 971.271,-1186 967.271,-1186 967.271,-1182 971.271,-1182 971.271,-1162 967.271,-1162 967.271,-1158 971.271,-1158 971.271,-1154 1025.27,-1154 1025.27,-1190"/>
<polyline fill="none" stroke="black" points="971.271,-1186 975.271,-1186 975.271,-1182 971.271,-1182 "/>
<polyline fill="none" stroke="black" points="971.271,-1162 975.271,-1162 975.271,-1158 971.271,-1158 "/>
<text text-anchor="middle" x="998.271" y="-1168.3" font-family="Times,serif" font-size="14.00">View</text>
</g>
<!-- Core_AppPluginTrait&#45;&gt;Core_View -->
<g id="edge23" class="edge"><title>Core_AppPluginTrait&#45;&gt;Core_View</title>
<path fill="none" stroke="black" d="M793.107,-1205.8C842.497,-1197.62 917.183,-1185.26 961.212,-1177.97"/>
<polygon fill="black" stroke="black" points="961.887,-1181.41 971.181,-1176.32 960.743,-1174.5 961.887,-1181.41"/>
</g>
<!-- Core_Configer -->
<g id="node8" class="node"><title>Core_Configer</title>
<polygon fill="none" stroke="black" points="1030.77,-1244 965.771,-1244 965.771,-1240 961.771,-1240 961.771,-1236 965.771,-1236 965.771,-1216 961.771,-1216 961.771,-1212 965.771,-1212 965.771,-1208 1030.77,-1208 1030.77,-1244"/>
<polyline fill="none" stroke="black" points="965.771,-1240 969.771,-1240 969.771,-1236 965.771,-1236 "/>
<polyline fill="none" stroke="black" points="965.771,-1216 969.771,-1216 969.771,-1212 965.771,-1212 "/>
<text text-anchor="middle" x="998.271" y="-1222.3" font-family="Times,serif" font-size="14.00">Configer</text>
</g>
<!-- Core_AppPluginTrait&#45;&gt;Core_Configer -->
<g id="edge22" class="edge"><title>Core_AppPluginTrait&#45;&gt;Core_Configer</title>
<path fill="none" stroke="black" d="M817.649,-1217.5C862.564,-1219.63 918.227,-1222.26 955.582,-1224.03"/>
<polygon fill="black" stroke="black" points="955.454,-1227.53 965.608,-1224.5 955.784,-1220.53 955.454,-1227.53"/>
</g>
<!-- Core_Route -->
<g id="node10" class="node"><title>Core_Route</title>
<polygon fill="lightgrey" stroke="black" points="998.271,-1352 953.194,-1334 998.271,-1316 1043.35,-1334 998.271,-1352"/>
<polyline fill="none" stroke="black" points="964.338,-1338.45 964.338,-1329.55 "/>
<polyline fill="none" stroke="black" points="987.127,-1320.45 1009.42,-1320.45 "/>
<polyline fill="none" stroke="black" points="1032.2,-1329.55 1032.2,-1338.45 "/>
<polyline fill="none" stroke="black" points="1009.42,-1347.55 987.127,-1347.55 "/>
<text text-anchor="middle" x="998.271" y="-1330.3" font-family="Times,serif" font-size="14.00">Route</text>
</g>
<!-- Core_AppPluginTrait&#45;&gt;Core_Route -->
<g id="edge24" class="edge"><title>Core_AppPluginTrait&#45;&gt;Core_Route</title>
<path fill="none" stroke="black" d="M791.975,-1222.43C821.391,-1229.27 858.608,-1241.15 886.901,-1261 908.152,-1275.91 901.885,-1291.76 922.901,-1307 933.605,-1314.76 946.775,-1320.51 959.043,-1324.65"/>
<polygon fill="black" stroke="black" points="958.035,-1328 968.624,-1327.64 960.12,-1321.32 958.035,-1328"/>
</g>
<!-- Core_SuperGlobal -->
<g id="node14" class="node"><title>Core_SuperGlobal</title>
<polygon fill="none" stroke="black" points="1040.77,-1298 955.771,-1298 955.771,-1294 951.771,-1294 951.771,-1290 955.771,-1290 955.771,-1270 951.771,-1270 951.771,-1266 955.771,-1266 955.771,-1262 1040.77,-1262 1040.77,-1298"/>
<polyline fill="none" stroke="black" points="955.771,-1294 959.771,-1294 959.771,-1290 955.771,-1290 "/>
<polyline fill="none" stroke="black" points="955.771,-1270 959.771,-1270 959.771,-1266 955.771,-1266 "/>
<text text-anchor="middle" x="998.271" y="-1276.3" font-family="Times,serif" font-size="14.00">SuperGlobal</text>
</g>
<!-- Core_AppPluginTrait&#45;&gt;Core_SuperGlobal -->
<g id="edge25" class="edge"><title>Core_AppPluginTrait&#45;&gt;Core_SuperGlobal</title>
<path fill="none" stroke="black" d="M788.674,-1223.11C817.009,-1229.07 854.252,-1237.34 886.901,-1246 906.285,-1251.14 927.371,-1257.46 945.87,-1263.24"/>
<polygon fill="black" stroke="black" points="944.978,-1266.63 955.568,-1266.3 947.084,-1259.95 944.978,-1266.63"/>
</g>
<!-- Core_App -->
<g id="node2" class="node"><title>Core_App</title>
<polygon fill="lightgrey" stroke="black" points="498.863,-1393 462.329,-1375 498.863,-1357 535.397,-1375 498.863,-1393"/>
<polyline fill="none" stroke="black" points="473.094,-1380.3 473.094,-1369.7 "/>
<polyline fill="none" stroke="black" points="488.099,-1362.3 509.628,-1362.3 "/>
<polyline fill="none" stroke="black" points="524.633,-1369.7 524.633,-1380.3 "/>
<polyline fill="none" stroke="black" points="509.628,-1387.7 488.099,-1387.7 "/>
<text text-anchor="middle" x="498.863" y="-1371.3" font-family="Times,serif" font-size="14.00">App</text>
</g>
<!-- Core_Kernel -->
<g id="node3" class="node"><title>Core_Kernel</title>
<polygon fill="none" stroke="black" points="742.593,-1306 693.661,-1288 742.593,-1270 791.524,-1288 742.593,-1306"/>
<text text-anchor="middle" x="742.593" y="-1284.3" font-family="Times,serif" font-size="14.00">Kernel</text>
</g>
<!-- Core_App&#45;&gt;Core_Kernel -->
<g id="edge9" class="edge"><title>Core_App&#45;&gt;Core_Kernel</title>
<path fill="none" stroke="black" d="M514.867,-1364.78C533.605,-1352.47 567.014,-1331.94 598.285,-1320 630.102,-1307.86 667.739,-1299.67 696.456,-1294.62"/>
<polygon fill="black" stroke="black" points="697.331,-1298.02 706.605,-1292.9 696.161,-1291.12 697.331,-1298.02"/>
</g>
<!-- Core_AutoLoader -->
<g id="node5" class="node"><title>Core_AutoLoader</title>
<polygon fill="lightgrey" stroke="black" points="998.271,-1588 923.029,-1570 998.271,-1552 1073.51,-1570 998.271,-1588"/>
<polyline fill="none" stroke="black" points="934.7,-1572.79 934.7,-1567.21 "/>
<polyline fill="none" stroke="black" points="986.601,-1554.79 1009.94,-1554.79 "/>
<polyline fill="none" stroke="black" points="1061.84,-1567.21 1061.84,-1572.79 "/>
<polyline fill="none" stroke="black" points="1009.94,-1585.21 986.601,-1585.21 "/>
<text text-anchor="middle" x="998.271" y="-1566.3" font-family="Times,serif" font-size="14.00">AutoLoader</text>
</g>
<!-- Core_App&#45;&gt;Core_AutoLoader -->
<g id="edge12" class="edge"><title>Core_App&#45;&gt;Core_AutoLoader</title>
<path fill="none" stroke="black" stroke-dasharray="1,5" d="M509.318,-1387.97C525.113,-1408.49 559.032,-1447.85 598.285,-1465 716.238,-1516.53 774.568,-1426.16 886.901,-1489 910.484,-1502.19 901.748,-1521.18 922.901,-1538 932.261,-1545.44 943.614,-1551.47 954.601,-1556.21"/>
<polygon fill="black" stroke="black" points="953.52,-1559.54 964.103,-1560.04 956.137,-1553.05 953.52,-1559.54"/>
</g>
<!-- Core_ExceptionManager -->
<g id="node6" class="node"><title>Core_ExceptionManager</title>
<polygon fill="none" stroke="black" points="1058.27,-1406 938.271,-1406 938.271,-1402 934.271,-1402 934.271,-1398 938.271,-1398 938.271,-1378 934.271,-1378 934.271,-1374 938.271,-1374 938.271,-1370 1058.27,-1370 1058.27,-1406"/>
<polyline fill="none" stroke="black" points="938.271,-1402 942.271,-1402 942.271,-1398 938.271,-1398 "/>
<polyline fill="none" stroke="black" points="938.271,-1378 942.271,-1378 942.271,-1374 938.271,-1374 "/>
<text text-anchor="middle" x="998.271" y="-1384.3" font-family="Times,serif" font-size="14.00">ExceptionManager</text>
</g>
<!-- Core_App&#45;&gt;Core_ExceptionManager -->
<g id="edge15" class="edge"><title>Core_App&#45;&gt;Core_ExceptionManager</title>
<path fill="none" stroke="black" stroke-dasharray="1,5" d="M518.218,-1366.33C537.611,-1357.68 569.333,-1344.99 598.285,-1340 724.691,-1318.19 763.072,-1306.52 886.901,-1340 904.782,-1344.83 906.127,-1353.14 922.901,-1361 926.679,-1362.77 930.607,-1364.5 934.598,-1366.18"/>
<polygon fill="black" stroke="black" points="933.395,-1369.46 943.978,-1369.98 936.024,-1362.98 933.395,-1369.46"/>
</g>
<!-- Core_App&#45;&gt;Core_View -->
<g id="edge18" class="edge"><title>Core_App&#45;&gt;Core_View</title>
<path fill="none" stroke="black" stroke-dasharray="1,5" d="M508.789,-1361.46C521.741,-1341.42 545.975,-1302.41 562.285,-1267 582.399,-1223.34 559.04,-1192.77 598.285,-1165 655.824,-1124.29 873.961,-1152.72 961.046,-1166.1"/>
<polygon fill="black" stroke="black" points="960.577,-1169.57 970.997,-1167.65 961.656,-1162.65 960.577,-1169.57"/>
</g>
<!-- Core_App&#45;&gt;Core_Configer -->
<g id="edge13" class="edge"><title>Core_App&#45;&gt;Core_Configer</title>
<path fill="none" stroke="black" stroke-dasharray="1,5" d="M508.402,-1361.27C520.871,-1340.99 544.511,-1301.69 562.285,-1267 580.063,-1232.3 565.543,-1208.17 598.285,-1187 652.144,-1152.18 823.686,-1176.16 886.901,-1187 890.572,-1187.63 926.247,-1200.33 956.06,-1211.07"/>
<polygon fill="black" stroke="black" points="954.891,-1214.37 965.485,-1214.47 957.266,-1207.79 954.891,-1214.37"/>
</g>
<!-- Core_Logger -->
<g id="node9" class="node"><title>Core_Logger</title>
<polygon fill="none" stroke="black" points="1026.27,-1460 970.271,-1460 970.271,-1456 966.271,-1456 966.271,-1452 970.271,-1452 970.271,-1432 966.271,-1432 966.271,-1428 970.271,-1428 970.271,-1424 1026.27,-1424 1026.27,-1460"/>
<polyline fill="none" stroke="black" points="970.271,-1456 974.271,-1456 974.271,-1452 970.271,-1452 "/>
<polyline fill="none" stroke="black" points="970.271,-1432 974.271,-1432 974.271,-1428 970.271,-1428 "/>
<text text-anchor="middle" x="998.271" y="-1438.3" font-family="Times,serif" font-size="14.00">Logger</text>
</g>
<!-- Core_App&#45;&gt;Core_Logger -->
<g id="edge14" class="edge"><title>Core_App&#45;&gt;Core_Logger</title>
<path fill="none" stroke="black" stroke-dasharray="1,5" d="M526.57,-1370.51C603.612,-1358.1 824.716,-1326.38 886.901,-1360 912.6,-1373.89 899.996,-1396.86 922.901,-1415 933.692,-1423.55 947.431,-1429.54 960.156,-1433.67"/>
<polygon fill="black" stroke="black" points="959.487,-1437.12 970.069,-1436.59 961.468,-1430.4 959.487,-1437.12"/>
</g>
<!-- Core_App&#45;&gt;Core_Route -->
<g id="edge16" class="edge"><title>Core_App&#45;&gt;Core_Route</title>
<path fill="none" stroke="black" stroke-dasharray="1,5" d="M510.806,-1387.18C527.58,-1404.83 561.584,-1436.74 598.285,-1449 659.119,-1469.32 833.651,-1484.75 886.901,-1449 921.985,-1425.45 892.427,-1390.28 922.901,-1361 932.032,-1352.23 944.231,-1346.27 956.105,-1342.24"/>
<polygon fill="black" stroke="black" points="957.357,-1345.52 965.927,-1339.29 955.343,-1338.82 957.357,-1345.52"/>
</g>
<!-- Core_RuntimeState -->
<g id="node11" class="node"><title>Core_RuntimeState</title>
<polygon fill="none" stroke="black" points="1043.77,-1514 952.771,-1514 952.771,-1510 948.771,-1510 948.771,-1506 952.771,-1506 952.771,-1486 948.771,-1486 948.771,-1482 952.771,-1482 952.771,-1478 1043.77,-1478 1043.77,-1514"/>
<polyline fill="none" stroke="black" points="952.771,-1510 956.771,-1510 956.771,-1506 952.771,-1506 "/>
<polyline fill="none" stroke="black" points="952.771,-1486 956.771,-1486 956.771,-1482 952.771,-1482 "/>
<text text-anchor="middle" x="998.271" y="-1492.3" font-family="Times,serif" font-size="14.00">RuntimeState</text>
</g>
<!-- Core_App&#45;&gt;Core_RuntimeState -->
<g id="edge17" class="edge"><title>Core_App&#45;&gt;Core_RuntimeState</title>
<path fill="none" stroke="black" stroke-dasharray="1,5" d="M532.222,-1373.4C620.007,-1369.33 858.019,-1360.26 886.901,-1380 922.125,-1404.08 892.189,-1439.38 922.901,-1469 928.67,-1474.57 935.675,-1479 943.05,-1482.52"/>
<polygon fill="black" stroke="black" points="941.953,-1485.86 952.527,-1486.52 944.673,-1479.41 941.953,-1485.86"/>
</g>
<!-- Core_SystemWrapperTrait -->
<g id="node12" class="node"><title>Core_SystemWrapperTrait</title>
<polygon fill="none" stroke="black" points="742.593,-1440 622.274,-1422 742.593,-1404 862.912,-1422 742.593,-1440"/>
<text text-anchor="middle" x="742.593" y="-1418.3" font-family="Times,serif" font-size="14.00">SystemWrapperTrait</text>
</g>
<!-- Core_App&#45;&gt;Core_SystemWrapperTrait -->
<g id="edge11" class="edge"><title>Core_App&#45;&gt;Core_SystemWrapperTrait</title>
<path fill="none" stroke="black" d="M525.733,-1380.03C562.081,-1387.1 629.396,-1400.19 679.228,-1409.87"/>
<polygon fill="black" stroke="black" points="678.778,-1413.35 689.262,-1411.83 680.114,-1406.48 678.778,-1413.35"/>
</g>
<!-- Core_App&#45;&gt;Core_SuperGlobal -->
<g id="edge19" class="edge"><title>Core_App&#45;&gt;Core_SuperGlobal</title>
<path fill="none" stroke="black" stroke-dasharray="1,5" d="M506.894,-1360.7C520.439,-1335.01 552.876,-1281.79 598.285,-1261 656.602,-1234.3 822.997,-1255.54 886.901,-1261 906.189,-1262.65 927.168,-1265.89 945.606,-1269.23"/>
<polygon fill="black" stroke="black" points="945.088,-1272.7 955.561,-1271.09 946.373,-1265.82 945.088,-1272.7"/>
</g>
<!-- Core_ExtendableStaticCallTrait -->
<g id="node15" class="node"><title>Core_ExtendableStaticCallTrait</title>
<polygon fill="none" stroke="black" points="742.593,-1588 598.477,-1570 742.593,-1552 886.708,-1570 742.593,-1588"/>
<text text-anchor="middle" x="742.593" y="-1566.3" font-family="Times,serif" font-size="14.00">ExtendableStaticCallTrait</text>
</g>
<!-- Core_App&#45;&gt;Core_ExtendableStaticCallTrait -->
<g id="edge10" class="edge"><title>Core_App&#45;&gt;Core_ExtendableStaticCallTrait</title>
<path fill="none" stroke="black" d="M504.148,-1390.52C514.32,-1424.24 543.285,-1504.27 598.285,-1543 609.779,-1551.09 623.028,-1556.95 636.73,-1561.15"/>
<polygon fill="black" stroke="black" points="636.198,-1564.63 646.769,-1563.93 638.065,-1557.89 636.198,-1564.63"/>
</g>
<!-- Core_ComponentBase -->
<g id="node18" class="node"><title>Core_ComponentBase</title>
<polygon fill="none" stroke="black" points="1264.25,-1136 1161.25,-1136 1157.25,-1132 1157.25,-1100 1260.25,-1100 1264.25,-1104 1264.25,-1136"/>
<polyline fill="none" stroke="black" points="1260.25,-1132 1157.25,-1132 "/>
<polyline fill="none" stroke="black" points="1260.25,-1132 1260.25,-1100 "/>
<polyline fill="none" stroke="black" points="1260.25,-1132 1264.25,-1136 "/>
<text text-anchor="middle" x="1210.75" y="-1114.3" font-family="Times,serif" font-size="14.00">ComponentBase</text>
</g>
<!-- Core_App&#45;&gt;Core_ComponentBase -->
<g id="edge21" class="edge"><title>Core_App&#45;&gt;Core_ComponentBase</title>
<path fill="none" stroke="black" stroke-dasharray="1,5" d="M532.528,-1376.44C625.219,-1380.55 883.451,-1392.24 886.901,-1395 933.069,-1431.89 875.795,-1487.32 922.901,-1523 949.602,-1543.23 1046.44,-1542.55 1073.64,-1523 1198.5,-1433.24 1210.39,-1223.27 1210.4,-1146.64"/>
<polygon fill="black" stroke="black" points="1213.9,-1146.31 1210.33,-1136.34 1206.9,-1146.36 1213.9,-1146.31"/>
</g>
<!-- Core_Functions -->
<g id="node19" class="node"><title>Core_Functions</title>
<ellipse fill="none" stroke="black" cx="742.593" cy="-1516" rx="45.4919" ry="18"/>
<text text-anchor="middle" x="742.593" y="-1512.3" font-family="Times,serif" font-size="14.00">Functions</text>
</g>
<!-- Core_App&#45;&gt;Core_Functions -->
<g id="edge20" class="edge"><title>Core_App&#45;&gt;Core_Functions</title>
<path fill="none" stroke="black" stroke-dasharray="1,5" d="M508.006,-1388.5C522.851,-1411.88 556.66,-1459.72 598.285,-1484 625.252,-1499.73 659.212,-1507.73 687.304,-1511.8"/>
<polygon fill="black" stroke="black" points="686.992,-1515.29 697.364,-1513.13 687.909,-1508.35 686.992,-1515.29"/>
</g>
<!-- Core_Kernel&#45;&gt;Core_AutoLoader -->
<g id="edge1" class="edge"><title>Core_Kernel&#45;&gt;Core_AutoLoader</title>
<path fill="none" stroke="black" d="M764.574,-1297.98C795.973,-1313.99 854.908,-1348.42 886.901,-1395 920.357,-1443.71 887.576,-1475.62 922.901,-1523 932.544,-1535.93 946.89,-1546.2 960.417,-1553.79"/>
<polygon fill="black" stroke="black" points="959.105,-1557.05 969.583,-1558.62 962.368,-1550.86 959.105,-1557.05"/>
</g>
<!-- Core_Kernel&#45;&gt;Core_ExceptionManager -->
<g id="edge4" class="edge"><title>Core_Kernel&#45;&gt;Core_ExceptionManager</title>
<path fill="none" stroke="black" d="M785.011,-1290.41C815.072,-1293.72 855.759,-1301.55 886.901,-1320 907.762,-1332.36 902.876,-1347.32 922.901,-1361 925.034,-1362.46 927.256,-1363.85 929.542,-1365.17"/>
<polygon fill="black" stroke="black" points="928.141,-1368.39 938.62,-1369.95 931.401,-1362.19 928.141,-1368.39"/>
</g>
<!-- Core_Kernel&#45;&gt;Core_View -->
<g id="edge7" class="edge"><title>Core_Kernel&#45;&gt;Core_View</title>
<path fill="none" stroke="black" d="M776.569,-1282.48C807.16,-1276.19 852.949,-1263.71 886.901,-1241 907.336,-1227.33 902.682,-1212.99 922.901,-1199 934.31,-1191.11 948.293,-1185.24 961.043,-1181.03"/>
<polygon fill="black" stroke="black" points="962.395,-1184.27 970.931,-1178 960.344,-1177.58 962.395,-1184.27"/>
</g>
<!-- Core_Kernel&#45;&gt;Core_Configer -->
<g id="edge2" class="edge"><title>Core_Kernel&#45;&gt;Core_Configer</title>
<path fill="none" stroke="black" d="M772.693,-1280.89C817.714,-1269.88 904.421,-1248.69 955.93,-1236.1"/>
<polygon fill="black" stroke="black" points="956.857,-1239.48 965.74,-1233.71 955.195,-1232.68 956.857,-1239.48"/>
</g>
<!-- Core_Kernel&#45;&gt;Core_Logger -->
<g id="edge3" class="edge"><title>Core_Kernel&#45;&gt;Core_Logger</title>
<path fill="none" stroke="black" d="M778.403,-1292.98C810.069,-1299.13 856.388,-1312.38 886.901,-1340 914.312,-1364.81 895.491,-1390.18 922.901,-1415 933.368,-1424.48 947.421,-1430.7 960.492,-1434.75"/>
<polygon fill="black" stroke="black" points="959.649,-1438.14 970.22,-1437.44 961.516,-1431.4 959.649,-1438.14"/>
</g>
<!-- Core_Kernel&#45;&gt;Core_Route -->
<g id="edge5" class="edge"><title>Core_Kernel&#45;&gt;Core_Route</title>
<path fill="none" stroke="black" d="M775.721,-1293.83C821.747,-1302.17 906.427,-1317.53 956.712,-1326.65"/>
<polygon fill="black" stroke="black" points="956.127,-1330.1 966.591,-1328.44 957.376,-1323.21 956.127,-1330.1"/>
</g>
<!-- Core_Kernel&#45;&gt;Core_RuntimeState -->
<g id="edge6" class="edge"><title>Core_Kernel&#45;&gt;Core_RuntimeState</title>
<path fill="none" stroke="black" d="M772.206,-1295.21C804.48,-1304.77 856.426,-1324.7 886.901,-1360 920.237,-1398.62 887.357,-1432.4 922.901,-1469 928.553,-1474.82 935.555,-1479.39 942.985,-1482.98"/>
<polygon fill="black" stroke="black" points="941.98,-1486.36 952.554,-1487.02 944.704,-1479.91 941.98,-1486.36"/>
</g>
<!-- Core_Kernel&#45;&gt;Core_SuperGlobal -->
<g id="edge8" class="edge"><title>Core_Kernel&#45;&gt;Core_SuperGlobal</title>
<path fill="none" stroke="black" d="M787.78,-1286.61C831.727,-1285.22 899.121,-1283.1 945.539,-1281.63"/>
<polygon fill="black" stroke="black" points="945.808,-1285.12 955.692,-1281.31 945.587,-1278.13 945.808,-1285.12"/>
</g>
<!-- Core_SingletonEx -->
<g id="node4" class="node"><title>Core_SingletonEx</title>
<polygon fill="lightgrey" stroke="black" points="1424.15,-1389 1348.07,-1371 1424.15,-1353 1500.23,-1371 1424.15,-1389"/>
<polyline fill="none" stroke="black" points="1359.74,-1373.76 1359.74,-1368.24 "/>
<polyline fill="none" stroke="black" points="1412.47,-1355.76 1435.82,-1355.76 "/>
<polyline fill="none" stroke="black" points="1488.55,-1368.24 1488.55,-1373.76 "/>
<polyline fill="none" stroke="black" points="1435.82,-1386.24 1412.47,-1386.24 "/>
<text text-anchor="middle" x="1424.15" y="-1367.3" font-family="Times,serif" font-size="14.00">SingletonEx</text>
</g>
<!-- Core_ExceptionManager&#45;&gt;Core_ComponentBase -->
<g id="edge26" class="edge"><title>Core_ExceptionManager&#45;&gt;Core_ComponentBase</title>
<path fill="none" stroke="black" stroke-dasharray="1,5" d="M1058.33,-1371.17C1063.82,-1368.28 1069.04,-1364.91 1073.64,-1361 1143.83,-1301.37 1184.91,-1195.97 1201.35,-1145.91"/>
<polygon fill="black" stroke="black" points="1204.78,-1146.69 1204.49,-1136.1 1198.11,-1144.56 1204.78,-1146.69"/>
</g>
<!-- Core_View&#45;&gt;Core_ComponentBase -->
<g id="edge31" class="edge"><title>Core_View&#45;&gt;Core_ComponentBase</title>
<path fill="none" stroke="black" stroke-dasharray="1,5" d="M1025.5,-1165.27C1055.74,-1157.51 1106.48,-1144.49 1147.07,-1134.08"/>
<polygon fill="black" stroke="black" points="1148.07,-1137.44 1156.88,-1131.56 1146.33,-1130.66 1148.07,-1137.44"/>
</g>
<!-- Core_Configer&#45;&gt;Core_ComponentBase -->
<g id="edge27" class="edge"><title>Core_Configer&#45;&gt;Core_ComponentBase</title>
<path fill="none" stroke="black" stroke-dasharray="1,5" d="M1030.93,-1215.98C1044.34,-1211.37 1059.99,-1205.47 1073.64,-1199 1109.14,-1182.18 1147.4,-1158.91 1174.29,-1141.62"/>
<polygon fill="black" stroke="black" points="1176.46,-1144.39 1182.95,-1136.01 1172.66,-1138.51 1176.46,-1144.39"/>
</g>
<!-- Core_Logger&#45;&gt;Core_ComponentBase -->
<g id="edge32" class="edge"><title>Core_Logger&#45;&gt;Core_ComponentBase</title>
<path fill="none" stroke="black" stroke-dasharray="1,5" d="M1026.4,-1437.52C1041.83,-1433.77 1060.61,-1427.01 1073.64,-1415 1155.7,-1339.37 1192.02,-1204.56 1204.44,-1146.21"/>
<polygon fill="black" stroke="black" points="1207.9,-1146.73 1206.49,-1136.23 1201.05,-1145.33 1207.9,-1146.73"/>
</g>
<!-- Core_Route&#45;&gt;Core_ComponentBase -->
<g id="edge28" class="edge"><title>Core_Route&#45;&gt;Core_ComponentBase</title>
<path fill="none" stroke="black" stroke-dasharray="1,5" d="M1028.08,-1327.86C1042.76,-1323.71 1060.28,-1317.11 1073.64,-1307 1132.31,-1262.63 1176.33,-1185.88 1196.89,-1145.18"/>
<polygon fill="black" stroke="black" points="1200.08,-1146.63 1201.38,-1136.12 1193.8,-1143.52 1200.08,-1146.63"/>
</g>
<!-- Core_RuntimeState&#45;&gt;Core_ComponentBase -->
<g id="edge30" class="edge"><title>Core_RuntimeState&#45;&gt;Core_ComponentBase</title>
<path fill="none" stroke="black" stroke-dasharray="1,5" d="M1044.09,-1486.6C1054.81,-1482.62 1065.49,-1476.97 1073.64,-1469 1167.9,-1376.77 1198.12,-1211.89 1206.7,-1146.17"/>
<polygon fill="black" stroke="black" points="1210.19,-1146.49 1207.94,-1136.14 1203.24,-1145.64 1210.19,-1146.49"/>
</g>
<!-- Core_HttpServer -->
<g id="node13" class="node"><title>Core_HttpServer</title>
<polygon fill="lightgrey" stroke="black" points="998.271,-1136 928.559,-1118 998.271,-1100 1067.98,-1118 998.271,-1136"/>
<polyline fill="none" stroke="black" points="940.178,-1121 940.178,-1115 "/>
<polyline fill="none" stroke="black" points="986.652,-1103 1009.89,-1103 "/>
<polyline fill="none" stroke="black" points="1056.36,-1115 1056.36,-1121 "/>
<polyline fill="none" stroke="black" points="1009.89,-1133 986.652,-1133 "/>
<text text-anchor="middle" x="998.271" y="-1114.3" font-family="Times,serif" font-size="14.00">HttpServer</text>
</g>
<!-- Core_HttpServer&#45;&gt;Core_ComponentBase -->
<g id="edge33" class="edge"><title>Core_HttpServer&#45;&gt;Core_ComponentBase</title>
<path fill="none" stroke="black" stroke-dasharray="1,5" d="M1068.19,-1118C1093.58,-1118 1122.2,-1118 1147.02,-1118"/>
<polygon fill="black" stroke="black" points="1147.04,-1121.5 1157.04,-1118 1147.04,-1114.5 1147.04,-1121.5"/>
</g>
<!-- Core_SuperGlobal&#45;&gt;Core_ComponentBase -->
<g id="edge29" class="edge"><title>Core_SuperGlobal&#45;&gt;Core_ComponentBase</title>
<path fill="none" stroke="black" stroke-dasharray="1,5" d="M1040.9,-1268.46C1052,-1264.44 1063.66,-1259.32 1073.64,-1253 1120.93,-1223.04 1164.83,-1174.18 1189.38,-1144.18"/>
<polygon fill="black" stroke="black" points="1192.23,-1146.23 1195.78,-1136.25 1186.78,-1141.83 1192.23,-1146.23"/>
</g>
<!-- Core_ThrowOn -->
<g id="node16" class="node"><title>Core_ThrowOn</title>
<polygon fill="lightgrey" stroke="black" points="498.863,-1258 435.519,-1240 498.863,-1222 562.207,-1240 498.863,-1258"/>
<polyline fill="none" stroke="black" points="447.063,-1243.28 447.063,-1236.72 "/>
<polyline fill="none" stroke="black" points="487.32,-1225.28 510.406,-1225.28 "/>
<polyline fill="none" stroke="black" points="550.664,-1236.72 550.664,-1243.28 "/>
<polyline fill="none" stroke="black" points="510.406,-1254.72 487.32,-1254.72 "/>
<text text-anchor="middle" x="498.863" y="-1236.3" font-family="Times,serif" font-size="14.00">ThrowOn</text>
</g>
<!-- Core_ComponentInterface -->
<g id="node17" class="node"><title>Core_ComponentInterface</title>
<polygon fill="none" stroke="black" points="1482.15,-1136 1360.15,-1136 1360.15,-1100 1488.15,-1100 1488.15,-1130 1482.15,-1136"/>
<polyline fill="none" stroke="black" points="1482.15,-1136 1482.15,-1130 "/>
<polyline fill="none" stroke="black" points="1488.15,-1130 1482.15,-1130 "/>
<text text-anchor="middle" x="1424.15" y="-1114.3" font-family="Times,serif" font-size="14.00">ComponentInterface</text>
</g>
<!-- Core_ComponentBase&#45;&gt;Core_SingletonEx -->
<g id="edge35" class="edge"><title>Core_ComponentBase&#45;&gt;Core_SingletonEx</title>
<path fill="none" stroke="black" d="M1226.95,-1136.2C1264.63,-1181.29 1362.27,-1298.15 1403.9,-1347.96"/>
<polygon fill="black" stroke="black" points="1401.44,-1350.48 1410.53,-1355.91 1406.81,-1345.99 1401.44,-1350.48"/>
</g>
<!-- Core_ComponentBase&#45;&gt;Core_ComponentInterface -->
<g id="edge34" class="edge"><title>Core_ComponentBase&#45;&gt;Core_ComponentInterface</title>
<path fill="none" stroke="black" d="M1264.28,-1118C1290.09,-1118 1321.62,-1118 1349.77,-1118"/>
<polygon fill="black" stroke="black" points="1349.97,-1121.5 1359.97,-1118 1349.97,-1114.5 1349.97,-1121.5"/>
</g>
<!-- AppHelper -->
<g id="node20" class="node"><title>AppHelper</title>
<polygon fill="lightgrey" stroke="black" points="116.188,-1543 45.6372,-1525 116.188,-1507 186.739,-1525 116.188,-1543"/>
<polyline fill="none" stroke="black" points="57.2647,-1527.97 57.2647,-1522.03 "/>
<polyline fill="none" stroke="black" points="104.561,-1509.97 127.816,-1509.97 "/>
<polyline fill="none" stroke="black" points="175.112,-1522.03 175.112,-1527.97 "/>
<polyline fill="none" stroke="black" points="127.816,-1540.03 104.561,-1540.03 "/>
<text text-anchor="middle" x="116.188" y="-1521.3" font-family="Times,serif" font-size="14.00">AppHelper</text>
</g>
<!-- AppHelper&#45;&gt;Core_App -->
<g id="edge36" class="edge"><title>AppHelper&#45;&gt;Core_App</title>
<path fill="none" stroke="black" d="M151.711,-1515.97C170.823,-1510.87 194.973,-1504.29 216.376,-1498 230.541,-1493.84 233.92,-1492.27 248.053,-1488 318.633,-1466.68 341.353,-1474.69 407.441,-1442 433.629,-1429.05 460.074,-1408.37 477.541,-1393.41"/>
<polygon fill="black" stroke="black" points="480.126,-1395.79 485.354,-1386.58 475.521,-1390.52 480.126,-1395.79"/>
</g>
<!-- HelperTrait -->
<g id="node25" class="node"><title>HelperTrait</title>
<polygon fill="none" stroke="black" points="325.909,-1533 252.344,-1515 325.909,-1497 399.474,-1515 325.909,-1533"/>
<text text-anchor="middle" x="325.909" y="-1511.3" font-family="Times,serif" font-size="14.00">HelperTrait</text>
</g>
<!-- AppHelper&#45;&gt;HelperTrait -->
<g id="edge44" class="edge"><title>AppHelper&#45;&gt;HelperTrait</title>
<path fill="none" stroke="black" d="M175.88,-1522.17C200.132,-1521.01 228.465,-1519.64 253.875,-1518.42"/>
<polygon fill="black" stroke="black" points="254.374,-1521.9 264.194,-1517.92 254.037,-1514.91 254.374,-1521.9"/>
</g>
<!-- ControllerHelper -->
<g id="node21" class="node"><title>ControllerHelper</title>
<polygon fill="lightgrey" stroke="black" points="116.188,-1489 15.8115,-1471 116.188,-1453 216.565,-1471 116.188,-1489"/>
<polyline fill="none" stroke="black" points="27.6231,-1473.12 27.6231,-1468.88 "/>
<polyline fill="none" stroke="black" points="104.377,-1455.12 128,-1455.12 "/>
<polyline fill="none" stroke="black" points="204.753,-1468.88 204.753,-1473.12 "/>
<polyline fill="none" stroke="black" points="128,-1486.88 104.377,-1486.88 "/>
<text text-anchor="middle" x="116.188" y="-1467.3" font-family="Times,serif" font-size="14.00">ControllerHelper</text>
</g>
<!-- ControllerHelper&#45;&gt;Core_App -->
<g id="edge37" class="edge"><title>ControllerHelper&#45;&gt;Core_App</title>
<path fill="none" stroke="black" d="M167.786,-1462.18C226.116,-1451.52 324.602,-1431.99 407.441,-1408 428.24,-1401.98 451.148,-1393.6 468.703,-1386.79"/>
<polygon fill="black" stroke="black" points="470.337,-1389.91 478.363,-1382.99 467.776,-1383.39 470.337,-1389.91"/>
</g>
<!-- ControllerHelper&#45;&gt;HelperTrait -->
<g id="edge45" class="edge"><title>ControllerHelper&#45;&gt;HelperTrait</title>
<path fill="none" stroke="black" d="M162.773,-1480.66C196.252,-1487.75 241.674,-1497.37 275.926,-1504.62"/>
<polygon fill="black" stroke="black" points="275.212,-1508.05 285.72,-1506.7 276.662,-1501.2 275.212,-1508.05"/>
</g>
<!-- ModelHelper -->
<g id="node22" class="node"><title>ModelHelper</title>
<polygon fill="lightgrey" stroke="black" points="116.188,-1435 34.5777,-1417 116.188,-1399 197.799,-1417 116.188,-1435"/>
<polyline fill="none" stroke="black" points="46.296,-1419.58 46.296,-1414.42 "/>
<polyline fill="none" stroke="black" points="104.47,-1401.58 127.906,-1401.58 "/>
<polyline fill="none" stroke="black" points="186.08,-1414.42 186.08,-1419.58 "/>
<polyline fill="none" stroke="black" points="127.906,-1432.42 104.47,-1432.42 "/>
<text text-anchor="middle" x="116.188" y="-1413.3" font-family="Times,serif" font-size="14.00">ModelHelper</text>
</g>
<!-- ModelHelper&#45;&gt;Core_App -->
<g id="edge38" class="edge"><title>ModelHelper&#45;&gt;Core_App</title>
<path fill="none" stroke="black" d="M170.922,-1411.07C248.509,-1402.51 390.099,-1386.89 458.63,-1379.33"/>
<polygon fill="black" stroke="black" points="459.032,-1382.81 468.588,-1378.23 458.264,-1375.85 459.032,-1382.81"/>
</g>
<!-- ModelHelper&#45;&gt;HelperTrait -->
<g id="edge46" class="edge"><title>ModelHelper&#45;&gt;HelperTrait</title>
<path fill="none" stroke="black" d="M159.704,-1425.47C177.64,-1429.83 198.471,-1435.95 216.376,-1444 246.879,-1457.71 278.523,-1479.42 299.715,-1495.22"/>
<polygon fill="black" stroke="black" points="297.764,-1498.13 307.849,-1501.38 301.99,-1492.55 297.764,-1498.13"/>
</g>
<!-- ServiceHelper -->
<g id="node23" class="node"><title>ServiceHelper</title>
<polygon fill="lightgrey" stroke="black" points="116.188,-1381 29.8865,-1363 116.188,-1345 202.49,-1363 116.188,-1381"/>
<polyline fill="none" stroke="black" points="41.6337,-1365.45 41.6337,-1360.55 "/>
<polyline fill="none" stroke="black" points="104.441,-1347.45 127.935,-1347.45 "/>
<polyline fill="none" stroke="black" points="190.743,-1360.55 190.743,-1365.45 "/>
<polyline fill="none" stroke="black" points="127.935,-1378.55 104.441,-1378.55 "/>
<text text-anchor="middle" x="116.188" y="-1359.3" font-family="Times,serif" font-size="14.00">ServiceHelper</text>
</g>
<!-- ServiceHelper&#45;&gt;Core_App -->
<g id="edge39" class="edge"><title>ServiceHelper&#45;&gt;Core_App</title>
<path fill="none" stroke="black" d="M191.49,-1365.34C269.581,-1367.8 389.811,-1371.59 453.97,-1373.62"/>
<polygon fill="black" stroke="black" points="454.042,-1377.12 464.147,-1373.94 454.263,-1370.12 454.042,-1377.12"/>
</g>
<!-- ServiceHelper&#45;&gt;HelperTrait -->
<g id="edge47" class="edge"><title>ServiceHelper&#45;&gt;HelperTrait</title>
<path fill="none" stroke="black" d="M166.719,-1370.47C183.374,-1374.5 201.49,-1380.65 216.376,-1390 257.664,-1415.93 291.891,-1462.38 310.284,-1490.78"/>
<polygon fill="black" stroke="black" points="307.382,-1492.73 315.689,-1499.31 313.296,-1488.99 307.382,-1492.73"/>
</g>
<!-- ViewHelper -->
<g id="node24" class="node"><title>ViewHelper</title>
<polygon fill="lightgrey" stroke="black" points="116.188,-1327 40.1075,-1309 116.188,-1291 192.269,-1309 116.188,-1327"/>
<polyline fill="none" stroke="black" points="51.7851,-1311.76 51.7851,-1306.24 "/>
<polyline fill="none" stroke="black" points="104.511,-1293.76 127.866,-1293.76 "/>
<polyline fill="none" stroke="black" points="180.591,-1306.24 180.591,-1311.76 "/>
<polyline fill="none" stroke="black" points="127.866,-1324.24 104.511,-1324.24 "/>
<text text-anchor="middle" x="116.188" y="-1305.3" font-family="Times,serif" font-size="14.00">ViewHelper</text>
</g>
<!-- ViewHelper&#45;&gt;Core_App -->
<g id="edge40" class="edge"><title>ViewHelper&#45;&gt;Core_App</title>
<path fill="none" stroke="black" d="M160.856,-1316.57C236.46,-1329.68 390.401,-1356.37 460.994,-1368.61"/>
<polygon fill="black" stroke="black" points="460.734,-1372.11 471.185,-1370.37 461.93,-1365.22 460.734,-1372.11"/>
</g>
<!-- ViewHelper&#45;&gt;HelperTrait -->
<g id="edge48" class="edge"><title>ViewHelper&#45;&gt;HelperTrait</title>
<path fill="none" stroke="black" d="M167.172,-1314.95C184.053,-1318.86 202.194,-1325.31 216.376,-1336 269.131,-1375.75 301.685,-1449.29 316.13,-1488.6"/>
<polygon fill="black" stroke="black" points="312.92,-1490.02 319.57,-1498.27 319.516,-1487.67 312.92,-1490.02"/>
</g>
<!-- HelperTrait&#45;&gt;Core_App -->
<g id="edge42" class="edge"><title>HelperTrait&#45;&gt;Core_App</title>
<path fill="none" stroke="black" d="M361.325,-1505.52C376.359,-1500.36 393.665,-1492.96 407.441,-1483 440.126,-1459.37 468.227,-1421.36 484.084,-1397.31"/>
<polygon fill="black" stroke="black" points="487.072,-1399.13 489.546,-1388.83 481.187,-1395.34 487.072,-1399.13"/>
</g>
<!-- HelperTrait&#45;&gt;Core_SingletonEx -->
<g id="edge41" class="edge"><title>HelperTrait&#45;&gt;Core_SingletonEx</title>
<path fill="none" stroke="black" d="M354.012,-1526.39C419.407,-1552.8 591.544,-1616 741.593,-1616 741.593,-1616 741.593,-1616 999.271,-1616 1176.2,-1616 1345.64,-1454.02 1402.8,-1393.48"/>
<polygon fill="black" stroke="black" points="1405.55,-1395.66 1409.81,-1385.96 1400.43,-1390.88 1405.55,-1395.66"/>
</g>
<!-- HelperTrait&#45;&gt;Core_ExtendableStaticCallTrait -->
<g id="edge43" class="edge"><title>HelperTrait&#45;&gt;Core_ExtendableStaticCallTrait</title>
<path fill="none" stroke="black" d="M374.075,-1521.26C444.145,-1530.55 576.618,-1548.12 661.91,-1559.43"/>
<polygon fill="black" stroke="black" points="661.697,-1562.93 672.07,-1560.78 662.617,-1555.99 661.697,-1562.93"/>
</g>
<!-- DB_DB -->
<g id="node26" class="node"><title>DB_DB</title>
<ellipse fill="none" stroke="black" cx="998.271" cy="-88" rx="27" ry="18"/>
<text text-anchor="middle" x="998.271" y="-84.3" font-family="Times,serif" font-size="14.00">DB</text>
</g>
<!-- DB_DBAdvanceTrait -->
<g id="node27" class="node"><title>DB_DBAdvanceTrait</title>
<polygon fill="none" stroke="black" points="1210.75,-52 1109.53,-34 1210.75,-16 1311.96,-34 1210.75,-52"/>
<text text-anchor="middle" x="1210.75" y="-30.3" font-family="Times,serif" font-size="14.00">DBAdvanceTrait</text>
</g>
<!-- DB_DB&#45;&gt;DB_DBAdvanceTrait -->
<g id="edge49" class="edge"><title>DB_DB&#45;&gt;DB_DBAdvanceTrait</title>
<path fill="none" stroke="black" d="M1023.83,-81.6998C1056.66,-73.2774 1115.66,-58.139 1158.41,-47.1709"/>
<polygon fill="black" stroke="black" points="1159.54,-50.4944 1168.36,-44.6191 1157.8,-43.714 1159.54,-50.4944"/>
</g>
<!-- DB_DBInterface -->
<g id="node28" class="node"><title>DB_DBInterface</title>
<polygon fill="none" stroke="black" points="1246.25,-106 1169.25,-106 1169.25,-70 1252.25,-70 1252.25,-100 1246.25,-106"/>
<polyline fill="none" stroke="black" points="1246.25,-106 1246.25,-100 "/>
<polyline fill="none" stroke="black" points="1252.25,-100 1246.25,-100 "/>
<text text-anchor="middle" x="1210.75" y="-84.3" font-family="Times,serif" font-size="14.00">DBInterface</text>
</g>
<!-- DB_DB&#45;&gt;DB_DBInterface -->
<g id="edge50" class="edge"><title>DB_DB&#45;&gt;DB_DBInterface</title>
<path fill="none" stroke="black" d="M1025.5,-88C1058.79,-88 1116.94,-88 1159.02,-88"/>
<polygon fill="black" stroke="black" points="1159.08,-91.5001 1169.08,-88 1159.08,-84.5001 1159.08,-91.5001"/>
</g>
<!-- CallableView -->
<g id="node29" class="node"><title>CallableView</title>
<polygon fill="none" stroke="black" points="788.093,-999 697.093,-999 697.093,-995 693.093,-995 693.093,-991 697.093,-991 697.093,-971 693.093,-971 693.093,-967 697.093,-967 697.093,-963 788.093,-963 788.093,-999"/>
<polyline fill="none" stroke="black" points="697.093,-995 701.093,-995 701.093,-991 697.093,-991 "/>
<polyline fill="none" stroke="black" points="697.093,-971 701.093,-971 701.093,-967 697.093,-967 "/>
<text text-anchor="middle" x="742.593" y="-977.3" font-family="Times,serif" font-size="14.00">CallableView</text>
</g>
<!-- CallableView&#45;&gt;Core_View -->
<g id="edge52" class="edge"><title>CallableView&#45;&gt;Core_View</title>
<path fill="none" stroke="black" d="M788.222,-977.717C819.671,-977.907 860.689,-983.58 886.901,-1008 932.964,-1050.91 880.461,-1098.5 922.901,-1145 932.885,-1155.94 947.653,-1162.45 961.403,-1166.33"/>
<polygon fill="black" stroke="black" points="960.608,-1169.74 971.153,-1168.71 962.269,-1162.94 960.608,-1169.74"/>
</g>
<!-- Cache -->
<g id="node30" class="node"><title>Cache</title>
<polygon fill="none" stroke="black" points="769.593,-351 715.593,-351 715.593,-347 711.593,-347 711.593,-343 715.593,-343 715.593,-323 711.593,-323 711.593,-319 715.593,-319 715.593,-315 769.593,-315 769.593,-351"/>
<polyline fill="none" stroke="black" points="715.593,-347 719.593,-347 719.593,-343 715.593,-343 "/>
<polyline fill="none" stroke="black" points="715.593,-323 719.593,-323 719.593,-319 715.593,-319 "/>
<text text-anchor="middle" x="742.593" y="-329.3" font-family="Times,serif" font-size="14.00">Cache</text>
</g>
<!-- Cache&#45;&gt;Core_ComponentBase -->
<g id="edge65" class="edge"><title>Cache&#45;&gt;Core_ComponentBase</title>
<path fill="none" stroke="black" stroke-dasharray="1,5" d="M769.743,-327.759C831.819,-316.98 989.163,-299.688 1073.64,-381 1178.29,-481.726 1203.93,-967.315 1208.78,-1089.87"/>
<polygon fill="black" stroke="black" points="1205.28,-1090.09 1209.16,-1099.95 1212.28,-1089.82 1205.28,-1090.09"/>
</g>
<!-- DBManager -->
<g id="node31" class="node"><title>DBManager</title>
<polygon fill="none" stroke="black" points="784.593,-189 700.593,-189 700.593,-185 696.593,-185 696.593,-181 700.593,-181 700.593,-161 696.593,-161 696.593,-157 700.593,-157 700.593,-153 784.593,-153 784.593,-189"/>
<polyline fill="none" stroke="black" points="700.593,-185 704.593,-185 704.593,-181 700.593,-181 "/>
<polyline fill="none" stroke="black" points="700.593,-161 704.593,-161 704.593,-157 700.593,-157 "/>
<text text-anchor="middle" x="742.593" y="-167.3" font-family="Times,serif" font-size="14.00">DBManager</text>
</g>
<!-- DBManager&#45;&gt;Core_ComponentBase -->
<g id="edge72" class="edge"><title>DBManager&#45;&gt;Core_ComponentBase</title>
<path fill="none" stroke="black" stroke-dasharray="1,5" d="M784.718,-160.441C854.251,-145.306 995.123,-126.811 1073.64,-201 1206.2,-326.242 1210.73,-948.307 1210.02,-1089.47"/>
<polygon fill="black" stroke="black" points="1206.52,-1089.84 1209.95,-1099.87 1213.52,-1089.89 1206.52,-1089.84"/>
</g>
<!-- DBManager&#45;&gt;DB_DB -->
<g id="edge51" class="edge"><title>DBManager&#45;&gt;DB_DB</title>
<path fill="none" stroke="black" d="M784.633,-157.572C834.668,-141.201 918.239,-113.858 964.301,-98.7876"/>
<polygon fill="black" stroke="black" points="965.39,-102.114 973.806,-95.6775 963.214,-95.4607 965.39,-102.114"/>
</g>
<!-- EmptyView -->
<g id="node32" class="node"><title>EmptyView</title>
<polygon fill="none" stroke="black" points="784.093,-1053 701.093,-1053 701.093,-1049 697.093,-1049 697.093,-1045 701.093,-1045 701.093,-1025 697.093,-1025 697.093,-1021 701.093,-1021 701.093,-1017 784.093,-1017 784.093,-1053"/>
<polyline fill="none" stroke="black" points="701.093,-1049 705.093,-1049 705.093,-1045 701.093,-1045 "/>
<polyline fill="none" stroke="black" points="701.093,-1025 705.093,-1025 705.093,-1021 701.093,-1021 "/>
<text text-anchor="middle" x="742.593" y="-1031.3" font-family="Times,serif" font-size="14.00">EmptyView</text>
</g>
<!-- EmptyView&#45;&gt;Core_View -->
<g id="edge53" class="edge"><title>EmptyView&#45;&gt;Core_View</title>
<path fill="none" stroke="black" d="M784.199,-1042.6C815.007,-1050 857.013,-1063.79 886.901,-1088 910.183,-1106.86 899.562,-1126.21 922.901,-1145 933.984,-1153.92 948.276,-1160.05 961.365,-1164.17"/>
<polygon fill="black" stroke="black" points="960.488,-1167.56 971.066,-1166.95 962.417,-1160.84 960.488,-1167.56"/>
</g>
<!-- EventManager -->
<g id="node33" class="node"><title>EventManager</title>
<polygon fill="none" stroke="black" points="791.093,-297 694.093,-297 694.093,-293 690.093,-293 690.093,-289 694.093,-289 694.093,-269 690.093,-269 690.093,-265 694.093,-265 694.093,-261 791.093,-261 791.093,-297"/>
<polyline fill="none" stroke="black" points="694.093,-293 698.093,-293 698.093,-289 694.093,-289 "/>
<polyline fill="none" stroke="black" points="694.093,-269 698.093,-269 698.093,-265 694.093,-265 "/>
<text text-anchor="middle" x="742.593" y="-275.3" font-family="Times,serif" font-size="14.00">EventManager</text>
</g>
<!-- EventManager&#45;&gt;Core_ComponentBase -->
<g id="edge73" class="edge"><title>EventManager&#45;&gt;Core_ComponentBase</title>
<path fill="none" stroke="black" stroke-dasharray="1,5" d="M791.302,-268.758C862.818,-256.466 997.522,-245.659 1073.64,-318 1188.25,-426.922 1206.52,-959.848 1209.28,-1089.52"/>
<polygon fill="black" stroke="black" points="1205.79,-1089.88 1209.48,-1099.81 1212.78,-1089.74 1205.79,-1089.88"/>
</g>
<!-- FacadesAutoLoader -->
<g id="node34" class="node"><title>FacadesAutoLoader</title>
<polygon fill="none" stroke="black" points="1060.77,-903 935.771,-903 935.771,-899 931.771,-899 931.771,-895 935.771,-895 935.771,-875 931.771,-875 931.771,-871 935.771,-871 935.771,-867 1060.77,-867 1060.77,-903"/>
<polyline fill="none" stroke="black" points="935.771,-899 939.771,-899 939.771,-895 935.771,-895 "/>
<polyline fill="none" stroke="black" points="935.771,-875 939.771,-875 939.771,-871 935.771,-871 "/>
<text text-anchor="middle" x="998.271" y="-881.3" font-family="Times,serif" font-size="14.00">FacadesAutoLoader</text>
</g>
<!-- FacadesAutoLoader&#45;&gt;Core_ComponentBase -->
<g id="edge59" class="edge"><title>FacadesAutoLoader&#45;&gt;Core_ComponentBase</title>
<path fill="none" stroke="black" stroke-dasharray="1,5" d="M1051.87,-903.099C1059.6,-907.012 1067.14,-911.625 1073.64,-917 1133.3,-966.334 1177.42,-1048.36 1197.59,-1090.76"/>
<polygon fill="black" stroke="black" points="1194.46,-1092.33 1201.86,-1099.91 1200.8,-1089.37 1194.46,-1092.33"/>
</g>
<!-- FacadesBase -->
<g id="node35" class="node"><title>FacadesBase</title>
<ellipse fill="none" stroke="black" cx="742.593" cy="-711" rx="55.7903" ry="18"/>
<text text-anchor="middle" x="742.593" y="-707.3" font-family="Times,serif" font-size="14.00">FacadesBase</text>
</g>
<!-- FacadesBase&#45;&gt;FacadesAutoLoader -->
<g id="edge55" class="edge"><title>FacadesBase&#45;&gt;FacadesAutoLoader</title>
<path fill="none" stroke="black" d="M798.006,-708.544C827.527,-710.066 862.802,-716.906 886.901,-738 925.29,-771.603 889.695,-808.267 922.901,-847 927.637,-852.525 933.374,-857.344 939.538,-861.521"/>
<polygon fill="black" stroke="black" points="937.804,-864.564 948.155,-866.827 941.475,-858.603 937.804,-864.564"/>
</g>
<!-- JsonRpcClientBase -->
<g id="node36" class="node"><title>JsonRpcClientBase</title>
<ellipse fill="none" stroke="black" cx="742.593" cy="-657" rx="79.0865" ry="18"/>
<text text-anchor="middle" x="742.593" y="-653.3" font-family="Times,serif" font-size="14.00">JsonRpcClientBase</text>
</g>
<!-- JsonRpcExt -->
<g id="node37" class="node"><title>JsonRpcExt</title>
<polygon fill="none" stroke="black" points="1038.77,-838 957.771,-838 957.771,-834 953.771,-834 953.771,-830 957.771,-830 957.771,-810 953.771,-810 953.771,-806 957.771,-806 957.771,-802 1038.77,-802 1038.77,-838"/>
<polyline fill="none" stroke="black" points="957.771,-834 961.771,-834 961.771,-830 957.771,-830 "/>
<polyline fill="none" stroke="black" points="957.771,-810 961.771,-810 961.771,-806 957.771,-806 "/>
<text text-anchor="middle" x="998.271" y="-816.3" font-family="Times,serif" font-size="14.00">JsonRpcExt</text>
</g>
<!-- JsonRpcClientBase&#45;&gt;JsonRpcExt -->
<g id="edge54" class="edge"><title>JsonRpcClientBase&#45;&gt;JsonRpcExt</title>
<path fill="none" stroke="black" d="M822.087,-657.856C845.012,-661.564 868.755,-669.195 886.901,-684 919.643,-710.714 895.905,-739.49 922.901,-772 930.724,-781.421 940.883,-789.628 951.165,-796.464"/>
<polygon fill="black" stroke="black" points="949.454,-799.522 959.783,-801.88 953.179,-793.595 949.454,-799.522"/>
</g>
<!-- JsonRpcExt&#45;&gt;Core_ComponentBase -->
<g id="edge60" class="edge"><title>JsonRpcExt&#45;&gt;Core_ComponentBase</title>
<path fill="none" stroke="black" stroke-dasharray="1,5" d="M1038.9,-834.685C1051.09,-840.577 1063.85,-848.308 1073.64,-858 1143.08,-926.753 1184.87,-1038.42 1201.46,-1090.11"/>
<polygon fill="black" stroke="black" points="1198.2,-1091.41 1204.53,-1099.9 1204.88,-1089.32 1198.2,-1091.41"/>
</g>
<!-- Misc -->
<g id="node38" class="node"><title>Misc</title>
<polygon fill="none" stroke="black" points="769.593,-243 715.593,-243 715.593,-239 711.593,-239 711.593,-235 715.593,-235 715.593,-215 711.593,-215 711.593,-211 715.593,-211 715.593,-207 769.593,-207 769.593,-243"/>
<polyline fill="none" stroke="black" points="715.593,-239 719.593,-239 719.593,-235 715.593,-235 "/>
<polyline fill="none" stroke="black" points="715.593,-215 719.593,-215 719.593,-211 715.593,-211 "/>
<text text-anchor="middle" x="742.593" y="-221.3" font-family="Times,serif" font-size="14.00">Misc</text>
</g>
<!-- Misc&#45;&gt;Core_ComponentBase -->
<g id="edge62" class="edge"><title>Misc&#45;&gt;Core_ComponentBase</title>
<path fill="none" stroke="black" stroke-dasharray="1,5" d="M769.703,-218.232C831.691,-203.889 988.857,-177.939 1073.64,-258 1197.65,-375.096 1208.79,-953.969 1209.69,-1089.55"/>
<polygon fill="black" stroke="black" points="1206.19,-1089.93 1209.75,-1099.92 1213.19,-1089.9 1206.19,-1089.93"/>
</g>
<!-- Pager -->
<g id="node39" class="node"><title>Pager</title>
<polygon fill="none" stroke="black" points="769.593,-567 715.593,-567 715.593,-563 711.593,-563 711.593,-559 715.593,-559 715.593,-539 711.593,-539 711.593,-535 715.593,-535 715.593,-531 769.593,-531 769.593,-567"/>
<polyline fill="none" stroke="black" points="715.593,-563 719.593,-563 719.593,-559 715.593,-559 "/>
<polyline fill="none" stroke="black" points="715.593,-539 719.593,-539 719.593,-535 715.593,-535 "/>
<text text-anchor="middle" x="742.593" y="-545.3" font-family="Times,serif" font-size="14.00">Pager</text>
</g>
<!-- Pager&#45;&gt;Core_ComponentBase -->
<g id="edge61" class="edge"><title>Pager&#45;&gt;Core_ComponentBase</title>
<path fill="none" stroke="black" stroke-dasharray="1,5" d="M770.044,-541.569C831.409,-526.078 984.973,-497.612 1073.64,-572 1155.15,-640.381 1196.49,-987.66 1207.01,-1089.74"/>
<polygon fill="black" stroke="black" points="1203.55,-1090.3 1208.04,-1099.9 1210.51,-1089.6 1203.55,-1090.3"/>
</g>
<!-- PagerInterface -->
<g id="node40" class="node"><title>PagerInterface</title>
<polygon fill="none" stroke="black" points="1039.77,-667 950.771,-667 950.771,-631 1045.77,-631 1045.77,-661 1039.77,-667"/>
<polyline fill="none" stroke="black" points="1039.77,-667 1039.77,-661 "/>
<polyline fill="none" stroke="black" points="1045.77,-661 1039.77,-661 "/>
<text text-anchor="middle" x="998.271" y="-645.3" font-family="Times,serif" font-size="14.00">PagerInterface</text>
</g>
<!-- Pager&#45;&gt;PagerInterface -->
<g id="edge56" class="edge"><title>Pager&#45;&gt;PagerInterface</title>
<path fill="none" stroke="black" d="M769.835,-550.808C799.26,-553.542 847.954,-560.205 886.901,-576 916.408,-587.967 946.317,-608.374 967.543,-624.574"/>
<polygon fill="black" stroke="black" points="965.473,-627.398 975.516,-630.774 969.77,-621.872 965.473,-627.398"/>
</g>
<!-- RedisManager -->
<g id="node41" class="node"><title>RedisManager</title>
<polygon fill="none" stroke="black" points="1046.27,-763 950.271,-763 950.271,-759 946.271,-759 946.271,-755 950.271,-755 950.271,-735 946.271,-735 946.271,-731 950.271,-731 950.271,-727 1046.27,-727 1046.27,-763"/>
<polyline fill="none" stroke="black" points="950.271,-759 954.271,-759 954.271,-755 950.271,-755 "/>
<polyline fill="none" stroke="black" points="950.271,-735 954.271,-735 954.271,-731 950.271,-731 "/>
<text text-anchor="middle" x="998.271" y="-741.3" font-family="Times,serif" font-size="14.00">RedisManager</text>
</g>
<!-- RedisManager&#45;&gt;Core_ComponentBase -->
<g id="edge64" class="edge"><title>RedisManager&#45;&gt;Core_ComponentBase</title>
<path fill="none" stroke="black" stroke-dasharray="1,5" d="M1036.71,-763.165C1049.73,-770.921 1063.58,-780.982 1073.64,-793 1151.44,-885.911 1190.34,-1029.65 1203.95,-1089.91"/>
<polygon fill="black" stroke="black" points="1200.57,-1090.82 1206.13,-1099.83 1207.4,-1089.31 1200.57,-1090.82"/>
</g>
<!-- RedisSimpleCache -->
<g id="node42" class="node"><title>RedisSimpleCache</title>
<polygon fill="none" stroke="black" points="802.593,-621 682.593,-621 682.593,-617 678.593,-617 678.593,-613 682.593,-613 682.593,-593 678.593,-593 678.593,-589 682.593,-589 682.593,-585 802.593,-585 802.593,-621"/>
<polyline fill="none" stroke="black" points="682.593,-617 686.593,-617 686.593,-613 682.593,-613 "/>
<polyline fill="none" stroke="black" points="682.593,-593 686.593,-593 686.593,-589 682.593,-589 "/>
<text text-anchor="middle" x="742.593" y="-599.3" font-family="Times,serif" font-size="14.00">RedisSimpleCache</text>
</g>
<!-- RedisSimpleCache&#45;&gt;Core_ComponentBase -->
<g id="edge63" class="edge"><title>RedisSimpleCache&#45;&gt;Core_ComponentBase</title>
<path fill="none" stroke="black" stroke-dasharray="1,5" d="M802.72,-587.607C875,-572.601 997.119,-560.088 1073.64,-622 1148.59,-682.637 1193.94,-993.858 1206.3,-1089.8"/>
<polygon fill="black" stroke="black" points="1202.85,-1090.43 1207.58,-1099.91 1209.79,-1089.55 1202.85,-1090.43"/>
</g>
<!-- RedisSimpleCache&#45;&gt;RedisManager -->
<g id="edge57" class="edge"><title>RedisSimpleCache&#45;&gt;RedisManager</title>
<path fill="none" stroke="black" d="M802.781,-604.699C830.033,-607.763 861.81,-614.738 886.901,-630 909.08,-643.492 905.329,-656.889 922.901,-676 937.083,-691.425 954.145,-707.415 968.347,-720.114"/>
<polygon fill="black" stroke="black" points="966.099,-722.798 975.907,-726.805 970.739,-717.556 966.099,-722.798"/>
</g>
<!-- RouteHookDirectoryMode -->
<g id="node43" class="node"><title>RouteHookDirectoryMode</title>
<polygon fill="none" stroke="black" points="824.093,-513 661.093,-513 661.093,-509 657.093,-509 657.093,-505 661.093,-505 661.093,-485 657.093,-485 657.093,-481 661.093,-481 661.093,-477 824.093,-477 824.093,-513"/>
<polyline fill="none" stroke="black" points="661.093,-509 665.093,-509 665.093,-505 661.093,-505 "/>
<polyline fill="none" stroke="black" points="661.093,-485 665.093,-485 665.093,-481 661.093,-481 "/>
<text text-anchor="middle" x="742.593" y="-491.3" font-family="Times,serif" font-size="14.00">RouteHookDirectoryMode</text>
</g>
<!-- RouteHookDirectoryMode&#45;&gt;Core_ComponentBase -->
<g id="edge67" class="edge"><title>RouteHookDirectoryMode&#45;&gt;Core_ComponentBase</title>
<path fill="none" stroke="black" stroke-dasharray="1,5" d="M824.276,-476.966C898.079,-465.544 1005.8,-462.375 1073.64,-521 1161.91,-597.269 1198.87,-981.52 1207.62,-1089.65"/>
<polygon fill="black" stroke="black" points="1204.14,-1090.1 1208.42,-1099.79 1211.12,-1089.54 1204.14,-1090.1"/>
</g>
<!-- RouteHookManager -->
<g id="node44" class="node"><title>RouteHookManager</title>
<polygon fill="none" stroke="black" points="806.593,-459 678.593,-459 678.593,-455 674.593,-455 674.593,-451 678.593,-451 678.593,-431 674.593,-431 674.593,-427 678.593,-427 678.593,-423 806.593,-423 806.593,-459"/>
<polyline fill="none" stroke="black" points="678.593,-455 682.593,-455 682.593,-451 678.593,-451 "/>
<polyline fill="none" stroke="black" points="678.593,-431 682.593,-431 682.593,-427 678.593,-427 "/>
<text text-anchor="middle" x="742.593" y="-437.3" font-family="Times,serif" font-size="14.00">RouteHookManager</text>
</g>
<!-- RouteHookManager&#45;&gt;Core_ComponentBase -->
<g id="edge68" class="edge"><title>RouteHookManager&#45;&gt;Core_ComponentBase</title>
<path fill="none" stroke="black" stroke-dasharray="1,5" d="M806.821,-426.19C880.334,-413.026 1000.86,-404.6 1073.64,-469 1168.97,-553.342 1201.16,-976.168 1208.17,-1089.83"/>
<polygon fill="black" stroke="black" points="1204.67,-1090.07 1208.77,-1099.84 1211.66,-1089.65 1204.67,-1090.07"/>
</g>
<!-- RouteHookPathInfoByGet -->
<g id="node45" class="node"><title>RouteHookPathInfoByGet</title>
<polygon fill="none" stroke="black" points="823.093,-405 662.093,-405 662.093,-401 658.093,-401 658.093,-397 662.093,-397 662.093,-377 658.093,-377 658.093,-373 662.093,-373 662.093,-369 823.093,-369 823.093,-405"/>
<polyline fill="none" stroke="black" points="662.093,-401 666.093,-401 666.093,-397 662.093,-397 "/>
<polyline fill="none" stroke="black" points="662.093,-377 666.093,-377 666.093,-373 662.093,-373 "/>
<text text-anchor="middle" x="742.593" y="-383.3" font-family="Times,serif" font-size="14.00">RouteHookPathInfoByGet</text>
</g>
<!-- RouteHookPathInfoByGet&#45;&gt;Core_ComponentBase -->
<g id="edge69" class="edge"><title>RouteHookPathInfoByGet&#45;&gt;Core_ComponentBase</title>
<path fill="none" stroke="black" stroke-dasharray="1,5" d="M823.365,-383.401C909.156,-381.318 1038.07,-383.943 1073.64,-416 1176.15,-508.379 1203.26,-969.703 1208.62,-1089.53"/>
<polygon fill="black" stroke="black" points="1205.14,-1089.89 1209.06,-1099.73 1212.13,-1089.59 1205.14,-1089.89"/>
</g>
<!-- RouteHookRewrite -->
<g id="node46" class="node"><title>RouteHookRewrite</title>
<polygon fill="none" stroke="black" points="803.593,-945 681.593,-945 681.593,-941 677.593,-941 677.593,-937 681.593,-937 681.593,-917 677.593,-917 677.593,-913 681.593,-913 681.593,-909 803.593,-909 803.593,-945"/>
<polyline fill="none" stroke="black" points="681.593,-941 685.593,-941 685.593,-937 681.593,-937 "/>
<polyline fill="none" stroke="black" points="681.593,-917 685.593,-917 685.593,-913 681.593,-913 "/>
<text text-anchor="middle" x="742.593" y="-923.3" font-family="Times,serif" font-size="14.00">RouteHookRewrite</text>
</g>
<!-- RouteHookRewrite&#45;&gt;Core_ComponentBase -->
<g id="edge70" class="edge"><title>RouteHookRewrite&#45;&gt;Core_ComponentBase</title>
<path fill="none" stroke="black" stroke-dasharray="1,5" d="M803.931,-925.489C831.927,-927.773 863.996,-935.018 886.901,-954 920.708,-982.017 889.944,-1016.99 922.901,-1046 939.786,-1060.87 1067.99,-1089.12 1147.18,-1105.47"/>
<polygon fill="black" stroke="black" points="1146.56,-1108.91 1157.06,-1107.5 1147.97,-1102.06 1146.56,-1108.91"/>
</g>
<!-- RouteHookRouteMap -->
<g id="node47" class="node"><title>RouteHookRouteMap</title>
<polygon fill="none" stroke="black" points="811.093,-891 674.093,-891 674.093,-887 670.093,-887 670.093,-883 674.093,-883 674.093,-863 670.093,-863 670.093,-859 674.093,-859 674.093,-855 811.093,-855 811.093,-891"/>
<polyline fill="none" stroke="black" points="674.093,-887 678.093,-887 678.093,-883 674.093,-883 "/>
<polyline fill="none" stroke="black" points="674.093,-863 678.093,-863 678.093,-859 674.093,-859 "/>
<text text-anchor="middle" x="742.593" y="-869.3" font-family="Times,serif" font-size="14.00">RouteHookRouteMap</text>
</g>
<!-- RouteHookRouteMap&#45;&gt;Core_ComponentBase -->
<g id="edge71" class="edge"><title>RouteHookRouteMap&#45;&gt;Core_ComponentBase</title>
<path fill="none" stroke="black" stroke-dasharray="1,5" d="M811.224,-871.638C837.548,-874.438 866.276,-882.048 886.901,-900 924.747,-932.942 886.178,-972.81 922.901,-1007 973.549,-1054.16 1009.12,-1020.98 1073.64,-1046 1108.13,-1059.37 1145.09,-1079.32 1171.79,-1094.83"/>
<polygon fill="black" stroke="black" points="1170.03,-1097.86 1180.43,-1099.91 1173.58,-1091.82 1170.03,-1097.86"/>
</g>
<!-- StrictCheck -->
<g id="node48" class="node"><title>StrictCheck</title>
<polygon fill="none" stroke="black" points="1038.27,-962 958.271,-962 958.271,-958 954.271,-958 954.271,-954 958.271,-954 958.271,-934 954.271,-934 954.271,-930 958.271,-930 958.271,-926 1038.27,-926 1038.27,-962"/>
<polyline fill="none" stroke="black" points="958.271,-958 962.271,-958 962.271,-954 958.271,-954 "/>
<polyline fill="none" stroke="black" points="958.271,-934 962.271,-934 962.271,-930 958.271,-930 "/>
<text text-anchor="middle" x="998.271" y="-940.3" font-family="Times,serif" font-size="14.00">StrictCheck</text>
</g>
<!-- StrictCheck&#45;&gt;Core_ComponentBase -->
<g id="edge66" class="edge"><title>StrictCheck&#45;&gt;Core_ComponentBase</title>
<path fill="none" stroke="black" stroke-dasharray="1,5" d="M1038.56,-959.324C1050.33,-964.735 1062.94,-971.395 1073.64,-979 1119.94,-1011.91 1164.15,-1061.57 1189.04,-1091.77"/>
<polygon fill="black" stroke="black" points="1186.5,-1094.2 1195.53,-1099.74 1191.93,-1089.78 1186.5,-1094.2"/>
</g>
<!-- StrictCheckObjectTrait -->
<g id="node49" class="node"><title>StrictCheckObjectTrait</title>
<polygon fill="none" stroke="black" points="742.593,-783 611.214,-765 742.593,-747 873.972,-765 742.593,-783"/>
<text text-anchor="middle" x="742.593" y="-761.3" font-family="Times,serif" font-size="14.00">StrictCheckObjectTrait</text>
</g>
<!-- StrictCheckObjectTrait&#45;&gt;StrictCheck -->
<g id="edge58" class="edge"><title>StrictCheckObjectTrait&#45;&gt;StrictCheck</title>
<path fill="none" stroke="black" d="M843.448,-769.278C859.409,-773.833 874.668,-780.992 886.901,-792 928.29,-829.248 885.853,-870.432 922.901,-912 929.917,-919.872 939.208,-925.879 948.838,-930.437"/>
<polygon fill="black" stroke="black" points="947.54,-933.688 958.112,-934.377 950.277,-927.245 947.54,-933.688"/>
</g>
<!-- ExceptionWrapper -->
<g id="node50" class="node"><title>ExceptionWrapper</title>
<polygon fill="none" stroke="black" points="802.093,-837 683.093,-837 683.093,-833 679.093,-833 679.093,-829 683.093,-829 683.093,-809 679.093,-809 679.093,-805 683.093,-805 683.093,-801 802.093,-801 802.093,-837"/>
<polyline fill="none" stroke="black" points="683.093,-833 687.093,-833 687.093,-829 683.093,-829 "/>
<polyline fill="none" stroke="black" points="683.093,-809 687.093,-809 687.093,-805 683.093,-805 "/>
<text text-anchor="middle" x="742.593" y="-815.3" font-family="Times,serif" font-size="14.00">ExceptionWrapper</text>
</g>
<!-- ExceptionWrapper&#45;&gt;Core_ComponentBase -->
<g id="edge74" class="edge"><title>ExceptionWrapper&#45;&gt;Core_ComponentBase</title>
<path fill="none" stroke="black" stroke-dasharray="1,5" d="M802.216,-816.405C830.989,-818.223 864.243,-825.382 886.901,-846 929.66,-884.911 881.091,-931.07 922.901,-971 972.713,-1018.57 1011.9,-976.465 1073.64,-1007 1117.67,-1028.78 1160.19,-1067.1 1185.66,-1092.52"/>
<polygon fill="black" stroke="black" points="1183.17,-1094.99 1192.69,-1099.65 1188.15,-1090.07 1183.17,-1094.99"/>
</g>
<!-- HttpServer -->
<g id="node51" class="node"><title>HttpServer</title>
<polygon fill="lightgrey" stroke="black" points="325.909,-588 256.197,-570 325.909,-552 395.621,-570 325.909,-588"/>
<polyline fill="none" stroke="black" points="267.816,-573 267.816,-567 "/>
<polyline fill="none" stroke="black" points="314.29,-555 337.528,-555 "/>
<polyline fill="none" stroke="black" points="384.002,-567 384.002,-573 "/>
<polyline fill="none" stroke="black" points="337.528,-585 314.29,-585 "/>
<text text-anchor="middle" x="325.909" y="-566.3" font-family="Times,serif" font-size="14.00">HttpServer</text>
</g>
<!-- HttpServer&#45;&gt;Core_HttpServer -->
<g id="edge75" class="edge"><title>HttpServer&#45;&gt;Core_HttpServer</title>
<path fill="none" stroke="black" d="M329.798,-587.15C343.446,-662.198 408.901,-963.479 598.285,-1088 650.699,-1122.46 827.745,-1123.23 927.479,-1120.69"/>
<polygon fill="black" stroke="black" points="927.867,-1124.18 937.768,-1120.41 927.676,-1117.19 927.867,-1124.18"/>
</g>
<!-- DuckPhp -->
<g id="node52" class="node"><title>DuckPhp</title>
<polygon fill="lightgrey" stroke="black" points="325.909,-534 264.242,-516 325.909,-498 387.576,-516 325.909,-534"/>
<polyline fill="none" stroke="black" points="275.761,-519.362 275.761,-512.638 "/>
<polyline fill="none" stroke="black" points="314.39,-501.362 337.428,-501.362 "/>
<polyline fill="none" stroke="black" points="376.057,-512.638 376.057,-519.362 "/>
<polyline fill="none" stroke="black" points="337.428,-530.638 314.39,-530.638 "/>
<text text-anchor="middle" x="325.909" y="-512.3" font-family="Times,serif" font-size="14.00">DuckPhp</text>
</g>
<!-- DuckPhp&#45;&gt;Core_App -->
<g id="edge76" class="edge"><title>DuckPhp&#45;&gt;Core_App</title>
<path fill="none" stroke="black" d="M371.243,-520.888C385.023,-524.708 398.841,-531.387 407.441,-543 431.389,-575.335 415.446,-1228.59 427.441,-1267 438.116,-1301.18 462.945,-1334.81 480.073,-1355.24"/>
<polygon fill="black" stroke="black" points="477.483,-1357.59 486.657,-1362.89 482.791,-1353.03 477.483,-1357.59"/>
</g>
<!-- DuckPhp&#45;&gt;Cache -->
<g id="edge82" class="edge"><title>DuckPhp&#45;&gt;Cache</title>
<path fill="none" stroke="black" d="M342.109,-502.38C361.123,-485.787 395.121,-457.553 427.441,-438 498.859,-394.794 518.724,-385.245 598.285,-360 633.855,-348.713 675.973,-341.473 705.307,-337.361"/>
<polygon fill="black" stroke="black" points="706.058,-340.791 715.5,-335.986 705.122,-333.854 706.058,-340.791"/>
</g>
<!-- DuckPhp&#45;&gt;DBManager -->
<g id="edge79" class="edge"><title>DuckPhp&#45;&gt;DBManager</title>
<path fill="none" stroke="black" d="M331.283,-499.303C342.028,-460.928 372.893,-365.059 427.441,-304 486.974,-237.361 514.999,-230.378 598.285,-198 627.708,-186.562 662.466,-179.861 690.382,-175.996"/>
<polygon fill="black" stroke="black" points="690.872,-179.461 700.335,-174.696 689.966,-172.52 690.872,-179.461"/>
</g>
<!-- DuckPhp&#45;&gt;EventManager -->
<g id="edge80" class="edge"><title>DuckPhp&#45;&gt;EventManager</title>
<path fill="none" stroke="black" d="M333.839,-499.874C347.482,-469.936 380.622,-405.496 427.441,-369 503.2,-309.945 616.16,-289.638 683.978,-282.656"/>
<polygon fill="black" stroke="black" points="684.437,-286.128 694.054,-281.683 683.764,-279.161 684.437,-286.128"/>
</g>
<!-- DuckPhp&#45;&gt;Pager -->
<g id="edge78" class="edge"><title>DuckPhp&#45;&gt;Pager</title>
<path fill="none" stroke="black" d="M374.883,-519.818C458.604,-526.48 629.616,-540.089 704.772,-546.07"/>
<polygon fill="black" stroke="black" points="704.897,-549.591 715.143,-546.895 705.452,-542.613 704.897,-549.591"/>
</g>
<!-- DuckPhp&#45;&gt;RouteHookPathInfoByGet -->
<g id="edge81" class="edge"><title>DuckPhp&#45;&gt;RouteHookPathInfoByGet</title>
<path fill="none" stroke="black" d="M360.361,-507.948C407.013,-496.05 493.613,-471.512 562.285,-438 579.567,-429.567 580.478,-421.259 598.285,-414 615.099,-407.145 633.739,-402.012 651.863,-398.174"/>
<polygon fill="black" stroke="black" points="652.746,-401.567 661.864,-396.172 651.372,-394.703 652.746,-401.567"/>
</g>
<!-- DuckPhp&#45;&gt;RouteHookRouteMap -->
<g id="edge77" class="edge"><title>DuckPhp&#45;&gt;RouteHookRouteMap</title>
<path fill="none" stroke="black" d="M364.388,-522.884C378.932,-526.934 395.036,-533.25 407.441,-543 532.572,-641.345 466.704,-756.468 598.285,-846 617.43,-859.027 641.188,-866.192 663.819,-870.021"/>
<polygon fill="black" stroke="black" points="663.366,-873.492 673.773,-871.509 664.401,-866.569 663.366,-873.492"/>
</g>
</g>
</svg>
