<?xml version="1.0" encoding="UTF-8" standalone="no"?>
<!DOCTYPE svg PUBLIC "-//W3C//DTD SVG 1.1//EN"
 "http://www.w3.org/Graphics/SVG/1.1/DTD/svg11.dtd">
<!-- Generated by graphviz version 2.38.0 (20140413.2041)
 -->
<!-- Title: G Pages: 1 -->
<svg width="1519pt" height="1581pt"
 viewBox="0.00 0.00 1518.92 1581.00" xmlns="http://www.w3.org/2000/svg" xmlns:xlink="http://www.w3.org/1999/xlink">
<g id="graph0" class="graph" transform="scale(1 1) rotate(0) translate(4 1577)">
<title>G</title>
<polygon fill="white" stroke="none" points="-4,4 -4,-1577 1514.92,-1577 1514.92,4 -4,4"/>
<g id="clust1" class="cluster"><title>cluster_Core</title>
<polygon fill="none" stroke="black" points="427.441,-1038 427.441,-1565 1502.92,-1565 1502.92,-1038 427.441,-1038"/>
<text text-anchor="middle" x="965.182" y="-1549.8" font-family="Times,serif" font-size="14.00">[DuckPhp\Core]</text>
</g>
<g id="clust2" class="cluster"><title>cluster_Helper</title>
<polygon fill="none" stroke="black" points="8,-1229 8,-1520 407.441,-1520 407.441,-1229 8,-1229"/>
<text text-anchor="middle" x="207.721" y="-1504.8" font-family="Times,serif" font-size="14.00">[DuckPhp\Helper]</text>
</g>
<g id="clust3" class="cluster"><title>cluster_Db</title>
<polygon fill="none" stroke="black" points="963.271,-8 963.271,-137 1314.34,-137 1314.34,-8 963.271,-8"/>
<text text-anchor="middle" x="1138.81" y="-121.8" font-family="Times,serif" font-size="14.00">[DuckPhp\Db]</text>
</g>
<g id="clust4" class="cluster"><title>cluster_Ext</title>
<polygon fill="none" stroke="black" points="603.153,-145 603.153,-1030 1068.77,-1030 1068.77,-145 603.153,-145"/>
<text text-anchor="middle" x="835.962" y="-1014.8" font-family="Times,serif" font-size="14.00">[DuckPhp\Ext]</text>
</g>
<g id="clust5" class="cluster"><title>cluster_DuckPhp</title>
<polygon fill="none" stroke="black" points="248.053,-692 248.053,-821 403.765,-821 403.765,-692 248.053,-692"/>
<text text-anchor="middle" x="325.909" y="-805.8" font-family="Times,serif" font-size="14.00">[DuckPhp]</text>
</g>
<!-- Core_AppPluginTrait -->
<g id="node1" class="node"><title>Core_AppPluginTrait</title>
<polygon fill="none" stroke="black" points="742.593,-1198 649.923,-1180 742.593,-1162 835.263,-1180 742.593,-1198"/>
<text text-anchor="middle" x="742.593" y="-1176.3" font-family="Times,serif" font-size="14.00">AppPluginTrait</text>
</g>
<!-- Core_View -->
<g id="node7" class="node"><title>Core_View</title>
<polygon fill="none" stroke="black" points="1025.27,-1136 971.271,-1136 971.271,-1132 967.271,-1132 967.271,-1128 971.271,-1128 971.271,-1108 967.271,-1108 967.271,-1104 971.271,-1104 971.271,-1100 1025.27,-1100 1025.27,-1136"/>
<polyline fill="none" stroke="black" points="971.271,-1132 975.271,-1132 975.271,-1128 971.271,-1128 "/>
<polyline fill="none" stroke="black" points="971.271,-1108 975.271,-1108 975.271,-1104 971.271,-1104 "/>
<text text-anchor="middle" x="998.271" y="-1114.3" font-family="Times,serif" font-size="14.00">View</text>
</g>
<!-- Core_AppPluginTrait&#45;&gt;Core_View -->
<g id="edge23" class="edge"><title>Core_AppPluginTrait&#45;&gt;Core_View</title>
<path fill="none" stroke="black" d="M784.351,-1170.04C833.179,-1158.1 914.233,-1138.29 960.986,-1126.87"/>
<polygon fill="black" stroke="black" points="962.094,-1130.2 970.977,-1124.43 960.432,-1123.4 962.094,-1130.2"/>
</g>
<!-- Core_Configer -->
<g id="node8" class="node"><title>Core_Configer</title>
<polygon fill="none" stroke="black" points="1030.77,-1244 965.771,-1244 965.771,-1240 961.771,-1240 961.771,-1236 965.771,-1236 965.771,-1216 961.771,-1216 961.771,-1212 965.771,-1212 965.771,-1208 1030.77,-1208 1030.77,-1244"/>
<polyline fill="none" stroke="black" points="965.771,-1240 969.771,-1240 969.771,-1236 965.771,-1236 "/>
<polyline fill="none" stroke="black" points="965.771,-1216 969.771,-1216 969.771,-1212 965.771,-1212 "/>
<text text-anchor="middle" x="998.271" y="-1222.3" font-family="Times,serif" font-size="14.00">Configer</text>
</g>
<!-- Core_AppPluginTrait&#45;&gt;Core_Configer -->
<g id="edge22" class="edge"><title>Core_AppPluginTrait&#45;&gt;Core_Configer</title>
<path fill="none" stroke="black" d="M791.01,-1188.6C838.373,-1197.19 910.459,-1210.26 955.664,-1218.46"/>
<polygon fill="black" stroke="black" points="955.25,-1221.94 965.714,-1220.28 956.499,-1215.05 955.25,-1221.94"/>
</g>
<!-- Core_Route -->
<g id="node10" class="node"><title>Core_Route</title>
<polygon fill="lightgrey" stroke="black" points="998.271,-1352 953.194,-1334 998.271,-1316 1043.35,-1334 998.271,-1352"/>
<polyline fill="none" stroke="black" points="964.338,-1338.45 964.338,-1329.55 "/>
<polyline fill="none" stroke="black" points="987.127,-1320.45 1009.42,-1320.45 "/>
<polyline fill="none" stroke="black" points="1032.2,-1329.55 1032.2,-1338.45 "/>
<polyline fill="none" stroke="black" points="1009.42,-1347.55 987.127,-1347.55 "/>
<text text-anchor="middle" x="998.271" y="-1330.3" font-family="Times,serif" font-size="14.00">Route</text>
</g>
<!-- Core_AppPluginTrait&#45;&gt;Core_Route -->
<g id="edge24" class="edge"><title>Core_AppPluginTrait&#45;&gt;Core_Route</title>
<path fill="none" stroke="black" d="M798.648,-1187.13C827.827,-1193.4 862.564,-1205.11 886.901,-1227 915.891,-1253.07 894.322,-1280.48 922.901,-1307 932.261,-1315.69 944.631,-1321.63 956.591,-1325.67"/>
<polygon fill="black" stroke="black" points="955.88,-1329.11 966.465,-1328.63 957.894,-1322.4 955.88,-1329.11"/>
</g>
<!-- Core_SuperGlobal -->
<g id="node14" class="node"><title>Core_SuperGlobal</title>
<polygon fill="none" stroke="black" points="1040.77,-1298 955.771,-1298 955.771,-1294 951.771,-1294 951.771,-1290 955.771,-1290 955.771,-1270 951.771,-1270 951.771,-1266 955.771,-1266 955.771,-1262 1040.77,-1262 1040.77,-1298"/>
<polyline fill="none" stroke="black" points="955.771,-1294 959.771,-1294 959.771,-1290 955.771,-1290 "/>
<polyline fill="none" stroke="black" points="955.771,-1270 959.771,-1270 959.771,-1266 955.771,-1266 "/>
<text text-anchor="middle" x="998.271" y="-1276.3" font-family="Times,serif" font-size="14.00">SuperGlobal</text>
</g>
<!-- Core_AppPluginTrait&#45;&gt;Core_SuperGlobal -->
<g id="edge25" class="edge"><title>Core_AppPluginTrait&#45;&gt;Core_SuperGlobal</title>
<path fill="none" stroke="black" d="M807.438,-1185.52C833.467,-1189.93 862.996,-1197.83 886.901,-1212 907.762,-1224.36 902.876,-1239.32 922.901,-1253 929.993,-1257.84 938.058,-1261.93 946.198,-1265.35"/>
<polygon fill="black" stroke="black" points="945.144,-1268.69 955.732,-1269.05 947.677,-1262.17 945.144,-1268.69"/>
</g>
<!-- Core_App -->
<g id="node2" class="node"><title>Core_App</title>
<polygon fill="lightgrey" stroke="black" points="498.863,-1339 462.329,-1321 498.863,-1303 535.397,-1321 498.863,-1339"/>
<polyline fill="none" stroke="black" points="473.094,-1326.3 473.094,-1315.7 "/>
<polyline fill="none" stroke="black" points="488.099,-1308.3 509.628,-1308.3 "/>
<polyline fill="none" stroke="black" points="524.633,-1315.7 524.633,-1326.3 "/>
<polyline fill="none" stroke="black" points="509.628,-1333.7 488.099,-1333.7 "/>
<text text-anchor="middle" x="498.863" y="-1317.3" font-family="Times,serif" font-size="14.00">App</text>
</g>
<!-- Core_Kernel -->
<g id="node3" class="node"><title>Core_Kernel</title>
<polygon fill="none" stroke="black" points="742.593,-1272 693.661,-1254 742.593,-1236 791.524,-1254 742.593,-1272"/>
<text text-anchor="middle" x="742.593" y="-1250.3" font-family="Times,serif" font-size="14.00">Kernel</text>
</g>
<!-- Core_App&#45;&gt;Core_Kernel -->
<g id="edge9" class="edge"><title>Core_App&#45;&gt;Core_Kernel</title>
<path fill="none" stroke="black" d="M519.613,-1313.17C539.322,-1305.55 570.578,-1293.99 598.285,-1286 631.991,-1276.28 670.866,-1267.77 699.615,-1261.97"/>
<polygon fill="black" stroke="black" points="700.596,-1265.34 709.72,-1259.96 699.23,-1258.48 700.596,-1265.34"/>
</g>
<!-- Core_AutoLoader -->
<g id="node5" class="node"><title>Core_AutoLoader</title>
<polygon fill="lightgrey" stroke="black" points="998.271,-1534 923.029,-1516 998.271,-1498 1073.51,-1516 998.271,-1534"/>
<polyline fill="none" stroke="black" points="934.7,-1518.79 934.7,-1513.21 "/>
<polyline fill="none" stroke="black" points="986.601,-1500.79 1009.94,-1500.79 "/>
<polyline fill="none" stroke="black" points="1061.84,-1513.21 1061.84,-1518.79 "/>
<polyline fill="none" stroke="black" points="1009.94,-1531.21 986.601,-1531.21 "/>
<text text-anchor="middle" x="998.271" y="-1512.3" font-family="Times,serif" font-size="14.00">AutoLoader</text>
</g>
<!-- Core_App&#45;&gt;Core_AutoLoader -->
<g id="edge12" class="edge"><title>Core_App&#45;&gt;Core_AutoLoader</title>
<path fill="none" stroke="black" stroke-dasharray="1,5" d="M509.66,-1333.98C525.68,-1354.09 559.601,-1392.2 598.285,-1409 716.419,-1460.3 774.718,-1371.73 886.901,-1435 910.439,-1448.27 901.748,-1467.18 922.901,-1484 932.261,-1491.44 943.614,-1497.47 954.601,-1502.21"/>
<polygon fill="black" stroke="black" points="953.52,-1505.54 964.103,-1506.04 956.137,-1499.05 953.52,-1505.54"/>
</g>
<!-- Core_ExceptionManager -->
<g id="node6" class="node"><title>Core_ExceptionManager</title>
<polygon fill="none" stroke="black" points="1058.27,-1406 938.271,-1406 938.271,-1402 934.271,-1402 934.271,-1398 938.271,-1398 938.271,-1378 934.271,-1378 934.271,-1374 938.271,-1374 938.271,-1370 1058.27,-1370 1058.27,-1406"/>
<polyline fill="none" stroke="black" points="938.271,-1402 942.271,-1402 942.271,-1398 938.271,-1398 "/>
<polyline fill="none" stroke="black" points="938.271,-1378 942.271,-1378 942.271,-1374 938.271,-1374 "/>
<text text-anchor="middle" x="998.271" y="-1384.3" font-family="Times,serif" font-size="14.00">ExceptionManager</text>
</g>
<!-- Core_App&#45;&gt;Core_ExceptionManager -->
<g id="edge15" class="edge"><title>Core_App&#45;&gt;Core_ExceptionManager</title>
<path fill="none" stroke="black" stroke-dasharray="1,5" d="M526.57,-1316.51C603.612,-1304.1 824.716,-1272.38 886.901,-1306 912.6,-1319.89 899.996,-1342.86 922.901,-1361 924.926,-1362.6 927.056,-1364.12 929.264,-1365.55"/>
<polygon fill="black" stroke="black" points="927.696,-1368.68 938.107,-1370.64 931.191,-1362.62 927.696,-1368.68"/>
</g>
<!-- Core_App&#45;&gt;Core_View -->
<g id="edge18" class="edge"><title>Core_App&#45;&gt;Core_View</title>
<path fill="none" stroke="black" stroke-dasharray="1,5" d="M508.831,-1307.48C521.835,-1287.46 546.135,-1248.48 562.285,-1213 582.724,-1168.1 558.141,-1136.67 598.285,-1108 655.717,-1066.98 874.405,-1097.58 961.332,-1111.79"/>
<polygon fill="black" stroke="black" points="960.823,-1115.25 971.26,-1113.43 961.967,-1108.34 960.823,-1115.25"/>
</g>
<!-- Core_App&#45;&gt;Core_Configer -->
<g id="edge13" class="edge"><title>Core_App&#45;&gt;Core_Configer</title>
<path fill="none" stroke="black" stroke-dasharray="1,5" d="M507.738,-1307.35C530.744,-1267.52 596.351,-1154.11 598.285,-1153 653.931,-1121.11 829.243,-1124.91 886.901,-1153 910.239,-1164.37 901.885,-1183.76 922.901,-1199 932.705,-1206.11 944.578,-1211.53 955.931,-1215.57"/>
<polygon fill="black" stroke="black" points="955.117,-1218.99 965.71,-1218.78 957.3,-1212.34 955.117,-1218.99"/>
</g>
<!-- Core_Logger -->
<g id="node9" class="node"><title>Core_Logger</title>
<polygon fill="none" stroke="black" points="1026.27,-1460 970.271,-1460 970.271,-1456 966.271,-1456 966.271,-1452 970.271,-1452 970.271,-1432 966.271,-1432 966.271,-1428 970.271,-1428 970.271,-1424 1026.27,-1424 1026.27,-1460"/>
<polyline fill="none" stroke="black" points="970.271,-1456 974.271,-1456 974.271,-1452 970.271,-1452 "/>
<polyline fill="none" stroke="black" points="970.271,-1432 974.271,-1432 974.271,-1428 970.271,-1428 "/>
<text text-anchor="middle" x="998.271" y="-1438.3" font-family="Times,serif" font-size="14.00">Logger</text>
</g>
<!-- Core_App&#45;&gt;Core_Logger -->
<g id="edge14" class="edge"><title>Core_App&#45;&gt;Core_Logger</title>
<path fill="none" stroke="black" stroke-dasharray="1,5" d="M532.222,-1319.4C620.007,-1315.33 858.019,-1306.26 886.901,-1326 922.125,-1350.08 892.189,-1385.38 922.901,-1415 933.064,-1424.8 947.057,-1431.09 960.165,-1435.1"/>
<polygon fill="black" stroke="black" points="959.371,-1438.51 969.938,-1437.74 961.199,-1431.75 959.371,-1438.51"/>
</g>
<!-- Core_App&#45;&gt;Core_Route -->
<g id="edge16" class="edge"><title>Core_App&#45;&gt;Core_Route</title>
<path fill="none" stroke="black" stroke-dasharray="1,5" d="M510.806,-1333.18C527.58,-1350.83 561.584,-1382.74 598.285,-1395 659.119,-1415.32 827.301,-1418.7 886.901,-1395 907.351,-1386.87 904.168,-1372.55 922.901,-1361 934.433,-1353.89 948.119,-1348.25 960.587,-1344"/>
<polygon fill="black" stroke="black" points="961.81,-1347.29 970.26,-1340.9 959.669,-1340.62 961.81,-1347.29"/>
</g>
<!-- Core_RuntimeState -->
<g id="node11" class="node"><title>Core_RuntimeState</title>
<polygon fill="none" stroke="black" points="1043.77,-1190 952.771,-1190 952.771,-1186 948.771,-1186 948.771,-1182 952.771,-1182 952.771,-1162 948.771,-1162 948.771,-1158 952.771,-1158 952.771,-1154 1043.77,-1154 1043.77,-1190"/>
<polyline fill="none" stroke="black" points="952.771,-1186 956.771,-1186 956.771,-1182 952.771,-1182 "/>
<polyline fill="none" stroke="black" points="952.771,-1162 956.771,-1162 956.771,-1158 952.771,-1158 "/>
<text text-anchor="middle" x="998.271" y="-1168.3" font-family="Times,serif" font-size="14.00">RuntimeState</text>
</g>
<!-- Core_App&#45;&gt;Core_RuntimeState -->
<g id="edge17" class="edge"><title>Core_App&#45;&gt;Core_RuntimeState</title>
<path fill="none" stroke="black" stroke-dasharray="1,5" d="M508.504,-1307.32C521.101,-1287.11 544.897,-1247.89 562.285,-1213 580.585,-1176.28 564.083,-1150.66 598.285,-1128 651.754,-1092.58 824.318,-1113.97 886.901,-1128 904.166,-1131.87 906.567,-1138.2 922.901,-1145 929.29,-1147.66 936.046,-1150.32 942.776,-1152.88"/>
<polygon fill="black" stroke="black" points="941.98,-1156.32 952.572,-1156.54 944.428,-1149.76 941.98,-1156.32"/>
</g>
<!-- Core_SystemWrapperTrait -->
<g id="node12" class="node"><title>Core_SystemWrapperTrait</title>
<polygon fill="none" stroke="black" points="742.593,-1386 622.274,-1368 742.593,-1350 862.912,-1368 742.593,-1386"/>
<text text-anchor="middle" x="742.593" y="-1364.3" font-family="Times,serif" font-size="14.00">SystemWrapperTrait</text>
</g>
<!-- Core_App&#45;&gt;Core_SystemWrapperTrait -->
<g id="edge11" class="edge"><title>Core_App&#45;&gt;Core_SystemWrapperTrait</title>
<path fill="none" stroke="black" d="M525.733,-1326.03C562.081,-1333.1 629.396,-1346.19 679.228,-1355.87"/>
<polygon fill="black" stroke="black" points="678.778,-1359.35 689.262,-1357.83 680.114,-1352.48 678.778,-1359.35"/>
</g>
<!-- Core_App&#45;&gt;Core_SuperGlobal -->
<g id="edge19" class="edge"><title>Core_App&#45;&gt;Core_SuperGlobal</title>
<path fill="none" stroke="black" stroke-dasharray="1,5" d="M508.765,-1307.43C524.02,-1285.56 557.491,-1243.35 598.285,-1227 657.818,-1203.14 825.875,-1207.27 886.901,-1227 905.68,-1233.07 905.457,-1243.77 922.901,-1253 930.15,-1256.84 938.065,-1260.35 945.94,-1263.49"/>
<polygon fill="black" stroke="black" points="944.887,-1266.84 955.478,-1267.12 947.378,-1260.29 944.887,-1266.84"/>
</g>
<!-- Core_ExtendableStaticCallTrait -->
<g id="node15" class="node"><title>Core_ExtendableStaticCallTrait</title>
<polygon fill="none" stroke="black" points="742.593,-1534 598.477,-1516 742.593,-1498 886.708,-1516 742.593,-1534"/>
<text text-anchor="middle" x="742.593" y="-1512.3" font-family="Times,serif" font-size="14.00">ExtendableStaticCallTrait</text>
</g>
<!-- Core_App&#45;&gt;Core_ExtendableStaticCallTrait -->
<g id="edge10" class="edge"><title>Core_App&#45;&gt;Core_ExtendableStaticCallTrait</title>
<path fill="none" stroke="black" d="M504.148,-1336.52C514.32,-1370.24 543.285,-1450.27 598.285,-1489 609.779,-1497.09 623.028,-1502.95 636.73,-1507.15"/>
<polygon fill="black" stroke="black" points="636.198,-1510.63 646.769,-1509.93 638.065,-1503.89 636.198,-1510.63"/>
</g>
<!-- Core_ComponentBase -->
<g id="node18" class="node"><title>Core_ComponentBase</title>
<polygon fill="none" stroke="black" points="1261.49,-1082 1158.49,-1082 1154.49,-1078 1154.49,-1046 1257.49,-1046 1261.49,-1050 1261.49,-1082"/>
<polyline fill="none" stroke="black" points="1257.49,-1078 1154.49,-1078 "/>
<polyline fill="none" stroke="black" points="1257.49,-1078 1257.49,-1046 "/>
<polyline fill="none" stroke="black" points="1257.49,-1078 1261.49,-1082 "/>
<text text-anchor="middle" x="1207.99" y="-1060.3" font-family="Times,serif" font-size="14.00">ComponentBase</text>
</g>
<!-- Core_App&#45;&gt;Core_ComponentBase -->
<g id="edge21" class="edge"><title>Core_App&#45;&gt;Core_ComponentBase</title>
<path fill="none" stroke="black" stroke-dasharray="1,5" d="M532.528,-1322.44C625.219,-1326.55 883.451,-1338.24 886.901,-1341 933.069,-1377.89 875.795,-1433.32 922.901,-1469 949.602,-1489.23 1046.5,-1488.64 1073.64,-1469 1197.97,-1379.04 1208.38,-1169.2 1207.85,-1092.62"/>
<polygon fill="black" stroke="black" points="1211.34,-1092.27 1207.7,-1082.32 1204.34,-1092.37 1211.34,-1092.27"/>
</g>
<!-- Core_Functions -->
<g id="node19" class="node"><title>Core_Functions</title>
<ellipse fill="none" stroke="black" cx="742.593" cy="-1462" rx="45.4919" ry="18"/>
<text text-anchor="middle" x="742.593" y="-1458.3" font-family="Times,serif" font-size="14.00">Functions</text>
</g>
<!-- Core_App&#45;&gt;Core_Functions -->
<g id="edge20" class="edge"><title>Core_App&#45;&gt;Core_Functions</title>
<path fill="none" stroke="black" stroke-dasharray="1,5" d="M508.006,-1334.5C522.851,-1357.88 556.66,-1405.72 598.285,-1430 625.252,-1445.73 659.212,-1453.73 687.304,-1457.8"/>
<polygon fill="black" stroke="black" points="686.992,-1461.29 697.364,-1459.13 687.909,-1454.35 686.992,-1461.29"/>
</g>
<!-- Core_Kernel&#45;&gt;Core_AutoLoader -->
<g id="edge1" class="edge"><title>Core_Kernel&#45;&gt;Core_AutoLoader</title>
<path fill="none" stroke="black" d="M768.577,-1262.54C800.752,-1274.83 856.177,-1300.56 886.901,-1341 922.649,-1388.06 887.576,-1421.62 922.901,-1469 932.544,-1481.93 946.89,-1492.2 960.417,-1499.79"/>
<polygon fill="black" stroke="black" points="959.105,-1503.05 969.583,-1504.62 962.368,-1496.86 959.105,-1503.05"/>
</g>
<!-- Core_Kernel&#45;&gt;Core_ExceptionManager -->
<g id="edge4" class="edge"><title>Core_Kernel&#45;&gt;Core_ExceptionManager</title>
<path fill="none" stroke="black" d="M790.981,-1254.31C821.293,-1256.8 859.857,-1264.51 886.901,-1286 915.848,-1309 895.491,-1336.18 922.901,-1361 924.861,-1362.77 926.947,-1364.44 929.128,-1365.99"/>
<polygon fill="black" stroke="black" points="927.612,-1369.17 937.954,-1371.46 931.302,-1363.22 927.612,-1369.17"/>
</g>
<!-- Core_Kernel&#45;&gt;Core_View -->
<g id="edge7" class="edge"><title>Core_Kernel&#45;&gt;Core_View</title>
<path fill="none" stroke="black" d="M779.71,-1249.49C810.957,-1244 855.873,-1232.13 886.901,-1207 911.661,-1186.94 898.458,-1165.44 922.901,-1145 933.9,-1135.8 948.296,-1129.61 961.488,-1125.51"/>
<polygon fill="black" stroke="black" points="962.584,-1128.84 971.266,-1122.77 960.692,-1122.1 962.584,-1128.84"/>
</g>
<!-- Core_Kernel&#45;&gt;Core_Configer -->
<g id="edge2" class="edge"><title>Core_Kernel&#45;&gt;Core_Configer</title>
<path fill="none" stroke="black" d="M780.48,-1249.93C826.952,-1244.8 906.616,-1236.01 955.348,-1230.63"/>
<polygon fill="black" stroke="black" points="955.995,-1234.08 965.551,-1229.5 955.227,-1227.12 955.995,-1234.08"/>
</g>
<!-- Core_Kernel&#45;&gt;Core_Logger -->
<g id="edge3" class="edge"><title>Core_Kernel&#45;&gt;Core_Logger</title>
<path fill="none" stroke="black" d="M780.19,-1258.26C812.41,-1263.88 858.502,-1276.76 886.901,-1306 922.447,-1342.6 887.357,-1378.4 922.901,-1415 932.814,-1425.21 946.883,-1431.58 960.121,-1435.54"/>
<polygon fill="black" stroke="black" points="959.438,-1438.98 969.999,-1438.13 961.211,-1432.21 959.438,-1438.98"/>
</g>
<!-- Core_Kernel&#45;&gt;Core_Route -->
<g id="edge5" class="edge"><title>Core_Kernel&#45;&gt;Core_Route</title>
<path fill="none" stroke="black" d="M778.942,-1258.78C808.508,-1263.51 851.422,-1272.08 886.901,-1286 904.144,-1292.77 906.127,-1299.14 922.901,-1307 935.562,-1312.93 949.912,-1318.42 962.607,-1322.87"/>
<polygon fill="black" stroke="black" points="961.774,-1326.28 972.369,-1326.21 964.04,-1319.66 961.774,-1326.28"/>
</g>
<!-- Core_Kernel&#45;&gt;Core_RuntimeState -->
<g id="edge6" class="edge"><title>Core_Kernel&#45;&gt;Core_RuntimeState</title>
<path fill="none" stroke="black" d="M769.313,-1245.69C809.749,-1232.62 889.094,-1206.97 942.66,-1189.65"/>
<polygon fill="black" stroke="black" points="943.908,-1192.93 952.347,-1186.52 941.755,-1186.27 943.908,-1192.93"/>
</g>
<!-- Core_Kernel&#45;&gt;Core_SuperGlobal -->
<g id="edge8" class="edge"><title>Core_Kernel&#45;&gt;Core_SuperGlobal</title>
<path fill="none" stroke="black" d="M781.297,-1257.86C824.85,-1262.33 896.756,-1269.7 945.522,-1274.7"/>
<polygon fill="black" stroke="black" points="945.253,-1278.19 955.558,-1275.72 945.967,-1271.22 945.253,-1278.19"/>
</g>
<!-- Core_SingletonEx -->
<g id="node4" class="node"><title>Core_SingletonEx</title>
<polygon fill="lightgrey" stroke="black" points="1418.63,-1335 1342.55,-1317 1418.63,-1299 1494.71,-1317 1418.63,-1335"/>
<polyline fill="none" stroke="black" points="1354.23,-1319.76 1354.23,-1314.24 "/>
<polyline fill="none" stroke="black" points="1406.95,-1301.76 1430.31,-1301.76 "/>
<polyline fill="none" stroke="black" points="1483.04,-1314.24 1483.04,-1319.76 "/>
<polyline fill="none" stroke="black" points="1430.31,-1332.24 1406.95,-1332.24 "/>
<text text-anchor="middle" x="1418.63" y="-1313.3" font-family="Times,serif" font-size="14.00">SingletonEx</text>
</g>
<!-- Core_ExceptionManager&#45;&gt;Core_ComponentBase -->
<g id="edge26" class="edge"><title>Core_ExceptionManager&#45;&gt;Core_ComponentBase</title>
<path fill="none" stroke="black" stroke-dasharray="1,5" d="M1058.33,-1371.78C1063.88,-1368.77 1069.11,-1365.21 1073.64,-1361 1155.12,-1285.32 1190.13,-1150.53 1201.96,-1092.2"/>
<polygon fill="black" stroke="black" points="1205.43,-1092.71 1203.91,-1082.23 1198.56,-1091.37 1205.43,-1092.71"/>
</g>
<!-- Core_View&#45;&gt;Core_ComponentBase -->
<g id="edge31" class="edge"><title>Core_View&#45;&gt;Core_ComponentBase</title>
<path fill="none" stroke="black" stroke-dasharray="1,5" d="M1025.58,-1111.16C1055.27,-1103.44 1104.6,-1090.62 1144.33,-1080.29"/>
<polygon fill="black" stroke="black" points="1145.41,-1083.63 1154.21,-1077.72 1143.65,-1076.85 1145.41,-1083.63"/>
</g>
<!-- Core_Configer&#45;&gt;Core_ComponentBase -->
<g id="edge27" class="edge"><title>Core_Configer&#45;&gt;Core_ComponentBase</title>
<path fill="none" stroke="black" stroke-dasharray="1,5" d="M1031.1,-1217.86C1044.84,-1213.51 1060.69,-1207.3 1073.64,-1199 1120.29,-1169.11 1163.2,-1120.22 1187.15,-1090.2"/>
<polygon fill="black" stroke="black" points="1189.96,-1092.29 1193.39,-1082.27 1184.46,-1087.97 1189.96,-1092.29"/>
</g>
<!-- Core_Logger&#45;&gt;Core_ComponentBase -->
<g id="edge32" class="edge"><title>Core_Logger&#45;&gt;Core_ComponentBase</title>
<path fill="none" stroke="black" stroke-dasharray="1,5" d="M1026.34,-1437.92C1041.94,-1434.3 1060.92,-1427.53 1073.64,-1415 1167.33,-1322.69 1196.17,-1157.85 1204.19,-1092.15"/>
<polygon fill="black" stroke="black" points="1207.68,-1092.47 1205.34,-1082.13 1200.72,-1091.67 1207.68,-1092.47"/>
</g>
<!-- Core_Route&#45;&gt;Core_ComponentBase -->
<g id="edge28" class="edge"><title>Core_Route&#45;&gt;Core_ComponentBase</title>
<path fill="none" stroke="black" stroke-dasharray="1,5" d="M1029.34,-1328.32C1044,-1324.33 1061.13,-1317.73 1073.64,-1307 1143.23,-1247.36 1183.08,-1141.96 1198.93,-1091.9"/>
<polygon fill="black" stroke="black" points="1202.35,-1092.68 1201.95,-1082.1 1195.66,-1090.63 1202.35,-1092.68"/>
</g>
<!-- Core_RuntimeState&#45;&gt;Core_ComponentBase -->
<g id="edge30" class="edge"><title>Core_RuntimeState&#45;&gt;Core_ComponentBase</title>
<path fill="none" stroke="black" stroke-dasharray="1,5" d="M1043.91,-1157.42C1053.85,-1153.73 1064.23,-1149.51 1073.64,-1145 1108.53,-1128.27 1146.01,-1104.99 1172.32,-1087.68"/>
<polygon fill="black" stroke="black" points="1174.4,-1090.5 1180.79,-1082.06 1170.53,-1084.67 1174.4,-1090.5"/>
</g>
<!-- Core_HttpServer -->
<g id="node13" class="node"><title>Core_HttpServer</title>
<polygon fill="lightgrey" stroke="black" points="998.271,-1082 928.559,-1064 998.271,-1046 1067.98,-1064 998.271,-1082"/>
<polyline fill="none" stroke="black" points="940.178,-1067 940.178,-1061 "/>
<polyline fill="none" stroke="black" points="986.652,-1049 1009.89,-1049 "/>
<polyline fill="none" stroke="black" points="1056.36,-1061 1056.36,-1067 "/>
<polyline fill="none" stroke="black" points="1009.89,-1079 986.652,-1079 "/>
<text text-anchor="middle" x="998.271" y="-1060.3" font-family="Times,serif" font-size="14.00">HttpServer</text>
</g>
<!-- Core_HttpServer&#45;&gt;Core_ComponentBase -->
<g id="edge33" class="edge"><title>Core_HttpServer&#45;&gt;Core_ComponentBase</title>
<path fill="none" stroke="black" stroke-dasharray="1,5" d="M1068.15,-1064C1092.74,-1064 1120.3,-1064 1144.34,-1064"/>
<polygon fill="black" stroke="black" points="1144.41,-1067.5 1154.41,-1064 1144.41,-1060.5 1144.41,-1067.5"/>
</g>
<!-- Core_SuperGlobal&#45;&gt;Core_ComponentBase -->
<g id="edge29" class="edge"><title>Core_SuperGlobal&#45;&gt;Core_ComponentBase</title>
<path fill="none" stroke="black" stroke-dasharray="1,5" d="M1040.91,-1269.86C1052.25,-1265.82 1064.04,-1260.34 1073.64,-1253 1131.7,-1208.66 1174.58,-1131.9 1194.54,-1091.18"/>
<polygon fill="black" stroke="black" points="1197.72,-1092.65 1198.89,-1082.12 1191.41,-1089.62 1197.72,-1092.65"/>
</g>
<!-- Core_ThrowOn -->
<g id="node16" class="node"><title>Core_ThrowOn</title>
<polygon fill="lightgrey" stroke="black" points="498.863,-1204 435.519,-1186 498.863,-1168 562.207,-1186 498.863,-1204"/>
<polyline fill="none" stroke="black" points="447.063,-1189.28 447.063,-1182.72 "/>
<polyline fill="none" stroke="black" points="487.32,-1171.28 510.406,-1171.28 "/>
<polyline fill="none" stroke="black" points="550.664,-1182.72 550.664,-1189.28 "/>
<polyline fill="none" stroke="black" points="510.406,-1200.72 487.32,-1200.72 "/>
<text text-anchor="middle" x="498.863" y="-1182.3" font-family="Times,serif" font-size="14.00">ThrowOn</text>
</g>
<!-- Core_ComponentInterface -->
<g id="node17" class="node"><title>Core_ComponentInterface</title>
<polygon fill="none" stroke="black" points="1476.63,-1082 1354.63,-1082 1354.63,-1046 1482.63,-1046 1482.63,-1076 1476.63,-1082"/>
<polyline fill="none" stroke="black" points="1476.63,-1082 1476.63,-1076 "/>
<polyline fill="none" stroke="black" points="1482.63,-1076 1476.63,-1076 "/>
<text text-anchor="middle" x="1418.63" y="-1060.3" font-family="Times,serif" font-size="14.00">ComponentInterface</text>
</g>
<!-- Core_ComponentBase&#45;&gt;Core_SingletonEx -->
<g id="edge35" class="edge"><title>Core_ComponentBase&#45;&gt;Core_SingletonEx</title>
<path fill="none" stroke="black" d="M1224,-1082.2C1261.18,-1127.29 1357.55,-1244.15 1398.63,-1293.96"/>
<polygon fill="black" stroke="black" points="1396.12,-1296.42 1405.18,-1301.91 1401.52,-1291.96 1396.12,-1296.42"/>
</g>
<!-- Core_ComponentBase&#45;&gt;Core_ComponentInterface -->
<g id="edge34" class="edge"><title>Core_ComponentBase&#45;&gt;Core_ComponentInterface</title>
<path fill="none" stroke="black" d="M1261.64,-1064C1286.69,-1064 1317.05,-1064 1344.31,-1064"/>
<polygon fill="black" stroke="black" points="1344.59,-1067.5 1354.59,-1064 1344.59,-1060.5 1344.59,-1067.5"/>
</g>
<!-- AppHelper -->
<g id="node20" class="node"><title>AppHelper</title>
<polygon fill="lightgrey" stroke="black" points="116.188,-1327 45.6372,-1309 116.188,-1291 186.739,-1309 116.188,-1327"/>
<polyline fill="none" stroke="black" points="57.2647,-1311.97 57.2647,-1306.03 "/>
<polyline fill="none" stroke="black" points="104.561,-1293.97 127.816,-1293.97 "/>
<polyline fill="none" stroke="black" points="175.112,-1306.03 175.112,-1311.97 "/>
<polyline fill="none" stroke="black" points="127.816,-1324.03 104.561,-1324.03 "/>
<text text-anchor="middle" x="116.188" y="-1305.3" font-family="Times,serif" font-size="14.00">AppHelper</text>
</g>
<!-- AppHelper&#45;&gt;Core_App -->
<g id="edge36" class="edge"><title>AppHelper&#45;&gt;Core_App</title>
<path fill="none" stroke="black" d="M179.197,-1310.95C256.391,-1313.39 386.295,-1317.48 453.936,-1319.62"/>
<polygon fill="black" stroke="black" points="454.135,-1323.12 464.24,-1319.94 454.355,-1316.13 454.135,-1323.12"/>
</g>
<!-- HelperTrait -->
<g id="node25" class="node"><title>HelperTrait</title>
<polygon fill="none" stroke="black" points="325.909,-1479 252.344,-1461 325.909,-1443 399.474,-1461 325.909,-1479"/>
<text text-anchor="middle" x="325.909" y="-1457.3" font-family="Times,serif" font-size="14.00">HelperTrait</text>
</g>
<!-- AppHelper&#45;&gt;HelperTrait -->
<g id="edge44" class="edge"><title>AppHelper&#45;&gt;HelperTrait</title>
<path fill="none" stroke="black" d="M161.945,-1315.36C179.85,-1319.34 200.054,-1325.75 216.376,-1336 257.664,-1361.93 291.891,-1408.38 310.284,-1436.78"/>
<polygon fill="black" stroke="black" points="307.382,-1438.73 315.689,-1445.31 313.296,-1434.99 307.382,-1438.73"/>
</g>
<!-- ControllerHelper -->
<g id="node21" class="node"><title>ControllerHelper</title>
<polygon fill="lightgrey" stroke="black" points="116.188,-1273 15.8115,-1255 116.188,-1237 216.565,-1255 116.188,-1273"/>
<polyline fill="none" stroke="black" points="27.6231,-1257.12 27.6231,-1252.88 "/>
<polyline fill="none" stroke="black" points="104.377,-1239.12 128,-1239.12 "/>
<polyline fill="none" stroke="black" points="204.753,-1252.88 204.753,-1257.12 "/>
<polyline fill="none" stroke="black" points="128,-1270.88 104.377,-1270.88 "/>
<text text-anchor="middle" x="116.188" y="-1251.3" font-family="Times,serif" font-size="14.00">ControllerHelper</text>
</g>
<!-- ControllerHelper&#45;&gt;Core_App -->
<g id="edge37" class="edge"><title>ControllerHelper&#45;&gt;Core_App</title>
<path fill="none" stroke="black" d="M167.739,-1263.76C245.65,-1277.27 393.203,-1302.85 461.497,-1314.69"/>
<polygon fill="black" stroke="black" points="460.917,-1318.15 471.368,-1316.41 462.113,-1311.25 460.917,-1318.15"/>
</g>
<!-- ControllerHelper&#45;&gt;HelperTrait -->
<g id="edge45" class="edge"><title>ControllerHelper&#45;&gt;HelperTrait</title>
<path fill="none" stroke="black" d="M174.099,-1262.69C188.903,-1266.69 204.118,-1272.76 216.376,-1282 269.131,-1321.75 301.685,-1395.29 316.13,-1434.6"/>
<polygon fill="black" stroke="black" points="312.92,-1436.02 319.57,-1444.27 319.516,-1433.67 312.92,-1436.02"/>
</g>
<!-- ModelHelper -->
<g id="node22" class="node"><title>ModelHelper</title>
<polygon fill="lightgrey" stroke="black" points="116.188,-1489 34.5777,-1471 116.188,-1453 197.799,-1471 116.188,-1489"/>
<polyline fill="none" stroke="black" points="46.296,-1473.58 46.296,-1468.42 "/>
<polyline fill="none" stroke="black" points="104.47,-1455.58 127.906,-1455.58 "/>
<polyline fill="none" stroke="black" points="186.08,-1468.42 186.08,-1473.58 "/>
<polyline fill="none" stroke="black" points="127.906,-1486.42 104.47,-1486.42 "/>
<text text-anchor="middle" x="116.188" y="-1467.3" font-family="Times,serif" font-size="14.00">ModelHelper</text>
</g>
<!-- ModelHelper&#45;&gt;Core_App -->
<g id="edge38" class="edge"><title>ModelHelper&#45;&gt;Core_App</title>
<path fill="none" stroke="black" d="M154.497,-1461.22C173.135,-1456.24 196,-1449.99 216.376,-1444 230.541,-1439.84 233.92,-1438.27 248.053,-1434 318.633,-1412.68 341.353,-1420.69 407.441,-1388 433.629,-1375.05 460.074,-1354.37 477.541,-1339.41"/>
<polygon fill="black" stroke="black" points="480.126,-1341.79 485.354,-1332.58 475.521,-1336.52 480.126,-1341.79"/>
</g>
<!-- ModelHelper&#45;&gt;HelperTrait -->
<g id="edge46" class="edge"><title>ModelHelper&#45;&gt;HelperTrait</title>
<path fill="none" stroke="black" d="M183.483,-1467.81C205.929,-1466.73 231.081,-1465.52 253.879,-1464.42"/>
<polygon fill="black" stroke="black" points="254.351,-1467.9 264.171,-1463.92 254.014,-1460.91 254.351,-1467.9"/>
</g>
<!-- ServiceHelper -->
<g id="node23" class="node"><title>ServiceHelper</title>
<polygon fill="lightgrey" stroke="black" points="116.188,-1435 29.8865,-1417 116.188,-1399 202.49,-1417 116.188,-1435"/>
<polyline fill="none" stroke="black" points="41.6337,-1419.45 41.6337,-1414.55 "/>
<polyline fill="none" stroke="black" points="104.441,-1401.45 127.935,-1401.45 "/>
<polyline fill="none" stroke="black" points="190.743,-1414.55 190.743,-1419.45 "/>
<polyline fill="none" stroke="black" points="127.935,-1432.55 104.441,-1432.55 "/>
<text text-anchor="middle" x="116.188" y="-1413.3" font-family="Times,serif" font-size="14.00">ServiceHelper</text>
</g>
<!-- ServiceHelper&#45;&gt;Core_App -->
<g id="edge39" class="edge"><title>ServiceHelper&#45;&gt;Core_App</title>
<path fill="none" stroke="black" d="M163.924,-1408.89C221.692,-1398.39 322.745,-1378.52 407.441,-1354 428.24,-1347.98 451.148,-1339.6 468.703,-1332.79"/>
<polygon fill="black" stroke="black" points="470.337,-1335.91 478.363,-1328.99 467.776,-1329.39 470.337,-1335.91"/>
</g>
<!-- ServiceHelper&#45;&gt;HelperTrait -->
<g id="edge47" class="edge"><title>ServiceHelper&#45;&gt;HelperTrait</title>
<path fill="none" stroke="black" d="M159.725,-1426.01C193.43,-1433.15 240.56,-1443.13 275.855,-1450.61"/>
<polygon fill="black" stroke="black" points="275.429,-1454.1 285.937,-1452.74 276.88,-1447.25 275.429,-1454.1"/>
</g>
<!-- ViewHelper -->
<g id="node24" class="node"><title>ViewHelper</title>
<polygon fill="lightgrey" stroke="black" points="116.188,-1381 40.1075,-1363 116.188,-1345 192.269,-1363 116.188,-1381"/>
<polyline fill="none" stroke="black" points="51.7851,-1365.76 51.7851,-1360.24 "/>
<polyline fill="none" stroke="black" points="104.511,-1347.76 127.866,-1347.76 "/>
<polyline fill="none" stroke="black" points="180.591,-1360.24 180.591,-1365.76 "/>
<polyline fill="none" stroke="black" points="127.866,-1378.24 104.511,-1378.24 "/>
<text text-anchor="middle" x="116.188" y="-1359.3" font-family="Times,serif" font-size="14.00">ViewHelper</text>
</g>
<!-- ViewHelper&#45;&gt;Core_App -->
<g id="edge40" class="edge"><title>ViewHelper&#45;&gt;Core_App</title>
<path fill="none" stroke="black" d="M168.528,-1357.34C245.549,-1348.84 389.339,-1332.97 458.594,-1325.33"/>
<polygon fill="black" stroke="black" points="459.096,-1328.8 468.651,-1324.22 458.328,-1321.84 459.096,-1328.8"/>
</g>
<!-- ViewHelper&#45;&gt;HelperTrait -->
<g id="edge48" class="edge"><title>ViewHelper&#45;&gt;HelperTrait</title>
<path fill="none" stroke="black" d="M158.243,-1371.12C176.502,-1375.5 197.983,-1381.73 216.376,-1390 246.879,-1403.71 278.523,-1425.42 299.715,-1441.22"/>
<polygon fill="black" stroke="black" points="297.764,-1444.13 307.849,-1447.38 301.99,-1438.55 297.764,-1444.13"/>
</g>
<!-- HelperTrait&#45;&gt;Core_App -->
<g id="edge42" class="edge"><title>HelperTrait&#45;&gt;Core_App</title>
<path fill="none" stroke="black" d="M361.325,-1451.52C376.359,-1446.36 393.665,-1438.96 407.441,-1429 440.126,-1405.37 468.227,-1367.36 484.084,-1343.31"/>
<polygon fill="black" stroke="black" points="487.072,-1345.13 489.546,-1334.83 481.187,-1341.34 487.072,-1345.13"/>
</g>
<!-- HelperTrait&#45;&gt;Core_SingletonEx -->
<g id="edge41" class="edge"><title>HelperTrait&#45;&gt;Core_SingletonEx</title>
<path fill="none" stroke="black" d="M354.012,-1472.39C419.407,-1498.8 591.544,-1562 741.593,-1562 741.593,-1562 741.593,-1562 999.271,-1562 1174.48,-1562 1341.35,-1400.02 1397.61,-1339.48"/>
<polygon fill="black" stroke="black" points="1400.33,-1341.69 1404.51,-1331.96 1395.17,-1336.96 1400.33,-1341.69"/>
</g>
<!-- HelperTrait&#45;&gt;Core_ExtendableStaticCallTrait -->
<g id="edge43" class="edge"><title>HelperTrait&#45;&gt;Core_ExtendableStaticCallTrait</title>
<path fill="none" stroke="black" d="M374.075,-1467.26C444.145,-1476.55 576.618,-1494.12 661.91,-1505.43"/>
<polygon fill="black" stroke="black" points="661.697,-1508.93 672.07,-1506.78 662.617,-1501.99 661.697,-1508.93"/>
</g>
<!-- Db_Db -->
<g id="node26" class="node"><title>Db_Db</title>
<ellipse fill="none" stroke="black" cx="998.271" cy="-88" rx="27" ry="18"/>
<text text-anchor="middle" x="998.271" y="-84.3" font-family="Times,serif" font-size="14.00">Db</text>
</g>
<!-- Db_DbAdvanceTrait -->
<g id="node27" class="node"><title>Db_DbAdvanceTrait</title>
<polygon fill="none" stroke="black" points="1207.99,-52 1109.79,-34 1207.99,-16 1306.19,-34 1207.99,-52"/>
<text text-anchor="middle" x="1207.99" y="-30.3" font-family="Times,serif" font-size="14.00">DbAdvanceTrait</text>
</g>
<!-- Db_Db&#45;&gt;Db_DbAdvanceTrait -->
<g id="edge49" class="edge"><title>Db_Db&#45;&gt;Db_DbAdvanceTrait</title>
<path fill="none" stroke="black" d="M1023.92,-81.5934C1056.55,-73.11 1114.87,-57.9486 1156.93,-47.0144"/>
<polygon fill="black" stroke="black" points="1157.91,-50.3753 1166.71,-44.4718 1156.15,-43.6004 1157.91,-50.3753"/>
</g>
<!-- Db_DbInterface -->
<g id="node28" class="node"><title>Db_DbInterface</title>
<polygon fill="none" stroke="black" points="1242.49,-106 1167.49,-106 1167.49,-70 1248.49,-70 1248.49,-100 1242.49,-106"/>
<polyline fill="none" stroke="black" points="1242.49,-106 1242.49,-100 "/>
<polyline fill="none" stroke="black" points="1248.49,-100 1242.49,-100 "/>
<text text-anchor="middle" x="1207.99" y="-84.3" font-family="Times,serif" font-size="14.00">DbInterface</text>
</g>
<!-- Db_Db&#45;&gt;Db_DbInterface -->
<g id="edge50" class="edge"><title>Db_Db&#45;&gt;Db_DbInterface</title>
<path fill="none" stroke="black" d="M1025.58,-88C1058.59,-88 1115.88,-88 1157.26,-88"/>
<polygon fill="black" stroke="black" points="1157.42,-91.5001 1167.42,-88 1157.42,-84.5001 1157.42,-91.5001"/>
</g>
<!-- Cache -->
<g id="node29" class="node"><title>Cache</title>
<polygon fill="none" stroke="black" points="769.593,-405 715.593,-405 715.593,-401 711.593,-401 711.593,-397 715.593,-397 715.593,-377 711.593,-377 711.593,-373 715.593,-373 715.593,-369 769.593,-369 769.593,-405"/>
<polyline fill="none" stroke="black" points="715.593,-401 719.593,-401 719.593,-397 715.593,-397 "/>
<polyline fill="none" stroke="black" points="715.593,-377 719.593,-377 719.593,-373 715.593,-373 "/>
<text text-anchor="middle" x="742.593" y="-383.3" font-family="Times,serif" font-size="14.00">Cache</text>
</g>
<!-- Cache&#45;&gt;Core_ComponentBase -->
<g id="edge65" class="edge"><title>Cache&#45;&gt;Core_ComponentBase</title>
<path fill="none" stroke="black" stroke-dasharray="1,5" d="M769.977,-380.97C831.876,-368.52 987.666,-347.309 1073.64,-426 1165.73,-510.289 1198.14,-923.254 1205.33,-1035.69"/>
<polygon fill="black" stroke="black" points="1201.86,-1036.14 1205.97,-1045.9 1208.84,-1035.7 1201.86,-1036.14"/>
</g>
<!-- CallableView -->
<g id="node30" class="node"><title>CallableView</title>
<polygon fill="none" stroke="black" points="788.093,-999 697.093,-999 697.093,-995 693.093,-995 693.093,-991 697.093,-991 697.093,-971 693.093,-971 693.093,-967 697.093,-967 697.093,-963 788.093,-963 788.093,-999"/>
<polyline fill="none" stroke="black" points="697.093,-995 701.093,-995 701.093,-991 697.093,-991 "/>
<polyline fill="none" stroke="black" points="697.093,-971 701.093,-971 701.093,-967 697.093,-967 "/>
<text text-anchor="middle" x="742.593" y="-977.3" font-family="Times,serif" font-size="14.00">CallableView</text>
</g>
<!-- CallableView&#45;&gt;Core_View -->
<g id="edge52" class="edge"><title>CallableView&#45;&gt;Core_View</title>
<path fill="none" stroke="black" d="M788.407,-989.631C818.749,-997.258 858.353,-1010.87 886.901,-1034 910.183,-1052.86 899.562,-1072.21 922.901,-1091 933.984,-1099.92 948.276,-1106.05 961.365,-1110.17"/>
<polygon fill="black" stroke="black" points="960.488,-1113.56 971.066,-1112.95 962.417,-1106.84 960.488,-1113.56"/>
</g>
<!-- DbManager -->
<g id="node31" class="node"><title>DbManager</title>
<polygon fill="none" stroke="black" points="783.593,-189 701.593,-189 701.593,-185 697.593,-185 697.593,-181 701.593,-181 701.593,-161 697.593,-161 697.593,-157 701.593,-157 701.593,-153 783.593,-153 783.593,-189"/>
<polyline fill="none" stroke="black" points="701.593,-185 705.593,-185 705.593,-181 701.593,-181 "/>
<polyline fill="none" stroke="black" points="701.593,-161 705.593,-161 705.593,-157 701.593,-157 "/>
<text text-anchor="middle" x="742.593" y="-167.3" font-family="Times,serif" font-size="14.00">DbManager</text>
</g>
<!-- DbManager&#45;&gt;Core_ComponentBase -->
<g id="edge72" class="edge"><title>DbManager&#45;&gt;Core_ComponentBase</title>
<path fill="none" stroke="black" stroke-dasharray="1,5" d="M783.807,-160.382C852.919,-144.802 994.419,-125.013 1073.64,-199 1199.06,-316.132 1206.97,-900.006 1207.1,-1035.76"/>
<polygon fill="black" stroke="black" points="1203.6,-1035.79 1207.09,-1045.79 1210.6,-1035.79 1203.6,-1035.79"/>
</g>
<!-- DbManager&#45;&gt;Db_Db -->
<g id="edge51" class="edge"><title>DbManager&#45;&gt;Db_Db</title>
<path fill="none" stroke="black" d="M783.789,-157.848C833.639,-141.538 917.692,-114.037 964.064,-98.865"/>
<polygon fill="black" stroke="black" points="965.219,-102.17 973.635,-95.7336 963.042,-95.5168 965.219,-102.17"/>
</g>
<!-- EmptyView -->
<g id="node32" class="node"><title>EmptyView</title>
<polygon fill="none" stroke="black" points="784.093,-945 701.093,-945 701.093,-941 697.093,-941 697.093,-937 701.093,-937 701.093,-917 697.093,-917 697.093,-913 701.093,-913 701.093,-909 784.093,-909 784.093,-945"/>
<polyline fill="none" stroke="black" points="701.093,-941 705.093,-941 705.093,-937 701.093,-937 "/>
<polyline fill="none" stroke="black" points="701.093,-917 705.093,-917 705.093,-913 701.093,-913 "/>
<text text-anchor="middle" x="742.593" y="-923.3" font-family="Times,serif" font-size="14.00">EmptyView</text>
</g>
<!-- EmptyView&#45;&gt;Core_View -->
<g id="edge53" class="edge"><title>EmptyView&#45;&gt;Core_View</title>
<path fill="none" stroke="black" d="M784.275,-923.721C816.166,-923.459 859.578,-928.545 886.901,-954 932.964,-996.915 880.461,-1044.5 922.901,-1091 932.885,-1101.94 947.653,-1108.45 961.403,-1112.33"/>
<polygon fill="black" stroke="black" points="960.608,-1115.74 971.153,-1114.71 962.269,-1108.94 960.608,-1115.74"/>
</g>
<!-- EventManager -->
<g id="node33" class="node"><title>EventManager</title>
<polygon fill="none" stroke="black" points="791.093,-351 694.093,-351 694.093,-347 690.093,-347 690.093,-343 694.093,-343 694.093,-323 690.093,-323 690.093,-319 694.093,-319 694.093,-315 791.093,-315 791.093,-351"/>
<polyline fill="none" stroke="black" points="694.093,-347 698.093,-347 698.093,-343 694.093,-343 "/>
<polyline fill="none" stroke="black" points="694.093,-323 698.093,-323 698.093,-319 694.093,-319 "/>
<text text-anchor="middle" x="742.593" y="-329.3" font-family="Times,serif" font-size="14.00">EventManager</text>
</g>
<!-- EventManager&#45;&gt;Core_ComponentBase -->
<g id="edge73" class="edge"><title>EventManager&#45;&gt;Core_ComponentBase</title>
<path fill="none" stroke="black" stroke-dasharray="1,5" d="M791.309,-322.063C862.525,-308.814 996.485,-296.235 1073.64,-367 1174.57,-459.563 1200.77,-916.981 1205.92,-1035.77"/>
<polygon fill="black" stroke="black" points="1202.42,-1036.04 1206.34,-1045.89 1209.42,-1035.75 1202.42,-1036.04"/>
</g>
<!-- FacadesAutoLoader -->
<g id="node34" class="node"><title>FacadesAutoLoader</title>
<polygon fill="none" stroke="black" points="1060.77,-849 935.771,-849 935.771,-845 931.771,-845 931.771,-841 935.771,-841 935.771,-821 931.771,-821 931.771,-817 935.771,-817 935.771,-813 1060.77,-813 1060.77,-849"/>
<polyline fill="none" stroke="black" points="935.771,-845 939.771,-845 939.771,-841 935.771,-841 "/>
<polyline fill="none" stroke="black" points="935.771,-821 939.771,-821 939.771,-817 935.771,-817 "/>
<text text-anchor="middle" x="998.271" y="-827.3" font-family="Times,serif" font-size="14.00">FacadesAutoLoader</text>
</g>
<!-- FacadesAutoLoader&#45;&gt;Core_ComponentBase -->
<g id="edge59" class="edge"><title>FacadesAutoLoader&#45;&gt;Core_ComponentBase</title>
<path fill="none" stroke="black" stroke-dasharray="1,5" d="M1051.92,-849.045C1059.64,-852.965 1067.17,-857.595 1073.64,-863 1132.69,-912.302 1175.66,-994.34 1195.22,-1036.75"/>
<polygon fill="black" stroke="black" points="1192.05,-1038.24 1199.36,-1045.91 1198.43,-1035.35 1192.05,-1038.24"/>
</g>
<!-- FacadesBase -->
<g id="node35" class="node"><title>FacadesBase</title>
<ellipse fill="none" stroke="black" cx="742.593" cy="-657" rx="55.7903" ry="18"/>
<text text-anchor="middle" x="742.593" y="-653.3" font-family="Times,serif" font-size="14.00">FacadesBase</text>
</g>
<!-- FacadesBase&#45;&gt;FacadesAutoLoader -->
<g id="edge55" class="edge"><title>FacadesBase&#45;&gt;FacadesAutoLoader</title>
<path fill="none" stroke="black" d="M798.006,-654.544C827.527,-656.066 862.802,-662.906 886.901,-684 925.29,-717.603 889.695,-754.267 922.901,-793 927.637,-798.525 933.374,-803.344 939.538,-807.521"/>
<polygon fill="black" stroke="black" points="937.804,-810.564 948.155,-812.827 941.475,-804.603 937.804,-810.564"/>
</g>
<!-- JsonRpcClientBase -->
<g id="node36" class="node"><title>JsonRpcClientBase</title>
<ellipse fill="none" stroke="black" cx="742.593" cy="-603" rx="79.0865" ry="18"/>
<text text-anchor="middle" x="742.593" y="-599.3" font-family="Times,serif" font-size="14.00">JsonRpcClientBase</text>
</g>
<!-- JsonRpcExt -->
<g id="node37" class="node"><title>JsonRpcExt</title>
<polygon fill="none" stroke="black" points="1038.77,-784 957.771,-784 957.771,-780 953.771,-780 953.771,-776 957.771,-776 957.771,-756 953.771,-756 953.771,-752 957.771,-752 957.771,-748 1038.77,-748 1038.77,-784"/>
<polyline fill="none" stroke="black" points="957.771,-780 961.771,-780 961.771,-776 957.771,-776 "/>
<polyline fill="none" stroke="black" points="957.771,-756 961.771,-756 961.771,-752 957.771,-752 "/>
<text text-anchor="middle" x="998.271" y="-762.3" font-family="Times,serif" font-size="14.00">JsonRpcExt</text>
</g>
<!-- JsonRpcClientBase&#45;&gt;JsonRpcExt -->
<g id="edge54" class="edge"><title>JsonRpcClientBase&#45;&gt;JsonRpcExt</title>
<path fill="none" stroke="black" d="M822.087,-603.856C845.012,-607.564 868.755,-615.195 886.901,-630 919.643,-656.714 895.905,-685.49 922.901,-718 930.724,-727.421 940.883,-735.628 951.165,-742.464"/>
<polygon fill="black" stroke="black" points="949.454,-745.522 959.783,-747.88 953.179,-739.595 949.454,-745.522"/>
</g>
<!-- JsonRpcExt&#45;&gt;Core_ComponentBase -->
<g id="edge60" class="edge"><title>JsonRpcExt&#45;&gt;Core_ComponentBase</title>
<path fill="none" stroke="black" stroke-dasharray="1,5" d="M1038.95,-780.637C1051.14,-786.525 1063.89,-794.267 1073.64,-804 1142.49,-872.744 1183.02,-984.412 1199.03,-1036.11"/>
<polygon fill="black" stroke="black" points="1195.74,-1037.34 1201.99,-1045.9 1202.44,-1035.32 1195.74,-1037.34"/>
</g>
<!-- Misc -->
<g id="node38" class="node"><title>Misc</title>
<polygon fill="none" stroke="black" points="769.593,-297 715.593,-297 715.593,-293 711.593,-293 711.593,-289 715.593,-289 715.593,-269 711.593,-269 711.593,-265 715.593,-265 715.593,-261 769.593,-261 769.593,-297"/>
<polyline fill="none" stroke="black" points="715.593,-293 719.593,-293 719.593,-289 715.593,-289 "/>
<polyline fill="none" stroke="black" points="715.593,-269 719.593,-269 719.593,-265 715.593,-265 "/>
<text text-anchor="middle" x="742.593" y="-275.3" font-family="Times,serif" font-size="14.00">Misc</text>
</g>
<!-- Misc&#45;&gt;Core_ComponentBase -->
<g id="edge62" class="edge"><title>Misc&#45;&gt;Core_ComponentBase</title>
<path fill="none" stroke="black" stroke-dasharray="1,5" d="M770.032,-271.943C832.048,-257.14 988.075,-230.348 1073.64,-309 1183.16,-409.662 1203.09,-910.047 1206.39,-1035.46"/>
<polygon fill="black" stroke="black" points="1202.89,-1035.86 1206.64,-1045.77 1209.89,-1035.68 1202.89,-1035.86"/>
</g>
<!-- Pager -->
<g id="node39" class="node"><title>Pager</title>
<polygon fill="none" stroke="black" points="769.593,-513 715.593,-513 715.593,-509 711.593,-509 711.593,-505 715.593,-505 715.593,-485 711.593,-485 711.593,-481 715.593,-481 715.593,-477 769.593,-477 769.593,-513"/>
<polyline fill="none" stroke="black" points="715.593,-509 719.593,-509 719.593,-505 715.593,-505 "/>
<polyline fill="none" stroke="black" points="715.593,-485 719.593,-485 719.593,-481 715.593,-481 "/>
<text text-anchor="middle" x="742.593" y="-491.3" font-family="Times,serif" font-size="14.00">Pager</text>
</g>
<!-- Pager&#45;&gt;Core_ComponentBase -->
<g id="edge61" class="edge"><title>Pager&#45;&gt;Core_ComponentBase</title>
<path fill="none" stroke="black" stroke-dasharray="1,5" d="M769.75,-493.288C839.585,-489.288 1028.2,-482.388 1073.64,-521 1154.12,-589.376 1194.12,-933.745 1204.32,-1035.59"/>
<polygon fill="black" stroke="black" points="1200.86,-1036.12 1205.32,-1045.73 1207.82,-1035.44 1200.86,-1036.12"/>
</g>
<!-- PagerInterface -->
<g id="node40" class="node"><title>PagerInterface</title>
<polygon fill="none" stroke="black" points="1039.77,-613 950.771,-613 950.771,-577 1045.77,-577 1045.77,-607 1039.77,-613"/>
<polyline fill="none" stroke="black" points="1039.77,-613 1039.77,-607 "/>
<polyline fill="none" stroke="black" points="1045.77,-607 1039.77,-607 "/>
<text text-anchor="middle" x="998.271" y="-591.3" font-family="Times,serif" font-size="14.00">PagerInterface</text>
</g>
<!-- Pager&#45;&gt;PagerInterface -->
<g id="edge56" class="edge"><title>Pager&#45;&gt;PagerInterface</title>
<path fill="none" stroke="black" d="M769.835,-496.808C799.26,-499.542 847.954,-506.205 886.901,-522 916.408,-533.967 946.317,-554.374 967.543,-570.574"/>
<polygon fill="black" stroke="black" points="965.473,-573.398 975.516,-576.774 969.77,-567.872 965.473,-573.398"/>
</g>
<!-- RedisManager -->
<g id="node41" class="node"><title>RedisManager</title>
<polygon fill="none" stroke="black" points="1046.27,-709 950.271,-709 950.271,-705 946.271,-705 946.271,-701 950.271,-701 950.271,-681 946.271,-681 946.271,-677 950.271,-677 950.271,-673 1046.27,-673 1046.27,-709"/>
<polyline fill="none" stroke="black" points="950.271,-705 954.271,-705 954.271,-701 950.271,-701 "/>
<polyline fill="none" stroke="black" points="950.271,-681 954.271,-681 954.271,-677 950.271,-677 "/>
<text text-anchor="middle" x="998.271" y="-687.3" font-family="Times,serif" font-size="14.00">RedisManager</text>
</g>
<!-- RedisManager&#45;&gt;Core_ComponentBase -->
<g id="edge64" class="edge"><title>RedisManager&#45;&gt;Core_ComponentBase</title>
<path fill="none" stroke="black" stroke-dasharray="1,5" d="M1036.75,-709.126C1049.78,-716.877 1063.62,-726.946 1073.64,-739 1150.88,-831.913 1188.43,-975.649 1201.47,-1035.91"/>
<polygon fill="black" stroke="black" points="1198.07,-1036.76 1203.55,-1045.83 1204.92,-1035.32 1198.07,-1036.76"/>
</g>
<!-- RedisSimpleCache -->
<g id="node42" class="node"><title>RedisSimpleCache</title>
<polygon fill="none" stroke="black" points="802.593,-567 682.593,-567 682.593,-563 678.593,-563 678.593,-559 682.593,-559 682.593,-539 678.593,-539 678.593,-535 682.593,-535 682.593,-531 802.593,-531 802.593,-567"/>
<polyline fill="none" stroke="black" points="682.593,-563 686.593,-563 686.593,-559 682.593,-559 "/>
<polyline fill="none" stroke="black" points="682.593,-539 686.593,-539 686.593,-535 682.593,-535 "/>
<text text-anchor="middle" x="742.593" y="-545.3" font-family="Times,serif" font-size="14.00">RedisSimpleCache</text>
</g>
<!-- RedisSimpleCache&#45;&gt;Core_ComponentBase -->
<g id="edge63" class="edge"><title>RedisSimpleCache&#45;&gt;Core_ComponentBase</title>
<path fill="none" stroke="black" stroke-dasharray="1,5" d="M802.773,-533.543C875.106,-518.471 997.279,-505.89 1073.64,-568 1148.33,-628.746 1191.89,-939.892 1203.7,-1035.81"/>
<polygon fill="black" stroke="black" points="1200.25,-1036.41 1204.93,-1045.92 1207.2,-1035.57 1200.25,-1036.41"/>
</g>
<!-- RedisSimpleCache&#45;&gt;RedisManager -->
<g id="edge57" class="edge"><title>RedisSimpleCache&#45;&gt;RedisManager</title>
<path fill="none" stroke="black" d="M802.781,-550.699C830.033,-553.763 861.81,-560.738 886.901,-576 909.08,-589.492 905.329,-602.889 922.901,-622 937.083,-637.425 954.145,-653.415 968.347,-666.114"/>
<polygon fill="black" stroke="black" points="966.099,-668.798 975.907,-672.805 970.739,-663.556 966.099,-668.798"/>
</g>
<!-- RouteHookDirectoryMode -->
<g id="node43" class="node"><title>RouteHookDirectoryMode</title>
<polygon fill="none" stroke="black" points="824.093,-243 661.093,-243 661.093,-239 657.093,-239 657.093,-235 661.093,-235 661.093,-215 657.093,-215 657.093,-211 661.093,-211 661.093,-207 824.093,-207 824.093,-243"/>
<polyline fill="none" stroke="black" points="661.093,-239 665.093,-239 665.093,-235 661.093,-235 "/>
<polyline fill="none" stroke="black" points="661.093,-215 665.093,-215 665.093,-211 661.093,-211 "/>
<text text-anchor="middle" x="742.593" y="-221.3" font-family="Times,serif" font-size="14.00">RouteHookDirectoryMode</text>
</g>
<!-- RouteHookDirectoryMode&#45;&gt;Core_ComponentBase -->
<g id="edge67" class="edge"><title>RouteHookDirectoryMode&#45;&gt;Core_ComponentBase</title>
<path fill="none" stroke="black" stroke-dasharray="1,5" d="M822.687,-206.994C897.19,-195.097 1007.03,-191.415 1073.64,-253 1191.35,-361.832 1205.16,-904.426 1206.78,-1035.48"/>
<polygon fill="black" stroke="black" points="1203.28,-1035.9 1206.89,-1045.87 1210.28,-1035.83 1203.28,-1035.9"/>
</g>
<!-- RouteHookManager -->
<g id="node44" class="node"><title>RouteHookManager</title>
<polygon fill="none" stroke="black" points="806.593,-459 678.593,-459 678.593,-455 674.593,-455 674.593,-451 678.593,-451 678.593,-431 674.593,-431 674.593,-427 678.593,-427 678.593,-423 806.593,-423 806.593,-459"/>
<polyline fill="none" stroke="black" points="678.593,-455 682.593,-455 682.593,-451 678.593,-451 "/>
<polyline fill="none" stroke="black" points="678.593,-431 682.593,-431 682.593,-427 678.593,-427 "/>
<text text-anchor="middle" x="742.593" y="-437.3" font-family="Times,serif" font-size="14.00">RouteHookManager</text>
</g>
<!-- RouteHookManager&#45;&gt;Core_ComponentBase -->
<g id="edge68" class="edge"><title>RouteHookManager&#45;&gt;Core_ComponentBase</title>
<path fill="none" stroke="black" stroke-dasharray="1,5" d="M806.721,-430.495C880.42,-422.093 1001.4,-420.897 1073.64,-487 1156.61,-562.918 1195.15,-930.421 1204.61,-1035.74"/>
<polygon fill="black" stroke="black" points="1201.15,-1036.26 1205.51,-1045.91 1208.12,-1035.64 1201.15,-1036.26"/>
</g>
<!-- RouteHookPathInfoByGet -->
<g id="node45" class="node"><title>RouteHookPathInfoByGet</title>
<polygon fill="none" stroke="black" points="823.093,-783 662.093,-783 662.093,-779 658.093,-779 658.093,-775 662.093,-775 662.093,-755 658.093,-755 658.093,-751 662.093,-751 662.093,-747 823.093,-747 823.093,-783"/>
<polyline fill="none" stroke="black" points="662.093,-779 666.093,-779 666.093,-775 662.093,-775 "/>
<polyline fill="none" stroke="black" points="662.093,-755 666.093,-755 666.093,-751 662.093,-751 "/>
<text text-anchor="middle" x="742.593" y="-761.3" font-family="Times,serif" font-size="14.00">RouteHookPathInfoByGet</text>
</g>
<!-- RouteHookPathInfoByGet&#45;&gt;Core_ComponentBase -->
<g id="edge69" class="edge"><title>RouteHookPathInfoByGet&#45;&gt;Core_ComponentBase</title>
<path fill="none" stroke="black" stroke-dasharray="1,5" d="M823.096,-764.685C846.066,-768.342 869.58,-776.238 886.901,-792 929.66,-830.911 881.091,-877.07 922.901,-917 972.713,-964.573 1012.05,-922.155 1073.64,-953 1116.84,-974.637 1158.26,-1012.74 1183.17,-1038.18"/>
<polygon fill="black" stroke="black" points="1180.89,-1040.86 1190.35,-1045.63 1185.93,-1036 1180.89,-1040.86"/>
</g>
<!-- RouteHookRewrite -->
<g id="node46" class="node"><title>RouteHookRewrite</title>
<polygon fill="none" stroke="black" points="803.593,-891 681.593,-891 681.593,-887 677.593,-887 677.593,-883 681.593,-883 681.593,-863 677.593,-863 677.593,-859 681.593,-859 681.593,-855 803.593,-855 803.593,-891"/>
<polyline fill="none" stroke="black" points="681.593,-887 685.593,-887 685.593,-883 681.593,-883 "/>
<polyline fill="none" stroke="black" points="681.593,-863 685.593,-863 685.593,-859 681.593,-859 "/>
<text text-anchor="middle" x="742.593" y="-869.3" font-family="Times,serif" font-size="14.00">RouteHookRewrite</text>
</g>
<!-- RouteHookRewrite&#45;&gt;Core_ComponentBase -->
<g id="edge70" class="edge"><title>RouteHookRewrite&#45;&gt;Core_ComponentBase</title>
<path fill="none" stroke="black" stroke-dasharray="1,5" d="M803.931,-871.489C831.927,-873.773 863.996,-881.018 886.901,-900 920.708,-928.017 889.978,-962.949 922.901,-992 939.559,-1006.7 1065.72,-1034.86 1144.22,-1051.26"/>
<polygon fill="black" stroke="black" points="1143.99,-1054.79 1154.49,-1053.4 1145.41,-1047.94 1143.99,-1054.79"/>
</g>
<!-- RouteHookRouteMap -->
<g id="node47" class="node"><title>RouteHookRouteMap</title>
<polygon fill="none" stroke="black" points="811.093,-837 674.093,-837 674.093,-833 670.093,-833 670.093,-829 674.093,-829 674.093,-809 670.093,-809 670.093,-805 674.093,-805 674.093,-801 811.093,-801 811.093,-837"/>
<polyline fill="none" stroke="black" points="674.093,-833 678.093,-833 678.093,-829 674.093,-829 "/>
<polyline fill="none" stroke="black" points="674.093,-809 678.093,-809 678.093,-805 674.093,-805 "/>
<text text-anchor="middle" x="742.593" y="-815.3" font-family="Times,serif" font-size="14.00">RouteHookRouteMap</text>
</g>
<!-- RouteHookRouteMap&#45;&gt;Core_ComponentBase -->
<g id="edge71" class="edge"><title>RouteHookRouteMap&#45;&gt;Core_ComponentBase</title>
<path fill="none" stroke="black" stroke-dasharray="1,5" d="M811.224,-817.638C837.548,-820.438 866.276,-828.048 886.901,-846 924.747,-878.942 886.178,-918.81 922.901,-953 973.549,-1000.16 1009.23,-966.709 1073.64,-992 1107.38,-1005.25 1143.42,-1025.08 1169.52,-1040.59"/>
<polygon fill="black" stroke="black" points="1167.94,-1043.72 1178.31,-1045.87 1171.54,-1037.72 1167.94,-1043.72"/>
</g>
<!-- StrictCheck -->
<g id="node48" class="node"><title>StrictCheck</title>
<polygon fill="none" stroke="black" points="1038.27,-908 958.271,-908 958.271,-904 954.271,-904 954.271,-900 958.271,-900 958.271,-880 954.271,-880 954.271,-876 958.271,-876 958.271,-872 1038.27,-872 1038.27,-908"/>
<polyline fill="none" stroke="black" points="958.271,-904 962.271,-904 962.271,-900 958.271,-900 "/>
<polyline fill="none" stroke="black" points="958.271,-880 962.271,-880 962.271,-876 958.271,-876 "/>
<text text-anchor="middle" x="998.271" y="-886.3" font-family="Times,serif" font-size="14.00">StrictCheck</text>
</g>
<!-- StrictCheck&#45;&gt;Core_ComponentBase -->
<g id="edge66" class="edge"><title>StrictCheck&#45;&gt;Core_ComponentBase</title>
<path fill="none" stroke="black" stroke-dasharray="1,5" d="M1038.6,-905.257C1050.38,-910.665 1062.98,-917.34 1073.64,-925 1119.32,-957.817 1162.54,-1007.51 1186.81,-1037.74"/>
<polygon fill="black" stroke="black" points="1184.18,-1040.06 1193.14,-1045.72 1189.67,-1035.71 1184.18,-1040.06"/>
</g>
<!-- StrictCheckObjectTrait -->
<g id="node49" class="node"><title>StrictCheckObjectTrait</title>
<polygon fill="none" stroke="black" points="742.593,-729 611.214,-711 742.593,-693 873.972,-711 742.593,-729"/>
<text text-anchor="middle" x="742.593" y="-707.3" font-family="Times,serif" font-size="14.00">StrictCheckObjectTrait</text>
</g>
<!-- StrictCheckObjectTrait&#45;&gt;StrictCheck -->
<g id="edge58" class="edge"><title>StrictCheckObjectTrait&#45;&gt;StrictCheck</title>
<path fill="none" stroke="black" d="M843.448,-715.278C859.409,-719.833 874.668,-726.992 886.901,-738 928.29,-775.248 885.853,-816.432 922.901,-858 929.917,-865.872 939.208,-871.879 948.838,-876.437"/>
<polygon fill="black" stroke="black" points="947.54,-879.688 958.112,-880.377 950.277,-873.245 947.54,-879.688"/>
</g>
<!-- HttpServer -->
<g id="node50" class="node"><title>HttpServer</title>
<polygon fill="lightgrey" stroke="black" points="325.909,-790 256.197,-772 325.909,-754 395.621,-772 325.909,-790"/>
<polyline fill="none" stroke="black" points="267.816,-775 267.816,-769 "/>
<polyline fill="none" stroke="black" points="314.29,-757 337.528,-757 "/>
<polyline fill="none" stroke="black" points="384.002,-769 384.002,-775 "/>
<polyline fill="none" stroke="black" points="337.528,-787 314.29,-787 "/>
<text text-anchor="middle" x="325.909" y="-768.3" font-family="Times,serif" font-size="14.00">HttpServer</text>
</g>
<!-- HttpServer&#45;&gt;Core_HttpServer -->
<g id="edge74" class="edge"><title>HttpServer&#45;&gt;Core_HttpServer</title>
<path fill="none" stroke="black" d="M336.976,-787.526C368.629,-834.8 471.598,-977.207 598.285,-1034 711.876,-1084.92 861.948,-1079.25 941.765,-1071.27"/>
<polygon fill="black" stroke="black" points="942.502,-1074.71 952.081,-1070.18 941.77,-1067.75 942.502,-1074.71"/>
</g>
<!-- DuckPhp -->
<g id="node51" class="node"><title>DuckPhp</title>
<polygon fill="lightgrey" stroke="black" points="325.909,-736 264.242,-718 325.909,-700 387.576,-718 325.909,-736"/>
<polyline fill="none" stroke="black" points="275.761,-721.362 275.761,-714.638 "/>
<polyline fill="none" stroke="black" points="314.39,-703.362 337.428,-703.362 "/>
<polyline fill="none" stroke="black" points="376.057,-714.638 376.057,-721.362 "/>
<polyline fill="none" stroke="black" points="337.428,-732.638 314.39,-732.638 "/>
<text text-anchor="middle" x="325.909" y="-714.3" font-family="Times,serif" font-size="14.00">DuckPhp</text>
</g>
<!-- DuckPhp&#45;&gt;Core_App -->
<g id="edge75" class="edge"><title>DuckPhp&#45;&gt;Core_App</title>
<path fill="none" stroke="black" d="M371.144,-722.963C384.915,-726.789 398.753,-733.452 407.441,-745 438.733,-786.591 411.551,-1163.44 427.441,-1213 438.373,-1247.1 463.139,-1280.75 480.182,-1301.2"/>
<polygon fill="black" stroke="black" points="477.575,-1303.54 486.73,-1308.87 482.898,-1298.99 477.575,-1303.54"/>
</g>
<!-- DuckPhp&#45;&gt;Cache -->
<g id="edge81" class="edge"><title>DuckPhp&#45;&gt;Cache</title>
<path fill="none" stroke="black" d="M339.571,-703.826C358.599,-682.541 395.72,-641.077 427.441,-606 487.127,-540 504.125,-525.348 562.285,-458 578.799,-438.877 576.557,-426.896 598.285,-414 631.004,-394.581 674.694,-388.657 705.199,-387.075"/>
<polygon fill="black" stroke="black" points="705.542,-390.565 715.399,-386.682 705.272,-383.57 705.542,-390.565"/>
</g>
<!-- DuckPhp&#45;&gt;DbManager -->
<g id="edge78" class="edge"><title>DuckPhp&#45;&gt;DbManager</title>
<path fill="none" stroke="black" d="M328.854,-700.503C335.381,-647.389 360.016,-484.649 427.441,-370 482.062,-277.125 503.091,-248.47 598.285,-198 626.873,-182.843 662.634,-176.091 691.281,-173.129"/>
<polygon fill="black" stroke="black" points="691.845,-176.592 701.487,-172.2 691.211,-169.621 691.845,-176.592"/>
</g>
<!-- DuckPhp&#45;&gt;EventManager -->
<g id="edge79" class="edge"><title>DuckPhp&#45;&gt;EventManager</title>
<path fill="none" stroke="black" d="M329.483,-700.776C336.975,-655.902 362.496,-533.639 427.441,-458 493.318,-381.276 612.801,-351.207 683.907,-339.745"/>
<polygon fill="black" stroke="black" points="684.684,-343.167 694.035,-338.186 683.618,-336.249 684.684,-343.167"/>
</g>
<!-- DuckPhp&#45;&gt;Pager -->
<g id="edge77" class="edge"><title>DuckPhp&#45;&gt;Pager</title>
<path fill="none" stroke="black" d="M360.645,-710.108C410.837,-696.758 505.356,-665.207 562.285,-606 590.437,-576.721 566.602,-547.415 598.285,-522 628.537,-497.733 673.896,-492.84 705.452,-492.824"/>
<polygon fill="black" stroke="black" points="705.528,-496.326 715.582,-492.985 705.639,-489.327 705.528,-496.326"/>
</g>
<!-- DuckPhp&#45;&gt;RouteHookPathInfoByGet -->
<g id="edge80" class="edge"><title>DuckPhp&#45;&gt;RouteHookPathInfoByGet</title>
<path fill="none" stroke="black" d="M370.895,-722.985C437.463,-730.53 565.21,-745.009 651.917,-754.836"/>
<polygon fill="black" stroke="black" points="651.687,-758.332 662.017,-755.981 652.475,-751.377 651.687,-758.332"/>
</g>
<!-- DuckPhp&#45;&gt;RouteHookRouteMap -->
<g id="edge76" class="edge"><title>DuckPhp&#45;&gt;RouteHookRouteMap</title>
<path fill="none" stroke="black" d="M355.639,-727.53C371.022,-732.659 390.283,-739.121 407.441,-745 416.351,-748.052 418.399,-749.367 427.441,-752 502.316,-773.801 521.984,-775.888 598.285,-792 619.563,-796.493 642.696,-801.011 664.043,-805.031"/>
<polygon fill="black" stroke="black" points="663.564,-808.502 674.037,-806.901 664.852,-801.621 663.564,-808.502"/>
</g>
</g>
</svg>
