<?xml version="1.0" encoding="UTF-8" standalone="no"?>
<!DOCTYPE svg PUBLIC "-//W3C//DTD SVG 1.1//EN"
 "http://www.w3.org/Graphics/SVG/1.1/DTD/svg11.dtd">
<!-- Generated by graphviz version 2.38.0 (20140413.2041)
 -->
<!-- Title: gDuckPhp Pages: 1 -->
<svg width="1441pt" height="1696pt"
 viewBox="0.00 0.00 1441.03 1696.00" xmlns="http://www.w3.org/2000/svg" xmlns:xlink="http://www.w3.org/1999/xlink">
<g id="graph0" class="graph" transform="scale(1 1) rotate(0) translate(4 1692)">
<title>gDuckPhp</title>
<polygon fill="white" stroke="none" points="-4,4 -4,-1692 1437.03,-1692 1437.03,4 -4,4"/>
<g id="clust1" class="cluster"><title>cluster_SingletonEx</title>
<polygon fill="none" stroke="black" points="31.8981,-580 31.8981,-655 200.478,-655 200.478,-580 31.8981,-580"/>
<text text-anchor="middle" x="116.188" y="-639.8" font-family="Times,serif" font-size="14.00">[DuckPhp\SingletonEx]</text>
</g>
<g id="clust2" class="cluster"><title>cluster_Core</title>
<polygon fill="none" stroke="black" points="427.441,-1146 427.441,-1619 1425.03,-1619 1425.03,-1146 427.441,-1146"/>
<text text-anchor="middle" x="926.236" y="-1603.8" font-family="Times,serif" font-size="14.00">[DuckPhp\Core]</text>
</g>
<g id="clust3" class="cluster"><title>cluster_Helper</title>
<polygon fill="none" stroke="black" points="8,-1223 8,-1514 407.441,-1514 407.441,-1223 8,-1223"/>
<text text-anchor="middle" x="207.721" y="-1498.8" font-family="Times,serif" font-size="14.00">[DuckPhp\Helper]</text>
</g>
<g id="clust4" class="cluster"><title>cluster_Db</title>
<polygon fill="none" stroke="black" points="906.628,-8 906.628,-137 1261.03,-137 1261.03,-8 906.628,-8"/>
<text text-anchor="middle" x="1083.83" y="-121.8" font-family="Times,serif" font-size="14.00">[DuckPhp\Db]</text>
</g>
<g id="clust5" class="cluster"><title>cluster_Ext</title>
<polygon fill="none" stroke="black" points="596.782,-145 596.782,-1138 1015.46,-1138 1015.46,-145 596.782,-145"/>
<text text-anchor="middle" x="806.121" y="-1122.8" font-family="Times,serif" font-size="14.00">[DuckPhp\Ext]</text>
</g>
<g id="clust6" class="cluster"><title>cluster_DuckPhp</title>
<polygon fill="none" stroke="black" points="256.325,-361 256.325,-436 395.492,-436 395.492,-361 256.325,-361"/>
<text text-anchor="middle" x="325.909" y="-420.8" font-family="Times,serif" font-size="14.00">[DuckPhp]</text>
</g>
<g id="clust7" class="cluster"><title>cluster_HttpServer</title>
<polygon fill="none" stroke="black" points="38.3322,-1522 38.3322,-1597 194.044,-1597 194.044,-1522 38.3322,-1522"/>
<text text-anchor="middle" x="116.188" y="-1581.8" font-family="Times,serif" font-size="14.00">[DuckPhp\HttpServer]</text>
</g>
<g id="clust8" class="cluster"><title>cluster_ThrowOn</title>
<polygon fill="none" stroke="black" points="44.7663,-1605 44.7663,-1680 187.61,-1680 187.61,-1605 44.7663,-1605"/>
<text text-anchor="middle" x="116.188" y="-1664.8" font-family="Times,serif" font-size="14.00">[DuckPhp\ThrowOn]</text>
</g>
<!-- SingletonEx -->
<g id="node1" class="node"><title>SingletonEx</title>
<polygon fill="lightgrey" stroke="black" points="116.188,-624 40.1075,-606 116.188,-588 192.269,-606 116.188,-624"/>
<polyline fill="none" stroke="black" points="51.7851,-608.763 51.7851,-603.237 "/>
<polyline fill="none" stroke="black" points="104.511,-590.763 127.866,-590.763 "/>
<polyline fill="none" stroke="black" points="180.591,-603.237 180.591,-608.763 "/>
<polyline fill="none" stroke="black" points="127.866,-621.237 104.511,-621.237 "/>
<text text-anchor="middle" x="116.188" y="-602.3" font-family="Times,serif" font-size="14.00">SingletonEx</text>
</g>
<!-- Core_AppPluginTrait -->
<g id="node2" class="node"><title>Core_AppPluginTrait</title>
<polygon fill="none" stroke="black" points="689.282,-1338 596.612,-1320 689.282,-1302 781.952,-1320 689.282,-1338"/>
<text text-anchor="middle" x="689.282" y="-1316.3" font-family="Times,serif" font-size="14.00">AppPluginTrait</text>
</g>
<!-- Core_View -->
<g id="node7" class="node"><title>Core_View</title>
<polygon fill="none" stroke="black" points="971.96,-1190 917.96,-1190 917.96,-1186 913.96,-1186 913.96,-1182 917.96,-1182 917.96,-1162 913.96,-1162 913.96,-1158 917.96,-1158 917.96,-1154 971.96,-1154 971.96,-1190"/>
<polyline fill="none" stroke="black" points="917.96,-1186 921.96,-1186 921.96,-1182 917.96,-1182 "/>
<polyline fill="none" stroke="black" points="917.96,-1162 921.96,-1162 921.96,-1158 917.96,-1158 "/>
<text text-anchor="middle" x="944.96" y="-1168.3" font-family="Times,serif" font-size="14.00">View</text>
</g>
<!-- Core_AppPluginTrait&#45;&gt;Core_View -->
<g id="edge23" class="edge"><title>Core_AppPluginTrait&#45;&gt;Core_View</title>
<path fill="none" stroke="black" d="M744.732,-1312.65C773.905,-1306.32 808.83,-1294.61 833.589,-1273 861.147,-1248.95 842.412,-1223.48 869.589,-1199 880.245,-1189.4 894.576,-1183.14 907.815,-1179.1"/>
<polygon fill="black" stroke="black" points="908.92,-1182.42 917.646,-1176.41 907.077,-1175.67 908.92,-1182.42"/>
</g>
<!-- Core_Configer -->
<g id="node8" class="node"><title>Core_Configer</title>
<polygon fill="none" stroke="black" points="977.46,-1244 912.46,-1244 912.46,-1240 908.46,-1240 908.46,-1236 912.46,-1236 912.46,-1216 908.46,-1216 908.46,-1212 912.46,-1212 912.46,-1208 977.46,-1208 977.46,-1244"/>
<polyline fill="none" stroke="black" points="912.46,-1240 916.46,-1240 916.46,-1236 912.46,-1236 "/>
<polyline fill="none" stroke="black" points="912.46,-1216 916.46,-1216 916.46,-1212 912.46,-1212 "/>
<text text-anchor="middle" x="944.96" y="-1222.3" font-family="Times,serif" font-size="14.00">Configer</text>
</g>
<!-- Core_AppPluginTrait&#45;&gt;Core_Configer -->
<g id="edge22" class="edge"><title>Core_AppPluginTrait&#45;&gt;Core_Configer</title>
<path fill="none" stroke="black" d="M751.105,-1313.96C777.629,-1309.47 808.36,-1301.64 833.589,-1288 853.221,-1277.39 850.68,-1264.85 869.589,-1253 879.672,-1246.68 891.447,-1241.55 902.614,-1237.52"/>
<polygon fill="black" stroke="black" points="903.868,-1240.79 912.213,-1234.26 901.619,-1234.16 903.868,-1240.79"/>
</g>
<!-- Core_Route -->
<g id="node10" class="node"><title>Core_Route</title>
<polygon fill="lightgrey" stroke="black" points="944.96,-1298 899.883,-1280 944.96,-1262 990.038,-1280 944.96,-1298"/>
<polyline fill="none" stroke="black" points="911.027,-1284.45 911.027,-1275.55 "/>
<polyline fill="none" stroke="black" points="933.816,-1266.45 956.105,-1266.45 "/>
<polyline fill="none" stroke="black" points="978.893,-1275.55 978.893,-1284.45 "/>
<polyline fill="none" stroke="black" points="956.105,-1293.55 933.816,-1293.55 "/>
<text text-anchor="middle" x="944.96" y="-1276.3" font-family="Times,serif" font-size="14.00">Route</text>
</g>
<!-- Core_AppPluginTrait&#45;&gt;Core_Route -->
<g id="edge24" class="edge"><title>Core_AppPluginTrait&#45;&gt;Core_Route</title>
<path fill="none" stroke="black" d="M741.008,-1312C788.26,-1304.55 857.875,-1293.57 902.055,-1286.61"/>
<polygon fill="black" stroke="black" points="902.833,-1290.03 912.166,-1285.01 901.743,-1283.11 902.833,-1290.03"/>
</g>
<!-- Core_SuperGlobal -->
<g id="node13" class="node"><title>Core_SuperGlobal</title>
<polygon fill="none" stroke="black" points="987.46,-1352 902.46,-1352 902.46,-1348 898.46,-1348 898.46,-1344 902.46,-1344 902.46,-1324 898.46,-1324 898.46,-1320 902.46,-1320 902.46,-1316 987.46,-1316 987.46,-1352"/>
<polyline fill="none" stroke="black" points="902.46,-1348 906.46,-1348 906.46,-1344 902.46,-1344 "/>
<polyline fill="none" stroke="black" points="902.46,-1324 906.46,-1324 906.46,-1320 902.46,-1320 "/>
<text text-anchor="middle" x="944.96" y="-1330.3" font-family="Times,serif" font-size="14.00">SuperGlobal</text>
</g>
<!-- Core_AppPluginTrait&#45;&gt;Core_SuperGlobal -->
<g id="edge25" class="edge"><title>Core_AppPluginTrait&#45;&gt;Core_SuperGlobal</title>
<path fill="none" stroke="black" d="M761.959,-1323.96C803.341,-1326.24 854.453,-1329.06 891.966,-1331.13"/>
<polygon fill="black" stroke="black" points="891.989,-1334.64 902.167,-1331.69 892.375,-1327.65 891.989,-1334.64"/>
</g>
<!-- Core_App -->
<g id="node3" class="node"><title>Core_App</title>
<polygon fill="lightgrey" stroke="black" points="472.208,-1395 435.674,-1377 472.208,-1359 508.742,-1377 472.208,-1395"/>
<polyline fill="none" stroke="black" points="446.438,-1382.3 446.438,-1371.7 "/>
<polyline fill="none" stroke="black" points="461.443,-1364.3 482.972,-1364.3 "/>
<polyline fill="none" stroke="black" points="497.977,-1371.7 497.977,-1382.3 "/>
<polyline fill="none" stroke="black" points="482.972,-1389.7 461.443,-1389.7 "/>
<text text-anchor="middle" x="472.208" y="-1373.3" font-family="Times,serif" font-size="14.00">App</text>
</g>
<!-- Core_Kernel -->
<g id="node4" class="node"><title>Core_Kernel</title>
<polygon fill="none" stroke="black" points="689.282,-1432 640.35,-1414 689.282,-1396 738.213,-1414 689.282,-1432"/>
<text text-anchor="middle" x="689.282" y="-1410.3" font-family="Times,serif" font-size="14.00">Kernel</text>
</g>
<!-- Core_App&#45;&gt;Core_Kernel -->
<g id="edge9" class="edge"><title>Core_App&#45;&gt;Core_Kernel</title>
<path fill="none" stroke="black" d="M499.58,-1381.54C535.926,-1387.79 601.845,-1399.13 645.349,-1406.61"/>
<polygon fill="black" stroke="black" points="644.905,-1410.09 655.353,-1408.34 646.091,-1403.19 644.905,-1410.09"/>
</g>
<!-- Core_AutoLoader -->
<g id="node5" class="node"><title>Core_AutoLoader</title>
<polygon fill="lightgrey" stroke="black" points="944.96,-1568 869.718,-1550 944.96,-1532 1020.2,-1550 944.96,-1568"/>
<polyline fill="none" stroke="black" points="881.389,-1552.79 881.389,-1547.21 "/>
<polyline fill="none" stroke="black" points="933.29,-1534.79 956.631,-1534.79 "/>
<polyline fill="none" stroke="black" points="1008.53,-1547.21 1008.53,-1552.79 "/>
<polyline fill="none" stroke="black" points="956.631,-1565.21 933.29,-1565.21 "/>
<text text-anchor="middle" x="944.96" y="-1546.3" font-family="Times,serif" font-size="14.00">AutoLoader</text>
</g>
<!-- Core_App&#45;&gt;Core_AutoLoader -->
<g id="edge12" class="edge"><title>Core_App&#45;&gt;Core_AutoLoader</title>
<path fill="none" stroke="black" stroke-dasharray="5,2" d="M477.906,-1392.54C486.566,-1418.25 507.66,-1469.15 544.974,-1493 599.411,-1527.79 769.795,-1517.79 833.589,-1528 853.786,-1531.23 875.922,-1535.5 895.032,-1539.42"/>
<polygon fill="black" stroke="black" points="894.512,-1542.88 905.015,-1541.49 895.933,-1536.03 894.512,-1542.88"/>
</g>
<!-- Core_ExceptionManager -->
<g id="node6" class="node"><title>Core_ExceptionManager</title>
<polygon fill="none" stroke="black" points="1004.96,-1460 884.96,-1460 884.96,-1456 880.96,-1456 880.96,-1452 884.96,-1452 884.96,-1432 880.96,-1432 880.96,-1428 884.96,-1428 884.96,-1424 1004.96,-1424 1004.96,-1460"/>
<polyline fill="none" stroke="black" points="884.96,-1456 888.96,-1456 888.96,-1452 884.96,-1452 "/>
<polyline fill="none" stroke="black" points="884.96,-1432 888.96,-1432 888.96,-1428 884.96,-1428 "/>
<text text-anchor="middle" x="944.96" y="-1438.3" font-family="Times,serif" font-size="14.00">ExceptionManager</text>
</g>
<!-- Core_App&#45;&gt;Core_ExceptionManager -->
<g id="edge15" class="edge"><title>Core_App&#45;&gt;Core_ExceptionManager</title>
<path fill="none" stroke="black" stroke-dasharray="5,2" d="M481.019,-1390.79C492.36,-1409.23 515.313,-1441.1 544.974,-1454 652.756,-1500.88 792.851,-1480.38 875.134,-1461.2"/>
<polygon fill="black" stroke="black" points="875.963,-1464.6 884.876,-1458.87 874.336,-1457.79 875.963,-1464.6"/>
</g>
<!-- Core_App&#45;&gt;Core_View -->
<g id="edge18" class="edge"><title>Core_App&#45;&gt;Core_View</title>
<path fill="none" stroke="black" stroke-dasharray="5,2" d="M475.231,-1360.33C480.251,-1327.02 496.59,-1252.59 544.974,-1219 571.38,-1200.67 801.827,-1203.95 833.589,-1199 858.829,-1195.07 886.775,-1188.21 908.231,-1182.38"/>
<polygon fill="black" stroke="black" points="909.194,-1185.75 917.9,-1179.71 907.329,-1179 909.194,-1185.75"/>
</g>
<!-- Core_App&#45;&gt;Core_Configer -->
<g id="edge13" class="edge"><title>Core_App&#45;&gt;Core_Configer</title>
<path fill="none" stroke="black" stroke-dasharray="5,2" d="M480.457,-1362.96C491.44,-1343.36 514.308,-1308.44 544.974,-1293 602.396,-1264.09 771.949,-1291.27 833.589,-1273 851.138,-1267.8 852.935,-1260.59 869.589,-1253 880.116,-1248.2 891.765,-1243.64 902.66,-1239.67"/>
<polygon fill="black" stroke="black" points="904.148,-1242.86 912.398,-1236.21 901.804,-1236.26 904.148,-1242.86"/>
</g>
<!-- Core_Logger -->
<g id="node9" class="node"><title>Core_Logger</title>
<polygon fill="none" stroke="black" points="972.96,-1514 916.96,-1514 916.96,-1510 912.96,-1510 912.96,-1506 916.96,-1506 916.96,-1486 912.96,-1486 912.96,-1482 916.96,-1482 916.96,-1478 972.96,-1478 972.96,-1514"/>
<polyline fill="none" stroke="black" points="916.96,-1510 920.96,-1510 920.96,-1506 916.96,-1506 "/>
<polyline fill="none" stroke="black" points="916.96,-1486 920.96,-1486 920.96,-1482 916.96,-1482 "/>
<text text-anchor="middle" x="944.96" y="-1492.3" font-family="Times,serif" font-size="14.00">Logger</text>
</g>
<!-- Core_App&#45;&gt;Core_Logger -->
<g id="edge14" class="edge"><title>Core_App&#45;&gt;Core_Logger</title>
<path fill="none" stroke="black" stroke-dasharray="5,2" d="M479.155,-1391.73C489.057,-1414.06 511.23,-1455.81 544.974,-1474 606.671,-1507.26 819.561,-1501.72 906.517,-1497.91"/>
<polygon fill="black" stroke="black" points="906.89,-1501.4 916.72,-1497.45 906.571,-1494.4 906.89,-1501.4"/>
</g>
<!-- Core_App&#45;&gt;Core_Route -->
<g id="edge16" class="edge"><title>Core_App&#45;&gt;Core_Route</title>
<path fill="none" stroke="black" stroke-dasharray="5,2" d="M496.973,-1371.07C510.875,-1367.85 528.817,-1364.1 544.974,-1362 608.664,-1353.74 775.619,-1374.64 833.589,-1347 855.178,-1336.71 849.757,-1320.37 869.589,-1307 880.644,-1299.55 894.006,-1293.87 906.337,-1289.68"/>
<polygon fill="black" stroke="black" points="907.463,-1293 915.941,-1286.64 905.351,-1286.32 907.463,-1293"/>
</g>
<!-- Core_RuntimeState -->
<g id="node11" class="node"><title>Core_RuntimeState</title>
<polygon fill="none" stroke="black" points="990.46,-1406 899.46,-1406 899.46,-1402 895.46,-1402 895.46,-1398 899.46,-1398 899.46,-1378 895.46,-1378 895.46,-1374 899.46,-1374 899.46,-1370 990.46,-1370 990.46,-1406"/>
<polyline fill="none" stroke="black" points="899.46,-1402 903.46,-1402 903.46,-1398 899.46,-1398 "/>
<polyline fill="none" stroke="black" points="899.46,-1378 903.46,-1378 903.46,-1374 899.46,-1374 "/>
<text text-anchor="middle" x="944.96" y="-1384.3" font-family="Times,serif" font-size="14.00">RuntimeState</text>
</g>
<!-- Core_App&#45;&gt;Core_RuntimeState -->
<g id="edge17" class="edge"><title>Core_App&#45;&gt;Core_RuntimeState</title>
<path fill="none" stroke="black" stroke-dasharray="5,2" d="M482.867,-1390.12C495.239,-1405.69 518.299,-1430.83 544.974,-1441 604.906,-1463.84 772.564,-1460.73 833.589,-1441 852.369,-1434.93 852.146,-1424.23 869.589,-1415 876.016,-1411.6 882.965,-1408.45 889.945,-1405.59"/>
<polygon fill="black" stroke="black" points="891.397,-1408.78 899.437,-1401.88 888.849,-1402.26 891.397,-1408.78"/>
</g>
<!-- Core_SystemWrapperTrait -->
<g id="node12" class="node"><title>Core_SystemWrapperTrait</title>
<polygon fill="none" stroke="black" points="689.282,-1588 568.962,-1570 689.282,-1552 809.601,-1570 689.282,-1588"/>
<text text-anchor="middle" x="689.282" y="-1566.3" font-family="Times,serif" font-size="14.00">SystemWrapperTrait</text>
</g>
<!-- Core_App&#45;&gt;Core_SystemWrapperTrait -->
<g id="edge11" class="edge"><title>Core_App&#45;&gt;Core_SystemWrapperTrait</title>
<path fill="none" stroke="black" d="M475.579,-1393.38C481.232,-1426.2 498.664,-1500.12 544.974,-1538 559.126,-1549.58 576.596,-1557.18 594.414,-1562.12"/>
<polygon fill="black" stroke="black" points="593.78,-1565.57 604.33,-1564.6 595.48,-1558.78 593.78,-1565.57"/>
</g>
<!-- Core_App&#45;&gt;Core_SuperGlobal -->
<g id="edge19" class="edge"><title>Core_App&#45;&gt;Core_SuperGlobal</title>
<path fill="none" stroke="black" stroke-dasharray="5,2" d="M507.211,-1377.91C571.39,-1379.13 714.62,-1379.38 833.589,-1362 853.155,-1359.14 874.281,-1354.24 892.76,-1349.33"/>
<polygon fill="black" stroke="black" points="893.714,-1352.7 902.443,-1346.7 891.875,-1345.95 893.714,-1352.7"/>
</g>
<!-- Core_ExtendableStaticCallTrait -->
<g id="node14" class="node"><title>Core_ExtendableStaticCallTrait</title>
<polygon fill="none" stroke="black" points="689.282,-1190 545.166,-1172 689.282,-1154 833.397,-1172 689.282,-1190"/>
<text text-anchor="middle" x="689.282" y="-1168.3" font-family="Times,serif" font-size="14.00">ExtendableStaticCallTrait</text>
</g>
<!-- Core_App&#45;&gt;Core_ExtendableStaticCallTrait -->
<g id="edge10" class="edge"><title>Core_App&#45;&gt;Core_ExtendableStaticCallTrait</title>
<path fill="none" stroke="black" d="M475.07,-1360.23C479.866,-1325.44 495.924,-1245.2 544.974,-1204 557.34,-1193.61 572.362,-1186.41 587.968,-1181.44"/>
<polygon fill="black" stroke="black" points="589.098,-1184.76 597.742,-1178.64 587.164,-1178.03 589.098,-1184.76"/>
</g>
<!-- Core_ComponentBase -->
<g id="node16" class="node"><title>Core_ComponentBase</title>
<polygon fill="none" stroke="black" points="1208.18,-1190 1105.18,-1190 1101.18,-1186 1101.18,-1154 1204.18,-1154 1208.18,-1158 1208.18,-1190"/>
<polyline fill="none" stroke="black" points="1204.18,-1186 1101.18,-1186 "/>
<polyline fill="none" stroke="black" points="1204.18,-1186 1204.18,-1154 "/>
<polyline fill="none" stroke="black" points="1204.18,-1186 1208.18,-1190 "/>
<text text-anchor="middle" x="1154.68" y="-1168.3" font-family="Times,serif" font-size="14.00">ComponentBase</text>
</g>
<!-- Core_App&#45;&gt;Core_ComponentBase -->
<g id="edge21" class="edge"><title>Core_App&#45;&gt;Core_ComponentBase</title>
<path fill="none" stroke="black" stroke-dasharray="1,5" d="M476.317,-1393.25C482.995,-1423.23 501.754,-1486.83 544.974,-1516 598.366,-1552.04 774.905,-1516.44 833.589,-1543 853.639,-1552.08 849.139,-1568.87 869.589,-1577 931.846,-1601.75 966.053,-1616.27 1020.33,-1577 1144.66,-1487.04 1155.07,-1277.2 1154.54,-1200.62"/>
<polygon fill="black" stroke="black" points="1158.03,-1200.27 1154.39,-1190.32 1151.03,-1200.37 1158.03,-1200.27"/>
</g>
<!-- Core_Functions -->
<g id="node17" class="node"><title>Core_Functions</title>
<ellipse fill="none" stroke="black" cx="689.282" cy="-1246" rx="45.4919" ry="18"/>
<text text-anchor="middle" x="689.282" y="-1242.3" font-family="Times,serif" font-size="14.00">Functions</text>
</g>
<!-- Core_App&#45;&gt;Core_Functions -->
<g id="edge20" class="edge"><title>Core_App&#45;&gt;Core_Functions</title>
<path fill="none" stroke="black" stroke-dasharray="5,2" d="M479.638,-1362.29C490.037,-1340.31 512.691,-1299.23 544.974,-1278 571.154,-1260.79 605.228,-1252.73 633.582,-1249"/>
<polygon fill="black" stroke="black" points="634.218,-1252.45 643.744,-1247.81 633.405,-1245.49 634.218,-1252.45"/>
</g>
<!-- Core_Kernel&#45;&gt;Core_AutoLoader -->
<g id="edge1" class="edge"><title>Core_Kernel&#45;&gt;Core_AutoLoader</title>
<path fill="none" stroke="black" d="M706.957,-1425.69C737.917,-1447.04 806.851,-1492.91 869.589,-1523 879.83,-1527.91 891.215,-1532.47 901.935,-1536.38"/>
<polygon fill="black" stroke="black" points="900.948,-1539.75 911.542,-1539.79 903.289,-1533.15 900.948,-1539.75"/>
</g>
<!-- Core_Kernel&#45;&gt;Core_ExceptionManager -->
<g id="edge4" class="edge"><title>Core_Kernel&#45;&gt;Core_ExceptionManager</title>
<path fill="none" stroke="black" d="M727.169,-1418.07C765.784,-1422.33 827.317,-1429.13 874.979,-1434.39"/>
<polygon fill="black" stroke="black" points="874.602,-1437.87 884.925,-1435.48 875.37,-1430.91 874.602,-1437.87"/>
</g>
<!-- Core_Kernel&#45;&gt;Core_View -->
<g id="edge7" class="edge"><title>Core_Kernel&#45;&gt;Core_View</title>
<path fill="none" stroke="black" d="M721.448,-1407.76C754.268,-1399.55 805.056,-1381.85 833.589,-1347 876.473,-1294.62 824.416,-1249.42 869.589,-1199 879.473,-1187.97 894.225,-1181.44 907.991,-1177.58"/>
<polygon fill="black" stroke="black" points="908.862,-1180.97 917.756,-1175.21 907.213,-1174.17 908.862,-1180.97"/>
</g>
<!-- Core_Kernel&#45;&gt;Core_Configer -->
<g id="edge2" class="edge"><title>Core_Kernel&#45;&gt;Core_Configer</title>
<path fill="none" stroke="black" d="M720.028,-1407.19C752.105,-1398.41 802.713,-1380.17 833.589,-1347 864.071,-1314.25 837.68,-1284.36 869.589,-1253 878.545,-1244.2 890.587,-1238.24 902.369,-1234.22"/>
<polygon fill="black" stroke="black" points="903.569,-1237.51 912.132,-1231.27 901.547,-1230.81 903.569,-1237.51"/>
</g>
<!-- Core_Kernel&#45;&gt;Core_Logger -->
<g id="edge3" class="edge"><title>Core_Kernel&#45;&gt;Core_Logger</title>
<path fill="none" stroke="black" d="M716.002,-1422.31C761.206,-1436.93 855.035,-1467.26 907.116,-1484.09"/>
<polygon fill="black" stroke="black" points="906.049,-1487.42 916.641,-1487.17 908.202,-1480.76 906.049,-1487.42"/>
</g>
<!-- Core_Kernel&#45;&gt;Core_Route -->
<g id="edge5" class="edge"><title>Core_Kernel&#45;&gt;Core_Route</title>
<path fill="none" stroke="black" d="M723.088,-1408.32C754.195,-1401.59 800.906,-1387.87 833.589,-1362 856.495,-1343.87 846.685,-1325.14 869.589,-1307 879.871,-1298.86 892.828,-1293.03 905.035,-1288.93"/>
<polygon fill="black" stroke="black" points="906.064,-1292.28 914.598,-1286 904.012,-1285.58 906.064,-1292.28"/>
</g>
<!-- Core_Kernel&#45;&gt;Core_RuntimeState -->
<g id="edge6" class="edge"><title>Core_Kernel&#45;&gt;Core_RuntimeState</title>
<path fill="none" stroke="black" d="M727.986,-1410.14C770.637,-1405.76 840.478,-1398.61 889.151,-1393.62"/>
<polygon fill="black" stroke="black" points="889.608,-1397.09 899.199,-1392.59 888.894,-1390.13 889.608,-1397.09"/>
</g>
<!-- Core_Kernel&#45;&gt;Core_SuperGlobal -->
<g id="edge8" class="edge"><title>Core_Kernel&#45;&gt;Core_SuperGlobal</title>
<path fill="none" stroke="black" d="M725.631,-1409.22C755.197,-1404.49 798.111,-1395.92 833.589,-1382 850.833,-1375.23 852.816,-1368.86 869.589,-1361 876.929,-1357.56 884.837,-1354.27 892.66,-1351.25"/>
<polygon fill="black" stroke="black" points="893.985,-1354.49 902.118,-1347.7 891.525,-1347.94 893.985,-1354.49"/>
</g>
<!-- Core_ExceptionManager&#45;&gt;Core_ComponentBase -->
<g id="edge26" class="edge"><title>Core_ExceptionManager&#45;&gt;Core_ComponentBase</title>
<path fill="none" stroke="black" stroke-dasharray="1,5" d="M1005.05,-1425.21C1010.53,-1422.31 1015.74,-1418.93 1020.33,-1415 1089.92,-1355.36 1129.77,-1249.96 1145.62,-1199.9"/>
<polygon fill="black" stroke="black" points="1149.04,-1200.68 1148.64,-1190.1 1142.35,-1198.63 1149.04,-1200.68"/>
</g>
<!-- Core_View&#45;&gt;Core_ComponentBase -->
<g id="edge31" class="edge"><title>Core_View&#45;&gt;Core_ComponentBase</title>
<path fill="none" stroke="black" stroke-dasharray="1,5" d="M972.268,-1172C1001.89,-1172 1051.08,-1172 1090.77,-1172"/>
<polygon fill="black" stroke="black" points="1090.9,-1175.5 1100.9,-1172 1090.9,-1168.5 1090.9,-1175.5"/>
</g>
<!-- Core_Configer&#45;&gt;Core_ComponentBase -->
<g id="edge27" class="edge"><title>Core_Configer&#45;&gt;Core_ComponentBase</title>
<path fill="none" stroke="black" stroke-dasharray="1,5" d="M977.509,-1217.8C1007.51,-1210 1053.5,-1198.04 1090.97,-1188.3"/>
<polygon fill="black" stroke="black" points="1092,-1191.65 1100.79,-1185.75 1090.24,-1184.88 1092,-1191.65"/>
</g>
<!-- Core_Logger&#45;&gt;Core_ComponentBase -->
<g id="edge32" class="edge"><title>Core_Logger&#45;&gt;Core_ComponentBase</title>
<path fill="none" stroke="black" stroke-dasharray="1,5" d="M973.124,-1491.56C988.565,-1487.82 1007.35,-1481.06 1020.33,-1469 1101.81,-1393.32 1136.82,-1258.53 1148.65,-1200.2"/>
<polygon fill="black" stroke="black" points="1152.12,-1200.71 1150.6,-1190.23 1145.25,-1199.37 1152.12,-1200.71"/>
</g>
<!-- Core_Route&#45;&gt;Core_ComponentBase -->
<g id="edge28" class="edge"><title>Core_Route&#45;&gt;Core_ComponentBase</title>
<path fill="none" stroke="black" stroke-dasharray="1,5" d="M970.913,-1272.31C985.593,-1267.46 1004.35,-1260.66 1020.33,-1253 1055.22,-1236.27 1092.7,-1212.99 1119.01,-1195.68"/>
<polygon fill="black" stroke="black" points="1121.08,-1198.5 1127.48,-1190.06 1117.21,-1192.67 1121.08,-1198.5"/>
</g>
<!-- Core_RuntimeState&#45;&gt;Core_ComponentBase -->
<g id="edge30" class="edge"><title>Core_RuntimeState&#45;&gt;Core_ComponentBase</title>
<path fill="none" stroke="black" stroke-dasharray="1,5" d="M990.699,-1376.72C1001.06,-1372.81 1011.6,-1367.67 1020.33,-1361 1078.39,-1316.66 1121.27,-1239.9 1141.23,-1199.18"/>
<polygon fill="black" stroke="black" points="1144.41,-1200.65 1145.58,-1190.12 1138.1,-1197.62 1144.41,-1200.65"/>
</g>
<!-- Core_SuperGlobal&#45;&gt;Core_ComponentBase -->
<g id="edge29" class="edge"><title>Core_SuperGlobal&#45;&gt;Core_ComponentBase</title>
<path fill="none" stroke="black" stroke-dasharray="1,5" d="M987.633,-1322.53C998.728,-1318.51 1010.39,-1313.37 1020.33,-1307 1066.98,-1277.11 1109.89,-1228.22 1133.84,-1198.2"/>
<polygon fill="black" stroke="black" points="1136.65,-1200.29 1140.08,-1190.27 1131.15,-1195.97 1136.65,-1200.29"/>
</g>
<!-- Core_ComponentInterface -->
<g id="node15" class="node"><title>Core_ComponentInterface</title>
<polygon fill="none" stroke="black" points="1411.03,-1190 1289.03,-1190 1289.03,-1154 1417.03,-1154 1417.03,-1184 1411.03,-1190"/>
<polyline fill="none" stroke="black" points="1411.03,-1190 1411.03,-1184 "/>
<polyline fill="none" stroke="black" points="1417.03,-1184 1411.03,-1184 "/>
<text text-anchor="middle" x="1353.03" y="-1168.3" font-family="Times,serif" font-size="14.00">ComponentInterface</text>
</g>
<!-- Core_ComponentBase&#45;&gt;Core_ComponentInterface -->
<g id="edge33" class="edge"><title>Core_ComponentBase&#45;&gt;Core_ComponentInterface</title>
<path fill="none" stroke="black" d="M1208.3,-1172C1229.87,-1172 1255.21,-1172 1278.56,-1172"/>
<polygon fill="black" stroke="black" points="1278.78,-1175.5 1288.78,-1172 1278.78,-1168.5 1278.78,-1175.5"/>
</g>
<!-- AppHelper -->
<g id="node18" class="node"><title>AppHelper</title>
<polygon fill="lightgrey" stroke="black" points="116.188,-1429 45.6372,-1411 116.188,-1393 186.739,-1411 116.188,-1429"/>
<polyline fill="none" stroke="black" points="57.2647,-1413.97 57.2647,-1408.03 "/>
<polyline fill="none" stroke="black" points="104.561,-1395.97 127.816,-1395.97 "/>
<polyline fill="none" stroke="black" points="175.112,-1408.03 175.112,-1413.97 "/>
<polyline fill="none" stroke="black" points="127.816,-1426.03 104.561,-1426.03 "/>
<text text-anchor="middle" x="116.188" y="-1407.3" font-family="Times,serif" font-size="14.00">AppHelper</text>
</g>
<!-- AppHelper&#45;&gt;Core_App -->
<g id="edge34" class="edge"><title>AppHelper&#45;&gt;Core_App</title>
<path fill="none" stroke="black" d="M169.121,-1406.43C227.215,-1401.26 324.111,-1392.45 407.441,-1384 415.388,-1383.19 423.887,-1382.29 432.005,-1381.41"/>
<polygon fill="black" stroke="black" points="432.455,-1384.88 442.013,-1380.31 431.691,-1377.92 432.455,-1384.88"/>
</g>
<!-- HelperTrait -->
<g id="node23" class="node"><title>HelperTrait</title>
<polygon fill="none" stroke="black" points="325.909,-1273 252.344,-1255 325.909,-1237 399.474,-1255 325.909,-1273"/>
<text text-anchor="middle" x="325.909" y="-1251.3" font-family="Times,serif" font-size="14.00">HelperTrait</text>
</g>
<!-- AppHelper&#45;&gt;HelperTrait -->
<g id="edge41" class="edge"><title>AppHelper&#45;&gt;HelperTrait</title>
<path fill="none" stroke="black" d="M162.524,-1404.66C180.316,-1400.69 200.285,-1394.28 216.376,-1384 258.438,-1357.13 292.625,-1308.81 310.762,-1279.54"/>
<polygon fill="black" stroke="black" points="313.893,-1281.13 316.076,-1270.76 307.904,-1277.51 313.893,-1281.13"/>
</g>
<!-- ControllerHelper -->
<g id="node19" class="node"><title>ControllerHelper</title>
<polygon fill="lightgrey" stroke="black" points="116.188,-1375 15.8115,-1357 116.188,-1339 216.565,-1357 116.188,-1375"/>
<polyline fill="none" stroke="black" points="27.6231,-1359.12 27.6231,-1354.88 "/>
<polyline fill="none" stroke="black" points="104.377,-1341.12 128,-1341.12 "/>
<polyline fill="none" stroke="black" points="204.753,-1354.88 204.753,-1359.12 "/>
<polyline fill="none" stroke="black" points="128,-1372.88 104.377,-1372.88 "/>
<text text-anchor="middle" x="116.188" y="-1353.3" font-family="Times,serif" font-size="14.00">ControllerHelper</text>
</g>
<!-- ControllerHelper&#45;&gt;Core_App -->
<g id="edge35" class="edge"><title>ControllerHelper&#45;&gt;Core_App</title>
<path fill="none" stroke="black" d="M193.134,-1361.29C265.05,-1365.35 370.436,-1371.31 428.641,-1374.6"/>
<polygon fill="black" stroke="black" points="428.759,-1378.11 438.941,-1375.18 429.154,-1371.12 428.759,-1378.11"/>
</g>
<!-- ControllerHelper&#45;&gt;HelperTrait -->
<g id="edge42" class="edge"><title>ControllerHelper&#45;&gt;HelperTrait</title>
<path fill="none" stroke="black" d="M164.517,-1347.59C181.332,-1343.35 200.112,-1337.56 216.376,-1330 247.729,-1315.42 279.845,-1291.96 300.922,-1275.16"/>
<polygon fill="black" stroke="black" points="303.136,-1277.87 308.705,-1268.85 298.731,-1272.43 303.136,-1277.87"/>
</g>
<!-- ModelHelper -->
<g id="node20" class="node"><title>ModelHelper</title>
<polygon fill="lightgrey" stroke="black" points="116.188,-1321 34.5777,-1303 116.188,-1285 197.799,-1303 116.188,-1321"/>
<polyline fill="none" stroke="black" points="46.296,-1305.58 46.296,-1300.42 "/>
<polyline fill="none" stroke="black" points="104.47,-1287.58 127.906,-1287.58 "/>
<polyline fill="none" stroke="black" points="186.08,-1300.42 186.08,-1305.58 "/>
<polyline fill="none" stroke="black" points="127.906,-1318.42 104.47,-1318.42 "/>
<text text-anchor="middle" x="116.188" y="-1299.3" font-family="Times,serif" font-size="14.00">ModelHelper</text>
</g>
<!-- ModelHelper&#45;&gt;Core_App -->
<g id="edge36" class="edge"><title>ModelHelper&#45;&gt;Core_App</title>
<path fill="none" stroke="black" d="M160.549,-1311.39C217.362,-1322.47 320.043,-1342.84 407.441,-1362 417.15,-1364.13 427.661,-1366.55 437.295,-1368.82"/>
<polygon fill="black" stroke="black" points="436.788,-1372.3 447.325,-1371.2 438.404,-1365.49 436.788,-1372.3"/>
</g>
<!-- ModelHelper&#45;&gt;HelperTrait -->
<g id="edge43" class="edge"><title>ModelHelper&#45;&gt;HelperTrait</title>
<path fill="none" stroke="black" d="M156.748,-1293.86C191.071,-1285.93 240.84,-1274.43 277.33,-1265.99"/>
<polygon fill="black" stroke="black" points="278.291,-1269.36 287.246,-1263.7 276.715,-1262.54 278.291,-1269.36"/>
</g>
<!-- ServiceHelper -->
<g id="node21" class="node"><title>ServiceHelper</title>
<polygon fill="lightgrey" stroke="black" points="116.188,-1267 29.8865,-1249 116.188,-1231 202.49,-1249 116.188,-1267"/>
<polyline fill="none" stroke="black" points="41.6337,-1251.45 41.6337,-1246.55 "/>
<polyline fill="none" stroke="black" points="104.441,-1233.45 127.935,-1233.45 "/>
<polyline fill="none" stroke="black" points="190.743,-1246.55 190.743,-1251.45 "/>
<polyline fill="none" stroke="black" points="127.935,-1264.55 104.441,-1264.55 "/>
<text text-anchor="middle" x="116.188" y="-1245.3" font-family="Times,serif" font-size="14.00">ServiceHelper</text>
</g>
<!-- ServiceHelper&#45;&gt;Core_App -->
<g id="edge37" class="edge"><title>ServiceHelper&#45;&gt;Core_App</title>
<path fill="none" stroke="black" d="M156.605,-1258.66C230.59,-1276.92 384.866,-1315.71 407.441,-1327 423.594,-1335.08 439.582,-1347.63 451.508,-1358.13"/>
<polygon fill="black" stroke="black" points="449.312,-1360.87 459.068,-1365 454.019,-1355.69 449.312,-1360.87"/>
</g>
<!-- ServiceHelper&#45;&gt;HelperTrait -->
<g id="edge44" class="edge"><title>ServiceHelper&#45;&gt;HelperTrait</title>
<path fill="none" stroke="black" d="M192.18,-1251.17C210.908,-1251.71 230.996,-1252.29 249.733,-1252.83"/>
<polygon fill="black" stroke="black" points="249.889,-1256.33 259.986,-1253.12 250.091,-1249.34 249.889,-1256.33"/>
</g>
<!-- ViewHelper -->
<g id="node22" class="node"><title>ViewHelper</title>
<polygon fill="lightgrey" stroke="black" points="116.188,-1483 40.1075,-1465 116.188,-1447 192.269,-1465 116.188,-1483"/>
<polyline fill="none" stroke="black" points="51.7851,-1467.76 51.7851,-1462.24 "/>
<polyline fill="none" stroke="black" points="104.511,-1449.76 127.866,-1449.76 "/>
<polyline fill="none" stroke="black" points="180.591,-1462.24 180.591,-1467.76 "/>
<polyline fill="none" stroke="black" points="127.866,-1480.24 104.511,-1480.24 "/>
<text text-anchor="middle" x="116.188" y="-1461.3" font-family="Times,serif" font-size="14.00">ViewHelper</text>
</g>
<!-- ViewHelper&#45;&gt;Core_App -->
<g id="edge38" class="edge"><title>ViewHelper&#45;&gt;Core_App</title>
<path fill="none" stroke="black" d="M165.554,-1458.59C223.875,-1450.09 324.412,-1432.93 407.441,-1406 420.057,-1401.91 433.496,-1396.04 444.768,-1390.65"/>
<polygon fill="black" stroke="black" points="446.608,-1393.65 454.04,-1386.1 443.521,-1387.36 446.608,-1393.65"/>
</g>
<!-- ViewHelper&#45;&gt;HelperTrait -->
<g id="edge45" class="edge"><title>ViewHelper&#45;&gt;HelperTrait</title>
<path fill="none" stroke="black" d="M167.485,-1459.07C184.299,-1455.16 202.318,-1448.7 216.376,-1438 270.182,-1397.04 302.535,-1321.08 316.602,-1281.13"/>
<polygon fill="black" stroke="black" points="319.95,-1282.15 319.862,-1271.56 313.324,-1279.89 319.95,-1282.15"/>
</g>
<!-- HelperTrait&#45;&gt;Core_App -->
<g id="edge39" class="edge"><title>HelperTrait&#45;&gt;Core_App</title>
<path fill="none" stroke="black" d="M362.515,-1264.23C377.43,-1269.29 394.314,-1276.68 407.441,-1287 430.339,-1305 448.539,-1333.39 459.539,-1353.46"/>
<polygon fill="black" stroke="black" points="456.584,-1355.36 464.35,-1362.56 462.773,-1352.09 456.584,-1355.36"/>
</g>
<!-- HelperTrait&#45;&gt;Core_ExtendableStaticCallTrait -->
<g id="edge40" class="edge"><title>HelperTrait&#45;&gt;Core_ExtendableStaticCallTrait</title>
<path fill="none" stroke="black" d="M363.923,-1246.22C407.284,-1235.97 481.298,-1218.56 544.974,-1204 571.74,-1197.88 601.35,-1191.25 626.673,-1185.61"/>
<polygon fill="black" stroke="black" points="627.512,-1189.01 636.514,-1183.43 625.993,-1182.18 627.512,-1189.01"/>
</g>
<!-- Db_Db -->
<g id="node24" class="node"><title>Db_Db</title>
<polygon fill="lightgrey" stroke="black" points="944.96,-106 914.795,-88 944.96,-70 975.126,-88 944.96,-106"/>
<polyline fill="none" stroke="black" points="924.85,-94 924.85,-82 "/>
<polyline fill="none" stroke="black" points="934.905,-76 955.015,-76 "/>
<polyline fill="none" stroke="black" points="965.071,-82 965.071,-94 "/>
<polyline fill="none" stroke="black" points="955.015,-100 934.905,-100 "/>
<text text-anchor="middle" x="944.96" y="-84.3" font-family="Times,serif" font-size="14.00">Db</text>
</g>
<!-- Db_DbAdvanceTrait -->
<g id="node25" class="node"><title>Db_DbAdvanceTrait</title>
<polygon fill="none" stroke="black" points="1154.68,-106 1056.48,-88 1154.68,-70 1252.88,-88 1154.68,-106"/>
<polyline fill="none" stroke="black" points="1068.28,-90.1635 1068.28,-85.8365 "/>
<polyline fill="none" stroke="black" points="1142.88,-72.1635 1166.48,-72.1635 "/>
<polyline fill="none" stroke="black" points="1241.08,-85.8365 1241.08,-90.1635 "/>
<polyline fill="none" stroke="black" points="1166.48,-103.836 1142.88,-103.836 "/>
<text text-anchor="middle" x="1154.68" y="-84.3" font-family="Times,serif" font-size="14.00">DbAdvanceTrait</text>
</g>
<!-- Db_Db&#45;&gt;Db_DbAdvanceTrait -->
<g id="edge46" class="edge"><title>Db_Db&#45;&gt;Db_DbAdvanceTrait</title>
<path fill="none" stroke="black" d="M975.281,-88C994.221,-88 1020.15,-88 1046.38,-88"/>
<polygon fill="black" stroke="black" points="1046.43,-91.5001 1056.43,-88 1046.43,-84.5001 1046.43,-91.5001"/>
</g>
<!-- Db_DbInterface -->
<g id="node26" class="node"><title>Db_DbInterface</title>
<polygon fill="none" stroke="black" points="1189.18,-52 1114.18,-52 1114.18,-16 1195.18,-16 1195.18,-46 1189.18,-52"/>
<polyline fill="none" stroke="black" points="1189.18,-52 1189.18,-46 "/>
<polyline fill="none" stroke="black" points="1195.18,-46 1189.18,-46 "/>
<text text-anchor="middle" x="1154.68" y="-30.3" font-family="Times,serif" font-size="14.00">DbInterface</text>
</g>
<!-- Db_Db&#45;&gt;Db_DbInterface -->
<g id="edge47" class="edge"><title>Db_Db&#45;&gt;Db_DbInterface</title>
<path fill="none" stroke="black" d="M966.637,-82.6249C998.434,-74.3586 1060.25,-58.2881 1104.11,-46.8873"/>
<polygon fill="black" stroke="black" points="1105.21,-50.2175 1114.01,-44.314 1103.45,-43.4426 1105.21,-50.2175"/>
</g>
<!-- Cache -->
<g id="node27" class="node"><title>Cache</title>
<polygon fill="none" stroke="black" points="716.282,-297 662.282,-297 662.282,-293 658.282,-293 658.282,-289 662.282,-289 662.282,-269 658.282,-269 658.282,-265 662.282,-265 662.282,-261 716.282,-261 716.282,-297"/>
<polyline fill="none" stroke="black" points="662.282,-293 666.282,-293 666.282,-289 662.282,-289 "/>
<polyline fill="none" stroke="black" points="662.282,-269 666.282,-269 666.282,-265 662.282,-265 "/>
<text text-anchor="middle" x="689.282" y="-275.3" font-family="Times,serif" font-size="14.00">Cache</text>
</g>
<!-- Cache&#45;&gt;Core_ComponentBase -->
<g id="edge48" class="edge"><title>Cache&#45;&gt;Core_ComponentBase</title>
<path fill="none" stroke="black" stroke-dasharray="1,5" d="M716.517,-279.815C786.988,-282.57 977.933,-293.936 1020.33,-337 1136.29,-454.776 1151.43,-1011.36 1153.39,-1143.71"/>
<polygon fill="black" stroke="black" points="1149.89,-1143.9 1153.53,-1153.85 1156.89,-1143.8 1149.89,-1143.9"/>
</g>
<!-- CallableView -->
<g id="node28" class="node"><title>CallableView</title>
<polygon fill="none" stroke="black" points="734.782,-1107 643.782,-1107 643.782,-1103 639.782,-1103 639.782,-1099 643.782,-1099 643.782,-1079 639.782,-1079 639.782,-1075 643.782,-1075 643.782,-1071 734.782,-1071 734.782,-1107"/>
<polyline fill="none" stroke="black" points="643.782,-1103 647.782,-1103 647.782,-1099 643.782,-1099 "/>
<polyline fill="none" stroke="black" points="643.782,-1079 647.782,-1079 647.782,-1075 643.782,-1075 "/>
<text text-anchor="middle" x="689.282" y="-1085.3" font-family="Times,serif" font-size="14.00">CallableView</text>
</g>
<!-- CallableView&#45;&gt;Core_View -->
<g id="edge64" class="edge"><title>CallableView&#45;&gt;Core_View</title>
<path fill="none" stroke="black" d="M735.05,-1103.65C784.375,-1119.79 862.717,-1145.42 908.144,-1160.28"/>
<polygon fill="black" stroke="black" points="907.267,-1163.68 917.859,-1163.46 909.444,-1157.02 907.267,-1163.68"/>
</g>
<!-- DbManager -->
<g id="node29" class="node"><title>DbManager</title>
<polygon fill="none" stroke="black" points="730.282,-243 648.282,-243 648.282,-239 644.282,-239 644.282,-235 648.282,-235 648.282,-215 644.282,-215 644.282,-211 648.282,-211 648.282,-207 730.282,-207 730.282,-243"/>
<polyline fill="none" stroke="black" points="648.282,-239 652.282,-239 652.282,-235 648.282,-235 "/>
<polyline fill="none" stroke="black" points="648.282,-215 652.282,-215 652.282,-211 648.282,-211 "/>
<text text-anchor="middle" x="689.282" y="-221.3" font-family="Times,serif" font-size="14.00">DbManager</text>
</g>
<!-- DbManager&#45;&gt;Core_ComponentBase -->
<g id="edge49" class="edge"><title>DbManager&#45;&gt;Core_ComponentBase</title>
<path fill="none" stroke="black" stroke-dasharray="1,5" d="M730.334,-219.494C800.168,-212.372 944.029,-209.128 1020.33,-289 1141.41,-415.749 1152.63,-1007.52 1153.6,-1143.91"/>
<polygon fill="black" stroke="black" points="1150.1,-1143.99 1153.66,-1153.97 1157.1,-1143.95 1150.1,-1143.99"/>
</g>
<!-- DbManager&#45;&gt;Db_Db -->
<g id="edge66" class="edge"><title>DbManager&#45;&gt;Db_Db</title>
<path fill="none" stroke="black" d="M730.303,-225.824C760.994,-224.595 803.121,-218.704 833.589,-198 858.372,-181.16 849.002,-162.77 869.589,-141 884.433,-125.304 904.544,-111.301 920.111,-101.637"/>
<polygon fill="black" stroke="black" points="921.923,-104.631 928.677,-96.4675 918.307,-98.6377 921.923,-104.631"/>
</g>
<!-- EmptyView -->
<g id="node30" class="node"><title>EmptyView</title>
<polygon fill="none" stroke="black" points="730.782,-1053 647.782,-1053 647.782,-1049 643.782,-1049 643.782,-1045 647.782,-1045 647.782,-1025 643.782,-1025 643.782,-1021 647.782,-1021 647.782,-1017 730.782,-1017 730.782,-1053"/>
<polyline fill="none" stroke="black" points="647.782,-1049 651.782,-1049 651.782,-1045 647.782,-1045 "/>
<polyline fill="none" stroke="black" points="647.782,-1025 651.782,-1025 651.782,-1021 647.782,-1021 "/>
<text text-anchor="middle" x="689.282" y="-1031.3" font-family="Times,serif" font-size="14.00">EmptyView</text>
</g>
<!-- EmptyView&#45;&gt;Core_View -->
<g id="edge65" class="edge"><title>EmptyView&#45;&gt;Core_View</title>
<path fill="none" stroke="black" d="M730.836,-1033C762.022,-1033.56 804.55,-1039.13 833.589,-1062 864.221,-1086.12 841.481,-1114.98 869.589,-1142 880.147,-1152.15 894.585,-1159.02 907.931,-1163.6"/>
<polygon fill="black" stroke="black" points="907.255,-1167.05 917.843,-1166.67 909.325,-1160.37 907.255,-1167.05"/>
</g>
<!-- EventManager -->
<g id="node31" class="node"><title>EventManager</title>
<polygon fill="none" stroke="black" points="737.782,-189 640.782,-189 640.782,-185 636.782,-185 636.782,-181 640.782,-181 640.782,-161 636.782,-161 636.782,-157 640.782,-157 640.782,-153 737.782,-153 737.782,-189"/>
<polyline fill="none" stroke="black" points="640.782,-185 644.782,-185 644.782,-181 640.782,-181 "/>
<polyline fill="none" stroke="black" points="640.782,-161 644.782,-161 644.782,-157 640.782,-157 "/>
<text text-anchor="middle" x="689.282" y="-167.3" font-family="Times,serif" font-size="14.00">EventManager</text>
</g>
<!-- EventManager&#45;&gt;Core_ComponentBase -->
<g id="edge50" class="edge"><title>EventManager&#45;&gt;Core_ComponentBase</title>
<path fill="none" stroke="black" stroke-dasharray="1,5" d="M737.85,-162.07C809.805,-151.583 945.811,-144.077 1020.33,-219 1154.1,-353.49 1155.48,-999.252 1154.08,-1143.42"/>
<polygon fill="black" stroke="black" points="1150.58,-1143.61 1153.97,-1153.65 1157.58,-1143.69 1150.58,-1143.61"/>
</g>
<!-- FacadesAutoLoader -->
<g id="node32" class="node"><title>FacadesAutoLoader</title>
<polygon fill="none" stroke="black" points="1007.46,-1107 882.46,-1107 882.46,-1103 878.46,-1103 878.46,-1099 882.46,-1099 882.46,-1079 878.46,-1079 878.46,-1075 882.46,-1075 882.46,-1071 1007.46,-1071 1007.46,-1107"/>
<polyline fill="none" stroke="black" points="882.46,-1103 886.46,-1103 886.46,-1099 882.46,-1099 "/>
<polyline fill="none" stroke="black" points="882.46,-1079 886.46,-1079 886.46,-1075 882.46,-1075 "/>
<text text-anchor="middle" x="944.96" y="-1085.3" font-family="Times,serif" font-size="14.00">FacadesAutoLoader</text>
</g>
<!-- FacadesAutoLoader&#45;&gt;Core_ComponentBase -->
<g id="edge51" class="edge"><title>FacadesAutoLoader&#45;&gt;Core_ComponentBase</title>
<path fill="none" stroke="black" stroke-dasharray="1,5" d="M991.033,-1107.01C1022.64,-1119.64 1065.07,-1136.59 1098.67,-1150.02"/>
<polygon fill="black" stroke="black" points="1097.75,-1153.42 1108.34,-1153.88 1100.35,-1146.92 1097.75,-1153.42"/>
</g>
<!-- FacadesBase -->
<g id="node33" class="node"><title>FacadesBase</title>
<polygon fill="none" stroke="black" points="732.282,-999 646.282,-999 646.282,-995 642.282,-995 642.282,-991 646.282,-991 646.282,-971 642.282,-971 642.282,-967 646.282,-967 646.282,-963 732.282,-963 732.282,-999"/>
<polyline fill="none" stroke="black" points="646.282,-995 650.282,-995 650.282,-991 646.282,-991 "/>
<polyline fill="none" stroke="black" points="646.282,-971 650.282,-971 650.282,-967 646.282,-967 "/>
<text text-anchor="middle" x="689.282" y="-977.3" font-family="Times,serif" font-size="14.00">FacadesBase</text>
</g>
<!-- FacadesBase&#45;&gt;Core_ComponentBase -->
<g id="edge68" class="edge"><title>FacadesBase&#45;&gt;Core_ComponentBase</title>
<path fill="none" stroke="black" stroke-dasharray="1,5" d="M732.468,-972.825C768.677,-966.247 822.343,-957.537 869.589,-954 936.399,-948.998 961.89,-921.241 1020.33,-954 1093.86,-995.216 1131.7,-1095.32 1146.32,-1144.21"/>
<polygon fill="black" stroke="black" points="1142.96,-1145.19 1149.09,-1153.83 1149.68,-1143.25 1142.96,-1145.19"/>
</g>
<!-- FacadesBase&#45;&gt;FacadesAutoLoader -->
<g id="edge67" class="edge"><title>FacadesBase&#45;&gt;FacadesAutoLoader</title>
<path fill="none" stroke="black" d="M732.39,-980.493C762.794,-982.025 803.607,-988.163 833.589,-1008 857.645,-1023.92 846.901,-1044.19 869.589,-1062 871.17,-1063.24 872.812,-1064.43 874.504,-1065.56"/>
<polygon fill="black" stroke="black" points="872.943,-1068.71 883.325,-1070.82 876.526,-1062.69 872.943,-1068.71"/>
</g>
<!-- JsonRpcClientBase -->
<g id="node34" class="node"><title>JsonRpcClientBase</title>
<polygon fill="none" stroke="black" points="750.282,-891 628.282,-891 628.282,-887 624.282,-887 624.282,-883 628.282,-883 628.282,-863 624.282,-863 624.282,-859 628.282,-859 628.282,-855 750.282,-855 750.282,-891"/>
<polyline fill="none" stroke="black" points="628.282,-887 632.282,-887 632.282,-883 628.282,-883 "/>
<polyline fill="none" stroke="black" points="628.282,-863 632.282,-863 632.282,-859 628.282,-859 "/>
<text text-anchor="middle" x="689.282" y="-869.3" font-family="Times,serif" font-size="14.00">JsonRpcClientBase</text>
</g>
<!-- JsonRpcClientBase&#45;&gt;Core_ComponentBase -->
<g id="edge70" class="edge"><title>JsonRpcClientBase&#45;&gt;Core_ComponentBase</title>
<path fill="none" stroke="black" stroke-dasharray="1,5" d="M750.563,-860.358C821.509,-849.009 939.83,-841.498 1020.33,-896 1107.03,-954.701 1139.23,-1086.2 1149.49,-1143.93"/>
<polygon fill="black" stroke="black" points="1146.04,-1144.53 1151.16,-1153.81 1152.95,-1143.37 1146.04,-1144.53"/>
</g>
<!-- JsonRpcExt -->
<g id="node35" class="node"><title>JsonRpcExt</title>
<polygon fill="none" stroke="black" points="985.46,-999 904.46,-999 904.46,-995 900.46,-995 900.46,-991 904.46,-991 904.46,-971 900.46,-971 900.46,-967 904.46,-967 904.46,-963 985.46,-963 985.46,-999"/>
<polyline fill="none" stroke="black" points="904.46,-995 908.46,-995 908.46,-991 904.46,-991 "/>
<polyline fill="none" stroke="black" points="904.46,-971 908.46,-971 908.46,-967 904.46,-967 "/>
<text text-anchor="middle" x="944.96" y="-977.3" font-family="Times,serif" font-size="14.00">JsonRpcExt</text>
</g>
<!-- JsonRpcClientBase&#45;&gt;JsonRpcExt -->
<g id="edge69" class="edge"><title>JsonRpcClientBase&#45;&gt;JsonRpcExt</title>
<path fill="none" stroke="black" d="M750.612,-878.297C776.899,-882.126 807.58,-888.706 833.589,-900 865.1,-913.683 896.212,-937.735 917.33,-956.086"/>
<polygon fill="black" stroke="black" points="915.109,-958.794 924.915,-962.807 919.751,-953.555 915.109,-958.794"/>
</g>
<!-- JsonRpcExt&#45;&gt;Core_ComponentBase -->
<g id="edge52" class="edge"><title>JsonRpcExt&#45;&gt;Core_ComponentBase</title>
<path fill="none" stroke="black" stroke-dasharray="1,5" d="M985.74,-991.028C997.531,-995.129 1010.03,-1000.68 1020.33,-1008 1072.9,-1045.39 1116.15,-1108.76 1138.09,-1144.8"/>
<polygon fill="black" stroke="black" points="1135.32,-1146.98 1143.46,-1153.77 1141.33,-1143.39 1135.32,-1146.98"/>
</g>
<!-- Misc -->
<g id="node36" class="node"><title>Misc</title>
<polygon fill="none" stroke="black" points="716.282,-837 662.282,-837 662.282,-833 658.282,-833 658.282,-829 662.282,-829 662.282,-809 658.282,-809 658.282,-805 662.282,-805 662.282,-801 716.282,-801 716.282,-837"/>
<polyline fill="none" stroke="black" points="662.282,-833 666.282,-833 666.282,-829 662.282,-829 "/>
<polyline fill="none" stroke="black" points="662.282,-809 666.282,-809 666.282,-805 662.282,-805 "/>
<text text-anchor="middle" x="689.282" y="-815.3" font-family="Times,serif" font-size="14.00">Misc</text>
</g>
<!-- Misc&#45;&gt;Core_ComponentBase -->
<g id="edge53" class="edge"><title>Misc&#45;&gt;Core_ComponentBase</title>
<path fill="none" stroke="black" stroke-dasharray="1,5" d="M716.551,-813.164C776.875,-801.368 927.263,-781.296 1020.33,-850 1118.12,-922.187 1144.55,-1079.35 1151.4,-1143.68"/>
<polygon fill="black" stroke="black" points="1147.94,-1144.27 1152.4,-1153.88 1154.9,-1143.59 1147.94,-1144.27"/>
</g>
<!-- Pager -->
<g id="node37" class="node"><title>Pager</title>
<polygon fill="none" stroke="black" points="716.282,-945 662.282,-945 662.282,-941 658.282,-941 658.282,-937 662.282,-937 662.282,-917 658.282,-917 658.282,-913 662.282,-913 662.282,-909 716.282,-909 716.282,-945"/>
<polyline fill="none" stroke="black" points="662.282,-941 666.282,-941 666.282,-937 662.282,-937 "/>
<polyline fill="none" stroke="black" points="662.282,-917 666.282,-917 666.282,-913 662.282,-913 "/>
<text text-anchor="middle" x="689.282" y="-923.3" font-family="Times,serif" font-size="14.00">Pager</text>
</g>
<!-- Pager&#45;&gt;Core_ComponentBase -->
<g id="edge54" class="edge"><title>Pager&#45;&gt;Core_ComponentBase</title>
<path fill="none" stroke="black" stroke-dasharray="1,5" d="M716.648,-919.502C775.901,-904.278 922.083,-875.939 1020.33,-935 1098.12,-981.765 1134.28,-1091.96 1147.46,-1143.93"/>
<polygon fill="black" stroke="black" points="1144.1,-1144.92 1149.87,-1153.81 1150.9,-1143.26 1144.1,-1144.92"/>
</g>
<!-- PagerInterface -->
<g id="node38" class="node"><title>PagerInterface</title>
<polygon fill="none" stroke="black" points="986.46,-1053 897.46,-1053 897.46,-1017 992.46,-1017 992.46,-1047 986.46,-1053"/>
<polyline fill="none" stroke="black" points="986.46,-1053 986.46,-1047 "/>
<polyline fill="none" stroke="black" points="992.46,-1047 986.46,-1047 "/>
<text text-anchor="middle" x="944.96" y="-1031.3" font-family="Times,serif" font-size="14.00">PagerInterface</text>
</g>
<!-- Pager&#45;&gt;PagerInterface -->
<g id="edge71" class="edge"><title>Pager&#45;&gt;PagerInterface</title>
<path fill="none" stroke="black" d="M716.322,-926.055C746.881,-926.186 797.906,-930.391 833.589,-954 857.645,-969.916 846.901,-990.189 869.589,-1008 875.034,-1012.27 881.217,-1015.91 887.636,-1019"/>
<polygon fill="black" stroke="black" points="886.586,-1022.36 897.152,-1023.13 889.376,-1015.94 886.586,-1022.36"/>
</g>
<!-- RedisManager -->
<g id="node39" class="node"><title>RedisManager</title>
<polygon fill="none" stroke="black" points="737.282,-783 641.282,-783 641.282,-779 637.282,-779 637.282,-775 641.282,-775 641.282,-755 637.282,-755 637.282,-751 641.282,-751 641.282,-747 737.282,-747 737.282,-783"/>
<polyline fill="none" stroke="black" points="641.282,-779 645.282,-779 645.282,-775 641.282,-775 "/>
<polyline fill="none" stroke="black" points="641.282,-755 645.282,-755 645.282,-751 641.282,-751 "/>
<text text-anchor="middle" x="689.282" y="-761.3" font-family="Times,serif" font-size="14.00">RedisManager</text>
</g>
<!-- RedisManager&#45;&gt;Core_ComponentBase -->
<g id="edge55" class="edge"><title>RedisManager&#45;&gt;Core_ComponentBase</title>
<path fill="none" stroke="black" stroke-dasharray="1,5" d="M737.543,-755.478C807.27,-744.304 938.289,-734.66 1020.33,-799 1131.03,-885.811 1149.96,-1072.04 1153.1,-1143.38"/>
<polygon fill="black" stroke="black" points="1149.62,-1143.95 1153.48,-1153.81 1156.61,-1143.69 1149.62,-1143.95"/>
</g>
<!-- RedisCache -->
<g id="node40" class="node"><title>RedisCache</title>
<polygon fill="none" stroke="black" points="729.782,-729 648.782,-729 648.782,-725 644.782,-725 644.782,-721 648.782,-721 648.782,-701 644.782,-701 644.782,-697 648.782,-697 648.782,-693 729.782,-693 729.782,-729"/>
<polyline fill="none" stroke="black" points="648.782,-725 652.782,-725 652.782,-721 648.782,-721 "/>
<polyline fill="none" stroke="black" points="648.782,-701 652.782,-701 652.782,-697 648.782,-697 "/>
<text text-anchor="middle" x="689.282" y="-707.3" font-family="Times,serif" font-size="14.00">RedisCache</text>
</g>
<!-- RedisCache&#45;&gt;Core_ComponentBase -->
<g id="edge56" class="edge"><title>RedisCache&#45;&gt;Core_ComponentBase</title>
<path fill="none" stroke="black" stroke-dasharray="1,5" d="M730.026,-702.413C797.794,-690.248 936.492,-676.453 1020.33,-745 1145.52,-847.35 1155.28,-1065.66 1154.56,-1143.61"/>
<polygon fill="black" stroke="black" points="1151.06,-1143.6 1154.4,-1153.65 1158.06,-1143.71 1151.06,-1143.6"/>
</g>
<!-- RouteHookApiServer -->
<g id="node41" class="node"><title>RouteHookApiServer</title>
<polygon fill="none" stroke="black" points="756.282,-675 622.282,-675 622.282,-671 618.282,-671 618.282,-667 622.282,-667 622.282,-647 618.282,-647 618.282,-643 622.282,-643 622.282,-639 756.282,-639 756.282,-675"/>
<polyline fill="none" stroke="black" points="622.282,-671 626.282,-671 626.282,-667 622.282,-667 "/>
<polyline fill="none" stroke="black" points="622.282,-647 626.282,-647 626.282,-643 622.282,-643 "/>
<text text-anchor="middle" x="689.282" y="-653.3" font-family="Times,serif" font-size="14.00">RouteHookApiServer</text>
</g>
<!-- RouteHookApiServer&#45;&gt;Core_ComponentBase -->
<g id="edge57" class="edge"><title>RouteHookApiServer&#45;&gt;Core_ComponentBase</title>
<path fill="none" stroke="black" stroke-dasharray="1,5" d="M756.544,-643.575C829.806,-632.824 947.124,-628.305 1020.33,-690 1091.78,-750.212 1137.35,-1049.87 1150.05,-1143.8"/>
<polygon fill="black" stroke="black" points="1146.61,-1144.51 1151.4,-1153.96 1153.55,-1143.58 1146.61,-1144.51"/>
</g>
<!-- RouteHookDirectoryMode -->
<g id="node42" class="node"><title>RouteHookDirectoryMode</title>
<polygon fill="none" stroke="black" points="770.782,-621 607.782,-621 607.782,-617 603.782,-617 603.782,-613 607.782,-613 607.782,-593 603.782,-593 603.782,-589 607.782,-589 607.782,-585 770.782,-585 770.782,-621"/>
<polyline fill="none" stroke="black" points="607.782,-617 611.782,-617 611.782,-613 607.782,-613 "/>
<polyline fill="none" stroke="black" points="607.782,-593 611.782,-593 611.782,-589 607.782,-589 "/>
<text text-anchor="middle" x="689.282" y="-599.3" font-family="Times,serif" font-size="14.00">RouteHookDirectoryMode</text>
</g>
<!-- RouteHookDirectoryMode&#45;&gt;Core_ComponentBase -->
<g id="edge58" class="edge"><title>RouteHookDirectoryMode&#45;&gt;Core_ComponentBase</title>
<path fill="none" stroke="black" stroke-dasharray="1,5" d="M770.899,-586.973C844.656,-577.275 952.343,-576.323 1020.33,-635 1099.44,-703.277 1140.4,-1043.38 1150.92,-1143.95"/>
<polygon fill="black" stroke="black" points="1147.44,-1144.37 1151.95,-1153.96 1154.41,-1143.66 1147.44,-1144.37"/>
</g>
<!-- RouteHookManager -->
<g id="node43" class="node"><title>RouteHookManager</title>
<polygon fill="none" stroke="black" points="753.282,-567 625.282,-567 625.282,-563 621.282,-563 621.282,-559 625.282,-559 625.282,-539 621.282,-539 621.282,-535 625.282,-535 625.282,-531 753.282,-531 753.282,-567"/>
<polyline fill="none" stroke="black" points="625.282,-563 629.282,-563 629.282,-559 625.282,-559 "/>
<polyline fill="none" stroke="black" points="625.282,-539 629.282,-539 629.282,-535 625.282,-535 "/>
<text text-anchor="middle" x="689.282" y="-545.3" font-family="Times,serif" font-size="14.00">RouteHookManager</text>
</g>
<!-- RouteHookManager&#45;&gt;Core_ComponentBase -->
<g id="edge59" class="edge"><title>RouteHookManager&#45;&gt;Core_ComponentBase</title>
<path fill="none" stroke="black" stroke-dasharray="1,5" d="M753.403,-534.821C826.812,-522.341 947.236,-514.875 1020.33,-579 1107.37,-655.362 1143.18,-1036.61 1151.63,-1143.88"/>
<polygon fill="black" stroke="black" points="1148.14,-1144.23 1152.4,-1153.94 1155.12,-1143.7 1148.14,-1144.23"/>
</g>
<!-- RouteHookPathInfoCompat -->
<g id="node44" class="node"><title>RouteHookPathInfoCompat</title>
<polygon fill="none" stroke="black" points="773.782,-513 604.782,-513 604.782,-509 600.782,-509 600.782,-505 604.782,-505 604.782,-485 600.782,-485 600.782,-481 604.782,-481 604.782,-477 773.782,-477 773.782,-513"/>
<polyline fill="none" stroke="black" points="604.782,-509 608.782,-509 608.782,-505 604.782,-505 "/>
<polyline fill="none" stroke="black" points="604.782,-485 608.782,-485 608.782,-481 604.782,-481 "/>
<text text-anchor="middle" x="689.282" y="-491.3" font-family="Times,serif" font-size="14.00">RouteHookPathInfoCompat</text>
</g>
<!-- RouteHookPathInfoCompat&#45;&gt;Core_ComponentBase -->
<g id="edge60" class="edge"><title>RouteHookPathInfoCompat&#45;&gt;Core_ComponentBase</title>
<path fill="none" stroke="black" stroke-dasharray="1,5" d="M773.856,-477.131C847.842,-466.556 954.081,-464.981 1020.33,-524 1115.15,-608.468 1145.66,-1030.46 1152.21,-1143.89"/>
<polygon fill="black" stroke="black" points="1148.72,-1144.09 1152.77,-1153.88 1155.7,-1143.7 1148.72,-1144.09"/>
</g>
<!-- RouteHookRewrite -->
<g id="node45" class="node"><title>RouteHookRewrite</title>
<polygon fill="none" stroke="black" points="750.282,-459 628.282,-459 628.282,-455 624.282,-455 624.282,-451 628.282,-451 628.282,-431 624.282,-431 624.282,-427 628.282,-427 628.282,-423 750.282,-423 750.282,-459"/>
<polyline fill="none" stroke="black" points="628.282,-455 632.282,-455 632.282,-451 628.282,-451 "/>
<polyline fill="none" stroke="black" points="628.282,-431 632.282,-431 632.282,-427 628.282,-427 "/>
<text text-anchor="middle" x="689.282" y="-437.3" font-family="Times,serif" font-size="14.00">RouteHookRewrite</text>
</g>
<!-- RouteHookRewrite&#45;&gt;Core_ComponentBase -->
<g id="edge61" class="edge"><title>RouteHookRewrite&#45;&gt;Core_ComponentBase</title>
<path fill="none" stroke="black" stroke-dasharray="1,5" d="M750.509,-426.762C823.912,-413.297 947.174,-403.821 1020.33,-470 1122.59,-562.506 1147.81,-1023.74 1152.67,-1143.53"/>
<polygon fill="black" stroke="black" points="1149.18,-1143.88 1153.07,-1153.73 1156.18,-1143.6 1149.18,-1143.88"/>
</g>
<!-- RouteHookRouteMap -->
<g id="node46" class="node"><title>RouteHookRouteMap</title>
<polygon fill="none" stroke="black" points="757.782,-405 620.782,-405 620.782,-401 616.782,-401 616.782,-397 620.782,-397 620.782,-377 616.782,-377 616.782,-373 620.782,-373 620.782,-369 757.782,-369 757.782,-405"/>
<polyline fill="none" stroke="black" points="620.782,-401 624.782,-401 624.782,-397 620.782,-397 "/>
<polyline fill="none" stroke="black" points="620.782,-377 624.782,-377 624.782,-373 620.782,-373 "/>
<text text-anchor="middle" x="689.282" y="-383.3" font-family="Times,serif" font-size="14.00">RouteHookRouteMap</text>
</g>
<!-- RouteHookRouteMap&#45;&gt;Core_ComponentBase -->
<g id="edge62" class="edge"><title>RouteHookRouteMap&#45;&gt;Core_ComponentBase</title>
<path fill="none" stroke="black" stroke-dasharray="1,5" d="M758.088,-383.635C843.423,-380.933 983.335,-382.088 1020.33,-416 1130.12,-516.639 1149.85,-1017.8 1153.09,-1143.41"/>
<polygon fill="black" stroke="black" points="1149.6,-1143.83 1153.34,-1153.74 1156.59,-1143.66 1149.6,-1143.83"/>
</g>
<!-- StrictCheck -->
<g id="node47" class="node"><title>StrictCheck</title>
<polygon fill="none" stroke="black" points="729.282,-351 649.282,-351 649.282,-347 645.282,-347 645.282,-343 649.282,-343 649.282,-323 645.282,-323 645.282,-319 649.282,-319 649.282,-315 729.282,-315 729.282,-351"/>
<polyline fill="none" stroke="black" points="649.282,-347 653.282,-347 653.282,-343 649.282,-343 "/>
<polyline fill="none" stroke="black" points="649.282,-323 653.282,-323 653.282,-319 649.282,-319 "/>
<text text-anchor="middle" x="689.282" y="-329.3" font-family="Times,serif" font-size="14.00">StrictCheck</text>
</g>
<!-- StrictCheck&#45;&gt;Core_ComponentBase -->
<g id="edge63" class="edge"><title>StrictCheck&#45;&gt;Core_ComponentBase</title>
<path fill="none" stroke="black" stroke-dasharray="1,5" d="M729.481,-333.01C807.825,-333.889 979.718,-340.404 1020.33,-380 1132.26,-489.123 1150.42,-1014.64 1153.2,-1143.45"/>
<polygon fill="black" stroke="black" points="1149.71,-1143.76 1153.41,-1153.68 1156.7,-1143.61 1149.71,-1143.76"/>
</g>
<!-- DuckPhp -->
<g id="node48" class="node"><title>DuckPhp</title>
<polygon fill="lightgrey" stroke="black" points="325.909,-405 264.242,-387 325.909,-369 387.576,-387 325.909,-405"/>
<polyline fill="none" stroke="black" points="275.761,-390.362 275.761,-383.638 "/>
<polyline fill="none" stroke="black" points="314.39,-372.362 337.428,-372.362 "/>
<polyline fill="none" stroke="black" points="376.057,-383.638 376.057,-390.362 "/>
<polyline fill="none" stroke="black" points="337.428,-401.638 314.39,-401.638 "/>
<text text-anchor="middle" x="325.909" y="-383.3" font-family="Times,serif" font-size="14.00">DuckPhp</text>
</g>
<!-- DuckPhp&#45;&gt;Core_App -->
<g id="edge72" class="edge"><title>DuckPhp&#45;&gt;Core_App</title>
<path fill="none" stroke="black" d="M329.413,-404.183C346.538,-521.672 446.307,-1206.16 467.323,-1350.35"/>
<polygon fill="black" stroke="black" points="463.896,-1351.11 468.802,-1360.5 470.823,-1350.1 463.896,-1351.11"/>
</g>
<!-- DuckPhp&#45;&gt;Cache -->
<g id="edge78" class="edge"><title>DuckPhp&#45;&gt;Cache</title>
<path fill="none" stroke="black" d="M351.313,-376.379C391.162,-359.392 472.986,-325.996 544.974,-306 580.822,-296.043 622.736,-288.62 651.94,-284.103"/>
<polygon fill="black" stroke="black" points="652.723,-287.525 662.089,-282.571 651.679,-280.603 652.723,-287.525"/>
</g>
<!-- DuckPhp&#45;&gt;DbManager -->
<g id="edge75" class="edge"><title>DuckPhp&#45;&gt;DbManager</title>
<path fill="none" stroke="black" d="M342.584,-373.782C376.766,-345.796 461.64,-280.775 544.974,-252 575.133,-241.586 610.327,-234.882 638.291,-230.759"/>
<polygon fill="black" stroke="black" points="638.831,-234.218 648.244,-229.355 637.853,-227.287 638.831,-234.218"/>
</g>
<!-- DuckPhp&#45;&gt;EventManager -->
<g id="edge76" class="edge"><title>DuckPhp&#45;&gt;EventManager</title>
<path fill="none" stroke="black" d="M336.537,-371.84C352.89,-346.974 388.161,-296.993 427.441,-264 473.316,-225.469 488.675,-218.483 544.974,-198 572.294,-188.06 603.939,-181.605 630.532,-177.508"/>
<polygon fill="black" stroke="black" points="631.071,-180.967 640.457,-176.051 630.054,-174.041 631.071,-180.967"/>
</g>
<!-- DuckPhp&#45;&gt;Pager -->
<g id="edge74" class="edge"><title>DuckPhp&#45;&gt;Pager</title>
<path fill="none" stroke="black" d="M328.569,-404.616C336.524,-478.443 377.588,-765.321 544.974,-900 575.19,-924.312 620.556,-929.196 652.123,-929.197"/>
<polygon fill="black" stroke="black" points="652.316,-932.695 662.258,-929.032 652.202,-925.696 652.316,-932.695"/>
</g>
<!-- DuckPhp&#45;&gt;RouteHookPathInfoCompat -->
<g id="edge77" class="edge"><title>DuckPhp&#45;&gt;RouteHookPathInfoCompat</title>
<path fill="none" stroke="black" d="M351.313,-397.621C391.162,-414.608 472.986,-448.004 544.974,-468 560.832,-472.405 577.877,-476.314 594.484,-479.694"/>
<polygon fill="black" stroke="black" points="594.263,-483.219 604.753,-481.731 595.625,-476.352 594.263,-483.219"/>
</g>
<!-- DuckPhp&#45;&gt;RouteHookRouteMap -->
<g id="edge73" class="edge"><title>DuckPhp&#45;&gt;RouteHookRouteMap</title>
<path fill="none" stroke="black" d="M387.802,-387C449.123,-387 543.946,-387 610.637,-387"/>
<polygon fill="black" stroke="black" points="610.677,-390.5 620.677,-387 610.677,-383.5 610.677,-390.5"/>
</g>
<!-- HttpServer -->
<g id="node49" class="node"><title>HttpServer</title>
<polygon fill="lightgrey" stroke="black" points="116.188,-1566 46.4759,-1548 116.188,-1530 185.9,-1548 116.188,-1566"/>
<polyline fill="none" stroke="black" points="58.0949,-1551 58.0949,-1545 "/>
<polyline fill="none" stroke="black" points="104.569,-1533 127.807,-1533 "/>
<polyline fill="none" stroke="black" points="174.281,-1545 174.281,-1551 "/>
<polyline fill="none" stroke="black" points="127.807,-1563 104.569,-1563 "/>
<text text-anchor="middle" x="116.188" y="-1544.3" font-family="Times,serif" font-size="14.00">HttpServer</text>
</g>
<!-- ThrowOn -->
<g id="node50" class="node"><title>ThrowOn</title>
<polygon fill="lightgrey" stroke="black" points="116.188,-1649 52.8443,-1631 116.188,-1613 179.532,-1631 116.188,-1649"/>
<polyline fill="none" stroke="black" points="64.3873,-1634.28 64.3873,-1627.72 "/>
<polyline fill="none" stroke="black" points="104.645,-1616.28 127.731,-1616.28 "/>
<polyline fill="none" stroke="black" points="167.989,-1627.72 167.989,-1634.28 "/>
<polyline fill="none" stroke="black" points="127.731,-1645.72 104.645,-1645.72 "/>
<text text-anchor="middle" x="116.188" y="-1627.3" font-family="Times,serif" font-size="14.00">ThrowOn</text>
</g>
</g>
</svg>
