<?xml version="1.0" encoding="UTF-8" standalone="no"?>
<!DOCTYPE svg PUBLIC "-//W3C//DTD SVG 1.1//EN"
 "http://www.w3.org/Graphics/SVG/1.1/DTD/svg11.dtd">
<!-- Generated by graphviz version 2.38.0 (20140413.2041)
 -->
<!-- Title: G Pages: 1 -->
<svg width="1431pt" height="1394pt"
 viewBox="0.00 0.00 1430.79 1393.64" xmlns="http://www.w3.org/2000/svg" xmlns:xlink="http://www.w3.org/1999/xlink">
<g id="graph0" class="graph" transform="scale(1 1) rotate(0) translate(4 1389.64)">
<title>G</title>
<polygon fill="white" stroke="none" points="-4,4 -4,-1389.64 1426.79,-1389.64 1426.79,4 -4,4"/>
<g id="clust1" class="cluster"><title>cluster_Core</title>
<polygon fill="none" stroke="black" points="427.441,-850.64 427.441,-1377.64 1389.97,-1377.64 1389.97,-850.64 427.441,-850.64"/>
<text text-anchor="middle" x="908.707" y="-1362.44" font-family="Times,serif" font-size="14.00">[DuckPhp\Core]</text>
</g>
<g id="clust2" class="cluster"><title>cluster_Helper</title>
<polygon fill="none" stroke="black" points="8,-950.64 8,-1241.64 407.441,-1241.64 407.441,-950.64 8,-950.64"/>
<text text-anchor="middle" x="207.721" y="-1226.44" font-family="Times,serif" font-size="14.00">[DuckPhp\Helper]</text>
</g>
<g id="clust3" class="cluster"><title>cluster_DB</title>
<polygon fill="none" stroke="black" points="1080.08,-10.6404 1080.08,-139.64 1414.79,-139.64 1414.79,-10.6404 1080.08,-10.6404"/>
<text text-anchor="middle" x="1247.43" y="-124.44" font-family="Times,serif" font-size="14.00">[DuckPhp\DB]</text>
</g>
<g id="clust4" class="cluster"><title>cluster_Ext</title>
<polygon fill="none" stroke="black" points="577.417,-37.6404 577.417,-814.64 1018.08,-814.64 1018.08,-37.6404 577.417,-37.6404"/>
<text text-anchor="middle" x="797.75" y="-799.44" font-family="Times,serif" font-size="14.00">[DuckPhp\Ext]</text>
</g>
<g id="clust5" class="cluster"><title>cluster_DuckPhp</title>
<polygon fill="none" stroke="black" points="248.053,-469.64 248.053,-598.64 403.765,-598.64 403.765,-469.64 248.053,-469.64"/>
<text text-anchor="middle" x="325.909" y="-583.44" font-family="Times,serif" font-size="14.00">[DuckPhp]</text>
</g>
<!-- Core_AppPluginTrait -->
<g id="node1" class="node"><title>Core_AppPluginTrait</title>
<polygon fill="none" stroke="black" points="689.282,-1044.64 596.612,-1026.64 689.282,-1008.64 781.952,-1026.64 689.282,-1044.64"/>
<text text-anchor="middle" x="689.282" y="-1022.94" font-family="Times,serif" font-size="14.00">AppPluginTrait</text>
</g>
<!-- Core_View -->
<g id="node7" class="node"><title>Core_View</title>
<polygon fill="none" stroke="black" points="974.582,-948.64 920.582,-948.64 920.582,-944.64 916.582,-944.64 916.582,-940.64 920.582,-940.64 920.582,-920.64 916.582,-920.64 916.582,-916.64 920.582,-916.64 920.582,-912.64 974.582,-912.64 974.582,-948.64"/>
<polyline fill="none" stroke="black" points="920.582,-944.64 924.582,-944.64 924.582,-940.64 920.582,-940.64 "/>
<polyline fill="none" stroke="black" points="920.582,-920.64 924.582,-920.64 924.582,-916.64 920.582,-916.64 "/>
<text text-anchor="middle" x="947.582" y="-926.94" font-family="Times,serif" font-size="14.00">View</text>
</g>
<!-- Core_AppPluginTrait&#45;&gt;Core_View -->
<g id="edge24" class="edge"><title>Core_AppPluginTrait&#45;&gt;Core_View</title>
<path fill="none" stroke="black" d="M724.211,-1015.33C753.466,-1005.34 796.696,-990.006 833.589,-974.64 849.924,-967.838 853.219,-964.355 869.589,-957.64 882.852,-952.2 897.662,-946.842 910.722,-942.351"/>
<polygon fill="black" stroke="black" points="911.967,-945.624 920.314,-939.098 909.719,-938.995 911.967,-945.624"/>
</g>
<!-- Core_Configer -->
<g id="node8" class="node"><title>Core_Configer</title>
<polygon fill="none" stroke="black" points="980.082,-1056.64 915.082,-1056.64 915.082,-1052.64 911.082,-1052.64 911.082,-1048.64 915.082,-1048.64 915.082,-1028.64 911.082,-1028.64 911.082,-1024.64 915.082,-1024.64 915.082,-1020.64 980.082,-1020.64 980.082,-1056.64"/>
<polyline fill="none" stroke="black" points="915.082,-1052.64 919.082,-1052.64 919.082,-1048.64 915.082,-1048.64 "/>
<polyline fill="none" stroke="black" points="915.082,-1028.64 919.082,-1028.64 919.082,-1024.64 915.082,-1024.64 "/>
<text text-anchor="middle" x="947.582" y="-1034.94" font-family="Times,serif" font-size="14.00">Configer</text>
</g>
<!-- Core_AppPluginTrait&#45;&gt;Core_Configer -->
<g id="edge23" class="edge"><title>Core_AppPluginTrait&#45;&gt;Core_Configer</title>
<path fill="none" stroke="black" d="M764.415,-1030.11C810.091,-1032.25 866.974,-1034.91 904.907,-1036.69"/>
<polygon fill="black" stroke="black" points="904.926,-1040.19 915.079,-1037.17 905.253,-1033.2 904.926,-1040.19"/>
</g>
<!-- Core_Route -->
<g id="node10" class="node"><title>Core_Route</title>
<polygon fill="lightgrey" stroke="black" points="947.582,-1002.64 902.505,-984.64 947.582,-966.64 992.66,-984.64 947.582,-1002.64"/>
<polyline fill="none" stroke="black" points="913.649,-989.09 913.649,-980.19 "/>
<polyline fill="none" stroke="black" points="936.438,-971.09 958.727,-971.09 "/>
<polyline fill="none" stroke="black" points="981.516,-980.19 981.516,-989.09 "/>
<polyline fill="none" stroke="black" points="958.727,-998.19 936.438,-998.19 "/>
<text text-anchor="middle" x="947.582" y="-980.94" font-family="Times,serif" font-size="14.00">Route</text>
</g>
<!-- Core_AppPluginTrait&#45;&gt;Core_Route -->
<g id="edge25" class="edge"><title>Core_AppPluginTrait&#45;&gt;Core_Route</title>
<path fill="none" stroke="black" d="M740.308,-1018.44C788.422,-1010.56 860.295,-998.78 905.255,-991.413"/>
<polygon fill="black" stroke="black" points="905.945,-994.846 915.247,-989.775 904.813,-987.939 905.945,-994.846"/>
</g>
<!-- Core_SuperGlobal -->
<g id="node14" class="node"><title>Core_SuperGlobal</title>
<polygon fill="none" stroke="black" points="990.082,-1110.64 905.082,-1110.64 905.082,-1106.64 901.082,-1106.64 901.082,-1102.64 905.082,-1102.64 905.082,-1082.64 901.082,-1082.64 901.082,-1078.64 905.082,-1078.64 905.082,-1074.64 990.082,-1074.64 990.082,-1110.64"/>
<polyline fill="none" stroke="black" points="905.082,-1106.64 909.082,-1106.64 909.082,-1102.64 905.082,-1102.64 "/>
<polyline fill="none" stroke="black" points="905.082,-1082.64 909.082,-1082.64 909.082,-1078.64 905.082,-1078.64 "/>
<text text-anchor="middle" x="947.582" y="-1088.94" font-family="Times,serif" font-size="14.00">SuperGlobal</text>
</g>
<!-- Core_AppPluginTrait&#45;&gt;Core_SuperGlobal -->
<g id="edge26" class="edge"><title>Core_AppPluginTrait&#45;&gt;Core_SuperGlobal</title>
<path fill="none" stroke="black" d="M729.767,-1036.81C774.17,-1048.24 846.427,-1066.85 895.196,-1079.41"/>
<polygon fill="black" stroke="black" points="894.368,-1082.81 904.924,-1081.91 896.113,-1076.03 894.368,-1082.81"/>
</g>
<!-- Core_App -->
<g id="node2" class="node"><title>Core_App</title>
<polygon fill="lightgrey" stroke="black" points="472.208,-1122.64 435.674,-1104.64 472.208,-1086.64 508.742,-1104.64 472.208,-1122.64"/>
<polyline fill="none" stroke="black" points="446.438,-1109.94 446.438,-1099.34 "/>
<polyline fill="none" stroke="black" points="461.443,-1091.94 482.972,-1091.94 "/>
<polyline fill="none" stroke="black" points="497.977,-1099.34 497.977,-1109.94 "/>
<polyline fill="none" stroke="black" points="482.972,-1117.34 461.443,-1117.34 "/>
<text text-anchor="middle" x="472.208" y="-1100.94" font-family="Times,serif" font-size="14.00">App</text>
</g>
<!-- Core_Kernel -->
<g id="node3" class="node"><title>Core_Kernel</title>
<polygon fill="none" stroke="black" points="689.282,-1138.64 640.35,-1120.64 689.282,-1102.64 738.213,-1120.64 689.282,-1138.64"/>
<text text-anchor="middle" x="689.282" y="-1116.94" font-family="Times,serif" font-size="14.00">Kernel</text>
</g>
<!-- Core_App&#45;&gt;Core_Kernel -->
<g id="edge9" class="edge"><title>Core_App&#45;&gt;Core_Kernel</title>
<path fill="none" stroke="black" d="M504.481,-1106.97C539.495,-1109.57 596.731,-1113.83 638.037,-1116.9"/>
<polygon fill="black" stroke="black" points="637.941,-1120.4 648.173,-1117.66 638.46,-1113.42 637.941,-1120.4"/>
</g>
<!-- Core_AutoLoader -->
<g id="node5" class="node"><title>Core_AutoLoader</title>
<ellipse fill="none" stroke="black" cx="947.582" cy="-1200.64" rx="53.0913" ry="18"/>
<text text-anchor="middle" x="947.582" y="-1196.94" font-family="Times,serif" font-size="14.00">AutoLoader</text>
</g>
<!-- Core_App&#45;&gt;Core_AutoLoader -->
<g id="edge13" class="edge"><title>Core_App&#45;&gt;Core_AutoLoader</title>
<path fill="none" stroke="black" stroke-dasharray="1,5" d="M483.934,-1117.11C496.836,-1131.15 519.911,-1153.34 544.974,-1163.64 560.443,-1170 776.578,-1187.48 885.194,-1195.94"/>
<polygon fill="black" stroke="black" points="885.118,-1199.44 895.359,-1196.73 885.661,-1192.46 885.118,-1199.44"/>
</g>
<!-- Core_ExceptionManager -->
<g id="node6" class="node"><title>Core_ExceptionManager</title>
<ellipse fill="none" stroke="black" cx="947.582" cy="-1274.64" rx="77.9862" ry="18"/>
<text text-anchor="middle" x="947.582" y="-1270.94" font-family="Times,serif" font-size="14.00">ExceptionManager</text>
</g>
<!-- Core_App&#45;&gt;Core_ExceptionManager -->
<g id="edge16" class="edge"><title>Core_App&#45;&gt;Core_ExceptionManager</title>
<path fill="none" stroke="black" stroke-dasharray="1,5" d="M472.954,-1122.46C473.444,-1164.55 481.271,-1270.02 544.974,-1315.64 597.119,-1352.98 770.552,-1327.47 833.589,-1315.64 850.462,-1312.48 853.487,-1307.59 869.589,-1301.64 877.42,-1298.75 885.726,-1295.75 893.873,-1292.86"/>
<polygon fill="black" stroke="black" points="895.062,-1296.15 903.326,-1289.52 892.732,-1289.55 895.062,-1296.15"/>
</g>
<!-- Core_App&#45;&gt;Core_View -->
<g id="edge19" class="edge"><title>Core_App&#45;&gt;Core_View</title>
<path fill="none" stroke="black" stroke-dasharray="1,5" d="M476.665,-1088.81C483.828,-1060.27 503.233,-1000.76 544.974,-974.64 572.195,-957.606 801.846,-964.489 833.589,-959.64 859.805,-955.636 888.765,-948.141 910.803,-941.773"/>
<polygon fill="black" stroke="black" points="911.804,-945.127 920.407,-938.944 909.825,-938.413 911.804,-945.127"/>
</g>
<!-- Core_App&#45;&gt;Core_Configer -->
<g id="edge14" class="edge"><title>Core_App&#45;&gt;Core_Configer</title>
<path fill="none" stroke="black" stroke-dasharray="1,5" d="M494.312,-1097.37C508.479,-1092.76 527.65,-1087.05 544.974,-1083.64 671.516,-1058.76 705.518,-1068.79 833.589,-1053.64 857.233,-1050.84 883.61,-1047.36 904.929,-1044.46"/>
<polygon fill="black" stroke="black" points="905.522,-1047.91 914.954,-1043.08 904.572,-1040.97 905.522,-1047.91"/>
</g>
<!-- Core_Logger -->
<g id="node9" class="node"><title>Core_Logger</title>
<polygon fill="none" stroke="black" points="975.582,-1346.64 919.582,-1346.64 919.582,-1342.64 915.582,-1342.64 915.582,-1338.64 919.582,-1338.64 919.582,-1318.64 915.582,-1318.64 915.582,-1314.64 919.582,-1314.64 919.582,-1310.64 975.582,-1310.64 975.582,-1346.64"/>
<polyline fill="none" stroke="black" points="919.582,-1342.64 923.582,-1342.64 923.582,-1338.64 919.582,-1338.64 "/>
<polyline fill="none" stroke="black" points="919.582,-1318.64 923.582,-1318.64 923.582,-1314.64 919.582,-1314.64 "/>
<text text-anchor="middle" x="947.582" y="-1324.94" font-family="Times,serif" font-size="14.00">Logger</text>
</g>
<!-- Core_App&#45;&gt;Core_Logger -->
<g id="edge15" class="edge"><title>Core_App&#45;&gt;Core_Logger</title>
<path fill="none" stroke="black" stroke-dasharray="1,5" d="M472.499,-1122.69C471.868,-1166.98 477.198,-1281.05 544.974,-1330.64 602.089,-1372.43 821.15,-1346.69 909.411,-1334.24"/>
<polygon fill="black" stroke="black" points="910.104,-1337.67 919.506,-1332.79 909.11,-1330.74 910.104,-1337.67"/>
</g>
<!-- Core_App&#45;&gt;Core_Route -->
<g id="edge17" class="edge"><title>Core_App&#45;&gt;Core_Route</title>
<path fill="none" stroke="black" stroke-dasharray="1,5" d="M478.454,-1089.45C487.658,-1065.42 509.21,-1019.38 544.974,-999.64 604.529,-966.773 806.347,-975.271 899.166,-981.189"/>
<polygon fill="black" stroke="black" points="899.19,-984.698 909.397,-981.86 899.648,-977.713 899.19,-984.698"/>
</g>
<!-- Core_RuntimeState -->
<g id="node11" class="node"><title>Core_RuntimeState</title>
<polygon fill="none" stroke="black" points="993.082,-1164.64 902.082,-1164.64 902.082,-1160.64 898.082,-1160.64 898.082,-1156.64 902.082,-1156.64 902.082,-1136.64 898.082,-1136.64 898.082,-1132.64 902.082,-1132.64 902.082,-1128.64 993.082,-1128.64 993.082,-1164.64"/>
<polyline fill="none" stroke="black" points="902.082,-1160.64 906.082,-1160.64 906.082,-1156.64 902.082,-1156.64 "/>
<polyline fill="none" stroke="black" points="902.082,-1136.64 906.082,-1136.64 906.082,-1132.64 902.082,-1132.64 "/>
<text text-anchor="middle" x="947.582" y="-1142.94" font-family="Times,serif" font-size="14.00">RuntimeState</text>
</g>
<!-- Core_App&#45;&gt;Core_RuntimeState -->
<g id="edge18" class="edge"><title>Core_App&#45;&gt;Core_RuntimeState</title>
<path fill="none" stroke="black" stroke-dasharray="1,5" d="M486.466,-1115.63C500.142,-1126.2 522.576,-1141.44 544.974,-1147.64 665.077,-1180.87 813.229,-1167.21 891.725,-1155.94"/>
<polygon fill="black" stroke="black" points="892.488,-1159.37 901.868,-1154.44 891.464,-1152.44 892.488,-1159.37"/>
</g>
<!-- Core_SystemWrapperTrait -->
<g id="node12" class="node"><title>Core_SystemWrapperTrait</title>
<polygon fill="none" stroke="black" points="689.282,-1252.64 568.962,-1234.64 689.282,-1216.64 809.601,-1234.64 689.282,-1252.64"/>
<text text-anchor="middle" x="689.282" y="-1230.94" font-family="Times,serif" font-size="14.00">SystemWrapperTrait</text>
</g>
<!-- Core_App&#45;&gt;Core_SystemWrapperTrait -->
<g id="edge12" class="edge"><title>Core_App&#45;&gt;Core_SystemWrapperTrait</title>
<path fill="none" stroke="black" d="M479.679,-1119.21C490.131,-1140.96 512.853,-1181.63 544.974,-1202.64 562.117,-1213.85 582.616,-1221.18 602.677,-1225.95"/>
<polygon fill="black" stroke="black" points="601.955,-1229.38 612.473,-1228.1 603.453,-1222.54 601.955,-1229.38"/>
</g>
<!-- Core_App&#45;&gt;Core_SuperGlobal -->
<g id="edge20" class="edge"><title>Core_App&#45;&gt;Core_SuperGlobal</title>
<path fill="none" stroke="black" stroke-dasharray="1,5" d="M499.01,-1099.73C512.624,-1097.38 529.642,-1094.83 544.974,-1093.64 670.125,-1083.95 817.871,-1087.39 894.537,-1090.29"/>
<polygon fill="black" stroke="black" points="894.745,-1093.8 904.874,-1090.7 895.018,-1086.81 894.745,-1093.8"/>
</g>
<!-- Core_ExtendableStaticCallTrait -->
<g id="node15" class="node"><title>Core_ExtendableStaticCallTrait</title>
<polygon fill="none" stroke="black" points="689.282,-896.64 545.166,-878.64 689.282,-860.64 833.397,-878.64 689.282,-896.64"/>
<text text-anchor="middle" x="689.282" y="-874.94" font-family="Times,serif" font-size="14.00">ExtendableStaticCallTrait</text>
</g>
<!-- Core_App&#45;&gt;Core_ExtendableStaticCallTrait -->
<g id="edge11" class="edge"><title>Core_App&#45;&gt;Core_ExtendableStaticCallTrait</title>
<path fill="none" stroke="black" d="M473.96,-1087.37C476.644,-1048.41 488.913,-953.385 544.974,-905.64 554.48,-897.545 565.641,-891.567 577.468,-887.19"/>
<polygon fill="black" stroke="black" points="578.68,-890.476 587.076,-884.014 576.483,-883.829 578.68,-890.476"/>
</g>
<!-- Core_ThrowOn -->
<g id="node16" class="node"><title>Core_ThrowOn</title>
<polygon fill="lightgrey" stroke="black" points="689.282,-950.64 625.938,-932.64 689.282,-914.64 752.626,-932.64 689.282,-950.64"/>
<polyline fill="none" stroke="black" points="637.481,-935.921 637.481,-929.36 "/>
<polyline fill="none" stroke="black" points="677.739,-917.921 700.825,-917.921 "/>
<polyline fill="none" stroke="black" points="741.083,-929.36 741.083,-935.921 "/>
<polyline fill="none" stroke="black" points="700.825,-947.36 677.739,-947.36 "/>
<text text-anchor="middle" x="689.282" y="-928.94" font-family="Times,serif" font-size="14.00">ThrowOn</text>
</g>
<!-- Core_App&#45;&gt;Core_ThrowOn -->
<g id="edge10" class="edge"><title>Core_App&#45;&gt;Core_ThrowOn</title>
<path fill="none" stroke="black" d="M476.644,-1088.78C483.866,-1059.43 503.495,-996.726 544.974,-964.64 566.513,-947.979 595.029,-939.65 620.948,-935.602"/>
<polygon fill="black" stroke="black" points="621.68,-939.034 631.111,-934.206 620.728,-932.099 621.68,-939.034"/>
</g>
<!-- Core_ComponentBase -->
<g id="node18" class="node"><title>Core_ComponentBase</title>
<polygon fill="none" stroke="black" points="1168.58,-894.64 1065.58,-894.64 1061.58,-890.64 1061.58,-858.64 1164.58,-858.64 1168.58,-862.64 1168.58,-894.64"/>
<polyline fill="none" stroke="black" points="1164.58,-890.64 1061.58,-890.64 "/>
<polyline fill="none" stroke="black" points="1164.58,-890.64 1164.58,-858.64 "/>
<polyline fill="none" stroke="black" points="1164.58,-890.64 1168.58,-894.64 "/>
<text text-anchor="middle" x="1115.08" y="-872.94" font-family="Times,serif" font-size="14.00">ComponentBase</text>
</g>
<!-- Core_App&#45;&gt;Core_ComponentBase -->
<g id="edge22" class="edge"><title>Core_App&#45;&gt;Core_ComponentBase</title>
<path fill="none" stroke="black" stroke-dasharray="1,5" d="M481.089,-1118.42C492.512,-1136.92 515.559,-1169.13 544.974,-1183.64 660.416,-1240.57 710.435,-1170.21 833.589,-1207.64 851.102,-1212.96 851.871,-1223.05 869.589,-1227.64 903.145,-1236.34 998.232,-1248.95 1025.58,-1227.64 1077.08,-1187.51 1103.28,-981.296 1111.32,-905.036"/>
<polygon fill="black" stroke="black" points="1114.84,-905.068 1112.38,-894.763 1107.87,-904.353 1114.84,-905.068"/>
</g>
<!-- Core_Functions -->
<g id="node19" class="node"><title>Core_Functions</title>
<ellipse fill="none" stroke="black" cx="689.282" cy="-1288.64" rx="45.4919" ry="18"/>
<text text-anchor="middle" x="689.282" y="-1284.94" font-family="Times,serif" font-size="14.00">Functions</text>
</g>
<!-- Core_App&#45;&gt;Core_Functions -->
<g id="edge21" class="edge"><title>Core_App&#45;&gt;Core_Functions</title>
<path fill="none" stroke="black" stroke-dasharray="1,5" d="M475.651,-1121C481.403,-1153.38 498.955,-1225.62 544.974,-1261.64 569.941,-1281.18 604.776,-1288.07 633.849,-1290"/>
<polygon fill="black" stroke="black" points="633.708,-1293.5 643.867,-1290.49 634.05,-1286.51 633.708,-1293.5"/>
</g>
<!-- Core_Kernel&#45;&gt;Core_AutoLoader -->
<g id="edge1" class="edge"><title>Core_Kernel&#45;&gt;Core_AutoLoader</title>
<path fill="none" stroke="black" d="M716.268,-1128.75C758.799,-1142.03 843.935,-1168.6 897.936,-1185.46"/>
<polygon fill="black" stroke="black" points="897.051,-1188.85 907.64,-1188.49 899.137,-1182.16 897.051,-1188.85"/>
</g>
<!-- Core_Kernel&#45;&gt;Core_ExceptionManager -->
<g id="edge4" class="edge"><title>Core_Kernel&#45;&gt;Core_ExceptionManager</title>
<path fill="none" stroke="black" d="M708.714,-1131.72C750.683,-1156.93 854.023,-1219.03 909.673,-1252.46"/>
<polygon fill="black" stroke="black" points="908.131,-1255.62 918.505,-1257.77 911.736,-1249.62 908.131,-1255.62"/>
</g>
<!-- Core_Kernel&#45;&gt;Core_View -->
<g id="edge7" class="edge"><title>Core_Kernel&#45;&gt;Core_View</title>
<path fill="none" stroke="black" d="M720.072,-1113.88C752.188,-1105.13 802.829,-1086.92 833.589,-1053.64 864.521,-1020.18 837.024,-989.514 869.589,-957.64 880.586,-946.877 896.115,-940.387 910.348,-936.481"/>
<polygon fill="black" stroke="black" points="911.492,-939.806 920.4,-934.07 909.859,-932.999 911.492,-939.806"/>
</g>
<!-- Core_Kernel&#45;&gt;Core_Configer -->
<g id="edge2" class="edge"><title>Core_Kernel&#45;&gt;Core_Configer</title>
<path fill="none" stroke="black" d="M716.268,-1112.33C760.743,-1098.1 851.808,-1068.96 905.139,-1051.9"/>
<polygon fill="black" stroke="black" points="906.5,-1055.14 914.958,-1048.76 904.367,-1048.47 906.5,-1055.14"/>
</g>
<!-- Core_Kernel&#45;&gt;Core_Logger -->
<g id="edge3" class="edge"><title>Core_Kernel&#45;&gt;Core_Logger</title>
<path fill="none" stroke="black" d="M714.442,-1129.51C745.969,-1142.24 800.953,-1168.53 833.589,-1207.64 862.254,-1241.99 837.509,-1270.46 869.589,-1301.64 880.379,-1312.13 895.47,-1318.56 909.435,-1322.5"/>
<polygon fill="black" stroke="black" points="908.779,-1325.94 919.327,-1324.95 910.461,-1319.15 908.779,-1325.94"/>
</g>
<!-- Core_Kernel&#45;&gt;Core_Route -->
<g id="edge5" class="edge"><title>Core_Kernel&#45;&gt;Core_Route</title>
<path fill="none" stroke="black" d="M715.88,-1112.42C746.016,-1101.93 796.632,-1081.72 833.589,-1053.64 853.165,-1038.77 849.294,-1025.52 869.589,-1011.64 881.144,-1003.74 895.249,-997.916 908.215,-993.743"/>
<polygon fill="black" stroke="black" points="909.267,-997.081 917.847,-990.866 907.263,-990.374 909.267,-997.081"/>
</g>
<!-- Core_Kernel&#45;&gt;Core_RuntimeState -->
<g id="edge6" class="edge"><title>Core_Kernel&#45;&gt;Core_RuntimeState</title>
<path fill="none" stroke="black" d="M728.1,-1124.48C771.26,-1128.86 842.233,-1136.05 891.528,-1141.06"/>
<polygon fill="black" stroke="black" points="891.398,-1144.56 901.7,-1142.09 892.104,-1137.6 891.398,-1144.56"/>
</g>
<!-- Core_Kernel&#45;&gt;Core_SuperGlobal -->
<g id="edge8" class="edge"><title>Core_Kernel&#45;&gt;Core_SuperGlobal</title>
<path fill="none" stroke="black" d="M727.276,-1116.6C771.28,-1111.79 845.014,-1103.74 894.702,-1098.31"/>
<polygon fill="black" stroke="black" points="895.359,-1101.76 904.92,-1097.19 894.599,-1094.8 895.359,-1101.76"/>
</g>
<!-- Core_SingletonEx -->
<g id="node4" class="node"><title>Core_SingletonEx</title>
<polygon fill="lightgrey" stroke="black" points="1305.68,-1147.64 1229.6,-1129.64 1305.68,-1111.64 1381.76,-1129.64 1305.68,-1147.64"/>
<polyline fill="none" stroke="black" points="1241.28,-1132.4 1241.28,-1126.88 "/>
<polyline fill="none" stroke="black" points="1294.01,-1114.4 1317.36,-1114.4 "/>
<polyline fill="none" stroke="black" points="1370.09,-1126.88 1370.09,-1132.4 "/>
<polyline fill="none" stroke="black" points="1317.36,-1144.88 1294.01,-1144.88 "/>
<text text-anchor="middle" x="1305.68" y="-1125.94" font-family="Times,serif" font-size="14.00">SingletonEx</text>
</g>
<!-- Core_View&#45;&gt;Core_ComponentBase -->
<g id="edge31" class="edge"><title>Core_View&#45;&gt;Core_ComponentBase</title>
<path fill="none" stroke="black" stroke-dasharray="1,5" d="M974.805,-922.084C995.423,-915.356 1025.01,-905.702 1051.61,-897.021"/>
<polygon fill="black" stroke="black" points="1052.84,-900.304 1061.26,-893.874 1050.67,-893.649 1052.84,-900.304"/>
</g>
<!-- Core_Configer&#45;&gt;Core_ComponentBase -->
<g id="edge27" class="edge"><title>Core_Configer&#45;&gt;Core_ComponentBase</title>
<path fill="none" stroke="black" stroke-dasharray="1,5" d="M980.105,-1032.54C995.025,-1028.48 1012.41,-1021.94 1025.58,-1011.64 1062.42,-982.813 1088.85,-934.178 1102.77,-903.825"/>
<polygon fill="black" stroke="black" points="1105.98,-905.22 1106.85,-894.661 1099.59,-902.373 1105.98,-905.22"/>
</g>
<!-- Core_Logger&#45;&gt;Core_ComponentBase -->
<g id="edge32" class="edge"><title>Core_Logger&#45;&gt;Core_ComponentBase</title>
<path fill="none" stroke="black" stroke-dasharray="1,5" d="M975.853,-1325.82C992.559,-1322.65 1013.07,-1315.92 1025.58,-1301.64 1078.15,-1241.63 1104.29,-990.188 1111.77,-905.001"/>
<polygon fill="black" stroke="black" points="1115.28,-905.05 1112.64,-894.788 1108.3,-904.452 1115.28,-905.05"/>
</g>
<!-- Core_Route&#45;&gt;Core_ComponentBase -->
<g id="edge28" class="edge"><title>Core_Route&#45;&gt;Core_ComponentBase</title>
<path fill="none" stroke="black" stroke-dasharray="1,5" d="M976.133,-977.914C991.37,-973.489 1010.26,-966.805 1025.58,-957.64 1050.53,-942.708 1074.59,-919.971 1091.31,-902.384"/>
<polygon fill="black" stroke="black" points="1094.2,-904.416 1098.45,-894.712 1089.07,-899.647 1094.2,-904.416"/>
</g>
<!-- Core_RuntimeState&#45;&gt;Core_ComponentBase -->
<g id="edge30" class="edge"><title>Core_RuntimeState&#45;&gt;Core_ComponentBase</title>
<path fill="none" stroke="black" stroke-dasharray="1,5" d="M993.482,-1138.2C1005.11,-1134.19 1016.81,-1128.3 1025.58,-1119.64 1086.27,-1059.66 1105.63,-954.809 1111.57,-904.768"/>
<polygon fill="black" stroke="black" points="1115.06,-904.998 1112.67,-894.677 1108.1,-904.238 1115.06,-904.998"/>
</g>
<!-- Core_HttpServer -->
<g id="node13" class="node"><title>Core_HttpServer</title>
<polygon fill="lightgrey" stroke="black" points="947.582,-894.64 877.87,-876.64 947.582,-858.64 1017.29,-876.64 947.582,-894.64"/>
<polyline fill="none" stroke="black" points="889.489,-879.64 889.489,-873.64 "/>
<polyline fill="none" stroke="black" points="935.964,-861.64 959.201,-861.64 "/>
<polyline fill="none" stroke="black" points="1005.68,-873.64 1005.68,-879.64 "/>
<polyline fill="none" stroke="black" points="959.201,-891.64 935.964,-891.64 "/>
<text text-anchor="middle" x="947.582" y="-872.94" font-family="Times,serif" font-size="14.00">HttpServer</text>
</g>
<!-- Core_HttpServer&#45;&gt;Core_ComponentBase -->
<g id="edge33" class="edge"><title>Core_HttpServer&#45;&gt;Core_ComponentBase</title>
<path fill="none" stroke="black" stroke-dasharray="1,5" d="M1017.33,-876.64C1028.62,-876.64 1040.26,-876.64 1051.39,-876.64"/>
<polygon fill="black" stroke="black" points="1051.44,-880.141 1061.44,-876.64 1051.44,-873.141 1051.44,-880.141"/>
</g>
<!-- Core_SuperGlobal&#45;&gt;Core_ComponentBase -->
<g id="edge29" class="edge"><title>Core_SuperGlobal&#45;&gt;Core_ComponentBase</title>
<path fill="none" stroke="black" stroke-dasharray="1,5" d="M990.191,-1084.62C1002.69,-1080.58 1015.7,-1074.57 1025.58,-1065.64 1074.16,-1021.72 1098.26,-945.589 1108.23,-904.637"/>
<polygon fill="black" stroke="black" points="1111.66,-905.319 1110.51,-894.786 1104.84,-903.734 1111.66,-905.319"/>
</g>
<!-- Core_ComponentInterface -->
<g id="node17" class="node"><title>Core_ComponentInterface</title>
<polygon fill="none" stroke="black" points="1363.68,-894.64 1241.68,-894.64 1241.68,-858.64 1369.68,-858.64 1369.68,-888.64 1363.68,-894.64"/>
<polyline fill="none" stroke="black" points="1363.68,-894.64 1363.68,-888.64 "/>
<polyline fill="none" stroke="black" points="1369.68,-888.64 1363.68,-888.64 "/>
<text text-anchor="middle" x="1305.68" y="-872.94" font-family="Times,serif" font-size="14.00">ComponentInterface</text>
</g>
<!-- Core_ComponentBase&#45;&gt;Core_SingletonEx -->
<g id="edge35" class="edge"><title>Core_ComponentBase&#45;&gt;Core_SingletonEx</title>
<path fill="none" stroke="black" d="M1129.64,-894.836C1163.11,-939.727 1249.6,-1055.75 1287.01,-1105.93"/>
<polygon fill="black" stroke="black" points="1284.41,-1108.3 1293.2,-1114.23 1290.02,-1104.12 1284.41,-1108.3"/>
</g>
<!-- Core_ComponentBase&#45;&gt;Core_ComponentInterface -->
<g id="edge34" class="edge"><title>Core_ComponentBase&#45;&gt;Core_ComponentInterface</title>
<path fill="none" stroke="black" d="M1168.61,-876.64C1188,-876.64 1210.35,-876.64 1231.25,-876.64"/>
<polygon fill="black" stroke="black" points="1231.37,-880.141 1241.37,-876.64 1231.37,-873.141 1231.37,-880.141"/>
</g>
<!-- AppHelper -->
<g id="node20" class="node"><title>AppHelper</title>
<polygon fill="lightgrey" stroke="black" points="116.188,-1210.64 45.6372,-1192.64 116.188,-1174.64 186.739,-1192.64 116.188,-1210.64"/>
<polyline fill="none" stroke="black" points="57.2647,-1195.61 57.2647,-1189.67 "/>
<polyline fill="none" stroke="black" points="104.561,-1177.61 127.816,-1177.61 "/>
<polyline fill="none" stroke="black" points="175.112,-1189.67 175.112,-1195.61 "/>
<polyline fill="none" stroke="black" points="127.816,-1207.67 104.561,-1207.67 "/>
<text text-anchor="middle" x="116.188" y="-1188.94" font-family="Times,serif" font-size="14.00">AppHelper</text>
</g>
<!-- AppHelper&#45;&gt;Core_App -->
<g id="edge36" class="edge"><title>AppHelper&#45;&gt;Core_App</title>
<path fill="none" stroke="black" d="M162.191,-1186.34C219.895,-1177.58 322.632,-1159.69 407.441,-1132.64 419.825,-1128.69 433.054,-1123.12 444.233,-1117.99"/>
<polygon fill="black" stroke="black" points="445.904,-1121.07 453.458,-1113.64 442.92,-1114.74 445.904,-1121.07"/>
</g>
<!-- HelperTrait -->
<g id="node25" class="node"><title>HelperTrait</title>
<polygon fill="none" stroke="black" points="325.909,-1000.64 252.344,-982.64 325.909,-964.64 399.474,-982.64 325.909,-1000.64"/>
<text text-anchor="middle" x="325.909" y="-978.94" font-family="Times,serif" font-size="14.00">HelperTrait</text>
</g>
<!-- AppHelper&#45;&gt;HelperTrait -->
<g id="edge45" class="edge"><title>AppHelper&#45;&gt;HelperTrait</title>
<path fill="none" stroke="black" d="M165.453,-1187.17C182.836,-1183.32 201.75,-1176.77 216.376,-1165.64 270.182,-1124.68 302.535,-1048.72 316.602,-1008.77"/>
<polygon fill="black" stroke="black" points="319.95,-1009.79 319.862,-999.196 313.324,-1007.53 319.95,-1009.79"/>
</g>
<!-- ControllerHelper -->
<g id="node21" class="node"><title>ControllerHelper</title>
<polygon fill="lightgrey" stroke="black" points="116.188,-1156.64 15.8115,-1138.64 116.188,-1120.64 216.565,-1138.64 116.188,-1156.64"/>
<polyline fill="none" stroke="black" points="27.6231,-1140.76 27.6231,-1136.52 "/>
<polyline fill="none" stroke="black" points="104.377,-1122.76 128,-1122.76 "/>
<polyline fill="none" stroke="black" points="204.753,-1136.52 204.753,-1140.76 "/>
<polyline fill="none" stroke="black" points="128,-1154.52 104.377,-1154.52 "/>
<text text-anchor="middle" x="116.188" y="-1134.94" font-family="Times,serif" font-size="14.00">ControllerHelper</text>
</g>
<!-- ControllerHelper&#45;&gt;Core_App -->
<g id="edge37" class="edge"><title>ControllerHelper&#45;&gt;Core_App</title>
<path fill="none" stroke="black" d="M182.121,-1132.4C254.808,-1125.42 370.328,-1114.33 430.989,-1108.5"/>
<polygon fill="black" stroke="black" points="431.681,-1111.95 441.301,-1107.51 431.012,-1104.98 431.681,-1111.95"/>
</g>
<!-- ControllerHelper&#45;&gt;HelperTrait -->
<g id="edge46" class="edge"><title>ControllerHelper&#45;&gt;HelperTrait</title>
<path fill="none" stroke="black" d="M170.631,-1130.35C186.202,-1126.32 202.691,-1120.38 216.376,-1111.64 258.438,-1084.77 292.625,-1036.45 310.762,-1007.18"/>
<polygon fill="black" stroke="black" points="313.893,-1008.77 316.076,-998.403 307.904,-1005.15 313.893,-1008.77"/>
</g>
<!-- ModelHelper -->
<g id="node22" class="node"><title>ModelHelper</title>
<polygon fill="lightgrey" stroke="black" points="116.188,-1102.64 34.5777,-1084.64 116.188,-1066.64 197.799,-1084.64 116.188,-1102.64"/>
<polyline fill="none" stroke="black" points="46.296,-1087.23 46.296,-1082.06 "/>
<polyline fill="none" stroke="black" points="104.47,-1069.23 127.906,-1069.23 "/>
<polyline fill="none" stroke="black" points="186.08,-1082.06 186.08,-1087.23 "/>
<polyline fill="none" stroke="black" points="127.906,-1100.06 104.47,-1100.06 "/>
<text text-anchor="middle" x="116.188" y="-1080.94" font-family="Times,serif" font-size="14.00">ModelHelper</text>
</g>
<!-- ModelHelper&#45;&gt;Core_App -->
<g id="edge38" class="edge"><title>ModelHelper&#45;&gt;Core_App</title>
<path fill="none" stroke="black" d="M181.709,-1088.29C253.539,-1092.34 367.566,-1098.79 428.88,-1102.25"/>
<polygon fill="black" stroke="black" points="428.792,-1105.75 438.973,-1102.82 429.187,-1098.76 428.792,-1105.75"/>
</g>
<!-- ModelHelper&#45;&gt;HelperTrait -->
<g id="edge47" class="edge"><title>ModelHelper&#45;&gt;HelperTrait</title>
<path fill="none" stroke="black" d="M160.295,-1076.27C178.137,-1071.95 198.737,-1065.84 216.376,-1057.64 247.729,-1043.06 279.845,-1019.6 300.922,-1002.8"/>
<polygon fill="black" stroke="black" points="303.136,-1005.51 308.705,-996.493 298.731,-1000.07 303.136,-1005.51"/>
</g>
<!-- ServiceHelper -->
<g id="node23" class="node"><title>ServiceHelper</title>
<polygon fill="lightgrey" stroke="black" points="116.188,-1048.64 29.8865,-1030.64 116.188,-1012.64 202.49,-1030.64 116.188,-1048.64"/>
<polyline fill="none" stroke="black" points="41.6337,-1033.09 41.6337,-1028.19 "/>
<polyline fill="none" stroke="black" points="104.441,-1015.09 127.935,-1015.09 "/>
<polyline fill="none" stroke="black" points="190.743,-1028.19 190.743,-1033.09 "/>
<polyline fill="none" stroke="black" points="127.935,-1046.19 104.441,-1046.19 "/>
<text text-anchor="middle" x="116.188" y="-1026.94" font-family="Times,serif" font-size="14.00">ServiceHelper</text>
</g>
<!-- ServiceHelper&#45;&gt;Core_App -->
<g id="edge39" class="edge"><title>ServiceHelper&#45;&gt;Core_App</title>
<path fill="none" stroke="black" d="M162.58,-1039C219.83,-1049.71 321.215,-1069.22 407.441,-1088.64 417.441,-1090.89 428.272,-1093.53 438.12,-1096.01"/>
<polygon fill="black" stroke="black" points="437.398,-1099.44 447.952,-1098.52 439.125,-1092.66 437.398,-1099.44"/>
</g>
<!-- ServiceHelper&#45;&gt;HelperTrait -->
<g id="edge48" class="edge"><title>ServiceHelper&#45;&gt;HelperTrait</title>
<path fill="none" stroke="black" d="M157.732,-1021.27C192.051,-1013.34 241.285,-1001.96 277.437,-993.61"/>
<polygon fill="black" stroke="black" points="278.309,-997.001 287.264,-991.339 276.733,-990.181 278.309,-997.001"/>
</g>
<!-- ViewHelper -->
<g id="node24" class="node"><title>ViewHelper</title>
<polygon fill="lightgrey" stroke="black" points="116.188,-994.64 40.1075,-976.64 116.188,-958.64 192.269,-976.64 116.188,-994.64"/>
<polyline fill="none" stroke="black" points="51.7851,-979.403 51.7851,-973.878 "/>
<polyline fill="none" stroke="black" points="104.511,-961.403 127.866,-961.403 "/>
<polyline fill="none" stroke="black" points="180.591,-973.878 180.591,-979.403 "/>
<polyline fill="none" stroke="black" points="127.866,-991.878 104.511,-991.878 "/>
<text text-anchor="middle" x="116.188" y="-972.94" font-family="Times,serif" font-size="14.00">ViewHelper</text>
</g>
<!-- ViewHelper&#45;&gt;Core_App -->
<g id="edge40" class="edge"><title>ViewHelper&#45;&gt;Core_App</title>
<path fill="none" stroke="black" d="M153.378,-985.903C229.912,-1005.52 401.673,-1049.71 407.441,-1052.64 423.997,-1061.05 440.182,-1074.33 452.104,-1085.36"/>
<polygon fill="black" stroke="black" points="449.981,-1088.18 459.628,-1092.55 454.817,-1083.12 449.981,-1088.18"/>
</g>
<!-- ViewHelper&#45;&gt;HelperTrait -->
<g id="edge49" class="edge"><title>ViewHelper&#45;&gt;HelperTrait</title>
<path fill="none" stroke="black" d="M184.342,-978.58C205.217,-979.183 228.362,-979.852 249.746,-980.469"/>
<polygon fill="black" stroke="black" points="249.66,-983.968 259.757,-980.758 249.862,-976.971 249.66,-983.968"/>
</g>
<!-- HelperTrait&#45;&gt;Core_App -->
<g id="edge42" class="edge"><title>HelperTrait&#45;&gt;Core_App</title>
<path fill="none" stroke="black" d="M362.515,-991.875C377.43,-996.932 394.314,-1004.32 407.441,-1014.64 430.339,-1032.64 448.539,-1061.03 459.539,-1081.1"/>
<polygon fill="black" stroke="black" points="456.584,-1083 464.35,-1090.2 462.773,-1079.73 456.584,-1083"/>
</g>
<!-- HelperTrait&#45;&gt;Core_SingletonEx -->
<g id="edge41" class="edge"><title>HelperTrait&#45;&gt;Core_SingletonEx</title>
<path fill="none" stroke="black" d="M331.521,-999.496C348.567,-1058.37 413.916,-1256.19 544.974,-1347.64 598.126,-1384.73 623.469,-1374.64 688.282,-1374.64 688.282,-1374.64 688.282,-1374.64 948.582,-1374.64 1103.79,-1374.64 1240.65,-1214.72 1287.49,-1153.28"/>
<polygon fill="black" stroke="black" points="1290.54,-1155.06 1293.75,-1144.97 1284.94,-1150.86 1290.54,-1155.06"/>
</g>
<!-- HelperTrait&#45;&gt;Core_ExtendableStaticCallTrait -->
<g id="edge43" class="edge"><title>HelperTrait&#45;&gt;Core_ExtendableStaticCallTrait</title>
<path fill="none" stroke="black" d="M354.362,-971.412C395.288,-955.026 474.993,-924.469 544.974,-905.64 567.235,-899.651 591.79,-894.506 614.191,-890.363"/>
<polygon fill="black" stroke="black" points="615.099,-893.756 624.316,-888.531 613.853,-886.868 615.099,-893.756"/>
</g>
<!-- HelperTrait&#45;&gt;Core_ThrowOn -->
<g id="edge44" class="edge"><title>HelperTrait&#45;&gt;Core_ThrowOn</title>
<path fill="none" stroke="black" d="M373.412,-976.206C440.911,-966.867 565.643,-949.609 636.163,-939.852"/>
<polygon fill="black" stroke="black" points="636.735,-943.306 646.161,-938.468 635.776,-936.372 636.735,-943.306"/>
</g>
<!-- DB_DB -->
<g id="node26" class="node"><title>DB_DB</title>
<ellipse fill="none" stroke="black" cx="1115.08" cy="-63.6404" rx="27" ry="18"/>
<text text-anchor="middle" x="1115.08" y="-59.9404" font-family="Times,serif" font-size="14.00">DB</text>
</g>
<!-- DB_DBAdvanceTrait -->
<g id="node27" class="node"><title>DB_DBAdvanceTrait</title>
<polygon fill="none" stroke="black" points="1305.68,-54.6404 1204.47,-36.6404 1305.68,-18.6404 1406.9,-36.6404 1305.68,-54.6404"/>
<text text-anchor="middle" x="1305.68" y="-32.9404" font-family="Times,serif" font-size="14.00">DBAdvanceTrait</text>
</g>
<!-- DB_DB&#45;&gt;DB_DBAdvanceTrait -->
<g id="edge50" class="edge"><title>DB_DB&#45;&gt;DB_DBAdvanceTrait</title>
<path fill="none" stroke="black" d="M1141.91,-59.9428C1166.77,-56.3827 1205.43,-50.8493 1238.83,-46.0679"/>
<polygon fill="black" stroke="black" points="1239.6,-49.4931 1249,-44.6112 1238.61,-42.5637 1239.6,-49.4931"/>
</g>
<!-- DB_DBInterface -->
<g id="node28" class="node"><title>DB_DBInterface</title>
<polygon fill="none" stroke="black" points="1341.18,-108.64 1264.18,-108.64 1264.18,-72.6404 1347.18,-72.6404 1347.18,-102.64 1341.18,-108.64"/>
<polyline fill="none" stroke="black" points="1341.18,-108.64 1341.18,-102.64 "/>
<polyline fill="none" stroke="black" points="1347.18,-102.64 1341.18,-102.64 "/>
<text text-anchor="middle" x="1305.68" y="-86.9404" font-family="Times,serif" font-size="14.00">DBInterface</text>
</g>
<!-- DB_DB&#45;&gt;DB_DBInterface -->
<g id="edge51" class="edge"><title>DB_DB&#45;&gt;DB_DBInterface</title>
<path fill="none" stroke="black" d="M1141.91,-67.338C1170.55,-71.4393 1217.5,-78.1593 1253.63,-83.3316"/>
<polygon fill="black" stroke="black" points="1253.59,-86.8615 1263.98,-84.814 1254.58,-79.9322 1253.59,-86.8615"/>
</g>
<!-- CallableView -->
<g id="node29" class="node"><title>CallableView</title>
<polygon fill="none" stroke="black" points="734.782,-783.64 643.782,-783.64 643.782,-779.64 639.782,-779.64 639.782,-775.64 643.782,-775.64 643.782,-755.64 639.782,-755.64 639.782,-751.64 643.782,-751.64 643.782,-747.64 734.782,-747.64 734.782,-783.64"/>
<polyline fill="none" stroke="black" points="643.782,-779.64 647.782,-779.64 647.782,-775.64 643.782,-775.64 "/>
<polyline fill="none" stroke="black" points="643.782,-755.64 647.782,-755.64 647.782,-751.64 643.782,-751.64 "/>
<text text-anchor="middle" x="689.282" y="-761.94" font-family="Times,serif" font-size="14.00">CallableView</text>
</g>
<!-- CallableView&#45;&gt;Core_View -->
<g id="edge53" class="edge"><title>CallableView&#45;&gt;Core_View</title>
<path fill="none" stroke="black" d="M734.695,-783.766C765.045,-797.72 804.822,-819.245 833.589,-846.64 855.288,-867.303 846.148,-884.978 869.589,-903.64 881.45,-913.083 896.85,-919.349 910.757,-923.445"/>
<polygon fill="black" stroke="black" points="909.983,-926.861 920.548,-926.057 911.788,-920.097 909.983,-926.861"/>
</g>
<!-- DBManager -->
<g id="node30" class="node"><title>DBManager</title>
<polygon fill="none" stroke="black" points="989.582,-81.6404 905.582,-81.6404 905.582,-77.6404 901.582,-77.6404 901.582,-73.6404 905.582,-73.6404 905.582,-53.6404 901.582,-53.6404 901.582,-49.6404 905.582,-49.6404 905.582,-45.6404 989.582,-45.6404 989.582,-81.6404"/>
<polyline fill="none" stroke="black" points="905.582,-77.6404 909.582,-77.6404 909.582,-73.6404 905.582,-73.6404 "/>
<polyline fill="none" stroke="black" points="905.582,-53.6404 909.582,-53.6404 909.582,-49.6404 905.582,-49.6404 "/>
<text text-anchor="middle" x="947.582" y="-59.9404" font-family="Times,serif" font-size="14.00">DBManager</text>
</g>
<!-- DBManager&#45;&gt;Core_ComponentBase -->
<g id="edge73" class="edge"><title>DBManager&#45;&gt;Core_ComponentBase</title>
<path fill="none" stroke="black" stroke-dasharray="1,5" d="M986.974,-81.7309C1001.43,-90.5176 1016.55,-102.495 1025.58,-117.64 1101.33,-244.704 1112.26,-726.411 1113.82,-848.42"/>
<polygon fill="black" stroke="black" points="1110.32,-848.506 1113.94,-858.465 1117.32,-848.425 1110.32,-848.506"/>
</g>
<!-- DBManager&#45;&gt;DB_DB -->
<g id="edge52" class="edge"><title>DBManager&#45;&gt;DB_DB</title>
<path fill="none" stroke="black" d="M989.916,-63.6404C1016.84,-63.6404 1051.65,-63.6404 1077.56,-63.6404"/>
<polygon fill="black" stroke="black" points="1077.72,-67.1405 1087.72,-63.6404 1077.72,-60.1405 1077.72,-67.1405"/>
</g>
<!-- DBReusePoolProxy -->
<g id="node31" class="node"><title>DBReusePoolProxy</title>
<polygon fill="none" stroke="black" points="751.782,-81.6404 626.782,-81.6404 626.782,-77.6404 622.782,-77.6404 622.782,-73.6404 626.782,-73.6404 626.782,-53.6404 622.782,-53.6404 622.782,-49.6404 626.782,-49.6404 626.782,-45.6404 751.782,-45.6404 751.782,-81.6404"/>
<polyline fill="none" stroke="black" points="626.782,-77.6404 630.782,-77.6404 630.782,-73.6404 626.782,-73.6404 "/>
<polyline fill="none" stroke="black" points="626.782,-53.6404 630.782,-53.6404 630.782,-49.6404 626.782,-49.6404 "/>
<text text-anchor="middle" x="689.282" y="-59.9404" font-family="Times,serif" font-size="14.00">DBReusePoolProxy</text>
</g>
<!-- DBReusePoolProxy&#45;&gt;DBManager -->
<g id="edge54" class="edge"><title>DBReusePoolProxy&#45;&gt;DBManager</title>
<path fill="none" stroke="black" d="M751.998,-63.6404C795.831,-63.6404 853.997,-63.6404 895.285,-63.6404"/>
<polygon fill="black" stroke="black" points="895.399,-67.1405 905.399,-63.6404 895.399,-60.1405 895.399,-67.1405"/>
</g>
<!-- FacadesAutoLoader -->
<g id="node32" class="node"><title>FacadesAutoLoader</title>
<polygon fill="none" stroke="black" points="1010.08,-162.64 885.082,-162.64 885.082,-158.64 881.082,-158.64 881.082,-154.64 885.082,-154.64 885.082,-134.64 881.082,-134.64 881.082,-130.64 885.082,-130.64 885.082,-126.64 1010.08,-126.64 1010.08,-162.64"/>
<polyline fill="none" stroke="black" points="885.082,-158.64 889.082,-158.64 889.082,-154.64 885.082,-154.64 "/>
<polyline fill="none" stroke="black" points="885.082,-134.64 889.082,-134.64 889.082,-130.64 885.082,-130.64 "/>
<text text-anchor="middle" x="947.582" y="-140.94" font-family="Times,serif" font-size="14.00">FacadesAutoLoader</text>
</g>
<!-- FacadesAutoLoader&#45;&gt;Core_ComponentBase -->
<g id="edge61" class="edge"><title>FacadesAutoLoader&#45;&gt;Core_ComponentBase</title>
<path fill="none" stroke="black" stroke-dasharray="1,5" d="M986.87,-162.793C1001.31,-171.59 1016.44,-183.557 1025.58,-198.64 1093.49,-310.79 1110.09,-734.198 1113.37,-848.215"/>
<polygon fill="black" stroke="black" points="1109.88,-848.653 1113.65,-858.553 1116.88,-848.46 1109.88,-848.653"/>
</g>
<!-- FacadesBase -->
<g id="node33" class="node"><title>FacadesBase</title>
<ellipse fill="none" stroke="black" cx="689.282" cy="-117.64" rx="55.7903" ry="18"/>
<text text-anchor="middle" x="689.282" y="-113.94" font-family="Times,serif" font-size="14.00">FacadesBase</text>
</g>
<!-- FacadesBase&#45;&gt;FacadesAutoLoader -->
<g id="edge56" class="edge"><title>FacadesBase&#45;&gt;FacadesAutoLoader</title>
<path fill="none" stroke="black" d="M742.766,-123.169C780.785,-127.174 832.647,-132.638 874.54,-137.051"/>
<polygon fill="black" stroke="black" points="874.374,-140.553 884.686,-138.12 875.108,-133.591 874.374,-140.553"/>
</g>
<!-- JsonRpcClientBase -->
<g id="node34" class="node"><title>JsonRpcClientBase</title>
<ellipse fill="none" stroke="black" cx="689.282" cy="-279.64" rx="79.0865" ry="18"/>
<text text-anchor="middle" x="689.282" y="-275.94" font-family="Times,serif" font-size="14.00">JsonRpcClientBase</text>
</g>
<!-- JsonRpcExt -->
<g id="node35" class="node"><title>JsonRpcExt</title>
<polygon fill="none" stroke="black" points="988.082,-297.64 907.082,-297.64 907.082,-293.64 903.082,-293.64 903.082,-289.64 907.082,-289.64 907.082,-269.64 903.082,-269.64 903.082,-265.64 907.082,-265.64 907.082,-261.64 988.082,-261.64 988.082,-297.64"/>
<polyline fill="none" stroke="black" points="907.082,-293.64 911.082,-293.64 911.082,-289.64 907.082,-289.64 "/>
<polyline fill="none" stroke="black" points="907.082,-269.64 911.082,-269.64 911.082,-265.64 907.082,-265.64 "/>
<text text-anchor="middle" x="947.582" y="-275.94" font-family="Times,serif" font-size="14.00">JsonRpcExt</text>
</g>
<!-- JsonRpcClientBase&#45;&gt;JsonRpcExt -->
<g id="edge55" class="edge"><title>JsonRpcClientBase&#45;&gt;JsonRpcExt</title>
<path fill="none" stroke="black" d="M768.922,-279.64C810.44,-279.64 860.151,-279.64 896.417,-279.64"/>
<polygon fill="black" stroke="black" points="896.743,-283.141 906.743,-279.64 896.743,-276.141 896.743,-283.141"/>
</g>
<!-- JsonRpcExt&#45;&gt;Core_ComponentBase -->
<g id="edge62" class="edge"><title>JsonRpcExt&#45;&gt;Core_ComponentBase</title>
<path fill="none" stroke="black" stroke-dasharray="1,5" d="M988.217,-285.025C1001.96,-288.862 1016.25,-295.423 1025.58,-306.64 1095.39,-390.585 1110.48,-745.074 1113.42,-848.317"/>
<polygon fill="black" stroke="black" points="1109.93,-848.674 1113.7,-858.576 1116.93,-848.486 1109.93,-848.674"/>
</g>
<!-- Misc -->
<g id="node36" class="node"><title>Misc</title>
<polygon fill="none" stroke="black" points="716.282,-567.64 662.282,-567.64 662.282,-563.64 658.282,-563.64 658.282,-559.64 662.282,-559.64 662.282,-539.64 658.282,-539.64 658.282,-535.64 662.282,-535.64 662.282,-531.64 716.282,-531.64 716.282,-567.64"/>
<polyline fill="none" stroke="black" points="662.282,-563.64 666.282,-563.64 666.282,-559.64 662.282,-559.64 "/>
<polyline fill="none" stroke="black" points="662.282,-539.64 666.282,-539.64 666.282,-535.64 662.282,-535.64 "/>
<text text-anchor="middle" x="689.282" y="-545.94" font-family="Times,serif" font-size="14.00">Misc</text>
</g>
<!-- Misc&#45;&gt;Core_ComponentBase -->
<g id="edge64" class="edge"><title>Misc&#45;&gt;Core_ComponentBase</title>
<path fill="none" stroke="black" stroke-dasharray="1,5" d="M716.309,-551.35C778.883,-556.874 938.971,-579.636 1025.58,-670.64 1074.78,-722.348 1098.9,-805.68 1108.63,-848.797"/>
<polygon fill="black" stroke="black" points="1105.22,-849.567 1110.75,-858.602 1112.06,-848.089 1105.22,-849.567"/>
</g>
<!-- Pager -->
<g id="node37" class="node"><title>Pager</title>
<polygon fill="none" stroke="black" points="716.282,-351.64 662.282,-351.64 662.282,-347.64 658.282,-347.64 658.282,-343.64 662.282,-343.64 662.282,-323.64 658.282,-323.64 658.282,-319.64 662.282,-319.64 662.282,-315.64 716.282,-315.64 716.282,-351.64"/>
<polyline fill="none" stroke="black" points="662.282,-347.64 666.282,-347.64 666.282,-343.64 662.282,-343.64 "/>
<polyline fill="none" stroke="black" points="662.282,-323.64 666.282,-323.64 666.282,-319.64 662.282,-319.64 "/>
<text text-anchor="middle" x="689.282" y="-329.94" font-family="Times,serif" font-size="14.00">Pager</text>
</g>
<!-- Pager&#45;&gt;Core_ComponentBase -->
<g id="edge63" class="edge"><title>Pager&#45;&gt;Core_ComponentBase</title>
<path fill="none" stroke="black" stroke-dasharray="1,5" d="M716.52,-332.404C747.27,-332.254 798.478,-336.189 833.589,-360.64 859.109,-378.412 844.435,-402.354 869.589,-420.64 927.139,-462.477 975.749,-405.851 1025.58,-456.64 1080.82,-512.951 1105.22,-763.392 1112.01,-848.344"/>
<polygon fill="black" stroke="black" points="1108.53,-848.833 1112.8,-858.531 1115.51,-848.29 1108.53,-848.833"/>
</g>
<!-- PagerInterface -->
<g id="node38" class="node"><title>PagerInterface</title>
<polygon fill="none" stroke="black" points="989.082,-351.64 900.082,-351.64 900.082,-315.64 995.082,-315.64 995.082,-345.64 989.082,-351.64"/>
<polyline fill="none" stroke="black" points="989.082,-351.64 989.082,-345.64 "/>
<polyline fill="none" stroke="black" points="995.082,-345.64 989.082,-345.64 "/>
<text text-anchor="middle" x="947.582" y="-329.94" font-family="Times,serif" font-size="14.00">PagerInterface</text>
</g>
<!-- Pager&#45;&gt;PagerInterface -->
<g id="edge57" class="edge"><title>Pager&#45;&gt;PagerInterface</title>
<path fill="none" stroke="black" d="M716.745,-333.64C757.358,-333.64 835.998,-333.64 889.877,-333.64"/>
<polygon fill="black" stroke="black" points="889.969,-337.141 899.969,-333.64 889.969,-330.141 889.969,-337.141"/>
</g>
<!-- PluginForSwooleHttpd -->
<g id="node39" class="node"><title>PluginForSwooleHttpd</title>
<polygon fill="none" stroke="black" points="760.282,-459.64 618.282,-459.64 618.282,-455.64 614.282,-455.64 614.282,-451.64 618.282,-451.64 618.282,-431.64 614.282,-431.64 614.282,-427.64 618.282,-427.64 618.282,-423.64 760.282,-423.64 760.282,-459.64"/>
<polyline fill="none" stroke="black" points="618.282,-455.64 622.282,-455.64 622.282,-451.64 618.282,-451.64 "/>
<polyline fill="none" stroke="black" points="618.282,-431.64 622.282,-431.64 622.282,-427.64 618.282,-427.64 "/>
<text text-anchor="middle" x="689.282" y="-437.94" font-family="Times,serif" font-size="14.00">PluginForSwooleHttpd</text>
</g>
<!-- PluginForSwooleHttpd&#45;&gt;Core_ComponentBase -->
<g id="edge67" class="edge"><title>PluginForSwooleHttpd&#45;&gt;Core_ComponentBase</title>
<path fill="none" stroke="black" stroke-dasharray="1,5" d="M760.352,-448.311C784.291,-452.275 810.767,-458.589 833.589,-468.64 851.893,-476.702 851.531,-487.045 869.589,-495.64 934.114,-526.353 974.838,-484.318 1025.58,-534.64 1070.61,-579.304 1100.64,-775.035 1110.52,-848.578"/>
<polygon fill="black" stroke="black" points="1107.05,-849.053 1111.83,-858.509 1113.99,-848.138 1107.05,-849.053"/>
</g>
<!-- RedisManager -->
<g id="node40" class="node"><title>RedisManager</title>
<polygon fill="none" stroke="black" points="995.582,-411.64 899.582,-411.64 899.582,-407.64 895.582,-407.64 895.582,-403.64 899.582,-403.64 899.582,-383.64 895.582,-383.64 895.582,-379.64 899.582,-379.64 899.582,-375.64 995.582,-375.64 995.582,-411.64"/>
<polyline fill="none" stroke="black" points="899.582,-407.64 903.582,-407.64 903.582,-403.64 899.582,-403.64 "/>
<polyline fill="none" stroke="black" points="899.582,-383.64 903.582,-383.64 903.582,-379.64 899.582,-379.64 "/>
<text text-anchor="middle" x="947.582" y="-389.94" font-family="Times,serif" font-size="14.00">RedisManager</text>
</g>
<!-- RedisManager&#45;&gt;Core_ComponentBase -->
<g id="edge66" class="edge"><title>RedisManager&#45;&gt;Core_ComponentBase</title>
<path fill="none" stroke="black" stroke-dasharray="1,5" d="M995.78,-406.712C1007,-411.877 1017.92,-418.97 1025.58,-428.64 1077.95,-494.803 1104.41,-760.699 1111.85,-848.412"/>
<polygon fill="black" stroke="black" points="1108.36,-848.754 1112.68,-858.43 1115.34,-848.175 1108.36,-848.754"/>
</g>
<!-- RedisSimpleCache -->
<g id="node41" class="node"><title>RedisSimpleCache</title>
<polygon fill="none" stroke="black" points="749.282,-405.64 629.282,-405.64 629.282,-401.64 625.282,-401.64 625.282,-397.64 629.282,-397.64 629.282,-377.64 625.282,-377.64 625.282,-373.64 629.282,-373.64 629.282,-369.64 749.282,-369.64 749.282,-405.64"/>
<polyline fill="none" stroke="black" points="629.282,-401.64 633.282,-401.64 633.282,-397.64 629.282,-397.64 "/>
<polyline fill="none" stroke="black" points="629.282,-377.64 633.282,-377.64 633.282,-373.64 629.282,-373.64 "/>
<text text-anchor="middle" x="689.282" y="-383.94" font-family="Times,serif" font-size="14.00">RedisSimpleCache</text>
</g>
<!-- RedisSimpleCache&#45;&gt;Core_ComponentBase -->
<g id="edge65" class="edge"><title>RedisSimpleCache&#45;&gt;Core_ComponentBase</title>
<path fill="none" stroke="black" stroke-dasharray="1,5" d="M749.522,-389.886C776.631,-393.079 808.274,-400.004 833.589,-414.64 854.874,-426.946 848.676,-443.715 869.589,-456.64 930.378,-494.21 975.47,-444.688 1025.58,-495.64 1075.37,-546.277 1102.87,-768.507 1111.27,-848.131"/>
<polygon fill="black" stroke="black" points="1107.82,-848.799 1112.33,-858.387 1114.79,-848.081 1107.82,-848.799"/>
</g>
<!-- RedisSimpleCache&#45;&gt;RedisManager -->
<g id="edge58" class="edge"><title>RedisSimpleCache&#45;&gt;RedisManager</title>
<path fill="none" stroke="black" d="M749.404,-389.024C791.38,-390.007 847.44,-391.319 889.054,-392.294"/>
<polygon fill="black" stroke="black" points="889.225,-395.799 899.305,-392.534 889.389,-388.8 889.225,-395.799"/>
</g>
<!-- RouteHookDirectoryMode -->
<g id="node42" class="node"><title>RouteHookDirectoryMode</title>
<polygon fill="none" stroke="black" points="770.782,-729.64 607.782,-729.64 607.782,-725.64 603.782,-725.64 603.782,-721.64 607.782,-721.64 607.782,-701.64 603.782,-701.64 603.782,-697.64 607.782,-697.64 607.782,-693.64 770.782,-693.64 770.782,-729.64"/>
<polyline fill="none" stroke="black" points="607.782,-725.64 611.782,-725.64 611.782,-721.64 607.782,-721.64 "/>
<polyline fill="none" stroke="black" points="607.782,-701.64 611.782,-701.64 611.782,-697.64 607.782,-697.64 "/>
<text text-anchor="middle" x="689.282" y="-707.94" font-family="Times,serif" font-size="14.00">RouteHookDirectoryMode</text>
</g>
<!-- RouteHookDirectoryMode&#45;&gt;Core_ComponentBase -->
<g id="edge69" class="edge"><title>RouteHookDirectoryMode&#45;&gt;Core_ComponentBase</title>
<path fill="none" stroke="black" stroke-dasharray="1,5" d="M770.853,-722.863C791.581,-726.822 813.654,-731.996 833.589,-738.64 924.116,-768.813 1022.6,-822.638 1075.41,-853.392"/>
<polygon fill="black" stroke="black" points="1073.71,-856.452 1084.11,-858.489 1077.25,-850.412 1073.71,-856.452"/>
</g>
<!-- RouteHookOneFileMode -->
<g id="node43" class="node"><title>RouteHookOneFileMode</title>
<polygon fill="none" stroke="black" points="766.782,-675.64 611.782,-675.64 611.782,-671.64 607.782,-671.64 607.782,-667.64 611.782,-667.64 611.782,-647.64 607.782,-647.64 607.782,-643.64 611.782,-643.64 611.782,-639.64 766.782,-639.64 766.782,-675.64"/>
<polyline fill="none" stroke="black" points="611.782,-671.64 615.782,-671.64 615.782,-667.64 611.782,-667.64 "/>
<polyline fill="none" stroke="black" points="611.782,-647.64 615.782,-647.64 615.782,-643.64 611.782,-643.64 "/>
<text text-anchor="middle" x="689.282" y="-653.94" font-family="Times,serif" font-size="14.00">RouteHookOneFileMode</text>
</g>
<!-- RouteHookOneFileMode&#45;&gt;Core_ComponentBase -->
<g id="edge70" class="edge"><title>RouteHookOneFileMode&#45;&gt;Core_ComponentBase</title>
<path fill="none" stroke="black" stroke-dasharray="1,5" d="M767.032,-666.26C789.046,-670.279 812.724,-676.134 833.589,-684.64 851.396,-691.9 852.051,-700.755 869.589,-708.64 934.968,-738.034 966.805,-708.599 1025.58,-749.64 1061.8,-774.938 1088,-820.126 1102.11,-849.22"/>
<polygon fill="black" stroke="black" points="1099.01,-850.854 1106.43,-858.418 1105.35,-847.879 1099.01,-850.854"/>
</g>
<!-- RouteHookRewrite -->
<g id="node44" class="node"><title>RouteHookRewrite</title>
<polygon fill="none" stroke="black" points="750.282,-621.64 628.282,-621.64 628.282,-617.64 624.282,-617.64 624.282,-613.64 628.282,-613.64 628.282,-593.64 624.282,-593.64 624.282,-589.64 628.282,-589.64 628.282,-585.64 750.282,-585.64 750.282,-621.64"/>
<polyline fill="none" stroke="black" points="628.282,-617.64 632.282,-617.64 632.282,-613.64 628.282,-613.64 "/>
<polyline fill="none" stroke="black" points="628.282,-593.64 632.282,-593.64 632.282,-589.64 628.282,-589.64 "/>
<text text-anchor="middle" x="689.282" y="-599.94" font-family="Times,serif" font-size="14.00">RouteHookRewrite</text>
</g>
<!-- RouteHookRewrite&#45;&gt;Core_ComponentBase -->
<g id="edge71" class="edge"><title>RouteHookRewrite&#45;&gt;Core_ComponentBase</title>
<path fill="none" stroke="black" stroke-dasharray="1,5" d="M750.421,-606.292C777.26,-609.597 808.43,-616.498 833.589,-630.64 854.439,-642.36 849.056,-658.375 869.589,-670.64 930.847,-707.233 969.313,-664.753 1025.58,-708.64 1071.55,-744.503 1096.24,-811.004 1107.11,-848.689"/>
<polygon fill="black" stroke="black" points="1103.79,-849.795 1109.82,-858.505 1110.54,-847.934 1103.79,-849.795"/>
</g>
<!-- RouteHookRouteMap -->
<g id="node45" class="node"><title>RouteHookRouteMap</title>
<polygon fill="none" stroke="black" points="757.782,-513.64 620.782,-513.64 620.782,-509.64 616.782,-509.64 616.782,-505.64 620.782,-505.64 620.782,-485.64 616.782,-485.64 616.782,-481.64 620.782,-481.64 620.782,-477.64 757.782,-477.64 757.782,-513.64"/>
<polyline fill="none" stroke="black" points="620.782,-509.64 624.782,-509.64 624.782,-505.64 620.782,-505.64 "/>
<polyline fill="none" stroke="black" points="620.782,-485.64 624.782,-485.64 624.782,-481.64 620.782,-481.64 "/>
<text text-anchor="middle" x="689.282" y="-491.94" font-family="Times,serif" font-size="14.00">RouteHookRouteMap</text>
</g>
<!-- RouteHookRouteMap&#45;&gt;Core_ComponentBase -->
<g id="edge72" class="edge"><title>RouteHookRouteMap&#45;&gt;Core_ComponentBase</title>
<path fill="none" stroke="black" stroke-dasharray="1,5" d="M758.134,-506.478C782.129,-510.823 809.207,-516.311 833.589,-522.64 849.914,-526.878 853.499,-529.588 869.589,-534.64 938.548,-556.294 974.371,-529.628 1025.58,-580.64 1100.18,-654.968 1112.41,-789.403 1114.05,-848.02"/>
<polygon fill="black" stroke="black" points="1110.56,-848.442 1114.25,-858.373 1117.56,-848.307 1110.56,-848.442"/>
</g>
<!-- StrictCheck -->
<g id="node46" class="node"><title>StrictCheck</title>
<polygon fill="none" stroke="black" points="987.582,-243.64 907.582,-243.64 907.582,-239.64 903.582,-239.64 903.582,-235.64 907.582,-235.64 907.582,-215.64 903.582,-215.64 903.582,-211.64 907.582,-211.64 907.582,-207.64 987.582,-207.64 987.582,-243.64"/>
<polyline fill="none" stroke="black" points="907.582,-239.64 911.582,-239.64 911.582,-235.64 907.582,-235.64 "/>
<polyline fill="none" stroke="black" points="907.582,-215.64 911.582,-215.64 911.582,-211.64 907.582,-211.64 "/>
<text text-anchor="middle" x="947.582" y="-221.94" font-family="Times,serif" font-size="14.00">StrictCheck</text>
</g>
<!-- StrictCheck&#45;&gt;Core_ComponentBase -->
<g id="edge68" class="edge"><title>StrictCheck&#45;&gt;Core_ComponentBase</title>
<path fill="none" stroke="black" stroke-dasharray="1,5" d="M987.896,-230.849C1001.77,-234.661 1016.23,-241.253 1025.58,-252.64 1101.83,-345.556 1112.38,-738.59 1113.84,-848.171"/>
<polygon fill="black" stroke="black" points="1110.34,-848.476 1113.96,-858.434 1117.34,-848.394 1110.34,-848.476"/>
</g>
<!-- StrictModelTrait -->
<g id="node47" class="node"><title>StrictModelTrait</title>
<polygon fill="none" stroke="black" points="689.282,-243.64 590.243,-225.64 689.282,-207.64 788.32,-225.64 689.282,-243.64"/>
<text text-anchor="middle" x="689.282" y="-221.94" font-family="Times,serif" font-size="14.00">StrictModelTrait</text>
</g>
<!-- StrictModelTrait&#45;&gt;StrictCheck -->
<g id="edge59" class="edge"><title>StrictModelTrait&#45;&gt;StrictCheck</title>
<path fill="none" stroke="black" d="M788.641,-225.64C825.803,-225.64 866.502,-225.64 897.279,-225.64"/>
<polygon fill="black" stroke="black" points="897.316,-229.141 907.316,-225.64 897.316,-222.141 897.316,-229.141"/>
</g>
<!-- StrictServiceTrait -->
<g id="node48" class="node"><title>StrictServiceTrait</title>
<polygon fill="none" stroke="black" points="689.282,-189.64 585.552,-171.64 689.282,-153.64 793.011,-171.64 689.282,-189.64"/>
<text text-anchor="middle" x="689.282" y="-167.94" font-family="Times,serif" font-size="14.00">StrictServiceTrait</text>
</g>
<!-- StrictServiceTrait&#45;&gt;StrictCheck -->
<g id="edge60" class="edge"><title>StrictServiceTrait&#45;&gt;StrictCheck</title>
<path fill="none" stroke="black" d="M741.472,-180.665C768.863,-185.65 803.135,-192.137 833.589,-198.64 854.681,-203.145 877.868,-208.597 897.719,-213.419"/>
<polygon fill="black" stroke="black" points="896.924,-216.828 907.469,-215.802 898.585,-210.028 896.924,-216.828"/>
</g>
<!-- HttpServer -->
<g id="node49" class="node"><title>HttpServer</title>
<polygon fill="lightgrey" stroke="black" points="325.909,-567.64 256.197,-549.64 325.909,-531.64 395.621,-549.64 325.909,-567.64"/>
<polyline fill="none" stroke="black" points="267.816,-552.64 267.816,-546.64 "/>
<polyline fill="none" stroke="black" points="314.29,-534.64 337.528,-534.64 "/>
<polyline fill="none" stroke="black" points="384.002,-546.64 384.002,-552.64 "/>
<polyline fill="none" stroke="black" points="337.528,-564.64 314.29,-564.64 "/>
<text text-anchor="middle" x="325.909" y="-545.94" font-family="Times,serif" font-size="14.00">HttpServer</text>
</g>
<!-- HttpServer&#45;&gt;Core_HttpServer -->
<g id="edge74" class="edge"><title>HttpServer&#45;&gt;Core_HttpServer</title>
<path fill="none" stroke="black" d="M334.28,-565.656C357.374,-613.772 433.493,-757.489 544.974,-818.64 658.171,-880.733 706.251,-830.333 833.589,-851.64 856.153,-855.416 880.999,-860.779 901.633,-865.57"/>
<polygon fill="black" stroke="black" points="900.86,-868.984 911.396,-867.867 902.463,-862.17 900.86,-868.984"/>
</g>
<!-- App -->
<g id="node50" class="node"><title>App</title>
<polygon fill="lightgrey" stroke="black" points="325.909,-513.64 289.375,-495.64 325.909,-477.64 362.443,-495.64 325.909,-513.64"/>
<polyline fill="none" stroke="black" points="300.139,-500.944 300.139,-490.337 "/>
<polyline fill="none" stroke="black" points="315.144,-482.944 336.673,-482.944 "/>
<polyline fill="none" stroke="black" points="351.679,-490.337 351.679,-500.944 "/>
<polyline fill="none" stroke="black" points="336.673,-508.337 315.144,-508.337 "/>
<text text-anchor="middle" x="325.909" y="-491.94" font-family="Times,serif" font-size="14.00">App</text>
</g>
<!-- App&#45;&gt;Core_App -->
<g id="edge75" class="edge"><title>App&#45;&gt;Core_App</title>
<path fill="none" stroke="black" d="M357.891,-498.046C375.151,-501.087 395.507,-507.828 407.441,-522.64 442.662,-566.354 464.581,-968.02 469.927,-1077.3"/>
<polygon fill="black" stroke="black" points="466.442,-1077.68 470.42,-1087.5 473.433,-1077.34 466.442,-1077.68"/>
</g>
<!-- App&#45;&gt;DBManager -->
<g id="edge78" class="edge"><title>App&#45;&gt;DBManager</title>
<path fill="none" stroke="black" d="M328.722,-478.567C337.201,-408.402 379.787,-141.044 544.974,-36.6404 654.103,32.3324 814.872,-12.3028 895.919,-42.4962"/>
<polygon fill="black" stroke="black" points="894.808,-45.818 905.399,-46.0981 897.294,-39.2744 894.808,-45.818"/>
</g>
<!-- App&#45;&gt;Pager -->
<g id="edge77" class="edge"><title>App&#45;&gt;Pager</title>
<path fill="none" stroke="black" d="M340.731,-484.499C373.829,-458.425 461.127,-393.188 544.974,-360.64 579.868,-347.095 622.255,-340.19 651.842,-336.773"/>
<polygon fill="black" stroke="black" points="652.558,-340.216 662.126,-335.666 651.809,-333.257 652.558,-340.216"/>
</g>
<!-- App&#45;&gt;RouteHookRouteMap -->
<g id="edge76" class="edge"><title>App&#45;&gt;RouteHookRouteMap</title>
<path fill="none" stroke="black" d="M362.548,-495.64C419.806,-495.64 533.628,-495.64 610.378,-495.64"/>
<polygon fill="black" stroke="black" points="610.483,-499.141 620.483,-495.64 610.483,-492.141 610.483,-499.141"/>
</g>
</g>
</svg>
