<?xml version="1.0" encoding="UTF-8" standalone="no"?>
<!DOCTYPE svg PUBLIC "-//W3C//DTD SVG 1.1//EN"
 "http://www.w3.org/Graphics/SVG/1.1/DTD/svg11.dtd">
<!-- Generated by graphviz version 2.38.0 (20140413.2041)
 -->
<!-- Title: G Pages: 1 -->
<svg width="1436pt" height="1379pt"
 viewBox="0.00 0.00 1436.31 1378.65" xmlns="http://www.w3.org/2000/svg" xmlns:xlink="http://www.w3.org/1999/xlink">
<g id="graph0" class="graph" transform="scale(1 1) rotate(0) translate(4 1374.65)">
<title>G</title>
<polygon fill="white" stroke="none" points="-4,4 -4,-1374.65 1432.31,-1374.65 1432.31,4 -4,4"/>
<g id="clust1" class="cluster"><title>cluster_Core</title>
<polygon fill="none" stroke="black" points="432.956,-835.654 432.956,-1362.65 1395.49,-1362.65 1395.49,-835.654 432.956,-835.654"/>
<text text-anchor="middle" x="914.222" y="-1347.45" font-family="Times,serif" font-size="14.00">[DuckPhp\Core]</text>
</g>
<g id="clust2" class="cluster"><title>cluster_Helper</title>
<polygon fill="none" stroke="black" points="8,-1002.65 8,-1293.65 410.199,-1293.65 410.199,-1002.65 8,-1002.65"/>
<text text-anchor="middle" x="209.099" y="-1278.45" font-family="Times,serif" font-size="14.00">[DuckPhp\Helper]</text>
</g>
<g id="clust3" class="cluster"><title>cluster_DB</title>
<polygon fill="none" stroke="black" points="1085.59,-15.6542 1085.59,-144.654 1420.31,-144.654 1420.31,-15.6542 1085.59,-15.6542"/>
<text text-anchor="middle" x="1252.95" y="-129.454" font-family="Times,serif" font-size="14.00">[DuckPhp\DB]</text>
</g>
<g id="clust4" class="cluster"><title>cluster_Ext</title>
<polygon fill="none" stroke="black" points="582.932,-42.6542 582.932,-819.654 1023.6,-819.654 1023.6,-42.6542 582.932,-42.6542"/>
<text text-anchor="middle" x="803.265" y="-804.454" font-family="Times,serif" font-size="14.00">[DuckPhp\Ext]</text>
</g>
<g id="clust5" class="cluster"><title>cluster_DuckPhp</title>
<polygon fill="none" stroke="black" points="244.376,-757.654 244.376,-994.654 412.956,-994.654 412.956,-757.654 244.376,-757.654"/>
<text text-anchor="middle" x="328.666" y="-979.454" font-family="Times,serif" font-size="14.00">[DuckPhp]</text>
</g>
<!-- Core_AppPluginTrait -->
<g id="node1" class="node"><title>Core_AppPluginTrait</title>
<polygon fill="none" stroke="black" points="694.797,-941.654 602.127,-923.654 694.797,-905.654 787.467,-923.654 694.797,-941.654"/>
<polyline fill="none" stroke="black" points="613.906,-925.942 613.906,-921.366 "/>
<polyline fill="none" stroke="black" points="683.017,-907.942 706.576,-907.942 "/>
<polyline fill="none" stroke="black" points="775.687,-921.366 775.687,-925.942 "/>
<polyline fill="none" stroke="black" points="706.576,-939.366 683.017,-939.366 "/>
<text text-anchor="middle" x="694.797" y="-919.954" font-family="Times,serif" font-size="14.00">AppPluginTrait</text>
</g>
<!-- Core_View -->
<g id="node7" class="node"><title>Core_View</title>
<polygon fill="none" stroke="black" points="980.097,-933.654 926.097,-933.654 926.097,-929.654 922.097,-929.654 922.097,-925.654 926.097,-925.654 926.097,-905.654 922.097,-905.654 922.097,-901.654 926.097,-901.654 926.097,-897.654 980.097,-897.654 980.097,-933.654"/>
<polyline fill="none" stroke="black" points="926.097,-929.654 930.097,-929.654 930.097,-925.654 926.097,-925.654 "/>
<polyline fill="none" stroke="black" points="926.097,-905.654 930.097,-905.654 930.097,-901.654 926.097,-901.654 "/>
<text text-anchor="middle" x="953.097" y="-911.954" font-family="Times,serif" font-size="14.00">View</text>
</g>
<!-- Core_AppPluginTrait&#45;&gt;Core_View -->
<g id="edge23" class="edge"><title>Core_AppPluginTrait&#45;&gt;Core_View</title>
<path fill="none" stroke="black" d="M774.787,-921.189C821.775,-919.722 879.157,-917.931 915.668,-916.791"/>
<polygon fill="black" stroke="black" points="915.955,-920.284 925.841,-916.474 915.736,-913.288 915.955,-920.284"/>
</g>
<!-- Core_Configer -->
<g id="node8" class="node"><title>Core_Configer</title>
<polygon fill="none" stroke="black" points="985.597,-1041.65 920.597,-1041.65 920.597,-1037.65 916.597,-1037.65 916.597,-1033.65 920.597,-1033.65 920.597,-1013.65 916.597,-1013.65 916.597,-1009.65 920.597,-1009.65 920.597,-1005.65 985.597,-1005.65 985.597,-1041.65"/>
<polyline fill="none" stroke="black" points="920.597,-1037.65 924.597,-1037.65 924.597,-1033.65 920.597,-1033.65 "/>
<polyline fill="none" stroke="black" points="920.597,-1013.65 924.597,-1013.65 924.597,-1009.65 920.597,-1009.65 "/>
<text text-anchor="middle" x="953.097" y="-1019.95" font-family="Times,serif" font-size="14.00">Configer</text>
</g>
<!-- Core_AppPluginTrait&#45;&gt;Core_Configer -->
<g id="edge22" class="edge"><title>Core_AppPluginTrait&#45;&gt;Core_Configer</title>
<path fill="none" stroke="black" d="M759.641,-929.178C785.671,-933.584 815.2,-941.488 839.104,-955.654 859.966,-968.017 855.005,-983.087 875.104,-996.654 885.744,-1003.84 898.5,-1009.32 910.539,-1013.4"/>
<polygon fill="black" stroke="black" points="909.833,-1016.85 920.422,-1016.51 911.933,-1010.17 909.833,-1016.85"/>
</g>
<!-- Core_Route -->
<g id="node10" class="node"><title>Core_Route</title>
<polygon fill="none" stroke="black" points="953.097,-987.654 908.02,-969.654 953.097,-951.654 998.175,-969.654 953.097,-987.654"/>
<polyline fill="none" stroke="black" points="919.164,-974.104 919.164,-965.204 "/>
<polyline fill="none" stroke="black" points="941.953,-956.104 964.242,-956.104 "/>
<polyline fill="none" stroke="black" points="987.031,-965.204 987.031,-974.104 "/>
<polyline fill="none" stroke="black" points="964.242,-983.204 941.953,-983.204 "/>
<text text-anchor="middle" x="953.097" y="-965.954" font-family="Times,serif" font-size="14.00">Route</text>
</g>
<!-- Core_AppPluginTrait&#45;&gt;Core_Route -->
<g id="edge24" class="edge"><title>Core_AppPluginTrait&#45;&gt;Core_Route</title>
<path fill="none" stroke="black" d="M743.704,-932.253C791.96,-940.913 865.617,-954.133 911.208,-962.316"/>
<polygon fill="black" stroke="black" points="910.865,-965.81 921.326,-964.132 912.102,-958.92 910.865,-965.81"/>
</g>
<!-- Core_SuperGlobal -->
<g id="node14" class="node"><title>Core_SuperGlobal</title>
<polygon fill="none" stroke="black" points="995.597,-1095.65 910.597,-1095.65 910.597,-1091.65 906.597,-1091.65 906.597,-1087.65 910.597,-1087.65 910.597,-1067.65 906.597,-1067.65 906.597,-1063.65 910.597,-1063.65 910.597,-1059.65 995.597,-1059.65 995.597,-1095.65"/>
<polyline fill="none" stroke="black" points="910.597,-1091.65 914.597,-1091.65 914.597,-1087.65 910.597,-1087.65 "/>
<polyline fill="none" stroke="black" points="910.597,-1067.65 914.597,-1067.65 914.597,-1063.65 910.597,-1063.65 "/>
<text text-anchor="middle" x="953.097" y="-1073.95" font-family="Times,serif" font-size="14.00">SuperGlobal</text>
</g>
<!-- Core_AppPluginTrait&#45;&gt;Core_SuperGlobal -->
<g id="edge25" class="edge"><title>Core_AppPluginTrait&#45;&gt;Core_SuperGlobal</title>
<path fill="none" stroke="black" d="M745.521,-931.852C775.629,-939.017 813.105,-952.12 839.104,-975.654 866.516,-1000.47 847.559,-1025.99 875.104,-1050.65 882.544,-1057.32 891.725,-1062.36 901.124,-1066.16"/>
<polygon fill="black" stroke="black" points="899.946,-1069.46 910.54,-1069.57 902.329,-1062.88 899.946,-1069.46"/>
</g>
<!-- Core_App -->
<g id="node2" class="node"><title>Core_App</title>
<polygon fill="none" stroke="black" points="477.723,-1124.65 441.189,-1106.65 477.723,-1088.65 514.257,-1106.65 477.723,-1124.65"/>
<polyline fill="none" stroke="black" points="451.953,-1111.96 451.953,-1101.35 "/>
<polyline fill="none" stroke="black" points="466.958,-1093.96 488.487,-1093.96 "/>
<polyline fill="none" stroke="black" points="503.492,-1101.35 503.492,-1111.96 "/>
<polyline fill="none" stroke="black" points="488.487,-1119.35 466.958,-1119.35 "/>
<text text-anchor="middle" x="477.723" y="-1102.95" font-family="Times,serif" font-size="14.00">App</text>
</g>
<!-- Core_Kernel -->
<g id="node3" class="node"><title>Core_Kernel</title>
<polygon fill="none" stroke="black" points="694.797,-1089.65 645.865,-1071.65 694.797,-1053.65 743.728,-1071.65 694.797,-1089.65"/>
<text text-anchor="middle" x="694.797" y="-1067.95" font-family="Times,serif" font-size="14.00">Kernel</text>
</g>
<!-- Core_App&#45;&gt;Core_Kernel -->
<g id="edge9" class="edge"><title>Core_App&#45;&gt;Core_Kernel</title>
<path fill="none" stroke="black" d="M505.527,-1102.29C541.806,-1096.39 606.973,-1085.78 650.308,-1078.73"/>
<polygon fill="black" stroke="black" points="650.976,-1082.17 660.284,-1077.11 649.851,-1075.26 650.976,-1082.17"/>
</g>
<!-- Core_AutoLoader -->
<g id="node5" class="node"><title>Core_AutoLoader</title>
<ellipse fill="none" stroke="black" cx="953.097" cy="-1259.65" rx="53.0913" ry="18"/>
<text text-anchor="middle" x="953.097" y="-1255.95" font-family="Times,serif" font-size="14.00">AutoLoader</text>
</g>
<!-- Core_App&#45;&gt;Core_AutoLoader -->
<g id="edge13" class="edge"><title>Core_App&#45;&gt;Core_AutoLoader</title>
<path fill="none" stroke="black" stroke-dasharray="1,5" d="M485.919,-1120.94C496.837,-1140.92 519.628,-1176.55 550.489,-1192.65 607.564,-1222.43 776.582,-1202.31 839.104,-1217.65 855.938,-1221.78 858.919,-1226.45 875.104,-1232.65 884.727,-1236.34 895.098,-1240.12 905.015,-1243.63"/>
<polygon fill="black" stroke="black" points="904.142,-1247.03 914.737,-1247.04 906.46,-1240.42 904.142,-1247.03"/>
</g>
<!-- Core_ExceptionManager -->
<g id="node6" class="node"><title>Core_ExceptionManager</title>
<ellipse fill="none" stroke="black" cx="953.097" cy="-1313.65" rx="77.9862" ry="18"/>
<text text-anchor="middle" x="953.097" y="-1309.95" font-family="Times,serif" font-size="14.00">ExceptionManager</text>
</g>
<!-- Core_App&#45;&gt;Core_ExceptionManager -->
<g id="edge16" class="edge"><title>Core_App&#45;&gt;Core_ExceptionManager</title>
<path fill="none" stroke="black" stroke-dasharray="1,5" d="M484.101,-1121.55C493.491,-1145.13 515.298,-1190.44 550.489,-1210.65 662.039,-1274.73 728.071,-1167.68 839.104,-1232.65 864,-1247.22 852.318,-1268.97 875.104,-1286.65 879.764,-1290.27 884.945,-1293.43 890.354,-1296.17"/>
<polygon fill="black" stroke="black" points="889.072,-1299.43 899.621,-1300.42 891.989,-1293.07 889.072,-1299.43"/>
</g>
<!-- Core_App&#45;&gt;Core_View -->
<g id="edge19" class="edge"><title>Core_App&#45;&gt;Core_View</title>
<path fill="none" stroke="black" stroke-dasharray="1,5" d="M481.187,-1090.25C488.898,-1041.39 514.23,-898.493 550.489,-871.654 576.264,-852.575 807.813,-864.638 839.104,-871.654 856.37,-875.526 858.734,-881.94 875.104,-888.654 888.367,-894.094 903.177,-899.453 916.237,-903.944"/>
<polygon fill="black" stroke="black" points="915.234,-907.3 925.828,-907.196 917.482,-900.67 915.234,-907.3"/>
</g>
<!-- Core_App&#45;&gt;Core_Configer -->
<g id="edge14" class="edge"><title>Core_App&#45;&gt;Core_Configer</title>
<path fill="none" stroke="black" stroke-dasharray="1,5" d="M481.411,-1090.27C487.455,-1059.43 505.294,-993.363 550.489,-965.654 577.828,-948.893 809.041,-954.494 839.104,-965.654 858.899,-973.002 856.824,-986.088 875.104,-996.654 886.122,-1003.02 898.89,-1008.25 910.822,-1012.35"/>
<polygon fill="black" stroke="black" points="909.999,-1015.76 920.591,-1015.52 912.165,-1009.1 909.999,-1015.76"/>
</g>
<!-- Core_Logger -->
<g id="node9" class="node"><title>Core_Logger</title>
<polygon fill="none" stroke="black" points="981.097,-1169.65 925.097,-1169.65 925.097,-1165.65 921.097,-1165.65 921.097,-1161.65 925.097,-1161.65 925.097,-1141.65 921.097,-1141.65 921.097,-1137.65 925.097,-1137.65 925.097,-1133.65 981.097,-1133.65 981.097,-1169.65"/>
<polyline fill="none" stroke="black" points="925.097,-1165.65 929.097,-1165.65 929.097,-1161.65 925.097,-1161.65 "/>
<polyline fill="none" stroke="black" points="925.097,-1141.65 929.097,-1141.65 929.097,-1137.65 925.097,-1137.65 "/>
<text text-anchor="middle" x="953.097" y="-1147.95" font-family="Times,serif" font-size="14.00">Logger</text>
</g>
<!-- Core_App&#45;&gt;Core_Logger -->
<g id="edge15" class="edge"><title>Core_App&#45;&gt;Core_Logger</title>
<path fill="none" stroke="black" stroke-dasharray="1,5" d="M513.223,-1106.05C577.636,-1105.41 720.416,-1106.32 839.104,-1123.65 864.828,-1127.41 893.228,-1134.46 915.121,-1140.55"/>
<polygon fill="black" stroke="black" points="914.42,-1143.99 924.996,-1143.35 916.331,-1137.25 914.42,-1143.99"/>
</g>
<!-- Core_App&#45;&gt;Core_Route -->
<g id="edge17" class="edge"><title>Core_App&#45;&gt;Core_Route</title>
<path fill="none" stroke="black" stroke-dasharray="1,5" d="M478.5,-1088.92C479.058,-1047.02 487.024,-942.034 550.489,-896.654 602.661,-859.35 781.447,-868.562 839.104,-896.654 862.443,-908.025 854.006,-927.527 875.104,-942.654 886.388,-950.744 900.318,-956.597 913.213,-960.74"/>
<polygon fill="black" stroke="black" points="912.23,-964.099 922.812,-963.584 914.218,-957.388 912.23,-964.099"/>
</g>
<!-- Core_RuntimeState -->
<g id="node11" class="node"><title>Core_RuntimeState</title>
<polygon fill="none" stroke="black" points="998.597,-1223.65 907.597,-1223.65 907.597,-1219.65 903.597,-1219.65 903.597,-1215.65 907.597,-1215.65 907.597,-1195.65 903.597,-1195.65 903.597,-1191.65 907.597,-1191.65 907.597,-1187.65 998.597,-1187.65 998.597,-1223.65"/>
<polyline fill="none" stroke="black" points="907.597,-1219.65 911.597,-1219.65 911.597,-1215.65 907.597,-1215.65 "/>
<polyline fill="none" stroke="black" points="907.597,-1195.65 911.597,-1195.65 911.597,-1191.65 907.597,-1191.65 "/>
<text text-anchor="middle" x="953.097" y="-1201.95" font-family="Times,serif" font-size="14.00">RuntimeState</text>
</g>
<!-- Core_App&#45;&gt;Core_RuntimeState -->
<g id="edge18" class="edge"><title>Core_App&#45;&gt;Core_RuntimeState</title>
<path fill="none" stroke="black" stroke-dasharray="1,5" d="M503.173,-1112.25C516.991,-1115.2 534.624,-1118.62 550.489,-1120.65 614.229,-1128.82 781.244,-1110.7 839.104,-1138.65 860.639,-1149.06 855.199,-1165.39 875.104,-1178.65 882.137,-1183.34 890.073,-1187.31 898.11,-1190.64"/>
<polygon fill="black" stroke="black" points="896.952,-1193.94 907.542,-1194.26 899.461,-1187.41 896.952,-1193.94"/>
</g>
<!-- Core_SystemWrapperTrait -->
<g id="node12" class="node"><title>Core_SystemWrapperTrait</title>
<polygon fill="none" stroke="black" points="694.797,-1183.65 574.477,-1165.65 694.797,-1147.65 815.116,-1165.65 694.797,-1183.65"/>
<text text-anchor="middle" x="694.797" y="-1161.95" font-family="Times,serif" font-size="14.00">SystemWrapperTrait</text>
</g>
<!-- Core_App&#45;&gt;Core_SystemWrapperTrait -->
<g id="edge12" class="edge"><title>Core_App&#45;&gt;Core_SystemWrapperTrait</title>
<path fill="none" stroke="black" d="M497.965,-1114.74C512.274,-1120.54 532.374,-1128.25 550.489,-1133.65 576.585,-1141.43 605.854,-1148.29 631.105,-1153.65"/>
<polygon fill="black" stroke="black" points="630.428,-1157.08 640.932,-1155.7 631.858,-1150.23 630.428,-1157.08"/>
</g>
<!-- Core_App&#45;&gt;Core_SuperGlobal -->
<g id="edge20" class="edge"><title>Core_App&#45;&gt;Core_SuperGlobal</title>
<path fill="none" stroke="black" stroke-dasharray="1,5" d="M482.991,-1091.04C491.124,-1064.73 511.598,-1012.33 550.489,-990.654 606.515,-959.435 783.293,-959.054 839.104,-990.654 866.166,-1005.98 850.998,-1031.01 875.104,-1050.65 882.602,-1056.76 891.577,-1061.54 900.708,-1065.25"/>
<polygon fill="black" stroke="black" points="899.632,-1068.58 910.226,-1068.75 902.046,-1062.01 899.632,-1068.58"/>
</g>
<!-- Core_ExtendableStaticCallTrait -->
<g id="node15" class="node"><title>Core_ExtendableStaticCallTrait</title>
<polygon fill="none" stroke="black" points="694.797,-1331.65 550.681,-1313.65 694.797,-1295.65 838.912,-1313.65 694.797,-1331.65"/>
<text text-anchor="middle" x="694.797" y="-1309.95" font-family="Times,serif" font-size="14.00">ExtendableStaticCallTrait</text>
</g>
<!-- Core_App&#45;&gt;Core_ExtendableStaticCallTrait -->
<g id="edge11" class="edge"><title>Core_App&#45;&gt;Core_ExtendableStaticCallTrait</title>
<path fill="none" stroke="black" d="M480.186,-1123.67C484.256,-1159.79 499.065,-1244.31 550.489,-1286.65 560.282,-1294.72 571.732,-1300.66 583.814,-1305"/>
<polygon fill="black" stroke="black" points="583.029,-1308.42 593.62,-1308.15 585.168,-1301.76 583.029,-1308.42"/>
</g>
<!-- Core_ThrowOn -->
<g id="node16" class="node"><title>Core_ThrowOn</title>
<polygon fill="none" stroke="black" points="694.797,-1035.65 631.453,-1017.65 694.797,-999.654 758.14,-1017.65 694.797,-1035.65"/>
<text text-anchor="middle" x="694.797" y="-1013.95" font-family="Times,serif" font-size="14.00">ThrowOn</text>
</g>
<!-- Core_App&#45;&gt;Core_ThrowOn -->
<g id="edge10" class="edge"><title>Core_App&#45;&gt;Core_ThrowOn</title>
<path fill="none" stroke="black" d="M489.271,-1094.23C502.177,-1079.89 525.426,-1056.74 550.489,-1044.65 575.754,-1032.47 605.993,-1025.77 632.167,-1022.1"/>
<polygon fill="black" stroke="black" points="632.883,-1025.54 642.355,-1020.79 631.99,-1018.59 632.883,-1025.54"/>
</g>
<!-- Core_Functions -->
<g id="node19" class="node"><title>Core_Functions</title>
<ellipse fill="none" stroke="black" cx="694.797" cy="-1259.65" rx="45.4919" ry="18"/>
<text text-anchor="middle" x="694.797" y="-1255.95" font-family="Times,serif" font-size="14.00">Functions</text>
</g>
<!-- Core_App&#45;&gt;Core_Functions -->
<g id="edge21" class="edge"><title>Core_App&#45;&gt;Core_Functions</title>
<path fill="none" stroke="black" stroke-dasharray="1,5" d="M483.356,-1122.02C492.04,-1148.07 513.321,-1200.69 550.489,-1227.65 576.034,-1246.19 610.386,-1254.28 639.053,-1257.69"/>
<polygon fill="black" stroke="black" points="639.024,-1261.21 649.33,-1258.75 639.741,-1254.24 639.024,-1261.21"/>
</g>
<!-- Core_SingletonEx -->
<g id="node4" class="node"><title>Core_SingletonEx</title>
<polygon fill="none" stroke="black" points="1311.2,-1132.65 1235.12,-1114.65 1311.2,-1096.65 1387.28,-1114.65 1311.2,-1132.65"/>
<polyline fill="none" stroke="black" points="1246.79,-1117.42 1246.79,-1111.89 "/>
<polyline fill="none" stroke="black" points="1299.52,-1099.42 1322.88,-1099.42 "/>
<polyline fill="none" stroke="black" points="1375.6,-1111.89 1375.6,-1117.42 "/>
<polyline fill="none" stroke="black" points="1322.88,-1129.89 1299.52,-1129.89 "/>
<text text-anchor="middle" x="1311.2" y="-1110.95" font-family="Times,serif" font-size="14.00">SingletonEx</text>
</g>
<!-- Core_Kernel&#45;&gt;Core_SingletonEx -->
<g id="edge35" class="edge"><title>Core_Kernel&#45;&gt;Core_SingletonEx</title>
<path fill="none" stroke="black" d="M725.097,-1078.53C760.432,-1086.48 821.735,-1099.17 875.104,-1104.65 999.638,-1117.46 1145.23,-1117.88 1232.45,-1116.58"/>
<polygon fill="black" stroke="black" points="1232.59,-1120.08 1242.54,-1116.42 1232.48,-1113.08 1232.59,-1120.08"/>
</g>
<!-- Core_Kernel&#45;&gt;Core_AutoLoader -->
<g id="edge1" class="edge"><title>Core_Kernel&#45;&gt;Core_AutoLoader</title>
<path fill="none" stroke="black" d="M725.543,-1078.46C757.62,-1087.24 808.228,-1105.48 839.104,-1138.65 869.586,-1171.4 843.024,-1201.47 875.104,-1232.65 881.31,-1238.69 888.939,-1243.38 896.958,-1247.02"/>
<polygon fill="black" stroke="black" points="895.905,-1250.37 906.489,-1250.84 898.508,-1243.87 895.905,-1250.37"/>
</g>
<!-- Core_Kernel&#45;&gt;Core_ExceptionManager -->
<g id="edge4" class="edge"><title>Core_Kernel&#45;&gt;Core_ExceptionManager</title>
<path fill="none" stroke="black" d="M726.963,-1077.89C759.783,-1086.11 810.571,-1103.8 839.104,-1138.65 881.988,-1191.03 829.655,-1236.48 875.104,-1286.65 878.436,-1290.33 882.297,-1293.51 886.481,-1296.25"/>
<polygon fill="black" stroke="black" points="885.024,-1299.45 895.456,-1301.3 888.455,-1293.35 885.024,-1299.45"/>
</g>
<!-- Core_Kernel&#45;&gt;Core_View -->
<g id="edge7" class="edge"><title>Core_Kernel&#45;&gt;Core_View</title>
<path fill="none" stroke="black" d="M736.571,-1074.31C768.087,-1074.15 810.949,-1068.8 839.104,-1044.65 875.597,-1013.36 841.077,-976.614 875.104,-942.654 885.996,-931.784 901.508,-925.278 915.758,-921.389"/>
<polygon fill="black" stroke="black" points="916.908,-924.713 925.827,-918.995 915.289,-917.903 916.908,-924.713"/>
</g>
<!-- Core_Kernel&#45;&gt;Core_Configer -->
<g id="edge2" class="edge"><title>Core_Kernel&#45;&gt;Core_Configer</title>
<path fill="none" stroke="black" d="M727.739,-1065.67C773.939,-1057.02 859.451,-1041 910.518,-1031.44"/>
<polygon fill="black" stroke="black" points="911.373,-1034.84 920.558,-1029.56 910.084,-1027.96 911.373,-1034.84"/>
</g>
<!-- Core_Kernel&#45;&gt;Core_Logger -->
<g id="edge3" class="edge"><title>Core_Kernel&#45;&gt;Core_Logger</title>
<path fill="none" stroke="black" d="M729.027,-1077.14C758.4,-1082.44 802.189,-1091.46 839.104,-1103.65 855.73,-1109.14 859.019,-1112.74 875.104,-1119.65 888.245,-1125.3 902.712,-1131.36 915.524,-1136.67"/>
<polygon fill="black" stroke="black" points="914.371,-1139.98 924.949,-1140.56 917.043,-1133.51 914.371,-1139.98"/>
</g>
<!-- Core_Kernel&#45;&gt;Core_Route -->
<g id="edge5" class="edge"><title>Core_Kernel&#45;&gt;Core_Route</title>
<path fill="none" stroke="black" d="M743.124,-1071.29C772.671,-1069.09 810.41,-1062.51 839.104,-1044.65 861.744,-1030.56 853.593,-1012.41 875.104,-996.654 886.304,-988.449 900.214,-982.569 913.118,-978.436"/>
<polygon fill="black" stroke="black" points="914.123,-981.789 922.727,-975.607 912.146,-975.074 914.123,-981.789"/>
</g>
<!-- Core_Kernel&#45;&gt;Core_RuntimeState -->
<g id="edge6" class="edge"><title>Core_Kernel&#45;&gt;Core_RuntimeState</title>
<path fill="none" stroke="black" d="M728.603,-1077.33C759.71,-1084.06 806.421,-1097.78 839.104,-1123.65 862.01,-1141.79 852.101,-1160.64 875.104,-1178.65 881.838,-1183.93 889.678,-1188.21 897.728,-1191.69"/>
<polygon fill="black" stroke="black" points="896.633,-1195.02 907.22,-1195.4 899.183,-1188.5 896.633,-1195.02"/>
</g>
<!-- Core_Kernel&#45;&gt;Core_SuperGlobal -->
<g id="edge8" class="edge"><title>Core_Kernel&#45;&gt;Core_SuperGlobal</title>
<path fill="none" stroke="black" d="M741.028,-1072.71C785.518,-1073.75 853.375,-1075.34 900.075,-1076.44"/>
<polygon fill="black" stroke="black" points="900.209,-1079.94 910.289,-1076.68 900.373,-1072.94 900.209,-1079.94"/>
</g>
<!-- Core_ComponentBase -->
<g id="node18" class="node"><title>Core_ComponentBase</title>
<polygon fill="none" stroke="black" points="1174.09,-879.654 1071.09,-879.654 1067.09,-875.654 1067.09,-843.654 1170.09,-843.654 1174.09,-847.654 1174.09,-879.654"/>
<polyline fill="none" stroke="black" points="1170.09,-875.654 1067.09,-875.654 "/>
<polyline fill="none" stroke="black" points="1170.09,-875.654 1170.09,-843.654 "/>
<polyline fill="none" stroke="black" points="1170.09,-875.654 1174.09,-879.654 "/>
<text text-anchor="middle" x="1120.59" y="-857.954" font-family="Times,serif" font-size="14.00">ComponentBase</text>
</g>
<!-- Core_View&#45;&gt;Core_ComponentBase -->
<g id="edge30" class="edge"><title>Core_View&#45;&gt;Core_ComponentBase</title>
<path fill="none" stroke="black" stroke-dasharray="1,5" d="M980.32,-907.098C1000.94,-900.37 1030.52,-890.716 1057.13,-882.035"/>
<polygon fill="black" stroke="black" points="1058.35,-885.318 1066.77,-878.888 1056.18,-878.663 1058.35,-885.318"/>
</g>
<!-- Core_Configer&#45;&gt;Core_ComponentBase -->
<g id="edge26" class="edge"><title>Core_Configer&#45;&gt;Core_ComponentBase</title>
<path fill="none" stroke="black" stroke-dasharray="1,5" d="M985.62,-1017.55C1000.54,-1013.49 1017.93,-1006.95 1031.09,-996.654 1067.94,-967.827 1094.36,-919.191 1108.29,-888.839"/>
<polygon fill="black" stroke="black" points="1111.5,-890.234 1112.37,-879.675 1105.1,-887.387 1111.5,-890.234"/>
</g>
<!-- Core_Logger&#45;&gt;Core_ComponentBase -->
<g id="edge31" class="edge"><title>Core_Logger&#45;&gt;Core_ComponentBase</title>
<path fill="none" stroke="black" stroke-dasharray="1,5" d="M981.202,-1140.69C997.631,-1132.83 1017.9,-1120.77 1031.09,-1104.65 1084.63,-1039.25 1107.29,-938.625 1115.53,-889.953"/>
<polygon fill="black" stroke="black" points="1119.02,-890.269 1117.16,-879.839 1112.11,-889.155 1119.02,-890.269"/>
</g>
<!-- Core_Route&#45;&gt;Core_ComponentBase -->
<g id="edge27" class="edge"><title>Core_Route&#45;&gt;Core_ComponentBase</title>
<path fill="none" stroke="black" stroke-dasharray="1,5" d="M981.648,-962.928C996.884,-958.503 1015.78,-951.819 1031.09,-942.654 1056.04,-927.722 1080.1,-904.985 1096.82,-887.397"/>
<polygon fill="black" stroke="black" points="1099.71,-889.43 1103.96,-879.726 1094.59,-884.66 1099.71,-889.43"/>
</g>
<!-- Core_RuntimeState&#45;&gt;Core_ComponentBase -->
<g id="edge29" class="edge"><title>Core_RuntimeState&#45;&gt;Core_ComponentBase</title>
<path fill="none" stroke="black" stroke-dasharray="1,5" d="M998.639,-1197.92C1010.54,-1193.92 1022.47,-1187.85 1031.09,-1178.65 1108.67,-1095.86 1119.15,-950.771 1119.94,-889.85"/>
<polygon fill="black" stroke="black" points="1123.44,-889.836 1119.99,-879.818 1116.44,-889.801 1123.44,-889.836"/>
</g>
<!-- Core_HttpServer -->
<g id="node13" class="node"><title>Core_HttpServer</title>
<polygon fill="none" stroke="black" points="991.097,-879.654 915.097,-879.654 915.097,-875.654 911.097,-875.654 911.097,-871.654 915.097,-871.654 915.097,-851.654 911.097,-851.654 911.097,-847.654 915.097,-847.654 915.097,-843.654 991.097,-843.654 991.097,-879.654"/>
<polyline fill="none" stroke="black" points="915.097,-875.654 919.097,-875.654 919.097,-871.654 915.097,-871.654 "/>
<polyline fill="none" stroke="black" points="915.097,-851.654 919.097,-851.654 919.097,-847.654 915.097,-847.654 "/>
<text text-anchor="middle" x="953.097" y="-857.954" font-family="Times,serif" font-size="14.00">HttpServer</text>
</g>
<!-- Core_HttpServer&#45;&gt;Core_ComponentBase -->
<g id="edge32" class="edge"><title>Core_HttpServer&#45;&gt;Core_ComponentBase</title>
<path fill="none" stroke="black" stroke-dasharray="1,5" d="M991.237,-861.654C1010.58,-861.654 1034.75,-861.654 1056.88,-861.654"/>
<polygon fill="black" stroke="black" points="1056.88,-865.154 1066.88,-861.654 1056.88,-858.154 1056.88,-865.154"/>
</g>
<!-- Core_SuperGlobal&#45;&gt;Core_ComponentBase -->
<g id="edge28" class="edge"><title>Core_SuperGlobal&#45;&gt;Core_ComponentBase</title>
<path fill="none" stroke="black" stroke-dasharray="1,5" d="M995.706,-1069.63C1008.21,-1065.6 1021.21,-1059.58 1031.09,-1050.65 1079.67,-1006.73 1103.77,-930.603 1113.74,-889.65"/>
<polygon fill="black" stroke="black" points="1117.17,-890.333 1116.03,-879.8 1110.36,-888.748 1117.17,-890.333"/>
</g>
<!-- Core_ComponentInterface -->
<g id="node17" class="node"><title>Core_ComponentInterface</title>
<polygon fill="none" stroke="black" points="1369.2,-879.654 1247.2,-879.654 1247.2,-843.654 1375.2,-843.654 1375.2,-873.654 1369.2,-879.654"/>
<polyline fill="none" stroke="black" points="1369.2,-879.654 1369.2,-873.654 "/>
<polyline fill="none" stroke="black" points="1375.2,-873.654 1369.2,-873.654 "/>
<text text-anchor="middle" x="1311.2" y="-857.954" font-family="Times,serif" font-size="14.00">ComponentInterface</text>
</g>
<!-- Core_ComponentBase&#45;&gt;Core_SingletonEx -->
<g id="edge34" class="edge"><title>Core_ComponentBase&#45;&gt;Core_SingletonEx</title>
<path fill="none" stroke="black" d="M1135.15,-879.849C1168.62,-924.741 1255.11,-1040.77 1292.52,-1090.95"/>
<polygon fill="black" stroke="black" points="1289.93,-1093.32 1298.71,-1099.24 1295.54,-1089.14 1289.93,-1093.32"/>
</g>
<!-- Core_ComponentBase&#45;&gt;Core_ComponentInterface -->
<g id="edge33" class="edge"><title>Core_ComponentBase&#45;&gt;Core_ComponentInterface</title>
<path fill="none" stroke="black" d="M1174.13,-861.654C1193.52,-861.654 1215.86,-861.654 1236.76,-861.654"/>
<polygon fill="black" stroke="black" points="1236.89,-865.154 1246.89,-861.654 1236.89,-858.154 1236.89,-865.154"/>
</g>
<!-- AppHelper -->
<g id="node20" class="node"><title>AppHelper</title>
<polygon fill="none" stroke="black" points="116.188,-1100.65 45.6372,-1082.65 116.188,-1064.65 186.739,-1082.65 116.188,-1100.65"/>
<polyline fill="none" stroke="black" points="57.2647,-1085.62 57.2647,-1079.69 "/>
<polyline fill="none" stroke="black" points="104.561,-1067.62 127.816,-1067.62 "/>
<polyline fill="none" stroke="black" points="175.112,-1079.69 175.112,-1085.62 "/>
<polyline fill="none" stroke="black" points="127.816,-1097.69 104.561,-1097.69 "/>
<text text-anchor="middle" x="116.188" y="-1078.95" font-family="Times,serif" font-size="14.00">AppHelper</text>
</g>
<!-- AppHelper&#45;&gt;Core_App -->
<g id="edge36" class="edge"><title>AppHelper&#45;&gt;Core_App</title>
<path fill="none" stroke="black" d="M180.085,-1080.93C240.161,-1080.14 333.117,-1081.16 412.956,-1091.65 423.25,-1093.01 434.311,-1095.3 444.283,-1097.7"/>
<polygon fill="black" stroke="black" points="443.651,-1101.15 454.203,-1100.19 445.358,-1094.36 443.651,-1101.15"/>
</g>
<!-- HelperTrait -->
<g id="node25" class="node"><title>HelperTrait</title>
<polygon fill="none" stroke="black" points="328.666,-1245.65 255.101,-1227.65 328.666,-1209.65 402.232,-1227.65 328.666,-1245.65"/>
<text text-anchor="middle" x="328.666" y="-1223.95" font-family="Times,serif" font-size="14.00">HelperTrait</text>
</g>
<!-- AppHelper&#45;&gt;HelperTrait -->
<g id="edge44" class="edge"><title>AppHelper&#45;&gt;HelperTrait</title>
<path fill="none" stroke="black" d="M161.241,-1089.24C179.235,-1093.27 199.693,-1099.65 216.376,-1109.65 256.733,-1133.86 291.824,-1176.74 311.328,-1203.61"/>
<polygon fill="black" stroke="black" points="308.684,-1205.93 317.33,-1212.05 314.39,-1201.87 308.684,-1205.93"/>
</g>
<!-- ControllerHelper -->
<g id="node21" class="node"><title>ControllerHelper</title>
<polygon fill="none" stroke="black" points="116.188,-1046.65 15.8115,-1028.65 116.188,-1010.65 216.565,-1028.65 116.188,-1046.65"/>
<polyline fill="none" stroke="black" points="27.6231,-1030.77 27.6231,-1026.54 "/>
<polyline fill="none" stroke="black" points="104.377,-1012.77 128,-1012.77 "/>
<polyline fill="none" stroke="black" points="204.753,-1026.54 204.753,-1030.77 "/>
<polyline fill="none" stroke="black" points="128,-1044.54 104.377,-1044.54 "/>
<text text-anchor="middle" x="116.188" y="-1024.95" font-family="Times,serif" font-size="14.00">ControllerHelper</text>
</g>
<!-- ControllerHelper&#45;&gt;Core_App -->
<g id="edge37" class="edge"><title>ControllerHelper&#45;&gt;Core_App</title>
<path fill="none" stroke="black" d="M183.524,-1034.61C244.226,-1041.24 336.027,-1054.24 412.956,-1077.65 425.644,-1081.52 439.094,-1087.35 450.354,-1092.78"/>
<polygon fill="black" stroke="black" points="449.099,-1096.06 459.611,-1097.38 452.215,-1089.79 449.099,-1096.06"/>
</g>
<!-- ControllerHelper&#45;&gt;HelperTrait -->
<g id="edge45" class="edge"><title>ControllerHelper&#45;&gt;HelperTrait</title>
<path fill="none" stroke="black" d="M173.406,-1036.44C188.37,-1040.44 203.841,-1046.49 216.376,-1055.65 268.436,-1093.7 302.576,-1164.13 318.067,-1201.98"/>
<polygon fill="black" stroke="black" points="314.826,-1203.31 321.772,-1211.31 321.331,-1200.72 314.826,-1203.31"/>
</g>
<!-- ModelHelper -->
<g id="node22" class="node"><title>ModelHelper</title>
<polygon fill="none" stroke="black" points="116.188,-1262.65 34.5777,-1244.65 116.188,-1226.65 197.799,-1244.65 116.188,-1262.65"/>
<polyline fill="none" stroke="black" points="46.296,-1247.24 46.296,-1242.07 "/>
<polyline fill="none" stroke="black" points="104.47,-1229.24 127.906,-1229.24 "/>
<polyline fill="none" stroke="black" points="186.08,-1242.07 186.08,-1247.24 "/>
<polyline fill="none" stroke="black" points="127.906,-1260.07 104.47,-1260.07 "/>
<text text-anchor="middle" x="116.188" y="-1240.95" font-family="Times,serif" font-size="14.00">ModelHelper</text>
</g>
<!-- ModelHelper&#45;&gt;Core_App -->
<g id="edge38" class="edge"><title>ModelHelper&#45;&gt;Core_App</title>
<path fill="none" stroke="black" d="M159.086,-1236.01C177.109,-1231.59 198.175,-1225.47 216.376,-1217.65 229.753,-1211.91 230.892,-1206.14 244.376,-1200.65 315.607,-1171.67 344.376,-1196.45 412.956,-1161.65 430.282,-1152.86 446.803,-1138.38 458.686,-1126.48"/>
<polygon fill="black" stroke="black" points="461.362,-1128.75 465.787,-1119.12 456.325,-1123.89 461.362,-1128.75"/>
</g>
<!-- ModelHelper&#45;&gt;HelperTrait -->
<g id="edge46" class="edge"><title>ModelHelper&#45;&gt;HelperTrait</title>
<path fill="none" stroke="black" d="M176.378,-1239.87C203.224,-1237.71 235.051,-1235.13 262.57,-1232.91"/>
<polygon fill="black" stroke="black" points="263.2,-1236.37 272.886,-1232.08 262.637,-1229.4 263.2,-1236.37"/>
</g>
<!-- ServiceHelper -->
<g id="node23" class="node"><title>ServiceHelper</title>
<polygon fill="none" stroke="black" points="116.188,-1208.65 29.8865,-1190.65 116.188,-1172.65 202.49,-1190.65 116.188,-1208.65"/>
<polyline fill="none" stroke="black" points="41.6337,-1193.1 41.6337,-1188.2 "/>
<polyline fill="none" stroke="black" points="104.441,-1175.1 127.935,-1175.1 "/>
<polyline fill="none" stroke="black" points="190.743,-1188.2 190.743,-1193.1 "/>
<polyline fill="none" stroke="black" points="127.935,-1206.2 104.441,-1206.2 "/>
<text text-anchor="middle" x="116.188" y="-1186.95" font-family="Times,serif" font-size="14.00">ServiceHelper</text>
</g>
<!-- ServiceHelper&#45;&gt;Core_App -->
<g id="edge39" class="edge"><title>ServiceHelper&#45;&gt;Core_App</title>
<path fill="none" stroke="black" d="M162.049,-1182.22C232.605,-1168.81 366.279,-1142.81 412.956,-1129.65 424.491,-1126.4 436.938,-1122.1 447.747,-1118.09"/>
<polygon fill="black" stroke="black" points="449.026,-1121.35 457.14,-1114.54 446.549,-1114.81 449.026,-1121.35"/>
</g>
<!-- ServiceHelper&#45;&gt;HelperTrait -->
<g id="edge47" class="edge"><title>ServiceHelper&#45;&gt;HelperTrait</title>
<path fill="none" stroke="black" d="M163.639,-1198.82C196.553,-1204.61 240.762,-1212.38 274.99,-1218.39"/>
<polygon fill="black" stroke="black" points="274.814,-1221.92 285.269,-1220.2 276.026,-1215.02 274.814,-1221.92"/>
</g>
<!-- ViewHelper -->
<g id="node24" class="node"><title>ViewHelper</title>
<polygon fill="none" stroke="black" points="116.188,-1154.65 40.1075,-1136.65 116.188,-1118.65 192.269,-1136.65 116.188,-1154.65"/>
<polyline fill="none" stroke="black" points="51.7851,-1139.42 51.7851,-1133.89 "/>
<polyline fill="none" stroke="black" points="104.511,-1121.42 127.866,-1121.42 "/>
<polyline fill="none" stroke="black" points="180.591,-1133.89 180.591,-1139.42 "/>
<polyline fill="none" stroke="black" points="127.866,-1151.89 104.511,-1151.89 "/>
<text text-anchor="middle" x="116.188" y="-1132.95" font-family="Times,serif" font-size="14.00">ViewHelper</text>
</g>
<!-- ViewHelper&#45;&gt;Core_App -->
<g id="edge40" class="edge"><title>ViewHelper&#45;&gt;Core_App</title>
<path fill="none" stroke="black" d="M172.971,-1132C245.838,-1125.92 371.694,-1115.42 436.134,-1110.04"/>
<polygon fill="black" stroke="black" points="436.631,-1113.51 446.305,-1109.19 436.049,-1106.54 436.631,-1113.51"/>
</g>
<!-- ViewHelper&#45;&gt;HelperTrait -->
<g id="edge48" class="edge"><title>ViewHelper&#45;&gt;HelperTrait</title>
<path fill="none" stroke="black" d="M157.063,-1145.04C175.483,-1149.53 197.424,-1155.78 216.376,-1163.65 246.224,-1176.06 277.969,-1194.95 299.883,-1208.99"/>
<polygon fill="black" stroke="black" points="298.057,-1211.98 308.35,-1214.49 301.871,-1206.11 298.057,-1211.98"/>
</g>
<!-- HelperTrait&#45;&gt;Core_App -->
<g id="edge41" class="edge"><title>HelperTrait&#45;&gt;Core_App</title>
<path fill="none" stroke="black" d="M366.049,-1218.74C381.571,-1213.71 399.229,-1206.26 412.956,-1195.65 435.834,-1177.97 454.037,-1149.88 465.044,-1129.99"/>
<polygon fill="black" stroke="black" points="468.239,-1131.44 469.858,-1120.97 462.063,-1128.15 468.239,-1131.44"/>
</g>
<!-- HelperTrait&#45;&gt;Core_ExtendableStaticCallTrait -->
<g id="edge42" class="edge"><title>HelperTrait&#45;&gt;Core_ExtendableStaticCallTrait</title>
<path fill="none" stroke="black" d="M362.769,-1237.33C405.79,-1249.71 483.355,-1271.38 550.489,-1286.65 574.037,-1292.01 599.932,-1297.12 623.156,-1301.43"/>
<polygon fill="black" stroke="black" points="622.807,-1304.93 633.275,-1303.29 624.071,-1298.04 622.807,-1304.93"/>
</g>
<!-- HelperTrait&#45;&gt;Core_ThrowOn -->
<g id="edge43" class="edge"><title>HelperTrait&#45;&gt;Core_ThrowOn</title>
<path fill="none" stroke="black" d="M365.56,-1218.54C407.193,-1206.15 475.134,-1180.05 514.489,-1133.65 542.091,-1101.12 517.481,-1071.69 550.489,-1044.65 571.669,-1027.3 600.529,-1019.79 626.8,-1016.91"/>
<polygon fill="black" stroke="black" points="627.451,-1020.36 637.101,-1015.99 626.83,-1013.39 627.451,-1020.36"/>
</g>
<!-- DB_DB -->
<g id="node26" class="node"><title>DB_DB</title>
<ellipse fill="none" stroke="black" cx="1120.59" cy="-68.6542" rx="27" ry="18"/>
<text text-anchor="middle" x="1120.59" y="-64.9542" font-family="Times,serif" font-size="14.00">DB</text>
</g>
<!-- DB_DBAdvanceTrait -->
<g id="node27" class="node"><title>DB_DBAdvanceTrait</title>
<polygon fill="none" stroke="black" points="1311.2,-59.6542 1209.98,-41.6542 1311.2,-23.6542 1412.41,-41.6542 1311.2,-59.6542"/>
<text text-anchor="middle" x="1311.2" y="-37.9542" font-family="Times,serif" font-size="14.00">DBAdvanceTrait</text>
</g>
<!-- DB_DB&#45;&gt;DB_DBAdvanceTrait -->
<g id="edge49" class="edge"><title>DB_DB&#45;&gt;DB_DBAdvanceTrait</title>
<path fill="none" stroke="black" d="M1147.42,-64.9566C1172.29,-61.3965 1210.94,-55.8632 1244.34,-51.0818"/>
<polygon fill="black" stroke="black" points="1245.12,-54.5069 1254.52,-49.625 1244.12,-47.5775 1245.12,-54.5069"/>
</g>
<!-- DB_DBInterface -->
<g id="node28" class="node"><title>DB_DBInterface</title>
<polygon fill="none" stroke="black" points="1346.7,-113.654 1269.7,-113.654 1269.7,-77.6542 1352.7,-77.6542 1352.7,-107.654 1346.7,-113.654"/>
<polyline fill="none" stroke="black" points="1346.7,-113.654 1346.7,-107.654 "/>
<polyline fill="none" stroke="black" points="1352.7,-107.654 1346.7,-107.654 "/>
<text text-anchor="middle" x="1311.2" y="-91.9542" font-family="Times,serif" font-size="14.00">DBInterface</text>
</g>
<!-- DB_DB&#45;&gt;DB_DBInterface -->
<g id="edge50" class="edge"><title>DB_DB&#45;&gt;DB_DBInterface</title>
<path fill="none" stroke="black" d="M1147.42,-72.3519C1176.07,-76.4531 1223.01,-83.1731 1259.14,-88.3454"/>
<polygon fill="black" stroke="black" points="1259.1,-91.8754 1269.5,-89.8279 1260.09,-84.946 1259.1,-91.8754"/>
</g>
<!-- CallableView -->
<g id="node29" class="node"><title>CallableView</title>
<polygon fill="none" stroke="black" points="740.297,-788.654 649.297,-788.654 649.297,-784.654 645.297,-784.654 645.297,-780.654 649.297,-780.654 649.297,-760.654 645.297,-760.654 645.297,-756.654 649.297,-756.654 649.297,-752.654 740.297,-752.654 740.297,-788.654"/>
<polyline fill="none" stroke="black" points="649.297,-784.654 653.297,-784.654 653.297,-780.654 649.297,-780.654 "/>
<polyline fill="none" stroke="black" points="649.297,-760.654 653.297,-760.654 653.297,-756.654 649.297,-756.654 "/>
<text text-anchor="middle" x="694.797" y="-766.954" font-family="Times,serif" font-size="14.00">CallableView</text>
</g>
<!-- CallableView&#45;&gt;Core_View -->
<g id="edge52" class="edge"><title>CallableView&#45;&gt;Core_View</title>
<path fill="none" stroke="black" d="M740.298,-781.97C770.688,-791.408 810.478,-807.299 839.104,-831.654 861.925,-851.07 851.663,-869.992 875.104,-888.654 886.964,-898.097 902.365,-904.363 916.272,-908.458"/>
<polygon fill="black" stroke="black" points="915.498,-911.874 926.063,-911.071 917.303,-905.111 915.498,-911.874"/>
</g>
<!-- DBManager -->
<g id="node30" class="node"><title>DBManager</title>
<polygon fill="none" stroke="black" points="995.097,-86.6542 911.097,-86.6542 911.097,-82.6542 907.097,-82.6542 907.097,-78.6542 911.097,-78.6542 911.097,-58.6542 907.097,-58.6542 907.097,-54.6542 911.097,-54.6542 911.097,-50.6542 995.097,-50.6542 995.097,-86.6542"/>
<polyline fill="none" stroke="black" points="911.097,-82.6542 915.097,-82.6542 915.097,-78.6542 911.097,-78.6542 "/>
<polyline fill="none" stroke="black" points="911.097,-58.6542 915.097,-58.6542 915.097,-54.6542 911.097,-54.6542 "/>
<text text-anchor="middle" x="953.097" y="-64.9542" font-family="Times,serif" font-size="14.00">DBManager</text>
</g>
<!-- DBManager&#45;&gt;Core_ComponentBase -->
<g id="edge72" class="edge"><title>DBManager&#45;&gt;Core_ComponentBase</title>
<path fill="none" stroke="black" stroke-dasharray="1,5" d="M992.466,-86.7588C1006.92,-95.5477 1022.04,-107.523 1031.09,-122.654 1104.91,-246.042 1117.27,-713.404 1119.23,-833.424"/>
<polygon fill="black" stroke="black" points="1115.74,-833.682 1119.39,-843.628 1122.74,-833.576 1115.74,-833.682"/>
</g>
<!-- DBManager&#45;&gt;DB_DB -->
<g id="edge51" class="edge"><title>DBManager&#45;&gt;DB_DB</title>
<path fill="none" stroke="black" d="M995.431,-68.6542C1022.36,-68.6542 1057.17,-68.6542 1083.07,-68.6542"/>
<polygon fill="black" stroke="black" points="1083.23,-72.1543 1093.23,-68.6542 1083.23,-65.1543 1083.23,-72.1543"/>
</g>
<!-- DBReusePoolProxy -->
<g id="node31" class="node"><title>DBReusePoolProxy</title>
<polygon fill="none" stroke="black" points="757.297,-86.6542 632.297,-86.6542 632.297,-82.6542 628.297,-82.6542 628.297,-78.6542 632.297,-78.6542 632.297,-58.6542 628.297,-58.6542 628.297,-54.6542 632.297,-54.6542 632.297,-50.6542 757.297,-50.6542 757.297,-86.6542"/>
<polyline fill="none" stroke="black" points="632.297,-82.6542 636.297,-82.6542 636.297,-78.6542 632.297,-78.6542 "/>
<polyline fill="none" stroke="black" points="632.297,-58.6542 636.297,-58.6542 636.297,-54.6542 632.297,-54.6542 "/>
<text text-anchor="middle" x="694.797" y="-64.9542" font-family="Times,serif" font-size="14.00">DBReusePoolProxy</text>
</g>
<!-- DBReusePoolProxy&#45;&gt;DBManager -->
<g id="edge53" class="edge"><title>DBReusePoolProxy&#45;&gt;DBManager</title>
<path fill="none" stroke="black" d="M757.513,-68.6542C801.346,-68.6542 859.512,-68.6542 900.8,-68.6542"/>
<polygon fill="black" stroke="black" points="900.914,-72.1543 910.914,-68.6542 900.914,-65.1543 900.914,-72.1543"/>
</g>
<!-- FacadesAutoLoader -->
<g id="node32" class="node"><title>FacadesAutoLoader</title>
<polygon fill="none" stroke="black" points="1015.6,-167.654 890.597,-167.654 890.597,-163.654 886.597,-163.654 886.597,-159.654 890.597,-159.654 890.597,-139.654 886.597,-139.654 886.597,-135.654 890.597,-135.654 890.597,-131.654 1015.6,-131.654 1015.6,-167.654"/>
<polyline fill="none" stroke="black" points="890.597,-163.654 894.597,-163.654 894.597,-159.654 890.597,-159.654 "/>
<polyline fill="none" stroke="black" points="890.597,-139.654 894.597,-139.654 894.597,-135.654 890.597,-135.654 "/>
<text text-anchor="middle" x="953.097" y="-145.954" font-family="Times,serif" font-size="14.00">FacadesAutoLoader</text>
</g>
<!-- FacadesAutoLoader&#45;&gt;Core_ComponentBase -->
<g id="edge60" class="edge"><title>FacadesAutoLoader&#45;&gt;Core_ComponentBase</title>
<path fill="none" stroke="black" stroke-dasharray="1,5" d="M992.356,-167.825C1006.79,-176.624 1021.93,-188.589 1031.09,-203.654 1097.1,-312.185 1115.05,-721.595 1118.76,-833.331"/>
<polygon fill="black" stroke="black" points="1115.27,-833.598 1119.09,-843.481 1122.27,-833.374 1115.27,-833.598"/>
</g>
<!-- FacadesBase -->
<g id="node33" class="node"><title>FacadesBase</title>
<ellipse fill="none" stroke="black" cx="694.797" cy="-122.654" rx="55.7903" ry="18"/>
<text text-anchor="middle" x="694.797" y="-118.954" font-family="Times,serif" font-size="14.00">FacadesBase</text>
</g>
<!-- FacadesBase&#45;&gt;FacadesAutoLoader -->
<g id="edge55" class="edge"><title>FacadesBase&#45;&gt;FacadesAutoLoader</title>
<path fill="none" stroke="black" d="M748.281,-128.183C786.3,-132.188 838.162,-137.652 880.055,-142.065"/>
<polygon fill="black" stroke="black" points="879.889,-145.567 890.201,-143.134 880.623,-138.605 879.889,-145.567"/>
</g>
<!-- JsonRpcClientBase -->
<g id="node34" class="node"><title>JsonRpcClientBase</title>
<ellipse fill="none" stroke="black" cx="694.797" cy="-284.654" rx="79.0865" ry="18"/>
<text text-anchor="middle" x="694.797" y="-280.954" font-family="Times,serif" font-size="14.00">JsonRpcClientBase</text>
</g>
<!-- JsonRpcExt -->
<g id="node35" class="node"><title>JsonRpcExt</title>
<polygon fill="none" stroke="black" points="993.597,-302.654 912.597,-302.654 912.597,-298.654 908.597,-298.654 908.597,-294.654 912.597,-294.654 912.597,-274.654 908.597,-274.654 908.597,-270.654 912.597,-270.654 912.597,-266.654 993.597,-266.654 993.597,-302.654"/>
<polyline fill="none" stroke="black" points="912.597,-298.654 916.597,-298.654 916.597,-294.654 912.597,-294.654 "/>
<polyline fill="none" stroke="black" points="912.597,-274.654 916.597,-274.654 916.597,-270.654 912.597,-270.654 "/>
<text text-anchor="middle" x="953.097" y="-280.954" font-family="Times,serif" font-size="14.00">JsonRpcExt</text>
</g>
<!-- JsonRpcClientBase&#45;&gt;JsonRpcExt -->
<g id="edge54" class="edge"><title>JsonRpcClientBase&#45;&gt;JsonRpcExt</title>
<path fill="none" stroke="black" d="M774.437,-284.654C815.955,-284.654 865.666,-284.654 901.932,-284.654"/>
<polygon fill="black" stroke="black" points="902.258,-288.154 912.258,-284.654 902.258,-281.154 902.258,-288.154"/>
</g>
<!-- JsonRpcExt&#45;&gt;Core_ComponentBase -->
<g id="edge61" class="edge"><title>JsonRpcExt&#45;&gt;Core_ComponentBase</title>
<path fill="none" stroke="black" stroke-dasharray="1,5" d="M993.699,-290.066C1007.44,-293.906 1021.73,-300.463 1031.09,-311.654 1098.52,-392.27 1115.24,-732.402 1118.76,-833.317"/>
<polygon fill="black" stroke="black" points="1115.26,-833.492 1119.09,-843.371 1122.26,-833.26 1115.26,-833.492"/>
</g>
<!-- Misc -->
<g id="node36" class="node"><title>Misc</title>
<polygon fill="none" stroke="black" points="721.797,-572.654 667.797,-572.654 667.797,-568.654 663.797,-568.654 663.797,-564.654 667.797,-564.654 667.797,-544.654 663.797,-544.654 663.797,-540.654 667.797,-540.654 667.797,-536.654 721.797,-536.654 721.797,-572.654"/>
<polyline fill="none" stroke="black" points="667.797,-568.654 671.797,-568.654 671.797,-564.654 667.797,-564.654 "/>
<polyline fill="none" stroke="black" points="667.797,-544.654 671.797,-544.654 671.797,-540.654 667.797,-540.654 "/>
<text text-anchor="middle" x="694.797" y="-550.954" font-family="Times,serif" font-size="14.00">Misc</text>
</g>
<!-- Misc&#45;&gt;Core_ComponentBase -->
<g id="edge63" class="edge"><title>Misc&#45;&gt;Core_ComponentBase</title>
<path fill="none" stroke="black" stroke-dasharray="1,5" d="M722.033,-554.265C752.323,-554.964 802.648,-559.745 839.104,-581.654 861.057,-594.848 853.548,-612.822 875.104,-626.654 935.247,-665.249 976.243,-619.846 1031.09,-665.654 1083.53,-709.45 1106.22,-790.782 1114.9,-833.61"/>
<polygon fill="black" stroke="black" points="1111.5,-834.457 1116.81,-843.622 1118.37,-833.143 1111.5,-834.457"/>
</g>
<!-- Pager -->
<g id="node37" class="node"><title>Pager</title>
<polygon fill="none" stroke="black" points="721.797,-410.654 667.797,-410.654 667.797,-406.654 663.797,-406.654 663.797,-402.654 667.797,-402.654 667.797,-382.654 663.797,-382.654 663.797,-378.654 667.797,-378.654 667.797,-374.654 721.797,-374.654 721.797,-410.654"/>
<polyline fill="none" stroke="black" points="667.797,-406.654 671.797,-406.654 671.797,-402.654 667.797,-402.654 "/>
<polyline fill="none" stroke="black" points="667.797,-382.654 671.797,-382.654 671.797,-378.654 667.797,-378.654 "/>
<text text-anchor="middle" x="694.797" y="-388.954" font-family="Times,serif" font-size="14.00">Pager</text>
</g>
<!-- Pager&#45;&gt;Core_ComponentBase -->
<g id="edge62" class="edge"><title>Pager&#45;&gt;Core_ComponentBase</title>
<path fill="none" stroke="black" stroke-dasharray="1,5" d="M722.063,-390.655C753.313,-389.703 805.473,-392.796 839.104,-419.654 870.524,-444.746 844.828,-476.194 875.104,-502.654 929.342,-550.056 980.182,-495.693 1031.09,-546.654 1110.81,-626.458 1120.1,-771.991 1120.26,-833.263"/>
<polygon fill="black" stroke="black" points="1116.76,-833.337 1120.21,-843.356 1123.76,-833.376 1116.76,-833.337"/>
</g>
<!-- PagerInterface -->
<g id="node38" class="node"><title>PagerInterface</title>
<polygon fill="none" stroke="black" points="994.597,-410.654 905.597,-410.654 905.597,-374.654 1000.6,-374.654 1000.6,-404.654 994.597,-410.654"/>
<polyline fill="none" stroke="black" points="994.597,-410.654 994.597,-404.654 "/>
<polyline fill="none" stroke="black" points="1000.6,-404.654 994.597,-404.654 "/>
<text text-anchor="middle" x="953.097" y="-388.954" font-family="Times,serif" font-size="14.00">PagerInterface</text>
</g>
<!-- Pager&#45;&gt;PagerInterface -->
<g id="edge56" class="edge"><title>Pager&#45;&gt;PagerInterface</title>
<path fill="none" stroke="black" d="M722.26,-392.654C762.872,-392.654 841.513,-392.654 895.392,-392.654"/>
<polygon fill="black" stroke="black" points="895.484,-396.154 905.484,-392.654 895.484,-389.154 895.484,-396.154"/>
</g>
<!-- PluginForSwooleHttpd -->
<g id="node39" class="node"><title>PluginForSwooleHttpd</title>
<polygon fill="none" stroke="black" points="765.797,-518.654 623.797,-518.654 623.797,-514.654 619.797,-514.654 619.797,-510.654 623.797,-510.654 623.797,-490.654 619.797,-490.654 619.797,-486.654 623.797,-486.654 623.797,-482.654 765.797,-482.654 765.797,-518.654"/>
<polyline fill="none" stroke="black" points="623.797,-514.654 627.797,-514.654 627.797,-510.654 623.797,-510.654 "/>
<polyline fill="none" stroke="black" points="623.797,-490.654 627.797,-490.654 627.797,-486.654 623.797,-486.654 "/>
<text text-anchor="middle" x="694.797" y="-496.954" font-family="Times,serif" font-size="14.00">PluginForSwooleHttpd</text>
</g>
<!-- PluginForSwooleHttpd&#45;&gt;Core_ComponentBase -->
<g id="edge66" class="edge"><title>PluginForSwooleHttpd&#45;&gt;Core_ComponentBase</title>
<path fill="none" stroke="black" stroke-dasharray="1,5" d="M765.976,-502.19C790.858,-505.613 817.913,-512.897 839.104,-527.654 864.624,-545.426 850.118,-569.14 875.104,-587.654 932.522,-630.198 977.735,-579.115 1031.09,-626.654 1092.8,-681.638 1111.65,-784.07 1117.27,-833.516"/>
<polygon fill="black" stroke="black" points="1113.8,-833.919 1118.31,-843.504 1120.76,-833.196 1113.8,-833.919"/>
</g>
<!-- RedisManager -->
<g id="node40" class="node"><title>RedisManager</title>
<polygon fill="none" stroke="black" points="1001.1,-356.654 905.097,-356.654 905.097,-352.654 901.097,-352.654 901.097,-348.654 905.097,-348.654 905.097,-328.654 901.097,-328.654 901.097,-324.654 905.097,-324.654 905.097,-320.654 1001.1,-320.654 1001.1,-356.654"/>
<polyline fill="none" stroke="black" points="905.097,-352.654 909.097,-352.654 909.097,-348.654 905.097,-348.654 "/>
<polyline fill="none" stroke="black" points="905.097,-328.654 909.097,-328.654 909.097,-324.654 905.097,-324.654 "/>
<text text-anchor="middle" x="953.097" y="-334.954" font-family="Times,serif" font-size="14.00">RedisManager</text>
</g>
<!-- RedisManager&#45;&gt;Core_ComponentBase -->
<g id="edge65" class="edge"><title>RedisManager&#45;&gt;Core_ComponentBase</title>
<path fill="none" stroke="black" stroke-dasharray="1,5" d="M1001.22,-346.569C1012.44,-350.571 1023.38,-356.593 1031.09,-365.654 1092.09,-437.343 1113.08,-739.08 1118.21,-833.373"/>
<polygon fill="black" stroke="black" points="1114.73,-833.769 1118.75,-843.571 1121.72,-833.401 1114.73,-833.769"/>
</g>
<!-- RedisSimpleCache -->
<g id="node41" class="node"><title>RedisSimpleCache</title>
<polygon fill="none" stroke="black" points="754.797,-356.654 634.797,-356.654 634.797,-352.654 630.797,-352.654 630.797,-348.654 634.797,-348.654 634.797,-328.654 630.797,-328.654 630.797,-324.654 634.797,-324.654 634.797,-320.654 754.797,-320.654 754.797,-356.654"/>
<polyline fill="none" stroke="black" points="634.797,-352.654 638.797,-352.654 638.797,-348.654 634.797,-348.654 "/>
<polyline fill="none" stroke="black" points="634.797,-328.654 638.797,-328.654 638.797,-324.654 634.797,-324.654 "/>
<text text-anchor="middle" x="694.797" y="-334.954" font-family="Times,serif" font-size="14.00">RedisSimpleCache</text>
</g>
<!-- RedisSimpleCache&#45;&gt;Core_ComponentBase -->
<g id="edge64" class="edge"><title>RedisSimpleCache&#45;&gt;Core_ComponentBase</title>
<path fill="none" stroke="black" stroke-dasharray="1,5" d="M754.815,-339.434C782.344,-342.265 814.4,-349.309 839.104,-365.654 863.16,-381.57 853.724,-400.292 875.104,-419.654 933.314,-472.368 982.834,-440.7 1031.09,-502.654 1110.33,-604.384 1119.71,-767.509 1120.07,-833.039"/>
<polygon fill="black" stroke="black" points="1116.57,-833.397 1120.05,-843.402 1123.57,-833.407 1116.57,-833.397"/>
</g>
<!-- RedisSimpleCache&#45;&gt;RedisManager -->
<g id="edge57" class="edge"><title>RedisSimpleCache&#45;&gt;RedisManager</title>
<path fill="none" stroke="black" d="M754.919,-338.654C796.895,-338.654 852.955,-338.654 894.569,-338.654"/>
<polygon fill="black" stroke="black" points="894.82,-342.154 904.82,-338.654 894.82,-335.154 894.82,-342.154"/>
</g>
<!-- RouteHookDirectoryMode -->
<g id="node42" class="node"><title>RouteHookDirectoryMode</title>
<polygon fill="none" stroke="black" points="776.297,-464.654 613.297,-464.654 613.297,-460.654 609.297,-460.654 609.297,-456.654 613.297,-456.654 613.297,-436.654 609.297,-436.654 609.297,-432.654 613.297,-432.654 613.297,-428.654 776.297,-428.654 776.297,-464.654"/>
<polyline fill="none" stroke="black" points="613.297,-460.654 617.297,-460.654 617.297,-456.654 613.297,-456.654 "/>
<polyline fill="none" stroke="black" points="613.297,-436.654 617.297,-436.654 617.297,-432.654 613.297,-432.654 "/>
<text text-anchor="middle" x="694.797" y="-442.954" font-family="Times,serif" font-size="14.00">RouteHookDirectoryMode</text>
</g>
<!-- RouteHookDirectoryMode&#45;&gt;Core_ComponentBase -->
<g id="edge68" class="edge"><title>RouteHookDirectoryMode&#45;&gt;Core_ComponentBase</title>
<path fill="none" stroke="black" stroke-dasharray="1,5" d="M776.647,-448.803C798.626,-452.696 821.26,-460.105 839.104,-473.654 867.915,-495.531 847.086,-523.772 875.104,-546.654 930.624,-591.996 979.02,-538.39 1031.09,-587.654 1101.73,-654.486 1116.12,-777.964 1118.95,-833.408"/>
<polygon fill="black" stroke="black" points="1115.46,-833.709 1119.38,-843.553 1122.45,-833.415 1115.46,-833.709"/>
</g>
<!-- RouteHookOneFileMode -->
<g id="node43" class="node"><title>RouteHookOneFileMode</title>
<polygon fill="none" stroke="black" points="772.297,-734.654 617.297,-734.654 617.297,-730.654 613.297,-730.654 613.297,-726.654 617.297,-726.654 617.297,-706.654 613.297,-706.654 613.297,-702.654 617.297,-702.654 617.297,-698.654 772.297,-698.654 772.297,-734.654"/>
<polyline fill="none" stroke="black" points="617.297,-730.654 621.297,-730.654 621.297,-726.654 617.297,-726.654 "/>
<polyline fill="none" stroke="black" points="617.297,-706.654 621.297,-706.654 621.297,-702.654 617.297,-702.654 "/>
<text text-anchor="middle" x="694.797" y="-712.954" font-family="Times,serif" font-size="14.00">RouteHookOneFileMode</text>
</g>
<!-- RouteHookOneFileMode&#45;&gt;Core_ComponentBase -->
<g id="edge69" class="edge"><title>RouteHookOneFileMode&#45;&gt;Core_ComponentBase</title>
<path fill="none" stroke="black" stroke-dasharray="1,5" d="M772.38,-727.984C794.168,-732.04 817.769,-737.236 839.104,-743.654 924.708,-769.407 1019.69,-812.669 1074.25,-839.043"/>
<polygon fill="black" stroke="black" points="1072.78,-842.22 1083.31,-843.444 1075.84,-835.924 1072.78,-842.22"/>
</g>
<!-- RouteHookRewrite -->
<g id="node44" class="node"><title>RouteHookRewrite</title>
<polygon fill="none" stroke="black" points="755.797,-680.654 633.797,-680.654 633.797,-676.654 629.797,-676.654 629.797,-672.654 633.797,-672.654 633.797,-652.654 629.797,-652.654 629.797,-648.654 633.797,-648.654 633.797,-644.654 755.797,-644.654 755.797,-680.654"/>
<polyline fill="none" stroke="black" points="633.797,-676.654 637.797,-676.654 637.797,-672.654 633.797,-672.654 "/>
<polyline fill="none" stroke="black" points="633.797,-652.654 637.797,-652.654 637.797,-648.654 633.797,-648.654 "/>
<text text-anchor="middle" x="694.797" y="-658.954" font-family="Times,serif" font-size="14.00">RouteHookRewrite</text>
</g>
<!-- RouteHookRewrite&#45;&gt;Core_ComponentBase -->
<g id="edge70" class="edge"><title>RouteHookRewrite&#45;&gt;Core_ComponentBase</title>
<path fill="none" stroke="black" stroke-dasharray="1,5" d="M755.987,-671.451C781.829,-675.88 812.207,-681.962 839.104,-689.654 855.61,-694.375 858.906,-697.968 875.104,-703.654 943.669,-727.725 970.976,-711.828 1031.09,-752.654 1062.7,-774.121 1088.78,-810.165 1104.25,-834.887"/>
<polygon fill="black" stroke="black" points="1101.27,-836.718 1109.46,-843.435 1107.25,-833.075 1101.27,-836.718"/>
</g>
<!-- RouteHookRouteMap -->
<g id="node45" class="node"><title>RouteHookRouteMap</title>
<polygon fill="none" stroke="black" points="763.297,-626.654 626.297,-626.654 626.297,-622.654 622.297,-622.654 622.297,-618.654 626.297,-618.654 626.297,-598.654 622.297,-598.654 622.297,-594.654 626.297,-594.654 626.297,-590.654 763.297,-590.654 763.297,-626.654"/>
<polyline fill="none" stroke="black" points="626.297,-622.654 630.297,-622.654 630.297,-618.654 626.297,-618.654 "/>
<polyline fill="none" stroke="black" points="626.297,-598.654 630.297,-598.654 630.297,-594.654 626.297,-594.654 "/>
<text text-anchor="middle" x="694.797" y="-604.954" font-family="Times,serif" font-size="14.00">RouteHookRouteMap</text>
</g>
<!-- RouteHookRouteMap&#45;&gt;Core_ComponentBase -->
<g id="edge71" class="edge"><title>RouteHookRouteMap&#45;&gt;Core_ComponentBase</title>
<path fill="none" stroke="black" stroke-dasharray="1,5" d="M763.623,-614.257C788.25,-618.121 815.745,-624.644 839.104,-635.654 857.944,-644.534 856.506,-656.28 875.104,-665.654 938.823,-697.769 974.268,-660.495 1031.09,-703.654 1074.73,-736.8 1099.97,-798.051 1111.64,-833.773"/>
<polygon fill="black" stroke="black" points="1108.37,-835.057 1114.7,-843.554 1115.05,-832.965 1108.37,-835.057"/>
</g>
<!-- StrictCheck -->
<g id="node46" class="node"><title>StrictCheck</title>
<polygon fill="none" stroke="black" points="993.097,-248.654 913.097,-248.654 913.097,-244.654 909.097,-244.654 909.097,-240.654 913.097,-240.654 913.097,-220.654 909.097,-220.654 909.097,-216.654 913.097,-216.654 913.097,-212.654 993.097,-212.654 993.097,-248.654"/>
<polyline fill="none" stroke="black" points="913.097,-244.654 917.097,-244.654 917.097,-240.654 913.097,-240.654 "/>
<polyline fill="none" stroke="black" points="913.097,-220.654 917.097,-220.654 917.097,-216.654 913.097,-216.654 "/>
<text text-anchor="middle" x="953.097" y="-226.954" font-family="Times,serif" font-size="14.00">StrictCheck</text>
</g>
<!-- StrictCheck&#45;&gt;Core_ComponentBase -->
<g id="edge67" class="edge"><title>StrictCheck&#45;&gt;Core_ComponentBase</title>
<path fill="none" stroke="black" stroke-dasharray="1,5" d="M993.383,-235.885C1007.25,-239.701 1021.72,-246.288 1031.09,-257.654 1104.99,-347.284 1117.22,-726.325 1119.21,-833.386"/>
<polygon fill="black" stroke="black" points="1115.71,-833.493 1119.38,-843.432 1122.71,-833.374 1115.71,-833.493"/>
</g>
<!-- StrictModelTrait -->
<g id="node47" class="node"><title>StrictModelTrait</title>
<polygon fill="none" stroke="black" points="694.797,-194.654 595.758,-176.654 694.797,-158.654 793.835,-176.654 694.797,-194.654"/>
<text text-anchor="middle" x="694.797" y="-172.954" font-family="Times,serif" font-size="14.00">StrictModelTrait</text>
</g>
<!-- StrictModelTrait&#45;&gt;StrictCheck -->
<g id="edge58" class="edge"><title>StrictModelTrait&#45;&gt;StrictCheck</title>
<path fill="none" stroke="black" d="M745.656,-185.437C773.263,-190.453 808.155,-197.045 839.104,-203.654 860.196,-208.158 883.383,-213.611 903.234,-218.433"/>
<polygon fill="black" stroke="black" points="902.439,-221.842 912.984,-220.816 904.1,-215.042 902.439,-221.842"/>
</g>
<!-- StrictServiceTrait -->
<g id="node48" class="node"><title>StrictServiceTrait</title>
<polygon fill="none" stroke="black" points="694.797,-248.654 591.067,-230.654 694.797,-212.654 798.526,-230.654 694.797,-248.654"/>
<text text-anchor="middle" x="694.797" y="-226.954" font-family="Times,serif" font-size="14.00">StrictServiceTrait</text>
</g>
<!-- StrictServiceTrait&#45;&gt;StrictCheck -->
<g id="edge59" class="edge"><title>StrictServiceTrait&#45;&gt;StrictCheck</title>
<path fill="none" stroke="black" d="M798.567,-230.654C834.57,-230.654 873.358,-230.654 902.939,-230.654"/>
<polygon fill="black" stroke="black" points="902.999,-234.154 912.999,-230.654 902.999,-227.154 902.999,-234.154"/>
</g>
<!-- HttpServer -->
<g id="node49" class="node"><title>HttpServer</title>
<polygon fill="lightgrey" stroke="black" points="328.666,-855.654 258.954,-837.654 328.666,-819.654 398.379,-837.654 328.666,-855.654"/>
<polyline fill="none" stroke="black" points="270.573,-840.654 270.573,-834.654 "/>
<polyline fill="none" stroke="black" points="317.047,-822.654 340.285,-822.654 "/>
<polyline fill="none" stroke="black" points="386.76,-834.654 386.76,-840.654 "/>
<polyline fill="none" stroke="black" points="340.285,-852.654 317.047,-852.654 "/>
<text text-anchor="middle" x="328.666" y="-833.954" font-family="Times,serif" font-size="14.00">HttpServer</text>
</g>
<!-- HttpServer&#45;&gt;Core_HttpServer -->
<g id="edge73" class="edge"><title>HttpServer&#45;&gt;Core_HttpServer</title>
<path fill="none" stroke="black" d="M389.63,-839.966C513.008,-844.724 793.059,-855.522 904.785,-859.83"/>
<polygon fill="black" stroke="black" points="904.933,-863.338 915.061,-860.226 905.203,-856.343 904.933,-863.338"/>
</g>
<!-- App -->
<g id="node50" class="node"><title>App</title>
<polygon fill="lightgrey" stroke="black" points="328.666,-801.654 292.132,-783.654 328.666,-765.654 365.2,-783.654 328.666,-801.654"/>
<polyline fill="none" stroke="black" points="302.897,-788.958 302.897,-778.351 "/>
<polyline fill="none" stroke="black" points="317.902,-770.958 339.431,-770.958 "/>
<polyline fill="none" stroke="black" points="354.436,-778.351 354.436,-788.958 "/>
<polyline fill="none" stroke="black" points="339.431,-796.351 317.902,-796.351 "/>
<text text-anchor="middle" x="328.666" y="-779.954" font-family="Times,serif" font-size="14.00">App</text>
</g>
<!-- App&#45;&gt;Core_App -->
<g id="edge74" class="edge"><title>App&#45;&gt;Core_App</title>
<path fill="none" stroke="black" d="M360.299,-786.111C378.109,-789.155 399.607,-795.879 412.956,-810.654 448.843,-850.374 467.988,-1014.24 474.317,-1079.58"/>
<polygon fill="black" stroke="black" points="470.832,-1079.91 475.255,-1089.54 477.801,-1079.25 470.832,-1079.91"/>
</g>
<!-- App&#45;&gt;DBManager -->
<g id="edge79" class="edge"><title>App&#45;&gt;DBManager</title>
<path fill="none" stroke="black" d="M331.92,-767.122C346.04,-666.228 425.777,-134.657 550.489,-41.6542 655.056,36.3253 820.651,-13.7673 902.684,-46.6232"/>
<polygon fill="black" stroke="black" points="901.683,-49.9949 912.264,-50.5348 904.329,-43.5143 901.683,-49.9949"/>
</g>
<!-- App&#45;&gt;Pager -->
<g id="edge78" class="edge"><title>App&#45;&gt;Pager</title>
<path fill="none" stroke="black" d="M334.063,-768.04C351.036,-710.853 418.036,-511.414 550.489,-419.654 581.951,-397.858 626.229,-392.389 657.216,-391.565"/>
<polygon fill="black" stroke="black" points="657.619,-395.06 667.579,-391.448 657.54,-388.061 657.619,-395.06"/>
</g>
<!-- App&#45;&gt;RouteHookRouteMap -->
<g id="edge77" class="edge"><title>App&#45;&gt;RouteHookRouteMap</title>
<path fill="none" stroke="black" d="M342.512,-772.228C374.864,-744.118 463.351,-671.304 550.489,-635.654 571.114,-627.216 594.498,-621.389 616.304,-617.374"/>
<polygon fill="black" stroke="black" points="616.945,-620.816 626.197,-615.654 615.746,-613.919 616.945,-620.816"/>
</g>
<!-- SingletonEx -->
<g id="node51" class="node"><title>SingletonEx</title>
<polygon fill="lightgrey" stroke="black" points="328.666,-963.654 252.586,-945.654 328.666,-927.654 404.747,-945.654 328.666,-963.654"/>
<polyline fill="none" stroke="black" points="264.263,-948.417 264.263,-942.891 "/>
<polyline fill="none" stroke="black" points="316.989,-930.417 340.344,-930.417 "/>
<polyline fill="none" stroke="black" points="393.069,-942.891 393.069,-948.417 "/>
<polyline fill="none" stroke="black" points="340.344,-960.891 316.989,-960.891 "/>
<text text-anchor="middle" x="328.666" y="-941.954" font-family="Times,serif" font-size="14.00">SingletonEx</text>
</g>
<!-- SingletonEx&#45;&gt;Core_SingletonEx -->
<g id="edge75" class="edge"><title>SingletonEx&#45;&gt;Core_SingletonEx</title>
<path fill="none" stroke="black" d="M358.641,-956.595C377.22,-965.163 400.175,-978.957 412.956,-998.654 445.972,-1049.54 413.202,-1076.31 432.956,-1133.65 467.413,-1233.68 462.762,-1281.52 550.489,-1340.65 603.765,-1376.57 629.547,-1359.65 693.797,-1359.65 693.797,-1359.65 693.797,-1359.65 954.097,-1359.65 1109.31,-1359.65 1246.16,-1199.73 1293.01,-1138.3"/>
<polygon fill="black" stroke="black" points="1296.05,-1140.08 1299.26,-1129.98 1290.45,-1135.87 1296.05,-1140.08"/>
</g>
<!-- ThrowOn -->
<g id="node52" class="node"><title>ThrowOn</title>
<polygon fill="lightgrey" stroke="black" points="328.666,-909.654 265.323,-891.654 328.666,-873.654 392.01,-891.654 328.666,-909.654"/>
<polyline fill="none" stroke="black" points="276.866,-894.934 276.866,-888.374 "/>
<polyline fill="none" stroke="black" points="317.123,-876.934 340.209,-876.934 "/>
<polyline fill="none" stroke="black" points="380.467,-888.374 380.467,-894.934 "/>
<polyline fill="none" stroke="black" points="340.209,-906.374 317.123,-906.374 "/>
<text text-anchor="middle" x="328.666" y="-887.954" font-family="Times,serif" font-size="14.00">ThrowOn</text>
</g>
<!-- ThrowOn&#45;&gt;Core_ThrowOn -->
<g id="edge76" class="edge"><title>ThrowOn&#45;&gt;Core_ThrowOn</title>
<path fill="none" stroke="black" d="M359.409,-901.093C375.326,-906.196 395.245,-912.663 412.956,-918.654 500.781,-948.364 603.38,-985.033 656.953,-1004.33"/>
<polygon fill="black" stroke="black" points="655.777,-1007.63 666.371,-1007.73 658.151,-1001.04 655.777,-1007.63"/>
</g>
</g>
</svg>
