<?xml version="1.0" encoding="UTF-8" standalone="no"?>
<!DOCTYPE svg PUBLIC "-//W3C//DTD SVG 1.1//EN"
 "http://www.w3.org/Graphics/SVG/1.1/DTD/svg11.dtd">
<!-- Generated by graphviz version 2.38.0 (20140413.2041)
 -->
<!-- Title: G Pages: 1 -->
<svg width="1431pt" height="1376pt"
 viewBox="0.00 0.00 1430.79 1376.16" xmlns="http://www.w3.org/2000/svg" xmlns:xlink="http://www.w3.org/1999/xlink">
<g id="graph0" class="graph" transform="scale(1 1) rotate(0) translate(4 1372.16)">
<title>G</title>
<polygon fill="white" stroke="none" points="-4,4 -4,-1372.16 1426.79,-1372.16 1426.79,4 -4,4"/>
<g id="clust1" class="cluster"><title>cluster_Core</title>
<polygon fill="none" stroke="black" points="427.441,-833.165 427.441,-1360.16 1389.97,-1360.16 1389.97,-833.165 427.441,-833.165"/>
<text text-anchor="middle" x="908.707" y="-1344.96" font-family="Times,serif" font-size="14.00">[DuckPhp\Core]</text>
</g>
<g id="clust2" class="cluster"><title>cluster_Helper</title>
<polygon fill="none" stroke="black" points="8,-1010.16 8,-1301.16 407.441,-1301.16 407.441,-1010.16 8,-1010.16"/>
<text text-anchor="middle" x="207.721" y="-1285.96" font-family="Times,serif" font-size="14.00">[DuckPhp\Helper]</text>
</g>
<g id="clust3" class="cluster"><title>cluster_DB</title>
<polygon fill="none" stroke="black" points="1080.08,-13.1647 1080.08,-142.165 1414.79,-142.165 1414.79,-13.1647 1080.08,-13.1647"/>
<text text-anchor="middle" x="1247.43" y="-126.965" font-family="Times,serif" font-size="14.00">[DuckPhp\DB]</text>
</g>
<g id="clust4" class="cluster"><title>cluster_Ext</title>
<polygon fill="none" stroke="black" points="577.417,-40.1647 577.417,-817.165 1018.08,-817.165 1018.08,-40.1647 577.417,-40.1647"/>
<text text-anchor="middle" x="797.75" y="-801.965" font-family="Times,serif" font-size="14.00">[DuckPhp\Ext]</text>
</g>
<g id="clust5" class="cluster"><title>cluster_DuckPhp</title>
<polygon fill="none" stroke="black" points="248.053,-580.165 248.053,-709.165 403.765,-709.165 403.765,-580.165 248.053,-580.165"/>
<text text-anchor="middle" x="325.909" y="-693.965" font-family="Times,serif" font-size="14.00">[DuckPhp]</text>
</g>
<!-- Core_AppPluginTrait -->
<g id="node1" class="node"><title>Core_AppPluginTrait</title>
<polygon fill="none" stroke="black" points="689.282,-939.165 596.612,-921.165 689.282,-903.165 781.952,-921.165 689.282,-939.165"/>
<polyline fill="none" stroke="black" points="608.391,-923.453 608.391,-918.877 "/>
<polyline fill="none" stroke="black" points="677.502,-905.453 701.062,-905.453 "/>
<polyline fill="none" stroke="black" points="770.172,-918.877 770.172,-923.453 "/>
<polyline fill="none" stroke="black" points="701.062,-936.877 677.502,-936.877 "/>
<text text-anchor="middle" x="689.282" y="-917.465" font-family="Times,serif" font-size="14.00">AppPluginTrait</text>
</g>
<!-- Core_View -->
<g id="node7" class="node"><title>Core_View</title>
<polygon fill="none" stroke="black" points="974.582,-1039.16 920.582,-1039.16 920.582,-1035.16 916.582,-1035.16 916.582,-1031.16 920.582,-1031.16 920.582,-1011.16 916.582,-1011.16 916.582,-1007.16 920.582,-1007.16 920.582,-1003.16 974.582,-1003.16 974.582,-1039.16"/>
<polyline fill="none" stroke="black" points="920.582,-1035.16 924.582,-1035.16 924.582,-1031.16 920.582,-1031.16 "/>
<polyline fill="none" stroke="black" points="920.582,-1011.16 924.582,-1011.16 924.582,-1007.16 920.582,-1007.16 "/>
<text text-anchor="middle" x="947.582" y="-1017.46" font-family="Times,serif" font-size="14.00">View</text>
</g>
<!-- Core_AppPluginTrait&#45;&gt;Core_View -->
<g id="edge23" class="edge"><title>Core_AppPluginTrait&#45;&gt;Core_View</title>
<path fill="none" stroke="black" d="M754.127,-926.688C780.156,-931.095 809.685,-938.999 833.589,-953.165 854.451,-965.527 849.49,-980.597 869.589,-994.165 881.845,-1002.44 896.908,-1008.45 910.451,-1012.68"/>
<polygon fill="black" stroke="black" points="909.861,-1016.15 920.44,-1015.56 911.806,-1009.42 909.861,-1016.15"/>
</g>
<!-- Core_Configer -->
<g id="node8" class="node"><title>Core_Configer</title>
<polygon fill="none" stroke="black" points="980.082,-931.165 915.082,-931.165 915.082,-927.165 911.082,-927.165 911.082,-923.165 915.082,-923.165 915.082,-903.165 911.082,-903.165 911.082,-899.165 915.082,-899.165 915.082,-895.165 980.082,-895.165 980.082,-931.165"/>
<polyline fill="none" stroke="black" points="915.082,-927.165 919.082,-927.165 919.082,-923.165 915.082,-923.165 "/>
<polyline fill="none" stroke="black" points="915.082,-903.165 919.082,-903.165 919.082,-899.165 915.082,-899.165 "/>
<text text-anchor="middle" x="947.582" y="-909.465" font-family="Times,serif" font-size="14.00">Configer</text>
</g>
<!-- Core_AppPluginTrait&#45;&gt;Core_Configer -->
<g id="edge22" class="edge"><title>Core_AppPluginTrait&#45;&gt;Core_Configer</title>
<path fill="none" stroke="black" d="M769.272,-918.699C813.984,-917.303 868.108,-915.614 904.705,-914.472"/>
<polygon fill="black" stroke="black" points="905.119,-917.961 915.004,-914.15 904.9,-910.964 905.119,-917.961"/>
</g>
<!-- Core_Route -->
<g id="node10" class="node"><title>Core_Route</title>
<polygon fill="none" stroke="black" points="947.582,-1093.16 902.505,-1075.16 947.582,-1057.16 992.66,-1075.16 947.582,-1093.16"/>
<polyline fill="none" stroke="black" points="913.649,-1079.61 913.649,-1070.71 "/>
<polyline fill="none" stroke="black" points="936.438,-1061.61 958.727,-1061.61 "/>
<polyline fill="none" stroke="black" points="981.516,-1070.71 981.516,-1079.61 "/>
<polyline fill="none" stroke="black" points="958.727,-1088.71 936.438,-1088.71 "/>
<text text-anchor="middle" x="947.582" y="-1071.46" font-family="Times,serif" font-size="14.00">Route</text>
</g>
<!-- Core_AppPluginTrait&#45;&gt;Core_Route -->
<g id="edge24" class="edge"><title>Core_AppPluginTrait&#45;&gt;Core_Route</title>
<path fill="none" stroke="black" d="M766.574,-924.256C790.32,-928.629 815.096,-937.136 833.589,-953.165 867.709,-982.738 837.266,-1016.64 869.589,-1048.16 879.111,-1057.45 892.006,-1063.56 904.519,-1067.57"/>
<polygon fill="black" stroke="black" points="903.825,-1071.01 914.4,-1070.36 905.726,-1064.27 903.825,-1071.01"/>
</g>
<!-- Core_SuperGlobal -->
<g id="node14" class="node"><title>Core_SuperGlobal</title>
<polygon fill="none" stroke="black" points="990.082,-985.165 905.082,-985.165 905.082,-981.165 901.082,-981.165 901.082,-977.165 905.082,-977.165 905.082,-957.165 901.082,-957.165 901.082,-953.165 905.082,-953.165 905.082,-949.165 990.082,-949.165 990.082,-985.165"/>
<polyline fill="none" stroke="black" points="905.082,-981.165 909.082,-981.165 909.082,-977.165 905.082,-977.165 "/>
<polyline fill="none" stroke="black" points="905.082,-957.165 909.082,-957.165 909.082,-953.165 905.082,-953.165 "/>
<text text-anchor="middle" x="947.582" y="-963.465" font-family="Times,serif" font-size="14.00">SuperGlobal</text>
</g>
<!-- Core_AppPluginTrait&#45;&gt;Core_SuperGlobal -->
<g id="edge25" class="edge"><title>Core_AppPluginTrait&#45;&gt;Core_SuperGlobal</title>
<path fill="none" stroke="black" d="M738.189,-929.763C782.775,-937.765 849.045,-949.659 894.828,-957.876"/>
<polygon fill="black" stroke="black" points="894.385,-961.352 904.846,-959.674 895.621,-954.462 894.385,-961.352"/>
</g>
<!-- Core_App -->
<g id="node2" class="node"><title>Core_App</title>
<polygon fill="none" stroke="black" points="472.208,-1135.16 435.674,-1117.16 472.208,-1099.16 508.742,-1117.16 472.208,-1135.16"/>
<polyline fill="none" stroke="black" points="446.438,-1122.47 446.438,-1111.86 "/>
<polyline fill="none" stroke="black" points="461.443,-1104.47 482.972,-1104.47 "/>
<polyline fill="none" stroke="black" points="497.977,-1111.86 497.977,-1122.47 "/>
<polyline fill="none" stroke="black" points="482.972,-1129.86 461.443,-1129.86 "/>
<text text-anchor="middle" x="472.208" y="-1113.46" font-family="Times,serif" font-size="14.00">App</text>
</g>
<!-- Core_Kernel -->
<g id="node3" class="node"><title>Core_Kernel</title>
<polygon fill="none" stroke="black" points="689.282,-1087.16 640.35,-1069.16 689.282,-1051.16 738.213,-1069.16 689.282,-1087.16"/>
<text text-anchor="middle" x="689.282" y="-1065.46" font-family="Times,serif" font-size="14.00">Kernel</text>
</g>
<!-- Core_App&#45;&gt;Core_Kernel -->
<g id="edge9" class="edge"><title>Core_App&#45;&gt;Core_Kernel</title>
<path fill="none" stroke="black" d="M497.879,-1111.66C534.731,-1103.43 604.523,-1087.86 648.601,-1078.02"/>
<polygon fill="black" stroke="black" points="649.407,-1081.43 658.405,-1075.83 647.883,-1074.59 649.407,-1081.43"/>
</g>
<!-- Core_AutoLoader -->
<g id="node5" class="node"><title>Core_AutoLoader</title>
<ellipse fill="none" stroke="black" cx="947.582" cy="-1257.16" rx="53.0913" ry="18"/>
<text text-anchor="middle" x="947.582" y="-1253.46" font-family="Times,serif" font-size="14.00">AutoLoader</text>
</g>
<!-- Core_App&#45;&gt;Core_AutoLoader -->
<g id="edge13" class="edge"><title>Core_App&#45;&gt;Core_AutoLoader</title>
<path fill="none" stroke="black" stroke-dasharray="1,5" d="M482.336,-1130.47C494.492,-1146.97 517.666,-1174.48 544.974,-1187.16 661.857,-1241.45 708.586,-1183.81 833.589,-1215.16 850.402,-1219.38 853.404,-1223.96 869.589,-1230.16 879.212,-1233.85 889.583,-1237.63 899.5,-1241.14"/>
<polygon fill="black" stroke="black" points="898.627,-1244.54 909.222,-1244.55 900.945,-1237.93 898.627,-1244.54"/>
</g>
<!-- Core_ExceptionManager -->
<g id="node6" class="node"><title>Core_ExceptionManager</title>
<ellipse fill="none" stroke="black" cx="947.582" cy="-1311.16" rx="77.9862" ry="18"/>
<text text-anchor="middle" x="947.582" y="-1307.46" font-family="Times,serif" font-size="14.00">ExceptionManager</text>
</g>
<!-- Core_App&#45;&gt;Core_ExceptionManager -->
<g id="edge16" class="edge"><title>Core_App&#45;&gt;Core_ExceptionManager</title>
<path fill="none" stroke="black" stroke-dasharray="1,5" d="M480.082,-1131.61C490.752,-1152.23 513.409,-1189.43 544.974,-1206.16 658.691,-1266.47 722.72,-1164.77 833.589,-1230.16 858.434,-1244.82 846.803,-1266.48 869.589,-1284.16 874.249,-1287.78 879.43,-1290.94 884.839,-1293.68"/>
<polygon fill="black" stroke="black" points="883.557,-1296.95 894.106,-1297.93 886.474,-1290.58 883.557,-1296.95"/>
</g>
<!-- Core_App&#45;&gt;Core_View -->
<g id="edge19" class="edge"><title>Core_App&#45;&gt;Core_View</title>
<path fill="none" stroke="black" stroke-dasharray="1,5" d="M484.526,-1129.23C497.627,-1142.23 520.552,-1162.12 544.974,-1170.16 605.894,-1190.22 782.22,-1208.57 833.589,-1170.16 878.87,-1136.32 830.633,-1089.13 869.589,-1048.16 880.271,-1036.93 895.891,-1030.37 910.274,-1026.53"/>
<polygon fill="black" stroke="black" points="911.479,-1029.85 920.441,-1024.2 909.911,-1023.03 911.479,-1029.85"/>
</g>
<!-- Core_App&#45;&gt;Core_Configer -->
<g id="edge14" class="edge"><title>Core_App&#45;&gt;Core_Configer</title>
<path fill="none" stroke="black" stroke-dasharray="1,5" d="M475.422,-1100.59C482.588,-1049.77 506.905,-897.779 544.974,-869.165 570.608,-849.897 802.298,-862.148 833.589,-869.165 850.855,-873.036 853.219,-879.45 869.589,-886.165 881.057,-890.868 893.68,-895.51 905.329,-899.584"/>
<polygon fill="black" stroke="black" points="904.243,-902.912 914.838,-902.861 906.524,-896.294 904.243,-902.912"/>
</g>
<!-- Core_Logger -->
<g id="node9" class="node"><title>Core_Logger</title>
<polygon fill="none" stroke="black" points="975.582,-1221.16 919.582,-1221.16 919.582,-1217.16 915.582,-1217.16 915.582,-1213.16 919.582,-1213.16 919.582,-1193.16 915.582,-1193.16 915.582,-1189.16 919.582,-1189.16 919.582,-1185.16 975.582,-1185.16 975.582,-1221.16"/>
<polyline fill="none" stroke="black" points="919.582,-1217.16 923.582,-1217.16 923.582,-1213.16 919.582,-1213.16 "/>
<polyline fill="none" stroke="black" points="919.582,-1193.16 923.582,-1193.16 923.582,-1189.16 919.582,-1189.16 "/>
<text text-anchor="middle" x="947.582" y="-1199.46" font-family="Times,serif" font-size="14.00">Logger</text>
</g>
<!-- Core_App&#45;&gt;Core_Logger -->
<g id="edge15" class="edge"><title>Core_App&#45;&gt;Core_Logger</title>
<path fill="none" stroke="black" stroke-dasharray="1,5" d="M501.773,-1113.65C576.641,-1104.98 776.694,-1085.41 833.589,-1116.16 859.289,-1130.06 847.105,-1152.51 869.589,-1171.16 881.243,-1180.83 896.229,-1187.94 909.878,-1192.97"/>
<polygon fill="black" stroke="black" points="908.919,-1196.34 919.513,-1196.27 911.187,-1189.72 908.919,-1196.34"/>
</g>
<!-- Core_App&#45;&gt;Core_Route -->
<g id="edge17" class="edge"><title>Core_App&#45;&gt;Core_Route</title>
<path fill="none" stroke="black" stroke-dasharray="1,5" d="M481.307,-1103.42C492.823,-1085.4 515.806,-1054.62 544.974,-1042.16 603.955,-1016.97 770.099,-1033.08 833.589,-1042.16 861.484,-1046.15 892.109,-1055.42 914.431,-1063.12"/>
<polygon fill="black" stroke="black" points="913.468,-1066.49 924.063,-1066.52 915.8,-1059.89 913.468,-1066.49"/>
</g>
<!-- Core_RuntimeState -->
<g id="node11" class="node"><title>Core_RuntimeState</title>
<polygon fill="none" stroke="black" points="993.082,-1147.16 902.082,-1147.16 902.082,-1143.16 898.082,-1143.16 898.082,-1139.16 902.082,-1139.16 902.082,-1119.16 898.082,-1119.16 898.082,-1115.16 902.082,-1115.16 902.082,-1111.16 993.082,-1111.16 993.082,-1147.16"/>
<polyline fill="none" stroke="black" points="902.082,-1143.16 906.082,-1143.16 906.082,-1139.16 902.082,-1139.16 "/>
<polyline fill="none" stroke="black" points="902.082,-1119.16 906.082,-1119.16 906.082,-1115.16 902.082,-1115.16 "/>
<text text-anchor="middle" x="947.582" y="-1125.46" font-family="Times,serif" font-size="14.00">RuntimeState</text>
</g>
<!-- Core_App&#45;&gt;Core_RuntimeState -->
<g id="edge18" class="edge"><title>Core_App&#45;&gt;Core_RuntimeState</title>
<path fill="none" stroke="black" stroke-dasharray="1,5" d="M475.498,-1100.39C480.915,-1068.09 497.809,-997.798 544.974,-968.165 572.128,-951.104 808.141,-948.651 833.589,-968.165 882.526,-1005.69 827.645,-1056.96 869.589,-1102.16 875.886,-1108.95 883.987,-1114.03 892.559,-1117.84"/>
<polygon fill="black" stroke="black" points="891.394,-1121.14 901.983,-1121.48 893.92,-1114.61 891.394,-1121.14"/>
</g>
<!-- Core_SystemWrapperTrait -->
<g id="node12" class="node"><title>Core_SystemWrapperTrait</title>
<polygon fill="none" stroke="black" points="689.282,-1013.16 568.962,-995.165 689.282,-977.165 809.601,-995.165 689.282,-1013.16"/>
<text text-anchor="middle" x="689.282" y="-991.465" font-family="Times,serif" font-size="14.00">SystemWrapperTrait</text>
</g>
<!-- Core_App&#45;&gt;Core_SystemWrapperTrait -->
<g id="edge12" class="edge"><title>Core_App&#45;&gt;Core_SystemWrapperTrait</title>
<path fill="none" stroke="black" d="M480.362,-1103.12C491.383,-1082.98 514.471,-1046.23 544.974,-1027.16 562.622,-1016.13 583.589,-1008.88 603.962,-1004.12"/>
<polygon fill="black" stroke="black" points="604.861,-1007.51 613.899,-1001.98 603.386,-1000.67 604.861,-1007.51"/>
</g>
<!-- Core_App&#45;&gt;Core_SuperGlobal -->
<g id="edge20" class="edge"><title>Core_App&#45;&gt;Core_SuperGlobal</title>
<path fill="none" stroke="black" stroke-dasharray="1,5" d="M472.588,-1099.35C472.161,-1055.62 477.92,-943.026 544.974,-894.165 596.809,-856.393 775.932,-866.073 833.589,-894.165 856.928,-905.536 848.491,-925.038 869.589,-940.165 877.364,-945.739 886.396,-950.251 895.48,-953.874"/>
<polygon fill="black" stroke="black" points="894.321,-957.177 904.915,-957.335 896.731,-950.605 894.321,-957.177"/>
</g>
<!-- Core_ExtendableStaticCallTrait -->
<g id="node15" class="node"><title>Core_ExtendableStaticCallTrait</title>
<polygon fill="none" stroke="black" points="689.282,-1329.16 545.166,-1311.16 689.282,-1293.16 833.397,-1311.16 689.282,-1329.16"/>
<text text-anchor="middle" x="689.282" y="-1307.46" font-family="Times,serif" font-size="14.00">ExtendableStaticCallTrait</text>
</g>
<!-- Core_App&#45;&gt;Core_ExtendableStaticCallTrait -->
<g id="edge11" class="edge"><title>Core_App&#45;&gt;Core_ExtendableStaticCallTrait</title>
<path fill="none" stroke="black" d="M475.194,-1133.75C480.198,-1167.75 496.585,-1245.39 544.974,-1284.16 555.129,-1292.3 566.982,-1298.26 579.444,-1302.59"/>
<polygon fill="black" stroke="black" points="578.485,-1305.95 589.073,-1305.59 580.567,-1299.27 578.485,-1305.95"/>
</g>
<!-- Core_ThrowOn -->
<g id="node16" class="node"><title>Core_ThrowOn</title>
<polygon fill="none" stroke="black" points="689.282,-1275.16 625.938,-1257.16 689.282,-1239.16 752.626,-1257.16 689.282,-1275.16"/>
<polyline fill="none" stroke="black" points="637.481,-1260.44 637.481,-1253.88 "/>
<polyline fill="none" stroke="black" points="677.739,-1242.44 700.825,-1242.44 "/>
<polyline fill="none" stroke="black" points="741.083,-1253.88 741.083,-1260.44 "/>
<polyline fill="none" stroke="black" points="700.825,-1271.88 677.739,-1271.88 "/>
<text text-anchor="middle" x="689.282" y="-1253.46" font-family="Times,serif" font-size="14.00">ThrowOn</text>
</g>
<!-- Core_App&#45;&gt;Core_ThrowOn -->
<g id="edge10" class="edge"><title>Core_App&#45;&gt;Core_ThrowOn</title>
<path fill="none" stroke="black" d="M478.785,-1132.04C488.455,-1155.68 510.648,-1201.58 544.974,-1225.16 568.17,-1241.1 598.01,-1249.24 624.45,-1253.35"/>
<polygon fill="black" stroke="black" points="624.009,-1256.82 634.396,-1254.74 624.974,-1249.89 624.009,-1256.82"/>
</g>
<!-- Core_Functions -->
<g id="node19" class="node"><title>Core_Functions</title>
<ellipse fill="none" stroke="black" cx="689.282" cy="-1143.16" rx="45.4919" ry="18"/>
<text text-anchor="middle" x="689.282" y="-1139.46" font-family="Times,serif" font-size="14.00">Functions</text>
</g>
<!-- Core_App&#45;&gt;Core_Functions -->
<g id="edge21" class="edge"><title>Core_App&#45;&gt;Core_Functions</title>
<path fill="none" stroke="black" stroke-dasharray="1,5" d="M501.768,-1120.62C535.759,-1124.73 593.212,-1131.67 635.391,-1136.77"/>
<polygon fill="black" stroke="black" points="635.143,-1140.27 645.491,-1137.99 635.983,-1133.32 635.143,-1140.27"/>
</g>
<!-- Core_SingletonEx -->
<g id="node4" class="node"><title>Core_SingletonEx</title>
<polygon fill="none" stroke="black" points="1305.68,-1057.16 1229.6,-1039.16 1305.68,-1021.16 1381.76,-1039.16 1305.68,-1057.16"/>
<polyline fill="none" stroke="black" points="1241.28,-1041.93 1241.28,-1036.4 "/>
<polyline fill="none" stroke="black" points="1294.01,-1023.93 1317.36,-1023.93 "/>
<polyline fill="none" stroke="black" points="1370.09,-1036.4 1370.09,-1041.93 "/>
<polyline fill="none" stroke="black" points="1317.36,-1054.4 1294.01,-1054.4 "/>
<text text-anchor="middle" x="1305.68" y="-1035.46" font-family="Times,serif" font-size="14.00">SingletonEx</text>
</g>
<!-- Core_Kernel&#45;&gt;Core_SingletonEx -->
<g id="edge35" class="edge"><title>Core_Kernel&#45;&gt;Core_SingletonEx</title>
<path fill="none" stroke="black" d="M736.27,-1068.41C766.37,-1070.05 805.23,-1076.42 833.589,-1096.16 859.109,-1113.94 842.528,-1140.84 869.589,-1156.16 929.918,-1190.32 957.609,-1169.83 1025.58,-1156.16 1120.66,-1137.04 1223.75,-1084.66 1273.85,-1056.93"/>
<polygon fill="black" stroke="black" points="1275.84,-1059.82 1282.86,-1051.89 1272.43,-1053.71 1275.84,-1059.82"/>
</g>
<!-- Core_Kernel&#45;&gt;Core_AutoLoader -->
<g id="edge1" class="edge"><title>Core_Kernel&#45;&gt;Core_AutoLoader</title>
<path fill="none" stroke="black" d="M729.76,-1072.35C761.813,-1076.98 806.063,-1088.33 833.589,-1116.16 870.952,-1153.94 832.613,-1192.01 869.589,-1230.16 875.541,-1236.31 882.968,-1241.05 890.843,-1244.72"/>
<polygon fill="black" stroke="black" points="889.65,-1248.01 900.232,-1248.55 892.294,-1241.53 889.65,-1248.01"/>
</g>
<!-- Core_Kernel&#45;&gt;Core_ExceptionManager -->
<g id="edge4" class="edge"><title>Core_Kernel&#45;&gt;Core_ExceptionManager</title>
<path fill="none" stroke="black" d="M731.442,-1071.82C763.827,-1076.15 807.675,-1087.35 833.589,-1116.16 884.654,-1172.94 819.106,-1226.87 869.589,-1284.16 872.87,-1287.89 876.694,-1291.1 880.852,-1293.86"/>
<polygon fill="black" stroke="black" points="879.366,-1297.05 889.789,-1298.95 882.826,-1290.96 879.366,-1297.05"/>
</g>
<!-- Core_Kernel&#45;&gt;Core_View -->
<g id="edge7" class="edge"><title>Core_Kernel&#45;&gt;Core_View</title>
<path fill="none" stroke="black" d="M722.224,-1063.18C770.081,-1054.22 860.123,-1037.36 910.363,-1027.95"/>
<polygon fill="black" stroke="black" points="911.265,-1031.34 920.45,-1026.06 909.976,-1024.46 911.265,-1031.34"/>
</g>
<!-- Core_Kernel&#45;&gt;Core_Configer -->
<g id="edge2" class="edge"><title>Core_Kernel&#45;&gt;Core_Configer</title>
<path fill="none" stroke="black" d="M728.055,-1065.34C759.714,-1060.31 804.313,-1048.74 833.589,-1022.16 863.062,-995.415 840.391,-967.213 869.589,-940.165 879.429,-931.05 892.523,-924.984 905.117,-920.958"/>
<polygon fill="black" stroke="black" points="906.372,-924.241 915.039,-918.148 904.464,-917.506 906.372,-924.241"/>
</g>
<!-- Core_Kernel&#45;&gt;Core_Logger -->
<g id="edge3" class="edge"><title>Core_Kernel&#45;&gt;Core_Logger</title>
<path fill="none" stroke="black" d="M737.141,-1069.7C767.422,-1072.26 806.153,-1079.97 833.589,-1101.16 861.275,-1122.55 843.869,-1147.45 869.589,-1171.16 880.808,-1181.51 895.842,-1188.76 909.648,-1193.71"/>
<polygon fill="black" stroke="black" points="908.818,-1197.12 919.411,-1196.92 911.004,-1190.47 908.818,-1197.12"/>
</g>
<!-- Core_Kernel&#45;&gt;Core_Route -->
<g id="edge5" class="edge"><title>Core_Kernel&#45;&gt;Core_Route</title>
<path fill="none" stroke="black" d="M735.513,-1070.22C780.003,-1071.27 847.861,-1072.85 894.56,-1073.95"/>
<polygon fill="black" stroke="black" points="894.694,-1077.45 904.774,-1074.19 894.858,-1070.45 894.694,-1077.45"/>
</g>
<!-- Core_Kernel&#45;&gt;Core_RuntimeState -->
<g id="edge6" class="edge"><title>Core_Kernel&#45;&gt;Core_RuntimeState</title>
<path fill="none" stroke="black" d="M720.523,-1075.7C749.558,-1082.03 794.632,-1091.99 833.589,-1101.16 852.682,-1105.66 873.539,-1110.77 892.078,-1115.39"/>
<polygon fill="black" stroke="black" points="891.276,-1118.79 901.826,-1117.82 892.971,-1112 891.276,-1118.79"/>
</g>
<!-- Core_Kernel&#45;&gt;Core_SuperGlobal -->
<g id="edge8" class="edge"><title>Core_Kernel&#45;&gt;Core_SuperGlobal</title>
<path fill="none" stroke="black" d="M720.303,-1062.53C750.163,-1055.2 796.72,-1041.78 833.589,-1022.16 851.484,-1012.64 851.793,-1003.87 869.589,-994.165 877.627,-989.783 886.512,-985.892 895.306,-982.525"/>
<polygon fill="black" stroke="black" points="896.57,-985.79 904.768,-979.078 894.174,-979.213 896.57,-985.79"/>
</g>
<!-- Core_ComponentBase -->
<g id="node18" class="node"><title>Core_ComponentBase</title>
<polygon fill="none" stroke="black" points="1168.58,-877.165 1065.58,-877.165 1061.58,-873.165 1061.58,-841.165 1164.58,-841.165 1168.58,-845.165 1168.58,-877.165"/>
<polyline fill="none" stroke="black" points="1164.58,-873.165 1061.58,-873.165 "/>
<polyline fill="none" stroke="black" points="1164.58,-873.165 1164.58,-841.165 "/>
<polyline fill="none" stroke="black" points="1164.58,-873.165 1168.58,-877.165 "/>
<text text-anchor="middle" x="1115.08" y="-855.465" font-family="Times,serif" font-size="14.00">ComponentBase</text>
</g>
<!-- Core_View&#45;&gt;Core_ComponentBase -->
<g id="edge30" class="edge"><title>Core_View&#45;&gt;Core_ComponentBase</title>
<path fill="none" stroke="black" stroke-dasharray="1,5" d="M974.91,-1016.41C990.839,-1012.5 1010.85,-1005.69 1025.58,-994.165 1062.42,-965.337 1088.85,-916.702 1102.77,-886.349"/>
<polygon fill="black" stroke="black" points="1105.98,-887.744 1106.85,-877.185 1099.59,-884.897 1105.98,-887.744"/>
</g>
<!-- Core_Configer&#45;&gt;Core_ComponentBase -->
<g id="edge26" class="edge"><title>Core_Configer&#45;&gt;Core_ComponentBase</title>
<path fill="none" stroke="black" stroke-dasharray="1,5" d="M980.1,-902.881C1000.38,-896.262 1027.44,-887.434 1051.92,-879.444"/>
<polygon fill="black" stroke="black" points="1053.1,-882.743 1061.52,-876.314 1050.93,-876.089 1053.1,-882.743"/>
</g>
<!-- Core_Logger&#45;&gt;Core_ComponentBase -->
<g id="edge31" class="edge"><title>Core_Logger&#45;&gt;Core_ComponentBase</title>
<path fill="none" stroke="black" stroke-dasharray="1,5" d="M975.651,-1192.64C992.278,-1184.89 1012.77,-1172.79 1025.58,-1156.16 1089.72,-1072.86 1107.5,-943.688 1112.33,-887.205"/>
<polygon fill="black" stroke="black" points="1115.82,-887.464 1113.11,-877.221 1108.84,-886.918 1115.82,-887.464"/>
</g>
<!-- Core_Route&#45;&gt;Core_ComponentBase -->
<g id="edge27" class="edge"><title>Core_Route&#45;&gt;Core_ComponentBase</title>
<path fill="none" stroke="black" stroke-dasharray="1,5" d="M980.008,-1070.05C995.261,-1066.21 1012.97,-1059.56 1025.58,-1048.16 1074.16,-1004.24 1098.26,-928.113 1108.23,-887.161"/>
<polygon fill="black" stroke="black" points="1111.66,-887.843 1110.51,-877.31 1104.84,-886.259 1111.66,-887.843"/>
</g>
<!-- Core_RuntimeState&#45;&gt;Core_ComponentBase -->
<g id="edge29" class="edge"><title>Core_RuntimeState&#45;&gt;Core_ComponentBase</title>
<path fill="none" stroke="black" stroke-dasharray="1,5" d="M993.482,-1120.72C1005.11,-1116.72 1016.81,-1110.83 1025.58,-1102.16 1086.27,-1042.19 1105.63,-937.334 1111.57,-887.292"/>
<polygon fill="black" stroke="black" points="1115.06,-887.522 1112.67,-877.201 1108.1,-886.762 1115.06,-887.522"/>
</g>
<!-- Core_HttpServer -->
<g id="node13" class="node"><title>Core_HttpServer</title>
<polygon fill="none" stroke="black" points="985.582,-877.165 909.582,-877.165 909.582,-873.165 905.582,-873.165 905.582,-869.165 909.582,-869.165 909.582,-849.165 905.582,-849.165 905.582,-845.165 909.582,-845.165 909.582,-841.165 985.582,-841.165 985.582,-877.165"/>
<polyline fill="none" stroke="black" points="909.582,-873.165 913.582,-873.165 913.582,-869.165 909.582,-869.165 "/>
<polyline fill="none" stroke="black" points="909.582,-849.165 913.582,-849.165 913.582,-845.165 909.582,-845.165 "/>
<text text-anchor="middle" x="947.582" y="-855.465" font-family="Times,serif" font-size="14.00">HttpServer</text>
</g>
<!-- Core_HttpServer&#45;&gt;Core_ComponentBase -->
<g id="edge32" class="edge"><title>Core_HttpServer&#45;&gt;Core_ComponentBase</title>
<path fill="none" stroke="black" stroke-dasharray="1,5" d="M985.722,-859.165C1005.06,-859.165 1029.23,-859.165 1051.37,-859.165"/>
<polygon fill="black" stroke="black" points="1051.37,-862.665 1061.37,-859.165 1051.37,-855.665 1051.37,-862.665"/>
</g>
<!-- Core_SuperGlobal&#45;&gt;Core_ComponentBase -->
<g id="edge28" class="edge"><title>Core_SuperGlobal&#45;&gt;Core_ComponentBase</title>
<path fill="none" stroke="black" stroke-dasharray="1,5" d="M990.318,-955.95C1002.16,-951.874 1014.76,-946.638 1025.58,-940.165 1050.53,-925.233 1074.59,-902.495 1091.31,-884.908"/>
<polygon fill="black" stroke="black" points="1094.2,-886.94 1098.45,-877.236 1089.07,-882.171 1094.2,-886.94"/>
</g>
<!-- Core_ComponentInterface -->
<g id="node17" class="node"><title>Core_ComponentInterface</title>
<polygon fill="none" stroke="black" points="1363.68,-877.165 1241.68,-877.165 1241.68,-841.165 1369.68,-841.165 1369.68,-871.165 1363.68,-877.165"/>
<polyline fill="none" stroke="black" points="1363.68,-877.165 1363.68,-871.165 "/>
<polyline fill="none" stroke="black" points="1369.68,-871.165 1363.68,-871.165 "/>
<text text-anchor="middle" x="1305.68" y="-855.465" font-family="Times,serif" font-size="14.00">ComponentInterface</text>
</g>
<!-- Core_ComponentBase&#45;&gt;Core_SingletonEx -->
<g id="edge34" class="edge"><title>Core_ComponentBase&#45;&gt;Core_SingletonEx</title>
<path fill="none" stroke="black" d="M1135.2,-877.415C1170.26,-910.875 1244.66,-981.882 1282.13,-1017.64"/>
<polygon fill="black" stroke="black" points="1279.88,-1020.34 1289.53,-1024.71 1284.72,-1015.27 1279.88,-1020.34"/>
</g>
<!-- Core_ComponentBase&#45;&gt;Core_ComponentInterface -->
<g id="edge33" class="edge"><title>Core_ComponentBase&#45;&gt;Core_ComponentInterface</title>
<path fill="none" stroke="black" d="M1168.61,-859.165C1188,-859.165 1210.35,-859.165 1231.25,-859.165"/>
<polygon fill="black" stroke="black" points="1231.37,-862.665 1241.37,-859.165 1231.37,-855.665 1231.37,-862.665"/>
</g>
<!-- AppHelper -->
<g id="node20" class="node"><title>AppHelper</title>
<polygon fill="none" stroke="black" points="116.188,-1270.16 45.6372,-1252.16 116.188,-1234.16 186.739,-1252.16 116.188,-1270.16"/>
<polyline fill="none" stroke="black" points="57.2647,-1255.13 57.2647,-1249.2 "/>
<polyline fill="none" stroke="black" points="104.561,-1237.13 127.816,-1237.13 "/>
<polyline fill="none" stroke="black" points="175.112,-1249.2 175.112,-1255.13 "/>
<polyline fill="none" stroke="black" points="127.816,-1267.2 104.561,-1267.2 "/>
<text text-anchor="middle" x="116.188" y="-1248.46" font-family="Times,serif" font-size="14.00">AppHelper</text>
</g>
<!-- AppHelper&#45;&gt;Core_App -->
<g id="edge36" class="edge"><title>AppHelper&#45;&gt;Core_App</title>
<path fill="none" stroke="black" d="M151.711,-1243.13C170.823,-1238.04 194.973,-1231.45 216.376,-1225.16 230.541,-1221 233.86,-1219.23 248.053,-1215.16 318.374,-1195.04 342.923,-1208.63 407.441,-1174.16 424.847,-1164.87 441.365,-1149.86 453.226,-1137.58"/>
<polygon fill="black" stroke="black" points="456.046,-1139.69 460.311,-1129.99 450.929,-1134.91 456.046,-1139.69"/>
</g>
<!-- HelperTrait -->
<g id="node25" class="node"><title>HelperTrait</title>
<polygon fill="none" stroke="black" points="325.909,-1260.16 252.344,-1242.16 325.909,-1224.16 399.474,-1242.16 325.909,-1260.16"/>
<text text-anchor="middle" x="325.909" y="-1238.46" font-family="Times,serif" font-size="14.00">HelperTrait</text>
</g>
<!-- AppHelper&#45;&gt;HelperTrait -->
<g id="edge44" class="edge"><title>AppHelper&#45;&gt;HelperTrait</title>
<path fill="none" stroke="black" d="M175.88,-1249.34C200.132,-1248.17 228.465,-1246.81 253.875,-1245.58"/>
<polygon fill="black" stroke="black" points="254.374,-1249.06 264.194,-1245.09 254.037,-1242.07 254.374,-1249.06"/>
</g>
<!-- ControllerHelper -->
<g id="node21" class="node"><title>ControllerHelper</title>
<polygon fill="none" stroke="black" points="116.188,-1216.16 15.8115,-1198.16 116.188,-1180.16 216.565,-1198.16 116.188,-1216.16"/>
<polyline fill="none" stroke="black" points="27.6231,-1200.28 27.6231,-1196.05 "/>
<polyline fill="none" stroke="black" points="104.377,-1182.28 128,-1182.28 "/>
<polyline fill="none" stroke="black" points="204.753,-1196.05 204.753,-1200.28 "/>
<polyline fill="none" stroke="black" points="128,-1214.05 104.377,-1214.05 "/>
<text text-anchor="middle" x="116.188" y="-1194.46" font-family="Times,serif" font-size="14.00">ControllerHelper</text>
</g>
<!-- ControllerHelper&#45;&gt;Core_App -->
<g id="edge37" class="edge"><title>ControllerHelper&#45;&gt;Core_App</title>
<path fill="none" stroke="black" d="M173.552,-1190.42C232.567,-1181.59 327.589,-1165.31 407.441,-1142.16 419.333,-1138.72 432.101,-1133.94 443.064,-1129.48"/>
<polygon fill="black" stroke="black" points="444.666,-1132.61 452.548,-1125.53 441.972,-1126.15 444.666,-1132.61"/>
</g>
<!-- ControllerHelper&#45;&gt;HelperTrait -->
<g id="edge45" class="edge"><title>ControllerHelper&#45;&gt;HelperTrait</title>
<path fill="none" stroke="black" d="M162.773,-1207.82C196.252,-1214.91 241.674,-1224.53 275.926,-1231.79"/>
<polygon fill="black" stroke="black" points="275.212,-1235.22 285.72,-1233.86 276.662,-1228.37 275.212,-1235.22"/>
</g>
<!-- ModelHelper -->
<g id="node22" class="node"><title>ModelHelper</title>
<polygon fill="none" stroke="black" points="116.188,-1162.16 34.5777,-1144.16 116.188,-1126.16 197.799,-1144.16 116.188,-1162.16"/>
<polyline fill="none" stroke="black" points="46.296,-1146.75 46.296,-1141.58 "/>
<polyline fill="none" stroke="black" points="104.47,-1128.75 127.906,-1128.75 "/>
<polyline fill="none" stroke="black" points="186.08,-1141.58 186.08,-1146.75 "/>
<polyline fill="none" stroke="black" points="127.906,-1159.58 104.47,-1159.58 "/>
<text text-anchor="middle" x="116.188" y="-1140.46" font-family="Times,serif" font-size="14.00">ModelHelper</text>
</g>
<!-- ModelHelper&#45;&gt;Core_App -->
<g id="edge38" class="edge"><title>ModelHelper&#45;&gt;Core_App</title>
<path fill="none" stroke="black" d="M177.243,-1139.58C249.226,-1134.09 367.915,-1125.04 430.176,-1120.29"/>
<polygon fill="black" stroke="black" points="430.691,-1123.77 440.396,-1119.51 430.158,-1116.79 430.691,-1123.77"/>
</g>
<!-- ModelHelper&#45;&gt;HelperTrait -->
<g id="edge46" class="edge"><title>ModelHelper&#45;&gt;HelperTrait</title>
<path fill="none" stroke="black" d="M159.704,-1152.64C177.64,-1157 198.471,-1163.11 216.376,-1171.16 246.879,-1184.88 278.523,-1206.58 299.715,-1222.38"/>
<polygon fill="black" stroke="black" points="297.764,-1225.3 307.849,-1228.54 301.99,-1219.72 297.764,-1225.3"/>
</g>
<!-- ServiceHelper -->
<g id="node23" class="node"><title>ServiceHelper</title>
<polygon fill="none" stroke="black" points="116.188,-1108.16 29.8865,-1090.16 116.188,-1072.16 202.49,-1090.16 116.188,-1108.16"/>
<polyline fill="none" stroke="black" points="41.6337,-1092.61 41.6337,-1087.71 "/>
<polyline fill="none" stroke="black" points="104.441,-1074.61 127.935,-1074.61 "/>
<polyline fill="none" stroke="black" points="190.743,-1087.71 190.743,-1092.61 "/>
<polyline fill="none" stroke="black" points="127.935,-1105.71 104.441,-1105.71 "/>
<text text-anchor="middle" x="116.188" y="-1086.46" font-family="Times,serif" font-size="14.00">ServiceHelper</text>
</g>
<!-- ServiceHelper&#45;&gt;Core_App -->
<g id="edge39" class="edge"><title>ServiceHelper&#45;&gt;Core_App</title>
<path fill="none" stroke="black" d="M179.665,-1094.93C251.908,-1100.44 368.757,-1109.35 430.294,-1114.04"/>
<polygon fill="black" stroke="black" points="430.162,-1117.54 440.399,-1114.81 430.694,-1110.56 430.162,-1117.54"/>
</g>
<!-- ServiceHelper&#45;&gt;HelperTrait -->
<g id="edge47" class="edge"><title>ServiceHelper&#45;&gt;HelperTrait</title>
<path fill="none" stroke="black" d="M166.719,-1097.63C183.374,-1101.66 201.49,-1107.82 216.376,-1117.16 257.664,-1143.09 291.891,-1189.55 310.284,-1217.94"/>
<polygon fill="black" stroke="black" points="307.382,-1219.9 315.689,-1226.47 313.296,-1216.15 307.382,-1219.9"/>
</g>
<!-- ViewHelper -->
<g id="node24" class="node"><title>ViewHelper</title>
<polygon fill="none" stroke="black" points="116.188,-1054.16 40.1075,-1036.16 116.188,-1018.16 192.269,-1036.16 116.188,-1054.16"/>
<polyline fill="none" stroke="black" points="51.7851,-1038.93 51.7851,-1033.4 "/>
<polyline fill="none" stroke="black" points="104.511,-1020.93 127.866,-1020.93 "/>
<polyline fill="none" stroke="black" points="180.591,-1033.4 180.591,-1038.93 "/>
<polyline fill="none" stroke="black" points="127.866,-1051.4 104.511,-1051.4 "/>
<text text-anchor="middle" x="116.188" y="-1032.46" font-family="Times,serif" font-size="14.00">ViewHelper</text>
</g>
<!-- ViewHelper&#45;&gt;Core_App -->
<g id="edge40" class="edge"><title>ViewHelper&#45;&gt;Core_App</title>
<path fill="none" stroke="black" d="M160.278,-1043.87C217.226,-1054.36 320.506,-1074.45 407.441,-1097.16 418.33,-1100.01 430.122,-1103.57 440.57,-1106.89"/>
<polygon fill="black" stroke="black" points="439.509,-1110.23 450.101,-1109.98 441.665,-1103.57 439.509,-1110.23"/>
</g>
<!-- ViewHelper&#45;&gt;HelperTrait -->
<g id="edge48" class="edge"><title>ViewHelper&#45;&gt;HelperTrait</title>
<path fill="none" stroke="black" d="M167.172,-1042.12C184.053,-1046.02 202.194,-1052.48 216.376,-1063.16 269.131,-1102.92 301.685,-1176.45 316.13,-1215.76"/>
<polygon fill="black" stroke="black" points="312.92,-1217.18 319.57,-1225.43 319.516,-1214.84 312.92,-1217.18"/>
</g>
<!-- HelperTrait&#45;&gt;Core_App -->
<g id="edge41" class="edge"><title>HelperTrait&#45;&gt;Core_App</title>
<path fill="none" stroke="black" d="M362.592,-1233.03C377.52,-1227.99 394.393,-1220.59 407.441,-1210.16 430.946,-1191.39 449.208,-1161.65 460.053,-1140.87"/>
<polygon fill="black" stroke="black" points="463.273,-1142.25 464.639,-1131.75 457.019,-1139.11 463.273,-1142.25"/>
</g>
<!-- HelperTrait&#45;&gt;Core_ExtendableStaticCallTrait -->
<g id="edge42" class="edge"><title>HelperTrait&#45;&gt;Core_ExtendableStaticCallTrait</title>
<path fill="none" stroke="black" d="M367.492,-1250.03C411.276,-1258.51 483.051,-1272.37 544.974,-1284.16 569.673,-1288.87 596.776,-1293.99 620.701,-1298.49"/>
<polygon fill="black" stroke="black" points="620.269,-1301.97 630.743,-1300.38 621.563,-1295.09 620.269,-1301.97"/>
</g>
<!-- HelperTrait&#45;&gt;Core_ThrowOn -->
<g id="edge43" class="edge"><title>HelperTrait&#45;&gt;Core_ThrowOn</title>
<path fill="none" stroke="black" d="M389.031,-1244.74C454.446,-1247.46 556.982,-1251.71 623.414,-1254.47"/>
<polygon fill="black" stroke="black" points="623.618,-1257.98 633.755,-1254.9 623.909,-1250.99 623.618,-1257.98"/>
</g>
<!-- DB_DB -->
<g id="node26" class="node"><title>DB_DB</title>
<ellipse fill="none" stroke="black" cx="1115.08" cy="-66.1647" rx="27" ry="18"/>
<text text-anchor="middle" x="1115.08" y="-62.4647" font-family="Times,serif" font-size="14.00">DB</text>
</g>
<!-- DB_DBAdvanceTrait -->
<g id="node27" class="node"><title>DB_DBAdvanceTrait</title>
<polygon fill="none" stroke="black" points="1305.68,-57.1647 1204.47,-39.1647 1305.68,-21.1647 1406.9,-39.1647 1305.68,-57.1647"/>
<text text-anchor="middle" x="1305.68" y="-35.4647" font-family="Times,serif" font-size="14.00">DBAdvanceTrait</text>
</g>
<!-- DB_DB&#45;&gt;DB_DBAdvanceTrait -->
<g id="edge49" class="edge"><title>DB_DB&#45;&gt;DB_DBAdvanceTrait</title>
<path fill="none" stroke="black" d="M1141.91,-62.467C1166.77,-58.9069 1205.43,-53.3736 1238.83,-48.5922"/>
<polygon fill="black" stroke="black" points="1239.6,-52.0173 1249,-47.1354 1238.61,-45.088 1239.6,-52.0173"/>
</g>
<!-- DB_DBInterface -->
<g id="node28" class="node"><title>DB_DBInterface</title>
<polygon fill="none" stroke="black" points="1341.18,-111.165 1264.18,-111.165 1264.18,-75.1647 1347.18,-75.1647 1347.18,-105.165 1341.18,-111.165"/>
<polyline fill="none" stroke="black" points="1341.18,-111.165 1341.18,-105.165 "/>
<polyline fill="none" stroke="black" points="1347.18,-105.165 1341.18,-105.165 "/>
<text text-anchor="middle" x="1305.68" y="-89.4647" font-family="Times,serif" font-size="14.00">DBInterface</text>
</g>
<!-- DB_DB&#45;&gt;DB_DBInterface -->
<g id="edge50" class="edge"><title>DB_DB&#45;&gt;DB_DBInterface</title>
<path fill="none" stroke="black" d="M1141.91,-69.8623C1170.55,-73.9635 1217.5,-80.6835 1253.63,-85.8558"/>
<polygon fill="black" stroke="black" points="1253.59,-89.3858 1263.98,-87.3383 1254.58,-82.4564 1253.59,-89.3858"/>
</g>
<!-- CallableView -->
<g id="node29" class="node"><title>CallableView</title>
<polygon fill="none" stroke="black" points="734.782,-786.165 643.782,-786.165 643.782,-782.165 639.782,-782.165 639.782,-778.165 643.782,-778.165 643.782,-758.165 639.782,-758.165 639.782,-754.165 643.782,-754.165 643.782,-750.165 734.782,-750.165 734.782,-786.165"/>
<polyline fill="none" stroke="black" points="643.782,-782.165 647.782,-782.165 647.782,-778.165 643.782,-778.165 "/>
<polyline fill="none" stroke="black" points="643.782,-758.165 647.782,-758.165 647.782,-754.165 643.782,-754.165 "/>
<text text-anchor="middle" x="689.282" y="-764.465" font-family="Times,serif" font-size="14.00">CallableView</text>
</g>
<!-- CallableView&#45;&gt;Core_View -->
<g id="edge52" class="edge"><title>CallableView&#45;&gt;Core_View</title>
<path fill="none" stroke="black" d="M734.983,-775.919C767.103,-783.839 808.929,-799.382 833.589,-829.165 881.459,-886.977 819.862,-937.942 869.589,-994.165 880.035,-1005.98 895.954,-1012.62 910.611,-1016.36"/>
<polygon fill="black" stroke="black" points="909.957,-1019.8 920.474,-1018.51 911.449,-1012.96 909.957,-1019.8"/>
</g>
<!-- DBManager -->
<g id="node30" class="node"><title>DBManager</title>
<polygon fill="none" stroke="black" points="989.582,-84.1647 905.582,-84.1647 905.582,-80.1647 901.582,-80.1647 901.582,-76.1647 905.582,-76.1647 905.582,-56.1647 901.582,-56.1647 901.582,-52.1647 905.582,-52.1647 905.582,-48.1647 989.582,-48.1647 989.582,-84.1647"/>
<polyline fill="none" stroke="black" points="905.582,-80.1647 909.582,-80.1647 909.582,-76.1647 905.582,-76.1647 "/>
<polyline fill="none" stroke="black" points="905.582,-56.1647 909.582,-56.1647 909.582,-52.1647 905.582,-52.1647 "/>
<text text-anchor="middle" x="947.582" y="-62.4647" font-family="Times,serif" font-size="14.00">DBManager</text>
</g>
<!-- DBManager&#45;&gt;Core_ComponentBase -->
<g id="edge72" class="edge"><title>DBManager&#45;&gt;Core_ComponentBase</title>
<path fill="none" stroke="black" stroke-dasharray="1,5" d="M986.951,-84.2692C1001.4,-93.0581 1016.52,-105.033 1025.58,-120.165 1099.4,-243.552 1111.75,-710.914 1113.72,-830.934"/>
<polygon fill="black" stroke="black" points="1110.22,-831.193 1113.87,-841.138 1117.22,-831.086 1110.22,-831.193"/>
</g>
<!-- DBManager&#45;&gt;DB_DB -->
<g id="edge51" class="edge"><title>DBManager&#45;&gt;DB_DB</title>
<path fill="none" stroke="black" d="M989.916,-66.1647C1016.84,-66.1647 1051.65,-66.1647 1077.56,-66.1647"/>
<polygon fill="black" stroke="black" points="1077.72,-69.6648 1087.72,-66.1647 1077.72,-62.6648 1077.72,-69.6648"/>
</g>
<!-- DBReusePoolProxy -->
<g id="node31" class="node"><title>DBReusePoolProxy</title>
<polygon fill="none" stroke="black" points="751.782,-84.1647 626.782,-84.1647 626.782,-80.1647 622.782,-80.1647 622.782,-76.1647 626.782,-76.1647 626.782,-56.1647 622.782,-56.1647 622.782,-52.1647 626.782,-52.1647 626.782,-48.1647 751.782,-48.1647 751.782,-84.1647"/>
<polyline fill="none" stroke="black" points="626.782,-80.1647 630.782,-80.1647 630.782,-76.1647 626.782,-76.1647 "/>
<polyline fill="none" stroke="black" points="626.782,-56.1647 630.782,-56.1647 630.782,-52.1647 626.782,-52.1647 "/>
<text text-anchor="middle" x="689.282" y="-62.4647" font-family="Times,serif" font-size="14.00">DBReusePoolProxy</text>
</g>
<!-- DBReusePoolProxy&#45;&gt;DBManager -->
<g id="edge53" class="edge"><title>DBReusePoolProxy&#45;&gt;DBManager</title>
<path fill="none" stroke="black" d="M751.998,-66.1647C795.831,-66.1647 853.997,-66.1647 895.285,-66.1647"/>
<polygon fill="black" stroke="black" points="895.399,-69.6648 905.399,-66.1647 895.399,-62.6648 895.399,-69.6648"/>
</g>
<!-- FacadesAutoLoader -->
<g id="node32" class="node"><title>FacadesAutoLoader</title>
<polygon fill="none" stroke="black" points="1010.08,-165.165 885.082,-165.165 885.082,-161.165 881.082,-161.165 881.082,-157.165 885.082,-157.165 885.082,-137.165 881.082,-137.165 881.082,-133.165 885.082,-133.165 885.082,-129.165 1010.08,-129.165 1010.08,-165.165"/>
<polyline fill="none" stroke="black" points="885.082,-161.165 889.082,-161.165 889.082,-157.165 885.082,-157.165 "/>
<polyline fill="none" stroke="black" points="885.082,-137.165 889.082,-137.165 889.082,-133.165 885.082,-133.165 "/>
<text text-anchor="middle" x="947.582" y="-143.465" font-family="Times,serif" font-size="14.00">FacadesAutoLoader</text>
</g>
<!-- FacadesAutoLoader&#45;&gt;Core_ComponentBase -->
<g id="edge60" class="edge"><title>FacadesAutoLoader&#45;&gt;Core_ComponentBase</title>
<path fill="none" stroke="black" stroke-dasharray="1,5" d="M986.841,-165.335C1001.28,-174.135 1016.41,-186.099 1025.58,-201.165 1091.58,-309.695 1109.53,-719.105 1113.25,-830.842"/>
<polygon fill="black" stroke="black" points="1109.75,-831.109 1113.57,-840.992 1116.75,-830.885 1109.75,-831.109"/>
</g>
<!-- FacadesBase -->
<g id="node33" class="node"><title>FacadesBase</title>
<ellipse fill="none" stroke="black" cx="689.282" cy="-120.165" rx="55.7903" ry="18"/>
<text text-anchor="middle" x="689.282" y="-116.465" font-family="Times,serif" font-size="14.00">FacadesBase</text>
</g>
<!-- FacadesBase&#45;&gt;FacadesAutoLoader -->
<g id="edge55" class="edge"><title>FacadesBase&#45;&gt;FacadesAutoLoader</title>
<path fill="none" stroke="black" d="M742.766,-125.694C780.785,-129.699 832.647,-135.162 874.54,-139.575"/>
<polygon fill="black" stroke="black" points="874.374,-143.077 884.686,-140.644 875.108,-136.116 874.374,-143.077"/>
</g>
<!-- JsonRpcClientBase -->
<g id="node34" class="node"><title>JsonRpcClientBase</title>
<ellipse fill="none" stroke="black" cx="689.282" cy="-282.165" rx="79.0865" ry="18"/>
<text text-anchor="middle" x="689.282" y="-278.465" font-family="Times,serif" font-size="14.00">JsonRpcClientBase</text>
</g>
<!-- JsonRpcExt -->
<g id="node35" class="node"><title>JsonRpcExt</title>
<polygon fill="none" stroke="black" points="988.082,-300.165 907.082,-300.165 907.082,-296.165 903.082,-296.165 903.082,-292.165 907.082,-292.165 907.082,-272.165 903.082,-272.165 903.082,-268.165 907.082,-268.165 907.082,-264.165 988.082,-264.165 988.082,-300.165"/>
<polyline fill="none" stroke="black" points="907.082,-296.165 911.082,-296.165 911.082,-292.165 907.082,-292.165 "/>
<polyline fill="none" stroke="black" points="907.082,-272.165 911.082,-272.165 911.082,-268.165 907.082,-268.165 "/>
<text text-anchor="middle" x="947.582" y="-278.465" font-family="Times,serif" font-size="14.00">JsonRpcExt</text>
</g>
<!-- JsonRpcClientBase&#45;&gt;JsonRpcExt -->
<g id="edge54" class="edge"><title>JsonRpcClientBase&#45;&gt;JsonRpcExt</title>
<path fill="none" stroke="black" d="M768.922,-282.165C810.44,-282.165 860.151,-282.165 896.417,-282.165"/>
<polygon fill="black" stroke="black" points="896.743,-285.665 906.743,-282.165 896.743,-278.665 896.743,-285.665"/>
</g>
<!-- JsonRpcExt&#45;&gt;Core_ComponentBase -->
<g id="edge61" class="edge"><title>JsonRpcExt&#45;&gt;Core_ComponentBase</title>
<path fill="none" stroke="black" stroke-dasharray="1,5" d="M988.184,-287.577C1001.92,-291.417 1016.22,-297.973 1025.58,-309.165 1093,-389.78 1109.73,-729.912 1113.24,-830.827"/>
<polygon fill="black" stroke="black" points="1109.75,-831.003 1113.58,-840.881 1116.74,-830.771 1109.75,-831.003"/>
</g>
<!-- Misc -->
<g id="node36" class="node"><title>Misc</title>
<polygon fill="none" stroke="black" points="716.282,-570.165 662.282,-570.165 662.282,-566.165 658.282,-566.165 658.282,-562.165 662.282,-562.165 662.282,-542.165 658.282,-542.165 658.282,-538.165 662.282,-538.165 662.282,-534.165 716.282,-534.165 716.282,-570.165"/>
<polyline fill="none" stroke="black" points="662.282,-566.165 666.282,-566.165 666.282,-562.165 662.282,-562.165 "/>
<polyline fill="none" stroke="black" points="662.282,-542.165 666.282,-542.165 666.282,-538.165 662.282,-538.165 "/>
<text text-anchor="middle" x="689.282" y="-548.465" font-family="Times,serif" font-size="14.00">Misc</text>
</g>
<!-- Misc&#45;&gt;Core_ComponentBase -->
<g id="edge63" class="edge"><title>Misc&#45;&gt;Core_ComponentBase</title>
<path fill="none" stroke="black" stroke-dasharray="1,5" d="M716.518,-551.776C746.808,-552.474 797.133,-557.255 833.589,-579.165 855.542,-592.358 848.034,-610.332 869.589,-624.165 929.732,-662.759 970.728,-617.356 1025.58,-663.165 1078.01,-706.961 1100.7,-788.292 1109.38,-831.12"/>
<polygon fill="black" stroke="black" points="1105.98,-831.967 1111.3,-841.132 1112.86,-830.653 1105.98,-831.967"/>
</g>
<!-- Pager -->
<g id="node37" class="node"><title>Pager</title>
<polygon fill="none" stroke="black" points="716.282,-408.165 662.282,-408.165 662.282,-404.165 658.282,-404.165 658.282,-400.165 662.282,-400.165 662.282,-380.165 658.282,-380.165 658.282,-376.165 662.282,-376.165 662.282,-372.165 716.282,-372.165 716.282,-408.165"/>
<polyline fill="none" stroke="black" points="662.282,-404.165 666.282,-404.165 666.282,-400.165 662.282,-400.165 "/>
<polyline fill="none" stroke="black" points="662.282,-380.165 666.282,-380.165 666.282,-376.165 662.282,-376.165 "/>
<text text-anchor="middle" x="689.282" y="-386.465" font-family="Times,serif" font-size="14.00">Pager</text>
</g>
<!-- Pager&#45;&gt;Core_ComponentBase -->
<g id="edge62" class="edge"><title>Pager&#45;&gt;Core_ComponentBase</title>
<path fill="none" stroke="black" stroke-dasharray="1,5" d="M716.548,-388.165C747.798,-387.213 799.958,-390.307 833.589,-417.165 865.009,-442.256 839.313,-473.704 869.589,-500.165 923.827,-547.566 974.667,-493.203 1025.58,-544.165 1105.3,-623.969 1114.59,-769.501 1114.75,-830.774"/>
<polygon fill="black" stroke="black" points="1111.25,-830.847 1114.69,-840.867 1118.25,-830.887 1111.25,-830.847"/>
</g>
<!-- PagerInterface -->
<g id="node38" class="node"><title>PagerInterface</title>
<polygon fill="none" stroke="black" points="989.082,-408.165 900.082,-408.165 900.082,-372.165 995.082,-372.165 995.082,-402.165 989.082,-408.165"/>
<polyline fill="none" stroke="black" points="989.082,-408.165 989.082,-402.165 "/>
<polyline fill="none" stroke="black" points="995.082,-402.165 989.082,-402.165 "/>
<text text-anchor="middle" x="947.582" y="-386.465" font-family="Times,serif" font-size="14.00">PagerInterface</text>
</g>
<!-- Pager&#45;&gt;PagerInterface -->
<g id="edge56" class="edge"><title>Pager&#45;&gt;PagerInterface</title>
<path fill="none" stroke="black" d="M716.745,-390.165C757.358,-390.165 835.998,-390.165 889.877,-390.165"/>
<polygon fill="black" stroke="black" points="889.969,-393.665 899.969,-390.165 889.969,-386.665 889.969,-393.665"/>
</g>
<!-- PluginForSwooleHttpd -->
<g id="node39" class="node"><title>PluginForSwooleHttpd</title>
<polygon fill="none" stroke="black" points="760.282,-516.165 618.282,-516.165 618.282,-512.165 614.282,-512.165 614.282,-508.165 618.282,-508.165 618.282,-488.165 614.282,-488.165 614.282,-484.165 618.282,-484.165 618.282,-480.165 760.282,-480.165 760.282,-516.165"/>
<polyline fill="none" stroke="black" points="618.282,-512.165 622.282,-512.165 622.282,-508.165 618.282,-508.165 "/>
<polyline fill="none" stroke="black" points="618.282,-488.165 622.282,-488.165 622.282,-484.165 618.282,-484.165 "/>
<text text-anchor="middle" x="689.282" y="-494.465" font-family="Times,serif" font-size="14.00">PluginForSwooleHttpd</text>
</g>
<!-- PluginForSwooleHttpd&#45;&gt;Core_ComponentBase -->
<g id="edge66" class="edge"><title>PluginForSwooleHttpd&#45;&gt;Core_ComponentBase</title>
<path fill="none" stroke="black" stroke-dasharray="1,5" d="M760.461,-499.7C785.343,-503.123 812.398,-510.407 833.589,-525.165 859.109,-542.937 844.603,-566.651 869.589,-585.165 927.007,-627.708 972.22,-576.626 1025.58,-624.165 1087.29,-679.149 1106.13,-781.581 1111.76,-831.026"/>
<polygon fill="black" stroke="black" points="1108.28,-831.429 1112.79,-841.015 1115.24,-830.707 1108.28,-831.429"/>
</g>
<!-- RedisManager -->
<g id="node40" class="node"><title>RedisManager</title>
<polygon fill="none" stroke="black" points="995.582,-354.165 899.582,-354.165 899.582,-350.165 895.582,-350.165 895.582,-346.165 899.582,-346.165 899.582,-326.165 895.582,-326.165 895.582,-322.165 899.582,-322.165 899.582,-318.165 995.582,-318.165 995.582,-354.165"/>
<polyline fill="none" stroke="black" points="899.582,-350.165 903.582,-350.165 903.582,-346.165 899.582,-346.165 "/>
<polyline fill="none" stroke="black" points="899.582,-326.165 903.582,-326.165 903.582,-322.165 899.582,-322.165 "/>
<text text-anchor="middle" x="947.582" y="-332.465" font-family="Times,serif" font-size="14.00">RedisManager</text>
</g>
<!-- RedisManager&#45;&gt;Core_ComponentBase -->
<g id="edge65" class="edge"><title>RedisManager&#45;&gt;Core_ComponentBase</title>
<path fill="none" stroke="black" stroke-dasharray="1,5" d="M995.704,-344.08C1006.92,-348.081 1017.86,-354.103 1025.58,-363.165 1086.58,-434.854 1107.56,-736.59 1112.7,-830.884"/>
<polygon fill="black" stroke="black" points="1109.21,-831.279 1113.24,-841.081 1116.2,-830.911 1109.21,-831.279"/>
</g>
<!-- RedisSimpleCache -->
<g id="node41" class="node"><title>RedisSimpleCache</title>
<polygon fill="none" stroke="black" points="749.282,-354.165 629.282,-354.165 629.282,-350.165 625.282,-350.165 625.282,-346.165 629.282,-346.165 629.282,-326.165 625.282,-326.165 625.282,-322.165 629.282,-322.165 629.282,-318.165 749.282,-318.165 749.282,-354.165"/>
<polyline fill="none" stroke="black" points="629.282,-350.165 633.282,-350.165 633.282,-346.165 629.282,-346.165 "/>
<polyline fill="none" stroke="black" points="629.282,-326.165 633.282,-326.165 633.282,-322.165 629.282,-322.165 "/>
<text text-anchor="middle" x="689.282" y="-332.465" font-family="Times,serif" font-size="14.00">RedisSimpleCache</text>
</g>
<!-- RedisSimpleCache&#45;&gt;Core_ComponentBase -->
<g id="edge64" class="edge"><title>RedisSimpleCache&#45;&gt;Core_ComponentBase</title>
<path fill="none" stroke="black" stroke-dasharray="1,5" d="M749.3,-336.944C776.829,-339.775 808.886,-346.82 833.589,-363.165 857.645,-379.081 848.209,-397.803 869.589,-417.165 927.799,-469.878 977.319,-438.21 1025.58,-500.165 1104.81,-601.895 1114.19,-765.019 1114.55,-830.55"/>
<polygon fill="black" stroke="black" points="1111.05,-830.907 1114.54,-840.912 1118.05,-830.918 1111.05,-830.907"/>
</g>
<!-- RedisSimpleCache&#45;&gt;RedisManager -->
<g id="edge57" class="edge"><title>RedisSimpleCache&#45;&gt;RedisManager</title>
<path fill="none" stroke="black" d="M749.404,-336.165C791.38,-336.165 847.44,-336.165 889.054,-336.165"/>
<polygon fill="black" stroke="black" points="889.305,-339.665 899.305,-336.165 889.305,-332.665 889.305,-339.665"/>
</g>
<!-- RouteHookDirectoryMode -->
<g id="node42" class="node"><title>RouteHookDirectoryMode</title>
<polygon fill="none" stroke="black" points="770.782,-462.165 607.782,-462.165 607.782,-458.165 603.782,-458.165 603.782,-454.165 607.782,-454.165 607.782,-434.165 603.782,-434.165 603.782,-430.165 607.782,-430.165 607.782,-426.165 770.782,-426.165 770.782,-462.165"/>
<polyline fill="none" stroke="black" points="607.782,-458.165 611.782,-458.165 611.782,-454.165 607.782,-454.165 "/>
<polyline fill="none" stroke="black" points="607.782,-434.165 611.782,-434.165 611.782,-430.165 607.782,-430.165 "/>
<text text-anchor="middle" x="689.282" y="-440.465" font-family="Times,serif" font-size="14.00">RouteHookDirectoryMode</text>
</g>
<!-- RouteHookDirectoryMode&#45;&gt;Core_ComponentBase -->
<g id="edge68" class="edge"><title>RouteHookDirectoryMode&#45;&gt;Core_ComponentBase</title>
<path fill="none" stroke="black" stroke-dasharray="1,5" d="M771.132,-446.313C793.111,-450.207 815.745,-457.615 833.589,-471.165 862.4,-493.041 841.571,-521.282 869.589,-544.165 925.109,-589.507 973.505,-535.901 1025.58,-585.165 1096.22,-651.997 1110.6,-775.475 1113.44,-830.919"/>
<polygon fill="black" stroke="black" points="1109.95,-831.219 1113.86,-841.063 1116.94,-830.925 1109.95,-831.219"/>
</g>
<!-- RouteHookOneFileMode -->
<g id="node43" class="node"><title>RouteHookOneFileMode</title>
<polygon fill="none" stroke="black" points="766.782,-732.165 611.782,-732.165 611.782,-728.165 607.782,-728.165 607.782,-724.165 611.782,-724.165 611.782,-704.165 607.782,-704.165 607.782,-700.165 611.782,-700.165 611.782,-696.165 766.782,-696.165 766.782,-732.165"/>
<polyline fill="none" stroke="black" points="611.782,-728.165 615.782,-728.165 615.782,-724.165 611.782,-724.165 "/>
<polyline fill="none" stroke="black" points="611.782,-704.165 615.782,-704.165 615.782,-700.165 611.782,-700.165 "/>
<text text-anchor="middle" x="689.282" y="-710.465" font-family="Times,serif" font-size="14.00">RouteHookOneFileMode</text>
</g>
<!-- RouteHookOneFileMode&#45;&gt;Core_ComponentBase -->
<g id="edge69" class="edge"><title>RouteHookOneFileMode&#45;&gt;Core_ComponentBase</title>
<path fill="none" stroke="black" stroke-dasharray="1,5" d="M766.865,-725.494C788.654,-729.55 812.254,-734.746 833.589,-741.165 919.193,-766.917 1014.17,-810.179 1068.74,-836.553"/>
<polygon fill="black" stroke="black" points="1067.27,-839.73 1077.79,-840.954 1070.33,-833.435 1067.27,-839.73"/>
</g>
<!-- RouteHookRewrite -->
<g id="node44" class="node"><title>RouteHookRewrite</title>
<polygon fill="none" stroke="black" points="750.282,-678.165 628.282,-678.165 628.282,-674.165 624.282,-674.165 624.282,-670.165 628.282,-670.165 628.282,-650.165 624.282,-650.165 624.282,-646.165 628.282,-646.165 628.282,-642.165 750.282,-642.165 750.282,-678.165"/>
<polyline fill="none" stroke="black" points="628.282,-674.165 632.282,-674.165 632.282,-670.165 628.282,-670.165 "/>
<polyline fill="none" stroke="black" points="628.282,-650.165 632.282,-650.165 632.282,-646.165 628.282,-646.165 "/>
<text text-anchor="middle" x="689.282" y="-656.465" font-family="Times,serif" font-size="14.00">RouteHookRewrite</text>
</g>
<!-- RouteHookRewrite&#45;&gt;Core_ComponentBase -->
<g id="edge70" class="edge"><title>RouteHookRewrite&#45;&gt;Core_ComponentBase</title>
<path fill="none" stroke="black" stroke-dasharray="1,5" d="M750.472,-668.961C776.314,-673.39 806.692,-679.472 833.589,-687.165 850.095,-691.885 853.391,-695.478 869.589,-701.165 938.154,-725.236 965.461,-709.338 1025.58,-750.165 1057.18,-771.632 1083.26,-807.676 1098.74,-832.398"/>
<polygon fill="black" stroke="black" points="1095.75,-834.229 1103.95,-840.945 1101.73,-830.585 1095.75,-834.229"/>
</g>
<!-- RouteHookRouteMap -->
<g id="node45" class="node"><title>RouteHookRouteMap</title>
<polygon fill="none" stroke="black" points="757.782,-624.165 620.782,-624.165 620.782,-620.165 616.782,-620.165 616.782,-616.165 620.782,-616.165 620.782,-596.165 616.782,-596.165 616.782,-592.165 620.782,-592.165 620.782,-588.165 757.782,-588.165 757.782,-624.165"/>
<polyline fill="none" stroke="black" points="620.782,-620.165 624.782,-620.165 624.782,-616.165 620.782,-616.165 "/>
<polyline fill="none" stroke="black" points="620.782,-596.165 624.782,-596.165 624.782,-592.165 620.782,-592.165 "/>
<text text-anchor="middle" x="689.282" y="-602.465" font-family="Times,serif" font-size="14.00">RouteHookRouteMap</text>
</g>
<!-- RouteHookRouteMap&#45;&gt;Core_ComponentBase -->
<g id="edge71" class="edge"><title>RouteHookRouteMap&#45;&gt;Core_ComponentBase</title>
<path fill="none" stroke="black" stroke-dasharray="1,5" d="M758.108,-611.768C782.735,-615.631 810.23,-622.154 833.589,-633.165 852.429,-642.045 850.991,-653.791 869.589,-663.165 933.309,-695.28 968.753,-658.005 1025.58,-701.165 1069.21,-734.31 1094.45,-795.562 1106.12,-831.284"/>
<polygon fill="black" stroke="black" points="1102.86,-832.567 1109.18,-841.064 1109.54,-830.475 1102.86,-832.567"/>
</g>
<!-- StrictCheck -->
<g id="node46" class="node"><title>StrictCheck</title>
<polygon fill="none" stroke="black" points="987.582,-246.165 907.582,-246.165 907.582,-242.165 903.582,-242.165 903.582,-238.165 907.582,-238.165 907.582,-218.165 903.582,-218.165 903.582,-214.165 907.582,-214.165 907.582,-210.165 987.582,-210.165 987.582,-246.165"/>
<polyline fill="none" stroke="black" points="907.582,-242.165 911.582,-242.165 911.582,-238.165 907.582,-238.165 "/>
<polyline fill="none" stroke="black" points="907.582,-218.165 911.582,-218.165 911.582,-214.165 907.582,-214.165 "/>
<text text-anchor="middle" x="947.582" y="-224.465" font-family="Times,serif" font-size="14.00">StrictCheck</text>
</g>
<!-- StrictCheck&#45;&gt;Core_ComponentBase -->
<g id="edge67" class="edge"><title>StrictCheck&#45;&gt;Core_ComponentBase</title>
<path fill="none" stroke="black" stroke-dasharray="1,5" d="M987.868,-233.396C1001.74,-237.211 1016.2,-243.798 1025.58,-255.165 1099.47,-344.794 1111.71,-723.835 1113.7,-830.897"/>
<polygon fill="black" stroke="black" points="1110.2,-831.003 1113.87,-840.942 1117.2,-830.884 1110.2,-831.003"/>
</g>
<!-- StrictModelTrait -->
<g id="node47" class="node"><title>StrictModelTrait</title>
<polygon fill="none" stroke="black" points="689.282,-246.165 590.243,-228.165 689.282,-210.165 788.32,-228.165 689.282,-246.165"/>
<text text-anchor="middle" x="689.282" y="-224.465" font-family="Times,serif" font-size="14.00">StrictModelTrait</text>
</g>
<!-- StrictModelTrait&#45;&gt;StrictCheck -->
<g id="edge58" class="edge"><title>StrictModelTrait&#45;&gt;StrictCheck</title>
<path fill="none" stroke="black" d="M788.641,-228.165C825.803,-228.165 866.502,-228.165 897.279,-228.165"/>
<polygon fill="black" stroke="black" points="897.316,-231.665 907.316,-228.165 897.316,-224.665 897.316,-231.665"/>
</g>
<!-- StrictServiceTrait -->
<g id="node48" class="node"><title>StrictServiceTrait</title>
<polygon fill="none" stroke="black" points="689.282,-192.165 585.552,-174.165 689.282,-156.165 793.011,-174.165 689.282,-192.165"/>
<text text-anchor="middle" x="689.282" y="-170.465" font-family="Times,serif" font-size="14.00">StrictServiceTrait</text>
</g>
<!-- StrictServiceTrait&#45;&gt;StrictCheck -->
<g id="edge59" class="edge"><title>StrictServiceTrait&#45;&gt;StrictCheck</title>
<path fill="none" stroke="black" d="M741.472,-183.189C768.863,-188.174 803.135,-194.661 833.589,-201.165 854.681,-205.669 877.868,-211.121 897.719,-215.944"/>
<polygon fill="black" stroke="black" points="896.924,-219.352 907.469,-218.326 898.585,-212.552 896.924,-219.352"/>
</g>
<!-- HttpServer -->
<g id="node49" class="node"><title>HttpServer</title>
<polygon fill="lightgrey" stroke="black" points="325.909,-678.165 256.197,-660.165 325.909,-642.165 395.621,-660.165 325.909,-678.165"/>
<polyline fill="none" stroke="black" points="267.816,-663.165 267.816,-657.165 "/>
<polyline fill="none" stroke="black" points="314.29,-645.165 337.528,-645.165 "/>
<polyline fill="none" stroke="black" points="384.002,-657.165 384.002,-663.165 "/>
<polyline fill="none" stroke="black" points="337.528,-675.165 314.29,-675.165 "/>
<text text-anchor="middle" x="325.909" y="-656.465" font-family="Times,serif" font-size="14.00">HttpServer</text>
</g>
<!-- HttpServer&#45;&gt;Core_HttpServer -->
<g id="edge73" class="edge"><title>HttpServer&#45;&gt;Core_HttpServer</title>
<path fill="none" stroke="black" d="M340.546,-674.588C372.58,-707.399 456.622,-787.387 544.974,-821.165 577.394,-833.559 800.419,-849.544 899.418,-856.127"/>
<polygon fill="black" stroke="black" points="899.239,-859.622 909.448,-856.79 899.701,-852.638 899.239,-859.622"/>
</g>
<!-- App -->
<g id="node50" class="node"><title>App</title>
<polygon fill="lightgrey" stroke="black" points="325.909,-624.165 289.375,-606.165 325.909,-588.165 362.443,-606.165 325.909,-624.165"/>
<polyline fill="none" stroke="black" points="300.139,-611.468 300.139,-600.861 "/>
<polyline fill="none" stroke="black" points="315.144,-593.468 336.673,-593.468 "/>
<polyline fill="none" stroke="black" points="351.679,-600.861 351.679,-611.468 "/>
<polyline fill="none" stroke="black" points="336.673,-618.861 315.144,-618.861 "/>
<text text-anchor="middle" x="325.909" y="-602.465" font-family="Times,serif" font-size="14.00">App</text>
</g>
<!-- App&#45;&gt;Core_App -->
<g id="edge74" class="edge"><title>App&#45;&gt;Core_App</title>
<path fill="none" stroke="black" d="M357.772,-608.667C374.991,-611.742 395.345,-618.483 407.441,-633.165 465.38,-703.486 470.976,-997.098 471.283,-1089.32"/>
<polygon fill="black" stroke="black" points="467.783,-1089.55 471.297,-1099.54 474.783,-1089.54 467.783,-1089.55"/>
</g>
<!-- App&#45;&gt;DBManager -->
<g id="edge77" class="edge"><title>App&#45;&gt;DBManager</title>
<path fill="none" stroke="black" d="M327.136,-588.612C329.241,-508.202 349.801,-173.212 544.974,-39.1647 651.667,34.1137 814.205,-12.7783 895.927,-44.3095"/>
<polygon fill="black" stroke="black" points="894.896,-47.665 905.483,-48.0695 897.459,-41.151 894.896,-47.665"/>
</g>
<!-- App&#45;&gt;Pager -->
<g id="edge76" class="edge"><title>App&#45;&gt;Pager</title>
<path fill="none" stroke="black" d="M337.137,-593.505C365.833,-558.937 451.149,-462.507 544.974,-417.165 579.027,-400.708 622.137,-394.264 652.137,-391.75"/>
<polygon fill="black" stroke="black" points="652.448,-395.237 662.166,-391.015 651.937,-388.256 652.448,-395.237"/>
</g>
<!-- App&#45;&gt;RouteHookRouteMap -->
<g id="edge75" class="edge"><title>App&#45;&gt;RouteHookRouteMap</title>
<path fill="none" stroke="black" d="M362.548,-606.165C419.806,-606.165 533.628,-606.165 610.378,-606.165"/>
<polygon fill="black" stroke="black" points="610.483,-609.665 620.483,-606.165 610.483,-602.665 610.483,-609.665"/>
</g>
</g>
</svg>
