<?xml version="1.0" encoding="UTF-8" standalone="no"?>
<!DOCTYPE svg PUBLIC "-//W3C//DTD SVG 1.1//EN"
 "http://www.w3.org/Graphics/SVG/1.1/DTD/svg11.dtd">
<!-- Generated by graphviz version 2.38.0 (20140413.2041)
 -->
<!-- Title: G Pages: 1 -->
<svg width="892pt" height="894pt"
 viewBox="0.00 0.00 891.56 894.00" xmlns="http://www.w3.org/2000/svg" xmlns:xlink="http://www.w3.org/1999/xlink">
<g id="graph0" class="graph" transform="scale(1 1) rotate(0) translate(4 890)">
<title>G</title>
<polygon fill="white" stroke="none" points="-4,4 -4,-890 887.564,-890 887.564,4 -4,4"/>
<g id="clust1" class="cluster"><title>cluster_SwooleHttpd</title>
<polygon fill="none" stroke="black" points="8,-8 8,-878 875.564,-878 875.564,-8 8,-8"/>
<text text-anchor="middle" x="441.782" y="-862.8" font-family="Times,serif" font-size="14.00">[DNMVCS\SwooleHttpd]</text>
</g>
<g id="clust2" class="cluster"><title>cluster_SwooleHttpd_trait</title>
<polygon fill="none" stroke="black" points="283.261,-114 283.261,-513 867.564,-513 867.564,-114 283.261,-114"/>
<text text-anchor="middle" x="575.413" y="-497.8" font-family="Times,serif" font-size="14.00">[DNMVCS\SwooleHttpd]</text>
</g>
<!-- SwooleHttpd_trait -->
<g id="node1" class="node"><title>SwooleHttpd_trait</title>
<ellipse fill="none" stroke="black" stroke-dasharray="1,5" cx="388.103" cy="-329" rx="96.6831" ry="18"/>
<text text-anchor="middle" x="388.103" y="-325.3" font-family="Times,serif" font-size="14.00">SwooleHttpd_trait</text>
</g>
<!-- SwooleHttpd_SimpleHttpd -->
<g id="node2" class="node"><title>SwooleHttpd_SimpleHttpd</title>
<ellipse fill="lightgrey" stroke="black" cx="708.777" cy="-140" rx="135.676" ry="18"/>
<text text-anchor="middle" x="708.777" y="-136.3" font-family="Times,serif" font-size="14.00">SwooleHttpd_SimpleHttpd</text>
</g>
<!-- SwooleHttpd_trait&#45;&gt;SwooleHttpd_SimpleHttpd -->
<g id="edge1" class="edge"><title>SwooleHttpd_trait&#45;&gt;SwooleHttpd_SimpleHttpd</title>
<path fill="none" stroke="black" d="M484.642,-326.924C498.421,-322.928 511.472,-316.635 521.991,-307 569.366,-263.604 510.927,-210.733 557.991,-167 564.252,-161.182 571.321,-156.404 578.896,-152.495"/>
<polygon fill="black" stroke="black" points="580.386,-155.662 588.001,-148.295 577.454,-149.305 580.386,-155.662"/>
</g>
<!-- SwooleHttpd_Singleton -->
<g id="node3" class="node"><title>SwooleHttpd_Singleton</title>
<ellipse fill="lightgrey" stroke="black" cx="708.777" cy="-194" rx="120.479" ry="18"/>
<text text-anchor="middle" x="708.777" y="-190.3" font-family="Times,serif" font-size="14.00">SwooleHttpd_Singleton</text>
</g>
<!-- SwooleHttpd_trait&#45;&gt;SwooleHttpd_Singleton -->
<g id="edge2" class="edge"><title>SwooleHttpd_trait&#45;&gt;SwooleHttpd_Singleton</title>
<path fill="none" stroke="black" d="M483.477,-325.556C497.401,-321.731 510.803,-315.849 521.991,-307 554.49,-281.295 525.676,-246.937 557.991,-221 566.837,-213.9 576.927,-208.422 587.597,-204.222"/>
<polygon fill="black" stroke="black" points="588.849,-207.491 597.105,-200.851 586.51,-200.893 588.849,-207.491"/>
</g>
<!-- SwooleHttpd_Static -->
<g id="node4" class="node"><title>SwooleHttpd_Static</title>
<ellipse fill="lightgrey" stroke="black" cx="708.777" cy="-248" rx="103.182" ry="18"/>
<text text-anchor="middle" x="708.777" y="-244.3" font-family="Times,serif" font-size="14.00">SwooleHttpd_Static</text>
</g>
<!-- SwooleHttpd_trait&#45;&gt;SwooleHttpd_Static -->
<g id="edge3" class="edge"><title>SwooleHttpd_trait&#45;&gt;SwooleHttpd_Static</title>
<path fill="none" stroke="black" d="M476.679,-321.694C492.247,-318.402 507.957,-313.699 521.991,-307 541.31,-297.778 538.738,-284.359 557.991,-275 573.089,-267.66 589.918,-262.301 606.689,-258.391"/>
<polygon fill="black" stroke="black" points="607.514,-261.793 616.544,-256.252 606.029,-254.953 607.514,-261.793"/>
</g>
<!-- SwooleHttpd_SuperGlobal -->
<g id="node5" class="node"><title>SwooleHttpd_SuperGlobal</title>
<ellipse fill="lightgrey" stroke="black" cx="708.777" cy="-302" rx="133.477" ry="18"/>
<text text-anchor="middle" x="708.777" y="-298.3" font-family="Times,serif" font-size="14.00">SwooleHttpd_SuperGlobal</text>
</g>
<!-- SwooleHttpd_trait&#45;&gt;SwooleHttpd_SuperGlobal -->
<g id="edge4" class="edge"><title>SwooleHttpd_trait&#45;&gt;SwooleHttpd_SuperGlobal</title>
<path fill="none" stroke="black" d="M476.603,-321.586C510.12,-318.747 549,-315.453 585.201,-312.385"/>
<polygon fill="black" stroke="black" points="585.666,-315.859 595.334,-311.527 585.075,-308.884 585.666,-315.859"/>
</g>
<!-- SwooleHttpd_SystemWrapper -->
<g id="node6" class="node"><title>SwooleHttpd_SystemWrapper</title>
<ellipse fill="lightgrey" stroke="black" cx="708.777" cy="-356" rx="150.574" ry="18"/>
<text text-anchor="middle" x="708.777" y="-352.3" font-family="Times,serif" font-size="14.00">SwooleHttpd_SystemWrapper</text>
</g>
<!-- SwooleHttpd_trait&#45;&gt;SwooleHttpd_SystemWrapper -->
<g id="edge5" class="edge"><title>SwooleHttpd_trait&#45;&gt;SwooleHttpd_SystemWrapper</title>
<path fill="none" stroke="black" d="M476.603,-336.414C506.995,-338.988 541.796,-341.937 575.011,-344.751"/>
<polygon fill="black" stroke="black" points="575.002,-348.263 585.262,-345.62 575.593,-341.288 575.002,-348.263"/>
</g>
<!-- SwooleHttpd_WebSocket -->
<g id="node7" class="node"><title>SwooleHttpd_WebSocket</title>
<ellipse fill="lightgrey" stroke="black" cx="708.777" cy="-410" rx="128.077" ry="18"/>
<text text-anchor="middle" x="708.777" y="-406.3" font-family="Times,serif" font-size="14.00">SwooleHttpd_WebSocket</text>
</g>
<!-- SwooleHttpd_trait&#45;&gt;SwooleHttpd_WebSocket -->
<g id="edge6" class="edge"><title>SwooleHttpd_trait&#45;&gt;SwooleHttpd_WebSocket</title>
<path fill="none" stroke="black" d="M476.679,-336.306C492.247,-339.598 507.957,-344.301 521.991,-351 541.31,-360.222 538.738,-373.641 557.991,-383 569.732,-388.708 582.52,-393.218 595.514,-396.78"/>
<polygon fill="black" stroke="black" points="594.922,-400.241 605.477,-399.324 596.653,-393.459 594.922,-400.241"/>
</g>
<!-- SwooleHttpd_Handler -->
<g id="node8" class="node"><title>SwooleHttpd_Handler</title>
<ellipse fill="lightgrey" stroke="black" cx="708.777" cy="-464" rx="114.28" ry="18"/>
<text text-anchor="middle" x="708.777" y="-460.3" font-family="Times,serif" font-size="14.00">SwooleHttpd_Handler</text>
</g>
<!-- SwooleHttpd_trait&#45;&gt;SwooleHttpd_Handler -->
<g id="edge7" class="edge"><title>SwooleHttpd_trait&#45;&gt;SwooleHttpd_Handler</title>
<path fill="none" stroke="black" d="M483.477,-332.444C497.401,-336.269 510.803,-342.151 521.991,-351 554.49,-376.705 525.676,-411.063 557.991,-437 567.666,-444.765 578.83,-450.591 590.611,-454.926"/>
<polygon fill="black" stroke="black" points="589.583,-458.272 600.176,-458.092 591.782,-451.627 589.583,-458.272"/>
</g>
<!-- SwooleHttpd -->
<g id="node9" class="node"><title>SwooleHttpd</title>
<polygon fill="lightgrey" stroke="black" points="117.107,-665 15.8926,-647 117.107,-629 218.322,-647 117.107,-665"/>
<polyline fill="none" stroke="black" points="27.7072,-649.101 27.7072,-644.899 "/>
<polyline fill="none" stroke="black" points="105.293,-631.101 128.922,-631.101 "/>
<polyline fill="none" stroke="black" points="206.507,-644.899 206.507,-649.101 "/>
<polyline fill="none" stroke="black" points="128.922,-662.899 105.293,-662.899 "/>
<text text-anchor="middle" x="117.107" y="-643.3" font-family="Times,serif" font-size="14.00">SwooleHttpd</text>
</g>
<!-- SwooleHttpd&#45;&gt;SwooleHttpd_trait -->
<g id="edge8" class="edge"><title>SwooleHttpd&#45;&gt;SwooleHttpd_trait</title>
<path fill="none" stroke="black" d="M120.452,-629.489C128.4,-577.54 159.346,-423.409 254.215,-351 262.896,-344.374 272.833,-339.433 283.278,-335.783"/>
<polygon fill="black" stroke="black" points="284.47,-339.078 292.992,-332.783 282.404,-332.39 284.47,-339.078"/>
</g>
<!-- SwooleCoroutineSingleton -->
<g id="node10" class="node"><title>SwooleCoroutineSingleton</title>
<ellipse fill="lightgrey" stroke="black" cx="388.103" cy="-539" rx="133.776" ry="18"/>
<text text-anchor="middle" x="388.103" y="-535.3" font-family="Times,serif" font-size="14.00">SwooleCoroutineSingleton</text>
</g>
<!-- SwooleHttpd&#45;&gt;SwooleCoroutineSingleton -->
<g id="edge9" class="edge"><title>SwooleHttpd&#45;&gt;SwooleCoroutineSingleton</title>
<path fill="none" stroke="black" d="M137.758,-632.383C163.283,-614.107 209.84,-583.142 254.215,-566 265.281,-561.725 277.139,-558.087 289.049,-555.001"/>
<polygon fill="black" stroke="black" points="290.178,-558.328 299.05,-552.536 288.503,-551.531 290.178,-558.328"/>
</g>
<!-- SwooleContext -->
<g id="node11" class="node"><title>SwooleContext</title>
<ellipse fill="lightgrey" stroke="black" cx="388.103" cy="-593" rx="80.6858" ry="18"/>
<text text-anchor="middle" x="388.103" y="-589.3" font-family="Times,serif" font-size="14.00">SwooleContext</text>
</g>
<!-- SwooleHttpd&#45;&gt;SwooleContext -->
<g id="edge10" class="edge"><title>SwooleHttpd&#45;&gt;SwooleContext</title>
<path fill="none" stroke="black" d="M165.271,-637.532C207.331,-629.089 269.468,-616.615 317.287,-607.015"/>
<polygon fill="black" stroke="black" points="318.146,-610.413 327.261,-605.013 316.768,-603.55 318.146,-610.413"/>
</g>
<!-- SwooleException -->
<g id="node12" class="node"><title>SwooleException</title>
<ellipse fill="lightgrey" stroke="black" cx="388.103" cy="-647" rx="90.1842" ry="18"/>
<text text-anchor="middle" x="388.103" y="-643.3" font-family="Times,serif" font-size="14.00">SwooleException</text>
</g>
<!-- SwooleHttpd&#45;&gt;SwooleException -->
<g id="edge11" class="edge"><title>SwooleHttpd&#45;&gt;SwooleException</title>
<path fill="none" stroke="black" d="M218.271,-647C240.81,-647 264.728,-647 287.254,-647"/>
<polygon fill="black" stroke="black" points="287.496,-650.5 297.496,-647 287.496,-643.5 287.496,-650.5"/>
</g>
<!-- Swoole404Exception -->
<g id="node13" class="node"><title>Swoole404Exception</title>
<ellipse fill="lightgrey" stroke="black" cx="388.103" cy="-701" rx="107.781" ry="18"/>
<text text-anchor="middle" x="388.103" y="-697.3" font-family="Times,serif" font-size="14.00">Swoole404Exception</text>
</g>
<!-- SwooleHttpd&#45;&gt;Swoole404Exception -->
<g id="edge12" class="edge"><title>SwooleHttpd&#45;&gt;Swoole404Exception</title>
<path fill="none" stroke="black" d="M165.271,-656.468C204.787,-664.401 262.023,-675.891 308.458,-685.212"/>
<polygon fill="black" stroke="black" points="308.001,-688.69 318.494,-687.227 309.379,-681.827 308.001,-688.69"/>
</g>
<!-- SwooleSessionHandler -->
<g id="node14" class="node"><title>SwooleSessionHandler</title>
<ellipse fill="lightgrey" stroke="black" cx="388.103" cy="-755" rx="116.18" ry="18"/>
<text text-anchor="middle" x="388.103" y="-751.3" font-family="Times,serif" font-size="14.00">SwooleSessionHandler</text>
</g>
<!-- SwooleHttpd&#45;&gt;SwooleSessionHandler -->
<g id="edge13" class="edge"><title>SwooleHttpd&#45;&gt;SwooleSessionHandler</title>
<path fill="none" stroke="black" d="M137.758,-661.617C163.283,-679.893 209.84,-710.858 254.215,-728 266.761,-732.847 280.327,-736.875 293.831,-740.209"/>
<polygon fill="black" stroke="black" points="293.102,-743.633 303.638,-742.515 294.705,-736.818 293.102,-743.633"/>
</g>
<!-- SwooleSuperGlobal -->
<g id="node15" class="node"><title>SwooleSuperGlobal</title>
<ellipse fill="lightgrey" stroke="black" cx="388.103" cy="-809" rx="100.983" ry="18"/>
<text text-anchor="middle" x="388.103" y="-805.3" font-family="Times,serif" font-size="14.00">SwooleSuperGlobal</text>
</g>
<!-- SwooleHttpd&#45;&gt;SwooleSuperGlobal -->
<g id="edge14" class="edge"><title>SwooleHttpd&#45;&gt;SwooleSuperGlobal</title>
<path fill="none" stroke="black" d="M129.133,-662.894C149.981,-691.634 198.153,-752.034 254.215,-782 266.077,-788.341 279.263,-793.196 292.591,-796.913"/>
<polygon fill="black" stroke="black" points="291.747,-800.31 302.305,-799.423 293.499,-793.532 291.747,-800.31"/>
</g>
<!-- SwooleSingleton -->
<g id="node16" class="node"><title>SwooleSingleton</title>
<polygon fill="lightgrey" stroke="black" points="708.777,-773 585.443,-755 708.777,-737 832.112,-755 708.777,-773"/>
<polyline fill="none" stroke="black" points="597.317,-756.733 597.317,-753.267 "/>
<polyline fill="none" stroke="black" points="696.903,-738.733 720.652,-738.733 "/>
<polyline fill="none" stroke="black" points="820.238,-753.267 820.238,-756.733 "/>
<polyline fill="none" stroke="black" points="720.652,-771.267 696.903,-771.267 "/>
<text text-anchor="middle" x="708.777" y="-751.3" font-family="Times,serif" font-size="14.00">SwooleSingleton</text>
</g>
<!-- SwooleHttpd&#45;&gt;SwooleSingleton -->
<g id="edge15" class="edge"><title>SwooleHttpd&#45;&gt;SwooleSingleton</title>
<path fill="none" stroke="black" stroke-dasharray="1,5" d="M124.127,-664C139.013,-703.092 181.696,-798.858 254.215,-836 397.712,-909.496 596.409,-817.049 674.432,-774.404"/>
<polygon fill="black" stroke="black" points="676.289,-777.376 683.337,-769.465 672.894,-771.255 676.289,-777.376"/>
</g>
<!-- SwooleExtServerInterface -->
<g id="node19" class="node"><title>SwooleExtServerInterface</title>
<ellipse fill="lightgrey" stroke="black" cx="388.103" cy="-88" rx="133.477" ry="18"/>
<text text-anchor="middle" x="388.103" y="-84.3" font-family="Times,serif" font-size="14.00">SwooleExtServerInterface</text>
</g>
<!-- SwooleHttpd&#45;&gt;SwooleExtServerInterface -->
<g id="edge22" class="edge"><title>SwooleHttpd&#45;&gt;SwooleExtServerInterface</title>
<path fill="none" stroke="black" stroke-dasharray="5,2" d="M120.012,-629.355C129.484,-544.952 174.29,-183.466 254.215,-110 257.275,-107.187 260.55,-104.659 263.997,-102.389"/>
<polygon fill="black" stroke="black" points="265.973,-105.29 272.891,-97.2656 262.479,-99.2249 265.973,-105.29"/>
</g>
<!-- SwooleCoroutineSingleton&#45;&gt;SwooleSingleton -->
<g id="edge16" class="edge"><title>SwooleCoroutineSingleton&#45;&gt;SwooleSingleton</title>
<path fill="none" stroke="black" stroke-dasharray="1,5" d="M485.527,-551.475C498.216,-555.142 510.714,-559.88 521.991,-566 597.719,-607.096 662.068,-689.198 691.165,-730.326"/>
<polygon fill="black" stroke="black" points="688.402,-732.483 696.991,-738.685 694.145,-728.48 688.402,-732.483"/>
</g>
<!-- SwooleContext&#45;&gt;SwooleSingleton -->
<g id="edge17" class="edge"><title>SwooleContext&#45;&gt;SwooleSingleton</title>
<path fill="none" stroke="black" stroke-dasharray="1,5" d="M459.458,-601.506C480.168,-605.534 502.489,-611.421 521.991,-620 586.524,-648.388 650.546,-701.967 683.975,-732.394"/>
<polygon fill="black" stroke="black" points="681.682,-735.041 691.409,-739.24 686.424,-729.892 681.682,-735.041"/>
</g>
<!-- SwooleSessionHandler&#45;&gt;SwooleSingleton -->
<g id="edge19" class="edge"><title>SwooleSessionHandler&#45;&gt;SwooleSingleton</title>
<path fill="none" stroke="black" stroke-dasharray="1,5" d="M504.602,-755C527.591,-755 551.901,-755 575.404,-755"/>
<polygon fill="black" stroke="black" points="575.421,-758.5 585.421,-755 575.421,-751.5 575.421,-758.5"/>
</g>
<!-- SwooleSuperGlobal&#45;&gt;SwooleSingleton -->
<g id="edge18" class="edge"><title>SwooleSuperGlobal&#45;&gt;SwooleSingleton</title>
<path fill="none" stroke="black" stroke-dasharray="1,5" d="M461.814,-796.679C515.744,-787.54 588.696,-775.179 641.125,-766.294"/>
<polygon fill="black" stroke="black" points="641.721,-769.743 650.995,-764.622 640.551,-762.842 641.721,-769.743"/>
</g>
<!-- SwooleExt -->
<g id="node17" class="node"><title>SwooleExt</title>
<polygon fill="lightgrey" stroke="black" points="117.107,-79 32.4823,-61 117.107,-43 201.732,-61 117.107,-79"/>
<polyline fill="none" stroke="black" points="44.2197,-63.4966 44.2197,-58.5034 "/>
<polyline fill="none" stroke="black" points="105.37,-45.4966 128.845,-45.4966 "/>
<polyline fill="none" stroke="black" points="189.995,-58.5034 189.995,-63.4966 "/>
<polyline fill="none" stroke="black" points="128.845,-76.5034 105.37,-76.5034 "/>
<text text-anchor="middle" x="117.107" y="-57.3" font-family="Times,serif" font-size="14.00">SwooleExt</text>
</g>
<!-- SwooleExtAppInterface -->
<g id="node18" class="node"><title>SwooleExtAppInterface</title>
<ellipse fill="lightgrey" stroke="black" cx="388.103" cy="-34" rx="120.779" ry="18"/>
<text text-anchor="middle" x="388.103" y="-30.3" font-family="Times,serif" font-size="14.00">SwooleExtAppInterface</text>
</g>
<!-- SwooleExt&#45;&gt;SwooleExtAppInterface -->
<g id="edge20" class="edge"><title>SwooleExt&#45;&gt;SwooleExtAppInterface</title>
<path fill="none" stroke="black" d="M175.154,-55.274C204.842,-52.2942 242.166,-48.5478 277.188,-45.0325"/>
<polygon fill="black" stroke="black" points="277.882,-48.4806 287.482,-43.9993 277.183,-41.5156 277.882,-48.4806"/>
</g>
<!-- SwooleExt&#45;&gt;SwooleExtServerInterface -->
<g id="edge21" class="edge"><title>SwooleExt&#45;&gt;SwooleExtServerInterface</title>
<path fill="none" stroke="black" d="M175.154,-66.726C202.967,-69.5177 237.483,-72.9821 270.529,-76.2991"/>
<polygon fill="black" stroke="black" points="270.429,-79.8065 280.728,-77.3228 271.128,-72.8415 270.429,-79.8065"/>
</g>
</g>
</svg>
