<?xml version="1.0" encoding="UTF-8" standalone="no"?>
<!DOCTYPE svg PUBLIC "-//W3C//DTD SVG 1.1//EN"
 "http://www.w3.org/Graphics/SVG/1.1/DTD/svg11.dtd">
<!-- Generated by graphviz version 2.38.0 (20140413.2041)
 -->
<!-- Title: DuckPhp Pages: 1 -->
<svg width="1441pt" height="2551pt"
 viewBox="0.00 0.00 1441.03 2551.00" xmlns="http://www.w3.org/2000/svg" xmlns:xlink="http://www.w3.org/1999/xlink">
<g id="graph0" class="graph" transform="scale(1 1) rotate(0) translate(4 2547)">
<title>DuckPhp</title>
<polygon fill="white" stroke="none" points="-4,4 -4,-2547 1437.03,-2547 1437.03,4 -4,4"/>
<g id="clust1" class="cluster"><title>cluster_HttpServer</title>
<polygon fill="none" stroke="black" points="34.1171,-200 34.1171,-381 168.515,-381 168.515,-200 34.1171,-200"/>
<text text-anchor="middle" x="101.316" y="-367.4" font-family="Times,serif" font-size="12.00">[DuckPhp\HttpServer]</text>
</g>
<g id="clust2" class="cluster"><title>cluster_SingletonEx</title>
<polygon fill="none" stroke="black" points="8,-1156 8,-1283 194.632,-1283 194.632,-1156 8,-1156"/>
<text text-anchor="middle" x="101.316" y="-1269.4" font-family="Times,serif" font-size="12.00">[DuckPhp\SingletonEx]</text>
</g>
<g id="clust3" class="cluster"><title>cluster_ThrowOn</title>
<polygon fill="none" stroke="black" points="18.4469,-1675 18.4469,-1748 184.185,-1748 184.185,-1675 18.4469,-1675"/>
<text text-anchor="middle" x="101.316" y="-1734.4" font-family="Times,serif" font-size="12.00">[DuckPhp\ThrowOn]</text>
</g>
<g id="clust4" class="cluster"><title>cluster_Core</title>
<polygon fill="none" stroke="black" points="419.523,-1924 419.523,-2361 1425.03,-2361 1425.03,-1924 419.523,-1924"/>
<text text-anchor="middle" x="922.277" y="-2347.4" font-family="Times,serif" font-size="12.00">[DuckPhp\Core]</text>
</g>
<g id="clust5" class="cluster"><title>cluster_Helper</title>
<polygon fill="none" stroke="black" points="8.87057,-1948 8.87057,-2237 388.332,-2237 388.332,-1948 8.87057,-1948"/>
<text text-anchor="middle" x="198.601" y="-2223.4" font-family="Times,serif" font-size="12.00">[DuckPhp\Helper]</text>
</g>
<g id="clust6" class="cluster"><title>cluster_Db</title>
<polygon fill="none" stroke="black" points="65.4577,-2408 65.4577,-2535 399.523,-2535 399.523,-2408 65.4577,-2408"/>
<text text-anchor="middle" x="232.49" y="-2521.4" font-family="Times,serif" font-size="12.00">[DuckPhp\Db]</text>
</g>
<g id="clust7" class="cluster"><title>cluster_Component</title>
<polygon fill="none" stroke="black" points="716.694,-1372 716.694,-1769 1123.53,-1769 1123.53,-1372 716.694,-1372"/>
<text text-anchor="middle" x="920.113" y="-1755.4" font-family="Times,serif" font-size="12.00">[DuckPhp\Component]</text>
</g>
<g id="clust8" class="cluster"><title>cluster_DuckPhp</title>
<polygon fill="none" stroke="black" points="245.102,-1480 245.102,-1553 369.053,-1553 369.053,-1480 245.102,-1480"/>
<text text-anchor="middle" x="307.077" y="-1539.4" font-family="Times,serif" font-size="12.00">[DuckPhp]</text>
</g>
<g id="clust9" class="cluster"><title>cluster_Foundation</title>
<polygon fill="none" stroke="black" points="948.162,-8 948.162,-351 1276.03,-351 1276.03,-8 948.162,-8"/>
<text text-anchor="middle" x="1112.1" y="-337.4" font-family="Times,serif" font-size="12.00">[DuckPhp\Foundation]</text>
</g>
<g id="clust10" class="cluster"><title>cluster_Ext</title>
<polygon fill="none" stroke="black" points="723.416,-359 723.416,-1296 1128.03,-1296 1128.03,-359 723.416,-359"/>
<text text-anchor="middle" x="925.724" y="-1282.4" font-family="Times,serif" font-size="12.00">[DuckPhp\Ext]</text>
</g>
<!-- AppInterface -->
<g id="node1" class="node"><title>AppInterface</title>
<polygon fill="none" stroke="black" points="134.816,-352 61.816,-352 61.816,-316 140.816,-316 140.816,-346 134.816,-352"/>
<polyline fill="none" stroke="black" points="134.816,-352 134.816,-346 "/>
<polyline fill="none" stroke="black" points="140.816,-346 134.816,-346 "/>
<text text-anchor="middle" x="101.316" y="-330.9" font-family="Times,serif" font-size="12.00">AppInterface</text>
</g>
<!-- HttpServer -->
<g id="node2" class="node"><title>HttpServer</title>
<polygon fill="lightgrey" stroke="black" points="101.316,-298 41.9176,-280 101.316,-262 160.714,-280 101.316,-298"/>
<polyline fill="none" stroke="black" points="53.4019,-283.48 53.4019,-276.52 "/>
<polyline fill="none" stroke="black" points="89.8317,-265.48 112.8,-265.48 "/>
<polyline fill="none" stroke="black" points="149.23,-276.52 149.23,-283.48 "/>
<polyline fill="none" stroke="black" points="112.8,-294.52 89.8317,-294.52 "/>
<text text-anchor="middle" x="101.316" y="-276.9" font-family="Times,serif" font-size="12.00">HttpServer</text>
</g>
<!-- ServerInterface -->
<g id="node3" class="node"><title>ServerInterface</title>
<polygon fill="none" stroke="black" points="139.816,-244 56.816,-244 56.816,-208 145.816,-208 145.816,-238 139.816,-244"/>
<polyline fill="none" stroke="black" points="139.816,-244 139.816,-238 "/>
<polyline fill="none" stroke="black" points="145.816,-238 139.816,-238 "/>
<text text-anchor="middle" x="101.316" y="-222.9" font-family="Times,serif" font-size="12.00">ServerInterface</text>
</g>
<!-- SingletonExTrait -->
<g id="node4" class="node"><title>SingletonExTrait</title>
<polygon fill="lightgrey" stroke="black" points="101.316,-1254 16.1836,-1236 101.316,-1218 186.448,-1236 101.316,-1254"/>
<polyline fill="none" stroke="black" points="27.924,-1238.48 27.924,-1233.52 "/>
<polyline fill="none" stroke="black" points="89.5756,-1220.48 113.056,-1220.48 "/>
<polyline fill="none" stroke="black" points="174.708,-1233.52 174.708,-1238.48 "/>
<polyline fill="none" stroke="black" points="113.056,-1251.52 89.5756,-1251.52 "/>
<text text-anchor="middle" x="101.316" y="-1232.9" font-family="Times,serif" font-size="12.00">SingletonExTrait</text>
</g>
<!-- SimpleReplacer -->
<g id="node5" class="node"><title>SimpleReplacer</title>
<ellipse fill="none" stroke="black" cx="101.316" cy="-1182" rx="56.7683" ry="18"/>
<text text-anchor="middle" x="101.316" y="-1178.9" font-family="Times,serif" font-size="12.00">SimpleReplacer</text>
</g>
<!-- ThrowOnTrait -->
<g id="node6" class="node"><title>ThrowOnTrait</title>
<polygon fill="lightgrey" stroke="black" points="101.316,-1719 26.5775,-1701 101.316,-1683 176.055,-1701 101.316,-1719"/>
<polyline fill="none" stroke="black" points="38.2439,-1703.81 38.2439,-1698.19 "/>
<polyline fill="none" stroke="black" points="89.6496,-1685.81 112.982,-1685.81 "/>
<polyline fill="none" stroke="black" points="164.388,-1698.19 164.388,-1703.81 "/>
<polyline fill="none" stroke="black" points="112.982,-1716.19 89.6496,-1716.19 "/>
<text text-anchor="middle" x="101.316" y="-1697.9" font-family="Times,serif" font-size="12.00">ThrowOnTrait</text>
</g>
<!-- App -->
<g id="node7" class="node"><title>App</title>
<polygon fill="lightgrey" stroke="black" points="547.662,-2100 514.498,-2082 547.662,-2064 580.825,-2082 547.662,-2100"/>
<polyline fill="none" stroke="black" points="525.045,-2087.72 525.045,-2076.28 "/>
<polyline fill="none" stroke="black" points="537.115,-2069.72 558.208,-2069.72 "/>
<polyline fill="none" stroke="black" points="570.279,-2076.28 570.279,-2087.72 "/>
<polyline fill="none" stroke="black" points="558.208,-2094.28 537.115,-2094.28 "/>
<text text-anchor="middle" x="547.662" y="-2078.9" font-family="Times,serif" font-size="12.00">App</text>
</g>
<!-- KernelTrait -->
<g id="node8" class="node"><title>KernelTrait</title>
<polygon fill="none" stroke="black" points="803.916,-2157 742.295,-2139 803.916,-2121 865.538,-2139 803.916,-2157"/>
<text text-anchor="middle" x="803.916" y="-2135.9" font-family="Times,serif" font-size="12.00">KernelTrait</text>
</g>
<!-- App&#45;&gt;KernelTrait -->
<g id="edge8" class="edge"><title>App&#45;&gt;KernelTrait</title>
<path fill="none" stroke="black" d="M571.674,-2087.16C613.82,-2096.61 704.064,-2116.84 758.516,-2129.05"/>
<polygon fill="black" stroke="black" points="758.052,-2132.53 768.576,-2131.3 759.584,-2125.7 758.052,-2132.53"/>
</g>
<!-- AutoLoader -->
<g id="node9" class="node"><title>AutoLoader</title>
<polygon fill="lightgrey" stroke="black" points="1030.03,-2332 965.687,-2314 1030.03,-2296 1094.38,-2314 1030.03,-2332"/>
<polyline fill="none" stroke="black" points="977.244,-2317.23 977.244,-2310.77 "/>
<polyline fill="none" stroke="black" points="1018.48,-2299.23 1041.59,-2299.23 "/>
<polyline fill="none" stroke="black" points="1082.82,-2310.77 1082.82,-2317.23 "/>
<polyline fill="none" stroke="black" points="1041.59,-2328.77 1018.48,-2328.77 "/>
<text text-anchor="middle" x="1030.03" y="-2310.9" font-family="Times,serif" font-size="12.00">AutoLoader</text>
</g>
<!-- App&#45;&gt;AutoLoader -->
<g id="edge10" class="edge"><title>App&#45;&gt;AutoLoader</title>
<path fill="none" stroke="black" d="M557.407,-2095.07C578.602,-2125.66 635.995,-2202.15 703.801,-2240 786.882,-2286.38 897.3,-2303.71 965.733,-2310.17"/>
<polygon fill="black" stroke="black" points="965.659,-2313.68 975.931,-2311.08 966.283,-2306.7 965.659,-2313.68"/>
</g>
<!-- ExceptionManager -->
<g id="node10" class="node"><title>ExceptionManager</title>
<polygon fill="none" stroke="black" points="1083.53,-2116 976.532,-2116 976.532,-2112 972.532,-2112 972.532,-2108 976.532,-2108 976.532,-2088 972.532,-2088 972.532,-2084 976.532,-2084 976.532,-2080 1083.53,-2080 1083.53,-2116"/>
<polyline fill="none" stroke="black" points="976.532,-2112 980.532,-2112 980.532,-2108 976.532,-2108 "/>
<polyline fill="none" stroke="black" points="976.532,-2088 980.532,-2088 980.532,-2084 976.532,-2084 "/>
<text text-anchor="middle" x="1030.03" y="-2094.9" font-family="Times,serif" font-size="12.00">ExceptionManager</text>
</g>
<!-- App&#45;&gt;ExceptionManager -->
<g id="edge13" class="edge"><title>App&#45;&gt;ExceptionManager</title>
<path fill="none" stroke="black" d="M579.075,-2083.01C656.418,-2085.59 861.853,-2092.43 966.247,-2095.91"/>
<polygon fill="black" stroke="black" points="966.22,-2099.41 976.331,-2096.24 966.453,-2092.41 966.22,-2099.41"/>
</g>
<!-- View -->
<g id="node11" class="node"><title>View</title>
<polygon fill="none" stroke="black" points="1057.03,-1988 1003.03,-1988 1003.03,-1984 999.032,-1984 999.032,-1980 1003.03,-1980 1003.03,-1960 999.032,-1960 999.032,-1956 1003.03,-1956 1003.03,-1952 1057.03,-1952 1057.03,-1988"/>
<polyline fill="none" stroke="black" points="1003.03,-1984 1007.03,-1984 1007.03,-1980 1003.03,-1980 "/>
<polyline fill="none" stroke="black" points="1003.03,-1960 1007.03,-1960 1007.03,-1956 1003.03,-1956 "/>
<text text-anchor="middle" x="1030.03" y="-1966.9" font-family="Times,serif" font-size="12.00">View</text>
</g>
<!-- App&#45;&gt;View -->
<g id="edge16" class="edge"><title>App&#45;&gt;View</title>
<path fill="none" stroke="black" d="M568.009,-2074.72C597.125,-2063.98 654.098,-2043.77 703.801,-2031 807.205,-2004.43 931.873,-1984.29 992.439,-1975.25"/>
<polygon fill="black" stroke="black" points="993.256,-1978.66 1002.64,-1973.74 992.232,-1971.74 993.256,-1978.66"/>
</g>
<!-- Configer -->
<g id="node12" class="node"><title>Configer</title>
<polygon fill="none" stroke="black" points="1059.53,-2042 1000.53,-2042 1000.53,-2038 996.532,-2038 996.532,-2034 1000.53,-2034 1000.53,-2014 996.532,-2014 996.532,-2010 1000.53,-2010 1000.53,-2006 1059.53,-2006 1059.53,-2042"/>
<polyline fill="none" stroke="black" points="1000.53,-2038 1004.53,-2038 1004.53,-2034 1000.53,-2034 "/>
<polyline fill="none" stroke="black" points="1000.53,-2014 1004.53,-2014 1004.53,-2010 1000.53,-2010 "/>
<text text-anchor="middle" x="1030.03" y="-2020.9" font-family="Times,serif" font-size="12.00">Configer</text>
</g>
<!-- App&#45;&gt;Configer -->
<g id="edge11" class="edge"><title>App&#45;&gt;Configer</title>
<path fill="none" stroke="black" d="M572.77,-2077.44C603.211,-2071.8 657.237,-2062.19 703.801,-2056 806.731,-2042.33 928.709,-2031.85 989.896,-2026.99"/>
<polygon fill="black" stroke="black" points="990.548,-2030.45 1000.24,-2026.17 989.999,-2023.47 990.548,-2030.45"/>
</g>
<!-- Logger -->
<g id="node13" class="node"><title>Logger</title>
<polygon fill="none" stroke="black" points="830.916,-1973 776.916,-1973 776.916,-1969 772.916,-1969 772.916,-1965 776.916,-1965 776.916,-1945 772.916,-1945 772.916,-1941 776.916,-1941 776.916,-1937 830.916,-1937 830.916,-1973"/>
<polyline fill="none" stroke="black" points="776.916,-1969 780.916,-1969 780.916,-1965 776.916,-1965 "/>
<polyline fill="none" stroke="black" points="776.916,-1945 780.916,-1945 780.916,-1941 776.916,-1941 "/>
<text text-anchor="middle" x="803.916" y="-1951.9" font-family="Times,serif" font-size="12.00">Logger</text>
</g>
<!-- App&#45;&gt;Logger -->
<g id="edge12" class="edge"><title>App&#45;&gt;Logger</title>
<path fill="none" stroke="black" d="M565.402,-2073.54C593.825,-2059.18 653.349,-2029.15 703.801,-2004 724.963,-1993.45 748.709,-1981.71 767.652,-1972.36"/>
<polygon fill="black" stroke="black" points="769.386,-1975.41 776.807,-1967.85 766.29,-1969.13 769.386,-1975.41"/>
</g>
<!-- Route -->
<g id="node14" class="node"><title>Route</title>
<polygon fill="lightgrey" stroke="black" points="1030.03,-2170 990.68,-2152 1030.03,-2134 1069.38,-2152 1030.03,-2170"/>
<polyline fill="none" stroke="black" points="1001.59,-2156.99 1001.59,-2147.01 "/>
<polyline fill="none" stroke="black" points="1019.12,-2138.99 1040.94,-2138.99 "/>
<polyline fill="none" stroke="black" points="1058.47,-2147.01 1058.47,-2156.99 "/>
<polyline fill="none" stroke="black" points="1040.94,-2165.01 1019.12,-2165.01 "/>
<text text-anchor="middle" x="1030.03" y="-2148.9" font-family="Times,serif" font-size="12.00">Route</text>
</g>
<!-- App&#45;&gt;Route -->
<g id="edge14" class="edge"><title>App&#45;&gt;Route</title>
<path fill="none" stroke="black" d="M576.118,-2084.56C607.118,-2087.44 659.07,-2092.19 703.801,-2096 792.755,-2103.57 816.777,-2093.12 904.032,-2112 920.658,-2115.6 923.887,-2119.64 940.032,-2125 958.179,-2131.02 978.582,-2137.25 995.27,-2142.21"/>
<polygon fill="black" stroke="black" points="994.546,-2145.64 1005.13,-2145.11 996.526,-2138.93 994.546,-2145.64"/>
</g>
<!-- RuntimeState -->
<g id="node15" class="node"><title>RuntimeState</title>
<polygon fill="none" stroke="black" points="1070.03,-2278 990.032,-2278 990.032,-2274 986.032,-2274 986.032,-2270 990.032,-2270 990.032,-2250 986.032,-2250 986.032,-2246 990.032,-2246 990.032,-2242 1070.03,-2242 1070.03,-2278"/>
<polyline fill="none" stroke="black" points="990.032,-2274 994.032,-2274 994.032,-2270 990.032,-2270 "/>
<polyline fill="none" stroke="black" points="990.032,-2250 994.032,-2250 994.032,-2246 990.032,-2246 "/>
<text text-anchor="middle" x="1030.03" y="-2256.9" font-family="Times,serif" font-size="12.00">RuntimeState</text>
</g>
<!-- App&#45;&gt;RuntimeState -->
<g id="edge15" class="edge"><title>App&#45;&gt;RuntimeState</title>
<path fill="none" stroke="black" d="M562.772,-2092.18C589.043,-2110.52 647.877,-2148.83 703.801,-2166 789.296,-2192.25 825.907,-2142.47 904.032,-2186 927.017,-2198.81 918.403,-2218.02 940.032,-2233 951.887,-2241.21 966.305,-2246.98 980.052,-2251.01"/>
<polygon fill="black" stroke="black" points="979.334,-2254.44 989.899,-2253.65 981.145,-2247.68 979.334,-2254.44"/>
</g>
<!-- SystemWrapperTrait -->
<g id="node16" class="node"><title>SystemWrapperTrait</title>
<polygon fill="none" stroke="black" points="803.916,-2231 703.685,-2213 803.916,-2195 904.148,-2213 803.916,-2231"/>
<text text-anchor="middle" x="803.916" y="-2209.9" font-family="Times,serif" font-size="12.00">SystemWrapperTrait</text>
</g>
<!-- App&#45;&gt;SystemWrapperTrait -->
<g id="edge9" class="edge"><title>App&#45;&gt;SystemWrapperTrait</title>
<path fill="none" stroke="black" d="M562.088,-2092.26C588.166,-2111.8 648.013,-2154.73 703.801,-2181 719.109,-2188.21 736.469,-2194.42 752.336,-2199.41"/>
<polygon fill="black" stroke="black" points="751.405,-2202.78 761.991,-2202.35 753.445,-2196.09 751.405,-2202.78"/>
</g>
<!-- ComponentBase -->
<g id="node19" class="node"><title>ComponentBase</title>
<polygon fill="none" stroke="black" points="1259.53,-1968 1168.53,-1968 1164.53,-1964 1164.53,-1932 1255.53,-1932 1259.53,-1936 1259.53,-1968"/>
<polyline fill="none" stroke="black" points="1255.53,-1964 1164.53,-1964 "/>
<polyline fill="none" stroke="black" points="1255.53,-1964 1255.53,-1932 "/>
<polyline fill="none" stroke="black" points="1255.53,-1964 1259.53,-1968 "/>
<text text-anchor="middle" x="1212.03" y="-1946.9" font-family="Times,serif" font-size="12.00">ComponentBase</text>
</g>
<!-- App&#45;&gt;ComponentBase -->
<g id="edge17" class="edge"><title>App&#45;&gt;ComponentBase</title>
<path fill="none" stroke="black" stroke-dasharray="1,5" d="M579.132,-2081.05C695.062,-2077.35 1103.37,-2063.47 1128.03,-2051 1159.5,-2035.09 1183.35,-2001.28 1197.23,-1977.17"/>
<polygon fill="black" stroke="black" points="1200.44,-1978.59 1202.22,-1968.14 1194.32,-1975.2 1200.44,-1978.59"/>
</g>
<!-- KernelTrait&#45;&gt;AutoLoader -->
<g id="edge1" class="edge"><title>KernelTrait&#45;&gt;AutoLoader</title>
<path fill="none" stroke="black" d="M837.443,-2147.33C858.98,-2154.37 886.404,-2166.51 904.032,-2186 935.996,-2221.35 905.538,-2254.12 940.032,-2287 949.439,-2295.97 961.727,-2301.96 974.156,-2305.97"/>
<polygon fill="black" stroke="black" points="973.527,-2309.43 984.102,-2308.78 975.429,-2302.7 973.527,-2309.43"/>
</g>
<!-- KernelTrait&#45;&gt;ExceptionManager -->
<g id="edge3" class="edge"><title>KernelTrait&#45;&gt;ExceptionManager</title>
<path fill="none" stroke="black" d="M842.428,-2132.14C876.201,-2125.96 926.509,-2116.76 966.381,-2109.46"/>
<polygon fill="black" stroke="black" points="967.07,-2112.89 976.277,-2107.65 965.81,-2106.01 967.07,-2112.89"/>
</g>
<!-- KernelTrait&#45;&gt;View -->
<g id="edge6" class="edge"><title>KernelTrait&#45;&gt;View</title>
<path fill="none" stroke="black" d="M814.964,-2124.14C835.216,-2095.33 883.833,-2031.64 940.032,-1997 956.082,-1987.11 976.006,-1980.62 992.932,-1976.49"/>
<polygon fill="black" stroke="black" points="994.036,-1979.83 1003.02,-1974.22 992.496,-1973 994.036,-1979.83"/>
</g>
<!-- KernelTrait&#45;&gt;Configer -->
<g id="edge2" class="edge"><title>KernelTrait&#45;&gt;Configer</title>
<path fill="none" stroke="black" d="M827.225,-2127.55C865.63,-2107.85 944.625,-2067.31 991.584,-2043.22"/>
<polygon fill="black" stroke="black" points="993.228,-2046.31 1000.53,-2038.63 990.032,-2040.08 993.228,-2046.31"/>
</g>
<!-- KernelTrait&#45;&gt;Route -->
<g id="edge4" class="edge"><title>KernelTrait&#45;&gt;Route</title>
<path fill="none" stroke="black" d="M855.772,-2141.95C894.61,-2144.2 947.597,-2147.28 984.713,-2149.43"/>
<polygon fill="black" stroke="black" points="984.55,-2152.93 994.736,-2150.01 984.956,-2145.94 984.55,-2152.93"/>
</g>
<!-- KernelTrait&#45;&gt;RuntimeState -->
<g id="edge5" class="edge"><title>KernelTrait&#45;&gt;RuntimeState</title>
<path fill="none" stroke="black" d="M845.3,-2145.08C864.686,-2149.63 887.28,-2157.49 904.032,-2171 928.838,-2191 915.049,-2213.22 940.032,-2233 951.442,-2242.03 965.848,-2248.05 979.728,-2252.06"/>
<polygon fill="black" stroke="black" points="979.133,-2255.52 989.691,-2254.64 980.886,-2248.74 979.133,-2255.52"/>
</g>
<!-- Functions -->
<g id="node20" class="node"><title>Functions</title>
<ellipse fill="none" stroke="black" cx="1030.03" cy="-2206" rx="38.5652" ry="18"/>
<text text-anchor="middle" x="1030.03" y="-2202.9" font-family="Times,serif" font-size="12.00">Functions</text>
</g>
<!-- KernelTrait&#45;&gt;Functions -->
<g id="edge7" class="edge"><title>KernelTrait&#45;&gt;Functions</title>
<path fill="none" stroke="black" d="M835.142,-2148.04C874.381,-2159.77 943.057,-2180.3 987.26,-2193.51"/>
<polygon fill="black" stroke="black" points="986.535,-2196.95 997.119,-2196.46 988.54,-2190.24 986.535,-2196.95"/>
</g>
<!-- ExceptionManager&#45;&gt;ComponentBase -->
<g id="edge18" class="edge"><title>ExceptionManager&#45;&gt;ComponentBase</title>
<path fill="none" stroke="black" stroke-dasharray="1,5" d="M1083.78,-2087.17C1099.02,-2082.37 1115.03,-2075.56 1128.03,-2066 1159.83,-2042.61 1184.21,-2003.36 1198.08,-1977.08"/>
<polygon fill="black" stroke="black" points="1201.27,-1978.54 1202.71,-1968.04 1195.04,-1975.35 1201.27,-1978.54"/>
</g>
<!-- View&#45;&gt;ComponentBase -->
<g id="edge22" class="edge"><title>View&#45;&gt;ComponentBase</title>
<path fill="none" stroke="black" stroke-dasharray="1,5" d="M1057.21,-1967.09C1082.46,-1964.29 1121.52,-1959.95 1153.96,-1956.34"/>
<polygon fill="black" stroke="black" points="1154.68,-1959.78 1164.23,-1955.2 1153.91,-1952.83 1154.68,-1959.78"/>
</g>
<!-- Configer&#45;&gt;ComponentBase -->
<g id="edge19" class="edge"><title>Configer&#45;&gt;ComponentBase</title>
<path fill="none" stroke="black" stroke-dasharray="1,5" d="M1059.66,-2017.97C1079.3,-2013.37 1105.75,-2006.25 1128.03,-1997 1143.72,-1990.49 1160.15,-1981.66 1174.22,-1973.4"/>
<polygon fill="black" stroke="black" points="1176.31,-1976.23 1183.09,-1968.09 1172.71,-1970.23 1176.31,-1976.23"/>
</g>
<!-- Logger&#45;&gt;ComponentBase -->
<g id="edge23" class="edge"><title>Logger&#45;&gt;ComponentBase</title>
<path fill="none" stroke="black" stroke-dasharray="1,5" d="M831.026,-1951.99C858.207,-1949.02 902.036,-1944.68 940.032,-1943 1023.51,-1939.3 1044.55,-1939.49 1128.03,-1943 1136.44,-1943.35 1145.32,-1943.91 1154.02,-1944.56"/>
<polygon fill="black" stroke="black" points="1153.86,-1948.05 1164.11,-1945.35 1154.41,-1941.08 1153.86,-1948.05"/>
</g>
<!-- Route&#45;&gt;ComponentBase -->
<g id="edge20" class="edge"><title>Route&#45;&gt;ComponentBase</title>
<path fill="none" stroke="black" stroke-dasharray="1,5" d="M1064.37,-2149.66C1084.76,-2146.67 1110.25,-2139.97 1128.03,-2125 1173.77,-2086.5 1196.01,-2017.07 1205.33,-1978.24"/>
<polygon fill="black" stroke="black" points="1208.82,-1978.68 1207.63,-1968.15 1201.99,-1977.13 1208.82,-1978.68"/>
</g>
<!-- RuntimeState&#45;&gt;ComponentBase -->
<g id="edge21" class="edge"><title>RuntimeState&#45;&gt;ComponentBase</title>
<path fill="none" stroke="black" stroke-dasharray="1,5" d="M1070.46,-2257.86C1090.11,-2254.81 1112.85,-2247.98 1128.03,-2233 1199.27,-2162.74 1210.11,-2034.86 1211.26,-1978.25"/>
<polygon fill="black" stroke="black" points="1214.76,-1978.27 1211.37,-1968.23 1207.76,-1978.19 1214.76,-1978.27"/>
</g>
<!-- ExtendableStaticCallTrait -->
<g id="node17" class="node"><title>ExtendableStaticCallTrait</title>
<polygon fill="none" stroke="black" points="547.662,-2330 427.384,-2312 547.662,-2294 667.94,-2312 547.662,-2330"/>
<text text-anchor="middle" x="547.662" y="-2308.9" font-family="Times,serif" font-size="12.00">ExtendableStaticCallTrait</text>
</g>
<!-- ComponentInterface -->
<g id="node18" class="node"><title>ComponentInterface</title>
<polygon fill="none" stroke="black" points="1411.03,-1968 1304.03,-1968 1304.03,-1932 1417.03,-1932 1417.03,-1962 1411.03,-1968"/>
<polyline fill="none" stroke="black" points="1411.03,-1968 1411.03,-1962 "/>
<polyline fill="none" stroke="black" points="1417.03,-1962 1411.03,-1962 "/>
<text text-anchor="middle" x="1360.53" y="-1946.9" font-family="Times,serif" font-size="12.00">ComponentInterface</text>
</g>
<!-- ComponentBase&#45;&gt;ComponentInterface -->
<g id="edge24" class="edge"><title>ComponentBase&#45;&gt;ComponentInterface</title>
<path fill="none" stroke="black" d="M1259.79,-1950C1270.67,-1950 1282.45,-1950 1293.98,-1950"/>
<polygon fill="black" stroke="black" points="1294.01,-1953.5 1304.01,-1950 1294.01,-1946.5 1294.01,-1953.5"/>
</g>
<!-- AdvanceHelper -->
<g id="node21" class="node"><title>AdvanceHelper</title>
<polygon fill="lightgrey" stroke="black" points="101.316,-1992 21.1307,-1974 101.316,-1956 181.501,-1974 101.316,-1992"/>
<polyline fill="none" stroke="black" points="32.8394,-1976.63 32.8394,-1971.37 "/>
<polyline fill="none" stroke="black" points="89.6074,-1958.63 113.025,-1958.63 "/>
<polyline fill="none" stroke="black" points="169.793,-1971.37 169.793,-1976.63 "/>
<polyline fill="none" stroke="black" points="113.025,-1989.37 89.6074,-1989.37 "/>
<text text-anchor="middle" x="101.316" y="-1970.9" font-family="Times,serif" font-size="12.00">AdvanceHelper</text>
</g>
<!-- AdvanceHelper&#45;&gt;ExtendableStaticCallTrait -->
<g id="edge30" class="edge"><title>AdvanceHelper&#45;&gt;ExtendableStaticCallTrait</title>
<path fill="none" stroke="black" d="M158.028,-1979.47C171.816,-1983.46 185.298,-1990.09 194.632,-2001 257.554,-2074.56 156.108,-2146.68 222.632,-2217 277.591,-2275.1 322.925,-2227.01 399.523,-2250 438.046,-2261.56 480.168,-2279.94 509.435,-2293.68"/>
<polygon fill="black" stroke="black" points="508.308,-2297.02 518.843,-2298.15 511.312,-2290.7 508.308,-2297.02"/>
</g>
<!-- AdvanceHelperTrait -->
<g id="node26" class="node"><title>AdvanceHelperTrait</title>
<ellipse fill="none" stroke="black" cx="307.077" cy="-1974" rx="70.3543" ry="18"/>
<text text-anchor="middle" x="307.077" y="-1970.9" font-family="Times,serif" font-size="12.00">AdvanceHelperTrait</text>
</g>
<!-- AdvanceHelper&#45;&gt;AdvanceHelperTrait -->
<g id="edge35" class="edge"><title>AdvanceHelper&#45;&gt;AdvanceHelperTrait</title>
<path fill="none" stroke="black" d="M181.679,-1974C196.478,-1974 211.944,-1974 226.743,-1974"/>
<polygon fill="black" stroke="black" points="226.864,-1977.5 236.864,-1974 226.864,-1970.5 226.864,-1977.5"/>
</g>
<!-- ControllerHelper -->
<g id="node22" class="node"><title>ControllerHelper</title>
<polygon fill="lightgrey" stroke="black" points="101.316,-2208 16.9251,-2190 101.316,-2172 185.707,-2190 101.316,-2208"/>
<polyline fill="none" stroke="black" points="28.6611,-2192.5 28.6611,-2187.5 "/>
<polyline fill="none" stroke="black" points="89.58,-2174.5 113.052,-2174.5 "/>
<polyline fill="none" stroke="black" points="173.971,-2187.5 173.971,-2192.5 "/>
<polyline fill="none" stroke="black" points="113.052,-2205.5 89.58,-2205.5 "/>
<text text-anchor="middle" x="101.316" y="-2186.9" font-family="Times,serif" font-size="12.00">ControllerHelper</text>
</g>
<!-- ControllerHelper&#45;&gt;ExtendableStaticCallTrait -->
<g id="edge31" class="edge"><title>ControllerHelper&#45;&gt;ExtendableStaticCallTrait</title>
<path fill="none" stroke="black" d="M107.828,-2206.71C120.92,-2243.31 157.741,-2329.98 222.632,-2364 318.384,-2414.2 450.221,-2361.41 512.037,-2330.73"/>
<polygon fill="black" stroke="black" points="513.649,-2333.83 520.989,-2326.19 510.486,-2327.59 513.649,-2333.83"/>
</g>
<!-- ControllerHelperTrait -->
<g id="node27" class="node"><title>ControllerHelperTrait</title>
<ellipse fill="none" stroke="black" cx="307.077" cy="-2190" rx="73.0105" ry="18"/>
<text text-anchor="middle" x="307.077" y="-2186.9" font-family="Times,serif" font-size="12.00">ControllerHelperTrait</text>
</g>
<!-- ControllerHelper&#45;&gt;ControllerHelperTrait -->
<g id="edge36" class="edge"><title>ControllerHelper&#45;&gt;ControllerHelperTrait</title>
<path fill="none" stroke="black" d="M185.782,-2190C198.146,-2190 210.884,-2190 223.236,-2190"/>
<polygon fill="black" stroke="black" points="223.504,-2193.5 233.504,-2190 223.504,-2186.5 223.504,-2193.5"/>
</g>
<!-- ModelHelper -->
<g id="node23" class="node"><title>ModelHelper</title>
<polygon fill="lightgrey" stroke="black" points="101.316,-2154 31.5243,-2136 101.316,-2118 171.108,-2136 101.316,-2154"/>
<polyline fill="none" stroke="black" points="43.144,-2139 43.144,-2133 "/>
<polyline fill="none" stroke="black" points="89.6962,-2121 112.936,-2121 "/>
<polyline fill="none" stroke="black" points="159.488,-2133 159.488,-2139 "/>
<polyline fill="none" stroke="black" points="112.936,-2151 89.6962,-2151 "/>
<text text-anchor="middle" x="101.316" y="-2132.9" font-family="Times,serif" font-size="12.00">ModelHelper</text>
</g>
<!-- ModelHelper&#45;&gt;ExtendableStaticCallTrait -->
<g id="edge32" class="edge"><title>ModelHelper&#45;&gt;ExtendableStaticCallTrait</title>
<path fill="none" stroke="black" d="M153.883,-2140.68C168.964,-2144.53 184.186,-2151.28 194.632,-2163 243.551,-2217.86 166.428,-2278.63 222.632,-2326 303.268,-2393.97 439.35,-2354.99 506.59,-2329.17"/>
<polygon fill="black" stroke="black" points="507.972,-2332.39 515.997,-2325.47 505.41,-2325.88 507.972,-2332.39"/>
</g>
<!-- ModelHelperTrait -->
<g id="node28" class="node"><title>ModelHelperTrait</title>
<ellipse fill="none" stroke="black" cx="307.077" cy="-2136" rx="62.5805" ry="18"/>
<text text-anchor="middle" x="307.077" y="-2132.9" font-family="Times,serif" font-size="12.00">ModelHelperTrait</text>
</g>
<!-- ModelHelper&#45;&gt;ModelHelperTrait -->
<g id="edge37" class="edge"><title>ModelHelper&#45;&gt;ModelHelperTrait</title>
<path fill="none" stroke="black" d="M171.016,-2136C191.278,-2136 213.505,-2136 233.974,-2136"/>
<polygon fill="black" stroke="black" points="234.18,-2139.5 244.18,-2136 234.18,-2132.5 234.18,-2139.5"/>
</g>
<!-- BusinessHelper -->
<g id="node24" class="node"><title>BusinessHelper</title>
<polygon fill="lightgrey" stroke="black" points="101.316,-2100 21.8714,-2082 101.316,-2064 180.761,-2082 101.316,-2100"/>
<polyline fill="none" stroke="black" points="33.5747,-2084.65 33.5747,-2079.35 "/>
<polyline fill="none" stroke="black" points="89.6126,-2066.65 113.019,-2066.65 "/>
<polyline fill="none" stroke="black" points="169.057,-2079.35 169.057,-2084.65 "/>
<polyline fill="none" stroke="black" points="113.019,-2097.35 89.6126,-2097.35 "/>
<text text-anchor="middle" x="101.316" y="-2078.9" font-family="Times,serif" font-size="12.00">BusinessHelper</text>
</g>
<!-- BusinessHelper&#45;&gt;ExtendableStaticCallTrait -->
<g id="edge33" class="edge"><title>BusinessHelper&#45;&gt;ExtendableStaticCallTrait</title>
<path fill="none" stroke="black" d="M157.359,-2087.49C171.312,-2091.47 185.045,-2098.08 194.632,-2109 247.771,-2169.5 163.429,-2233.42 222.632,-2288 254.964,-2317.81 368.102,-2320.21 451.627,-2317.53"/>
<polygon fill="black" stroke="black" points="451.787,-2321.03 461.659,-2317.18 451.543,-2314.03 451.787,-2321.03"/>
</g>
<!-- BusinessHelperTrait -->
<g id="node29" class="node"><title>BusinessHelperTrait</title>
<ellipse fill="none" stroke="black" cx="307.077" cy="-2082" rx="69.6227" ry="18"/>
<text text-anchor="middle" x="307.077" y="-2078.9" font-family="Times,serif" font-size="12.00">BusinessHelperTrait</text>
</g>
<!-- BusinessHelper&#45;&gt;BusinessHelperTrait -->
<g id="edge38" class="edge"><title>BusinessHelper&#45;&gt;BusinessHelperTrait</title>
<path fill="none" stroke="black" d="M180.804,-2082C195.925,-2082 211.772,-2082 226.915,-2082"/>
<polygon fill="black" stroke="black" points="227.267,-2085.5 237.267,-2082 227.267,-2078.5 227.267,-2085.5"/>
</g>
<!-- ViewHelper -->
<g id="node25" class="node"><title>ViewHelper</title>
<polygon fill="lightgrey" stroke="black" points="101.316,-2046 36.2296,-2028 101.316,-2010 166.402,-2028 101.316,-2046"/>
<polyline fill="none" stroke="black" points="47.7955,-2031.2 47.7955,-2024.8 "/>
<polyline fill="none" stroke="black" points="89.7502,-2013.2 112.882,-2013.2 "/>
<polyline fill="none" stroke="black" points="154.837,-2024.8 154.837,-2031.2 "/>
<polyline fill="none" stroke="black" points="112.882,-2042.8 89.7502,-2042.8 "/>
<text text-anchor="middle" x="101.316" y="-2024.9" font-family="Times,serif" font-size="12.00">ViewHelper</text>
</g>
<!-- ViewHelper&#45;&gt;ExtendableStaticCallTrait -->
<g id="edge34" class="edge"><title>ViewHelper&#45;&gt;ExtendableStaticCallTrait</title>
<path fill="none" stroke="black" d="M152.152,-2032.03C167.869,-2035.78 183.91,-2042.64 194.632,-2055 251.998,-2121.14 162.175,-2186.67 222.632,-2250 231.483,-2259.27 386.442,-2285.9 478.813,-2301.07"/>
<polygon fill="black" stroke="black" points="478.492,-2304.57 488.927,-2302.73 479.624,-2297.66 478.492,-2304.57"/>
</g>
<!-- ViewHelperTrait -->
<g id="node30" class="node"><title>ViewHelperTrait</title>
<ellipse fill="none" stroke="black" cx="307.077" cy="-2028" rx="60.1555" ry="18"/>
<text text-anchor="middle" x="307.077" y="-2024.9" font-family="Times,serif" font-size="12.00">ViewHelperTrait</text>
</g>
<!-- ViewHelper&#45;&gt;ViewHelperTrait -->
<g id="edge39" class="edge"><title>ViewHelper&#45;&gt;ViewHelperTrait</title>
<path fill="none" stroke="black" d="M166.508,-2028C188.763,-2028 213.811,-2028 236.481,-2028"/>
<polygon fill="black" stroke="black" points="236.711,-2031.5 246.711,-2028 236.711,-2024.5 236.711,-2031.5"/>
</g>
<!-- AdvanceHelperTrait&#45;&gt;App -->
<g id="edge25" class="edge"><title>AdvanceHelperTrait&#45;&gt;App</title>
<path fill="none" stroke="black" d="M357.639,-1986.52C371.412,-1990.56 386.231,-1995.46 399.523,-2001 444.98,-2019.96 494.506,-2049.16 522.943,-2066.84"/>
<polygon fill="black" stroke="black" points="521.411,-2070.01 531.742,-2072.36 525.131,-2064.08 521.411,-2070.01"/>
</g>
<!-- ControllerHelperTrait&#45;&gt;App -->
<g id="edge26" class="edge"><title>ControllerHelperTrait&#45;&gt;App</title>
<path fill="none" stroke="black" d="M359.068,-2177.06C372.433,-2173.1 386.69,-2168.35 399.523,-2163 444.98,-2144.04 494.506,-2114.84 522.943,-2097.16"/>
<polygon fill="black" stroke="black" points="525.131,-2099.92 531.742,-2091.64 521.411,-2093.99 525.131,-2099.92"/>
</g>
<!-- ModelHelperTrait&#45;&gt;App -->
<g id="edge27" class="edge"><title>ModelHelperTrait&#45;&gt;App</title>
<path fill="none" stroke="black" d="M356.934,-2124.94C403.839,-2114.33 473.377,-2098.59 513.951,-2089.4"/>
<polygon fill="black" stroke="black" points="514.874,-2092.78 523.855,-2087.16 513.329,-2085.96 514.874,-2092.78"/>
</g>
<!-- BusinessHelperTrait&#45;&gt;App -->
<g id="edge28" class="edge"><title>BusinessHelperTrait&#45;&gt;App</title>
<path fill="none" stroke="black" d="M376.766,-2082C417.81,-2082 468.666,-2082 503.987,-2082"/>
<polygon fill="black" stroke="black" points="504.422,-2085.5 514.422,-2082 504.422,-2078.5 504.422,-2085.5"/>
</g>
<!-- ViewHelperTrait&#45;&gt;App -->
<g id="edge29" class="edge"><title>ViewHelperTrait&#45;&gt;App</title>
<path fill="none" stroke="black" d="M355.785,-2038.8C402.696,-2049.42 473.045,-2065.34 513.951,-2074.6"/>
<polygon fill="black" stroke="black" points="513.404,-2078.06 523.93,-2076.85 514.949,-2071.23 513.404,-2078.06"/>
</g>
<!-- Db_Db -->
<g id="node31" class="node"><title>Db_Db</title>
<polygon fill="lightgrey" stroke="black" points="101.316,-2479 73.5987,-2461 101.316,-2443 129.033,-2461 101.316,-2479"/>
<polyline fill="none" stroke="black" points="82.8378,-2467 82.8378,-2455 "/>
<polyline fill="none" stroke="black" points="92.0769,-2449 110.555,-2449 "/>
<polyline fill="none" stroke="black" points="119.794,-2455 119.794,-2467 "/>
<polyline fill="none" stroke="black" points="110.555,-2473 92.0769,-2473 "/>
<text text-anchor="middle" x="101.316" y="-2457.9" font-family="Times,serif" font-size="12.00">Db</text>
</g>
<!-- Db_DbAdvanceTrait -->
<g id="node32" class="node"><title>Db_DbAdvanceTrait</title>
<polygon fill="none" stroke="black" points="307.077,-2506 222.687,-2488 307.077,-2470 391.468,-2488 307.077,-2506"/>
<text text-anchor="middle" x="307.077" y="-2484.9" font-family="Times,serif" font-size="12.00">DbAdvanceTrait</text>
</g>
<!-- Db_Db&#45;&gt;Db_DbAdvanceTrait -->
<g id="edge40" class="edge"><title>Db_Db&#45;&gt;Db_DbAdvanceTrait</title>
<path fill="none" stroke="black" d="M124.51,-2463.94C153.036,-2467.72 203.722,-2474.44 244.304,-2479.81"/>
<polygon fill="black" stroke="black" points="244.011,-2483.31 254.384,-2481.15 244.931,-2476.37 244.011,-2483.31"/>
</g>
<!-- Db_DbInterface -->
<g id="node33" class="node"><title>Db_DbInterface</title>
<polygon fill="none" stroke="black" points="337.577,-2452 270.577,-2452 270.577,-2416 343.577,-2416 343.577,-2446 337.577,-2452"/>
<polyline fill="none" stroke="black" points="337.577,-2452 337.577,-2446 "/>
<polyline fill="none" stroke="black" points="343.577,-2446 337.577,-2446 "/>
<text text-anchor="middle" x="307.077" y="-2430.9" font-family="Times,serif" font-size="12.00">DbInterface</text>
</g>
<!-- Db_Db&#45;&gt;Db_DbInterface -->
<g id="edge41" class="edge"><title>Db_Db&#45;&gt;Db_DbInterface</title>
<path fill="none" stroke="black" d="M124.51,-2458.06C156.908,-2453.77 217.889,-2445.69 260.19,-2440.08"/>
<polygon fill="black" stroke="black" points="260.792,-2443.53 270.246,-2438.75 259.873,-2436.59 260.792,-2443.53"/>
</g>
<!-- AppPluginTrait -->
<g id="node34" class="node"><title>AppPluginTrait</title>
<polygon fill="lightgrey" stroke="black" points="803.916,-1740 724.472,-1722 803.916,-1704 883.361,-1722 803.916,-1740"/>
<polyline fill="none" stroke="black" points="736.175,-1724.65 736.175,-1719.35 "/>
<polyline fill="none" stroke="black" points="792.213,-1706.65 815.62,-1706.65 "/>
<polyline fill="none" stroke="black" points="871.658,-1719.35 871.658,-1724.65 "/>
<polyline fill="none" stroke="black" points="815.62,-1737.35 792.213,-1737.35 "/>
<text text-anchor="middle" x="803.916" y="-1718.9" font-family="Times,serif" font-size="12.00">AppPluginTrait</text>
</g>
<!-- AppPluginTrait&#45;&gt;ExceptionManager -->
<g id="edge43" class="edge"><title>AppPluginTrait&#45;&gt;ExceptionManager</title>
<path fill="none" stroke="black" stroke-dasharray="5,2" d="M814.253,-1737.94C833.288,-1770.96 877.057,-1849.65 904.032,-1920 925.65,-1976.38 902.227,-2003.92 940.032,-2051 947.802,-2060.68 958.109,-2068.6 968.949,-2075"/>
<polygon fill="black" stroke="black" points="967.267,-2078.07 977.718,-2079.81 970.634,-2071.93 967.267,-2078.07"/>
</g>
<!-- AppPluginTrait&#45;&gt;View -->
<g id="edge45" class="edge"><title>AppPluginTrait&#45;&gt;View</title>
<path fill="none" stroke="black" stroke-dasharray="5,2" d="M812.923,-1738.23C831.296,-1774.21 879.59,-1861.92 940.032,-1918 955.749,-1932.58 976.249,-1944.91 993.612,-1953.89"/>
<polygon fill="black" stroke="black" points="992.377,-1957.19 1002.89,-1958.53 995.509,-1950.93 992.377,-1957.19"/>
</g>
<!-- AppPluginTrait&#45;&gt;Configer -->
<g id="edge44" class="edge"><title>AppPluginTrait&#45;&gt;Configer</title>
<path fill="none" stroke="black" stroke-dasharray="5,2" d="M813.157,-1738.1C830.339,-1771.74 871.127,-1852.01 904.032,-1920 920.489,-1954 911.482,-1972.26 940.032,-1997 953.978,-2009.08 973.208,-2015.76 990.227,-2019.45"/>
<polygon fill="black" stroke="black" points="989.994,-2022.97 1000.47,-2021.38 991.292,-2016.09 989.994,-2022.97"/>
</g>
<!-- AppPluginTrait&#45;&gt;Route -->
<g id="edge46" class="edge"><title>AppPluginTrait&#45;&gt;Route</title>
<path fill="none" stroke="black" stroke-dasharray="5,2" d="M814.804,-1737.74C834.857,-1770.4 880.404,-1848.46 904.032,-1920 933.041,-2007.84 878.685,-2055.76 940.032,-2125 951.383,-2137.81 968.592,-2144.64 984.863,-2148.25"/>
<polygon fill="black" stroke="black" points="984.34,-2151.71 994.812,-2150.1 985.622,-2144.83 984.34,-2151.71"/>
</g>
<!-- EventManager -->
<g id="node39" class="node"><title>EventManager</title>
<polygon fill="none" stroke="black" points="1073.03,-1632 987.032,-1632 987.032,-1628 983.032,-1628 983.032,-1624 987.032,-1624 987.032,-1604 983.032,-1604 983.032,-1600 987.032,-1600 987.032,-1596 1073.03,-1596 1073.03,-1632"/>
<polyline fill="none" stroke="black" points="987.032,-1628 991.032,-1628 991.032,-1624 987.032,-1624 "/>
<polyline fill="none" stroke="black" points="987.032,-1604 991.032,-1604 991.032,-1600 987.032,-1600 "/>
<text text-anchor="middle" x="1030.03" y="-1610.9" font-family="Times,serif" font-size="12.00">EventManager</text>
</g>
<!-- AppPluginTrait&#45;&gt;EventManager -->
<g id="edge42" class="edge"><title>AppPluginTrait&#45;&gt;EventManager</title>
<path fill="none" stroke="black" stroke-dasharray="5,2" d="M855.119,-1715.58C871.821,-1711.63 889.779,-1705.27 904.032,-1695 927.434,-1678.14 916.873,-1658.19 940.032,-1641 950.879,-1632.95 964.143,-1627.27 977.086,-1623.28"/>
<polygon fill="black" stroke="black" points="978.185,-1626.61 986.875,-1620.55 976.302,-1619.87 978.185,-1626.61"/>
</g>
<!-- Cache -->
<g id="node35" class="node"><title>Cache</title>
<polygon fill="none" stroke="black" points="830.916,-1686 776.916,-1686 776.916,-1682 772.916,-1682 772.916,-1678 776.916,-1678 776.916,-1658 772.916,-1658 772.916,-1654 776.916,-1654 776.916,-1650 830.916,-1650 830.916,-1686"/>
<polyline fill="none" stroke="black" points="776.916,-1682 780.916,-1682 780.916,-1678 776.916,-1678 "/>
<polyline fill="none" stroke="black" points="776.916,-1658 780.916,-1658 780.916,-1654 776.916,-1654 "/>
<text text-anchor="middle" x="803.916" y="-1664.9" font-family="Times,serif" font-size="12.00">Cache</text>
</g>
<!-- Cache&#45;&gt;ComponentBase -->
<g id="edge47" class="edge"><title>Cache&#45;&gt;ComponentBase</title>
<path fill="none" stroke="black" stroke-dasharray="1,5" d="M831.121,-1667.89C853.685,-1669.27 885.462,-1675.01 904.032,-1695 961.038,-1756.37 882.623,-1819 940.032,-1880 954.803,-1895.69 1079.25,-1923.25 1154.26,-1938.7"/>
<polygon fill="black" stroke="black" points="1154.01,-1942.22 1164.5,-1940.79 1155.41,-1935.36 1154.01,-1942.22"/>
</g>
<!-- Console -->
<g id="node36" class="node"><title>Console</title>
<polygon fill="lightgrey" stroke="black" points="1030.03,-1416 981.527,-1398 1030.03,-1380 1078.54,-1398 1030.03,-1416"/>
<polyline fill="none" stroke="black" points="992.777,-1402.17 992.777,-1393.83 "/>
<polyline fill="none" stroke="black" points="1018.78,-1384.17 1041.28,-1384.17 "/>
<polyline fill="none" stroke="black" points="1067.29,-1393.83 1067.29,-1402.17 "/>
<polyline fill="none" stroke="black" points="1041.28,-1411.83 1018.78,-1411.83 "/>
<text text-anchor="middle" x="1030.03" y="-1394.9" font-family="Times,serif" font-size="12.00">Console</text>
</g>
<!-- DbManager -->
<g id="node37" class="node"><title>DbManager</title>
<polygon fill="none" stroke="black" points="840.916,-1632 766.916,-1632 766.916,-1628 762.916,-1628 762.916,-1624 766.916,-1624 766.916,-1604 762.916,-1604 762.916,-1600 766.916,-1600 766.916,-1596 840.916,-1596 840.916,-1632"/>
<polyline fill="none" stroke="black" points="766.916,-1628 770.916,-1628 770.916,-1624 766.916,-1624 "/>
<polyline fill="none" stroke="black" points="766.916,-1604 770.916,-1604 770.916,-1600 766.916,-1600 "/>
<text text-anchor="middle" x="803.916" y="-1610.9" font-family="Times,serif" font-size="12.00">DbManager</text>
</g>
<!-- DbManager&#45;&gt;ComponentBase -->
<g id="edge49" class="edge"><title>DbManager&#45;&gt;ComponentBase</title>
<path fill="none" stroke="black" stroke-dasharray="1,5" d="M840.966,-1614.64C862.285,-1617 888.14,-1623.63 904.032,-1641 965.296,-1707.96 876.575,-1777.12 940.032,-1842 999.636,-1902.94 1051.27,-1842.92 1128.03,-1880 1150.64,-1890.92 1172.19,-1909.43 1187.67,-1924.67"/>
<polygon fill="black" stroke="black" points="1185.24,-1927.19 1194.75,-1931.84 1190.22,-1922.27 1185.24,-1927.19"/>
</g>
<!-- X_Db_Db -->
<g id="node46" class="node"><title>X_Db_Db</title>
<polygon fill="none" stroke="black" points="1061.03,-1680 981.032,-1680 981.032,-1656 1061.03,-1656 1061.03,-1650 1079.03,-1668 1061.03,-1686 1061.03,-1680"/>
<text text-anchor="middle" x="1030.03" y="-1664.9" font-family="Times,serif" font-size="12.00">DuckPhp\Db\Db</text>
</g>
<!-- DbManager&#45;&gt;X_Db_Db -->
<g id="edge58" class="edge"><title>DbManager&#45;&gt;X_Db_Db</title>
<path fill="none" stroke="black" stroke-dasharray="5,2" d="M840.924,-1622.68C876.018,-1631.13 929.952,-1644.13 971.086,-1654.04"/>
<polygon fill="black" stroke="black" points="970.44,-1657.48 980.982,-1656.42 972.08,-1650.68 970.44,-1657.48"/>
</g>
<!-- DuckPhpCommand -->
<g id="node38" class="node"><title>DuckPhpCommand</title>
<polygon fill="none" stroke="black" points="859.416,-1578 748.416,-1578 748.416,-1574 744.416,-1574 744.416,-1570 748.416,-1570 748.416,-1550 744.416,-1550 744.416,-1546 748.416,-1546 748.416,-1542 859.416,-1542 859.416,-1578"/>
<polyline fill="none" stroke="black" points="748.416,-1574 752.416,-1574 752.416,-1570 748.416,-1570 "/>
<polyline fill="none" stroke="black" points="748.416,-1550 752.416,-1550 752.416,-1546 748.416,-1546 "/>
<text text-anchor="middle" x="803.916" y="-1556.9" font-family="Times,serif" font-size="12.00">DuckPhpCommand</text>
</g>
<!-- DuckPhpCommand&#45;&gt;ComponentBase -->
<g id="edge48" class="edge"><title>DuckPhpCommand&#45;&gt;ComponentBase</title>
<path fill="none" stroke="black" stroke-dasharray="1,5" d="M859.48,-1563.63C875.923,-1567.39 892.615,-1574.36 904.032,-1587 969.563,-1659.55 872.125,-1733.67 940.032,-1804 999.244,-1865.32 1055.69,-1796.9 1128.03,-1842 1159.53,-1861.64 1183.6,-1897.79 1197.52,-1922.83"/>
<polygon fill="black" stroke="black" points="1194.53,-1924.67 1202.35,-1931.82 1200.7,-1921.35 1194.53,-1924.67"/>
</g>
<!-- DuckPhpCommand&#45;&gt;Console -->
<g id="edge55" class="edge"><title>DuckPhpCommand&#45;&gt;Console</title>
<path fill="none" stroke="black" d="M859.638,-1554.96C875.606,-1551.08 891.981,-1544.4 904.032,-1533 940.793,-1498.23 903.772,-1460.29 940.032,-1425 951.032,-1414.29 966.135,-1407.82 980.777,-1403.9"/>
<polygon fill="black" stroke="black" points="981.833,-1407.25 990.784,-1401.58 980.252,-1400.43 981.833,-1407.25"/>
</g>
<!-- Installer -->
<g id="node40" class="node"><title>Installer</title>
<polygon fill="none" stroke="black" points="1057.03,-1524 1003.03,-1524 1003.03,-1520 999.032,-1520 999.032,-1516 1003.03,-1516 1003.03,-1496 999.032,-1496 999.032,-1492 1003.03,-1492 1003.03,-1488 1057.03,-1488 1057.03,-1524"/>
<polyline fill="none" stroke="black" points="1003.03,-1520 1007.03,-1520 1007.03,-1516 1003.03,-1516 "/>
<polyline fill="none" stroke="black" points="1003.03,-1496 1007.03,-1496 1007.03,-1492 1003.03,-1492 "/>
<text text-anchor="middle" x="1030.03" y="-1502.9" font-family="Times,serif" font-size="12.00">Installer</text>
</g>
<!-- DuckPhpCommand&#45;&gt;Installer -->
<g id="edge56" class="edge"><title>DuckPhpCommand&#45;&gt;Installer</title>
<path fill="none" stroke="black" d="M859.455,-1546.86C900.847,-1536.89 956.605,-1523.45 992.687,-1514.76"/>
<polygon fill="black" stroke="black" points="993.863,-1518.07 1002.76,-1512.33 992.223,-1511.27 993.863,-1518.07"/>
</g>
<!-- X_HttpServer -->
<g id="node45" class="node"><title>X_HttpServer</title>
<polygon fill="none" stroke="black" points="1097.53,-1572 944.532,-1572 944.532,-1548 1097.53,-1548 1097.53,-1542 1115.53,-1560 1097.53,-1578 1097.53,-1572"/>
<text text-anchor="middle" x="1030.03" y="-1556.9" font-family="Times,serif" font-size="12.00">DuckPhp\HttpServer\HttpServer</text>
</g>
<!-- DuckPhpCommand&#45;&gt;X_HttpServer -->
<g id="edge57" class="edge"><title>DuckPhpCommand&#45;&gt;X_HttpServer</title>
<path fill="none" stroke="black" stroke-dasharray="5,2" d="M859.455,-1560C881.988,-1560 908.78,-1560 934.336,-1560"/>
<polygon fill="black" stroke="black" points="934.435,-1563.5 944.435,-1560 934.435,-1556.5 934.435,-1563.5"/>
</g>
<!-- EventManager&#45;&gt;ComponentBase -->
<g id="edge50" class="edge"><title>EventManager&#45;&gt;ComponentBase</title>
<path fill="none" stroke="black" stroke-dasharray="1,5" d="M1073.04,-1616.39C1092.14,-1619.58 1113.64,-1626.47 1128.03,-1641 1167.84,-1681.17 1196.83,-1852.9 1207.03,-1921.52"/>
<polygon fill="black" stroke="black" points="1203.59,-1922.22 1208.5,-1931.61 1210.52,-1921.21 1203.59,-1922.22"/>
</g>
<!-- Installer&#45;&gt;ComponentBase -->
<g id="edge51" class="edge"><title>Installer&#45;&gt;ComponentBase</title>
<path fill="none" stroke="black" stroke-dasharray="1,5" d="M1057.1,-1506.1C1079.15,-1507.65 1109.96,-1513.52 1128.03,-1533 1181.06,-1590.16 1203.09,-1836.92 1209.17,-1921.46"/>
<polygon fill="black" stroke="black" points="1205.69,-1921.88 1209.88,-1931.61 1212.67,-1921.39 1205.69,-1921.88"/>
</g>
<!-- Pager -->
<g id="node41" class="node"><title>Pager</title>
<polygon fill="none" stroke="black" points="830.916,-1524 776.916,-1524 776.916,-1520 772.916,-1520 772.916,-1516 776.916,-1516 776.916,-1496 772.916,-1496 772.916,-1492 776.916,-1492 776.916,-1488 830.916,-1488 830.916,-1524"/>
<polyline fill="none" stroke="black" points="776.916,-1520 780.916,-1520 780.916,-1516 776.916,-1516 "/>
<polyline fill="none" stroke="black" points="776.916,-1496 780.916,-1496 780.916,-1492 776.916,-1492 "/>
<text text-anchor="middle" x="803.916" y="-1502.9" font-family="Times,serif" font-size="12.00">Pager</text>
</g>
<!-- Pager&#45;&gt;ComponentBase -->
<g id="edge52" class="edge"><title>Pager&#45;&gt;ComponentBase</title>
<path fill="none" stroke="black" stroke-dasharray="1,5" d="M831.312,-1505.71C854.001,-1506.98 885.854,-1512.65 904.032,-1533 973.837,-1611.15 867.668,-1690.22 940.032,-1766 998.903,-1827.65 1058.98,-1754.01 1128.03,-1804 1168.48,-1833.29 1191.96,-1888.74 1203.07,-1922.24"/>
<polygon fill="black" stroke="black" points="1199.77,-1923.4 1206.12,-1931.87 1206.44,-1921.28 1199.77,-1923.4"/>
</g>
<!-- PagerInterface -->
<g id="node42" class="node"><title>PagerInterface</title>
<polygon fill="none" stroke="black" points="1066.53,-1470 987.532,-1470 987.532,-1434 1072.53,-1434 1072.53,-1464 1066.53,-1470"/>
<polyline fill="none" stroke="black" points="1066.53,-1470 1066.53,-1464 "/>
<polyline fill="none" stroke="black" points="1072.53,-1464 1066.53,-1464 "/>
<text text-anchor="middle" x="1030.03" y="-1448.9" font-family="Times,serif" font-size="12.00">PagerInterface</text>
</g>
<!-- Pager&#45;&gt;PagerInterface -->
<g id="edge59" class="edge"><title>Pager&#45;&gt;PagerInterface</title>
<path fill="none" stroke="black" d="M831.064,-1499.7C866.886,-1491.07 931.981,-1475.38 977.722,-1464.36"/>
<polygon fill="black" stroke="black" points="978.557,-1467.76 987.459,-1462.02 976.917,-1460.96 978.557,-1467.76"/>
</g>
<!-- RouteHookPathInfoCompat -->
<g id="node43" class="node"><title>RouteHookPathInfoCompat</title>
<polygon fill="none" stroke="black" points="878.916,-1470 728.916,-1470 728.916,-1466 724.916,-1466 724.916,-1462 728.916,-1462 728.916,-1442 724.916,-1442 724.916,-1438 728.916,-1438 728.916,-1434 878.916,-1434 878.916,-1470"/>
<polyline fill="none" stroke="black" points="728.916,-1466 732.916,-1466 732.916,-1462 728.916,-1462 "/>
<polyline fill="none" stroke="black" points="728.916,-1442 732.916,-1442 732.916,-1438 728.916,-1438 "/>
<text text-anchor="middle" x="803.916" y="-1448.9" font-family="Times,serif" font-size="12.00">RouteHookPathInfoCompat</text>
</g>
<!-- RouteHookPathInfoCompat&#45;&gt;ComponentBase -->
<g id="edge53" class="edge"><title>RouteHookPathInfoCompat&#45;&gt;ComponentBase</title>
<path fill="none" stroke="black" stroke-dasharray="1,5" d="M879.269,-1461.78C888.647,-1465.82 897.297,-1471.39 904.032,-1479 978.116,-1562.75 863.204,-1646.76 940.032,-1728 998.603,-1789.94 1061.39,-1712.85 1128.03,-1766 1177.56,-1805.5 1198.53,-1880.96 1206.57,-1921.9"/>
<polygon fill="black" stroke="black" points="1203.13,-1922.56 1208.39,-1931.76 1210.02,-1921.29 1203.13,-1922.56"/>
</g>
<!-- RouteHookRouteMap -->
<g id="node44" class="node"><title>RouteHookRouteMap</title>
<polygon fill="none" stroke="black" points="864.916,-1416 742.916,-1416 742.916,-1412 738.916,-1412 738.916,-1408 742.916,-1408 742.916,-1388 738.916,-1388 738.916,-1384 742.916,-1384 742.916,-1380 864.916,-1380 864.916,-1416"/>
<polyline fill="none" stroke="black" points="742.916,-1412 746.916,-1412 746.916,-1408 742.916,-1408 "/>
<polyline fill="none" stroke="black" points="742.916,-1388 746.916,-1388 746.916,-1384 742.916,-1384 "/>
<text text-anchor="middle" x="803.916" y="-1394.9" font-family="Times,serif" font-size="12.00">RouteHookRouteMap</text>
</g>
<!-- RouteHookRouteMap&#45;&gt;ComponentBase -->
<g id="edge54" class="edge"><title>RouteHookRouteMap&#45;&gt;ComponentBase</title>
<path fill="none" stroke="black" stroke-dasharray="1,5" d="M865.147,-1402.77C879.771,-1406.78 894.051,-1413.59 904.032,-1425 983.74,-1516.12 856.21,-1607.65 940.032,-1695 998.769,-1756.21 1062.79,-1673.78 1128.03,-1728 1187.48,-1777.41 1204.38,-1873.85 1209.16,-1921.69"/>
<polygon fill="black" stroke="black" points="1205.7,-1922.29 1210.07,-1931.94 1212.67,-1921.67 1205.7,-1922.29"/>
</g>
<!-- DuckPhp -->
<g id="node47" class="node"><title>DuckPhp</title>
<polygon fill="lightgrey" stroke="black" points="307.077,-1524 253.127,-1506 307.077,-1488 361.028,-1506 307.077,-1524"/>
<polyline fill="none" stroke="black" points="264.51,-1509.8 264.51,-1502.2 "/>
<polyline fill="none" stroke="black" points="295.694,-1491.8 318.461,-1491.8 "/>
<polyline fill="none" stroke="black" points="349.645,-1502.2 349.645,-1509.8 "/>
<polyline fill="none" stroke="black" points="318.461,-1520.2 295.694,-1520.2 "/>
<text text-anchor="middle" x="307.077" y="-1502.9" font-family="Times,serif" font-size="12.00">DuckPhp</text>
</g>
<!-- DuckPhp&#45;&gt;App -->
<g id="edge60" class="edge"><title>DuckPhp&#45;&gt;App</title>
<path fill="none" stroke="black" d="M314.583,-1521.71C347.621,-1601.47 496.824,-1961.68 536.788,-2058.16"/>
<polygon fill="black" stroke="black" points="533.651,-2059.73 540.711,-2067.63 540.118,-2057.06 533.651,-2059.73"/>
</g>
<!-- DuckPhp&#45;&gt;Cache -->
<g id="edge66" class="edge"><title>DuckPhp&#45;&gt;Cache</title>
<path fill="none" stroke="black" d="M321.976,-1519.16C341.937,-1537.3 380.619,-1569.7 419.523,-1587 539.553,-1640.37 696.628,-1659.31 766.581,-1665.4"/>
<polygon fill="black" stroke="black" points="766.392,-1668.89 776.648,-1666.24 766.973,-1661.92 766.392,-1668.89"/>
</g>
<!-- DuckPhp&#45;&gt;Console -->
<g id="edge67" class="edge"><title>DuckPhp&#45;&gt;Console</title>
<path fill="none" stroke="black" d="M313.535,-1489.89C326.042,-1455.85 360.348,-1377.08 419.523,-1345 514.192,-1293.68 799.111,-1312.77 904.032,-1337 940.542,-1345.43 978.719,-1366.06 1003.13,-1380.99"/>
<polygon fill="black" stroke="black" points="1001.44,-1384.07 1011.77,-1386.4 1005.15,-1378.13 1001.44,-1384.07"/>
</g>
<!-- DuckPhp&#45;&gt;DbManager -->
<g id="edge63" class="edge"><title>DuckPhp&#45;&gt;DbManager</title>
<path fill="none" stroke="black" d="M331.133,-1516.16C353.379,-1525.62 388.198,-1539.48 419.523,-1548 538.948,-1580.47 683.836,-1600.27 756.549,-1608.9"/>
<polygon fill="black" stroke="black" points="756.403,-1612.41 766.742,-1610.1 757.217,-1605.46 756.403,-1612.41"/>
</g>
<!-- DuckPhp&#45;&gt;DuckPhpCommand -->
<g id="edge68" class="edge"><title>DuckPhp&#45;&gt;DuckPhpCommand</title>
<path fill="none" stroke="black" d="M346.222,-1510.99C367.734,-1513.76 395.113,-1517.19 419.523,-1520 531.28,-1532.85 661.572,-1546.07 737.875,-1553.63"/>
<polygon fill="black" stroke="black" points="737.98,-1557.16 748.276,-1554.66 738.669,-1550.2 737.98,-1557.16"/>
</g>
<!-- DuckPhp&#45;&gt;EventManager -->
<g id="edge64" class="edge"><title>DuckPhp&#45;&gt;EventManager</title>
<path fill="none" stroke="black" d="M319.787,-1492.06C338.474,-1470.85 377.266,-1430.97 419.523,-1412 518.099,-1367.75 821.585,-1301.16 904.032,-1371 978.292,-1433.91 875.807,-1513.88 940.032,-1587 949.464,-1597.74 963.013,-1604.28 976.706,-1608.24"/>
<polygon fill="black" stroke="black" points="976.097,-1611.7 986.644,-1610.69 977.774,-1604.9 976.097,-1611.7"/>
</g>
<!-- DuckPhp&#45;&gt;Pager -->
<g id="edge62" class="edge"><title>DuckPhp&#45;&gt;Pager</title>
<path fill="none" stroke="black" d="M361.034,-1506C462.156,-1506 680.355,-1506 766.69,-1506"/>
<polygon fill="black" stroke="black" points="766.786,-1509.5 776.786,-1506 766.786,-1502.5 766.786,-1509.5"/>
</g>
<!-- DuckPhp&#45;&gt;RouteHookPathInfoCompat -->
<g id="edge65" class="edge"><title>DuckPhp&#45;&gt;RouteHookPathInfoCompat</title>
<path fill="none" stroke="black" d="M348.153,-1501.63C428.507,-1492.86 610.825,-1472.96 718.622,-1461.2"/>
<polygon fill="black" stroke="black" points="719.254,-1464.65 728.816,-1460.09 718.495,-1457.69 719.254,-1464.65"/>
</g>
<!-- DuckPhp&#45;&gt;RouteHookRouteMap -->
<g id="edge61" class="edge"><title>DuckPhp&#45;&gt;RouteHookRouteMap</title>
<path fill="none" stroke="black" d="M331.133,-1495.84C353.379,-1486.38 388.198,-1472.52 419.523,-1464 526.963,-1434.79 655.011,-1415.83 732.575,-1406.03"/>
<polygon fill="black" stroke="black" points="733.221,-1409.48 742.71,-1404.77 732.354,-1402.54 733.221,-1409.48"/>
</g>
<!-- InstallerBase -->
<g id="node48" class="node"><title>InstallerBase</title>
<ellipse fill="none" stroke="black" cx="1030.03" cy="-304" rx="47.3006" ry="18"/>
<text text-anchor="middle" x="1030.03" y="-300.9" font-family="Times,serif" font-size="12.00">InstallerBase</text>
</g>
<!-- InstallerBase&#45;&gt;ComponentBase -->
<g id="edge69" class="edge"><title>InstallerBase&#45;&gt;ComponentBase</title>
<path fill="none" stroke="black" stroke-dasharray="1,5" d="M1069.69,-314.116C1090.65,-321.739 1114.9,-334.489 1128.03,-355 1215.78,-492.091 1212.39,-1719.52 1211.22,-1921.83"/>
<polygon fill="black" stroke="black" points="1207.72,-1921.92 1211.16,-1931.94 1214.72,-1921.96 1207.72,-1921.92"/>
</g>
<!-- SessionBase -->
<g id="node49" class="node"><title>SessionBase</title>
<ellipse fill="none" stroke="black" cx="1030.03" cy="-250" rx="46.5702" ry="18"/>
<text text-anchor="middle" x="1030.03" y="-246.9" font-family="Times,serif" font-size="12.00">SessionBase</text>
</g>
<!-- SessionBase&#45;&gt;ComponentBase -->
<g id="edge70" class="edge"><title>SessionBase&#45;&gt;ComponentBase</title>
<path fill="none" stroke="black" stroke-dasharray="1,5" d="M1076.72,-251.461C1095.53,-254.566 1115.75,-261.64 1128.03,-277 1181.55,-343.942 1206.89,-1706.68 1210.56,-1921.58"/>
<polygon fill="black" stroke="black" points="1207.07,-1921.79 1210.73,-1931.73 1214.06,-1921.68 1207.07,-1921.79"/>
</g>
<!-- SimpleControllerTrait -->
<g id="node50" class="node"><title>SimpleControllerTrait</title>
<ellipse fill="none" stroke="black" cx="1030.03" cy="-196" rx="73.7411" ry="18"/>
<text text-anchor="middle" x="1030.03" y="-192.9" font-family="Times,serif" font-size="12.00">SimpleControllerTrait</text>
</g>
<!-- SimpleControllerTrait&#45;&gt;ComponentBase -->
<g id="edge71" class="edge"><title>SimpleControllerTrait&#45;&gt;ComponentBase</title>
<path fill="none" stroke="black" stroke-dasharray="1,5" d="M1098.65,-203.083C1109.99,-207.267 1120.51,-213.573 1128.03,-223 1183.31,-292.248 1207.23,-1703.23 1210.61,-1921.69"/>
<polygon fill="black" stroke="black" points="1207.11,-1922.05 1210.77,-1931.99 1214.11,-1921.94 1207.11,-1922.05"/>
</g>
<!-- SimpleModelTrait -->
<g id="node51" class="node"><title>SimpleModelTrait</title>
<ellipse fill="none" stroke="black" cx="1030.03" cy="-34" rx="63.3111" ry="18"/>
<text text-anchor="middle" x="1030.03" y="-30.9" font-family="Times,serif" font-size="12.00">SimpleModelTrait</text>
</g>
<!-- SimpleModelTrait&#45;&gt;ComponentBase -->
<g id="edge72" class="edge"><title>SimpleModelTrait&#45;&gt;ComponentBase</title>
<path fill="none" stroke="black" stroke-dasharray="1,5" d="M1091.43,-38.6924C1105.47,-42.729 1118.95,-49.5738 1128.03,-61 1158.32,-99.1019 1203.75,-1688.8 1210.25,-1921.65"/>
<polygon fill="black" stroke="black" points="1206.75,-1921.8 1210.53,-1931.7 1213.75,-1921.61 1206.75,-1921.8"/>
</g>
<!-- X_Core_App -->
<g id="node54" class="node"><title>X_Core_App</title>
<polygon fill="none" stroke="black" points="1250.03,-46 1156.03,-46 1156.03,-22 1250.03,-22 1250.03,-16 1268.03,-34 1250.03,-52 1250.03,-46"/>
<text text-anchor="middle" x="1212.03" y="-30.9" font-family="Times,serif" font-size="12.00">DuckPhp\Core\App</text>
</g>
<!-- SimpleModelTrait&#45;&gt;X_Core_App -->
<g id="edge75" class="edge"><title>SimpleModelTrait&#45;&gt;X_Core_App</title>
<path fill="none" stroke="black" stroke-dasharray="5,2" d="M1093.48,-34C1110.3,-34 1128.54,-34 1145.52,-34"/>
<polygon fill="black" stroke="black" points="1145.9,-37.5001 1155.9,-34 1145.9,-30.5001 1145.9,-37.5001"/>
</g>
<!-- SqlDumper -->
<g id="node52" class="node"><title>SqlDumper</title>
<ellipse fill="none" stroke="black" cx="1030.03" cy="-142" rx="43.9143" ry="18"/>
<text text-anchor="middle" x="1030.03" y="-138.9" font-family="Times,serif" font-size="12.00">SqlDumper</text>
</g>
<!-- SqlDumper&#45;&gt;ComponentBase -->
<g id="edge73" class="edge"><title>SqlDumper&#45;&gt;ComponentBase</title>
<path fill="none" stroke="black" stroke-dasharray="1,5" d="M1074,-143.017C1093.56,-145.873 1115.18,-152.87 1128.03,-169 1156.57,-204.798 1203.27,-1696.1 1210.17,-1921.57"/>
<polygon fill="black" stroke="black" points="1206.68,-1922 1210.48,-1931.89 1213.68,-1921.79 1206.68,-1922"/>
</g>
<!-- ThrowOnableTrait -->
<g id="node53" class="node"><title>ThrowOnableTrait</title>
<ellipse fill="none" stroke="black" cx="1030.03" cy="-88" rx="65.0054" ry="18"/>
<text text-anchor="middle" x="1030.03" y="-84.9" font-family="Times,serif" font-size="12.00">ThrowOnableTrait</text>
</g>
<!-- ThrowOnableTrait&#45;&gt;ComponentBase -->
<g id="edge74" class="edge"><title>ThrowOnableTrait&#45;&gt;ComponentBase</title>
<path fill="none" stroke="black" stroke-dasharray="1,5" d="M1092.68,-93.0706C1106.27,-97.1507 1119.21,-103.922 1128.03,-115 1157.45,-151.958 1203.53,-1693.13 1210.21,-1921.77"/>
<polygon fill="black" stroke="black" points="1206.72,-1922.04 1210.51,-1931.93 1213.72,-1921.84 1206.72,-1922.04"/>
</g>
<!-- CallableView -->
<g id="node55" class="node"><title>CallableView</title>
<polygon fill="none" stroke="black" points="844.916,-1051 762.916,-1051 762.916,-1047 758.916,-1047 758.916,-1043 762.916,-1043 762.916,-1023 758.916,-1023 758.916,-1019 762.916,-1019 762.916,-1015 844.916,-1015 844.916,-1051"/>
<polyline fill="none" stroke="black" points="762.916,-1047 766.916,-1047 766.916,-1043 762.916,-1043 "/>
<polyline fill="none" stroke="black" points="762.916,-1023 766.916,-1023 766.916,-1019 762.916,-1019 "/>
<text text-anchor="middle" x="803.916" y="-1029.9" font-family="Times,serif" font-size="12.00">CallableView</text>
</g>
<!-- X_Core_View -->
<g id="node76" class="node"><title>X_Core_View</title>
<polygon fill="none" stroke="black" points="1070.53,-1153 971.532,-1153 971.532,-1129 1070.53,-1129 1070.53,-1123 1088.53,-1141 1070.53,-1159 1070.53,-1153"/>
<text text-anchor="middle" x="1030.03" y="-1137.9" font-family="Times,serif" font-size="12.00">DuckPhp\Core\View</text>
</g>
<!-- CallableView&#45;&gt;X_Core_View -->
<g id="edge91" class="edge"><title>CallableView&#45;&gt;X_Core_View</title>
<path fill="none" stroke="black" stroke-dasharray="5,2" d="M845.385,-1037.35C864.565,-1041 886.958,-1047.7 904.032,-1060 927.434,-1076.86 916.873,-1096.81 940.032,-1114 946.576,-1118.86 953.999,-1122.85 961.701,-1126.13"/>
<polygon fill="black" stroke="black" points="960.603,-1129.46 971.193,-1129.79 963.119,-1122.93 960.603,-1129.46"/>
</g>
<!-- EmptyView -->
<g id="node56" class="node"><title>EmptyView</title>
<polygon fill="none" stroke="black" points="840.916,-997 766.916,-997 766.916,-993 762.916,-993 762.916,-989 766.916,-989 766.916,-969 762.916,-969 762.916,-965 766.916,-965 766.916,-961 840.916,-961 840.916,-997"/>
<polyline fill="none" stroke="black" points="766.916,-993 770.916,-993 770.916,-989 766.916,-989 "/>
<polyline fill="none" stroke="black" points="766.916,-969 770.916,-969 770.916,-965 766.916,-965 "/>
<text text-anchor="middle" x="803.916" y="-975.9" font-family="Times,serif" font-size="12.00">EmptyView</text>
</g>
<!-- EmptyView&#45;&gt;X_Core_View -->
<g id="edge92" class="edge"><title>EmptyView&#45;&gt;X_Core_View</title>
<path fill="none" stroke="black" stroke-dasharray="5,2" d="M841.071,-980.606C861.891,-983.356 887.187,-990.069 904.032,-1006 940.793,-1040.77 903.772,-1078.71 940.032,-1114 946.338,-1120.14 953.992,-1124.88 962.134,-1128.56"/>
<polygon fill="black" stroke="black" points="960.902,-1131.83 971.488,-1132.26 963.48,-1125.32 960.902,-1131.83"/>
</g>
<!-- ExceptionWrapper -->
<g id="node57" class="node"><title>ExceptionWrapper</title>
<polygon fill="none" stroke="black" points="856.916,-1267 750.916,-1267 750.916,-1263 746.916,-1263 746.916,-1259 750.916,-1259 750.916,-1239 746.916,-1239 746.916,-1235 750.916,-1235 750.916,-1231 856.916,-1231 856.916,-1267"/>
<polyline fill="none" stroke="black" points="750.916,-1263 754.916,-1263 754.916,-1259 750.916,-1259 "/>
<polyline fill="none" stroke="black" points="750.916,-1239 754.916,-1239 754.916,-1235 750.916,-1235 "/>
<text text-anchor="middle" x="803.916" y="-1245.9" font-family="Times,serif" font-size="12.00">ExceptionWrapper</text>
</g>
<!-- ExceptionWrapper&#45;&gt;ComponentBase -->
<g id="edge76" class="edge"><title>ExceptionWrapper&#45;&gt;ComponentBase</title>
<path fill="none" stroke="black" stroke-dasharray="1,5" d="M857.114,-1265C943.949,-1292.07 1110.35,-1346.12 1128.03,-1368 1198.13,-1454.72 1209.03,-1817.44 1210.72,-1921.8"/>
<polygon fill="black" stroke="black" points="1207.23,-1921.94 1210.87,-1931.89 1214.22,-1921.84 1207.23,-1921.94"/>
</g>
<!-- HookChain -->
<g id="node58" class="node"><title>HookChain</title>
<ellipse fill="none" stroke="black" cx="803.916" cy="-1087" rx="44.1452" ry="18"/>
<text text-anchor="middle" x="803.916" y="-1083.9" font-family="Times,serif" font-size="12.00">HookChain</text>
</g>
<!-- JsonRpcClientBase -->
<g id="node59" class="node"><title>JsonRpcClientBase</title>
<polygon fill="none" stroke="black" points="858.416,-1213 749.416,-1213 749.416,-1209 745.416,-1209 745.416,-1205 749.416,-1205 749.416,-1185 745.416,-1185 745.416,-1181 749.416,-1181 749.416,-1177 858.416,-1177 858.416,-1213"/>
<polyline fill="none" stroke="black" points="749.416,-1209 753.416,-1209 753.416,-1205 749.416,-1205 "/>
<polyline fill="none" stroke="black" points="749.416,-1185 753.416,-1185 753.416,-1181 749.416,-1181 "/>
<text text-anchor="middle" x="803.916" y="-1191.9" font-family="Times,serif" font-size="12.00">JsonRpcClientBase</text>
</g>
<!-- JsonRpcClientBase&#45;&gt;ComponentBase -->
<g id="edge99" class="edge"><title>JsonRpcClientBase&#45;&gt;ComponentBase</title>
<path fill="none" stroke="black" stroke-dasharray="1,5" d="M858.498,-1207.51C945.698,-1228.37 1110.41,-1270.02 1128.03,-1291 1209.86,-1388.42 1212.29,-1807.48 1211.4,-1921.35"/>
<polygon fill="black" stroke="black" points="1207.9,-1921.65 1211.3,-1931.69 1214.9,-1921.72 1207.9,-1921.65"/>
</g>
<!-- JsonRpcExt -->
<g id="node60" class="node"><title>JsonRpcExt</title>
<polygon fill="none" stroke="black" points="1067.03,-1213 993.032,-1213 993.032,-1209 989.032,-1209 989.032,-1205 993.032,-1205 993.032,-1185 989.032,-1185 989.032,-1181 993.032,-1181 993.032,-1177 1067.03,-1177 1067.03,-1213"/>
<polyline fill="none" stroke="black" points="993.032,-1209 997.032,-1209 997.032,-1205 993.032,-1205 "/>
<polyline fill="none" stroke="black" points="993.032,-1185 997.032,-1185 997.032,-1181 993.032,-1181 "/>
<text text-anchor="middle" x="1030.03" y="-1191.9" font-family="Times,serif" font-size="12.00">JsonRpcExt</text>
</g>
<!-- JsonRpcClientBase&#45;&gt;JsonRpcExt -->
<g id="edge98" class="edge"><title>JsonRpcClientBase&#45;&gt;JsonRpcExt</title>
<path fill="none" stroke="black" stroke-dasharray="5,2" d="M858.598,-1189.14C896.432,-1187.87 946.583,-1187.96 982.676,-1189.41"/>
<polygon fill="black" stroke="black" points="982.778,-1192.92 992.928,-1189.88 983.098,-1185.93 982.778,-1192.92"/>
</g>
<!-- JsonRpcExt&#45;&gt;ComponentBase -->
<g id="edge77" class="edge"><title>JsonRpcExt&#45;&gt;ComponentBase</title>
<path fill="none" stroke="black" stroke-dasharray="1,5" d="M1067.44,-1211.02C1088.73,-1222.36 1114.08,-1239.71 1128.03,-1263 1196.37,-1377.06 1208.58,-1807.52 1210.64,-1921.93"/>
<polygon fill="black" stroke="black" points="1207.14,-1922.06 1210.81,-1932 1214.14,-1921.94 1207.14,-1922.06"/>
</g>
<!-- JsonRpcExt&#45;&gt;JsonRpcClientBase -->
<g id="edge97" class="edge"><title>JsonRpcExt&#45;&gt;JsonRpcClientBase</title>
<path fill="none" stroke="black" d="M992.928,-1200.12C959.442,-1201.86 908.862,-1202.21 868.596,-1201.16"/>
<polygon fill="black" stroke="black" points="868.697,-1197.66 858.598,-1200.86 868.489,-1204.66 868.697,-1197.66"/>
</g>
<!-- JsonView -->
<g id="node61" class="node"><title>JsonView</title>
<polygon fill="none" stroke="black" points="835.916,-1159 771.916,-1159 771.916,-1155 767.916,-1155 767.916,-1151 771.916,-1151 771.916,-1131 767.916,-1131 767.916,-1127 771.916,-1127 771.916,-1123 835.916,-1123 835.916,-1159"/>
<polyline fill="none" stroke="black" points="771.916,-1155 775.916,-1155 775.916,-1151 771.916,-1151 "/>
<polyline fill="none" stroke="black" points="771.916,-1131 775.916,-1131 775.916,-1127 771.916,-1127 "/>
<text text-anchor="middle" x="803.916" y="-1137.9" font-family="Times,serif" font-size="12.00">JsonView</text>
</g>
<!-- JsonView&#45;&gt;X_Core_View -->
<g id="edge100" class="edge"><title>JsonView&#45;&gt;X_Core_View</title>
<path fill="none" stroke="black" stroke-dasharray="5,2" d="M836.079,-1141C868.302,-1141 919.634,-1141 961.254,-1141"/>
<polygon fill="black" stroke="black" points="961.335,-1144.5 971.335,-1141 961.335,-1137.5 961.335,-1144.5"/>
</g>
<!-- Misc -->
<g id="node62" class="node"><title>Misc</title>
<polygon fill="none" stroke="black" points="830.916,-457 776.916,-457 776.916,-453 772.916,-453 772.916,-449 776.916,-449 776.916,-429 772.916,-429 772.916,-425 776.916,-425 776.916,-421 830.916,-421 830.916,-457"/>
<polyline fill="none" stroke="black" points="776.916,-453 780.916,-453 780.916,-449 776.916,-449 "/>
<polyline fill="none" stroke="black" points="776.916,-429 780.916,-429 780.916,-425 776.916,-425 "/>
<text text-anchor="middle" x="803.916" y="-435.9" font-family="Times,serif" font-size="12.00">Misc</text>
</g>
<!-- Misc&#45;&gt;ComponentBase -->
<g id="edge78" class="edge"><title>Misc&#45;&gt;ComponentBase</title>
<path fill="none" stroke="black" stroke-dasharray="1,5" d="M830.95,-435.014C893.366,-427.108 1051.98,-417.111 1128.03,-505 1176.19,-560.655 1205.73,-1725.04 1210.38,-1921.86"/>
<polygon fill="black" stroke="black" points="1206.89,-1922.06 1210.62,-1931.97 1213.88,-1921.89 1206.89,-1922.06"/>
</g>
<!-- MyFacadesAutoLoader -->
<g id="node63" class="node"><title>MyFacadesAutoLoader</title>
<polygon fill="none" stroke="black" points="868.416,-943 739.416,-943 739.416,-939 735.416,-939 735.416,-935 739.416,-935 739.416,-915 735.416,-915 735.416,-911 739.416,-911 739.416,-907 868.416,-907 868.416,-943"/>
<polyline fill="none" stroke="black" points="739.416,-939 743.416,-939 743.416,-935 739.416,-935 "/>
<polyline fill="none" stroke="black" points="739.416,-915 743.416,-915 743.416,-911 739.416,-911 "/>
<text text-anchor="middle" x="803.916" y="-921.9" font-family="Times,serif" font-size="12.00">MyFacadesAutoLoader</text>
</g>
<!-- MyFacadesAutoLoader&#45;&gt;ComponentBase -->
<g id="edge80" class="edge"><title>MyFacadesAutoLoader&#45;&gt;ComponentBase</title>
<path fill="none" stroke="black" stroke-dasharray="1,5" d="M868.491,-909.051C951.781,-889.892 1091.55,-864.282 1128.03,-898 1205.38,-969.489 1210.74,-1761.45 1211.03,-1921.79"/>
<polygon fill="black" stroke="black" points="1207.53,-1921.83 1211.04,-1931.83 1214.53,-1921.82 1207.53,-1921.83"/>
</g>
<!-- MyFacadesBase -->
<g id="node64" class="node"><title>MyFacadesBase</title>
<polygon fill="none" stroke="black" points="1077.53,-1105 982.532,-1105 982.532,-1101 978.532,-1101 978.532,-1097 982.532,-1097 982.532,-1077 978.532,-1077 978.532,-1073 982.532,-1073 982.532,-1069 1077.53,-1069 1077.53,-1105"/>
<polyline fill="none" stroke="black" points="982.532,-1101 986.532,-1101 986.532,-1097 982.532,-1097 "/>
<polyline fill="none" stroke="black" points="982.532,-1077 986.532,-1077 986.532,-1073 982.532,-1073 "/>
<text text-anchor="middle" x="1030.03" y="-1083.9" font-family="Times,serif" font-size="12.00">MyFacadesBase</text>
</g>
<!-- MyFacadesAutoLoader&#45;&gt;MyFacadesBase -->
<g id="edge94" class="edge"><title>MyFacadesAutoLoader&#45;&gt;MyFacadesBase</title>
<path fill="none" stroke="black" d="M868.663,-923.772C881.615,-927.605 894.249,-933.748 904.032,-943 940.793,-977.765 903.772,-1015.71 940.032,-1051 948.98,-1059.71 960.643,-1065.62 972.564,-1069.88"/>
<polygon fill="black" stroke="black" points="971.542,-1073.22 982.133,-1072.96 973.687,-1066.56 971.542,-1073.22"/>
</g>
<!-- MyFacadesBase&#45;&gt;ComponentBase -->
<g id="edge79" class="edge"><title>MyFacadesBase&#45;&gt;ComponentBase</title>
<path fill="none" stroke="black" stroke-dasharray="1,5" d="M1077.62,-1088.97C1096.01,-1092.23 1115.66,-1099.28 1128.03,-1114 1181.15,-1177.18 1205.23,-1782.3 1210.09,-1921.53"/>
<polygon fill="black" stroke="black" points="1206.6,-1921.93 1210.44,-1931.8 1213.6,-1921.69 1206.6,-1921.93"/>
</g>
<!-- MyFacadesBase&#45;&gt;MyFacadesAutoLoader -->
<g id="edge93" class="edge"><title>MyFacadesBase&#45;&gt;MyFacadesAutoLoader</title>
<path fill="none" stroke="black" stroke-dasharray="5,2" d="M982.133,-1089.95C967.073,-1086.58 951.372,-1080.04 940.032,-1069 903.772,-1033.71 940.793,-995.765 904.032,-961 896.695,-954.061 887.754,-948.871 878.278,-944.898"/>
<polygon fill="black" stroke="black" points="879.256,-941.527 868.663,-941.311 876.809,-948.085 879.256,-941.527"/>
</g>
<!-- MyMiddlewareManager -->
<g id="node65" class="node"><title>MyMiddlewareManager</title>
<polygon fill="none" stroke="black" points="869.916,-889 737.916,-889 737.916,-885 733.916,-885 733.916,-881 737.916,-881 737.916,-861 733.916,-861 733.916,-857 737.916,-857 737.916,-853 869.916,-853 869.916,-889"/>
<polyline fill="none" stroke="black" points="737.916,-885 741.916,-885 741.916,-881 737.916,-881 "/>
<polyline fill="none" stroke="black" points="737.916,-861 741.916,-861 741.916,-857 737.916,-857 "/>
<text text-anchor="middle" x="803.916" y="-867.9" font-family="Times,serif" font-size="12.00">MyMiddlewareManager</text>
</g>
<!-- MyMiddlewareManager&#45;&gt;ComponentBase -->
<g id="edge81" class="edge"><title>MyMiddlewareManager&#45;&gt;ComponentBase</title>
<path fill="none" stroke="black" stroke-dasharray="1,5" d="M870.062,-862.605C953.68,-853.432 1092.26,-844.166 1128.03,-878 1206.08,-951.825 1210.88,-1759.77 1211.05,-1921.8"/>
<polygon fill="black" stroke="black" points="1207.55,-1921.93 1211.06,-1931.93 1214.55,-1921.93 1207.55,-1921.93"/>
</g>
<!-- RouteHookManager -->
<g id="node70" class="node"><title>RouteHookManager</title>
<polygon fill="none" stroke="black" points="1087.03,-997 973.032,-997 973.032,-993 969.032,-993 969.032,-989 973.032,-989 973.032,-969 969.032,-969 969.032,-965 973.032,-965 973.032,-961 1087.03,-961 1087.03,-997"/>
<polyline fill="none" stroke="black" points="973.032,-993 977.032,-993 977.032,-989 973.032,-989 "/>
<polyline fill="none" stroke="black" points="973.032,-969 977.032,-969 977.032,-965 973.032,-965 "/>
<text text-anchor="middle" x="1030.03" y="-975.9" font-family="Times,serif" font-size="12.00">RouteHookManager</text>
</g>
<!-- MyMiddlewareManager&#45;&gt;RouteHookManager -->
<g id="edge95" class="edge"><title>MyMiddlewareManager&#45;&gt;RouteHookManager</title>
<path fill="none" stroke="black" d="M870.071,-881.573C882.074,-885.452 893.976,-890.754 904.032,-898 927.434,-914.862 916.873,-934.805 940.032,-952 947.002,-957.175 954.97,-961.368 963.21,-964.762"/>
<polygon fill="black" stroke="black" points="961.996,-968.045 972.589,-968.264 964.445,-961.487 961.996,-968.045"/>
</g>
<!-- X_Core_Route -->
<g id="node75" class="node"><title>X_Core_Route</title>
<polygon fill="none" stroke="black" points="1071.53,-1045 970.532,-1045 970.532,-1021 1071.53,-1021 1071.53,-1015 1089.53,-1033 1071.53,-1051 1071.53,-1045"/>
<text text-anchor="middle" x="1030.03" y="-1029.9" font-family="Times,serif" font-size="12.00">DuckPhp\Core\Route</text>
</g>
<!-- MyMiddlewareManager&#45;&gt;X_Core_Route -->
<g id="edge96" class="edge"><title>MyMiddlewareManager&#45;&gt;X_Core_Route</title>
<path fill="none" stroke="black" stroke-dasharray="5,2" d="M869.949,-878.952C882.449,-883.015 894.573,-889.054 904.032,-898 940.793,-932.765 903.772,-970.713 940.032,-1006 945.955,-1011.76 953.068,-1016.3 960.658,-1019.88"/>
<polygon fill="black" stroke="black" points="959.525,-1023.19 970.105,-1023.77 962.195,-1016.72 959.525,-1023.19"/>
</g>
<!-- RedisManager -->
<g id="node66" class="node"><title>RedisManager</title>
<polygon fill="none" stroke="black" points="846.916,-403 760.916,-403 760.916,-399 756.916,-399 756.916,-395 760.916,-395 760.916,-375 756.916,-375 756.916,-371 760.916,-371 760.916,-367 846.916,-367 846.916,-403"/>
<polyline fill="none" stroke="black" points="760.916,-399 764.916,-399 764.916,-395 760.916,-395 "/>
<polyline fill="none" stroke="black" points="760.916,-375 764.916,-375 764.916,-371 760.916,-371 "/>
<text text-anchor="middle" x="803.916" y="-381.9" font-family="Times,serif" font-size="12.00">RedisManager</text>
</g>
<!-- RedisManager&#45;&gt;ComponentBase -->
<g id="edge82" class="edge"><title>RedisManager&#45;&gt;ComponentBase</title>
<path fill="none" stroke="black" stroke-dasharray="1,5" d="M847.021,-375.757C916.884,-363.179 1056.17,-350.316 1128.03,-428 1180.78,-485.016 1206.59,-1717.85 1210.5,-1921.6"/>
<polygon fill="black" stroke="black" points="1207.01,-1921.86 1210.7,-1931.79 1214.01,-1921.72 1207.01,-1921.86"/>
</g>
<!-- RedisCache -->
<g id="node67" class="node"><title>RedisCache</title>
<polygon fill="none" stroke="black" points="840.916,-781 766.916,-781 766.916,-777 762.916,-777 762.916,-773 766.916,-773 766.916,-753 762.916,-753 762.916,-749 766.916,-749 766.916,-745 840.916,-745 840.916,-781"/>
<polyline fill="none" stroke="black" points="766.916,-777 770.916,-777 770.916,-773 766.916,-773 "/>
<polyline fill="none" stroke="black" points="766.916,-753 770.916,-753 770.916,-749 766.916,-749 "/>
<text text-anchor="middle" x="803.916" y="-759.9" font-family="Times,serif" font-size="12.00">RedisCache</text>
</g>
<!-- RedisCache&#45;&gt;ComponentBase -->
<g id="edge83" class="edge"><title>RedisCache&#45;&gt;ComponentBase</title>
<path fill="none" stroke="black" stroke-dasharray="1,5" d="M841.134,-760.545C917.016,-756.257 1088.91,-751.29 1128.03,-791 1209.85,-874.054 1211.58,-1752.22 1211.15,-1921.76"/>
<polygon fill="black" stroke="black" points="1207.65,-1921.87 1211.12,-1931.89 1214.65,-1921.9 1207.65,-1921.87"/>
</g>
<!-- RouteHookApiServer -->
<g id="node68" class="node"><title>RouteHookApiServer</title>
<polygon fill="none" stroke="black" points="864.416,-727 743.416,-727 743.416,-723 739.416,-723 739.416,-719 743.416,-719 743.416,-699 739.416,-699 739.416,-695 743.416,-695 743.416,-691 864.416,-691 864.416,-727"/>
<polyline fill="none" stroke="black" points="743.416,-723 747.416,-723 747.416,-719 743.416,-719 "/>
<polyline fill="none" stroke="black" points="743.416,-699 747.416,-699 747.416,-695 743.416,-695 "/>
<text text-anchor="middle" x="803.916" y="-705.9" font-family="Times,serif" font-size="12.00">RouteHookApiServer</text>
</g>
<!-- RouteHookApiServer&#45;&gt;ComponentBase -->
<g id="edge84" class="edge"><title>RouteHookApiServer&#45;&gt;ComponentBase</title>
<path fill="none" stroke="black" stroke-dasharray="1,5" d="M864.593,-708.694C948.044,-709.645 1093.3,-716.784 1128.03,-754 1210.23,-842.082 1211.64,-1749.16 1211.15,-1921.73"/>
<polygon fill="black" stroke="black" points="1207.65,-1921.79 1211.12,-1931.81 1214.65,-1921.82 1207.65,-1921.79"/>
</g>
<!-- RouteHookDirectoryMode -->
<g id="node69" class="node"><title>RouteHookDirectoryMode</title>
<polygon fill="none" stroke="black" points="876.416,-673 731.416,-673 731.416,-669 727.416,-669 727.416,-665 731.416,-665 731.416,-645 727.416,-645 727.416,-641 731.416,-641 731.416,-637 876.416,-637 876.416,-673"/>
<polyline fill="none" stroke="black" points="731.416,-669 735.416,-669 735.416,-665 731.416,-665 "/>
<polyline fill="none" stroke="black" points="731.416,-645 735.416,-645 735.416,-641 731.416,-641 "/>
<text text-anchor="middle" x="803.916" y="-651.9" font-family="Times,serif" font-size="12.00">RouteHookDirectoryMode</text>
</g>
<!-- RouteHookDirectoryMode&#45;&gt;ComponentBase -->
<g id="edge85" class="edge"><title>RouteHookDirectoryMode&#45;&gt;ComponentBase</title>
<path fill="none" stroke="black" stroke-dasharray="1,5" d="M876.575,-656.718C961.381,-660.395 1095.25,-671.92 1128.03,-708 1212.28,-800.732 1212,-1744.58 1211.2,-1921.5"/>
<polygon fill="black" stroke="black" points="1207.7,-1921.58 1211.15,-1931.59 1214.7,-1921.61 1207.7,-1921.58"/>
</g>
<!-- RouteHookManager&#45;&gt;ComponentBase -->
<g id="edge86" class="edge"><title>RouteHookManager&#45;&gt;ComponentBase</title>
<path fill="none" stroke="black" stroke-dasharray="1,5" d="M1087.05,-982.882C1102.5,-986.743 1117.81,-993.7 1128.03,-1006 1188.05,-1078.21 1207.03,-1772.31 1210.43,-1921.75"/>
<polygon fill="black" stroke="black" points="1206.94,-1922 1210.66,-1931.92 1213.94,-1921.85 1206.94,-1922"/>
</g>
<!-- RouteHookRewrite -->
<g id="node71" class="node"><title>RouteHookRewrite</title>
<polygon fill="none" stroke="black" points="858.916,-619 748.916,-619 748.916,-615 744.916,-615 744.916,-611 748.916,-611 748.916,-591 744.916,-591 744.916,-587 748.916,-587 748.916,-583 858.916,-583 858.916,-619"/>
<polyline fill="none" stroke="black" points="748.916,-615 752.916,-615 752.916,-611 748.916,-611 "/>
<polyline fill="none" stroke="black" points="748.916,-591 752.916,-591 752.916,-587 748.916,-587 "/>
<text text-anchor="middle" x="803.916" y="-597.9" font-family="Times,serif" font-size="12.00">RouteHookRewrite</text>
</g>
<!-- RouteHookRewrite&#45;&gt;ComponentBase -->
<g id="edge87" class="edge"><title>RouteHookRewrite&#45;&gt;ComponentBase</title>
<path fill="none" stroke="black" stroke-dasharray="1,5" d="M859.162,-606.907C946.486,-616.947 1110.29,-638.186 1128.03,-658 1215.17,-755.34 1212.49,-1741.56 1211.27,-1921.8"/>
<polygon fill="black" stroke="black" points="1207.77,-1921.8 1211.19,-1931.82 1214.76,-1921.85 1207.77,-1921.8"/>
</g>
<!-- StaticReplacer -->
<g id="node72" class="node"><title>StaticReplacer</title>
<polygon fill="none" stroke="black" points="846.416,-565 761.416,-565 761.416,-561 757.416,-561 757.416,-557 761.416,-557 761.416,-537 757.416,-537 757.416,-533 761.416,-533 761.416,-529 846.416,-529 846.416,-565"/>
<polyline fill="none" stroke="black" points="761.416,-561 765.416,-561 765.416,-557 761.416,-557 "/>
<polyline fill="none" stroke="black" points="761.416,-537 765.416,-537 765.416,-533 761.416,-533 "/>
<text text-anchor="middle" x="803.916" y="-543.9" font-family="Times,serif" font-size="12.00">StaticReplacer</text>
</g>
<!-- StaticReplacer&#45;&gt;ComponentBase -->
<g id="edge88" class="edge"><title>StaticReplacer&#45;&gt;ComponentBase</title>
<path fill="none" stroke="black" stroke-dasharray="1,5" d="M846.499,-552.906C929.559,-565.105 1109.64,-593.721 1128.03,-615 1216.39,-717.228 1212.69,-1737.05 1211.29,-1921.48"/>
<polygon fill="black" stroke="black" points="1207.79,-1921.7 1211.21,-1931.73 1214.79,-1921.76 1207.79,-1921.7"/>
</g>
<!-- StrictCheck -->
<g id="node73" class="node"><title>StrictCheck</title>
<polygon fill="none" stroke="black" points="839.916,-835 767.916,-835 767.916,-831 763.916,-831 763.916,-827 767.916,-827 767.916,-807 763.916,-807 763.916,-803 767.916,-803 767.916,-799 839.916,-799 839.916,-835"/>
<polyline fill="none" stroke="black" points="767.916,-831 771.916,-831 771.916,-827 767.916,-827 "/>
<polyline fill="none" stroke="black" points="767.916,-807 771.916,-807 771.916,-803 767.916,-803 "/>
<text text-anchor="middle" x="803.916" y="-813.9" font-family="Times,serif" font-size="12.00">StrictCheck</text>
</g>
<!-- StrictCheck&#45;&gt;ComponentBase -->
<g id="edge89" class="edge"><title>StrictCheck&#45;&gt;ComponentBase</title>
<path fill="none" stroke="black" stroke-dasharray="1,5" d="M839.953,-808.031C906.68,-793.286 1052.1,-772.795 1128.03,-851 1204.83,-930.091 1210.62,-1757.4 1211.01,-1921.72"/>
<polygon fill="black" stroke="black" points="1207.51,-1921.98 1211.03,-1931.98 1214.51,-1921.97 1207.51,-1921.98"/>
</g>
<!-- X_DbManager -->
<g id="node77" class="node"><title>X_DbManager</title>
<polygon fill="none" stroke="black" points="1102.03,-937 940.032,-937 940.032,-913 1102.03,-913 1102.03,-907 1120.03,-925 1102.03,-943 1102.03,-937"/>
<text text-anchor="middle" x="1030.03" y="-921.9" font-family="Times,serif" font-size="12.00">DuckPhp\Component\DbManager</text>
</g>
<!-- StrictCheck&#45;&gt;X_DbManager -->
<g id="edge101" class="edge"><title>StrictCheck&#45;&gt;X_DbManager</title>
<path fill="none" stroke="black" stroke-dasharray="5,2" d="M840.229,-823.826C859.572,-828.25 883.681,-834.9 904.032,-844 938.031,-859.202 973.337,-882.935 997.72,-900.789"/>
<polygon fill="black" stroke="black" points="995.752,-903.688 1005.87,-906.836 999.923,-898.066 995.752,-903.688"/>
</g>
<!-- SuperGlobalContext -->
<g id="node74" class="node"><title>SuperGlobalContext</title>
<polygon fill="none" stroke="black" points="860.916,-511 746.916,-511 746.916,-507 742.916,-507 742.916,-503 746.916,-503 746.916,-483 742.916,-483 742.916,-479 746.916,-479 746.916,-475 860.916,-475 860.916,-511"/>
<polyline fill="none" stroke="black" points="746.916,-507 750.916,-507 750.916,-503 746.916,-503 "/>
<polyline fill="none" stroke="black" points="746.916,-483 750.916,-483 750.916,-479 746.916,-479 "/>
<text text-anchor="middle" x="803.916" y="-489.9" font-family="Times,serif" font-size="12.00">SuperGlobalContext</text>
</g>
<!-- SuperGlobalContext&#45;&gt;ComponentBase -->
<g id="edge90" class="edge"><title>SuperGlobalContext&#45;&gt;ComponentBase</title>
<path fill="none" stroke="black" stroke-dasharray="1,5" d="M861.116,-497.526C944.289,-505.487 1094.02,-525.082 1128.03,-565 1173.67,-618.564 1205.16,-1728.67 1210.29,-1921.55"/>
<polygon fill="black" stroke="black" points="1206.8,-1921.83 1210.56,-1931.74 1213.8,-1921.65 1206.8,-1921.83"/>
</g>
</g>
</svg>
