<?xml version="1.0" encoding="UTF-8" standalone="no"?>
<!DOCTYPE svg PUBLIC "-//W3C//DTD SVG 1.1//EN"
 "http://www.w3.org/Graphics/SVG/1.1/DTD/svg11.dtd">
<!-- Generated by graphviz version 2.38.0 (20140413.2041)
 -->
<!-- Title: DuckPhp Pages: 1 -->
<svg width="1647pt" height="2443pt"
 viewBox="0.00 0.00 1647.30 2443.00" xmlns="http://www.w3.org/2000/svg" xmlns:xlink="http://www.w3.org/1999/xlink">
<g id="graph0" class="graph" transform="scale(1 1) rotate(0) translate(4 2439)">
<title>DuckPhp</title>
<polygon fill="white" stroke="none" points="-4,4 -4,-2439 1643.3,-2439 1643.3,4 -4,4"/>
<g id="clust1" class="cluster"><title>cluster_HttpServer</title>
<polygon fill="none" stroke="black" points="39.2513,-187 39.2513,-368 194.963,-368 194.963,-187 39.2513,-187"/>
<text text-anchor="middle" x="117.107" y="-354.4" font-family="Times,serif" font-size="12.00">[DuckPhp\HttpServer]</text>
</g>
<g id="clust2" class="cluster"><title>cluster_SingletonEx</title>
<polygon fill="none" stroke="black" points="8,-1089 8,-1216 226.215,-1216 226.215,-1089 8,-1089"/>
<text text-anchor="middle" x="117.107" y="-1202.4" font-family="Times,serif" font-size="12.00">[DuckPhp\SingletonEx]</text>
</g>
<g id="clust3" class="cluster"><title>cluster_ThrowOn</title>
<polygon fill="none" stroke="black" points="21.7874,-1581 21.7874,-1654 212.427,-1654 212.427,-1581 21.7874,-1581"/>
<text text-anchor="middle" x="117.107" y="-1640.4" font-family="Times,serif" font-size="12.00">[DuckPhp\ThrowOn]</text>
</g>
<g id="clust4" class="cluster"><title>cluster_Core</title>
<polygon fill="none" stroke="black" points="478.914,-1816 478.914,-2253 1631.3,-2253 1631.3,-1816 478.914,-1816"/>
<text text-anchor="middle" x="1055.11" y="-2239.4" font-family="Times,serif" font-size="12.00">[DuckPhp\Core]</text>
</g>
<g id="clust5" class="cluster"><title>cluster_Helper</title>
<polygon fill="none" stroke="black" points="8.91916,-1840 8.91916,-2129 448.307,-2129 448.307,-1840 8.91916,-1840"/>
<text text-anchor="middle" x="228.613" y="-2115.4" font-family="Times,serif" font-size="12.00">[DuckPhp\Helper]</text>
</g>
<g id="clust6" class="cluster"><title>cluster_Db</title>
<polygon fill="none" stroke="black" points="78.7751,-2300 78.7751,-2427 458.914,-2427 458.914,-2300 78.7751,-2300"/>
<text text-anchor="middle" x="268.845" y="-2413.4" font-family="Times,serif" font-size="12.00">[DuckPhp\Db]</text>
</g>
<g id="clust7" class="cluster"><title>cluster_Component</title>
<polygon fill="none" stroke="black" points="836.619,-1264 836.619,-1661 1312.34,-1661 1312.34,-1264 836.619,-1264"/>
<text text-anchor="middle" x="1074.48" y="-1647.4" font-family="Times,serif" font-size="12.00">[DuckPhp\Component]</text>
</g>
<g id="clust8" class="cluster"><title>cluster_DuckPhp</title>
<polygon fill="none" stroke="black" points="282.981,-1372 282.981,-1445 422.148,-1445 422.148,-1372 282.981,-1372"/>
<text text-anchor="middle" x="352.564" y="-1431.4" font-family="Times,serif" font-size="12.00">[DuckPhp]</text>
</g>
<g id="clust9" class="cluster"><title>cluster_Foundation</title>
<polygon fill="none" stroke="black" points="803.53,-953 803.53,-1188 1324.3,-1188 1324.3,-953 803.53,-953"/>
<text text-anchor="middle" x="1063.91" y="-1174.4" font-family="Times,serif" font-size="12.00">[DuckPhp\Foundation]</text>
</g>
<g id="clust10" class="cluster"><title>cluster_Ext</title>
<polygon fill="none" stroke="black" points="847.954,-8 847.954,-945 1317.34,-945 1317.34,-8 847.954,-8"/>
<text text-anchor="middle" x="1082.65" y="-931.4" font-family="Times,serif" font-size="12.00">[DuckPhp\Ext]</text>
</g>
<!-- AppInterface -->
<g id="node1" class="node"><title>AppInterface</title>
<polygon fill="none" stroke="black" points="155.107,-339 73.1073,-339 73.1073,-303 161.107,-303 161.107,-333 155.107,-339"/>
<polyline fill="none" stroke="black" points="155.107,-339 155.107,-333 "/>
<polyline fill="none" stroke="black" points="161.107,-333 155.107,-333 "/>
<text text-anchor="middle" x="117.107" y="-317.3" font-family="Times,serif" font-size="14.00">AppInterface</text>
</g>
<!-- HttpServer -->
<g id="node2" class="node"><title>HttpServer</title>
<polygon fill="lightgrey" stroke="black" points="117.107,-285 47.3951,-267 117.107,-249 186.819,-267 117.107,-285"/>
<polyline fill="none" stroke="black" points="59.014,-270 59.014,-264 "/>
<polyline fill="none" stroke="black" points="105.488,-252 128.726,-252 "/>
<polyline fill="none" stroke="black" points="175.201,-264 175.201,-270 "/>
<polyline fill="none" stroke="black" points="128.726,-282 105.488,-282 "/>
<text text-anchor="middle" x="117.107" y="-263.3" font-family="Times,serif" font-size="14.00">HttpServer</text>
</g>
<!-- ServerInterface -->
<g id="node3" class="node"><title>ServerInterface</title>
<polygon fill="none" stroke="black" points="161.107,-231 67.1073,-231 67.1073,-195 167.107,-195 167.107,-225 161.107,-231"/>
<polyline fill="none" stroke="black" points="161.107,-231 161.107,-225 "/>
<polyline fill="none" stroke="black" points="167.107,-225 161.107,-225 "/>
<text text-anchor="middle" x="117.107" y="-209.3" font-family="Times,serif" font-size="14.00">ServerInterface</text>
</g>
<!-- SingletonExTrait -->
<g id="node4" class="node"><title>SingletonExTrait</title>
<polygon fill="lightgrey" stroke="black" points="117.107,-1187 15.8926,-1169 117.107,-1151 218.322,-1169 117.107,-1187"/>
<polyline fill="none" stroke="black" points="27.7072,-1171.1 27.7072,-1166.9 "/>
<polyline fill="none" stroke="black" points="105.293,-1153.1 128.922,-1153.1 "/>
<polyline fill="none" stroke="black" points="206.507,-1166.9 206.507,-1171.1 "/>
<polyline fill="none" stroke="black" points="128.922,-1184.9 105.293,-1184.9 "/>
<text text-anchor="middle" x="117.107" y="-1165.3" font-family="Times,serif" font-size="14.00">SingletonExTrait</text>
</g>
<!-- SimpleReplacer -->
<g id="node5" class="node"><title>SimpleReplacer</title>
<ellipse fill="none" stroke="black" cx="117.107" cy="-1115" rx="67.6881" ry="18"/>
<text text-anchor="middle" x="117.107" y="-1111.3" font-family="Times,serif" font-size="14.00">SimpleReplacer</text>
</g>
<!-- ThrowOnTrait -->
<g id="node6" class="node"><title>ThrowOnTrait</title>
<polygon fill="lightgrey" stroke="black" points="117.107,-1625 29.967,-1607 117.107,-1589 204.248,-1607 117.107,-1625"/>
<polyline fill="none" stroke="black" points="41.7189,-1609.43 41.7189,-1604.57 "/>
<polyline fill="none" stroke="black" points="105.355,-1591.43 128.859,-1591.43 "/>
<polyline fill="none" stroke="black" points="192.496,-1604.57 192.496,-1609.43 "/>
<polyline fill="none" stroke="black" points="128.859,-1622.57 105.355,-1622.57 "/>
<text text-anchor="middle" x="117.107" y="-1603.3" font-family="Times,serif" font-size="14.00">ThrowOnTrait</text>
</g>
<!-- App -->
<g id="node7" class="node"><title>App</title>
<polygon fill="lightgrey" stroke="black" points="631.222,-1992 594.688,-1974 631.222,-1956 667.756,-1974 631.222,-1992"/>
<polyline fill="none" stroke="black" points="605.452,-1979.3 605.452,-1968.7 "/>
<polyline fill="none" stroke="black" points="620.458,-1961.3 641.986,-1961.3 "/>
<polyline fill="none" stroke="black" points="656.992,-1968.7 656.992,-1979.3 "/>
<polyline fill="none" stroke="black" points="641.986,-1986.7 620.458,-1986.7 "/>
<text text-anchor="middle" x="631.222" y="-1970.3" font-family="Times,serif" font-size="14.00">App</text>
</g>
<!-- KernelTrait -->
<g id="node8" class="node"><title>KernelTrait</title>
<polygon fill="none" stroke="black" points="937.454,-2049 863.889,-2031 937.454,-2013 1011.02,-2031 937.454,-2049"/>
<text text-anchor="middle" x="937.454" y="-2027.3" font-family="Times,serif" font-size="14.00">KernelTrait</text>
</g>
<!-- App&#45;&gt;KernelTrait -->
<g id="edge8" class="edge"><title>App&#45;&gt;KernelTrait</title>
<path fill="none" stroke="black" d="M658.161,-1978.86C708.355,-1988.26 819.595,-2009.11 885.221,-2021.4"/>
<polygon fill="black" stroke="black" points="884.871,-2024.9 895.345,-2023.3 886.161,-2018.02 884.871,-2024.9"/>
</g>
<!-- AutoLoader -->
<g id="node9" class="node"><title>AutoLoader</title>
<polygon fill="lightgrey" stroke="black" points="1207.84,-2224 1132.6,-2206 1207.84,-2188 1283.08,-2206 1207.84,-2224"/>
<polyline fill="none" stroke="black" points="1144.27,-2208.79 1144.27,-2203.21 "/>
<polyline fill="none" stroke="black" points="1196.17,-2190.79 1219.51,-2190.79 "/>
<polyline fill="none" stroke="black" points="1271.41,-2203.21 1271.41,-2208.79 "/>
<polyline fill="none" stroke="black" points="1219.51,-2221.21 1196.17,-2221.21 "/>
<text text-anchor="middle" x="1207.84" y="-2202.3" font-family="Times,serif" font-size="14.00">AutoLoader</text>
</g>
<!-- App&#45;&gt;AutoLoader -->
<g id="edge10" class="edge"><title>App&#45;&gt;AutoLoader</title>
<path fill="none" stroke="black" d="M642.113,-1987.25C666.025,-2018.22 730.415,-2095.48 803.53,-2132 907.413,-2183.89 1042.66,-2199.7 1127.12,-2204.34"/>
<polygon fill="black" stroke="black" points="1127,-2207.83 1137.16,-2204.85 1127.35,-2200.84 1127,-2207.83"/>
</g>
<!-- ExceptionManager -->
<g id="node10" class="node"><title>ExceptionManager</title>
<polygon fill="none" stroke="black" points="1267.84,-2008 1147.84,-2008 1147.84,-2004 1143.84,-2004 1143.84,-2000 1147.84,-2000 1147.84,-1980 1143.84,-1980 1143.84,-1976 1147.84,-1976 1147.84,-1972 1267.84,-1972 1267.84,-2008"/>
<polyline fill="none" stroke="black" points="1147.84,-2004 1151.84,-2004 1151.84,-2000 1147.84,-2000 "/>
<polyline fill="none" stroke="black" points="1147.84,-1980 1151.84,-1980 1151.84,-1976 1147.84,-1976 "/>
<text text-anchor="middle" x="1207.84" y="-1986.3" font-family="Times,serif" font-size="14.00">ExceptionManager</text>
</g>
<!-- App&#45;&gt;ExceptionManager -->
<g id="edge13" class="edge"><title>App&#45;&gt;ExceptionManager</title>
<path fill="none" stroke="black" d="M666.022,-1974.94C757.864,-1977.5 1013.43,-1984.61 1137.49,-1988.07"/>
<polygon fill="black" stroke="black" points="1137.55,-1991.57 1147.64,-1988.35 1137.74,-1984.57 1137.55,-1991.57"/>
</g>
<!-- View -->
<g id="node11" class="node"><title>View</title>
<polygon fill="none" stroke="black" points="1234.84,-1880 1180.84,-1880 1180.84,-1876 1176.84,-1876 1176.84,-1872 1180.84,-1872 1180.84,-1852 1176.84,-1852 1176.84,-1848 1180.84,-1848 1180.84,-1844 1234.84,-1844 1234.84,-1880"/>
<polyline fill="none" stroke="black" points="1180.84,-1876 1184.84,-1876 1184.84,-1872 1180.84,-1872 "/>
<polyline fill="none" stroke="black" points="1180.84,-1852 1184.84,-1852 1184.84,-1848 1180.84,-1848 "/>
<text text-anchor="middle" x="1207.84" y="-1858.3" font-family="Times,serif" font-size="14.00">View</text>
</g>
<!-- App&#45;&gt;View -->
<g id="edge16" class="edge"><title>App&#45;&gt;View</title>
<path fill="none" stroke="black" d="M652.773,-1966.5C684.65,-1955.14 748.117,-1933.55 803.53,-1921 937.122,-1890.75 1099.27,-1872.52 1170.41,-1865.42"/>
<polygon fill="black" stroke="black" points="1171.02,-1868.88 1180.63,-1864.41 1170.34,-1861.91 1171.02,-1868.88"/>
</g>
<!-- Configer -->
<g id="node12" class="node"><title>Configer</title>
<polygon fill="none" stroke="black" points="1240.34,-1934 1175.34,-1934 1175.34,-1930 1171.34,-1930 1171.34,-1926 1175.34,-1926 1175.34,-1906 1171.34,-1906 1171.34,-1902 1175.34,-1902 1175.34,-1898 1240.34,-1898 1240.34,-1934"/>
<polyline fill="none" stroke="black" points="1175.34,-1930 1179.34,-1930 1179.34,-1926 1175.34,-1926 "/>
<polyline fill="none" stroke="black" points="1175.34,-1906 1179.34,-1906 1179.34,-1902 1175.34,-1902 "/>
<text text-anchor="middle" x="1207.84" y="-1912.3" font-family="Times,serif" font-size="14.00">Configer</text>
</g>
<!-- App&#45;&gt;Configer -->
<g id="edge11" class="edge"><title>App&#45;&gt;Configer</title>
<path fill="none" stroke="black" d="M658.556,-1969.4C692.121,-1963.69 751.981,-1953.95 803.53,-1948 935.044,-1932.82 1091.52,-1922.65 1164.92,-1918.34"/>
<polygon fill="black" stroke="black" points="1165.35,-1921.82 1175.13,-1917.74 1164.94,-1914.83 1165.35,-1921.82"/>
</g>
<!-- Logger -->
<g id="node13" class="node"><title>Logger</title>
<polygon fill="none" stroke="black" points="965.454,-1865 909.454,-1865 909.454,-1861 905.454,-1861 905.454,-1857 909.454,-1857 909.454,-1837 905.454,-1837 905.454,-1833 909.454,-1833 909.454,-1829 965.454,-1829 965.454,-1865"/>
<polyline fill="none" stroke="black" points="909.454,-1861 913.454,-1861 913.454,-1857 909.454,-1857 "/>
<polyline fill="none" stroke="black" points="909.454,-1837 913.454,-1837 913.454,-1833 909.454,-1833 "/>
<text text-anchor="middle" x="937.454" y="-1843.3" font-family="Times,serif" font-size="14.00">Logger</text>
</g>
<!-- App&#45;&gt;Logger -->
<g id="edge12" class="edge"><title>App&#45;&gt;Logger</title>
<path fill="none" stroke="black" d="M650.282,-1965.24C681.308,-1950.32 746.863,-1919.31 803.53,-1896 835.599,-1882.81 872.662,-1869.29 899.492,-1859.8"/>
<polygon fill="black" stroke="black" points="900.97,-1862.99 909.242,-1856.37 898.647,-1856.38 900.97,-1862.99"/>
</g>
<!-- Route -->
<g id="node14" class="node"><title>Route</title>
<polygon fill="lightgrey" stroke="black" points="1207.84,-2062 1162.76,-2044 1207.84,-2026 1252.92,-2044 1207.84,-2062"/>
<polyline fill="none" stroke="black" points="1173.91,-2048.45 1173.91,-2039.55 "/>
<polyline fill="none" stroke="black" points="1196.69,-2030.45 1218.98,-2030.45 "/>
<polyline fill="none" stroke="black" points="1241.77,-2039.55 1241.77,-2048.45 "/>
<polyline fill="none" stroke="black" points="1218.98,-2057.55 1196.69,-2057.55 "/>
<text text-anchor="middle" x="1207.84" y="-2040.3" font-family="Times,serif" font-size="14.00">Route</text>
</g>
<!-- App&#45;&gt;Route -->
<g id="edge14" class="edge"><title>App&#45;&gt;Route</title>
<path fill="none" stroke="black" d="M662.534,-1976.66C696.76,-1979.62 754.122,-1984.46 803.53,-1988 918.941,-1996.27 950.071,-1980.56 1063.38,-2004 1080.04,-2007.45 1083.11,-2012.03 1099.38,-2017 1122.04,-2023.92 1147.78,-2030.43 1168.38,-2035.33"/>
<polygon fill="black" stroke="black" points="1167.81,-2038.79 1178.34,-2037.66 1169.41,-2031.97 1167.81,-2038.79"/>
</g>
<!-- RuntimeState -->
<g id="node15" class="node"><title>RuntimeState</title>
<polygon fill="none" stroke="black" points="1253.34,-2170 1162.34,-2170 1162.34,-2166 1158.34,-2166 1158.34,-2162 1162.34,-2162 1162.34,-2142 1158.34,-2142 1158.34,-2138 1162.34,-2138 1162.34,-2134 1253.34,-2134 1253.34,-2170"/>
<polyline fill="none" stroke="black" points="1162.34,-2166 1166.34,-2166 1166.34,-2162 1162.34,-2162 "/>
<polyline fill="none" stroke="black" points="1162.34,-2142 1166.34,-2142 1166.34,-2138 1162.34,-2138 "/>
<text text-anchor="middle" x="1207.84" y="-2148.3" font-family="Times,serif" font-size="14.00">RuntimeState</text>
</g>
<!-- App&#45;&gt;RuntimeState -->
<g id="edge15" class="edge"><title>App&#45;&gt;RuntimeState</title>
<path fill="none" stroke="black" d="M647.941,-1984.28C677.175,-2002.78 742.494,-2041.35 803.53,-2058 859.402,-2073.24 1012.47,-2050.39 1063.38,-2078 1086.51,-2090.55 1077.39,-2110.54 1099.38,-2125 1115.04,-2135.3 1134.34,-2141.67 1152.25,-2145.61"/>
<polygon fill="black" stroke="black" points="1151.81,-2149.09 1162.3,-2147.61 1153.18,-2142.22 1151.81,-2149.09"/>
</g>
<!-- SystemWrapperTrait -->
<g id="node16" class="node"><title>SystemWrapperTrait</title>
<polygon fill="none" stroke="black" points="937.454,-2123 817.135,-2105 937.454,-2087 1057.77,-2105 937.454,-2123"/>
<text text-anchor="middle" x="937.454" y="-2101.3" font-family="Times,serif" font-size="14.00">SystemWrapperTrait</text>
</g>
<!-- App&#45;&gt;SystemWrapperTrait -->
<g id="edge9" class="edge"><title>App&#45;&gt;SystemWrapperTrait</title>
<path fill="none" stroke="black" d="M647.055,-1984.57C675.862,-2004.62 741.966,-2048.4 803.53,-2073 824.938,-2081.55 849.235,-2088.22 871.148,-2093.21"/>
<polygon fill="black" stroke="black" points="870.51,-2096.65 881.029,-2095.38 872.013,-2089.81 870.51,-2096.65"/>
</g>
<!-- ComponentBase -->
<g id="node19" class="node"><title>ComponentBase</title>
<polygon fill="none" stroke="black" points="1459.3,-1860 1356.3,-1860 1352.3,-1856 1352.3,-1824 1455.3,-1824 1459.3,-1828 1459.3,-1860"/>
<polyline fill="none" stroke="black" points="1455.3,-1856 1352.3,-1856 "/>
<polyline fill="none" stroke="black" points="1455.3,-1856 1455.3,-1824 "/>
<polyline fill="none" stroke="black" points="1455.3,-1856 1459.3,-1860 "/>
<text text-anchor="middle" x="1405.8" y="-1838.3" font-family="Times,serif" font-size="14.00">ComponentBase</text>
</g>
<!-- App&#45;&gt;ComponentBase -->
<g id="edge17" class="edge"><title>App&#45;&gt;ComponentBase</title>
<path fill="none" stroke="black" stroke-dasharray="1,5" d="M666.292,-1973.26C801.549,-1970.2 1294.73,-1958.07 1324.3,-1943 1355.34,-1927.18 1378.36,-1893.36 1391.65,-1869.21"/>
<polygon fill="black" stroke="black" points="1394.85,-1870.65 1396.43,-1860.18 1388.66,-1867.38 1394.85,-1870.65"/>
</g>
<!-- KernelTrait&#45;&gt;AutoLoader -->
<g id="edge1" class="edge"><title>KernelTrait&#45;&gt;AutoLoader</title>
<path fill="none" stroke="black" d="M982.598,-2037.97C1009.15,-2044.28 1041.86,-2056.1 1063.38,-2078 1096.78,-2111.99 1064.1,-2146.96 1099.38,-2179 1110.43,-2189.03 1124.65,-2195.47 1139.11,-2199.56"/>
<polygon fill="black" stroke="black" points="1138.57,-2203.03 1149.12,-2202.03 1140.25,-2196.24 1138.57,-2203.03"/>
</g>
<!-- KernelTrait&#45;&gt;ExceptionManager -->
<g id="edge3" class="edge"><title>KernelTrait&#45;&gt;ExceptionManager</title>
<path fill="none" stroke="black" d="M983.376,-2024.14C1025.45,-2017.71 1088.95,-2008.01 1137.52,-2000.59"/>
<polygon fill="black" stroke="black" points="1138.29,-2004.01 1147.64,-1999.04 1137.23,-1997.09 1138.29,-2004.01"/>
</g>
<!-- KernelTrait&#45;&gt;View -->
<g id="edge6" class="edge"><title>KernelTrait&#45;&gt;View</title>
<path fill="none" stroke="black" d="M950.944,-2015.97C975.981,-1986.86 1035.42,-1922.67 1099.38,-1889 1121.47,-1877.37 1148.77,-1870.59 1170.33,-1866.74"/>
<polygon fill="black" stroke="black" points="1171.11,-1870.16 1180.41,-1865.07 1169.97,-1863.25 1171.11,-1870.16"/>
</g>
<!-- KernelTrait&#45;&gt;Configer -->
<g id="edge2" class="edge"><title>KernelTrait&#45;&gt;Configer</title>
<path fill="none" stroke="black" d="M965.169,-2019.55C1012.3,-1999.36 1110.46,-1957.3 1166.09,-1933.46"/>
<polygon fill="black" stroke="black" points="1167.48,-1936.67 1175.3,-1929.52 1164.73,-1930.24 1167.48,-1936.67"/>
</g>
<!-- KernelTrait&#45;&gt;Route -->
<g id="edge4" class="edge"><title>KernelTrait&#45;&gt;Route</title>
<path fill="none" stroke="black" d="M999.355,-2033.95C1047.13,-2036.26 1112.8,-2039.44 1157.36,-2041.6"/>
<polygon fill="black" stroke="black" points="1157.22,-2045.1 1167.38,-2042.09 1157.56,-2038.11 1157.22,-2045.1"/>
</g>
<!-- KernelTrait&#45;&gt;RuntimeState -->
<g id="edge5" class="edge"><title>KernelTrait&#45;&gt;RuntimeState</title>
<path fill="none" stroke="black" d="M992.961,-2035.51C1016.5,-2039.71 1043.2,-2047.73 1063.38,-2063 1088.79,-2082.23 1073.92,-2105.83 1099.38,-2125 1114.55,-2136.42 1134,-2143.05 1152.17,-2146.88"/>
<polygon fill="black" stroke="black" points="1151.63,-2150.34 1162.1,-2148.74 1152.91,-2143.46 1151.63,-2150.34"/>
</g>
<!-- Functions -->
<g id="node20" class="node"><title>Functions</title>
<ellipse fill="none" stroke="black" cx="1207.84" cy="-2098" rx="45.4919" ry="18"/>
<text text-anchor="middle" x="1207.84" y="-2094.3" font-family="Times,serif" font-size="14.00">Functions</text>
</g>
<!-- KernelTrait&#45;&gt;Functions -->
<g id="edge7" class="edge"><title>KernelTrait&#45;&gt;Functions</title>
<path fill="none" stroke="black" d="M974.65,-2040.04C1022.37,-2051.95 1106.44,-2072.94 1159.26,-2086.12"/>
<polygon fill="black" stroke="black" points="1158.51,-2089.54 1169.06,-2088.57 1160.21,-2082.75 1158.51,-2089.54"/>
</g>
<!-- ExceptionManager&#45;&gt;ComponentBase -->
<g id="edge18" class="edge"><title>ExceptionManager&#45;&gt;ComponentBase</title>
<path fill="none" stroke="black" stroke-dasharray="1,5" d="M1268.09,-1981.82C1287.28,-1977.1 1307.85,-1969.68 1324.3,-1958 1356.17,-1935.38 1379.56,-1895.95 1392.68,-1869.41"/>
<polygon fill="black" stroke="black" points="1395.89,-1870.81 1397.04,-1860.28 1389.58,-1867.79 1395.89,-1870.81"/>
</g>
<!-- View&#45;&gt;ComponentBase -->
<g id="edge22" class="edge"><title>View&#45;&gt;ComponentBase</title>
<path fill="none" stroke="black" stroke-dasharray="1,5" d="M1234.86,-1859.34C1262.08,-1856.57 1305.81,-1852.1 1342.09,-1848.4"/>
<polygon fill="black" stroke="black" points="1342.51,-1851.88 1352.1,-1847.38 1341.8,-1844.91 1342.51,-1851.88"/>
</g>
<!-- Configer&#45;&gt;ComponentBase -->
<g id="edge19" class="edge"><title>Configer&#45;&gt;ComponentBase</title>
<path fill="none" stroke="black" stroke-dasharray="1,5" d="M1240.48,-1911.23C1264.13,-1907.04 1296.95,-1899.89 1324.3,-1889 1339.84,-1882.81 1355.95,-1873.96 1369.64,-1865.6"/>
<polygon fill="black" stroke="black" points="1371.64,-1868.48 1378.26,-1860.21 1367.93,-1862.55 1371.64,-1868.48"/>
</g>
<!-- Logger&#45;&gt;ComponentBase -->
<g id="edge23" class="edge"><title>Logger&#45;&gt;ComponentBase</title>
<path fill="none" stroke="black" stroke-dasharray="1,5" d="M965.469,-1844.37C997.413,-1841.4 1052.2,-1836.76 1099.38,-1835 1199.27,-1831.28 1224.43,-1830.67 1324.3,-1835 1330.05,-1835.25 1336.02,-1835.6 1341.99,-1836.01"/>
<polygon fill="black" stroke="black" points="1341.78,-1839.5 1352.01,-1836.75 1342.3,-1832.52 1341.78,-1839.5"/>
</g>
<!-- Route&#45;&gt;ComponentBase -->
<g id="edge20" class="edge"><title>Route&#45;&gt;ComponentBase</title>
<path fill="none" stroke="black" stroke-dasharray="1,5" d="M1250.71,-2043.06C1274.57,-2040.52 1303.73,-2033.79 1324.3,-2017 1370.47,-1979.3 1391.37,-1909.26 1399.81,-1870.19"/>
<polygon fill="black" stroke="black" points="1403.31,-1870.54 1401.87,-1860.05 1396.45,-1869.15 1403.31,-1870.54"/>
</g>
<!-- RuntimeState&#45;&gt;ComponentBase -->
<g id="edge21" class="edge"><title>RuntimeState&#45;&gt;ComponentBase</title>
<path fill="none" stroke="black" stroke-dasharray="1,5" d="M1253.4,-2152.03C1277.27,-2149.72 1305.53,-2142.9 1324.3,-2125 1396.71,-2055.95 1405.44,-1926.89 1405.55,-1870.07"/>
<polygon fill="black" stroke="black" points="1409.05,-1870 1405.47,-1860.02 1402.05,-1870.05 1409.05,-1870"/>
</g>
<!-- ExtendableStaticCallTrait -->
<g id="node17" class="node"><title>ExtendableStaticCallTrait</title>
<polygon fill="none" stroke="black" points="631.222,-2222 487.106,-2204 631.222,-2186 775.338,-2204 631.222,-2222"/>
<text text-anchor="middle" x="631.222" y="-2200.3" font-family="Times,serif" font-size="14.00">ExtendableStaticCallTrait</text>
</g>
<!-- ComponentInterface -->
<g id="node18" class="node"><title>ComponentInterface</title>
<polygon fill="none" stroke="black" points="1617.3,-1860 1495.3,-1860 1495.3,-1824 1623.3,-1824 1623.3,-1854 1617.3,-1860"/>
<polyline fill="none" stroke="black" points="1617.3,-1860 1617.3,-1854 "/>
<polyline fill="none" stroke="black" points="1623.3,-1854 1617.3,-1854 "/>
<text text-anchor="middle" x="1559.3" y="-1838.3" font-family="Times,serif" font-size="14.00">ComponentInterface</text>
</g>
<!-- ComponentBase&#45;&gt;ComponentInterface -->
<g id="edge24" class="edge"><title>ComponentBase&#45;&gt;ComponentInterface</title>
<path fill="none" stroke="black" d="M1459.36,-1842C1467.65,-1842 1476.36,-1842 1485.02,-1842"/>
<polygon fill="black" stroke="black" points="1485.14,-1845.5 1495.14,-1842 1485.14,-1838.5 1485.14,-1845.5"/>
</g>
<!-- AdvanceHelper -->
<g id="node21" class="node"><title>AdvanceHelper</title>
<polygon fill="lightgrey" stroke="black" points="117.107,-1884 24.4372,-1866 117.107,-1848 209.777,-1866 117.107,-1884"/>
<polyline fill="none" stroke="black" points="36.2171,-1868.29 36.2171,-1863.71 "/>
<polyline fill="none" stroke="black" points="105.327,-1850.29 128.887,-1850.29 "/>
<polyline fill="none" stroke="black" points="197.998,-1863.71 197.998,-1868.29 "/>
<polyline fill="none" stroke="black" points="128.887,-1881.71 105.327,-1881.71 "/>
<text text-anchor="middle" x="117.107" y="-1862.3" font-family="Times,serif" font-size="14.00">AdvanceHelper</text>
</g>
<!-- AdvanceHelper&#45;&gt;ExtendableStaticCallTrait -->
<g id="edge30" class="edge"><title>AdvanceHelper&#45;&gt;ExtendableStaticCallTrait</title>
<path fill="none" stroke="black" d="M187.109,-1870.5C201.866,-1874.65 216.052,-1881.59 226.215,-1893 290.588,-1965.3 186.831,-2039.5 254.215,-2109 286.288,-2142.08 414.311,-2130.44 458.914,-2142 503.919,-2153.66 553.719,-2172.37 587.971,-2186.19"/>
<polygon fill="black" stroke="black" points="587.058,-2189.6 597.64,-2190.13 589.699,-2183.12 587.058,-2189.6"/>
</g>
<!-- AdvanceHelperTrait -->
<g id="node26" class="node"><title>AdvanceHelperTrait</title>
<ellipse fill="none" stroke="black" cx="352.564" cy="-1866" rx="83.3857" ry="18"/>
<text text-anchor="middle" x="352.564" y="-1862.3" font-family="Times,serif" font-size="14.00">AdvanceHelperTrait</text>
</g>
<!-- AdvanceHelper&#45;&gt;AdvanceHelperTrait -->
<g id="edge35" class="edge"><title>AdvanceHelper&#45;&gt;AdvanceHelperTrait</title>
<path fill="none" stroke="black" d="M210.041,-1866C226.055,-1866 242.722,-1866 258.76,-1866"/>
<polygon fill="black" stroke="black" points="259.195,-1869.5 269.195,-1866 259.195,-1862.5 259.195,-1869.5"/>
</g>
<!-- ControllerHelper -->
<g id="node22" class="node"><title>ControllerHelper</title>
<polygon fill="lightgrey" stroke="black" points="117.107,-2100 16.7307,-2082 117.107,-2064 217.484,-2082 117.107,-2100"/>
<polyline fill="none" stroke="black" points="28.5423,-2084.12 28.5423,-2079.88 "/>
<polyline fill="none" stroke="black" points="105.296,-2066.12 128.919,-2066.12 "/>
<polyline fill="none" stroke="black" points="205.672,-2079.88 205.672,-2084.12 "/>
<polyline fill="none" stroke="black" points="128.919,-2097.88 105.296,-2097.88 "/>
<text text-anchor="middle" x="117.107" y="-2078.3" font-family="Times,serif" font-size="14.00">ControllerHelper</text>
</g>
<!-- ControllerHelper&#45;&gt;ExtendableStaticCallTrait -->
<g id="edge31" class="edge"><title>ControllerHelper&#45;&gt;ExtendableStaticCallTrait</title>
<path fill="none" stroke="black" d="M125.019,-2098.79C141.197,-2135.53 185.435,-2222.48 254.215,-2256 367.654,-2311.29 521.772,-2254.77 592.239,-2222.77"/>
<polygon fill="black" stroke="black" points="594.008,-2225.81 601.614,-2218.43 591.069,-2219.46 594.008,-2225.81"/>
</g>
<!-- ControllerHelperTrait -->
<g id="node27" class="node"><title>ControllerHelperTrait</title>
<ellipse fill="none" stroke="black" cx="352.564" cy="-2082" rx="87.9851" ry="18"/>
<text text-anchor="middle" x="352.564" y="-2078.3" font-family="Times,serif" font-size="14.00">ControllerHelperTrait</text>
</g>
<!-- ControllerHelper&#45;&gt;ControllerHelperTrait -->
<g id="edge36" class="edge"><title>ControllerHelper&#45;&gt;ControllerHelperTrait</title>
<path fill="none" stroke="black" d="M217.453,-2082C229.669,-2082 242.145,-2082 254.33,-2082"/>
<polygon fill="black" stroke="black" points="254.485,-2085.5 264.484,-2082 254.484,-2078.5 254.485,-2085.5"/>
</g>
<!-- ModelHelper -->
<g id="node23" class="node"><title>ModelHelper</title>
<polygon fill="lightgrey" stroke="black" points="117.107,-2046 35.4968,-2028 117.107,-2010 198.718,-2028 117.107,-2046"/>
<polyline fill="none" stroke="black" points="47.2152,-2030.58 47.2152,-2025.42 "/>
<polyline fill="none" stroke="black" points="105.389,-2012.58 128.826,-2012.58 "/>
<polyline fill="none" stroke="black" points="186.999,-2025.42 186.999,-2030.58 "/>
<polyline fill="none" stroke="black" points="128.826,-2043.42 105.389,-2043.42 "/>
<text text-anchor="middle" x="117.107" y="-2024.3" font-family="Times,serif" font-size="14.00">ModelHelper</text>
</g>
<!-- ModelHelper&#45;&gt;ExtendableStaticCallTrait -->
<g id="edge32" class="edge"><title>ModelHelper&#45;&gt;ExtendableStaticCallTrait</title>
<path fill="none" stroke="black" d="M182.276,-2031.64C198.613,-2035.59 214.766,-2042.66 226.215,-2055 276.216,-2108.88 198.011,-2170.63 254.215,-2218 299.395,-2256.08 468.493,-2233.35 563.807,-2216.74"/>
<polygon fill="black" stroke="black" points="564.685,-2220.14 573.923,-2214.95 563.466,-2213.24 564.685,-2220.14"/>
</g>
<!-- ModelHelperTrait -->
<g id="node28" class="node"><title>ModelHelperTrait</title>
<ellipse fill="none" stroke="black" cx="352.564" cy="-2028" rx="75.2868" ry="18"/>
<text text-anchor="middle" x="352.564" y="-2024.3" font-family="Times,serif" font-size="14.00">ModelHelperTrait</text>
</g>
<!-- ModelHelper&#45;&gt;ModelHelperTrait -->
<g id="edge37" class="edge"><title>ModelHelper&#45;&gt;ModelHelperTrait</title>
<path fill="none" stroke="black" d="M198.777,-2028C220.835,-2028 244.799,-2028 267.065,-2028"/>
<polygon fill="black" stroke="black" points="267.163,-2031.5 277.163,-2028 267.163,-2024.5 267.163,-2031.5"/>
</g>
<!-- BusinessHelper -->
<g id="node24" class="node"><title>BusinessHelper</title>
<polygon fill="lightgrey" stroke="black" points="117.107,-1992 24.4372,-1974 117.107,-1956 209.777,-1974 117.107,-1992"/>
<polyline fill="none" stroke="black" points="36.2171,-1976.29 36.2171,-1971.71 "/>
<polyline fill="none" stroke="black" points="105.327,-1958.29 128.887,-1958.29 "/>
<polyline fill="none" stroke="black" points="197.998,-1971.71 197.998,-1976.29 "/>
<polyline fill="none" stroke="black" points="128.887,-1989.71 105.327,-1989.71 "/>
<text text-anchor="middle" x="117.107" y="-1970.3" font-family="Times,serif" font-size="14.00">BusinessHelper</text>
</g>
<!-- BusinessHelper&#45;&gt;ExtendableStaticCallTrait -->
<g id="edge33" class="edge"><title>BusinessHelper&#45;&gt;ExtendableStaticCallTrait</title>
<path fill="none" stroke="black" d="M186.615,-1978.62C201.48,-1982.74 215.838,-1989.65 226.215,-2001 280.546,-2060.43 194.734,-2125.72 254.215,-2180 293.182,-2215.56 432.306,-2215.84 529.912,-2211.18"/>
<polygon fill="black" stroke="black" points="530.3,-2214.66 540.112,-2210.66 529.949,-2207.67 530.3,-2214.66"/>
</g>
<!-- BusinessHelperTrait -->
<g id="node29" class="node"><title>BusinessHelperTrait</title>
<ellipse fill="none" stroke="black" cx="352.564" cy="-1974" rx="83.3857" ry="18"/>
<text text-anchor="middle" x="352.564" y="-1970.3" font-family="Times,serif" font-size="14.00">BusinessHelperTrait</text>
</g>
<!-- BusinessHelper&#45;&gt;BusinessHelperTrait -->
<g id="edge38" class="edge"><title>BusinessHelper&#45;&gt;BusinessHelperTrait</title>
<path fill="none" stroke="black" d="M210.041,-1974C226.055,-1974 242.722,-1974 258.76,-1974"/>
<polygon fill="black" stroke="black" points="259.195,-1977.5 269.195,-1974 259.195,-1970.5 259.195,-1977.5"/>
</g>
<!-- ViewHelper -->
<g id="node25" class="node"><title>ViewHelper</title>
<polygon fill="lightgrey" stroke="black" points="117.107,-1938 41.0266,-1920 117.107,-1902 193.188,-1920 117.107,-1938"/>
<polyline fill="none" stroke="black" points="52.7042,-1922.76 52.7042,-1917.24 "/>
<polyline fill="none" stroke="black" points="105.43,-1904.76 128.785,-1904.76 "/>
<polyline fill="none" stroke="black" points="181.51,-1917.24 181.51,-1922.76 "/>
<polyline fill="none" stroke="black" points="128.785,-1935.24 105.43,-1935.24 "/>
<text text-anchor="middle" x="117.107" y="-1916.3" font-family="Times,serif" font-size="14.00">ViewHelper</text>
</g>
<!-- ViewHelper&#45;&gt;ExtendableStaticCallTrait -->
<g id="edge34" class="edge"><title>ViewHelper&#45;&gt;ExtendableStaticCallTrait</title>
<path fill="none" stroke="black" d="M180.808,-1923.03C197.723,-1926.9 214.548,-1934.08 226.215,-1947 284.885,-2011.99 192.951,-2079.45 254.215,-2142 259.475,-2147.37 446.941,-2176.39 555.137,-2192.75"/>
<polygon fill="black" stroke="black" points="554.62,-2196.22 565.03,-2194.25 555.665,-2189.29 554.62,-2196.22"/>
</g>
<!-- ViewHelperTrait -->
<g id="node30" class="node"><title>ViewHelperTrait</title>
<ellipse fill="none" stroke="black" cx="352.564" cy="-1920" rx="70.6878" ry="18"/>
<text text-anchor="middle" x="352.564" y="-1916.3" font-family="Times,serif" font-size="14.00">ViewHelperTrait</text>
</g>
<!-- ViewHelper&#45;&gt;ViewHelperTrait -->
<g id="edge39" class="edge"><title>ViewHelper&#45;&gt;ViewHelperTrait</title>
<path fill="none" stroke="black" d="M193.26,-1920C218.213,-1920 246.083,-1920 271.4,-1920"/>
<polygon fill="black" stroke="black" points="271.705,-1923.5 281.705,-1920 271.705,-1916.5 271.705,-1923.5"/>
</g>
<!-- AdvanceHelperTrait&#45;&gt;App -->
<g id="edge25" class="edge"><title>AdvanceHelperTrait&#45;&gt;App</title>
<path fill="none" stroke="black" d="M411.577,-1878.76C427.132,-1882.75 443.818,-1887.55 458.914,-1893 512.146,-1912.21 571.188,-1942.17 604.197,-1959.77"/>
<polygon fill="black" stroke="black" points="602.715,-1962.95 613.18,-1964.6 606.028,-1956.78 602.715,-1962.95"/>
</g>
<!-- ControllerHelperTrait&#45;&gt;App -->
<g id="edge26" class="edge"><title>ControllerHelperTrait&#45;&gt;App</title>
<path fill="none" stroke="black" d="M412.952,-2068.89C428.113,-2064.97 444.262,-2060.29 458.914,-2055 512.146,-2035.79 571.188,-2005.83 604.197,-1988.23"/>
<polygon fill="black" stroke="black" points="606.028,-1991.22 613.18,-1983.4 602.715,-1985.05 606.028,-1991.22"/>
</g>
<!-- ModelHelperTrait&#45;&gt;App -->
<g id="edge27" class="edge"><title>ModelHelperTrait&#45;&gt;App</title>
<path fill="none" stroke="black" d="M411.561,-2016.68C466.948,-2005.87 548.63,-1989.93 594.885,-1980.9"/>
<polygon fill="black" stroke="black" points="595.6,-1984.32 604.745,-1978.97 594.259,-1977.45 595.6,-1984.32"/>
</g>
<!-- BusinessHelperTrait&#45;&gt;App -->
<g id="edge28" class="edge"><title>BusinessHelperTrait&#45;&gt;App</title>
<path fill="none" stroke="black" d="M435.822,-1974C484.468,-1974 544.251,-1974 584.574,-1974"/>
<polygon fill="black" stroke="black" points="584.642,-1977.5 594.642,-1974 584.642,-1970.5 584.642,-1977.5"/>
</g>
<!-- ViewHelperTrait&#45;&gt;App -->
<g id="edge29" class="edge"><title>ViewHelperTrait&#45;&gt;App</title>
<path fill="none" stroke="black" d="M409.217,-1930.86C464.522,-1941.66 547.674,-1957.89 594.632,-1967.05"/>
<polygon fill="black" stroke="black" points="594.152,-1970.53 604.637,-1969.01 595.493,-1963.66 594.152,-1970.53"/>
</g>
<!-- Db_Db -->
<g id="node31" class="node"><title>Db_Db</title>
<polygon fill="lightgrey" stroke="black" points="117.107,-2371 86.942,-2353 117.107,-2335 147.273,-2353 117.107,-2371"/>
<polyline fill="none" stroke="black" points="96.9971,-2359 96.9971,-2347 "/>
<polyline fill="none" stroke="black" points="107.052,-2341 127.162,-2341 "/>
<polyline fill="none" stroke="black" points="137.217,-2347 137.217,-2359 "/>
<polyline fill="none" stroke="black" points="127.162,-2365 107.052,-2365 "/>
<text text-anchor="middle" x="117.107" y="-2349.3" font-family="Times,serif" font-size="14.00">Db</text>
</g>
<!-- Db_DbAdvanceTrait -->
<g id="node32" class="node"><title>Db_DbAdvanceTrait</title>
<polygon fill="none" stroke="black" points="352.564,-2398 254.365,-2380 352.564,-2362 450.764,-2380 352.564,-2398"/>
<text text-anchor="middle" x="352.564" y="-2376.3" font-family="Times,serif" font-size="14.00">DbAdvanceTrait</text>
</g>
<!-- Db_Db&#45;&gt;Db_DbAdvanceTrait -->
<g id="edge40" class="edge"><title>Db_Db&#45;&gt;Db_DbAdvanceTrait</title>
<path fill="none" stroke="black" d="M142.65,-2355.84C175.37,-2359.62 234.621,-2366.48 281.688,-2371.92"/>
<polygon fill="black" stroke="black" points="281.501,-2375.42 291.836,-2373.09 282.305,-2368.47 281.501,-2375.42"/>
</g>
<!-- Db_DbInterface -->
<g id="node33" class="node"><title>Db_DbInterface</title>
<polygon fill="none" stroke="black" points="387.064,-2344 312.064,-2344 312.064,-2308 393.064,-2308 393.064,-2338 387.064,-2344"/>
<polyline fill="none" stroke="black" points="387.064,-2344 387.064,-2338 "/>
<polyline fill="none" stroke="black" points="393.064,-2338 387.064,-2338 "/>
<text text-anchor="middle" x="352.564" y="-2322.3" font-family="Times,serif" font-size="14.00">DbInterface</text>
</g>
<!-- Db_Db&#45;&gt;Db_DbInterface -->
<g id="edge41" class="edge"><title>Db_Db&#45;&gt;Db_DbInterface</title>
<path fill="none" stroke="black" d="M142.65,-2350.16C180.247,-2345.81 252.876,-2337.41 301.796,-2331.76"/>
<polygon fill="black" stroke="black" points="302.323,-2335.22 311.854,-2330.59 301.518,-2328.26 302.323,-2335.22"/>
</g>
<!-- AppPluginTrait -->
<g id="node34" class="node"><title>AppPluginTrait</title>
<polygon fill="lightgrey" stroke="black" points="937.454,-1632 844.784,-1614 937.454,-1596 1030.12,-1614 937.454,-1632"/>
<polyline fill="none" stroke="black" points="856.564,-1616.29 856.564,-1611.71 "/>
<polyline fill="none" stroke="black" points="925.674,-1598.29 949.234,-1598.29 "/>
<polyline fill="none" stroke="black" points="1018.34,-1611.71 1018.34,-1616.29 "/>
<polyline fill="none" stroke="black" points="949.234,-1629.71 925.674,-1629.71 "/>
<text text-anchor="middle" x="937.454" y="-1610.3" font-family="Times,serif" font-size="14.00">AppPluginTrait</text>
</g>
<!-- AppPluginTrait&#45;&gt;ExceptionManager -->
<g id="edge43" class="edge"><title>AppPluginTrait&#45;&gt;ExceptionManager</title>
<path fill="none" stroke="black" stroke-dasharray="5,2" d="M950.525,-1629.52C975.076,-1661.77 1031.22,-1739.11 1063.38,-1812 1087.75,-1867.24 1059.87,-1897.34 1099.38,-1943 1109.76,-1955 1123.78,-1964.05 1138.26,-1970.83"/>
<polygon fill="black" stroke="black" points="1137.24,-1974.2 1147.81,-1974.97 1140.03,-1967.78 1137.24,-1974.2"/>
</g>
<!-- AppPluginTrait&#45;&gt;View -->
<g id="edge45" class="edge"><title>AppPluginTrait&#45;&gt;View</title>
<path fill="none" stroke="black" stroke-dasharray="5,2" d="M948.086,-1629.94C970.594,-1666.09 1030.02,-1755.39 1099.38,-1810 1121.08,-1827.09 1149.31,-1840.48 1171.39,-1849.39"/>
<polygon fill="black" stroke="black" points="1170.16,-1852.67 1180.75,-1853.05 1172.71,-1846.15 1170.16,-1852.67"/>
</g>
<!-- AppPluginTrait&#45;&gt;Configer -->
<g id="edge44" class="edge"><title>AppPluginTrait&#45;&gt;Configer</title>
<path fill="none" stroke="black" stroke-dasharray="5,2" d="M949.529,-1630.01C972.244,-1663.17 1025.18,-1742.09 1063.38,-1812 1081.49,-1845.15 1070.24,-1864.96 1099.38,-1889 1117.7,-1904.11 1143.34,-1910.93 1164.98,-1913.93"/>
<polygon fill="black" stroke="black" points="1164.57,-1917.41 1174.91,-1915.09 1165.39,-1910.46 1164.57,-1917.41"/>
</g>
<!-- AppPluginTrait&#45;&gt;Route -->
<g id="edge46" class="edge"><title>AppPluginTrait&#45;&gt;Route</title>
<path fill="none" stroke="black" stroke-dasharray="5,2" d="M951.492,-1629.77C977.295,-1661.88 1034.84,-1738.06 1063.38,-1812 1096.69,-1898.3 1036.38,-1949.27 1099.38,-2017 1113.16,-2031.81 1133.75,-2039.01 1153.23,-2042.35"/>
<polygon fill="black" stroke="black" points="1152.89,-2045.84 1163.28,-2043.77 1153.87,-2038.91 1152.89,-2045.84"/>
</g>
<!-- EventManager -->
<g id="node39" class="node"><title>EventManager</title>
<polygon fill="none" stroke="black" points="1256.34,-1524 1159.34,-1524 1159.34,-1520 1155.34,-1520 1155.34,-1516 1159.34,-1516 1159.34,-1496 1155.34,-1496 1155.34,-1492 1159.34,-1492 1159.34,-1488 1256.34,-1488 1256.34,-1524"/>
<polyline fill="none" stroke="black" points="1159.34,-1520 1163.34,-1520 1163.34,-1516 1159.34,-1516 "/>
<polyline fill="none" stroke="black" points="1159.34,-1496 1163.34,-1496 1163.34,-1492 1159.34,-1492 "/>
<text text-anchor="middle" x="1207.84" y="-1502.3" font-family="Times,serif" font-size="14.00">EventManager</text>
</g>
<!-- AppPluginTrait&#45;&gt;EventManager -->
<g id="edge42" class="edge"><title>AppPluginTrait&#45;&gt;EventManager</title>
<path fill="none" stroke="black" d="M1005.48,-1609.16C1025.4,-1605.28 1046.41,-1598.55 1063.38,-1587 1087.22,-1570.77 1075.81,-1549.63 1099.38,-1533 1113.96,-1522.71 1132.09,-1516.33 1149.28,-1512.38"/>
<polygon fill="black" stroke="black" points="1150.17,-1515.77 1159.26,-1510.33 1148.76,-1508.92 1150.17,-1515.77"/>
</g>
<!-- Cache -->
<g id="node35" class="node"><title>Cache</title>
<polygon fill="none" stroke="black" points="964.454,-1578 910.454,-1578 910.454,-1574 906.454,-1574 906.454,-1570 910.454,-1570 910.454,-1550 906.454,-1550 906.454,-1546 910.454,-1546 910.454,-1542 964.454,-1542 964.454,-1578"/>
<polyline fill="none" stroke="black" points="910.454,-1574 914.454,-1574 914.454,-1570 910.454,-1570 "/>
<polyline fill="none" stroke="black" points="910.454,-1550 914.454,-1550 914.454,-1546 910.454,-1546 "/>
<text text-anchor="middle" x="937.454" y="-1556.3" font-family="Times,serif" font-size="14.00">Cache</text>
</g>
<!-- Cache&#45;&gt;ComponentBase -->
<g id="edge47" class="edge"><title>Cache&#45;&gt;ComponentBase</title>
<path fill="none" stroke="black" stroke-dasharray="1,5" d="M964.618,-1557.9C992.999,-1557.17 1037.68,-1560.77 1063.38,-1587 1121.99,-1646.84 1041.14,-1711.8 1099.38,-1772 1107.88,-1780.79 1255.23,-1811.79 1342.1,-1829.44"/>
<polygon fill="black" stroke="black" points="1341.63,-1832.92 1352.12,-1831.48 1343.02,-1826.06 1341.63,-1832.92"/>
</g>
<!-- Console -->
<g id="node36" class="node"><title>Console</title>
<polygon fill="lightgrey" stroke="black" points="1207.84,-1308 1151.7,-1290 1207.84,-1272 1263.98,-1290 1207.84,-1308"/>
<polyline fill="none" stroke="black" points="1163.13,-1293.66 1163.13,-1286.34 "/>
<polyline fill="none" stroke="black" points="1196.41,-1275.66 1219.27,-1275.66 "/>
<polyline fill="none" stroke="black" points="1252.55,-1286.34 1252.55,-1293.66 "/>
<polyline fill="none" stroke="black" points="1219.27,-1304.34 1196.41,-1304.34 "/>
<text text-anchor="middle" x="1207.84" y="-1286.3" font-family="Times,serif" font-size="14.00">Console</text>
</g>
<!-- DbManager -->
<g id="node37" class="node"><title>DbManager</title>
<polygon fill="none" stroke="black" points="978.454,-1524 896.454,-1524 896.454,-1520 892.454,-1520 892.454,-1516 896.454,-1516 896.454,-1496 892.454,-1496 892.454,-1492 896.454,-1492 896.454,-1488 978.454,-1488 978.454,-1524"/>
<polyline fill="none" stroke="black" points="896.454,-1520 900.454,-1520 900.454,-1516 896.454,-1516 "/>
<polyline fill="none" stroke="black" points="896.454,-1496 900.454,-1496 900.454,-1492 896.454,-1492 "/>
<text text-anchor="middle" x="937.454" y="-1502.3" font-family="Times,serif" font-size="14.00">DbManager</text>
</g>
<!-- DbManager&#45;&gt;ComponentBase -->
<g id="edge49" class="edge"><title>DbManager&#45;&gt;ComponentBase</title>
<path fill="none" stroke="black" stroke-dasharray="1,5" d="M978.576,-1503.83C1006.22,-1504.62 1041.73,-1510.57 1063.38,-1533 1126.4,-1598.31 1034.89,-1670.14 1099.38,-1734 1171.42,-1805.33 1232.64,-1728.67 1324.3,-1772 1346.54,-1782.51 1367.38,-1800.97 1382.28,-1816.29"/>
<polygon fill="black" stroke="black" points="1380.1,-1819.08 1389.5,-1823.95 1385.19,-1814.28 1380.1,-1819.08"/>
</g>
<!-- X_Db_Db -->
<g id="node46" class="node"><title>X_Db_Db</title>
<polygon fill="none" stroke="black" points="1243.34,-1572 1154.34,-1572 1154.34,-1548 1243.34,-1548 1243.34,-1542 1261.34,-1560 1243.34,-1578 1243.34,-1572"/>
<text text-anchor="middle" x="1207.84" y="-1556.3" font-family="Times,serif" font-size="14.00">DuckPhp\Db\Db</text>
</g>
<!-- DbManager&#45;&gt;X_Db_Db -->
<g id="edge58" class="edge"><title>DbManager&#45;&gt;X_Db_Db</title>
<path fill="none" stroke="black" stroke-dasharray="5,2" d="M978.634,-1514.08C1022.37,-1522.88 1092.87,-1537.07 1143.95,-1547.35"/>
<polygon fill="black" stroke="black" points="1143.4,-1550.81 1153.89,-1549.35 1144.78,-1543.94 1143.4,-1550.81"/>
</g>
<!-- DuckPhpCommand -->
<g id="node38" class="node"><title>DuckPhpCommand</title>
<polygon fill="none" stroke="black" points="999.954,-1470 874.954,-1470 874.954,-1466 870.954,-1466 870.954,-1462 874.954,-1462 874.954,-1442 870.954,-1442 870.954,-1438 874.954,-1438 874.954,-1434 999.954,-1434 999.954,-1470"/>
<polyline fill="none" stroke="black" points="874.954,-1466 878.954,-1466 878.954,-1462 874.954,-1462 "/>
<polyline fill="none" stroke="black" points="874.954,-1442 878.954,-1442 878.954,-1438 874.954,-1438 "/>
<text text-anchor="middle" x="937.454" y="-1448.3" font-family="Times,serif" font-size="14.00">DuckPhpCommand</text>
</g>
<!-- DuckPhpCommand&#45;&gt;ComponentBase -->
<g id="edge48" class="edge"><title>DuckPhpCommand&#45;&gt;ComponentBase</title>
<path fill="none" stroke="black" stroke-dasharray="1,5" d="M1000.15,-1451.41C1022.95,-1454.41 1047.16,-1461.97 1063.38,-1479 1130.81,-1549.78 1030.35,-1626.77 1099.38,-1696 1170.96,-1767.79 1237.81,-1681.11 1324.3,-1734 1355.61,-1753.15 1378.79,-1789.41 1392.03,-1814.61"/>
<polygon fill="black" stroke="black" points="1388.98,-1816.32 1396.62,-1823.66 1395.23,-1813.16 1388.98,-1816.32"/>
</g>
<!-- DuckPhpCommand&#45;&gt;Console -->
<g id="edge55" class="edge"><title>DuckPhpCommand&#45;&gt;Console</title>
<path fill="none" stroke="black" d="M1000.11,-1451.04C1022.36,-1447.75 1046.2,-1440.41 1063.38,-1425 1101.05,-1391.22 1062.28,-1351.4 1099.38,-1317 1112.59,-1304.76 1130.51,-1297.86 1147.92,-1294.03"/>
<polygon fill="black" stroke="black" points="1148.91,-1297.41 1158.08,-1292.11 1147.61,-1290.53 1148.91,-1297.41"/>
</g>
<!-- DuckPhpInstaller -->
<g id="node40" class="node"><title>DuckPhpInstaller</title>
<polygon fill="none" stroke="black" points="1263.34,-1416 1152.34,-1416 1152.34,-1412 1148.34,-1412 1148.34,-1408 1152.34,-1408 1152.34,-1388 1148.34,-1388 1148.34,-1384 1152.34,-1384 1152.34,-1380 1263.34,-1380 1263.34,-1416"/>
<polyline fill="none" stroke="black" points="1152.34,-1412 1156.34,-1412 1156.34,-1408 1152.34,-1408 "/>
<polyline fill="none" stroke="black" points="1152.34,-1388 1156.34,-1388 1156.34,-1384 1152.34,-1384 "/>
<text text-anchor="middle" x="1207.84" y="-1394.3" font-family="Times,serif" font-size="14.00">DuckPhpInstaller</text>
</g>
<!-- DuckPhpCommand&#45;&gt;DuckPhpInstaller -->
<g id="edge56" class="edge"><title>DuckPhpCommand&#45;&gt;DuckPhpInstaller</title>
<path fill="none" stroke="black" d="M1000.03,-1439.61C1042.53,-1431.06 1098.93,-1419.71 1142.1,-1411.03"/>
<polygon fill="black" stroke="black" points="1142.82,-1414.45 1151.93,-1409.05 1141.44,-1407.59 1142.82,-1414.45"/>
</g>
<!-- X_HttpServer -->
<g id="node45" class="node"><title>X_HttpServer</title>
<polygon fill="none" stroke="black" points="1286.34,-1464 1111.34,-1464 1111.34,-1440 1286.34,-1440 1286.34,-1434 1304.34,-1452 1286.34,-1470 1286.34,-1464"/>
<text text-anchor="middle" x="1207.84" y="-1448.3" font-family="Times,serif" font-size="14.00">DuckPhp\HttpServer\HttpServer</text>
</g>
<!-- DuckPhpCommand&#45;&gt;X_HttpServer -->
<g id="edge57" class="edge"><title>DuckPhpCommand&#45;&gt;X_HttpServer</title>
<path fill="none" stroke="black" stroke-dasharray="5,2" d="M1000.03,-1452C1029.96,-1452 1066.79,-1452 1101.03,-1452"/>
<polygon fill="black" stroke="black" points="1101.09,-1455.5 1111.09,-1452 1101.09,-1448.5 1101.09,-1455.5"/>
</g>
<!-- EventManager&#45;&gt;ComponentBase -->
<g id="edge50" class="edge"><title>EventManager&#45;&gt;ComponentBase</title>
<path fill="none" stroke="black" stroke-dasharray="1,5" d="M1256.42,-1506.1C1279.7,-1508.63 1306.47,-1515.61 1324.3,-1533 1364.8,-1572.49 1391.89,-1745.39 1401.21,-1813.9"/>
<polygon fill="black" stroke="black" points="1397.76,-1814.51 1402.55,-1823.96 1404.7,-1813.59 1397.76,-1814.51"/>
</g>
<!-- DuckPhpInstaller&#45;&gt;ComponentBase -->
<g id="edge51" class="edge"><title>DuckPhpInstaller&#45;&gt;ComponentBase</title>
<path fill="none" stroke="black" stroke-dasharray="1,5" d="M1263.35,-1398.4C1285.08,-1401.4 1308.6,-1408.68 1324.3,-1425 1378.28,-1481.13 1397.99,-1728.56 1403.23,-1813.36"/>
<polygon fill="black" stroke="black" points="1399.75,-1813.77 1403.84,-1823.55 1406.73,-1813.36 1399.75,-1813.77"/>
</g>
<!-- Pager -->
<g id="node41" class="node"><title>Pager</title>
<polygon fill="none" stroke="black" points="964.454,-1416 910.454,-1416 910.454,-1412 906.454,-1412 906.454,-1408 910.454,-1408 910.454,-1388 906.454,-1388 906.454,-1384 910.454,-1384 910.454,-1380 964.454,-1380 964.454,-1416"/>
<polyline fill="none" stroke="black" points="910.454,-1412 914.454,-1412 914.454,-1408 910.454,-1408 "/>
<polyline fill="none" stroke="black" points="910.454,-1388 914.454,-1388 914.454,-1384 910.454,-1384 "/>
<text text-anchor="middle" x="937.454" y="-1394.3" font-family="Times,serif" font-size="14.00">Pager</text>
</g>
<!-- Pager&#45;&gt;ComponentBase -->
<g id="edge52" class="edge"><title>Pager&#45;&gt;ComponentBase</title>
<path fill="none" stroke="black" stroke-dasharray="1,5" d="M964.553,-1395.72C993.092,-1394.8 1038.12,-1398.19 1063.38,-1425 1135.23,-1501.27 1025.81,-1583.39 1099.38,-1658 1170.56,-1730.19 1241.62,-1637.33 1324.3,-1696 1364.73,-1724.69 1387.1,-1780.35 1397.47,-1814.04"/>
<polygon fill="black" stroke="black" points="1394.14,-1815.13 1400.31,-1823.74 1400.86,-1813.16 1394.14,-1815.13"/>
</g>
<!-- PagerInterface -->
<g id="node42" class="node"><title>PagerInterface</title>
<polygon fill="none" stroke="black" points="1249.34,-1362 1160.34,-1362 1160.34,-1326 1255.34,-1326 1255.34,-1356 1249.34,-1362"/>
<polyline fill="none" stroke="black" points="1249.34,-1362 1249.34,-1356 "/>
<polyline fill="none" stroke="black" points="1255.34,-1356 1249.34,-1356 "/>
<text text-anchor="middle" x="1207.84" y="-1340.3" font-family="Times,serif" font-size="14.00">PagerInterface</text>
</g>
<!-- Pager&#45;&gt;PagerInterface -->
<g id="edge59" class="edge"><title>Pager&#45;&gt;PagerInterface</title>
<path fill="none" stroke="black" d="M964.677,-1392.72C1007.36,-1384.14 1092.81,-1366.94 1149.93,-1355.45"/>
<polygon fill="black" stroke="black" points="1150.78,-1358.85 1159.89,-1353.45 1149.4,-1351.99 1150.78,-1358.85"/>
</g>
<!-- RouteHookPathInfoCompat -->
<g id="node43" class="node"><title>RouteHookPathInfoCompat</title>
<polygon fill="none" stroke="black" points="1021.95,-1362 852.954,-1362 852.954,-1358 848.954,-1358 848.954,-1354 852.954,-1354 852.954,-1334 848.954,-1334 848.954,-1330 852.954,-1330 852.954,-1326 1021.95,-1326 1021.95,-1362"/>
<polyline fill="none" stroke="black" points="852.954,-1358 856.954,-1358 856.954,-1354 852.954,-1354 "/>
<polyline fill="none" stroke="black" points="852.954,-1334 856.954,-1334 856.954,-1330 852.954,-1330 "/>
<text text-anchor="middle" x="937.454" y="-1340.3" font-family="Times,serif" font-size="14.00">RouteHookPathInfoCompat</text>
</g>
<!-- RouteHookPathInfoCompat&#45;&gt;ComponentBase -->
<g id="edge53" class="edge"><title>RouteHookPathInfoCompat&#45;&gt;ComponentBase</title>
<path fill="none" stroke="black" stroke-dasharray="1,5" d="M1022.08,-1347.6C1037.63,-1351.97 1052.4,-1359.24 1063.38,-1371 1139.66,-1452.76 1021.26,-1540 1099.38,-1620 1170.21,-1692.54 1244.39,-1595.61 1324.3,-1658 1374.11,-1696.89 1393.74,-1772.93 1400.96,-1814.03"/>
<polygon fill="black" stroke="black" points="1397.51,-1814.62 1402.57,-1823.92 1404.41,-1813.49 1397.51,-1814.62"/>
</g>
<!-- RouteHookRouteMap -->
<g id="node44" class="node"><title>RouteHookRouteMap</title>
<polygon fill="none" stroke="black" points="1005.95,-1308 868.954,-1308 868.954,-1304 864.954,-1304 864.954,-1300 868.954,-1300 868.954,-1280 864.954,-1280 864.954,-1276 868.954,-1276 868.954,-1272 1005.95,-1272 1005.95,-1308"/>
<polyline fill="none" stroke="black" points="868.954,-1304 872.954,-1304 872.954,-1300 868.954,-1300 "/>
<polyline fill="none" stroke="black" points="868.954,-1280 872.954,-1280 872.954,-1276 868.954,-1276 "/>
<text text-anchor="middle" x="937.454" y="-1286.3" font-family="Times,serif" font-size="14.00">RouteHookRouteMap</text>
</g>
<!-- RouteHookRouteMap&#45;&gt;ComponentBase -->
<g id="edge54" class="edge"><title>RouteHookRouteMap&#45;&gt;ComponentBase</title>
<path fill="none" stroke="black" stroke-dasharray="1,5" d="M1006.27,-1290C1027.31,-1293.47 1048.78,-1301.18 1063.38,-1317 1145.48,-1405.97 1014.34,-1500.84 1099.38,-1587 1170.35,-1658.91 1246.01,-1556.13 1324.3,-1620 1384.11,-1668.79 1399.48,-1765.88 1403.44,-1813.84"/>
<polygon fill="black" stroke="black" points="1399.95,-1814.12 1404.15,-1823.84 1406.93,-1813.62 1399.95,-1814.12"/>
</g>
<!-- DuckPhp -->
<g id="node47" class="node"><title>DuckPhp</title>
<polygon fill="lightgrey" stroke="black" points="352.564,-1416 290.897,-1398 352.564,-1380 414.232,-1398 352.564,-1416"/>
<polyline fill="none" stroke="black" points="302.417,-1401.36 302.417,-1394.64 "/>
<polyline fill="none" stroke="black" points="341.045,-1383.36 364.084,-1383.36 "/>
<polyline fill="none" stroke="black" points="402.712,-1394.64 402.712,-1401.36 "/>
<polyline fill="none" stroke="black" points="364.084,-1412.64 341.045,-1412.64 "/>
<text text-anchor="middle" x="352.564" y="-1394.3" font-family="Times,serif" font-size="14.00">DuckPhp</text>
</g>
<!-- DuckPhp&#45;&gt;App -->
<g id="edge60" class="edge"><title>DuckPhp&#45;&gt;App</title>
<path fill="none" stroke="black" d="M361.108,-1413.71C399.458,-1493.55 572.781,-1854.41 618.913,-1950.46"/>
<polygon fill="black" stroke="black" points="615.837,-1952.13 623.322,-1959.63 622.147,-1949.1 615.837,-1952.13"/>
</g>
<!-- DuckPhp&#45;&gt;Cache -->
<g id="edge66" class="edge"><title>DuckPhp&#45;&gt;Cache</title>
<path fill="none" stroke="black" d="M369.429,-1411.28C392.156,-1429.56 435.99,-1462.13 478.914,-1479 627.885,-1537.55 820.789,-1554 900.032,-1558.44"/>
<polygon fill="black" stroke="black" points="900.273,-1561.95 910.443,-1558.99 900.642,-1554.96 900.273,-1561.95"/>
</g>
<!-- DuckPhp&#45;&gt;Console -->
<g id="edge67" class="edge"><title>DuckPhp&#45;&gt;Console</title>
<path fill="none" stroke="black" d="M359.799,-1382.04C374.433,-1347.09 414.675,-1264.22 478.914,-1231 536.603,-1201.16 1001.4,-1202.59 1063.38,-1222 1081.97,-1227.82 1082.23,-1237.77 1099.38,-1247 1121.99,-1259.17 1148.79,-1269.9 1169.98,-1277.6"/>
<polygon fill="black" stroke="black" points="1168.99,-1280.96 1179.58,-1281.02 1171.34,-1274.37 1168.99,-1280.96"/>
</g>
<!-- DuckPhp&#45;&gt;DbManager -->
<g id="edge63" class="edge"><title>DuckPhp&#45;&gt;DbManager</title>
<path fill="none" stroke="black" d="M379.575,-1408.25C404.654,-1417.76 443.857,-1431.67 478.914,-1440 624.704,-1474.64 801.217,-1493.86 886.086,-1501.73"/>
<polygon fill="black" stroke="black" points="885.941,-1505.23 896.218,-1502.65 886.578,-1498.26 885.941,-1505.23"/>
</g>
<!-- DuckPhp&#45;&gt;DuckPhpCommand -->
<g id="edge68" class="edge"><title>DuckPhp&#45;&gt;DuckPhpCommand</title>
<path fill="none" stroke="black" d="M397.046,-1403.12C421.153,-1405.89 451.677,-1409.29 478.914,-1412 615.098,-1425.56 774.339,-1438.91 864.504,-1446.25"/>
<polygon fill="black" stroke="black" points="864.366,-1449.75 874.616,-1447.07 864.932,-1442.77 864.366,-1449.75"/>
</g>
<!-- DuckPhp&#45;&gt;EventManager -->
<g id="edge64" class="edge"><title>DuckPhp&#45;&gt;EventManager</title>
<path fill="none" stroke="black" d="M367.035,-1383.82C388.454,-1362.26 432.613,-1321.79 478.914,-1303 599.542,-1254.04 964.045,-1178.85 1063.38,-1263 1137.64,-1325.91 1033.4,-1407.45 1099.38,-1479 1112.14,-1492.84 1130.85,-1500.05 1149.1,-1503.66"/>
<polygon fill="black" stroke="black" points="1148.71,-1507.15 1159.15,-1505.33 1149.85,-1500.24 1148.71,-1507.15"/>
</g>
<!-- DuckPhp&#45;&gt;Pager -->
<g id="edge62" class="edge"><title>DuckPhp&#45;&gt;Pager</title>
<path fill="none" stroke="black" d="M414.294,-1398C535.146,-1398 802.504,-1398 899.982,-1398"/>
<polygon fill="black" stroke="black" points="900.212,-1401.5 910.212,-1398 900.212,-1394.5 900.212,-1401.5"/>
</g>
<!-- DuckPhp&#45;&gt;RouteHookPathInfoCompat -->
<g id="edge65" class="edge"><title>DuckPhp&#45;&gt;RouteHookPathInfoCompat</title>
<path fill="none" stroke="black" d="M399.79,-1393.72C495.351,-1384.86 716.276,-1364.4 842.862,-1352.67"/>
<polygon fill="black" stroke="black" points="843.3,-1356.15 852.935,-1351.74 842.655,-1349.17 843.3,-1356.15"/>
</g>
<!-- DuckPhp&#45;&gt;RouteHookRouteMap -->
<g id="edge61" class="edge"><title>DuckPhp&#45;&gt;RouteHookRouteMap</title>
<path fill="none" stroke="black" d="M379.575,-1387.75C404.654,-1378.24 443.857,-1364.33 478.914,-1356 610.433,-1324.75 766.955,-1306.05 858.644,-1296.91"/>
<polygon fill="black" stroke="black" points="859.068,-1300.39 868.677,-1295.93 858.383,-1293.42 859.068,-1300.39"/>
</g>
<!-- Installer -->
<g id="node48" class="node"><title>Installer</title>
<polygon fill="none" stroke="black" points="967.954,-1159 906.954,-1159 906.954,-1155 902.954,-1155 902.954,-1151 906.954,-1151 906.954,-1131 902.954,-1131 902.954,-1127 906.954,-1127 906.954,-1123 967.954,-1123 967.954,-1159"/>
<polyline fill="none" stroke="black" points="906.954,-1155 910.954,-1155 910.954,-1151 906.954,-1151 "/>
<polyline fill="none" stroke="black" points="906.954,-1131 910.954,-1131 910.954,-1127 906.954,-1127 "/>
<text text-anchor="middle" x="937.454" y="-1137.3" font-family="Times,serif" font-size="14.00">Installer</text>
</g>
<!-- Installer&#45;&gt;ComponentBase -->
<g id="edge69" class="edge"><title>Installer&#45;&gt;ComponentBase</title>
<path fill="none" stroke="black" stroke-dasharray="1,5" d="M968.28,-1153.18C1012.97,-1171.41 1092.8,-1203.89 1099.38,-1206 1197.29,-1237.34 1255.26,-1183.83 1324.3,-1260 1399.14,-1342.58 1404.87,-1708.23 1404.94,-1813.53"/>
<polygon fill="black" stroke="black" points="1401.44,-1813.71 1404.93,-1823.71 1408.44,-1813.71 1401.44,-1813.71"/>
</g>
<!-- SqlDumper -->
<g id="node52" class="node"><title>SqlDumper</title>
<polygon fill="none" stroke="black" points="1247.84,-1105 1167.84,-1105 1167.84,-1101 1163.84,-1101 1163.84,-1097 1167.84,-1097 1167.84,-1077 1163.84,-1077 1163.84,-1073 1167.84,-1073 1167.84,-1069 1247.84,-1069 1247.84,-1105"/>
<polyline fill="none" stroke="black" points="1167.84,-1101 1171.84,-1101 1171.84,-1097 1167.84,-1097 "/>
<polyline fill="none" stroke="black" points="1167.84,-1077 1171.84,-1077 1171.84,-1073 1167.84,-1073 "/>
<text text-anchor="middle" x="1207.84" y="-1083.3" font-family="Times,serif" font-size="14.00">SqlDumper</text>
</g>
<!-- Installer&#45;&gt;SqlDumper -->
<g id="edge74" class="edge"><title>Installer&#45;&gt;SqlDumper</title>
<path fill="none" stroke="black" stroke-dasharray="5,2" d="M968.202,-1135.01C1013.94,-1125.81 1102.05,-1108.08 1157.46,-1096.94"/>
<polygon fill="black" stroke="black" points="1158.3,-1100.34 1167.41,-1094.93 1156.92,-1093.47 1158.3,-1100.34"/>
</g>
<!-- ThrowOnableTrait -->
<g id="node53" class="node"><title>ThrowOnableTrait</title>
<polygon fill="none" stroke="black" points="1207.84,-1159 1099.42,-1141 1207.84,-1123 1316.26,-1141 1207.84,-1159"/>
<text text-anchor="middle" x="1207.84" y="-1137.3" font-family="Times,serif" font-size="14.00">ThrowOnableTrait</text>
</g>
<!-- Installer&#45;&gt;ThrowOnableTrait -->
<g id="edge75" class="edge"><title>Installer&#45;&gt;ThrowOnableTrait</title>
<path fill="none" stroke="black" stroke-dasharray="5,2" d="M968.202,-1141C997.638,-1141 1044.62,-1141 1089.15,-1141"/>
<polygon fill="black" stroke="black" points="1089.2,-1144.5 1099.2,-1141 1089.2,-1137.5 1089.2,-1144.5"/>
</g>
<!-- X_Core_App -->
<g id="node54" class="node"><title>X_Core_App</title>
<polygon fill="none" stroke="black" points="1251.84,-991 1145.84,-991 1145.84,-967 1251.84,-967 1251.84,-961 1269.84,-979 1251.84,-997 1251.84,-991"/>
<text text-anchor="middle" x="1207.84" y="-975.3" font-family="Times,serif" font-size="14.00">DuckPhp\Core\App</text>
</g>
<!-- Installer&#45;&gt;X_Core_App -->
<g id="edge72" class="edge"><title>Installer&#45;&gt;X_Core_App</title>
<path fill="none" stroke="black" stroke-dasharray="5,2" d="M968.149,-1142.45C996.07,-1142.17 1037.36,-1137.33 1063.38,-1114 1101.05,-1080.22 1062.28,-1040.4 1099.38,-1006 1109.54,-996.581 1122.49,-990.325 1135.85,-986.197"/>
<polygon fill="black" stroke="black" points="1136.88,-989.544 1145.62,-983.553 1135.05,-982.787 1136.88,-989.544"/>
</g>
<!-- X_Core_Configer -->
<g id="node55" class="node"><title>X_Core_Configer</title>
<polygon fill="none" stroke="black" points="1264.34,-1045 1133.34,-1045 1133.34,-1021 1264.34,-1021 1264.34,-1015 1282.34,-1033 1264.34,-1051 1264.34,-1045"/>
<text text-anchor="middle" x="1207.84" y="-1029.3" font-family="Times,serif" font-size="14.00">DuckPhp\Core\Configer</text>
</g>
<!-- Installer&#45;&gt;X_Core_Configer -->
<g id="edge73" class="edge"><title>Installer&#45;&gt;X_Core_Configer</title>
<path fill="none" stroke="black" stroke-dasharray="5,2" d="M968.171,-1140.75C995.151,-1139.17 1034.95,-1133.36 1063.38,-1114 1087.22,-1097.77 1075.81,-1076.63 1099.38,-1060 1106.77,-1054.79 1115.06,-1050.58 1123.69,-1047.18"/>
<polygon fill="black" stroke="black" points="1124.9,-1050.46 1133.14,-1043.8 1122.55,-1043.87 1124.9,-1050.46"/>
</g>
<!-- SessionBase -->
<g id="node49" class="node"><title>SessionBase</title>
<polygon fill="none" stroke="black" points="979.454,-1105 895.454,-1105 895.454,-1101 891.454,-1101 891.454,-1097 895.454,-1097 895.454,-1077 891.454,-1077 891.454,-1073 895.454,-1073 895.454,-1069 979.454,-1069 979.454,-1105"/>
<polyline fill="none" stroke="black" points="895.454,-1101 899.454,-1101 899.454,-1097 895.454,-1097 "/>
<polyline fill="none" stroke="black" points="895.454,-1077 899.454,-1077 899.454,-1073 895.454,-1073 "/>
<text text-anchor="middle" x="937.454" y="-1083.3" font-family="Times,serif" font-size="14.00">SessionBase</text>
</g>
<!-- SessionBase&#45;&gt;ComponentBase -->
<g id="edge70" class="edge"><title>SessionBase&#45;&gt;ComponentBase</title>
<path fill="none" stroke="black" stroke-dasharray="1,5" d="M979.493,-1088.12C1005.48,-1090.6 1038.71,-1097.2 1063.38,-1114 1087.22,-1130.23 1075.17,-1152.31 1099.38,-1168 1184.45,-1223.14 1254.11,-1132.84 1324.3,-1206 1367.08,-1250.59 1396.21,-1696.39 1403.19,-1813.79"/>
<polygon fill="black" stroke="black" points="1399.69,-1814.03 1403.77,-1823.8 1406.68,-1813.61 1399.69,-1814.03"/>
</g>
<!-- SessionBase&#45;&gt;X_Core_App -->
<g id="edge76" class="edge"><title>SessionBase&#45;&gt;X_Core_App</title>
<path fill="none" stroke="black" stroke-dasharray="5,2" d="M979.493,-1085.88C1005.48,-1083.4 1038.71,-1076.8 1063.38,-1060 1087.22,-1043.77 1075.81,-1022.63 1099.38,-1006 1110.21,-998.356 1123,-992.87 1135.91,-988.936"/>
<polygon fill="black" stroke="black" points="1137.06,-992.249 1145.77,-986.219 1135.2,-985.5 1137.06,-992.249"/>
</g>
<!-- SimpleControllerTrait -->
<g id="node50" class="node"><title>SimpleControllerTrait</title>
<polygon fill="none" stroke="black" points="937.454,-1051 811.605,-1033 937.454,-1015 1063.3,-1033 937.454,-1051"/>
<text text-anchor="middle" x="937.454" y="-1029.3" font-family="Times,serif" font-size="14.00">SimpleControllerTrait</text>
</g>
<!-- SimpleControllerTrait&#45;&gt;X_Core_App -->
<g id="edge77" class="edge"><title>SimpleControllerTrait&#45;&gt;X_Core_App</title>
<path fill="none" stroke="black" stroke-dasharray="5,2" d="M990.52,-1022.52C1031.85,-1014.21 1090.06,-1002.5 1135.69,-993.316"/>
<polygon fill="black" stroke="black" points="1136.4,-996.742 1145.52,-991.338 1135.02,-989.88 1136.4,-996.742"/>
</g>
<!-- SimpleModelTrait -->
<g id="node51" class="node"><title>SimpleModelTrait</title>
<polygon fill="none" stroke="black" points="937.454,-997 829.033,-979 937.454,-961 1045.88,-979 937.454,-997"/>
<text text-anchor="middle" x="937.454" y="-975.3" font-family="Times,serif" font-size="14.00">SimpleModelTrait</text>
</g>
<!-- SimpleModelTrait&#45;&gt;X_Core_App -->
<g id="edge78" class="edge"><title>SimpleModelTrait&#45;&gt;X_Core_App</title>
<path fill="none" stroke="black" stroke-dasharray="5,2" d="M1046.07,-979C1076.07,-979 1107.92,-979 1135.28,-979"/>
<polygon fill="black" stroke="black" points="1135.54,-982.5 1145.54,-979 1135.54,-975.5 1135.54,-982.5"/>
</g>
<!-- SqlDumper&#45;&gt;ComponentBase -->
<g id="edge71" class="edge"><title>SqlDumper&#45;&gt;ComponentBase</title>
<path fill="none" stroke="black" stroke-dasharray="1,5" d="M1248.08,-1085.39C1273.6,-1086.61 1305.52,-1092.82 1324.3,-1114 1371.6,-1167.32 1397.8,-1685.69 1403.57,-1813.59"/>
<polygon fill="black" stroke="black" points="1400.08,-1813.92 1404.03,-1823.75 1407.08,-1813.61 1400.08,-1813.92"/>
</g>
<!-- CallableView -->
<g id="node56" class="node"><title>CallableView</title>
<polygon fill="none" stroke="black" points="982.954,-700 891.954,-700 891.954,-696 887.954,-696 887.954,-692 891.954,-692 891.954,-672 887.954,-672 887.954,-668 891.954,-668 891.954,-664 982.954,-664 982.954,-700"/>
<polyline fill="none" stroke="black" points="891.954,-696 895.954,-696 895.954,-692 891.954,-692 "/>
<polyline fill="none" stroke="black" points="891.954,-672 895.954,-672 895.954,-668 891.954,-668 "/>
<text text-anchor="middle" x="937.454" y="-678.3" font-family="Times,serif" font-size="14.00">CallableView</text>
</g>
<!-- X_Core_View -->
<g id="node77" class="node"><title>X_Core_View</title>
<polygon fill="none" stroke="black" points="1254.84,-802 1142.84,-802 1142.84,-778 1254.84,-778 1254.84,-772 1272.84,-790 1254.84,-808 1254.84,-802"/>
<text text-anchor="middle" x="1207.84" y="-786.3" font-family="Times,serif" font-size="14.00">DuckPhp\Core\View</text>
</g>
<!-- CallableView&#45;&gt;X_Core_View -->
<g id="edge94" class="edge"><title>CallableView&#45;&gt;X_Core_View</title>
<path fill="none" stroke="black" stroke-dasharray="5,2" d="M983.012,-683.478C1008.43,-686.211 1039.81,-692.952 1063.38,-709 1087.22,-725.235 1075.81,-746.37 1099.38,-763 1109.42,-770.088 1121.15,-775.32 1133.1,-779.181"/>
<polygon fill="black" stroke="black" points="1132.11,-782.54 1142.69,-781.992 1134.08,-775.822 1132.11,-782.54"/>
</g>
<!-- EmptyView -->
<g id="node57" class="node"><title>EmptyView</title>
<polygon fill="none" stroke="black" points="978.954,-646 895.954,-646 895.954,-642 891.954,-642 891.954,-638 895.954,-638 895.954,-618 891.954,-618 891.954,-614 895.954,-614 895.954,-610 978.954,-610 978.954,-646"/>
<polyline fill="none" stroke="black" points="895.954,-642 899.954,-642 899.954,-638 895.954,-638 "/>
<polyline fill="none" stroke="black" points="895.954,-618 899.954,-618 899.954,-614 895.954,-614 "/>
<text text-anchor="middle" x="937.454" y="-624.3" font-family="Times,serif" font-size="14.00">EmptyView</text>
</g>
<!-- EmptyView&#45;&gt;X_Core_View -->
<g id="edge95" class="edge"><title>EmptyView&#45;&gt;X_Core_View</title>
<path fill="none" stroke="black" stroke-dasharray="5,2" d="M979.08,-626.892C1006.06,-628.309 1040.58,-634.558 1063.38,-655 1101.05,-688.777 1062.28,-728.6 1099.38,-763 1108.78,-771.72 1120.58,-777.729 1132.88,-781.848"/>
<polygon fill="black" stroke="black" points="1132.24,-785.308 1142.82,-784.762 1134.21,-778.59 1132.24,-785.308"/>
</g>
<!-- ExceptionWrapper -->
<g id="node58" class="node"><title>ExceptionWrapper</title>
<polygon fill="none" stroke="black" points="996.954,-916 877.954,-916 877.954,-912 873.954,-912 873.954,-908 877.954,-908 877.954,-888 873.954,-888 873.954,-884 877.954,-884 877.954,-880 996.954,-880 996.954,-916"/>
<polyline fill="none" stroke="black" points="877.954,-912 881.954,-912 881.954,-908 877.954,-908 "/>
<polyline fill="none" stroke="black" points="877.954,-888 881.954,-888 881.954,-884 877.954,-884 "/>
<text text-anchor="middle" x="937.454" y="-894.3" font-family="Times,serif" font-size="14.00">ExceptionWrapper</text>
</g>
<!-- ExceptionWrapper&#45;&gt;ComponentBase -->
<g id="edge79" class="edge"><title>ExceptionWrapper&#45;&gt;ComponentBase</title>
<path fill="none" stroke="black" stroke-dasharray="1,5" d="M997.334,-901.775C1099.77,-908.92 1302.05,-925.808 1324.3,-949 1385.54,-1012.84 1401.5,-1667.47 1404.3,-1813.31"/>
<polygon fill="black" stroke="black" points="1400.81,-1813.72 1404.49,-1823.65 1407.81,-1813.58 1400.81,-1813.72"/>
</g>
<!-- HookChain -->
<g id="node59" class="node"><title>HookChain</title>
<ellipse fill="none" stroke="black" cx="937.454" cy="-736" rx="51.1914" ry="18"/>
<text text-anchor="middle" x="937.454" y="-732.3" font-family="Times,serif" font-size="14.00">HookChain</text>
</g>
<!-- JsonRpcClientBase -->
<g id="node60" class="node"><title>JsonRpcClientBase</title>
<polygon fill="none" stroke="black" points="998.454,-862 876.454,-862 876.454,-858 872.454,-858 872.454,-854 876.454,-854 876.454,-834 872.454,-834 872.454,-830 876.454,-830 876.454,-826 998.454,-826 998.454,-862"/>
<polyline fill="none" stroke="black" points="876.454,-858 880.454,-858 880.454,-854 876.454,-854 "/>
<polyline fill="none" stroke="black" points="876.454,-834 880.454,-834 880.454,-830 876.454,-830 "/>
<text text-anchor="middle" x="937.454" y="-840.3" font-family="Times,serif" font-size="14.00">JsonRpcClientBase</text>
</g>
<!-- JsonRpcClientBase&#45;&gt;ComponentBase -->
<g id="edge102" class="edge"><title>JsonRpcClientBase&#45;&gt;ComponentBase</title>
<path fill="none" stroke="black" stroke-dasharray="1,5" d="M998.806,-854.236C1029,-859.329 1066.11,-865.547 1099.38,-871 1149.33,-879.188 1289.83,-869.928 1324.3,-907 1387.55,-975.028 1401.99,-1663.79 1404.39,-1813.42"/>
<polygon fill="black" stroke="black" points="1400.9,-1813.67 1404.55,-1823.62 1407.89,-1813.57 1400.9,-1813.67"/>
</g>
<!-- JsonRpcExt -->
<g id="node61" class="node"><title>JsonRpcExt</title>
<polygon fill="none" stroke="black" points="1248.34,-862 1167.34,-862 1167.34,-858 1163.34,-858 1163.34,-854 1167.34,-854 1167.34,-834 1163.34,-834 1163.34,-830 1167.34,-830 1167.34,-826 1248.34,-826 1248.34,-862"/>
<polyline fill="none" stroke="black" points="1167.34,-858 1171.34,-858 1171.34,-854 1167.34,-854 "/>
<polyline fill="none" stroke="black" points="1167.34,-834 1171.34,-834 1171.34,-830 1167.34,-830 "/>
<text text-anchor="middle" x="1207.84" y="-840.3" font-family="Times,serif" font-size="14.00">JsonRpcExt</text>
</g>
<!-- JsonRpcClientBase&#45;&gt;JsonRpcExt -->
<g id="edge101" class="edge"><title>JsonRpcClientBase&#45;&gt;JsonRpcExt</title>
<path fill="none" stroke="black" stroke-dasharray="5,2" d="M998.685,-838.259C1046.43,-836.803 1112.34,-836.923 1157.11,-838.617"/>
<polygon fill="black" stroke="black" points="1157.04,-842.117 1167.17,-839.042 1157.33,-835.123 1157.04,-842.117"/>
</g>
<!-- JsonRpcExt&#45;&gt;ComponentBase -->
<g id="edge80" class="edge"><title>JsonRpcExt&#45;&gt;ComponentBase</title>
<path fill="none" stroke="black" stroke-dasharray="1,5" d="M1248.49,-844.795C1274.19,-847.573 1306.15,-855.728 1324.3,-878 1384.92,-952.375 1401.46,-1662.18 1404.31,-1813.65"/>
<polygon fill="black" stroke="black" points="1400.82,-1814.02 1404.5,-1823.96 1407.82,-1813.9 1400.82,-1814.02"/>
</g>
<!-- JsonRpcExt&#45;&gt;JsonRpcClientBase -->
<g id="edge100" class="edge"><title>JsonRpcExt&#45;&gt;JsonRpcClientBase</title>
<path fill="none" stroke="black" d="M1167.17,-848.958C1125.59,-850.915 1059.39,-851.269 1008.89,-850.021"/>
<polygon fill="black" stroke="black" points="1008.78,-846.517 998.685,-849.741 1008.58,-853.514 1008.78,-846.517"/>
</g>
<!-- JsonView -->
<g id="node62" class="node"><title>JsonView</title>
<polygon fill="none" stroke="black" points="972.454,-808 902.454,-808 902.454,-804 898.454,-804 898.454,-800 902.454,-800 902.454,-780 898.454,-780 898.454,-776 902.454,-776 902.454,-772 972.454,-772 972.454,-808"/>
<polyline fill="none" stroke="black" points="902.454,-804 906.454,-804 906.454,-800 902.454,-800 "/>
<polyline fill="none" stroke="black" points="902.454,-780 906.454,-780 906.454,-776 902.454,-776 "/>
<text text-anchor="middle" x="937.454" y="-786.3" font-family="Times,serif" font-size="14.00">JsonView</text>
</g>
<!-- JsonView&#45;&gt;X_Core_View -->
<g id="edge103" class="edge"><title>JsonView&#45;&gt;X_Core_View</title>
<path fill="none" stroke="black" stroke-dasharray="5,2" d="M972.718,-790C1012.79,-790 1080.3,-790 1132.56,-790"/>
<polygon fill="black" stroke="black" points="1132.79,-793.5 1142.79,-790 1132.79,-786.5 1132.79,-793.5"/>
</g>
<!-- Misc -->
<g id="node63" class="node"><title>Misc</title>
<polygon fill="none" stroke="black" points="964.454,-106 910.454,-106 910.454,-102 906.454,-102 906.454,-98 910.454,-98 910.454,-78 906.454,-78 906.454,-74 910.454,-74 910.454,-70 964.454,-70 964.454,-106"/>
<polyline fill="none" stroke="black" points="910.454,-102 914.454,-102 914.454,-98 910.454,-98 "/>
<polyline fill="none" stroke="black" points="910.454,-78 914.454,-78 914.454,-74 910.454,-74 "/>
<text text-anchor="middle" x="937.454" y="-84.3" font-family="Times,serif" font-size="14.00">Misc</text>
</g>
<!-- Misc&#45;&gt;ComponentBase -->
<g id="edge81" class="edge"><title>Misc&#45;&gt;ComponentBase</title>
<path fill="none" stroke="black" stroke-dasharray="1,5" d="M964.673,-86.6724C1043.42,-83.2979 1275.43,-78.0283 1324.3,-130 1384.44,-193.951 1402.11,-1595.19 1404.5,-1813.52"/>
<polygon fill="black" stroke="black" points="1401.01,-1813.86 1404.62,-1823.82 1408.01,-1813.78 1401.01,-1813.86"/>
</g>
<!-- MyFacadesAutoLoader -->
<g id="node64" class="node"><title>MyFacadesAutoLoader</title>
<polygon fill="none" stroke="black" points="1009.95,-592 864.954,-592 864.954,-588 860.954,-588 860.954,-584 864.954,-584 864.954,-564 860.954,-564 860.954,-560 864.954,-560 864.954,-556 1009.95,-556 1009.95,-592"/>
<polyline fill="none" stroke="black" points="864.954,-588 868.954,-588 868.954,-584 864.954,-584 "/>
<polyline fill="none" stroke="black" points="864.954,-564 868.954,-564 868.954,-560 864.954,-560 "/>
<text text-anchor="middle" x="937.454" y="-570.3" font-family="Times,serif" font-size="14.00">MyFacadesAutoLoader</text>
</g>
<!-- MyFacadesAutoLoader&#45;&gt;ComponentBase -->
<g id="edge83" class="edge"><title>MyFacadesAutoLoader&#45;&gt;ComponentBase</title>
<path fill="none" stroke="black" stroke-dasharray="1,5" d="M1010.23,-559.334C1037.95,-554.361 1070.02,-549.446 1099.38,-547 1199,-538.701 1251.45,-478.542 1324.3,-547 1372.13,-591.95 1399.6,-1628.78 1404.13,-1813.86"/>
<polygon fill="black" stroke="black" points="1400.63,-1813.98 1404.37,-1823.89 1407.63,-1813.81 1400.63,-1813.98"/>
</g>
<!-- MyFacadesBase -->
<g id="node65" class="node"><title>MyFacadesBase</title>
<polygon fill="none" stroke="black" points="1260.84,-754 1154.84,-754 1154.84,-750 1150.84,-750 1150.84,-746 1154.84,-746 1154.84,-726 1150.84,-726 1150.84,-722 1154.84,-722 1154.84,-718 1260.84,-718 1260.84,-754"/>
<polyline fill="none" stroke="black" points="1154.84,-750 1158.84,-750 1158.84,-746 1154.84,-746 "/>
<polyline fill="none" stroke="black" points="1154.84,-726 1158.84,-726 1158.84,-722 1154.84,-722 "/>
<text text-anchor="middle" x="1207.84" y="-732.3" font-family="Times,serif" font-size="14.00">MyFacadesBase</text>
</g>
<!-- MyFacadesAutoLoader&#45;&gt;MyFacadesBase -->
<g id="edge97" class="edge"><title>MyFacadesAutoLoader&#45;&gt;MyFacadesBase</title>
<path fill="none" stroke="black" d="M1010.13,-568.086C1029.32,-571.618 1048.76,-578.891 1063.38,-592 1101.05,-625.777 1062.28,-665.6 1099.38,-700 1111.76,-711.48 1128.29,-718.262 1144.66,-722.581"/>
<polygon fill="black" stroke="black" points="1144.26,-726.082 1154.79,-724.971 1145.86,-719.269 1144.26,-726.082"/>
</g>
<!-- MyFacadesBase&#45;&gt;ComponentBase -->
<g id="edge82" class="edge"><title>MyFacadesBase&#45;&gt;ComponentBase</title>
<path fill="none" stroke="black" stroke-dasharray="1,5" d="M1261.03,-735.146C1283.83,-737.674 1308.84,-744.934 1324.3,-763 1394.59,-845.144 1403.56,-1652.1 1404.65,-1813.86"/>
<polygon fill="black" stroke="black" points="1401.15,-1813.99 1404.72,-1823.97 1408.15,-1813.95 1401.15,-1813.99"/>
</g>
<!-- MyFacadesBase&#45;&gt;MyFacadesAutoLoader -->
<g id="edge96" class="edge"><title>MyFacadesBase&#45;&gt;MyFacadesAutoLoader</title>
<path fill="none" stroke="black" stroke-dasharray="5,2" d="M1154.79,-741.693C1135.33,-738.875 1114.33,-731.863 1099.38,-718 1062.28,-683.6 1101.05,-643.777 1063.38,-610 1051.27,-599.144 1035.86,-592.291 1020.02,-587.827"/>
<polygon fill="black" stroke="black" points="1020.69,-584.385 1010.13,-585.342 1018.98,-591.174 1020.69,-584.385"/>
</g>
<!-- MyMiddlewareManager -->
<g id="node66" class="node"><title>MyMiddlewareManager</title>
<polygon fill="none" stroke="black" points="1012.95,-538 861.954,-538 861.954,-534 857.954,-534 857.954,-530 861.954,-530 861.954,-510 857.954,-510 857.954,-506 861.954,-506 861.954,-502 1012.95,-502 1012.95,-538"/>
<polyline fill="none" stroke="black" points="861.954,-534 865.954,-534 865.954,-530 861.954,-530 "/>
<polyline fill="none" stroke="black" points="861.954,-510 865.954,-510 865.954,-506 861.954,-506 "/>
<text text-anchor="middle" x="937.454" y="-516.3" font-family="Times,serif" font-size="14.00">MyMiddlewareManager</text>
</g>
<!-- MyMiddlewareManager&#45;&gt;ComponentBase -->
<g id="edge84" class="edge"><title>MyMiddlewareManager&#45;&gt;ComponentBase</title>
<path fill="none" stroke="black" stroke-dasharray="1,5" d="M1013.25,-506.414C1112.73,-490.273 1281.06,-470.297 1324.3,-511 1373.47,-557.284 1399.89,-1625.1 1404.18,-1813.68"/>
<polygon fill="black" stroke="black" points="1400.68,-1813.97 1404.41,-1823.88 1407.68,-1813.81 1400.68,-1813.97"/>
</g>
<!-- RouteHookManager -->
<g id="node71" class="node"><title>RouteHookManager</title>
<polygon fill="none" stroke="black" points="1271.84,-646 1143.84,-646 1143.84,-642 1139.84,-642 1139.84,-638 1143.84,-638 1143.84,-618 1139.84,-618 1139.84,-614 1143.84,-614 1143.84,-610 1271.84,-610 1271.84,-646"/>
<polyline fill="none" stroke="black" points="1143.84,-642 1147.84,-642 1147.84,-638 1143.84,-638 "/>
<polyline fill="none" stroke="black" points="1143.84,-618 1147.84,-618 1147.84,-614 1143.84,-614 "/>
<text text-anchor="middle" x="1207.84" y="-624.3" font-family="Times,serif" font-size="14.00">RouteHookManager</text>
</g>
<!-- MyMiddlewareManager&#45;&gt;RouteHookManager -->
<g id="edge98" class="edge"><title>MyMiddlewareManager&#45;&gt;RouteHookManager</title>
<path fill="none" stroke="black" d="M1013.27,-526.495C1030.78,-530.546 1048.61,-536.946 1063.38,-547 1087.22,-563.235 1075.81,-584.37 1099.38,-601 1109.67,-608.263 1121.73,-613.577 1133.98,-617.464"/>
<polygon fill="black" stroke="black" points="1133.24,-620.892 1143.81,-620.285 1135.17,-614.163 1133.24,-620.892"/>
</g>
<!-- X_Core_Route -->
<g id="node76" class="node"><title>X_Core_Route</title>
<polygon fill="none" stroke="black" points="1256.34,-694 1141.34,-694 1141.34,-670 1256.34,-670 1256.34,-664 1274.34,-682 1256.34,-700 1256.34,-694"/>
<text text-anchor="middle" x="1207.84" y="-678.3" font-family="Times,serif" font-size="14.00">DuckPhp\Core\Route</text>
</g>
<!-- MyMiddlewareManager&#45;&gt;X_Core_Route -->
<g id="edge99" class="edge"><title>MyMiddlewareManager&#45;&gt;X_Core_Route</title>
<path fill="none" stroke="black" stroke-dasharray="5,2" d="M1013.06,-523.336C1031.28,-527.373 1049.5,-534.557 1063.38,-547 1101.05,-580.777 1062.28,-620.6 1099.38,-655 1108.45,-663.411 1119.75,-669.299 1131.57,-673.403"/>
<polygon fill="black" stroke="black" points="1130.56,-676.751 1141.14,-676.325 1132.6,-670.057 1130.56,-676.751"/>
</g>
<!-- RedisManager -->
<g id="node67" class="node"><title>RedisManager</title>
<polygon fill="none" stroke="black" points="985.454,-52 889.454,-52 889.454,-48 885.454,-48 885.454,-44 889.454,-44 889.454,-24 885.454,-24 885.454,-20 889.454,-20 889.454,-16 985.454,-16 985.454,-52"/>
<polyline fill="none" stroke="black" points="889.454,-48 893.454,-48 893.454,-44 889.454,-44 "/>
<polyline fill="none" stroke="black" points="889.454,-24 893.454,-24 893.454,-20 889.454,-20 "/>
<text text-anchor="middle" x="937.454" y="-30.3" font-family="Times,serif" font-size="14.00">RedisManager</text>
</g>
<!-- RedisManager&#45;&gt;ComponentBase -->
<g id="edge85" class="edge"><title>RedisManager&#45;&gt;ComponentBase</title>
<path fill="none" stroke="black" stroke-dasharray="1,5" d="M985.78,-22.9591C1068.2,-6.85837 1237.56,11.7891 1324.3,-82 1385.67,-148.353 1402.34,-1592.79 1404.54,-1813.75"/>
<polygon fill="black" stroke="black" points="1401.04,-1813.92 1404.63,-1823.88 1408.04,-1813.85 1401.04,-1813.92"/>
</g>
<!-- RedisCache -->
<g id="node68" class="node"><title>RedisCache</title>
<polygon fill="none" stroke="black" points="977.954,-430 896.954,-430 896.954,-426 892.954,-426 892.954,-422 896.954,-422 896.954,-402 892.954,-402 892.954,-398 896.954,-398 896.954,-394 977.954,-394 977.954,-430"/>
<polyline fill="none" stroke="black" points="896.954,-426 900.954,-426 900.954,-422 896.954,-422 "/>
<polyline fill="none" stroke="black" points="896.954,-402 900.954,-402 900.954,-398 896.954,-398 "/>
<text text-anchor="middle" x="937.454" y="-408.3" font-family="Times,serif" font-size="14.00">RedisCache</text>
</g>
<!-- RedisCache&#45;&gt;ComponentBase -->
<g id="edge86" class="edge"><title>RedisCache&#45;&gt;ComponentBase</title>
<path fill="none" stroke="black" stroke-dasharray="1,5" d="M978.217,-401.08C1057.01,-382.129 1233.19,-353.608 1324.3,-448 1373.51,-498.981 1399.99,-1619.89 1404.2,-1813.61"/>
<polygon fill="black" stroke="black" points="1400.71,-1813.9 1404.42,-1823.83 1407.7,-1813.75 1400.71,-1813.9"/>
</g>
<!-- RouteHookApiServer -->
<g id="node69" class="node"><title>RouteHookApiServer</title>
<polygon fill="none" stroke="black" points="1004.45,-376 870.454,-376 870.454,-372 866.454,-372 866.454,-368 870.454,-368 870.454,-348 866.454,-348 866.454,-344 870.454,-344 870.454,-340 1004.45,-340 1004.45,-376"/>
<polyline fill="none" stroke="black" points="870.454,-372 874.454,-372 874.454,-368 870.454,-368 "/>
<polyline fill="none" stroke="black" points="870.454,-348 874.454,-348 874.454,-344 870.454,-344 "/>
<text text-anchor="middle" x="937.454" y="-354.3" font-family="Times,serif" font-size="14.00">RouteHookApiServer</text>
</g>
<!-- RouteHookApiServer&#45;&gt;ComponentBase -->
<g id="edge87" class="edge"><title>RouteHookApiServer&#45;&gt;ComponentBase</title>
<path fill="none" stroke="black" stroke-dasharray="1,5" d="M1004.51,-351.714C1102.89,-343.956 1280.99,-336.606 1324.3,-380 1376.92,-432.727 1400.68,-1615.02 1404.3,-1813.77"/>
<polygon fill="black" stroke="black" points="1400.81,-1814.03 1404.49,-1823.97 1407.81,-1813.91 1400.81,-1814.03"/>
</g>
<!-- RouteHookDirectoryMode -->
<g id="node70" class="node"><title>RouteHookDirectoryMode</title>
<polygon fill="none" stroke="black" points="1018.95,-322 855.954,-322 855.954,-318 851.954,-318 851.954,-314 855.954,-314 855.954,-294 851.954,-294 851.954,-290 855.954,-290 855.954,-286 1018.95,-286 1018.95,-322"/>
<polyline fill="none" stroke="black" points="855.954,-318 859.954,-318 859.954,-314 855.954,-314 "/>
<polyline fill="none" stroke="black" points="855.954,-294 859.954,-294 859.954,-290 855.954,-290 "/>
<text text-anchor="middle" x="937.454" y="-300.3" font-family="Times,serif" font-size="14.00">RouteHookDirectoryMode</text>
</g>
<!-- RouteHookDirectoryMode&#45;&gt;ComponentBase -->
<g id="edge88" class="edge"><title>RouteHookDirectoryMode&#45;&gt;ComponentBase</title>
<path fill="none" stroke="black" stroke-dasharray="1,5" d="M1018.96,-300.185C1119.65,-297.327 1283.77,-299.618 1324.3,-342 1377.18,-397.288 1400.76,-1611.79 1404.32,-1813.68"/>
<polygon fill="black" stroke="black" points="1400.82,-1813.84 1404.49,-1823.78 1407.82,-1813.72 1400.82,-1813.84"/>
</g>
<!-- RouteHookManager&#45;&gt;ComponentBase -->
<g id="edge89" class="edge"><title>RouteHookManager&#45;&gt;ComponentBase</title>
<path fill="none" stroke="black" stroke-dasharray="1,5" d="M1271.87,-628.645C1291.46,-632.145 1311.3,-639.706 1324.3,-655 1401.64,-746.008 1404.94,-1641.48 1404.86,-1813.5"/>
<polygon fill="black" stroke="black" points="1401.36,-1813.55 1404.85,-1823.56 1408.36,-1813.56 1401.36,-1813.55"/>
</g>
<!-- RouteHookRewrite -->
<g id="node72" class="node"><title>RouteHookRewrite</title>
<polygon fill="none" stroke="black" points="998.454,-268 876.454,-268 876.454,-264 872.454,-264 872.454,-260 876.454,-260 876.454,-240 872.454,-240 872.454,-236 876.454,-236 876.454,-232 998.454,-232 998.454,-268"/>
<polyline fill="none" stroke="black" points="876.454,-264 880.454,-264 880.454,-260 876.454,-260 "/>
<polyline fill="none" stroke="black" points="876.454,-240 880.454,-240 880.454,-236 876.454,-236 "/>
<text text-anchor="middle" x="937.454" y="-246.3" font-family="Times,serif" font-size="14.00">RouteHookRewrite</text>
</g>
<!-- RouteHookRewrite&#45;&gt;ComponentBase -->
<g id="edge90" class="edge"><title>RouteHookRewrite&#45;&gt;ComponentBase</title>
<path fill="none" stroke="black" stroke-dasharray="1,5" d="M998.825,-248.172C1096.18,-246.642 1281.32,-250.06 1324.3,-296 1378.22,-353.637 1400.97,-1607.45 1404.35,-1813.47"/>
<polygon fill="black" stroke="black" points="1400.85,-1813.82 1404.52,-1823.76 1407.85,-1813.71 1400.85,-1813.82"/>
</g>
<!-- StaticReplacer -->
<g id="node73" class="node"><title>StaticReplacer</title>
<polygon fill="none" stroke="black" points="984.954,-214 889.954,-214 889.954,-210 885.954,-210 885.954,-206 889.954,-206 889.954,-186 885.954,-186 885.954,-182 889.954,-182 889.954,-178 984.954,-178 984.954,-214"/>
<polyline fill="none" stroke="black" points="889.954,-210 893.954,-210 893.954,-206 889.954,-206 "/>
<polyline fill="none" stroke="black" points="889.954,-186 893.954,-186 893.954,-182 889.954,-182 "/>
<text text-anchor="middle" x="937.454" y="-192.3" font-family="Times,serif" font-size="14.00">StaticReplacer</text>
</g>
<!-- StaticReplacer&#45;&gt;ComponentBase -->
<g id="edge91" class="edge"><title>StaticReplacer&#45;&gt;ComponentBase</title>
<path fill="none" stroke="black" stroke-dasharray="1,5" d="M985.121,-185.403C1067.29,-169.818 1237.29,-151.884 1324.3,-246 1379.72,-305.948 1401.29,-1605.27 1404.4,-1813.86"/>
<polygon fill="black" stroke="black" points="1400.9,-1814.05 1404.55,-1823.99 1407.9,-1813.94 1400.9,-1814.05"/>
</g>
<!-- StrictCheck -->
<g id="node74" class="node"><title>StrictCheck</title>
<polygon fill="none" stroke="black" points="977.454,-484 897.454,-484 897.454,-480 893.454,-480 893.454,-476 897.454,-476 897.454,-456 893.454,-456 893.454,-452 897.454,-452 897.454,-448 977.454,-448 977.454,-484"/>
<polyline fill="none" stroke="black" points="897.454,-480 901.454,-480 901.454,-476 897.454,-476 "/>
<polyline fill="none" stroke="black" points="897.454,-456 901.454,-456 901.454,-452 897.454,-452 "/>
<text text-anchor="middle" x="937.454" y="-462.3" font-family="Times,serif" font-size="14.00">StrictCheck</text>
</g>
<!-- StrictCheck&#45;&gt;ComponentBase -->
<g id="edge92" class="edge"><title>StrictCheck&#45;&gt;ComponentBase</title>
<path fill="none" stroke="black" stroke-dasharray="1,5" d="M977.59,-461.578C1065.83,-452.556 1276.35,-436.645 1324.3,-484 1373.34,-532.429 1399.89,-1621.99 1404.18,-1813.42"/>
<polygon fill="black" stroke="black" points="1400.68,-1813.62 1404.4,-1823.54 1407.68,-1813.46 1400.68,-1813.62"/>
</g>
<!-- X_DbManager -->
<g id="node78" class="node"><title>X_DbManager</title>
<polygon fill="none" stroke="black" points="1291.34,-586 1106.34,-586 1106.34,-562 1291.34,-562 1291.34,-556 1309.34,-574 1291.34,-592 1291.34,-586"/>
<text text-anchor="middle" x="1207.84" y="-570.3" font-family="Times,serif" font-size="14.00">DuckPhp\Component\DbManager</text>
</g>
<!-- StrictCheck&#45;&gt;X_DbManager -->
<g id="edge104" class="edge"><title>StrictCheck&#45;&gt;X_DbManager</title>
<path fill="none" stroke="black" stroke-dasharray="5,2" d="M977.593,-471.35C1002.66,-475.528 1035.59,-482.43 1063.38,-493 1102.46,-507.863 1143.68,-532.162 1171.86,-550.276"/>
<polygon fill="black" stroke="black" points="1170.24,-553.398 1180.53,-555.919 1174.06,-547.531 1170.24,-553.398"/>
</g>
<!-- SuperGlobalContext -->
<g id="node75" class="node"><title>SuperGlobalContext</title>
<polygon fill="none" stroke="black" points="1001.45,-160 873.454,-160 873.454,-156 869.454,-156 869.454,-152 873.454,-152 873.454,-132 869.454,-132 869.454,-128 873.454,-128 873.454,-124 1001.45,-124 1001.45,-160"/>
<polyline fill="none" stroke="black" points="873.454,-156 877.454,-156 877.454,-152 873.454,-152 "/>
<polyline fill="none" stroke="black" points="873.454,-132 877.454,-132 877.454,-128 873.454,-128 "/>
<text text-anchor="middle" x="937.454" y="-138.3" font-family="Times,serif" font-size="14.00">SuperGlobalContext</text>
</g>
<!-- SuperGlobalContext&#45;&gt;ComponentBase -->
<g id="edge93" class="edge"><title>SuperGlobalContext&#45;&gt;ComponentBase</title>
<path fill="none" stroke="black" stroke-dasharray="1,5" d="M1001.82,-137.131C1099.74,-131.133 1281.07,-126.596 1324.3,-171 1384.04,-232.367 1402.04,-1599.52 1404.49,-1813.84"/>
<polygon fill="black" stroke="black" points="1401,-1814.01 1404.61,-1823.97 1407.99,-1813.93 1401,-1814.01"/>
</g>
</g>
</svg>
