<?xml version="1.0" encoding="UTF-8" standalone="no"?>
<!DOCTYPE svg PUBLIC "-//W3C//DTD SVG 1.1//EN"
 "http://www.w3.org/Graphics/SVG/1.1/DTD/svg11.dtd">
<!-- Generated by graphviz version 2.38.0 (20140413.2041)
 -->
<!-- Title: DuckPhp Pages: 1 -->
<svg width="1290pt" height="2260pt"
 viewBox="0.00 0.00 1289.96 2260.00" xmlns="http://www.w3.org/2000/svg" xmlns:xlink="http://www.w3.org/1999/xlink">
<g id="graph0" class="graph" transform="scale(1 1) rotate(0) translate(4 2256)">
<title>DuckPhp</title>
<polygon fill="white" stroke="none" points="-4,4 -4,-2256 1285.96,-2256 1285.96,4 -4,4"/>
<g id="clust1" class="cluster"><title>cluster_HttpServer</title>
<polygon fill="none" stroke="black" points="34.1171,-164 34.1171,-345 168.515,-345 168.515,-164 34.1171,-164"/>
<text text-anchor="middle" x="101.316" y="-331.4" font-family="Times,serif" font-size="12.00">[DuckPhp\HttpServer]</text>
</g>
<g id="clust2" class="cluster"><title>cluster_SingletonEx</title>
<polygon fill="none" stroke="black" points="8,-975 8,-1102 194.632,-1102 194.632,-975 8,-975"/>
<text text-anchor="middle" x="101.316" y="-1088.4" font-family="Times,serif" font-size="12.00">[DuckPhp\SingletonEx]</text>
</g>
<g id="clust3" class="cluster"><title>cluster_ThrowOn</title>
<polygon fill="none" stroke="black" points="18.4469,-1421 18.4469,-1494 184.185,-1494 184.185,-1421 18.4469,-1421"/>
<text text-anchor="middle" x="101.316" y="-1480.4" font-family="Times,serif" font-size="12.00">[DuckPhp\ThrowOn]</text>
</g>
<g id="clust4" class="cluster"><title>cluster_Core</title>
<polygon fill="none" stroke="black" points="419.523,-1627 419.523,-2064 1273.96,-2064 1273.96,-1627 419.523,-1627"/>
<text text-anchor="middle" x="846.743" y="-2050.4" font-family="Times,serif" font-size="12.00">[DuckPhp\Core]</text>
</g>
<g id="clust5" class="cluster"><title>cluster_Helper</title>
<polygon fill="none" stroke="black" points="8.87057,-1657 8.87057,-1946 388.332,-1946 388.332,-1657 8.87057,-1657"/>
<text text-anchor="middle" x="198.601" y="-1932.4" font-family="Times,serif" font-size="12.00">[DuckPhp\Helper]</text>
</g>
<g id="clust6" class="cluster"><title>cluster_Db</title>
<polygon fill="none" stroke="black" points="65.4577,-2117 65.4577,-2244 399.523,-2244 399.523,-2117 65.4577,-2117"/>
<text text-anchor="middle" x="232.49" y="-2230.4" font-family="Times,serif" font-size="12.00">[DuckPhp\Db]</text>
</g>
<g id="clust7" class="cluster"><title>cluster_Component</title>
<polygon fill="none" stroke="black" points="562.603,-1091 562.603,-1542 989.464,-1542 989.464,-1091 562.603,-1091"/>
<text text-anchor="middle" x="776.034" y="-1528.4" font-family="Times,serif" font-size="12.00">[DuckPhp\Component]</text>
</g>
<g id="clust8" class="cluster"><title>cluster_DuckPhp</title>
<polygon fill="none" stroke="black" points="245.102,-1253 245.102,-1326 369.053,-1326 369.053,-1253 245.102,-1253"/>
<text text-anchor="middle" x="307.077" y="-1312.4" font-family="Times,serif" font-size="12.00">[DuckPhp]</text>
</g>
<g id="clust9" class="cluster"><title>cluster_Ext</title>
<polygon fill="none" stroke="black" points="552.156,-8 552.156,-1053 993.964,-1053 993.964,-8 552.156,-8"/>
<text text-anchor="middle" x="773.06" y="-1039.4" font-family="Times,serif" font-size="12.00">[DuckPhp\Ext]</text>
</g>
<!-- AppInterface -->
<g id="node1" class="node"><title>AppInterface</title>
<polygon fill="none" stroke="black" points="134.816,-316 61.816,-316 61.816,-280 140.816,-280 140.816,-310 134.816,-316"/>
<polyline fill="none" stroke="black" points="134.816,-316 134.816,-310 "/>
<polyline fill="none" stroke="black" points="140.816,-310 134.816,-310 "/>
<text text-anchor="middle" x="101.316" y="-294.9" font-family="Times,serif" font-size="12.00">AppInterface</text>
</g>
<!-- HttpServer -->
<g id="node2" class="node"><title>HttpServer</title>
<polygon fill="lightgrey" stroke="black" points="101.316,-262 41.9176,-244 101.316,-226 160.714,-244 101.316,-262"/>
<polyline fill="none" stroke="black" points="53.4019,-247.48 53.4019,-240.52 "/>
<polyline fill="none" stroke="black" points="89.8317,-229.48 112.8,-229.48 "/>
<polyline fill="none" stroke="black" points="149.23,-240.52 149.23,-247.48 "/>
<polyline fill="none" stroke="black" points="112.8,-258.52 89.8317,-258.52 "/>
<text text-anchor="middle" x="101.316" y="-240.9" font-family="Times,serif" font-size="12.00">HttpServer</text>
</g>
<!-- ServerInterface -->
<g id="node3" class="node"><title>ServerInterface</title>
<polygon fill="none" stroke="black" points="139.816,-208 56.816,-208 56.816,-172 145.816,-172 145.816,-202 139.816,-208"/>
<polyline fill="none" stroke="black" points="139.816,-208 139.816,-202 "/>
<polyline fill="none" stroke="black" points="145.816,-202 139.816,-202 "/>
<text text-anchor="middle" x="101.316" y="-186.9" font-family="Times,serif" font-size="12.00">ServerInterface</text>
</g>
<!-- SingletonExTrait -->
<g id="node4" class="node"><title>SingletonExTrait</title>
<polygon fill="lightgrey" stroke="black" points="101.316,-1073 16.1836,-1055 101.316,-1037 186.448,-1055 101.316,-1073"/>
<polyline fill="none" stroke="black" points="27.924,-1057.48 27.924,-1052.52 "/>
<polyline fill="none" stroke="black" points="89.5756,-1039.48 113.056,-1039.48 "/>
<polyline fill="none" stroke="black" points="174.708,-1052.52 174.708,-1057.48 "/>
<polyline fill="none" stroke="black" points="113.056,-1070.52 89.5756,-1070.52 "/>
<text text-anchor="middle" x="101.316" y="-1051.9" font-family="Times,serif" font-size="12.00">SingletonExTrait</text>
</g>
<!-- SimpleReplacer -->
<g id="node5" class="node"><title>SimpleReplacer</title>
<ellipse fill="none" stroke="black" cx="101.316" cy="-1001" rx="56.7683" ry="18"/>
<text text-anchor="middle" x="101.316" y="-997.9" font-family="Times,serif" font-size="12.00">SimpleReplacer</text>
</g>
<!-- ThrowOnTrait -->
<g id="node6" class="node"><title>ThrowOnTrait</title>
<polygon fill="lightgrey" stroke="black" points="101.316,-1465 26.5775,-1447 101.316,-1429 176.055,-1447 101.316,-1465"/>
<polyline fill="none" stroke="black" points="38.2439,-1449.81 38.2439,-1444.19 "/>
<polyline fill="none" stroke="black" points="89.6496,-1431.81 112.982,-1431.81 "/>
<polyline fill="none" stroke="black" points="164.388,-1444.19 164.388,-1449.81 "/>
<polyline fill="none" stroke="black" points="112.982,-1462.19 89.6496,-1462.19 "/>
<text text-anchor="middle" x="101.316" y="-1443.9" font-family="Times,serif" font-size="12.00">ThrowOnTrait</text>
</g>
<!-- App -->
<g id="node7" class="node"><title>App</title>
<polygon fill="lightgrey" stroke="black" points="460.605,-1810 427.441,-1792 460.605,-1774 493.768,-1792 460.605,-1810"/>
<polyline fill="none" stroke="black" points="437.988,-1797.72 437.988,-1786.28 "/>
<polyline fill="none" stroke="black" points="450.058,-1779.72 471.151,-1779.72 "/>
<polyline fill="none" stroke="black" points="483.222,-1786.28 483.222,-1797.72 "/>
<polyline fill="none" stroke="black" points="471.151,-1804.28 450.058,-1804.28 "/>
<text text-anchor="middle" x="460.605" y="-1788.9" font-family="Times,serif" font-size="12.00">App</text>
</g>
<!-- KernelTrait -->
<g id="node8" class="node"><title>KernelTrait</title>
<polygon fill="none" stroke="black" points="649.825,-1864 588.203,-1846 649.825,-1828 711.447,-1846 649.825,-1864"/>
<text text-anchor="middle" x="649.825" y="-1842.9" font-family="Times,serif" font-size="12.00">KernelTrait</text>
</g>
<!-- App&#45;&gt;KernelTrait -->
<g id="edge8" class="edge"><title>App&#45;&gt;KernelTrait</title>
<path fill="none" stroke="black" d="M479.536,-1799.99C493.109,-1805.83 512.317,-1813.62 529.686,-1819 553.141,-1826.26 579.747,-1832.48 601.857,-1837.11"/>
<polygon fill="black" stroke="black" points="601.173,-1840.54 611.672,-1839.12 602.58,-1833.68 601.173,-1840.54"/>
</g>
<!-- AutoLoader -->
<g id="node9" class="node"><title>AutoLoader</title>
<polygon fill="lightgrey" stroke="black" points="895.964,-1995 831.619,-1977 895.964,-1959 960.309,-1977 895.964,-1995"/>
<polyline fill="none" stroke="black" points="843.176,-1980.23 843.176,-1973.77 "/>
<polyline fill="none" stroke="black" points="884.408,-1962.23 907.52,-1962.23 "/>
<polyline fill="none" stroke="black" points="948.752,-1973.77 948.752,-1980.23 "/>
<polyline fill="none" stroke="black" points="907.52,-1991.77 884.408,-1991.77 "/>
<text text-anchor="middle" x="895.964" y="-1973.9" font-family="Times,serif" font-size="12.00">AutoLoader</text>
</g>
<!-- App&#45;&gt;AutoLoader -->
<g id="edge11" class="edge"><title>App&#45;&gt;AutoLoader</title>
<path fill="none" stroke="black" d="M467.469,-1806.34C477.027,-1827.7 498.12,-1867.33 529.686,-1886 622.318,-1940.78 672.619,-1870.11 769.964,-1916 789.871,-1925.38 786.928,-1938.96 805.964,-1950 818.664,-1957.37 833.57,-1962.91 847.514,-1966.99"/>
<polygon fill="black" stroke="black" points="846.882,-1970.44 857.451,-1969.71 848.729,-1963.69 846.882,-1970.44"/>
</g>
<!-- ExceptionManager -->
<g id="node10" class="node"><title>ExceptionManager</title>
<polygon fill="none" stroke="black" points="949.464,-1833 842.464,-1833 842.464,-1829 838.464,-1829 838.464,-1825 842.464,-1825 842.464,-1805 838.464,-1805 838.464,-1801 842.464,-1801 842.464,-1797 949.464,-1797 949.464,-1833"/>
<polyline fill="none" stroke="black" points="842.464,-1829 846.464,-1829 846.464,-1825 842.464,-1825 "/>
<polyline fill="none" stroke="black" points="842.464,-1805 846.464,-1805 846.464,-1801 842.464,-1801 "/>
<text text-anchor="middle" x="895.964" y="-1811.9" font-family="Times,serif" font-size="12.00">ExceptionManager</text>
</g>
<!-- App&#45;&gt;ExceptionManager -->
<g id="edge14" class="edge"><title>App&#45;&gt;ExceptionManager</title>
<path fill="none" stroke="black" d="M478.137,-1783.39C491.604,-1776.89 511.327,-1768.51 529.686,-1765 634.579,-1744.96 667.46,-1735.05 769.964,-1765 788.189,-1770.32 788.718,-1780.06 805.964,-1788 814.365,-1791.87 823.463,-1795.36 832.524,-1798.44"/>
<polygon fill="black" stroke="black" points="831.716,-1801.86 842.308,-1801.63 833.885,-1795.21 831.716,-1801.86"/>
</g>
<!-- View -->
<g id="node11" class="node"><title>View</title>
<polygon fill="none" stroke="black" points="922.964,-1671 868.964,-1671 868.964,-1667 864.964,-1667 864.964,-1663 868.964,-1663 868.964,-1643 864.964,-1643 864.964,-1639 868.964,-1639 868.964,-1635 922.964,-1635 922.964,-1671"/>
<polyline fill="none" stroke="black" points="868.964,-1667 872.964,-1667 872.964,-1663 868.964,-1663 "/>
<polyline fill="none" stroke="black" points="868.964,-1643 872.964,-1643 872.964,-1639 868.964,-1639 "/>
<text text-anchor="middle" x="895.964" y="-1649.9" font-family="Times,serif" font-size="12.00">View</text>
</g>
<!-- App&#45;&gt;View -->
<g id="edge17" class="edge"><title>App&#45;&gt;View</title>
<path fill="none" stroke="black" d="M466.192,-1777C474.485,-1752.73 494.465,-1705.43 529.686,-1684 634.677,-1620.13 789.093,-1634.97 858.648,-1646.13"/>
<polygon fill="black" stroke="black" points="858.23,-1649.6 868.671,-1647.8 859.385,-1642.7 858.23,-1649.6"/>
</g>
<!-- Configer -->
<g id="node12" class="node"><title>Configer</title>
<polygon fill="none" stroke="black" points="925.464,-1887 866.464,-1887 866.464,-1883 862.464,-1883 862.464,-1879 866.464,-1879 866.464,-1859 862.464,-1859 862.464,-1855 866.464,-1855 866.464,-1851 925.464,-1851 925.464,-1887"/>
<polyline fill="none" stroke="black" points="866.464,-1883 870.464,-1883 870.464,-1879 866.464,-1879 "/>
<polyline fill="none" stroke="black" points="866.464,-1859 870.464,-1859 870.464,-1855 866.464,-1855 "/>
<text text-anchor="middle" x="895.964" y="-1865.9" font-family="Times,serif" font-size="12.00">Configer</text>
</g>
<!-- App&#45;&gt;Configer -->
<g id="edge12" class="edge"><title>App&#45;&gt;Configer</title>
<path fill="none" stroke="black" d="M468.459,-1806.13C478.709,-1825.43 500.045,-1859.19 529.686,-1873 586.62,-1899.52 774.116,-1882.61 856.059,-1873.6"/>
<polygon fill="black" stroke="black" points="856.658,-1877.05 866.206,-1872.46 855.879,-1870.09 856.658,-1877.05"/>
</g>
<!-- Logger -->
<g id="node13" class="node"><title>Logger</title>
<polygon fill="none" stroke="black" points="676.825,-1961 622.825,-1961 622.825,-1957 618.825,-1957 618.825,-1953 622.825,-1953 622.825,-1933 618.825,-1933 618.825,-1929 622.825,-1929 622.825,-1925 676.825,-1925 676.825,-1961"/>
<polyline fill="none" stroke="black" points="622.825,-1957 626.825,-1957 626.825,-1953 622.825,-1953 "/>
<polyline fill="none" stroke="black" points="622.825,-1933 626.825,-1933 626.825,-1929 622.825,-1929 "/>
<text text-anchor="middle" x="649.825" y="-1939.9" font-family="Times,serif" font-size="12.00">Logger</text>
</g>
<!-- App&#45;&gt;Logger -->
<g id="edge13" class="edge"><title>App&#45;&gt;Logger</title>
<path fill="none" stroke="black" d="M466.155,-1807.19C474.507,-1832.44 494.715,-1882.92 529.686,-1910 553.551,-1928.48 587.147,-1936.61 612.582,-1940.19"/>
<polygon fill="black" stroke="black" points="612.23,-1943.68 622.584,-1941.43 613.088,-1936.73 612.23,-1943.68"/>
</g>
<!-- Route -->
<g id="node14" class="node"><title>Route</title>
<polygon fill="lightgrey" stroke="black" points="895.964,-1725 856.612,-1707 895.964,-1689 935.316,-1707 895.964,-1725"/>
<polyline fill="none" stroke="black" points="867.524,-1711.99 867.524,-1702.01 "/>
<polyline fill="none" stroke="black" points="885.051,-1693.99 906.877,-1693.99 "/>
<polyline fill="none" stroke="black" points="924.404,-1702.01 924.404,-1711.99 "/>
<polyline fill="none" stroke="black" points="906.877,-1720.01 885.051,-1720.01 "/>
<text text-anchor="middle" x="895.964" y="-1703.9" font-family="Times,serif" font-size="12.00">Route</text>
</g>
<!-- App&#45;&gt;Route -->
<g id="edge15" class="edge"><title>App&#45;&gt;Route</title>
<path fill="none" stroke="black" d="M469.552,-1778.85C480.621,-1761.93 502.426,-1733.25 529.686,-1721 640.404,-1671.24 789.583,-1688.02 857.947,-1699.69"/>
<polygon fill="black" stroke="black" points="857.749,-1703.21 868.207,-1701.51 858.97,-1696.32 857.749,-1703.21"/>
</g>
<!-- RuntimeState -->
<g id="node15" class="node"><title>RuntimeState</title>
<polygon fill="none" stroke="black" points="935.964,-1779 855.964,-1779 855.964,-1775 851.964,-1775 851.964,-1771 855.964,-1771 855.964,-1751 851.964,-1751 851.964,-1747 855.964,-1747 855.964,-1743 935.964,-1743 935.964,-1779"/>
<polyline fill="none" stroke="black" points="855.964,-1775 859.964,-1775 859.964,-1771 855.964,-1771 "/>
<polyline fill="none" stroke="black" points="855.964,-1751 859.964,-1751 859.964,-1747 855.964,-1747 "/>
<text text-anchor="middle" x="895.964" y="-1757.9" font-family="Times,serif" font-size="12.00">RuntimeState</text>
</g>
<!-- App&#45;&gt;RuntimeState -->
<g id="edge16" class="edge"><title>App&#45;&gt;RuntimeState</title>
<path fill="none" stroke="black" d="M472.856,-1780.4C485.408,-1768.38 506.956,-1750.33 529.686,-1743 638.256,-1707.99 774.349,-1730.99 845.858,-1747.81"/>
<polygon fill="black" stroke="black" points="845.386,-1751.3 855.929,-1750.25 847.029,-1744.5 845.386,-1751.3"/>
</g>
<!-- SystemWrapperTrait -->
<g id="node16" class="node"><title>SystemWrapperTrait</title>
<polygon fill="none" stroke="black" points="649.825,-1810 549.594,-1792 649.825,-1774 750.057,-1792 649.825,-1810"/>
<text text-anchor="middle" x="649.825" y="-1788.9" font-family="Times,serif" font-size="12.00">SystemWrapperTrait</text>
</g>
<!-- App&#45;&gt;SystemWrapperTrait -->
<g id="edge10" class="edge"><title>App&#45;&gt;SystemWrapperTrait</title>
<path fill="none" stroke="black" d="M493.789,-1792C506.776,-1792 522.587,-1792 539.087,-1792"/>
<polygon fill="black" stroke="black" points="539.431,-1795.5 549.431,-1792 539.431,-1788.5 539.431,-1795.5"/>
</g>
<!-- ExtendableStaticCallTrait -->
<g id="node17" class="node"><title>ExtendableStaticCallTrait</title>
<polygon fill="none" stroke="black" points="649.825,-2035 529.547,-2017 649.825,-1999 770.103,-2017 649.825,-2035"/>
<text text-anchor="middle" x="649.825" y="-2013.9" font-family="Times,serif" font-size="12.00">ExtendableStaticCallTrait</text>
</g>
<!-- App&#45;&gt;ExtendableStaticCallTrait -->
<g id="edge9" class="edge"><title>App&#45;&gt;ExtendableStaticCallTrait</title>
<path fill="none" stroke="black" d="M465.167,-1807.76C474.844,-1849.25 502.705,-1960.01 529.686,-1985 540.475,-1994.99 554.046,-2001.92 568.131,-2006.72"/>
<polygon fill="black" stroke="black" points="567.35,-2010.14 577.936,-2009.71 569.392,-2003.45 567.35,-2010.14"/>
</g>
<!-- ComponentBase -->
<g id="node19" class="node"><title>ComponentBase</title>
<polygon fill="none" stroke="black" points="1116.96,-1671 1025.96,-1671 1021.96,-1667 1021.96,-1635 1112.96,-1635 1116.96,-1639 1116.96,-1671"/>
<polyline fill="none" stroke="black" points="1112.96,-1667 1021.96,-1667 "/>
<polyline fill="none" stroke="black" points="1112.96,-1667 1112.96,-1635 "/>
<polyline fill="none" stroke="black" points="1112.96,-1667 1116.96,-1671 "/>
<text text-anchor="middle" x="1069.46" y="-1649.9" font-family="Times,serif" font-size="12.00">ComponentBase</text>
</g>
<!-- App&#45;&gt;ComponentBase -->
<g id="edge18" class="edge"><title>App&#45;&gt;ComponentBase</title>
<path fill="none" stroke="black" stroke-dasharray="1,5" d="M462.439,-1809.21C465.226,-1845.69 477.308,-1930.65 529.686,-1970 572.526,-2002.18 719.881,-1970.96 769.964,-1990 788.659,-1997.11 786.99,-2010.68 805.964,-2017 885.232,-2043.42 929.228,-2069.83 993.964,-2017 1046.11,-1974.45 1062.75,-1759.39 1067.11,-1681.35"/>
<polygon fill="black" stroke="black" points="1070.61,-1681.45 1067.65,-1671.28 1063.62,-1681.07 1070.61,-1681.45"/>
</g>
<!-- KernelTrait&#45;&gt;AutoLoader -->
<g id="edge1" class="edge"><title>KernelTrait&#45;&gt;AutoLoader</title>
<path fill="none" stroke="black" d="M681.377,-1854.92C706.993,-1863.49 743.522,-1878.35 769.964,-1900 791.15,-1917.35 783.688,-1934.07 805.964,-1950 817.269,-1958.08 831.031,-1963.78 844.321,-1967.79"/>
<polygon fill="black" stroke="black" points="843.774,-1971.27 854.343,-1970.53 845.623,-1964.51 843.774,-1971.27"/>
</g>
<!-- KernelTrait&#45;&gt;ExceptionManager -->
<g id="edge3" class="edge"><title>KernelTrait&#45;&gt;ExceptionManager</title>
<path fill="none" stroke="black" d="M693.351,-1840.6C731.754,-1835.72 788.761,-1828.49 832.368,-1822.95"/>
<polygon fill="black" stroke="black" points="832.82,-1826.42 842.3,-1821.69 831.938,-1819.47 832.82,-1826.42"/>
</g>
<!-- KernelTrait&#45;&gt;View -->
<g id="edge6" class="edge"><title>KernelTrait&#45;&gt;View</title>
<path fill="none" stroke="black" d="M708.98,-1845.17C730.627,-1841.97 753.827,-1834.65 769.964,-1819 815.773,-1774.57 761.777,-1726.04 805.964,-1680 819.673,-1665.72 840.668,-1658.92 858.823,-1655.72"/>
<polygon fill="black" stroke="black" points="859.444,-1659.16 868.83,-1654.25 858.428,-1652.24 859.444,-1659.16"/>
</g>
<!-- KernelTrait&#45;&gt;Configer -->
<g id="edge2" class="edge"><title>KernelTrait&#45;&gt;Configer</title>
<path fill="none" stroke="black" d="M696.746,-1850.33C742.811,-1854.67 812.966,-1861.28 856.283,-1865.36"/>
<polygon fill="black" stroke="black" points="856.138,-1868.86 866.422,-1866.31 856.795,-1861.89 856.138,-1868.86"/>
</g>
<!-- KernelTrait&#45;&gt;Route -->
<g id="edge4" class="edge"><title>KernelTrait&#45;&gt;Route</title>
<path fill="none" stroke="black" d="M705.718,-1844.23C727.778,-1840.99 752.15,-1833.9 769.964,-1819 801.435,-1792.68 775.457,-1761.43 805.964,-1734 818.89,-1722.38 836.684,-1715.76 852.965,-1711.98"/>
<polygon fill="black" stroke="black" points="853.743,-1715.4 862.851,-1709.98 852.355,-1708.54 853.743,-1715.4"/>
</g>
<!-- KernelTrait&#45;&gt;RuntimeState -->
<g id="edge5" class="edge"><title>KernelTrait&#45;&gt;RuntimeState</title>
<path fill="none" stroke="black" d="M695.305,-1841.17C718.487,-1837.38 746.764,-1830.69 769.964,-1819 788.819,-1809.5 787.462,-1798.17 805.964,-1788 818.374,-1781.18 832.728,-1775.86 846.237,-1771.82"/>
<polygon fill="black" stroke="black" points="847.21,-1775.18 855.884,-1769.1 845.309,-1768.44 847.21,-1775.18"/>
</g>
<!-- Functions -->
<g id="node20" class="node"><title>Functions</title>
<ellipse fill="none" stroke="black" cx="895.964" cy="-1923" rx="38.5652" ry="18"/>
<text text-anchor="middle" x="895.964" y="-1919.9" font-family="Times,serif" font-size="12.00">Functions</text>
</g>
<!-- KernelTrait&#45;&gt;Functions -->
<g id="edge7" class="edge"><title>KernelTrait&#45;&gt;Functions</title>
<path fill="none" stroke="black" d="M679.657,-1855.46C710.772,-1865.62 761.807,-1882.19 805.964,-1896 821.24,-1900.78 838.029,-1905.9 852.87,-1910.39"/>
<polygon fill="black" stroke="black" points="852.206,-1913.85 862.791,-1913.39 854.228,-1907.15 852.206,-1913.85"/>
</g>
<!-- ExceptionManager&#45;&gt;ComponentBase -->
<g id="edge19" class="edge"><title>ExceptionManager&#45;&gt;ComponentBase</title>
<path fill="none" stroke="black" stroke-dasharray="1,5" d="M949.602,-1808.3C965.098,-1804.33 981.28,-1798.03 993.964,-1788 1028.87,-1760.4 1049.85,-1711.73 1060.28,-1680.99"/>
<polygon fill="black" stroke="black" points="1063.66,-1681.9 1063.42,-1671.3 1057,-1679.74 1063.66,-1681.9"/>
</g>
<!-- View&#45;&gt;ComponentBase -->
<g id="edge23" class="edge"><title>View&#45;&gt;ComponentBase</title>
<path fill="none" stroke="black" stroke-dasharray="1,5" d="M923.011,-1653C946.397,-1653 981.545,-1653 1011.43,-1653"/>
<polygon fill="black" stroke="black" points="1011.75,-1656.5 1021.75,-1653 1011.75,-1649.5 1011.75,-1656.5"/>
</g>
<!-- Configer&#45;&gt;ComponentBase -->
<g id="edge20" class="edge"><title>Configer&#45;&gt;ComponentBase</title>
<path fill="none" stroke="black" stroke-dasharray="1,5" d="M925.68,-1867.69C946.91,-1865.29 975.264,-1858.85 993.964,-1842 1041.45,-1799.21 1059.04,-1722.29 1065.26,-1681"/>
<polygon fill="black" stroke="black" points="1068.73,-1681.46 1066.64,-1671.08 1061.8,-1680.5 1068.73,-1681.46"/>
</g>
<!-- Logger&#45;&gt;ComponentBase -->
<g id="edge24" class="edge"><title>Logger&#45;&gt;ComponentBase</title>
<path fill="none" stroke="black" stroke-dasharray="1,5" d="M677.048,-1946.82C701.971,-1951.18 739.989,-1959.76 769.964,-1975 788.279,-1984.31 786.588,-1997.17 805.964,-2004 845.363,-2017.9 961.5,-2030.3 993.964,-2004 1044.25,-1963.26 1061.99,-1757.43 1066.88,-1681.33"/>
<polygon fill="black" stroke="black" points="1070.39,-1681.28 1067.51,-1671.08 1063.41,-1680.85 1070.39,-1681.28"/>
</g>
<!-- Route&#45;&gt;ComponentBase -->
<g id="edge21" class="edge"><title>Route&#45;&gt;ComponentBase</title>
<path fill="none" stroke="black" stroke-dasharray="1,5" d="M921.837,-1700.64C941.524,-1695.46 969.656,-1687.78 993.964,-1680 999.897,-1678.1 1006.06,-1676.03 1012.19,-1673.91"/>
<polygon fill="black" stroke="black" points="1013.48,-1677.16 1021.76,-1670.54 1011.16,-1670.56 1013.48,-1677.16"/>
</g>
<!-- RuntimeState&#45;&gt;ComponentBase -->
<g id="edge22" class="edge"><title>RuntimeState&#45;&gt;ComponentBase</title>
<path fill="none" stroke="black" stroke-dasharray="1,5" d="M936.273,-1755.21C954.761,-1751.24 976.521,-1744.68 993.964,-1734 1016.65,-1720.11 1036.69,-1697.37 1050.26,-1679.52"/>
<polygon fill="black" stroke="black" points="1053.27,-1681.33 1056.38,-1671.21 1047.64,-1677.18 1053.27,-1681.33"/>
</g>
<!-- ComponentInterface -->
<g id="node18" class="node"><title>ComponentInterface</title>
<polygon fill="none" stroke="black" points="1259.96,-1671 1152.96,-1671 1152.96,-1635 1265.96,-1635 1265.96,-1665 1259.96,-1671"/>
<polyline fill="none" stroke="black" points="1259.96,-1671 1259.96,-1665 "/>
<polyline fill="none" stroke="black" points="1265.96,-1665 1259.96,-1665 "/>
<text text-anchor="middle" x="1209.46" y="-1649.9" font-family="Times,serif" font-size="12.00">ComponentInterface</text>
</g>
<!-- ComponentBase&#45;&gt;ComponentInterface -->
<g id="edge25" class="edge"><title>ComponentBase&#45;&gt;ComponentInterface</title>
<path fill="none" stroke="black" d="M1117.18,-1653C1125.39,-1653 1134.07,-1653 1142.68,-1653"/>
<polygon fill="black" stroke="black" points="1142.72,-1656.5 1152.72,-1653 1142.72,-1649.5 1142.72,-1656.5"/>
</g>
<!-- AdvanceHelper -->
<g id="node21" class="node"><title>AdvanceHelper</title>
<polygon fill="lightgrey" stroke="black" points="101.316,-1755 21.1307,-1737 101.316,-1719 181.501,-1737 101.316,-1755"/>
<polyline fill="none" stroke="black" points="32.8394,-1739.63 32.8394,-1734.37 "/>
<polyline fill="none" stroke="black" points="89.6074,-1721.63 113.025,-1721.63 "/>
<polyline fill="none" stroke="black" points="169.793,-1734.37 169.793,-1739.63 "/>
<polyline fill="none" stroke="black" points="113.025,-1752.37 89.6074,-1752.37 "/>
<text text-anchor="middle" x="101.316" y="-1733.9" font-family="Times,serif" font-size="12.00">AdvanceHelper</text>
</g>
<!-- AdvanceHelper&#45;&gt;ExtendableStaticCallTrait -->
<g id="edge31" class="edge"><title>AdvanceHelper&#45;&gt;ExtendableStaticCallTrait</title>
<path fill="none" stroke="black" d="M157.448,-1742.42C171.403,-1746.39 185.114,-1753.02 194.632,-1764 251.998,-1830.14 160.494,-1897.32 222.632,-1959 245.998,-1982.19 439.438,-2000.96 557.532,-2010.39"/>
<polygon fill="black" stroke="black" points="557.415,-2013.89 567.66,-2011.19 557.967,-2006.91 557.415,-2013.89"/>
</g>
<!-- AdvanceHelperTrait -->
<g id="node26" class="node"><title>AdvanceHelperTrait</title>
<ellipse fill="none" stroke="black" cx="307.077" cy="-1737" rx="70.3543" ry="18"/>
<text text-anchor="middle" x="307.077" y="-1733.9" font-family="Times,serif" font-size="12.00">AdvanceHelperTrait</text>
</g>
<!-- AdvanceHelper&#45;&gt;AdvanceHelperTrait -->
<g id="edge36" class="edge"><title>AdvanceHelper&#45;&gt;AdvanceHelperTrait</title>
<path fill="none" stroke="black" d="M181.679,-1737C196.478,-1737 211.944,-1737 226.743,-1737"/>
<polygon fill="black" stroke="black" points="226.864,-1740.5 236.864,-1737 226.864,-1733.5 226.864,-1740.5"/>
</g>
<!-- ControllerHelper -->
<g id="node22" class="node"><title>ControllerHelper</title>
<polygon fill="lightgrey" stroke="black" points="101.316,-1701 16.9251,-1683 101.316,-1665 185.707,-1683 101.316,-1701"/>
<polyline fill="none" stroke="black" points="28.6611,-1685.5 28.6611,-1680.5 "/>
<polyline fill="none" stroke="black" points="89.58,-1667.5 113.052,-1667.5 "/>
<polyline fill="none" stroke="black" points="173.971,-1680.5 173.971,-1685.5 "/>
<polyline fill="none" stroke="black" points="113.052,-1698.5 89.58,-1698.5 "/>
<text text-anchor="middle" x="101.316" y="-1679.9" font-family="Times,serif" font-size="12.00">ControllerHelper</text>
</g>
<!-- ControllerHelper&#45;&gt;ExtendableStaticCallTrait -->
<g id="edge32" class="edge"><title>ControllerHelper&#45;&gt;ExtendableStaticCallTrait</title>
<path fill="none" stroke="black" d="M158.99,-1688.75C172.441,-1692.77 185.515,-1699.34 194.632,-1710 257.554,-1783.56 156.108,-1855.68 222.632,-1926 277.591,-1984.1 321.248,-1942.6 399.523,-1959 466.598,-1973.05 543.332,-1991.22 593.746,-2003.45"/>
<polygon fill="black" stroke="black" points="592.923,-2006.85 603.467,-2005.81 594.577,-2000.05 592.923,-2006.85"/>
</g>
<!-- ControllerHelperTrait -->
<g id="node27" class="node"><title>ControllerHelperTrait</title>
<ellipse fill="none" stroke="black" cx="307.077" cy="-1683" rx="73.0105" ry="18"/>
<text text-anchor="middle" x="307.077" y="-1679.9" font-family="Times,serif" font-size="12.00">ControllerHelperTrait</text>
</g>
<!-- ControllerHelper&#45;&gt;ControllerHelperTrait -->
<g id="edge37" class="edge"><title>ControllerHelper&#45;&gt;ControllerHelperTrait</title>
<path fill="none" stroke="black" d="M185.782,-1683C198.146,-1683 210.884,-1683 223.236,-1683"/>
<polygon fill="black" stroke="black" points="223.504,-1686.5 233.504,-1683 223.504,-1679.5 223.504,-1686.5"/>
</g>
<!-- ModelHelper -->
<g id="node23" class="node"><title>ModelHelper</title>
<polygon fill="lightgrey" stroke="black" points="101.316,-1809 31.5243,-1791 101.316,-1773 171.108,-1791 101.316,-1809"/>
<polyline fill="none" stroke="black" points="43.144,-1794 43.144,-1788 "/>
<polyline fill="none" stroke="black" points="89.6962,-1776 112.936,-1776 "/>
<polyline fill="none" stroke="black" points="159.488,-1788 159.488,-1794 "/>
<polyline fill="none" stroke="black" points="112.936,-1806 89.6962,-1806 "/>
<text text-anchor="middle" x="101.316" y="-1787.9" font-family="Times,serif" font-size="12.00">ModelHelper</text>
</g>
<!-- ModelHelper&#45;&gt;ExtendableStaticCallTrait -->
<g id="edge33" class="edge"><title>ModelHelper&#45;&gt;ExtendableStaticCallTrait</title>
<path fill="none" stroke="black" d="M153.988,-1795.58C169.075,-1799.43 184.274,-1806.21 194.632,-1818 247.771,-1878.5 162.696,-1943.23 222.632,-1997 271.487,-2040.83 456.941,-2033.56 566.459,-2024.94"/>
<polygon fill="black" stroke="black" points="566.802,-2028.42 576.488,-2024.13 566.238,-2021.44 566.802,-2028.42"/>
</g>
<!-- ModelHelperTrait -->
<g id="node28" class="node"><title>ModelHelperTrait</title>
<ellipse fill="none" stroke="black" cx="307.077" cy="-1791" rx="62.5805" ry="18"/>
<text text-anchor="middle" x="307.077" y="-1787.9" font-family="Times,serif" font-size="12.00">ModelHelperTrait</text>
</g>
<!-- ModelHelper&#45;&gt;ModelHelperTrait -->
<g id="edge38" class="edge"><title>ModelHelper&#45;&gt;ModelHelperTrait</title>
<path fill="none" stroke="black" d="M171.016,-1791C191.278,-1791 213.505,-1791 233.974,-1791"/>
<polygon fill="black" stroke="black" points="234.18,-1794.5 244.18,-1791 234.18,-1787.5 234.18,-1794.5"/>
</g>
<!-- BusinessHelper -->
<g id="node24" class="node"><title>BusinessHelper</title>
<polygon fill="lightgrey" stroke="black" points="101.316,-1917 21.8714,-1899 101.316,-1881 180.761,-1899 101.316,-1917"/>
<polyline fill="none" stroke="black" points="33.5747,-1901.65 33.5747,-1896.35 "/>
<polyline fill="none" stroke="black" points="89.6126,-1883.65 113.019,-1883.65 "/>
<polyline fill="none" stroke="black" points="169.057,-1896.35 169.057,-1901.65 "/>
<polyline fill="none" stroke="black" points="113.019,-1914.35 89.6126,-1914.35 "/>
<text text-anchor="middle" x="101.316" y="-1895.9" font-family="Times,serif" font-size="12.00">BusinessHelper</text>
</g>
<!-- BusinessHelper&#45;&gt;ExtendableStaticCallTrait -->
<g id="edge34" class="edge"><title>BusinessHelper&#45;&gt;ExtendableStaticCallTrait</title>
<path fill="none" stroke="black" d="M107.828,-1915.71C120.92,-1952.31 157.741,-2038.98 222.632,-2073 353.043,-2141.38 535.606,-2071.08 612.459,-2035.26"/>
<polygon fill="black" stroke="black" points="614.191,-2038.31 621.727,-2030.87 611.192,-2031.99 614.191,-2038.31"/>
</g>
<!-- BusinessHelperTrait -->
<g id="node29" class="node"><title>BusinessHelperTrait</title>
<ellipse fill="none" stroke="black" cx="307.077" cy="-1899" rx="69.6227" ry="18"/>
<text text-anchor="middle" x="307.077" y="-1895.9" font-family="Times,serif" font-size="12.00">BusinessHelperTrait</text>
</g>
<!-- BusinessHelper&#45;&gt;BusinessHelperTrait -->
<g id="edge39" class="edge"><title>BusinessHelper&#45;&gt;BusinessHelperTrait</title>
<path fill="none" stroke="black" d="M180.804,-1899C195.925,-1899 211.772,-1899 226.915,-1899"/>
<polygon fill="black" stroke="black" points="227.267,-1902.5 237.267,-1899 227.267,-1895.5 227.267,-1902.5"/>
</g>
<!-- ViewHelper -->
<g id="node25" class="node"><title>ViewHelper</title>
<polygon fill="lightgrey" stroke="black" points="101.316,-1863 36.2296,-1845 101.316,-1827 166.402,-1845 101.316,-1863"/>
<polyline fill="none" stroke="black" points="47.7955,-1848.2 47.7955,-1841.8 "/>
<polyline fill="none" stroke="black" points="89.7502,-1830.2 112.882,-1830.2 "/>
<polyline fill="none" stroke="black" points="154.837,-1841.8 154.837,-1848.2 "/>
<polyline fill="none" stroke="black" points="112.882,-1859.8 89.7502,-1859.8 "/>
<text text-anchor="middle" x="101.316" y="-1841.9" font-family="Times,serif" font-size="12.00">ViewHelper</text>
</g>
<!-- ViewHelper&#45;&gt;ExtendableStaticCallTrait -->
<g id="edge35" class="edge"><title>ViewHelper&#45;&gt;ExtendableStaticCallTrait</title>
<path fill="none" stroke="black" d="M151.959,-1849.2C167.66,-1852.97 183.741,-1859.79 194.632,-1872 243.551,-1926.86 166.428,-1987.63 222.632,-2035 276.2,-2080.15 483.38,-2048.73 587.855,-2029.26"/>
<polygon fill="black" stroke="black" points="588.762,-2032.65 597.94,-2027.36 587.465,-2025.77 588.762,-2032.65"/>
</g>
<!-- ViewHelperTrait -->
<g id="node30" class="node"><title>ViewHelperTrait</title>
<ellipse fill="none" stroke="black" cx="307.077" cy="-1845" rx="60.1555" ry="18"/>
<text text-anchor="middle" x="307.077" y="-1841.9" font-family="Times,serif" font-size="12.00">ViewHelperTrait</text>
</g>
<!-- ViewHelper&#45;&gt;ViewHelperTrait -->
<g id="edge40" class="edge"><title>ViewHelper&#45;&gt;ViewHelperTrait</title>
<path fill="none" stroke="black" d="M166.508,-1845C188.763,-1845 213.811,-1845 236.481,-1845"/>
<polygon fill="black" stroke="black" points="236.711,-1848.5 246.711,-1845 236.711,-1841.5 236.711,-1848.5"/>
</g>
<!-- AdvanceHelperTrait&#45;&gt;App -->
<g id="edge26" class="edge"><title>AdvanceHelperTrait&#45;&gt;App</title>
<path fill="none" stroke="black" d="M356.458,-1749.83C370.492,-1753.94 385.743,-1758.79 399.523,-1764 411.06,-1768.36 423.469,-1773.98 433.997,-1779.04"/>
<polygon fill="black" stroke="black" points="432.537,-1782.22 443.058,-1783.47 435.615,-1775.93 432.537,-1782.22"/>
</g>
<!-- ControllerHelperTrait&#45;&gt;App -->
<g id="edge27" class="edge"><title>ControllerHelperTrait&#45;&gt;App</title>
<path fill="none" stroke="black" d="M365.823,-1693.85C377.634,-1697.73 389.502,-1702.95 399.523,-1710 421.038,-1725.13 437.864,-1750.43 448.169,-1768.93"/>
<polygon fill="black" stroke="black" points="445.159,-1770.73 452.954,-1777.9 451.335,-1767.43 445.159,-1770.73"/>
</g>
<!-- ModelHelperTrait&#45;&gt;App -->
<g id="edge28" class="edge"><title>ModelHelperTrait&#45;&gt;App</title>
<path fill="none" stroke="black" d="M370.147,-1791.41C386.062,-1791.51 402.812,-1791.63 417.459,-1791.72"/>
<polygon fill="black" stroke="black" points="417.688,-1795.22 427.711,-1791.79 417.734,-1788.22 417.688,-1795.22"/>
</g>
<!-- BusinessHelperTrait&#45;&gt;App -->
<g id="edge29" class="edge"><title>BusinessHelperTrait&#45;&gt;App</title>
<path fill="none" stroke="black" d="M364.324,-1888.52C376.608,-1884.61 389.053,-1879.27 399.523,-1872 420.664,-1857.32 437.46,-1832.83 447.858,-1814.81"/>
<polygon fill="black" stroke="black" points="450.921,-1816.5 452.702,-1806.06 444.797,-1813.11 450.921,-1816.5"/>
</g>
<!-- ViewHelperTrait&#45;&gt;App -->
<g id="edge30" class="edge"><title>ViewHelperTrait&#45;&gt;App</title>
<path fill="none" stroke="black" d="M352.616,-1833.02C367.642,-1828.67 384.427,-1823.47 399.523,-1818 410.616,-1813.98 422.594,-1808.94 432.913,-1804.38"/>
<polygon fill="black" stroke="black" points="434.533,-1807.49 442.216,-1800.19 431.661,-1801.1 434.533,-1807.49"/>
</g>
<!-- Db_Db -->
<g id="node31" class="node"><title>Db_Db</title>
<polygon fill="lightgrey" stroke="black" points="101.316,-2188 73.5987,-2170 101.316,-2152 129.033,-2170 101.316,-2188"/>
<polyline fill="none" stroke="black" points="82.8378,-2176 82.8378,-2164 "/>
<polyline fill="none" stroke="black" points="92.0769,-2158 110.555,-2158 "/>
<polyline fill="none" stroke="black" points="119.794,-2164 119.794,-2176 "/>
<polyline fill="none" stroke="black" points="110.555,-2182 92.0769,-2182 "/>
<text text-anchor="middle" x="101.316" y="-2166.9" font-family="Times,serif" font-size="12.00">Db</text>
</g>
<!-- Db_DbAdvanceTrait -->
<g id="node32" class="node"><title>Db_DbAdvanceTrait</title>
<polygon fill="none" stroke="black" points="307.077,-2215 222.687,-2197 307.077,-2179 391.468,-2197 307.077,-2215"/>
<text text-anchor="middle" x="307.077" y="-2193.9" font-family="Times,serif" font-size="12.00">DbAdvanceTrait</text>
</g>
<!-- Db_Db&#45;&gt;Db_DbAdvanceTrait -->
<g id="edge41" class="edge"><title>Db_Db&#45;&gt;Db_DbAdvanceTrait</title>
<path fill="none" stroke="black" d="M124.51,-2172.94C153.036,-2176.72 203.722,-2183.44 244.304,-2188.81"/>
<polygon fill="black" stroke="black" points="244.011,-2192.31 254.384,-2190.15 244.931,-2185.37 244.011,-2192.31"/>
</g>
<!-- Db_DbInterface -->
<g id="node33" class="node"><title>Db_DbInterface</title>
<polygon fill="none" stroke="black" points="337.577,-2161 270.577,-2161 270.577,-2125 343.577,-2125 343.577,-2155 337.577,-2161"/>
<polyline fill="none" stroke="black" points="337.577,-2161 337.577,-2155 "/>
<polyline fill="none" stroke="black" points="343.577,-2155 337.577,-2155 "/>
<text text-anchor="middle" x="307.077" y="-2139.9" font-family="Times,serif" font-size="12.00">DbInterface</text>
</g>
<!-- Db_Db&#45;&gt;Db_DbInterface -->
<g id="edge42" class="edge"><title>Db_Db&#45;&gt;Db_DbInterface</title>
<path fill="none" stroke="black" d="M124.51,-2167.06C156.908,-2162.77 217.889,-2154.69 260.19,-2149.08"/>
<polygon fill="black" stroke="black" points="260.792,-2152.53 270.246,-2147.75 259.873,-2145.59 260.792,-2152.53"/>
</g>
<!-- AppPluginTrait -->
<g id="node34" class="node"><title>AppPluginTrait</title>
<polygon fill="lightgrey" stroke="black" points="649.825,-1513 570.381,-1495 649.825,-1477 729.27,-1495 649.825,-1513"/>
<polyline fill="none" stroke="black" points="582.084,-1497.65 582.084,-1492.35 "/>
<polyline fill="none" stroke="black" points="638.122,-1479.65 661.529,-1479.65 "/>
<polyline fill="none" stroke="black" points="717.566,-1492.35 717.566,-1497.65 "/>
<polyline fill="none" stroke="black" points="661.529,-1510.35 638.122,-1510.35 "/>
<text text-anchor="middle" x="649.825" y="-1491.9" font-family="Times,serif" font-size="12.00">AppPluginTrait</text>
</g>
<!-- AppPluginTrait&#45;&gt;View -->
<g id="edge44" class="edge"><title>AppPluginTrait&#45;&gt;View</title>
<path fill="none" stroke="black" stroke-dasharray="5,2" d="M665.405,-1509.75C691.507,-1535.46 748.847,-1588.78 805.964,-1621 822.426,-1630.29 842.078,-1637.69 858.723,-1643.03"/>
<polygon fill="black" stroke="black" points="858.056,-1646.49 868.643,-1646.08 860.116,-1639.8 858.056,-1646.49"/>
</g>
<!-- AppPluginTrait&#45;&gt;Configer -->
<g id="edge43" class="edge"><title>AppPluginTrait&#45;&gt;Configer</title>
<path fill="none" stroke="black" stroke-dasharray="5,2" d="M669.277,-1508.82C696.222,-1530.11 745.755,-1573.67 769.964,-1623 813.423,-1711.55 740.953,-1767.82 805.964,-1842 818.507,-1856.31 838.367,-1863.17 856.147,-1866.4"/>
<polygon fill="black" stroke="black" points="855.897,-1869.9 866.304,-1867.92 856.929,-1862.98 855.897,-1869.9"/>
</g>
<!-- AppPluginTrait&#45;&gt;Route -->
<g id="edge45" class="edge"><title>AppPluginTrait&#45;&gt;Route</title>
<path fill="none" stroke="black" stroke-dasharray="5,2" d="M666.092,-1509.55C689.747,-1532.49 736.058,-1578.99 769.964,-1623 788.25,-1646.74 782.129,-1661.84 805.964,-1680 820.004,-1690.7 838.282,-1697.18 854.618,-1701.1"/>
<polygon fill="black" stroke="black" points="853.97,-1704.54 864.483,-1703.22 855.443,-1697.7 853.97,-1704.54"/>
</g>
<!-- Cache -->
<g id="node35" class="node"><title>Cache</title>
<polygon fill="none" stroke="black" points="676.825,-1405 622.825,-1405 622.825,-1401 618.825,-1401 618.825,-1397 622.825,-1397 622.825,-1377 618.825,-1377 618.825,-1373 622.825,-1373 622.825,-1369 676.825,-1369 676.825,-1405"/>
<polyline fill="none" stroke="black" points="622.825,-1401 626.825,-1401 626.825,-1397 622.825,-1397 "/>
<polyline fill="none" stroke="black" points="622.825,-1377 626.825,-1377 626.825,-1373 622.825,-1373 "/>
<text text-anchor="middle" x="649.825" y="-1383.9" font-family="Times,serif" font-size="12.00">Cache</text>
</g>
<!-- Cache&#45;&gt;ComponentBase -->
<g id="edge46" class="edge"><title>Cache&#45;&gt;ComponentBase</title>
<path fill="none" stroke="black" stroke-dasharray="1,5" d="M677.171,-1385.65C704.014,-1385.76 745.125,-1390.26 769.964,-1414 813.616,-1455.72 761.826,-1503.8 805.964,-1545 868.278,-1603.17 918.228,-1543.87 993.964,-1583 1014.78,-1593.75 1033.93,-1612.03 1047.61,-1627.21"/>
<polygon fill="black" stroke="black" points="1045.03,-1629.57 1054.24,-1634.81 1050.3,-1624.97 1045.03,-1629.57"/>
</g>
<!-- Console -->
<g id="node36" class="node"><title>Console</title>
<polygon fill="lightgrey" stroke="black" points="895.964,-1135 847.459,-1117 895.964,-1099 944.469,-1117 895.964,-1135"/>
<polyline fill="none" stroke="black" points="858.709,-1121.17 858.709,-1112.83 "/>
<polyline fill="none" stroke="black" points="884.714,-1103.17 907.214,-1103.17 "/>
<polyline fill="none" stroke="black" points="933.219,-1112.83 933.219,-1121.17 "/>
<polyline fill="none" stroke="black" points="907.214,-1130.83 884.714,-1130.83 "/>
<text text-anchor="middle" x="895.964" y="-1113.9" font-family="Times,serif" font-size="12.00">Console</text>
</g>
<!-- DbManager -->
<g id="node37" class="node"><title>DbManager</title>
<polygon fill="none" stroke="black" points="686.825,-1351 612.825,-1351 612.825,-1347 608.825,-1347 608.825,-1343 612.825,-1343 612.825,-1323 608.825,-1323 608.825,-1319 612.825,-1319 612.825,-1315 686.825,-1315 686.825,-1351"/>
<polyline fill="none" stroke="black" points="612.825,-1347 616.825,-1347 616.825,-1343 612.825,-1343 "/>
<polyline fill="none" stroke="black" points="612.825,-1323 616.825,-1323 616.825,-1319 612.825,-1319 "/>
<text text-anchor="middle" x="649.825" y="-1329.9" font-family="Times,serif" font-size="12.00">DbManager</text>
</g>
<!-- DbManager&#45;&gt;ComponentBase -->
<g id="edge48" class="edge"><title>DbManager&#45;&gt;ComponentBase</title>
<path fill="none" stroke="black" stroke-dasharray="1,5" d="M687.052,-1331.7C713.452,-1332.77 748.259,-1338.67 769.964,-1360 817.937,-1407.15 757.443,-1460.42 805.964,-1507 867.457,-1566.04 922.809,-1498.06 993.964,-1545 1023.67,-1564.6 1044.87,-1600.51 1056.88,-1625.52"/>
<polygon fill="black" stroke="black" points="1053.81,-1627.22 1061.17,-1634.84 1060.17,-1624.29 1053.81,-1627.22"/>
</g>
<!-- X_Db_Db -->
<g id="node46" class="node"><title>X_Db_Db</title>
<polygon fill="none" stroke="black" points="926.964,-1345 846.964,-1345 846.964,-1321 926.964,-1321 926.964,-1315 944.964,-1333 926.964,-1351 926.964,-1345"/>
<text text-anchor="middle" x="895.964" y="-1329.9" font-family="Times,serif" font-size="12.00">DuckPhp\Db\Db</text>
</g>
<!-- DbManager&#45;&gt;X_Db_Db -->
<g id="edge57" class="edge"><title>DbManager&#45;&gt;X_Db_Db</title>
<path fill="none" stroke="black" stroke-dasharray="5,2" d="M686.849,-1333C726.186,-1333 789.778,-1333 836.328,-1333"/>
<polygon fill="black" stroke="black" points="836.58,-1336.5 846.58,-1333 836.58,-1329.5 836.58,-1336.5"/>
</g>
<!-- DuckPhpCommand -->
<g id="node38" class="node"><title>DuckPhpCommand</title>
<polygon fill="none" stroke="black" points="705.325,-1243 594.325,-1243 594.325,-1239 590.325,-1239 590.325,-1235 594.325,-1235 594.325,-1215 590.325,-1215 590.325,-1211 594.325,-1211 594.325,-1207 705.325,-1207 705.325,-1243"/>
<polyline fill="none" stroke="black" points="594.325,-1239 598.325,-1239 598.325,-1235 594.325,-1235 "/>
<polyline fill="none" stroke="black" points="594.325,-1215 598.325,-1215 598.325,-1211 594.325,-1211 "/>
<text text-anchor="middle" x="649.825" y="-1221.9" font-family="Times,serif" font-size="12.00">DuckPhpCommand</text>
</g>
<!-- DuckPhpCommand&#45;&gt;ComponentBase -->
<g id="edge47" class="edge"><title>DuckPhpCommand&#45;&gt;ComponentBase</title>
<path fill="none" stroke="black" stroke-dasharray="1,5" d="M705.454,-1224.84C728.274,-1227.64 753.3,-1234.92 769.964,-1252 826.641,-1310.08 748.611,-1373.59 805.964,-1431 866.212,-1491.31 928.369,-1414.56 993.964,-1469 1041.8,-1508.7 1059.21,-1583.81 1065.32,-1624.71"/>
<polygon fill="black" stroke="black" points="1061.88,-1625.38 1066.71,-1634.81 1068.82,-1624.43 1061.88,-1625.38"/>
</g>
<!-- DuckPhpCommand&#45;&gt;Console -->
<g id="edge54" class="edge"><title>DuckPhpCommand&#45;&gt;Console</title>
<path fill="none" stroke="black" d="M705.625,-1221.33C727.168,-1217.76 751.184,-1210.93 769.964,-1198 793.724,-1181.65 782.805,-1161.19 805.964,-1144 818.938,-1134.37 835.37,-1128.14 850.573,-1124.13"/>
<polygon fill="black" stroke="black" points="851.423,-1127.52 860.338,-1121.8 849.798,-1120.71 851.423,-1127.52"/>
</g>
<!-- Installer -->
<g id="node40" class="node"><title>Installer</title>
<polygon fill="none" stroke="black" points="922.964,-1297 868.964,-1297 868.964,-1293 864.964,-1293 864.964,-1289 868.964,-1289 868.964,-1269 864.964,-1269 864.964,-1265 868.964,-1265 868.964,-1261 922.964,-1261 922.964,-1297"/>
<polyline fill="none" stroke="black" points="868.964,-1293 872.964,-1293 872.964,-1289 868.964,-1289 "/>
<polyline fill="none" stroke="black" points="868.964,-1269 872.964,-1269 872.964,-1265 868.964,-1265 "/>
<text text-anchor="middle" x="895.964" y="-1275.9" font-family="Times,serif" font-size="12.00">Installer</text>
</g>
<!-- DuckPhpCommand&#45;&gt;Installer -->
<g id="edge55" class="edge"><title>DuckPhpCommand&#45;&gt;Installer</title>
<path fill="none" stroke="black" d="M705.615,-1237.12C752.432,-1247.47 818.45,-1262.08 858.886,-1271.02"/>
<polygon fill="black" stroke="black" points="858.315,-1274.48 868.835,-1273.22 859.827,-1267.64 858.315,-1274.48"/>
</g>
<!-- X_HttpServer -->
<g id="node45" class="node"><title>X_HttpServer</title>
<polygon fill="none" stroke="black" points="963.464,-1237 810.464,-1237 810.464,-1213 963.464,-1213 963.464,-1207 981.464,-1225 963.464,-1243 963.464,-1237"/>
<text text-anchor="middle" x="895.964" y="-1221.9" font-family="Times,serif" font-size="12.00">DuckPhp\HttpServer\HttpServer</text>
</g>
<!-- DuckPhpCommand&#45;&gt;X_HttpServer -->
<g id="edge56" class="edge"><title>DuckPhpCommand&#45;&gt;X_HttpServer</title>
<path fill="none" stroke="black" stroke-dasharray="5,2" d="M705.615,-1225C733.396,-1225 767.94,-1225 799.886,-1225"/>
<polygon fill="black" stroke="black" points="800.156,-1228.5 810.156,-1225 800.156,-1221.5 800.156,-1228.5"/>
</g>
<!-- EventManager -->
<g id="node39" class="node"><title>EventManager</title>
<polygon fill="none" stroke="black" points="692.825,-1297 606.825,-1297 606.825,-1293 602.825,-1293 602.825,-1289 606.825,-1289 606.825,-1269 602.825,-1269 602.825,-1265 606.825,-1265 606.825,-1261 692.825,-1261 692.825,-1297"/>
<polyline fill="none" stroke="black" points="606.825,-1293 610.825,-1293 610.825,-1289 606.825,-1289 "/>
<polyline fill="none" stroke="black" points="606.825,-1269 610.825,-1269 610.825,-1265 606.825,-1265 "/>
<text text-anchor="middle" x="649.825" y="-1275.9" font-family="Times,serif" font-size="12.00">EventManager</text>
</g>
<!-- EventManager&#45;&gt;ComponentBase -->
<g id="edge49" class="edge"><title>EventManager&#45;&gt;ComponentBase</title>
<path fill="none" stroke="black" stroke-dasharray="1,5" d="M692.843,-1277.84C718.457,-1279.44 749.999,-1285.92 769.964,-1306 822.28,-1358.6 753.035,-1417.01 805.964,-1469 866.78,-1528.73 926.06,-1455.46 993.964,-1507 1032.62,-1536.34 1052.84,-1591.38 1062.02,-1624.86"/>
<polygon fill="black" stroke="black" points="1058.73,-1626.11 1064.63,-1634.91 1065.51,-1624.36 1058.73,-1626.11"/>
</g>
<!-- Installer&#45;&gt;ComponentBase -->
<g id="edge50" class="edge"><title>Installer&#45;&gt;ComponentBase</title>
<path fill="none" stroke="black" stroke-dasharray="1,5" d="M922.964,-1279.17C944.967,-1280.77 975.748,-1286.66 993.964,-1306 1037.65,-1352.39 1059.37,-1550.32 1066.11,-1624.65"/>
<polygon fill="black" stroke="black" points="1062.63,-1625.03 1066.99,-1634.68 1069.6,-1624.41 1062.63,-1625.03"/>
</g>
<!-- Pager -->
<g id="node41" class="node"><title>Pager</title>
<polygon fill="none" stroke="black" points="676.825,-1189 622.825,-1189 622.825,-1185 618.825,-1185 618.825,-1181 622.825,-1181 622.825,-1161 618.825,-1161 618.825,-1157 622.825,-1157 622.825,-1153 676.825,-1153 676.825,-1189"/>
<polyline fill="none" stroke="black" points="622.825,-1185 626.825,-1185 626.825,-1181 622.825,-1181 "/>
<polyline fill="none" stroke="black" points="622.825,-1161 626.825,-1161 626.825,-1157 622.825,-1157 "/>
<text text-anchor="middle" x="649.825" y="-1167.9" font-family="Times,serif" font-size="12.00">Pager</text>
</g>
<!-- Pager&#45;&gt;ComponentBase -->
<g id="edge51" class="edge"><title>Pager&#45;&gt;ComponentBase</title>
<path fill="none" stroke="black" stroke-dasharray="1,5" d="M676.84,-1169.23C704.009,-1168.91 745.944,-1172.99 769.964,-1198 831.014,-1261.56 744.174,-1330.16 805.964,-1393 865.731,-1453.78 930.058,-1374.58 993.964,-1431 1051.08,-1481.42 1064.5,-1576.99 1067.59,-1624.58"/>
<polygon fill="black" stroke="black" points="1064.1,-1624.99 1068.14,-1634.79 1071.09,-1624.61 1064.1,-1624.99"/>
</g>
<!-- PagerInterface -->
<g id="node42" class="node"><title>PagerInterface</title>
<polygon fill="none" stroke="black" points="932.464,-1189 853.464,-1189 853.464,-1153 938.464,-1153 938.464,-1183 932.464,-1189"/>
<polyline fill="none" stroke="black" points="932.464,-1189 932.464,-1183 "/>
<polyline fill="none" stroke="black" points="938.464,-1183 932.464,-1183 "/>
<text text-anchor="middle" x="895.964" y="-1167.9" font-family="Times,serif" font-size="12.00">PagerInterface</text>
</g>
<!-- Pager&#45;&gt;PagerInterface -->
<g id="edge58" class="edge"><title>Pager&#45;&gt;PagerInterface</title>
<path fill="none" stroke="black" d="M676.952,-1171C716.425,-1171 792.056,-1171 843.016,-1171"/>
<polygon fill="black" stroke="black" points="843.177,-1174.5 853.177,-1171 843.177,-1167.5 843.177,-1174.5"/>
</g>
<!-- RouteHookPathInfoCompat -->
<g id="node43" class="node"><title>RouteHookPathInfoCompat</title>
<polygon fill="none" stroke="black" points="724.825,-1135 574.825,-1135 574.825,-1131 570.825,-1131 570.825,-1127 574.825,-1127 574.825,-1107 570.825,-1107 570.825,-1103 574.825,-1103 574.825,-1099 724.825,-1099 724.825,-1135"/>
<polyline fill="none" stroke="black" points="574.825,-1131 578.825,-1131 578.825,-1127 574.825,-1127 "/>
<polyline fill="none" stroke="black" points="574.825,-1107 578.825,-1107 578.825,-1103 574.825,-1103 "/>
<text text-anchor="middle" x="649.825" y="-1113.9" font-family="Times,serif" font-size="12.00">RouteHookPathInfoCompat</text>
</g>
<!-- RouteHookPathInfoCompat&#45;&gt;ComponentBase -->
<g id="edge52" class="edge"><title>RouteHookPathInfoCompat&#45;&gt;ComponentBase</title>
<path fill="none" stroke="black" stroke-dasharray="1,5" d="M724.889,-1120.01C741.714,-1124.13 758.1,-1131.43 769.964,-1144 836.768,-1214.78 737.442,-1290.89 805.964,-1360 865.691,-1420.24 930.904,-1336.25 993.964,-1393 1061.39,-1453.68 1069.48,-1570.84 1069.39,-1624.68"/>
<polygon fill="black" stroke="black" points="1065.89,-1624.83 1069.27,-1634.87 1072.89,-1624.91 1065.89,-1624.83"/>
</g>
<!-- RouteHookRouteMap -->
<g id="node44" class="node"><title>RouteHookRouteMap</title>
<polygon fill="none" stroke="black" points="710.825,-1459 588.825,-1459 588.825,-1455 584.825,-1455 584.825,-1451 588.825,-1451 588.825,-1431 584.825,-1431 584.825,-1427 588.825,-1427 588.825,-1423 710.825,-1423 710.825,-1459"/>
<polyline fill="none" stroke="black" points="588.825,-1455 592.825,-1455 592.825,-1451 588.825,-1451 "/>
<polyline fill="none" stroke="black" points="588.825,-1431 592.825,-1431 592.825,-1427 588.825,-1427 "/>
<text text-anchor="middle" x="649.825" y="-1437.9" font-family="Times,serif" font-size="12.00">RouteHookRouteMap</text>
</g>
<!-- RouteHookRouteMap&#45;&gt;ComponentBase -->
<g id="edge53" class="edge"><title>RouteHookRouteMap&#45;&gt;ComponentBase</title>
<path fill="none" stroke="black" stroke-dasharray="1,5" d="M711.034,-1442.63C731.921,-1446.07 754.064,-1453.33 769.964,-1468 809.328,-1504.32 766.636,-1546.65 805.964,-1583 868.905,-1641.18 911.739,-1601.8 993.964,-1626 999.94,-1627.76 1006.13,-1629.74 1012.28,-1631.81"/>
<polygon fill="black" stroke="black" points="1011.27,-1635.16 1021.86,-1635.12 1013.55,-1628.55 1011.27,-1635.16"/>
</g>
<!-- DuckPhp -->
<g id="node47" class="node"><title>DuckPhp</title>
<polygon fill="lightgrey" stroke="black" points="307.077,-1297 253.127,-1279 307.077,-1261 361.028,-1279 307.077,-1297"/>
<polyline fill="none" stroke="black" points="264.51,-1282.8 264.51,-1275.2 "/>
<polyline fill="none" stroke="black" points="295.694,-1264.8 318.461,-1264.8 "/>
<polyline fill="none" stroke="black" points="349.645,-1275.2 349.645,-1282.8 "/>
<polyline fill="none" stroke="black" points="318.461,-1293.2 295.694,-1293.2 "/>
<text text-anchor="middle" x="307.077" y="-1275.9" font-family="Times,serif" font-size="12.00">DuckPhp</text>
</g>
<!-- DuckPhp&#45;&gt;App -->
<g id="edge59" class="edge"><title>DuckPhp&#45;&gt;App</title>
<path fill="none" stroke="black" d="M312.863,-1295.2C334.783,-1369.41 425.68,-1677.15 452.268,-1767.16"/>
<polygon fill="black" stroke="black" points="448.926,-1768.2 455.116,-1776.8 455.64,-1766.22 448.926,-1768.2"/>
</g>
<!-- DuckPhp&#45;&gt;Cache -->
<g id="edge65" class="edge"><title>DuckPhp&#45;&gt;Cache</title>
<path fill="none" stroke="black" d="M332.006,-1288.89C372.282,-1305.28 456.407,-1338.4 529.686,-1360 557.153,-1368.1 588.788,-1375.16 612.554,-1380.03"/>
<polygon fill="black" stroke="black" points="612.054,-1383.5 622.549,-1382.05 613.437,-1376.64 612.054,-1383.5"/>
</g>
<!-- DuckPhp&#45;&gt;Console -->
<g id="edge66" class="edge"><title>DuckPhp&#45;&gt;Console</title>
<path fill="none" stroke="black" d="M317.847,-1264.55C345.411,-1225.41 428.411,-1118.38 529.686,-1090 646.51,-1057.26 792.093,-1088.32 858.678,-1106.27"/>
<polygon fill="black" stroke="black" points="858.099,-1109.74 868.67,-1109.02 859.96,-1102.99 858.099,-1109.74"/>
</g>
<!-- DuckPhp&#45;&gt;DbManager -->
<g id="edge62" class="edge"><title>DuckPhp&#45;&gt;DbManager</title>
<path fill="none" stroke="black" d="M344.221,-1284.73C406.537,-1294.6 534.098,-1314.82 602.712,-1325.69"/>
<polygon fill="black" stroke="black" points="602.372,-1329.18 612.797,-1327.29 603.468,-1322.27 602.372,-1329.18"/>
</g>
<!-- DuckPhp&#45;&gt;DuckPhpCommand -->
<g id="edge67" class="edge"><title>DuckPhp&#45;&gt;DuckPhpCommand</title>
<path fill="none" stroke="black" d="M344.221,-1273.27C401.196,-1264.24 512.711,-1246.57 583.849,-1235.3"/>
<polygon fill="black" stroke="black" points="584.712,-1238.7 594.04,-1233.68 583.616,-1231.79 584.712,-1238.7"/>
</g>
<!-- DuckPhp&#45;&gt;EventManager -->
<g id="edge63" class="edge"><title>DuckPhp&#45;&gt;EventManager</title>
<path fill="none" stroke="black" d="M361.319,-1279C425.505,-1279 532.678,-1279 596.466,-1279"/>
<polygon fill="black" stroke="black" points="596.701,-1282.5 606.701,-1279 596.701,-1275.5 596.701,-1282.5"/>
</g>
<!-- DuckPhp&#45;&gt;Pager -->
<g id="edge61" class="edge"><title>DuckPhp&#45;&gt;Pager</title>
<path fill="none" stroke="black" d="M332.006,-1269.11C372.282,-1252.72 456.407,-1219.6 529.686,-1198 557.153,-1189.9 588.788,-1182.84 612.554,-1177.97"/>
<polygon fill="black" stroke="black" points="613.437,-1181.36 622.549,-1175.95 612.054,-1174.5 613.437,-1181.36"/>
</g>
<!-- DuckPhp&#45;&gt;RouteHookPathInfoCompat -->
<g id="edge64" class="edge"><title>DuckPhp&#45;&gt;RouteHookPathInfoCompat</title>
<path fill="none" stroke="black" d="M323.966,-1266.49C358.963,-1239.61 446.24,-1176.15 529.686,-1144 540.818,-1139.71 552.81,-1136 564.747,-1132.83"/>
<polygon fill="black" stroke="black" points="565.913,-1136.14 574.741,-1130.29 564.187,-1129.36 565.913,-1136.14"/>
</g>
<!-- DuckPhp&#45;&gt;RouteHookRouteMap -->
<g id="edge60" class="edge"><title>DuckPhp&#45;&gt;RouteHookRouteMap</title>
<path fill="none" stroke="black" d="M323.999,-1291.42C359.062,-1318.14 446.462,-1381.28 529.686,-1414 545.133,-1420.07 562.269,-1424.96 578.618,-1428.81"/>
<polygon fill="black" stroke="black" points="578.149,-1432.29 588.674,-1431.08 579.689,-1425.46 578.149,-1432.29"/>
</g>
<!-- CallableView -->
<g id="node48" class="node"><title>CallableView</title>
<polygon fill="none" stroke="black" points="690.825,-646 608.825,-646 608.825,-642 604.825,-642 604.825,-638 608.825,-638 608.825,-618 604.825,-618 604.825,-614 608.825,-614 608.825,-610 690.825,-610 690.825,-646"/>
<polyline fill="none" stroke="black" points="608.825,-642 612.825,-642 612.825,-638 608.825,-638 "/>
<polyline fill="none" stroke="black" points="608.825,-618 612.825,-618 612.825,-614 608.825,-614 "/>
<text text-anchor="middle" x="649.825" y="-624.9" font-family="Times,serif" font-size="12.00">CallableView</text>
</g>
<!-- X_Core_View -->
<g id="node72" class="node"><title>X_Core_View</title>
<polygon fill="none" stroke="black" points="936.464,-746 837.464,-746 837.464,-722 936.464,-722 936.464,-716 954.464,-734 936.464,-752 936.464,-746"/>
<text text-anchor="middle" x="895.964" y="-730.9" font-family="Times,serif" font-size="12.00">DuckPhp\Core\View</text>
</g>
<!-- CallableView&#45;&gt;X_Core_View -->
<g id="edge85" class="edge"><title>CallableView&#45;&gt;X_Core_View</title>
<path fill="none" stroke="black" stroke-dasharray="5,2" d="M690.996,-629.807C715.58,-632.591 746.677,-639.271 769.964,-655 793.257,-670.733 783.249,-690.442 805.964,-707 812.55,-711.801 819.999,-715.759 827.715,-719.018"/>
<polygon fill="black" stroke="black" points="826.628,-722.35 837.218,-722.659 829.132,-715.813 826.628,-722.35"/>
</g>
<!-- EmptyView -->
<g id="node49" class="node"><title>EmptyView</title>
<polygon fill="none" stroke="black" points="686.825,-592 612.825,-592 612.825,-588 608.825,-588 608.825,-584 612.825,-584 612.825,-564 608.825,-564 608.825,-560 612.825,-560 612.825,-556 686.825,-556 686.825,-592"/>
<polyline fill="none" stroke="black" points="612.825,-588 616.825,-588 616.825,-584 612.825,-584 "/>
<polyline fill="none" stroke="black" points="612.825,-564 616.825,-564 616.825,-560 612.825,-560 "/>
<text text-anchor="middle" x="649.825" y="-570.9" font-family="Times,serif" font-size="12.00">EmptyView</text>
</g>
<!-- EmptyView&#45;&gt;X_Core_View -->
<g id="edge86" class="edge"><title>EmptyView&#45;&gt;X_Core_View</title>
<path fill="none" stroke="black" stroke-dasharray="5,2" d="M687.073,-573.289C713.136,-574.701 747.507,-580.776 769.964,-601 806.935,-634.295 770.21,-672.401 805.964,-707 812.287,-713.119 819.951,-717.856 828.098,-721.522"/>
<polygon fill="black" stroke="black" points="826.87,-724.8 837.456,-725.224 829.444,-718.291 826.87,-724.8"/>
</g>
<!-- ExceptionWrapper -->
<g id="node50" class="node"><title>ExceptionWrapper</title>
<polygon fill="none" stroke="black" points="702.825,-970 596.825,-970 596.825,-966 592.825,-966 592.825,-962 596.825,-962 596.825,-942 592.825,-942 592.825,-938 596.825,-938 596.825,-934 702.825,-934 702.825,-970"/>
<polyline fill="none" stroke="black" points="596.825,-966 600.825,-966 600.825,-962 596.825,-962 "/>
<polyline fill="none" stroke="black" points="596.825,-942 600.825,-942 600.825,-938 596.825,-938 "/>
<text text-anchor="middle" x="649.825" y="-948.9" font-family="Times,serif" font-size="12.00">ExceptionWrapper</text>
</g>
<!-- ExceptionWrapper&#45;&gt;ComponentBase -->
<g id="edge68" class="edge"><title>ExceptionWrapper&#45;&gt;ComponentBase</title>
<path fill="none" stroke="black" stroke-dasharray="1,5" d="M703.016,-959.129C724.396,-963.237 748.992,-969.529 769.964,-979 787.952,-987.123 787.923,-996.996 805.964,-1005 884.05,-1039.64 936.265,-982.005 993.964,-1045 1033.67,-1088.35 1060.37,-1510.41 1066.9,-1624.62"/>
<polygon fill="black" stroke="black" points="1063.41,-1624.91 1067.47,-1634.69 1070.4,-1624.51 1063.41,-1624.91"/>
</g>
<!-- HookChain -->
<g id="node51" class="node"><title>HookChain</title>
<ellipse fill="none" stroke="black" cx="649.825" cy="-844" rx="44.1452" ry="18"/>
<text text-anchor="middle" x="649.825" y="-840.9" font-family="Times,serif" font-size="12.00">HookChain</text>
</g>
<!-- JsonRpcClientBase -->
<g id="node52" class="node"><title>JsonRpcClientBase</title>
<polygon fill="none" stroke="black" points="704.325,-808 595.325,-808 595.325,-804 591.325,-804 591.325,-800 595.325,-800 595.325,-780 591.325,-780 591.325,-776 595.325,-776 595.325,-772 704.325,-772 704.325,-808"/>
<polyline fill="none" stroke="black" points="595.325,-804 599.325,-804 599.325,-800 595.325,-800 "/>
<polyline fill="none" stroke="black" points="595.325,-780 599.325,-780 599.325,-776 595.325,-776 "/>
<text text-anchor="middle" x="649.825" y="-786.9" font-family="Times,serif" font-size="12.00">JsonRpcClientBase</text>
</g>
<!-- JsonRpcClientBase&#45;&gt;ComponentBase -->
<g id="edge93" class="edge"><title>JsonRpcClientBase&#45;&gt;ComponentBase</title>
<path fill="none" stroke="black" stroke-dasharray="1,5" d="M704.492,-790.842C727.13,-793.83 752.28,-800.983 769.964,-817 807.466,-850.965 768.153,-891.38 805.964,-925 869.735,-981.703 936.615,-900.81 993.964,-964 1039.1,-1013.73 1062.17,-1500.76 1067.33,-1624.52"/>
<polygon fill="black" stroke="black" points="1063.85,-1624.86 1067.75,-1634.71 1070.84,-1624.57 1063.85,-1624.86"/>
</g>
<!-- JsonRpcExt -->
<g id="node53" class="node"><title>JsonRpcExt</title>
<polygon fill="none" stroke="black" points="932.964,-860 858.964,-860 858.964,-856 854.964,-856 854.964,-852 858.964,-852 858.964,-832 854.964,-832 854.964,-828 858.964,-828 858.964,-824 932.964,-824 932.964,-860"/>
<polyline fill="none" stroke="black" points="858.964,-856 862.964,-856 862.964,-852 858.964,-852 "/>
<polyline fill="none" stroke="black" points="858.964,-832 862.964,-832 862.964,-828 858.964,-828 "/>
<text text-anchor="middle" x="895.964" y="-838.9" font-family="Times,serif" font-size="12.00">JsonRpcExt</text>
</g>
<!-- JsonRpcClientBase&#45;&gt;JsonRpcExt -->
<g id="edge92" class="edge"><title>JsonRpcClientBase&#45;&gt;JsonRpcExt</title>
<path fill="none" stroke="black" stroke-dasharray="5,2" d="M704.402,-795.712C747.713,-803.445 808.031,-816.39 849.128,-826.829"/>
<polygon fill="black" stroke="black" points="848.323,-830.236 858.881,-829.356 850.078,-823.46 848.323,-830.236"/>
</g>
<!-- JsonRpcExt&#45;&gt;ComponentBase -->
<g id="edge69" class="edge"><title>JsonRpcExt&#45;&gt;ComponentBase</title>
<path fill="none" stroke="black" stroke-dasharray="1,5" d="M933.306,-843.264C954.292,-846.03 979.349,-853.207 993.964,-871 1042.74,-930.389 1063.38,-1491.49 1067.62,-1624.72"/>
<polygon fill="black" stroke="black" points="1064.12,-1625.04 1067.94,-1634.92 1071.12,-1624.82 1064.12,-1625.04"/>
</g>
<!-- JsonRpcExt&#45;&gt;JsonRpcClientBase -->
<g id="edge91" class="edge"><title>JsonRpcExt&#45;&gt;JsonRpcClientBase</title>
<path fill="none" stroke="black" d="M858.881,-839.273C820.882,-833.144 760.297,-820.589 714.282,-809.52"/>
<polygon fill="black" stroke="black" points="714.947,-806.08 704.402,-807.111 713.288,-812.881 714.947,-806.08"/>
</g>
<!-- JsonView -->
<g id="node54" class="node"><title>JsonView</title>
<polygon fill="none" stroke="black" points="681.825,-700 617.825,-700 617.825,-696 613.825,-696 613.825,-692 617.825,-692 617.825,-672 613.825,-672 613.825,-668 617.825,-668 617.825,-664 681.825,-664 681.825,-700"/>
<polyline fill="none" stroke="black" points="617.825,-696 621.825,-696 621.825,-692 617.825,-692 "/>
<polyline fill="none" stroke="black" points="617.825,-672 621.825,-672 621.825,-668 617.825,-668 "/>
<text text-anchor="middle" x="649.825" y="-678.9" font-family="Times,serif" font-size="12.00">JsonView</text>
</g>
<!-- JsonView&#45;&gt;X_Core_View -->
<g id="edge94" class="edge"><title>JsonView&#45;&gt;X_Core_View</title>
<path fill="none" stroke="black" stroke-dasharray="5,2" d="M682.242,-688.692C718.673,-696.451 779.782,-709.467 827.179,-719.562"/>
<polygon fill="black" stroke="black" points="826.562,-723.009 837.071,-721.669 828.02,-716.163 826.562,-723.009"/>
</g>
<!-- Misc -->
<g id="node55" class="node"><title>Misc</title>
<polygon fill="none" stroke="black" points="676.825,-430 622.825,-430 622.825,-426 618.825,-426 618.825,-422 622.825,-422 622.825,-402 618.825,-402 618.825,-398 622.825,-398 622.825,-394 676.825,-394 676.825,-430"/>
<polyline fill="none" stroke="black" points="622.825,-426 626.825,-426 626.825,-422 622.825,-422 "/>
<polyline fill="none" stroke="black" points="622.825,-402 626.825,-402 626.825,-398 622.825,-398 "/>
<text text-anchor="middle" x="649.825" y="-408.9" font-family="Times,serif" font-size="12.00">Misc</text>
</g>
<!-- Misc&#45;&gt;ComponentBase -->
<g id="edge70" class="edge"><title>Misc&#45;&gt;ComponentBase</title>
<path fill="none" stroke="black" stroke-dasharray="1,5" d="M677.083,-404.931C741.724,-389.295 909.427,-359.766 993.964,-448 1036.04,-491.917 1063.07,-1447.03 1067.74,-1624.69"/>
<polygon fill="black" stroke="black" points="1064.24,-1624.91 1068,-1634.81 1071.24,-1624.73 1064.24,-1624.91"/>
</g>
<!-- MyFacadesAutoLoader -->
<g id="node56" class="node"><title>MyFacadesAutoLoader</title>
<polygon fill="none" stroke="black" points="714.325,-754 585.325,-754 585.325,-750 581.325,-750 581.325,-746 585.325,-746 585.325,-726 581.325,-726 581.325,-722 585.325,-722 585.325,-718 714.325,-718 714.325,-754"/>
<polyline fill="none" stroke="black" points="585.325,-750 589.325,-750 589.325,-746 585.325,-746 "/>
<polyline fill="none" stroke="black" points="585.325,-726 589.325,-726 589.325,-722 585.325,-722 "/>
<text text-anchor="middle" x="649.825" y="-732.9" font-family="Times,serif" font-size="12.00">MyFacadesAutoLoader</text>
</g>
<!-- MyFacadesAutoLoader&#45;&gt;ComponentBase -->
<g id="edge72" class="edge"><title>MyFacadesAutoLoader&#45;&gt;ComponentBase</title>
<path fill="none" stroke="black" stroke-dasharray="1,5" d="M714.525,-734.638C734.638,-731.083 755.392,-723.671 769.964,-709 822.552,-656.054 747.814,-591.77 805.964,-545 871.073,-492.633 932.932,-487.934 993.964,-545 1034.66,-583.05 1062.61,-1455.9 1067.65,-1624.83"/>
<polygon fill="black" stroke="black" points="1064.15,-1625.04 1067.94,-1634.93 1071.15,-1624.83 1064.15,-1625.04"/>
</g>
<!-- MyFacadesBase -->
<g id="node57" class="node"><title>MyFacadesBase</title>
<polygon fill="none" stroke="black" points="943.464,-806 848.464,-806 848.464,-802 844.464,-802 844.464,-798 848.464,-798 848.464,-778 844.464,-778 844.464,-774 848.464,-774 848.464,-770 943.464,-770 943.464,-806"/>
<polyline fill="none" stroke="black" points="848.464,-802 852.464,-802 852.464,-798 848.464,-798 "/>
<polyline fill="none" stroke="black" points="848.464,-778 852.464,-778 852.464,-774 848.464,-774 "/>
<text text-anchor="middle" x="895.964" y="-784.9" font-family="Times,serif" font-size="12.00">MyFacadesBase</text>
</g>
<!-- MyFacadesAutoLoader&#45;&gt;MyFacadesBase -->
<g id="edge88" class="edge"><title>MyFacadesAutoLoader&#45;&gt;MyFacadesBase</title>
<path fill="none" stroke="black" d="M714.332,-743.521C752.688,-750.635 801.152,-761.025 838.222,-770.11"/>
<polygon fill="black" stroke="black" points="837.808,-773.613 848.357,-772.634 839.5,-766.821 837.808,-773.613"/>
</g>
<!-- MyFacadesBase&#45;&gt;ComponentBase -->
<g id="edge71" class="edge"><title>MyFacadesBase&#45;&gt;ComponentBase</title>
<path fill="none" stroke="black" stroke-dasharray="1,5" d="M943.626,-789.906C962.026,-793.155 981.665,-800.219 993.964,-815 1046.83,-878.54 1064.45,-1484.95 1067.83,-1624.47"/>
<polygon fill="black" stroke="black" points="1064.33,-1624.85 1068.07,-1634.76 1071.33,-1624.68 1064.33,-1624.85"/>
</g>
<!-- MyFacadesBase&#45;&gt;MyFacadesAutoLoader -->
<g id="edge87" class="edge"><title>MyFacadesBase&#45;&gt;MyFacadesAutoLoader</title>
<path fill="none" stroke="black" stroke-dasharray="5,2" d="M848.308,-783.504C811.348,-777.12 759.224,-766.237 717.806,-756.364"/>
<polygon fill="black" stroke="black" points="718.607,-752.957 708.065,-754.012 716.964,-759.762 718.607,-752.957"/>
</g>
<!-- MyMiddlewareManager -->
<g id="node58" class="node"><title>MyMiddlewareManager</title>
<polygon fill="none" stroke="black" points="715.825,-538 583.825,-538 583.825,-534 579.825,-534 579.825,-530 583.825,-530 583.825,-510 579.825,-510 579.825,-506 583.825,-506 583.825,-502 715.825,-502 715.825,-538"/>
<polyline fill="none" stroke="black" points="583.825,-534 587.825,-534 587.825,-530 583.825,-530 "/>
<polyline fill="none" stroke="black" points="583.825,-510 587.825,-510 587.825,-506 583.825,-506 "/>
<text text-anchor="middle" x="649.825" y="-516.9" font-family="Times,serif" font-size="12.00">MyMiddlewareManager</text>
</g>
<!-- MyMiddlewareManager&#45;&gt;ComponentBase -->
<g id="edge73" class="edge"><title>MyMiddlewareManager&#45;&gt;ComponentBase</title>
<path fill="none" stroke="black" stroke-dasharray="1,5" d="M716.191,-505.893C804.466,-488.576 955.228,-465.691 993.964,-502 1036.25,-541.634 1062.99,-1451.09 1067.71,-1624.56"/>
<polygon fill="black" stroke="black" points="1064.22,-1624.79 1067.98,-1634.69 1071.21,-1624.6 1064.22,-1624.79"/>
</g>
<!-- RouteHookManager -->
<g id="node63" class="node"><title>RouteHookManager</title>
<polygon fill="none" stroke="black" points="952.964,-698 838.964,-698 838.964,-694 834.964,-694 834.964,-690 838.964,-690 838.964,-670 834.964,-670 834.964,-666 838.964,-666 838.964,-662 952.964,-662 952.964,-698"/>
<polyline fill="none" stroke="black" points="838.964,-694 842.964,-694 842.964,-690 838.964,-690 "/>
<polyline fill="none" stroke="black" points="838.964,-670 842.964,-670 842.964,-666 838.964,-666 "/>
<text text-anchor="middle" x="895.964" y="-676.9" font-family="Times,serif" font-size="12.00">RouteHookManager</text>
</g>
<!-- MyMiddlewareManager&#45;&gt;RouteHookManager -->
<g id="edge89" class="edge"><title>MyMiddlewareManager&#45;&gt;RouteHookManager</title>
<path fill="none" stroke="black" d="M716.083,-522.785C735.365,-526.552 755.229,-533.73 769.964,-547 806.935,-580.295 770.21,-618.401 805.964,-653 812.611,-659.432 820.739,-664.337 829.353,-668.077"/>
<polygon fill="black" stroke="black" points="828.252,-671.403 838.843,-671.695 830.746,-664.862 828.252,-671.403"/>
</g>
<!-- X_Core_Route -->
<g id="node71" class="node"><title>X_Core_Route</title>
<polygon fill="none" stroke="black" points="937.464,-638 836.464,-638 836.464,-614 937.464,-614 937.464,-608 955.464,-626 937.464,-644 937.464,-638"/>
<text text-anchor="middle" x="895.964" y="-622.9" font-family="Times,serif" font-size="12.00">DuckPhp\Core\Route</text>
</g>
<!-- MyMiddlewareManager&#45;&gt;X_Core_Route -->
<g id="edge90" class="edge"><title>MyMiddlewareManager&#45;&gt;X_Core_Route</title>
<path fill="none" stroke="black" stroke-dasharray="5,2" d="M715.881,-525.793C734.51,-529.735 754.059,-536.257 769.964,-547 793.257,-562.733 783.249,-582.442 805.964,-599 812.294,-603.615 819.422,-607.45 826.817,-610.635"/>
<polygon fill="black" stroke="black" points="825.699,-613.956 836.287,-614.333 828.245,-607.435 825.699,-613.956"/>
</g>
<!-- RedisManager -->
<g id="node59" class="node"><title>RedisManager</title>
<polygon fill="none" stroke="black" points="692.825,-376 606.825,-376 606.825,-372 602.825,-372 602.825,-368 606.825,-368 606.825,-348 602.825,-348 602.825,-344 606.825,-344 606.825,-340 692.825,-340 692.825,-376"/>
<polyline fill="none" stroke="black" points="606.825,-372 610.825,-372 610.825,-368 606.825,-368 "/>
<polyline fill="none" stroke="black" points="606.825,-348 610.825,-348 610.825,-344 606.825,-344 "/>
<text text-anchor="middle" x="649.825" y="-354.9" font-family="Times,serif" font-size="12.00">RedisManager</text>
</g>
<!-- RedisManager&#45;&gt;ComponentBase -->
<g id="edge74" class="edge"><title>RedisManager&#45;&gt;ComponentBase</title>
<path fill="none" stroke="black" stroke-dasharray="1,5" d="M693.033,-354.65C775.408,-349.119 953.126,-342.463 993.964,-384 1038.98,-429.785 1063.72,-1441.24 1067.85,-1624.62"/>
<polygon fill="black" stroke="black" points="1064.35,-1624.89 1068.07,-1634.81 1071.35,-1624.73 1064.35,-1624.89"/>
</g>
<!-- RedisCache -->
<g id="node60" class="node"><title>RedisCache</title>
<polygon fill="none" stroke="black" points="686.825,-322 612.825,-322 612.825,-318 608.825,-318 608.825,-314 612.825,-314 612.825,-294 608.825,-294 608.825,-290 612.825,-290 612.825,-286 686.825,-286 686.825,-322"/>
<polyline fill="none" stroke="black" points="612.825,-318 616.825,-318 616.825,-314 612.825,-314 "/>
<polyline fill="none" stroke="black" points="612.825,-294 616.825,-294 616.825,-290 612.825,-290 "/>
<text text-anchor="middle" x="649.825" y="-300.9" font-family="Times,serif" font-size="12.00">RedisCache</text>
</g>
<!-- RedisCache&#45;&gt;ComponentBase -->
<g id="edge75" class="edge"><title>RedisCache&#45;&gt;ComponentBase</title>
<path fill="none" stroke="black" stroke-dasharray="1,5" d="M686.916,-295.481C757.581,-281.185 914.233,-261.681 993.964,-347 1039.15,-395.349 1063.82,-1438.51 1067.87,-1624.69"/>
<polygon fill="black" stroke="black" points="1064.37,-1624.86 1068.08,-1634.79 1071.37,-1624.71 1064.37,-1624.86"/>
</g>
<!-- RouteHookApiServer -->
<g id="node61" class="node"><title>RouteHookApiServer</title>
<polygon fill="none" stroke="black" points="710.325,-268 589.325,-268 589.325,-264 585.325,-264 585.325,-260 589.325,-260 589.325,-240 585.325,-240 585.325,-236 589.325,-236 589.325,-232 710.325,-232 710.325,-268"/>
<polyline fill="none" stroke="black" points="589.325,-264 593.325,-264 593.325,-260 589.325,-260 "/>
<polyline fill="none" stroke="black" points="589.325,-240 593.325,-240 593.325,-236 589.325,-236 "/>
<text text-anchor="middle" x="649.825" y="-246.9" font-family="Times,serif" font-size="12.00">RouteHookApiServer</text>
</g>
<!-- RouteHookApiServer&#45;&gt;ComponentBase -->
<g id="edge76" class="edge"><title>RouteHookApiServer&#45;&gt;ComponentBase</title>
<path fill="none" stroke="black" stroke-dasharray="1,5" d="M710.406,-246.099C798.195,-241.775 956.026,-239.901 993.964,-279 1042.56,-329.087 1064.52,-1432.9 1067.97,-1624.71"/>
<polygon fill="black" stroke="black" points="1064.48,-1624.9 1068.15,-1634.84 1071.48,-1624.78 1064.48,-1624.9"/>
</g>
<!-- RouteHookDirectoryMode -->
<g id="node62" class="node"><title>RouteHookDirectoryMode</title>
<polygon fill="none" stroke="black" points="722.325,-214 577.325,-214 577.325,-210 573.325,-210 573.325,-206 577.325,-206 577.325,-186 573.325,-186 573.325,-182 577.325,-182 577.325,-178 722.325,-178 722.325,-214"/>
<polyline fill="none" stroke="black" points="577.325,-210 581.325,-210 581.325,-206 577.325,-206 "/>
<polyline fill="none" stroke="black" points="577.325,-186 581.325,-186 581.325,-182 577.325,-182 "/>
<text text-anchor="middle" x="649.825" y="-192.9" font-family="Times,serif" font-size="12.00">RouteHookDirectoryMode</text>
</g>
<!-- RouteHookDirectoryMode&#45;&gt;ComponentBase -->
<g id="edge77" class="edge"><title>RouteHookDirectoryMode&#45;&gt;ComponentBase</title>
<path fill="none" stroke="black" stroke-dasharray="1,5" d="M722.382,-181.493C801.256,-170.13 925.948,-166.692 993.964,-240 1042.85,-292.691 1064.62,-1430.36 1067.99,-1624.84"/>
<polygon fill="black" stroke="black" points="1064.49,-1624.91 1068.17,-1634.85 1071.49,-1624.79 1064.49,-1624.91"/>
</g>
<!-- RouteHookManager&#45;&gt;ComponentBase -->
<g id="edge78" class="edge"><title>RouteHookManager&#45;&gt;ComponentBase</title>
<path fill="none" stroke="black" stroke-dasharray="1,5" d="M953.051,-683.824C968.504,-687.684 983.796,-694.654 993.964,-707 1053.74,-779.577 1066.15,-1474.98 1068.14,-1624.69"/>
<polygon fill="black" stroke="black" points="1064.64,-1624.94 1068.27,-1634.89 1071.64,-1624.85 1064.64,-1624.94"/>
</g>
<!-- RouteHookRewrite -->
<g id="node64" class="node"><title>RouteHookRewrite</title>
<polygon fill="none" stroke="black" points="704.825,-160 594.825,-160 594.825,-156 590.825,-156 590.825,-152 594.825,-152 594.825,-132 590.825,-132 590.825,-128 594.825,-128 594.825,-124 704.825,-124 704.825,-160"/>
<polyline fill="none" stroke="black" points="594.825,-156 598.825,-156 598.825,-152 594.825,-152 "/>
<polyline fill="none" stroke="black" points="594.825,-132 598.825,-132 598.825,-128 594.825,-128 "/>
<text text-anchor="middle" x="649.825" y="-138.9" font-family="Times,serif" font-size="12.00">RouteHookRewrite</text>
</g>
<!-- RouteHookRewrite&#45;&gt;ComponentBase -->
<g id="edge79" class="edge"><title>RouteHookRewrite&#45;&gt;ComponentBase</title>
<path fill="none" stroke="black" stroke-dasharray="1,5" d="M705.106,-138.52C791.718,-134.264 955.372,-131.955 993.964,-172 1046.34,-226.351 1065.28,-1424.42 1068.09,-1624.72"/>
<polygon fill="black" stroke="black" points="1064.59,-1624.8 1068.22,-1634.75 1071.59,-1624.7 1064.59,-1624.8"/>
</g>
<!-- SimpleModelTrait -->
<g id="node65" class="node"><title>SimpleModelTrait</title>
<polygon fill="none" stroke="black" points="649.825,-484 559.987,-466 649.825,-448 739.663,-466 649.825,-484"/>
<text text-anchor="middle" x="649.825" y="-462.9" font-family="Times,serif" font-size="12.00">SimpleModelTrait</text>
</g>
<!-- SimpleModelTrait&#45;&gt;ComponentBase -->
<g id="edge80" class="edge"><title>SimpleModelTrait&#45;&gt;ComponentBase</title>
<path fill="none" stroke="black" stroke-dasharray="1,5" d="M707.312,-459.457C794.171,-450.777 954.637,-440.664 993.964,-479 1036.33,-520.303 1063.05,-1449.17 1067.73,-1624.57"/>
<polygon fill="black" stroke="black" points="1064.23,-1624.9 1068,-1634.8 1071.23,-1624.71 1064.23,-1624.9"/>
</g>
<!-- X_Core_App -->
<g id="node70" class="node"><title>X_Core_App</title>
<polygon fill="none" stroke="black" points="933.964,-584 839.964,-584 839.964,-560 933.964,-560 933.964,-554 951.964,-572 933.964,-590 933.964,-584"/>
<text text-anchor="middle" x="895.964" y="-568.9" font-family="Times,serif" font-size="12.00">DuckPhp\Core\App</text>
</g>
<!-- SimpleModelTrait&#45;&gt;X_Core_App -->
<g id="edge95" class="edge"><title>SimpleModelTrait&#45;&gt;X_Core_App</title>
<path fill="none" stroke="black" stroke-dasharray="5,2" d="M701.851,-473.606C723.389,-477.819 748.416,-484.061 769.964,-493 804.115,-507.167 839.402,-530.397 863.739,-548.009"/>
<polygon fill="black" stroke="black" points="861.739,-550.882 871.871,-553.98 865.882,-545.24 861.739,-550.882"/>
</g>
<!-- SqlDumper -->
<g id="node66" class="node"><title>SqlDumper</title>
<polygon fill="none" stroke="black" points="685.325,-106 614.325,-106 614.325,-102 610.325,-102 610.325,-98 614.325,-98 614.325,-78 610.325,-78 610.325,-74 614.325,-74 614.325,-70 685.325,-70 685.325,-106"/>
<polyline fill="none" stroke="black" points="614.325,-102 618.325,-102 618.325,-98 614.325,-98 "/>
<polyline fill="none" stroke="black" points="614.325,-78 618.325,-78 618.325,-74 614.325,-74 "/>
<text text-anchor="middle" x="649.825" y="-84.9" font-family="Times,serif" font-size="12.00">SqlDumper</text>
</g>
<!-- SqlDumper&#45;&gt;ComponentBase -->
<g id="edge81" class="edge"><title>SqlDumper&#45;&gt;ComponentBase</title>
<path fill="none" stroke="black" stroke-dasharray="1,5" d="M685.385,-79.9873C755.41,-66.0324 914.152,-46.4093 993.964,-133 1046.52,-190.02 1065.34,-1421.17 1068.1,-1624.64"/>
<polygon fill="black" stroke="black" points="1064.6,-1624.86 1068.23,-1634.81 1071.6,-1624.77 1064.6,-1624.86"/>
</g>
<!-- StaticReplacer -->
<g id="node67" class="node"><title>StaticReplacer</title>
<polygon fill="none" stroke="black" points="692.325,-52 607.325,-52 607.325,-48 603.325,-48 603.325,-44 607.325,-44 607.325,-24 603.325,-24 603.325,-20 607.325,-20 607.325,-16 692.325,-16 692.325,-52"/>
<polyline fill="none" stroke="black" points="607.325,-48 611.325,-48 611.325,-44 607.325,-44 "/>
<polyline fill="none" stroke="black" points="607.325,-24 611.325,-24 611.325,-20 607.325,-20 "/>
<text text-anchor="middle" x="649.825" y="-30.9" font-family="Times,serif" font-size="12.00">StaticReplacer</text>
</g>
<!-- StaticReplacer&#45;&gt;ComponentBase -->
<g id="edge82" class="edge"><title>StaticReplacer&#45;&gt;ComponentBase</title>
<path fill="none" stroke="black" stroke-dasharray="1,5" d="M692.368,-22.4763C765.161,-5.10008 915.467,17.7304 993.964,-64 1050.23,-122.582 1066,-1415.78 1068.18,-1624.63"/>
<polygon fill="black" stroke="black" points="1064.69,-1624.83 1068.29,-1634.79 1071.69,-1624.76 1064.69,-1624.83"/>
</g>
<!-- StrictCheck -->
<g id="node68" class="node"><title>StrictCheck</title>
<polygon fill="none" stroke="black" points="685.825,-916 613.825,-916 613.825,-912 609.825,-912 609.825,-908 613.825,-908 613.825,-888 609.825,-888 609.825,-884 613.825,-884 613.825,-880 685.825,-880 685.825,-916"/>
<polyline fill="none" stroke="black" points="613.825,-912 617.825,-912 617.825,-908 613.825,-908 "/>
<polyline fill="none" stroke="black" points="613.825,-888 617.825,-888 617.825,-884 613.825,-884 "/>
<text text-anchor="middle" x="649.825" y="-894.9" font-family="Times,serif" font-size="12.00">StrictCheck</text>
</g>
<!-- StrictCheck&#45;&gt;ComponentBase -->
<g id="edge83" class="edge"><title>StrictCheck&#45;&gt;ComponentBase</title>
<path fill="none" stroke="black" stroke-dasharray="1,5" d="M685.942,-900.422C710.799,-903.411 744.166,-910.088 769.964,-925 790.387,-936.805 785.494,-952.278 805.964,-964 880.177,-1006.5 936.599,-941.575 993.964,-1005 1036.18,-1051.68 1061.26,-1505.95 1067.13,-1624.71"/>
<polygon fill="black" stroke="black" points="1063.64,-1625.01 1067.62,-1634.83 1070.63,-1624.67 1063.64,-1625.01"/>
</g>
<!-- X_DbManager -->
<g id="node73" class="node"><title>X_DbManager</title>
<polygon fill="none" stroke="black" points="967.964,-910 805.964,-910 805.964,-886 967.964,-886 967.964,-880 985.964,-898 967.964,-916 967.964,-910"/>
<text text-anchor="middle" x="895.964" y="-894.9" font-family="Times,serif" font-size="12.00">DuckPhp\Component\DbManager</text>
</g>
<!-- StrictCheck&#45;&gt;X_DbManager -->
<g id="edge96" class="edge"><title>StrictCheck&#45;&gt;X_DbManager</title>
<path fill="none" stroke="black" stroke-dasharray="5,2" d="M686.064,-898C714.732,-898 756.648,-898 795.422,-898"/>
<polygon fill="black" stroke="black" points="795.73,-901.5 805.73,-898 795.73,-894.5 795.73,-901.5"/>
</g>
<!-- SuperGlobalContext -->
<g id="node69" class="node"><title>SuperGlobalContext</title>
<polygon fill="none" stroke="black" points="706.825,-1024 592.825,-1024 592.825,-1020 588.825,-1020 588.825,-1016 592.825,-1016 592.825,-996 588.825,-996 588.825,-992 592.825,-992 592.825,-988 706.825,-988 706.825,-1024"/>
<polyline fill="none" stroke="black" points="592.825,-1020 596.825,-1020 596.825,-1016 592.825,-1016 "/>
<polyline fill="none" stroke="black" points="592.825,-996 596.825,-996 596.825,-992 592.825,-992 "/>
<text text-anchor="middle" x="649.825" y="-1002.9" font-family="Times,serif" font-size="12.00">SuperGlobalContext</text>
</g>
<!-- SuperGlobalContext&#45;&gt;ComponentBase -->
<g id="edge84" class="edge"><title>SuperGlobalContext&#45;&gt;ComponentBase</title>
<path fill="none" stroke="black" stroke-dasharray="1,5" d="M707.111,-1020.53C736.521,-1028.03 773.133,-1037.21 805.964,-1045 889.265,-1064.77 936.175,-1023.83 993.964,-1087 1066.9,-1166.73 1069.64,-1521.28 1068.85,-1624.64"/>
<polygon fill="black" stroke="black" points="1065.34,-1624.87 1068.75,-1634.91 1072.34,-1624.94 1065.34,-1624.87"/>
</g>
</g>
</svg>
