<?xml version="1.0" encoding="UTF-8" standalone="no"?>
<!DOCTYPE svg PUBLIC "-//W3C//DTD SVG 1.1//EN"
 "http://www.w3.org/Graphics/SVG/1.1/DTD/svg11.dtd">
<!-- Generated by graphviz version 2.38.0 (20140413.2041)
 -->
<!-- Title: DuckPhp Pages: 1 -->
<svg width="1342pt" height="2240pt"
 viewBox="0.00 0.00 1342.37 2240.00" xmlns="http://www.w3.org/2000/svg" xmlns:xlink="http://www.w3.org/1999/xlink">
<g id="graph0" class="graph" transform="scale(1 1) rotate(0) translate(4 2236)">
<title>DuckPhp</title>
<polygon fill="white" stroke="none" points="-4,4 -4,-2236 1338.37,-2236 1338.37,4 -4,4"/>
<g id="clust1" class="cluster"><title>cluster_SingletonEx</title>
<polygon fill="none" stroke="black" points="8,-831 8,-958 194.632,-958 194.632,-831 8,-831"/>
<text text-anchor="middle" x="101.316" y="-944.4" font-family="Times,serif" font-size="12.00">[DuckPhp\SingletonEx]</text>
</g>
<g id="clust2" class="cluster"><title>cluster_Core</title>
<polygon fill="none" stroke="black" points="374.253,-1652 374.253,-2089 1326.37,-2089 1326.37,-1652 374.253,-1652"/>
<text text-anchor="middle" x="850.313" y="-2075.4" font-family="Times,serif" font-size="12.00">[DuckPhp\Core]</text>
</g>
<g id="clust3" class="cluster"><title>cluster_Helper</title>
<polygon fill="none" stroke="black" points="8.87057,-1781 8.87057,-2070 354.253,-2070 354.253,-1781 8.87057,-1781"/>
<text text-anchor="middle" x="181.562" y="-2056.4" font-family="Times,serif" font-size="12.00">[DuckPhp\Helper]</text>
</g>
<g id="clust4" class="cluster"><title>cluster_Db</title>
<polygon fill="none" stroke="black" points="814.836,-8 814.836,-135 1174.48,-135 1174.48,-8 814.836,-8"/>
<text text-anchor="middle" x="994.657" y="-121.4" font-family="Times,serif" font-size="12.00">[DuckPhp\Db]</text>
</g>
<g id="clust5" class="cluster"><title>cluster_HttpServer</title>
<polygon fill="none" stroke="black" points="783.495,-2097 783.495,-2224 1195.37,-2224 1195.37,-2097 783.495,-2097"/>
<text text-anchor="middle" x="989.434" y="-2210.4" font-family="Times,serif" font-size="12.00">[DuckPhp\HttpServer]</text>
</g>
<g id="clust6" class="cluster"><title>cluster_Component</title>
<polygon fill="none" stroke="black" points="521.555,-1238 521.555,-1635 907.446,-1635 907.446,-1238 521.555,-1238"/>
<text text-anchor="middle" x="714.501" y="-1621.4" font-family="Times,serif" font-size="12.00">[DuckPhp\Component]</text>
</g>
<g id="clust7" class="cluster"><title>cluster_DuckPhp</title>
<polygon fill="none" stroke="black" points="222.467,-1454 222.467,-1527 346.418,-1527 346.418,-1454 222.467,-1454"/>
<text text-anchor="middle" x="284.443" y="-1513.4" font-family="Times,serif" font-size="12.00">[DuckPhp]</text>
</g>
<g id="clust8" class="cluster"><title>cluster_ThrowOn</title>
<polygon fill="none" stroke="black" points="18.4469,-2118 18.4469,-2191 184.185,-2191 184.185,-2118 18.4469,-2118"/>
<text text-anchor="middle" x="101.316" y="-2177.4" font-family="Times,serif" font-size="12.00">[DuckPhp\ThrowOn]</text>
</g>
<g id="clust9" class="cluster"><title>cluster_Ext</title>
<polygon fill="none" stroke="black" points="517.333,-143 517.333,-1188 948.694,-1188 948.694,-143 517.333,-143"/>
<text text-anchor="middle" x="733.014" y="-1174.4" font-family="Times,serif" font-size="12.00">[DuckPhp\Ext]</text>
</g>
<!-- SingletonExTrait -->
<g id="node1" class="node"><title>SingletonExTrait</title>
<polygon fill="lightgrey" stroke="black" points="101.316,-929 16.1836,-911 101.316,-893 186.448,-911 101.316,-929"/>
<polyline fill="none" stroke="black" points="27.924,-913.482 27.924,-908.518 "/>
<polyline fill="none" stroke="black" points="89.5756,-895.482 113.056,-895.482 "/>
<polyline fill="none" stroke="black" points="174.708,-908.518 174.708,-913.482 "/>
<polyline fill="none" stroke="black" points="113.056,-926.518 89.5756,-926.518 "/>
<text text-anchor="middle" x="101.316" y="-907.9" font-family="Times,serif" font-size="12.00">SingletonExTrait</text>
</g>
<!-- SimpleReplacer -->
<g id="node2" class="node"><title>SimpleReplacer</title>
<ellipse fill="none" stroke="black" cx="101.316" cy="-857" rx="56.7683" ry="18"/>
<text text-anchor="middle" x="101.316" y="-853.9" font-family="Times,serif" font-size="12.00">SimpleReplacer</text>
</g>
<!-- App -->
<g id="node3" class="node"><title>App</title>
<polygon fill="lightgrey" stroke="black" points="415.335,-1909 382.171,-1891 415.335,-1873 448.499,-1891 415.335,-1909"/>
<polyline fill="none" stroke="black" points="392.718,-1896.72 392.718,-1885.28 "/>
<polyline fill="none" stroke="black" points="404.788,-1878.72 425.882,-1878.72 "/>
<polyline fill="none" stroke="black" points="437.952,-1885.28 437.952,-1896.72 "/>
<polyline fill="none" stroke="black" points="425.882,-1903.28 404.788,-1903.28 "/>
<text text-anchor="middle" x="415.335" y="-1887.9" font-family="Times,serif" font-size="12.00">App</text>
</g>
<!-- KernelTrait -->
<g id="node4" class="node"><title>KernelTrait</title>
<polygon fill="none" stroke="black" points="604.555,-1872 542.934,-1854 604.555,-1836 666.177,-1854 604.555,-1872"/>
<text text-anchor="middle" x="604.555" y="-1850.9" font-family="Times,serif" font-size="12.00">KernelTrait</text>
</g>
<!-- App&#45;&gt;KernelTrait -->
<g id="edge8" class="edge"><title>App&#45;&gt;KernelTrait</title>
<path fill="none" stroke="black" d="M440.047,-1886.31C469.367,-1880.52 519.943,-1870.52 557.101,-1863.18"/>
<polygon fill="black" stroke="black" points="558.066,-1866.56 567.197,-1861.19 556.708,-1859.69 558.066,-1866.56"/>
</g>
<!-- AutoLoader -->
<g id="node5" class="node"><title>AutoLoader</title>
<polygon fill="lightgrey" stroke="black" points="850.694,-1716 786.35,-1698 850.694,-1680 915.039,-1698 850.694,-1716"/>
<polyline fill="none" stroke="black" points="797.906,-1701.23 797.906,-1694.77 "/>
<polyline fill="none" stroke="black" points="839.138,-1683.23 862.251,-1683.23 "/>
<polyline fill="none" stroke="black" points="903.483,-1694.77 903.483,-1701.23 "/>
<polyline fill="none" stroke="black" points="862.251,-1712.77 839.138,-1712.77 "/>
<text text-anchor="middle" x="850.694" y="-1694.9" font-family="Times,serif" font-size="12.00">AutoLoader</text>
</g>
<!-- App&#45;&gt;AutoLoader -->
<g id="edge11" class="edge"><title>App&#45;&gt;AutoLoader</title>
<path fill="none" stroke="black" d="M419.07,-1874.74C425.046,-1844.7 442.268,-1780.78 484.417,-1750 527.967,-1718.2 671.309,-1723.62 724.694,-1716 748.693,-1712.57 775.279,-1708.75 797.74,-1705.51"/>
<polygon fill="black" stroke="black" points="798.349,-1708.96 807.746,-1704.07 797.349,-1702.03 798.349,-1708.96"/>
</g>
<!-- ExceptionManager -->
<g id="node6" class="node"><title>ExceptionManager</title>
<polygon fill="none" stroke="black" points="904.194,-1824 797.194,-1824 797.194,-1820 793.194,-1820 793.194,-1816 797.194,-1816 797.194,-1796 793.194,-1796 793.194,-1792 797.194,-1792 797.194,-1788 904.194,-1788 904.194,-1824"/>
<polyline fill="none" stroke="black" points="797.194,-1820 801.194,-1820 801.194,-1816 797.194,-1816 "/>
<polyline fill="none" stroke="black" points="797.194,-1796 801.194,-1796 801.194,-1792 797.194,-1792 "/>
<text text-anchor="middle" x="850.694" y="-1802.9" font-family="Times,serif" font-size="12.00">ExceptionManager</text>
</g>
<!-- App&#45;&gt;ExceptionManager -->
<g id="edge14" class="edge"><title>App&#45;&gt;ExceptionManager</title>
<path fill="none" stroke="black" d="M425.439,-1878.14C437.116,-1862.83 458.931,-1837.95 484.417,-1827 583.349,-1784.47 711.436,-1789.06 786.681,-1797.01"/>
<polygon fill="black" stroke="black" points="786.614,-1800.53 796.939,-1798.15 787.387,-1793.57 786.614,-1800.53"/>
</g>
<!-- View -->
<g id="node7" class="node"><title>View</title>
<polygon fill="none" stroke="black" points="877.694,-1932 823.694,-1932 823.694,-1928 819.694,-1928 819.694,-1924 823.694,-1924 823.694,-1904 819.694,-1904 819.694,-1900 823.694,-1900 823.694,-1896 877.694,-1896 877.694,-1932"/>
<polyline fill="none" stroke="black" points="823.694,-1928 827.694,-1928 827.694,-1924 823.694,-1924 "/>
<polyline fill="none" stroke="black" points="823.694,-1904 827.694,-1904 827.694,-1900 823.694,-1900 "/>
<text text-anchor="middle" x="850.694" y="-1910.9" font-family="Times,serif" font-size="12.00">View</text>
</g>
<!-- App&#45;&gt;View -->
<g id="edge17" class="edge"><title>App&#45;&gt;View</title>
<path fill="none" stroke="black" d="M446.11,-1892.3C501.141,-1894.73 622.484,-1900.24 724.694,-1906 754.52,-1907.68 788.331,-1909.86 813.261,-1911.52"/>
<polygon fill="black" stroke="black" points="813.153,-1915.02 823.364,-1912.2 813.621,-1908.04 813.153,-1915.02"/>
</g>
<!-- Configer -->
<g id="node8" class="node"><title>Configer</title>
<polygon fill="none" stroke="black" points="880.194,-1986 821.194,-1986 821.194,-1982 817.194,-1982 817.194,-1978 821.194,-1978 821.194,-1958 817.194,-1958 817.194,-1954 821.194,-1954 821.194,-1950 880.194,-1950 880.194,-1986"/>
<polyline fill="none" stroke="black" points="821.194,-1982 825.194,-1982 825.194,-1978 821.194,-1978 "/>
<polyline fill="none" stroke="black" points="821.194,-1958 825.194,-1958 825.194,-1954 821.194,-1954 "/>
<text text-anchor="middle" x="850.694" y="-1964.9" font-family="Times,serif" font-size="12.00">Configer</text>
</g>
<!-- App&#45;&gt;Configer -->
<g id="edge12" class="edge"><title>App&#45;&gt;Configer</title>
<path fill="none" stroke="black" d="M438.272,-1896.62C451.546,-1899.82 468.859,-1903.65 484.417,-1906 590.373,-1922.01 620.579,-1900.64 724.694,-1926 741.535,-1930.1 744.38,-1935.14 760.694,-1941 777.025,-1946.86 795.328,-1952.56 811.07,-1957.2"/>
<polygon fill="black" stroke="black" points="810.418,-1960.66 820.998,-1960.09 812.373,-1953.93 810.418,-1960.66"/>
</g>
<!-- Logger -->
<g id="node9" class="node"><title>Logger</title>
<polygon fill="none" stroke="black" points="631.555,-1707 577.555,-1707 577.555,-1703 573.555,-1703 573.555,-1699 577.555,-1699 577.555,-1679 573.555,-1679 573.555,-1675 577.555,-1675 577.555,-1671 631.555,-1671 631.555,-1707"/>
<polyline fill="none" stroke="black" points="577.555,-1703 581.555,-1703 581.555,-1699 577.555,-1699 "/>
<polyline fill="none" stroke="black" points="577.555,-1679 581.555,-1679 581.555,-1675 577.555,-1675 "/>
<text text-anchor="middle" x="604.555" y="-1685.9" font-family="Times,serif" font-size="12.00">Logger</text>
</g>
<!-- App&#45;&gt;Logger -->
<g id="edge13" class="edge"><title>App&#45;&gt;Logger</title>
<path fill="none" stroke="black" d="M418.721,-1874.81C424.3,-1842.66 441.161,-1770.39 484.417,-1730 507.042,-1708.88 541.055,-1698.58 566.955,-1693.59"/>
<polygon fill="black" stroke="black" points="567.895,-1696.98 577.147,-1691.82 566.695,-1690.08 567.895,-1696.98"/>
</g>
<!-- Route -->
<g id="node10" class="node"><title>Route</title>
<polygon fill="lightgrey" stroke="black" points="850.694,-2040 811.342,-2022 850.694,-2004 890.047,-2022 850.694,-2040"/>
<polyline fill="none" stroke="black" points="822.255,-2026.99 822.255,-2017.01 "/>
<polyline fill="none" stroke="black" points="839.782,-2008.99 861.607,-2008.99 "/>
<polyline fill="none" stroke="black" points="879.134,-2017.01 879.134,-2026.99 "/>
<polyline fill="none" stroke="black" points="861.607,-2035.01 839.782,-2035.01 "/>
<text text-anchor="middle" x="850.694" y="-2018.9" font-family="Times,serif" font-size="12.00">Route</text>
</g>
<!-- App&#45;&gt;Route -->
<g id="edge15" class="edge"><title>App&#45;&gt;Route</title>
<path fill="none" stroke="black" d="M432.597,-1899.9C446.072,-1906.84 465.94,-1916.1 484.417,-1921 588.192,-1948.54 631.542,-1892.61 724.694,-1946 748.14,-1959.44 738.636,-1979.39 760.694,-1995 775.211,-2005.27 793.711,-2011.7 810.079,-2015.7"/>
<polygon fill="black" stroke="black" points="809.42,-2019.14 819.941,-2017.88 810.934,-2012.3 809.42,-2019.14"/>
</g>
<!-- RuntimeState -->
<g id="node11" class="node"><title>RuntimeState</title>
<polygon fill="none" stroke="black" points="890.694,-1770 810.694,-1770 810.694,-1766 806.694,-1766 806.694,-1762 810.694,-1762 810.694,-1742 806.694,-1742 806.694,-1738 810.694,-1738 810.694,-1734 890.694,-1734 890.694,-1770"/>
<polyline fill="none" stroke="black" points="810.694,-1766 814.694,-1766 814.694,-1762 810.694,-1762 "/>
<polyline fill="none" stroke="black" points="810.694,-1742 814.694,-1742 814.694,-1738 810.694,-1738 "/>
<text text-anchor="middle" x="850.694" y="-1748.9" font-family="Times,serif" font-size="12.00">RuntimeState</text>
</g>
<!-- App&#45;&gt;RuntimeState -->
<g id="edge16" class="edge"><title>App&#45;&gt;RuntimeState</title>
<path fill="none" stroke="black" d="M421.446,-1875.97C430.245,-1852.66 450.638,-1808.36 484.417,-1788 536.4,-1756.66 713.299,-1752.03 800.41,-1751.71"/>
<polygon fill="black" stroke="black" points="800.581,-1755.21 810.574,-1751.69 800.567,-1748.21 800.581,-1755.21"/>
</g>
<!-- SystemWrapperTrait -->
<g id="node12" class="node"><title>SystemWrapperTrait</title>
<polygon fill="none" stroke="black" points="604.555,-2006 504.324,-1988 604.555,-1970 704.787,-1988 604.555,-2006"/>
<text text-anchor="middle" x="604.555" y="-1984.9" font-family="Times,serif" font-size="12.00">SystemWrapperTrait</text>
</g>
<!-- App&#45;&gt;SystemWrapperTrait -->
<g id="edge10" class="edge"><title>App&#45;&gt;SystemWrapperTrait</title>
<path fill="none" stroke="black" d="M426.025,-1903.47C438.125,-1918.19 460.203,-1942.38 484.417,-1956 501.506,-1965.61 521.608,-1972.44 540.384,-1977.25"/>
<polygon fill="black" stroke="black" points="539.811,-1980.71 550.353,-1979.65 541.45,-1973.91 539.811,-1980.71"/>
</g>
<!-- ExtendableStaticCallTrait -->
<g id="node13" class="node"><title>ExtendableStaticCallTrait</title>
<polygon fill="none" stroke="black" points="604.555,-2060 484.278,-2042 604.555,-2024 724.833,-2042 604.555,-2060"/>
<text text-anchor="middle" x="604.555" y="-2038.9" font-family="Times,serif" font-size="12.00">ExtendableStaticCallTrait</text>
</g>
<!-- App&#45;&gt;ExtendableStaticCallTrait -->
<g id="edge9" class="edge"><title>App&#45;&gt;ExtendableStaticCallTrait</title>
<path fill="none" stroke="black" d="M420.389,-1906.72C428.11,-1933.36 447.543,-1987.21 484.417,-2015 494.742,-2022.78 506.906,-2028.39 519.447,-2032.41"/>
<polygon fill="black" stroke="black" points="518.508,-2035.78 529.086,-2035.19 520.448,-2029.06 518.508,-2035.78"/>
</g>
<!-- ComponentBase -->
<g id="node15" class="node"><title>ComponentBase</title>
<polygon fill="none" stroke="black" points="1129.53,-1696 1038.53,-1696 1034.53,-1692 1034.53,-1660 1125.53,-1660 1129.53,-1664 1129.53,-1696"/>
<polyline fill="none" stroke="black" points="1125.53,-1692 1034.53,-1692 "/>
<polyline fill="none" stroke="black" points="1125.53,-1692 1125.53,-1660 "/>
<polyline fill="none" stroke="black" points="1125.53,-1692 1129.53,-1696 "/>
<text text-anchor="middle" x="1082.03" y="-1674.9" font-family="Times,serif" font-size="12.00">ComponentBase</text>
</g>
<!-- App&#45;&gt;ComponentBase -->
<g id="edge18" class="edge"><title>App&#45;&gt;ComponentBase</title>
<path fill="none" stroke="black" stroke-dasharray="1,5" d="M428.239,-1902.39C441.007,-1913.84 462.43,-1930.91 484.417,-1939 534.734,-1957.52 681.588,-1929.11 724.694,-1961 758.667,-1986.13 725.61,-2025.45 760.694,-2049 830.066,-2095.57 880.404,-2097.15 948.694,-2049 1063.52,-1968.04 1079.28,-1778.07 1081.02,-1706.21"/>
<polygon fill="black" stroke="black" points="1084.52,-1706.17 1081.19,-1696.11 1077.53,-1706.05 1084.52,-1706.17"/>
</g>
<!-- KernelTrait&#45;&gt;AutoLoader -->
<g id="edge1" class="edge"><title>KernelTrait&#45;&gt;AutoLoader</title>
<path fill="none" stroke="black" d="M618.694,-1839.82C643.823,-1813.51 701.483,-1756.9 760.694,-1725 773.735,-1717.98 788.858,-1712.52 802.896,-1708.41"/>
<polygon fill="black" stroke="black" points="804.174,-1711.69 812.881,-1705.65 802.31,-1704.94 804.174,-1711.69"/>
</g>
<!-- KernelTrait&#45;&gt;ExceptionManager -->
<g id="edge3" class="edge"><title>KernelTrait&#45;&gt;ExceptionManager</title>
<path fill="none" stroke="black" d="M641.842,-1846.87C680.081,-1839.35 741.029,-1827.36 787.061,-1818.31"/>
<polygon fill="black" stroke="black" points="787.801,-1821.74 796.938,-1816.37 786.45,-1814.87 787.801,-1821.74"/>
</g>
<!-- KernelTrait&#45;&gt;View -->
<g id="edge6" class="edge"><title>KernelTrait&#45;&gt;View</title>
<path fill="none" stroke="black" d="M638.481,-1862.09C684.195,-1873.33 766.584,-1893.57 813.818,-1905.18"/>
<polygon fill="black" stroke="black" points="813.073,-1908.6 823.62,-1907.59 814.744,-1901.81 813.073,-1908.6"/>
</g>
<!-- KernelTrait&#45;&gt;Configer -->
<g id="edge2" class="edge"><title>KernelTrait&#45;&gt;Configer</title>
<path fill="none" stroke="black" d="M634.468,-1863.3C659.556,-1872.13 696.217,-1886.87 724.694,-1906 743.219,-1918.44 741.474,-1929.66 760.694,-1941 776.127,-1950.1 794.904,-1956.39 811.225,-1960.59"/>
<polygon fill="black" stroke="black" points="810.478,-1964.01 821.018,-1962.94 812.112,-1957.2 810.478,-1964.01"/>
</g>
<!-- KernelTrait&#45;&gt;Route -->
<g id="edge4" class="edge"><title>KernelTrait&#45;&gt;Route</title>
<path fill="none" stroke="black" d="M631.107,-1864.45C657.302,-1876.21 697.892,-1897.46 724.694,-1926 748.374,-1951.21 734.066,-1972.92 760.694,-1995 774.179,-2006.18 792.218,-2012.73 808.529,-2016.57"/>
<polygon fill="black" stroke="black" points="807.902,-2020.02 818.405,-2018.63 809.329,-2013.16 807.902,-2020.02"/>
</g>
<!-- KernelTrait&#45;&gt;RuntimeState -->
<g id="edge5" class="edge"><title>KernelTrait&#45;&gt;RuntimeState</title>
<path fill="none" stroke="black" d="M627.169,-1842.22C656.715,-1826.42 711.651,-1798.16 760.694,-1779 773.398,-1774.04 787.408,-1769.41 800.479,-1765.44"/>
<polygon fill="black" stroke="black" points="801.666,-1768.74 810.255,-1762.53 799.672,-1762.03 801.666,-1768.74"/>
</g>
<!-- Functions -->
<g id="node16" class="node"><title>Functions</title>
<ellipse fill="none" stroke="black" cx="850.694" cy="-1860" rx="38.5652" ry="18"/>
<text text-anchor="middle" x="850.694" y="-1856.9" font-family="Times,serif" font-size="12.00">Functions</text>
</g>
<!-- KernelTrait&#45;&gt;Functions -->
<g id="edge7" class="edge"><title>KernelTrait&#45;&gt;Functions</title>
<path fill="none" stroke="black" d="M661.566,-1855.38C703.914,-1856.42 761.44,-1857.83 801.692,-1858.82"/>
<polygon fill="black" stroke="black" points="801.706,-1862.32 811.789,-1859.07 801.878,-1855.32 801.706,-1862.32"/>
</g>
<!-- ExceptionManager&#45;&gt;ComponentBase -->
<g id="edge19" class="edge"><title>ExceptionManager&#45;&gt;ComponentBase</title>
<path fill="none" stroke="black" stroke-dasharray="1,5" d="M904.395,-1795.23C919.156,-1791.18 934.922,-1785.85 948.694,-1779 988.855,-1759.02 1028.96,-1726.14 1054.32,-1703.35"/>
<polygon fill="black" stroke="black" points="1056.98,-1705.66 1062.01,-1696.33 1052.27,-1700.48 1056.98,-1705.66"/>
</g>
<!-- View&#45;&gt;ComponentBase -->
<g id="edge23" class="edge"><title>View&#45;&gt;ComponentBase</title>
<path fill="none" stroke="black" stroke-dasharray="1,5" d="M877.831,-1911.88C898.751,-1909.04 927.926,-1902.43 948.694,-1887 1012.8,-1839.38 1053.6,-1750.68 1071.13,-1705.69"/>
<polygon fill="black" stroke="black" points="1074.43,-1706.87 1074.7,-1696.27 1067.88,-1704.38 1074.43,-1706.87"/>
</g>
<!-- Configer&#45;&gt;ComponentBase -->
<g id="edge20" class="edge"><title>Configer&#45;&gt;ComponentBase</title>
<path fill="none" stroke="black" stroke-dasharray="1,5" d="M880.421,-1966.14C901.381,-1963.44 929.384,-1956.87 948.694,-1941 1025.14,-1878.16 1061.65,-1759.96 1074.9,-1706.06"/>
<polygon fill="black" stroke="black" points="1078.34,-1706.72 1077.25,-1696.18 1071.53,-1705.1 1078.34,-1706.72"/>
</g>
<!-- Logger&#45;&gt;ComponentBase -->
<g id="edge24" class="edge"><title>Logger&#45;&gt;ComponentBase</title>
<path fill="none" stroke="black" stroke-dasharray="1,5" d="M631.827,-1685.01C662.617,-1680.56 715.218,-1673.63 760.694,-1671 844.111,-1666.18 865.168,-1668.79 948.694,-1671 973.538,-1671.66 1000.98,-1673.01 1024.4,-1674.35"/>
<polygon fill="black" stroke="black" points="1024.32,-1677.85 1034.51,-1674.94 1024.73,-1670.86 1024.32,-1677.85"/>
</g>
<!-- Route&#45;&gt;ComponentBase -->
<g id="edge21" class="edge"><title>Route&#45;&gt;ComponentBase</title>
<path fill="none" stroke="black" stroke-dasharray="1,5" d="M885.748,-2019.88C906.15,-2016.97 931.399,-2010.27 948.694,-1995 1037.67,-1916.42 1068.29,-1768.39 1077.51,-1706.42"/>
<polygon fill="black" stroke="black" points="1081.02,-1706.61 1078.95,-1696.22 1074.09,-1705.63 1081.02,-1706.61"/>
</g>
<!-- RuntimeState&#45;&gt;ComponentBase -->
<g id="edge22" class="edge"><title>RuntimeState&#45;&gt;ComponentBase</title>
<path fill="none" stroke="black" stroke-dasharray="1,5" d="M891.051,-1741.71C908.755,-1736.92 929.861,-1730.96 948.694,-1725 973.927,-1717.02 1001.55,-1707.36 1025.01,-1698.87"/>
<polygon fill="black" stroke="black" points="1026.25,-1702.15 1034.45,-1695.44 1023.85,-1695.57 1026.25,-1702.15"/>
</g>
<!-- ComponentInterface -->
<g id="node14" class="node"><title>ComponentInterface</title>
<polygon fill="none" stroke="black" points="1312.37,-1696 1223.37,-1696 1223.37,-1660 1318.37,-1660 1318.37,-1690 1312.37,-1696"/>
<polyline fill="none" stroke="black" points="1312.37,-1696 1312.37,-1690 "/>
<polyline fill="none" stroke="black" points="1318.37,-1690 1312.37,-1690 "/>
<text text-anchor="middle" x="1270.87" y="-1674.9" font-family="Times,serif" font-size="12.00">ComponentBase</text>
</g>
<!-- ComponentBase&#45;&gt;ComponentInterface -->
<g id="edge25" class="edge"><title>ComponentBase&#45;&gt;ComponentInterface</title>
<path fill="none" stroke="black" d="M1129.7,-1678C1154.89,-1678 1186.19,-1678 1212.82,-1678"/>
<polygon fill="black" stroke="black" points="1213.15,-1681.5 1223.15,-1678 1213.15,-1674.5 1213.15,-1681.5"/>
</g>
<!-- AppHelper -->
<g id="node17" class="node"><title>AppHelper</title>
<polygon fill="lightgrey" stroke="black" points="101.316,-1933 40.4359,-1915 101.316,-1897 162.196,-1915 101.316,-1933"/>
<polyline fill="none" stroke="black" points="51.9435,-1918.4 51.9435,-1911.6 "/>
<polyline fill="none" stroke="black" points="89.8084,-1900.4 112.824,-1900.4 "/>
<polyline fill="none" stroke="black" points="150.689,-1911.6 150.689,-1918.4 "/>
<polyline fill="none" stroke="black" points="112.824,-1929.6 89.8084,-1929.6 "/>
<text text-anchor="middle" x="101.316" y="-1911.9" font-family="Times,serif" font-size="12.00">AppHelper</text>
</g>
<!-- AppHelper&#45;&gt;App -->
<g id="edge26" class="edge"><title>AppHelper&#45;&gt;App</title>
<path fill="none" stroke="black" d="M150.045,-1911.33C211.919,-1906.57 318.632,-1898.36 375.695,-1893.97"/>
<polygon fill="black" stroke="black" points="376.048,-1897.46 385.75,-1893.2 375.511,-1890.48 376.048,-1897.46"/>
</g>
<!-- HelperTrait -->
<g id="node22" class="node"><title>HelperTrait</title>
<polygon fill="none" stroke="black" points="284.443,-2031 222.821,-2013 284.443,-1995 346.064,-2013 284.443,-2031"/>
<text text-anchor="middle" x="284.443" y="-2009.9" font-family="Times,serif" font-size="12.00">HelperTrait</text>
</g>
<!-- AppHelper&#45;&gt;HelperTrait -->
<g id="edge33" class="edge"><title>AppHelper&#45;&gt;HelperTrait</title>
<path fill="none" stroke="black" d="M138.632,-1922.15C156.17,-1926.46 177.15,-1932.91 194.632,-1942 219.918,-1955.15 244.93,-1976.05 261.935,-1991.77"/>
<polygon fill="black" stroke="black" points="259.933,-1994.7 269.605,-1999.02 264.741,-1989.61 259.933,-1994.7"/>
</g>
<!-- ControllerHelper -->
<g id="node18" class="node"><title>ControllerHelper</title>
<polygon fill="lightgrey" stroke="black" points="101.316,-1879 16.9251,-1861 101.316,-1843 185.707,-1861 101.316,-1879"/>
<polyline fill="none" stroke="black" points="28.6611,-1863.5 28.6611,-1858.5 "/>
<polyline fill="none" stroke="black" points="89.58,-1845.5 113.052,-1845.5 "/>
<polyline fill="none" stroke="black" points="173.971,-1858.5 173.971,-1863.5 "/>
<polyline fill="none" stroke="black" points="113.052,-1876.5 89.58,-1876.5 "/>
<text text-anchor="middle" x="101.316" y="-1857.9" font-family="Times,serif" font-size="12.00">ControllerHelper</text>
</g>
<!-- ControllerHelper&#45;&gt;App -->
<g id="edge27" class="edge"><title>ControllerHelper&#45;&gt;App</title>
<path fill="none" stroke="black" d="M159.909,-1866.54C223.135,-1872.62 322.811,-1882.2 376.717,-1887.38"/>
<polygon fill="black" stroke="black" points="376.575,-1890.89 386.864,-1888.36 377.245,-1883.92 376.575,-1890.89"/>
</g>
<!-- ControllerHelper&#45;&gt;HelperTrait -->
<g id="edge34" class="edge"><title>ControllerHelper&#45;&gt;HelperTrait</title>
<path fill="none" stroke="black" d="M150.596,-1868.69C165.666,-1872.71 181.71,-1878.8 194.632,-1888 230.906,-1913.83 257.694,-1959.28 271.906,-1987.67"/>
<polygon fill="black" stroke="black" points="268.89,-1989.48 276.403,-1996.95 275.188,-1986.42 268.89,-1989.48"/>
</g>
<!-- ModelHelper -->
<g id="node19" class="node"><title>ModelHelper</title>
<polygon fill="lightgrey" stroke="black" points="101.316,-1825 31.5243,-1807 101.316,-1789 171.108,-1807 101.316,-1825"/>
<polyline fill="none" stroke="black" points="43.144,-1810 43.144,-1804 "/>
<polyline fill="none" stroke="black" points="89.6962,-1792 112.936,-1792 "/>
<polyline fill="none" stroke="black" points="159.488,-1804 159.488,-1810 "/>
<polyline fill="none" stroke="black" points="112.936,-1822 89.6962,-1822 "/>
<text text-anchor="middle" x="101.316" y="-1803.9" font-family="Times,serif" font-size="12.00">ModelHelper</text>
</g>
<!-- ModelHelper&#45;&gt;App -->
<g id="edge28" class="edge"><title>ModelHelper&#45;&gt;App</title>
<path fill="none" stroke="black" d="M139.743,-1815.23C189.202,-1826.37 278.878,-1847.45 354.253,-1870 364.654,-1873.11 375.921,-1876.93 385.858,-1880.45"/>
<polygon fill="black" stroke="black" points="384.675,-1883.74 395.269,-1883.84 387.045,-1877.16 384.675,-1883.74"/>
</g>
<!-- ModelHelper&#45;&gt;HelperTrait -->
<g id="edge35" class="edge"><title>ModelHelper&#45;&gt;HelperTrait</title>
<path fill="none" stroke="black" d="M148.644,-1812.8C164.608,-1816.68 181.704,-1823.17 194.632,-1834 242.74,-1874.31 267.206,-1947.04 277.42,-1986.24"/>
<polygon fill="black" stroke="black" points="274.068,-1987.26 279.877,-1996.12 280.861,-1985.57 274.068,-1987.26"/>
</g>
<!-- ServiceHelper -->
<g id="node20" class="node"><title>ServiceHelper</title>
<polygon fill="lightgrey" stroke="black" points="101.316,-2041 28.0598,-2023 101.316,-2005 174.572,-2023 101.316,-2041"/>
<polyline fill="none" stroke="black" points="39.7131,-2025.86 39.7131,-2020.14 "/>
<polyline fill="none" stroke="black" points="89.6626,-2007.86 112.969,-2007.86 "/>
<polyline fill="none" stroke="black" points="162.919,-2020.14 162.919,-2025.86 "/>
<polyline fill="none" stroke="black" points="112.969,-2038.14 89.6626,-2038.14 "/>
<text text-anchor="middle" x="101.316" y="-2019.9" font-family="Times,serif" font-size="12.00">ServiceHelper</text>
</g>
<!-- ServiceHelper&#45;&gt;App -->
<g id="edge29" class="edge"><title>ServiceHelper&#45;&gt;App</title>
<path fill="none" stroke="black" d="M136.663,-2013.49C154.103,-2008.52 175.578,-2002.2 194.632,-1996 207.132,-1991.93 209.988,-1990.13 222.467,-1986 280.574,-1966.76 301.072,-1976.31 354.253,-1946 370.425,-1936.78 385.85,-1922.51 397.022,-1910.81"/>
<polygon fill="black" stroke="black" points="399.82,-1912.93 404.033,-1903.21 394.677,-1908.19 399.82,-1912.93"/>
</g>
<!-- ServiceHelper&#45;&gt;HelperTrait -->
<g id="edge36" class="edge"><title>ServiceHelper&#45;&gt;HelperTrait</title>
<path fill="none" stroke="black" d="M161.373,-2019.74C180.889,-2018.66 202.635,-2017.46 222.304,-2016.38"/>
<polygon fill="black" stroke="black" points="222.586,-2019.87 232.378,-2015.82 222.2,-2012.88 222.586,-2019.87"/>
</g>
<!-- ViewHelper -->
<g id="node21" class="node"><title>ViewHelper</title>
<polygon fill="lightgrey" stroke="black" points="101.316,-1987 36.2296,-1969 101.316,-1951 166.402,-1969 101.316,-1987"/>
<polyline fill="none" stroke="black" points="47.7955,-1972.2 47.7955,-1965.8 "/>
<polyline fill="none" stroke="black" points="89.7502,-1954.2 112.882,-1954.2 "/>
<polyline fill="none" stroke="black" points="154.837,-1965.8 154.837,-1972.2 "/>
<polyline fill="none" stroke="black" points="112.882,-1983.8 89.7502,-1983.8 "/>
<text text-anchor="middle" x="101.316" y="-1965.9" font-family="Times,serif" font-size="12.00">ViewHelper</text>
</g>
<!-- ViewHelper&#45;&gt;App -->
<g id="edge30" class="edge"><title>ViewHelper&#45;&gt;App</title>
<path fill="none" stroke="black" d="M142.995,-1962.46C193.25,-1953.89 281.078,-1937.28 354.253,-1915 365.327,-1911.63 377.223,-1907.08 387.483,-1902.85"/>
<polygon fill="black" stroke="black" points="388.889,-1906.06 396.74,-1898.94 386.166,-1899.61 388.889,-1906.06"/>
</g>
<!-- ViewHelper&#45;&gt;HelperTrait -->
<g id="edge37" class="edge"><title>ViewHelper&#45;&gt;HelperTrait</title>
<path fill="none" stroke="black" d="M136.811,-1977.38C166.263,-1984.53 208.759,-1994.86 240.427,-2002.55"/>
<polygon fill="black" stroke="black" points="239.755,-2005.99 250.299,-2004.95 241.407,-1999.19 239.755,-2005.99"/>
</g>
<!-- HelperTrait&#45;&gt;App -->
<g id="edge31" class="edge"><title>HelperTrait&#45;&gt;App</title>
<path fill="none" stroke="black" d="M314.262,-2003.68C327.434,-1998.45 342.651,-1990.95 354.253,-1981 375.948,-1962.4 393.073,-1934.13 403.4,-1914.25"/>
<polygon fill="black" stroke="black" points="406.563,-1915.75 407.914,-1905.24 400.305,-1912.61 406.563,-1915.75"/>
</g>
<!-- HelperTrait&#45;&gt;ExtendableStaticCallTrait -->
<g id="edge32" class="edge"><title>HelperTrait&#45;&gt;ExtendableStaticCallTrait</title>
<path fill="none" stroke="black" d="M331.699,-2017.22C380.649,-2021.68 458.966,-2028.82 518.995,-2034.29"/>
<polygon fill="black" stroke="black" points="518.944,-2037.8 529.221,-2035.22 519.58,-2030.83 518.944,-2037.8"/>
</g>
<!-- Db_Db -->
<g id="node23" class="node"><title>Db_Db</title>
<polygon fill="lightgrey" stroke="black" points="850.694,-106 822.977,-88 850.694,-70 878.412,-88 850.694,-106"/>
<polyline fill="none" stroke="black" points="832.216,-94 832.216,-82 "/>
<polyline fill="none" stroke="black" points="841.455,-76 859.933,-76 "/>
<polyline fill="none" stroke="black" points="869.173,-82 869.173,-94 "/>
<polyline fill="none" stroke="black" points="859.933,-100 841.455,-100 "/>
<text text-anchor="middle" x="850.694" y="-84.9" font-family="Times,serif" font-size="12.00">Db</text>
</g>
<!-- Db_DbAdvanceTrait -->
<g id="node24" class="node"><title>Db_DbAdvanceTrait</title>
<polygon fill="none" stroke="black" points="1082.03,-52 997.643,-34 1082.03,-16 1166.42,-34 1082.03,-52"/>
<text text-anchor="middle" x="1082.03" y="-30.9" font-family="Times,serif" font-size="12.00">DbAdvanceTrait</text>
</g>
<!-- Db_Db&#45;&gt;Db_DbAdvanceTrait -->
<g id="edge38" class="edge"><title>Db_Db&#45;&gt;Db_DbAdvanceTrait</title>
<path fill="none" stroke="black" d="M871.645,-83.3023C906.922,-74.9962 981.287,-57.4862 1031.22,-45.7302"/>
<polygon fill="black" stroke="black" points="1032.23,-49.0861 1041.17,-43.3873 1030.63,-42.2724 1032.23,-49.0861"/>
</g>
<!-- Db_DbInterface -->
<g id="node25" class="node"><title>Db_DbInterface</title>
<polygon fill="none" stroke="black" points="1112.53,-106 1045.53,-106 1045.53,-70 1118.53,-70 1118.53,-100 1112.53,-106"/>
<polyline fill="none" stroke="black" points="1112.53,-106 1112.53,-100 "/>
<polyline fill="none" stroke="black" points="1118.53,-100 1112.53,-100 "/>
<text text-anchor="middle" x="1082.03" y="-84.9" font-family="Times,serif" font-size="12.00">DbInterface</text>
</g>
<!-- Db_Db&#45;&gt;Db_DbInterface -->
<g id="edge39" class="edge"><title>Db_Db&#45;&gt;Db_DbInterface</title>
<path fill="none" stroke="black" d="M878.451,-88C916.899,-88 988.3,-88 1035.24,-88"/>
<polygon fill="black" stroke="black" points="1035.45,-91.5001 1045.44,-88 1035.44,-84.5001 1035.45,-91.5001"/>
</g>
<!-- HttpServer -->
<g id="node26" class="node"><title>HttpServer</title>
<polygon fill="lightgrey" stroke="black" points="850.694,-2195 791.296,-2177 850.694,-2159 910.093,-2177 850.694,-2195"/>
<polyline fill="none" stroke="black" points="802.78,-2180.48 802.78,-2173.52 "/>
<polyline fill="none" stroke="black" points="839.21,-2162.48 862.179,-2162.48 "/>
<polyline fill="none" stroke="black" points="898.608,-2173.52 898.608,-2180.48 "/>
<polyline fill="none" stroke="black" points="862.179,-2191.52 839.21,-2191.52 "/>
<text text-anchor="middle" x="850.694" y="-2173.9" font-family="Times,serif" font-size="12.00">HttpServer</text>
</g>
<!-- HttpServerInterface -->
<g id="node27" class="node"><title>HttpServerInterface</title>
<polygon fill="none" stroke="black" points="1145.03,-2141 1013.03,-2141 1013.03,-2105 1151.03,-2105 1151.03,-2135 1145.03,-2141"/>
<polyline fill="none" stroke="black" points="1145.03,-2141 1145.03,-2135 "/>
<polyline fill="none" stroke="black" points="1151.03,-2135 1145.03,-2135 "/>
<text text-anchor="middle" x="1082.03" y="-2119.9" font-family="Times,serif" font-size="12.00">HttpServerInterface(todo)</text>
</g>
<!-- HttpServer&#45;&gt;HttpServerInterface -->
<g id="edge40" class="edge"><title>HttpServer&#45;&gt;HttpServerInterface</title>
<path fill="none" stroke="black" d="M885.042,-2169.15C915.8,-2161.91 962.641,-2150.88 1002.82,-2141.42"/>
<polygon fill="black" stroke="black" points="1003.68,-2144.81 1012.61,-2139.11 1002.07,-2138 1003.68,-2144.81"/>
</g>
<!-- FileRunnerTrait -->
<g id="node29" class="node"><title>FileRunnerTrait</title>
<polygon fill="none" stroke="black" points="1082.03,-2195 976.855,-2177 1082.03,-2159 1187.21,-2177 1082.03,-2195"/>
<text text-anchor="middle" x="1082.03" y="-2173.9" font-family="Times,serif" font-size="12.00">FileRunnerTrait(todo)</text>
</g>
<!-- HttpServer&#45;&gt;FileRunnerTrait -->
<g id="edge41" class="edge"><title>HttpServer&#45;&gt;FileRunnerTrait</title>
<path fill="none" stroke="black" d="M910.16,-2177C927.45,-2177 947.006,-2177 966.554,-2177"/>
<polygon fill="black" stroke="black" points="966.764,-2180.5 976.764,-2177 966.764,-2173.5 966.764,-2180.5"/>
</g>
<!-- HttpServerPluginInterface -->
<g id="node28" class="node"><title>HttpServerPluginInterface</title>
<polygon fill="none" stroke="black" points="903.194,-2141 792.194,-2141 792.194,-2105 909.194,-2105 909.194,-2135 903.194,-2141"/>
<polyline fill="none" stroke="black" points="903.194,-2141 903.194,-2135 "/>
<polyline fill="none" stroke="black" points="909.194,-2135 903.194,-2135 "/>
<text text-anchor="middle" x="850.694" y="-2119.9" font-family="Times,serif" font-size="12.00">PluginInterface(todo)</text>
</g>
<!-- Cache -->
<g id="node30" class="node"><title>Cache</title>
<polygon fill="none" stroke="black" points="631.555,-1336 577.555,-1336 577.555,-1332 573.555,-1332 573.555,-1328 577.555,-1328 577.555,-1308 573.555,-1308 573.555,-1304 577.555,-1304 577.555,-1300 631.555,-1300 631.555,-1336"/>
<polyline fill="none" stroke="black" points="577.555,-1332 581.555,-1332 581.555,-1328 577.555,-1328 "/>
<polyline fill="none" stroke="black" points="577.555,-1308 581.555,-1308 581.555,-1304 577.555,-1304 "/>
<text text-anchor="middle" x="604.555" y="-1314.9" font-family="Times,serif" font-size="12.00">Cache</text>
</g>
<!-- Cache&#45;&gt;ComponentBase -->
<g id="edge42" class="edge"><title>Cache&#45;&gt;ComponentBase</title>
<path fill="none" stroke="black" stroke-dasharray="1,5" d="M631.8,-1314.41C656.407,-1310.5 693.914,-1303.13 724.694,-1291 741.927,-1284.21 742.813,-1274.83 760.694,-1270 841.354,-1248.19 881.109,-1220.87 948.694,-1270 1012.52,-1316.4 1061.37,-1565.61 1076.29,-1650.02"/>
<polygon fill="black" stroke="black" points="1072.85,-1650.67 1078.02,-1659.92 1079.75,-1649.47 1072.85,-1650.67"/>
</g>
<!-- Console -->
<g id="node31" class="node"><title>Console</title>
<polygon fill="lightgrey" stroke="black" points="850.694,-1606 802.189,-1588 850.694,-1570 899.2,-1588 850.694,-1606"/>
<polyline fill="none" stroke="black" points="813.439,-1592.17 813.439,-1583.83 "/>
<polyline fill="none" stroke="black" points="839.444,-1574.17 861.945,-1574.17 "/>
<polyline fill="none" stroke="black" points="887.949,-1583.83 887.949,-1592.17 "/>
<polyline fill="none" stroke="black" points="861.945,-1601.83 839.444,-1601.83 "/>
<text text-anchor="middle" x="850.694" y="-1584.9" font-family="Times,serif" font-size="12.00">Console</text>
</g>
<!-- DbManager -->
<g id="node32" class="node"><title>DbManager</title>
<polygon fill="none" stroke="black" points="641.555,-1282 567.555,-1282 567.555,-1278 563.555,-1278 563.555,-1274 567.555,-1274 567.555,-1254 563.555,-1254 563.555,-1250 567.555,-1250 567.555,-1246 641.555,-1246 641.555,-1282"/>
<polyline fill="none" stroke="black" points="567.555,-1278 571.555,-1278 571.555,-1274 567.555,-1274 "/>
<polyline fill="none" stroke="black" points="567.555,-1254 571.555,-1254 571.555,-1250 567.555,-1250 "/>
<text text-anchor="middle" x="604.555" y="-1260.9" font-family="Times,serif" font-size="12.00">DbManager</text>
</g>
<!-- DbManager&#45;&gt;ComponentBase -->
<g id="edge44" class="edge"><title>DbManager&#45;&gt;ComponentBase</title>
<path fill="none" stroke="black" stroke-dasharray="1,5" d="M641.646,-1247.38C709.268,-1218.99 856.52,-1170.51 948.694,-1239 1016.86,-1289.64 1063.32,-1560.79 1076.91,-1649.72"/>
<polygon fill="black" stroke="black" points="1073.49,-1650.5 1078.44,-1659.87 1080.41,-1649.46 1073.49,-1650.5"/>
</g>
<!-- DbManager&#45;&gt;Db_Db -->
<g id="edge53" class="edge"><title>DbManager&#45;&gt;Db_Db</title>
<path fill="none" stroke="black" stroke-dasharray="5,2" d="M641.611,-1252.84C669.6,-1242.09 706.591,-1222.85 724.694,-1192 783.945,-1091.03 700.274,-239.271 760.694,-139 773.885,-117.109 800.257,-103.734 820.886,-96.2071"/>
<polygon fill="black" stroke="black" points="822.115,-99.4864 830.468,-92.97 819.874,-92.8546 822.115,-99.4864"/>
</g>
<!-- DuckPhpCommand -->
<g id="node33" class="node"><title>DuckPhpCommand</title>
<polygon fill="none" stroke="black" points="660.055,-1606 549.055,-1606 549.055,-1602 545.055,-1602 545.055,-1598 549.055,-1598 549.055,-1578 545.055,-1578 545.055,-1574 549.055,-1574 549.055,-1570 660.055,-1570 660.055,-1606"/>
<polyline fill="none" stroke="black" points="549.055,-1602 553.055,-1602 553.055,-1598 549.055,-1598 "/>
<polyline fill="none" stroke="black" points="549.055,-1578 553.055,-1578 553.055,-1574 549.055,-1574 "/>
<text text-anchor="middle" x="604.555" y="-1584.9" font-family="Times,serif" font-size="12.00">DuckPhpCommand</text>
</g>
<!-- DuckPhpCommand&#45;&gt;ComponentBase -->
<g id="edge43" class="edge"><title>DuckPhpCommand&#45;&gt;ComponentBase</title>
<path fill="none" stroke="black" stroke-dasharray="1,5" d="M660.129,-1587.04C682.53,-1583.98 707.246,-1576.8 724.694,-1561 762.196,-1527.03 719.648,-1482.58 760.694,-1453 828.478,-1404.14 876.165,-1411.51 948.694,-1453 1023.8,-1495.96 1060.49,-1599.98 1074.29,-1650.1"/>
<polygon fill="black" stroke="black" points="1070.95,-1651.16 1076.89,-1659.93 1077.71,-1649.37 1070.95,-1651.16"/>
</g>
<!-- DuckPhpCommand&#45;&gt;HttpServer -->
<g id="edge52" class="edge"><title>DuckPhpCommand&#45;&gt;HttpServer</title>
<path fill="none" stroke="black" stroke-dasharray="5,2" d="M660.109,-1602.15C683.936,-1611.23 709.794,-1625.65 724.694,-1648 786.726,-1741.06 690.899,-2062.61 760.694,-2150 768.804,-2160.15 780.612,-2166.59 792.99,-2170.65"/>
<polygon fill="black" stroke="black" points="792.409,-2174.12 802.98,-2173.41 794.277,-2167.37 792.409,-2174.12"/>
</g>
<!-- DuckPhpCommand&#45;&gt;Console -->
<g id="edge50" class="edge"><title>DuckPhpCommand&#45;&gt;Console</title>
<path fill="none" stroke="black" stroke-dasharray="5,2" d="M660.345,-1588C699.532,-1588 752.17,-1588 792,-1588"/>
<polygon fill="black" stroke="black" points="792.093,-1591.5 802.093,-1588 792.093,-1584.5 792.093,-1591.5"/>
</g>
<!-- Installer -->
<g id="node35" class="node"><title>Installer</title>
<polygon fill="none" stroke="black" points="877.694,-1552 823.694,-1552 823.694,-1548 819.694,-1548 819.694,-1544 823.694,-1544 823.694,-1524 819.694,-1524 819.694,-1520 823.694,-1520 823.694,-1516 877.694,-1516 877.694,-1552"/>
<polyline fill="none" stroke="black" points="823.694,-1548 827.694,-1548 827.694,-1544 823.694,-1544 "/>
<polyline fill="none" stroke="black" points="823.694,-1524 827.694,-1524 827.694,-1520 823.694,-1520 "/>
<text text-anchor="middle" x="850.694" y="-1530.9" font-family="Times,serif" font-size="12.00">Installer</text>
</g>
<!-- DuckPhpCommand&#45;&gt;Installer -->
<g id="edge51" class="edge"><title>DuckPhpCommand&#45;&gt;Installer</title>
<path fill="none" stroke="black" d="M660.345,-1575.88C707.162,-1565.53 773.18,-1550.92 813.617,-1541.98"/>
<polygon fill="black" stroke="black" points="814.557,-1545.36 823.565,-1539.78 813.045,-1538.52 814.557,-1545.36"/>
</g>
<!-- EventManager -->
<g id="node34" class="node"><title>EventManager</title>
<polygon fill="none" stroke="black" points="647.555,-1552 561.555,-1552 561.555,-1548 557.555,-1548 557.555,-1544 561.555,-1544 561.555,-1524 557.555,-1524 557.555,-1520 561.555,-1520 561.555,-1516 647.555,-1516 647.555,-1552"/>
<polyline fill="none" stroke="black" points="561.555,-1548 565.555,-1548 565.555,-1544 561.555,-1544 "/>
<polyline fill="none" stroke="black" points="561.555,-1524 565.555,-1524 565.555,-1520 561.555,-1520 "/>
<text text-anchor="middle" x="604.555" y="-1530.9" font-family="Times,serif" font-size="12.00">EventManager</text>
</g>
<!-- EventManager&#45;&gt;ComponentBase -->
<g id="edge45" class="edge"><title>EventManager&#45;&gt;ComponentBase</title>
<path fill="none" stroke="black" stroke-dasharray="1,5" d="M647.656,-1533.93C672.66,-1531.77 703.517,-1525.15 724.694,-1507 757.722,-1478.7 724.724,-1440.45 760.694,-1416 829.795,-1369.03 877.528,-1372.22 948.694,-1416 1033.51,-1468.18 1065.95,-1593.35 1076.56,-1649.68"/>
<polygon fill="black" stroke="black" points="1073.14,-1650.45 1078.34,-1659.68 1080.03,-1649.22 1073.14,-1650.45"/>
</g>
<!-- Installer&#45;&gt;ComponentBase -->
<g id="edge46" class="edge"><title>Installer&#45;&gt;ComponentBase</title>
<path fill="none" stroke="black" stroke-dasharray="1,5" d="M878.028,-1538C898.262,-1541.84 926.423,-1548.9 948.694,-1561 992.595,-1584.85 1034.22,-1625.73 1058.68,-1652.3"/>
<polygon fill="black" stroke="black" points="1056.1,-1654.67 1065.41,-1659.73 1061.28,-1649.97 1056.1,-1654.67"/>
</g>
<!-- Pager -->
<g id="node36" class="node"><title>Pager</title>
<polygon fill="none" stroke="black" points="631.555,-1498 577.555,-1498 577.555,-1494 573.555,-1494 573.555,-1490 577.555,-1490 577.555,-1470 573.555,-1470 573.555,-1466 577.555,-1466 577.555,-1462 631.555,-1462 631.555,-1498"/>
<polyline fill="none" stroke="black" points="577.555,-1494 581.555,-1494 581.555,-1490 577.555,-1490 "/>
<polyline fill="none" stroke="black" points="577.555,-1470 581.555,-1470 581.555,-1466 577.555,-1466 "/>
<text text-anchor="middle" x="604.555" y="-1476.9" font-family="Times,serif" font-size="12.00">Pager</text>
</g>
<!-- Pager&#45;&gt;ComponentBase -->
<g id="edge47" class="edge"><title>Pager&#45;&gt;ComponentBase</title>
<path fill="none" stroke="black" stroke-dasharray="1,5" d="M631.569,-1480.4C657.757,-1479.48 697.996,-1474.29 724.694,-1453 753.605,-1429.95 729.4,-1397.69 760.694,-1378 831.414,-1333.5 878.697,-1332.37 948.694,-1378 1043.84,-1440.02 1071.07,-1587.6 1078.45,-1649.69"/>
<polygon fill="black" stroke="black" points="1075,-1650.36 1079.57,-1659.92 1081.96,-1649.59 1075,-1650.36"/>
</g>
<!-- PagerInterface -->
<g id="node37" class="node"><title>PagerInterface</title>
<polygon fill="none" stroke="black" points="887.194,-1498 808.194,-1498 808.194,-1462 893.194,-1462 893.194,-1492 887.194,-1498"/>
<polyline fill="none" stroke="black" points="887.194,-1498 887.194,-1492 "/>
<polyline fill="none" stroke="black" points="893.194,-1492 887.194,-1492 "/>
<text text-anchor="middle" x="850.694" y="-1476.9" font-family="Times,serif" font-size="12.00">PagerInterface</text>
</g>
<!-- Pager&#45;&gt;PagerInterface -->
<g id="edge54" class="edge"><title>Pager&#45;&gt;PagerInterface</title>
<path fill="none" stroke="black" d="M631.683,-1480C671.156,-1480 746.786,-1480 797.746,-1480"/>
<polygon fill="black" stroke="black" points="797.908,-1483.5 807.907,-1480 797.907,-1476.5 797.908,-1483.5"/>
</g>
<!-- RouteHookPathInfoCompat -->
<g id="node38" class="node"><title>RouteHookPathInfoCompat</title>
<polygon fill="none" stroke="black" points="679.555,-1444 529.555,-1444 529.555,-1440 525.555,-1440 525.555,-1436 529.555,-1436 529.555,-1416 525.555,-1416 525.555,-1412 529.555,-1412 529.555,-1408 679.555,-1408 679.555,-1444"/>
<polyline fill="none" stroke="black" points="529.555,-1440 533.555,-1440 533.555,-1436 529.555,-1436 "/>
<polyline fill="none" stroke="black" points="529.555,-1416 533.555,-1416 533.555,-1412 529.555,-1412 "/>
<text text-anchor="middle" x="604.555" y="-1422.9" font-family="Times,serif" font-size="12.00">RouteHookPathInfoCompat</text>
</g>
<!-- RouteHookPathInfoCompat&#45;&gt;ComponentBase -->
<g id="edge48" class="edge"><title>RouteHookPathInfoCompat&#45;&gt;ComponentBase</title>
<path fill="none" stroke="black" stroke-dasharray="1,5" d="M679.647,-1418.68C695.526,-1414.61 711.481,-1408.41 724.694,-1399 749.403,-1381.39 734.181,-1355.75 760.694,-1341 833.713,-1300.38 879.653,-1293.94 948.694,-1341 1053.98,-1412.77 1075.51,-1582.19 1079.9,-1649.6"/>
<polygon fill="black" stroke="black" points="1076.43,-1650.1 1080.49,-1659.88 1083.42,-1649.7 1076.43,-1650.1"/>
</g>
<!-- RouteHookRouteMap -->
<g id="node39" class="node"><title>RouteHookRouteMap</title>
<polygon fill="none" stroke="black" points="665.555,-1390 543.555,-1390 543.555,-1386 539.555,-1386 539.555,-1382 543.555,-1382 543.555,-1362 539.555,-1362 539.555,-1358 543.555,-1358 543.555,-1354 665.555,-1354 665.555,-1390"/>
<polyline fill="none" stroke="black" points="543.555,-1386 547.555,-1386 547.555,-1382 543.555,-1382 "/>
<polyline fill="none" stroke="black" points="543.555,-1362 547.555,-1362 547.555,-1358 543.555,-1358 "/>
<text text-anchor="middle" x="604.555" y="-1368.9" font-family="Times,serif" font-size="12.00">RouteHookRouteMap</text>
</g>
<!-- RouteHookRouteMap&#45;&gt;ComponentBase -->
<g id="edge49" class="edge"><title>RouteHookRouteMap&#45;&gt;ComponentBase</title>
<path fill="none" stroke="black" stroke-dasharray="1,5" d="M665.806,-1365.74C685.547,-1361.8 706.949,-1355.41 724.694,-1345 745.325,-1332.9 738.846,-1314.73 760.694,-1305 837.022,-1271.01 880.445,-1256.8 948.694,-1305 1064,-1386.44 1079.47,-1577.41 1081.08,-1649.64"/>
<polygon fill="black" stroke="black" points="1077.58,-1649.85 1081.23,-1659.8 1084.58,-1649.75 1077.58,-1649.85"/>
</g>
<!-- DuckPhp -->
<g id="node40" class="node"><title>DuckPhp</title>
<polygon fill="lightgrey" stroke="black" points="284.443,-1498 230.492,-1480 284.443,-1462 338.393,-1480 284.443,-1498"/>
<polyline fill="none" stroke="black" points="241.875,-1483.8 241.875,-1476.2 "/>
<polyline fill="none" stroke="black" points="273.059,-1465.8 295.826,-1465.8 "/>
<polyline fill="none" stroke="black" points="327.01,-1476.2 327.01,-1483.8 "/>
<polyline fill="none" stroke="black" points="295.826,-1494.2 273.059,-1494.2 "/>
<text text-anchor="middle" x="284.443" y="-1476.9" font-family="Times,serif" font-size="12.00">DuckPhp</text>
</g>
<!-- DuckPhp&#45;&gt;App -->
<g id="edge55" class="edge"><title>DuckPhp&#45;&gt;App</title>
<path fill="none" stroke="black" d="M290.495,-1496.11C310.277,-1559.19 382.55,-1789.65 406.538,-1866.14"/>
<polygon fill="black" stroke="black" points="403.26,-1867.38 409.592,-1875.88 409.939,-1865.29 403.26,-1867.38"/>
</g>
<!-- DuckPhp&#45;&gt;Cache -->
<g id="edge61" class="edge"><title>DuckPhp&#45;&gt;Cache</title>
<path fill="none" stroke="black" d="M299.609,-1467.01C330.533,-1439.46 407.493,-1375.24 484.417,-1345 511.238,-1334.46 543.155,-1327.5 567.2,-1323.29"/>
<polygon fill="black" stroke="black" points="568.029,-1326.7 577.315,-1321.6 566.875,-1319.8 568.029,-1326.7"/>
</g>
<!-- DuckPhp&#45;&gt;Console -->
<g id="edge62" class="edge"><title>DuckPhp&#45;&gt;Console</title>
<path fill="none" stroke="black" d="M298.746,-1493.76C328.563,-1523.44 404.426,-1592.59 484.417,-1615 601.241,-1647.74 746.824,-1616.68 813.409,-1598.73"/>
<polygon fill="black" stroke="black" points="814.691,-1602.01 823.4,-1595.98 812.83,-1595.26 814.691,-1602.01"/>
</g>
<!-- DuckPhp&#45;&gt;DbManager -->
<g id="edge58" class="edge"><title>DuckPhp&#45;&gt;DbManager</title>
<path fill="none" stroke="black" d="M293.69,-1465.03C307.763,-1440.45 338.4,-1391 374.253,-1358 416.417,-1319.19 431.298,-1312.5 484.417,-1291 507.687,-1281.58 534.909,-1275.1 557.454,-1270.85"/>
<polygon fill="black" stroke="black" points="558.229,-1274.27 567.452,-1269.06 556.991,-1267.38 558.229,-1274.27"/>
</g>
<!-- DuckPhp&#45;&gt;DuckPhpCommand -->
<g id="edge63" class="edge"><title>DuckPhp&#45;&gt;DuckPhpCommand</title>
<path fill="none" stroke="black" d="M307.68,-1490.46C343.996,-1507.22 418.597,-1540.3 484.417,-1561 501.751,-1566.45 520.829,-1571.28 538.54,-1575.29"/>
<polygon fill="black" stroke="black" points="538.268,-1578.81 548.787,-1577.55 539.778,-1571.98 538.268,-1578.81"/>
</g>
<!-- DuckPhp&#45;&gt;EventManager -->
<g id="edge59" class="edge"><title>DuckPhp&#45;&gt;EventManager</title>
<path fill="none" stroke="black" d="M320.702,-1485.99C376.671,-1495.49 486.163,-1514.07 551.282,-1525.13"/>
<polygon fill="black" stroke="black" points="550.892,-1528.61 561.337,-1526.83 552.064,-1521.71 550.892,-1528.61"/>
</g>
<!-- DuckPhp&#45;&gt;Pager -->
<g id="edge57" class="edge"><title>DuckPhp&#45;&gt;Pager</title>
<path fill="none" stroke="black" d="M338.688,-1480C403.491,-1480 511.182,-1480 567.195,-1480"/>
<polygon fill="black" stroke="black" points="567.356,-1483.5 577.356,-1480 567.356,-1476.5 567.356,-1483.5"/>
</g>
<!-- DuckPhp&#45;&gt;RouteHookPathInfoCompat -->
<g id="edge60" class="edge"><title>DuckPhp&#45;&gt;RouteHookPathInfoCompat</title>
<path fill="none" stroke="black" d="M320.702,-1474.01C368.226,-1465.95 454.339,-1451.33 519.11,-1440.33"/>
<polygon fill="black" stroke="black" points="520.039,-1443.73 529.312,-1438.6 518.868,-1436.83 520.039,-1443.73"/>
</g>
<!-- DuckPhp&#45;&gt;RouteHookRouteMap -->
<g id="edge56" class="edge"><title>DuckPhp&#45;&gt;RouteHookRouteMap</title>
<path fill="none" stroke="black" d="M307.68,-1469.54C343.996,-1452.78 418.597,-1419.7 484.417,-1399 500.082,-1394.07 517.17,-1389.66 533.387,-1385.89"/>
<polygon fill="black" stroke="black" points="534.372,-1389.26 543.351,-1383.63 532.825,-1382.43 534.372,-1389.26"/>
</g>
<!-- ThrowOnTrait -->
<g id="node41" class="node"><title>ThrowOnTrait</title>
<polygon fill="lightgrey" stroke="black" points="101.316,-2162 26.5775,-2144 101.316,-2126 176.055,-2144 101.316,-2162"/>
<polyline fill="none" stroke="black" points="38.2439,-2146.81 38.2439,-2141.19 "/>
<polyline fill="none" stroke="black" points="89.6496,-2128.81 112.982,-2128.81 "/>
<polyline fill="none" stroke="black" points="164.388,-2141.19 164.388,-2146.81 "/>
<polyline fill="none" stroke="black" points="112.982,-2159.19 89.6496,-2159.19 "/>
<text text-anchor="middle" x="101.316" y="-2140.9" font-family="Times,serif" font-size="12.00">ThrowOnTrait</text>
</g>
<!-- CallableView -->
<g id="node42" class="node"><title>CallableView</title>
<polygon fill="none" stroke="black" points="645.555,-673 563.555,-673 563.555,-669 559.555,-669 559.555,-665 563.555,-665 563.555,-645 559.555,-645 559.555,-641 563.555,-641 563.555,-637 645.555,-637 645.555,-673"/>
<polyline fill="none" stroke="black" points="563.555,-669 567.555,-669 567.555,-665 563.555,-665 "/>
<polyline fill="none" stroke="black" points="563.555,-645 567.555,-645 567.555,-641 563.555,-641 "/>
<text text-anchor="middle" x="604.555" y="-651.9" font-family="Times,serif" font-size="12.00">CallableView</text>
</g>
<!-- X_Core_View -->
<g id="node65" class="node"><title>X_Core_View</title>
<polygon fill="none" stroke="black" points="891.194,-674 792.194,-674 792.194,-650 891.194,-650 891.194,-644 909.194,-662 891.194,-680 891.194,-674"/>
<text text-anchor="middle" x="850.694" y="-658.9" font-family="Times,serif" font-size="12.00">DuckPhp\Core\View</text>
</g>
<!-- CallableView&#45;&gt;X_Core_View -->
<g id="edge80" class="edge"><title>CallableView&#45;&gt;X_Core_View</title>
<path fill="none" stroke="black" d="M645.597,-656.148C682.494,-657.206 738.001,-658.797 781.818,-660.054"/>
<polygon fill="black" stroke="black" points="781.735,-663.553 791.831,-660.341 781.935,-656.556 781.735,-663.553"/>
</g>
<!-- EmptyView -->
<g id="node43" class="node"><title>EmptyView</title>
<polygon fill="none" stroke="black" points="641.555,-619 567.555,-619 567.555,-615 563.555,-615 563.555,-611 567.555,-611 567.555,-591 563.555,-591 563.555,-587 567.555,-587 567.555,-583 641.555,-583 641.555,-619"/>
<polyline fill="none" stroke="black" points="567.555,-615 571.555,-615 571.555,-611 567.555,-611 "/>
<polyline fill="none" stroke="black" points="567.555,-591 571.555,-591 571.555,-587 567.555,-587 "/>
<text text-anchor="middle" x="604.555" y="-597.9" font-family="Times,serif" font-size="12.00">EmptyView</text>
</g>
<!-- EmptyView&#45;&gt;X_Core_View -->
<g id="edge81" class="edge"><title>EmptyView&#45;&gt;X_Core_View</title>
<path fill="none" stroke="black" d="M641.624,-608.754C665.3,-613.947 696.913,-621.077 724.694,-628 743.377,-632.656 763.544,-638 782.113,-643.052"/>
<polygon fill="black" stroke="black" points="781.383,-646.48 791.952,-645.741 783.229,-639.728 781.383,-646.48"/>
</g>
<!-- ExceptionWrapper -->
<g id="node44" class="node"><title>ExceptionWrapper</title>
<polygon fill="none" stroke="black" points="657.555,-943 551.555,-943 551.555,-939 547.555,-939 547.555,-935 551.555,-935 551.555,-915 547.555,-915 547.555,-911 551.555,-911 551.555,-907 657.555,-907 657.555,-943"/>
<polyline fill="none" stroke="black" points="551.555,-939 555.555,-939 555.555,-935 551.555,-935 "/>
<polyline fill="none" stroke="black" points="551.555,-915 555.555,-915 555.555,-911 551.555,-911 "/>
<text text-anchor="middle" x="604.555" y="-921.9" font-family="Times,serif" font-size="12.00">ExceptionWrapper</text>
</g>
<!-- ExceptionWrapper&#45;&gt;ComponentBase -->
<g id="edge64" class="edge"><title>ExceptionWrapper&#45;&gt;ComponentBase</title>
<path fill="none" stroke="black" stroke-dasharray="1,5" d="M657.816,-927.558C680.188,-930.871 705.518,-937.804 724.694,-952 750.614,-971.188 734.6,-996.05 760.694,-1015 829.742,-1065.14 888.22,-993.794 948.694,-1054 1035.09,-1140.01 1070.76,-1539.62 1079.06,-1649.8"/>
<polygon fill="black" stroke="black" points="1075.57,-1650.11 1079.8,-1659.83 1082.55,-1649.59 1075.57,-1650.11"/>
</g>
<!-- HookChain -->
<g id="node45" class="node"><title>HookChain</title>
<ellipse fill="none" stroke="black" cx="604.555" cy="-979" rx="44.1452" ry="18"/>
<text text-anchor="middle" x="604.555" y="-975.9" font-family="Times,serif" font-size="12.00">HookChain</text>
</g>
<!-- HttpServerPlugin -->
<g id="node46" class="node"><title>HttpServerPlugin</title>
<polygon fill="none" stroke="black" points="668.555,-889 540.555,-889 540.555,-885 536.555,-885 536.555,-881 540.555,-881 540.555,-861 536.555,-861 536.555,-857 540.555,-857 540.555,-853 668.555,-853 668.555,-889"/>
<polyline fill="none" stroke="black" points="540.555,-885 544.555,-885 544.555,-881 540.555,-881 "/>
<polyline fill="none" stroke="black" points="540.555,-861 544.555,-861 544.555,-857 540.555,-857 "/>
<text text-anchor="middle" x="604.555" y="-867.9" font-family="Times,serif" font-size="12.00">HttpServerPlugin(todo)</text>
</g>
<!-- HttpServerPlugin&#45;&gt;ComponentBase -->
<g id="edge65" class="edge"><title>HttpServerPlugin&#45;&gt;ComponentBase</title>
<path fill="none" stroke="black" stroke-dasharray="1,5" d="M668.763,-874.502C688.377,-878.261 708.953,-885.255 724.694,-898 754.368,-922.026 730.802,-952.246 760.694,-976 827.504,-1029.09 888.581,-954.433 948.694,-1015 1040.21,-1107.21 1072.41,-1535.67 1079.45,-1649.93"/>
<polygon fill="black" stroke="black" points="1075.96,-1650.21 1080.05,-1659.99 1082.94,-1649.79 1075.96,-1650.21"/>
</g>
<!-- JsonRpcClientBase -->
<g id="node47" class="node"><title>JsonRpcClientBase</title>
<polygon fill="none" stroke="black" points="659.055,-781 550.055,-781 550.055,-777 546.055,-777 546.055,-773 550.055,-773 550.055,-753 546.055,-753 546.055,-749 550.055,-749 550.055,-745 659.055,-745 659.055,-781"/>
<polyline fill="none" stroke="black" points="550.055,-777 554.055,-777 554.055,-773 550.055,-773 "/>
<polyline fill="none" stroke="black" points="550.055,-753 554.055,-753 554.055,-749 550.055,-749 "/>
<text text-anchor="middle" x="604.555" y="-759.9" font-family="Times,serif" font-size="12.00">JsonRpcClientBase</text>
</g>
<!-- JsonRpcClientBase&#45;&gt;ComponentBase -->
<g id="edge88" class="edge"><title>JsonRpcClientBase&#45;&gt;ComponentBase</title>
<path fill="none" stroke="black" stroke-dasharray="1,5" d="M659.067,-764.015C681.676,-767.035 706.846,-774.167 724.694,-790 760.344,-821.624 725.156,-859.25 760.694,-891 824.689,-948.172 889.664,-872.715 948.694,-935 1049.31,-1041.16 1075.08,-1527.27 1080.03,-1649.86"/>
<polygon fill="black" stroke="black" points="1076.54,-1650.09 1080.42,-1659.95 1083.53,-1649.82 1076.54,-1650.09"/>
</g>
<!-- JsonRpcExt -->
<g id="node48" class="node"><title>JsonRpcExt</title>
<polygon fill="none" stroke="black" points="887.694,-781 813.694,-781 813.694,-777 809.694,-777 809.694,-773 813.694,-773 813.694,-753 809.694,-753 809.694,-749 813.694,-749 813.694,-745 887.694,-745 887.694,-781"/>
<polyline fill="none" stroke="black" points="813.694,-777 817.694,-777 817.694,-773 813.694,-773 "/>
<polyline fill="none" stroke="black" points="813.694,-753 817.694,-753 817.694,-749 813.694,-749 "/>
<text text-anchor="middle" x="850.694" y="-759.9" font-family="Times,serif" font-size="12.00">JsonRpcExt</text>
</g>
<!-- JsonRpcClientBase&#45;&gt;JsonRpcExt -->
<g id="edge87" class="edge"><title>JsonRpcClientBase&#45;&gt;JsonRpcExt</title>
<path fill="none" stroke="black" stroke-dasharray="5,2" d="M659.133,-757.301C702.352,-755.812 762.507,-755.905 803.597,-757.581"/>
<polygon fill="black" stroke="black" points="803.461,-761.079 813.611,-758.042 803.783,-754.086 803.461,-761.079"/>
</g>
<!-- JsonRpcExt&#45;&gt;ComponentBase -->
<g id="edge66" class="edge"><title>JsonRpcExt&#45;&gt;ComponentBase</title>
<path fill="none" stroke="black" stroke-dasharray="1,5" d="M888.123,-763.807C908.87,-766.273 933.648,-772.97 948.694,-790 1065.38,-922.069 1079.18,-1513.67 1080.81,-1649.94"/>
<polygon fill="black" stroke="black" points="1077.32,-1650.03 1080.92,-1659.99 1084.31,-1649.95 1077.32,-1650.03"/>
</g>
<!-- JsonRpcExt&#45;&gt;JsonRpcClientBase -->
<g id="edge86" class="edge"><title>JsonRpcExt&#45;&gt;JsonRpcClientBase</title>
<path fill="none" stroke="black" d="M813.611,-767.958C775.692,-769.919 715.281,-770.27 669.301,-769.012"/>
<polygon fill="black" stroke="black" points="669.236,-765.509 659.133,-768.699 669.02,-772.505 669.236,-765.509"/>
</g>
<!-- JsonView -->
<g id="node49" class="node"><title>JsonView</title>
<polygon fill="none" stroke="black" points="636.555,-727 572.555,-727 572.555,-723 568.555,-723 568.555,-719 572.555,-719 572.555,-699 568.555,-699 568.555,-695 572.555,-695 572.555,-691 636.555,-691 636.555,-727"/>
<polyline fill="none" stroke="black" points="572.555,-723 576.555,-723 576.555,-719 572.555,-719 "/>
<polyline fill="none" stroke="black" points="572.555,-699 576.555,-699 576.555,-695 572.555,-695 "/>
<text text-anchor="middle" x="604.555" y="-705.9" font-family="Times,serif" font-size="12.00">JsonView</text>
</g>
<!-- JsonView&#45;&gt;X_Core_View -->
<g id="edge89" class="edge"><title>JsonView&#45;&gt;X_Core_View</title>
<path fill="none" stroke="black" d="M636.973,-702.952C673.403,-695.938 734.512,-684.174 781.91,-675.049"/>
<polygon fill="black" stroke="black" points="782.644,-678.472 791.802,-673.145 781.32,-671.599 782.644,-678.472"/>
</g>
<!-- Misc -->
<g id="node50" class="node"><title>Misc</title>
<polygon fill="none" stroke="black" points="631.555,-241 577.555,-241 577.555,-237 573.555,-237 573.555,-233 577.555,-233 577.555,-213 573.555,-213 573.555,-209 577.555,-209 577.555,-205 631.555,-205 631.555,-241"/>
<polyline fill="none" stroke="black" points="577.555,-237 581.555,-237 581.555,-233 577.555,-233 "/>
<polyline fill="none" stroke="black" points="577.555,-213 581.555,-213 581.555,-209 577.555,-209 "/>
<text text-anchor="middle" x="604.555" y="-219.9" font-family="Times,serif" font-size="12.00">Misc</text>
</g>
<!-- Misc&#45;&gt;ComponentBase -->
<g id="edge67" class="edge"><title>Misc&#45;&gt;ComponentBase</title>
<path fill="none" stroke="black" stroke-dasharray="1,5" d="M631.77,-220.944C704.14,-215.88 904.286,-206.204 948.694,-250 1052.27,-352.149 1077.03,-1457.97 1080.55,-1649.74"/>
<polygon fill="black" stroke="black" points="1077.06,-1649.92 1080.74,-1659.86 1084.06,-1649.8 1077.06,-1649.92"/>
</g>
<!-- MyFacadesAutoLoader -->
<g id="node51" class="node"><title>MyFacadesAutoLoader</title>
<polygon fill="none" stroke="black" points="669.055,-457 540.055,-457 540.055,-453 536.055,-453 536.055,-449 540.055,-449 540.055,-429 536.055,-429 536.055,-425 540.055,-425 540.055,-421 669.055,-421 669.055,-457"/>
<polyline fill="none" stroke="black" points="540.055,-453 544.055,-453 544.055,-449 540.055,-449 "/>
<polyline fill="none" stroke="black" points="540.055,-429 544.055,-429 544.055,-425 540.055,-425 "/>
<text text-anchor="middle" x="604.555" y="-435.9" font-family="Times,serif" font-size="12.00">MyFacadesAutoLoader</text>
</g>
<!-- MyFacadesAutoLoader&#45;&gt;ComponentBase -->
<g id="edge69" class="edge"><title>MyFacadesAutoLoader&#45;&gt;ComponentBase</title>
<path fill="none" stroke="black" stroke-dasharray="1,5" d="M669.15,-430.738C687.733,-426.718 707.623,-420.774 724.694,-412 743.734,-402.214 740.684,-387.608 760.694,-380 838.796,-350.306 886.688,-323.994 948.694,-380 1046.4,-468.252 1075.79,-1466.84 1080.36,-1649.43"/>
<polygon fill="black" stroke="black" points="1076.87,-1649.67 1080.61,-1659.58 1083.87,-1649.5 1076.87,-1649.67"/>
</g>
<!-- MyFacadesBase -->
<g id="node52" class="node"><title>MyFacadesBase</title>
<polygon fill="none" stroke="black" points="898.194,-464 803.194,-464 803.194,-460 799.194,-460 799.194,-456 803.194,-456 803.194,-436 799.194,-436 799.194,-432 803.194,-432 803.194,-428 898.194,-428 898.194,-464"/>
<polyline fill="none" stroke="black" points="803.194,-460 807.194,-460 807.194,-456 803.194,-456 "/>
<polyline fill="none" stroke="black" points="803.194,-436 807.194,-436 807.194,-432 803.194,-432 "/>
<text text-anchor="middle" x="850.694" y="-442.9" font-family="Times,serif" font-size="12.00">MyFacadesBase</text>
</g>
<!-- MyFacadesAutoLoader&#45;&gt;MyFacadesBase -->
<g id="edge83" class="edge"><title>MyFacadesAutoLoader&#45;&gt;MyFacadesBase</title>
<path fill="none" stroke="black" d="M669.063,-434.815C707.418,-434.859 755.882,-436.316 792.952,-438.568"/>
<polygon fill="black" stroke="black" points="792.882,-442.071 803.088,-439.224 793.335,-435.086 792.882,-442.071"/>
</g>
<!-- MyFacadesBase&#45;&gt;ComponentBase -->
<g id="edge68" class="edge"><title>MyFacadesBase&#45;&gt;ComponentBase</title>
<path fill="none" stroke="black" stroke-dasharray="1,5" d="M898.208,-448.031C916.583,-451.302 936.243,-458.347 948.694,-473 1027.58,-565.832 1072.02,-1476.43 1079.8,-1649.63"/>
<polygon fill="black" stroke="black" points="1076.31,-1649.91 1080.25,-1659.74 1083.3,-1649.6 1076.31,-1649.91"/>
</g>
<!-- MyFacadesBase&#45;&gt;MyFacadesAutoLoader -->
<g id="edge82" class="edge"><title>MyFacadesBase&#45;&gt;MyFacadesAutoLoader</title>
<path fill="none" stroke="black" stroke-dasharray="5,2" d="M803.088,-450.103C768.053,-450.511 719.373,-449.386 679.106,-447.361"/>
<polygon fill="black" stroke="black" points="679.235,-443.863 669.063,-446.827 678.863,-450.853 679.235,-443.863"/>
</g>
<!-- MyMiddlewareManager -->
<g id="node53" class="node"><title>MyMiddlewareManager</title>
<polygon fill="none" stroke="black" points="670.555,-511 538.555,-511 538.555,-507 534.555,-507 534.555,-503 538.555,-503 538.555,-483 534.555,-483 534.555,-479 538.555,-479 538.555,-475 670.555,-475 670.555,-511"/>
<polyline fill="none" stroke="black" points="538.555,-507 542.555,-507 542.555,-503 538.555,-503 "/>
<polyline fill="none" stroke="black" points="538.555,-483 542.555,-483 542.555,-479 538.555,-479 "/>
<text text-anchor="middle" x="604.555" y="-489.9" font-family="Times,serif" font-size="12.00">MyMiddlewareManager</text>
</g>
<!-- MyMiddlewareManager&#45;&gt;ComponentBase -->
<g id="edge70" class="edge"><title>MyMiddlewareManager&#45;&gt;ComponentBase</title>
<path fill="none" stroke="black" stroke-dasharray="1,5" d="M670.602,-486.658C689.129,-482.695 708.625,-476.3 724.694,-466 746.847,-451.801 737.1,-430.648 760.694,-419 835.617,-382.012 886.6,-363.091 948.694,-419 1043.48,-504.347 1075.18,-1470.16 1080.27,-1649.45"/>
<polygon fill="black" stroke="black" points="1076.78,-1649.77 1080.55,-1659.66 1083.77,-1649.57 1076.78,-1649.77"/>
</g>
<!-- RouteHookManager -->
<g id="node58" class="node"><title>RouteHookManager</title>
<polygon fill="none" stroke="black" points="907.694,-518 793.694,-518 793.694,-514 789.694,-514 789.694,-510 793.694,-510 793.694,-490 789.694,-490 789.694,-486 793.694,-486 793.694,-482 907.694,-482 907.694,-518"/>
<polyline fill="none" stroke="black" points="793.694,-514 797.694,-514 797.694,-510 793.694,-510 "/>
<polyline fill="none" stroke="black" points="793.694,-490 797.694,-490 797.694,-486 793.694,-486 "/>
<text text-anchor="middle" x="850.694" y="-496.9" font-family="Times,serif" font-size="12.00">RouteHookManager</text>
</g>
<!-- MyMiddlewareManager&#45;&gt;RouteHookManager -->
<g id="edge84" class="edge"><title>MyMiddlewareManager&#45;&gt;RouteHookManager</title>
<path fill="none" stroke="black" d="M670.659,-494.867C705.5,-495.866 748.322,-497.093 783.35,-498.098"/>
<polygon fill="black" stroke="black" points="783.384,-501.6 793.48,-498.388 783.584,-494.603 783.384,-501.6"/>
</g>
<!-- X_Core_Route -->
<g id="node64" class="node"><title>X_Core_Route</title>
<polygon fill="none" stroke="black" points="892.194,-566 791.194,-566 791.194,-542 892.194,-542 892.194,-536 910.194,-554 892.194,-572 892.194,-566"/>
<text text-anchor="middle" x="850.694" y="-550.9" font-family="Times,serif" font-size="12.00">DuckPhp\Core\Route</text>
</g>
<!-- MyMiddlewareManager&#45;&gt;X_Core_Route -->
<g id="edge85" class="edge"><title>MyMiddlewareManager&#45;&gt;X_Core_Route</title>
<path fill="none" stroke="black" d="M670.599,-507.212C688.191,-511.2 707.202,-515.641 724.694,-520 743.1,-524.587 762.946,-529.841 781.285,-534.826"/>
<polygon fill="black" stroke="black" points="780.441,-538.224 791.01,-537.483 782.285,-531.471 780.441,-538.224"/>
</g>
<!-- RedisManager -->
<g id="node54" class="node"><title>RedisManager</title>
<polygon fill="none" stroke="black" points="647.555,-187 561.555,-187 561.555,-183 557.555,-183 557.555,-179 561.555,-179 561.555,-159 557.555,-159 557.555,-155 561.555,-155 561.555,-151 647.555,-151 647.555,-187"/>
<polyline fill="none" stroke="black" points="561.555,-183 565.555,-183 565.555,-179 561.555,-179 "/>
<polyline fill="none" stroke="black" points="561.555,-159 565.555,-159 565.555,-155 561.555,-155 "/>
<text text-anchor="middle" x="604.555" y="-165.9" font-family="Times,serif" font-size="12.00">RedisManager</text>
</g>
<!-- RedisManager&#45;&gt;ComponentBase -->
<g id="edge71" class="edge"><title>RedisManager&#45;&gt;ComponentBase</title>
<path fill="none" stroke="black" stroke-dasharray="1,5" d="M647.582,-159.664C720.443,-146.224 869.944,-131.245 948.694,-213 1052.32,-320.578 1077.07,-1455.11 1080.56,-1649.68"/>
<polygon fill="black" stroke="black" points="1077.07,-1650 1080.74,-1659.94 1084.07,-1649.88 1077.07,-1650"/>
</g>
<!-- RedisCache -->
<g id="node55" class="node"><title>RedisCache</title>
<polygon fill="none" stroke="black" points="641.555,-349 567.555,-349 567.555,-345 563.555,-345 563.555,-341 567.555,-341 567.555,-321 563.555,-321 563.555,-317 567.555,-317 567.555,-313 641.555,-313 641.555,-349"/>
<polyline fill="none" stroke="black" points="567.555,-345 571.555,-345 571.555,-341 567.555,-341 "/>
<polyline fill="none" stroke="black" points="567.555,-321 571.555,-321 571.555,-317 567.555,-317 "/>
<text text-anchor="middle" x="604.555" y="-327.9" font-family="Times,serif" font-size="12.00">RedisCache</text>
</g>
<!-- RedisCache&#45;&gt;ComponentBase -->
<g id="edge72" class="edge"><title>RedisCache&#45;&gt;ComponentBase</title>
<path fill="none" stroke="black" stroke-dasharray="1,5" d="M641.694,-326.698C720.725,-318.156 905.328,-303.202 948.694,-344 1047.38,-436.837 1076.03,-1464.53 1080.4,-1649.55"/>
<polygon fill="black" stroke="black" points="1076.91,-1649.67 1080.64,-1659.59 1083.9,-1649.51 1076.91,-1649.67"/>
</g>
<!-- RouteHookApiServer -->
<g id="node56" class="node"><title>RouteHookApiServer</title>
<polygon fill="none" stroke="black" points="665.055,-295 544.055,-295 544.055,-291 540.055,-291 540.055,-287 544.055,-287 544.055,-267 540.055,-267 540.055,-263 544.055,-263 544.055,-259 665.055,-259 665.055,-295"/>
<polyline fill="none" stroke="black" points="544.055,-291 548.055,-291 548.055,-287 544.055,-287 "/>
<polyline fill="none" stroke="black" points="544.055,-267 548.055,-267 548.055,-263 544.055,-263 "/>
<text text-anchor="middle" x="604.555" y="-273.9" font-family="Times,serif" font-size="12.00">RouteHookApiServer</text>
</g>
<!-- RouteHookApiServer&#45;&gt;ComponentBase -->
<g id="edge73" class="edge"><title>RouteHookApiServer&#45;&gt;ComponentBase</title>
<path fill="none" stroke="black" stroke-dasharray="1,5" d="M665.361,-263.061C742.386,-249.028 875.076,-238.799 948.694,-313 1046.42,-411.498 1075.9,-1462.39 1080.39,-1649.57"/>
<polygon fill="black" stroke="black" points="1076.9,-1649.79 1080.63,-1659.71 1083.89,-1649.63 1076.9,-1649.79"/>
</g>
<!-- RouteHookDirectoryMode -->
<g id="node57" class="node"><title>RouteHookDirectoryMode</title>
<polygon fill="none" stroke="black" points="677.055,-1159 532.055,-1159 532.055,-1155 528.055,-1155 528.055,-1151 532.055,-1151 532.055,-1131 528.055,-1131 528.055,-1127 532.055,-1127 532.055,-1123 677.055,-1123 677.055,-1159"/>
<polyline fill="none" stroke="black" points="532.055,-1155 536.055,-1155 536.055,-1151 532.055,-1151 "/>
<polyline fill="none" stroke="black" points="532.055,-1131 536.055,-1131 536.055,-1127 532.055,-1127 "/>
<text text-anchor="middle" x="604.555" y="-1137.9" font-family="Times,serif" font-size="12.00">RouteHookDirectoryMode</text>
</g>
<!-- RouteHookDirectoryMode&#45;&gt;ComponentBase -->
<g id="edge74" class="edge"><title>RouteHookDirectoryMode&#45;&gt;ComponentBase</title>
<path fill="none" stroke="black" stroke-dasharray="1,5" d="M677.136,-1132.92C753.965,-1128.43 874.891,-1134.07 948.694,-1201 1017.05,-1262.99 1063.85,-1556.63 1077.16,-1649.66"/>
<polygon fill="black" stroke="black" points="1073.72,-1650.33 1078.58,-1659.74 1080.65,-1649.35 1073.72,-1650.33"/>
</g>
<!-- RouteHookManager&#45;&gt;ComponentBase -->
<g id="edge75" class="edge"><title>RouteHookManager&#45;&gt;ComponentBase</title>
<path fill="none" stroke="black" stroke-dasharray="1,5" d="M907.762,-504.116C923.12,-507.996 938.363,-514.904 948.694,-527 1024.11,-615.299 1071.15,-1480.9 1079.64,-1649.59"/>
<polygon fill="black" stroke="black" points="1076.15,-1649.86 1080.15,-1659.67 1083.15,-1649.51 1076.15,-1649.86"/>
</g>
<!-- RouteHookRewrite -->
<g id="node59" class="node"><title>RouteHookRewrite</title>
<polygon fill="none" stroke="black" points="659.555,-1105 549.555,-1105 549.555,-1101 545.555,-1101 545.555,-1097 549.555,-1097 549.555,-1077 545.555,-1077 545.555,-1073 549.555,-1073 549.555,-1069 659.555,-1069 659.555,-1105"/>
<polyline fill="none" stroke="black" points="549.555,-1101 553.555,-1101 553.555,-1097 549.555,-1097 "/>
<polyline fill="none" stroke="black" points="549.555,-1077 553.555,-1077 553.555,-1073 549.555,-1073 "/>
<text text-anchor="middle" x="604.555" y="-1083.9" font-family="Times,serif" font-size="12.00">RouteHookRewrite</text>
</g>
<!-- RouteHookRewrite&#45;&gt;ComponentBase -->
<g id="edge76" class="edge"><title>RouteHookRewrite&#45;&gt;ComponentBase</title>
<path fill="none" stroke="black" stroke-dasharray="1,5" d="M659.783,-1090.6C751.067,-1097.15 927.584,-1112.09 948.694,-1131 1027.95,-1202 1068.14,-1548.16 1078.37,-1649.86"/>
<polygon fill="black" stroke="black" points="1074.9,-1650.37 1079.37,-1659.97 1081.87,-1649.68 1074.9,-1650.37"/>
</g>
<!-- SimpleModel -->
<g id="node60" class="node"><title>SimpleModel</title>
<polygon fill="none" stroke="black" points="659.055,-403 550.055,-403 550.055,-399 546.055,-399 546.055,-395 550.055,-395 550.055,-375 546.055,-375 546.055,-371 550.055,-371 550.055,-367 659.055,-367 659.055,-403"/>
<polyline fill="none" stroke="black" points="550.055,-399 554.055,-399 554.055,-395 550.055,-395 "/>
<polyline fill="none" stroke="black" points="550.055,-375 554.055,-375 554.055,-371 550.055,-371 "/>
<text text-anchor="middle" x="604.555" y="-381.9" font-family="Times,serif" font-size="12.00">SimpleModel(todo)</text>
</g>
<!-- SimpleModel&#45;&gt;ComponentBase -->
<g id="edge77" class="edge"><title>SimpleModel&#45;&gt;ComponentBase</title>
<path fill="none" stroke="black" stroke-dasharray="1,5" d="M659.302,-383.765C682.804,-386.211 708.625,-393.512 724.694,-412 787.891,-484.706 698.306,-770.599 760.694,-844 816.473,-909.624 890.226,-827.76 948.694,-891 1054.14,-1005.05 1076.39,-1523.03 1080.3,-1649.89"/>
<polygon fill="black" stroke="black" points="1076.8,-1650.07 1080.59,-1659.97 1083.8,-1649.87 1076.8,-1650.07"/>
</g>
<!-- SimpleModel&#45;&gt;Db_Db -->
<g id="edge90" class="edge"><title>SimpleModel&#45;&gt;Db_Db</title>
<path fill="none" stroke="black" stroke-dasharray="5,2" d="M659.255,-385.575C682.456,-382.944 708.045,-375.678 724.694,-358 792.322,-286.193 704.455,-220.037 760.694,-139 775.2,-118.098 801.233,-104.643 821.41,-96.8315"/>
<polygon fill="black" stroke="black" points="822.836,-100.038 831.051,-93.3471 820.457,-93.4544 822.836,-100.038"/>
</g>
<!-- StaticReplacer -->
<g id="node61" class="node"><title>StaticReplacer</title>
<polygon fill="none" stroke="black" points="647.055,-1051 562.055,-1051 562.055,-1047 558.055,-1047 558.055,-1043 562.055,-1043 562.055,-1023 558.055,-1023 558.055,-1019 562.055,-1019 562.055,-1015 647.055,-1015 647.055,-1051"/>
<polyline fill="none" stroke="black" points="562.055,-1047 566.055,-1047 566.055,-1043 562.055,-1043 "/>
<polyline fill="none" stroke="black" points="562.055,-1023 566.055,-1023 566.055,-1019 562.055,-1019 "/>
<text text-anchor="middle" x="604.555" y="-1029.9" font-family="Times,serif" font-size="12.00">StaticReplacer</text>
</g>
<!-- StaticReplacer&#45;&gt;ComponentBase -->
<g id="edge78" class="edge"><title>StaticReplacer&#45;&gt;ComponentBase</title>
<path fill="none" stroke="black" stroke-dasharray="1,5" d="M647.062,-1039.38C735.999,-1053.21 937.806,-1085.56 948.694,-1096 1030.5,-1174.44 1069.13,-1543.81 1078.64,-1649.61"/>
<polygon fill="black" stroke="black" points="1075.18,-1650.18 1079.54,-1659.83 1082.15,-1649.56 1075.18,-1650.18"/>
</g>
<!-- StrictCheck -->
<g id="node62" class="node"><title>StrictCheck</title>
<polygon fill="none" stroke="black" points="640.555,-835 568.555,-835 568.555,-831 564.555,-831 564.555,-827 568.555,-827 568.555,-807 564.555,-807 564.555,-803 568.555,-803 568.555,-799 640.555,-799 640.555,-835"/>
<polyline fill="none" stroke="black" points="568.555,-831 572.555,-831 572.555,-827 568.555,-827 "/>
<polyline fill="none" stroke="black" points="568.555,-807 572.555,-807 572.555,-803 568.555,-803 "/>
<text text-anchor="middle" x="604.555" y="-813.9" font-family="Times,serif" font-size="12.00">StrictCheck</text>
</g>
<!-- StrictCheck&#45;&gt;ComponentBase -->
<g id="edge79" class="edge"><title>StrictCheck&#45;&gt;ComponentBase</title>
<path fill="none" stroke="black" stroke-dasharray="1,5" d="M640.697,-816.571C666.706,-818.069 701.504,-824.128 724.694,-844 757.722,-872.301 727.552,-906.834 760.694,-935 825.86,-990.381 889.087,-914.676 948.694,-976 1044.78,-1074.85 1073.78,-1531.41 1079.75,-1649.86"/>
<polygon fill="black" stroke="black" points="1076.26,-1650.13 1080.25,-1659.95 1083.25,-1649.79 1076.26,-1650.13"/>
</g>
<!-- X_DbManager -->
<g id="node66" class="node"><title>X_DbManager</title>
<polygon fill="none" stroke="black" points="922.694,-829 760.694,-829 760.694,-805 922.694,-805 922.694,-799 940.694,-817 922.694,-835 922.694,-829"/>
<text text-anchor="middle" x="850.694" y="-813.9" font-family="Times,serif" font-size="12.00">DuckPhp\Component\DbManager</text>
</g>
<!-- StrictCheck&#45;&gt;X_DbManager -->
<g id="edge91" class="edge"><title>StrictCheck&#45;&gt;X_DbManager</title>
<path fill="none" stroke="black" d="M640.795,-817C669.463,-817 711.378,-817 750.152,-817"/>
<polygon fill="black" stroke="black" points="750.46,-820.5 760.46,-817 750.46,-813.5 750.46,-820.5"/>
</g>
<!-- X_Core_Configer -->
<g id="node63" class="node"><title>X_Core_Configer</title>
<polygon fill="none" stroke="black" points="899.194,-620 784.194,-620 784.194,-596 899.194,-596 899.194,-590 917.194,-608 899.194,-626 899.194,-620"/>
<text text-anchor="middle" x="850.694" y="-604.9" font-family="Times,serif" font-size="12.00">DuckPhp\Core\Configer</text>
</g>
<!-- AppPluginTrait -->
<g id="node67" class="node"><title>AppPluginTrait</title>
<polygon fill="lightgrey" stroke="black" points="604.555,-565 525.111,-547 604.555,-529 684,-547 604.555,-565"/>
<polyline fill="none" stroke="black" points="536.814,-549.652 536.814,-544.348 "/>
<polyline fill="none" stroke="black" points="592.852,-531.652 616.259,-531.652 "/>
<polyline fill="none" stroke="black" points="672.297,-544.348 672.297,-549.652 "/>
<polyline fill="none" stroke="black" points="616.259,-562.348 592.852,-562.348 "/>
<text text-anchor="middle" x="604.555" y="-543.9" font-family="Times,serif" font-size="12.00">AppPluginTrait</text>
</g>
<!-- AppPluginTrait&#45;&gt;X_Core_Configer -->
<g id="edge92" class="edge"><title>AppPluginTrait&#45;&gt;X_Core_Configer</title>
<path fill="none" stroke="black" d="M645.914,-555.697C669.034,-560.791 698.559,-567.487 724.694,-574 741.204,-578.114 758.872,-582.766 775.572,-587.278"/>
<polygon fill="black" stroke="black" points="774.709,-590.67 785.277,-589.914 776.543,-583.915 774.709,-590.67"/>
</g>
<!-- AppPluginTrait&#45;&gt;X_Core_Route -->
<g id="edge94" class="edge"><title>AppPluginTrait&#45;&gt;X_Core_Route</title>
<path fill="none" stroke="black" d="M675.189,-548.997C708.398,-549.949 747.999,-551.084 781.076,-552.033"/>
<polygon fill="black" stroke="black" points="781.021,-555.532 791.118,-552.32 781.222,-548.535 781.021,-555.532"/>
</g>
<!-- AppPluginTrait&#45;&gt;X_Core_View -->
<g id="edge93" class="edge"><title>AppPluginTrait&#45;&gt;X_Core_View</title>
<path fill="none" stroke="black" d="M666.189,-551.104C686.29,-554.854 707.818,-561.688 724.694,-574 750.127,-592.553 735.943,-615.548 760.694,-635 767.264,-640.163 774.815,-644.342 782.681,-647.724"/>
<polygon fill="black" stroke="black" points="781.431,-650.994 792.021,-651.339 783.958,-644.466 781.431,-650.994"/>
</g>
</g>
</svg>
