<?xml version="1.0" encoding="UTF-8" standalone="no"?>
<!DOCTYPE svg PUBLIC "-//W3C//DTD SVG 1.1//EN"
 "http://www.w3.org/Graphics/SVG/1.1/DTD/svg11.dtd">
<!-- Generated by graphviz version 2.38.0 (20140413.2041)
 -->
<!-- Title: DuckPhp Pages: 1 -->
<svg width="1360pt" height="2252pt"
 viewBox="0.00 0.00 1360.37 2252.00" xmlns="http://www.w3.org/2000/svg" xmlns:xlink="http://www.w3.org/1999/xlink">
<g id="graph0" class="graph" transform="scale(1 1) rotate(0) translate(4 2248)">
<title>DuckPhp</title>
<polygon fill="white" stroke="none" points="-4,4 -4,-2248 1356.37,-2248 1356.37,4 -4,4"/>
<g id="clust1" class="cluster"><title>cluster_SingletonEx</title>
<polygon fill="none" stroke="black" points="8,-817 8,-944 194.632,-944 194.632,-817 8,-817"/>
<text text-anchor="middle" x="101.316" y="-930.4" font-family="Times,serif" font-size="12.00">[DuckPhp\SingletonEx]</text>
</g>
<g id="clust2" class="cluster"><title>cluster_Core</title>
<polygon fill="none" stroke="black" points="374.253,-1664 374.253,-2101 1344.37,-2101 1344.37,-1664 374.253,-1664"/>
<text text-anchor="middle" x="859.313" y="-2087.4" font-family="Times,serif" font-size="12.00">[DuckPhp\Core]</text>
</g>
<g id="clust3" class="cluster"><title>cluster_Helper</title>
<polygon fill="none" stroke="black" points="8.87057,-1772 8.87057,-2061 354.253,-2061 354.253,-1772 8.87057,-1772"/>
<text text-anchor="middle" x="181.562" y="-2047.4" font-family="Times,serif" font-size="12.00">[DuckPhp\Helper]</text>
</g>
<g id="clust4" class="cluster"><title>cluster_Db</title>
<polygon fill="none" stroke="black" points="814.836,-8 814.836,-135 1174.48,-135 1174.48,-8 814.836,-8"/>
<text text-anchor="middle" x="994.657" y="-121.4" font-family="Times,serif" font-size="12.00">[DuckPhp\Db]</text>
</g>
<g id="clust5" class="cluster"><title>cluster_HttpServer</title>
<polygon fill="none" stroke="black" points="783.495,-2109 783.495,-2236 1195.37,-2236 1195.37,-2109 783.495,-2109"/>
<text text-anchor="middle" x="989.434" y="-2222.4" font-family="Times,serif" font-size="12.00">[DuckPhp\HttpServer]</text>
</g>
<g id="clust6" class="cluster"><title>cluster_Component</title>
<polygon fill="none" stroke="black" points="517.333,-1196 517.333,-1647 907.446,-1647 907.446,-1196 517.333,-1196"/>
<text text-anchor="middle" x="712.39" y="-1633.4" font-family="Times,serif" font-size="12.00">[DuckPhp\Component]</text>
</g>
<g id="clust7" class="cluster"><title>cluster_DuckPhp</title>
<polygon fill="none" stroke="black" points="222.467,-1412 222.467,-1485 346.418,-1485 346.418,-1412 222.467,-1412"/>
<text text-anchor="middle" x="284.443" y="-1471.4" font-family="Times,serif" font-size="12.00">[DuckPhp]</text>
</g>
<g id="clust8" class="cluster"><title>cluster_ThrowOn</title>
<polygon fill="none" stroke="black" points="18.4469,-2110 18.4469,-2183 184.185,-2183 184.185,-2110 18.4469,-2110"/>
<text text-anchor="middle" x="101.316" y="-2169.4" font-family="Times,serif" font-size="12.00">[DuckPhp\ThrowOn]</text>
</g>
<g id="clust9" class="cluster"><title>cluster_Ext</title>
<polygon fill="none" stroke="black" points="524.055,-143 524.055,-1188 948.694,-1188 948.694,-143 524.055,-143"/>
<text text-anchor="middle" x="736.375" y="-1174.4" font-family="Times,serif" font-size="12.00">[DuckPhp\Ext]</text>
</g>
<!-- SingletonExTrait -->
<g id="node1" class="node"><title>SingletonExTrait</title>
<polygon fill="lightgrey" stroke="black" points="101.316,-915 16.1836,-897 101.316,-879 186.448,-897 101.316,-915"/>
<polyline fill="none" stroke="black" points="27.924,-899.482 27.924,-894.518 "/>
<polyline fill="none" stroke="black" points="89.5756,-881.482 113.056,-881.482 "/>
<polyline fill="none" stroke="black" points="174.708,-894.518 174.708,-899.482 "/>
<polyline fill="none" stroke="black" points="113.056,-912.518 89.5756,-912.518 "/>
<text text-anchor="middle" x="101.316" y="-893.9" font-family="Times,serif" font-size="12.00">SingletonExTrait</text>
</g>
<!-- SimpleReplacer -->
<g id="node2" class="node"><title>SimpleReplacer</title>
<ellipse fill="none" stroke="black" cx="101.316" cy="-843" rx="56.7683" ry="18"/>
<text text-anchor="middle" x="101.316" y="-839.9" font-family="Times,serif" font-size="12.00">SimpleReplacer</text>
</g>
<!-- App -->
<g id="node3" class="node"><title>App</title>
<polygon fill="lightgrey" stroke="black" points="415.335,-1904 382.171,-1886 415.335,-1868 448.499,-1886 415.335,-1904"/>
<polyline fill="none" stroke="black" points="392.718,-1891.72 392.718,-1880.28 "/>
<polyline fill="none" stroke="black" points="404.788,-1873.72 425.882,-1873.72 "/>
<polyline fill="none" stroke="black" points="437.952,-1880.28 437.952,-1891.72 "/>
<polyline fill="none" stroke="black" points="425.882,-1898.28 404.788,-1898.28 "/>
<text text-anchor="middle" x="415.335" y="-1882.9" font-family="Times,serif" font-size="12.00">App</text>
</g>
<!-- KernelTrait -->
<g id="node4" class="node"><title>KernelTrait</title>
<polygon fill="none" stroke="black" points="604.555,-1904 542.934,-1886 604.555,-1868 666.177,-1886 604.555,-1904"/>
<text text-anchor="middle" x="604.555" y="-1882.9" font-family="Times,serif" font-size="12.00">KernelTrait</text>
</g>
<!-- App&#45;&gt;KernelTrait -->
<g id="edge8" class="edge"><title>App&#45;&gt;KernelTrait</title>
<path fill="none" stroke="black" d="M448.519,-1886C471.619,-1886 503.654,-1886 532.611,-1886"/>
<polygon fill="black" stroke="black" points="532.705,-1889.5 542.705,-1886 532.705,-1882.5 532.705,-1889.5"/>
</g>
<!-- AutoLoader -->
<g id="node5" class="node"><title>AutoLoader</title>
<polygon fill="lightgrey" stroke="black" points="850.694,-2032 786.35,-2014 850.694,-1996 915.039,-2014 850.694,-2032"/>
<polyline fill="none" stroke="black" points="797.906,-2017.23 797.906,-2010.77 "/>
<polyline fill="none" stroke="black" points="839.138,-1999.23 862.251,-1999.23 "/>
<polyline fill="none" stroke="black" points="903.483,-2010.77 903.483,-2017.23 "/>
<polyline fill="none" stroke="black" points="862.251,-2028.77 839.138,-2028.77 "/>
<text text-anchor="middle" x="850.694" y="-2010.9" font-family="Times,serif" font-size="12.00">AutoLoader</text>
</g>
<!-- App&#45;&gt;AutoLoader -->
<g id="edge11" class="edge"><title>App&#45;&gt;AutoLoader</title>
<path fill="none" stroke="black" d="M428.853,-1897.07C441.78,-1907.79 463.027,-1923.49 484.417,-1931 585.597,-1966.53 626.956,-1908.87 724.694,-1953 744.753,-1962.06 741.658,-1975.96 760.694,-1987 773.394,-1994.37 788.301,-1999.91 802.244,-2003.99"/>
<polygon fill="black" stroke="black" points="801.612,-2007.44 812.181,-2006.71 803.46,-2000.69 801.612,-2007.44"/>
</g>
<!-- ExceptionManager -->
<g id="node6" class="node"><title>ExceptionManager</title>
<polygon fill="none" stroke="black" points="904.194,-1870 797.194,-1870 797.194,-1866 793.194,-1866 793.194,-1862 797.194,-1862 797.194,-1842 793.194,-1842 793.194,-1838 797.194,-1838 797.194,-1834 904.194,-1834 904.194,-1870"/>
<polyline fill="none" stroke="black" points="797.194,-1866 801.194,-1866 801.194,-1862 797.194,-1862 "/>
<polyline fill="none" stroke="black" points="797.194,-1842 801.194,-1842 801.194,-1838 797.194,-1838 "/>
<text text-anchor="middle" x="850.694" y="-1848.9" font-family="Times,serif" font-size="12.00">ExceptionManager</text>
</g>
<!-- App&#45;&gt;ExceptionManager -->
<g id="edge14" class="edge"><title>App&#45;&gt;ExceptionManager</title>
<path fill="none" stroke="black" d="M423.189,-1871.87C433.439,-1852.57 454.776,-1818.81 484.417,-1805 532.818,-1782.45 673.006,-1791.61 724.694,-1805 742.412,-1809.59 743.842,-1817.86 760.694,-1825 769.101,-1828.56 778.136,-1831.87 787.112,-1834.86"/>
<polygon fill="black" stroke="black" points="786.205,-1838.24 796.796,-1837.97 788.349,-1831.58 786.205,-1838.24"/>
</g>
<!-- View -->
<g id="node7" class="node"><title>View</title>
<polygon fill="none" stroke="black" points="877.694,-1708 823.694,-1708 823.694,-1704 819.694,-1704 819.694,-1700 823.694,-1700 823.694,-1680 819.694,-1680 819.694,-1676 823.694,-1676 823.694,-1672 877.694,-1672 877.694,-1708"/>
<polyline fill="none" stroke="black" points="823.694,-1704 827.694,-1704 827.694,-1700 823.694,-1700 "/>
<polyline fill="none" stroke="black" points="823.694,-1680 827.694,-1680 827.694,-1676 823.694,-1676 "/>
<text text-anchor="middle" x="850.694" y="-1686.9" font-family="Times,serif" font-size="12.00">View</text>
</g>
<!-- App&#45;&gt;View -->
<g id="edge17" class="edge"><title>App&#45;&gt;View</title>
<path fill="none" stroke="black" d="M418.095,-1869.24C422.548,-1836.11 437.485,-1762.49 484.417,-1728 584.105,-1654.73 742.529,-1670.7 813.377,-1682.72"/>
<polygon fill="black" stroke="black" points="813.119,-1686.23 823.576,-1684.53 814.34,-1679.34 813.119,-1686.23"/>
</g>
<!-- Configer -->
<g id="node8" class="node"><title>Configer</title>
<polygon fill="none" stroke="black" points="880.194,-1978 821.194,-1978 821.194,-1974 817.194,-1974 817.194,-1970 821.194,-1970 821.194,-1950 817.194,-1950 817.194,-1946 821.194,-1946 821.194,-1942 880.194,-1942 880.194,-1978"/>
<polyline fill="none" stroke="black" points="821.194,-1974 825.194,-1974 825.194,-1970 821.194,-1970 "/>
<polyline fill="none" stroke="black" points="821.194,-1950 825.194,-1950 825.194,-1946 821.194,-1946 "/>
<text text-anchor="middle" x="850.694" y="-1956.9" font-family="Times,serif" font-size="12.00">Configer</text>
</g>
<!-- App&#45;&gt;Configer -->
<g id="edge12" class="edge"><title>App&#45;&gt;Configer</title>
<path fill="none" stroke="black" d="M433.535,-1894.35C447.047,-1900.53 466.511,-1908.61 484.417,-1913 588.69,-1938.59 618.362,-1923.13 724.694,-1938 753.718,-1942.06 786.324,-1947.84 810.955,-1952.46"/>
<polygon fill="black" stroke="black" points="810.513,-1955.93 820.99,-1954.35 811.815,-1949.06 810.513,-1955.93"/>
</g>
<!-- Logger -->
<g id="node9" class="node"><title>Logger</title>
<polygon fill="none" stroke="black" points="631.555,-1998 577.555,-1998 577.555,-1994 573.555,-1994 573.555,-1990 577.555,-1990 577.555,-1970 573.555,-1970 573.555,-1966 577.555,-1966 577.555,-1962 631.555,-1962 631.555,-1998"/>
<polyline fill="none" stroke="black" points="577.555,-1994 581.555,-1994 581.555,-1990 577.555,-1990 "/>
<polyline fill="none" stroke="black" points="577.555,-1970 581.555,-1970 581.555,-1966 577.555,-1966 "/>
<text text-anchor="middle" x="604.555" y="-1976.9" font-family="Times,serif" font-size="12.00">Logger</text>
</g>
<!-- App&#45;&gt;Logger -->
<g id="edge13" class="edge"><title>App&#45;&gt;Logger</title>
<path fill="none" stroke="black" d="M426.586,-1898.37C438.897,-1912.44 460.854,-1935.11 484.417,-1948 510.229,-1962.12 542.646,-1970.3 567.146,-1974.85"/>
<polygon fill="black" stroke="black" points="566.667,-1978.32 577.119,-1976.58 567.867,-1971.42 566.667,-1978.32"/>
</g>
<!-- Route -->
<g id="node10" class="node"><title>Route</title>
<polygon fill="lightgrey" stroke="black" points="850.694,-1762 811.342,-1744 850.694,-1726 890.047,-1744 850.694,-1762"/>
<polyline fill="none" stroke="black" points="822.255,-1748.99 822.255,-1739.01 "/>
<polyline fill="none" stroke="black" points="839.782,-1730.99 861.607,-1730.99 "/>
<polyline fill="none" stroke="black" points="879.134,-1739.01 879.134,-1748.99 "/>
<polyline fill="none" stroke="black" points="861.607,-1757.01 839.782,-1757.01 "/>
<text text-anchor="middle" x="850.694" y="-1740.9" font-family="Times,serif" font-size="12.00">Route</text>
</g>
<!-- App&#45;&gt;Route -->
<g id="edge15" class="edge"><title>App&#45;&gt;Route</title>
<path fill="none" stroke="black" d="M419.208,-1869.86C425.342,-1840.78 442.715,-1780.2 484.417,-1754 537.143,-1720.87 723.805,-1732.67 807.981,-1739.97"/>
<polygon fill="black" stroke="black" points="807.692,-1743.46 817.962,-1740.86 808.311,-1736.49 807.692,-1743.46"/>
</g>
<!-- RuntimeState -->
<g id="node11" class="node"><title>RuntimeState</title>
<polygon fill="none" stroke="black" points="890.694,-1816 810.694,-1816 810.694,-1812 806.694,-1812 806.694,-1808 810.694,-1808 810.694,-1788 806.694,-1788 806.694,-1784 810.694,-1784 810.694,-1780 890.694,-1780 890.694,-1816"/>
<polyline fill="none" stroke="black" points="810.694,-1812 814.694,-1812 814.694,-1808 810.694,-1808 "/>
<polyline fill="none" stroke="black" points="810.694,-1788 814.694,-1788 814.694,-1784 810.694,-1784 "/>
<text text-anchor="middle" x="850.694" y="-1794.9" font-family="Times,serif" font-size="12.00">RuntimeState</text>
</g>
<!-- App&#45;&gt;RuntimeState -->
<g id="edge16" class="edge"><title>App&#45;&gt;RuntimeState</title>
<path fill="none" stroke="black" d="M421.446,-1871.3C430.245,-1848.56 450.638,-1805.66 484.417,-1788 586.432,-1734.65 727.36,-1761.96 800.775,-1782.38"/>
<polygon fill="black" stroke="black" points="800.098,-1785.83 810.675,-1785.21 802.02,-1779.1 800.098,-1785.83"/>
</g>
<!-- SystemWrapperTrait -->
<g id="node12" class="node"><title>SystemWrapperTrait</title>
<polygon fill="none" stroke="black" points="604.555,-1850 504.324,-1832 604.555,-1814 704.787,-1832 604.555,-1850"/>
<text text-anchor="middle" x="604.555" y="-1828.9" font-family="Times,serif" font-size="12.00">SystemWrapperTrait</text>
</g>
<!-- App&#45;&gt;SystemWrapperTrait -->
<g id="edge10" class="edge"><title>App&#45;&gt;SystemWrapperTrait</title>
<path fill="none" stroke="black" d="M434.267,-1878.01C447.839,-1872.17 467.047,-1864.38 484.417,-1859 503.998,-1852.94 525.776,-1847.61 545.301,-1843.31"/>
<polygon fill="black" stroke="black" points="546.242,-1846.69 555.282,-1841.17 544.77,-1839.85 546.242,-1846.69"/>
</g>
<!-- ExtendableStaticCallTrait -->
<g id="node13" class="node"><title>ExtendableStaticCallTrait</title>
<polygon fill="none" stroke="black" points="604.555,-2072 484.278,-2054 604.555,-2036 724.833,-2054 604.555,-2072"/>
<text text-anchor="middle" x="604.555" y="-2050.9" font-family="Times,serif" font-size="12.00">ExtendableStaticCallTrait</text>
</g>
<!-- App&#45;&gt;ExtendableStaticCallTrait -->
<g id="edge9" class="edge"><title>App&#45;&gt;ExtendableStaticCallTrait</title>
<path fill="none" stroke="black" d="M419.717,-1901.68C426.678,-1930.1 445.346,-1990.11 484.417,-2022 496.462,-2031.83 511.257,-2038.66 526.273,-2043.4"/>
<polygon fill="black" stroke="black" points="525.569,-2046.84 536.146,-2046.22 527.493,-2040.11 525.569,-2046.84"/>
</g>
<!-- ComponentBase -->
<g id="node15" class="node"><title>ComponentBase</title>
<polygon fill="none" stroke="black" points="1129.53,-1708 1038.53,-1708 1034.53,-1704 1034.53,-1672 1125.53,-1672 1129.53,-1676 1129.53,-1708"/>
<polyline fill="none" stroke="black" points="1125.53,-1704 1034.53,-1704 "/>
<polyline fill="none" stroke="black" points="1125.53,-1704 1125.53,-1672 "/>
<polyline fill="none" stroke="black" points="1125.53,-1704 1129.53,-1708 "/>
<text text-anchor="middle" x="1082.03" y="-1686.9" font-family="Times,serif" font-size="12.00">ComponentBase</text>
</g>
<!-- App&#45;&gt;ComponentBase -->
<g id="edge18" class="edge"><title>App&#45;&gt;ComponentBase</title>
<path fill="none" stroke="black" stroke-dasharray="1,5" d="M420.006,-1901.47C427.241,-1928.17 446.079,-1982.39 484.417,-2007 529.506,-2035.94 674.611,-2007.96 724.694,-2027 743.389,-2034.11 741.721,-2047.68 760.694,-2054 839.962,-2080.42 880.258,-2101.94 948.694,-2054 1061.35,-1975.09 1078.47,-1789.88 1080.8,-1718.63"/>
<polygon fill="black" stroke="black" points="1084.31,-1718.29 1081.06,-1708.21 1077.31,-1718.12 1084.31,-1718.29"/>
</g>
<!-- KernelTrait&#45;&gt;AutoLoader -->
<g id="edge1" class="edge"><title>KernelTrait&#45;&gt;AutoLoader</title>
<path fill="none" stroke="black" d="M636.831,-1894.66C662.378,-1902.83 698.428,-1917 724.694,-1938 745.803,-1954.87 738.636,-1971.39 760.694,-1987 772.038,-1995.03 785.813,-2000.71 799.103,-2004.71"/>
<polygon fill="black" stroke="black" points="798.553,-2008.19 809.122,-2007.46 800.404,-2001.44 798.553,-2008.19"/>
</g>
<!-- KernelTrait&#45;&gt;ExceptionManager -->
<g id="edge3" class="edge"><title>KernelTrait&#45;&gt;ExceptionManager</title>
<path fill="none" stroke="black" d="M646.694,-1880.27C685.021,-1874.93 742.719,-1866.9 786.819,-1860.76"/>
<polygon fill="black" stroke="black" points="787.439,-1864.2 796.861,-1859.36 786.474,-1857.27 787.439,-1864.2"/>
</g>
<!-- KernelTrait&#45;&gt;View -->
<g id="edge6" class="edge"><title>KernelTrait&#45;&gt;View</title>
<path fill="none" stroke="black" d="M663.752,-1885.22C685.404,-1882.02 708.597,-1874.69 724.694,-1859 771.314,-1813.55 715.733,-1764.09 760.694,-1717 774.367,-1702.68 795.36,-1695.88 813.524,-1692.69"/>
<polygon fill="black" stroke="black" points="814.147,-1696.14 823.536,-1691.23 813.136,-1689.21 814.147,-1696.14"/>
</g>
<!-- KernelTrait&#45;&gt;Configer -->
<g id="edge2" class="edge"><title>KernelTrait&#45;&gt;Configer</title>
<path fill="none" stroke="black" d="M639.55,-1893.86C663.58,-1899.72 696.416,-1908.36 724.694,-1918 741.1,-1923.59 744.38,-1927.14 760.694,-1933 777.025,-1938.86 795.328,-1944.56 811.07,-1949.2"/>
<polygon fill="black" stroke="black" points="810.418,-1952.66 820.998,-1952.09 812.373,-1945.93 810.418,-1952.66"/>
</g>
<!-- KernelTrait&#45;&gt;Route -->
<g id="edge4" class="edge"><title>KernelTrait&#45;&gt;Route</title>
<path fill="none" stroke="black" d="M660.538,-1884.34C682.614,-1881.12 706.972,-1874.01 724.694,-1859 756.942,-1831.69 729.446,-1799.45 760.694,-1771 773.549,-1759.3 791.331,-1752.66 807.623,-1748.9"/>
<polygon fill="black" stroke="black" points="808.404,-1752.32 817.518,-1746.91 807.024,-1745.45 808.404,-1752.32"/>
</g>
<!-- KernelTrait&#45;&gt;RuntimeState -->
<g id="edge5" class="edge"><title>KernelTrait&#45;&gt;RuntimeState</title>
<path fill="none" stroke="black" d="M650.829,-1881.51C673.965,-1877.82 701.956,-1871.12 724.694,-1859 744.114,-1848.65 741.658,-1836.04 760.694,-1825 772.945,-1817.89 787.248,-1812.49 800.76,-1808.45"/>
<polygon fill="black" stroke="black" points="801.731,-1811.81 810.418,-1805.75 799.845,-1805.07 801.731,-1811.81"/>
</g>
<!-- Functions -->
<g id="node16" class="node"><title>Functions</title>
<ellipse fill="none" stroke="black" cx="850.694" cy="-1906" rx="38.5652" ry="18"/>
<text text-anchor="middle" x="850.694" y="-1902.9" font-family="Times,serif" font-size="12.00">Functions</text>
</g>
<!-- KernelTrait&#45;&gt;Functions -->
<g id="edge7" class="edge"><title>KernelTrait&#45;&gt;Functions</title>
<path fill="none" stroke="black" d="M652.917,-1889.88C695.96,-1893.41 759.139,-1898.58 802.217,-1902.11"/>
<polygon fill="black" stroke="black" points="802.188,-1905.62 812.441,-1902.95 802.76,-1898.64 802.188,-1905.62"/>
</g>
<!-- ExceptionManager&#45;&gt;ComponentBase -->
<g id="edge19" class="edge"><title>ExceptionManager&#45;&gt;ComponentBase</title>
<path fill="none" stroke="black" stroke-dasharray="1,5" d="M904.321,-1842.69C919.315,-1838.65 935.223,-1832.96 948.694,-1825 996.484,-1796.78 1038.88,-1746.94 1062.16,-1716.35"/>
<polygon fill="black" stroke="black" points="1065.02,-1718.37 1068.21,-1708.27 1059.41,-1714.18 1065.02,-1718.37"/>
</g>
<!-- View&#45;&gt;ComponentBase -->
<g id="edge23" class="edge"><title>View&#45;&gt;ComponentBase</title>
<path fill="none" stroke="black" stroke-dasharray="1,5" d="M878.002,-1690C913.443,-1690 977.455,-1690 1024.15,-1690"/>
<polygon fill="black" stroke="black" points="1024.43,-1693.5 1034.43,-1690 1024.43,-1686.5 1024.43,-1693.5"/>
</g>
<!-- Configer&#45;&gt;ComponentBase -->
<g id="edge20" class="edge"><title>Configer&#45;&gt;ComponentBase</title>
<path fill="none" stroke="black" stroke-dasharray="1,5" d="M880.272,-1957.96C901.155,-1955.16 929.129,-1948.56 948.694,-1933 1020.48,-1875.92 1058.8,-1768.82 1073.64,-1718.06"/>
<polygon fill="black" stroke="black" points="1077.1,-1718.7 1076.46,-1708.12 1070.36,-1716.79 1077.1,-1718.7"/>
</g>
<!-- Logger&#45;&gt;ComponentBase -->
<g id="edge24" class="edge"><title>Logger&#45;&gt;ComponentBase</title>
<path fill="none" stroke="black" stroke-dasharray="1,5" d="M631.779,-1983.82C656.701,-1988.18 694.72,-1996.76 724.694,-2012 743.01,-2021.31 741.318,-2034.17 760.694,-2041 800.094,-2054.9 914.335,-2064.77 948.694,-2041 1057.75,-1965.57 1077.05,-1788.09 1080.38,-1718.61"/>
<polygon fill="black" stroke="black" points="1083.88,-1718.55 1080.79,-1708.42 1076.89,-1718.27 1083.88,-1718.55"/>
</g>
<!-- Route&#45;&gt;ComponentBase -->
<g id="edge21" class="edge"><title>Route&#45;&gt;ComponentBase</title>
<path fill="none" stroke="black" stroke-dasharray="1,5" d="M877.114,-1738.01C912.5,-1729.68 977.56,-1714.36 1024.7,-1703.27"/>
<polygon fill="black" stroke="black" points="1025.53,-1706.66 1034.47,-1700.96 1023.93,-1699.85 1025.53,-1706.66"/>
</g>
<!-- RuntimeState&#45;&gt;ComponentBase -->
<g id="edge22" class="edge"><title>RuntimeState&#45;&gt;ComponentBase</title>
<path fill="none" stroke="black" stroke-dasharray="1,5" d="M890.782,-1789.75C908.814,-1785.28 930.261,-1779.02 948.694,-1771 984.424,-1755.46 1022.03,-1731.62 1047.98,-1713.82"/>
<polygon fill="black" stroke="black" points="1050.09,-1716.61 1056.32,-1708.04 1046.1,-1710.86 1050.09,-1716.61"/>
</g>
<!-- ComponentInterface -->
<g id="node14" class="node"><title>ComponentInterface</title>
<polygon fill="none" stroke="black" points="1330.37,-1708 1223.37,-1708 1223.37,-1672 1336.37,-1672 1336.37,-1702 1330.37,-1708"/>
<polyline fill="none" stroke="black" points="1330.37,-1708 1330.37,-1702 "/>
<polyline fill="none" stroke="black" points="1336.37,-1702 1330.37,-1702 "/>
<text text-anchor="middle" x="1279.87" y="-1686.9" font-family="Times,serif" font-size="12.00">ComponentInterface</text>
</g>
<!-- ComponentBase&#45;&gt;ComponentInterface -->
<g id="edge25" class="edge"><title>ComponentBase&#45;&gt;ComponentInterface</title>
<path fill="none" stroke="black" d="M1129.94,-1690C1154.83,-1690 1185.81,-1690 1213.06,-1690"/>
<polygon fill="black" stroke="black" points="1213.3,-1693.5 1223.3,-1690 1213.3,-1686.5 1213.3,-1693.5"/>
</g>
<!-- AppHelper -->
<g id="node17" class="node"><title>AppHelper</title>
<polygon fill="lightgrey" stroke="black" points="101.316,-1924 40.4359,-1906 101.316,-1888 162.196,-1906 101.316,-1924"/>
<polyline fill="none" stroke="black" points="51.9435,-1909.4 51.9435,-1902.6 "/>
<polyline fill="none" stroke="black" points="89.8084,-1891.4 112.824,-1891.4 "/>
<polyline fill="none" stroke="black" points="150.689,-1902.6 150.689,-1909.4 "/>
<polyline fill="none" stroke="black" points="112.824,-1920.6 89.8084,-1920.6 "/>
<text text-anchor="middle" x="101.316" y="-1902.9" font-family="Times,serif" font-size="12.00">AppHelper</text>
</g>
<!-- AppHelper&#45;&gt;App -->
<g id="edge26" class="edge"><title>AppHelper&#45;&gt;App</title>
<path fill="none" stroke="black" d="M151.756,-1902.83C213.714,-1898.86 318.626,-1892.13 375.269,-1888.5"/>
<polygon fill="black" stroke="black" points="375.507,-1892 385.262,-1887.86 375.059,-1885.01 375.507,-1892"/>
</g>
<!-- HelperTrait -->
<g id="node22" class="node"><title>HelperTrait</title>
<polygon fill="none" stroke="black" points="284.443,-2026 222.821,-2008 284.443,-1990 346.064,-2008 284.443,-2026"/>
<text text-anchor="middle" x="284.443" y="-2004.9" font-family="Times,serif" font-size="12.00">HelperTrait</text>
</g>
<!-- AppHelper&#45;&gt;HelperTrait -->
<g id="edge33" class="edge"><title>AppHelper&#45;&gt;HelperTrait</title>
<path fill="none" stroke="black" d="M138.74,-1912.95C156.303,-1917.21 177.273,-1923.68 194.632,-1933 220.842,-1947.08 246.316,-1969.81 263.211,-1986.57"/>
<polygon fill="black" stroke="black" points="260.825,-1989.13 270.341,-1993.79 265.807,-1984.22 260.825,-1989.13"/>
</g>
<!-- ControllerHelper -->
<g id="node18" class="node"><title>ControllerHelper</title>
<polygon fill="lightgrey" stroke="black" points="101.316,-1870 16.9251,-1852 101.316,-1834 185.707,-1852 101.316,-1870"/>
<polyline fill="none" stroke="black" points="28.6611,-1854.5 28.6611,-1849.5 "/>
<polyline fill="none" stroke="black" points="89.58,-1836.5 113.052,-1836.5 "/>
<polyline fill="none" stroke="black" points="173.971,-1849.5 173.971,-1854.5 "/>
<polyline fill="none" stroke="black" points="113.052,-1867.5 89.58,-1867.5 "/>
<text text-anchor="middle" x="101.316" y="-1848.9" font-family="Times,serif" font-size="12.00">ControllerHelper</text>
</g>
<!-- ControllerHelper&#45;&gt;App -->
<g id="edge27" class="edge"><title>ControllerHelper&#45;&gt;App</title>
<path fill="none" stroke="black" d="M157.739,-1858.04C220.947,-1864.93 322.556,-1876 377.012,-1881.93"/>
<polygon fill="black" stroke="black" points="376.929,-1885.44 387.249,-1883.05 377.687,-1878.49 376.929,-1885.44"/>
</g>
<!-- ControllerHelper&#45;&gt;HelperTrait -->
<g id="edge34" class="edge"><title>ControllerHelper&#45;&gt;HelperTrait</title>
<path fill="none" stroke="black" d="M150.677,-1859.57C165.752,-1863.59 181.778,-1869.7 194.632,-1879 231.844,-1905.92 258.613,-1953.47 272.52,-1982.71"/>
<polygon fill="black" stroke="black" points="269.376,-1984.25 276.74,-1991.87 275.734,-1981.32 269.376,-1984.25"/>
</g>
<!-- ModelHelper -->
<g id="node19" class="node"><title>ModelHelper</title>
<polygon fill="lightgrey" stroke="black" points="101.316,-1816 31.5243,-1798 101.316,-1780 171.108,-1798 101.316,-1816"/>
<polyline fill="none" stroke="black" points="43.144,-1801 43.144,-1795 "/>
<polyline fill="none" stroke="black" points="89.6962,-1783 112.936,-1783 "/>
<polyline fill="none" stroke="black" points="159.488,-1795 159.488,-1801 "/>
<polyline fill="none" stroke="black" points="112.936,-1813 89.6962,-1813 "/>
<text text-anchor="middle" x="101.316" y="-1794.9" font-family="Times,serif" font-size="12.00">ModelHelper</text>
</g>
<!-- ModelHelper&#45;&gt;App -->
<g id="edge28" class="edge"><title>ModelHelper&#45;&gt;App</title>
<path fill="none" stroke="black" d="M140.318,-1806.02C190.026,-1816.88 279.579,-1837.72 354.253,-1862 365.181,-1865.55 376.97,-1870.1 387.186,-1874.28"/>
<polygon fill="black" stroke="black" points="385.844,-1877.51 396.42,-1878.13 388.536,-1871.05 385.844,-1877.51"/>
</g>
<!-- ModelHelper&#45;&gt;HelperTrait -->
<g id="edge35" class="edge"><title>ModelHelper&#45;&gt;HelperTrait</title>
<path fill="none" stroke="black" d="M149.171,-1803.85C165.003,-1807.74 181.879,-1814.22 194.632,-1825 243.652,-1866.44 267.833,-1941.28 277.735,-1981.21"/>
<polygon fill="black" stroke="black" points="274.349,-1982.1 280.055,-1991.03 281.162,-1980.49 274.349,-1982.1"/>
</g>
<!-- ServiceHelper -->
<g id="node20" class="node"><title>ServiceHelper</title>
<polygon fill="lightgrey" stroke="black" points="101.316,-2032 28.0598,-2014 101.316,-1996 174.572,-2014 101.316,-2032"/>
<polyline fill="none" stroke="black" points="39.7131,-2016.86 39.7131,-2011.14 "/>
<polyline fill="none" stroke="black" points="89.6626,-1998.86 112.969,-1998.86 "/>
<polyline fill="none" stroke="black" points="162.919,-2011.14 162.919,-2016.86 "/>
<polyline fill="none" stroke="black" points="112.969,-2029.14 89.6626,-2029.14 "/>
<text text-anchor="middle" x="101.316" y="-2010.9" font-family="Times,serif" font-size="12.00">ServiceHelper</text>
</g>
<!-- ServiceHelper&#45;&gt;App -->
<g id="edge29" class="edge"><title>ServiceHelper&#45;&gt;App</title>
<path fill="none" stroke="black" d="M137.083,-2004.55C201.587,-1986.89 335.009,-1949.7 354.253,-1939 370.056,-1930.21 385.303,-1916.68 396.483,-1905.49"/>
<polygon fill="black" stroke="black" points="399.094,-1907.83 403.53,-1898.21 394.062,-1902.96 399.094,-1907.83"/>
</g>
<!-- ServiceHelper&#45;&gt;HelperTrait -->
<g id="edge36" class="edge"><title>ServiceHelper&#45;&gt;HelperTrait</title>
<path fill="none" stroke="black" d="M166.174,-2011.88C183.128,-2011.32 201.452,-2010.72 218.465,-2010.15"/>
<polygon fill="black" stroke="black" points="218.985,-2013.64 228.864,-2009.81 218.753,-2006.64 218.985,-2013.64"/>
</g>
<!-- ViewHelper -->
<g id="node21" class="node"><title>ViewHelper</title>
<polygon fill="lightgrey" stroke="black" points="101.316,-1978 36.2296,-1960 101.316,-1942 166.402,-1960 101.316,-1978"/>
<polyline fill="none" stroke="black" points="47.7955,-1963.2 47.7955,-1956.8 "/>
<polyline fill="none" stroke="black" points="89.7502,-1945.2 112.882,-1945.2 "/>
<polyline fill="none" stroke="black" points="154.837,-1956.8 154.837,-1963.2 "/>
<polyline fill="none" stroke="black" points="112.882,-1974.8 89.7502,-1974.8 "/>
<text text-anchor="middle" x="101.316" y="-1956.9" font-family="Times,serif" font-size="12.00">ViewHelper</text>
</g>
<!-- ViewHelper&#45;&gt;App -->
<g id="edge30" class="edge"><title>ViewHelper&#45;&gt;App</title>
<path fill="none" stroke="black" d="M144.289,-1953.69C194.718,-1945.62 281.613,-1930.1 354.253,-1909 365.033,-1905.87 376.608,-1901.65 386.693,-1897.68"/>
<polygon fill="black" stroke="black" points="388.234,-1900.84 396.197,-1893.85 385.614,-1894.34 388.234,-1900.84"/>
</g>
<!-- ViewHelper&#45;&gt;HelperTrait -->
<g id="edge37" class="edge"><title>ViewHelper&#45;&gt;HelperTrait</title>
<path fill="none" stroke="black" d="M135.117,-1968.69C164.921,-1976.59 209.051,-1988.29 241.428,-1996.87"/>
<polygon fill="black" stroke="black" points="240.931,-2000.35 251.494,-1999.53 242.724,-1993.59 240.931,-2000.35"/>
</g>
<!-- HelperTrait&#45;&gt;App -->
<g id="edge31" class="edge"><title>HelperTrait&#45;&gt;App</title>
<path fill="none" stroke="black" d="M314.262,-1998.68C327.434,-1993.45 342.651,-1985.95 354.253,-1976 375.948,-1957.4 393.073,-1929.13 403.4,-1909.25"/>
<polygon fill="black" stroke="black" points="406.563,-1910.75 407.914,-1900.24 400.305,-1907.61 406.563,-1910.75"/>
</g>
<!-- HelperTrait&#45;&gt;ExtendableStaticCallTrait -->
<g id="edge32" class="edge"><title>HelperTrait&#45;&gt;ExtendableStaticCallTrait</title>
<path fill="none" stroke="black" d="M326.055,-2013.87C378.125,-2021.4 469.266,-2034.58 532.836,-2043.77"/>
<polygon fill="black" stroke="black" points="532.394,-2047.25 542.792,-2045.21 533.396,-2040.32 532.394,-2047.25"/>
</g>
<!-- Db_Db -->
<g id="node23" class="node"><title>Db_Db</title>
<polygon fill="lightgrey" stroke="black" points="850.694,-106 822.977,-88 850.694,-70 878.412,-88 850.694,-106"/>
<polyline fill="none" stroke="black" points="832.216,-94 832.216,-82 "/>
<polyline fill="none" stroke="black" points="841.455,-76 859.933,-76 "/>
<polyline fill="none" stroke="black" points="869.173,-82 869.173,-94 "/>
<polyline fill="none" stroke="black" points="859.933,-100 841.455,-100 "/>
<text text-anchor="middle" x="850.694" y="-84.9" font-family="Times,serif" font-size="12.00">Db</text>
</g>
<!-- Db_DbAdvanceTrait -->
<g id="node24" class="node"><title>Db_DbAdvanceTrait</title>
<polygon fill="none" stroke="black" points="1082.03,-52 997.643,-34 1082.03,-16 1166.42,-34 1082.03,-52"/>
<text text-anchor="middle" x="1082.03" y="-30.9" font-family="Times,serif" font-size="12.00">DbAdvanceTrait</text>
</g>
<!-- Db_Db&#45;&gt;Db_DbAdvanceTrait -->
<g id="edge38" class="edge"><title>Db_Db&#45;&gt;Db_DbAdvanceTrait</title>
<path fill="none" stroke="black" d="M871.645,-83.3023C906.922,-74.9962 981.287,-57.4862 1031.22,-45.7302"/>
<polygon fill="black" stroke="black" points="1032.23,-49.0861 1041.17,-43.3873 1030.63,-42.2724 1032.23,-49.0861"/>
</g>
<!-- Db_DbInterface -->
<g id="node25" class="node"><title>Db_DbInterface</title>
<polygon fill="none" stroke="black" points="1112.53,-106 1045.53,-106 1045.53,-70 1118.53,-70 1118.53,-100 1112.53,-106"/>
<polyline fill="none" stroke="black" points="1112.53,-106 1112.53,-100 "/>
<polyline fill="none" stroke="black" points="1118.53,-100 1112.53,-100 "/>
<text text-anchor="middle" x="1082.03" y="-84.9" font-family="Times,serif" font-size="12.00">DbInterface</text>
</g>
<!-- Db_Db&#45;&gt;Db_DbInterface -->
<g id="edge39" class="edge"><title>Db_Db&#45;&gt;Db_DbInterface</title>
<path fill="none" stroke="black" d="M878.451,-88C916.899,-88 988.3,-88 1035.24,-88"/>
<polygon fill="black" stroke="black" points="1035.45,-91.5001 1045.44,-88 1035.44,-84.5001 1035.45,-91.5001"/>
</g>
<!-- HttpServer -->
<g id="node26" class="node"><title>HttpServer</title>
<polygon fill="lightgrey" stroke="black" points="850.694,-2207 791.296,-2189 850.694,-2171 910.093,-2189 850.694,-2207"/>
<polyline fill="none" stroke="black" points="802.78,-2192.48 802.78,-2185.52 "/>
<polyline fill="none" stroke="black" points="839.21,-2174.48 862.179,-2174.48 "/>
<polyline fill="none" stroke="black" points="898.608,-2185.52 898.608,-2192.48 "/>
<polyline fill="none" stroke="black" points="862.179,-2203.52 839.21,-2203.52 "/>
<text text-anchor="middle" x="850.694" y="-2185.9" font-family="Times,serif" font-size="12.00">HttpServer</text>
</g>
<!-- HttpServerInterface -->
<g id="node27" class="node"><title>HttpServerInterface</title>
<polygon fill="none" stroke="black" points="1145.03,-2153 1013.03,-2153 1013.03,-2117 1151.03,-2117 1151.03,-2147 1145.03,-2153"/>
<polyline fill="none" stroke="black" points="1145.03,-2153 1145.03,-2147 "/>
<polyline fill="none" stroke="black" points="1151.03,-2147 1145.03,-2147 "/>
<text text-anchor="middle" x="1082.03" y="-2131.9" font-family="Times,serif" font-size="12.00">HttpServerInterface(todo)</text>
</g>
<!-- HttpServer&#45;&gt;HttpServerInterface -->
<g id="edge40" class="edge"><title>HttpServer&#45;&gt;HttpServerInterface</title>
<path fill="none" stroke="black" d="M885.042,-2181.15C915.8,-2173.91 962.641,-2162.88 1002.82,-2153.42"/>
<polygon fill="black" stroke="black" points="1003.68,-2156.81 1012.61,-2151.11 1002.07,-2150 1003.68,-2156.81"/>
</g>
<!-- FileRunnerTrait -->
<g id="node29" class="node"><title>FileRunnerTrait</title>
<polygon fill="none" stroke="black" points="1082.03,-2207 976.855,-2189 1082.03,-2171 1187.21,-2189 1082.03,-2207"/>
<text text-anchor="middle" x="1082.03" y="-2185.9" font-family="Times,serif" font-size="12.00">FileRunnerTrait(todo)</text>
</g>
<!-- HttpServer&#45;&gt;FileRunnerTrait -->
<g id="edge41" class="edge"><title>HttpServer&#45;&gt;FileRunnerTrait</title>
<path fill="none" stroke="black" d="M910.16,-2189C927.45,-2189 947.006,-2189 966.554,-2189"/>
<polygon fill="black" stroke="black" points="966.764,-2192.5 976.764,-2189 966.764,-2185.5 966.764,-2192.5"/>
</g>
<!-- HttpServerPluginInterface -->
<g id="node28" class="node"><title>HttpServerPluginInterface</title>
<polygon fill="none" stroke="black" points="903.194,-2153 792.194,-2153 792.194,-2117 909.194,-2117 909.194,-2147 903.194,-2153"/>
<polyline fill="none" stroke="black" points="903.194,-2153 903.194,-2147 "/>
<polyline fill="none" stroke="black" points="909.194,-2147 903.194,-2147 "/>
<text text-anchor="middle" x="850.694" y="-2131.9" font-family="Times,serif" font-size="12.00">PluginInterface(todo)</text>
</g>
<!-- AppPluginTrait -->
<g id="node30" class="node"><title>AppPluginTrait</title>
<polygon fill="lightgrey" stroke="black" points="604.555,-1618 525.111,-1600 604.555,-1582 684,-1600 604.555,-1618"/>
<polyline fill="none" stroke="black" points="536.814,-1602.65 536.814,-1597.35 "/>
<polyline fill="none" stroke="black" points="592.852,-1584.65 616.259,-1584.65 "/>
<polyline fill="none" stroke="black" points="672.297,-1597.35 672.297,-1602.65 "/>
<polyline fill="none" stroke="black" points="616.259,-1615.35 592.852,-1615.35 "/>
<text text-anchor="middle" x="604.555" y="-1596.9" font-family="Times,serif" font-size="12.00">AppPluginTrait</text>
</g>
<!-- AppPluginTrait&#45;&gt;View -->
<g id="edge43" class="edge"><title>AppPluginTrait&#45;&gt;View</title>
<path fill="none" stroke="black" stroke-dasharray="5,2" d="M635.492,-1611.04C680.639,-1627.68 765.984,-1659.14 814.199,-1676.92"/>
<polygon fill="black" stroke="black" points="813.017,-1680.21 823.611,-1680.38 815.438,-1673.64 813.017,-1680.21"/>
</g>
<!-- AppPluginTrait&#45;&gt;Configer -->
<g id="edge42" class="edge"><title>AppPluginTrait&#45;&gt;Configer</title>
<path fill="none" stroke="black" stroke-dasharray="5,2" d="M644.06,-1609.15C671.075,-1617.66 705.649,-1633.19 724.694,-1660 795.573,-1759.77 681.509,-1839.69 760.694,-1933 773.066,-1947.58 793.036,-1954.45 810.927,-1957.62"/>
<polygon fill="black" stroke="black" points="810.47,-1961.09 820.868,-1959.06 811.473,-1954.16 810.47,-1961.09"/>
</g>
<!-- AppPluginTrait&#45;&gt;Route -->
<g id="edge44" class="edge"><title>AppPluginTrait&#45;&gt;Route</title>
<path fill="none" stroke="black" stroke-dasharray="5,2" d="M637.465,-1610.63C663.218,-1620.4 699.229,-1636.89 724.694,-1660 746.881,-1680.14 736.86,-1698.84 760.694,-1717 774.735,-1727.7 793.012,-1734.18 809.348,-1738.1"/>
<polygon fill="black" stroke="black" points="808.7,-1741.54 819.213,-1740.22 810.174,-1734.7 808.7,-1741.54"/>
</g>
<!-- Cache -->
<g id="node31" class="node"><title>Cache</title>
<polygon fill="none" stroke="black" points="631.555,-1294 577.555,-1294 577.555,-1290 573.555,-1290 573.555,-1286 577.555,-1286 577.555,-1266 573.555,-1266 573.555,-1262 577.555,-1262 577.555,-1258 631.555,-1258 631.555,-1294"/>
<polyline fill="none" stroke="black" points="577.555,-1290 581.555,-1290 581.555,-1286 577.555,-1286 "/>
<polyline fill="none" stroke="black" points="577.555,-1266 581.555,-1266 581.555,-1262 577.555,-1262 "/>
<text text-anchor="middle" x="604.555" y="-1272.9" font-family="Times,serif" font-size="12.00">Cache</text>
</g>
<!-- Cache&#45;&gt;ComponentBase -->
<g id="edge45" class="edge"><title>Cache&#45;&gt;ComponentBase</title>
<path fill="none" stroke="black" stroke-dasharray="1,5" d="M631.717,-1269.23C694.008,-1254.77 853.036,-1227.93 948.694,-1302 1064.58,-1391.73 1079.66,-1588.16 1081.13,-1661.57"/>
<polygon fill="black" stroke="black" points="1077.63,-1661.92 1081.26,-1671.88 1084.63,-1661.83 1077.63,-1661.92"/>
</g>
<!-- Console -->
<g id="node32" class="node"><title>Console</title>
<polygon fill="lightgrey" stroke="black" points="850.694,-1618 802.189,-1600 850.694,-1582 899.2,-1600 850.694,-1618"/>
<polyline fill="none" stroke="black" points="813.439,-1604.17 813.439,-1595.83 "/>
<polyline fill="none" stroke="black" points="839.444,-1586.17 861.945,-1586.17 "/>
<polyline fill="none" stroke="black" points="887.949,-1595.83 887.949,-1604.17 "/>
<polyline fill="none" stroke="black" points="861.945,-1613.83 839.444,-1613.83 "/>
<text text-anchor="middle" x="850.694" y="-1596.9" font-family="Times,serif" font-size="12.00">Console</text>
</g>
<!-- DbManager -->
<g id="node33" class="node"><title>DbManager</title>
<polygon fill="none" stroke="black" points="641.555,-1240 567.555,-1240 567.555,-1236 563.555,-1236 563.555,-1232 567.555,-1232 567.555,-1212 563.555,-1212 563.555,-1208 567.555,-1208 567.555,-1204 641.555,-1204 641.555,-1240"/>
<polyline fill="none" stroke="black" points="567.555,-1236 571.555,-1236 571.555,-1232 567.555,-1232 "/>
<polyline fill="none" stroke="black" points="567.555,-1212 571.555,-1212 571.555,-1208 567.555,-1208 "/>
<text text-anchor="middle" x="604.555" y="-1218.9" font-family="Times,serif" font-size="12.00">DbManager</text>
</g>
<!-- DbManager&#45;&gt;ComponentBase -->
<g id="edge47" class="edge"><title>DbManager&#45;&gt;ComponentBase</title>
<path fill="none" stroke="black" stroke-dasharray="1,5" d="M641.628,-1212.88C709.872,-1197.95 859.052,-1176.67 948.694,-1249 1015.06,-1302.54 1062.72,-1573.14 1076.76,-1661.82"/>
<polygon fill="black" stroke="black" points="1073.34,-1662.59 1078.34,-1671.93 1080.26,-1661.51 1073.34,-1662.59"/>
</g>
<!-- DbManager&#45;&gt;Db_Db -->
<g id="edge56" class="edge"><title>DbManager&#45;&gt;Db_Db</title>
<path fill="none" stroke="black" stroke-dasharray="5,2" d="M641.808,-1223.56C669.134,-1222.58 705.134,-1216.23 724.694,-1192 798.228,-1100.91 700.274,-239.271 760.694,-139 773.885,-117.109 800.257,-103.734 820.886,-96.2071"/>
<polygon fill="black" stroke="black" points="822.115,-99.4864 830.468,-92.97 819.874,-92.8546 822.115,-99.4864"/>
</g>
<!-- DuckPhpCommand -->
<g id="node34" class="node"><title>DuckPhpCommand</title>
<polygon fill="none" stroke="black" points="660.055,-1564 549.055,-1564 549.055,-1560 545.055,-1560 545.055,-1556 549.055,-1556 549.055,-1536 545.055,-1536 545.055,-1532 549.055,-1532 549.055,-1528 660.055,-1528 660.055,-1564"/>
<polyline fill="none" stroke="black" points="549.055,-1560 553.055,-1560 553.055,-1556 549.055,-1556 "/>
<polyline fill="none" stroke="black" points="549.055,-1536 553.055,-1536 553.055,-1532 549.055,-1532 "/>
<text text-anchor="middle" x="604.555" y="-1542.9" font-family="Times,serif" font-size="12.00">DuckPhpCommand</text>
</g>
<!-- DuckPhpCommand&#45;&gt;ComponentBase -->
<g id="edge46" class="edge"><title>DuckPhpCommand&#45;&gt;ComponentBase</title>
<path fill="none" stroke="black" stroke-dasharray="1,5" d="M660.355,-1542.33C681.898,-1538.76 705.914,-1531.93 724.694,-1519 748.455,-1502.65 735.263,-1478.61 760.694,-1465 834.363,-1425.57 876.165,-1423.51 948.694,-1465 1023.8,-1507.96 1060.49,-1611.98 1074.29,-1662.1"/>
<polygon fill="black" stroke="black" points="1070.95,-1663.16 1076.89,-1671.93 1077.71,-1661.37 1070.95,-1663.16"/>
</g>
<!-- DuckPhpCommand&#45;&gt;HttpServer -->
<g id="edge55" class="edge"><title>DuckPhpCommand&#45;&gt;HttpServer</title>
<path fill="none" stroke="black" stroke-dasharray="5,2" d="M660.099,-1544.67C683.475,-1547.14 708.967,-1554.5 724.694,-1573 809.622,-1672.92 679.402,-2059.1 760.694,-2162 768.751,-2172.2 780.538,-2178.65 792.915,-2182.71"/>
<polygon fill="black" stroke="black" points="792.335,-2186.18 802.907,-2185.47 794.202,-2179.43 792.335,-2186.18"/>
</g>
<!-- DuckPhpCommand&#45;&gt;Console -->
<g id="edge53" class="edge"><title>DuckPhpCommand&#45;&gt;Console</title>
<path fill="none" stroke="black" stroke-dasharray="5,2" d="M660.345,-1558.12C705.706,-1568.15 769.093,-1582.17 809.771,-1591.17"/>
<polygon fill="black" stroke="black" points="809.08,-1594.6 819.599,-1593.34 810.591,-1587.77 809.08,-1594.6"/>
</g>
<!-- Installer -->
<g id="node36" class="node"><title>Installer</title>
<polygon fill="none" stroke="black" points="877.694,-1564 823.694,-1564 823.694,-1560 819.694,-1560 819.694,-1556 823.694,-1556 823.694,-1536 819.694,-1536 819.694,-1532 823.694,-1532 823.694,-1528 877.694,-1528 877.694,-1564"/>
<polyline fill="none" stroke="black" points="823.694,-1560 827.694,-1560 827.694,-1556 823.694,-1556 "/>
<polyline fill="none" stroke="black" points="823.694,-1536 827.694,-1536 827.694,-1532 823.694,-1532 "/>
<text text-anchor="middle" x="850.694" y="-1542.9" font-family="Times,serif" font-size="12.00">Installer</text>
</g>
<!-- DuckPhpCommand&#45;&gt;Installer -->
<g id="edge54" class="edge"><title>DuckPhpCommand&#45;&gt;Installer</title>
<path fill="none" stroke="black" d="M660.345,-1546C707.063,-1546 772.9,-1546 813.359,-1546"/>
<polygon fill="black" stroke="black" points="813.565,-1549.5 823.565,-1546 813.565,-1542.5 813.565,-1549.5"/>
</g>
<!-- EventManager -->
<g id="node35" class="node"><title>EventManager</title>
<polygon fill="none" stroke="black" points="647.555,-1510 561.555,-1510 561.555,-1506 557.555,-1506 557.555,-1502 561.555,-1502 561.555,-1482 557.555,-1482 557.555,-1478 561.555,-1478 561.555,-1474 647.555,-1474 647.555,-1510"/>
<polyline fill="none" stroke="black" points="561.555,-1506 565.555,-1506 565.555,-1502 561.555,-1502 "/>
<polyline fill="none" stroke="black" points="561.555,-1482 565.555,-1482 565.555,-1478 561.555,-1478 "/>
<text text-anchor="middle" x="604.555" y="-1488.9" font-family="Times,serif" font-size="12.00">EventManager</text>
</g>
<!-- EventManager&#45;&gt;ComponentBase -->
<g id="edge48" class="edge"><title>EventManager&#45;&gt;ComponentBase</title>
<path fill="none" stroke="black" stroke-dasharray="1,5" d="M647.718,-1488C671.42,-1484.42 700.927,-1477.67 724.694,-1465 744.114,-1454.65 740.244,-1439.13 760.694,-1431 838.338,-1400.13 877.427,-1387.38 948.694,-1431 1032.85,-1482.51 1065.64,-1606.29 1076.45,-1662"/>
<polygon fill="black" stroke="black" points="1073.01,-1662.68 1078.27,-1671.88 1079.9,-1661.41 1073.01,-1662.68"/>
</g>
<!-- Installer&#45;&gt;ComponentBase -->
<g id="edge49" class="edge"><title>Installer&#45;&gt;ComponentBase</title>
<path fill="none" stroke="black" stroke-dasharray="1,5" d="M878.028,-1550C898.262,-1553.84 926.423,-1560.9 948.694,-1573 992.595,-1596.85 1034.22,-1637.73 1058.68,-1664.3"/>
<polygon fill="black" stroke="black" points="1056.1,-1666.67 1065.41,-1671.73 1061.28,-1661.97 1056.1,-1666.67"/>
</g>
<!-- Pager -->
<g id="node37" class="node"><title>Pager</title>
<polygon fill="none" stroke="black" points="631.555,-1456 577.555,-1456 577.555,-1452 573.555,-1452 573.555,-1448 577.555,-1448 577.555,-1428 573.555,-1428 573.555,-1424 577.555,-1424 577.555,-1420 631.555,-1420 631.555,-1456"/>
<polyline fill="none" stroke="black" points="577.555,-1452 581.555,-1452 581.555,-1448 577.555,-1448 "/>
<polyline fill="none" stroke="black" points="577.555,-1428 581.555,-1428 581.555,-1424 577.555,-1424 "/>
<text text-anchor="middle" x="604.555" y="-1434.9" font-family="Times,serif" font-size="12.00">Pager</text>
</g>
<!-- Pager&#45;&gt;ComponentBase -->
<g id="edge50" class="edge"><title>Pager&#45;&gt;ComponentBase</title>
<path fill="none" stroke="black" stroke-dasharray="1,5" d="M631.771,-1432.84C656.036,-1427.87 693.033,-1419.84 724.694,-1411 740.938,-1406.46 744.047,-1401.7 760.694,-1399 843.171,-1385.62 878.439,-1353.77 948.694,-1399 1041.36,-1458.66 1069.89,-1600.86 1078.03,-1661.65"/>
<polygon fill="black" stroke="black" points="1074.57,-1662.19 1079.29,-1671.68 1081.52,-1661.33 1074.57,-1662.19"/>
</g>
<!-- PagerInterface -->
<g id="node38" class="node"><title>PagerInterface</title>
<polygon fill="none" stroke="black" points="887.194,-1510 808.194,-1510 808.194,-1474 893.194,-1474 893.194,-1504 887.194,-1510"/>
<polyline fill="none" stroke="black" points="887.194,-1510 887.194,-1504 "/>
<polyline fill="none" stroke="black" points="893.194,-1504 887.194,-1504 "/>
<text text-anchor="middle" x="850.694" y="-1488.9" font-family="Times,serif" font-size="12.00">PagerInterface</text>
</g>
<!-- Pager&#45;&gt;PagerInterface -->
<g id="edge57" class="edge"><title>Pager&#45;&gt;PagerInterface</title>
<path fill="none" stroke="black" d="M631.683,-1443.78C671.238,-1452.53 747.102,-1469.31 798.065,-1480.58"/>
<polygon fill="black" stroke="black" points="797.388,-1484.02 807.907,-1482.76 798.899,-1477.18 797.388,-1484.02"/>
</g>
<!-- RouteHookPathInfoCompat -->
<g id="node39" class="node"><title>RouteHookPathInfoCompat</title>
<polygon fill="none" stroke="black" points="679.555,-1402 529.555,-1402 529.555,-1398 525.555,-1398 525.555,-1394 529.555,-1394 529.555,-1374 525.555,-1374 525.555,-1370 529.555,-1370 529.555,-1366 679.555,-1366 679.555,-1402"/>
<polyline fill="none" stroke="black" points="529.555,-1398 533.555,-1398 533.555,-1394 529.555,-1394 "/>
<polyline fill="none" stroke="black" points="529.555,-1374 533.555,-1374 533.555,-1370 529.555,-1370 "/>
<text text-anchor="middle" x="604.555" y="-1380.9" font-family="Times,serif" font-size="12.00">RouteHookPathInfoCompat</text>
</g>
<!-- RouteHookPathInfoCompat&#45;&gt;ComponentBase -->
<g id="edge51" class="edge"><title>RouteHookPathInfoCompat&#45;&gt;ComponentBase</title>
<path fill="none" stroke="black" stroke-dasharray="1,5" d="M679.899,-1371.56C767.436,-1358.57 906.294,-1343.72 948.694,-1372 1048.63,-1438.65 1073.21,-1596.5 1079.17,-1661.39"/>
<polygon fill="black" stroke="black" points="1075.71,-1662.01 1080.03,-1671.68 1082.68,-1661.43 1075.71,-1662.01"/>
</g>
<!-- RouteHookRouteMap -->
<g id="node40" class="node"><title>RouteHookRouteMap</title>
<polygon fill="none" stroke="black" points="665.555,-1348 543.555,-1348 543.555,-1344 539.555,-1344 539.555,-1340 543.555,-1340 543.555,-1320 539.555,-1320 539.555,-1316 543.555,-1316 543.555,-1312 665.555,-1312 665.555,-1348"/>
<polyline fill="none" stroke="black" points="543.555,-1344 547.555,-1344 547.555,-1340 543.555,-1340 "/>
<polyline fill="none" stroke="black" points="543.555,-1320 547.555,-1320 547.555,-1316 543.555,-1316 "/>
<text text-anchor="middle" x="604.555" y="-1326.9" font-family="Times,serif" font-size="12.00">RouteHookRouteMap</text>
</g>
<!-- RouteHookRouteMap&#45;&gt;ComponentBase -->
<g id="edge52" class="edge"><title>RouteHookRouteMap&#45;&gt;ComponentBase</title>
<path fill="none" stroke="black" stroke-dasharray="1,5" d="M665.686,-1315.93C739.75,-1302.3 865.9,-1291.53 948.694,-1352 1051.61,-1427.17 1074.51,-1594.52 1079.59,-1661.49"/>
<polygon fill="black" stroke="black" points="1076.12,-1661.97 1080.29,-1671.71 1083.1,-1661.49 1076.12,-1661.97"/>
</g>
<!-- DuckPhp -->
<g id="node41" class="node"><title>DuckPhp</title>
<polygon fill="lightgrey" stroke="black" points="284.443,-1456 230.492,-1438 284.443,-1420 338.393,-1438 284.443,-1456"/>
<polyline fill="none" stroke="black" points="241.875,-1441.8 241.875,-1434.2 "/>
<polyline fill="none" stroke="black" points="273.059,-1423.8 295.826,-1423.8 "/>
<polyline fill="none" stroke="black" points="327.01,-1434.2 327.01,-1441.8 "/>
<polyline fill="none" stroke="black" points="295.826,-1452.2 273.059,-1452.2 "/>
<text text-anchor="middle" x="284.443" y="-1434.9" font-family="Times,serif" font-size="12.00">DuckPhp</text>
</g>
<!-- DuckPhp&#45;&gt;App -->
<g id="edge58" class="edge"><title>DuckPhp&#45;&gt;App</title>
<path fill="none" stroke="black" d="M290.106,-1454.21C309.457,-1521.47 383.513,-1778.87 407.085,-1860.8"/>
<polygon fill="black" stroke="black" points="403.816,-1862.1 409.945,-1870.74 410.543,-1860.16 403.816,-1862.1"/>
</g>
<!-- DuckPhp&#45;&gt;Cache -->
<g id="edge64" class="edge"><title>DuckPhp&#45;&gt;Cache</title>
<path fill="none" stroke="black" d="M299.609,-1425.01C330.533,-1397.46 407.493,-1333.24 484.417,-1303 511.238,-1292.46 543.155,-1285.5 567.2,-1281.29"/>
<polygon fill="black" stroke="black" points="568.029,-1284.7 577.315,-1279.6 566.875,-1277.8 568.029,-1284.7"/>
</g>
<!-- DuckPhp&#45;&gt;Console -->
<g id="edge65" class="edge"><title>DuckPhp&#45;&gt;Console</title>
<path fill="none" stroke="black" d="M294.817,-1452.65C319.971,-1490.4 393.266,-1590.61 484.417,-1627 599.01,-1672.75 749.744,-1633.63 815.997,-1612.02"/>
<polygon fill="black" stroke="black" points="817.138,-1615.33 825.516,-1608.84 814.922,-1608.69 817.138,-1615.33"/>
</g>
<!-- DuckPhp&#45;&gt;DbManager -->
<g id="edge61" class="edge"><title>DuckPhp&#45;&gt;DbManager</title>
<path fill="none" stroke="black" d="M293.69,-1423.03C307.763,-1398.45 338.4,-1349 374.253,-1316 416.417,-1277.19 431.298,-1270.5 484.417,-1249 507.687,-1239.58 534.909,-1233.1 557.454,-1228.85"/>
<polygon fill="black" stroke="black" points="558.229,-1232.27 567.452,-1227.06 556.991,-1225.38 558.229,-1232.27"/>
</g>
<!-- DuckPhp&#45;&gt;DuckPhpCommand -->
<g id="edge66" class="edge"><title>DuckPhp&#45;&gt;DuckPhpCommand</title>
<path fill="none" stroke="black" d="M307.68,-1448.46C343.996,-1465.22 418.597,-1498.3 484.417,-1519 501.751,-1524.45 520.829,-1529.28 538.54,-1533.29"/>
<polygon fill="black" stroke="black" points="538.268,-1536.81 548.787,-1535.55 539.778,-1529.98 538.268,-1536.81"/>
</g>
<!-- DuckPhp&#45;&gt;EventManager -->
<g id="edge62" class="edge"><title>DuckPhp&#45;&gt;EventManager</title>
<path fill="none" stroke="black" d="M320.702,-1443.99C376.671,-1453.49 486.163,-1472.07 551.282,-1483.13"/>
<polygon fill="black" stroke="black" points="550.892,-1486.61 561.337,-1484.83 552.064,-1479.71 550.892,-1486.61"/>
</g>
<!-- DuckPhp&#45;&gt;Pager -->
<g id="edge60" class="edge"><title>DuckPhp&#45;&gt;Pager</title>
<path fill="none" stroke="black" d="M338.688,-1438C403.491,-1438 511.182,-1438 567.195,-1438"/>
<polygon fill="black" stroke="black" points="567.356,-1441.5 577.356,-1438 567.356,-1434.5 567.356,-1441.5"/>
</g>
<!-- DuckPhp&#45;&gt;RouteHookPathInfoCompat -->
<g id="edge63" class="edge"><title>DuckPhp&#45;&gt;RouteHookPathInfoCompat</title>
<path fill="none" stroke="black" d="M320.702,-1432.01C368.226,-1423.95 454.339,-1409.33 519.11,-1398.33"/>
<polygon fill="black" stroke="black" points="520.039,-1401.73 529.312,-1396.6 518.868,-1394.83 520.039,-1401.73"/>
</g>
<!-- DuckPhp&#45;&gt;RouteHookRouteMap -->
<g id="edge59" class="edge"><title>DuckPhp&#45;&gt;RouteHookRouteMap</title>
<path fill="none" stroke="black" d="M307.68,-1427.54C343.996,-1410.78 418.597,-1377.7 484.417,-1357 500.082,-1352.07 517.17,-1347.66 533.387,-1343.89"/>
<polygon fill="black" stroke="black" points="534.372,-1347.26 543.351,-1341.63 532.825,-1340.43 534.372,-1347.26"/>
</g>
<!-- ThrowOnTrait -->
<g id="node42" class="node"><title>ThrowOnTrait</title>
<polygon fill="lightgrey" stroke="black" points="101.316,-2154 26.5775,-2136 101.316,-2118 176.055,-2136 101.316,-2154"/>
<polyline fill="none" stroke="black" points="38.2439,-2138.81 38.2439,-2133.19 "/>
<polyline fill="none" stroke="black" points="89.6496,-2120.81 112.982,-2120.81 "/>
<polyline fill="none" stroke="black" points="164.388,-2133.19 164.388,-2138.81 "/>
<polyline fill="none" stroke="black" points="112.982,-2151.19 89.6496,-2151.19 "/>
<text text-anchor="middle" x="101.316" y="-2132.9" font-family="Times,serif" font-size="12.00">ThrowOnTrait</text>
</g>
<!-- CallableView -->
<g id="node43" class="node"><title>CallableView</title>
<polygon fill="none" stroke="black" points="645.555,-673 563.555,-673 563.555,-669 559.555,-669 559.555,-665 563.555,-665 563.555,-645 559.555,-645 559.555,-641 563.555,-641 563.555,-637 645.555,-637 645.555,-673"/>
<polyline fill="none" stroke="black" points="563.555,-669 567.555,-669 567.555,-665 563.555,-665 "/>
<polyline fill="none" stroke="black" points="563.555,-645 567.555,-645 567.555,-641 563.555,-641 "/>
<text text-anchor="middle" x="604.555" y="-651.9" font-family="Times,serif" font-size="12.00">CallableView</text>
</g>
<!-- X_Core_View -->
<g id="node66" class="node"><title>X_Core_View</title>
<polygon fill="none" stroke="black" points="891.194,-721 792.194,-721 792.194,-697 891.194,-697 891.194,-691 909.194,-709 891.194,-727 891.194,-721"/>
<text text-anchor="middle" x="850.694" y="-705.9" font-family="Times,serif" font-size="12.00">DuckPhp\Core\View</text>
</g>
<!-- CallableView&#45;&gt;X_Core_View -->
<g id="edge83" class="edge"><title>CallableView&#45;&gt;X_Core_View</title>
<path fill="none" stroke="black" d="M645.597,-663.857C682.494,-672.018 738.001,-684.295 781.818,-693.987"/>
<polygon fill="black" stroke="black" points="781.311,-697.459 791.831,-696.201 782.823,-690.624 781.311,-697.459"/>
</g>
<!-- EmptyView -->
<g id="node44" class="node"><title>EmptyView</title>
<polygon fill="none" stroke="black" points="641.555,-619 567.555,-619 567.555,-615 563.555,-615 563.555,-611 567.555,-611 567.555,-591 563.555,-591 563.555,-587 567.555,-587 567.555,-583 641.555,-583 641.555,-619"/>
<polyline fill="none" stroke="black" points="567.555,-615 571.555,-615 571.555,-611 567.555,-611 "/>
<polyline fill="none" stroke="black" points="567.555,-591 571.555,-591 571.555,-587 567.555,-587 "/>
<text text-anchor="middle" x="604.555" y="-597.9" font-family="Times,serif" font-size="12.00">EmptyView</text>
</g>
<!-- EmptyView&#45;&gt;X_Core_View -->
<g id="edge84" class="edge"><title>EmptyView&#45;&gt;X_Core_View</title>
<path fill="none" stroke="black" d="M641.707,-602.238C666.898,-604.669 700.236,-611.166 724.694,-628 748.455,-644.354 737.535,-664.805 760.694,-682 767.238,-686.859 774.662,-690.851 782.363,-694.13"/>
<polygon fill="black" stroke="black" points="781.265,-697.458 791.855,-697.786 783.781,-690.925 781.265,-697.458"/>
</g>
<!-- ExceptionWrapper -->
<g id="node45" class="node"><title>ExceptionWrapper</title>
<polygon fill="none" stroke="black" points="657.555,-943 551.555,-943 551.555,-939 547.555,-939 547.555,-935 551.555,-935 551.555,-915 547.555,-915 547.555,-911 551.555,-911 551.555,-907 657.555,-907 657.555,-943"/>
<polyline fill="none" stroke="black" points="551.555,-939 555.555,-939 555.555,-935 551.555,-935 "/>
<polyline fill="none" stroke="black" points="551.555,-915 555.555,-915 555.555,-911 551.555,-911 "/>
<text text-anchor="middle" x="604.555" y="-921.9" font-family="Times,serif" font-size="12.00">ExceptionWrapper</text>
</g>
<!-- ExceptionWrapper&#45;&gt;ComponentBase -->
<g id="edge67" class="edge"><title>ExceptionWrapper&#45;&gt;ComponentBase</title>
<path fill="none" stroke="black" stroke-dasharray="1,5" d="M657.733,-928.618C679.834,-932.141 704.977,-938.946 724.694,-952 747.527,-967.117 737.877,-986.861 760.694,-1002 832.116,-1049.39 888.771,-983.714 948.694,-1045 1036.86,-1135.17 1071.36,-1549.08 1079.2,-1661.66"/>
<polygon fill="black" stroke="black" points="1075.73,-1662.14 1079.9,-1671.88 1082.71,-1661.67 1075.73,-1662.14"/>
</g>
<!-- HookChain -->
<g id="node46" class="node"><title>HookChain</title>
<ellipse fill="none" stroke="black" cx="604.555" cy="-979" rx="44.1452" ry="18"/>
<text text-anchor="middle" x="604.555" y="-975.9" font-family="Times,serif" font-size="12.00">HookChain</text>
</g>
<!-- HttpServerPlugin -->
<g id="node47" class="node"><title>HttpServerPlugin</title>
<polygon fill="none" stroke="black" points="668.555,-889 540.555,-889 540.555,-885 536.555,-885 536.555,-881 540.555,-881 540.555,-861 536.555,-861 536.555,-857 540.555,-857 540.555,-853 668.555,-853 668.555,-889"/>
<polyline fill="none" stroke="black" points="540.555,-885 544.555,-885 544.555,-881 540.555,-881 "/>
<polyline fill="none" stroke="black" points="540.555,-861 544.555,-861 544.555,-857 540.555,-857 "/>
<text text-anchor="middle" x="604.555" y="-867.9" font-family="Times,serif" font-size="12.00">HttpServerPlugin(todo)</text>
</g>
<!-- HttpServerPlugin&#45;&gt;ComponentBase -->
<g id="edge68" class="edge"><title>HttpServerPlugin&#45;&gt;ComponentBase</title>
<path fill="none" stroke="black" stroke-dasharray="1,5" d="M668.84,-875.313C688.237,-879.14 708.666,-885.968 724.694,-898 751.105,-917.826 734.103,-943.417 760.694,-963 829.406,-1013.6 888.793,-941.223 948.694,-1002 1043.4,-1098.09 1073.35,-1544.3 1079.65,-1661.66"/>
<polygon fill="black" stroke="black" points="1076.17,-1662.16 1080.19,-1671.97 1083.16,-1661.8 1076.17,-1662.16"/>
</g>
<!-- JsonRpcClientBase -->
<g id="node48" class="node"><title>JsonRpcClientBase</title>
<polygon fill="none" stroke="black" points="659.055,-781 550.055,-781 550.055,-777 546.055,-777 546.055,-773 550.055,-773 550.055,-753 546.055,-753 546.055,-749 550.055,-749 550.055,-745 659.055,-745 659.055,-781"/>
<polyline fill="none" stroke="black" points="550.055,-777 554.055,-777 554.055,-773 550.055,-773 "/>
<polyline fill="none" stroke="black" points="550.055,-753 554.055,-753 554.055,-749 550.055,-749 "/>
<text text-anchor="middle" x="604.555" y="-759.9" font-family="Times,serif" font-size="12.00">JsonRpcClientBase</text>
</g>
<!-- JsonRpcClientBase&#45;&gt;ComponentBase -->
<g id="edge91" class="edge"><title>JsonRpcClientBase&#45;&gt;ComponentBase</title>
<path fill="none" stroke="black" stroke-dasharray="1,5" d="M659.169,-764.284C681.663,-767.37 706.714,-774.478 724.694,-790 758.244,-818.963 727.027,-854.174 760.694,-883 825.655,-938.621 889.557,-862.223 948.694,-924 1052.99,-1032.95 1076.05,-1535.53 1080.22,-1661.37"/>
<polygon fill="black" stroke="black" points="1076.73,-1661.83 1080.55,-1671.72 1083.73,-1661.61 1076.73,-1661.83"/>
</g>
<!-- JsonRpcExt -->
<g id="node49" class="node"><title>JsonRpcExt</title>
<polygon fill="none" stroke="black" points="887.694,-781 813.694,-781 813.694,-777 809.694,-777 809.694,-773 813.694,-773 813.694,-753 809.694,-753 809.694,-749 813.694,-749 813.694,-745 887.694,-745 887.694,-781"/>
<polyline fill="none" stroke="black" points="813.694,-777 817.694,-777 817.694,-773 813.694,-773 "/>
<polyline fill="none" stroke="black" points="813.694,-753 817.694,-753 817.694,-749 813.694,-749 "/>
<text text-anchor="middle" x="850.694" y="-759.9" font-family="Times,serif" font-size="12.00">JsonRpcExt</text>
</g>
<!-- JsonRpcClientBase&#45;&gt;JsonRpcExt -->
<g id="edge90" class="edge"><title>JsonRpcClientBase&#45;&gt;JsonRpcExt</title>
<path fill="none" stroke="black" stroke-dasharray="5,2" d="M659.133,-757.301C702.352,-755.812 762.507,-755.905 803.597,-757.581"/>
<polygon fill="black" stroke="black" points="803.461,-761.079 813.611,-758.042 803.783,-754.086 803.461,-761.079"/>
</g>
<!-- JsonRpcExt&#45;&gt;ComponentBase -->
<g id="edge69" class="edge"><title>JsonRpcExt&#45;&gt;ComponentBase</title>
<path fill="none" stroke="black" stroke-dasharray="1,5" d="M888.135,-763.797C908.886,-766.259 933.665,-772.955 948.694,-790 1066.79,-923.93 1079.51,-1523.46 1080.87,-1661.56"/>
<polygon fill="black" stroke="black" points="1077.37,-1661.78 1080.96,-1671.75 1084.37,-1661.72 1077.37,-1661.78"/>
</g>
<!-- JsonRpcExt&#45;&gt;JsonRpcClientBase -->
<g id="edge89" class="edge"><title>JsonRpcExt&#45;&gt;JsonRpcClientBase</title>
<path fill="none" stroke="black" d="M813.611,-767.958C775.692,-769.919 715.281,-770.27 669.301,-769.012"/>
<polygon fill="black" stroke="black" points="669.236,-765.509 659.133,-768.699 669.02,-772.505 669.236,-765.509"/>
</g>
<!-- JsonView -->
<g id="node50" class="node"><title>JsonView</title>
<polygon fill="none" stroke="black" points="636.555,-727 572.555,-727 572.555,-723 568.555,-723 568.555,-719 572.555,-719 572.555,-699 568.555,-699 568.555,-695 572.555,-695 572.555,-691 636.555,-691 636.555,-727"/>
<polyline fill="none" stroke="black" points="572.555,-723 576.555,-723 576.555,-719 572.555,-719 "/>
<polyline fill="none" stroke="black" points="572.555,-699 576.555,-699 576.555,-695 572.555,-695 "/>
<text text-anchor="middle" x="604.555" y="-705.9" font-family="Times,serif" font-size="12.00">JsonView</text>
</g>
<!-- JsonView&#45;&gt;X_Core_View -->
<g id="edge92" class="edge"><title>JsonView&#45;&gt;X_Core_View</title>
<path fill="none" stroke="black" d="M636.973,-709C673.327,-709 734.257,-709 781.612,-709"/>
<polygon fill="black" stroke="black" points="781.802,-712.5 791.802,-709 781.802,-705.5 781.802,-712.5"/>
</g>
<!-- Misc -->
<g id="node51" class="node"><title>Misc</title>
<polygon fill="none" stroke="black" points="631.555,-457 577.555,-457 577.555,-453 573.555,-453 573.555,-449 577.555,-449 577.555,-429 573.555,-429 573.555,-425 577.555,-425 577.555,-421 631.555,-421 631.555,-457"/>
<polyline fill="none" stroke="black" points="577.555,-453 581.555,-453 581.555,-449 577.555,-449 "/>
<polyline fill="none" stroke="black" points="577.555,-429 581.555,-429 581.555,-425 577.555,-425 "/>
<text text-anchor="middle" x="604.555" y="-435.9" font-family="Times,serif" font-size="12.00">Misc</text>
</g>
<!-- Misc&#45;&gt;ComponentBase -->
<g id="edge70" class="edge"><title>Misc&#45;&gt;ComponentBase</title>
<path fill="none" stroke="black" stroke-dasharray="1,5" d="M631.912,-431.16C696.045,-413.878 861.362,-380.417 948.694,-465 1037.78,-551.276 1074.06,-1486.41 1080.1,-1661.76"/>
<polygon fill="black" stroke="black" points="1076.61,-1661.88 1080.44,-1671.76 1083.6,-1661.64 1076.61,-1661.88"/>
</g>
<!-- MyFacadesAutoLoader -->
<g id="node52" class="node"><title>MyFacadesAutoLoader</title>
<polygon fill="none" stroke="black" points="669.055,-565 540.055,-565 540.055,-561 536.055,-561 536.055,-557 540.055,-557 540.055,-537 536.055,-537 536.055,-533 540.055,-533 540.055,-529 669.055,-529 669.055,-565"/>
<polyline fill="none" stroke="black" points="540.055,-561 544.055,-561 544.055,-557 540.055,-557 "/>
<polyline fill="none" stroke="black" points="540.055,-537 544.055,-537 544.055,-533 540.055,-533 "/>
<text text-anchor="middle" x="604.555" y="-543.9" font-family="Times,serif" font-size="12.00">MyFacadesAutoLoader</text>
</g>
<!-- MyFacadesAutoLoader&#45;&gt;ComponentBase -->
<g id="edge72" class="edge"><title>MyFacadesAutoLoader&#45;&gt;ComponentBase</title>
<path fill="none" stroke="black" stroke-dasharray="1,5" d="M669.389,-533.34C697.279,-528.034 730.461,-522.611 760.694,-520 843.94,-512.81 886.38,-464.336 948.694,-520 1036.85,-598.744 1073.74,-1490.23 1080.04,-1661.6"/>
<polygon fill="black" stroke="black" points="1076.54,-1661.75 1080.4,-1671.62 1083.53,-1661.5 1076.54,-1661.75"/>
</g>
<!-- MyFacadesBase -->
<g id="node53" class="node"><title>MyFacadesBase</title>
<polygon fill="none" stroke="black" points="898.194,-673 803.194,-673 803.194,-669 799.194,-669 799.194,-665 803.194,-665 803.194,-645 799.194,-645 799.194,-641 803.194,-641 803.194,-637 898.194,-637 898.194,-673"/>
<polyline fill="none" stroke="black" points="803.194,-669 807.194,-669 807.194,-665 803.194,-665 "/>
<polyline fill="none" stroke="black" points="803.194,-645 807.194,-645 807.194,-641 803.194,-641 "/>
<text text-anchor="middle" x="850.694" y="-651.9" font-family="Times,serif" font-size="12.00">MyFacadesBase</text>
</g>
<!-- MyFacadesAutoLoader&#45;&gt;MyFacadesBase -->
<g id="edge86" class="edge"><title>MyFacadesAutoLoader&#45;&gt;MyFacadesBase</title>
<path fill="none" stroke="black" d="M669.188,-543.73C688.281,-547.196 708.447,-553.817 724.694,-565 748.455,-581.354 737.535,-601.805 760.694,-619 770.316,-626.144 781.839,-631.415 793.353,-635.518"/>
<polygon fill="black" stroke="black" points="792.387,-638.885 802.98,-638.705 794.587,-632.24 792.387,-638.885"/>
</g>
<!-- MyFacadesBase&#45;&gt;ComponentBase -->
<g id="edge71" class="edge"><title>MyFacadesBase&#45;&gt;ComponentBase</title>
<path fill="none" stroke="black" stroke-dasharray="1,5" d="M898.308,-657.206C916.586,-660.517 936.146,-667.546 948.694,-682 1080.49,-833.809 1082.52,-1513.6 1081.37,-1661.53"/>
<polygon fill="black" stroke="black" points="1077.87,-1661.58 1081.28,-1671.62 1084.87,-1661.65 1077.87,-1661.58"/>
</g>
<!-- MyFacadesBase&#45;&gt;MyFacadesAutoLoader -->
<g id="edge85" class="edge"><title>MyFacadesBase&#45;&gt;MyFacadesAutoLoader</title>
<path fill="none" stroke="black" stroke-dasharray="5,2" d="M802.98,-655.785C788.442,-652.22 773.01,-646.144 760.694,-637 737.535,-619.805 748.455,-599.354 724.694,-583 711.24,-573.739 695.098,-567.607 679.103,-563.314"/>
<polygon fill="black" stroke="black" points="679.736,-559.865 669.188,-560.867 678.058,-566.661 679.736,-559.865"/>
</g>
<!-- MyMiddlewareManager -->
<g id="node54" class="node"><title>MyMiddlewareManager</title>
<polygon fill="none" stroke="black" points="670.555,-511 538.555,-511 538.555,-507 534.555,-507 534.555,-503 538.555,-503 538.555,-483 534.555,-483 534.555,-479 538.555,-479 538.555,-475 670.555,-475 670.555,-511"/>
<polyline fill="none" stroke="black" points="538.555,-507 542.555,-507 542.555,-503 538.555,-503 "/>
<polyline fill="none" stroke="black" points="538.555,-483 542.555,-483 542.555,-479 538.555,-479 "/>
<text text-anchor="middle" x="604.555" y="-489.9" font-family="Times,serif" font-size="12.00">MyMiddlewareManager</text>
</g>
<!-- MyMiddlewareManager&#45;&gt;ComponentBase -->
<g id="edge73" class="edge"><title>MyMiddlewareManager&#45;&gt;ComponentBase</title>
<path fill="none" stroke="black" stroke-dasharray="1,5" d="M670.71,-482.481C758.734,-469.892 909.201,-454.622 948.694,-490 1039.06,-570.949 1074.22,-1487.07 1080.11,-1661.43"/>
<polygon fill="black" stroke="black" points="1076.62,-1661.73 1080.45,-1671.61 1083.62,-1661.5 1076.62,-1661.73"/>
</g>
<!-- RouteHookManager -->
<g id="node59" class="node"><title>RouteHookManager</title>
<polygon fill="none" stroke="black" points="907.694,-565 793.694,-565 793.694,-561 789.694,-561 789.694,-557 793.694,-557 793.694,-537 789.694,-537 789.694,-533 793.694,-533 793.694,-529 907.694,-529 907.694,-565"/>
<polyline fill="none" stroke="black" points="793.694,-561 797.694,-561 797.694,-557 793.694,-557 "/>
<polyline fill="none" stroke="black" points="793.694,-537 797.694,-537 797.694,-533 793.694,-533 "/>
<text text-anchor="middle" x="850.694" y="-543.9" font-family="Times,serif" font-size="12.00">RouteHookManager</text>
</g>
<!-- MyMiddlewareManager&#45;&gt;RouteHookManager -->
<g id="edge87" class="edge"><title>MyMiddlewareManager&#45;&gt;RouteHookManager</title>
<path fill="none" stroke="black" d="M670.659,-507.4C705.5,-515.106 748.322,-524.578 783.35,-532.326"/>
<polygon fill="black" stroke="black" points="782.96,-535.824 793.48,-534.566 784.472,-528.989 782.96,-535.824"/>
</g>
<!-- X_Core_Route -->
<g id="node65" class="node"><title>X_Core_Route</title>
<polygon fill="none" stroke="black" points="892.194,-613 791.194,-613 791.194,-589 892.194,-589 892.194,-583 910.194,-601 892.194,-619 892.194,-613"/>
<text text-anchor="middle" x="850.694" y="-597.9" font-family="Times,serif" font-size="12.00">DuckPhp\Core\Route</text>
</g>
<!-- MyMiddlewareManager&#45;&gt;X_Core_Route -->
<g id="edge88" class="edge"><title>MyMiddlewareManager&#45;&gt;X_Core_Route</title>
<path fill="none" stroke="black" d="M670.73,-498.618C689.363,-502.555 708.884,-509.118 724.694,-520 748.455,-536.354 737.535,-556.805 760.694,-574 766.984,-578.67 774.086,-582.539 781.467,-585.744"/>
<polygon fill="black" stroke="black" points="780.337,-589.061 790.925,-589.459 782.896,-582.545 780.337,-589.061"/>
</g>
<!-- RedisManager -->
<g id="node55" class="node"><title>RedisManager</title>
<polygon fill="none" stroke="black" points="647.555,-349 561.555,-349 561.555,-345 557.555,-345 557.555,-341 561.555,-341 561.555,-321 557.555,-321 557.555,-317 561.555,-317 561.555,-313 647.555,-313 647.555,-349"/>
<polyline fill="none" stroke="black" points="561.555,-345 565.555,-345 565.555,-341 561.555,-341 "/>
<polyline fill="none" stroke="black" points="561.555,-321 565.555,-321 565.555,-317 561.555,-317 "/>
<text text-anchor="middle" x="604.555" y="-327.9" font-family="Times,serif" font-size="12.00">RedisManager</text>
</g>
<!-- RedisManager&#45;&gt;ComponentBase -->
<g id="edge74" class="edge"><title>RedisManager&#45;&gt;ComponentBase</title>
<path fill="none" stroke="black" stroke-dasharray="1,5" d="M647.654,-334.166C730.265,-341.302 909.032,-361.606 948.694,-406 1035.43,-503.089 1073.75,-1481.95 1080.08,-1661.72"/>
<polygon fill="black" stroke="black" points="1076.59,-1662.07 1080.43,-1671.94 1083.58,-1661.82 1076.59,-1662.07"/>
</g>
<!-- RedisCache -->
<g id="node56" class="node"><title>RedisCache</title>
<polygon fill="none" stroke="black" points="641.555,-295 567.555,-295 567.555,-291 563.555,-291 563.555,-287 567.555,-287 567.555,-267 563.555,-267 563.555,-263 567.555,-263 567.555,-259 641.555,-259 641.555,-295"/>
<polyline fill="none" stroke="black" points="567.555,-291 571.555,-291 571.555,-287 567.555,-287 "/>
<polyline fill="none" stroke="black" points="567.555,-267 571.555,-267 571.555,-263 567.555,-263 "/>
<text text-anchor="middle" x="604.555" y="-273.9" font-family="Times,serif" font-size="12.00">RedisCache</text>
</g>
<!-- RedisCache&#45;&gt;ComponentBase -->
<g id="edge75" class="edge"><title>RedisCache&#45;&gt;ComponentBase</title>
<path fill="none" stroke="black" stroke-dasharray="1,5" d="M641.712,-271.739C712.493,-263.707 869.341,-257.502 948.694,-345 1040.46,-446.181 1074.78,-1476.14 1080.23,-1661.5"/>
<polygon fill="black" stroke="black" points="1076.74,-1661.67 1080.53,-1671.56 1083.73,-1661.46 1076.74,-1661.67"/>
</g>
<!-- RouteHookApiServer -->
<g id="node57" class="node"><title>RouteHookApiServer</title>
<polygon fill="none" stroke="black" points="665.055,-241 544.055,-241 544.055,-237 540.055,-237 540.055,-233 544.055,-233 544.055,-213 540.055,-213 540.055,-209 544.055,-209 544.055,-205 665.055,-205 665.055,-241"/>
<polyline fill="none" stroke="black" points="544.055,-237 548.055,-237 548.055,-233 544.055,-233 "/>
<polyline fill="none" stroke="black" points="544.055,-213 548.055,-213 548.055,-209 544.055,-209 "/>
<text text-anchor="middle" x="604.555" y="-219.9" font-family="Times,serif" font-size="12.00">RouteHookApiServer</text>
</g>
<!-- RouteHookApiServer&#45;&gt;ComponentBase -->
<g id="edge76" class="edge"><title>RouteHookApiServer&#45;&gt;ComponentBase</title>
<path fill="none" stroke="black" stroke-dasharray="1,5" d="M665.252,-210.47C742.471,-198.124 875.703,-190.635 948.694,-266 1049.62,-370.208 1076.57,-1470.99 1080.49,-1661.87"/>
<polygon fill="black" stroke="black" points="1077,-1662.02 1080.7,-1671.94 1083.99,-1661.88 1077,-1662.02"/>
</g>
<!-- RouteHookDirectoryMode -->
<g id="node58" class="node"><title>RouteHookDirectoryMode</title>
<polygon fill="none" stroke="black" points="677.055,-1159 532.055,-1159 532.055,-1155 528.055,-1155 528.055,-1151 532.055,-1151 532.055,-1131 528.055,-1131 528.055,-1127 532.055,-1127 532.055,-1123 677.055,-1123 677.055,-1159"/>
<polyline fill="none" stroke="black" points="532.055,-1155 536.055,-1155 536.055,-1151 532.055,-1151 "/>
<polyline fill="none" stroke="black" points="532.055,-1131 536.055,-1131 536.055,-1127 532.055,-1127 "/>
<text text-anchor="middle" x="604.555" y="-1137.9" font-family="Times,serif" font-size="12.00">RouteHookDirectoryMode</text>
</g>
<!-- RouteHookDirectoryMode&#45;&gt;ComponentBase -->
<g id="edge77" class="edge"><title>RouteHookDirectoryMode&#45;&gt;ComponentBase</title>
<path fill="none" stroke="black" stroke-dasharray="1,5" d="M677.066,-1130.62C753.836,-1123.74 874.709,-1125.88 948.694,-1192 1020.63,-1256.29 1065.29,-1565.75 1077.57,-1661.62"/>
<polygon fill="black" stroke="black" points="1074.12,-1662.25 1078.85,-1671.73 1081.07,-1661.37 1074.12,-1662.25"/>
</g>
<!-- RouteHookManager&#45;&gt;ComponentBase -->
<g id="edge78" class="edge"><title>RouteHookManager&#45;&gt;ComponentBase</title>
<path fill="none" stroke="black" stroke-dasharray="1,5" d="M907.736,-551.139C923.092,-555.02 938.341,-561.923 948.694,-574 1021.85,-659.343 1070.54,-1495.42 1079.53,-1661.43"/>
<polygon fill="black" stroke="black" points="1076.05,-1662 1080.09,-1671.79 1083.04,-1661.62 1076.05,-1662"/>
</g>
<!-- RouteHookRewrite -->
<g id="node60" class="node"><title>RouteHookRewrite</title>
<polygon fill="none" stroke="black" points="659.555,-1105 549.555,-1105 549.555,-1101 545.555,-1101 545.555,-1097 549.555,-1097 549.555,-1077 545.555,-1077 545.555,-1073 549.555,-1073 549.555,-1069 659.555,-1069 659.555,-1105"/>
<polyline fill="none" stroke="black" points="549.555,-1101 553.555,-1101 553.555,-1097 549.555,-1097 "/>
<polyline fill="none" stroke="black" points="549.555,-1077 553.555,-1077 553.555,-1073 549.555,-1073 "/>
<text text-anchor="middle" x="604.555" y="-1083.9" font-family="Times,serif" font-size="12.00">RouteHookRewrite</text>
</g>
<!-- RouteHookRewrite&#45;&gt;ComponentBase -->
<g id="edge79" class="edge"><title>RouteHookRewrite&#45;&gt;ComponentBase</title>
<path fill="none" stroke="black" stroke-dasharray="1,5" d="M659.838,-1085.84C745.636,-1085.17 907.135,-1089.05 948.694,-1126 1030.82,-1199.01 1069.17,-1558.31 1078.63,-1661.96"/>
<polygon fill="black" stroke="black" points="1075.15,-1662.33 1079.53,-1671.98 1082.13,-1661.71 1075.15,-1662.33"/>
</g>
<!-- SimpleModel -->
<g id="node61" class="node"><title>SimpleModel</title>
<polygon fill="none" stroke="black" points="659.055,-403 550.055,-403 550.055,-399 546.055,-399 546.055,-395 550.055,-395 550.055,-375 546.055,-375 546.055,-371 550.055,-371 550.055,-367 659.055,-367 659.055,-403"/>
<polyline fill="none" stroke="black" points="550.055,-399 554.055,-399 554.055,-395 550.055,-395 "/>
<polyline fill="none" stroke="black" points="550.055,-375 554.055,-375 554.055,-371 550.055,-371 "/>
<text text-anchor="middle" x="604.555" y="-381.9" font-family="Times,serif" font-size="12.00">SimpleModel(todo)</text>
</g>
<!-- SimpleModel&#45;&gt;ComponentBase -->
<g id="edge80" class="edge"><title>SimpleModel&#45;&gt;ComponentBase</title>
<path fill="none" stroke="black" stroke-dasharray="1,5" d="M659.302,-383.765C682.804,-386.211 708.625,-393.512 724.694,-412 787.891,-484.706 696.835,-771.876 760.694,-844 817.263,-907.89 889.634,-821.406 948.694,-883 1058.97,-998.01 1077.61,-1531.73 1080.52,-1661.5"/>
<polygon fill="black" stroke="black" points="1077.03,-1661.88 1080.74,-1671.8 1084.03,-1661.73 1077.03,-1661.88"/>
</g>
<!-- SimpleModel&#45;&gt;Db_Db -->
<g id="edge93" class="edge"><title>SimpleModel&#45;&gt;Db_Db</title>
<path fill="none" stroke="black" stroke-dasharray="5,2" d="M659.255,-385.575C682.456,-382.944 708.045,-375.678 724.694,-358 792.322,-286.193 704.455,-220.037 760.694,-139 775.2,-118.098 801.233,-104.643 821.41,-96.8315"/>
<polygon fill="black" stroke="black" points="822.836,-100.038 831.051,-93.3471 820.457,-93.4544 822.836,-100.038"/>
</g>
<!-- StaticReplacer -->
<g id="node62" class="node"><title>StaticReplacer</title>
<polygon fill="none" stroke="black" points="647.055,-1051 562.055,-1051 562.055,-1047 558.055,-1047 558.055,-1043 562.055,-1043 562.055,-1023 558.055,-1023 558.055,-1019 562.055,-1019 562.055,-1015 647.055,-1015 647.055,-1051"/>
<polyline fill="none" stroke="black" points="562.055,-1047 566.055,-1047 566.055,-1043 562.055,-1043 "/>
<polyline fill="none" stroke="black" points="562.055,-1023 566.055,-1023 566.055,-1019 562.055,-1019 "/>
<text text-anchor="middle" x="604.555" y="-1029.9" font-family="Times,serif" font-size="12.00">StaticReplacer</text>
</g>
<!-- StaticReplacer&#45;&gt;ComponentBase -->
<g id="edge81" class="edge"><title>StaticReplacer&#45;&gt;ComponentBase</title>
<path fill="none" stroke="black" stroke-dasharray="1,5" d="M647.061,-1036.53C733.558,-1044.27 926.915,-1063.64 948.694,-1084 1035.12,-1164.78 1070.67,-1553.25 1079.02,-1661.78"/>
<polygon fill="black" stroke="black" points="1075.54,-1662.24 1079.78,-1671.95 1082.52,-1661.71 1075.54,-1662.24"/>
</g>
<!-- StrictCheck -->
<g id="node63" class="node"><title>StrictCheck</title>
<polygon fill="none" stroke="black" points="640.555,-835 568.555,-835 568.555,-831 564.555,-831 564.555,-827 568.555,-827 568.555,-807 564.555,-807 564.555,-803 568.555,-803 568.555,-799 640.555,-799 640.555,-835"/>
<polyline fill="none" stroke="black" points="568.555,-831 572.555,-831 572.555,-827 568.555,-827 "/>
<polyline fill="none" stroke="black" points="568.555,-807 572.555,-807 572.555,-803 568.555,-803 "/>
<text text-anchor="middle" x="604.555" y="-813.9" font-family="Times,serif" font-size="12.00">StrictCheck</text>
</g>
<!-- StrictCheck&#45;&gt;ComponentBase -->
<g id="edge82" class="edge"><title>StrictCheck&#45;&gt;ComponentBase</title>
<path fill="none" stroke="black" stroke-dasharray="1,5" d="M640.707,-816.899C666.552,-818.585 701.133,-824.736 724.694,-844 754.879,-868.68 730.285,-899.598 760.694,-924 827.249,-977.408 889.097,-901.925 948.694,-963 1048.5,-1065.28 1074.82,-1540.17 1079.97,-1661.64"/>
<polygon fill="black" stroke="black" points="1076.49,-1662.11 1080.39,-1671.96 1083.48,-1661.83 1076.49,-1662.11"/>
</g>
<!-- X_DbManager -->
<g id="node67" class="node"><title>X_DbManager</title>
<polygon fill="none" stroke="black" points="922.694,-829 760.694,-829 760.694,-805 922.694,-805 922.694,-799 940.694,-817 922.694,-835 922.694,-829"/>
<text text-anchor="middle" x="850.694" y="-813.9" font-family="Times,serif" font-size="12.00">DuckPhp\Component\DbManager</text>
</g>
<!-- StrictCheck&#45;&gt;X_DbManager -->
<g id="edge94" class="edge"><title>StrictCheck&#45;&gt;X_DbManager</title>
<path fill="none" stroke="black" d="M640.795,-817C669.463,-817 711.378,-817 750.152,-817"/>
<polygon fill="black" stroke="black" points="750.46,-820.5 760.46,-817 750.46,-813.5 750.46,-820.5"/>
</g>
<!-- X_Core_Configer -->
<g id="node64" class="node"><title>X_Core_Configer</title>
<polygon fill="none" stroke="black" points="653.055,-181 538.055,-181 538.055,-157 653.055,-157 653.055,-151 671.055,-169 653.055,-187 653.055,-181"/>
<text text-anchor="middle" x="604.555" y="-165.9" font-family="Times,serif" font-size="12.00">DuckPhp\Core\Configer</text>
</g>
</g>
</svg>
