<?xml version="1.0" encoding="UTF-8" standalone="no"?>
<!DOCTYPE svg PUBLIC "-//W3C//DTD SVG 1.1//EN"
 "http://www.w3.org/Graphics/SVG/1.1/DTD/svg11.dtd">
<!-- Generated by graphviz version 2.38.0 (20140413.2041)
 -->
<!-- Title: DuckPhp Pages: 1 -->
<svg width="1251pt" height="2571pt"
 viewBox="0.00 0.00 1251.24 2571.00" xmlns="http://www.w3.org/2000/svg" xmlns:xlink="http://www.w3.org/1999/xlink">
<g id="graph0" class="graph" transform="scale(1 1) rotate(0) translate(4 2567)">
<title>DuckPhp</title>
<polygon fill="white" stroke="none" points="-4,4 -4,-2567 1247.24,-2567 1247.24,4 -4,4"/>
<g id="clust1" class="cluster"><title>cluster_SingletonEx</title>
<polygon fill="none" stroke="black" points="8,-807 8,-934 194.632,-934 194.632,-807 8,-807"/>
<text text-anchor="middle" x="101.316" y="-920.4" font-family="Times,serif" font-size="12.00">[DuckPhp\SingletonEx]</text>
</g>
<g id="clust2" class="cluster"><title>cluster_Core</title>
<polygon fill="none" stroke="black" points="260.772,-1992 260.772,-2429 1235.24,-2429 1235.24,-1992 260.772,-1992"/>
<text text-anchor="middle" x="748.008" y="-2415.4" font-family="Times,serif" font-size="12.00">[DuckPhp\Core]</text>
</g>
<g id="clust3" class="cluster"><title>cluster_Helper</title>
<polygon fill="none" stroke="black" points="8.87057,-2185 8.87057,-2474 193.761,-2474 193.761,-2185 8.87057,-2185"/>
<text text-anchor="middle" x="101.316" y="-2460.4" font-family="Times,serif" font-size="12.00">[DuckPhp\Helper]</text>
</g>
<g id="clust4" class="cluster"><title>cluster_Db</title>
<polygon fill="none" stroke="black" points="747.495,-116 747.495,-243 1086.24,-243 1086.24,-116 747.495,-116"/>
<text text-anchor="middle" x="916.87" y="-229.4" font-family="Times,serif" font-size="12.00">[DuckPhp\Db]</text>
</g>
<g id="clust5" class="cluster"><title>cluster_HttpServer</title>
<polygon fill="none" stroke="black" points="423.876,-8 423.876,-243 650.554,-243 650.554,-8 423.876,-8"/>
<text text-anchor="middle" x="537.215" y="-229.4" font-family="Times,serif" font-size="12.00">[DuckPhp\HttpServer]</text>
</g>
<g id="clust6" class="cluster"><title>cluster_Component</title>
<polygon fill="none" stroke="black" points="214.632,-1470 214.632,-1975 593.967,-1975 593.967,-1470 214.632,-1470"/>
<text text-anchor="middle" x="404.299" y="-1961.4" font-family="Times,serif" font-size="12.00">[DuckPhp\Component]</text>
</g>
<g id="clust7" class="cluster"><title>cluster_DuckPhp</title>
<polygon fill="none" stroke="black" points="39.3406,-1740 39.3406,-1813 163.291,-1813 163.291,-1740 39.3406,-1740"/>
<text text-anchor="middle" x="101.316" y="-1799.4" font-family="Times,serif" font-size="12.00">[DuckPhp]</text>
</g>
<g id="clust8" class="cluster"><title>cluster_ThrowOn</title>
<polygon fill="none" stroke="black" points="18.4469,-2482 18.4469,-2555 184.185,-2555 184.185,-2482 18.4469,-2482"/>
<text text-anchor="middle" x="101.316" y="-2541.4" font-family="Times,serif" font-size="12.00">[DuckPhp\ThrowOn]</text>
</g>
<g id="clust9" class="cluster"><title>cluster_Ext</title>
<polygon fill="none" stroke="black" points="456.715,-471 456.715,-1462 881.354,-1462 881.354,-471 456.715,-471"/>
<text text-anchor="middle" x="669.034" y="-1448.4" font-family="Times,serif" font-size="12.00">[DuckPhp\Ext]</text>
</g>
<!-- SingletonExTrait -->
<g id="node1" class="node"><title>SingletonExTrait</title>
<polygon fill="lightgrey" stroke="black" points="101.316,-905 16.1836,-887 101.316,-869 186.448,-887 101.316,-905"/>
<polyline fill="none" stroke="black" points="27.924,-889.482 27.924,-884.518 "/>
<polyline fill="none" stroke="black" points="89.5756,-871.482 113.056,-871.482 "/>
<polyline fill="none" stroke="black" points="174.708,-884.518 174.708,-889.482 "/>
<polyline fill="none" stroke="black" points="113.056,-902.518 89.5756,-902.518 "/>
<text text-anchor="middle" x="101.316" y="-883.9" font-family="Times,serif" font-size="12.00">SingletonExTrait</text>
</g>
<!-- SimpleReplacer -->
<g id="node2" class="node"><title>SimpleReplacer</title>
<ellipse fill="none" stroke="black" cx="101.316" cy="-833" rx="56.7683" ry="18"/>
<text text-anchor="middle" x="101.316" y="-829.9" font-family="Times,serif" font-size="12.00">SimpleReplacer</text>
</g>
<!-- App -->
<g id="node3" class="node"><title>App</title>
<polygon fill="lightgrey" stroke="black" points="301.854,-2232 268.69,-2214 301.854,-2196 335.018,-2214 301.854,-2232"/>
<polyline fill="none" stroke="black" points="279.237,-2219.72 279.237,-2208.28 "/>
<polyline fill="none" stroke="black" points="291.307,-2201.72 312.401,-2201.72 "/>
<polyline fill="none" stroke="black" points="324.471,-2208.28 324.471,-2219.72 "/>
<polyline fill="none" stroke="black" points="312.401,-2226.28 291.307,-2226.28 "/>
<text text-anchor="middle" x="301.854" y="-2210.9" font-family="Times,serif" font-size="12.00">App</text>
</g>
<!-- KernelTrait -->
<g id="node4" class="node"><title>KernelTrait</title>
<polygon fill="none" stroke="black" points="537.215,-2232 475.593,-2214 537.215,-2196 598.837,-2214 537.215,-2232"/>
<text text-anchor="middle" x="537.215" y="-2210.9" font-family="Times,serif" font-size="12.00">KernelTrait</text>
</g>
<!-- App&#45;&gt;KernelTrait -->
<g id="edge8" class="edge"><title>App&#45;&gt;KernelTrait</title>
<path fill="none" stroke="black" d="M335.302,-2214C368.693,-2214 421.791,-2214 465.017,-2214"/>
<polygon fill="black" stroke="black" points="465.207,-2217.5 475.207,-2214 465.207,-2210.5 465.207,-2217.5"/>
</g>
<!-- AutoLoader -->
<g id="node5" class="node"><title>AutoLoader</title>
<polygon fill="lightgrey" stroke="black" points="783.354,-2360 719.009,-2342 783.354,-2324 847.698,-2342 783.354,-2360"/>
<polyline fill="none" stroke="black" points="730.565,-2345.23 730.565,-2338.77 "/>
<polyline fill="none" stroke="black" points="771.797,-2327.23 794.91,-2327.23 "/>
<polyline fill="none" stroke="black" points="836.142,-2338.77 836.142,-2345.23 "/>
<polyline fill="none" stroke="black" points="794.91,-2356.77 771.797,-2356.77 "/>
<text text-anchor="middle" x="783.354" y="-2338.9" font-family="Times,serif" font-size="12.00">AutoLoader</text>
</g>
<!-- App&#45;&gt;AutoLoader -->
<g id="edge11" class="edge"><title>App&#45;&gt;AutoLoader</title>
<path fill="none" stroke="black" d="M319.776,-2222.44C341.651,-2232.92 381.202,-2250.48 417.076,-2259 521.408,-2283.79 559.616,-2236.87 657.354,-2281 677.412,-2290.06 674.317,-2303.96 693.354,-2315 706.054,-2322.37 720.96,-2327.91 734.903,-2331.99"/>
<polygon fill="black" stroke="black" points="734.272,-2335.44 744.841,-2334.71 736.119,-2328.69 734.272,-2335.44"/>
</g>
<!-- ExceptionManager -->
<g id="node6" class="node"><title>ExceptionManager</title>
<polygon fill="none" stroke="black" points="836.854,-2198 729.854,-2198 729.854,-2194 725.854,-2194 725.854,-2190 729.854,-2190 729.854,-2170 725.854,-2170 725.854,-2166 729.854,-2166 729.854,-2162 836.854,-2162 836.854,-2198"/>
<polyline fill="none" stroke="black" points="729.854,-2194 733.854,-2194 733.854,-2190 729.854,-2190 "/>
<polyline fill="none" stroke="black" points="729.854,-2170 733.854,-2170 733.854,-2166 729.854,-2166 "/>
<text text-anchor="middle" x="783.354" y="-2176.9" font-family="Times,serif" font-size="12.00">ExceptionManager</text>
</g>
<!-- App&#45;&gt;ExceptionManager -->
<g id="edge14" class="edge"><title>App&#45;&gt;ExceptionManager</title>
<path fill="none" stroke="black" d="M314.14,-2202.22C333.218,-2183.27 373.992,-2146.73 417.076,-2133 518.827,-2100.58 553.978,-2106.21 657.354,-2133 675.072,-2137.59 676.501,-2145.86 693.354,-2153 701.761,-2156.56 710.796,-2159.87 719.772,-2162.86"/>
<polygon fill="black" stroke="black" points="718.864,-2166.24 729.456,-2165.97 721.009,-2159.58 718.864,-2166.24"/>
</g>
<!-- View -->
<g id="node7" class="node"><title>View</title>
<polygon fill="none" stroke="black" points="810.354,-2090 756.354,-2090 756.354,-2086 752.354,-2086 752.354,-2082 756.354,-2082 756.354,-2062 752.354,-2062 752.354,-2058 756.354,-2058 756.354,-2054 810.354,-2054 810.354,-2090"/>
<polyline fill="none" stroke="black" points="756.354,-2086 760.354,-2086 760.354,-2082 756.354,-2082 "/>
<polyline fill="none" stroke="black" points="756.354,-2062 760.354,-2062 760.354,-2058 756.354,-2058 "/>
<text text-anchor="middle" x="783.354" y="-2068.9" font-family="Times,serif" font-size="12.00">View</text>
</g>
<!-- App&#45;&gt;View -->
<g id="edge17" class="edge"><title>App&#45;&gt;View</title>
<path fill="none" stroke="black" d="M310.343,-2200.12C325.967,-2172.77 364.963,-2112.48 417.076,-2088 446.274,-2074.29 659.406,-2072.26 745.964,-2072.01"/>
<polygon fill="black" stroke="black" points="746.12,-2075.51 756.112,-2071.99 746.104,-2068.51 746.12,-2075.51"/>
</g>
<!-- Configer -->
<g id="node8" class="node"><title>Configer</title>
<polygon fill="none" stroke="black" points="812.854,-2306 753.854,-2306 753.854,-2302 749.854,-2302 749.854,-2298 753.854,-2298 753.854,-2278 749.854,-2278 749.854,-2274 753.854,-2274 753.854,-2270 812.854,-2270 812.854,-2306"/>
<polyline fill="none" stroke="black" points="753.854,-2302 757.854,-2302 757.854,-2298 753.854,-2298 "/>
<polyline fill="none" stroke="black" points="753.854,-2278 757.854,-2278 757.854,-2274 753.854,-2274 "/>
<text text-anchor="middle" x="783.354" y="-2284.9" font-family="Times,serif" font-size="12.00">Configer</text>
</g>
<!-- App&#45;&gt;Configer -->
<g id="edge12" class="edge"><title>App&#45;&gt;Configer</title>
<path fill="none" stroke="black" d="M324.159,-2219.9C346.976,-2226.02 384.329,-2235.45 417.076,-2241 522.933,-2258.94 551.022,-2251.13 657.354,-2266 686.378,-2270.06 718.983,-2275.84 743.615,-2280.46"/>
<polygon fill="black" stroke="black" points="743.173,-2283.93 753.649,-2282.35 744.474,-2277.06 743.173,-2283.93"/>
</g>
<!-- Logger -->
<g id="node9" class="node"><title>Logger</title>
<polygon fill="none" stroke="black" points="564.215,-2326 510.215,-2326 510.215,-2322 506.215,-2322 506.215,-2318 510.215,-2318 510.215,-2298 506.215,-2298 506.215,-2294 510.215,-2294 510.215,-2290 564.215,-2290 564.215,-2326"/>
<polyline fill="none" stroke="black" points="510.215,-2322 514.215,-2322 514.215,-2318 510.215,-2318 "/>
<polyline fill="none" stroke="black" points="510.215,-2298 514.215,-2298 514.215,-2294 510.215,-2294 "/>
<text text-anchor="middle" x="537.215" y="-2304.9" font-family="Times,serif" font-size="12.00">Logger</text>
</g>
<!-- App&#45;&gt;Logger -->
<g id="edge13" class="edge"><title>App&#45;&gt;Logger</title>
<path fill="none" stroke="black" d="M321.698,-2221.46C337.87,-2228.14 361.581,-2238.62 381.076,-2250 398.121,-2259.95 399.253,-2267.52 417.076,-2276 443.646,-2288.64 476.007,-2296.93 500.293,-2301.89"/>
<polygon fill="black" stroke="black" points="499.681,-2305.34 510.167,-2303.82 501.024,-2298.47 499.681,-2305.34"/>
</g>
<!-- Route -->
<g id="node10" class="node"><title>Route</title>
<polygon fill="lightgrey" stroke="black" points="783.354,-2036 744.002,-2018 783.354,-2000 822.706,-2018 783.354,-2036"/>
<polyline fill="none" stroke="black" points="754.914,-2022.99 754.914,-2013.01 "/>
<polyline fill="none" stroke="black" points="772.441,-2004.99 794.266,-2004.99 "/>
<polyline fill="none" stroke="black" points="811.793,-2013.01 811.793,-2022.99 "/>
<polyline fill="none" stroke="black" points="794.266,-2031.01 772.441,-2031.01 "/>
<text text-anchor="middle" x="783.354" y="-2014.9" font-family="Times,serif" font-size="12.00">Route</text>
</g>
<!-- App&#45;&gt;Route -->
<g id="edge15" class="edge"><title>App&#45;&gt;Route</title>
<path fill="none" stroke="black" d="M309.313,-2199.91C323.813,-2170.05 362.048,-2100.59 417.076,-2069 521.263,-2009.19 668.934,-2009.65 740.39,-2014.17"/>
<polygon fill="black" stroke="black" points="740.558,-2017.69 750.776,-2014.89 741.042,-2010.71 740.558,-2017.69"/>
</g>
<!-- RuntimeState -->
<g id="node11" class="node"><title>RuntimeState</title>
<polygon fill="none" stroke="black" points="823.354,-2144 743.354,-2144 743.354,-2140 739.354,-2140 739.354,-2136 743.354,-2136 743.354,-2116 739.354,-2116 739.354,-2112 743.354,-2112 743.354,-2108 823.354,-2108 823.354,-2144"/>
<polyline fill="none" stroke="black" points="743.354,-2140 747.354,-2140 747.354,-2136 743.354,-2136 "/>
<polyline fill="none" stroke="black" points="743.354,-2116 747.354,-2116 747.354,-2112 743.354,-2112 "/>
<text text-anchor="middle" x="783.354" y="-2122.9" font-family="Times,serif" font-size="12.00">RuntimeState</text>
</g>
<!-- App&#45;&gt;RuntimeState -->
<g id="edge16" class="edge"><title>App&#45;&gt;RuntimeState</title>
<path fill="none" stroke="black" d="M311.635,-2201C328.65,-2177.11 368.724,-2126.98 417.076,-2108 516.483,-2068.98 550.837,-2100.37 657.354,-2108 682.387,-2109.79 710.026,-2113.58 732.934,-2117.22"/>
<polygon fill="black" stroke="black" points="732.669,-2120.73 743.101,-2118.88 733.793,-2113.82 732.669,-2120.73"/>
</g>
<!-- SystemWrapperTrait -->
<g id="node12" class="node"><title>SystemWrapperTrait</title>
<polygon fill="none" stroke="black" points="537.215,-2178 436.983,-2160 537.215,-2142 637.446,-2160 537.215,-2178"/>
<text text-anchor="middle" x="537.215" y="-2156.9" font-family="Times,serif" font-size="12.00">SystemWrapperTrait</text>
</g>
<!-- App&#45;&gt;SystemWrapperTrait -->
<g id="edge10" class="edge"><title>App&#45;&gt;SystemWrapperTrait</title>
<path fill="none" stroke="black" d="M325.595,-2208.56C348.636,-2203.06 385.313,-2194.35 417.076,-2187 438.384,-2182.07 461.858,-2176.73 482.295,-2172.11"/>
<polygon fill="black" stroke="black" points="483.077,-2175.52 492.061,-2169.9 481.536,-2168.69 483.077,-2175.52"/>
</g>
<!-- ExtendableStaticCallTrait -->
<g id="node13" class="node"><title>ExtendableStaticCallTrait</title>
<polygon fill="none" stroke="black" points="537.215,-2400 416.937,-2382 537.215,-2364 657.493,-2382 537.215,-2400"/>
<text text-anchor="middle" x="537.215" y="-2378.9" font-family="Times,serif" font-size="12.00">ExtendableStaticCallTrait</text>
</g>
<!-- App&#45;&gt;ExtendableStaticCallTrait -->
<g id="edge9" class="edge"><title>App&#45;&gt;ExtendableStaticCallTrait</title>
<path fill="none" stroke="black" d="M325.595,-2219.32C342.952,-2224.47 366.318,-2233.92 381.076,-2250 413.015,-2284.8 382.315,-2318.02 417.076,-2350 427.897,-2359.96 441.482,-2366.87 455.572,-2371.67"/>
<polygon fill="black" stroke="black" points="454.793,-2375.09 465.379,-2374.66 456.834,-2368.39 454.793,-2375.09"/>
</g>
<!-- ComponentBase -->
<g id="node15" class="node"><title>ComponentBase</title>
<polygon fill="none" stroke="black" points="1041.3,-2036 950.299,-2036 946.299,-2032 946.299,-2000 1037.3,-2000 1041.3,-2004 1041.3,-2036"/>
<polyline fill="none" stroke="black" points="1037.3,-2032 946.299,-2032 "/>
<polyline fill="none" stroke="black" points="1037.3,-2032 1037.3,-2000 "/>
<polyline fill="none" stroke="black" points="1037.3,-2032 1041.3,-2036 "/>
<text text-anchor="middle" x="993.799" y="-2014.9" font-family="Times,serif" font-size="12.00">ComponentBase</text>
</g>
<!-- App&#45;&gt;ComponentBase -->
<g id="edge18" class="edge"><title>App&#45;&gt;ComponentBase</title>
<path fill="none" stroke="black" stroke-dasharray="1,5" d="M331.285,-2216.09C347.68,-2218.69 367.641,-2224.42 381.076,-2237 414.953,-2268.71 380.162,-2306.89 417.076,-2335 459.701,-2367.46 607.271,-2335.96 657.354,-2355 676.049,-2362.11 674.38,-2375.68 693.354,-2382 772.622,-2408.42 814.177,-2431.69 881.354,-2382 936.796,-2340.99 975.904,-2124.96 988.467,-2046.5"/>
<polygon fill="black" stroke="black" points="991.963,-2046.8 990.063,-2036.38 985.049,-2045.71 991.963,-2046.8"/>
</g>
<!-- KernelTrait&#45;&gt;AutoLoader -->
<g id="edge1" class="edge"><title>KernelTrait&#45;&gt;AutoLoader</title>
<path fill="none" stroke="black" d="M569.49,-2222.66C595.037,-2230.83 631.088,-2245 657.354,-2266 678.462,-2282.87 671.295,-2299.39 693.354,-2315 704.697,-2323.03 718.472,-2328.71 731.762,-2332.71"/>
<polygon fill="black" stroke="black" points="731.212,-2336.19 741.782,-2335.46 733.064,-2329.44 731.212,-2336.19"/>
</g>
<!-- KernelTrait&#45;&gt;ExceptionManager -->
<g id="edge3" class="edge"><title>KernelTrait&#45;&gt;ExceptionManager</title>
<path fill="none" stroke="black" d="M579.354,-2208.27C617.68,-2202.93 675.379,-2194.9 719.478,-2188.76"/>
<polygon fill="black" stroke="black" points="720.099,-2192.2 729.52,-2187.36 719.133,-2185.27 720.099,-2192.2"/>
</g>
<!-- KernelTrait&#45;&gt;View -->
<g id="edge6" class="edge"><title>KernelTrait&#45;&gt;View</title>
<path fill="none" stroke="black" d="M593.198,-2212.34C615.273,-2209.12 639.632,-2202.01 657.354,-2187 689.601,-2159.69 662.106,-2127.45 693.354,-2099 707.727,-2085.92 728.261,-2079.17 745.984,-2075.69"/>
<polygon fill="black" stroke="black" points="746.748,-2079.11 756.027,-2073.99 745.584,-2072.21 746.748,-2079.11"/>
</g>
<!-- KernelTrait&#45;&gt;Configer -->
<g id="edge2" class="edge"><title>KernelTrait&#45;&gt;Configer</title>
<path fill="none" stroke="black" d="M572.209,-2221.86C596.239,-2227.72 629.076,-2236.36 657.354,-2246 673.76,-2251.59 677.04,-2255.14 693.354,-2261 709.685,-2266.86 727.988,-2272.56 743.729,-2277.2"/>
<polygon fill="black" stroke="black" points="743.078,-2280.66 753.657,-2280.09 745.032,-2273.93 743.078,-2280.66"/>
</g>
<!-- KernelTrait&#45;&gt;Route -->
<g id="edge4" class="edge"><title>KernelTrait&#45;&gt;Route</title>
<path fill="none" stroke="black" d="M596.411,-2213.22C618.064,-2210.02 641.257,-2202.69 657.354,-2187 703.973,-2141.55 648.393,-2092.09 693.354,-2045 705.173,-2032.62 722.463,-2025.86 738.668,-2022.2"/>
<polygon fill="black" stroke="black" points="739.402,-2025.62 748.558,-2020.29 738.076,-2018.75 739.402,-2025.62"/>
</g>
<!-- KernelTrait&#45;&gt;RuntimeState -->
<g id="edge5" class="edge"><title>KernelTrait&#45;&gt;RuntimeState</title>
<path fill="none" stroke="black" d="M583.489,-2209.51C606.625,-2205.82 634.616,-2199.12 657.354,-2187 676.774,-2176.65 674.317,-2164.04 693.354,-2153 705.604,-2145.89 719.907,-2140.49 733.419,-2136.45"/>
<polygon fill="black" stroke="black" points="734.39,-2139.81 743.077,-2133.75 732.504,-2133.07 734.39,-2139.81"/>
</g>
<!-- Functions -->
<g id="node16" class="node"><title>Functions</title>
<ellipse fill="none" stroke="black" cx="783.354" cy="-2234" rx="38.5652" ry="18"/>
<text text-anchor="middle" x="783.354" y="-2230.9" font-family="Times,serif" font-size="12.00">Functions</text>
</g>
<!-- KernelTrait&#45;&gt;Functions -->
<g id="edge7" class="edge"><title>KernelTrait&#45;&gt;Functions</title>
<path fill="none" stroke="black" d="M585.577,-2217.88C628.62,-2221.41 691.798,-2226.58 734.877,-2230.11"/>
<polygon fill="black" stroke="black" points="734.848,-2233.62 745.1,-2230.95 735.419,-2226.64 734.848,-2233.62"/>
</g>
<!-- ExceptionManager&#45;&gt;ComponentBase -->
<g id="edge19" class="edge"><title>ExceptionManager&#45;&gt;ComponentBase</title>
<path fill="none" stroke="black" stroke-dasharray="1,5" d="M836.923,-2171.54C852.078,-2167.52 868.087,-2161.62 881.354,-2153 924.084,-2125.24 958.645,-2075.94 977.41,-2045.22"/>
<polygon fill="black" stroke="black" points="980.598,-2046.71 982.718,-2036.32 974.587,-2043.12 980.598,-2046.71"/>
</g>
<!-- View&#45;&gt;ComponentBase -->
<g id="edge23" class="edge"><title>View&#45;&gt;ComponentBase</title>
<path fill="none" stroke="black" stroke-dasharray="1,5" d="M810.754,-2065.16C842.127,-2057.03 895.36,-2043.24 936.182,-2032.67"/>
<polygon fill="black" stroke="black" points="937.205,-2036.02 946.008,-2030.12 935.45,-2029.24 937.205,-2036.02"/>
</g>
<!-- Configer&#45;&gt;ComponentBase -->
<g id="edge20" class="edge"><title>Configer&#45;&gt;ComponentBase</title>
<path fill="none" stroke="black" stroke-dasharray="1,5" d="M813.25,-2286.34C834.296,-2283.74 862.334,-2277.22 881.354,-2261 948.776,-2203.5 977.618,-2096.61 987.926,-2045.98"/>
<polygon fill="black" stroke="black" points="991.38,-2046.55 989.851,-2036.07 984.509,-2045.22 991.38,-2046.55"/>
</g>
<!-- Logger&#45;&gt;ComponentBase -->
<g id="edge24" class="edge"><title>Logger&#45;&gt;ComponentBase</title>
<path fill="none" stroke="black" stroke-dasharray="1,5" d="M564.438,-2311.82C589.36,-2316.18 627.379,-2324.76 657.354,-2340 675.669,-2349.31 673.978,-2362.17 693.354,-2369 732.753,-2382.9 847.638,-2393.67 881.354,-2369 934.96,-2329.78 974.964,-2123 988.133,-2046.49"/>
<polygon fill="black" stroke="black" points="991.659,-2046.63 989.879,-2036.19 984.758,-2045.46 991.659,-2046.63"/>
</g>
<!-- Route&#45;&gt;ComponentBase -->
<g id="edge21" class="edge"><title>Route&#45;&gt;ComponentBase</title>
<path fill="none" stroke="black" stroke-dasharray="1,5" d="M822.586,-2018C854.25,-2018 899.718,-2018 935.698,-2018"/>
<polygon fill="black" stroke="black" points="936.052,-2021.5 946.052,-2018 936.052,-2014.5 936.052,-2021.5"/>
</g>
<!-- RuntimeState&#45;&gt;ComponentBase -->
<g id="edge22" class="edge"><title>RuntimeState&#45;&gt;ComponentBase</title>
<path fill="none" stroke="black" stroke-dasharray="1,5" d="M823.743,-2118.41C841.84,-2114.08 863.252,-2107.74 881.354,-2099 912.101,-2084.15 943.214,-2060.67 964.722,-2042.81"/>
<polygon fill="black" stroke="black" points="967.088,-2045.39 972.474,-2036.27 962.574,-2040.04 967.088,-2045.39"/>
</g>
<!-- ComponentInterface -->
<g id="node14" class="node"><title>ComponentInterface</title>
<polygon fill="none" stroke="black" points="1221.24,-2036 1114.24,-2036 1114.24,-2000 1227.24,-2000 1227.24,-2030 1221.24,-2036"/>
<polyline fill="none" stroke="black" points="1221.24,-2036 1221.24,-2030 "/>
<polyline fill="none" stroke="black" points="1227.24,-2030 1221.24,-2030 "/>
<text text-anchor="middle" x="1170.74" y="-2014.9" font-family="Times,serif" font-size="12.00">ComponentInterface</text>
</g>
<!-- ComponentBase&#45;&gt;ComponentInterface -->
<g id="edge25" class="edge"><title>ComponentBase&#45;&gt;ComponentInterface</title>
<path fill="none" stroke="black" d="M1041.68,-2018C1060.82,-2018 1083.28,-2018 1104.01,-2018"/>
<polygon fill="black" stroke="black" points="1104.02,-2021.5 1114.02,-2018 1104.02,-2014.5 1104.02,-2021.5"/>
</g>
<!-- AppHelper -->
<g id="node17" class="node"><title>AppHelper</title>
<polygon fill="lightgrey" stroke="black" points="101.316,-2283 40.4359,-2265 101.316,-2247 162.196,-2265 101.316,-2283"/>
<polyline fill="none" stroke="black" points="51.9435,-2268.4 51.9435,-2261.6 "/>
<polyline fill="none" stroke="black" points="89.8084,-2250.4 112.824,-2250.4 "/>
<polyline fill="none" stroke="black" points="150.689,-2261.6 150.689,-2268.4 "/>
<polyline fill="none" stroke="black" points="112.824,-2279.6 89.8084,-2279.6 "/>
<text text-anchor="middle" x="101.316" y="-2261.9" font-family="Times,serif" font-size="12.00">AppHelper</text>
</g>
<!-- AppHelper&#45;&gt;App -->
<g id="edge26" class="edge"><title>AppHelper&#45;&gt;App</title>
<path fill="none" stroke="black" d="M134.656,-2256.69C171.818,-2247.15 232.402,-2231.58 269.251,-2222.12"/>
<polygon fill="black" stroke="black" points="270.16,-2225.5 278.975,-2219.62 268.419,-2218.72 270.16,-2225.5"/>
</g>
<!-- AppHelper&#45;&gt;ExtendableStaticCallTrait -->
<g id="edge31" class="edge"><title>AppHelper&#45;&gt;ExtendableStaticCallTrait</title>
<path fill="none" stroke="black" d="M141.001,-2271.41C195.586,-2281.11 297.842,-2301.64 381.076,-2332 397.881,-2338.13 400.353,-2343.65 417.076,-2350 436.516,-2357.38 458.348,-2363.77 477.961,-2368.85"/>
<polygon fill="black" stroke="black" points="477.136,-2372.26 487.69,-2371.32 478.855,-2365.47 477.136,-2372.26"/>
</g>
<!-- ControllerHelper -->
<g id="node18" class="node"><title>ControllerHelper</title>
<polygon fill="lightgrey" stroke="black" points="101.316,-2229 16.9251,-2211 101.316,-2193 185.707,-2211 101.316,-2229"/>
<polyline fill="none" stroke="black" points="28.6611,-2213.5 28.6611,-2208.5 "/>
<polyline fill="none" stroke="black" points="89.58,-2195.5 113.052,-2195.5 "/>
<polyline fill="none" stroke="black" points="173.971,-2208.5 173.971,-2213.5 "/>
<polyline fill="none" stroke="black" points="113.052,-2226.5 89.58,-2226.5 "/>
<text text-anchor="middle" x="101.316" y="-2207.9" font-family="Times,serif" font-size="12.00">ControllerHelper</text>
</g>
<!-- ControllerHelper&#45;&gt;App -->
<g id="edge27" class="edge"><title>ControllerHelper&#45;&gt;App</title>
<path fill="none" stroke="black" d="M180.214,-2212.18C207.251,-2212.59 236.509,-2213.03 259.44,-2213.37"/>
<polygon fill="black" stroke="black" points="259.449,-2216.87 269.5,-2213.53 259.554,-2209.88 259.449,-2216.87"/>
</g>
<!-- ControllerHelper&#45;&gt;ExtendableStaticCallTrait -->
<g id="edge32" class="edge"><title>ControllerHelper&#45;&gt;ExtendableStaticCallTrait</title>
<path fill="none" stroke="black" d="M139.21,-2220.99C161.109,-2226.89 189.432,-2234.46 214.632,-2241 288.476,-2260.18 320.92,-2236.07 381.076,-2283 407.73,-2303.79 390.581,-2329.01 417.076,-2350 429.4,-2359.77 444.454,-2366.56 459.659,-2371.29"/>
<polygon fill="black" stroke="black" points="459.07,-2374.76 469.645,-2374.11 460.971,-2368.02 459.07,-2374.76"/>
</g>
<!-- ModelHelper -->
<g id="node19" class="node"><title>ModelHelper</title>
<polygon fill="lightgrey" stroke="black" points="101.316,-2445 31.5243,-2427 101.316,-2409 171.108,-2427 101.316,-2445"/>
<polyline fill="none" stroke="black" points="43.144,-2430 43.144,-2424 "/>
<polyline fill="none" stroke="black" points="89.6962,-2412 112.936,-2412 "/>
<polyline fill="none" stroke="black" points="159.488,-2424 159.488,-2430 "/>
<polyline fill="none" stroke="black" points="112.936,-2442 89.6962,-2442 "/>
<text text-anchor="middle" x="101.316" y="-2423.9" font-family="Times,serif" font-size="12.00">ModelHelper</text>
</g>
<!-- ModelHelper&#45;&gt;App -->
<g id="edge28" class="edge"><title>ModelHelper&#45;&gt;App</title>
<path fill="none" stroke="black" d="M147.83,-2420.9C163.892,-2416.98 181.263,-2410.55 194.632,-2400 248.756,-2357.28 280.203,-2278.86 293.427,-2238.87"/>
<polygon fill="black" stroke="black" points="296.832,-2239.71 296.539,-2229.12 290.163,-2237.59 296.832,-2239.71"/>
</g>
<!-- ModelHelper&#45;&gt;ExtendableStaticCallTrait -->
<g id="edge33" class="edge"><title>ModelHelper&#45;&gt;ExtendableStaticCallTrait</title>
<path fill="none" stroke="black" d="M151.667,-2421.88C225.668,-2414.21 366.187,-2399.63 455.324,-2390.39"/>
<polygon fill="black" stroke="black" points="455.808,-2393.86 465.394,-2389.34 455.086,-2386.9 455.808,-2393.86"/>
</g>
<!-- ServiceHelper -->
<g id="node20" class="node"><title>ServiceHelper</title>
<polygon fill="lightgrey" stroke="black" points="101.316,-2391 28.0598,-2373 101.316,-2355 174.572,-2373 101.316,-2391"/>
<polyline fill="none" stroke="black" points="39.7131,-2375.86 39.7131,-2370.14 "/>
<polyline fill="none" stroke="black" points="89.6626,-2357.86 112.969,-2357.86 "/>
<polyline fill="none" stroke="black" points="162.919,-2370.14 162.919,-2375.86 "/>
<polyline fill="none" stroke="black" points="112.969,-2388.14 89.6626,-2388.14 "/>
<text text-anchor="middle" x="101.316" y="-2369.9" font-family="Times,serif" font-size="12.00">ServiceHelper</text>
</g>
<!-- ServiceHelper&#45;&gt;App -->
<g id="edge29" class="edge"><title>ServiceHelper&#45;&gt;App</title>
<path fill="none" stroke="black" d="M146.03,-2365.95C162.247,-2361.91 180.191,-2355.65 194.632,-2346 237.452,-2317.4 271.379,-2266.19 288.553,-2236.67"/>
<polygon fill="black" stroke="black" points="291.638,-2238.32 293.531,-2227.9 285.55,-2234.87 291.638,-2238.32"/>
</g>
<!-- ServiceHelper&#45;&gt;ExtendableStaticCallTrait -->
<g id="edge34" class="edge"><title>ServiceHelper&#45;&gt;ExtendableStaticCallTrait</title>
<path fill="none" stroke="black" d="M169.162,-2374.39C236.185,-2375.78 340.696,-2377.94 421.085,-2379.61"/>
<polygon fill="black" stroke="black" points="421.192,-2383.11 431.262,-2379.82 421.337,-2376.12 421.192,-2383.11"/>
</g>
<!-- ViewHelper -->
<g id="node21" class="node"><title>ViewHelper</title>
<polygon fill="lightgrey" stroke="black" points="101.316,-2337 36.2296,-2319 101.316,-2301 166.402,-2319 101.316,-2337"/>
<polyline fill="none" stroke="black" points="47.7955,-2322.2 47.7955,-2315.8 "/>
<polyline fill="none" stroke="black" points="89.7502,-2304.2 112.882,-2304.2 "/>
<polyline fill="none" stroke="black" points="154.837,-2315.8 154.837,-2322.2 "/>
<polyline fill="none" stroke="black" points="112.882,-2333.8 89.7502,-2333.8 "/>
<text text-anchor="middle" x="101.316" y="-2315.9" font-family="Times,serif" font-size="12.00">ViewHelper</text>
</g>
<!-- ViewHelper&#45;&gt;App -->
<g id="edge30" class="edge"><title>ViewHelper&#45;&gt;App</title>
<path fill="none" stroke="black" d="M139.365,-2311.31C156.684,-2306.93 177.266,-2300.58 194.632,-2292 227.442,-2275.79 260.723,-2249.38 281.075,-2231.85"/>
<polygon fill="black" stroke="black" points="283.498,-2234.38 288.716,-2225.16 278.887,-2229.11 283.498,-2234.38"/>
</g>
<!-- ViewHelper&#45;&gt;ExtendableStaticCallTrait -->
<g id="edge35" class="edge"><title>ViewHelper&#45;&gt;ExtendableStaticCallTrait</title>
<path fill="none" stroke="black" d="M144.71,-2325.16C219.217,-2335.97 374.359,-2358.5 465.383,-2371.72"/>
<polygon fill="black" stroke="black" points="464.942,-2375.19 475.341,-2373.16 465.948,-2368.26 464.942,-2375.19"/>
</g>
<!-- Db_Db -->
<g id="node22" class="node"><title>Db_Db</title>
<polygon fill="lightgrey" stroke="black" points="783.354,-214 755.636,-196 783.354,-178 811.071,-196 783.354,-214"/>
<polyline fill="none" stroke="black" points="764.876,-202 764.876,-190 "/>
<polyline fill="none" stroke="black" points="774.115,-184 792.593,-184 "/>
<polyline fill="none" stroke="black" points="801.832,-190 801.832,-202 "/>
<polyline fill="none" stroke="black" points="792.593,-208 774.115,-208 "/>
<text text-anchor="middle" x="783.354" y="-192.9" font-family="Times,serif" font-size="12.00">Db</text>
</g>
<!-- Db_DbAdvanceTrait -->
<g id="node23" class="node"><title>Db_DbAdvanceTrait</title>
<polygon fill="none" stroke="black" points="993.799,-214 909.408,-196 993.799,-178 1078.19,-196 993.799,-214"/>
<text text-anchor="middle" x="993.799" y="-192.9" font-family="Times,serif" font-size="12.00">DbAdvanceTrait</text>
</g>
<!-- Db_Db&#45;&gt;Db_DbAdvanceTrait -->
<g id="edge36" class="edge"><title>Db_Db&#45;&gt;Db_DbAdvanceTrait</title>
<path fill="none" stroke="black" d="M811.178,-196C833.601,-196 866.975,-196 899.019,-196"/>
<polygon fill="black" stroke="black" points="899.36,-199.5 909.36,-196 899.36,-192.5 899.36,-199.5"/>
</g>
<!-- Db_DbInterface -->
<g id="node24" class="node"><title>Db_DbInterface</title>
<polygon fill="none" stroke="black" points="1024.3,-160 957.299,-160 957.299,-124 1030.3,-124 1030.3,-154 1024.3,-160"/>
<polyline fill="none" stroke="black" points="1024.3,-160 1024.3,-154 "/>
<polyline fill="none" stroke="black" points="1030.3,-154 1024.3,-154 "/>
<text text-anchor="middle" x="993.799" y="-138.9" font-family="Times,serif" font-size="12.00">DbInterface</text>
</g>
<!-- Db_Db&#45;&gt;Db_DbInterface -->
<g id="edge37" class="edge"><title>Db_Db&#45;&gt;Db_DbInterface</title>
<path fill="none" stroke="black" d="M803.59,-191.017C836.01,-182.618 902.378,-165.425 947.24,-153.803"/>
<polygon fill="black" stroke="black" points="948.223,-157.164 957.025,-151.268 946.467,-150.387 948.223,-157.164"/>
</g>
<!-- AppInterface -->
<g id="node25" class="node"><title>AppInterface</title>
<polygon fill="none" stroke="black" points="570.715,-214 497.715,-214 497.715,-178 576.715,-178 576.715,-208 570.715,-214"/>
<polyline fill="none" stroke="black" points="570.715,-214 570.715,-208 "/>
<polyline fill="none" stroke="black" points="576.715,-208 570.715,-208 "/>
<text text-anchor="middle" x="537.215" y="-192.9" font-family="Times,serif" font-size="12.00">AppInterface</text>
</g>
<!-- HttpServer -->
<g id="node26" class="node"><title>HttpServer</title>
<polygon fill="lightgrey" stroke="black" points="537.215,-160 477.816,-142 537.215,-124 596.613,-142 537.215,-160"/>
<polyline fill="none" stroke="black" points="489.301,-145.48 489.301,-138.52 "/>
<polyline fill="none" stroke="black" points="525.731,-127.48 548.699,-127.48 "/>
<polyline fill="none" stroke="black" points="585.129,-138.52 585.129,-145.48 "/>
<polyline fill="none" stroke="black" points="548.699,-156.52 525.731,-156.52 "/>
<text text-anchor="middle" x="537.215" y="-138.9" font-family="Times,serif" font-size="12.00">HttpServer</text>
</g>
<!-- ServerInterface -->
<g id="node27" class="node"><title>ServerInterface</title>
<polygon fill="none" stroke="black" points="575.715,-106 492.715,-106 492.715,-70 581.715,-70 581.715,-100 575.715,-106"/>
<polyline fill="none" stroke="black" points="575.715,-106 575.715,-100 "/>
<polyline fill="none" stroke="black" points="581.715,-100 575.715,-100 "/>
<text text-anchor="middle" x="537.215" y="-84.9" font-family="Times,serif" font-size="12.00">ServerInterface</text>
</g>
<!-- FileRunnerTrait -->
<g id="node28" class="node"><title>FileRunnerTrait</title>
<polygon fill="none" stroke="black" points="537.215,-52 432.036,-34 537.215,-16 642.393,-34 537.215,-52"/>
<text text-anchor="middle" x="537.215" y="-30.9" font-family="Times,serif" font-size="12.00">FileRunnerTrait(todo)</text>
</g>
<!-- AppPluginTrait -->
<g id="node29" class="node"><title>AppPluginTrait</title>
<polygon fill="lightgrey" stroke="black" points="301.854,-1946 222.409,-1928 301.854,-1910 381.299,-1928 301.854,-1946"/>
<polyline fill="none" stroke="black" points="234.113,-1930.65 234.113,-1925.35 "/>
<polyline fill="none" stroke="black" points="290.151,-1912.65 313.557,-1912.65 "/>
<polyline fill="none" stroke="black" points="369.595,-1925.35 369.595,-1930.65 "/>
<polyline fill="none" stroke="black" points="313.557,-1943.35 290.151,-1943.35 "/>
<text text-anchor="middle" x="301.854" y="-1924.9" font-family="Times,serif" font-size="12.00">AppPluginTrait</text>
</g>
<!-- AppPluginTrait&#45;&gt;App -->
<g id="edge41" class="edge"><title>AppPluginTrait&#45;&gt;App</title>
<path fill="none" stroke="black" stroke-dasharray="5,2" d="M301.854,-1946.15C301.854,-2026 301.854,-2105.86 301.854,-2185.71"/>
<polygon fill="black" stroke="black" points="298.354,-2185.95 301.854,-2195.95 305.354,-2185.95 298.354,-2185.95"/>
</g>
<!-- AppPluginTrait&#45;&gt;View -->
<g id="edge39" class="edge"><title>AppPluginTrait&#45;&gt;View</title>
<path fill="none" stroke="black" stroke-dasharray="5,2" d="M327.202,-1940.38C349.923,-1951.46 385.038,-1967.4 417.076,-1977 520.997,-2008.14 557.098,-1978.55 657.354,-2020 675.356,-2027.44 675.82,-2036.51 693.354,-2045 710.084,-2053.1 729.763,-2059.37 746.356,-2063.83"/>
<polygon fill="black" stroke="black" points="745.679,-2067.26 756.235,-2066.36 747.421,-2060.49 745.679,-2067.26"/>
</g>
<!-- AppPluginTrait&#45;&gt;Configer -->
<g id="edge38" class="edge"><title>AppPluginTrait&#45;&gt;Configer</title>
<path fill="none" stroke="black" stroke-dasharray="5,2" d="M320.721,-1941.9C347.722,-1962.81 397.812,-2001.15 417.076,-2013 518.748,-2075.54 581.29,-2041.01 657.354,-2133 695.011,-2178.54 651.994,-2218.79 693.354,-2261 706.579,-2274.5 726.312,-2281.3 743.839,-2284.7"/>
<polygon fill="black" stroke="black" points="743.404,-2288.18 753.838,-2286.34 744.535,-2281.27 743.404,-2288.18"/>
</g>
<!-- AppPluginTrait&#45;&gt;Route -->
<g id="edge40" class="edge"><title>AppPluginTrait&#45;&gt;Route</title>
<path fill="none" stroke="black" stroke-dasharray="5,2" d="M355.5,-1933.86C425.075,-1942.1 551.238,-1958.74 657.354,-1982 689.345,-1989.01 725.204,-1999.63 750.283,-2007.52"/>
<polygon fill="black" stroke="black" points="749.406,-2010.92 759.996,-2010.61 751.527,-2004.25 749.406,-2010.92"/>
</g>
<!-- Cache -->
<g id="node30" class="node"><title>Cache</title>
<polygon fill="none" stroke="black" points="328.854,-1784 274.854,-1784 274.854,-1780 270.854,-1780 270.854,-1776 274.854,-1776 274.854,-1756 270.854,-1756 270.854,-1752 274.854,-1752 274.854,-1748 328.854,-1748 328.854,-1784"/>
<polyline fill="none" stroke="black" points="274.854,-1780 278.854,-1780 278.854,-1776 274.854,-1776 "/>
<polyline fill="none" stroke="black" points="274.854,-1756 278.854,-1756 278.854,-1752 274.854,-1752 "/>
<text text-anchor="middle" x="301.854" y="-1762.9" font-family="Times,serif" font-size="12.00">Cache</text>
</g>
<!-- Cache&#45;&gt;ComponentBase -->
<g id="edge42" class="edge"><title>Cache&#45;&gt;ComponentBase</title>
<path fill="none" stroke="black" stroke-dasharray="1,5" d="M329.132,-1757.2C417.794,-1729.28 709.936,-1652.1 881.354,-1784 949.131,-1836.15 977.697,-1939.84 987.916,-1989.8"/>
<polygon fill="black" stroke="black" points="984.533,-1990.74 989.878,-1999.89 991.405,-1989.4 984.533,-1990.74"/>
</g>
<!-- Console -->
<g id="node31" class="node"><title>Console</title>
<polygon fill="lightgrey" stroke="black" points="537.215,-1930 488.71,-1912 537.215,-1894 585.72,-1912 537.215,-1930"/>
<polyline fill="none" stroke="black" points="499.96,-1916.17 499.96,-1907.83 "/>
<polyline fill="none" stroke="black" points="525.965,-1898.17 548.465,-1898.17 "/>
<polyline fill="none" stroke="black" points="574.47,-1907.83 574.47,-1916.17 "/>
<polyline fill="none" stroke="black" points="548.465,-1925.83 525.965,-1925.83 "/>
<text text-anchor="middle" x="537.215" y="-1908.9" font-family="Times,serif" font-size="12.00">Console</text>
</g>
<!-- DbManager -->
<g id="node32" class="node"><title>DbManager</title>
<polygon fill="none" stroke="black" points="338.854,-1676 264.854,-1676 264.854,-1672 260.854,-1672 260.854,-1668 264.854,-1668 264.854,-1648 260.854,-1648 260.854,-1644 264.854,-1644 264.854,-1640 338.854,-1640 338.854,-1676"/>
<polyline fill="none" stroke="black" points="264.854,-1672 268.854,-1672 268.854,-1668 264.854,-1668 "/>
<polyline fill="none" stroke="black" points="264.854,-1648 268.854,-1648 268.854,-1644 264.854,-1644 "/>
<text text-anchor="middle" x="301.854" y="-1654.9" font-family="Times,serif" font-size="12.00">DbManager</text>
</g>
<!-- DbManager&#45;&gt;ComponentBase -->
<g id="edge44" class="edge"><title>DbManager&#45;&gt;ComponentBase</title>
<path fill="none" stroke="black" stroke-dasharray="1,5" d="M339.077,-1649.3C437.83,-1627.86 715.442,-1583.04 881.354,-1711 970.725,-1779.93 988.493,-1927.27 991.976,-1989.41"/>
<polygon fill="black" stroke="black" points="988.491,-1989.83 992.461,-1999.65 995.484,-1989.5 988.491,-1989.83"/>
</g>
<!-- DbManager&#45;&gt;Db_Db -->
<g id="edge54" class="edge"><title>DbManager&#45;&gt;Db_Db</title>
<path fill="none" stroke="black" stroke-dasharray="5,2" d="M338.998,-1654.57C354.513,-1651.11 371.292,-1644.31 381.076,-1631 462.18,-1520.65 345.918,-516.009 417.076,-399 456.852,-333.594 679.258,-238.08 756.176,-206.539"/>
<polygon fill="black" stroke="black" points="757.688,-209.702 765.627,-202.686 755.045,-203.22 757.688,-209.702"/>
</g>
<!-- DuckPhpCommand -->
<g id="node33" class="node"><title>DuckPhpCommand</title>
<polygon fill="none" stroke="black" points="357.354,-1892 246.354,-1892 246.354,-1888 242.354,-1888 242.354,-1884 246.354,-1884 246.354,-1864 242.354,-1864 242.354,-1860 246.354,-1860 246.354,-1856 357.354,-1856 357.354,-1892"/>
<polyline fill="none" stroke="black" points="246.354,-1888 250.354,-1888 250.354,-1884 246.354,-1884 "/>
<polyline fill="none" stroke="black" points="246.354,-1864 250.354,-1864 250.354,-1860 246.354,-1860 "/>
<text text-anchor="middle" x="301.854" y="-1870.9" font-family="Times,serif" font-size="12.00">DuckPhpCommand</text>
</g>
<!-- DuckPhpCommand&#45;&gt;ComponentBase -->
<g id="edge43" class="edge"><title>DuckPhpCommand&#45;&gt;ComponentBase</title>
<path fill="none" stroke="black" stroke-dasharray="1,5" d="M357.533,-1861.21C366.026,-1857.57 374.236,-1852.93 381.076,-1847 407.514,-1824.09 387.213,-1795.22 417.076,-1777 508.235,-1721.37 553.642,-1751.55 657.354,-1777 766.434,-1803.77 792.624,-1825.14 881.354,-1894 918.287,-1922.66 952.979,-1964.52 973.556,-1991.51"/>
<polygon fill="black" stroke="black" points="970.919,-1993.83 979.726,-1999.72 976.513,-1989.62 970.919,-1993.83"/>
</g>
<!-- DuckPhpCommand&#45;&gt;HttpServer -->
<g id="edge53" class="edge"><title>DuckPhpCommand&#45;&gt;HttpServer</title>
<path fill="none" stroke="black" stroke-dasharray="5,2" d="M357.744,-1864.65C366.862,-1860.66 375.236,-1855.01 381.076,-1847 436.006,-1771.65 358.105,-241.228 417.076,-169 430.797,-152.194 452.577,-144.508 473.784,-141.337"/>
<polygon fill="black" stroke="black" points="474.263,-144.805 483.782,-140.152 473.439,-137.853 474.263,-144.805"/>
</g>
<!-- DuckPhpCommand&#45;&gt;Console -->
<g id="edge51" class="edge"><title>DuckPhpCommand&#45;&gt;Console</title>
<path fill="none" stroke="black" stroke-dasharray="5,2" d="M357.567,-1882.91C398.818,-1889.63 454.627,-1898.71 492.826,-1904.93"/>
<polygon fill="black" stroke="black" points="492.674,-1908.46 503.106,-1906.61 493.799,-1901.55 492.674,-1908.46"/>
</g>
<!-- Installer -->
<g id="node35" class="node"><title>Installer</title>
<polygon fill="none" stroke="black" points="564.215,-1876 510.215,-1876 510.215,-1872 506.215,-1872 506.215,-1868 510.215,-1868 510.215,-1848 506.215,-1848 506.215,-1844 510.215,-1844 510.215,-1840 564.215,-1840 564.215,-1876"/>
<polyline fill="none" stroke="black" points="510.215,-1872 514.215,-1872 514.215,-1868 510.215,-1868 "/>
<polyline fill="none" stroke="black" points="510.215,-1848 514.215,-1848 514.215,-1844 510.215,-1844 "/>
<text text-anchor="middle" x="537.215" y="-1854.9" font-family="Times,serif" font-size="12.00">Installer</text>
</g>
<!-- DuckPhpCommand&#45;&gt;Installer -->
<g id="edge52" class="edge"><title>DuckPhpCommand&#45;&gt;Installer</title>
<path fill="none" stroke="black" d="M357.567,-1870.25C401.404,-1867.24 461.681,-1863.11 499.794,-1860.5"/>
<polygon fill="black" stroke="black" points="500.187,-1863.98 509.924,-1859.8 499.708,-1856.99 500.187,-1863.98"/>
</g>
<!-- EventManager -->
<g id="node34" class="node"><title>EventManager</title>
<polygon fill="none" stroke="black" points="344.854,-1730 258.854,-1730 258.854,-1726 254.854,-1726 254.854,-1722 258.854,-1722 258.854,-1702 254.854,-1702 254.854,-1698 258.854,-1698 258.854,-1694 344.854,-1694 344.854,-1730"/>
<polyline fill="none" stroke="black" points="258.854,-1726 262.854,-1726 262.854,-1722 258.854,-1722 "/>
<polyline fill="none" stroke="black" points="258.854,-1702 262.854,-1702 262.854,-1698 258.854,-1698 "/>
<text text-anchor="middle" x="301.854" y="-1708.9" font-family="Times,serif" font-size="12.00">EventManager</text>
</g>
<!-- EventManager&#45;&gt;ComponentBase -->
<g id="edge45" class="edge"><title>EventManager&#45;&gt;ComponentBase</title>
<path fill="none" stroke="black" stroke-dasharray="1,5" d="M345.118,-1707.04C358.774,-1703.23 372.57,-1696.58 381.076,-1685 422.144,-1629.1 367.327,-485.334 417.076,-437 491.075,-365.105 805.878,-366.657 881.354,-437 999.515,-547.125 994.675,-1785.28 993.064,-1989.55"/>
<polygon fill="black" stroke="black" points="989.562,-1989.73 992.979,-1999.76 996.562,-1989.79 989.562,-1989.73"/>
</g>
<!-- Installer&#45;&gt;ComponentBase -->
<g id="edge46" class="edge"><title>Installer&#45;&gt;ComponentBase</title>
<path fill="none" stroke="black" stroke-dasharray="1,5" d="M564.552,-1862.75C588.899,-1867.43 625.951,-1875.28 657.354,-1885 761.525,-1917.24 879.118,-1967.13 943.721,-1995.76"/>
<polygon fill="black" stroke="black" points="942.683,-1999.13 953.242,-1999.99 945.528,-1992.73 942.683,-1999.13"/>
</g>
<!-- Pager -->
<g id="node36" class="node"><title>Pager</title>
<polygon fill="none" stroke="black" points="328.854,-1838 274.854,-1838 274.854,-1834 270.854,-1834 270.854,-1830 274.854,-1830 274.854,-1810 270.854,-1810 270.854,-1806 274.854,-1806 274.854,-1802 328.854,-1802 328.854,-1838"/>
<polyline fill="none" stroke="black" points="274.854,-1834 278.854,-1834 278.854,-1830 274.854,-1830 "/>
<polyline fill="none" stroke="black" points="274.854,-1810 278.854,-1810 278.854,-1806 274.854,-1806 "/>
<text text-anchor="middle" x="301.854" y="-1816.9" font-family="Times,serif" font-size="12.00">Pager</text>
</g>
<!-- Pager&#45;&gt;ComponentBase -->
<g id="edge47" class="edge"><title>Pager&#45;&gt;ComponentBase</title>
<path fill="none" stroke="black" stroke-dasharray="1,5" d="M329.154,-1818.38C346.902,-1815.77 369.181,-1809.22 381.076,-1793 424.658,-1733.57 364.264,-518.397 417.076,-467 454.045,-431.021 843.592,-431.854 881.354,-467 997.296,-574.911 994.321,-1788.41 993.021,-1989.77"/>
<polygon fill="black" stroke="black" points="989.521,-1989.82 992.952,-1999.84 996.521,-1989.87 989.521,-1989.82"/>
</g>
<!-- PagerInterface -->
<g id="node37" class="node"><title>PagerInterface</title>
<polygon fill="none" stroke="black" points="573.715,-1822 494.715,-1822 494.715,-1786 579.715,-1786 579.715,-1816 573.715,-1822"/>
<polyline fill="none" stroke="black" points="573.715,-1822 573.715,-1816 "/>
<polyline fill="none" stroke="black" points="579.715,-1816 573.715,-1816 "/>
<text text-anchor="middle" x="537.215" y="-1800.9" font-family="Times,serif" font-size="12.00">PagerInterface</text>
</g>
<!-- Pager&#45;&gt;PagerInterface -->
<g id="edge55" class="edge"><title>Pager&#45;&gt;PagerInterface</title>
<path fill="none" stroke="black" d="M329.17,-1818.2C366.705,-1815.62 436.387,-1810.84 484.475,-1807.55"/>
<polygon fill="black" stroke="black" points="484.953,-1811.02 494.69,-1806.85 484.474,-1804.04 484.953,-1811.02"/>
</g>
<!-- RouteHookPathInfoCompat -->
<g id="node38" class="node"><title>RouteHookPathInfoCompat</title>
<polygon fill="none" stroke="black" points="376.854,-1622 226.854,-1622 226.854,-1618 222.854,-1618 222.854,-1614 226.854,-1614 226.854,-1594 222.854,-1594 222.854,-1590 226.854,-1590 226.854,-1586 376.854,-1586 376.854,-1622"/>
<polyline fill="none" stroke="black" points="226.854,-1618 230.854,-1618 230.854,-1614 226.854,-1614 "/>
<polyline fill="none" stroke="black" points="226.854,-1594 230.854,-1594 230.854,-1590 226.854,-1590 "/>
<text text-anchor="middle" x="301.854" y="-1600.9" font-family="Times,serif" font-size="12.00">RouteHookPathInfoCompat</text>
</g>
<!-- RouteHookPathInfoCompat&#45;&gt;ComponentBase -->
<g id="edge48" class="edge"><title>RouteHookPathInfoCompat&#45;&gt;ComponentBase</title>
<path fill="none" stroke="black" stroke-dasharray="1,5" d="M372.469,-1585.88C375.694,-1583.3 378.607,-1580.36 381.076,-1577 459.924,-1469.82 321.585,-472.663 417.076,-380 491.119,-308.15 806.276,-311.232 881.354,-382 942.377,-439.52 985.488,-1777.41 991.956,-1989.73"/>
<polygon fill="black" stroke="black" points="988.458,-1989.88 992.26,-1999.77 995.455,-1989.67 988.458,-1989.88"/>
</g>
<!-- RouteHookRouteMap -->
<g id="node39" class="node"><title>RouteHookRouteMap</title>
<polygon fill="none" stroke="black" points="362.854,-1568 240.854,-1568 240.854,-1564 236.854,-1564 236.854,-1560 240.854,-1560 240.854,-1540 236.854,-1540 236.854,-1536 240.854,-1536 240.854,-1532 362.854,-1532 362.854,-1568"/>
<polyline fill="none" stroke="black" points="240.854,-1564 244.854,-1564 244.854,-1560 240.854,-1560 "/>
<polyline fill="none" stroke="black" points="240.854,-1540 244.854,-1540 244.854,-1536 240.854,-1536 "/>
<text text-anchor="middle" x="301.854" y="-1546.9" font-family="Times,serif" font-size="12.00">RouteHookRouteMap</text>
</g>
<!-- RouteHookRouteMap&#45;&gt;ComponentBase -->
<g id="edge49" class="edge"><title>RouteHookRouteMap&#45;&gt;ComponentBase</title>
<path fill="none" stroke="black" stroke-dasharray="1,5" d="M363.137,-1537.97C370.113,-1534.24 376.394,-1529.36 381.076,-1523 460.053,-1415.64 321.427,-416.82 417.076,-324 454.097,-288.074 843.854,-290.574 881.354,-326 944.488,-385.644 985.937,-1773.52 992.022,-1989.78"/>
<polygon fill="black" stroke="black" points="988.53,-1990.09 992.308,-1999.99 995.527,-1989.89 988.53,-1990.09"/>
</g>
<!-- SuperGlobalContext -->
<g id="node40" class="node"><title>SuperGlobalContext</title>
<polygon fill="none" stroke="black" points="358.854,-1514 244.854,-1514 244.854,-1510 240.854,-1510 240.854,-1506 244.854,-1506 244.854,-1486 240.854,-1486 240.854,-1482 244.854,-1482 244.854,-1478 358.854,-1478 358.854,-1514"/>
<polyline fill="none" stroke="black" points="244.854,-1510 248.854,-1510 248.854,-1506 244.854,-1506 "/>
<polyline fill="none" stroke="black" points="244.854,-1486 248.854,-1486 248.854,-1482 244.854,-1482 "/>
<text text-anchor="middle" x="301.854" y="-1492.9" font-family="Times,serif" font-size="12.00">SuperGlobalContext</text>
</g>
<!-- SuperGlobalContext&#45;&gt;ComponentBase -->
<g id="edge50" class="edge"><title>SuperGlobalContext&#45;&gt;ComponentBase</title>
<path fill="none" stroke="black" stroke-dasharray="1,5" d="M303.147,-1477.61C305.635,-1332.7 325.459,-378.317 417.076,-295 455.241,-260.293 843.796,-260.636 881.354,-296 945.769,-356.651 986.209,-1772.05 992.063,-1989.95"/>
<polygon fill="black" stroke="black" points="988.564,-1990.05 992.329,-1999.95 995.561,-1989.86 988.564,-1990.05"/>
</g>
<!-- DuckPhp -->
<g id="node41" class="node"><title>DuckPhp</title>
<polygon fill="lightgrey" stroke="black" points="101.316,-1784 47.3651,-1766 101.316,-1748 155.267,-1766 101.316,-1784"/>
<polyline fill="none" stroke="black" points="58.7483,-1769.8 58.7483,-1762.2 "/>
<polyline fill="none" stroke="black" points="89.9328,-1751.8 112.699,-1751.8 "/>
<polyline fill="none" stroke="black" points="143.884,-1762.2 143.884,-1769.8 "/>
<polyline fill="none" stroke="black" points="112.699,-1780.2 89.9328,-1780.2 "/>
<text text-anchor="middle" x="101.316" y="-1762.9" font-family="Times,serif" font-size="12.00">DuckPhp</text>
</g>
<!-- DuckPhp&#45;&gt;App -->
<g id="edge56" class="edge"><title>DuckPhp&#45;&gt;App</title>
<path fill="none" stroke="black" d="M109.15,-1781.42C138.575,-1847.82 254.586,-2109.6 290.32,-2190.23"/>
<polygon fill="black" stroke="black" points="287.2,-2191.83 294.451,-2199.55 293.6,-2188.99 287.2,-2191.83"/>
</g>
<!-- DuckPhp&#45;&gt;Cache -->
<g id="edge62" class="edge"><title>DuckPhp&#45;&gt;Cache</title>
<path fill="none" stroke="black" d="M155.521,-1766C190.044,-1766 234.118,-1766 264.632,-1766"/>
<polygon fill="black" stroke="black" points="264.822,-1769.5 274.822,-1766 264.822,-1762.5 264.822,-1769.5"/>
</g>
<!-- DuckPhp&#45;&gt;Console -->
<g id="edge63" class="edge"><title>DuckPhp&#45;&gt;Console</title>
<path fill="none" stroke="black" d="M106.255,-1782.59C116.431,-1821.24 147.619,-1916.87 214.632,-1955 310.629,-2009.62 448.235,-1955.34 507.389,-1926.94"/>
<polygon fill="black" stroke="black" points="509.083,-1930.01 516.519,-1922.46 505.999,-1923.72 509.083,-1930.01"/>
</g>
<!-- DuckPhp&#45;&gt;DbManager -->
<g id="edge59" class="edge"><title>DuckPhp&#45;&gt;DbManager</title>
<path fill="none" stroke="black" d="M116.931,-1753.06C137.456,-1735.48 176.581,-1704.05 214.632,-1685 227.151,-1678.73 241.42,-1673.55 254.698,-1669.47"/>
<polygon fill="black" stroke="black" points="256.006,-1672.73 264.614,-1666.55 254.033,-1666.01 256.006,-1672.73"/>
</g>
<!-- DuckPhp&#45;&gt;DuckPhpCommand -->
<g id="edge64" class="edge"><title>DuckPhp&#45;&gt;DuckPhpCommand</title>
<path fill="none" stroke="black" d="M116.931,-1778.94C137.456,-1796.52 176.581,-1827.95 214.632,-1847 221.536,-1850.46 228.972,-1853.58 236.481,-1856.37"/>
<polygon fill="black" stroke="black" points="235.401,-1859.71 245.996,-1859.74 237.733,-1853.11 235.401,-1859.71"/>
</g>
<!-- DuckPhp&#45;&gt;EventManager -->
<g id="edge60" class="edge"><title>DuckPhp&#45;&gt;EventManager</title>
<path fill="none" stroke="black" d="M131.611,-1758.03C162.405,-1749.66 211.478,-1736.31 248.87,-1726.14"/>
<polygon fill="black" stroke="black" points="249.863,-1729.5 258.594,-1723.49 248.025,-1722.74 249.863,-1729.5"/>
</g>
<!-- DuckPhp&#45;&gt;Pager -->
<g id="edge58" class="edge"><title>DuckPhp&#45;&gt;Pager</title>
<path fill="none" stroke="black" d="M131.611,-1773.97C167.059,-1783.61 226.727,-1799.84 264.92,-1810.23"/>
<polygon fill="black" stroke="black" points="264.043,-1813.62 274.611,-1812.86 265.881,-1806.86 264.043,-1813.62"/>
</g>
<!-- DuckPhp&#45;&gt;RouteHookPathInfoCompat -->
<g id="edge61" class="edge"><title>DuckPhp&#45;&gt;RouteHookPathInfoCompat</title>
<path fill="none" stroke="black" d="M110.746,-1751.01C127.136,-1723.23 165.996,-1663.58 214.632,-1631 216.799,-1629.55 219.048,-1628.17 221.359,-1626.87"/>
<polygon fill="black" stroke="black" points="223.228,-1629.84 230.541,-1622.18 220.044,-1623.61 223.228,-1629.84"/>
</g>
<!-- DuckPhp&#45;&gt;RouteHookRouteMap -->
<g id="edge57" class="edge"><title>DuckPhp&#45;&gt;RouteHookRouteMap</title>
<path fill="none" stroke="black" d="M107.399,-1749.89C119.708,-1713.51 154.601,-1624.47 214.632,-1577 219.638,-1573.04 225.231,-1569.66 231.098,-1566.77"/>
<polygon fill="black" stroke="black" points="232.761,-1569.86 240.497,-1562.62 229.935,-1563.46 232.761,-1569.86"/>
</g>
<!-- ThrowOnTrait -->
<g id="node42" class="node"><title>ThrowOnTrait</title>
<polygon fill="lightgrey" stroke="black" points="101.316,-2526 26.5775,-2508 101.316,-2490 176.055,-2508 101.316,-2526"/>
<polyline fill="none" stroke="black" points="38.2439,-2510.81 38.2439,-2505.19 "/>
<polyline fill="none" stroke="black" points="89.6496,-2492.81 112.982,-2492.81 "/>
<polyline fill="none" stroke="black" points="164.388,-2505.19 164.388,-2510.81 "/>
<polyline fill="none" stroke="black" points="112.982,-2523.19 89.6496,-2523.19 "/>
<text text-anchor="middle" x="101.316" y="-2504.9" font-family="Times,serif" font-size="12.00">ThrowOnTrait</text>
</g>
<!-- CallableView -->
<g id="node43" class="node"><title>CallableView</title>
<polygon fill="none" stroke="black" points="578.215,-1217 496.215,-1217 496.215,-1213 492.215,-1213 492.215,-1209 496.215,-1209 496.215,-1189 492.215,-1189 492.215,-1185 496.215,-1185 496.215,-1181 578.215,-1181 578.215,-1217"/>
<polyline fill="none" stroke="black" points="496.215,-1213 500.215,-1213 500.215,-1209 496.215,-1209 "/>
<polyline fill="none" stroke="black" points="496.215,-1189 500.215,-1189 500.215,-1185 496.215,-1185 "/>
<text text-anchor="middle" x="537.215" y="-1195.9" font-family="Times,serif" font-size="12.00">CallableView</text>
</g>
<!-- X_Core_View -->
<g id="node64" class="node"><title>X_Core_View</title>
<polygon fill="none" stroke="black" points="823.854,-1319 724.854,-1319 724.854,-1295 823.854,-1295 823.854,-1289 841.854,-1307 823.854,-1325 823.854,-1319"/>
<text text-anchor="middle" x="783.354" y="-1303.9" font-family="Times,serif" font-size="12.00">DuckPhp\Core\View</text>
</g>
<!-- CallableView&#45;&gt;X_Core_View -->
<g id="edge81" class="edge"><title>CallableView&#45;&gt;X_Core_View</title>
<path fill="none" stroke="black" d="M578.483,-1200.66C603.104,-1203.39 634.206,-1210.07 657.354,-1226 681.114,-1242.35 670.195,-1262.81 693.354,-1280 699.898,-1284.86 707.321,-1288.85 715.023,-1292.13"/>
<polygon fill="black" stroke="black" points="713.925,-1295.46 724.515,-1295.79 716.441,-1288.93 713.925,-1295.46"/>
</g>
<!-- EmptyView -->
<g id="node44" class="node"><title>EmptyView</title>
<polygon fill="none" stroke="black" points="574.215,-1163 500.215,-1163 500.215,-1159 496.215,-1159 496.215,-1155 500.215,-1155 500.215,-1135 496.215,-1135 496.215,-1131 500.215,-1131 500.215,-1127 574.215,-1127 574.215,-1163"/>
<polyline fill="none" stroke="black" points="500.215,-1159 504.215,-1159 504.215,-1155 500.215,-1155 "/>
<polyline fill="none" stroke="black" points="500.215,-1135 504.215,-1135 504.215,-1131 500.215,-1131 "/>
<text text-anchor="middle" x="537.215" y="-1141.9" font-family="Times,serif" font-size="12.00">EmptyView</text>
</g>
<!-- EmptyView&#45;&gt;X_Core_View -->
<g id="edge82" class="edge"><title>EmptyView&#45;&gt;X_Core_View</title>
<path fill="none" stroke="black" d="M574.222,-1144.24C600.335,-1145.6 634.875,-1151.64 657.354,-1172 694.855,-1205.97 657.093,-1244.71 693.354,-1280 699.659,-1286.14 707.313,-1290.88 715.455,-1294.56"/>
<polygon fill="black" stroke="black" points="714.224,-1297.83 724.81,-1298.26 716.802,-1291.32 714.224,-1297.83"/>
</g>
<!-- ExceptionWrapper -->
<g id="node45" class="node"><title>ExceptionWrapper</title>
<polygon fill="none" stroke="black" points="590.215,-1433 484.215,-1433 484.215,-1429 480.215,-1429 480.215,-1425 484.215,-1425 484.215,-1405 480.215,-1405 480.215,-1401 484.215,-1401 484.215,-1397 590.215,-1397 590.215,-1433"/>
<polyline fill="none" stroke="black" points="484.215,-1429 488.215,-1429 488.215,-1425 484.215,-1425 "/>
<polyline fill="none" stroke="black" points="484.215,-1405 488.215,-1405 488.215,-1401 484.215,-1401 "/>
<text text-anchor="middle" x="537.215" y="-1411.9" font-family="Times,serif" font-size="12.00">ExceptionWrapper</text>
</g>
<!-- ExceptionWrapper&#45;&gt;ComponentBase -->
<g id="edge65" class="edge"><title>ExceptionWrapper&#45;&gt;ComponentBase</title>
<path fill="none" stroke="black" stroke-dasharray="1,5" d="M590.383,-1430.59C612.483,-1438.83 637.626,-1450.5 657.354,-1466 678.324,-1482.47 674.53,-1495.11 693.354,-1514 767.27,-1588.17 821.258,-1570.25 881.354,-1656 956.986,-1763.92 982.5,-1924.72 990.015,-1989.47"/>
<polygon fill="black" stroke="black" points="986.57,-1990.16 991.145,-1999.71 993.527,-1989.39 986.57,-1990.16"/>
</g>
<!-- HookChain -->
<g id="node46" class="node"><title>HookChain</title>
<ellipse fill="none" stroke="black" cx="537.215" cy="-1253" rx="44.1452" ry="18"/>
<text text-anchor="middle" x="537.215" y="-1249.9" font-family="Times,serif" font-size="12.00">HookChain</text>
</g>
<!-- JsonRpcClientBase -->
<g id="node47" class="node"><title>JsonRpcClientBase</title>
<polygon fill="none" stroke="black" points="591.715,-1379 482.715,-1379 482.715,-1375 478.715,-1375 478.715,-1371 482.715,-1371 482.715,-1351 478.715,-1351 478.715,-1347 482.715,-1347 482.715,-1343 591.715,-1343 591.715,-1379"/>
<polyline fill="none" stroke="black" points="482.715,-1375 486.715,-1375 486.715,-1371 482.715,-1371 "/>
<polyline fill="none" stroke="black" points="482.715,-1351 486.715,-1351 486.715,-1347 482.715,-1347 "/>
<text text-anchor="middle" x="537.215" y="-1357.9" font-family="Times,serif" font-size="12.00">JsonRpcClientBase</text>
</g>
<!-- JsonRpcClientBase&#45;&gt;ComponentBase -->
<g id="edge89" class="edge"><title>JsonRpcClientBase&#45;&gt;ComponentBase</title>
<path fill="none" stroke="black" stroke-dasharray="1,5" d="M591.851,-1368.4C669.406,-1382.15 811.232,-1419.43 881.354,-1514 938.85,-1591.54 978.504,-1895.54 989.624,-1989.9"/>
<polygon fill="black" stroke="black" points="986.149,-1990.33 990.782,-1999.85 993.102,-1989.52 986.149,-1990.33"/>
</g>
<!-- JsonRpcExt -->
<g id="node48" class="node"><title>JsonRpcExt</title>
<polygon fill="none" stroke="black" points="820.354,-1379 746.354,-1379 746.354,-1375 742.354,-1375 742.354,-1371 746.354,-1371 746.354,-1351 742.354,-1351 742.354,-1347 746.354,-1347 746.354,-1343 820.354,-1343 820.354,-1379"/>
<polyline fill="none" stroke="black" points="746.354,-1375 750.354,-1375 750.354,-1371 746.354,-1371 "/>
<polyline fill="none" stroke="black" points="746.354,-1351 750.354,-1351 750.354,-1347 746.354,-1347 "/>
<text text-anchor="middle" x="783.354" y="-1357.9" font-family="Times,serif" font-size="12.00">JsonRpcExt</text>
</g>
<!-- JsonRpcClientBase&#45;&gt;JsonRpcExt -->
<g id="edge88" class="edge"><title>JsonRpcClientBase&#45;&gt;JsonRpcExt</title>
<path fill="none" stroke="black" stroke-dasharray="5,2" d="M591.792,-1355.3C635.011,-1353.81 695.166,-1353.91 736.257,-1355.58"/>
<polygon fill="black" stroke="black" points="736.121,-1359.08 746.271,-1356.04 736.442,-1352.09 736.121,-1359.08"/>
</g>
<!-- JsonRpcExt&#45;&gt;ComponentBase -->
<g id="edge67" class="edge"><title>JsonRpcExt&#45;&gt;ComponentBase</title>
<path fill="none" stroke="black" stroke-dasharray="1,5" d="M802.812,-1379.09C824.98,-1401.92 861.635,-1443.37 881.354,-1486 964.381,-1665.51 986.158,-1907.68 991.325,-1989.58"/>
<polygon fill="black" stroke="black" points="987.835,-1989.85 991.925,-1999.63 994.823,-1989.44 987.835,-1989.85"/>
</g>
<!-- JsonRpcExt&#45;&gt;JsonRpcClientBase -->
<g id="edge87" class="edge"><title>JsonRpcExt&#45;&gt;JsonRpcClientBase</title>
<path fill="none" stroke="black" d="M746.271,-1365.96C708.351,-1367.92 647.94,-1368.27 601.961,-1367.01"/>
<polygon fill="black" stroke="black" points="601.895,-1363.51 591.792,-1366.7 601.68,-1370.51 601.895,-1363.51"/>
</g>
<!-- JsonView -->
<g id="node49" class="node"><title>JsonView</title>
<polygon fill="none" stroke="black" points="569.215,-1325 505.215,-1325 505.215,-1321 501.215,-1321 501.215,-1317 505.215,-1317 505.215,-1297 501.215,-1297 501.215,-1293 505.215,-1293 505.215,-1289 569.215,-1289 569.215,-1325"/>
<polyline fill="none" stroke="black" points="505.215,-1321 509.215,-1321 509.215,-1317 505.215,-1317 "/>
<polyline fill="none" stroke="black" points="505.215,-1297 509.215,-1297 509.215,-1293 505.215,-1293 "/>
<text text-anchor="middle" x="537.215" y="-1303.9" font-family="Times,serif" font-size="12.00">JsonView</text>
</g>
<!-- JsonView&#45;&gt;X_Core_View -->
<g id="edge90" class="edge"><title>JsonView&#45;&gt;X_Core_View</title>
<path fill="none" stroke="black" d="M569.632,-1307C605.986,-1307 666.916,-1307 714.271,-1307"/>
<polygon fill="black" stroke="black" points="714.461,-1310.5 724.461,-1307 714.461,-1303.5 714.461,-1310.5"/>
</g>
<!-- Misc -->
<g id="node50" class="node"><title>Misc</title>
<polygon fill="none" stroke="black" points="564.215,-947 510.215,-947 510.215,-943 506.215,-943 506.215,-939 510.215,-939 510.215,-919 506.215,-919 506.215,-915 510.215,-915 510.215,-911 564.215,-911 564.215,-947"/>
<polyline fill="none" stroke="black" points="510.215,-943 514.215,-943 514.215,-939 510.215,-939 "/>
<polyline fill="none" stroke="black" points="510.215,-919 514.215,-919 514.215,-915 510.215,-915 "/>
<text text-anchor="middle" x="537.215" y="-925.9" font-family="Times,serif" font-size="12.00">Misc</text>
</g>
<!-- Misc&#45;&gt;ComponentBase -->
<g id="edge68" class="edge"><title>Misc&#45;&gt;ComponentBase</title>
<path fill="none" stroke="black" stroke-dasharray="1,5" d="M564.371,-926.478C636.587,-920.128 836.371,-906.904 881.354,-950 958.746,-1024.15 987.026,-1826.9 991.977,-1989.41"/>
<polygon fill="black" stroke="black" points="988.484,-1989.69 992.282,-1999.58 995.481,-1989.48 988.484,-1989.69"/>
</g>
<!-- MyFacadesAutoLoader -->
<g id="node51" class="node"><title>MyFacadesAutoLoader</title>
<polygon fill="none" stroke="black" points="601.715,-1109 472.715,-1109 472.715,-1105 468.715,-1105 468.715,-1101 472.715,-1101 472.715,-1081 468.715,-1081 468.715,-1077 472.715,-1077 472.715,-1073 601.715,-1073 601.715,-1109"/>
<polyline fill="none" stroke="black" points="472.715,-1105 476.715,-1105 476.715,-1101 472.715,-1101 "/>
<polyline fill="none" stroke="black" points="472.715,-1081 476.715,-1081 476.715,-1077 472.715,-1077 "/>
<text text-anchor="middle" x="537.215" y="-1087.9" font-family="Times,serif" font-size="12.00">MyFacadesAutoLoader</text>
</g>
<!-- MyFacadesAutoLoader&#45;&gt;ComponentBase -->
<g id="edge70" class="edge"><title>MyFacadesAutoLoader&#45;&gt;ComponentBase</title>
<path fill="none" stroke="black" stroke-dasharray="1,5" d="M602.049,-1077.34C629.938,-1072.03 663.12,-1066.61 693.354,-1064 776.599,-1056.81 818.937,-1008.45 881.354,-1064 952.521,-1127.34 985.438,-1837.85 991.683,-1989.59"/>
<polygon fill="black" stroke="black" points="988.2,-1990.07 992.102,-1999.92 995.194,-1989.78 988.2,-1990.07"/>
</g>
<!-- MyFacadesBase -->
<g id="node52" class="node"><title>MyFacadesBase</title>
<polygon fill="none" stroke="black" points="830.854,-1271 735.854,-1271 735.854,-1267 731.854,-1267 731.854,-1263 735.854,-1263 735.854,-1243 731.854,-1243 731.854,-1239 735.854,-1239 735.854,-1235 830.854,-1235 830.854,-1271"/>
<polyline fill="none" stroke="black" points="735.854,-1267 739.854,-1267 739.854,-1263 735.854,-1263 "/>
<polyline fill="none" stroke="black" points="735.854,-1243 739.854,-1243 739.854,-1239 735.854,-1239 "/>
<text text-anchor="middle" x="783.354" y="-1249.9" font-family="Times,serif" font-size="12.00">MyFacadesBase</text>
</g>
<!-- MyFacadesAutoLoader&#45;&gt;MyFacadesBase -->
<g id="edge84" class="edge"><title>MyFacadesAutoLoader&#45;&gt;MyFacadesBase</title>
<path fill="none" stroke="black" d="M601.973,-1084.91C621.737,-1088.12 642.263,-1095.33 657.354,-1109 694.855,-1142.97 657.093,-1181.71 693.354,-1217 702.302,-1225.71 713.965,-1231.62 725.886,-1235.88"/>
<polygon fill="black" stroke="black" points="724.863,-1239.22 735.455,-1238.96 727.009,-1232.56 724.863,-1239.22"/>
</g>
<!-- MyFacadesBase&#45;&gt;ComponentBase -->
<g id="edge69" class="edge"><title>MyFacadesBase&#45;&gt;ComponentBase</title>
<path fill="none" stroke="black" stroke-dasharray="1,5" d="M831.08,-1255.37C849.265,-1258.72 868.724,-1265.73 881.354,-1280 977.128,-1388.19 990.611,-1867.97 992.495,-1989.8"/>
<polygon fill="black" stroke="black" points="988.996,-1989.88 992.636,-1999.83 995.995,-1989.78 988.996,-1989.88"/>
</g>
<!-- MyFacadesBase&#45;&gt;MyFacadesAutoLoader -->
<g id="edge83" class="edge"><title>MyFacadesBase&#45;&gt;MyFacadesAutoLoader</title>
<path fill="none" stroke="black" stroke-dasharray="5,2" d="M735.455,-1255.95C720.394,-1252.58 704.694,-1246.04 693.354,-1235 657.093,-1199.71 694.855,-1160.97 657.354,-1127 644.739,-1115.57 628.326,-1108.66 611.735,-1104.27"/>
<polygon fill="black" stroke="black" points="612.51,-1100.86 601.973,-1101.97 610.9,-1107.67 612.51,-1100.86"/>
</g>
<!-- MyMiddlewareManager -->
<g id="node53" class="node"><title>MyMiddlewareManager</title>
<polygon fill="none" stroke="black" points="603.215,-1055 471.215,-1055 471.215,-1051 467.215,-1051 467.215,-1047 471.215,-1047 471.215,-1027 467.215,-1027 467.215,-1023 471.215,-1023 471.215,-1019 603.215,-1019 603.215,-1055"/>
<polyline fill="none" stroke="black" points="471.215,-1051 475.215,-1051 475.215,-1047 471.215,-1047 "/>
<polyline fill="none" stroke="black" points="471.215,-1027 475.215,-1027 475.215,-1023 471.215,-1023 "/>
<text text-anchor="middle" x="537.215" y="-1033.9" font-family="Times,serif" font-size="12.00">MyMiddlewareManager</text>
</g>
<!-- MyMiddlewareManager&#45;&gt;ComponentBase -->
<g id="edge71" class="edge"><title>MyMiddlewareManager&#45;&gt;ComponentBase</title>
<path fill="none" stroke="black" stroke-dasharray="1,5" d="M603.355,-1026.5C691.362,-1013.93 841.808,-998.681 881.354,-1034 954.766,-1099.57 986.017,-1835.24 991.792,-1989.67"/>
<polygon fill="black" stroke="black" points="988.298,-1989.9 992.164,-1999.76 995.293,-1989.64 988.298,-1989.9"/>
</g>
<!-- RouteHookManager -->
<g id="node58" class="node"><title>RouteHookManager</title>
<polygon fill="none" stroke="black" points="840.354,-1217 726.354,-1217 726.354,-1213 722.354,-1213 722.354,-1209 726.354,-1209 726.354,-1189 722.354,-1189 722.354,-1185 726.354,-1185 726.354,-1181 840.354,-1181 840.354,-1217"/>
<polyline fill="none" stroke="black" points="726.354,-1213 730.354,-1213 730.354,-1209 726.354,-1209 "/>
<polyline fill="none" stroke="black" points="726.354,-1189 730.354,-1189 730.354,-1185 726.354,-1185 "/>
<text text-anchor="middle" x="783.354" y="-1195.9" font-family="Times,serif" font-size="12.00">RouteHookManager</text>
</g>
<!-- MyMiddlewareManager&#45;&gt;RouteHookManager -->
<g id="edge85" class="edge"><title>MyMiddlewareManager&#45;&gt;RouteHookManager</title>
<path fill="none" stroke="black" d="M603.519,-1039.73C622.802,-1043.5 642.656,-1050.69 657.354,-1064 694.855,-1097.97 657.093,-1136.71 693.354,-1172 699.982,-1178.45 708.1,-1183.37 716.709,-1187.11"/>
<polygon fill="black" stroke="black" points="715.606,-1190.44 726.197,-1190.73 718.102,-1183.9 715.606,-1190.44"/>
</g>
<!-- X_Core_Route -->
<g id="node63" class="node"><title>X_Core_Route</title>
<polygon fill="none" stroke="black" points="824.854,-1157 723.854,-1157 723.854,-1133 824.854,-1133 824.854,-1127 842.854,-1145 824.854,-1163 824.854,-1157"/>
<text text-anchor="middle" x="783.354" y="-1141.9" font-family="Times,serif" font-size="12.00">DuckPhp\Core\Route</text>
</g>
<!-- MyMiddlewareManager&#45;&gt;X_Core_Route -->
<g id="edge86" class="edge"><title>MyMiddlewareManager&#45;&gt;X_Core_Route</title>
<path fill="none" stroke="black" d="M603.39,-1042.62C622.022,-1046.56 641.543,-1053.12 657.354,-1064 681.114,-1080.35 670.195,-1100.81 693.354,-1118 699.643,-1122.67 706.746,-1126.54 714.126,-1129.74"/>
<polygon fill="black" stroke="black" points="712.997,-1133.06 723.584,-1133.46 715.556,-1126.55 712.997,-1133.06"/>
</g>
<!-- RedisManager -->
<g id="node54" class="node"><title>RedisManager</title>
<polygon fill="none" stroke="black" points="580.215,-893 494.215,-893 494.215,-889 490.215,-889 490.215,-885 494.215,-885 494.215,-865 490.215,-865 490.215,-861 494.215,-861 494.215,-857 580.215,-857 580.215,-893"/>
<polyline fill="none" stroke="black" points="494.215,-889 498.215,-889 498.215,-885 494.215,-885 "/>
<polyline fill="none" stroke="black" points="494.215,-865 498.215,-865 498.215,-861 494.215,-861 "/>
<text text-anchor="middle" x="537.215" y="-871.9" font-family="Times,serif" font-size="12.00">RedisManager</text>
</g>
<!-- RedisManager&#45;&gt;ComponentBase -->
<g id="edge72" class="edge"><title>RedisManager&#45;&gt;ComponentBase</title>
<path fill="none" stroke="black" stroke-dasharray="1,5" d="M580.386,-865.274C653.13,-851.261 802.008,-835.202 881.354,-916 958.98,-995.046 987.159,-1824.82 992.01,-1989.63"/>
<polygon fill="black" stroke="black" points="988.52,-1990.03 992.308,-1999.92 995.517,-1989.83 988.52,-1990.03"/>
</g>
<!-- RedisCache -->
<g id="node55" class="node"><title>RedisCache</title>
<polygon fill="none" stroke="black" points="574.215,-839 500.215,-839 500.215,-835 496.215,-835 496.215,-831 500.215,-831 500.215,-811 496.215,-811 496.215,-807 500.215,-807 500.215,-803 574.215,-803 574.215,-839"/>
<polyline fill="none" stroke="black" points="500.215,-835 504.215,-835 504.215,-831 500.215,-831 "/>
<polyline fill="none" stroke="black" points="500.215,-811 504.215,-811 504.215,-807 500.215,-807 "/>
<text text-anchor="middle" x="537.215" y="-817.9" font-family="Times,serif" font-size="12.00">RedisCache</text>
</g>
<!-- RedisCache&#45;&gt;ComponentBase -->
<g id="edge73" class="edge"><title>RedisCache&#45;&gt;ComponentBase</title>
<path fill="none" stroke="black" stroke-dasharray="1,5" d="M574.486,-818.503C653.787,-813.89 838.904,-808.007 881.354,-850 965.047,-932.793 988.465,-1818.51 992.219,-1989.51"/>
<polygon fill="black" stroke="black" points="988.725,-1989.81 992.439,-1999.73 995.723,-1989.66 988.725,-1989.81"/>
</g>
<!-- RouteHookApiServer -->
<g id="node56" class="node"><title>RouteHookApiServer</title>
<polygon fill="none" stroke="black" points="597.715,-785 476.715,-785 476.715,-781 472.715,-781 472.715,-777 476.715,-777 476.715,-757 472.715,-757 472.715,-753 476.715,-753 476.715,-749 597.715,-749 597.715,-785"/>
<polyline fill="none" stroke="black" points="476.715,-781 480.715,-781 480.715,-777 476.715,-777 "/>
<polyline fill="none" stroke="black" points="476.715,-757 480.715,-757 480.715,-753 476.715,-753 "/>
<text text-anchor="middle" x="537.215" y="-763.9" font-family="Times,serif" font-size="12.00">RouteHookApiServer</text>
</g>
<!-- RouteHookApiServer&#45;&gt;ComponentBase -->
<g id="edge74" class="edge"><title>RouteHookApiServer&#45;&gt;ComponentBase</title>
<path fill="none" stroke="black" stroke-dasharray="1,5" d="M597.788,-766.231C685.568,-766.464 843.387,-772.552 881.354,-812 965.754,-899.692 988.648,-1815.26 992.253,-1989.46"/>
<polygon fill="black" stroke="black" points="988.757,-1989.71 992.458,-1999.63 995.755,-1989.56 988.757,-1989.71"/>
</g>
<!-- RouteHookDirectoryMode -->
<g id="node57" class="node"><title>RouteHookDirectoryMode</title>
<polygon fill="none" stroke="black" points="609.715,-731 464.715,-731 464.715,-727 460.715,-727 460.715,-723 464.715,-723 464.715,-703 460.715,-703 460.715,-699 464.715,-699 464.715,-695 609.715,-695 609.715,-731"/>
<polyline fill="none" stroke="black" points="464.715,-727 468.715,-727 468.715,-723 464.715,-723 "/>
<polyline fill="none" stroke="black" points="464.715,-703 468.715,-703 468.715,-699 464.715,-699 "/>
<text text-anchor="middle" x="537.215" y="-709.9" font-family="Times,serif" font-size="12.00">RouteHookDirectoryMode</text>
</g>
<!-- RouteHookDirectoryMode&#45;&gt;ComponentBase -->
<g id="edge75" class="edge"><title>RouteHookDirectoryMode&#45;&gt;ComponentBase</title>
<path fill="none" stroke="black" stroke-dasharray="1,5" d="M609.895,-701.018C688.579,-692.386 812.812,-692.891 881.354,-766 967.972,-858.39 989.139,-1812.71 992.333,-1989.81"/>
<polygon fill="black" stroke="black" points="988.835,-1989.96 992.51,-1999.89 995.834,-1989.83 988.835,-1989.96"/>
</g>
<!-- RouteHookManager&#45;&gt;ComponentBase -->
<g id="edge76" class="edge"><title>RouteHookManager&#45;&gt;ComponentBase</title>
<path fill="none" stroke="black" stroke-dasharray="1,5" d="M840.485,-1203.34C855.751,-1207.24 870.928,-1214.1 881.354,-1226 983.946,-1343.08 992.319,-1862.61 992.816,-1989.82"/>
<polygon fill="black" stroke="black" points="989.317,-1989.93 992.842,-1999.92 996.317,-1989.91 989.317,-1989.93"/>
</g>
<!-- RouteHookRewrite -->
<g id="node59" class="node"><title>RouteHookRewrite</title>
<polygon fill="none" stroke="black" points="592.215,-677 482.215,-677 482.215,-673 478.215,-673 478.215,-669 482.215,-669 482.215,-649 478.215,-649 478.215,-645 482.215,-645 482.215,-641 592.215,-641 592.215,-677"/>
<polyline fill="none" stroke="black" points="482.215,-673 486.215,-673 486.215,-669 482.215,-669 "/>
<polyline fill="none" stroke="black" points="482.215,-649 486.215,-649 486.215,-645 482.215,-645 "/>
<text text-anchor="middle" x="537.215" y="-655.9" font-family="Times,serif" font-size="12.00">RouteHookRewrite</text>
</g>
<!-- RouteHookRewrite&#45;&gt;ComponentBase -->
<g id="edge77" class="edge"><title>RouteHookRewrite&#45;&gt;ComponentBase</title>
<path fill="none" stroke="black" stroke-dasharray="1,5" d="M592.397,-656.509C678.869,-653.799 842.324,-654.275 881.354,-694 975.42,-789.743 990.561,-1805.78 992.536,-1989.58"/>
<polygon fill="black" stroke="black" points="989.038,-1989.82 992.641,-1999.79 996.038,-1989.75 989.038,-1989.82"/>
</g>
<!-- SimpleModel -->
<g id="node60" class="node"><title>SimpleModel</title>
<polygon fill="none" stroke="black" points="591.715,-515 482.715,-515 482.715,-511 478.715,-511 478.715,-507 482.715,-507 482.715,-487 478.715,-487 478.715,-483 482.715,-483 482.715,-479 591.715,-479 591.715,-515"/>
<polyline fill="none" stroke="black" points="482.715,-511 486.715,-511 486.715,-507 482.715,-507 "/>
<polyline fill="none" stroke="black" points="482.715,-487 486.715,-487 486.715,-483 482.715,-483 "/>
<text text-anchor="middle" x="537.215" y="-493.9" font-family="Times,serif" font-size="12.00">SimpleModel(todo)</text>
</g>
<!-- SimpleModel&#45;&gt;ComponentBase -->
<g id="edge78" class="edge"><title>SimpleModel&#45;&gt;ComponentBase</title>
<path fill="none" stroke="black" stroke-dasharray="1,5" d="M591.74,-483.876C667.84,-468.763 806.373,-454.983 881.354,-532 987.017,-640.533 992.623,-1794.15 992.811,-1989.86"/>
<polygon fill="black" stroke="black" points="989.311,-1989.92 992.817,-1999.92 996.311,-1989.92 989.311,-1989.92"/>
</g>
<!-- SimpleModel&#45;&gt;Db_Db -->
<g id="edge91" class="edge"><title>SimpleModel&#45;&gt;Db_Db</title>
<path fill="none" stroke="black" stroke-dasharray="5,2" d="M561.826,-478.696C587.145,-458.395 627.699,-423.883 657.354,-389 705.775,-332.043 750.243,-255.14 770.631,-217.95"/>
<polygon fill="black" stroke="black" points="773.809,-219.432 775.506,-208.974 767.658,-216.092 773.809,-219.432"/>
</g>
<!-- StaticReplacer -->
<g id="node61" class="node"><title>StaticReplacer</title>
<polygon fill="none" stroke="black" points="579.715,-623 494.715,-623 494.715,-619 490.715,-619 490.715,-615 494.715,-615 494.715,-595 490.715,-595 490.715,-591 494.715,-591 494.715,-587 579.715,-587 579.715,-623"/>
<polyline fill="none" stroke="black" points="494.715,-619 498.715,-619 498.715,-615 494.715,-615 "/>
<polyline fill="none" stroke="black" points="494.715,-595 498.715,-595 498.715,-591 494.715,-591 "/>
<text text-anchor="middle" x="537.215" y="-601.9" font-family="Times,serif" font-size="12.00">StaticReplacer</text>
</g>
<!-- StaticReplacer&#45;&gt;ComponentBase -->
<g id="edge79" class="edge"><title>StaticReplacer&#45;&gt;ComponentBase</title>
<path fill="none" stroke="black" stroke-dasharray="1,5" d="M579.887,-604.612C662.158,-604.798 840.989,-610.244 881.354,-653 976.475,-753.756 990.771,-1802.8 992.567,-1989.62"/>
<polygon fill="black" stroke="black" points="989.068,-1989.78 992.66,-1999.74 996.068,-1989.71 989.068,-1989.78"/>
</g>
<!-- StrictCheck -->
<g id="node62" class="node"><title>StrictCheck</title>
<polygon fill="none" stroke="black" points="573.215,-1001 501.215,-1001 501.215,-997 497.215,-997 497.215,-993 501.215,-993 501.215,-973 497.215,-973 497.215,-969 501.215,-969 501.215,-965 573.215,-965 573.215,-1001"/>
<polyline fill="none" stroke="black" points="501.215,-997 505.215,-997 505.215,-993 501.215,-993 "/>
<polyline fill="none" stroke="black" points="501.215,-973 505.215,-973 505.215,-969 501.215,-969 "/>
<text text-anchor="middle" x="537.215" y="-979.9" font-family="Times,serif" font-size="12.00">StrictCheck</text>
</g>
<!-- StrictCheck&#45;&gt;ComponentBase -->
<g id="edge80" class="edge"><title>StrictCheck&#45;&gt;ComponentBase</title>
<path fill="none" stroke="black" stroke-dasharray="1,5" d="M573.374,-972.869C642.73,-955.267 797.68,-928.154 881.354,-1009 953.993,-1079.18 985.906,-1832.81 991.782,-1989.55"/>
<polygon fill="black" stroke="black" points="988.294,-1989.92 992.161,-1999.78 995.289,-1989.66 988.294,-1989.92"/>
</g>
<!-- X_DbManager -->
<g id="node65" class="node"><title>X_DbManager</title>
<polygon fill="none" stroke="black" points="855.354,-1103 693.354,-1103 693.354,-1079 855.354,-1079 855.354,-1073 873.354,-1091 855.354,-1109 855.354,-1103"/>
<text text-anchor="middle" x="783.354" y="-1087.9" font-family="Times,serif" font-size="12.00">DuckPhp\Component\DbManager</text>
</g>
<!-- StrictCheck&#45;&gt;X_DbManager -->
<g id="edge92" class="edge"><title>StrictCheck&#45;&gt;X_DbManager</title>
<path fill="none" stroke="black" d="M573.364,-987.632C597.635,-991.624 630.287,-998.591 657.354,-1010 691.885,-1024.56 727.377,-1048.59 751.676,-1066.7"/>
<polygon fill="black" stroke="black" points="749.698,-1069.6 759.785,-1072.84 753.922,-1064.01 749.698,-1069.6"/>
</g>
<!-- HttpServerPlugin -->
<g id="node66" class="node"><title>HttpServerPlugin</title>
<ellipse fill="none" stroke="black" cx="537.215" cy="-551" rx="60.8863" ry="18"/>
<text text-anchor="middle" x="537.215" y="-547.9" font-family="Times,serif" font-size="12.00">HttpServerPlugin</text>
</g>
<!-- HttpServerPlugin&#45;&gt;ComponentBase -->
<g id="edge66" class="edge"><title>HttpServerPlugin&#45;&gt;ComponentBase</title>
<path fill="none" stroke="black" stroke-dasharray="1,5" d="M589.593,-541.648C665.601,-531.1 807.009,-524.668 881.354,-605 978.908,-710.411 991.217,-1798.77 992.628,-1989.54"/>
<polygon fill="black" stroke="black" points="989.129,-1989.64 992.699,-1999.62 996.129,-1989.59 989.129,-1989.64"/>
</g>
</g>
</svg>
