<?xml version="1.0" encoding="UTF-8" standalone="no"?>
<!DOCTYPE svg PUBLIC "-//W3C//DTD SVG 1.1//EN"
 "http://www.w3.org/Graphics/SVG/1.1/DTD/svg11.dtd">
<!-- Generated by graphviz version 2.38.0 (20140413.2041)
 -->
<!-- Title: DuckPhp Pages: 1 -->
<svg width="1798pt" height="2480pt"
 viewBox="0.00 0.00 1798.20 2480.00" xmlns="http://www.w3.org/2000/svg" xmlns:xlink="http://www.w3.org/1999/xlink">
<g id="graph0" class="graph" transform="scale(1 1) rotate(0) translate(4 2476)">
<title>DuckPhp</title>
<polygon fill="white" stroke="none" points="-4,4 -4,-2476 1794.2,-2476 1794.2,4 -4,4"/>
<g id="clust1" class="cluster"><title>cluster_HttpServer</title>
<polygon fill="none" stroke="black" points="39.2513,-201 39.2513,-382 194.963,-382 194.963,-201 39.2513,-201"/>
<text text-anchor="middle" x="117.107" y="-368.4" font-family="Times,serif" font-size="12.00">[DuckPhp\HttpServer]</text>
</g>
<g id="clust2" class="cluster"><title>cluster_SingletonEx</title>
<polygon fill="none" stroke="black" points="8,-1160 8,-1287 226.215,-1287 226.215,-1160 8,-1160"/>
<text text-anchor="middle" x="117.107" y="-1273.4" font-family="Times,serif" font-size="12.00">[DuckPhp\SingletonEx]</text>
</g>
<g id="clust3" class="cluster"><title>cluster_ThrowOn</title>
<polygon fill="none" stroke="black" points="21.7874,-1680 21.7874,-1753 212.427,-1753 212.427,-1680 21.7874,-1680"/>
<text text-anchor="middle" x="117.107" y="-1739.4" font-family="Times,serif" font-size="12.00">[DuckPhp\ThrowOn]</text>
</g>
<g id="clust4" class="cluster"><title>cluster_Core</title>
<polygon fill="none" stroke="black" points="478.914,-1922 478.914,-2359 1782.2,-2359 1782.2,-1922 478.914,-1922"/>
<text text-anchor="middle" x="1130.56" y="-2345.4" font-family="Times,serif" font-size="12.00">[DuckPhp\Core]</text>
</g>
<g id="clust5" class="cluster"><title>cluster_Helper</title>
<polygon fill="none" stroke="black" points="8.91916,-1953 8.91916,-2242 448.307,-2242 448.307,-1953 8.91916,-1953"/>
<text text-anchor="middle" x="228.613" y="-2228.4" font-family="Times,serif" font-size="12.00">[DuckPhp\Helper]</text>
</g>
<g id="clust6" class="cluster"><title>cluster_Db</title>
<polygon fill="none" stroke="black" points="78.7751,-2337 78.7751,-2464 458.914,-2464 458.914,-2337 78.7751,-2337"/>
<text text-anchor="middle" x="268.845" y="-2450.4" font-family="Times,serif" font-size="12.00">[DuckPhp\Db]</text>
</g>
<g id="clust7" class="cluster"><title>cluster_Component</title>
<polygon fill="none" stroke="black" points="831.104,-1470 831.104,-1867 1318.77,-1867 1318.77,-1470 831.104,-1470"/>
<text text-anchor="middle" x="1074.94" y="-1853.4" font-family="Times,serif" font-size="12.00">[DuckPhp\Component]</text>
</g>
<g id="clust8" class="cluster"><title>cluster_DuckPhp</title>
<polygon fill="none" stroke="black" points="282.981,-1686 282.981,-1759 422.148,-1759 422.148,-1686 282.981,-1686"/>
<text text-anchor="middle" x="352.564" y="-1745.4" font-family="Times,serif" font-size="12.00">[DuckPhp]</text>
</g>
<g id="clust9" class="cluster"><title>cluster_Foundation</title>
<polygon fill="none" stroke="black" points="1080.35,-8 1080.35,-243 1618.2,-243 1618.2,-8 1080.35,-8"/>
<text text-anchor="middle" x="1349.27" y="-229.4" font-family="Times,serif" font-size="12.00">[DuckPhp\Foundation]</text>
</g>
<g id="clust10" class="cluster"><title>cluster_Ext</title>
<polygon fill="none" stroke="black" points="532.225,-251 532.225,-1296 1297.67,-1296 1297.67,-251 532.225,-251"/>
<text text-anchor="middle" x="914.946" y="-1282.4" font-family="Times,serif" font-size="12.00">[DuckPhp\Ext]</text>
</g>
<!-- AppInterface -->
<g id="node1" class="node"><title>AppInterface</title>
<polygon fill="none" stroke="black" points="155.107,-353 73.1073,-353 73.1073,-317 161.107,-317 161.107,-347 155.107,-353"/>
<polyline fill="none" stroke="black" points="155.107,-353 155.107,-347 "/>
<polyline fill="none" stroke="black" points="161.107,-347 155.107,-347 "/>
<text text-anchor="middle" x="117.107" y="-331.3" font-family="Times,serif" font-size="14.00">AppInterface</text>
</g>
<!-- HttpServer -->
<g id="node2" class="node"><title>HttpServer</title>
<polygon fill="lightgrey" stroke="black" points="117.107,-299 47.3951,-281 117.107,-263 186.819,-281 117.107,-299"/>
<polyline fill="none" stroke="black" points="59.014,-284 59.014,-278 "/>
<polyline fill="none" stroke="black" points="105.488,-266 128.726,-266 "/>
<polyline fill="none" stroke="black" points="175.201,-278 175.201,-284 "/>
<polyline fill="none" stroke="black" points="128.726,-296 105.488,-296 "/>
<text text-anchor="middle" x="117.107" y="-277.3" font-family="Times,serif" font-size="14.00">HttpServer</text>
</g>
<!-- ServerInterface -->
<g id="node3" class="node"><title>ServerInterface</title>
<polygon fill="none" stroke="black" points="161.107,-245 67.1073,-245 67.1073,-209 167.107,-209 167.107,-239 161.107,-245"/>
<polyline fill="none" stroke="black" points="161.107,-245 161.107,-239 "/>
<polyline fill="none" stroke="black" points="167.107,-239 161.107,-239 "/>
<text text-anchor="middle" x="117.107" y="-223.3" font-family="Times,serif" font-size="14.00">ServerInterface</text>
</g>
<!-- SingletonExTrait -->
<g id="node4" class="node"><title>SingletonExTrait</title>
<polygon fill="lightgrey" stroke="black" points="117.107,-1258 15.8926,-1240 117.107,-1222 218.322,-1240 117.107,-1258"/>
<polyline fill="none" stroke="black" points="27.7072,-1242.1 27.7072,-1237.9 "/>
<polyline fill="none" stroke="black" points="105.293,-1224.1 128.922,-1224.1 "/>
<polyline fill="none" stroke="black" points="206.507,-1237.9 206.507,-1242.1 "/>
<polyline fill="none" stroke="black" points="128.922,-1255.9 105.293,-1255.9 "/>
<text text-anchor="middle" x="117.107" y="-1236.3" font-family="Times,serif" font-size="14.00">SingletonExTrait</text>
</g>
<!-- SimpleReplacer -->
<g id="node5" class="node"><title>SimpleReplacer</title>
<ellipse fill="none" stroke="black" cx="117.107" cy="-1186" rx="67.6881" ry="18"/>
<text text-anchor="middle" x="117.107" y="-1182.3" font-family="Times,serif" font-size="14.00">SimpleReplacer</text>
</g>
<!-- ThrowOnTrait -->
<g id="node6" class="node"><title>ThrowOnTrait</title>
<polygon fill="lightgrey" stroke="black" points="117.107,-1724 29.967,-1706 117.107,-1688 204.248,-1706 117.107,-1724"/>
<polyline fill="none" stroke="black" points="41.7189,-1708.43 41.7189,-1703.57 "/>
<polyline fill="none" stroke="black" points="105.355,-1690.43 128.859,-1690.43 "/>
<polyline fill="none" stroke="black" points="192.496,-1703.57 192.496,-1708.43 "/>
<polyline fill="none" stroke="black" points="128.859,-1721.57 105.355,-1721.57 "/>
<text text-anchor="middle" x="117.107" y="-1702.3" font-family="Times,serif" font-size="14.00">ThrowOnTrait</text>
</g>
<!-- App -->
<g id="node7" class="node"><title>App</title>
<polygon fill="lightgrey" stroke="black" points="631.222,-2105 594.688,-2087 631.222,-2069 667.756,-2087 631.222,-2105"/>
<polyline fill="none" stroke="black" points="605.452,-2092.3 605.452,-2081.7 "/>
<polyline fill="none" stroke="black" points="620.458,-2074.3 641.986,-2074.3 "/>
<polyline fill="none" stroke="black" points="656.992,-2081.7 656.992,-2092.3 "/>
<polyline fill="none" stroke="black" points="641.986,-2099.7 620.458,-2099.7 "/>
<text text-anchor="middle" x="631.222" y="-2083.3" font-family="Times,serif" font-size="14.00">App</text>
</g>
<!-- KernelTrait -->
<g id="node8" class="node"><title>KernelTrait</title>
<polygon fill="none" stroke="black" points="931.939,-2142 858.374,-2124 931.939,-2106 1005.5,-2124 931.939,-2142"/>
<text text-anchor="middle" x="931.939" y="-2120.3" font-family="Times,serif" font-size="14.00">KernelTrait</text>
</g>
<!-- App&#45;&gt;KernelTrait -->
<g id="edge8" class="edge"><title>App&#45;&gt;KernelTrait</title>
<path fill="none" stroke="black" d="M660.864,-2090.55C709.348,-2096.55 808.521,-2108.84 872.255,-2116.73"/>
<polygon fill="black" stroke="black" points="872.2,-2120.25 882.555,-2118.01 873.061,-2113.3 872.2,-2120.25"/>
</g>
<!-- AutoLoader -->
<g id="node9" class="node"><title>AutoLoader</title>
<polygon fill="lightgrey" stroke="black" points="1214.27,-2330 1139.03,-2312 1214.27,-2294 1289.52,-2312 1214.27,-2330"/>
<polyline fill="none" stroke="black" points="1150.7,-2314.79 1150.7,-2309.21 "/>
<polyline fill="none" stroke="black" points="1202.6,-2296.79 1225.94,-2296.79 "/>
<polyline fill="none" stroke="black" points="1277.84,-2309.21 1277.84,-2314.79 "/>
<polyline fill="none" stroke="black" points="1225.94,-2327.21 1202.6,-2327.21 "/>
<text text-anchor="middle" x="1214.27" y="-2308.3" font-family="Times,serif" font-size="14.00">AutoLoader</text>
</g>
<!-- App&#45;&gt;AutoLoader -->
<g id="edge10" class="edge"><title>App&#45;&gt;AutoLoader</title>
<path fill="none" stroke="black" d="M644.915,-2098.27C685.409,-2134.2 809.024,-2243.81 811.53,-2245 914.012,-2293.72 1045.88,-2307.69 1130.02,-2311.33"/>
<polygon fill="black" stroke="black" points="1129.91,-2314.82 1140.04,-2311.72 1130.18,-2307.83 1129.91,-2314.82"/>
</g>
<!-- ExceptionManager -->
<g id="node10" class="node"><title>ExceptionManager</title>
<polygon fill="none" stroke="black" points="1274.27,-2114 1154.27,-2114 1154.27,-2110 1150.27,-2110 1150.27,-2106 1154.27,-2106 1154.27,-2086 1150.27,-2086 1150.27,-2082 1154.27,-2082 1154.27,-2078 1274.27,-2078 1274.27,-2114"/>
<polyline fill="none" stroke="black" points="1154.27,-2110 1158.27,-2110 1158.27,-2106 1154.27,-2106 "/>
<polyline fill="none" stroke="black" points="1154.27,-2086 1158.27,-2086 1158.27,-2082 1154.27,-2082 "/>
<text text-anchor="middle" x="1214.27" y="-2092.3" font-family="Times,serif" font-size="14.00">ExceptionManager</text>
</g>
<!-- App&#45;&gt;ExceptionManager -->
<g id="edge13" class="edge"><title>App&#45;&gt;ExceptionManager</title>
<path fill="none" stroke="black" d="M666.829,-2087.54C760.22,-2088.98 1018.75,-2092.99 1143.78,-2094.92"/>
<polygon fill="black" stroke="black" points="1143.95,-2098.43 1154,-2095.08 1144.05,-2091.43 1143.95,-2098.43"/>
</g>
<!-- View -->
<g id="node11" class="node"><title>View</title>
<polygon fill="none" stroke="black" points="1241.27,-1986 1187.27,-1986 1187.27,-1982 1183.27,-1982 1183.27,-1978 1187.27,-1978 1187.27,-1958 1183.27,-1958 1183.27,-1954 1187.27,-1954 1187.27,-1950 1241.27,-1950 1241.27,-1986"/>
<polyline fill="none" stroke="black" points="1187.27,-1982 1191.27,-1982 1191.27,-1978 1187.27,-1978 "/>
<polyline fill="none" stroke="black" points="1187.27,-1958 1191.27,-1958 1191.27,-1954 1187.27,-1954 "/>
<text text-anchor="middle" x="1214.27" y="-1964.3" font-family="Times,serif" font-size="14.00">View</text>
</g>
<!-- App&#45;&gt;View -->
<g id="edge16" class="edge"><title>App&#45;&gt;View</title>
<path fill="none" stroke="black" d="M652.071,-2079.24C684.805,-2066.71 752.382,-2042.04 811.53,-2028 944.341,-1996.47 1105.99,-1978.32 1176.94,-1971.34"/>
<polygon fill="black" stroke="black" points="1177.52,-1974.8 1187.13,-1970.35 1176.84,-1967.83 1177.52,-1974.8"/>
</g>
<!-- Configer -->
<g id="node12" class="node"><title>Configer</title>
<polygon fill="none" stroke="black" points="1246.77,-2040 1181.77,-2040 1181.77,-2036 1177.77,-2036 1177.77,-2032 1181.77,-2032 1181.77,-2012 1177.77,-2012 1177.77,-2008 1181.77,-2008 1181.77,-2004 1246.77,-2004 1246.77,-2040"/>
<polyline fill="none" stroke="black" points="1181.77,-2036 1185.77,-2036 1185.77,-2032 1181.77,-2032 "/>
<polyline fill="none" stroke="black" points="1181.77,-2012 1185.77,-2012 1185.77,-2008 1181.77,-2008 "/>
<text text-anchor="middle" x="1214.27" y="-2018.3" font-family="Times,serif" font-size="14.00">Configer</text>
</g>
<!-- App&#45;&gt;Configer -->
<g id="edge11" class="edge"><title>App&#45;&gt;Configer</title>
<path fill="none" stroke="black" d="M657.04,-2081.6C691.53,-2074.28 755.983,-2061.3 811.53,-2054 942.28,-2036.81 1098.27,-2027.58 1171.46,-2023.92"/>
<polygon fill="black" stroke="black" points="1171.83,-2027.4 1181.65,-2023.41 1171.49,-2020.41 1171.83,-2027.4"/>
</g>
<!-- Logger -->
<g id="node13" class="node"><title>Logger</title>
<polygon fill="none" stroke="black" points="959.939,-1972 903.939,-1972 903.939,-1968 899.939,-1968 899.939,-1964 903.939,-1964 903.939,-1944 899.939,-1944 899.939,-1940 903.939,-1940 903.939,-1936 959.939,-1936 959.939,-1972"/>
<polyline fill="none" stroke="black" points="903.939,-1968 907.939,-1968 907.939,-1964 903.939,-1964 "/>
<polyline fill="none" stroke="black" points="903.939,-1944 907.939,-1944 907.939,-1940 903.939,-1940 "/>
<text text-anchor="middle" x="931.939" y="-1950.3" font-family="Times,serif" font-size="14.00">Logger</text>
</g>
<!-- App&#45;&gt;Logger -->
<g id="edge12" class="edge"><title>App&#45;&gt;Logger</title>
<path fill="none" stroke="black" d="M650.127,-2078.07C682.206,-2062.17 751.72,-2028.17 811.53,-2002 839.055,-1989.96 870.611,-1977.32 894.369,-1968.04"/>
<polygon fill="black" stroke="black" points="895.663,-1971.29 903.713,-1964.4 893.125,-1964.77 895.663,-1971.29"/>
</g>
<!-- Route -->
<g id="node14" class="node"><title>Route</title>
<polygon fill="lightgrey" stroke="black" points="1214.27,-2222 1169.2,-2204 1214.27,-2186 1259.35,-2204 1214.27,-2222"/>
<polyline fill="none" stroke="black" points="1180.34,-2208.45 1180.34,-2199.55 "/>
<polyline fill="none" stroke="black" points="1203.13,-2190.45 1225.42,-2190.45 "/>
<polyline fill="none" stroke="black" points="1248.21,-2199.55 1248.21,-2208.45 "/>
<polyline fill="none" stroke="black" points="1225.42,-2217.55 1203.13,-2217.55 "/>
<text text-anchor="middle" x="1214.27" y="-2200.3" font-family="Times,serif" font-size="14.00">Route</text>
</g>
<!-- App&#45;&gt;Route -->
<g id="edge14" class="edge"><title>App&#45;&gt;Route</title>
<path fill="none" stroke="black" d="M650.884,-2095.35C682.997,-2109.33 751.091,-2137.29 811.53,-2151 916.468,-2174.81 945.764,-2161.21 1052.35,-2176 1093.79,-2181.75 1140.91,-2190.17 1173.4,-2196.28"/>
<polygon fill="black" stroke="black" points="1172.94,-2199.75 1183.41,-2198.17 1174.24,-2192.87 1172.94,-2199.75"/>
</g>
<!-- RuntimeState -->
<g id="node15" class="node"><title>RuntimeState</title>
<polygon fill="none" stroke="black" points="1259.77,-2276 1168.77,-2276 1168.77,-2272 1164.77,-2272 1164.77,-2268 1168.77,-2268 1168.77,-2248 1164.77,-2248 1164.77,-2244 1168.77,-2244 1168.77,-2240 1259.77,-2240 1259.77,-2276"/>
<polyline fill="none" stroke="black" points="1168.77,-2272 1172.77,-2272 1172.77,-2268 1168.77,-2268 "/>
<polyline fill="none" stroke="black" points="1168.77,-2248 1172.77,-2248 1172.77,-2244 1168.77,-2244 "/>
<text text-anchor="middle" x="1214.27" y="-2254.3" font-family="Times,serif" font-size="14.00">RuntimeState</text>
</g>
<!-- App&#45;&gt;RuntimeState -->
<g id="edge15" class="edge"><title>App&#45;&gt;RuntimeState</title>
<path fill="none" stroke="black" d="M648.33,-2096.64C678.912,-2114.43 748.016,-2152.1 811.53,-2169 863.462,-2182.82 1005.86,-2164.04 1052.35,-2191 1071.12,-2201.89 1062.2,-2219.1 1080.35,-2231 1103.28,-2246.03 1132.86,-2252.98 1158.29,-2256.08"/>
<polygon fill="black" stroke="black" points="1158.22,-2259.59 1168.53,-2257.15 1158.95,-2252.63 1158.22,-2259.59"/>
</g>
<!-- SystemWrapperTrait -->
<g id="node16" class="node"><title>SystemWrapperTrait</title>
<polygon fill="none" stroke="black" points="931.939,-2236 811.62,-2218 931.939,-2200 1052.26,-2218 931.939,-2236"/>
<text text-anchor="middle" x="931.939" y="-2214.3" font-family="Times,serif" font-size="14.00">SystemWrapperTrait</text>
</g>
<!-- App&#45;&gt;SystemWrapperTrait -->
<g id="edge9" class="edge"><title>App&#45;&gt;SystemWrapperTrait</title>
<path fill="none" stroke="black" d="M647.421,-2097.07C677.565,-2116.65 747.546,-2160.21 811.53,-2186 830.515,-2193.65 851.928,-2200.04 871.325,-2205.05"/>
<polygon fill="black" stroke="black" points="870.71,-2208.51 881.261,-2207.55 872.413,-2201.72 870.71,-2208.51"/>
</g>
<!-- ComponentBase -->
<g id="node19" class="node"><title>ComponentBase</title>
<polygon fill="none" stroke="black" points="1546.7,-1966 1443.7,-1966 1439.7,-1962 1439.7,-1930 1542.7,-1930 1546.7,-1934 1546.7,-1966"/>
<polyline fill="none" stroke="black" points="1542.7,-1962 1439.7,-1962 "/>
<polyline fill="none" stroke="black" points="1542.7,-1962 1542.7,-1930 "/>
<polyline fill="none" stroke="black" points="1542.7,-1962 1546.7,-1966 "/>
<text text-anchor="middle" x="1493.2" y="-1944.3" font-family="Times,serif" font-size="14.00">ComponentBase</text>
</g>
<!-- App&#45;&gt;ComponentBase -->
<g id="edge17" class="edge"><title>App&#45;&gt;ComponentBase</title>
<path fill="none" stroke="black" stroke-dasharray="1,5" d="M665.568,-2085.7C801.466,-2080.34 1307.85,-2059.72 1340.2,-2049 1388.58,-2032.96 1436.18,-1997.2 1464.87,-1972.83"/>
<polygon fill="black" stroke="black" points="1467.17,-1975.47 1472.45,-1966.29 1462.6,-1970.17 1467.17,-1975.47"/>
</g>
<!-- KernelTrait&#45;&gt;AutoLoader -->
<g id="edge1" class="edge"><title>KernelTrait&#45;&gt;AutoLoader</title>
<path fill="none" stroke="black" d="M964.61,-2134.12C991.669,-2144.33 1029.71,-2162.69 1052.35,-2191 1079.57,-2225.05 1048.18,-2255.58 1080.35,-2285 1094.42,-2297.87 1112.88,-2305.29 1131.55,-2309.44"/>
<polygon fill="black" stroke="black" points="1131.13,-2312.92 1141.61,-2311.37 1132.45,-2306.05 1131.13,-2312.92"/>
</g>
<!-- KernelTrait&#45;&gt;ExceptionManager -->
<g id="edge3" class="edge"><title>KernelTrait&#45;&gt;ExceptionManager</title>
<path fill="none" stroke="black" d="M984.684,-2118.83C1029.53,-2114.35 1094.79,-2107.83 1144.11,-2102.91"/>
<polygon fill="black" stroke="black" points="1144.46,-2106.39 1154.06,-2101.91 1143.76,-2099.43 1144.46,-2106.39"/>
</g>
<!-- KernelTrait&#45;&gt;View -->
<g id="edge6" class="edge"><title>KernelTrait&#45;&gt;View</title>
<path fill="none" stroke="black" d="M947.564,-2109.44C978.495,-2078.94 1050.18,-2009.94 1080.35,-1995 1110.95,-1979.85 1149.52,-1973.2 1177.22,-1970.28"/>
<polygon fill="black" stroke="black" points="1177.64,-1973.76 1187.27,-1969.34 1176.98,-1966.79 1177.64,-1973.76"/>
</g>
<!-- KernelTrait&#45;&gt;Configer -->
<g id="edge2" class="edge"><title>KernelTrait&#45;&gt;Configer</title>
<path fill="none" stroke="black" d="M961.42,-2113.21C991.071,-2102.01 1038.89,-2084.06 1080.35,-2069 1110.95,-2057.88 1145.63,-2045.63 1171.9,-2036.42"/>
<polygon fill="black" stroke="black" points="1173.24,-2039.66 1181.53,-2033.05 1170.93,-2033.05 1173.24,-2039.66"/>
</g>
<!-- KernelTrait&#45;&gt;Route -->
<g id="edge4" class="edge"><title>KernelTrait&#45;&gt;Route</title>
<path fill="none" stroke="black" d="M975.79,-2131.34C999.188,-2136.36 1028.22,-2144.27 1052.35,-2156 1066.34,-2162.8 1066.16,-2170.63 1080.35,-2177 1107.56,-2189.22 1140.4,-2195.95 1166.62,-2199.64"/>
<polygon fill="black" stroke="black" points="1166.32,-2203.13 1176.68,-2200.96 1167.22,-2196.19 1166.32,-2203.13"/>
</g>
<!-- KernelTrait&#45;&gt;RuntimeState -->
<g id="edge5" class="edge"><title>KernelTrait&#45;&gt;RuntimeState</title>
<path fill="none" stroke="black" d="M969.527,-2132.82C995.27,-2140.59 1029.14,-2154.14 1052.35,-2176 1072.32,-2194.8 1058.51,-2214.4 1080.35,-2231 1102.52,-2247.86 1132.59,-2254.91 1158.52,-2257.6"/>
<polygon fill="black" stroke="black" points="1158.33,-2261.1 1168.59,-2258.46 1158.93,-2254.13 1158.33,-2261.1"/>
</g>
<!-- Functions -->
<g id="node20" class="node"><title>Functions</title>
<ellipse fill="none" stroke="black" cx="1214.27" cy="-2150" rx="45.4919" ry="18"/>
<text text-anchor="middle" x="1214.27" y="-2146.3" font-family="Times,serif" font-size="14.00">Functions</text>
</g>
<!-- KernelTrait&#45;&gt;Functions -->
<g id="edge7" class="edge"><title>KernelTrait&#45;&gt;Functions</title>
<path fill="none" stroke="black" d="M985.668,-2128.89C1035.38,-2133.5 1109.51,-2140.38 1159.54,-2145.02"/>
<polygon fill="black" stroke="black" points="1159.25,-2148.5 1169.53,-2145.94 1159.89,-2141.53 1159.25,-2148.5"/>
</g>
<!-- ExceptionManager&#45;&gt;ComponentBase -->
<g id="edge18" class="edge"><title>ExceptionManager&#45;&gt;ComponentBase</title>
<path fill="none" stroke="black" stroke-dasharray="1,5" d="M1274.51,-2085.93C1295.88,-2080.99 1319.75,-2073.91 1340.2,-2064 1389.07,-2040.31 1437.56,-1999.52 1466.2,-1973.16"/>
<polygon fill="black" stroke="black" points="1468.8,-1975.52 1473.73,-1966.14 1464.03,-1970.4 1468.8,-1975.52"/>
</g>
<!-- View&#45;&gt;ComponentBase -->
<g id="edge22" class="edge"><title>View&#45;&gt;ComponentBase</title>
<path fill="none" stroke="black" stroke-dasharray="1,5" d="M1241.33,-1966.12C1284.09,-1963.03 1370.34,-1956.8 1429.67,-1952.52"/>
<polygon fill="black" stroke="black" points="1429.96,-1956 1439.68,-1951.79 1429.46,-1949.02 1429.96,-1956"/>
</g>
<!-- Configer&#45;&gt;ComponentBase -->
<g id="edge19" class="edge"><title>Configer&#45;&gt;ComponentBase</title>
<path fill="none" stroke="black" stroke-dasharray="1,5" d="M1247.03,-2015.93C1272.39,-2010.89 1308.75,-2003.24 1340.2,-1995 1369.82,-1987.23 1402.3,-1977.38 1429.6,-1968.7"/>
<polygon fill="black" stroke="black" points="1430.96,-1971.94 1439.41,-1965.56 1428.82,-1965.27 1430.96,-1971.94"/>
</g>
<!-- Logger&#45;&gt;ComponentBase -->
<g id="edge23" class="edge"><title>Logger&#45;&gt;ComponentBase</title>
<path fill="none" stroke="black" stroke-dasharray="1,5" d="M960.061,-1950.89C989.598,-1947.67 1038.26,-1942.85 1080.35,-1941 1204.01,-1935.56 1348.74,-1940.68 1429.5,-1944.56"/>
<polygon fill="black" stroke="black" points="1429.35,-1948.06 1439.51,-1945.05 1429.69,-1941.07 1429.35,-1948.06"/>
</g>
<!-- Route&#45;&gt;ComponentBase -->
<g id="edge20" class="edge"><title>Route&#45;&gt;ComponentBase</title>
<path fill="none" stroke="black" stroke-dasharray="1,5" d="M1256.61,-2202.87C1282.56,-2200.37 1315.64,-2193.76 1340.2,-2177 1415.08,-2125.9 1462.53,-2024.52 1482.03,-1975.63"/>
<polygon fill="black" stroke="black" points="1485.4,-1976.63 1485.76,-1966.04 1478.87,-1974.09 1485.4,-1976.63"/>
</g>
<!-- RuntimeState&#45;&gt;ComponentBase -->
<g id="edge21" class="edge"><title>RuntimeState&#45;&gt;ComponentBase</title>
<path fill="none" stroke="black" stroke-dasharray="1,5" d="M1259.82,-2257.4C1285.54,-2254.99 1317.24,-2248.28 1340.2,-2231 1427.86,-2165 1470.56,-2033.28 1485.63,-1975.85"/>
<polygon fill="black" stroke="black" points="1489.05,-1976.58 1488.12,-1966.02 1482.27,-1974.85 1489.05,-1976.58"/>
</g>
<!-- ExtendableStaticCallTrait -->
<g id="node17" class="node"><title>ExtendableStaticCallTrait</title>
<polygon fill="none" stroke="black" points="631.222,-2259 487.106,-2241 631.222,-2223 775.338,-2241 631.222,-2259"/>
<text text-anchor="middle" x="631.222" y="-2237.3" font-family="Times,serif" font-size="14.00">ExtendableStaticCallTrait</text>
</g>
<!-- ComponentInterface -->
<g id="node18" class="node"><title>ComponentInterface</title>
<polygon fill="none" stroke="black" points="1768.2,-1966 1646.2,-1966 1646.2,-1930 1774.2,-1930 1774.2,-1960 1768.2,-1966"/>
<polyline fill="none" stroke="black" points="1768.2,-1966 1768.2,-1960 "/>
<polyline fill="none" stroke="black" points="1774.2,-1960 1768.2,-1960 "/>
<text text-anchor="middle" x="1710.2" y="-1944.3" font-family="Times,serif" font-size="14.00">ComponentInterface</text>
</g>
<!-- ComponentBase&#45;&gt;ComponentInterface -->
<g id="edge24" class="edge"><title>ComponentBase&#45;&gt;ComponentInterface</title>
<path fill="none" stroke="black" d="M1546.79,-1948C1573.59,-1948 1606.62,-1948 1635.87,-1948"/>
<polygon fill="black" stroke="black" points="1636.05,-1951.5 1646.05,-1948 1636.05,-1944.5 1636.05,-1951.5"/>
</g>
<!-- AdvanceHelper -->
<g id="node21" class="node"><title>AdvanceHelper</title>
<polygon fill="lightgrey" stroke="black" points="117.107,-2051 24.4372,-2033 117.107,-2015 209.777,-2033 117.107,-2051"/>
<polyline fill="none" stroke="black" points="36.2171,-2035.29 36.2171,-2030.71 "/>
<polyline fill="none" stroke="black" points="105.327,-2017.29 128.887,-2017.29 "/>
<polyline fill="none" stroke="black" points="197.998,-2030.71 197.998,-2035.29 "/>
<polyline fill="none" stroke="black" points="128.887,-2048.71 105.327,-2048.71 "/>
<text text-anchor="middle" x="117.107" y="-2029.3" font-family="Times,serif" font-size="14.00">AdvanceHelper</text>
</g>
<!-- AdvanceHelper&#45;&gt;ExtendableStaticCallTrait -->
<g id="edge30" class="edge"><title>AdvanceHelper&#45;&gt;ExtendableStaticCallTrait</title>
<path fill="none" stroke="black" d="M179.415,-2027.01C195.907,-2023.04 212.856,-2016.55 226.215,-2006 247.428,-1989.24 231.114,-1966.04 254.215,-1952 331.954,-1904.74 390.756,-1891.74 458.914,-1952 486.089,-1976.03 461.598,-2082.13 478.914,-2114 505.176,-2162.34 557.933,-2199.96 593.67,-2221.32"/>
<polygon fill="black" stroke="black" points="591.963,-2224.38 602.363,-2226.4 595.493,-2218.33 591.963,-2224.38"/>
</g>
<!-- AdvanceHelperTrait -->
<g id="node26" class="node"><title>AdvanceHelperTrait</title>
<ellipse fill="none" stroke="black" cx="352.564" cy="-2033" rx="83.3857" ry="18"/>
<text text-anchor="middle" x="352.564" y="-2029.3" font-family="Times,serif" font-size="14.00">AdvanceHelperTrait</text>
</g>
<!-- AdvanceHelper&#45;&gt;AdvanceHelperTrait -->
<g id="edge35" class="edge"><title>AdvanceHelper&#45;&gt;AdvanceHelperTrait</title>
<path fill="none" stroke="black" d="M210.041,-2033C226.055,-2033 242.722,-2033 258.76,-2033"/>
<polygon fill="black" stroke="black" points="259.195,-2036.5 269.195,-2033 259.195,-2029.5 259.195,-2036.5"/>
</g>
<!-- ControllerHelper -->
<g id="node22" class="node"><title>ControllerHelper</title>
<polygon fill="lightgrey" stroke="black" points="117.107,-1997 16.7307,-1979 117.107,-1961 217.484,-1979 117.107,-1997"/>
<polyline fill="none" stroke="black" points="28.5423,-1981.12 28.5423,-1976.88 "/>
<polyline fill="none" stroke="black" points="105.296,-1963.12 128.919,-1963.12 "/>
<polyline fill="none" stroke="black" points="205.672,-1976.88 205.672,-1981.12 "/>
<polyline fill="none" stroke="black" points="128.919,-1994.88 105.296,-1994.88 "/>
<text text-anchor="middle" x="117.107" y="-1975.3" font-family="Times,serif" font-size="14.00">ControllerHelper</text>
</g>
<!-- ControllerHelper&#45;&gt;ExtendableStaticCallTrait -->
<g id="edge31" class="edge"><title>ControllerHelper&#45;&gt;ExtendableStaticCallTrait</title>
<path fill="none" stroke="black" d="M138.479,-1964.49C196.624,-1924.99 365.19,-1823.97 458.914,-1909 492.815,-1939.75 457.58,-2073.5 478.914,-2114 504.556,-2162.67 557.469,-2200.21 593.411,-2221.46"/>
<polygon fill="black" stroke="black" points="591.745,-2224.54 602.156,-2226.51 595.245,-2218.48 591.745,-2224.54"/>
</g>
<!-- ControllerHelperTrait -->
<g id="node27" class="node"><title>ControllerHelperTrait</title>
<ellipse fill="none" stroke="black" cx="352.564" cy="-1979" rx="87.9851" ry="18"/>
<text text-anchor="middle" x="352.564" y="-1975.3" font-family="Times,serif" font-size="14.00">ControllerHelperTrait</text>
</g>
<!-- ControllerHelper&#45;&gt;ControllerHelperTrait -->
<g id="edge36" class="edge"><title>ControllerHelper&#45;&gt;ControllerHelperTrait</title>
<path fill="none" stroke="black" d="M217.453,-1979C229.669,-1979 242.145,-1979 254.33,-1979"/>
<polygon fill="black" stroke="black" points="254.485,-1982.5 264.484,-1979 254.484,-1975.5 254.485,-1982.5"/>
</g>
<!-- ModelHelper -->
<g id="node23" class="node"><title>ModelHelper</title>
<polygon fill="lightgrey" stroke="black" points="117.107,-2213 35.4968,-2195 117.107,-2177 198.718,-2195 117.107,-2213"/>
<polyline fill="none" stroke="black" points="47.2152,-2197.58 47.2152,-2192.42 "/>
<polyline fill="none" stroke="black" points="105.389,-2179.58 128.826,-2179.58 "/>
<polyline fill="none" stroke="black" points="186.999,-2192.42 186.999,-2197.58 "/>
<polyline fill="none" stroke="black" points="128.826,-2210.42 105.389,-2210.42 "/>
<text text-anchor="middle" x="117.107" y="-2191.3" font-family="Times,serif" font-size="14.00">ModelHelper</text>
</g>
<!-- ModelHelper&#45;&gt;ExtendableStaticCallTrait -->
<g id="edge32" class="edge"><title>ModelHelper&#45;&gt;ExtendableStaticCallTrait</title>
<path fill="none" stroke="black" d="M132.25,-2209.99C155.22,-2233.12 203.225,-2276.55 254.215,-2293 371.471,-2330.82 518.001,-2285.67 588.511,-2258.56"/>
<polygon fill="black" stroke="black" points="589.91,-2261.77 597.945,-2254.87 587.357,-2255.25 589.91,-2261.77"/>
</g>
<!-- ModelHelperTrait -->
<g id="node28" class="node"><title>ModelHelperTrait</title>
<ellipse fill="none" stroke="black" cx="352.564" cy="-2195" rx="75.2868" ry="18"/>
<text text-anchor="middle" x="352.564" y="-2191.3" font-family="Times,serif" font-size="14.00">ModelHelperTrait</text>
</g>
<!-- ModelHelper&#45;&gt;ModelHelperTrait -->
<g id="edge37" class="edge"><title>ModelHelper&#45;&gt;ModelHelperTrait</title>
<path fill="none" stroke="black" d="M198.777,-2195C220.835,-2195 244.799,-2195 267.065,-2195"/>
<polygon fill="black" stroke="black" points="267.163,-2198.5 277.163,-2195 267.163,-2191.5 267.163,-2198.5"/>
</g>
<!-- BusinessHelper -->
<g id="node24" class="node"><title>BusinessHelper</title>
<polygon fill="lightgrey" stroke="black" points="117.107,-2159 24.4372,-2141 117.107,-2123 209.777,-2141 117.107,-2159"/>
<polyline fill="none" stroke="black" points="36.2171,-2143.29 36.2171,-2138.71 "/>
<polyline fill="none" stroke="black" points="105.327,-2125.29 128.887,-2125.29 "/>
<polyline fill="none" stroke="black" points="197.998,-2138.71 197.998,-2143.29 "/>
<polyline fill="none" stroke="black" points="128.887,-2156.71 105.327,-2156.71 "/>
<text text-anchor="middle" x="117.107" y="-2137.3" font-family="Times,serif" font-size="14.00">BusinessHelper</text>
</g>
<!-- BusinessHelper&#45;&gt;ExtendableStaticCallTrait -->
<g id="edge33" class="edge"><title>BusinessHelper&#45;&gt;ExtendableStaticCallTrait</title>
<path fill="none" stroke="black" d="M183.146,-2146.22C198.816,-2150.26 214.418,-2156.96 226.215,-2168 255.878,-2195.75 221.386,-2231.08 254.215,-2255 301.524,-2289.47 466.877,-2268.82 561.808,-2253.33"/>
<polygon fill="black" stroke="black" points="562.601,-2256.74 571.895,-2251.66 561.458,-2249.84 562.601,-2256.74"/>
</g>
<!-- BusinessHelperTrait -->
<g id="node29" class="node"><title>BusinessHelperTrait</title>
<ellipse fill="none" stroke="black" cx="352.564" cy="-2141" rx="83.3857" ry="18"/>
<text text-anchor="middle" x="352.564" y="-2137.3" font-family="Times,serif" font-size="14.00">BusinessHelperTrait</text>
</g>
<!-- BusinessHelper&#45;&gt;BusinessHelperTrait -->
<g id="edge38" class="edge"><title>BusinessHelper&#45;&gt;BusinessHelperTrait</title>
<path fill="none" stroke="black" d="M210.041,-2141C226.055,-2141 242.722,-2141 258.76,-2141"/>
<polygon fill="black" stroke="black" points="259.195,-2144.5 269.195,-2141 259.195,-2137.5 259.195,-2144.5"/>
</g>
<!-- ViewHelper -->
<g id="node25" class="node"><title>ViewHelper</title>
<polygon fill="lightgrey" stroke="black" points="117.107,-2105 41.0266,-2087 117.107,-2069 193.188,-2087 117.107,-2105"/>
<polyline fill="none" stroke="black" points="52.7042,-2089.76 52.7042,-2084.24 "/>
<polyline fill="none" stroke="black" points="105.43,-2071.76 128.785,-2071.76 "/>
<polyline fill="none" stroke="black" points="181.51,-2084.24 181.51,-2089.76 "/>
<polyline fill="none" stroke="black" points="128.785,-2102.24 105.43,-2102.24 "/>
<text text-anchor="middle" x="117.107" y="-2083.3" font-family="Times,serif" font-size="14.00">ViewHelper</text>
</g>
<!-- ViewHelper&#45;&gt;ExtendableStaticCallTrait -->
<g id="edge34" class="edge"><title>ViewHelper&#45;&gt;ExtendableStaticCallTrait</title>
<path fill="none" stroke="black" d="M178.519,-2090.56C195.866,-2094.38 213.505,-2101.4 226.215,-2114 261.434,-2148.91 215.776,-2190.67 254.215,-2222 295.443,-2255.6 436.206,-2254.16 533.293,-2248.65"/>
<polygon fill="black" stroke="black" points="533.654,-2252.13 543.43,-2248.05 533.241,-2245.15 533.654,-2252.13"/>
</g>
<!-- ViewHelperTrait -->
<g id="node30" class="node"><title>ViewHelperTrait</title>
<ellipse fill="none" stroke="black" cx="352.564" cy="-2087" rx="70.6878" ry="18"/>
<text text-anchor="middle" x="352.564" y="-2083.3" font-family="Times,serif" font-size="14.00">ViewHelperTrait</text>
</g>
<!-- ViewHelper&#45;&gt;ViewHelperTrait -->
<g id="edge39" class="edge"><title>ViewHelper&#45;&gt;ViewHelperTrait</title>
<path fill="none" stroke="black" d="M193.26,-2087C218.213,-2087 246.083,-2087 271.4,-2087"/>
<polygon fill="black" stroke="black" points="271.705,-2090.5 281.705,-2087 271.705,-2083.5 271.705,-2090.5"/>
</g>
<!-- AdvanceHelperTrait&#45;&gt;App -->
<g id="edge25" class="edge"><title>AdvanceHelperTrait&#45;&gt;App</title>
<path fill="none" stroke="black" d="M414.964,-2044.98C470.198,-2055.77 549.428,-2071.23 594.764,-2080.08"/>
<polygon fill="black" stroke="black" points="594.228,-2083.54 604.714,-2082.02 595.569,-2076.67 594.228,-2083.54"/>
</g>
<!-- ControllerHelperTrait&#45;&gt;App -->
<g id="edge26" class="edge"><title>ControllerHelperTrait&#45;&gt;App</title>
<path fill="none" stroke="black" d="M412.952,-1992.11C428.113,-1996.03 444.262,-2000.71 458.914,-2006 512.146,-2025.21 571.188,-2055.17 604.197,-2072.77"/>
<polygon fill="black" stroke="black" points="602.715,-2075.95 613.18,-2077.6 606.028,-2069.78 602.715,-2075.95"/>
</g>
<!-- ModelHelperTrait&#45;&gt;App -->
<g id="edge27" class="edge"><title>ModelHelperTrait&#45;&gt;App</title>
<path fill="none" stroke="black" d="M408.844,-2182.94C425.164,-2178.82 442.93,-2173.77 458.914,-2168 512.146,-2148.79 571.188,-2118.83 604.197,-2101.23"/>
<polygon fill="black" stroke="black" points="606.028,-2104.22 613.18,-2096.4 602.715,-2098.05 606.028,-2104.22"/>
</g>
<!-- BusinessHelperTrait&#45;&gt;App -->
<g id="edge28" class="edge"><title>BusinessHelperTrait&#45;&gt;App</title>
<path fill="none" stroke="black" d="M414.964,-2129.02C470.198,-2118.23 549.428,-2102.77 594.764,-2093.92"/>
<polygon fill="black" stroke="black" points="595.569,-2097.33 604.714,-2091.98 594.228,-2090.46 595.569,-2097.33"/>
</g>
<!-- ViewHelperTrait&#45;&gt;App -->
<g id="edge29" class="edge"><title>ViewHelperTrait&#45;&gt;App</title>
<path fill="none" stroke="black" d="M423.734,-2087C474.123,-2087 540.598,-2087 584.336,-2087"/>
<polygon fill="black" stroke="black" points="584.397,-2090.5 594.397,-2087 584.397,-2083.5 584.397,-2090.5"/>
</g>
<!-- Db_Db -->
<g id="node31" class="node"><title>Db_Db</title>
<polygon fill="lightgrey" stroke="black" points="117.107,-2408 86.942,-2390 117.107,-2372 147.273,-2390 117.107,-2408"/>
<polyline fill="none" stroke="black" points="96.9971,-2396 96.9971,-2384 "/>
<polyline fill="none" stroke="black" points="107.052,-2378 127.162,-2378 "/>
<polyline fill="none" stroke="black" points="137.217,-2384 137.217,-2396 "/>
<polyline fill="none" stroke="black" points="127.162,-2402 107.052,-2402 "/>
<text text-anchor="middle" x="117.107" y="-2386.3" font-family="Times,serif" font-size="14.00">Db</text>
</g>
<!-- Db_DbAdvanceTrait -->
<g id="node32" class="node"><title>Db_DbAdvanceTrait</title>
<polygon fill="none" stroke="black" points="352.564,-2435 254.365,-2417 352.564,-2399 450.764,-2417 352.564,-2435"/>
<text text-anchor="middle" x="352.564" y="-2413.3" font-family="Times,serif" font-size="14.00">DbAdvanceTrait</text>
</g>
<!-- Db_Db&#45;&gt;Db_DbAdvanceTrait -->
<g id="edge40" class="edge"><title>Db_Db&#45;&gt;Db_DbAdvanceTrait</title>
<path fill="none" stroke="black" d="M142.65,-2392.84C175.37,-2396.62 234.621,-2403.48 281.688,-2408.92"/>
<polygon fill="black" stroke="black" points="281.501,-2412.42 291.836,-2410.09 282.305,-2405.47 281.501,-2412.42"/>
</g>
<!-- Db_DbInterface -->
<g id="node33" class="node"><title>Db_DbInterface</title>
<polygon fill="none" stroke="black" points="387.064,-2381 312.064,-2381 312.064,-2345 393.064,-2345 393.064,-2375 387.064,-2381"/>
<polyline fill="none" stroke="black" points="387.064,-2381 387.064,-2375 "/>
<polyline fill="none" stroke="black" points="393.064,-2375 387.064,-2375 "/>
<text text-anchor="middle" x="352.564" y="-2359.3" font-family="Times,serif" font-size="14.00">DbInterface</text>
</g>
<!-- Db_Db&#45;&gt;Db_DbInterface -->
<g id="edge41" class="edge"><title>Db_Db&#45;&gt;Db_DbInterface</title>
<path fill="none" stroke="black" d="M142.65,-2387.16C180.247,-2382.81 252.876,-2374.41 301.796,-2368.76"/>
<polygon fill="black" stroke="black" points="302.323,-2372.22 311.854,-2367.59 301.518,-2365.26 302.323,-2372.22"/>
</g>
<!-- AppPluginTrait -->
<g id="node34" class="node"><title>AppPluginTrait</title>
<polygon fill="lightgrey" stroke="black" points="931.939,-1838 839.269,-1820 931.939,-1802 1024.61,-1820 931.939,-1838"/>
<polyline fill="none" stroke="black" points="851.049,-1822.29 851.049,-1817.71 "/>
<polyline fill="none" stroke="black" points="920.159,-1804.29 943.719,-1804.29 "/>
<polyline fill="none" stroke="black" points="1012.83,-1817.71 1012.83,-1822.29 "/>
<polyline fill="none" stroke="black" points="943.719,-1835.71 920.159,-1835.71 "/>
<text text-anchor="middle" x="931.939" y="-1816.3" font-family="Times,serif" font-size="14.00">AppPluginTrait</text>
</g>
<!-- AppPluginTrait&#45;&gt;ExceptionManager -->
<g id="edge43" class="edge"><title>AppPluginTrait&#45;&gt;ExceptionManager</title>
<path fill="none" stroke="black" stroke-dasharray="5,2" d="M957.26,-1833.14C984.81,-1849.34 1028.91,-1879.52 1052.35,-1918 1083.32,-1968.85 1041.06,-2004.27 1080.35,-2049 1096.67,-2067.59 1120.83,-2078.82 1144.08,-2085.61"/>
<polygon fill="black" stroke="black" points="1143.4,-2089.06 1153.97,-2088.26 1145.21,-2082.29 1143.4,-2089.06"/>
</g>
<!-- AppPluginTrait&#45;&gt;View -->
<g id="edge45" class="edge"><title>AppPluginTrait&#45;&gt;View</title>
<path fill="none" stroke="black" stroke-dasharray="5,2" d="M957.817,-1833.13C1007.83,-1859.54 1120.67,-1919.11 1178.17,-1949.47"/>
<polygon fill="black" stroke="black" points="1176.76,-1952.68 1187.23,-1954.25 1180.03,-1946.49 1176.76,-1952.68"/>
</g>
<!-- AppPluginTrait&#45;&gt;Configer -->
<g id="edge44" class="edge"><title>AppPluginTrait&#45;&gt;Configer</title>
<path fill="none" stroke="black" stroke-dasharray="5,2" d="M955.863,-1833.45C982.506,-1850.15 1026.16,-1881.01 1052.35,-1918 1073.39,-1947.72 1052.76,-1971.23 1080.35,-1995 1105.29,-2016.49 1142.65,-2022.56 1171.41,-2023.64"/>
<polygon fill="black" stroke="black" points="1171.51,-2027.15 1181.58,-2023.84 1171.65,-2020.15 1171.51,-2027.15"/>
</g>
<!-- AppPluginTrait&#45;&gt;Route -->
<g id="edge46" class="edge"><title>AppPluginTrait&#45;&gt;Route</title>
<path fill="none" stroke="black" stroke-dasharray="5,2" d="M958.478,-1833.01C986.724,-1848.9 1031.05,-1878.6 1052.35,-1918 1079.88,-1968.93 1041.35,-2134.21 1080.35,-2177 1101.99,-2200.74 1138.31,-2206.85 1167.52,-2207.37"/>
<polygon fill="black" stroke="black" points="1167.53,-2210.87 1177.52,-2207.34 1167.51,-2203.87 1167.53,-2210.87"/>
</g>
<!-- EventManager -->
<g id="node39" class="node"><title>EventManager</title>
<polygon fill="none" stroke="black" points="1262.77,-1838 1165.77,-1838 1165.77,-1834 1161.77,-1834 1161.77,-1830 1165.77,-1830 1165.77,-1810 1161.77,-1810 1161.77,-1806 1165.77,-1806 1165.77,-1802 1262.77,-1802 1262.77,-1838"/>
<polyline fill="none" stroke="black" points="1165.77,-1834 1169.77,-1834 1169.77,-1830 1165.77,-1830 "/>
<polyline fill="none" stroke="black" points="1165.77,-1810 1169.77,-1810 1169.77,-1806 1165.77,-1806 "/>
<text text-anchor="middle" x="1214.27" y="-1816.3" font-family="Times,serif" font-size="14.00">EventManager</text>
</g>
<!-- AppPluginTrait&#45;&gt;EventManager -->
<g id="edge42" class="edge"><title>AppPluginTrait&#45;&gt;EventManager</title>
<path fill="none" stroke="black" d="M1024.73,-1820C1067.79,-1820 1117.79,-1820 1155.48,-1820"/>
<polygon fill="black" stroke="black" points="1155.76,-1823.5 1165.76,-1820 1155.76,-1816.5 1155.76,-1823.5"/>
</g>
<!-- Cache -->
<g id="node35" class="node"><title>Cache</title>
<polygon fill="none" stroke="black" points="958.939,-1514 904.939,-1514 904.939,-1510 900.939,-1510 900.939,-1506 904.939,-1506 904.939,-1486 900.939,-1486 900.939,-1482 904.939,-1482 904.939,-1478 958.939,-1478 958.939,-1514"/>
<polyline fill="none" stroke="black" points="904.939,-1510 908.939,-1510 908.939,-1506 904.939,-1506 "/>
<polyline fill="none" stroke="black" points="904.939,-1486 908.939,-1486 908.939,-1482 904.939,-1482 "/>
<text text-anchor="middle" x="931.939" y="-1492.3" font-family="Times,serif" font-size="14.00">Cache</text>
</g>
<!-- Cache&#45;&gt;ComponentBase -->
<g id="edge47" class="edge"><title>Cache&#45;&gt;ComponentBase</title>
<path fill="none" stroke="black" stroke-dasharray="1,5" d="M943.457,-1477.94C964.407,-1444 1015.01,-1371.65 1080.35,-1344 1133.53,-1321.49 1294.66,-1308.5 1340.2,-1344 1433.98,-1417.1 1478.81,-1810.37 1489.58,-1919.76"/>
<polygon fill="black" stroke="black" points="1486.1,-1920.1 1490.54,-1929.72 1493.06,-1919.42 1486.1,-1920.1"/>
</g>
<!-- Console -->
<g id="node36" class="node"><title>Console</title>
<polygon fill="lightgrey" stroke="black" points="1214.27,-1784 1158.14,-1766 1214.27,-1748 1270.41,-1766 1214.27,-1784"/>
<polyline fill="none" stroke="black" points="1169.56,-1769.66 1169.56,-1762.34 "/>
<polyline fill="none" stroke="black" points="1202.85,-1751.66 1225.7,-1751.66 "/>
<polyline fill="none" stroke="black" points="1258.98,-1762.34 1258.98,-1769.66 "/>
<polyline fill="none" stroke="black" points="1225.7,-1780.34 1202.85,-1780.34 "/>
<text text-anchor="middle" x="1214.27" y="-1762.3" font-family="Times,serif" font-size="14.00">Console</text>
</g>
<!-- DbManager -->
<g id="node37" class="node"><title>DbManager</title>
<polygon fill="none" stroke="black" points="972.939,-1676 890.939,-1676 890.939,-1672 886.939,-1672 886.939,-1668 890.939,-1668 890.939,-1648 886.939,-1648 886.939,-1644 890.939,-1644 890.939,-1640 972.939,-1640 972.939,-1676"/>
<polyline fill="none" stroke="black" points="890.939,-1672 894.939,-1672 894.939,-1668 890.939,-1668 "/>
<polyline fill="none" stroke="black" points="890.939,-1648 894.939,-1648 894.939,-1644 890.939,-1644 "/>
<text text-anchor="middle" x="931.939" y="-1654.3" font-family="Times,serif" font-size="14.00">DbManager</text>
</g>
<!-- DbManager&#45;&gt;ComponentBase -->
<g id="edge49" class="edge"><title>DbManager&#45;&gt;ComponentBase</title>
<path fill="none" stroke="black" stroke-dasharray="1,5" d="M973.111,-1659.66C999.325,-1658.46 1032.28,-1652.25 1052.35,-1631 1104.32,-1575.97 1022.59,-1511.93 1080.35,-1463 1168.47,-1388.35 1247.12,-1394.63 1340.2,-1463 1416.89,-1519.34 1472.25,-1825.02 1487.78,-1919.9"/>
<polygon fill="black" stroke="black" points="1484.35,-1920.59 1489.4,-1929.9 1491.26,-1919.47 1484.35,-1920.59"/>
</g>
<!-- X_Db_Db -->
<g id="node46" class="node"><title>X_Db_Db</title>
<polygon fill="none" stroke="black" points="1249.77,-1562 1160.77,-1562 1160.77,-1538 1249.77,-1538 1249.77,-1532 1267.77,-1550 1249.77,-1568 1249.77,-1562"/>
<text text-anchor="middle" x="1214.27" y="-1546.3" font-family="Times,serif" font-size="14.00">DuckPhp\Db\Db</text>
</g>
<!-- DbManager&#45;&gt;X_Db_Db -->
<g id="edge58" class="edge"><title>DbManager&#45;&gt;X_Db_Db</title>
<path fill="none" stroke="black" stroke-dasharray="5,2" d="M973.089,-1657.31C998.144,-1654.99 1029.8,-1648.4 1052.35,-1631 1073.75,-1614.48 1058.77,-1593.28 1080.35,-1577 1100.33,-1561.92 1126.64,-1554.71 1150.58,-1551.43"/>
<polygon fill="black" stroke="black" points="1151.14,-1554.89 1160.67,-1550.26 1150.33,-1547.94 1151.14,-1554.89"/>
</g>
<!-- DuckPhpCommand -->
<g id="node38" class="node"><title>DuckPhpCommand</title>
<polygon fill="none" stroke="black" points="994.439,-1784 869.439,-1784 869.439,-1780 865.439,-1780 865.439,-1776 869.439,-1776 869.439,-1756 865.439,-1756 865.439,-1752 869.439,-1752 869.439,-1748 994.439,-1748 994.439,-1784"/>
<polyline fill="none" stroke="black" points="869.439,-1780 873.439,-1780 873.439,-1776 869.439,-1776 "/>
<polyline fill="none" stroke="black" points="869.439,-1756 873.439,-1756 873.439,-1752 869.439,-1752 "/>
<text text-anchor="middle" x="931.939" y="-1762.3" font-family="Times,serif" font-size="14.00">DuckPhpCommand</text>
</g>
<!-- DuckPhpCommand&#45;&gt;ComponentBase -->
<g id="edge48" class="edge"><title>DuckPhpCommand&#45;&gt;ComponentBase</title>
<path fill="none" stroke="black" stroke-dasharray="1,5" d="M994.738,-1765.84C1015.83,-1762.57 1037.75,-1755.03 1052.35,-1739 1117.53,-1667.43 1007.63,-1586.9 1080.35,-1523 1123.73,-1484.88 1292.99,-1489.75 1340.2,-1523 1473.89,-1617.17 1490.62,-1840.23 1492.24,-1919.46"/>
<polygon fill="black" stroke="black" points="1488.74,-1919.71 1492.38,-1929.66 1495.74,-1919.61 1488.74,-1919.71"/>
</g>
<!-- DuckPhpCommand&#45;&gt;Console -->
<g id="edge55" class="edge"><title>DuckPhpCommand&#45;&gt;Console</title>
<path fill="none" stroke="black" d="M994.46,-1766C1039.86,-1766 1101.54,-1766 1147.84,-1766"/>
<polygon fill="black" stroke="black" points="1148.07,-1769.5 1158.07,-1766 1148.07,-1762.5 1148.07,-1769.5"/>
</g>
<!-- DuckPhpInstaller -->
<g id="node40" class="node"><title>DuckPhpInstaller</title>
<polygon fill="none" stroke="black" points="1269.77,-1730 1158.77,-1730 1158.77,-1726 1154.77,-1726 1154.77,-1722 1158.77,-1722 1158.77,-1702 1154.77,-1702 1154.77,-1698 1158.77,-1698 1158.77,-1694 1269.77,-1694 1269.77,-1730"/>
<polyline fill="none" stroke="black" points="1158.77,-1726 1162.77,-1726 1162.77,-1722 1158.77,-1722 "/>
<polyline fill="none" stroke="black" points="1158.77,-1702 1162.77,-1702 1162.77,-1698 1158.77,-1698 "/>
<text text-anchor="middle" x="1214.27" y="-1708.3" font-family="Times,serif" font-size="14.00">DuckPhpInstaller</text>
</g>
<!-- DuckPhpCommand&#45;&gt;DuckPhpInstaller -->
<g id="edge56" class="edge"><title>DuckPhpCommand&#45;&gt;DuckPhpInstaller</title>
<path fill="none" stroke="black" d="M994.46,-1754.15C1040.11,-1745.36 1102.21,-1733.39 1148.59,-1724.46"/>
<polygon fill="black" stroke="black" points="1149.38,-1727.87 1158.54,-1722.54 1148.05,-1721 1149.38,-1727.87"/>
</g>
<!-- X_HttpServer -->
<g id="node45" class="node"><title>X_HttpServer</title>
<polygon fill="none" stroke="black" points="1292.77,-1670 1117.77,-1670 1117.77,-1646 1292.77,-1646 1292.77,-1640 1310.77,-1658 1292.77,-1676 1292.77,-1670"/>
<text text-anchor="middle" x="1214.27" y="-1654.3" font-family="Times,serif" font-size="14.00">DuckPhp\HttpServer\HttpServer</text>
</g>
<!-- DuckPhpCommand&#45;&gt;X_HttpServer -->
<g id="edge57" class="edge"><title>DuckPhpCommand&#45;&gt;X_HttpServer</title>
<path fill="none" stroke="black" stroke-dasharray="5,2" d="M994.716,-1762.33C1014.72,-1758.6 1035.95,-1751.66 1052.35,-1739 1073.75,-1722.48 1058.77,-1701.28 1080.35,-1685 1088.68,-1678.71 1098.12,-1673.79 1108.02,-1669.95"/>
<polygon fill="black" stroke="black" points="1109.35,-1673.2 1117.64,-1666.6 1107.04,-1666.59 1109.35,-1673.2"/>
</g>
<!-- EventManager&#45;&gt;ComponentBase -->
<g id="edge50" class="edge"><title>EventManager&#45;&gt;ComponentBase</title>
<path fill="none" stroke="black" stroke-dasharray="1,5" d="M1254.36,-1838.07C1304.01,-1861.02 1389.69,-1900.62 1443.52,-1925.5"/>
<polygon fill="black" stroke="black" points="1442.31,-1928.8 1452.86,-1929.82 1445.25,-1922.44 1442.31,-1928.8"/>
</g>
<!-- DuckPhpInstaller&#45;&gt;ComponentBase -->
<g id="edge51" class="edge"><title>DuckPhpInstaller&#45;&gt;ComponentBase</title>
<path fill="none" stroke="black" stroke-dasharray="1,5" d="M1269.93,-1715.19C1293.1,-1718.63 1319.47,-1725.49 1340.2,-1739 1410.42,-1784.75 1459.09,-1875.01 1480.27,-1920.47"/>
<polygon fill="black" stroke="black" points="1477.16,-1922.07 1484.49,-1929.71 1483.53,-1919.16 1477.16,-1922.07"/>
</g>
<!-- Pager -->
<g id="node41" class="node"><title>Pager</title>
<polygon fill="none" stroke="black" points="958.939,-1730 904.939,-1730 904.939,-1726 900.939,-1726 900.939,-1722 904.939,-1722 904.939,-1702 900.939,-1702 900.939,-1698 904.939,-1698 904.939,-1694 958.939,-1694 958.939,-1730"/>
<polyline fill="none" stroke="black" points="904.939,-1726 908.939,-1726 908.939,-1722 904.939,-1722 "/>
<polyline fill="none" stroke="black" points="904.939,-1702 908.939,-1702 908.939,-1698 904.939,-1698 "/>
<text text-anchor="middle" x="931.939" y="-1708.3" font-family="Times,serif" font-size="14.00">Pager</text>
</g>
<!-- Pager&#45;&gt;ComponentBase -->
<g id="edge52" class="edge"><title>Pager&#45;&gt;ComponentBase</title>
<path fill="none" stroke="black" stroke-dasharray="1,5" d="M958.948,-1713.96C986.328,-1714.47 1028.68,-1710.58 1052.35,-1685 1110.92,-1621.7 1015.12,-1549.41 1080.35,-1493 1124.03,-1455.23 1293.34,-1459.25 1340.2,-1493 1482.49,-1595.48 1493.54,-1837.16 1492.98,-1919.75"/>
<polygon fill="black" stroke="black" points="1489.48,-1919.84 1492.85,-1929.89 1496.48,-1919.94 1489.48,-1919.84"/>
</g>
<!-- PagerInterface -->
<g id="node42" class="node"><title>PagerInterface</title>
<polygon fill="none" stroke="black" points="1255.77,-1622 1166.77,-1622 1166.77,-1586 1261.77,-1586 1261.77,-1616 1255.77,-1622"/>
<polyline fill="none" stroke="black" points="1255.77,-1622 1255.77,-1616 "/>
<polyline fill="none" stroke="black" points="1261.77,-1616 1255.77,-1616 "/>
<text text-anchor="middle" x="1214.27" y="-1600.3" font-family="Times,serif" font-size="14.00">PagerInterface</text>
</g>
<!-- Pager&#45;&gt;PagerInterface -->
<g id="edge59" class="edge"><title>Pager&#45;&gt;PagerInterface</title>
<path fill="none" stroke="black" d="M959.365,-1712.22C985.515,-1711.13 1025.43,-1705.78 1052.35,-1685 1073.75,-1668.48 1058.77,-1647.28 1080.35,-1631 1101.99,-1614.67 1131.05,-1607.57 1156.48,-1604.69"/>
<polygon fill="black" stroke="black" points="1157.13,-1608.15 1166.76,-1603.74 1156.48,-1601.18 1157.13,-1608.15"/>
</g>
<!-- RouteHookPathInfoCompat -->
<g id="node43" class="node"><title>RouteHookPathInfoCompat</title>
<polygon fill="none" stroke="black" points="1016.44,-1622 847.439,-1622 847.439,-1618 843.439,-1618 843.439,-1614 847.439,-1614 847.439,-1594 843.439,-1594 843.439,-1590 847.439,-1590 847.439,-1586 1016.44,-1586 1016.44,-1622"/>
<polyline fill="none" stroke="black" points="847.439,-1618 851.439,-1618 851.439,-1614 847.439,-1614 "/>
<polyline fill="none" stroke="black" points="847.439,-1594 851.439,-1594 851.439,-1590 847.439,-1590 "/>
<text text-anchor="middle" x="931.939" y="-1600.3" font-family="Times,serif" font-size="14.00">RouteHookPathInfoCompat</text>
</g>
<!-- RouteHookPathInfoCompat&#45;&gt;ComponentBase -->
<g id="edge53" class="edge"><title>RouteHookPathInfoCompat&#45;&gt;ComponentBase</title>
<path fill="none" stroke="black" stroke-dasharray="1,5" d="M1016.74,-1598.33C1030.14,-1593.95 1042.73,-1587.21 1052.35,-1577 1105.14,-1520.93 1021.66,-1455.86 1080.35,-1406 1124.36,-1368.61 1294.18,-1371.11 1340.2,-1406 1425.01,-1470.3 1475.54,-1817.55 1488.72,-1919.71"/>
<polygon fill="black" stroke="black" points="1485.28,-1920.4 1490.01,-1929.88 1492.23,-1919.51 1485.28,-1920.4"/>
</g>
<!-- RouteHookRouteMap -->
<g id="node44" class="node"><title>RouteHookRouteMap</title>
<polygon fill="none" stroke="black" points="1000.44,-1568 863.439,-1568 863.439,-1564 859.439,-1564 859.439,-1560 863.439,-1560 863.439,-1540 859.439,-1540 859.439,-1536 863.439,-1536 863.439,-1532 1000.44,-1532 1000.44,-1568"/>
<polyline fill="none" stroke="black" points="863.439,-1564 867.439,-1564 867.439,-1560 863.439,-1560 "/>
<polyline fill="none" stroke="black" points="863.439,-1540 867.439,-1540 867.439,-1536 863.439,-1536 "/>
<text text-anchor="middle" x="931.939" y="-1546.3" font-family="Times,serif" font-size="14.00">RouteHookRouteMap</text>
</g>
<!-- RouteHookRouteMap&#45;&gt;ComponentBase -->
<g id="edge54" class="edge"><title>RouteHookRouteMap&#45;&gt;ComponentBase</title>
<path fill="none" stroke="black" stroke-dasharray="1,5" d="M1000.45,-1548.28C1019.53,-1544.51 1038.77,-1537.07 1052.35,-1523 1098.84,-1474.83 1028.8,-1417.71 1080.35,-1375 1124.81,-1338.16 1294.43,-1339.79 1340.2,-1375 1429.42,-1443.64 1477.15,-1813.38 1489.15,-1919.51"/>
<polygon fill="black" stroke="black" points="1485.7,-1920.21 1490.29,-1929.76 1492.66,-1919.43 1485.7,-1920.21"/>
</g>
<!-- DuckPhp -->
<g id="node47" class="node"><title>DuckPhp</title>
<polygon fill="lightgrey" stroke="black" points="352.564,-1730 290.897,-1712 352.564,-1694 414.232,-1712 352.564,-1730"/>
<polyline fill="none" stroke="black" points="302.417,-1715.36 302.417,-1708.64 "/>
<polyline fill="none" stroke="black" points="341.045,-1697.36 364.084,-1697.36 "/>
<polyline fill="none" stroke="black" points="402.712,-1708.64 402.712,-1715.36 "/>
<polyline fill="none" stroke="black" points="364.084,-1726.64 341.045,-1726.64 "/>
<text text-anchor="middle" x="352.564" y="-1708.3" font-family="Times,serif" font-size="14.00">DuckPhp</text>
</g>
<!-- DuckPhp&#45;&gt;App -->
<g id="edge60" class="edge"><title>DuckPhp&#45;&gt;App</title>
<path fill="none" stroke="black" d="M363.473,-1727.19C382.533,-1756.55 425.383,-1823.31 458.914,-1881 468.308,-1897.16 468.161,-1902.71 478.914,-1918 520.296,-1976.85 579.665,-2037.76 610.278,-2067.83"/>
<polygon fill="black" stroke="black" points="608.16,-2070.65 617.763,-2075.13 613.047,-2065.64 608.16,-2070.65"/>
</g>
<!-- DuckPhp&#45;&gt;Cache -->
<g id="edge66" class="edge"><title>DuckPhp&#45;&gt;Cache</title>
<path fill="none" stroke="black" d="M360.518,-1696.17C376.172,-1662.64 417.656,-1584.72 478.914,-1550 616.12,-1472.24 814.063,-1482.9 894.699,-1491.38"/>
<polygon fill="black" stroke="black" points="894.511,-1494.88 904.835,-1492.5 895.28,-1487.92 894.511,-1494.88"/>
</g>
<!-- DuckPhp&#45;&gt;Console -->
<g id="edge67" class="edge"><title>DuckPhp&#45;&gt;Console</title>
<path fill="none" stroke="black" d="M378.792,-1722.38C447.026,-1749.81 641.538,-1823.68 811.53,-1847 917.567,-1861.55 960.892,-1902.6 1052.35,-1847 1075.45,-1832.96 1058.77,-1809.28 1080.35,-1793 1099.92,-1778.23 1125.56,-1771.01 1149.1,-1767.64"/>
<polygon fill="black" stroke="black" points="1149.53,-1771.11 1159.03,-1766.42 1148.68,-1764.16 1149.53,-1771.11"/>
</g>
<!-- DuckPhp&#45;&gt;DbManager -->
<g id="edge63" class="edge"><title>DuckPhp&#45;&gt;DbManager</title>
<path fill="none" stroke="black" d="M399.837,-1707.67C506.641,-1697.68 769.671,-1673.08 880.455,-1662.72"/>
<polygon fill="black" stroke="black" points="881.06,-1666.18 890.691,-1661.76 880.408,-1659.21 881.06,-1666.18"/>
</g>
<!-- DuckPhp&#45;&gt;DuckPhpCommand -->
<g id="edge68" class="edge"><title>DuckPhp&#45;&gt;DuckPhpCommand</title>
<path fill="none" stroke="black" d="M397.047,-1717.1C421.154,-1719.87 451.679,-1723.27 478.914,-1726 613.085,-1739.43 769.899,-1752.78 859.107,-1760.16"/>
<polygon fill="black" stroke="black" points="858.861,-1763.65 869.115,-1760.98 859.437,-1756.67 858.861,-1763.65"/>
</g>
<!-- DuckPhp&#45;&gt;EventManager -->
<g id="edge64" class="edge"><title>DuckPhp&#45;&gt;EventManager</title>
<path fill="none" stroke="black" d="M366.197,-1726.47C387.144,-1749.45 431.485,-1793.93 478.914,-1816 711.244,-1924.11 799.682,-1918.71 1052.35,-1876 1091.07,-1869.45 1132.91,-1854.64 1164.22,-1841.89"/>
<polygon fill="black" stroke="black" points="1165.69,-1845.07 1173.59,-1838.01 1163.01,-1838.6 1165.69,-1845.07"/>
</g>
<!-- DuckPhp&#45;&gt;Pager -->
<g id="edge62" class="edge"><title>DuckPhp&#45;&gt;Pager</title>
<path fill="none" stroke="black" d="M414.262,-1712C534.122,-1712 797.94,-1712 894.559,-1712"/>
<polygon fill="black" stroke="black" points="894.704,-1715.5 904.704,-1712 894.704,-1708.5 894.704,-1715.5"/>
</g>
<!-- DuckPhp&#45;&gt;RouteHookPathInfoCompat -->
<g id="edge65" class="edge"><title>DuckPhp&#45;&gt;RouteHookPathInfoCompat</title>
<path fill="none" stroke="black" d="M379.073,-1701.67C404.11,-1691.9 443.576,-1677.52 478.914,-1669 600.934,-1639.57 744.909,-1621.68 837.018,-1612.32"/>
<polygon fill="black" stroke="black" points="837.554,-1615.78 847.154,-1611.3 836.854,-1608.82 837.554,-1615.78"/>
</g>
<!-- DuckPhp&#45;&gt;RouteHookRouteMap -->
<g id="edge61" class="edge"><title>DuckPhp&#45;&gt;RouteHookRouteMap</title>
<path fill="none" stroke="black" d="M367.055,-1697.79C388.502,-1676.18 432.698,-1635.5 478.914,-1616 602.695,-1563.77 760.588,-1551.76 853.248,-1549.62"/>
<polygon fill="black" stroke="black" points="853.46,-1553.11 863.389,-1549.42 853.321,-1546.12 853.46,-1553.11"/>
</g>
<!-- Session -->
<g id="node48" class="node"><title>Session</title>
<polygon fill="none" stroke="black" points="1243.27,-214 1185.27,-214 1185.27,-210 1181.27,-210 1181.27,-206 1185.27,-206 1185.27,-186 1181.27,-186 1181.27,-182 1185.27,-182 1185.27,-178 1243.27,-178 1243.27,-214"/>
<polyline fill="none" stroke="black" points="1185.27,-210 1189.27,-210 1189.27,-206 1185.27,-206 "/>
<polyline fill="none" stroke="black" points="1185.27,-186 1189.27,-186 1189.27,-182 1185.27,-182 "/>
<text text-anchor="middle" x="1214.27" y="-192.3" font-family="Times,serif" font-size="14.00">Session</text>
</g>
<!-- Session&#45;&gt;ComponentBase -->
<g id="edge69" class="edge"><title>Session&#45;&gt;ComponentBase</title>
<path fill="none" stroke="black" stroke-dasharray="1,5" d="M1243.5,-199.096C1272.8,-203.933 1317.44,-216.191 1340.2,-247 1443.87,-387.359 1485.41,-1707.99 1491.42,-1919.49"/>
<polygon fill="black" stroke="black" points="1487.93,-1919.87 1491.71,-1929.77 1494.92,-1919.67 1487.93,-1919.87"/>
</g>
<!-- F_Core_App -->
<g id="node52" class="node"><title>F_Core_App</title>
<polygon fill="none" stroke="black" points="1537.2,-154 1431.2,-154 1431.2,-130 1537.2,-130 1537.2,-124 1555.2,-142 1537.2,-160 1537.2,-154"/>
<text text-anchor="middle" x="1493.2" y="-138.3" font-family="Times,serif" font-size="14.00">DuckPhp\Core\App</text>
</g>
<!-- Session&#45;&gt;F_Core_App -->
<g id="edge70" class="edge"><title>Session&#45;&gt;F_Core_App</title>
<path fill="none" stroke="black" stroke-dasharray="5,2" d="M1243.35,-190.525C1284.69,-182.465 1363.27,-167.142 1421.11,-155.863"/>
<polygon fill="black" stroke="black" points="1421.78,-159.298 1430.92,-153.948 1420.44,-152.427 1421.78,-159.298"/>
</g>
<!-- SimpleControllerTrait -->
<g id="node49" class="node"><title>SimpleControllerTrait</title>
<polygon fill="none" stroke="black" points="1214.27,-106 1088.42,-88 1214.27,-70 1340.12,-88 1214.27,-106"/>
<text text-anchor="middle" x="1214.27" y="-84.3" font-family="Times,serif" font-size="14.00">SimpleControllerTrait</text>
</g>
<!-- SimpleControllerTrait&#45;&gt;F_Core_App -->
<g id="edge71" class="edge"><title>SimpleControllerTrait&#45;&gt;F_Core_App</title>
<path fill="none" stroke="black" stroke-dasharray="5,2" d="M1268.34,-98.3478C1311.74,-106.811 1373.5,-118.855 1421.16,-128.149"/>
<polygon fill="black" stroke="black" points="1420.62,-131.609 1431.11,-130.088 1421.96,-124.739 1420.62,-131.609"/>
</g>
<!-- F_SingletonExTrait -->
<g id="node53" class="node"><title>F_SingletonExTrait</title>
<polygon fill="none" stroke="black" points="1592.2,-100 1376.2,-100 1376.2,-76 1592.2,-76 1592.2,-70 1610.2,-88 1592.2,-106 1592.2,-100"/>
<text text-anchor="middle" x="1493.2" y="-84.3" font-family="Times,serif" font-size="14.00">DuckPhp\SingletonEx\SingletonExTrait</text>
</g>
<!-- SimpleControllerTrait&#45;&gt;F_SingletonExTrait -->
<g id="edge72" class="edge"><title>SimpleControllerTrait&#45;&gt;F_SingletonExTrait</title>
<path fill="none" stroke="black" stroke-dasharray="5,2" d="M1340.37,-88C1348.92,-88 1357.54,-88 1366.09,-88"/>
<polygon fill="black" stroke="black" points="1366.1,-91.5001 1376.1,-88 1366.1,-84.5001 1366.1,-91.5001"/>
</g>
<!-- SimpleModelTrait -->
<g id="node50" class="node"><title>SimpleModelTrait</title>
<polygon fill="none" stroke="black" points="1214.27,-160 1105.85,-142 1214.27,-124 1322.69,-142 1214.27,-160"/>
<text text-anchor="middle" x="1214.27" y="-138.3" font-family="Times,serif" font-size="14.00">SimpleModelTrait</text>
</g>
<!-- SimpleModelTrait&#45;&gt;F_Core_App -->
<g id="edge73" class="edge"><title>SimpleModelTrait&#45;&gt;F_Core_App</title>
<path fill="none" stroke="black" stroke-dasharray="5,2" d="M1322.74,-142C1355.51,-142 1390.73,-142 1420.52,-142"/>
<polygon fill="black" stroke="black" points="1420.82,-145.5 1430.82,-142 1420.82,-138.5 1420.82,-145.5"/>
</g>
<!-- SimpleModelTrait&#45;&gt;F_SingletonExTrait -->
<g id="edge74" class="edge"><title>SimpleModelTrait&#45;&gt;F_SingletonExTrait</title>
<path fill="none" stroke="black" stroke-dasharray="5,2" d="M1264.78,-132.346C1299.49,-125.577 1347.14,-116.286 1389.85,-107.957"/>
<polygon fill="black" stroke="black" points="1390.59,-111.379 1399.74,-106.03 1389.25,-104.508 1390.59,-111.379"/>
</g>
<!-- ThrowOnableTrait -->
<g id="node51" class="node"><title>ThrowOnableTrait</title>
<polygon fill="none" stroke="black" points="1214.27,-52 1105.85,-34 1214.27,-16 1322.69,-34 1214.27,-52"/>
<text text-anchor="middle" x="1214.27" y="-30.3" font-family="Times,serif" font-size="14.00">ThrowOnableTrait</text>
</g>
<!-- CallableView -->
<g id="node54" class="node"><title>CallableView</title>
<polygon fill="none" stroke="black" points="676.722,-511 585.722,-511 585.722,-507 581.722,-507 581.722,-503 585.722,-503 585.722,-483 581.722,-483 581.722,-479 585.722,-479 585.722,-475 676.722,-475 676.722,-511"/>
<polyline fill="none" stroke="black" points="585.722,-507 589.722,-507 589.722,-503 585.722,-503 "/>
<polyline fill="none" stroke="black" points="585.722,-483 589.722,-483 589.722,-479 585.722,-479 "/>
<text text-anchor="middle" x="631.222" y="-489.3" font-family="Times,serif" font-size="14.00">CallableView</text>
</g>
<!-- X_Core_View -->
<g id="node79" class="node"><title>X_Core_View</title>
<polygon fill="none" stroke="black" points="978.939,-397 866.939,-397 866.939,-373 978.939,-373 978.939,-367 996.939,-385 978.939,-403 978.939,-397"/>
<text text-anchor="middle" x="931.939" y="-381.3" font-family="Times,serif" font-size="14.00">DuckPhp\Core\View</text>
</g>
<!-- CallableView&#45;&gt;X_Core_View -->
<g id="edge92" class="edge"><title>CallableView&#45;&gt;X_Core_View</title>
<path fill="none" stroke="black" stroke-dasharray="5,2" d="M676.999,-488.012C705.71,-483.978 743.472,-477.101 775.53,-466 818.052,-451.276 863.314,-426.529 893.956,-408.255"/>
<polygon fill="black" stroke="black" points="895.832,-411.211 902.586,-403.048 892.216,-405.217 895.832,-411.211"/>
</g>
<!-- EmptyView -->
<g id="node55" class="node"><title>EmptyView</title>
<polygon fill="none" stroke="black" points="672.722,-349 589.722,-349 589.722,-345 585.722,-345 585.722,-341 589.722,-341 589.722,-321 585.722,-321 585.722,-317 589.722,-317 589.722,-313 672.722,-313 672.722,-349"/>
<polyline fill="none" stroke="black" points="589.722,-345 593.722,-345 593.722,-341 589.722,-341 "/>
<polyline fill="none" stroke="black" points="589.722,-321 593.722,-321 593.722,-317 589.722,-317 "/>
<text text-anchor="middle" x="631.222" y="-327.3" font-family="Times,serif" font-size="14.00">EmptyView</text>
</g>
<!-- EmptyView&#45;&gt;X_Core_View -->
<g id="edge93" class="edge"><title>EmptyView&#45;&gt;X_Core_View</title>
<path fill="none" stroke="black" stroke-dasharray="5,2" d="M672.819,-338.339C720.019,-346.871 798.868,-361.125 857.024,-371.638"/>
<polygon fill="black" stroke="black" points="856.436,-375.088 866.899,-373.423 857.681,-368.2 856.436,-375.088"/>
</g>
<!-- ExceptionWrapper -->
<g id="node56" class="node"><title>ExceptionWrapper</title>
<polygon fill="none" stroke="black" points="690.722,-835 571.722,-835 571.722,-831 567.722,-831 567.722,-827 571.722,-827 571.722,-807 567.722,-807 567.722,-803 571.722,-803 571.722,-799 690.722,-799 690.722,-835"/>
<polyline fill="none" stroke="black" points="571.722,-831 575.722,-831 575.722,-827 571.722,-827 "/>
<polyline fill="none" stroke="black" points="571.722,-807 575.722,-807 575.722,-803 571.722,-803 "/>
<text text-anchor="middle" x="631.222" y="-813.3" font-family="Times,serif" font-size="14.00">ExceptionWrapper</text>
</g>
<!-- ExceptionWrapper&#45;&gt;ComponentBase -->
<g id="edge75" class="edge"><title>ExceptionWrapper&#45;&gt;ComponentBase</title>
<path fill="none" stroke="black" stroke-dasharray="1,5" d="M690.881,-814.366C719.663,-816.173 752.915,-823.335 775.53,-844 818.839,-883.577 766.483,-933.413 811.53,-971 902.153,-1046.62 1254.01,-941.364 1340.2,-1022 1475.13,-1148.24 1490.28,-1777.82 1491.98,-1919.61"/>
<polygon fill="black" stroke="black" points="1488.48,-1919.72 1492.09,-1929.68 1495.48,-1919.64 1488.48,-1919.72"/>
</g>
<!-- HookChain -->
<g id="node57" class="node"><title>HookChain</title>
<ellipse fill="none" stroke="black" cx="631.222" cy="-1087" rx="51.1914" ry="18"/>
<text text-anchor="middle" x="631.222" y="-1083.3" font-family="Times,serif" font-size="14.00">HookChain</text>
</g>
<!-- InstallableTrait -->
<g id="node58" class="node"><title>InstallableTrait</title>
<polygon fill="none" stroke="black" points="631.222,-619 540.229,-601 631.222,-583 722.215,-601 631.222,-619"/>
<text text-anchor="middle" x="631.222" y="-597.3" font-family="Times,serif" font-size="14.00">InstallableTrait</text>
</g>
<!-- Installer -->
<g id="node59" class="node"><title>Installer</title>
<polygon fill="none" stroke="black" points="962.439,-619 901.439,-619 901.439,-615 897.439,-615 897.439,-611 901.439,-611 901.439,-591 897.439,-591 897.439,-587 901.439,-587 901.439,-583 962.439,-583 962.439,-619"/>
<polyline fill="none" stroke="black" points="901.439,-615 905.439,-615 905.439,-611 901.439,-611 "/>
<polyline fill="none" stroke="black" points="901.439,-591 905.439,-591 905.439,-587 901.439,-587 "/>
<text text-anchor="middle" x="931.939" y="-597.3" font-family="Times,serif" font-size="14.00">Installer</text>
</g>
<!-- InstallableTrait&#45;&gt;Installer -->
<g id="edge94" class="edge"><title>InstallableTrait&#45;&gt;Installer</title>
<path fill="none" stroke="black" d="M722.252,-601C778.591,-601 848.379,-601 891.27,-601"/>
<polygon fill="black" stroke="black" points="891.309,-604.5 901.309,-601 891.309,-597.5 891.309,-604.5"/>
</g>
<!-- Installer&#45;&gt;ComponentBase -->
<g id="edge77" class="edge"><title>Installer&#45;&gt;ComponentBase</title>
<path fill="none" stroke="black" stroke-dasharray="1,5" d="M962.704,-597.673C1047.21,-588.928 1285.97,-569.307 1340.2,-620 1438.89,-712.257 1483.8,-1735.46 1491.12,-1919.67"/>
<polygon fill="black" stroke="black" points="1487.62,-1919.82 1491.51,-1929.67 1494.61,-1919.54 1487.62,-1919.82"/>
</g>
<!-- Installer&#45;&gt;ThrowOnableTrait -->
<g id="edge97" class="edge"><title>Installer&#45;&gt;ThrowOnableTrait</title>
<path fill="none" stroke="black" d="M962.511,-603.437C990.271,-603.925 1030.68,-599.653 1052.35,-574 1126.03,-486.787 1005.72,-147.398 1080.35,-61 1088.67,-51.368 1099.4,-44.5996 1111.16,-39.9151"/>
<polygon fill="black" stroke="black" points="1112.47,-43.1649 1120.78,-36.5901 1110.18,-36.5489 1112.47,-43.1649"/>
</g>
<!-- InstallerException -->
<g id="node60" class="node"><title>InstallerException</title>
<ellipse fill="none" stroke="black" cx="1214.27" cy="-647" rx="75.2868" ry="18"/>
<text text-anchor="middle" x="1214.27" y="-643.3" font-family="Times,serif" font-size="14.00">InstallerException</text>
</g>
<!-- Installer&#45;&gt;InstallerException -->
<g id="edge96" class="edge"><title>Installer&#45;&gt;InstallerException</title>
<path fill="none" stroke="black" d="M962.674,-605.879C1004.88,-612.805 1083.47,-625.7 1141.42,-635.21"/>
<polygon fill="black" stroke="black" points="1141.19,-638.719 1151.63,-636.884 1142.33,-631.811 1141.19,-638.719"/>
</g>
<!-- SqlDumper -->
<g id="node77" class="node"><title>SqlDumper</title>
<polygon fill="none" stroke="black" points="1254.27,-726 1174.27,-726 1174.27,-722 1170.27,-722 1170.27,-718 1174.27,-718 1174.27,-698 1170.27,-698 1170.27,-694 1174.27,-694 1174.27,-690 1254.27,-690 1254.27,-726"/>
<polyline fill="none" stroke="black" points="1174.27,-722 1178.27,-722 1178.27,-718 1174.27,-718 "/>
<polyline fill="none" stroke="black" points="1174.27,-698 1178.27,-698 1178.27,-694 1174.27,-694 "/>
<text text-anchor="middle" x="1214.27" y="-704.3" font-family="Times,serif" font-size="14.00">SqlDumper</text>
</g>
<!-- Installer&#45;&gt;SqlDumper -->
<g id="edge95" class="edge"><title>Installer&#45;&gt;SqlDumper</title>
<path fill="none" stroke="black" d="M962.551,-601.378C988.448,-603.084 1025.94,-609.021 1052.35,-628 1071.78,-641.969 1061.11,-659.76 1080.35,-674 1104.54,-691.907 1137.23,-700.42 1164.14,-704.45"/>
<polygon fill="black" stroke="black" points="1163.77,-707.931 1174.14,-705.785 1164.7,-700.993 1163.77,-707.931"/>
</g>
<!-- JsonRpcClientBase -->
<g id="node61" class="node"><title>JsonRpcClientBase</title>
<polygon fill="none" stroke="black" points="692.222,-565 570.222,-565 570.222,-561 566.222,-561 566.222,-557 570.222,-557 570.222,-537 566.222,-537 566.222,-533 570.222,-533 570.222,-529 692.222,-529 692.222,-565"/>
<polyline fill="none" stroke="black" points="570.222,-561 574.222,-561 574.222,-557 570.222,-557 "/>
<polyline fill="none" stroke="black" points="570.222,-537 574.222,-537 574.222,-533 570.222,-533 "/>
<text text-anchor="middle" x="631.222" y="-543.3" font-family="Times,serif" font-size="14.00">JsonRpcClientBase</text>
</g>
<!-- JsonRpcClientBase&#45;&gt;ComponentBase -->
<g id="edge103" class="edge"><title>JsonRpcClientBase&#45;&gt;ComponentBase</title>
<path fill="none" stroke="black" stroke-dasharray="1,5" d="M692.228,-543.364C721.184,-544.942 754.186,-552.202 775.53,-574 843.619,-643.54 742.451,-721.443 811.53,-790 895.962,-873.795 1256.8,-789.175 1340.2,-874 1491.37,-1027.76 1493.71,-1765.86 1492.53,-1919.82"/>
<polygon fill="black" stroke="black" points="1489.03,-1919.85 1492.44,-1929.88 1496.03,-1919.91 1489.03,-1919.85"/>
</g>
<!-- JsonRpcExt -->
<g id="node62" class="node"><title>JsonRpcExt</title>
<polygon fill="none" stroke="black" points="972.439,-565 891.439,-565 891.439,-561 887.439,-561 887.439,-557 891.439,-557 891.439,-537 887.439,-537 887.439,-533 891.439,-533 891.439,-529 972.439,-529 972.439,-565"/>
<polyline fill="none" stroke="black" points="891.439,-561 895.439,-561 895.439,-557 891.439,-557 "/>
<polyline fill="none" stroke="black" points="891.439,-537 895.439,-537 895.439,-533 891.439,-533 "/>
<text text-anchor="middle" x="931.939" y="-543.3" font-family="Times,serif" font-size="14.00">JsonRpcExt</text>
</g>
<!-- JsonRpcClientBase&#45;&gt;JsonRpcExt -->
<g id="edge102" class="edge"><title>JsonRpcClientBase&#45;&gt;JsonRpcExt</title>
<path fill="none" stroke="black" stroke-dasharray="5,2" d="M692.313,-541.463C747.78,-539.736 829.194,-539.853 881.128,-541.815"/>
<polygon fill="black" stroke="black" points="881.286,-545.325 891.424,-542.247 881.579,-538.331 881.286,-545.325"/>
</g>
<!-- JsonRpcExt&#45;&gt;ComponentBase -->
<g id="edge76" class="edge"><title>JsonRpcExt&#45;&gt;ComponentBase</title>
<path fill="none" stroke="black" stroke-dasharray="1,5" d="M972.549,-536.13C1053.89,-516.469 1240.46,-485.503 1340.2,-583 1439.57,-680.134 1484,-1732.15 1491.15,-1919.53"/>
<polygon fill="black" stroke="black" points="1487.66,-1919.83 1491.54,-1929.69 1494.66,-1919.56 1487.66,-1919.83"/>
</g>
<!-- JsonRpcExt&#45;&gt;JsonRpcClientBase -->
<g id="edge101" class="edge"><title>JsonRpcExt&#45;&gt;JsonRpcClientBase</title>
<path fill="none" stroke="black" d="M891.424,-551.753C843.417,-553.988 761.554,-554.347 702.66,-552.831"/>
<polygon fill="black" stroke="black" points="702.408,-549.322 692.313,-552.537 702.209,-556.32 702.408,-549.322"/>
</g>
<!-- JsonView -->
<g id="node63" class="node"><title>JsonView</title>
<polygon fill="none" stroke="black" points="666.222,-403 596.222,-403 596.222,-399 592.222,-399 592.222,-395 596.222,-395 596.222,-375 592.222,-375 592.222,-371 596.222,-371 596.222,-367 666.222,-367 666.222,-403"/>
<polyline fill="none" stroke="black" points="596.222,-399 600.222,-399 600.222,-395 596.222,-395 "/>
<polyline fill="none" stroke="black" points="596.222,-375 600.222,-375 600.222,-371 596.222,-371 "/>
<text text-anchor="middle" x="631.222" y="-381.3" font-family="Times,serif" font-size="14.00">JsonView</text>
</g>
<!-- JsonView&#45;&gt;X_Core_View -->
<g id="edge104" class="edge"><title>JsonView&#45;&gt;X_Core_View</title>
<path fill="none" stroke="black" stroke-dasharray="5,2" d="M666.489,-385C712.557,-385 795.69,-385 856.484,-385"/>
<polygon fill="black" stroke="black" points="856.8,-388.5 866.8,-385 856.8,-381.5 856.8,-388.5"/>
</g>
<!-- Misc -->
<g id="node64" class="node"><title>Misc</title>
<polygon fill="none" stroke="black" points="658.222,-295 604.222,-295 604.222,-291 600.222,-291 600.222,-287 604.222,-287 604.222,-267 600.222,-267 600.222,-263 604.222,-263 604.222,-259 658.222,-259 658.222,-295"/>
<polyline fill="none" stroke="black" points="604.222,-291 608.222,-291 608.222,-287 604.222,-287 "/>
<polyline fill="none" stroke="black" points="604.222,-267 608.222,-267 608.222,-263 604.222,-263 "/>
<text text-anchor="middle" x="631.222" y="-273.3" font-family="Times,serif" font-size="14.00">Misc</text>
</g>
<!-- Misc&#45;&gt;ComponentBase -->
<g id="edge78" class="edge"><title>Misc&#45;&gt;ComponentBase</title>
<path fill="none" stroke="black" stroke-dasharray="1,5" d="M658.237,-275.701C766.076,-271.929 1179.83,-273.769 1340.2,-512 1421.91,-633.384 1481,-1727.71 1490.77,-1919.41"/>
<polygon fill="black" stroke="black" points="1487.28,-1919.73 1491.28,-1929.54 1494.27,-1919.37 1487.28,-1919.73"/>
</g>
<!-- MyFacadesAutoLoader -->
<g id="node65" class="node"><title>MyFacadesAutoLoader</title>
<polygon fill="none" stroke="black" points="703.722,-781 558.722,-781 558.722,-777 554.722,-777 554.722,-773 558.722,-773 558.722,-753 554.722,-753 554.722,-749 558.722,-749 558.722,-745 703.722,-745 703.722,-781"/>
<polyline fill="none" stroke="black" points="558.722,-777 562.722,-777 562.722,-773 558.722,-773 "/>
<polyline fill="none" stroke="black" points="558.722,-753 562.722,-753 562.722,-749 558.722,-749 "/>
<text text-anchor="middle" x="631.222" y="-759.3" font-family="Times,serif" font-size="14.00">MyFacadesAutoLoader</text>
</g>
<!-- MyFacadesAutoLoader&#45;&gt;ComponentBase -->
<g id="edge80" class="edge"><title>MyFacadesAutoLoader&#45;&gt;ComponentBase</title>
<path fill="none" stroke="black" stroke-dasharray="1,5" d="M703.869,-761.225C729.355,-764.207 756.435,-772.055 775.53,-790 822.974,-834.587 762.246,-889.455 811.53,-932 900.921,-1009.17 1254.43,-904.82 1340.2,-986 1479.78,-1118.12 1491.32,-1774.17 1492.16,-1919.47"/>
<polygon fill="black" stroke="black" points="1488.66,-1919.79 1492.2,-1929.77 1495.66,-1919.75 1488.66,-1919.79"/>
</g>
<!-- MyFacadesBase -->
<g id="node66" class="node"><title>MyFacadesBase</title>
<polygon fill="none" stroke="black" points="984.939,-781 878.939,-781 878.939,-777 874.939,-777 874.939,-773 878.939,-773 878.939,-753 874.939,-753 874.939,-749 878.939,-749 878.939,-745 984.939,-745 984.939,-781"/>
<polyline fill="none" stroke="black" points="878.939,-777 882.939,-777 882.939,-773 878.939,-773 "/>
<polyline fill="none" stroke="black" points="878.939,-753 882.939,-753 882.939,-749 878.939,-749 "/>
<text text-anchor="middle" x="931.939" y="-759.3" font-family="Times,serif" font-size="14.00">MyFacadesBase</text>
</g>
<!-- MyFacadesAutoLoader&#45;&gt;MyFacadesBase -->
<g id="edge99" class="edge"><title>MyFacadesAutoLoader&#45;&gt;MyFacadesBase</title>
<path fill="none" stroke="black" d="M703.772,-757.141C753.943,-755.876 820.365,-755.958 868.416,-757.388"/>
<polygon fill="black" stroke="black" points="868.573,-760.895 878.682,-757.725 868.803,-753.899 868.573,-760.895"/>
</g>
<!-- MyFacadesBase&#45;&gt;ComponentBase -->
<g id="edge79" class="edge"><title>MyFacadesBase&#45;&gt;ComponentBase</title>
<path fill="none" stroke="black" stroke-dasharray="1,5" d="M985.108,-767.072C1089.35,-775.701 1315.53,-797.095 1340.2,-822 1420.25,-902.836 1479.46,-1752.41 1490.38,-1919.55"/>
<polygon fill="black" stroke="black" points="1486.92,-1920.22 1491.06,-1929.97 1493.9,-1919.76 1486.92,-1920.22"/>
</g>
<!-- MyFacadesBase&#45;&gt;MyFacadesAutoLoader -->
<g id="edge98" class="edge"><title>MyFacadesBase&#45;&gt;MyFacadesAutoLoader</title>
<path fill="none" stroke="black" stroke-dasharray="5,2" d="M878.682,-768.275C833.23,-769.913 766.602,-770.187 714.078,-769.096"/>
<polygon fill="black" stroke="black" points="713.85,-765.59 703.772,-768.859 713.689,-772.588 713.85,-765.59"/>
</g>
<!-- MyMiddlewareManager -->
<g id="node67" class="node"><title>MyMiddlewareManager</title>
<polygon fill="none" stroke="black" points="706.722,-727 555.722,-727 555.722,-723 551.722,-723 551.722,-719 555.722,-719 555.722,-699 551.722,-699 551.722,-695 555.722,-695 555.722,-691 706.722,-691 706.722,-727"/>
<polyline fill="none" stroke="black" points="555.722,-723 559.722,-723 559.722,-719 555.722,-719 "/>
<polyline fill="none" stroke="black" points="555.722,-699 559.722,-699 559.722,-695 555.722,-695 "/>
<text text-anchor="middle" x="631.222" y="-705.3" font-family="Times,serif" font-size="14.00">MyMiddlewareManager</text>
</g>
<!-- MyMiddlewareManager&#45;&gt;ComponentBase -->
<g id="edge81" class="edge"><title>MyMiddlewareManager&#45;&gt;ComponentBase</title>
<path fill="none" stroke="black" stroke-dasharray="1,5" d="M707.04,-707.373C731.665,-710.589 757.359,-718.552 775.53,-736 826.855,-785.283 758.347,-844.727 811.53,-892 899.864,-970.518 1254.9,-868.197 1340.2,-950 1484.43,-1088.32 1492.31,-1772.14 1492.32,-1919.84"/>
<polygon fill="black" stroke="black" points="1488.82,-1919.9 1492.3,-1929.91 1495.82,-1919.91 1488.82,-1919.9"/>
</g>
<!-- RouteHookManager -->
<g id="node72" class="node"><title>RouteHookManager</title>
<polygon fill="none" stroke="black" points="995.939,-727 867.939,-727 867.939,-723 863.939,-723 863.939,-719 867.939,-719 867.939,-699 863.939,-699 863.939,-695 867.939,-695 867.939,-691 995.939,-691 995.939,-727"/>
<polyline fill="none" stroke="black" points="867.939,-723 871.939,-723 871.939,-719 867.939,-719 "/>
<polyline fill="none" stroke="black" points="867.939,-699 871.939,-699 871.939,-695 867.939,-695 "/>
<text text-anchor="middle" x="931.939" y="-705.3" font-family="Times,serif" font-size="14.00">RouteHookManager</text>
</g>
<!-- MyMiddlewareManager&#45;&gt;RouteHookManager -->
<g id="edge100" class="edge"><title>MyMiddlewareManager&#45;&gt;RouteHookManager</title>
<path fill="none" stroke="black" d="M706.83,-709C752.939,-709 811.854,-709 857.705,-709"/>
<polygon fill="black" stroke="black" points="857.873,-712.5 867.873,-709 857.873,-705.5 857.873,-712.5"/>
</g>
<!-- RedisManager -->
<g id="node68" class="node"><title>RedisManager</title>
<polygon fill="none" stroke="black" points="679.222,-1267 583.222,-1267 583.222,-1263 579.222,-1263 579.222,-1259 583.222,-1259 583.222,-1239 579.222,-1239 579.222,-1235 583.222,-1235 583.222,-1231 679.222,-1231 679.222,-1267"/>
<polyline fill="none" stroke="black" points="583.222,-1263 587.222,-1263 587.222,-1259 583.222,-1259 "/>
<polyline fill="none" stroke="black" points="583.222,-1239 587.222,-1239 587.222,-1235 583.222,-1235 "/>
<text text-anchor="middle" x="631.222" y="-1245.3" font-family="Times,serif" font-size="14.00">RedisManager</text>
</g>
<!-- RedisManager&#45;&gt;ComponentBase -->
<g id="edge82" class="edge"><title>RedisManager&#45;&gt;ComponentBase</title>
<path fill="none" stroke="black" stroke-dasharray="1,5" d="M679.271,-1246.79C821.21,-1241.15 1241.46,-1232.17 1340.2,-1318 1433.78,-1399.35 1478.89,-1807.63 1489.63,-1919.57"/>
<polygon fill="black" stroke="black" points="1486.16,-1920.12 1490.59,-1929.75 1493.13,-1919.46 1486.16,-1920.12"/>
</g>
<!-- RedisCache -->
<g id="node69" class="node"><title>RedisCache</title>
<polygon fill="none" stroke="black" points="671.722,-1213 590.722,-1213 590.722,-1209 586.722,-1209 586.722,-1205 590.722,-1205 590.722,-1185 586.722,-1185 586.722,-1181 590.722,-1181 590.722,-1177 671.722,-1177 671.722,-1213"/>
<polyline fill="none" stroke="black" points="590.722,-1209 594.722,-1209 594.722,-1205 590.722,-1205 "/>
<polyline fill="none" stroke="black" points="590.722,-1185 594.722,-1185 594.722,-1181 590.722,-1181 "/>
<text text-anchor="middle" x="631.222" y="-1191.3" font-family="Times,serif" font-size="14.00">RedisCache</text>
</g>
<!-- RedisCache&#45;&gt;ComponentBase -->
<g id="edge83" class="edge"><title>RedisCache&#45;&gt;ComponentBase</title>
<path fill="none" stroke="black" stroke-dasharray="1,5" d="M671.96,-1196.67C817.573,-1202.94 1314.81,-1225.92 1340.2,-1248 1444.5,-1338.72 1482.28,-1799.76 1490.41,-1919.53"/>
<polygon fill="black" stroke="black" points="1486.93,-1919.99 1491.09,-1929.73 1493.92,-1919.52 1486.93,-1919.99"/>
</g>
<!-- RouteHookApiServer -->
<g id="node70" class="node"><title>RouteHookApiServer</title>
<polygon fill="none" stroke="black" points="698.222,-1159 564.222,-1159 564.222,-1155 560.222,-1155 560.222,-1151 564.222,-1151 564.222,-1131 560.222,-1131 560.222,-1127 564.222,-1127 564.222,-1123 698.222,-1123 698.222,-1159"/>
<polyline fill="none" stroke="black" points="564.222,-1155 568.222,-1155 568.222,-1151 564.222,-1151 "/>
<polyline fill="none" stroke="black" points="564.222,-1131 568.222,-1131 568.222,-1127 564.222,-1127 "/>
<text text-anchor="middle" x="631.222" y="-1137.3" font-family="Times,serif" font-size="14.00">RouteHookApiServer</text>
</g>
<!-- RouteHookApiServer&#45;&gt;ComponentBase -->
<g id="edge84" class="edge"><title>RouteHookApiServer&#45;&gt;ComponentBase</title>
<path fill="none" stroke="black" stroke-dasharray="1,5" d="M698.615,-1149.01C732.407,-1153.03 774.143,-1157.9 811.53,-1162 928.919,-1174.87 1252.51,-1136.9 1340.2,-1216 1447.79,-1313.05 1483.32,-1797.57 1490.65,-1919.91"/>
<polygon fill="black" stroke="black" points="1487.17,-1920.2 1491.24,-1929.98 1494.15,-1919.79 1487.17,-1920.2"/>
</g>
<!-- RouteHookDirectoryMode -->
<g id="node71" class="node"><title>RouteHookDirectoryMode</title>
<polygon fill="none" stroke="black" points="712.722,-1051 549.722,-1051 549.722,-1047 545.722,-1047 545.722,-1043 549.722,-1043 549.722,-1023 545.722,-1023 545.722,-1019 549.722,-1019 549.722,-1015 712.722,-1015 712.722,-1051"/>
<polyline fill="none" stroke="black" points="549.722,-1047 553.722,-1047 553.722,-1043 549.722,-1043 "/>
<polyline fill="none" stroke="black" points="549.722,-1023 553.722,-1023 553.722,-1019 549.722,-1019 "/>
<text text-anchor="middle" x="631.222" y="-1029.3" font-family="Times,serif" font-size="14.00">RouteHookDirectoryMode</text>
</g>
<!-- RouteHookDirectoryMode&#45;&gt;ComponentBase -->
<g id="edge85" class="edge"><title>RouteHookDirectoryMode&#45;&gt;ComponentBase</title>
<path fill="none" stroke="black" stroke-dasharray="1,5" d="M712.982,-1035.84C734.836,-1039.76 757.427,-1047.01 775.53,-1060 802.047,-1079.02 783.967,-1106.52 811.53,-1124 911.004,-1187.07 1252.1,-1083.83 1340.2,-1162 1456.75,-1265.41 1485.74,-1790.62 1491.14,-1919.44"/>
<polygon fill="black" stroke="black" points="1487.65,-1919.82 1491.55,-1929.67 1494.65,-1919.54 1487.65,-1919.82"/>
</g>
<!-- RouteHookManager&#45;&gt;ComponentBase -->
<g id="edge86" class="edge"><title>RouteHookManager&#45;&gt;ComponentBase</title>
<path fill="none" stroke="black" stroke-dasharray="1,5" d="M995.996,-720.542C1022.08,-725.206 1052.64,-730.531 1080.35,-735 1137.96,-744.292 1299.28,-731.394 1340.2,-773 1423.6,-857.794 1480.37,-1748.48 1490.55,-1919.64"/>
<polygon fill="black" stroke="black" points="1487.06,-1919.87 1491.14,-1929.65 1494.05,-1919.46 1487.06,-1919.87"/>
</g>
<!-- RouteHookRewrite -->
<g id="node73" class="node"><title>RouteHookRewrite</title>
<polygon fill="none" stroke="black" points="692.222,-997 570.222,-997 570.222,-993 566.222,-993 566.222,-989 570.222,-989 570.222,-969 566.222,-969 566.222,-965 570.222,-965 570.222,-961 692.222,-961 692.222,-997"/>
<polyline fill="none" stroke="black" points="570.222,-993 574.222,-993 574.222,-989 570.222,-989 "/>
<polyline fill="none" stroke="black" points="570.222,-969 574.222,-969 574.222,-965 570.222,-965 "/>
<text text-anchor="middle" x="631.222" y="-975.3" font-family="Times,serif" font-size="14.00">RouteHookRewrite</text>
</g>
<!-- RouteHookRewrite&#45;&gt;ComponentBase -->
<g id="edge87" class="edge"><title>RouteHookRewrite&#45;&gt;ComponentBase</title>
<path fill="none" stroke="black" stroke-dasharray="1,5" d="M692.507,-978.027C720.324,-980.459 752.258,-987.673 775.53,-1006 806.161,-1030.12 779.653,-1063.55 811.53,-1086 907.882,-1153.86 1252.64,-1049.11 1340.2,-1128 1461.3,-1237.12 1486.96,-1788.67 1491.38,-1919.93"/>
<polygon fill="black" stroke="black" points="1487.89,-1920.11 1491.71,-1929.99 1494.88,-1919.88 1487.89,-1920.11"/>
</g>
<!-- RouteHookResource -->
<g id="node74" class="node"><title>RouteHookResource</title>
<polygon fill="none" stroke="black" points="695.722,-457 566.722,-457 566.722,-453 562.722,-453 562.722,-449 566.722,-449 566.722,-429 562.722,-429 562.722,-425 566.722,-425 566.722,-421 695.722,-421 695.722,-457"/>
<polyline fill="none" stroke="black" points="566.722,-453 570.722,-453 570.722,-449 566.722,-449 "/>
<polyline fill="none" stroke="black" points="566.722,-429 570.722,-429 570.722,-425 566.722,-425 "/>
<text text-anchor="middle" x="631.222" y="-435.3" font-family="Times,serif" font-size="14.00">RouteHookResource</text>
</g>
<!-- StaticReplacer -->
<g id="node75" class="node"><title>StaticReplacer</title>
<polygon fill="none" stroke="black" points="678.722,-943 583.722,-943 583.722,-939 579.722,-939 579.722,-935 583.722,-935 583.722,-915 579.722,-915 579.722,-911 583.722,-911 583.722,-907 678.722,-907 678.722,-943"/>
<polyline fill="none" stroke="black" points="583.722,-939 587.722,-939 587.722,-935 583.722,-935 "/>
<polyline fill="none" stroke="black" points="583.722,-915 587.722,-915 587.722,-911 583.722,-911 "/>
<text text-anchor="middle" x="631.222" y="-921.3" font-family="Times,serif" font-size="14.00">StaticReplacer</text>
</g>
<!-- StaticReplacer&#45;&gt;ComponentBase -->
<g id="edge88" class="edge"><title>StaticReplacer&#45;&gt;ComponentBase</title>
<path fill="none" stroke="black" stroke-dasharray="1,5" d="M678.761,-922.629C709.484,-923.513 748.846,-929.643 775.53,-952 810.14,-980.998 775.521,-1019.76 811.53,-1047 905.574,-1118.15 1253.18,-1013.41 1340.2,-1093 1465.72,-1207.8 1488.06,-1784.54 1491.59,-1919.65"/>
<polygon fill="black" stroke="black" points="1488.1,-1920.07 1491.84,-1929.98 1495.1,-1919.89 1488.1,-1920.07"/>
</g>
<!-- StrictCheck -->
<g id="node76" class="node"><title>StrictCheck</title>
<polygon fill="none" stroke="black" points="671.222,-673 591.222,-673 591.222,-669 587.222,-669 587.222,-665 591.222,-665 591.222,-645 587.222,-645 587.222,-641 591.222,-641 591.222,-637 671.222,-637 671.222,-673"/>
<polyline fill="none" stroke="black" points="591.222,-669 595.222,-669 595.222,-665 591.222,-665 "/>
<polyline fill="none" stroke="black" points="591.222,-645 595.222,-645 595.222,-641 591.222,-641 "/>
<text text-anchor="middle" x="631.222" y="-651.3" font-family="Times,serif" font-size="14.00">StrictCheck</text>
</g>
<!-- StrictCheck&#45;&gt;ComponentBase -->
<g id="edge89" class="edge"><title>StrictCheck&#45;&gt;ComponentBase</title>
<path fill="none" stroke="black" stroke-dasharray="1,5" d="M671.28,-651.421C703.519,-650.739 748.254,-655.394 775.53,-682 830.193,-735.32 755.095,-798.558 811.53,-850 898.967,-929.703 1255.41,-830.486 1340.2,-913 1488.76,-1057.58 1493.24,-1767.35 1492.46,-1919.32"/>
<polygon fill="black" stroke="black" points="1488.96,-1919.64 1492.4,-1929.67 1495.96,-1919.69 1488.96,-1919.64"/>
</g>
<!-- X_DbManager -->
<g id="node80" class="node"><title>X_DbManager</title>
<polygon fill="none" stroke="black" points="1015.44,-667 830.439,-667 830.439,-643 1015.44,-643 1015.44,-637 1033.44,-655 1015.44,-673 1015.44,-667"/>
<text text-anchor="middle" x="931.939" y="-651.3" font-family="Times,serif" font-size="14.00">DuckPhp\Component\DbManager</text>
</g>
<!-- StrictCheck&#45;&gt;X_DbManager -->
<g id="edge105" class="edge"><title>StrictCheck&#45;&gt;X_DbManager</title>
<path fill="none" stroke="black" stroke-dasharray="5,2" d="M671.274,-655C709.011,-655 767.974,-655 820.182,-655"/>
<polygon fill="black" stroke="black" points="820.185,-658.5 830.185,-655 820.185,-651.5 820.185,-658.5"/>
</g>
<!-- SqlDumper&#45;&gt;ComponentBase -->
<g id="edge90" class="edge"><title>SqlDumper&#45;&gt;ComponentBase</title>
<path fill="none" stroke="black" stroke-dasharray="1,5" d="M1254.51,-708.18C1282.65,-710.545 1319.17,-718.607 1340.2,-743 1419.9,-835.436 1479.77,-1746.35 1490.48,-1919.62"/>
<polygon fill="black" stroke="black" points="1487,-1919.97 1491.1,-1929.73 1493.98,-1919.54 1487,-1919.97"/>
</g>
<!-- SuperGlobalContext -->
<g id="node78" class="node"><title>SuperGlobalContext</title>
<polygon fill="none" stroke="black" points="695.222,-889 567.222,-889 567.222,-885 563.222,-885 563.222,-881 567.222,-881 567.222,-861 563.222,-861 563.222,-857 567.222,-857 567.222,-853 695.222,-853 695.222,-889"/>
<polyline fill="none" stroke="black" points="567.222,-885 571.222,-885 571.222,-881 567.222,-881 "/>
<polyline fill="none" stroke="black" points="567.222,-861 571.222,-861 571.222,-857 567.222,-857 "/>
<text text-anchor="middle" x="631.222" y="-867.3" font-family="Times,serif" font-size="14.00">SuperGlobalContext</text>
</g>
<!-- SuperGlobalContext&#45;&gt;ComponentBase -->
<g id="edge91" class="edge"><title>SuperGlobalContext&#45;&gt;ComponentBase</title>
<path fill="none" stroke="black" stroke-dasharray="1,5" d="M695.224,-869.074C722.805,-871.427 753.768,-878.848 775.53,-898 814.462,-932.264 771.033,-976.599 811.53,-1009 903.656,-1082.71 1253.63,-977.833 1340.2,-1058 1470.23,-1178.42 1489.14,-1780.51 1491.78,-1919.39"/>
<polygon fill="black" stroke="black" points="1488.29,-1919.7 1491.96,-1929.63 1495.29,-1919.57 1488.29,-1919.7"/>
</g>
</g>
</svg>
