<?xml version="1.0" encoding="UTF-8" standalone="no"?>
<!DOCTYPE svg PUBLIC "-//W3C//DTD SVG 1.1//EN"
 "http://www.w3.org/Graphics/SVG/1.1/DTD/svg11.dtd">
<!-- Generated by graphviz version 2.38.0 (20140413.2041)
 -->
<!-- Title: DuckPhp Pages: 1 -->
<svg width="1342pt" height="2234pt"
 viewBox="0.00 0.00 1342.37 2234.00" xmlns="http://www.w3.org/2000/svg" xmlns:xlink="http://www.w3.org/1999/xlink">
<g id="graph0" class="graph" transform="scale(1 1) rotate(0) translate(4 2230)">
<title>DuckPhp</title>
<polygon fill="white" stroke="none" points="-4,4 -4,-2230 1338.37,-2230 1338.37,4 -4,4"/>
<g id="clust1" class="cluster"><title>cluster_SingletonEx</title>
<polygon fill="none" stroke="black" points="8,-819 8,-946 194.632,-946 194.632,-819 8,-819"/>
<text text-anchor="middle" x="101.316" y="-932.4" font-family="Times,serif" font-size="12.00">[DuckPhp\SingletonEx]</text>
</g>
<g id="clust2" class="cluster"><title>cluster_Core</title>
<polygon fill="none" stroke="black" points="374.253,-1600 374.253,-2083 1326.37,-2083 1326.37,-1600 374.253,-1600"/>
<text text-anchor="middle" x="850.313" y="-2069.4" font-family="Times,serif" font-size="12.00">[DuckPhp\Core]</text>
</g>
<g id="clust3" class="cluster"><title>cluster_Helper</title>
<polygon fill="none" stroke="black" points="8.87057,-1756 8.87057,-2045 354.253,-2045 354.253,-1756 8.87057,-1756"/>
<text text-anchor="middle" x="181.562" y="-2031.4" font-family="Times,serif" font-size="12.00">[DuckPhp\Helper]</text>
</g>
<g id="clust4" class="cluster"><title>cluster_Db</title>
<polygon fill="none" stroke="black" points="814.836,-8 814.836,-135 1174.48,-135 1174.48,-8 814.836,-8"/>
<text text-anchor="middle" x="994.657" y="-121.4" font-family="Times,serif" font-size="12.00">[DuckPhp\Db]</text>
</g>
<g id="clust5" class="cluster"><title>cluster_HttpServer</title>
<polygon fill="none" stroke="black" points="783.495,-2091 783.495,-2218 1195.37,-2218 1195.37,-2091 783.495,-2091"/>
<text text-anchor="middle" x="989.434" y="-2204.4" font-family="Times,serif" font-size="12.00">[DuckPhp\HttpServer]</text>
</g>
<g id="clust6" class="cluster"><title>cluster_Component</title>
<polygon fill="none" stroke="black" points="521.555,-1184 521.555,-1581 907.446,-1581 907.446,-1184 521.555,-1184"/>
<text text-anchor="middle" x="714.501" y="-1567.4" font-family="Times,serif" font-size="12.00">[DuckPhp\Component]</text>
</g>
<g id="clust7" class="cluster"><title>cluster_DuckPhp</title>
<polygon fill="none" stroke="black" points="222.467,-1400 222.467,-1473 346.418,-1473 346.418,-1400 222.467,-1400"/>
<text text-anchor="middle" x="284.443" y="-1459.4" font-family="Times,serif" font-size="12.00">[DuckPhp]</text>
</g>
<g id="clust8" class="cluster"><title>cluster_ThrowOn</title>
<polygon fill="none" stroke="black" points="18.4469,-2103 18.4469,-2176 184.185,-2176 184.185,-2103 18.4469,-2103"/>
<text text-anchor="middle" x="101.316" y="-2162.4" font-family="Times,serif" font-size="12.00">[DuckPhp\ThrowOn]</text>
</g>
<g id="clust9" class="cluster"><title>cluster_Ext</title>
<polygon fill="none" stroke="black" points="524.055,-143 524.055,-1134 948.694,-1134 948.694,-143 524.055,-143"/>
<text text-anchor="middle" x="736.375" y="-1120.4" font-family="Times,serif" font-size="12.00">[DuckPhp\Ext]</text>
</g>
<!-- SingletonExTrait -->
<g id="node1" class="node"><title>SingletonExTrait</title>
<polygon fill="lightgrey" stroke="black" points="101.316,-917 16.1836,-899 101.316,-881 186.448,-899 101.316,-917"/>
<polyline fill="none" stroke="black" points="27.924,-901.482 27.924,-896.518 "/>
<polyline fill="none" stroke="black" points="89.5756,-883.482 113.056,-883.482 "/>
<polyline fill="none" stroke="black" points="174.708,-896.518 174.708,-901.482 "/>
<polyline fill="none" stroke="black" points="113.056,-914.518 89.5756,-914.518 "/>
<text text-anchor="middle" x="101.316" y="-895.9" font-family="Times,serif" font-size="12.00">SingletonExTrait</text>
</g>
<!-- SimpleReplacer -->
<g id="node2" class="node"><title>SimpleReplacer</title>
<ellipse fill="none" stroke="black" cx="101.316" cy="-845" rx="56.7683" ry="18"/>
<text text-anchor="middle" x="101.316" y="-841.9" font-family="Times,serif" font-size="12.00">SimpleReplacer</text>
</g>
<!-- AppPluginTrait -->
<g id="node3" class="node"><title>AppPluginTrait</title>
<polygon fill="lightgrey" stroke="black" points="604.555,-1738 525.111,-1720 604.555,-1702 684,-1720 604.555,-1738"/>
<polyline fill="none" stroke="black" points="536.814,-1722.65 536.814,-1717.35 "/>
<polyline fill="none" stroke="black" points="592.852,-1704.65 616.259,-1704.65 "/>
<polyline fill="none" stroke="black" points="672.297,-1717.35 672.297,-1722.65 "/>
<polyline fill="none" stroke="black" points="616.259,-1735.35 592.852,-1735.35 "/>
<text text-anchor="middle" x="604.555" y="-1716.9" font-family="Times,serif" font-size="12.00">AppPluginTrait</text>
</g>
<!-- View -->
<g id="node8" class="node"><title>View</title>
<polygon fill="none" stroke="black" points="877.694,-1649 823.694,-1649 823.694,-1645 819.694,-1645 819.694,-1641 823.694,-1641 823.694,-1621 819.694,-1621 819.694,-1617 823.694,-1617 823.694,-1613 877.694,-1613 877.694,-1649"/>
<polyline fill="none" stroke="black" points="823.694,-1645 827.694,-1645 827.694,-1641 823.694,-1641 "/>
<polyline fill="none" stroke="black" points="823.694,-1621 827.694,-1621 827.694,-1617 823.694,-1617 "/>
<text text-anchor="middle" x="850.694" y="-1627.9" font-family="Times,serif" font-size="12.00">View</text>
</g>
<!-- AppPluginTrait&#45;&gt;View -->
<g id="edge20" class="edge"><title>AppPluginTrait&#45;&gt;View</title>
<path fill="none" stroke="black" d="M657.657,-1714.02C679.257,-1710.09 704.04,-1703.62 724.694,-1693 743.734,-1683.21 742.18,-1671.75 760.694,-1661 777.044,-1651.51 796.839,-1644.46 813.605,-1639.59"/>
<polygon fill="black" stroke="black" points="814.885,-1642.87 823.595,-1636.84 813.025,-1636.12 814.885,-1642.87"/>
</g>
<!-- Configer -->
<g id="node9" class="node"><title>Configer</title>
<polygon fill="none" stroke="black" points="880.194,-1815 821.194,-1815 821.194,-1811 817.194,-1811 817.194,-1807 821.194,-1807 821.194,-1787 817.194,-1787 817.194,-1783 821.194,-1783 821.194,-1779 880.194,-1779 880.194,-1815"/>
<polyline fill="none" stroke="black" points="821.194,-1811 825.194,-1811 825.194,-1807 821.194,-1807 "/>
<polyline fill="none" stroke="black" points="821.194,-1787 825.194,-1787 825.194,-1783 821.194,-1783 "/>
<text text-anchor="middle" x="850.694" y="-1793.9" font-family="Times,serif" font-size="12.00">Configer</text>
</g>
<!-- AppPluginTrait&#45;&gt;Configer -->
<g id="edge19" class="edge"><title>AppPluginTrait&#45;&gt;Configer</title>
<path fill="none" stroke="black" d="M637.892,-1730.6C669.239,-1740.84 718.157,-1756.69 760.694,-1770 777.128,-1775.14 795.314,-1780.68 810.941,-1785.4"/>
<polygon fill="black" stroke="black" points="810.212,-1788.84 820.797,-1788.37 812.231,-1782.13 810.212,-1788.84"/>
</g>
<!-- Route -->
<g id="node11" class="node"><title>Route</title>
<polygon fill="lightgrey" stroke="black" points="850.694,-1706 811.342,-1688 850.694,-1670 890.047,-1688 850.694,-1706"/>
<polyline fill="none" stroke="black" points="822.255,-1692.99 822.255,-1683.01 "/>
<polyline fill="none" stroke="black" points="839.782,-1674.99 861.607,-1674.99 "/>
<polyline fill="none" stroke="black" points="879.134,-1683.01 879.134,-1692.99 "/>
<polyline fill="none" stroke="black" points="861.607,-1701.01 839.782,-1701.01 "/>
<text text-anchor="middle" x="850.694" y="-1684.9" font-family="Times,serif" font-size="12.00">Route</text>
</g>
<!-- AppPluginTrait&#45;&gt;Route -->
<g id="edge21" class="edge"><title>AppPluginTrait&#45;&gt;Route</title>
<path fill="none" stroke="black" d="M655.255,-1713.49C700.85,-1707.51 767.527,-1698.77 809.753,-1693.24"/>
<polygon fill="black" stroke="black" points="810.213,-1696.7 819.673,-1691.93 809.303,-1689.76 810.213,-1696.7"/>
</g>
<!-- App -->
<g id="node4" class="node"><title>App</title>
<polygon fill="lightgrey" stroke="black" points="415.335,-1884 382.171,-1866 415.335,-1848 448.499,-1866 415.335,-1884"/>
<polyline fill="none" stroke="black" points="392.718,-1871.72 392.718,-1860.28 "/>
<polyline fill="none" stroke="black" points="404.788,-1853.72 425.882,-1853.72 "/>
<polyline fill="none" stroke="black" points="437.952,-1860.28 437.952,-1871.72 "/>
<polyline fill="none" stroke="black" points="425.882,-1878.28 404.788,-1878.28 "/>
<text text-anchor="middle" x="415.335" y="-1862.9" font-family="Times,serif" font-size="12.00">App</text>
</g>
<!-- KernelTrait -->
<g id="node5" class="node"><title>KernelTrait</title>
<polygon fill="none" stroke="black" points="604.555,-1866 542.934,-1848 604.555,-1830 666.177,-1848 604.555,-1866"/>
<text text-anchor="middle" x="604.555" y="-1844.9" font-family="Times,serif" font-size="12.00">KernelTrait</text>
</g>
<!-- App&#45;&gt;KernelTrait -->
<g id="edge7" class="edge"><title>App&#45;&gt;KernelTrait</title>
<path fill="none" stroke="black" d="M443.96,-1863.34C471.061,-1860.74 513.175,-1856.69 547.337,-1853.41"/>
<polygon fill="black" stroke="black" points="548.04,-1856.85 557.659,-1852.41 547.37,-1849.89 548.04,-1856.85"/>
</g>
<!-- AutoLoader -->
<g id="node6" class="node"><title>AutoLoader</title>
<polygon fill="lightgrey" stroke="black" points="850.694,-1761 786.35,-1743 850.694,-1725 915.039,-1743 850.694,-1761"/>
<polyline fill="none" stroke="black" points="797.906,-1746.23 797.906,-1739.77 "/>
<polyline fill="none" stroke="black" points="839.138,-1728.23 862.251,-1728.23 "/>
<polyline fill="none" stroke="black" points="903.483,-1739.77 903.483,-1746.23 "/>
<polyline fill="none" stroke="black" points="862.251,-1757.77 839.138,-1757.77 "/>
<text text-anchor="middle" x="850.694" y="-1739.9" font-family="Times,serif" font-size="12.00">AutoLoader</text>
</g>
<!-- App&#45;&gt;AutoLoader -->
<g id="edge10" class="edge"><title>App&#45;&gt;AutoLoader</title>
<path fill="none" stroke="black" d="M421.691,-1851.04C430.702,-1828.35 451.233,-1785.87 484.417,-1767 497.219,-1759.72 683.031,-1750.4 784.567,-1745.81"/>
<polygon fill="black" stroke="black" points="784.887,-1749.3 794.72,-1745.35 784.573,-1742.31 784.887,-1749.3"/>
</g>
<!-- ExceptionManager -->
<g id="node7" class="node"><title>ExceptionManager</title>
<polygon fill="none" stroke="black" points="904.194,-1869 797.194,-1869 797.194,-1865 793.194,-1865 793.194,-1861 797.194,-1861 797.194,-1841 793.194,-1841 793.194,-1837 797.194,-1837 797.194,-1833 904.194,-1833 904.194,-1869"/>
<polyline fill="none" stroke="black" points="797.194,-1865 801.194,-1865 801.194,-1861 797.194,-1861 "/>
<polyline fill="none" stroke="black" points="797.194,-1841 801.194,-1841 801.194,-1837 797.194,-1837 "/>
<text text-anchor="middle" x="850.694" y="-1847.9" font-family="Times,serif" font-size="12.00">ExceptionManager</text>
</g>
<!-- App&#45;&gt;ExceptionManager -->
<g id="edge13" class="edge"><title>App&#45;&gt;ExceptionManager</title>
<path fill="none" stroke="black" d="M433.812,-1874.01C447.31,-1879.74 466.628,-1886.96 484.417,-1890 589.677,-1908.01 619.283,-1907.11 724.694,-1890 741.342,-1887.3 744.623,-1883.12 760.694,-1878 769.282,-1875.27 778.355,-1872.44 787.294,-1869.7"/>
<polygon fill="black" stroke="black" points="788.373,-1873.03 796.912,-1866.75 786.326,-1866.33 788.373,-1873.03"/>
</g>
<!-- App&#45;&gt;View -->
<g id="edge16" class="edge"><title>App&#45;&gt;View</title>
<path fill="none" stroke="black" d="M418.296,-1849.44C424.686,-1798.65 446.692,-1646.76 484.417,-1618 535.176,-1579.3 731.745,-1609.45 813.602,-1624.14"/>
<polygon fill="black" stroke="black" points="813.218,-1627.63 823.683,-1625.98 814.472,-1620.74 813.218,-1627.63"/>
</g>
<!-- App&#45;&gt;Configer -->
<g id="edge11" class="edge"><title>App&#45;&gt;Configer</title>
<path fill="none" stroke="black" d="M441.895,-1869.87C506.716,-1879.19 675.834,-1900.32 724.694,-1875 749.329,-1862.24 738.2,-1840.24 760.694,-1824 775.438,-1813.35 794.435,-1806.85 811.089,-1802.9"/>
<polygon fill="black" stroke="black" points="812.05,-1806.28 821.097,-1800.76 810.586,-1799.43 812.05,-1806.28"/>
</g>
<!-- Logger -->
<g id="node10" class="node"><title>Logger</title>
<polygon fill="none" stroke="black" points="631.555,-2000 577.555,-2000 577.555,-1996 573.555,-1996 573.555,-1992 577.555,-1992 577.555,-1972 573.555,-1972 573.555,-1968 577.555,-1968 577.555,-1964 631.555,-1964 631.555,-2000"/>
<polyline fill="none" stroke="black" points="577.555,-1996 581.555,-1996 581.555,-1992 577.555,-1992 "/>
<polyline fill="none" stroke="black" points="577.555,-1972 581.555,-1972 581.555,-1968 577.555,-1968 "/>
<text text-anchor="middle" x="604.555" y="-1978.9" font-family="Times,serif" font-size="12.00">Logger</text>
</g>
<!-- App&#45;&gt;Logger -->
<g id="edge12" class="edge"><title>App&#45;&gt;Logger</title>
<path fill="none" stroke="black" d="M423.64,-1879.57C434.426,-1898.3 456.395,-1931.8 484.417,-1950 509.404,-1966.23 542.42,-1974.27 567.357,-1978.23"/>
<polygon fill="black" stroke="black" points="567.107,-1981.73 577.503,-1979.69 568.103,-1974.8 567.107,-1981.73"/>
</g>
<!-- App&#45;&gt;Route -->
<g id="edge14" class="edge"><title>App&#45;&gt;Route</title>
<path fill="none" stroke="black" d="M418.73,-1849.49C426.036,-1801.67 449.675,-1664.85 484.417,-1639 527.254,-1607.13 672.866,-1626.16 724.694,-1639 742.255,-1643.35 744.069,-1650.87 760.694,-1658 778.563,-1665.67 799.096,-1672.7 815.935,-1678.03"/>
<polygon fill="black" stroke="black" points="815.297,-1681.5 825.885,-1681.11 817.371,-1674.81 815.297,-1681.5"/>
</g>
<!-- RuntimeState -->
<g id="node12" class="node"><title>RuntimeState</title>
<polygon fill="none" stroke="black" points="890.694,-1923 810.694,-1923 810.694,-1919 806.694,-1919 806.694,-1915 810.694,-1915 810.694,-1895 806.694,-1895 806.694,-1891 810.694,-1891 810.694,-1887 890.694,-1887 890.694,-1923"/>
<polyline fill="none" stroke="black" points="810.694,-1919 814.694,-1919 814.694,-1915 810.694,-1915 "/>
<polyline fill="none" stroke="black" points="810.694,-1895 814.694,-1895 814.694,-1891 810.694,-1891 "/>
<text text-anchor="middle" x="850.694" y="-1901.9" font-family="Times,serif" font-size="12.00">RuntimeState</text>
</g>
<!-- App&#45;&gt;RuntimeState -->
<g id="edge15" class="edge"><title>App&#45;&gt;RuntimeState</title>
<path fill="none" stroke="black" d="M430.382,-1876.02C443.603,-1884.8 464.323,-1896.93 484.417,-1902 594.597,-1929.82 729.497,-1920.16 800.53,-1911.87"/>
<polygon fill="black" stroke="black" points="801.029,-1915.33 810.537,-1910.66 800.189,-1908.38 801.029,-1915.33"/>
</g>
<!-- SystemWrapperTrait -->
<g id="node13" class="node"><title>SystemWrapperTrait</title>
<polygon fill="none" stroke="black" points="604.555,-1684 504.324,-1666 604.555,-1648 704.787,-1666 604.555,-1684"/>
<text text-anchor="middle" x="604.555" y="-1662.9" font-family="Times,serif" font-size="12.00">SystemWrapperTrait</text>
</g>
<!-- App&#45;&gt;SystemWrapperTrait -->
<g id="edge9" class="edge"><title>App&#45;&gt;SystemWrapperTrait</title>
<path fill="none" stroke="black" d="M417.829,-1849.27C421.861,-1814.54 436.17,-1734.42 484.417,-1693 494.97,-1683.94 507.936,-1677.75 521.384,-1673.55"/>
<polygon fill="black" stroke="black" points="522.524,-1676.87 531.235,-1670.84 520.664,-1670.12 522.524,-1676.87"/>
</g>
<!-- ExtendableStaticCallTrait -->
<g id="node14" class="node"><title>ExtendableStaticCallTrait</title>
<polygon fill="none" stroke="black" points="604.555,-2054 484.278,-2036 604.555,-2018 724.833,-2036 604.555,-2054"/>
<text text-anchor="middle" x="604.555" y="-2032.9" font-family="Times,serif" font-size="12.00">ExtendableStaticCallTrait</text>
</g>
<!-- App&#45;&gt;ExtendableStaticCallTrait -->
<g id="edge8" class="edge"><title>App&#45;&gt;ExtendableStaticCallTrait</title>
<path fill="none" stroke="black" d="M419.243,-1882.16C425.507,-1912.07 443.189,-1976.02 484.417,-2009 494.218,-2016.84 505.855,-2022.5 517.954,-2026.56"/>
<polygon fill="black" stroke="black" points="517.147,-2029.98 527.731,-2029.49 519.157,-2023.27 517.147,-2029.98"/>
</g>
<!-- ComponentBase -->
<g id="node16" class="node"><title>ComponentBase</title>
<polygon fill="none" stroke="black" points="1129.53,-1644 1038.53,-1644 1034.53,-1640 1034.53,-1608 1125.53,-1608 1129.53,-1612 1129.53,-1644"/>
<polyline fill="none" stroke="black" points="1125.53,-1640 1034.53,-1640 "/>
<polyline fill="none" stroke="black" points="1125.53,-1640 1125.53,-1608 "/>
<polyline fill="none" stroke="black" points="1125.53,-1640 1129.53,-1644 "/>
<text text-anchor="middle" x="1082.03" y="-1622.9" font-family="Times,serif" font-size="12.00">ComponentBase</text>
</g>
<!-- App&#45;&gt;ComponentBase -->
<g id="edge18" class="edge"><title>App&#45;&gt;ComponentBase</title>
<path fill="none" stroke="black" stroke-dasharray="1,5" d="M427.574,-1877.82C440.115,-1890.12 461.653,-1908.73 484.417,-1917 532.926,-1934.63 905.559,-1960.34 948.694,-1932 1045.64,-1868.31 1071.9,-1716.81 1078.74,-1654.01"/>
<polygon fill="black" stroke="black" points="1082.22,-1654.34 1079.74,-1644.04 1075.26,-1653.64 1082.22,-1654.34"/>
</g>
<!-- Functions -->
<g id="node17" class="node"><title>Functions</title>
<ellipse fill="none" stroke="black" cx="604.555" cy="-1794" rx="38.5652" ry="18"/>
<text text-anchor="middle" x="604.555" y="-1790.9" font-family="Times,serif" font-size="12.00">Functions</text>
</g>
<!-- App&#45;&gt;Functions -->
<g id="edge17" class="edge"><title>App&#45;&gt;Functions</title>
<path fill="none" stroke="black" d="M429.327,-1855.32C442.453,-1845.06 463.698,-1829.84 484.417,-1821 507.421,-1811.18 534.515,-1804.68 557.049,-1800.52"/>
<polygon fill="black" stroke="black" points="557.802,-1803.94 567.05,-1798.77 556.596,-1797.05 557.802,-1803.94"/>
</g>
<!-- KernelTrait&#45;&gt;AutoLoader -->
<g id="edge1" class="edge"><title>KernelTrait&#45;&gt;AutoLoader</title>
<path fill="none" stroke="black" d="M655.424,-1844.83C678.093,-1841.44 704.333,-1834.62 724.694,-1821 747.756,-1805.58 738.2,-1786.24 760.694,-1770 771.961,-1761.87 785.711,-1756.15 799.001,-1752.14"/>
<polygon fill="black" stroke="black" points="800.303,-1755.42 809.026,-1749.4 798.457,-1748.66 800.303,-1755.42"/>
</g>
<!-- KernelTrait&#45;&gt;ExceptionManager -->
<g id="edge3" class="edge"><title>KernelTrait&#45;&gt;ExceptionManager</title>
<path fill="none" stroke="black" d="M664.033,-1848.72C701.04,-1849.17 748.865,-1849.76 786.708,-1850.23"/>
<polygon fill="black" stroke="black" points="787.057,-1853.73 797.099,-1850.35 787.143,-1846.73 787.057,-1853.73"/>
</g>
<!-- KernelTrait&#45;&gt;View -->
<g id="edge6" class="edge"><title>KernelTrait&#45;&gt;View</title>
<path fill="none" stroke="black" d="M664.278,-1847.39C685.872,-1844.2 708.885,-1836.83 724.694,-1821 776.195,-1769.42 711.897,-1715.14 760.694,-1661 774.079,-1646.15 795.06,-1638.64 813.29,-1634.85"/>
<polygon fill="black" stroke="black" points="814.114,-1638.26 823.347,-1633.06 812.889,-1631.37 814.114,-1638.26"/>
</g>
<!-- KernelTrait&#45;&gt;Configer -->
<g id="edge2" class="edge"><title>KernelTrait&#45;&gt;Configer</title>
<path fill="none" stroke="black" d="M641.055,-1840.58C686.301,-1831.13 764.238,-1814.85 810.975,-1805.09"/>
<polygon fill="black" stroke="black" points="811.943,-1808.46 821.016,-1802.99 810.511,-1801.61 811.943,-1808.46"/>
</g>
<!-- KernelTrait&#45;&gt;Route -->
<g id="edge4" class="edge"><title>KernelTrait&#45;&gt;Route</title>
<path fill="none" stroke="black" d="M661.885,-1846.71C683.785,-1843.5 707.652,-1836.3 724.694,-1821 761.401,-1788.04 725.369,-1750.44 760.694,-1716 773.277,-1703.73 791.178,-1696.84 807.63,-1692.96"/>
<polygon fill="black" stroke="black" points="808.531,-1696.35 817.626,-1690.91 807.128,-1689.49 808.531,-1696.35"/>
</g>
<!-- KernelTrait&#45;&gt;RuntimeState -->
<g id="edge5" class="edge"><title>KernelTrait&#45;&gt;RuntimeState</title>
<path fill="none" stroke="black" d="M639.502,-1855.93C681.335,-1865.69 752.735,-1882.36 800.557,-1893.53"/>
<polygon fill="black" stroke="black" points="799.851,-1896.96 810.384,-1895.82 801.442,-1890.14 799.851,-1896.96"/>
</g>
<!-- ExceptionManager&#45;&gt;ComponentBase -->
<g id="edge22" class="edge"><title>ExceptionManager&#45;&gt;ComponentBase</title>
<path fill="none" stroke="black" stroke-dasharray="1,5" d="M904.328,-1843.5C919.651,-1839.5 935.738,-1833.38 948.694,-1824 1010.37,-1779.35 1051.8,-1696.48 1070.19,-1653.48"/>
<polygon fill="black" stroke="black" points="1073.44,-1654.77 1074.07,-1644.2 1066.98,-1652.08 1073.44,-1654.77"/>
</g>
<!-- View&#45;&gt;ComponentBase -->
<g id="edge26" class="edge"><title>View&#45;&gt;ComponentBase</title>
<path fill="none" stroke="black" stroke-dasharray="1,5" d="M878.002,-1630.43C913.443,-1629.65 977.455,-1628.26 1024.15,-1627.24"/>
<polygon fill="black" stroke="black" points="1024.51,-1630.73 1034.43,-1627.02 1024.36,-1623.73 1024.51,-1630.73"/>
</g>
<!-- Configer&#45;&gt;ComponentBase -->
<g id="edge23" class="edge"><title>Configer&#45;&gt;ComponentBase</title>
<path fill="none" stroke="black" stroke-dasharray="1,5" d="M880.539,-1793.27C900.771,-1789.66 927.825,-1782.78 948.694,-1770 998.452,-1739.53 1041.04,-1685.08 1063.66,-1652.57"/>
<polygon fill="black" stroke="black" points="1066.75,-1654.26 1069.5,-1644.03 1060.97,-1650.31 1066.75,-1654.26"/>
</g>
<!-- Logger&#45;&gt;ComponentBase -->
<g id="edge27" class="edge"><title>Logger&#45;&gt;ComponentBase</title>
<path fill="none" stroke="black" stroke-dasharray="1,5" d="M631.959,-1987.94C694.092,-2000.29 851.61,-2021.98 948.694,-1950 1046.74,-1877.3 1072.4,-1719.2 1078.91,-1654.48"/>
<polygon fill="black" stroke="black" points="1082.42,-1654.5 1079.85,-1644.22 1075.45,-1653.86 1082.42,-1654.5"/>
</g>
<!-- Route&#45;&gt;ComponentBase -->
<g id="edge24" class="edge"><title>Route&#45;&gt;ComponentBase</title>
<path fill="none" stroke="black" stroke-dasharray="1,5" d="M875.804,-1681.48C910.806,-1672.02 976.714,-1654.2 1024.42,-1641.31"/>
<polygon fill="black" stroke="black" points="1025.56,-1644.62 1034.3,-1638.63 1023.73,-1637.86 1025.56,-1644.62"/>
</g>
<!-- RuntimeState&#45;&gt;ComponentBase -->
<g id="edge25" class="edge"><title>RuntimeState&#45;&gt;ComponentBase</title>
<path fill="none" stroke="black" stroke-dasharray="1,5" d="M890.918,-1901.39C910.042,-1897.94 932.375,-1891.18 948.694,-1878 1022.61,-1818.31 1060.14,-1706.15 1074.25,-1653.99"/>
<polygon fill="black" stroke="black" points="1077.69,-1654.66 1076.84,-1644.1 1070.92,-1652.89 1077.69,-1654.66"/>
</g>
<!-- ComponentInterface -->
<g id="node15" class="node"><title>ComponentInterface</title>
<polygon fill="none" stroke="black" points="1312.37,-1644 1223.37,-1644 1223.37,-1608 1318.37,-1608 1318.37,-1638 1312.37,-1644"/>
<polyline fill="none" stroke="black" points="1312.37,-1644 1312.37,-1638 "/>
<polyline fill="none" stroke="black" points="1318.37,-1638 1312.37,-1638 "/>
<text text-anchor="middle" x="1270.87" y="-1622.9" font-family="Times,serif" font-size="12.00">ComponentBase</text>
</g>
<!-- ComponentBase&#45;&gt;ComponentInterface -->
<g id="edge28" class="edge"><title>ComponentBase&#45;&gt;ComponentInterface</title>
<path fill="none" stroke="black" d="M1129.7,-1626C1154.89,-1626 1186.19,-1626 1212.82,-1626"/>
<polygon fill="black" stroke="black" points="1213.15,-1629.5 1223.15,-1626 1213.15,-1622.5 1213.15,-1629.5"/>
</g>
<!-- AppHelper -->
<g id="node18" class="node"><title>AppHelper</title>
<polygon fill="lightgrey" stroke="black" points="101.316,-1908 40.4359,-1890 101.316,-1872 162.196,-1890 101.316,-1908"/>
<polyline fill="none" stroke="black" points="51.9435,-1893.4 51.9435,-1886.6 "/>
<polyline fill="none" stroke="black" points="89.8084,-1875.4 112.824,-1875.4 "/>
<polyline fill="none" stroke="black" points="150.689,-1886.6 150.689,-1893.4 "/>
<polyline fill="none" stroke="black" points="112.824,-1904.6 89.8084,-1904.6 "/>
<text text-anchor="middle" x="101.316" y="-1886.9" font-family="Times,serif" font-size="12.00">AppHelper</text>
</g>
<!-- AppHelper&#45;&gt;App -->
<g id="edge29" class="edge"><title>AppHelper&#45;&gt;App</title>
<path fill="none" stroke="black" d="M150.045,-1886.33C211.919,-1881.57 318.632,-1873.36 375.695,-1868.97"/>
<polygon fill="black" stroke="black" points="376.048,-1872.46 385.75,-1868.2 375.511,-1865.48 376.048,-1872.46"/>
</g>
<!-- HelperTrait -->
<g id="node23" class="node"><title>HelperTrait</title>
<polygon fill="none" stroke="black" points="284.443,-2006 222.821,-1988 284.443,-1970 346.064,-1988 284.443,-2006"/>
<text text-anchor="middle" x="284.443" y="-1984.9" font-family="Times,serif" font-size="12.00">HelperTrait</text>
</g>
<!-- AppHelper&#45;&gt;HelperTrait -->
<g id="edge36" class="edge"><title>AppHelper&#45;&gt;HelperTrait</title>
<path fill="none" stroke="black" d="M138.632,-1897.15C156.17,-1901.46 177.15,-1907.91 194.632,-1917 219.918,-1930.15 244.93,-1951.05 261.935,-1966.77"/>
<polygon fill="black" stroke="black" points="259.933,-1969.7 269.605,-1974.02 264.741,-1964.61 259.933,-1969.7"/>
</g>
<!-- ControllerHelper -->
<g id="node19" class="node"><title>ControllerHelper</title>
<polygon fill="lightgrey" stroke="black" points="101.316,-1854 16.9251,-1836 101.316,-1818 185.707,-1836 101.316,-1854"/>
<polyline fill="none" stroke="black" points="28.6611,-1838.5 28.6611,-1833.5 "/>
<polyline fill="none" stroke="black" points="89.58,-1820.5 113.052,-1820.5 "/>
<polyline fill="none" stroke="black" points="173.971,-1833.5 173.971,-1838.5 "/>
<polyline fill="none" stroke="black" points="113.052,-1851.5 89.58,-1851.5 "/>
<text text-anchor="middle" x="101.316" y="-1832.9" font-family="Times,serif" font-size="12.00">ControllerHelper</text>
</g>
<!-- ControllerHelper&#45;&gt;App -->
<g id="edge30" class="edge"><title>ControllerHelper&#45;&gt;App</title>
<path fill="none" stroke="black" d="M159.909,-1841.54C223.135,-1847.62 322.811,-1857.2 376.717,-1862.38"/>
<polygon fill="black" stroke="black" points="376.575,-1865.89 386.864,-1863.36 377.245,-1858.92 376.575,-1865.89"/>
</g>
<!-- ControllerHelper&#45;&gt;HelperTrait -->
<g id="edge37" class="edge"><title>ControllerHelper&#45;&gt;HelperTrait</title>
<path fill="none" stroke="black" d="M150.596,-1843.69C165.666,-1847.71 181.71,-1853.8 194.632,-1863 230.906,-1888.83 257.694,-1934.28 271.906,-1962.67"/>
<polygon fill="black" stroke="black" points="268.89,-1964.48 276.403,-1971.95 275.188,-1961.42 268.89,-1964.48"/>
</g>
<!-- ModelHelper -->
<g id="node20" class="node"><title>ModelHelper</title>
<polygon fill="lightgrey" stroke="black" points="101.316,-1800 31.5243,-1782 101.316,-1764 171.108,-1782 101.316,-1800"/>
<polyline fill="none" stroke="black" points="43.144,-1785 43.144,-1779 "/>
<polyline fill="none" stroke="black" points="89.6962,-1767 112.936,-1767 "/>
<polyline fill="none" stroke="black" points="159.488,-1779 159.488,-1785 "/>
<polyline fill="none" stroke="black" points="112.936,-1797 89.6962,-1797 "/>
<text text-anchor="middle" x="101.316" y="-1778.9" font-family="Times,serif" font-size="12.00">ModelHelper</text>
</g>
<!-- ModelHelper&#45;&gt;App -->
<g id="edge31" class="edge"><title>ModelHelper&#45;&gt;App</title>
<path fill="none" stroke="black" d="M139.743,-1790.23C189.202,-1801.37 278.878,-1822.45 354.253,-1845 364.654,-1848.11 375.921,-1851.93 385.858,-1855.45"/>
<polygon fill="black" stroke="black" points="384.675,-1858.74 395.269,-1858.84 387.045,-1852.16 384.675,-1858.74"/>
</g>
<!-- ModelHelper&#45;&gt;HelperTrait -->
<g id="edge38" class="edge"><title>ModelHelper&#45;&gt;HelperTrait</title>
<path fill="none" stroke="black" d="M148.644,-1787.8C164.608,-1791.68 181.704,-1798.17 194.632,-1809 242.74,-1849.31 267.206,-1922.04 277.42,-1961.24"/>
<polygon fill="black" stroke="black" points="274.068,-1962.26 279.877,-1971.12 280.861,-1960.57 274.068,-1962.26"/>
</g>
<!-- ServiceHelper -->
<g id="node21" class="node"><title>ServiceHelper</title>
<polygon fill="lightgrey" stroke="black" points="101.316,-2016 28.0598,-1998 101.316,-1980 174.572,-1998 101.316,-2016"/>
<polyline fill="none" stroke="black" points="39.7131,-2000.86 39.7131,-1995.14 "/>
<polyline fill="none" stroke="black" points="89.6626,-1982.86 112.969,-1982.86 "/>
<polyline fill="none" stroke="black" points="162.919,-1995.14 162.919,-2000.86 "/>
<polyline fill="none" stroke="black" points="112.969,-2013.14 89.6626,-2013.14 "/>
<text text-anchor="middle" x="101.316" y="-1994.9" font-family="Times,serif" font-size="12.00">ServiceHelper</text>
</g>
<!-- ServiceHelper&#45;&gt;App -->
<g id="edge32" class="edge"><title>ServiceHelper&#45;&gt;App</title>
<path fill="none" stroke="black" d="M136.663,-1988.49C154.103,-1983.52 175.578,-1977.2 194.632,-1971 207.132,-1966.93 209.988,-1965.13 222.467,-1961 280.574,-1941.76 301.072,-1951.31 354.253,-1921 370.425,-1911.78 385.85,-1897.51 397.022,-1885.81"/>
<polygon fill="black" stroke="black" points="399.82,-1887.93 404.033,-1878.21 394.677,-1883.19 399.82,-1887.93"/>
</g>
<!-- ServiceHelper&#45;&gt;HelperTrait -->
<g id="edge39" class="edge"><title>ServiceHelper&#45;&gt;HelperTrait</title>
<path fill="none" stroke="black" d="M161.373,-1994.74C180.889,-1993.66 202.635,-1992.46 222.304,-1991.38"/>
<polygon fill="black" stroke="black" points="222.586,-1994.87 232.378,-1990.82 222.2,-1987.88 222.586,-1994.87"/>
</g>
<!-- ViewHelper -->
<g id="node22" class="node"><title>ViewHelper</title>
<polygon fill="lightgrey" stroke="black" points="101.316,-1962 36.2296,-1944 101.316,-1926 166.402,-1944 101.316,-1962"/>
<polyline fill="none" stroke="black" points="47.7955,-1947.2 47.7955,-1940.8 "/>
<polyline fill="none" stroke="black" points="89.7502,-1929.2 112.882,-1929.2 "/>
<polyline fill="none" stroke="black" points="154.837,-1940.8 154.837,-1947.2 "/>
<polyline fill="none" stroke="black" points="112.882,-1958.8 89.7502,-1958.8 "/>
<text text-anchor="middle" x="101.316" y="-1940.9" font-family="Times,serif" font-size="12.00">ViewHelper</text>
</g>
<!-- ViewHelper&#45;&gt;App -->
<g id="edge33" class="edge"><title>ViewHelper&#45;&gt;App</title>
<path fill="none" stroke="black" d="M142.995,-1937.46C193.25,-1928.89 281.078,-1912.28 354.253,-1890 365.327,-1886.63 377.223,-1882.08 387.483,-1877.85"/>
<polygon fill="black" stroke="black" points="388.889,-1881.06 396.74,-1873.94 386.166,-1874.61 388.889,-1881.06"/>
</g>
<!-- ViewHelper&#45;&gt;HelperTrait -->
<g id="edge40" class="edge"><title>ViewHelper&#45;&gt;HelperTrait</title>
<path fill="none" stroke="black" d="M136.811,-1952.38C166.263,-1959.53 208.759,-1969.86 240.427,-1977.55"/>
<polygon fill="black" stroke="black" points="239.755,-1980.99 250.299,-1979.95 241.407,-1974.19 239.755,-1980.99"/>
</g>
<!-- HelperTrait&#45;&gt;App -->
<g id="edge34" class="edge"><title>HelperTrait&#45;&gt;App</title>
<path fill="none" stroke="black" d="M314.262,-1978.68C327.434,-1973.45 342.651,-1965.95 354.253,-1956 375.948,-1937.4 393.073,-1909.13 403.4,-1889.25"/>
<polygon fill="black" stroke="black" points="406.563,-1890.75 407.914,-1880.24 400.305,-1887.61 406.563,-1890.75"/>
</g>
<!-- HelperTrait&#45;&gt;ExtendableStaticCallTrait -->
<g id="edge35" class="edge"><title>HelperTrait&#45;&gt;ExtendableStaticCallTrait</title>
<path fill="none" stroke="black" d="M325.732,-1994.08C378.102,-2001.98 470.381,-2015.91 534.135,-2025.53"/>
<polygon fill="black" stroke="black" points="533.701,-2029 544.112,-2027.03 534.746,-2022.08 533.701,-2029"/>
</g>
<!-- Db_Db -->
<g id="node24" class="node"><title>Db_Db</title>
<polygon fill="lightgrey" stroke="black" points="850.694,-106 822.977,-88 850.694,-70 878.412,-88 850.694,-106"/>
<polyline fill="none" stroke="black" points="832.216,-94 832.216,-82 "/>
<polyline fill="none" stroke="black" points="841.455,-76 859.933,-76 "/>
<polyline fill="none" stroke="black" points="869.173,-82 869.173,-94 "/>
<polyline fill="none" stroke="black" points="859.933,-100 841.455,-100 "/>
<text text-anchor="middle" x="850.694" y="-84.9" font-family="Times,serif" font-size="12.00">Db</text>
</g>
<!-- Db_DbAdvanceTrait -->
<g id="node25" class="node"><title>Db_DbAdvanceTrait</title>
<polygon fill="none" stroke="black" points="1082.03,-52 997.643,-34 1082.03,-16 1166.42,-34 1082.03,-52"/>
<text text-anchor="middle" x="1082.03" y="-30.9" font-family="Times,serif" font-size="12.00">DbAdvanceTrait</text>
</g>
<!-- Db_Db&#45;&gt;Db_DbAdvanceTrait -->
<g id="edge41" class="edge"><title>Db_Db&#45;&gt;Db_DbAdvanceTrait</title>
<path fill="none" stroke="black" d="M871.645,-83.3023C906.922,-74.9962 981.287,-57.4862 1031.22,-45.7302"/>
<polygon fill="black" stroke="black" points="1032.23,-49.0861 1041.17,-43.3873 1030.63,-42.2724 1032.23,-49.0861"/>
</g>
<!-- Db_DbInterface -->
<g id="node26" class="node"><title>Db_DbInterface</title>
<polygon fill="none" stroke="black" points="1112.53,-106 1045.53,-106 1045.53,-70 1118.53,-70 1118.53,-100 1112.53,-106"/>
<polyline fill="none" stroke="black" points="1112.53,-106 1112.53,-100 "/>
<polyline fill="none" stroke="black" points="1118.53,-100 1112.53,-100 "/>
<text text-anchor="middle" x="1082.03" y="-84.9" font-family="Times,serif" font-size="12.00">DbInterface</text>
</g>
<!-- Db_Db&#45;&gt;Db_DbInterface -->
<g id="edge42" class="edge"><title>Db_Db&#45;&gt;Db_DbInterface</title>
<path fill="none" stroke="black" d="M878.451,-88C916.899,-88 988.3,-88 1035.24,-88"/>
<polygon fill="black" stroke="black" points="1035.45,-91.5001 1045.44,-88 1035.44,-84.5001 1035.45,-91.5001"/>
</g>
<!-- HttpServer -->
<g id="node27" class="node"><title>HttpServer</title>
<polygon fill="lightgrey" stroke="black" points="850.694,-2189 791.296,-2171 850.694,-2153 910.093,-2171 850.694,-2189"/>
<polyline fill="none" stroke="black" points="802.78,-2174.48 802.78,-2167.52 "/>
<polyline fill="none" stroke="black" points="839.21,-2156.48 862.179,-2156.48 "/>
<polyline fill="none" stroke="black" points="898.608,-2167.52 898.608,-2174.48 "/>
<polyline fill="none" stroke="black" points="862.179,-2185.52 839.21,-2185.52 "/>
<text text-anchor="middle" x="850.694" y="-2167.9" font-family="Times,serif" font-size="12.00">HttpServer</text>
</g>
<!-- HttpServerInterface -->
<g id="node28" class="node"><title>HttpServerInterface</title>
<polygon fill="none" stroke="black" points="1145.03,-2135 1013.03,-2135 1013.03,-2099 1151.03,-2099 1151.03,-2129 1145.03,-2135"/>
<polyline fill="none" stroke="black" points="1145.03,-2135 1145.03,-2129 "/>
<polyline fill="none" stroke="black" points="1151.03,-2129 1145.03,-2129 "/>
<text text-anchor="middle" x="1082.03" y="-2113.9" font-family="Times,serif" font-size="12.00">HttpServerInterface(todo)</text>
</g>
<!-- HttpServer&#45;&gt;HttpServerInterface -->
<g id="edge43" class="edge"><title>HttpServer&#45;&gt;HttpServerInterface</title>
<path fill="none" stroke="black" d="M885.042,-2163.15C915.8,-2155.91 962.641,-2144.88 1002.82,-2135.42"/>
<polygon fill="black" stroke="black" points="1003.68,-2138.81 1012.61,-2133.11 1002.07,-2132 1003.68,-2138.81"/>
</g>
<!-- FileRunnerTrait -->
<g id="node30" class="node"><title>FileRunnerTrait</title>
<polygon fill="none" stroke="black" points="1082.03,-2189 976.855,-2171 1082.03,-2153 1187.21,-2171 1082.03,-2189"/>
<text text-anchor="middle" x="1082.03" y="-2167.9" font-family="Times,serif" font-size="12.00">FileRunnerTrait(todo)</text>
</g>
<!-- HttpServer&#45;&gt;FileRunnerTrait -->
<g id="edge44" class="edge"><title>HttpServer&#45;&gt;FileRunnerTrait</title>
<path fill="none" stroke="black" d="M910.16,-2171C927.45,-2171 947.006,-2171 966.554,-2171"/>
<polygon fill="black" stroke="black" points="966.764,-2174.5 976.764,-2171 966.764,-2167.5 966.764,-2174.5"/>
</g>
<!-- HttpServerPluginInterface -->
<g id="node29" class="node"><title>HttpServerPluginInterface</title>
<polygon fill="none" stroke="black" points="903.194,-2135 792.194,-2135 792.194,-2099 909.194,-2099 909.194,-2129 903.194,-2135"/>
<polyline fill="none" stroke="black" points="903.194,-2135 903.194,-2129 "/>
<polyline fill="none" stroke="black" points="909.194,-2129 903.194,-2129 "/>
<text text-anchor="middle" x="850.694" y="-2113.9" font-family="Times,serif" font-size="12.00">PluginInterface(todo)</text>
</g>
<!-- Cache -->
<g id="node31" class="node"><title>Cache</title>
<polygon fill="none" stroke="black" points="631.555,-1282 577.555,-1282 577.555,-1278 573.555,-1278 573.555,-1274 577.555,-1274 577.555,-1254 573.555,-1254 573.555,-1250 577.555,-1250 577.555,-1246 631.555,-1246 631.555,-1282"/>
<polyline fill="none" stroke="black" points="577.555,-1278 581.555,-1278 581.555,-1274 577.555,-1274 "/>
<polyline fill="none" stroke="black" points="577.555,-1254 581.555,-1254 581.555,-1250 577.555,-1250 "/>
<text text-anchor="middle" x="604.555" y="-1260.9" font-family="Times,serif" font-size="12.00">Cache</text>
</g>
<!-- Cache&#45;&gt;ComponentBase -->
<g id="edge45" class="edge"><title>Cache&#45;&gt;ComponentBase</title>
<path fill="none" stroke="black" stroke-dasharray="1,5" d="M631.8,-1260.41C656.407,-1256.5 693.914,-1249.13 724.694,-1237 741.927,-1230.21 742.813,-1220.83 760.694,-1216 841.354,-1194.19 881.144,-1166.82 948.694,-1216 1012.77,-1262.65 1061.46,-1513.06 1076.32,-1597.89"/>
<polygon fill="black" stroke="black" points="1072.88,-1598.57 1078.04,-1607.83 1079.78,-1597.38 1072.88,-1598.57"/>
</g>
<!-- Console -->
<g id="node32" class="node"><title>Console</title>
<polygon fill="lightgrey" stroke="black" points="850.694,-1552 802.189,-1534 850.694,-1516 899.2,-1534 850.694,-1552"/>
<polyline fill="none" stroke="black" points="813.439,-1538.17 813.439,-1529.83 "/>
<polyline fill="none" stroke="black" points="839.444,-1520.17 861.945,-1520.17 "/>
<polyline fill="none" stroke="black" points="887.949,-1529.83 887.949,-1538.17 "/>
<polyline fill="none" stroke="black" points="861.945,-1547.83 839.444,-1547.83 "/>
<text text-anchor="middle" x="850.694" y="-1530.9" font-family="Times,serif" font-size="12.00">Console</text>
</g>
<!-- DbManager -->
<g id="node33" class="node"><title>DbManager</title>
<polygon fill="none" stroke="black" points="641.555,-1228 567.555,-1228 567.555,-1224 563.555,-1224 563.555,-1220 567.555,-1220 567.555,-1200 563.555,-1200 563.555,-1196 567.555,-1196 567.555,-1192 641.555,-1192 641.555,-1228"/>
<polyline fill="none" stroke="black" points="567.555,-1224 571.555,-1224 571.555,-1220 567.555,-1220 "/>
<polyline fill="none" stroke="black" points="567.555,-1200 571.555,-1200 571.555,-1196 567.555,-1196 "/>
<text text-anchor="middle" x="604.555" y="-1206.9" font-family="Times,serif" font-size="12.00">DbManager</text>
</g>
<!-- DbManager&#45;&gt;ComponentBase -->
<g id="edge47" class="edge"><title>DbManager&#45;&gt;ComponentBase</title>
<path fill="none" stroke="black" stroke-dasharray="1,5" d="M641.654,-1193.37C709.29,-1164.96 856.563,-1116.46 948.694,-1185 1017.18,-1235.95 1063.5,-1508.82 1076.98,-1597.87"/>
<polygon fill="black" stroke="black" points="1073.52,-1598.42 1078.46,-1607.79 1080.44,-1597.38 1073.52,-1598.42"/>
</g>
<!-- DbManager&#45;&gt;Db_Db -->
<g id="edge56" class="edge"><title>DbManager&#45;&gt;Db_Db</title>
<path fill="none" stroke="black" stroke-dasharray="5,2" d="M641.596,-1198.83C669.576,-1188.08 706.563,-1168.83 724.694,-1138 780.999,-1042.26 703.281,-234.082 760.694,-139 773.905,-117.121 800.275,-103.745 820.898,-96.2141"/>
<polygon fill="black" stroke="black" points="822.125,-99.4939 830.477,-92.9751 819.883,-92.8627 822.125,-99.4939"/>
</g>
<!-- DuckPhpCommand -->
<g id="node34" class="node"><title>DuckPhpCommand</title>
<polygon fill="none" stroke="black" points="660.055,-1552 549.055,-1552 549.055,-1548 545.055,-1548 545.055,-1544 549.055,-1544 549.055,-1524 545.055,-1524 545.055,-1520 549.055,-1520 549.055,-1516 660.055,-1516 660.055,-1552"/>
<polyline fill="none" stroke="black" points="549.055,-1548 553.055,-1548 553.055,-1544 549.055,-1544 "/>
<polyline fill="none" stroke="black" points="549.055,-1524 553.055,-1524 553.055,-1520 549.055,-1520 "/>
<text text-anchor="middle" x="604.555" y="-1530.9" font-family="Times,serif" font-size="12.00">DuckPhpCommand</text>
</g>
<!-- DuckPhpCommand&#45;&gt;ComponentBase -->
<g id="edge46" class="edge"><title>DuckPhpCommand&#45;&gt;ComponentBase</title>
<path fill="none" stroke="black" stroke-dasharray="1,5" d="M660.129,-1533.04C682.53,-1529.98 707.246,-1522.8 724.694,-1507 762.196,-1473.03 719.648,-1428.58 760.694,-1399 828.478,-1350.14 876.245,-1357.38 948.694,-1399 1024.21,-1442.39 1060.7,-1547.31 1074.37,-1597.86"/>
<polygon fill="black" stroke="black" points="1071.04,-1598.98 1076.94,-1607.78 1077.82,-1597.22 1071.04,-1598.98"/>
</g>
<!-- DuckPhpCommand&#45;&gt;HttpServer -->
<g id="edge55" class="edge"><title>DuckPhpCommand&#45;&gt;HttpServer</title>
<path fill="none" stroke="black" stroke-dasharray="5,2" d="M660.213,-1549.02C684.063,-1558.5 709.91,-1573.35 724.694,-1596 791.4,-1698.2 684.821,-2048.41 760.694,-2144 768.774,-2154.18 780.57,-2160.63 792.947,-2164.68"/>
<polygon fill="black" stroke="black" points="792.367,-2168.15 802.938,-2167.45 794.235,-2161.41 792.367,-2168.15"/>
</g>
<!-- DuckPhpCommand&#45;&gt;Console -->
<g id="edge53" class="edge"><title>DuckPhpCommand&#45;&gt;Console</title>
<path fill="none" stroke="black" stroke-dasharray="5,2" d="M660.345,-1534C699.532,-1534 752.17,-1534 792,-1534"/>
<polygon fill="black" stroke="black" points="792.093,-1537.5 802.093,-1534 792.093,-1530.5 792.093,-1537.5"/>
</g>
<!-- Installer -->
<g id="node36" class="node"><title>Installer</title>
<polygon fill="none" stroke="black" points="877.694,-1498 823.694,-1498 823.694,-1494 819.694,-1494 819.694,-1490 823.694,-1490 823.694,-1470 819.694,-1470 819.694,-1466 823.694,-1466 823.694,-1462 877.694,-1462 877.694,-1498"/>
<polyline fill="none" stroke="black" points="823.694,-1494 827.694,-1494 827.694,-1490 823.694,-1490 "/>
<polyline fill="none" stroke="black" points="823.694,-1470 827.694,-1470 827.694,-1466 823.694,-1466 "/>
<text text-anchor="middle" x="850.694" y="-1476.9" font-family="Times,serif" font-size="12.00">Installer</text>
</g>
<!-- DuckPhpCommand&#45;&gt;Installer -->
<g id="edge54" class="edge"><title>DuckPhpCommand&#45;&gt;Installer</title>
<path fill="none" stroke="black" d="M660.345,-1521.88C707.162,-1511.53 773.18,-1496.92 813.617,-1487.98"/>
<polygon fill="black" stroke="black" points="814.557,-1491.36 823.565,-1485.78 813.045,-1484.52 814.557,-1491.36"/>
</g>
<!-- EventManager -->
<g id="node35" class="node"><title>EventManager</title>
<polygon fill="none" stroke="black" points="647.555,-1498 561.555,-1498 561.555,-1494 557.555,-1494 557.555,-1490 561.555,-1490 561.555,-1470 557.555,-1470 557.555,-1466 561.555,-1466 561.555,-1462 647.555,-1462 647.555,-1498"/>
<polyline fill="none" stroke="black" points="561.555,-1494 565.555,-1494 565.555,-1490 561.555,-1490 "/>
<polyline fill="none" stroke="black" points="561.555,-1470 565.555,-1470 565.555,-1466 561.555,-1466 "/>
<text text-anchor="middle" x="604.555" y="-1476.9" font-family="Times,serif" font-size="12.00">EventManager</text>
</g>
<!-- EventManager&#45;&gt;ComponentBase -->
<g id="edge48" class="edge"><title>EventManager&#45;&gt;ComponentBase</title>
<path fill="none" stroke="black" stroke-dasharray="1,5" d="M647.656,-1479.93C672.66,-1477.77 703.517,-1471.15 724.694,-1453 757.722,-1424.7 724.724,-1386.45 760.694,-1362 829.795,-1315.03 877.595,-1318.11 948.694,-1362 1034.15,-1414.75 1066.31,-1541.34 1076.7,-1597.88"/>
<polygon fill="black" stroke="black" points="1073.29,-1598.66 1078.45,-1607.91 1080.18,-1597.45 1073.29,-1598.66"/>
</g>
<!-- Installer&#45;&gt;ComponentBase -->
<g id="edge49" class="edge"><title>Installer&#45;&gt;ComponentBase</title>
<path fill="none" stroke="black" stroke-dasharray="1,5" d="M878.057,-1483.95C898.306,-1487.76 926.474,-1494.81 948.694,-1507 993.071,-1531.35 1034.85,-1573.27 1059.18,-1600.3"/>
<polygon fill="black" stroke="black" points="1056.61,-1602.68 1065.86,-1607.84 1061.85,-1598.03 1056.61,-1602.68"/>
</g>
<!-- Pager -->
<g id="node37" class="node"><title>Pager</title>
<polygon fill="none" stroke="black" points="631.555,-1444 577.555,-1444 577.555,-1440 573.555,-1440 573.555,-1436 577.555,-1436 577.555,-1416 573.555,-1416 573.555,-1412 577.555,-1412 577.555,-1408 631.555,-1408 631.555,-1444"/>
<polyline fill="none" stroke="black" points="577.555,-1440 581.555,-1440 581.555,-1436 577.555,-1436 "/>
<polyline fill="none" stroke="black" points="577.555,-1416 581.555,-1416 581.555,-1412 577.555,-1412 "/>
<text text-anchor="middle" x="604.555" y="-1422.9" font-family="Times,serif" font-size="12.00">Pager</text>
</g>
<!-- Pager&#45;&gt;ComponentBase -->
<g id="edge50" class="edge"><title>Pager&#45;&gt;ComponentBase</title>
<path fill="none" stroke="black" stroke-dasharray="1,5" d="M631.569,-1426.4C657.757,-1425.48 697.996,-1420.29 724.694,-1399 753.605,-1375.95 729.4,-1343.69 760.694,-1324 831.414,-1279.5 878.753,-1278.29 948.694,-1324 1044.3,-1386.49 1071.27,-1535.02 1078.51,-1597.51"/>
<polygon fill="black" stroke="black" points="1075.07,-1598.23 1079.61,-1607.8 1082.03,-1597.48 1075.07,-1598.23"/>
</g>
<!-- PagerInterface -->
<g id="node38" class="node"><title>PagerInterface</title>
<polygon fill="none" stroke="black" points="887.194,-1444 808.194,-1444 808.194,-1408 893.194,-1408 893.194,-1438 887.194,-1444"/>
<polyline fill="none" stroke="black" points="887.194,-1444 887.194,-1438 "/>
<polyline fill="none" stroke="black" points="893.194,-1438 887.194,-1438 "/>
<text text-anchor="middle" x="850.694" y="-1422.9" font-family="Times,serif" font-size="12.00">PagerInterface</text>
</g>
<!-- Pager&#45;&gt;PagerInterface -->
<g id="edge57" class="edge"><title>Pager&#45;&gt;PagerInterface</title>
<path fill="none" stroke="black" d="M631.683,-1426C671.156,-1426 746.786,-1426 797.746,-1426"/>
<polygon fill="black" stroke="black" points="797.908,-1429.5 807.907,-1426 797.907,-1422.5 797.908,-1429.5"/>
</g>
<!-- RouteHookPathInfoCompat -->
<g id="node39" class="node"><title>RouteHookPathInfoCompat</title>
<polygon fill="none" stroke="black" points="679.555,-1390 529.555,-1390 529.555,-1386 525.555,-1386 525.555,-1382 529.555,-1382 529.555,-1362 525.555,-1362 525.555,-1358 529.555,-1358 529.555,-1354 679.555,-1354 679.555,-1390"/>
<polyline fill="none" stroke="black" points="529.555,-1386 533.555,-1386 533.555,-1382 529.555,-1382 "/>
<polyline fill="none" stroke="black" points="529.555,-1362 533.555,-1362 533.555,-1358 529.555,-1358 "/>
<text text-anchor="middle" x="604.555" y="-1368.9" font-family="Times,serif" font-size="12.00">RouteHookPathInfoCompat</text>
</g>
<!-- RouteHookPathInfoCompat&#45;&gt;ComponentBase -->
<g id="edge51" class="edge"><title>RouteHookPathInfoCompat&#45;&gt;ComponentBase</title>
<path fill="none" stroke="black" stroke-dasharray="1,5" d="M679.647,-1364.68C695.526,-1360.61 711.481,-1354.41 724.694,-1345 749.403,-1327.39 734.181,-1301.75 760.694,-1287 833.713,-1246.38 879.7,-1239.87 948.694,-1287 1054.45,-1359.24 1075.7,-1529.64 1079.97,-1597.44"/>
<polygon fill="black" stroke="black" points="1076.49,-1597.98 1080.53,-1607.78 1083.48,-1597.6 1076.49,-1597.98"/>
</g>
<!-- RouteHookRouteMap -->
<g id="node40" class="node"><title>RouteHookRouteMap</title>
<polygon fill="none" stroke="black" points="665.555,-1336 543.555,-1336 543.555,-1332 539.555,-1332 539.555,-1328 543.555,-1328 543.555,-1308 539.555,-1308 539.555,-1304 543.555,-1304 543.555,-1300 665.555,-1300 665.555,-1336"/>
<polyline fill="none" stroke="black" points="543.555,-1332 547.555,-1332 547.555,-1328 543.555,-1328 "/>
<polyline fill="none" stroke="black" points="543.555,-1308 547.555,-1308 547.555,-1304 543.555,-1304 "/>
<text text-anchor="middle" x="604.555" y="-1314.9" font-family="Times,serif" font-size="12.00">RouteHookRouteMap</text>
</g>
<!-- RouteHookRouteMap&#45;&gt;ComponentBase -->
<g id="edge52" class="edge"><title>RouteHookRouteMap&#45;&gt;ComponentBase</title>
<path fill="none" stroke="black" stroke-dasharray="1,5" d="M665.806,-1311.74C685.547,-1307.8 706.949,-1301.41 724.694,-1291 745.325,-1278.9 738.846,-1260.73 760.694,-1251 837.022,-1217.01 880.485,-1202.74 948.694,-1251 1064.49,-1332.93 1079.66,-1524.89 1081.14,-1597.5"/>
<polygon fill="black" stroke="black" points="1077.64,-1597.75 1081.27,-1607.7 1084.64,-1597.66 1077.64,-1597.75"/>
</g>
<!-- DuckPhp -->
<g id="node41" class="node"><title>DuckPhp</title>
<polygon fill="lightgrey" stroke="black" points="284.443,-1444 230.492,-1426 284.443,-1408 338.393,-1426 284.443,-1444"/>
<polyline fill="none" stroke="black" points="241.875,-1429.8 241.875,-1422.2 "/>
<polyline fill="none" stroke="black" points="273.059,-1411.8 295.826,-1411.8 "/>
<polyline fill="none" stroke="black" points="327.01,-1422.2 327.01,-1429.8 "/>
<polyline fill="none" stroke="black" points="295.826,-1440.2 273.059,-1440.2 "/>
<text text-anchor="middle" x="284.443" y="-1422.9" font-family="Times,serif" font-size="12.00">DuckPhp</text>
</g>
<!-- DuckPhp&#45;&gt;App -->
<g id="edge58" class="edge"><title>DuckPhp&#45;&gt;App</title>
<path fill="none" stroke="black" d="M290.183,-1442.18C309.612,-1508.51 383.246,-1759.87 406.941,-1840.76"/>
<polygon fill="black" stroke="black" points="403.651,-1841.98 409.822,-1850.59 410.369,-1840.01 403.651,-1841.98"/>
</g>
<!-- DuckPhp&#45;&gt;Cache -->
<g id="edge64" class="edge"><title>DuckPhp&#45;&gt;Cache</title>
<path fill="none" stroke="black" d="M299.609,-1413.01C330.533,-1385.46 407.493,-1321.24 484.417,-1291 511.238,-1280.46 543.155,-1273.5 567.2,-1269.29"/>
<polygon fill="black" stroke="black" points="568.029,-1272.7 577.315,-1267.6 566.875,-1265.8 568.029,-1272.7"/>
</g>
<!-- DuckPhp&#45;&gt;Console -->
<g id="edge65" class="edge"><title>DuckPhp&#45;&gt;Console</title>
<path fill="none" stroke="black" d="M298.746,-1439.76C328.563,-1469.44 404.426,-1538.59 484.417,-1561 601.241,-1593.74 746.824,-1562.68 813.409,-1544.73"/>
<polygon fill="black" stroke="black" points="814.691,-1548.01 823.4,-1541.98 812.83,-1541.26 814.691,-1548.01"/>
</g>
<!-- DuckPhp&#45;&gt;DbManager -->
<g id="edge61" class="edge"><title>DuckPhp&#45;&gt;DbManager</title>
<path fill="none" stroke="black" d="M293.69,-1411.03C307.763,-1386.45 338.4,-1337 374.253,-1304 416.417,-1265.19 431.298,-1258.5 484.417,-1237 507.687,-1227.58 534.909,-1221.1 557.454,-1216.85"/>
<polygon fill="black" stroke="black" points="558.229,-1220.27 567.452,-1215.06 556.991,-1213.38 558.229,-1220.27"/>
</g>
<!-- DuckPhp&#45;&gt;DuckPhpCommand -->
<g id="edge66" class="edge"><title>DuckPhp&#45;&gt;DuckPhpCommand</title>
<path fill="none" stroke="black" d="M307.68,-1436.46C343.996,-1453.22 418.597,-1486.3 484.417,-1507 501.751,-1512.45 520.829,-1517.28 538.54,-1521.29"/>
<polygon fill="black" stroke="black" points="538.268,-1524.81 548.787,-1523.55 539.778,-1517.98 538.268,-1524.81"/>
</g>
<!-- DuckPhp&#45;&gt;EventManager -->
<g id="edge62" class="edge"><title>DuckPhp&#45;&gt;EventManager</title>
<path fill="none" stroke="black" d="M320.702,-1431.99C376.671,-1441.49 486.163,-1460.07 551.282,-1471.13"/>
<polygon fill="black" stroke="black" points="550.892,-1474.61 561.337,-1472.83 552.064,-1467.71 550.892,-1474.61"/>
</g>
<!-- DuckPhp&#45;&gt;Pager -->
<g id="edge60" class="edge"><title>DuckPhp&#45;&gt;Pager</title>
<path fill="none" stroke="black" d="M338.688,-1426C403.491,-1426 511.182,-1426 567.195,-1426"/>
<polygon fill="black" stroke="black" points="567.356,-1429.5 577.356,-1426 567.356,-1422.5 567.356,-1429.5"/>
</g>
<!-- DuckPhp&#45;&gt;RouteHookPathInfoCompat -->
<g id="edge63" class="edge"><title>DuckPhp&#45;&gt;RouteHookPathInfoCompat</title>
<path fill="none" stroke="black" d="M320.702,-1420.01C368.226,-1411.95 454.339,-1397.33 519.11,-1386.33"/>
<polygon fill="black" stroke="black" points="520.039,-1389.73 529.312,-1384.6 518.868,-1382.83 520.039,-1389.73"/>
</g>
<!-- DuckPhp&#45;&gt;RouteHookRouteMap -->
<g id="edge59" class="edge"><title>DuckPhp&#45;&gt;RouteHookRouteMap</title>
<path fill="none" stroke="black" d="M307.68,-1415.54C343.996,-1398.78 418.597,-1365.7 484.417,-1345 500.082,-1340.07 517.17,-1335.66 533.387,-1331.89"/>
<polygon fill="black" stroke="black" points="534.372,-1335.26 543.351,-1329.63 532.825,-1328.43 534.372,-1335.26"/>
</g>
<!-- ThrowOnTrait -->
<g id="node42" class="node"><title>ThrowOnTrait</title>
<polygon fill="lightgrey" stroke="black" points="101.316,-2147 26.5775,-2129 101.316,-2111 176.055,-2129 101.316,-2147"/>
<polyline fill="none" stroke="black" points="38.2439,-2131.81 38.2439,-2126.19 "/>
<polyline fill="none" stroke="black" points="89.6496,-2113.81 112.982,-2113.81 "/>
<polyline fill="none" stroke="black" points="164.388,-2126.19 164.388,-2131.81 "/>
<polyline fill="none" stroke="black" points="112.982,-2144.19 89.6496,-2144.19 "/>
<text text-anchor="middle" x="101.316" y="-2125.9" font-family="Times,serif" font-size="12.00">ThrowOnTrait</text>
</g>
<!-- CallableView -->
<g id="node43" class="node"><title>CallableView</title>
<polygon fill="none" stroke="black" points="645.555,-619 563.555,-619 563.555,-615 559.555,-615 559.555,-611 563.555,-611 563.555,-591 559.555,-591 559.555,-587 563.555,-587 563.555,-583 645.555,-583 645.555,-619"/>
<polyline fill="none" stroke="black" points="563.555,-615 567.555,-615 567.555,-611 563.555,-611 "/>
<polyline fill="none" stroke="black" points="563.555,-591 567.555,-591 567.555,-587 563.555,-587 "/>
<text text-anchor="middle" x="604.555" y="-597.9" font-family="Times,serif" font-size="12.00">CallableView</text>
</g>
<!-- X_Core_View -->
<g id="node65" class="node"><title>X_Core_View</title>
<polygon fill="none" stroke="black" points="891.194,-667 792.194,-667 792.194,-643 891.194,-643 891.194,-637 909.194,-655 891.194,-673 891.194,-667"/>
<text text-anchor="middle" x="850.694" y="-651.9" font-family="Times,serif" font-size="12.00">DuckPhp\Core\View</text>
</g>
<!-- CallableView&#45;&gt;X_Core_View -->
<g id="edge83" class="edge"><title>CallableView&#45;&gt;X_Core_View</title>
<path fill="none" stroke="black" d="M645.597,-609.857C682.494,-618.018 738.001,-630.295 781.818,-639.987"/>
<polygon fill="black" stroke="black" points="781.311,-643.459 791.831,-642.201 782.823,-636.624 781.311,-643.459"/>
</g>
<!-- EmptyView -->
<g id="node44" class="node"><title>EmptyView</title>
<polygon fill="none" stroke="black" points="641.555,-565 567.555,-565 567.555,-561 563.555,-561 563.555,-557 567.555,-557 567.555,-537 563.555,-537 563.555,-533 567.555,-533 567.555,-529 641.555,-529 641.555,-565"/>
<polyline fill="none" stroke="black" points="567.555,-561 571.555,-561 571.555,-557 567.555,-557 "/>
<polyline fill="none" stroke="black" points="567.555,-537 571.555,-537 571.555,-533 567.555,-533 "/>
<text text-anchor="middle" x="604.555" y="-543.9" font-family="Times,serif" font-size="12.00">EmptyView</text>
</g>
<!-- EmptyView&#45;&gt;X_Core_View -->
<g id="edge84" class="edge"><title>EmptyView&#45;&gt;X_Core_View</title>
<path fill="none" stroke="black" d="M641.707,-548.238C666.898,-550.669 700.236,-557.166 724.694,-574 748.455,-590.354 737.535,-610.805 760.694,-628 767.238,-632.859 774.662,-636.851 782.363,-640.13"/>
<polygon fill="black" stroke="black" points="781.265,-643.458 791.855,-643.786 783.781,-636.925 781.265,-643.458"/>
</g>
<!-- ExceptionWrapper -->
<g id="node45" class="node"><title>ExceptionWrapper</title>
<polygon fill="none" stroke="black" points="657.555,-889 551.555,-889 551.555,-885 547.555,-885 547.555,-881 551.555,-881 551.555,-861 547.555,-861 547.555,-857 551.555,-857 551.555,-853 657.555,-853 657.555,-889"/>
<polyline fill="none" stroke="black" points="551.555,-885 555.555,-885 555.555,-881 551.555,-881 "/>
<polyline fill="none" stroke="black" points="551.555,-861 555.555,-861 555.555,-857 551.555,-857 "/>
<text text-anchor="middle" x="604.555" y="-867.9" font-family="Times,serif" font-size="12.00">ExceptionWrapper</text>
</g>
<!-- ExceptionWrapper&#45;&gt;ComponentBase -->
<g id="edge67" class="edge"><title>ExceptionWrapper&#45;&gt;ComponentBase</title>
<path fill="none" stroke="black" stroke-dasharray="1,5" d="M657.816,-873.558C680.188,-876.871 705.518,-883.804 724.694,-898 750.614,-917.188 734.6,-942.05 760.694,-961 829.742,-1011.14 888.239,-939.774 948.694,-1000 1035.33,-1086.3 1070.83,-1487.18 1079.07,-1597.71"/>
<polygon fill="black" stroke="black" points="1075.59,-1598.05 1079.81,-1607.77 1082.57,-1597.54 1075.59,-1598.05"/>
</g>
<!-- HookChain -->
<g id="node46" class="node"><title>HookChain</title>
<ellipse fill="none" stroke="black" cx="604.555" cy="-925" rx="44.1452" ry="18"/>
<text text-anchor="middle" x="604.555" y="-921.9" font-family="Times,serif" font-size="12.00">HookChain</text>
</g>
<!-- HttpServerPlugin -->
<g id="node47" class="node"><title>HttpServerPlugin</title>
<polygon fill="none" stroke="black" points="668.555,-835 540.555,-835 540.555,-831 536.555,-831 536.555,-827 540.555,-827 540.555,-807 536.555,-807 536.555,-803 540.555,-803 540.555,-799 668.555,-799 668.555,-835"/>
<polyline fill="none" stroke="black" points="540.555,-831 544.555,-831 544.555,-827 540.555,-827 "/>
<polyline fill="none" stroke="black" points="540.555,-807 544.555,-807 544.555,-803 540.555,-803 "/>
<text text-anchor="middle" x="604.555" y="-813.9" font-family="Times,serif" font-size="12.00">HttpServerPlugin(todo)</text>
</g>
<!-- HttpServerPlugin&#45;&gt;ComponentBase -->
<g id="edge68" class="edge"><title>HttpServerPlugin&#45;&gt;ComponentBase</title>
<path fill="none" stroke="black" stroke-dasharray="1,5" d="M668.763,-820.502C688.377,-824.261 708.953,-831.255 724.694,-844 754.368,-868.026 730.802,-898.246 760.694,-922 827.504,-975.09 888.599,-900.415 948.694,-961 1040.45,-1053.5 1072.47,-1483.24 1079.46,-1597.85"/>
<polygon fill="black" stroke="black" points="1075.97,-1598.16 1080.06,-1607.93 1082.96,-1597.74 1075.97,-1598.16"/>
</g>
<!-- JsonRpcClientBase -->
<g id="node48" class="node"><title>JsonRpcClientBase</title>
<polygon fill="none" stroke="black" points="659.055,-727 550.055,-727 550.055,-723 546.055,-723 546.055,-719 550.055,-719 550.055,-699 546.055,-699 546.055,-695 550.055,-695 550.055,-691 659.055,-691 659.055,-727"/>
<polyline fill="none" stroke="black" points="550.055,-723 554.055,-723 554.055,-719 550.055,-719 "/>
<polyline fill="none" stroke="black" points="550.055,-699 554.055,-699 554.055,-695 550.055,-695 "/>
<text text-anchor="middle" x="604.555" y="-705.9" font-family="Times,serif" font-size="12.00">JsonRpcClientBase</text>
</g>
<!-- JsonRpcClientBase&#45;&gt;ComponentBase -->
<g id="edge91" class="edge"><title>JsonRpcClientBase&#45;&gt;ComponentBase</title>
<path fill="none" stroke="black" stroke-dasharray="1,5" d="M659.067,-710.015C681.676,-713.035 706.846,-720.167 724.694,-736 760.344,-767.624 725.156,-805.25 760.694,-837 824.689,-894.172 889.678,-818.702 948.694,-881 1049.54,-987.46 1075.14,-1474.87 1080.04,-1597.79"/>
<polygon fill="black" stroke="black" points="1076.55,-1598.04 1080.43,-1607.9 1083.54,-1597.77 1076.55,-1598.04"/>
</g>
<!-- JsonRpcExt -->
<g id="node49" class="node"><title>JsonRpcExt</title>
<polygon fill="none" stroke="black" points="887.694,-727 813.694,-727 813.694,-723 809.694,-723 809.694,-719 813.694,-719 813.694,-699 809.694,-699 809.694,-695 813.694,-695 813.694,-691 887.694,-691 887.694,-727"/>
<polyline fill="none" stroke="black" points="813.694,-723 817.694,-723 817.694,-719 813.694,-719 "/>
<polyline fill="none" stroke="black" points="813.694,-699 817.694,-699 817.694,-695 813.694,-695 "/>
<text text-anchor="middle" x="850.694" y="-705.9" font-family="Times,serif" font-size="12.00">JsonRpcExt</text>
</g>
<!-- JsonRpcClientBase&#45;&gt;JsonRpcExt -->
<g id="edge90" class="edge"><title>JsonRpcClientBase&#45;&gt;JsonRpcExt</title>
<path fill="none" stroke="black" stroke-dasharray="5,2" d="M659.133,-703.301C702.352,-701.812 762.507,-701.905 803.597,-703.581"/>
<polygon fill="black" stroke="black" points="803.461,-707.079 813.611,-704.042 803.783,-700.086 803.461,-707.079"/>
</g>
<!-- JsonRpcExt&#45;&gt;ComponentBase -->
<g id="edge69" class="edge"><title>JsonRpcExt&#45;&gt;ComponentBase</title>
<path fill="none" stroke="black" stroke-dasharray="1,5" d="M888.125,-709.805C908.872,-712.271 933.651,-718.968 948.694,-736 1065.61,-868.379 1079.24,-1461.3 1080.82,-1597.88"/>
<polygon fill="black" stroke="black" points="1077.33,-1597.99 1080.93,-1607.95 1084.32,-1597.92 1077.33,-1597.99"/>
</g>
<!-- JsonRpcExt&#45;&gt;JsonRpcClientBase -->
<g id="edge89" class="edge"><title>JsonRpcExt&#45;&gt;JsonRpcClientBase</title>
<path fill="none" stroke="black" d="M813.611,-713.958C775.692,-715.919 715.281,-716.27 669.301,-715.012"/>
<polygon fill="black" stroke="black" points="669.236,-711.509 659.133,-714.699 669.02,-718.505 669.236,-711.509"/>
</g>
<!-- JsonView -->
<g id="node50" class="node"><title>JsonView</title>
<polygon fill="none" stroke="black" points="636.555,-673 572.555,-673 572.555,-669 568.555,-669 568.555,-665 572.555,-665 572.555,-645 568.555,-645 568.555,-641 572.555,-641 572.555,-637 636.555,-637 636.555,-673"/>
<polyline fill="none" stroke="black" points="572.555,-669 576.555,-669 576.555,-665 572.555,-665 "/>
<polyline fill="none" stroke="black" points="572.555,-645 576.555,-645 576.555,-641 572.555,-641 "/>
<text text-anchor="middle" x="604.555" y="-651.9" font-family="Times,serif" font-size="12.00">JsonView</text>
</g>
<!-- JsonView&#45;&gt;X_Core_View -->
<g id="edge92" class="edge"><title>JsonView&#45;&gt;X_Core_View</title>
<path fill="none" stroke="black" d="M636.973,-655C673.327,-655 734.257,-655 781.612,-655"/>
<polygon fill="black" stroke="black" points="781.802,-658.5 791.802,-655 781.802,-651.5 781.802,-658.5"/>
</g>
<!-- Misc -->
<g id="node51" class="node"><title>Misc</title>
<polygon fill="none" stroke="black" points="631.555,-403 577.555,-403 577.555,-399 573.555,-399 573.555,-395 577.555,-395 577.555,-375 573.555,-375 573.555,-371 577.555,-371 577.555,-367 631.555,-367 631.555,-403"/>
<polyline fill="none" stroke="black" points="577.555,-399 581.555,-399 581.555,-395 577.555,-395 "/>
<polyline fill="none" stroke="black" points="577.555,-375 581.555,-375 581.555,-371 577.555,-371 "/>
<text text-anchor="middle" x="604.555" y="-381.9" font-family="Times,serif" font-size="12.00">Misc</text>
</g>
<!-- Misc&#45;&gt;ComponentBase -->
<g id="edge70" class="edge"><title>Misc&#45;&gt;ComponentBase</title>
<path fill="none" stroke="black" stroke-dasharray="1,5" d="M631.907,-377.165C696.029,-359.894 861.325,-326.456 948.694,-411 1037.05,-496.499 1073.9,-1423.15 1080.08,-1597.73"/>
<polygon fill="black" stroke="black" points="1076.58,-1598.03 1080.43,-1607.9 1083.58,-1597.79 1076.58,-1598.03"/>
</g>
<!-- MyFacadesAutoLoader -->
<g id="node52" class="node"><title>MyFacadesAutoLoader</title>
<polygon fill="none" stroke="black" points="669.055,-511 540.055,-511 540.055,-507 536.055,-507 536.055,-503 540.055,-503 540.055,-483 536.055,-483 536.055,-479 540.055,-479 540.055,-475 669.055,-475 669.055,-511"/>
<polyline fill="none" stroke="black" points="540.055,-507 544.055,-507 544.055,-503 540.055,-503 "/>
<polyline fill="none" stroke="black" points="540.055,-483 544.055,-483 544.055,-479 540.055,-479 "/>
<text text-anchor="middle" x="604.555" y="-489.9" font-family="Times,serif" font-size="12.00">MyFacadesAutoLoader</text>
</g>
<!-- MyFacadesAutoLoader&#45;&gt;ComponentBase -->
<g id="edge72" class="edge"><title>MyFacadesAutoLoader&#45;&gt;ComponentBase</title>
<path fill="none" stroke="black" stroke-dasharray="1,5" d="M669.389,-479.34C697.279,-474.034 730.461,-468.611 760.694,-466 843.94,-458.81 886.353,-410.366 948.694,-466 1036.1,-543.998 1073.56,-1427.05 1080.01,-1597.59"/>
<polygon fill="black" stroke="black" points="1076.52,-1597.91 1080.39,-1607.78 1083.51,-1597.65 1076.52,-1597.91"/>
</g>
<!-- MyFacadesBase -->
<g id="node53" class="node"><title>MyFacadesBase</title>
<polygon fill="none" stroke="black" points="898.194,-619 803.194,-619 803.194,-615 799.194,-615 799.194,-611 803.194,-611 803.194,-591 799.194,-591 799.194,-587 803.194,-587 803.194,-583 898.194,-583 898.194,-619"/>
<polyline fill="none" stroke="black" points="803.194,-615 807.194,-615 807.194,-611 803.194,-611 "/>
<polyline fill="none" stroke="black" points="803.194,-591 807.194,-591 807.194,-587 803.194,-587 "/>
<text text-anchor="middle" x="850.694" y="-597.9" font-family="Times,serif" font-size="12.00">MyFacadesBase</text>
</g>
<!-- MyFacadesAutoLoader&#45;&gt;MyFacadesBase -->
<g id="edge86" class="edge"><title>MyFacadesAutoLoader&#45;&gt;MyFacadesBase</title>
<path fill="none" stroke="black" d="M669.188,-489.73C688.281,-493.196 708.447,-499.817 724.694,-511 748.455,-527.354 737.535,-547.805 760.694,-565 770.316,-572.144 781.839,-577.415 793.353,-581.518"/>
<polygon fill="black" stroke="black" points="792.387,-584.885 802.98,-584.705 794.587,-578.24 792.387,-584.885"/>
</g>
<!-- MyFacadesBase&#45;&gt;ComponentBase -->
<g id="edge71" class="edge"><title>MyFacadesBase&#45;&gt;ComponentBase</title>
<path fill="none" stroke="black" stroke-dasharray="1,5" d="M898.298,-603.214C916.575,-606.526 936.137,-613.554 948.694,-628 1079.17,-778.094 1082.25,-1449.99 1081.33,-1597.36"/>
<polygon fill="black" stroke="black" points="1077.82,-1597.77 1081.25,-1607.8 1084.82,-1597.82 1077.82,-1597.77"/>
</g>
<!-- MyFacadesBase&#45;&gt;MyFacadesAutoLoader -->
<g id="edge85" class="edge"><title>MyFacadesBase&#45;&gt;MyFacadesAutoLoader</title>
<path fill="none" stroke="black" stroke-dasharray="5,2" d="M802.98,-601.785C788.442,-598.22 773.01,-592.144 760.694,-583 737.535,-565.805 748.455,-545.354 724.694,-529 711.24,-519.739 695.098,-513.607 679.103,-509.314"/>
<polygon fill="black" stroke="black" points="679.736,-505.865 669.188,-506.867 678.058,-512.661 679.736,-505.865"/>
</g>
<!-- MyMiddlewareManager -->
<g id="node54" class="node"><title>MyMiddlewareManager</title>
<polygon fill="none" stroke="black" points="670.555,-457 538.555,-457 538.555,-453 534.555,-453 534.555,-449 538.555,-449 538.555,-429 534.555,-429 534.555,-425 538.555,-425 538.555,-421 670.555,-421 670.555,-457"/>
<polyline fill="none" stroke="black" points="538.555,-453 542.555,-453 542.555,-449 538.555,-449 "/>
<polyline fill="none" stroke="black" points="538.555,-429 542.555,-429 542.555,-425 538.555,-425 "/>
<text text-anchor="middle" x="604.555" y="-435.9" font-family="Times,serif" font-size="12.00">MyMiddlewareManager</text>
</g>
<!-- MyMiddlewareManager&#45;&gt;ComponentBase -->
<g id="edge73" class="edge"><title>MyMiddlewareManager&#45;&gt;ComponentBase</title>
<path fill="none" stroke="black" stroke-dasharray="1,5" d="M670.706,-428.486C758.724,-415.903 909.185,-400.641 948.694,-436 1038.35,-516.242 1074.08,-1424.75 1080.1,-1597.67"/>
<polygon fill="black" stroke="black" points="1076.6,-1597.89 1080.44,-1607.76 1083.6,-1597.65 1076.6,-1597.89"/>
</g>
<!-- RouteHookManager -->
<g id="node59" class="node"><title>RouteHookManager</title>
<polygon fill="none" stroke="black" points="907.694,-511 793.694,-511 793.694,-507 789.694,-507 789.694,-503 793.694,-503 793.694,-483 789.694,-483 789.694,-479 793.694,-479 793.694,-475 907.694,-475 907.694,-511"/>
<polyline fill="none" stroke="black" points="793.694,-507 797.694,-507 797.694,-503 793.694,-503 "/>
<polyline fill="none" stroke="black" points="793.694,-483 797.694,-483 797.694,-479 793.694,-479 "/>
<text text-anchor="middle" x="850.694" y="-489.9" font-family="Times,serif" font-size="12.00">RouteHookManager</text>
</g>
<!-- MyMiddlewareManager&#45;&gt;RouteHookManager -->
<g id="edge87" class="edge"><title>MyMiddlewareManager&#45;&gt;RouteHookManager</title>
<path fill="none" stroke="black" d="M670.659,-453.4C705.5,-461.106 748.322,-470.578 783.35,-478.326"/>
<polygon fill="black" stroke="black" points="782.96,-481.824 793.48,-480.566 784.472,-474.989 782.96,-481.824"/>
</g>
<!-- X_Core_Route -->
<g id="node64" class="node"><title>X_Core_Route</title>
<polygon fill="none" stroke="black" points="892.194,-559 791.194,-559 791.194,-535 892.194,-535 892.194,-529 910.194,-547 892.194,-565 892.194,-559"/>
<text text-anchor="middle" x="850.694" y="-543.9" font-family="Times,serif" font-size="12.00">DuckPhp\Core\Route</text>
</g>
<!-- MyMiddlewareManager&#45;&gt;X_Core_Route -->
<g id="edge88" class="edge"><title>MyMiddlewareManager&#45;&gt;X_Core_Route</title>
<path fill="none" stroke="black" d="M670.73,-444.618C689.363,-448.555 708.884,-455.118 724.694,-466 748.455,-482.354 737.535,-502.805 760.694,-520 766.984,-524.67 774.086,-528.539 781.467,-531.744"/>
<polygon fill="black" stroke="black" points="780.337,-535.061 790.925,-535.459 782.896,-528.545 780.337,-535.061"/>
</g>
<!-- RedisManager -->
<g id="node55" class="node"><title>RedisManager</title>
<polygon fill="none" stroke="black" points="647.555,-295 561.555,-295 561.555,-291 557.555,-291 557.555,-287 561.555,-287 561.555,-267 557.555,-267 557.555,-263 561.555,-263 561.555,-259 647.555,-259 647.555,-295"/>
<polyline fill="none" stroke="black" points="561.555,-291 565.555,-291 565.555,-287 561.555,-287 "/>
<polyline fill="none" stroke="black" points="561.555,-267 565.555,-267 565.555,-263 561.555,-263 "/>
<text text-anchor="middle" x="604.555" y="-273.9" font-family="Times,serif" font-size="12.00">RedisManager</text>
</g>
<!-- RedisManager&#45;&gt;ComponentBase -->
<g id="edge74" class="edge"><title>RedisManager&#45;&gt;ComponentBase</title>
<path fill="none" stroke="black" stroke-dasharray="1,5" d="M647.688,-272.091C721.055,-266.149 871.774,-265.971 948.694,-352 1034.71,-448.205 1073.55,-1417.52 1080.04,-1597.37"/>
<polygon fill="black" stroke="black" points="1076.55,-1597.74 1080.41,-1607.61 1083.55,-1597.49 1076.55,-1597.74"/>
</g>
<!-- RedisCache -->
<g id="node56" class="node"><title>RedisCache</title>
<polygon fill="none" stroke="black" points="641.555,-241 567.555,-241 567.555,-237 563.555,-237 563.555,-233 567.555,-233 567.555,-213 563.555,-213 563.555,-209 567.555,-209 567.555,-205 641.555,-205 641.555,-241"/>
<polyline fill="none" stroke="black" points="567.555,-237 571.555,-237 571.555,-233 567.555,-233 "/>
<polyline fill="none" stroke="black" points="567.555,-213 571.555,-213 571.555,-209 567.555,-209 "/>
<text text-anchor="middle" x="604.555" y="-219.9" font-family="Times,serif" font-size="12.00">RedisCache</text>
</g>
<!-- RedisCache&#45;&gt;ComponentBase -->
<g id="edge75" class="edge"><title>RedisCache&#45;&gt;ComponentBase</title>
<path fill="none" stroke="black" stroke-dasharray="1,5" d="M641.685,-215.191C712.066,-202.33 867.723,-185.821 948.694,-270 1044.25,-369.345 1075.51,-1412.08 1080.34,-1597.79"/>
<polygon fill="black" stroke="black" points="1076.84,-1597.95 1080.6,-1607.85 1083.84,-1597.77 1076.84,-1597.95"/>
</g>
<!-- RouteHookApiServer -->
<g id="node57" class="node"><title>RouteHookApiServer</title>
<polygon fill="none" stroke="black" points="665.055,-187 544.055,-187 544.055,-183 540.055,-183 540.055,-179 544.055,-179 544.055,-159 540.055,-159 540.055,-155 544.055,-155 544.055,-151 665.055,-151 665.055,-187"/>
<polyline fill="none" stroke="black" points="544.055,-183 548.055,-183 548.055,-179 544.055,-179 "/>
<polyline fill="none" stroke="black" points="544.055,-159 548.055,-159 548.055,-155 544.055,-155 "/>
<text text-anchor="middle" x="604.555" y="-165.9" font-family="Times,serif" font-size="12.00">RouteHookApiServer</text>
</g>
<!-- RouteHookApiServer&#45;&gt;ComponentBase -->
<g id="edge76" class="edge"><title>RouteHookApiServer&#45;&gt;ComponentBase</title>
<path fill="none" stroke="black" stroke-dasharray="1,5" d="M665.328,-154.415C742.317,-139.573 874.967,-128.036 948.694,-202 1051.11,-304.744 1076.83,-1406.74 1080.53,-1597.84"/>
<polygon fill="black" stroke="black" points="1077.03,-1597.99 1080.72,-1607.92 1084.03,-1597.86 1077.03,-1597.99"/>
</g>
<!-- RouteHookDirectoryMode -->
<g id="node58" class="node"><title>RouteHookDirectoryMode</title>
<polygon fill="none" stroke="black" points="677.055,-1105 532.055,-1105 532.055,-1101 528.055,-1101 528.055,-1097 532.055,-1097 532.055,-1077 528.055,-1077 528.055,-1073 532.055,-1073 532.055,-1069 677.055,-1069 677.055,-1105"/>
<polyline fill="none" stroke="black" points="532.055,-1101 536.055,-1101 536.055,-1097 532.055,-1097 "/>
<polyline fill="none" stroke="black" points="532.055,-1077 536.055,-1077 536.055,-1073 532.055,-1073 "/>
<text text-anchor="middle" x="604.555" y="-1083.9" font-family="Times,serif" font-size="12.00">RouteHookDirectoryMode</text>
</g>
<!-- RouteHookDirectoryMode&#45;&gt;ComponentBase -->
<g id="edge77" class="edge"><title>RouteHookDirectoryMode&#45;&gt;ComponentBase</title>
<path fill="none" stroke="black" stroke-dasharray="1,5" d="M677.149,-1078.91C753.991,-1074.4 874.927,-1080.03 948.694,-1147 1017.36,-1209.34 1064.03,-1504.79 1077.22,-1597.86"/>
<polygon fill="black" stroke="black" points="1073.78,-1598.51 1078.63,-1607.93 1080.71,-1597.55 1073.78,-1598.51"/>
</g>
<!-- RouteHookManager&#45;&gt;ComponentBase -->
<g id="edge78" class="edge"><title>RouteHookManager&#45;&gt;ComponentBase</title>
<path fill="none" stroke="black" stroke-dasharray="1,5" d="M907.728,-497.146C923.084,-501.027 938.335,-507.928 948.694,-520 1021.25,-604.551 1070.42,-1433.16 1079.51,-1597.69"/>
<polygon fill="black" stroke="black" points="1076.03,-1598.16 1080.07,-1607.96 1083.02,-1597.78 1076.03,-1598.16"/>
</g>
<!-- RouteHookRewrite -->
<g id="node60" class="node"><title>RouteHookRewrite</title>
<polygon fill="none" stroke="black" points="659.555,-1051 549.555,-1051 549.555,-1047 545.555,-1047 545.555,-1043 549.555,-1043 549.555,-1023 545.555,-1023 545.555,-1019 549.555,-1019 549.555,-1015 659.555,-1015 659.555,-1051"/>
<polyline fill="none" stroke="black" points="549.555,-1047 553.555,-1047 553.555,-1043 549.555,-1043 "/>
<polyline fill="none" stroke="black" points="549.555,-1023 553.555,-1023 553.555,-1019 549.555,-1019 "/>
<text text-anchor="middle" x="604.555" y="-1029.9" font-family="Times,serif" font-size="12.00">RouteHookRewrite</text>
</g>
<!-- RouteHookRewrite&#45;&gt;ComponentBase -->
<g id="edge79" class="edge"><title>RouteHookRewrite&#45;&gt;ComponentBase</title>
<path fill="none" stroke="black" stroke-dasharray="1,5" d="M659.785,-1036.6C751.071,-1043.14 927.592,-1058.08 948.694,-1077 1028.2,-1148.28 1068.22,-1495.7 1078.39,-1597.76"/>
<polygon fill="black" stroke="black" points="1074.92,-1598.3 1079.38,-1607.91 1081.89,-1597.62 1074.92,-1598.3"/>
</g>
<!-- SimpleModel -->
<g id="node61" class="node"><title>SimpleModel</title>
<polygon fill="none" stroke="black" points="659.055,-349 550.055,-349 550.055,-345 546.055,-345 546.055,-341 550.055,-341 550.055,-321 546.055,-321 546.055,-317 550.055,-317 550.055,-313 659.055,-313 659.055,-349"/>
<polyline fill="none" stroke="black" points="550.055,-345 554.055,-345 554.055,-341 550.055,-341 "/>
<polyline fill="none" stroke="black" points="550.055,-321 554.055,-321 554.055,-317 550.055,-317 "/>
<text text-anchor="middle" x="604.555" y="-327.9" font-family="Times,serif" font-size="12.00">SimpleModel(todo)</text>
</g>
<!-- SimpleModel&#45;&gt;ComponentBase -->
<g id="edge80" class="edge"><title>SimpleModel&#45;&gt;ComponentBase</title>
<path fill="none" stroke="black" stroke-dasharray="1,5" d="M659.302,-329.765C682.804,-332.211 708.625,-339.512 724.694,-358 787.891,-430.706 698.306,-716.599 760.694,-790 816.473,-855.624 890.239,-773.747 948.694,-837 1054.38,-951.354 1076.45,-1470.64 1080.31,-1597.82"/>
<polygon fill="black" stroke="black" points="1076.81,-1598.03 1080.6,-1607.92 1083.81,-1597.82 1076.81,-1598.03"/>
</g>
<!-- SimpleModel&#45;&gt;Db_Db -->
<g id="edge93" class="edge"><title>SimpleModel&#45;&gt;Db_Db</title>
<path fill="none" stroke="black" stroke-dasharray="5,2" d="M659.142,-331.138C682.179,-328.396 707.667,-321.165 724.694,-304 777.555,-250.713 716.315,-199.533 760.694,-139 775.737,-118.482 801.708,-104.981 821.725,-97.0561"/>
<polygon fill="black" stroke="black" points="823.122,-100.271 831.279,-93.5096 820.686,-93.7084 823.122,-100.271"/>
</g>
<!-- StaticReplacer -->
<g id="node62" class="node"><title>StaticReplacer</title>
<polygon fill="none" stroke="black" points="647.055,-997 562.055,-997 562.055,-993 558.055,-993 558.055,-989 562.055,-989 562.055,-969 558.055,-969 558.055,-965 562.055,-965 562.055,-961 647.055,-961 647.055,-997"/>
<polyline fill="none" stroke="black" points="562.055,-993 566.055,-993 566.055,-989 562.055,-989 "/>
<polyline fill="none" stroke="black" points="562.055,-969 566.055,-969 566.055,-965 562.055,-965 "/>
<text text-anchor="middle" x="604.555" y="-975.9" font-family="Times,serif" font-size="12.00">StaticReplacer</text>
</g>
<!-- StaticReplacer&#45;&gt;ComponentBase -->
<g id="edge81" class="edge"><title>StaticReplacer&#45;&gt;ComponentBase</title>
<path fill="none" stroke="black" stroke-dasharray="1,5" d="M647.062,-985.375C736.001,-999.205 937.81,-1031.56 948.694,-1042 1030.74,-1120.73 1069.2,-1491.35 1078.66,-1597.52"/>
<polygon fill="black" stroke="black" points="1075.19,-1598.11 1079.55,-1607.77 1082.17,-1597.5 1075.19,-1598.11"/>
</g>
<!-- StrictCheck -->
<g id="node63" class="node"><title>StrictCheck</title>
<polygon fill="none" stroke="black" points="640.555,-781 568.555,-781 568.555,-777 564.555,-777 564.555,-773 568.555,-773 568.555,-753 564.555,-753 564.555,-749 568.555,-749 568.555,-745 640.555,-745 640.555,-781"/>
<polyline fill="none" stroke="black" points="568.555,-777 572.555,-777 572.555,-773 568.555,-773 "/>
<polyline fill="none" stroke="black" points="568.555,-753 572.555,-753 572.555,-749 568.555,-749 "/>
<text text-anchor="middle" x="604.555" y="-759.9" font-family="Times,serif" font-size="12.00">StrictCheck</text>
</g>
<!-- StrictCheck&#45;&gt;ComponentBase -->
<g id="edge82" class="edge"><title>StrictCheck&#45;&gt;ComponentBase</title>
<path fill="none" stroke="black" stroke-dasharray="1,5" d="M640.697,-762.571C666.706,-764.069 701.504,-770.128 724.694,-790 757.722,-818.301 727.552,-852.834 760.694,-881 825.86,-936.381 889.103,-860.661 948.694,-922 1045.02,-1021.15 1073.85,-1478.99 1079.77,-1597.78"/>
<polygon fill="black" stroke="black" points="1076.28,-1598.08 1080.25,-1607.9 1083.27,-1597.74 1076.28,-1598.08"/>
</g>
<!-- X_DbManager -->
<g id="node66" class="node"><title>X_DbManager</title>
<polygon fill="none" stroke="black" points="922.694,-775 760.694,-775 760.694,-751 922.694,-751 922.694,-745 940.694,-763 922.694,-781 922.694,-775"/>
<text text-anchor="middle" x="850.694" y="-759.9" font-family="Times,serif" font-size="12.00">DuckPhp\Component\DbManager</text>
</g>
<!-- StrictCheck&#45;&gt;X_DbManager -->
<g id="edge94" class="edge"><title>StrictCheck&#45;&gt;X_DbManager</title>
<path fill="none" stroke="black" d="M640.795,-763C669.463,-763 711.378,-763 750.152,-763"/>
<polygon fill="black" stroke="black" points="750.46,-766.5 760.46,-763 750.46,-759.5 750.46,-766.5"/>
</g>
</g>
</svg>
