<?xml version="1.0" encoding="UTF-8" standalone="no"?>
<!DOCTYPE svg PUBLIC "-//W3C//DTD SVG 1.1//EN"
 "http://www.w3.org/Graphics/SVG/1.1/DTD/svg11.dtd">
<!-- Generated by graphviz version 2.38.0 (20140413.2041)
 -->
<!-- Title: DuckPhp Pages: 1 -->
<svg width="1342pt" height="2186pt"
 viewBox="0.00 0.00 1342.37 2186.00" xmlns="http://www.w3.org/2000/svg" xmlns:xlink="http://www.w3.org/1999/xlink">
<g id="graph0" class="graph" transform="scale(1 1) rotate(0) translate(4 2182)">
<title>DuckPhp</title>
<polygon fill="white" stroke="none" points="-4,4 -4,-2182 1338.37,-2182 1338.37,4 -4,4"/>
<g id="clust1" class="cluster"><title>cluster_SingletonEx</title>
<polygon fill="none" stroke="black" points="8,-786 8,-913 194.632,-913 194.632,-786 8,-786"/>
<text text-anchor="middle" x="101.316" y="-899.4" font-family="Times,serif" font-size="12.00">[DuckPhp\SingletonEx]</text>
</g>
<g id="clust2" class="cluster"><title>cluster_Core</title>
<polygon fill="none" stroke="black" points="374.253,-1598 374.253,-2035 1326.37,-2035 1326.37,-1598 374.253,-1598"/>
<text text-anchor="middle" x="850.313" y="-2021.4" font-family="Times,serif" font-size="12.00">[DuckPhp\Core]</text>
</g>
<g id="clust3" class="cluster"><title>cluster_Helper</title>
<polygon fill="none" stroke="black" points="8.87057,-1690 8.87057,-1979 354.253,-1979 354.253,-1690 8.87057,-1690"/>
<text text-anchor="middle" x="181.562" y="-1965.4" font-family="Times,serif" font-size="12.00">[DuckPhp\Helper]</text>
</g>
<g id="clust4" class="cluster"><title>cluster_Db</title>
<polygon fill="none" stroke="black" points="814.836,-8 814.836,-135 1174.48,-135 1174.48,-8 814.836,-8"/>
<text text-anchor="middle" x="994.657" y="-121.4" font-family="Times,serif" font-size="12.00">[DuckPhp\Db]</text>
</g>
<g id="clust5" class="cluster"><title>cluster_HttpServer</title>
<polygon fill="none" stroke="black" points="783.495,-2043 783.495,-2170 1195.37,-2170 1195.37,-2043 783.495,-2043"/>
<text text-anchor="middle" x="989.434" y="-2156.4" font-family="Times,serif" font-size="12.00">[DuckPhp\HttpServer]</text>
</g>
<g id="clust6" class="cluster"><title>cluster_Component</title>
<polygon fill="none" stroke="black" points="521.555,-1184 521.555,-1581 907.446,-1581 907.446,-1184 521.555,-1184"/>
<text text-anchor="middle" x="714.501" y="-1567.4" font-family="Times,serif" font-size="12.00">[DuckPhp\Component]</text>
</g>
<g id="clust7" class="cluster"><title>cluster_DuckPhp</title>
<polygon fill="none" stroke="black" points="222.467,-1400 222.467,-1473 346.418,-1473 346.418,-1400 222.467,-1400"/>
<text text-anchor="middle" x="284.443" y="-1459.4" font-family="Times,serif" font-size="12.00">[DuckPhp]</text>
</g>
<g id="clust8" class="cluster"><title>cluster_ThrowOn</title>
<polygon fill="none" stroke="black" points="18.4469,-2046 18.4469,-2119 184.185,-2119 184.185,-2046 18.4469,-2046"/>
<text text-anchor="middle" x="101.316" y="-2105.4" font-family="Times,serif" font-size="12.00">[DuckPhp\ThrowOn]</text>
</g>
<g id="clust9" class="cluster"><title>cluster_Ext</title>
<polygon fill="none" stroke="black" points="524.055,-143 524.055,-1134 948.694,-1134 948.694,-143 524.055,-143"/>
<text text-anchor="middle" x="736.375" y="-1120.4" font-family="Times,serif" font-size="12.00">[DuckPhp\Ext]</text>
</g>
<!-- SingletonExTrait -->
<g id="node1" class="node"><title>SingletonExTrait</title>
<polygon fill="lightgrey" stroke="black" points="101.316,-884 16.1836,-866 101.316,-848 186.448,-866 101.316,-884"/>
<polyline fill="none" stroke="black" points="27.924,-868.482 27.924,-863.518 "/>
<polyline fill="none" stroke="black" points="89.5756,-850.482 113.056,-850.482 "/>
<polyline fill="none" stroke="black" points="174.708,-863.518 174.708,-868.482 "/>
<polyline fill="none" stroke="black" points="113.056,-881.518 89.5756,-881.518 "/>
<text text-anchor="middle" x="101.316" y="-862.9" font-family="Times,serif" font-size="12.00">SingletonExTrait</text>
</g>
<!-- SimpleReplacer -->
<g id="node2" class="node"><title>SimpleReplacer</title>
<ellipse fill="none" stroke="black" cx="101.316" cy="-812" rx="56.7683" ry="18"/>
<text text-anchor="middle" x="101.316" y="-808.9" font-family="Times,serif" font-size="12.00">SimpleReplacer</text>
</g>
<!-- AppPluginTrait -->
<g id="node3" class="node"><title>AppPluginTrait</title>
<polygon fill="lightgrey" stroke="black" points="604.555,-1892 525.111,-1874 604.555,-1856 684,-1874 604.555,-1892"/>
<polyline fill="none" stroke="black" points="536.814,-1876.65 536.814,-1871.35 "/>
<polyline fill="none" stroke="black" points="592.852,-1858.65 616.259,-1858.65 "/>
<polyline fill="none" stroke="black" points="672.297,-1871.35 672.297,-1876.65 "/>
<polyline fill="none" stroke="black" points="616.259,-1889.35 592.852,-1889.35 "/>
<text text-anchor="middle" x="604.555" y="-1870.9" font-family="Times,serif" font-size="12.00">AppPluginTrait</text>
</g>
<!-- View -->
<g id="node8" class="node"><title>View</title>
<polygon fill="none" stroke="black" points="877.694,-1986 823.694,-1986 823.694,-1982 819.694,-1982 819.694,-1978 823.694,-1978 823.694,-1958 819.694,-1958 819.694,-1954 823.694,-1954 823.694,-1950 877.694,-1950 877.694,-1986"/>
<polyline fill="none" stroke="black" points="823.694,-1982 827.694,-1982 827.694,-1978 823.694,-1978 "/>
<polyline fill="none" stroke="black" points="823.694,-1958 827.694,-1958 827.694,-1954 823.694,-1954 "/>
<text text-anchor="middle" x="850.694" y="-1964.9" font-family="Times,serif" font-size="12.00">View</text>
</g>
<!-- AppPluginTrait&#45;&gt;View -->
<g id="edge20" class="edge"><title>AppPluginTrait&#45;&gt;View</title>
<path fill="none" stroke="black" d="M632.461,-1885.82C673.421,-1903.78 748.022,-1936.36 760.694,-1941 777.896,-1947.3 797.331,-1953.32 813.641,-1958.07"/>
<polygon fill="black" stroke="black" points="812.767,-1961.46 823.345,-1960.85 814.698,-1954.73 812.767,-1961.46"/>
</g>
<!-- Configer -->
<g id="node9" class="node"><title>Configer</title>
<polygon fill="none" stroke="black" points="880.194,-1932 821.194,-1932 821.194,-1928 817.194,-1928 817.194,-1924 821.194,-1924 821.194,-1904 817.194,-1904 817.194,-1900 821.194,-1900 821.194,-1896 880.194,-1896 880.194,-1932"/>
<polyline fill="none" stroke="black" points="821.194,-1928 825.194,-1928 825.194,-1924 821.194,-1924 "/>
<polyline fill="none" stroke="black" points="821.194,-1904 825.194,-1904 825.194,-1900 821.194,-1900 "/>
<text text-anchor="middle" x="850.694" y="-1910.9" font-family="Times,serif" font-size="12.00">Configer</text>
</g>
<!-- AppPluginTrait&#45;&gt;Configer -->
<g id="edge19" class="edge"><title>AppPluginTrait&#45;&gt;Configer</title>
<path fill="none" stroke="black" d="M651.19,-1881.48C697.315,-1889.03 767.803,-1900.58 811.195,-1907.69"/>
<polygon fill="black" stroke="black" points="810.647,-1911.15 821.082,-1909.31 811.779,-1904.24 810.647,-1911.15"/>
</g>
<!-- Route -->
<g id="node11" class="node"><title>Route</title>
<polygon fill="lightgrey" stroke="black" points="850.694,-1878 811.342,-1860 850.694,-1842 890.047,-1860 850.694,-1878"/>
<polyline fill="none" stroke="black" points="822.255,-1864.99 822.255,-1855.01 "/>
<polyline fill="none" stroke="black" points="839.782,-1846.99 861.607,-1846.99 "/>
<polyline fill="none" stroke="black" points="879.134,-1855.01 879.134,-1864.99 "/>
<polyline fill="none" stroke="black" points="861.607,-1873.01 839.782,-1873.01 "/>
<text text-anchor="middle" x="850.694" y="-1856.9" font-family="Times,serif" font-size="12.00">Route</text>
</g>
<!-- AppPluginTrait&#45;&gt;Route -->
<g id="edge21" class="edge"><title>AppPluginTrait&#45;&gt;Route</title>
<path fill="none" stroke="black" d="M668.427,-1870.39C711.173,-1867.94 766.697,-1864.76 804.971,-1862.56"/>
<polygon fill="black" stroke="black" points="805.5,-1866.04 815.283,-1861.97 805.099,-1859.05 805.5,-1866.04"/>
</g>
<!-- App -->
<g id="node4" class="node"><title>App</title>
<polygon fill="lightgrey" stroke="black" points="415.335,-1818 382.171,-1800 415.335,-1782 448.499,-1800 415.335,-1818"/>
<polyline fill="none" stroke="black" points="392.718,-1805.72 392.718,-1794.28 "/>
<polyline fill="none" stroke="black" points="404.788,-1787.72 425.882,-1787.72 "/>
<polyline fill="none" stroke="black" points="437.952,-1794.28 437.952,-1805.72 "/>
<polyline fill="none" stroke="black" points="425.882,-1812.28 404.788,-1812.28 "/>
<text text-anchor="middle" x="415.335" y="-1796.9" font-family="Times,serif" font-size="12.00">App</text>
</g>
<!-- KernelTrait -->
<g id="node5" class="node"><title>KernelTrait</title>
<polygon fill="none" stroke="black" points="604.555,-1818 542.934,-1800 604.555,-1782 666.177,-1800 604.555,-1818"/>
<text text-anchor="middle" x="604.555" y="-1796.9" font-family="Times,serif" font-size="12.00">KernelTrait</text>
</g>
<!-- App&#45;&gt;KernelTrait -->
<g id="edge8" class="edge"><title>App&#45;&gt;KernelTrait</title>
<path fill="none" stroke="black" d="M448.519,-1800C471.619,-1800 503.654,-1800 532.611,-1800"/>
<polygon fill="black" stroke="black" points="532.705,-1803.5 542.705,-1800 532.705,-1796.5 532.705,-1803.5"/>
</g>
<!-- AutoLoader -->
<g id="node6" class="node"><title>AutoLoader</title>
<polygon fill="lightgrey" stroke="black" points="850.694,-1716 786.35,-1698 850.694,-1680 915.039,-1698 850.694,-1716"/>
<polyline fill="none" stroke="black" points="797.906,-1701.23 797.906,-1694.77 "/>
<polyline fill="none" stroke="black" points="839.138,-1683.23 862.251,-1683.23 "/>
<polyline fill="none" stroke="black" points="903.483,-1694.77 903.483,-1701.23 "/>
<polyline fill="none" stroke="black" points="862.251,-1712.77 839.138,-1712.77 "/>
<text text-anchor="middle" x="850.694" y="-1694.9" font-family="Times,serif" font-size="12.00">AutoLoader</text>
</g>
<!-- App&#45;&gt;AutoLoader -->
<g id="edge11" class="edge"><title>App&#45;&gt;AutoLoader</title>
<path fill="none" stroke="black" d="M427.574,-1788.08C440.116,-1775.64 461.655,-1756.77 484.417,-1748 584.415,-1709.48 618.892,-1745 724.694,-1728 752.844,-1723.48 784.027,-1716 808.206,-1709.64"/>
<polygon fill="black" stroke="black" points="809.352,-1712.96 818.11,-1706.99 807.546,-1706.19 809.352,-1712.96"/>
</g>
<!-- ExceptionManager -->
<g id="node7" class="node"><title>ExceptionManager</title>
<polygon fill="none" stroke="black" points="904.194,-1770 797.194,-1770 797.194,-1766 793.194,-1766 793.194,-1762 797.194,-1762 797.194,-1742 793.194,-1742 793.194,-1738 797.194,-1738 797.194,-1734 904.194,-1734 904.194,-1770"/>
<polyline fill="none" stroke="black" points="797.194,-1766 801.194,-1766 801.194,-1762 797.194,-1762 "/>
<polyline fill="none" stroke="black" points="797.194,-1742 801.194,-1742 801.194,-1738 797.194,-1738 "/>
<text text-anchor="middle" x="850.694" y="-1748.9" font-family="Times,serif" font-size="12.00">ExceptionManager</text>
</g>
<!-- App&#45;&gt;ExceptionManager -->
<g id="edge14" class="edge"><title>App&#45;&gt;ExceptionManager</title>
<path fill="none" stroke="black" d="M433.202,-1791.55C446.695,-1785.22 466.29,-1777.01 484.417,-1773 588.676,-1749.96 713.506,-1748.12 786.942,-1749.58"/>
<polygon fill="black" stroke="black" points="786.879,-1753.08 796.956,-1749.8 787.037,-1746.08 786.879,-1753.08"/>
</g>
<!-- App&#45;&gt;View -->
<g id="edge17" class="edge"><title>App&#45;&gt;View</title>
<path fill="none" stroke="black" d="M420.505,-1815.65C428.299,-1841.55 447.704,-1892.84 484.417,-1917 529.346,-1946.56 671.493,-1938.11 724.694,-1946 754.638,-1950.44 788.44,-1956.45 813.337,-1961.07"/>
<polygon fill="black" stroke="black" points="812.952,-1964.55 823.424,-1962.95 814.237,-1957.67 812.952,-1964.55"/>
</g>
<!-- App&#45;&gt;Configer -->
<g id="edge12" class="edge"><title>App&#45;&gt;Configer</title>
<path fill="none" stroke="black" d="M421.388,-1814.99C430.108,-1838.2 450.395,-1882.12 484.417,-1901 539.432,-1931.53 728.404,-1922.56 810.784,-1916.97"/>
<polygon fill="black" stroke="black" points="811.25,-1920.44 820.982,-1916.26 810.762,-1913.46 811.25,-1920.44"/>
</g>
<!-- Logger -->
<g id="node10" class="node"><title>Logger</title>
<polygon fill="none" stroke="black" points="631.555,-1704 577.555,-1704 577.555,-1700 573.555,-1700 573.555,-1696 577.555,-1696 577.555,-1676 573.555,-1676 573.555,-1672 577.555,-1672 577.555,-1668 631.555,-1668 631.555,-1704"/>
<polyline fill="none" stroke="black" points="577.555,-1700 581.555,-1700 581.555,-1696 577.555,-1696 "/>
<polyline fill="none" stroke="black" points="577.555,-1676 581.555,-1676 581.555,-1672 577.555,-1672 "/>
<text text-anchor="middle" x="604.555" y="-1682.9" font-family="Times,serif" font-size="12.00">Logger</text>
</g>
<!-- App&#45;&gt;Logger -->
<g id="edge13" class="edge"><title>App&#45;&gt;Logger</title>
<path fill="none" stroke="black" d="M423.907,-1786.44C434.854,-1768.11 456.846,-1735.68 484.417,-1718 509.5,-1701.92 542.507,-1693.86 567.417,-1689.86"/>
<polygon fill="black" stroke="black" points="568.16,-1693.29 577.55,-1688.38 567.15,-1686.37 568.16,-1693.29"/>
</g>
<!-- App&#45;&gt;Route -->
<g id="edge15" class="edge"><title>App&#45;&gt;Route</title>
<path fill="none" stroke="black" d="M433.231,-1808.32C446.74,-1814.58 466.342,-1822.76 484.417,-1827 588.747,-1851.46 618.001,-1837.01 724.694,-1847 752.731,-1849.62 784.269,-1852.91 808.653,-1855.52"/>
<polygon fill="black" stroke="black" points="808.316,-1859 818.633,-1856.59 809.065,-1852.04 808.316,-1859"/>
</g>
<!-- RuntimeState -->
<g id="node12" class="node"><title>RuntimeState</title>
<polygon fill="none" stroke="black" points="890.694,-1662 810.694,-1662 810.694,-1658 806.694,-1658 806.694,-1654 810.694,-1654 810.694,-1634 806.694,-1634 806.694,-1630 810.694,-1630 810.694,-1626 890.694,-1626 890.694,-1662"/>
<polyline fill="none" stroke="black" points="810.694,-1658 814.694,-1658 814.694,-1654 810.694,-1654 "/>
<polyline fill="none" stroke="black" points="810.694,-1634 814.694,-1634 814.694,-1630 810.694,-1630 "/>
<text text-anchor="middle" x="850.694" y="-1640.9" font-family="Times,serif" font-size="12.00">RuntimeState</text>
</g>
<!-- App&#45;&gt;RuntimeState -->
<g id="edge16" class="edge"><title>App&#45;&gt;RuntimeState</title>
<path fill="none" stroke="black" d="M424.28,-1786.77C435.348,-1769.72 457.151,-1740.76 484.417,-1728 532.869,-1705.32 676.81,-1736.86 724.694,-1713 746.699,-1702.04 740.107,-1684.44 760.694,-1671 772.662,-1663.19 786.994,-1657.55 800.625,-1653.52"/>
<polygon fill="black" stroke="black" points="801.655,-1656.86 810.382,-1650.85 799.813,-1650.11 801.655,-1656.86"/>
</g>
<!-- SystemWrapperTrait -->
<g id="node13" class="node"><title>SystemWrapperTrait</title>
<polygon fill="none" stroke="black" points="604.555,-1650 504.324,-1632 604.555,-1614 704.787,-1632 604.555,-1650"/>
<text text-anchor="middle" x="604.555" y="-1628.9" font-family="Times,serif" font-size="12.00">SystemWrapperTrait</text>
</g>
<!-- App&#45;&gt;SystemWrapperTrait -->
<g id="edge10" class="edge"><title>App&#45;&gt;SystemWrapperTrait</title>
<path fill="none" stroke="black" d="M419.314,-1784.06C425.697,-1754.56 443.569,-1691.49 484.417,-1659 495.678,-1650.04 509.337,-1643.94 523.334,-1639.8"/>
<polygon fill="black" stroke="black" points="524.273,-1643.17 533.052,-1637.24 522.49,-1636.4 524.273,-1643.17"/>
</g>
<!-- ExtendableStaticCallTrait -->
<g id="node14" class="node"><title>ExtendableStaticCallTrait</title>
<polygon fill="none" stroke="black" points="604.555,-2006 484.278,-1988 604.555,-1970 724.833,-1988 604.555,-2006"/>
<text text-anchor="middle" x="604.555" y="-1984.9" font-family="Times,serif" font-size="12.00">ExtendableStaticCallTrait</text>
</g>
<!-- App&#45;&gt;ExtendableStaticCallTrait -->
<g id="edge9" class="edge"><title>App&#45;&gt;ExtendableStaticCallTrait</title>
<path fill="none" stroke="black" d="M418.736,-1816.44C424.276,-1848.29 440.973,-1918.6 484.417,-1956 495.933,-1965.92 510.218,-1972.79 524.853,-1977.55"/>
<polygon fill="black" stroke="black" points="523.913,-1980.93 534.494,-1980.39 525.887,-1974.21 523.913,-1980.93"/>
</g>
<!-- ComponentBase -->
<g id="node16" class="node"><title>ComponentBase</title>
<polygon fill="none" stroke="black" points="1129.53,-1642 1038.53,-1642 1034.53,-1638 1034.53,-1606 1125.53,-1606 1129.53,-1610 1129.53,-1642"/>
<polyline fill="none" stroke="black" points="1125.53,-1638 1034.53,-1638 "/>
<polyline fill="none" stroke="black" points="1125.53,-1638 1125.53,-1606 "/>
<polyline fill="none" stroke="black" points="1125.53,-1638 1129.53,-1642 "/>
<text text-anchor="middle" x="1082.03" y="-1620.9" font-family="Times,serif" font-size="12.00">ComponentBase</text>
</g>
<!-- App&#45;&gt;ComponentBase -->
<g id="edge18" class="edge"><title>App&#45;&gt;ComponentBase</title>
<path fill="none" stroke="black" stroke-dasharray="1,5" d="M419.106,-1815.97C425.143,-1845.44 442.461,-1908.01 484.417,-1937 572.715,-1998 627.062,-1916.44 724.694,-1961 744.715,-1970.14 740.244,-1986.87 760.694,-1995 838.338,-2025.87 880.404,-2043.15 948.694,-1995 1063.52,-1914.04 1079.28,-1724.07 1081.02,-1652.21"/>
<polygon fill="black" stroke="black" points="1084.52,-1652.17 1081.19,-1642.11 1077.53,-1652.05 1084.52,-1652.17"/>
</g>
<!-- KernelTrait&#45;&gt;AutoLoader -->
<g id="edge1" class="edge"><title>KernelTrait&#45;&gt;AutoLoader</title>
<path fill="none" stroke="black" d="M632.144,-1789.79C656.665,-1780.05 693.83,-1764.46 724.694,-1748 741.447,-1739.06 743.448,-1732.94 760.694,-1725 774.756,-1718.52 790.768,-1713.11 805.297,-1708.88"/>
<polygon fill="black" stroke="black" points="806.395,-1712.2 815.077,-1706.13 804.504,-1705.46 806.395,-1712.2"/>
</g>
<!-- KernelTrait&#45;&gt;ExceptionManager -->
<g id="edge3" class="edge"><title>KernelTrait&#45;&gt;ExceptionManager</title>
<path fill="none" stroke="black" d="M641.842,-1792.87C680.081,-1785.35 741.029,-1773.36 787.061,-1764.31"/>
<polygon fill="black" stroke="black" points="787.801,-1767.74 796.938,-1762.37 786.45,-1760.87 787.801,-1767.74"/>
</g>
<!-- KernelTrait&#45;&gt;View -->
<g id="edge6" class="edge"><title>KernelTrait&#45;&gt;View</title>
<path fill="none" stroke="black" d="M643.56,-1806.65C669.455,-1812.98 702.871,-1824.96 724.694,-1847 756.169,-1878.79 727.955,-1910.51 760.694,-1941 775.017,-1954.34 795.729,-1961.1 813.569,-1964.52"/>
<polygon fill="black" stroke="black" points="813.237,-1968.01 823.671,-1966.17 814.368,-1961.1 813.237,-1968.01"/>
</g>
<!-- KernelTrait&#45;&gt;Configer -->
<g id="edge2" class="edge"><title>KernelTrait&#45;&gt;Configer</title>
<path fill="none" stroke="black" d="M637.872,-1808.32C663.027,-1815.8 698.028,-1828.49 724.694,-1847 744.341,-1860.64 740.51,-1874.17 760.694,-1887 775.928,-1896.68 794.83,-1903.06 811.291,-1907.17"/>
<polygon fill="black" stroke="black" points="810.64,-1910.61 821.17,-1909.44 812.211,-1903.79 810.64,-1910.61"/>
</g>
<!-- KernelTrait&#45;&gt;Route -->
<g id="edge4" class="edge"><title>KernelTrait&#45;&gt;Route</title>
<path fill="none" stroke="black" d="M638.481,-1808.09C684.559,-1819.42 767.898,-1839.9 814.939,-1851.46"/>
<polygon fill="black" stroke="black" points="814.133,-1854.86 824.679,-1853.85 815.803,-1848.07 814.133,-1854.86"/>
</g>
<!-- KernelTrait&#45;&gt;RuntimeState -->
<g id="edge5" class="edge"><title>KernelTrait&#45;&gt;RuntimeState</title>
<path fill="none" stroke="black" d="M630.164,-1789.32C655.957,-1777.23 696.566,-1755.58 724.694,-1728 746.089,-1707.02 736.86,-1689.16 760.694,-1671 772.27,-1662.18 786.726,-1656.23 800.6,-1652.21"/>
<polygon fill="black" stroke="black" points="801.756,-1655.53 810.549,-1649.62 799.99,-1648.75 801.756,-1655.53"/>
</g>
<!-- Functions -->
<g id="node17" class="node"><title>Functions</title>
<ellipse fill="none" stroke="black" cx="850.694" cy="-1806" rx="38.5652" ry="18"/>
<text text-anchor="middle" x="850.694" y="-1802.9" font-family="Times,serif" font-size="12.00">Functions</text>
</g>
<!-- KernelTrait&#45;&gt;Functions -->
<g id="edge7" class="edge"><title>KernelTrait&#45;&gt;Functions</title>
<path fill="none" stroke="black" d="M661.566,-1801.38C703.914,-1802.42 761.44,-1803.83 801.692,-1804.82"/>
<polygon fill="black" stroke="black" points="801.706,-1808.32 811.789,-1805.07 801.878,-1801.32 801.706,-1808.32"/>
</g>
<!-- ExceptionManager&#45;&gt;ComponentBase -->
<g id="edge22" class="edge"><title>ExceptionManager&#45;&gt;ComponentBase</title>
<path fill="none" stroke="black" stroke-dasharray="1,5" d="M904.395,-1741.23C919.156,-1737.18 934.922,-1731.85 948.694,-1725 988.855,-1705.02 1028.96,-1672.14 1054.32,-1649.35"/>
<polygon fill="black" stroke="black" points="1056.98,-1651.66 1062.01,-1642.33 1052.27,-1646.48 1056.98,-1651.66"/>
</g>
<!-- View&#45;&gt;ComponentBase -->
<g id="edge26" class="edge"><title>View&#45;&gt;ComponentBase</title>
<path fill="none" stroke="black" stroke-dasharray="1,5" d="M877.705,-1966.87C899.116,-1964.64 929.04,-1958.36 948.694,-1941 1037.67,-1862.42 1068.29,-1714.39 1077.51,-1652.42"/>
<polygon fill="black" stroke="black" points="1081.02,-1652.61 1078.95,-1642.22 1074.09,-1651.63 1081.02,-1652.61"/>
</g>
<!-- Configer&#45;&gt;ComponentBase -->
<g id="edge23" class="edge"><title>Configer&#45;&gt;ComponentBase</title>
<path fill="none" stroke="black" stroke-dasharray="1,5" d="M880.421,-1912.14C901.381,-1909.44 929.384,-1902.87 948.694,-1887 1025.14,-1824.16 1061.65,-1705.96 1074.9,-1652.06"/>
<polygon fill="black" stroke="black" points="1078.34,-1652.72 1077.25,-1642.18 1071.53,-1651.1 1078.34,-1652.72"/>
</g>
<!-- Logger&#45;&gt;ComponentBase -->
<g id="edge27" class="edge"><title>Logger&#45;&gt;ComponentBase</title>
<path fill="none" stroke="black" stroke-dasharray="1,5" d="M631.949,-1684.77C657.34,-1682.53 695.997,-1676.3 724.694,-1659 745.75,-1646.31 738.358,-1627.27 760.694,-1617 846.02,-1577.76 958.13,-1593.32 1024.58,-1608.47"/>
<polygon fill="black" stroke="black" points="1023.91,-1611.91 1034.45,-1610.79 1025.52,-1605.09 1023.91,-1611.91"/>
</g>
<!-- Route&#45;&gt;ComponentBase -->
<g id="edge24" class="edge"><title>Route&#45;&gt;ComponentBase</title>
<path fill="none" stroke="black" stroke-dasharray="1,5" d="M883.975,-1856.97C904.195,-1853.71 929.891,-1846.97 948.694,-1833 1012.8,-1785.38 1053.6,-1696.68 1071.13,-1651.69"/>
<polygon fill="black" stroke="black" points="1074.43,-1652.87 1074.7,-1642.27 1067.88,-1650.38 1074.43,-1652.87"/>
</g>
<!-- RuntimeState&#45;&gt;ComponentBase -->
<g id="edge25" class="edge"><title>RuntimeState&#45;&gt;ComponentBase</title>
<path fill="none" stroke="black" stroke-dasharray="1,5" d="M890.859,-1640.58C927.615,-1637.38 983.004,-1632.55 1024.54,-1628.93"/>
<polygon fill="black" stroke="black" points="1024.86,-1632.41 1034.51,-1628.06 1024.25,-1625.44 1024.86,-1632.41"/>
</g>
<!-- ComponentInterface -->
<g id="node15" class="node"><title>ComponentInterface</title>
<polygon fill="none" stroke="black" points="1312.37,-1642 1223.37,-1642 1223.37,-1606 1318.37,-1606 1318.37,-1636 1312.37,-1642"/>
<polyline fill="none" stroke="black" points="1312.37,-1642 1312.37,-1636 "/>
<polyline fill="none" stroke="black" points="1318.37,-1636 1312.37,-1636 "/>
<text text-anchor="middle" x="1270.87" y="-1620.9" font-family="Times,serif" font-size="12.00">ComponentBase</text>
</g>
<!-- ComponentBase&#45;&gt;ComponentInterface -->
<g id="edge28" class="edge"><title>ComponentBase&#45;&gt;ComponentInterface</title>
<path fill="none" stroke="black" d="M1129.7,-1624C1154.89,-1624 1186.19,-1624 1212.82,-1624"/>
<polygon fill="black" stroke="black" points="1213.15,-1627.5 1223.15,-1624 1213.15,-1620.5 1213.15,-1627.5"/>
</g>
<!-- AppHelper -->
<g id="node18" class="node"><title>AppHelper</title>
<polygon fill="lightgrey" stroke="black" points="101.316,-1842 40.4359,-1824 101.316,-1806 162.196,-1824 101.316,-1842"/>
<polyline fill="none" stroke="black" points="51.9435,-1827.4 51.9435,-1820.6 "/>
<polyline fill="none" stroke="black" points="89.8084,-1809.4 112.824,-1809.4 "/>
<polyline fill="none" stroke="black" points="150.689,-1820.6 150.689,-1827.4 "/>
<polyline fill="none" stroke="black" points="112.824,-1838.6 89.8084,-1838.6 "/>
<text text-anchor="middle" x="101.316" y="-1820.9" font-family="Times,serif" font-size="12.00">AppHelper</text>
</g>
<!-- AppHelper&#45;&gt;App -->
<g id="edge29" class="edge"><title>AppHelper&#45;&gt;App</title>
<path fill="none" stroke="black" d="M150.045,-1820.33C211.919,-1815.57 318.632,-1807.36 375.695,-1802.97"/>
<polygon fill="black" stroke="black" points="376.048,-1806.46 385.75,-1802.2 375.511,-1799.48 376.048,-1806.46"/>
</g>
<!-- HelperTrait -->
<g id="node23" class="node"><title>HelperTrait</title>
<polygon fill="none" stroke="black" points="284.443,-1940 222.821,-1922 284.443,-1904 346.064,-1922 284.443,-1940"/>
<text text-anchor="middle" x="284.443" y="-1918.9" font-family="Times,serif" font-size="12.00">HelperTrait</text>
</g>
<!-- AppHelper&#45;&gt;HelperTrait -->
<g id="edge36" class="edge"><title>AppHelper&#45;&gt;HelperTrait</title>
<path fill="none" stroke="black" d="M138.632,-1831.15C156.17,-1835.46 177.15,-1841.91 194.632,-1851 219.918,-1864.15 244.93,-1885.05 261.935,-1900.77"/>
<polygon fill="black" stroke="black" points="259.933,-1903.7 269.605,-1908.02 264.741,-1898.61 259.933,-1903.7"/>
</g>
<!-- ControllerHelper -->
<g id="node19" class="node"><title>ControllerHelper</title>
<polygon fill="lightgrey" stroke="black" points="101.316,-1788 16.9251,-1770 101.316,-1752 185.707,-1770 101.316,-1788"/>
<polyline fill="none" stroke="black" points="28.6611,-1772.5 28.6611,-1767.5 "/>
<polyline fill="none" stroke="black" points="89.58,-1754.5 113.052,-1754.5 "/>
<polyline fill="none" stroke="black" points="173.971,-1767.5 173.971,-1772.5 "/>
<polyline fill="none" stroke="black" points="113.052,-1785.5 89.58,-1785.5 "/>
<text text-anchor="middle" x="101.316" y="-1766.9" font-family="Times,serif" font-size="12.00">ControllerHelper</text>
</g>
<!-- ControllerHelper&#45;&gt;App -->
<g id="edge30" class="edge"><title>ControllerHelper&#45;&gt;App</title>
<path fill="none" stroke="black" d="M159.909,-1775.54C223.135,-1781.62 322.811,-1791.2 376.717,-1796.38"/>
<polygon fill="black" stroke="black" points="376.575,-1799.89 386.864,-1797.36 377.245,-1792.92 376.575,-1799.89"/>
</g>
<!-- ControllerHelper&#45;&gt;HelperTrait -->
<g id="edge37" class="edge"><title>ControllerHelper&#45;&gt;HelperTrait</title>
<path fill="none" stroke="black" d="M150.596,-1777.69C165.666,-1781.71 181.71,-1787.8 194.632,-1797 230.906,-1822.83 257.694,-1868.28 271.906,-1896.67"/>
<polygon fill="black" stroke="black" points="268.89,-1898.48 276.403,-1905.95 275.188,-1895.42 268.89,-1898.48"/>
</g>
<!-- ModelHelper -->
<g id="node20" class="node"><title>ModelHelper</title>
<polygon fill="lightgrey" stroke="black" points="101.316,-1734 31.5243,-1716 101.316,-1698 171.108,-1716 101.316,-1734"/>
<polyline fill="none" stroke="black" points="43.144,-1719 43.144,-1713 "/>
<polyline fill="none" stroke="black" points="89.6962,-1701 112.936,-1701 "/>
<polyline fill="none" stroke="black" points="159.488,-1713 159.488,-1719 "/>
<polyline fill="none" stroke="black" points="112.936,-1731 89.6962,-1731 "/>
<text text-anchor="middle" x="101.316" y="-1712.9" font-family="Times,serif" font-size="12.00">ModelHelper</text>
</g>
<!-- ModelHelper&#45;&gt;App -->
<g id="edge31" class="edge"><title>ModelHelper&#45;&gt;App</title>
<path fill="none" stroke="black" d="M139.743,-1724.23C189.202,-1735.37 278.878,-1756.45 354.253,-1779 364.654,-1782.11 375.921,-1785.93 385.858,-1789.45"/>
<polygon fill="black" stroke="black" points="384.675,-1792.74 395.269,-1792.84 387.045,-1786.16 384.675,-1792.74"/>
</g>
<!-- ModelHelper&#45;&gt;HelperTrait -->
<g id="edge38" class="edge"><title>ModelHelper&#45;&gt;HelperTrait</title>
<path fill="none" stroke="black" d="M148.644,-1721.8C164.608,-1725.68 181.704,-1732.17 194.632,-1743 242.74,-1783.31 267.206,-1856.04 277.42,-1895.24"/>
<polygon fill="black" stroke="black" points="274.068,-1896.26 279.877,-1905.12 280.861,-1894.57 274.068,-1896.26"/>
</g>
<!-- ServiceHelper -->
<g id="node21" class="node"><title>ServiceHelper</title>
<polygon fill="lightgrey" stroke="black" points="101.316,-1950 28.0598,-1932 101.316,-1914 174.572,-1932 101.316,-1950"/>
<polyline fill="none" stroke="black" points="39.7131,-1934.86 39.7131,-1929.14 "/>
<polyline fill="none" stroke="black" points="89.6626,-1916.86 112.969,-1916.86 "/>
<polyline fill="none" stroke="black" points="162.919,-1929.14 162.919,-1934.86 "/>
<polyline fill="none" stroke="black" points="112.969,-1947.14 89.6626,-1947.14 "/>
<text text-anchor="middle" x="101.316" y="-1928.9" font-family="Times,serif" font-size="12.00">ServiceHelper</text>
</g>
<!-- ServiceHelper&#45;&gt;App -->
<g id="edge32" class="edge"><title>ServiceHelper&#45;&gt;App</title>
<path fill="none" stroke="black" d="M136.663,-1922.49C154.103,-1917.52 175.578,-1911.2 194.632,-1905 207.132,-1900.93 209.988,-1899.13 222.467,-1895 280.574,-1875.76 301.072,-1885.31 354.253,-1855 370.425,-1845.78 385.85,-1831.51 397.022,-1819.81"/>
<polygon fill="black" stroke="black" points="399.82,-1821.93 404.033,-1812.21 394.677,-1817.19 399.82,-1821.93"/>
</g>
<!-- ServiceHelper&#45;&gt;HelperTrait -->
<g id="edge39" class="edge"><title>ServiceHelper&#45;&gt;HelperTrait</title>
<path fill="none" stroke="black" d="M161.373,-1928.74C180.889,-1927.66 202.635,-1926.46 222.304,-1925.38"/>
<polygon fill="black" stroke="black" points="222.586,-1928.87 232.378,-1924.82 222.2,-1921.88 222.586,-1928.87"/>
</g>
<!-- ViewHelper -->
<g id="node22" class="node"><title>ViewHelper</title>
<polygon fill="lightgrey" stroke="black" points="101.316,-1896 36.2296,-1878 101.316,-1860 166.402,-1878 101.316,-1896"/>
<polyline fill="none" stroke="black" points="47.7955,-1881.2 47.7955,-1874.8 "/>
<polyline fill="none" stroke="black" points="89.7502,-1863.2 112.882,-1863.2 "/>
<polyline fill="none" stroke="black" points="154.837,-1874.8 154.837,-1881.2 "/>
<polyline fill="none" stroke="black" points="112.882,-1892.8 89.7502,-1892.8 "/>
<text text-anchor="middle" x="101.316" y="-1874.9" font-family="Times,serif" font-size="12.00">ViewHelper</text>
</g>
<!-- ViewHelper&#45;&gt;App -->
<g id="edge33" class="edge"><title>ViewHelper&#45;&gt;App</title>
<path fill="none" stroke="black" d="M142.995,-1871.46C193.25,-1862.89 281.078,-1846.28 354.253,-1824 365.327,-1820.63 377.223,-1816.08 387.483,-1811.85"/>
<polygon fill="black" stroke="black" points="388.889,-1815.06 396.74,-1807.94 386.166,-1808.61 388.889,-1815.06"/>
</g>
<!-- ViewHelper&#45;&gt;HelperTrait -->
<g id="edge40" class="edge"><title>ViewHelper&#45;&gt;HelperTrait</title>
<path fill="none" stroke="black" d="M136.811,-1886.38C166.263,-1893.53 208.759,-1903.86 240.427,-1911.55"/>
<polygon fill="black" stroke="black" points="239.755,-1914.99 250.299,-1913.95 241.407,-1908.19 239.755,-1914.99"/>
</g>
<!-- HelperTrait&#45;&gt;App -->
<g id="edge34" class="edge"><title>HelperTrait&#45;&gt;App</title>
<path fill="none" stroke="black" d="M314.262,-1912.68C327.434,-1907.45 342.651,-1899.95 354.253,-1890 375.948,-1871.4 393.073,-1843.13 403.4,-1823.25"/>
<polygon fill="black" stroke="black" points="406.563,-1824.75 407.914,-1814.24 400.305,-1821.61 406.563,-1824.75"/>
</g>
<!-- HelperTrait&#45;&gt;ExtendableStaticCallTrait -->
<g id="edge35" class="edge"><title>HelperTrait&#45;&gt;ExtendableStaticCallTrait</title>
<path fill="none" stroke="black" d="M321.008,-1929.38C374.906,-1940.56 477.928,-1961.94 543.561,-1975.55"/>
<polygon fill="black" stroke="black" points="542.859,-1978.98 553.361,-1977.59 544.281,-1972.13 542.859,-1978.98"/>
</g>
<!-- Db_Db -->
<g id="node24" class="node"><title>Db_Db</title>
<polygon fill="lightgrey" stroke="black" points="850.694,-106 822.977,-88 850.694,-70 878.412,-88 850.694,-106"/>
<polyline fill="none" stroke="black" points="832.216,-94 832.216,-82 "/>
<polyline fill="none" stroke="black" points="841.455,-76 859.933,-76 "/>
<polyline fill="none" stroke="black" points="869.173,-82 869.173,-94 "/>
<polyline fill="none" stroke="black" points="859.933,-100 841.455,-100 "/>
<text text-anchor="middle" x="850.694" y="-84.9" font-family="Times,serif" font-size="12.00">Db</text>
</g>
<!-- Db_DbAdvanceTrait -->
<g id="node25" class="node"><title>Db_DbAdvanceTrait</title>
<polygon fill="none" stroke="black" points="1082.03,-52 997.643,-34 1082.03,-16 1166.42,-34 1082.03,-52"/>
<text text-anchor="middle" x="1082.03" y="-30.9" font-family="Times,serif" font-size="12.00">DbAdvanceTrait</text>
</g>
<!-- Db_Db&#45;&gt;Db_DbAdvanceTrait -->
<g id="edge41" class="edge"><title>Db_Db&#45;&gt;Db_DbAdvanceTrait</title>
<path fill="none" stroke="black" d="M871.645,-83.3023C906.922,-74.9962 981.287,-57.4862 1031.22,-45.7302"/>
<polygon fill="black" stroke="black" points="1032.23,-49.0861 1041.17,-43.3873 1030.63,-42.2724 1032.23,-49.0861"/>
</g>
<!-- Db_DbInterface -->
<g id="node26" class="node"><title>Db_DbInterface</title>
<polygon fill="none" stroke="black" points="1112.53,-106 1045.53,-106 1045.53,-70 1118.53,-70 1118.53,-100 1112.53,-106"/>
<polyline fill="none" stroke="black" points="1112.53,-106 1112.53,-100 "/>
<polyline fill="none" stroke="black" points="1118.53,-100 1112.53,-100 "/>
<text text-anchor="middle" x="1082.03" y="-84.9" font-family="Times,serif" font-size="12.00">DbInterface</text>
</g>
<!-- Db_Db&#45;&gt;Db_DbInterface -->
<g id="edge42" class="edge"><title>Db_Db&#45;&gt;Db_DbInterface</title>
<path fill="none" stroke="black" d="M878.451,-88C916.899,-88 988.3,-88 1035.24,-88"/>
<polygon fill="black" stroke="black" points="1035.45,-91.5001 1045.44,-88 1035.44,-84.5001 1035.45,-91.5001"/>
</g>
<!-- HttpServer -->
<g id="node27" class="node"><title>HttpServer</title>
<polygon fill="lightgrey" stroke="black" points="850.694,-2141 791.296,-2123 850.694,-2105 910.093,-2123 850.694,-2141"/>
<polyline fill="none" stroke="black" points="802.78,-2126.48 802.78,-2119.52 "/>
<polyline fill="none" stroke="black" points="839.21,-2108.48 862.179,-2108.48 "/>
<polyline fill="none" stroke="black" points="898.608,-2119.52 898.608,-2126.48 "/>
<polyline fill="none" stroke="black" points="862.179,-2137.52 839.21,-2137.52 "/>
<text text-anchor="middle" x="850.694" y="-2119.9" font-family="Times,serif" font-size="12.00">HttpServer</text>
</g>
<!-- HttpServerInterface -->
<g id="node28" class="node"><title>HttpServerInterface</title>
<polygon fill="none" stroke="black" points="1145.03,-2087 1013.03,-2087 1013.03,-2051 1151.03,-2051 1151.03,-2081 1145.03,-2087"/>
<polyline fill="none" stroke="black" points="1145.03,-2087 1145.03,-2081 "/>
<polyline fill="none" stroke="black" points="1151.03,-2081 1145.03,-2081 "/>
<text text-anchor="middle" x="1082.03" y="-2065.9" font-family="Times,serif" font-size="12.00">HttpServerInterface(todo)</text>
</g>
<!-- HttpServer&#45;&gt;HttpServerInterface -->
<g id="edge43" class="edge"><title>HttpServer&#45;&gt;HttpServerInterface</title>
<path fill="none" stroke="black" d="M885.042,-2115.15C915.8,-2107.91 962.641,-2096.88 1002.82,-2087.42"/>
<polygon fill="black" stroke="black" points="1003.68,-2090.81 1012.61,-2085.11 1002.07,-2084 1003.68,-2090.81"/>
</g>
<!-- FileRunnerTrait -->
<g id="node30" class="node"><title>FileRunnerTrait</title>
<polygon fill="none" stroke="black" points="1082.03,-2141 976.855,-2123 1082.03,-2105 1187.21,-2123 1082.03,-2141"/>
<text text-anchor="middle" x="1082.03" y="-2119.9" font-family="Times,serif" font-size="12.00">FileRunnerTrait(todo)</text>
</g>
<!-- HttpServer&#45;&gt;FileRunnerTrait -->
<g id="edge44" class="edge"><title>HttpServer&#45;&gt;FileRunnerTrait</title>
<path fill="none" stroke="black" d="M910.16,-2123C927.45,-2123 947.006,-2123 966.554,-2123"/>
<polygon fill="black" stroke="black" points="966.764,-2126.5 976.764,-2123 966.764,-2119.5 966.764,-2126.5"/>
</g>
<!-- HttpServerPluginInterface -->
<g id="node29" class="node"><title>HttpServerPluginInterface</title>
<polygon fill="none" stroke="black" points="903.194,-2087 792.194,-2087 792.194,-2051 909.194,-2051 909.194,-2081 903.194,-2087"/>
<polyline fill="none" stroke="black" points="903.194,-2087 903.194,-2081 "/>
<polyline fill="none" stroke="black" points="909.194,-2081 903.194,-2081 "/>
<text text-anchor="middle" x="850.694" y="-2065.9" font-family="Times,serif" font-size="12.00">PluginInterface(todo)</text>
</g>
<!-- Cache -->
<g id="node31" class="node"><title>Cache</title>
<polygon fill="none" stroke="black" points="631.555,-1282 577.555,-1282 577.555,-1278 573.555,-1278 573.555,-1274 577.555,-1274 577.555,-1254 573.555,-1254 573.555,-1250 577.555,-1250 577.555,-1246 631.555,-1246 631.555,-1282"/>
<polyline fill="none" stroke="black" points="577.555,-1278 581.555,-1278 581.555,-1274 577.555,-1274 "/>
<polyline fill="none" stroke="black" points="577.555,-1254 581.555,-1254 581.555,-1250 577.555,-1250 "/>
<text text-anchor="middle" x="604.555" y="-1260.9" font-family="Times,serif" font-size="12.00">Cache</text>
</g>
<!-- Cache&#45;&gt;ComponentBase -->
<g id="edge45" class="edge"><title>Cache&#45;&gt;ComponentBase</title>
<path fill="none" stroke="black" stroke-dasharray="1,5" d="M631.8,-1260.41C656.407,-1256.5 693.914,-1249.13 724.694,-1237 741.927,-1230.21 742.813,-1220.83 760.694,-1216 841.354,-1194.19 881.109,-1166.87 948.694,-1216 1012.52,-1262.4 1061.37,-1511.61 1076.29,-1596.02"/>
<polygon fill="black" stroke="black" points="1072.85,-1596.67 1078.02,-1605.92 1079.75,-1595.47 1072.85,-1596.67"/>
</g>
<!-- Console -->
<g id="node32" class="node"><title>Console</title>
<polygon fill="lightgrey" stroke="black" points="850.694,-1552 802.189,-1534 850.694,-1516 899.2,-1534 850.694,-1552"/>
<polyline fill="none" stroke="black" points="813.439,-1538.17 813.439,-1529.83 "/>
<polyline fill="none" stroke="black" points="839.444,-1520.17 861.945,-1520.17 "/>
<polyline fill="none" stroke="black" points="887.949,-1529.83 887.949,-1538.17 "/>
<polyline fill="none" stroke="black" points="861.945,-1547.83 839.444,-1547.83 "/>
<text text-anchor="middle" x="850.694" y="-1530.9" font-family="Times,serif" font-size="12.00">Console</text>
</g>
<!-- DbManager -->
<g id="node33" class="node"><title>DbManager</title>
<polygon fill="none" stroke="black" points="641.555,-1228 567.555,-1228 567.555,-1224 563.555,-1224 563.555,-1220 567.555,-1220 567.555,-1200 563.555,-1200 563.555,-1196 567.555,-1196 567.555,-1192 641.555,-1192 641.555,-1228"/>
<polyline fill="none" stroke="black" points="567.555,-1224 571.555,-1224 571.555,-1220 567.555,-1220 "/>
<polyline fill="none" stroke="black" points="567.555,-1200 571.555,-1200 571.555,-1196 567.555,-1196 "/>
<text text-anchor="middle" x="604.555" y="-1206.9" font-family="Times,serif" font-size="12.00">DbManager</text>
</g>
<!-- DbManager&#45;&gt;ComponentBase -->
<g id="edge47" class="edge"><title>DbManager&#45;&gt;ComponentBase</title>
<path fill="none" stroke="black" stroke-dasharray="1,5" d="M641.646,-1193.38C709.268,-1164.99 856.52,-1116.51 948.694,-1185 1016.86,-1235.64 1063.32,-1506.79 1076.91,-1595.72"/>
<polygon fill="black" stroke="black" points="1073.49,-1596.5 1078.44,-1605.87 1080.41,-1595.46 1073.49,-1596.5"/>
</g>
<!-- DbManager&#45;&gt;Db_Db -->
<g id="edge56" class="edge"><title>DbManager&#45;&gt;Db_Db</title>
<path fill="none" stroke="black" stroke-dasharray="5,2" d="M641.596,-1198.83C669.576,-1188.08 706.563,-1168.83 724.694,-1138 780.999,-1042.26 703.281,-234.082 760.694,-139 773.905,-117.121 800.275,-103.745 820.898,-96.2141"/>
<polygon fill="black" stroke="black" points="822.125,-99.4939 830.477,-92.9751 819.883,-92.8627 822.125,-99.4939"/>
</g>
<!-- DuckPhpCommand -->
<g id="node34" class="node"><title>DuckPhpCommand</title>
<polygon fill="none" stroke="black" points="660.055,-1552 549.055,-1552 549.055,-1548 545.055,-1548 545.055,-1544 549.055,-1544 549.055,-1524 545.055,-1524 545.055,-1520 549.055,-1520 549.055,-1516 660.055,-1516 660.055,-1552"/>
<polyline fill="none" stroke="black" points="549.055,-1548 553.055,-1548 553.055,-1544 549.055,-1544 "/>
<polyline fill="none" stroke="black" points="549.055,-1524 553.055,-1524 553.055,-1520 549.055,-1520 "/>
<text text-anchor="middle" x="604.555" y="-1530.9" font-family="Times,serif" font-size="12.00">DuckPhpCommand</text>
</g>
<!-- DuckPhpCommand&#45;&gt;ComponentBase -->
<g id="edge46" class="edge"><title>DuckPhpCommand&#45;&gt;ComponentBase</title>
<path fill="none" stroke="black" stroke-dasharray="1,5" d="M660.129,-1533.04C682.53,-1529.98 707.246,-1522.8 724.694,-1507 762.196,-1473.03 719.648,-1428.58 760.694,-1399 828.478,-1350.14 876.165,-1357.51 948.694,-1399 1023.8,-1441.96 1060.49,-1545.98 1074.29,-1596.1"/>
<polygon fill="black" stroke="black" points="1070.95,-1597.16 1076.89,-1605.93 1077.71,-1595.37 1070.95,-1597.16"/>
</g>
<!-- DuckPhpCommand&#45;&gt;HttpServer -->
<g id="edge55" class="edge"><title>DuckPhpCommand&#45;&gt;HttpServer</title>
<path fill="none" stroke="black" stroke-dasharray="5,2" d="M660.109,-1548.15C683.936,-1557.23 709.794,-1571.65 724.694,-1594 786.726,-1687.06 690.899,-2008.61 760.694,-2096 768.804,-2106.15 780.612,-2112.59 792.99,-2116.65"/>
<polygon fill="black" stroke="black" points="792.409,-2120.12 802.98,-2119.41 794.277,-2113.37 792.409,-2120.12"/>
</g>
<!-- DuckPhpCommand&#45;&gt;Console -->
<g id="edge53" class="edge"><title>DuckPhpCommand&#45;&gt;Console</title>
<path fill="none" stroke="black" stroke-dasharray="5,2" d="M660.345,-1534C699.532,-1534 752.17,-1534 792,-1534"/>
<polygon fill="black" stroke="black" points="792.093,-1537.5 802.093,-1534 792.093,-1530.5 792.093,-1537.5"/>
</g>
<!-- Installer -->
<g id="node36" class="node"><title>Installer</title>
<polygon fill="none" stroke="black" points="877.694,-1498 823.694,-1498 823.694,-1494 819.694,-1494 819.694,-1490 823.694,-1490 823.694,-1470 819.694,-1470 819.694,-1466 823.694,-1466 823.694,-1462 877.694,-1462 877.694,-1498"/>
<polyline fill="none" stroke="black" points="823.694,-1494 827.694,-1494 827.694,-1490 823.694,-1490 "/>
<polyline fill="none" stroke="black" points="823.694,-1470 827.694,-1470 827.694,-1466 823.694,-1466 "/>
<text text-anchor="middle" x="850.694" y="-1476.9" font-family="Times,serif" font-size="12.00">Installer</text>
</g>
<!-- DuckPhpCommand&#45;&gt;Installer -->
<g id="edge54" class="edge"><title>DuckPhpCommand&#45;&gt;Installer</title>
<path fill="none" stroke="black" d="M660.345,-1521.88C707.162,-1511.53 773.18,-1496.92 813.617,-1487.98"/>
<polygon fill="black" stroke="black" points="814.557,-1491.36 823.565,-1485.78 813.045,-1484.52 814.557,-1491.36"/>
</g>
<!-- EventManager -->
<g id="node35" class="node"><title>EventManager</title>
<polygon fill="none" stroke="black" points="647.555,-1498 561.555,-1498 561.555,-1494 557.555,-1494 557.555,-1490 561.555,-1490 561.555,-1470 557.555,-1470 557.555,-1466 561.555,-1466 561.555,-1462 647.555,-1462 647.555,-1498"/>
<polyline fill="none" stroke="black" points="561.555,-1494 565.555,-1494 565.555,-1490 561.555,-1490 "/>
<polyline fill="none" stroke="black" points="561.555,-1470 565.555,-1470 565.555,-1466 561.555,-1466 "/>
<text text-anchor="middle" x="604.555" y="-1476.9" font-family="Times,serif" font-size="12.00">EventManager</text>
</g>
<!-- EventManager&#45;&gt;ComponentBase -->
<g id="edge48" class="edge"><title>EventManager&#45;&gt;ComponentBase</title>
<path fill="none" stroke="black" stroke-dasharray="1,5" d="M647.656,-1479.93C672.66,-1477.77 703.517,-1471.15 724.694,-1453 757.722,-1424.7 724.724,-1386.45 760.694,-1362 829.795,-1315.03 877.528,-1318.22 948.694,-1362 1033.51,-1414.18 1065.95,-1539.35 1076.56,-1595.68"/>
<polygon fill="black" stroke="black" points="1073.14,-1596.45 1078.34,-1605.68 1080.03,-1595.22 1073.14,-1596.45"/>
</g>
<!-- Installer&#45;&gt;ComponentBase -->
<g id="edge49" class="edge"><title>Installer&#45;&gt;ComponentBase</title>
<path fill="none" stroke="black" stroke-dasharray="1,5" d="M878.028,-1484C898.262,-1487.84 926.423,-1494.9 948.694,-1507 992.595,-1530.85 1034.22,-1571.73 1058.68,-1598.3"/>
<polygon fill="black" stroke="black" points="1056.1,-1600.67 1065.41,-1605.73 1061.28,-1595.97 1056.1,-1600.67"/>
</g>
<!-- Pager -->
<g id="node37" class="node"><title>Pager</title>
<polygon fill="none" stroke="black" points="631.555,-1444 577.555,-1444 577.555,-1440 573.555,-1440 573.555,-1436 577.555,-1436 577.555,-1416 573.555,-1416 573.555,-1412 577.555,-1412 577.555,-1408 631.555,-1408 631.555,-1444"/>
<polyline fill="none" stroke="black" points="577.555,-1440 581.555,-1440 581.555,-1436 577.555,-1436 "/>
<polyline fill="none" stroke="black" points="577.555,-1416 581.555,-1416 581.555,-1412 577.555,-1412 "/>
<text text-anchor="middle" x="604.555" y="-1422.9" font-family="Times,serif" font-size="12.00">Pager</text>
</g>
<!-- Pager&#45;&gt;ComponentBase -->
<g id="edge50" class="edge"><title>Pager&#45;&gt;ComponentBase</title>
<path fill="none" stroke="black" stroke-dasharray="1,5" d="M631.569,-1426.4C657.757,-1425.48 697.996,-1420.29 724.694,-1399 753.605,-1375.95 729.4,-1343.69 760.694,-1324 831.414,-1279.5 878.697,-1278.37 948.694,-1324 1043.84,-1386.02 1071.07,-1533.6 1078.45,-1595.69"/>
<polygon fill="black" stroke="black" points="1075,-1596.36 1079.57,-1605.92 1081.96,-1595.59 1075,-1596.36"/>
</g>
<!-- PagerInterface -->
<g id="node38" class="node"><title>PagerInterface</title>
<polygon fill="none" stroke="black" points="887.194,-1444 808.194,-1444 808.194,-1408 893.194,-1408 893.194,-1438 887.194,-1444"/>
<polyline fill="none" stroke="black" points="887.194,-1444 887.194,-1438 "/>
<polyline fill="none" stroke="black" points="893.194,-1438 887.194,-1438 "/>
<text text-anchor="middle" x="850.694" y="-1422.9" font-family="Times,serif" font-size="12.00">PagerInterface</text>
</g>
<!-- Pager&#45;&gt;PagerInterface -->
<g id="edge57" class="edge"><title>Pager&#45;&gt;PagerInterface</title>
<path fill="none" stroke="black" d="M631.683,-1426C671.156,-1426 746.786,-1426 797.746,-1426"/>
<polygon fill="black" stroke="black" points="797.908,-1429.5 807.907,-1426 797.907,-1422.5 797.908,-1429.5"/>
</g>
<!-- RouteHookPathInfoCompat -->
<g id="node39" class="node"><title>RouteHookPathInfoCompat</title>
<polygon fill="none" stroke="black" points="679.555,-1390 529.555,-1390 529.555,-1386 525.555,-1386 525.555,-1382 529.555,-1382 529.555,-1362 525.555,-1362 525.555,-1358 529.555,-1358 529.555,-1354 679.555,-1354 679.555,-1390"/>
<polyline fill="none" stroke="black" points="529.555,-1386 533.555,-1386 533.555,-1382 529.555,-1382 "/>
<polyline fill="none" stroke="black" points="529.555,-1362 533.555,-1362 533.555,-1358 529.555,-1358 "/>
<text text-anchor="middle" x="604.555" y="-1368.9" font-family="Times,serif" font-size="12.00">RouteHookPathInfoCompat</text>
</g>
<!-- RouteHookPathInfoCompat&#45;&gt;ComponentBase -->
<g id="edge51" class="edge"><title>RouteHookPathInfoCompat&#45;&gt;ComponentBase</title>
<path fill="none" stroke="black" stroke-dasharray="1,5" d="M679.647,-1364.68C695.526,-1360.61 711.481,-1354.41 724.694,-1345 749.403,-1327.39 734.181,-1301.75 760.694,-1287 833.713,-1246.38 879.653,-1239.94 948.694,-1287 1053.98,-1358.77 1075.51,-1528.19 1079.9,-1595.6"/>
<polygon fill="black" stroke="black" points="1076.43,-1596.1 1080.49,-1605.88 1083.42,-1595.7 1076.43,-1596.1"/>
</g>
<!-- RouteHookRouteMap -->
<g id="node40" class="node"><title>RouteHookRouteMap</title>
<polygon fill="none" stroke="black" points="665.555,-1336 543.555,-1336 543.555,-1332 539.555,-1332 539.555,-1328 543.555,-1328 543.555,-1308 539.555,-1308 539.555,-1304 543.555,-1304 543.555,-1300 665.555,-1300 665.555,-1336"/>
<polyline fill="none" stroke="black" points="543.555,-1332 547.555,-1332 547.555,-1328 543.555,-1328 "/>
<polyline fill="none" stroke="black" points="543.555,-1308 547.555,-1308 547.555,-1304 543.555,-1304 "/>
<text text-anchor="middle" x="604.555" y="-1314.9" font-family="Times,serif" font-size="12.00">RouteHookRouteMap</text>
</g>
<!-- RouteHookRouteMap&#45;&gt;ComponentBase -->
<g id="edge52" class="edge"><title>RouteHookRouteMap&#45;&gt;ComponentBase</title>
<path fill="none" stroke="black" stroke-dasharray="1,5" d="M665.806,-1311.74C685.547,-1307.8 706.949,-1301.41 724.694,-1291 745.325,-1278.9 738.846,-1260.73 760.694,-1251 837.022,-1217.01 880.445,-1202.8 948.694,-1251 1064,-1332.44 1079.47,-1523.41 1081.08,-1595.64"/>
<polygon fill="black" stroke="black" points="1077.58,-1595.85 1081.23,-1605.8 1084.58,-1595.75 1077.58,-1595.85"/>
</g>
<!-- DuckPhp -->
<g id="node41" class="node"><title>DuckPhp</title>
<polygon fill="lightgrey" stroke="black" points="284.443,-1444 230.492,-1426 284.443,-1408 338.393,-1426 284.443,-1444"/>
<polyline fill="none" stroke="black" points="241.875,-1429.8 241.875,-1422.2 "/>
<polyline fill="none" stroke="black" points="273.059,-1411.8 295.826,-1411.8 "/>
<polyline fill="none" stroke="black" points="327.01,-1422.2 327.01,-1429.8 "/>
<polyline fill="none" stroke="black" points="295.826,-1440.2 273.059,-1440.2 "/>
<text text-anchor="middle" x="284.443" y="-1422.9" font-family="Times,serif" font-size="12.00">DuckPhp</text>
</g>
<!-- DuckPhp&#45;&gt;App -->
<g id="edge58" class="edge"><title>DuckPhp&#45;&gt;App</title>
<path fill="none" stroke="black" d="M290.981,-1442.07C311.239,-1500.85 381.4,-1704.43 405.851,-1775.38"/>
<polygon fill="black" stroke="black" points="402.675,-1776.91 409.242,-1785.22 409.293,-1774.63 402.675,-1776.91"/>
</g>
<!-- DuckPhp&#45;&gt;Cache -->
<g id="edge64" class="edge"><title>DuckPhp&#45;&gt;Cache</title>
<path fill="none" stroke="black" d="M299.609,-1413.01C330.533,-1385.46 407.493,-1321.24 484.417,-1291 511.238,-1280.46 543.155,-1273.5 567.2,-1269.29"/>
<polygon fill="black" stroke="black" points="568.029,-1272.7 577.315,-1267.6 566.875,-1265.8 568.029,-1272.7"/>
</g>
<!-- DuckPhp&#45;&gt;Console -->
<g id="edge65" class="edge"><title>DuckPhp&#45;&gt;Console</title>
<path fill="none" stroke="black" d="M298.746,-1439.76C328.563,-1469.44 404.426,-1538.59 484.417,-1561 601.241,-1593.74 746.824,-1562.68 813.409,-1544.73"/>
<polygon fill="black" stroke="black" points="814.691,-1548.01 823.4,-1541.98 812.83,-1541.26 814.691,-1548.01"/>
</g>
<!-- DuckPhp&#45;&gt;DbManager -->
<g id="edge61" class="edge"><title>DuckPhp&#45;&gt;DbManager</title>
<path fill="none" stroke="black" d="M293.69,-1411.03C307.763,-1386.45 338.4,-1337 374.253,-1304 416.417,-1265.19 431.298,-1258.5 484.417,-1237 507.687,-1227.58 534.909,-1221.1 557.454,-1216.85"/>
<polygon fill="black" stroke="black" points="558.229,-1220.27 567.452,-1215.06 556.991,-1213.38 558.229,-1220.27"/>
</g>
<!-- DuckPhp&#45;&gt;DuckPhpCommand -->
<g id="edge66" class="edge"><title>DuckPhp&#45;&gt;DuckPhpCommand</title>
<path fill="none" stroke="black" d="M307.68,-1436.46C343.996,-1453.22 418.597,-1486.3 484.417,-1507 501.751,-1512.45 520.829,-1517.28 538.54,-1521.29"/>
<polygon fill="black" stroke="black" points="538.268,-1524.81 548.787,-1523.55 539.778,-1517.98 538.268,-1524.81"/>
</g>
<!-- DuckPhp&#45;&gt;EventManager -->
<g id="edge62" class="edge"><title>DuckPhp&#45;&gt;EventManager</title>
<path fill="none" stroke="black" d="M320.702,-1431.99C376.671,-1441.49 486.163,-1460.07 551.282,-1471.13"/>
<polygon fill="black" stroke="black" points="550.892,-1474.61 561.337,-1472.83 552.064,-1467.71 550.892,-1474.61"/>
</g>
<!-- DuckPhp&#45;&gt;Pager -->
<g id="edge60" class="edge"><title>DuckPhp&#45;&gt;Pager</title>
<path fill="none" stroke="black" d="M338.688,-1426C403.491,-1426 511.182,-1426 567.195,-1426"/>
<polygon fill="black" stroke="black" points="567.356,-1429.5 577.356,-1426 567.356,-1422.5 567.356,-1429.5"/>
</g>
<!-- DuckPhp&#45;&gt;RouteHookPathInfoCompat -->
<g id="edge63" class="edge"><title>DuckPhp&#45;&gt;RouteHookPathInfoCompat</title>
<path fill="none" stroke="black" d="M320.702,-1420.01C368.226,-1411.95 454.339,-1397.33 519.11,-1386.33"/>
<polygon fill="black" stroke="black" points="520.039,-1389.73 529.312,-1384.6 518.868,-1382.83 520.039,-1389.73"/>
</g>
<!-- DuckPhp&#45;&gt;RouteHookRouteMap -->
<g id="edge59" class="edge"><title>DuckPhp&#45;&gt;RouteHookRouteMap</title>
<path fill="none" stroke="black" d="M307.68,-1415.54C343.996,-1398.78 418.597,-1365.7 484.417,-1345 500.082,-1340.07 517.17,-1335.66 533.387,-1331.89"/>
<polygon fill="black" stroke="black" points="534.372,-1335.26 543.351,-1329.63 532.825,-1328.43 534.372,-1335.26"/>
</g>
<!-- ThrowOnTrait -->
<g id="node42" class="node"><title>ThrowOnTrait</title>
<polygon fill="lightgrey" stroke="black" points="101.316,-2090 26.5775,-2072 101.316,-2054 176.055,-2072 101.316,-2090"/>
<polyline fill="none" stroke="black" points="38.2439,-2074.81 38.2439,-2069.19 "/>
<polyline fill="none" stroke="black" points="89.6496,-2056.81 112.982,-2056.81 "/>
<polyline fill="none" stroke="black" points="164.388,-2069.19 164.388,-2074.81 "/>
<polyline fill="none" stroke="black" points="112.982,-2087.19 89.6496,-2087.19 "/>
<text text-anchor="middle" x="101.316" y="-2068.9" font-family="Times,serif" font-size="12.00">ThrowOnTrait</text>
</g>
<!-- CallableView -->
<g id="node43" class="node"><title>CallableView</title>
<polygon fill="none" stroke="black" points="645.555,-565 563.555,-565 563.555,-561 559.555,-561 559.555,-557 563.555,-557 563.555,-537 559.555,-537 559.555,-533 563.555,-533 563.555,-529 645.555,-529 645.555,-565"/>
<polyline fill="none" stroke="black" points="563.555,-561 567.555,-561 567.555,-557 563.555,-557 "/>
<polyline fill="none" stroke="black" points="563.555,-537 567.555,-537 567.555,-533 563.555,-533 "/>
<text text-anchor="middle" x="604.555" y="-543.9" font-family="Times,serif" font-size="12.00">CallableView</text>
</g>
<!-- X_Core_View -->
<g id="node65" class="node"><title>X_Core_View</title>
<polygon fill="none" stroke="black" points="891.194,-667 792.194,-667 792.194,-643 891.194,-643 891.194,-637 909.194,-655 891.194,-673 891.194,-667"/>
<text text-anchor="middle" x="850.694" y="-651.9" font-family="Times,serif" font-size="12.00">DuckPhp\Core\View</text>
</g>
<!-- CallableView&#45;&gt;X_Core_View -->
<g id="edge83" class="edge"><title>CallableView&#45;&gt;X_Core_View</title>
<path fill="none" stroke="black" d="M645.823,-548.664C670.445,-551.395 701.547,-558.067 724.694,-574 748.455,-590.354 737.535,-610.805 760.694,-628 767.238,-632.859 774.662,-636.851 782.363,-640.13"/>
<polygon fill="black" stroke="black" points="781.265,-643.458 791.855,-643.786 783.781,-636.925 781.265,-643.458"/>
</g>
<!-- EmptyView -->
<g id="node44" class="node"><title>EmptyView</title>
<polygon fill="none" stroke="black" points="641.555,-673 567.555,-673 567.555,-669 563.555,-669 563.555,-665 567.555,-665 567.555,-645 563.555,-645 563.555,-641 567.555,-641 567.555,-637 641.555,-637 641.555,-673"/>
<polyline fill="none" stroke="black" points="567.555,-669 571.555,-669 571.555,-665 567.555,-665 "/>
<polyline fill="none" stroke="black" points="567.555,-645 571.555,-645 571.555,-641 567.555,-641 "/>
<text text-anchor="middle" x="604.555" y="-651.9" font-family="Times,serif" font-size="12.00">EmptyView</text>
</g>
<!-- EmptyView&#45;&gt;X_Core_View -->
<g id="edge84" class="edge"><title>EmptyView&#45;&gt;X_Core_View</title>
<path fill="none" stroke="black" d="M641.579,-655C678.326,-655 736.241,-655 781.655,-655"/>
<polygon fill="black" stroke="black" points="781.73,-658.5 791.73,-655 781.73,-651.5 781.73,-658.5"/>
</g>
<!-- ExceptionWrapper -->
<g id="node45" class="node"><title>ExceptionWrapper</title>
<polygon fill="none" stroke="black" points="657.555,-889 551.555,-889 551.555,-885 547.555,-885 547.555,-881 551.555,-881 551.555,-861 547.555,-861 547.555,-857 551.555,-857 551.555,-853 657.555,-853 657.555,-889"/>
<polyline fill="none" stroke="black" points="551.555,-885 555.555,-885 555.555,-881 551.555,-881 "/>
<polyline fill="none" stroke="black" points="551.555,-861 555.555,-861 555.555,-857 551.555,-857 "/>
<text text-anchor="middle" x="604.555" y="-867.9" font-family="Times,serif" font-size="12.00">ExceptionWrapper</text>
</g>
<!-- ExceptionWrapper&#45;&gt;ComponentBase -->
<g id="edge67" class="edge"><title>ExceptionWrapper&#45;&gt;ComponentBase</title>
<path fill="none" stroke="black" stroke-dasharray="1,5" d="M657.816,-873.558C680.188,-876.871 705.518,-883.804 724.694,-898 750.614,-917.188 734.6,-942.05 760.694,-961 829.742,-1011.14 888.22,-939.794 948.694,-1000 1035.09,-1086.01 1070.76,-1485.62 1079.06,-1595.8"/>
<polygon fill="black" stroke="black" points="1075.57,-1596.11 1079.8,-1605.83 1082.55,-1595.59 1075.57,-1596.11"/>
</g>
<!-- HookChain -->
<g id="node46" class="node"><title>HookChain</title>
<ellipse fill="none" stroke="black" cx="604.555" cy="-925" rx="44.1452" ry="18"/>
<text text-anchor="middle" x="604.555" y="-921.9" font-family="Times,serif" font-size="12.00">HookChain</text>
</g>
<!-- HttpServerPlugin -->
<g id="node47" class="node"><title>HttpServerPlugin</title>
<polygon fill="none" stroke="black" points="668.555,-835 540.555,-835 540.555,-831 536.555,-831 536.555,-827 540.555,-827 540.555,-807 536.555,-807 536.555,-803 540.555,-803 540.555,-799 668.555,-799 668.555,-835"/>
<polyline fill="none" stroke="black" points="540.555,-831 544.555,-831 544.555,-827 540.555,-827 "/>
<polyline fill="none" stroke="black" points="540.555,-807 544.555,-807 544.555,-803 540.555,-803 "/>
<text text-anchor="middle" x="604.555" y="-813.9" font-family="Times,serif" font-size="12.00">HttpServerPlugin(todo)</text>
</g>
<!-- HttpServerPlugin&#45;&gt;ComponentBase -->
<g id="edge68" class="edge"><title>HttpServerPlugin&#45;&gt;ComponentBase</title>
<path fill="none" stroke="black" stroke-dasharray="1,5" d="M668.763,-820.502C688.377,-824.261 708.953,-831.255 724.694,-844 754.368,-868.026 730.802,-898.246 760.694,-922 827.504,-975.09 888.581,-900.433 948.694,-961 1040.21,-1053.21 1072.41,-1481.67 1079.45,-1595.93"/>
<polygon fill="black" stroke="black" points="1075.96,-1596.21 1080.05,-1605.99 1082.94,-1595.79 1075.96,-1596.21"/>
</g>
<!-- JsonRpcClientBase -->
<g id="node48" class="node"><title>JsonRpcClientBase</title>
<polygon fill="none" stroke="black" points="659.055,-727 550.055,-727 550.055,-723 546.055,-723 546.055,-719 550.055,-719 550.055,-699 546.055,-699 546.055,-695 550.055,-695 550.055,-691 659.055,-691 659.055,-727"/>
<polyline fill="none" stroke="black" points="550.055,-723 554.055,-723 554.055,-719 550.055,-719 "/>
<polyline fill="none" stroke="black" points="550.055,-699 554.055,-699 554.055,-695 550.055,-695 "/>
<text text-anchor="middle" x="604.555" y="-705.9" font-family="Times,serif" font-size="12.00">JsonRpcClientBase</text>
</g>
<!-- JsonRpcClientBase&#45;&gt;ComponentBase -->
<g id="edge91" class="edge"><title>JsonRpcClientBase&#45;&gt;ComponentBase</title>
<path fill="none" stroke="black" stroke-dasharray="1,5" d="M659.067,-710.015C681.676,-713.035 706.846,-720.167 724.694,-736 760.344,-767.624 725.156,-805.25 760.694,-837 824.689,-894.172 889.664,-818.715 948.694,-881 1049.31,-987.159 1075.08,-1473.27 1080.03,-1595.86"/>
<polygon fill="black" stroke="black" points="1076.54,-1596.09 1080.42,-1605.95 1083.53,-1595.82 1076.54,-1596.09"/>
</g>
<!-- JsonRpcExt -->
<g id="node49" class="node"><title>JsonRpcExt</title>
<polygon fill="none" stroke="black" points="887.694,-727 813.694,-727 813.694,-723 809.694,-723 809.694,-719 813.694,-719 813.694,-699 809.694,-699 809.694,-695 813.694,-695 813.694,-691 887.694,-691 887.694,-727"/>
<polyline fill="none" stroke="black" points="813.694,-723 817.694,-723 817.694,-719 813.694,-719 "/>
<polyline fill="none" stroke="black" points="813.694,-699 817.694,-699 817.694,-695 813.694,-695 "/>
<text text-anchor="middle" x="850.694" y="-705.9" font-family="Times,serif" font-size="12.00">JsonRpcExt</text>
</g>
<!-- JsonRpcClientBase&#45;&gt;JsonRpcExt -->
<g id="edge90" class="edge"><title>JsonRpcClientBase&#45;&gt;JsonRpcExt</title>
<path fill="none" stroke="black" stroke-dasharray="5,2" d="M659.133,-703.301C702.352,-701.812 762.507,-701.905 803.597,-703.581"/>
<polygon fill="black" stroke="black" points="803.461,-707.079 813.611,-704.042 803.783,-700.086 803.461,-707.079"/>
</g>
<!-- JsonRpcExt&#45;&gt;ComponentBase -->
<g id="edge69" class="edge"><title>JsonRpcExt&#45;&gt;ComponentBase</title>
<path fill="none" stroke="black" stroke-dasharray="1,5" d="M888.123,-709.807C908.87,-712.273 933.648,-718.97 948.694,-736 1065.38,-868.069 1079.18,-1459.67 1080.81,-1595.94"/>
<polygon fill="black" stroke="black" points="1077.32,-1596.03 1080.92,-1605.99 1084.31,-1595.95 1077.32,-1596.03"/>
</g>
<!-- JsonRpcExt&#45;&gt;JsonRpcClientBase -->
<g id="edge89" class="edge"><title>JsonRpcExt&#45;&gt;JsonRpcClientBase</title>
<path fill="none" stroke="black" d="M813.611,-713.958C775.692,-715.919 715.281,-716.27 669.301,-715.012"/>
<polygon fill="black" stroke="black" points="669.236,-711.509 659.133,-714.699 669.02,-718.505 669.236,-711.509"/>
</g>
<!-- JsonView -->
<g id="node50" class="node"><title>JsonView</title>
<polygon fill="none" stroke="black" points="636.555,-619 572.555,-619 572.555,-615 568.555,-615 568.555,-611 572.555,-611 572.555,-591 568.555,-591 568.555,-587 572.555,-587 572.555,-583 636.555,-583 636.555,-619"/>
<polyline fill="none" stroke="black" points="572.555,-615 576.555,-615 576.555,-611 572.555,-611 "/>
<polyline fill="none" stroke="black" points="572.555,-591 576.555,-591 576.555,-587 572.555,-587 "/>
<text text-anchor="middle" x="604.555" y="-597.9" font-family="Times,serif" font-size="12.00">JsonView</text>
</g>
<!-- JsonView&#45;&gt;X_Core_View -->
<g id="edge92" class="edge"><title>JsonView&#45;&gt;X_Core_View</title>
<path fill="none" stroke="black" d="M636.973,-607.949C673.403,-616.007 734.512,-629.523 781.91,-640.007"/>
<polygon fill="black" stroke="black" points="781.282,-643.453 791.802,-642.195 782.794,-636.618 781.282,-643.453"/>
</g>
<!-- Misc -->
<g id="node51" class="node"><title>Misc</title>
<polygon fill="none" stroke="black" points="631.555,-403 577.555,-403 577.555,-399 573.555,-399 573.555,-395 577.555,-395 577.555,-375 573.555,-375 573.555,-371 577.555,-371 577.555,-367 631.555,-367 631.555,-403"/>
<polyline fill="none" stroke="black" points="577.555,-399 581.555,-399 581.555,-395 577.555,-395 "/>
<polyline fill="none" stroke="black" points="577.555,-375 581.555,-375 581.555,-371 577.555,-371 "/>
<text text-anchor="middle" x="604.555" y="-381.9" font-family="Times,serif" font-size="12.00">Misc</text>
</g>
<!-- Misc&#45;&gt;ComponentBase -->
<g id="edge70" class="edge"><title>Misc&#45;&gt;ComponentBase</title>
<path fill="none" stroke="black" stroke-dasharray="1,5" d="M631.906,-377.166C696.026,-359.897 861.317,-326.463 948.694,-411 1036.91,-496.352 1073.87,-1421.48 1080.07,-1595.77"/>
<polygon fill="black" stroke="black" points="1076.58,-1596.06 1080.43,-1605.93 1083.58,-1595.82 1076.58,-1596.06"/>
</g>
<!-- MyFacadesAutoLoader -->
<g id="node52" class="node"><title>MyFacadesAutoLoader</title>
<polygon fill="none" stroke="black" points="669.055,-511 540.055,-511 540.055,-507 536.055,-507 536.055,-503 540.055,-503 540.055,-483 536.055,-483 536.055,-479 540.055,-479 540.055,-475 669.055,-475 669.055,-511"/>
<polyline fill="none" stroke="black" points="540.055,-507 544.055,-507 544.055,-503 540.055,-503 "/>
<polyline fill="none" stroke="black" points="540.055,-483 544.055,-483 544.055,-479 540.055,-479 "/>
<text text-anchor="middle" x="604.555" y="-489.9" font-family="Times,serif" font-size="12.00">MyFacadesAutoLoader</text>
</g>
<!-- MyFacadesAutoLoader&#45;&gt;ComponentBase -->
<g id="edge72" class="edge"><title>MyFacadesAutoLoader&#45;&gt;ComponentBase</title>
<path fill="none" stroke="black" stroke-dasharray="1,5" d="M669.389,-479.34C697.279,-474.034 730.461,-468.611 760.694,-466 843.94,-458.81 886.348,-410.373 948.694,-466 1035.96,-543.857 1073.54,-1425.4 1080,-1595.64"/>
<polygon fill="black" stroke="black" points="1076.51,-1595.95 1080.38,-1605.81 1083.51,-1595.68 1076.51,-1595.95"/>
</g>
<!-- MyFacadesBase -->
<g id="node53" class="node"><title>MyFacadesBase</title>
<polygon fill="none" stroke="black" points="898.194,-619 803.194,-619 803.194,-615 799.194,-615 799.194,-611 803.194,-611 803.194,-591 799.194,-591 799.194,-587 803.194,-587 803.194,-583 898.194,-583 898.194,-619"/>
<polyline fill="none" stroke="black" points="803.194,-615 807.194,-615 807.194,-611 803.194,-611 "/>
<polyline fill="none" stroke="black" points="803.194,-591 807.194,-591 807.194,-587 803.194,-587 "/>
<text text-anchor="middle" x="850.694" y="-597.9" font-family="Times,serif" font-size="12.00">MyFacadesBase</text>
</g>
<!-- MyFacadesAutoLoader&#45;&gt;MyFacadesBase -->
<g id="edge86" class="edge"><title>MyFacadesAutoLoader&#45;&gt;MyFacadesBase</title>
<path fill="none" stroke="black" d="M669.188,-489.73C688.281,-493.196 708.447,-499.817 724.694,-511 748.455,-527.354 737.535,-547.805 760.694,-565 770.316,-572.144 781.839,-577.415 793.353,-581.518"/>
<polygon fill="black" stroke="black" points="792.387,-584.885 802.98,-584.705 794.587,-578.24 792.387,-584.885"/>
</g>
<!-- MyFacadesBase&#45;&gt;ComponentBase -->
<g id="edge71" class="edge"><title>MyFacadesBase&#45;&gt;ComponentBase</title>
<path fill="none" stroke="black" stroke-dasharray="1,5" d="M898.297,-603.215C916.573,-606.528 936.135,-613.556 948.694,-628 1078.93,-777.782 1082.2,-1448.34 1081.32,-1595.42"/>
<polygon fill="black" stroke="black" points="1077.82,-1595.81 1081.24,-1605.83 1084.82,-1595.86 1077.82,-1595.81"/>
</g>
<!-- MyFacadesBase&#45;&gt;MyFacadesAutoLoader -->
<g id="edge85" class="edge"><title>MyFacadesBase&#45;&gt;MyFacadesAutoLoader</title>
<path fill="none" stroke="black" stroke-dasharray="5,2" d="M802.98,-601.785C788.442,-598.22 773.01,-592.144 760.694,-583 737.535,-565.805 748.455,-545.354 724.694,-529 711.24,-519.739 695.098,-513.607 679.103,-509.314"/>
<polygon fill="black" stroke="black" points="679.736,-505.865 669.188,-506.867 678.058,-512.661 679.736,-505.865"/>
</g>
<!-- MyMiddlewareManager -->
<g id="node54" class="node"><title>MyMiddlewareManager</title>
<polygon fill="none" stroke="black" points="670.555,-457 538.555,-457 538.555,-453 534.555,-453 534.555,-449 538.555,-449 538.555,-429 534.555,-429 534.555,-425 538.555,-425 538.555,-421 670.555,-421 670.555,-457"/>
<polyline fill="none" stroke="black" points="538.555,-453 542.555,-453 542.555,-449 538.555,-449 "/>
<polyline fill="none" stroke="black" points="538.555,-429 542.555,-429 542.555,-425 538.555,-425 "/>
<text text-anchor="middle" x="604.555" y="-435.9" font-family="Times,serif" font-size="12.00">MyMiddlewareManager</text>
</g>
<!-- MyMiddlewareManager&#45;&gt;ComponentBase -->
<g id="edge73" class="edge"><title>MyMiddlewareManager&#45;&gt;ComponentBase</title>
<path fill="none" stroke="black" stroke-dasharray="1,5" d="M670.705,-428.487C758.722,-415.905 909.181,-400.644 948.694,-436 1038.21,-516.1 1074.06,-1423.09 1080.09,-1595.72"/>
<polygon fill="black" stroke="black" points="1076.6,-1595.92 1080.44,-1605.8 1083.59,-1595.68 1076.6,-1595.92"/>
</g>
<!-- RouteHookManager -->
<g id="node59" class="node"><title>RouteHookManager</title>
<polygon fill="none" stroke="black" points="907.694,-511 793.694,-511 793.694,-507 789.694,-507 789.694,-503 793.694,-503 793.694,-483 789.694,-483 789.694,-479 793.694,-479 793.694,-475 907.694,-475 907.694,-511"/>
<polyline fill="none" stroke="black" points="793.694,-507 797.694,-507 797.694,-503 793.694,-503 "/>
<polyline fill="none" stroke="black" points="793.694,-483 797.694,-483 797.694,-479 793.694,-479 "/>
<text text-anchor="middle" x="850.694" y="-489.9" font-family="Times,serif" font-size="12.00">RouteHookManager</text>
</g>
<!-- MyMiddlewareManager&#45;&gt;RouteHookManager -->
<g id="edge87" class="edge"><title>MyMiddlewareManager&#45;&gt;RouteHookManager</title>
<path fill="none" stroke="black" d="M670.659,-453.4C705.5,-461.106 748.322,-470.578 783.35,-478.326"/>
<polygon fill="black" stroke="black" points="782.96,-481.824 793.48,-480.566 784.472,-474.989 782.96,-481.824"/>
</g>
<!-- X_Core_Route -->
<g id="node64" class="node"><title>X_Core_Route</title>
<polygon fill="none" stroke="black" points="892.194,-559 791.194,-559 791.194,-535 892.194,-535 892.194,-529 910.194,-547 892.194,-565 892.194,-559"/>
<text text-anchor="middle" x="850.694" y="-543.9" font-family="Times,serif" font-size="12.00">DuckPhp\Core\Route</text>
</g>
<!-- MyMiddlewareManager&#45;&gt;X_Core_Route -->
<g id="edge88" class="edge"><title>MyMiddlewareManager&#45;&gt;X_Core_Route</title>
<path fill="none" stroke="black" d="M670.73,-444.618C689.363,-448.555 708.884,-455.118 724.694,-466 748.455,-482.354 737.535,-502.805 760.694,-520 766.984,-524.67 774.086,-528.539 781.467,-531.744"/>
<polygon fill="black" stroke="black" points="780.337,-535.061 790.925,-535.459 782.896,-528.545 780.337,-535.061"/>
</g>
<!-- RedisManager -->
<g id="node55" class="node"><title>RedisManager</title>
<polygon fill="none" stroke="black" points="647.555,-295 561.555,-295 561.555,-291 557.555,-291 557.555,-287 561.555,-287 561.555,-267 557.555,-267 557.555,-263 561.555,-263 561.555,-259 647.555,-259 647.555,-295"/>
<polyline fill="none" stroke="black" points="561.555,-291 565.555,-291 565.555,-287 561.555,-287 "/>
<polyline fill="none" stroke="black" points="561.555,-267 565.555,-267 565.555,-263 561.555,-263 "/>
<text text-anchor="middle" x="604.555" y="-273.9" font-family="Times,serif" font-size="12.00">RedisManager</text>
</g>
<!-- RedisManager&#45;&gt;ComponentBase -->
<g id="edge74" class="edge"><title>RedisManager&#45;&gt;ComponentBase</title>
<path fill="none" stroke="black" stroke-dasharray="1,5" d="M647.686,-272.093C721.052,-266.153 871.767,-265.977 948.694,-352 1034.59,-448.048 1073.53,-1415.84 1080.04,-1595.41"/>
<polygon fill="black" stroke="black" points="1076.55,-1595.77 1080.4,-1605.64 1083.54,-1595.52 1076.55,-1595.77"/>
</g>
<!-- RedisCache -->
<g id="node56" class="node"><title>RedisCache</title>
<polygon fill="none" stroke="black" points="641.555,-241 567.555,-241 567.555,-237 563.555,-237 563.555,-233 567.555,-233 567.555,-213 563.555,-213 563.555,-209 567.555,-209 567.555,-205 641.555,-205 641.555,-241"/>
<polyline fill="none" stroke="black" points="567.555,-237 571.555,-237 571.555,-233 567.555,-233 "/>
<polyline fill="none" stroke="black" points="567.555,-213 571.555,-213 571.555,-209 567.555,-209 "/>
<text text-anchor="middle" x="604.555" y="-219.9" font-family="Times,serif" font-size="12.00">RedisCache</text>
</g>
<!-- RedisCache&#45;&gt;ComponentBase -->
<g id="edge75" class="edge"><title>RedisCache&#45;&gt;ComponentBase</title>
<path fill="none" stroke="black" stroke-dasharray="1,5" d="M641.684,-215.192C712.063,-202.332 867.717,-185.827 948.694,-270 1044.12,-369.193 1075.49,-1410.4 1080.34,-1595.83"/>
<polygon fill="black" stroke="black" points="1076.84,-1595.97 1080.6,-1605.88 1083.84,-1595.79 1076.84,-1595.97"/>
</g>
<!-- RouteHookApiServer -->
<g id="node57" class="node"><title>RouteHookApiServer</title>
<polygon fill="none" stroke="black" points="665.055,-187 544.055,-187 544.055,-183 540.055,-183 540.055,-179 544.055,-179 544.055,-159 540.055,-159 540.055,-155 544.055,-155 544.055,-151 665.055,-151 665.055,-187"/>
<polyline fill="none" stroke="black" points="544.055,-183 548.055,-183 548.055,-179 544.055,-179 "/>
<polyline fill="none" stroke="black" points="544.055,-159 548.055,-159 548.055,-155 544.055,-155 "/>
<text text-anchor="middle" x="604.555" y="-165.9" font-family="Times,serif" font-size="12.00">RouteHookApiServer</text>
</g>
<!-- RouteHookApiServer&#45;&gt;ComponentBase -->
<g id="edge76" class="edge"><title>RouteHookApiServer&#45;&gt;ComponentBase</title>
<path fill="none" stroke="black" stroke-dasharray="1,5" d="M665.327,-154.416C742.314,-139.576 874.962,-128.04 948.694,-202 1050.97,-304.595 1076.8,-1405.05 1080.52,-1595.88"/>
<polygon fill="black" stroke="black" points="1077.03,-1596.02 1080.72,-1605.95 1084.03,-1595.88 1077.03,-1596.02"/>
</g>
<!-- RouteHookDirectoryMode -->
<g id="node58" class="node"><title>RouteHookDirectoryMode</title>
<polygon fill="none" stroke="black" points="677.055,-1105 532.055,-1105 532.055,-1101 528.055,-1101 528.055,-1097 532.055,-1097 532.055,-1077 528.055,-1077 528.055,-1073 532.055,-1073 532.055,-1069 677.055,-1069 677.055,-1105"/>
<polyline fill="none" stroke="black" points="532.055,-1101 536.055,-1101 536.055,-1097 532.055,-1097 "/>
<polyline fill="none" stroke="black" points="532.055,-1077 536.055,-1077 536.055,-1073 532.055,-1073 "/>
<text text-anchor="middle" x="604.555" y="-1083.9" font-family="Times,serif" font-size="12.00">RouteHookDirectoryMode</text>
</g>
<!-- RouteHookDirectoryMode&#45;&gt;ComponentBase -->
<g id="edge77" class="edge"><title>RouteHookDirectoryMode&#45;&gt;ComponentBase</title>
<path fill="none" stroke="black" stroke-dasharray="1,5" d="M677.136,-1078.92C753.965,-1074.43 874.891,-1080.07 948.694,-1147 1017.05,-1208.99 1063.85,-1502.63 1077.16,-1595.66"/>
<polygon fill="black" stroke="black" points="1073.72,-1596.33 1078.58,-1605.74 1080.65,-1595.35 1073.72,-1596.33"/>
</g>
<!-- RouteHookManager&#45;&gt;ComponentBase -->
<g id="edge78" class="edge"><title>RouteHookManager&#45;&gt;ComponentBase</title>
<path fill="none" stroke="black" stroke-dasharray="1,5" d="M907.726,-497.147C923.082,-501.029 938.334,-507.929 948.694,-520 1021.13,-604.393 1070.4,-1431.51 1079.51,-1595.74"/>
<polygon fill="black" stroke="black" points="1076.03,-1596.2 1080.07,-1605.99 1083.02,-1595.81 1076.03,-1596.2"/>
</g>
<!-- RouteHookRewrite -->
<g id="node60" class="node"><title>RouteHookRewrite</title>
<polygon fill="none" stroke="black" points="659.555,-1051 549.555,-1051 549.555,-1047 545.555,-1047 545.555,-1043 549.555,-1043 549.555,-1023 545.555,-1023 545.555,-1019 549.555,-1019 549.555,-1015 659.555,-1015 659.555,-1051"/>
<polyline fill="none" stroke="black" points="549.555,-1047 553.555,-1047 553.555,-1043 549.555,-1043 "/>
<polyline fill="none" stroke="black" points="549.555,-1023 553.555,-1023 553.555,-1019 549.555,-1019 "/>
<text text-anchor="middle" x="604.555" y="-1029.9" font-family="Times,serif" font-size="12.00">RouteHookRewrite</text>
</g>
<!-- RouteHookRewrite&#45;&gt;ComponentBase -->
<g id="edge79" class="edge"><title>RouteHookRewrite&#45;&gt;ComponentBase</title>
<path fill="none" stroke="black" stroke-dasharray="1,5" d="M659.783,-1036.6C751.067,-1043.15 927.584,-1058.09 948.694,-1077 1027.95,-1148 1068.14,-1494.16 1078.37,-1595.86"/>
<polygon fill="black" stroke="black" points="1074.9,-1596.37 1079.37,-1605.97 1081.87,-1595.68 1074.9,-1596.37"/>
</g>
<!-- SimpleModel -->
<g id="node61" class="node"><title>SimpleModel</title>
<polygon fill="none" stroke="black" points="659.055,-349 550.055,-349 550.055,-345 546.055,-345 546.055,-341 550.055,-341 550.055,-321 546.055,-321 546.055,-317 550.055,-317 550.055,-313 659.055,-313 659.055,-349"/>
<polyline fill="none" stroke="black" points="550.055,-345 554.055,-345 554.055,-341 550.055,-341 "/>
<polyline fill="none" stroke="black" points="550.055,-321 554.055,-321 554.055,-317 550.055,-317 "/>
<text text-anchor="middle" x="604.555" y="-327.9" font-family="Times,serif" font-size="12.00">SimpleModel(todo)</text>
</g>
<!-- SimpleModel&#45;&gt;ComponentBase -->
<g id="edge80" class="edge"><title>SimpleModel&#45;&gt;ComponentBase</title>
<path fill="none" stroke="black" stroke-dasharray="1,5" d="M659.302,-329.765C682.804,-332.211 708.625,-339.512 724.694,-358 787.891,-430.706 698.306,-716.599 760.694,-790 816.473,-855.624 890.226,-773.76 948.694,-837 1054.14,-951.05 1076.39,-1469.03 1080.3,-1595.89"/>
<polygon fill="black" stroke="black" points="1076.8,-1596.07 1080.59,-1605.97 1083.8,-1595.87 1076.8,-1596.07"/>
</g>
<!-- SimpleModel&#45;&gt;Db_Db -->
<g id="edge93" class="edge"><title>SimpleModel&#45;&gt;Db_Db</title>
<path fill="none" stroke="black" stroke-dasharray="5,2" d="M659.142,-331.138C682.179,-328.396 707.667,-321.165 724.694,-304 777.555,-250.713 716.315,-199.533 760.694,-139 775.737,-118.482 801.708,-104.981 821.725,-97.0561"/>
<polygon fill="black" stroke="black" points="823.122,-100.271 831.279,-93.5096 820.686,-93.7084 823.122,-100.271"/>
</g>
<!-- StaticReplacer -->
<g id="node62" class="node"><title>StaticReplacer</title>
<polygon fill="none" stroke="black" points="647.055,-997 562.055,-997 562.055,-993 558.055,-993 558.055,-989 562.055,-989 562.055,-969 558.055,-969 558.055,-965 562.055,-965 562.055,-961 647.055,-961 647.055,-997"/>
<polyline fill="none" stroke="black" points="562.055,-993 566.055,-993 566.055,-989 562.055,-989 "/>
<polyline fill="none" stroke="black" points="562.055,-969 566.055,-969 566.055,-965 562.055,-965 "/>
<text text-anchor="middle" x="604.555" y="-975.9" font-family="Times,serif" font-size="12.00">StaticReplacer</text>
</g>
<!-- StaticReplacer&#45;&gt;ComponentBase -->
<g id="edge81" class="edge"><title>StaticReplacer&#45;&gt;ComponentBase</title>
<path fill="none" stroke="black" stroke-dasharray="1,5" d="M647.062,-985.376C735.999,-999.207 937.806,-1031.56 948.694,-1042 1030.5,-1120.44 1069.13,-1489.81 1078.64,-1595.61"/>
<polygon fill="black" stroke="black" points="1075.18,-1596.18 1079.54,-1605.83 1082.15,-1595.56 1075.18,-1596.18"/>
</g>
<!-- StrictCheck -->
<g id="node63" class="node"><title>StrictCheck</title>
<polygon fill="none" stroke="black" points="640.555,-781 568.555,-781 568.555,-777 564.555,-777 564.555,-773 568.555,-773 568.555,-753 564.555,-753 564.555,-749 568.555,-749 568.555,-745 640.555,-745 640.555,-781"/>
<polyline fill="none" stroke="black" points="568.555,-777 572.555,-777 572.555,-773 568.555,-773 "/>
<polyline fill="none" stroke="black" points="568.555,-753 572.555,-753 572.555,-749 568.555,-749 "/>
<text text-anchor="middle" x="604.555" y="-759.9" font-family="Times,serif" font-size="12.00">StrictCheck</text>
</g>
<!-- StrictCheck&#45;&gt;ComponentBase -->
<g id="edge82" class="edge"><title>StrictCheck&#45;&gt;ComponentBase</title>
<path fill="none" stroke="black" stroke-dasharray="1,5" d="M640.697,-762.571C666.706,-764.069 701.504,-770.128 724.694,-790 757.722,-818.301 727.552,-852.834 760.694,-881 825.86,-936.381 889.087,-860.676 948.694,-922 1044.78,-1020.85 1073.78,-1477.41 1079.75,-1595.86"/>
<polygon fill="black" stroke="black" points="1076.26,-1596.13 1080.25,-1605.95 1083.25,-1595.79 1076.26,-1596.13"/>
</g>
<!-- X_DbManager -->
<g id="node66" class="node"><title>X_DbManager</title>
<polygon fill="none" stroke="black" points="922.694,-775 760.694,-775 760.694,-751 922.694,-751 922.694,-745 940.694,-763 922.694,-781 922.694,-775"/>
<text text-anchor="middle" x="850.694" y="-759.9" font-family="Times,serif" font-size="12.00">DuckPhp\Component\DbManager</text>
</g>
<!-- StrictCheck&#45;&gt;X_DbManager -->
<g id="edge94" class="edge"><title>StrictCheck&#45;&gt;X_DbManager</title>
<path fill="none" stroke="black" d="M640.795,-763C669.463,-763 711.378,-763 750.152,-763"/>
<polygon fill="black" stroke="black" points="750.46,-766.5 760.46,-763 750.46,-759.5 750.46,-766.5"/>
</g>
</g>
</svg>
