<?xml version="1.0" encoding="UTF-8" standalone="no"?>
<!DOCTYPE svg PUBLIC "-//W3C//DTD SVG 1.1//EN"
 "http://www.w3.org/Graphics/SVG/1.1/DTD/svg11.dtd">
<!-- Generated by graphviz version 2.38.0 (20140413.2041)
 -->
<!-- Title: DuckPhp Pages: 1 -->
<svg width="1341pt" height="2135pt"
 viewBox="0.00 0.00 1341.47 2135.33" xmlns="http://www.w3.org/2000/svg" xmlns:xlink="http://www.w3.org/1999/xlink">
<g id="graph0" class="graph" transform="scale(1 1) rotate(0) translate(4 2131.33)">
<title>DuckPhp</title>
<polygon fill="white" stroke="none" points="-4,4 -4,-2131.33 1337.47,-2131.33 1337.47,4 -4,4"/>
<g id="clust1" class="cluster"><title>cluster_HttpServer</title>
<polygon fill="none" stroke="black" points="34.1171,-167 34.1171,-348 168.515,-348 168.515,-167 34.1171,-167"/>
<text text-anchor="middle" x="101.316" y="-334.4" font-family="Times,serif" font-size="12.00">[DuckPhp\HttpServer]</text>
</g>
<g id="clust2" class="cluster"><title>cluster_SingletonEx</title>
<polygon fill="none" stroke="black" points="8,-991 8,-1118 194.632,-1118 194.632,-991 8,-991"/>
<text text-anchor="middle" x="101.316" y="-1104.4" font-family="Times,serif" font-size="12.00">[DuckPhp\SingletonEx]</text>
</g>
<g id="clust3" class="cluster"><title>cluster_ThrowOn</title>
<polygon fill="none" stroke="black" points="18.4469,-1444 18.4469,-1517 184.185,-1517 184.185,-1444 18.4469,-1444"/>
<text text-anchor="middle" x="101.316" y="-1503.4" font-family="Times,serif" font-size="12.00">[DuckPhp\ThrowOn]</text>
</g>
<g id="clust4" class="cluster"><title>cluster_Core</title>
<polygon fill="none" stroke="black" points="397.142,-1654 397.142,-2091 1325.47,-2091 1325.47,-1654 397.142,-1654"/>
<text text-anchor="middle" x="861.308" y="-2077.4" font-family="Times,serif" font-size="12.00">[DuckPhp\Core]</text>
</g>
<g id="clust5" class="cluster"><title>cluster_Helper</title>
<polygon fill="none" stroke="black" points="8.87057,-1684 8.87057,-1973 377.142,-1973 377.142,-1684 8.87057,-1684"/>
<text text-anchor="middle" x="193.006" y="-1959.4" font-family="Times,serif" font-size="12.00">[DuckPhp\Helper]</text>
</g>
<g id="clust6" class="cluster"><title>cluster_Db</title>
<polygon fill="none" stroke="black" points="837.725,-8 837.725,-135 1176.47,-135 1176.47,-8 837.725,-8"/>
<text text-anchor="middle" x="1007.1" y="-121.4" font-family="Times,serif" font-size="12.00">[DuckPhp\Db]</text>
</g>
<g id="clust7" class="cluster"><title>cluster_Component</title>
<polygon fill="none" stroke="black" points="540.222,-1172 540.222,-1623 967.083,-1623 967.083,-1172 540.222,-1172"/>
<text text-anchor="middle" x="753.652" y="-1609.4" font-family="Times,serif" font-size="12.00">[DuckPhp\Component]</text>
</g>
<g id="clust8" class="cluster"><title>cluster_DuckPhp</title>
<polygon fill="none" stroke="black" points="233.911,-1334 233.911,-1407 357.862,-1407 357.862,-1334 233.911,-1334"/>
<text text-anchor="middle" x="295.887" y="-1393.4" font-family="Times,serif" font-size="12.00">[DuckPhp]</text>
</g>
<g id="clust9" class="cluster"><title>cluster_Ext</title>
<polygon fill="none" stroke="black" points="546.944,-143 546.944,-1134 971.583,-1134 971.583,-143 546.944,-143"/>
<text text-anchor="middle" x="759.263" y="-1120.4" font-family="Times,serif" font-size="12.00">[DuckPhp\Ext]</text>
</g>
<!-- AppInterface -->
<g id="node1" class="node"><title>AppInterface</title>
<polygon fill="none" stroke="black" points="134.816,-319 61.816,-319 61.816,-283 140.816,-283 140.816,-313 134.816,-319"/>
<polyline fill="none" stroke="black" points="134.816,-319 134.816,-313 "/>
<polyline fill="none" stroke="black" points="140.816,-313 134.816,-313 "/>
<text text-anchor="middle" x="101.316" y="-297.9" font-family="Times,serif" font-size="12.00">AppInterface</text>
</g>
<!-- HttpServer -->
<g id="node2" class="node"><title>HttpServer</title>
<polygon fill="lightgrey" stroke="black" points="101.316,-265 41.9176,-247 101.316,-229 160.714,-247 101.316,-265"/>
<polyline fill="none" stroke="black" points="53.4019,-250.48 53.4019,-243.52 "/>
<polyline fill="none" stroke="black" points="89.8317,-232.48 112.8,-232.48 "/>
<polyline fill="none" stroke="black" points="149.23,-243.52 149.23,-250.48 "/>
<polyline fill="none" stroke="black" points="112.8,-261.52 89.8317,-261.52 "/>
<text text-anchor="middle" x="101.316" y="-243.9" font-family="Times,serif" font-size="12.00">HttpServer</text>
</g>
<!-- ServerInterface -->
<g id="node3" class="node"><title>ServerInterface</title>
<polygon fill="none" stroke="black" points="139.816,-211 56.816,-211 56.816,-175 145.816,-175 145.816,-205 139.816,-211"/>
<polyline fill="none" stroke="black" points="139.816,-211 139.816,-205 "/>
<polyline fill="none" stroke="black" points="145.816,-205 139.816,-205 "/>
<text text-anchor="middle" x="101.316" y="-189.9" font-family="Times,serif" font-size="12.00">ServerInterface</text>
</g>
<!-- SingletonExTrait -->
<g id="node4" class="node"><title>SingletonExTrait</title>
<polygon fill="lightgrey" stroke="black" points="101.316,-1089 16.1836,-1071 101.316,-1053 186.448,-1071 101.316,-1089"/>
<polyline fill="none" stroke="black" points="27.924,-1073.48 27.924,-1068.52 "/>
<polyline fill="none" stroke="black" points="89.5756,-1055.48 113.056,-1055.48 "/>
<polyline fill="none" stroke="black" points="174.708,-1068.52 174.708,-1073.48 "/>
<polyline fill="none" stroke="black" points="113.056,-1086.52 89.5756,-1086.52 "/>
<text text-anchor="middle" x="101.316" y="-1067.9" font-family="Times,serif" font-size="12.00">SingletonExTrait</text>
</g>
<!-- SimpleReplacer -->
<g id="node5" class="node"><title>SimpleReplacer</title>
<ellipse fill="none" stroke="black" cx="101.316" cy="-1017" rx="56.7683" ry="18"/>
<text text-anchor="middle" x="101.316" y="-1013.9" font-family="Times,serif" font-size="12.00">SimpleReplacer</text>
</g>
<!-- ThrowOnTrait -->
<g id="node6" class="node"><title>ThrowOnTrait</title>
<polygon fill="lightgrey" stroke="black" points="101.316,-1488 26.5775,-1470 101.316,-1452 176.055,-1470 101.316,-1488"/>
<polyline fill="none" stroke="black" points="38.2439,-1472.81 38.2439,-1467.19 "/>
<polyline fill="none" stroke="black" points="89.6496,-1454.81 112.982,-1454.81 "/>
<polyline fill="none" stroke="black" points="164.388,-1467.19 164.388,-1472.81 "/>
<polyline fill="none" stroke="black" points="112.982,-1485.19 89.6496,-1485.19 "/>
<text text-anchor="middle" x="101.316" y="-1466.9" font-family="Times,serif" font-size="12.00">ThrowOnTrait</text>
</g>
<!-- App -->
<g id="node7" class="node"><title>App</title>
<polygon fill="lightgrey" stroke="black" points="438.223,-1837 405.06,-1819 438.223,-1801 471.387,-1819 438.223,-1837"/>
<polyline fill="none" stroke="black" points="415.606,-1824.72 415.606,-1813.28 "/>
<polyline fill="none" stroke="black" points="427.677,-1806.72 448.77,-1806.72 "/>
<polyline fill="none" stroke="black" points="460.84,-1813.28 460.84,-1824.72 "/>
<polyline fill="none" stroke="black" points="448.77,-1831.28 427.677,-1831.28 "/>
<text text-anchor="middle" x="438.223" y="-1815.9" font-family="Times,serif" font-size="12.00">App</text>
</g>
<!-- KernelTrait -->
<g id="node8" class="node"><title>KernelTrait</title>
<polygon fill="none" stroke="black" points="627.444,-1891 565.822,-1873 627.444,-1855 689.066,-1873 627.444,-1891"/>
<text text-anchor="middle" x="627.444" y="-1869.9" font-family="Times,serif" font-size="12.00">KernelTrait</text>
</g>
<!-- App&#45;&gt;KernelTrait -->
<g id="edge8" class="edge"><title>App&#45;&gt;KernelTrait</title>
<path fill="none" stroke="black" d="M457.155,-1826.99C470.728,-1832.83 489.936,-1840.62 507.305,-1846 530.76,-1853.26 557.366,-1859.48 579.476,-1864.11"/>
<polygon fill="black" stroke="black" points="578.791,-1867.54 589.291,-1866.12 580.199,-1860.68 578.791,-1867.54"/>
</g>
<!-- AutoLoader -->
<g id="node9" class="node"><title>AutoLoader</title>
<polygon fill="lightgrey" stroke="black" points="873.583,-2022 809.238,-2004 873.583,-1986 937.928,-2004 873.583,-2022"/>
<polyline fill="none" stroke="black" points="820.795,-2007.23 820.795,-2000.77 "/>
<polyline fill="none" stroke="black" points="862.027,-1989.23 885.139,-1989.23 "/>
<polyline fill="none" stroke="black" points="926.371,-2000.77 926.371,-2007.23 "/>
<polyline fill="none" stroke="black" points="885.139,-2018.77 862.027,-2018.77 "/>
<text text-anchor="middle" x="873.583" y="-2000.9" font-family="Times,serif" font-size="12.00">AutoLoader</text>
</g>
<!-- App&#45;&gt;AutoLoader -->
<g id="edge11" class="edge"><title>App&#45;&gt;AutoLoader</title>
<path fill="none" stroke="black" d="M445.088,-1833.34C454.645,-1854.7 475.739,-1894.33 507.305,-1913 599.937,-1967.78 650.238,-1897.11 747.583,-1943 767.49,-1952.38 764.547,-1965.96 783.583,-1977 796.283,-1984.37 811.189,-1989.91 825.133,-1993.99"/>
<polygon fill="black" stroke="black" points="824.501,-1997.44 835.07,-1996.71 826.348,-1990.69 824.501,-1997.44"/>
</g>
<!-- ExceptionManager -->
<g id="node10" class="node"><title>ExceptionManager</title>
<polygon fill="none" stroke="black" points="927.083,-1860 820.083,-1860 820.083,-1856 816.083,-1856 816.083,-1852 820.083,-1852 820.083,-1832 816.083,-1832 816.083,-1828 820.083,-1828 820.083,-1824 927.083,-1824 927.083,-1860"/>
<polyline fill="none" stroke="black" points="820.083,-1856 824.083,-1856 824.083,-1852 820.083,-1852 "/>
<polyline fill="none" stroke="black" points="820.083,-1832 824.083,-1832 824.083,-1828 820.083,-1828 "/>
<text text-anchor="middle" x="873.583" y="-1838.9" font-family="Times,serif" font-size="12.00">ExceptionManager</text>
</g>
<!-- App&#45;&gt;ExceptionManager -->
<g id="edge14" class="edge"><title>App&#45;&gt;ExceptionManager</title>
<path fill="none" stroke="black" d="M455.755,-1810.39C469.223,-1803.89 488.946,-1795.51 507.305,-1792 612.198,-1771.96 645.078,-1762.05 747.583,-1792 765.808,-1797.32 766.337,-1807.06 783.583,-1815 791.984,-1818.87 801.082,-1822.36 810.143,-1825.44"/>
<polygon fill="black" stroke="black" points="809.335,-1828.86 819.927,-1828.63 811.504,-1822.21 809.335,-1828.86"/>
</g>
<!-- View -->
<g id="node11" class="node"><title>View</title>
<polygon fill="none" stroke="black" points="900.583,-1698 846.583,-1698 846.583,-1694 842.583,-1694 842.583,-1690 846.583,-1690 846.583,-1670 842.583,-1670 842.583,-1666 846.583,-1666 846.583,-1662 900.583,-1662 900.583,-1698"/>
<polyline fill="none" stroke="black" points="846.583,-1694 850.583,-1694 850.583,-1690 846.583,-1690 "/>
<polyline fill="none" stroke="black" points="846.583,-1670 850.583,-1670 850.583,-1666 846.583,-1666 "/>
<text text-anchor="middle" x="873.583" y="-1676.9" font-family="Times,serif" font-size="12.00">View</text>
</g>
<!-- App&#45;&gt;View -->
<g id="edge17" class="edge"><title>App&#45;&gt;View</title>
<path fill="none" stroke="black" d="M443.81,-1804C452.104,-1779.73 472.084,-1732.43 507.305,-1711 612.296,-1647.13 766.712,-1661.97 836.267,-1673.13"/>
<polygon fill="black" stroke="black" points="835.849,-1676.6 846.289,-1674.8 837.004,-1669.7 835.849,-1676.6"/>
</g>
<!-- Configer -->
<g id="node12" class="node"><title>Configer</title>
<polygon fill="none" stroke="black" points="903.083,-1914 844.083,-1914 844.083,-1910 840.083,-1910 840.083,-1906 844.083,-1906 844.083,-1886 840.083,-1886 840.083,-1882 844.083,-1882 844.083,-1878 903.083,-1878 903.083,-1914"/>
<polyline fill="none" stroke="black" points="844.083,-1910 848.083,-1910 848.083,-1906 844.083,-1906 "/>
<polyline fill="none" stroke="black" points="844.083,-1886 848.083,-1886 848.083,-1882 844.083,-1882 "/>
<text text-anchor="middle" x="873.583" y="-1892.9" font-family="Times,serif" font-size="12.00">Configer</text>
</g>
<!-- App&#45;&gt;Configer -->
<g id="edge12" class="edge"><title>App&#45;&gt;Configer</title>
<path fill="none" stroke="black" d="M446.078,-1833.13C456.328,-1852.43 477.664,-1886.19 507.305,-1900 564.239,-1926.52 751.735,-1909.61 833.678,-1900.6"/>
<polygon fill="black" stroke="black" points="834.276,-1904.05 843.825,-1899.46 833.498,-1897.09 834.276,-1904.05"/>
</g>
<!-- Logger -->
<g id="node13" class="node"><title>Logger</title>
<polygon fill="none" stroke="black" points="654.444,-1988 600.444,-1988 600.444,-1984 596.444,-1984 596.444,-1980 600.444,-1980 600.444,-1960 596.444,-1960 596.444,-1956 600.444,-1956 600.444,-1952 654.444,-1952 654.444,-1988"/>
<polyline fill="none" stroke="black" points="600.444,-1984 604.444,-1984 604.444,-1980 600.444,-1980 "/>
<polyline fill="none" stroke="black" points="600.444,-1960 604.444,-1960 604.444,-1956 600.444,-1956 "/>
<text text-anchor="middle" x="627.444" y="-1966.9" font-family="Times,serif" font-size="12.00">Logger</text>
</g>
<!-- App&#45;&gt;Logger -->
<g id="edge13" class="edge"><title>App&#45;&gt;Logger</title>
<path fill="none" stroke="black" d="M443.773,-1834.19C452.126,-1859.44 472.334,-1909.92 507.305,-1937 531.17,-1955.48 564.766,-1963.61 590.201,-1967.19"/>
<polygon fill="black" stroke="black" points="589.849,-1970.68 600.203,-1968.43 590.707,-1963.73 589.849,-1970.68"/>
</g>
<!-- Route -->
<g id="node14" class="node"><title>Route</title>
<polygon fill="lightgrey" stroke="black" points="873.583,-1752 834.231,-1734 873.583,-1716 912.935,-1734 873.583,-1752"/>
<polyline fill="none" stroke="black" points="845.143,-1738.99 845.143,-1729.01 "/>
<polyline fill="none" stroke="black" points="862.67,-1720.99 884.495,-1720.99 "/>
<polyline fill="none" stroke="black" points="902.023,-1729.01 902.023,-1738.99 "/>
<polyline fill="none" stroke="black" points="884.495,-1747.01 862.67,-1747.01 "/>
<text text-anchor="middle" x="873.583" y="-1730.9" font-family="Times,serif" font-size="12.00">Route</text>
</g>
<!-- App&#45;&gt;Route -->
<g id="edge15" class="edge"><title>App&#45;&gt;Route</title>
<path fill="none" stroke="black" d="M447.171,-1805.85C458.24,-1788.93 480.045,-1760.25 507.305,-1748 618.023,-1698.24 767.202,-1715.02 835.566,-1726.69"/>
<polygon fill="black" stroke="black" points="835.368,-1730.21 845.825,-1728.51 836.589,-1723.32 835.368,-1730.21"/>
</g>
<!-- RuntimeState -->
<g id="node15" class="node"><title>RuntimeState</title>
<polygon fill="none" stroke="black" points="913.583,-1806 833.583,-1806 833.583,-1802 829.583,-1802 829.583,-1798 833.583,-1798 833.583,-1778 829.583,-1778 829.583,-1774 833.583,-1774 833.583,-1770 913.583,-1770 913.583,-1806"/>
<polyline fill="none" stroke="black" points="833.583,-1802 837.583,-1802 837.583,-1798 833.583,-1798 "/>
<polyline fill="none" stroke="black" points="833.583,-1778 837.583,-1778 837.583,-1774 833.583,-1774 "/>
<text text-anchor="middle" x="873.583" y="-1784.9" font-family="Times,serif" font-size="12.00">RuntimeState</text>
</g>
<!-- App&#45;&gt;RuntimeState -->
<g id="edge16" class="edge"><title>App&#45;&gt;RuntimeState</title>
<path fill="none" stroke="black" d="M450.475,-1807.4C463.027,-1795.38 484.575,-1777.33 507.305,-1770 615.875,-1734.99 751.968,-1757.99 823.476,-1774.81"/>
<polygon fill="black" stroke="black" points="823.005,-1778.3 833.547,-1777.25 824.647,-1771.5 823.005,-1778.3"/>
</g>
<!-- SystemWrapperTrait -->
<g id="node16" class="node"><title>SystemWrapperTrait</title>
<polygon fill="none" stroke="black" points="627.444,-1837 527.212,-1819 627.444,-1801 727.676,-1819 627.444,-1837"/>
<text text-anchor="middle" x="627.444" y="-1815.9" font-family="Times,serif" font-size="12.00">SystemWrapperTrait</text>
</g>
<!-- App&#45;&gt;SystemWrapperTrait -->
<g id="edge10" class="edge"><title>App&#45;&gt;SystemWrapperTrait</title>
<path fill="none" stroke="black" d="M471.408,-1819C484.395,-1819 500.206,-1819 516.706,-1819"/>
<polygon fill="black" stroke="black" points="517.05,-1822.5 527.05,-1819 517.05,-1815.5 517.05,-1822.5"/>
</g>
<!-- ExtendableStaticCallTrait -->
<g id="node17" class="node"><title>ExtendableStaticCallTrait</title>
<polygon fill="none" stroke="black" points="627.444,-2062 507.166,-2044 627.444,-2026 747.722,-2044 627.444,-2062"/>
<text text-anchor="middle" x="627.444" y="-2040.9" font-family="Times,serif" font-size="12.00">ExtendableStaticCallTrait</text>
</g>
<!-- App&#45;&gt;ExtendableStaticCallTrait -->
<g id="edge9" class="edge"><title>App&#45;&gt;ExtendableStaticCallTrait</title>
<path fill="none" stroke="black" d="M442.786,-1834.76C452.463,-1876.25 480.324,-1987.01 507.305,-2012 518.094,-2021.99 531.664,-2028.92 545.749,-2033.72"/>
<polygon fill="black" stroke="black" points="544.969,-2037.14 555.555,-2036.71 547.011,-2030.45 544.969,-2037.14"/>
</g>
<!-- ComponentBase -->
<g id="node19" class="node"><title>ComponentBase</title>
<polygon fill="none" stroke="black" points="1131.53,-1698 1040.53,-1698 1036.53,-1694 1036.53,-1662 1127.53,-1662 1131.53,-1666 1131.53,-1698"/>
<polyline fill="none" stroke="black" points="1127.53,-1694 1036.53,-1694 "/>
<polyline fill="none" stroke="black" points="1127.53,-1694 1127.53,-1662 "/>
<polyline fill="none" stroke="black" points="1127.53,-1694 1131.53,-1698 "/>
<text text-anchor="middle" x="1084.03" y="-1676.9" font-family="Times,serif" font-size="12.00">ComponentBase</text>
</g>
<!-- App&#45;&gt;ComponentBase -->
<g id="edge18" class="edge"><title>App&#45;&gt;ComponentBase</title>
<path fill="none" stroke="black" stroke-dasharray="1,5" d="M440.058,-1836.21C442.844,-1872.69 454.927,-1957.65 507.305,-1997 550.144,-2029.18 697.33,-1998.41 747.583,-2017 766.094,-2023.85 764.804,-2036.93 783.583,-2043 863.085,-2068.71 904.387,-2092.66 971.583,-2043 1026.9,-2002.12 1066.09,-1786.67 1078.68,-1708.43"/>
<polygon fill="black" stroke="black" points="1082.18,-1708.75 1080.28,-1698.33 1075.26,-1707.66 1082.18,-1708.75"/>
</g>
<!-- KernelTrait&#45;&gt;AutoLoader -->
<g id="edge1" class="edge"><title>KernelTrait&#45;&gt;AutoLoader</title>
<path fill="none" stroke="black" d="M658.996,-1881.92C684.612,-1890.49 721.14,-1905.35 747.583,-1927 768.769,-1944.35 761.307,-1961.07 783.583,-1977 794.887,-1985.08 808.65,-1990.78 821.94,-1994.79"/>
<polygon fill="black" stroke="black" points="821.393,-1998.27 831.962,-1997.53 823.242,-1991.51 821.393,-1998.27"/>
</g>
<!-- KernelTrait&#45;&gt;ExceptionManager -->
<g id="edge3" class="edge"><title>KernelTrait&#45;&gt;ExceptionManager</title>
<path fill="none" stroke="black" d="M670.97,-1867.6C709.373,-1862.72 766.38,-1855.49 809.987,-1849.95"/>
<polygon fill="black" stroke="black" points="810.439,-1853.42 819.918,-1848.69 809.557,-1846.47 810.439,-1853.42"/>
</g>
<!-- KernelTrait&#45;&gt;View -->
<g id="edge6" class="edge"><title>KernelTrait&#45;&gt;View</title>
<path fill="none" stroke="black" d="M686.599,-1872.17C708.246,-1868.97 731.445,-1861.65 747.583,-1846 793.392,-1801.57 739.395,-1753.04 783.583,-1707 797.292,-1692.72 818.286,-1685.92 836.442,-1682.72"/>
<polygon fill="black" stroke="black" points="837.063,-1686.16 846.449,-1681.25 836.047,-1679.24 837.063,-1686.16"/>
</g>
<!-- KernelTrait&#45;&gt;Configer -->
<g id="edge2" class="edge"><title>KernelTrait&#45;&gt;Configer</title>
<path fill="none" stroke="black" d="M674.365,-1877.33C720.43,-1881.67 790.585,-1888.28 833.902,-1892.36"/>
<polygon fill="black" stroke="black" points="833.757,-1895.86 844.041,-1893.31 834.414,-1888.89 833.757,-1895.86"/>
</g>
<!-- KernelTrait&#45;&gt;Route -->
<g id="edge4" class="edge"><title>KernelTrait&#45;&gt;Route</title>
<path fill="none" stroke="black" d="M683.336,-1871.23C705.397,-1867.99 729.769,-1860.9 747.583,-1846 779.053,-1819.68 753.076,-1788.43 783.583,-1761 796.509,-1749.38 814.303,-1742.76 830.584,-1738.98"/>
<polygon fill="black" stroke="black" points="831.362,-1742.4 840.469,-1736.98 829.974,-1735.54 831.362,-1742.4"/>
</g>
<!-- KernelTrait&#45;&gt;RuntimeState -->
<g id="edge5" class="edge"><title>KernelTrait&#45;&gt;RuntimeState</title>
<path fill="none" stroke="black" d="M672.923,-1868.17C696.106,-1864.38 724.383,-1857.69 747.583,-1846 766.438,-1836.5 765.081,-1825.17 783.583,-1815 795.993,-1808.18 810.347,-1802.86 823.856,-1798.82"/>
<polygon fill="black" stroke="black" points="824.829,-1802.18 833.503,-1796.1 822.928,-1795.44 824.829,-1802.18"/>
</g>
<!-- Functions -->
<g id="node20" class="node"><title>Functions</title>
<ellipse fill="none" stroke="black" cx="873.583" cy="-1950" rx="38.5652" ry="18"/>
<text text-anchor="middle" x="873.583" y="-1946.9" font-family="Times,serif" font-size="12.00">Functions</text>
</g>
<!-- KernelTrait&#45;&gt;Functions -->
<g id="edge7" class="edge"><title>KernelTrait&#45;&gt;Functions</title>
<path fill="none" stroke="black" d="M657.275,-1882.46C688.391,-1892.62 739.425,-1909.19 783.583,-1923 798.858,-1927.78 815.648,-1932.9 830.489,-1937.39"/>
<polygon fill="black" stroke="black" points="829.825,-1940.85 840.41,-1940.39 831.847,-1934.15 829.825,-1940.85"/>
</g>
<!-- ExceptionManager&#45;&gt;ComponentBase -->
<g id="edge19" class="edge"><title>ExceptionManager&#45;&gt;ComponentBase</title>
<path fill="none" stroke="black" stroke-dasharray="1,5" d="M927.153,-1833.54C942.307,-1829.52 958.316,-1823.62 971.583,-1815 1014.31,-1787.24 1048.87,-1737.94 1067.64,-1707.22"/>
<polygon fill="black" stroke="black" points="1070.83,-1708.71 1072.95,-1698.32 1064.82,-1705.12 1070.83,-1708.71"/>
</g>
<!-- View&#45;&gt;ComponentBase -->
<g id="edge23" class="edge"><title>View&#45;&gt;ComponentBase</title>
<path fill="none" stroke="black" stroke-dasharray="1,5" d="M900.983,-1680C932.29,-1680 985.364,-1680 1026.15,-1680"/>
<polygon fill="black" stroke="black" points="1026.24,-1683.5 1036.24,-1680 1026.24,-1676.5 1026.24,-1683.5"/>
</g>
<!-- Configer&#45;&gt;ComponentBase -->
<g id="edge20" class="edge"><title>Configer&#45;&gt;ComponentBase</title>
<path fill="none" stroke="black" stroke-dasharray="1,5" d="M903.444,-1893.7C924.203,-1890.77 951.894,-1884.12 971.583,-1869 1026.46,-1826.87 1059.56,-1749.4 1074.17,-1707.93"/>
<polygon fill="black" stroke="black" points="1077.57,-1708.8 1077.48,-1698.21 1070.94,-1706.54 1077.57,-1708.8"/>
</g>
<!-- Logger&#45;&gt;ComponentBase -->
<g id="edge24" class="edge"><title>Logger&#45;&gt;ComponentBase</title>
<path fill="none" stroke="black" stroke-dasharray="1,5" d="M654.667,-1973.82C679.59,-1978.18 717.608,-1986.76 747.583,-2002 765.898,-2011.31 764.207,-2024.17 783.583,-2031 822.982,-2044.9 937.867,-2055.67 971.583,-2031 1025.19,-1991.78 1065.19,-1785 1078.36,-1708.49"/>
<polygon fill="black" stroke="black" points="1081.89,-1708.63 1080.11,-1698.19 1074.99,-1707.46 1081.89,-1708.63"/>
</g>
<!-- Route&#45;&gt;ComponentBase -->
<g id="edge21" class="edge"><title>Route&#45;&gt;ComponentBase</title>
<path fill="none" stroke="black" stroke-dasharray="1,5" d="M899.313,-1727.59C930.462,-1719.52 984.936,-1705.41 1026.5,-1694.64"/>
<polygon fill="black" stroke="black" points="1027.43,-1698.02 1036.23,-1692.12 1025.67,-1691.24 1027.43,-1698.02"/>
</g>
<!-- RuntimeState&#45;&gt;ComponentBase -->
<g id="edge22" class="edge"><title>RuntimeState&#45;&gt;ComponentBase</title>
<path fill="none" stroke="black" stroke-dasharray="1,5" d="M913.972,-1780.41C932.069,-1776.08 953.481,-1769.74 971.583,-1761 1002.33,-1746.15 1033.44,-1722.67 1054.95,-1704.81"/>
<polygon fill="black" stroke="black" points="1057.32,-1707.39 1062.7,-1698.27 1052.8,-1702.04 1057.32,-1707.39"/>
</g>
<!-- ComponentInterface -->
<g id="node18" class="node"><title>ComponentInterface</title>
<polygon fill="none" stroke="black" points="1311.47,-1698 1204.47,-1698 1204.47,-1662 1317.47,-1662 1317.47,-1692 1311.47,-1698"/>
<polyline fill="none" stroke="black" points="1311.47,-1698 1311.47,-1692 "/>
<polyline fill="none" stroke="black" points="1317.47,-1692 1311.47,-1692 "/>
<text text-anchor="middle" x="1260.97" y="-1676.9" font-family="Times,serif" font-size="12.00">ComponentInterface</text>
</g>
<!-- ComponentBase&#45;&gt;ComponentInterface -->
<g id="edge25" class="edge"><title>ComponentBase&#45;&gt;ComponentInterface</title>
<path fill="none" stroke="black" d="M1131.91,-1680C1151.05,-1680 1173.51,-1680 1194.24,-1680"/>
<polygon fill="black" stroke="black" points="1194.25,-1683.5 1204.25,-1680 1194.25,-1676.5 1194.25,-1683.5"/>
</g>
<!-- AppHelper -->
<g id="node21" class="node"><title>AppHelper</title>
<polygon fill="lightgrey" stroke="black" points="101.316,-1890 40.4359,-1872 101.316,-1854 162.196,-1872 101.316,-1890"/>
<polyline fill="none" stroke="black" points="51.9435,-1875.4 51.9435,-1868.6 "/>
<polyline fill="none" stroke="black" points="89.8084,-1857.4 112.824,-1857.4 "/>
<polyline fill="none" stroke="black" points="150.689,-1868.6 150.689,-1875.4 "/>
<polyline fill="none" stroke="black" points="112.824,-1886.6 89.8084,-1886.6 "/>
<text text-anchor="middle" x="101.316" y="-1868.9" font-family="Times,serif" font-size="12.00">AppHelper</text>
</g>
<!-- AppHelper&#45;&gt;ExtendableStaticCallTrait -->
<g id="edge31" class="edge"><title>AppHelper&#45;&gt;ExtendableStaticCallTrait</title>
<path fill="none" stroke="black" d="M150.038,-1875.76C166.339,-1879.42 183.297,-1886.29 194.632,-1899 243.551,-1953.86 166.428,-2014.63 222.632,-2062 272.952,-2104.41 466.295,-2075.02 566.079,-2056.27"/>
<polygon fill="black" stroke="black" points="566.849,-2059.68 576.019,-2054.38 565.541,-2052.81 566.849,-2059.68"/>
</g>
<!-- AppHelperTrait -->
<g id="node26" class="node"><title>AppHelperTrait</title>
<ellipse fill="none" stroke="black" cx="295.887" cy="-1872" rx="56.7683" ry="18"/>
<text text-anchor="middle" x="295.887" y="-1868.9" font-family="Times,serif" font-size="12.00">AppHelperTrait</text>
</g>
<!-- AppHelper&#45;&gt;AppHelperTrait -->
<g id="edge36" class="edge"><title>AppHelper&#45;&gt;AppHelperTrait</title>
<path fill="none" stroke="black" d="M162.455,-1872C183.604,-1872 207.476,-1872 229.068,-1872"/>
<polygon fill="black" stroke="black" points="229.136,-1875.5 239.136,-1872 229.136,-1868.5 229.136,-1875.5"/>
</g>
<!-- ControllerHelper -->
<g id="node22" class="node"><title>ControllerHelper</title>
<polygon fill="lightgrey" stroke="black" points="101.316,-1782 16.9251,-1764 101.316,-1746 185.707,-1764 101.316,-1782"/>
<polyline fill="none" stroke="black" points="28.6611,-1766.5 28.6611,-1761.5 "/>
<polyline fill="none" stroke="black" points="89.58,-1748.5 113.052,-1748.5 "/>
<polyline fill="none" stroke="black" points="173.971,-1761.5 173.971,-1766.5 "/>
<polyline fill="none" stroke="black" points="113.052,-1779.5 89.58,-1779.5 "/>
<text text-anchor="middle" x="101.316" y="-1760.9" font-family="Times,serif" font-size="12.00">ControllerHelper</text>
</g>
<!-- ControllerHelper&#45;&gt;ExtendableStaticCallTrait -->
<g id="edge32" class="edge"><title>ControllerHelper&#45;&gt;ExtendableStaticCallTrait</title>
<path fill="none" stroke="black" d="M158.891,-1769.84C172.343,-1773.85 185.442,-1780.4 194.632,-1791 251.998,-1857.14 160.722,-1924.09 222.632,-1986 244.577,-2007.95 425.773,-2027.03 537.861,-2036.88"/>
<polygon fill="black" stroke="black" points="537.883,-2040.4 548.149,-2037.78 538.491,-2033.42 537.883,-2040.4"/>
</g>
<!-- ControllerHelperTrait -->
<g id="node27" class="node"><title>ControllerHelperTrait</title>
<ellipse fill="none" stroke="black" cx="295.887" cy="-1764" rx="73.0105" ry="18"/>
<text text-anchor="middle" x="295.887" y="-1760.9" font-family="Times,serif" font-size="12.00">ControllerHelperTrait</text>
</g>
<!-- ControllerHelper&#45;&gt;ControllerHelperTrait -->
<g id="edge37" class="edge"><title>ControllerHelper&#45;&gt;ControllerHelperTrait</title>
<path fill="none" stroke="black" d="M185.94,-1764C194.695,-1764 203.592,-1764 212.334,-1764"/>
<polygon fill="black" stroke="black" points="212.509,-1767.5 222.508,-1764 212.508,-1760.5 212.509,-1767.5"/>
</g>
<!-- ModelHelper -->
<g id="node23" class="node"><title>ModelHelper</title>
<polygon fill="lightgrey" stroke="black" points="101.316,-1944 31.5243,-1926 101.316,-1908 171.108,-1926 101.316,-1944"/>
<polyline fill="none" stroke="black" points="43.144,-1929 43.144,-1923 "/>
<polyline fill="none" stroke="black" points="89.6962,-1911 112.936,-1911 "/>
<polyline fill="none" stroke="black" points="159.488,-1923 159.488,-1929 "/>
<polyline fill="none" stroke="black" points="112.936,-1941 89.6962,-1941 "/>
<text text-anchor="middle" x="101.316" y="-1922.9" font-family="Times,serif" font-size="12.00">ModelHelper</text>
</g>
<!-- ModelHelper&#45;&gt;ExtendableStaticCallTrait -->
<g id="edge33" class="edge"><title>ModelHelper&#45;&gt;ExtendableStaticCallTrait</title>
<path fill="none" stroke="black" d="M107.73,-1942.44C120.736,-1978.88 157.578,-2065.89 222.632,-2100 345.312,-2164.32 516.428,-2097.57 590.218,-2062.56"/>
<polygon fill="black" stroke="black" points="592.073,-2065.55 599.556,-2058.05 589.029,-2059.24 592.073,-2065.55"/>
</g>
<!-- ModelHelperTrait -->
<g id="node28" class="node"><title>ModelHelperTrait</title>
<ellipse fill="none" stroke="black" cx="295.887" cy="-1926" rx="62.5805" ry="18"/>
<text text-anchor="middle" x="295.887" y="-1922.9" font-family="Times,serif" font-size="12.00">ModelHelperTrait</text>
</g>
<!-- ModelHelper&#45;&gt;ModelHelperTrait -->
<g id="edge38" class="edge"><title>ModelHelper&#45;&gt;ModelHelperTrait</title>
<path fill="none" stroke="black" d="M171.023,-1926C187.75,-1926 205.69,-1926 222.579,-1926"/>
<polygon fill="black" stroke="black" points="222.938,-1929.5 232.938,-1926 222.938,-1922.5 222.938,-1929.5"/>
</g>
<!-- ServiceHelper -->
<g id="node24" class="node"><title>ServiceHelper</title>
<polygon fill="lightgrey" stroke="black" points="101.316,-1836 28.0598,-1818 101.316,-1800 174.572,-1818 101.316,-1836"/>
<polyline fill="none" stroke="black" points="39.7131,-1820.86 39.7131,-1815.14 "/>
<polyline fill="none" stroke="black" points="89.6626,-1802.86 112.969,-1802.86 "/>
<polyline fill="none" stroke="black" points="162.919,-1815.14 162.919,-1820.86 "/>
<polyline fill="none" stroke="black" points="112.969,-1833.14 89.6626,-1833.14 "/>
<text text-anchor="middle" x="101.316" y="-1814.9" font-family="Times,serif" font-size="12.00">ServiceHelper</text>
</g>
<!-- ServiceHelper&#45;&gt;ExtendableStaticCallTrait -->
<g id="edge34" class="edge"><title>ServiceHelper&#45;&gt;ExtendableStaticCallTrait</title>
<path fill="none" stroke="black" d="M154.951,-1822.83C169.72,-1826.72 184.494,-1833.46 194.632,-1845 247.771,-1905.5 162.766,-1970.15 222.632,-2024 268.085,-2064.89 438.658,-2059.39 543.025,-2051.7"/>
<polygon fill="black" stroke="black" points="543.518,-2055.18 553.224,-2050.93 542.988,-2048.2 543.518,-2055.18"/>
</g>
<!-- ServiceHelperTrait -->
<g id="node29" class="node"><title>ServiceHelperTrait</title>
<ellipse fill="none" stroke="black" cx="295.887" cy="-1818" rx="65.7359" ry="18"/>
<text text-anchor="middle" x="295.887" y="-1814.9" font-family="Times,serif" font-size="12.00">ServiceHelperTrait</text>
</g>
<!-- ServiceHelper&#45;&gt;ServiceHelperTrait -->
<g id="edge39" class="edge"><title>ServiceHelper&#45;&gt;ServiceHelperTrait</title>
<path fill="none" stroke="black" d="M174.57,-1818C189.311,-1818 204.856,-1818 219.696,-1818"/>
<polygon fill="black" stroke="black" points="219.84,-1821.5 229.84,-1818 219.84,-1814.5 219.84,-1821.5"/>
</g>
<!-- ViewHelper -->
<g id="node25" class="node"><title>ViewHelper</title>
<polygon fill="lightgrey" stroke="black" points="101.316,-1728 36.2296,-1710 101.316,-1692 166.402,-1710 101.316,-1728"/>
<polyline fill="none" stroke="black" points="47.7955,-1713.2 47.7955,-1706.8 "/>
<polyline fill="none" stroke="black" points="89.7502,-1695.2 112.882,-1695.2 "/>
<polyline fill="none" stroke="black" points="154.837,-1706.8 154.837,-1713.2 "/>
<polyline fill="none" stroke="black" points="112.882,-1724.8 89.7502,-1724.8 "/>
<text text-anchor="middle" x="101.316" y="-1706.9" font-family="Times,serif" font-size="12.00">ViewHelper</text>
</g>
<!-- ViewHelper&#45;&gt;ExtendableStaticCallTrait -->
<g id="edge35" class="edge"><title>ViewHelper&#45;&gt;ExtendableStaticCallTrait</title>
<path fill="none" stroke="black" d="M152.249,-1713.95C167.974,-1717.69 183.995,-1724.56 194.632,-1737 257.554,-1810.56 157.027,-1881.82 222.632,-1953 270.221,-2004.63 308.607,-1970.71 377.142,-1986 443.622,-2000.83 519.868,-2018.7 570.352,-2030.64"/>
<polygon fill="black" stroke="black" points="569.557,-2034.05 580.095,-2032.95 571.171,-2027.24 569.557,-2034.05"/>
</g>
<!-- ViewHelperTrait -->
<g id="node30" class="node"><title>ViewHelperTrait</title>
<ellipse fill="none" stroke="black" cx="295.887" cy="-1710" rx="60.1555" ry="18"/>
<text text-anchor="middle" x="295.887" y="-1706.9" font-family="Times,serif" font-size="12.00">ViewHelperTrait</text>
</g>
<!-- ViewHelper&#45;&gt;ViewHelperTrait -->
<g id="edge40" class="edge"><title>ViewHelper&#45;&gt;ViewHelperTrait</title>
<path fill="none" stroke="black" d="M166.439,-1710C185.266,-1710 205.947,-1710 225.108,-1710"/>
<polygon fill="black" stroke="black" points="225.273,-1713.5 235.273,-1710 225.273,-1706.5 225.273,-1713.5"/>
</g>
<!-- AppHelperTrait&#45;&gt;App -->
<g id="edge26" class="edge"><title>AppHelperTrait&#45;&gt;App</title>
<path fill="none" stroke="black" d="M336.718,-1859.33C349.69,-1855.01 364.104,-1850 377.142,-1845 388.158,-1840.77 400.121,-1835.7 410.45,-1831.16"/>
<polygon fill="black" stroke="black" points="412.053,-1834.28 419.769,-1827.01 409.21,-1827.88 412.053,-1834.28"/>
</g>
<!-- ControllerHelperTrait&#45;&gt;App -->
<g id="edge27" class="edge"><title>ControllerHelperTrait&#45;&gt;App</title>
<path fill="none" stroke="black" d="M341.781,-1778.12C353.393,-1782.04 365.812,-1786.47 377.142,-1791 388.514,-1795.55 400.814,-1801.15 411.305,-1806.15"/>
<polygon fill="black" stroke="black" points="409.826,-1809.32 420.353,-1810.52 412.871,-1803.02 409.826,-1809.32"/>
</g>
<!-- ModelHelperTrait&#45;&gt;App -->
<g id="edge28" class="edge"><title>ModelHelperTrait&#45;&gt;App</title>
<path fill="none" stroke="black" d="M345.43,-1914.88C356.481,-1910.98 367.728,-1905.8 377.142,-1899 397.813,-1884.07 414.535,-1859.95 425.039,-1842.1"/>
<polygon fill="black" stroke="black" points="428.352,-1843.35 430.22,-1832.92 422.256,-1839.91 428.352,-1843.35"/>
</g>
<!-- ServiceHelperTrait&#45;&gt;App -->
<g id="edge29" class="edge"><title>ServiceHelperTrait&#45;&gt;App</title>
<path fill="none" stroke="black" d="M362.125,-1818.46C373.399,-1818.55 384.843,-1818.63 395.286,-1818.7"/>
<polygon fill="black" stroke="black" points="395.327,-1822.2 405.351,-1818.77 395.377,-1815.2 395.327,-1822.2"/>
</g>
<!-- ViewHelperTrait&#45;&gt;App -->
<g id="edge30" class="edge"><title>ViewHelperTrait&#45;&gt;App</title>
<path fill="none" stroke="black" d="M344.649,-1720.75C355.967,-1724.69 367.531,-1729.97 377.142,-1737 398.37,-1752.53 415.243,-1777.76 425.638,-1796.14"/>
<polygon fill="black" stroke="black" points="422.623,-1797.93 430.472,-1805.04 428.774,-1794.59 422.623,-1797.93"/>
</g>
<!-- Db_Db -->
<g id="node31" class="node"><title>Db_Db</title>
<polygon fill="lightgrey" stroke="black" points="873.583,-106 845.866,-88 873.583,-70 901.3,-88 873.583,-106"/>
<polyline fill="none" stroke="black" points="855.105,-94 855.105,-82 "/>
<polyline fill="none" stroke="black" points="864.344,-76 882.822,-76 "/>
<polyline fill="none" stroke="black" points="892.061,-82 892.061,-94 "/>
<polyline fill="none" stroke="black" points="882.822,-100 864.344,-100 "/>
<text text-anchor="middle" x="873.583" y="-84.9" font-family="Times,serif" font-size="12.00">Db</text>
</g>
<!-- Db_DbAdvanceTrait -->
<g id="node32" class="node"><title>Db_DbAdvanceTrait</title>
<polygon fill="none" stroke="black" points="1084.03,-106 999.637,-88 1084.03,-70 1168.42,-88 1084.03,-106"/>
<text text-anchor="middle" x="1084.03" y="-84.9" font-family="Times,serif" font-size="12.00">DbAdvanceTrait</text>
</g>
<!-- Db_Db&#45;&gt;Db_DbAdvanceTrait -->
<g id="edge41" class="edge"><title>Db_Db&#45;&gt;Db_DbAdvanceTrait</title>
<path fill="none" stroke="black" d="M901.407,-88C923.83,-88 957.204,-88 989.248,-88"/>
<polygon fill="black" stroke="black" points="989.59,-91.5001 999.59,-88 989.59,-84.5001 989.59,-91.5001"/>
</g>
<!-- Db_DbInterface -->
<g id="node33" class="node"><title>Db_DbInterface</title>
<polygon fill="none" stroke="black" points="1114.53,-52 1047.53,-52 1047.53,-16 1120.53,-16 1120.53,-46 1114.53,-52"/>
<polyline fill="none" stroke="black" points="1114.53,-52 1114.53,-46 "/>
<polyline fill="none" stroke="black" points="1120.53,-46 1114.53,-46 "/>
<text text-anchor="middle" x="1084.03" y="-30.9" font-family="Times,serif" font-size="12.00">DbInterface</text>
</g>
<!-- Db_Db&#45;&gt;Db_DbInterface -->
<g id="edge42" class="edge"><title>Db_Db&#45;&gt;Db_DbInterface</title>
<path fill="none" stroke="black" d="M893.819,-83.0166C926.239,-74.6178 992.607,-57.4247 1037.47,-45.8027"/>
<polygon fill="black" stroke="black" points="1038.45,-49.1636 1047.25,-43.2676 1036.7,-42.3873 1038.45,-49.1636"/>
</g>
<!-- AppPluginTrait -->
<g id="node34" class="node"><title>AppPluginTrait</title>
<polygon fill="lightgrey" stroke="black" points="627.444,-1594 547.999,-1576 627.444,-1558 706.889,-1576 627.444,-1594"/>
<polyline fill="none" stroke="black" points="559.703,-1578.65 559.703,-1573.35 "/>
<polyline fill="none" stroke="black" points="615.741,-1560.65 639.147,-1560.65 "/>
<polyline fill="none" stroke="black" points="695.185,-1573.35 695.185,-1578.65 "/>
<polyline fill="none" stroke="black" points="639.147,-1591.35 615.741,-1591.35 "/>
<text text-anchor="middle" x="627.444" y="-1572.9" font-family="Times,serif" font-size="12.00">AppPluginTrait</text>
</g>
<!-- AppPluginTrait&#45;&gt;View -->
<g id="edge44" class="edge"><title>AppPluginTrait&#45;&gt;View</title>
<path fill="none" stroke="black" stroke-dasharray="5,2" d="M653.129,-1588.29C683.487,-1603.21 736.755,-1628.76 783.583,-1648 800.814,-1655.08 820.252,-1662.17 836.557,-1667.87"/>
<polygon fill="black" stroke="black" points="835.662,-1671.26 846.257,-1671.23 837.951,-1664.65 835.662,-1671.26"/>
</g>
<!-- AppPluginTrait&#45;&gt;Configer -->
<g id="edge43" class="edge"><title>AppPluginTrait&#45;&gt;Configer</title>
<path fill="none" stroke="black" stroke-dasharray="5,2" d="M659.655,-1586.81C687.365,-1598.11 726.618,-1618.62 747.583,-1650 802.377,-1732.02 718.572,-1794.82 783.583,-1869 796.126,-1883.31 815.986,-1890.17 833.766,-1893.4"/>
<polygon fill="black" stroke="black" points="833.516,-1896.9 843.923,-1894.92 834.548,-1889.98 833.516,-1896.9"/>
</g>
<!-- AppPluginTrait&#45;&gt;Route -->
<g id="edge45" class="edge"><title>AppPluginTrait&#45;&gt;Route</title>
<path fill="none" stroke="black" stroke-dasharray="5,2" d="M654.961,-1588.07C680.801,-1600.79 720.105,-1622.73 747.583,-1650 768.849,-1671.11 759.748,-1688.84 783.583,-1707 797.623,-1717.7 815.901,-1724.18 832.236,-1728.1"/>
<polygon fill="black" stroke="black" points="831.589,-1731.54 842.102,-1730.22 833.062,-1724.7 831.589,-1731.54"/>
</g>
<!-- Cache -->
<g id="node35" class="node"><title>Cache</title>
<polygon fill="none" stroke="black" points="654.444,-1486 600.444,-1486 600.444,-1482 596.444,-1482 596.444,-1478 600.444,-1478 600.444,-1458 596.444,-1458 596.444,-1454 600.444,-1454 600.444,-1450 654.444,-1450 654.444,-1486"/>
<polyline fill="none" stroke="black" points="600.444,-1482 604.444,-1482 604.444,-1478 600.444,-1478 "/>
<polyline fill="none" stroke="black" points="600.444,-1458 604.444,-1458 604.444,-1454 600.444,-1454 "/>
<text text-anchor="middle" x="627.444" y="-1464.9" font-family="Times,serif" font-size="12.00">Cache</text>
</g>
<!-- Cache&#45;&gt;ComponentBase -->
<g id="edge46" class="edge"><title>Cache&#45;&gt;ComponentBase</title>
<path fill="none" stroke="black" stroke-dasharray="1,5" d="M654.502,-1467.55C680.726,-1468.42 720.993,-1473.58 747.583,-1495 777.002,-1518.7 753.889,-1548.65 783.583,-1572 850.588,-1624.7 892.423,-1578.37 971.583,-1610 1000.3,-1621.47 1029.8,-1640.38 1051.24,-1655.66"/>
<polygon fill="black" stroke="black" points="1049.46,-1658.7 1059.61,-1661.74 1053.57,-1653.03 1049.46,-1658.7"/>
</g>
<!-- Console -->
<g id="node36" class="node"><title>Console</title>
<polygon fill="lightgrey" stroke="black" points="873.583,-1216 825.078,-1198 873.583,-1180 922.088,-1198 873.583,-1216"/>
<polyline fill="none" stroke="black" points="836.328,-1202.17 836.328,-1193.83 "/>
<polyline fill="none" stroke="black" points="862.333,-1184.17 884.833,-1184.17 "/>
<polyline fill="none" stroke="black" points="910.838,-1193.83 910.838,-1202.17 "/>
<polyline fill="none" stroke="black" points="884.833,-1211.83 862.333,-1211.83 "/>
<text text-anchor="middle" x="873.583" y="-1194.9" font-family="Times,serif" font-size="12.00">Console</text>
</g>
<!-- DbManager -->
<g id="node37" class="node"><title>DbManager</title>
<polygon fill="none" stroke="black" points="664.444,-1432 590.444,-1432 590.444,-1428 586.444,-1428 586.444,-1424 590.444,-1424 590.444,-1404 586.444,-1404 586.444,-1400 590.444,-1400 590.444,-1396 664.444,-1396 664.444,-1432"/>
<polyline fill="none" stroke="black" points="590.444,-1428 594.444,-1428 594.444,-1424 590.444,-1424 "/>
<polyline fill="none" stroke="black" points="590.444,-1404 594.444,-1404 594.444,-1400 590.444,-1400 "/>
<text text-anchor="middle" x="627.444" y="-1410.9" font-family="Times,serif" font-size="12.00">DbManager</text>
</g>
<!-- DbManager&#45;&gt;ComponentBase -->
<g id="edge48" class="edge"><title>DbManager&#45;&gt;ComponentBase</title>
<path fill="none" stroke="black" stroke-dasharray="1,5" d="M664.444,-1413.57C690.383,-1415.12 724.706,-1421.25 747.583,-1441 781.132,-1469.96 749.696,-1505.43 783.583,-1534 848.757,-1588.95 896.151,-1532.29 971.583,-1572 1009.5,-1591.96 1043.31,-1628.8 1063.49,-1653.84"/>
<polygon fill="black" stroke="black" points="1060.86,-1656.15 1069.8,-1661.84 1066.35,-1651.82 1060.86,-1656.15"/>
</g>
<!-- DbManager&#45;&gt;Db_Db -->
<g id="edge57" class="edge"><title>DbManager&#45;&gt;Db_Db</title>
<path fill="none" stroke="black" stroke-dasharray="5,2" d="M664.635,-1416.57C691.927,-1416.33 727.912,-1410.91 747.583,-1387 835.713,-1279.87 712.303,-258.011 783.583,-139 796.715,-117.074 823.094,-103.703 843.741,-96.1867"/>
<polygon fill="black" stroke="black" points="844.973,-99.4648 853.332,-92.9551 842.738,-92.8312 844.973,-99.4648"/>
</g>
<!-- DuckPhpCommand -->
<g id="node38" class="node"><title>DuckPhpCommand</title>
<polygon fill="none" stroke="black" points="682.944,-1324 571.944,-1324 571.944,-1320 567.944,-1320 567.944,-1316 571.944,-1316 571.944,-1296 567.944,-1296 567.944,-1292 571.944,-1292 571.944,-1288 682.944,-1288 682.944,-1324"/>
<polyline fill="none" stroke="black" points="571.944,-1320 575.944,-1320 575.944,-1316 571.944,-1316 "/>
<polyline fill="none" stroke="black" points="571.944,-1296 575.944,-1296 575.944,-1292 571.944,-1292 "/>
<text text-anchor="middle" x="627.444" y="-1302.9" font-family="Times,serif" font-size="12.00">DuckPhpCommand</text>
</g>
<!-- DuckPhpCommand&#45;&gt;ComponentBase -->
<g id="edge47" class="edge"><title>DuckPhpCommand&#45;&gt;ComponentBase</title>
<path fill="none" stroke="black" stroke-dasharray="1,5" d="M683.032,-1306.58C705.57,-1309.55 730.388,-1316.77 747.583,-1333 789.623,-1372.69 741.081,-1418.81 783.583,-1458 846.251,-1515.79 901.85,-1446.97 971.583,-1496 1027.07,-1535.01 1059.91,-1611.27 1074.32,-1652.3"/>
<polygon fill="black" stroke="black" points="1071.06,-1653.58 1077.59,-1661.93 1077.69,-1651.33 1071.06,-1653.58"/>
</g>
<!-- DuckPhpCommand&#45;&gt;Console -->
<g id="edge54" class="edge"><title>DuckPhpCommand&#45;&gt;Console</title>
<path fill="none" stroke="black" d="M683.244,-1302.33C704.787,-1298.76 728.803,-1291.93 747.583,-1279 771.343,-1262.65 760.424,-1242.19 783.583,-1225 796.557,-1215.37 812.989,-1209.14 828.192,-1205.13"/>
<polygon fill="black" stroke="black" points="829.042,-1208.52 837.957,-1202.8 827.417,-1201.71 829.042,-1208.52"/>
</g>
<!-- Installer -->
<g id="node40" class="node"><title>Installer</title>
<polygon fill="none" stroke="black" points="900.583,-1324 846.583,-1324 846.583,-1320 842.583,-1320 842.583,-1316 846.583,-1316 846.583,-1296 842.583,-1296 842.583,-1292 846.583,-1292 846.583,-1288 900.583,-1288 900.583,-1324"/>
<polyline fill="none" stroke="black" points="846.583,-1320 850.583,-1320 850.583,-1316 846.583,-1316 "/>
<polyline fill="none" stroke="black" points="846.583,-1296 850.583,-1296 850.583,-1292 846.583,-1292 "/>
<text text-anchor="middle" x="873.583" y="-1302.9" font-family="Times,serif" font-size="12.00">Installer</text>
</g>
<!-- DuckPhpCommand&#45;&gt;Installer -->
<g id="edge55" class="edge"><title>DuckPhpCommand&#45;&gt;Installer</title>
<path fill="none" stroke="black" d="M683.234,-1306C729.951,-1306 795.788,-1306 836.247,-1306"/>
<polygon fill="black" stroke="black" points="836.454,-1309.5 846.454,-1306 836.454,-1302.5 836.454,-1309.5"/>
</g>
<!-- X_HttpServer -->
<g id="node45" class="node"><title>X_HttpServer</title>
<polygon fill="none" stroke="black" points="941.083,-1372 788.083,-1372 788.083,-1348 941.083,-1348 941.083,-1342 959.083,-1360 941.083,-1378 941.083,-1372"/>
<text text-anchor="middle" x="873.583" y="-1356.9" font-family="Times,serif" font-size="12.00">DuckPhp\HttpServer\HttpServer</text>
</g>
<!-- DuckPhpCommand&#45;&gt;X_HttpServer -->
<g id="edge56" class="edge"><title>DuckPhpCommand&#45;&gt;X_HttpServer</title>
<path fill="none" stroke="black" stroke-dasharray="5,2" d="M683.234,-1318.12C712.027,-1324.49 748.084,-1332.46 780.986,-1339.74"/>
<polygon fill="black" stroke="black" points="780.564,-1343.23 791.084,-1341.97 782.076,-1336.4 780.564,-1343.23"/>
</g>
<!-- EventManager -->
<g id="node39" class="node"><title>EventManager</title>
<polygon fill="none" stroke="black" points="670.444,-1378 584.444,-1378 584.444,-1374 580.444,-1374 580.444,-1370 584.444,-1370 584.444,-1350 580.444,-1350 580.444,-1346 584.444,-1346 584.444,-1342 670.444,-1342 670.444,-1378"/>
<polyline fill="none" stroke="black" points="584.444,-1374 588.444,-1374 588.444,-1370 584.444,-1370 "/>
<polyline fill="none" stroke="black" points="584.444,-1350 588.444,-1350 588.444,-1346 584.444,-1346 "/>
<text text-anchor="middle" x="627.444" y="-1356.9" font-family="Times,serif" font-size="12.00">EventManager</text>
</g>
<!-- EventManager&#45;&gt;ComponentBase -->
<g id="edge49" class="edge"><title>EventManager&#45;&gt;ComponentBase</title>
<path fill="none" stroke="black" stroke-dasharray="1,5" d="M670.635,-1359.62C695.831,-1361.59 726.859,-1368.18 747.583,-1387 785.35,-1421.3 745.417,-1462.14 783.583,-1496 847.354,-1552.57 899.319,-1488.78 971.583,-1534 1018.08,-1563.1 1052.41,-1619.01 1069.93,-1652.57"/>
<polygon fill="black" stroke="black" points="1066.97,-1654.47 1074.62,-1661.8 1073.21,-1651.3 1066.97,-1654.47"/>
</g>
<!-- Installer&#45;&gt;ComponentBase -->
<g id="edge50" class="edge"><title>Installer&#45;&gt;ComponentBase</title>
<path fill="none" stroke="black" stroke-dasharray="1,5" d="M900.98,-1306.71C922.628,-1308.68 952.681,-1314.83 971.583,-1333 1063.61,-1421.48 1079.8,-1586.04 1082.53,-1651.79"/>
<polygon fill="black" stroke="black" points="1079.04,-1651.95 1082.87,-1661.82 1086.03,-1651.71 1079.04,-1651.95"/>
</g>
<!-- Pager -->
<g id="node41" class="node"><title>Pager</title>
<polygon fill="none" stroke="black" points="654.444,-1270 600.444,-1270 600.444,-1266 596.444,-1266 596.444,-1262 600.444,-1262 600.444,-1242 596.444,-1242 596.444,-1238 600.444,-1238 600.444,-1234 654.444,-1234 654.444,-1270"/>
<polyline fill="none" stroke="black" points="600.444,-1266 604.444,-1266 604.444,-1262 600.444,-1262 "/>
<polyline fill="none" stroke="black" points="600.444,-1242 604.444,-1242 604.444,-1238 600.444,-1238 "/>
<text text-anchor="middle" x="627.444" y="-1248.9" font-family="Times,serif" font-size="12.00">Pager</text>
</g>
<!-- Pager&#45;&gt;ComponentBase -->
<g id="edge51" class="edge"><title>Pager&#45;&gt;ComponentBase</title>
<path fill="none" stroke="black" stroke-dasharray="1,5" d="M654.878,-1250.56C681.792,-1250.59 722.961,-1255.04 747.583,-1279 793.932,-1324.11 736.708,-1375.44 783.583,-1420 845.364,-1478.74 903.849,-1406.24 971.583,-1458 1036.09,-1507.3 1065.99,-1604.15 1077.3,-1651.95"/>
<polygon fill="black" stroke="black" points="1073.93,-1652.93 1079.55,-1661.91 1080.76,-1651.39 1073.93,-1652.93"/>
</g>
<!-- PagerInterface -->
<g id="node42" class="node"><title>PagerInterface</title>
<polygon fill="none" stroke="black" points="910.083,-1270 831.083,-1270 831.083,-1234 916.083,-1234 916.083,-1264 910.083,-1270"/>
<polyline fill="none" stroke="black" points="910.083,-1270 910.083,-1264 "/>
<polyline fill="none" stroke="black" points="916.083,-1264 910.083,-1264 "/>
<text text-anchor="middle" x="873.583" y="-1248.9" font-family="Times,serif" font-size="12.00">PagerInterface</text>
</g>
<!-- Pager&#45;&gt;PagerInterface -->
<g id="edge58" class="edge"><title>Pager&#45;&gt;PagerInterface</title>
<path fill="none" stroke="black" d="M654.571,-1252C694.044,-1252 769.675,-1252 820.635,-1252"/>
<polygon fill="black" stroke="black" points="820.796,-1255.5 830.796,-1252 820.796,-1248.5 820.796,-1255.5"/>
</g>
<!-- RouteHookPathInfoCompat -->
<g id="node43" class="node"><title>RouteHookPathInfoCompat</title>
<polygon fill="none" stroke="black" points="702.444,-1216 552.444,-1216 552.444,-1212 548.444,-1212 548.444,-1208 552.444,-1208 552.444,-1188 548.444,-1188 548.444,-1184 552.444,-1184 552.444,-1180 702.444,-1180 702.444,-1216"/>
<polyline fill="none" stroke="black" points="552.444,-1212 556.444,-1212 556.444,-1208 552.444,-1208 "/>
<polyline fill="none" stroke="black" points="552.444,-1188 556.444,-1188 556.444,-1184 552.444,-1184 "/>
<text text-anchor="middle" x="627.444" y="-1194.9" font-family="Times,serif" font-size="12.00">RouteHookPathInfoCompat</text>
</g>
<!-- RouteHookPathInfoCompat&#45;&gt;ComponentBase -->
<g id="edge52" class="edge"><title>RouteHookPathInfoCompat&#45;&gt;ComponentBase</title>
<path fill="none" stroke="black" stroke-dasharray="1,5" d="M702.665,-1201.61C719.285,-1205.74 735.536,-1212.9 747.583,-1225 799.627,-1277.26 730.271,-1336.03 783.583,-1387 844.901,-1445.62 905.079,-1367.33 971.583,-1420 1046.12,-1479.03 1071.65,-1597.47 1079.68,-1651.7"/>
<polygon fill="black" stroke="black" points="1076.22,-1652.23 1081.06,-1661.66 1083.15,-1651.27 1076.22,-1652.23"/>
</g>
<!-- RouteHookRouteMap -->
<g id="node44" class="node"><title>RouteHookRouteMap</title>
<polygon fill="none" stroke="black" points="688.444,-1540 566.444,-1540 566.444,-1536 562.444,-1536 562.444,-1532 566.444,-1532 566.444,-1512 562.444,-1512 562.444,-1508 566.444,-1508 566.444,-1504 688.444,-1504 688.444,-1540"/>
<polyline fill="none" stroke="black" points="566.444,-1536 570.444,-1536 570.444,-1532 566.444,-1532 "/>
<polyline fill="none" stroke="black" points="566.444,-1512 570.444,-1512 570.444,-1508 566.444,-1508 "/>
<text text-anchor="middle" x="627.444" y="-1518.9" font-family="Times,serif" font-size="12.00">RouteHookRouteMap</text>
</g>
<!-- RouteHookRouteMap&#45;&gt;ComponentBase -->
<g id="edge53" class="edge"><title>RouteHookRouteMap&#45;&gt;ComponentBase</title>
<path fill="none" stroke="black" stroke-dasharray="1,5" d="M688.466,-1525.99C708.741,-1529.72 730.535,-1536.56 747.583,-1549 773.015,-1567.55 758.169,-1591.42 783.583,-1610 852.778,-1660.58 888.152,-1633.35 971.583,-1653 989.401,-1657.2 1008.8,-1661.86 1026.34,-1666.12"/>
<polygon fill="black" stroke="black" points="1025.88,-1669.61 1036.43,-1668.57 1027.54,-1662.81 1025.88,-1669.61"/>
</g>
<!-- DuckPhp -->
<g id="node46" class="node"><title>DuckPhp</title>
<polygon fill="lightgrey" stroke="black" points="295.887,-1378 241.936,-1360 295.887,-1342 349.838,-1360 295.887,-1378"/>
<polyline fill="none" stroke="black" points="253.319,-1363.8 253.319,-1356.2 "/>
<polyline fill="none" stroke="black" points="284.504,-1345.8 307.27,-1345.8 "/>
<polyline fill="none" stroke="black" points="338.455,-1356.2 338.455,-1363.8 "/>
<polyline fill="none" stroke="black" points="307.27,-1374.2 284.504,-1374.2 "/>
<text text-anchor="middle" x="295.887" y="-1356.9" font-family="Times,serif" font-size="12.00">DuckPhp</text>
</g>
<!-- DuckPhp&#45;&gt;App -->
<g id="edge59" class="edge"><title>DuckPhp&#45;&gt;App</title>
<path fill="none" stroke="black" d="M301.799,-1376.07C322.688,-1444.39 404.222,-1711.06 429.624,-1794.14"/>
<polygon fill="black" stroke="black" points="426.295,-1795.23 432.566,-1803.77 432.989,-1793.18 426.295,-1795.23"/>
</g>
<!-- DuckPhp&#45;&gt;Cache -->
<g id="edge65" class="edge"><title>DuckPhp&#45;&gt;Cache</title>
<path fill="none" stroke="black" d="M319.856,-1370.11C358.132,-1386.66 437.646,-1419.82 507.305,-1441 534.702,-1449.33 566.341,-1456.38 590.126,-1461.19"/>
<polygon fill="black" stroke="black" points="589.64,-1464.66 600.13,-1463.17 591.001,-1457.8 589.64,-1464.66"/>
</g>
<!-- DuckPhp&#45;&gt;Console -->
<g id="edge66" class="edge"><title>DuckPhp&#45;&gt;Console</title>
<path fill="none" stroke="black" d="M306.118,-1345.18C331.888,-1305.59 409.194,-1198.49 507.305,-1171 624.129,-1138.26 769.712,-1169.32 836.297,-1187.27"/>
<polygon fill="black" stroke="black" points="835.718,-1190.74 846.289,-1190.02 837.579,-1183.99 835.718,-1190.74"/>
</g>
<!-- DuckPhp&#45;&gt;DbManager -->
<g id="edge62" class="edge"><title>DuckPhp&#45;&gt;DbManager</title>
<path fill="none" stroke="black" d="M332.468,-1365.83C392.424,-1375.65 513.535,-1395.5 580.069,-1406.4"/>
<polygon fill="black" stroke="black" points="579.826,-1409.91 590.26,-1408.07 580.958,-1403 579.826,-1409.91"/>
</g>
<!-- DuckPhp&#45;&gt;DuckPhpCommand -->
<g id="edge67" class="edge"><title>DuckPhp&#45;&gt;DuckPhpCommand</title>
<path fill="none" stroke="black" d="M332.468,-1354.17C387.244,-1345.19 493.064,-1327.86 561.676,-1316.61"/>
<polygon fill="black" stroke="black" points="562.634,-1320 571.936,-1314.93 561.502,-1313.09 562.634,-1320"/>
</g>
<!-- DuckPhp&#45;&gt;EventManager -->
<g id="edge63" class="edge"><title>DuckPhp&#45;&gt;EventManager</title>
<path fill="none" stroke="black" d="M350.202,-1360C411.853,-1360 512.693,-1360 573.98,-1360"/>
<polygon fill="black" stroke="black" points="574.204,-1363.5 584.204,-1360 574.204,-1356.5 574.204,-1363.5"/>
</g>
<!-- DuckPhp&#45;&gt;Pager -->
<g id="edge61" class="edge"><title>DuckPhp&#45;&gt;Pager</title>
<path fill="none" stroke="black" d="M319.856,-1349.89C358.132,-1333.34 437.646,-1300.18 507.305,-1279 534.702,-1270.67 566.341,-1263.62 590.126,-1258.81"/>
<polygon fill="black" stroke="black" points="591.001,-1262.2 600.13,-1256.83 589.64,-1255.34 591.001,-1262.2"/>
</g>
<!-- DuckPhp&#45;&gt;RouteHookPathInfoCompat -->
<g id="edge64" class="edge"><title>DuckPhp&#45;&gt;RouteHookPathInfoCompat</title>
<path fill="none" stroke="black" d="M312.079,-1347.19C345.191,-1320.01 427.326,-1256.44 507.305,-1225 518.408,-1220.64 530.383,-1216.88 542.312,-1213.69"/>
<polygon fill="black" stroke="black" points="543.48,-1217 552.301,-1211.14 541.746,-1210.22 543.48,-1217"/>
</g>
<!-- DuckPhp&#45;&gt;RouteHookRouteMap -->
<g id="edge60" class="edge"><title>DuckPhp&#45;&gt;RouteHookRouteMap</title>
<path fill="none" stroke="black" d="M312.112,-1372.72C345.288,-1399.75 427.539,-1463.02 507.305,-1495 522.71,-1501.18 539.83,-1506.1 556.177,-1509.96"/>
<polygon fill="black" stroke="black" points="555.708,-1513.44 566.233,-1512.23 557.248,-1506.61 555.708,-1513.44"/>
</g>
<!-- CallableView -->
<g id="node47" class="node"><title>CallableView</title>
<polygon fill="none" stroke="black" points="668.444,-673 586.444,-673 586.444,-669 582.444,-669 582.444,-665 586.444,-665 586.444,-645 582.444,-645 582.444,-641 586.444,-641 586.444,-637 668.444,-637 668.444,-673"/>
<polyline fill="none" stroke="black" points="586.444,-669 590.444,-669 590.444,-665 586.444,-665 "/>
<polyline fill="none" stroke="black" points="586.444,-645 590.444,-645 590.444,-641 586.444,-641 "/>
<text text-anchor="middle" x="627.444" y="-651.9" font-family="Times,serif" font-size="12.00">CallableView</text>
</g>
<!-- X_Core_View -->
<g id="node69" class="node"><title>X_Core_View</title>
<polygon fill="none" stroke="black" points="914.083,-775 815.083,-775 815.083,-751 914.083,-751 914.083,-745 932.083,-763 914.083,-781 914.083,-775"/>
<text text-anchor="middle" x="873.583" y="-759.9" font-family="Times,serif" font-size="12.00">DuckPhp\Core\View</text>
</g>
<!-- CallableView&#45;&gt;X_Core_View -->
<g id="edge84" class="edge"><title>CallableView&#45;&gt;X_Core_View</title>
<path fill="none" stroke="black" stroke-dasharray="5,2" d="M668.712,-656.664C693.333,-659.395 724.435,-666.067 747.583,-682 771.343,-698.354 760.424,-718.805 783.583,-736 790.127,-740.859 797.55,-744.851 805.252,-748.13"/>
<polygon fill="black" stroke="black" points="804.154,-751.458 814.744,-751.786 806.67,-744.925 804.154,-751.458"/>
</g>
<!-- EmptyView -->
<g id="node48" class="node"><title>EmptyView</title>
<polygon fill="none" stroke="black" points="664.444,-781 590.444,-781 590.444,-777 586.444,-777 586.444,-773 590.444,-773 590.444,-753 586.444,-753 586.444,-749 590.444,-749 590.444,-745 664.444,-745 664.444,-781"/>
<polyline fill="none" stroke="black" points="590.444,-777 594.444,-777 594.444,-773 590.444,-773 "/>
<polyline fill="none" stroke="black" points="590.444,-753 594.444,-753 594.444,-749 590.444,-749 "/>
<text text-anchor="middle" x="627.444" y="-759.9" font-family="Times,serif" font-size="12.00">EmptyView</text>
</g>
<!-- EmptyView&#45;&gt;X_Core_View -->
<g id="edge85" class="edge"><title>EmptyView&#45;&gt;X_Core_View</title>
<path fill="none" stroke="black" stroke-dasharray="5,2" d="M664.468,-763C701.215,-763 759.129,-763 804.544,-763"/>
<polygon fill="black" stroke="black" points="804.619,-766.5 814.619,-763 804.619,-759.5 804.619,-766.5"/>
</g>
<!-- ExceptionWrapper -->
<g id="node49" class="node"><title>ExceptionWrapper</title>
<polygon fill="none" stroke="black" points="680.444,-997 574.444,-997 574.444,-993 570.444,-993 570.444,-989 574.444,-989 574.444,-969 570.444,-969 570.444,-965 574.444,-965 574.444,-961 680.444,-961 680.444,-997"/>
<polyline fill="none" stroke="black" points="574.444,-993 578.444,-993 578.444,-989 574.444,-989 "/>
<polyline fill="none" stroke="black" points="574.444,-969 578.444,-969 578.444,-965 574.444,-965 "/>
<text text-anchor="middle" x="627.444" y="-975.9" font-family="Times,serif" font-size="12.00">ExceptionWrapper</text>
</g>
<!-- ExceptionWrapper&#45;&gt;ComponentBase -->
<g id="edge68" class="edge"><title>ExceptionWrapper&#45;&gt;ComponentBase</title>
<path fill="none" stroke="black" stroke-dasharray="1,5" d="M680.563,-983.762C702.407,-987.493 727.368,-994.144 747.583,-1006 768.214,-1018.1 762.903,-1033.98 783.583,-1046 857.527,-1088.96 911.993,-1025.66 971.583,-1087 1051.51,-1169.27 1076.25,-1544.75 1081.73,-1651.57"/>
<polygon fill="black" stroke="black" points="1078.25,-1652.07 1082.24,-1661.88 1085.24,-1651.72 1078.25,-1652.07"/>
</g>
<!-- HookChain -->
<g id="node50" class="node"><title>HookChain</title>
<ellipse fill="none" stroke="black" cx="627.444" cy="-925" rx="44.1452" ry="18"/>
<text text-anchor="middle" x="627.444" y="-921.9" font-family="Times,serif" font-size="12.00">HookChain</text>
</g>
<!-- JsonRpcClientBase -->
<g id="node51" class="node"><title>JsonRpcClientBase</title>
<polygon fill="none" stroke="black" points="681.944,-835 572.944,-835 572.944,-831 568.944,-831 568.944,-827 572.944,-827 572.944,-807 568.944,-807 568.944,-803 572.944,-803 572.944,-799 681.944,-799 681.944,-835"/>
<polyline fill="none" stroke="black" points="572.944,-831 576.944,-831 576.944,-827 572.944,-827 "/>
<polyline fill="none" stroke="black" points="572.944,-807 576.944,-807 576.944,-803 572.944,-803 "/>
<text text-anchor="middle" x="627.444" y="-813.9" font-family="Times,serif" font-size="12.00">JsonRpcClientBase</text>
</g>
<!-- JsonRpcClientBase&#45;&gt;ComponentBase -->
<g id="edge92" class="edge"><title>JsonRpcClientBase&#45;&gt;ComponentBase</title>
<path fill="none" stroke="black" stroke-dasharray="1,5" d="M682.132,-817.819C704.774,-820.802 729.921,-827.959 747.583,-844 785.35,-878.3 746.371,-918.098 783.583,-953 846.563,-1012.07 913.4,-938.199 971.583,-1002 1060.55,-1099.55 1078.98,-1535.33 1082.35,-1651.48"/>
<polygon fill="black" stroke="black" points="1078.85,-1651.8 1082.63,-1661.7 1085.85,-1651.6 1078.85,-1651.8"/>
</g>
<!-- JsonRpcExt -->
<g id="node52" class="node"><title>JsonRpcExt</title>
<polygon fill="none" stroke="black" points="910.583,-835 836.583,-835 836.583,-831 832.583,-831 832.583,-827 836.583,-827 836.583,-807 832.583,-807 832.583,-803 836.583,-803 836.583,-799 910.583,-799 910.583,-835"/>
<polyline fill="none" stroke="black" points="836.583,-831 840.583,-831 840.583,-827 836.583,-827 "/>
<polyline fill="none" stroke="black" points="836.583,-807 840.583,-807 840.583,-803 836.583,-803 "/>
<text text-anchor="middle" x="873.583" y="-813.9" font-family="Times,serif" font-size="12.00">JsonRpcExt</text>
</g>
<!-- JsonRpcClientBase&#45;&gt;JsonRpcExt -->
<g id="edge91" class="edge"><title>JsonRpcClientBase&#45;&gt;JsonRpcExt</title>
<path fill="none" stroke="black" stroke-dasharray="5,2" d="M682.021,-811.301C725.24,-809.812 785.395,-809.905 826.486,-811.581"/>
<polygon fill="black" stroke="black" points="826.35,-815.079 836.5,-812.042 826.671,-808.086 826.35,-815.079"/>
</g>
<!-- JsonRpcExt&#45;&gt;ComponentBase -->
<g id="edge69" class="edge"><title>JsonRpcExt&#45;&gt;ComponentBase</title>
<path fill="none" stroke="black" stroke-dasharray="1,5" d="M910.628,-817.668C931.506,-820.057 956.554,-826.723 971.583,-844 1079.66,-968.243 1083.85,-1519.53 1083.28,-1651.53"/>
<polygon fill="black" stroke="black" points="1079.78,-1651.63 1083.22,-1661.65 1086.78,-1651.67 1079.78,-1651.63"/>
</g>
<!-- JsonRpcExt&#45;&gt;JsonRpcClientBase -->
<g id="edge90" class="edge"><title>JsonRpcExt&#45;&gt;JsonRpcClientBase</title>
<path fill="none" stroke="black" d="M836.5,-821.958C798.58,-823.919 738.169,-824.27 692.19,-823.012"/>
<polygon fill="black" stroke="black" points="692.124,-819.509 682.021,-822.699 691.909,-826.505 692.124,-819.509"/>
</g>
<!-- JsonView -->
<g id="node53" class="node"><title>JsonView</title>
<polygon fill="none" stroke="black" points="659.444,-727 595.444,-727 595.444,-723 591.444,-723 591.444,-719 595.444,-719 595.444,-699 591.444,-699 591.444,-695 595.444,-695 595.444,-691 659.444,-691 659.444,-727"/>
<polyline fill="none" stroke="black" points="595.444,-723 599.444,-723 599.444,-719 595.444,-719 "/>
<polyline fill="none" stroke="black" points="595.444,-699 599.444,-699 599.444,-695 595.444,-695 "/>
<text text-anchor="middle" x="627.444" y="-705.9" font-family="Times,serif" font-size="12.00">JsonView</text>
</g>
<!-- JsonView&#45;&gt;X_Core_View -->
<g id="edge93" class="edge"><title>JsonView&#45;&gt;X_Core_View</title>
<path fill="none" stroke="black" stroke-dasharray="5,2" d="M659.861,-715.949C696.292,-724.007 757.401,-737.523 804.798,-748.007"/>
<polygon fill="black" stroke="black" points="804.17,-751.453 814.69,-750.195 805.682,-744.618 804.17,-751.453"/>
</g>
<!-- Misc -->
<g id="node54" class="node"><title>Misc</title>
<polygon fill="none" stroke="black" points="654.444,-403 600.444,-403 600.444,-399 596.444,-399 596.444,-395 600.444,-395 600.444,-375 596.444,-375 596.444,-371 600.444,-371 600.444,-367 654.444,-367 654.444,-403"/>
<polyline fill="none" stroke="black" points="600.444,-399 604.444,-399 604.444,-395 600.444,-395 "/>
<polyline fill="none" stroke="black" points="600.444,-375 604.444,-375 604.444,-371 600.444,-371 "/>
<text text-anchor="middle" x="627.444" y="-381.9" font-family="Times,serif" font-size="12.00">Misc</text>
</g>
<!-- Misc&#45;&gt;ComponentBase -->
<g id="edge70" class="edge"><title>Misc&#45;&gt;ComponentBase</title>
<path fill="none" stroke="black" stroke-dasharray="1,5" d="M654.496,-381.536C719.407,-374.531 889.042,-366.524 971.583,-460 1053.16,-552.381 1078.37,-1477.55 1082.41,-1651.78"/>
<polygon fill="black" stroke="black" points="1078.92,-1652.03 1082.65,-1661.94 1085.92,-1651.87 1078.92,-1652.03"/>
</g>
<!-- MyFacadesAutoLoader -->
<g id="node55" class="node"><title>MyFacadesAutoLoader</title>
<polygon fill="none" stroke="black" points="691.944,-619 562.944,-619 562.944,-615 558.944,-615 558.944,-611 562.944,-611 562.944,-591 558.944,-591 558.944,-587 562.944,-587 562.944,-583 691.944,-583 691.944,-619"/>
<polyline fill="none" stroke="black" points="562.944,-615 566.944,-615 566.944,-611 562.944,-611 "/>
<polyline fill="none" stroke="black" points="562.944,-591 566.944,-591 566.944,-587 562.944,-587 "/>
<text text-anchor="middle" x="627.444" y="-597.9" font-family="Times,serif" font-size="12.00">MyFacadesAutoLoader</text>
</g>
<!-- MyFacadesAutoLoader&#45;&gt;ComponentBase -->
<g id="edge72" class="edge"><title>MyFacadesAutoLoader&#45;&gt;ComponentBase</title>
<path fill="none" stroke="black" stroke-dasharray="1,5" d="M692.278,-587.34C720.167,-582.034 753.35,-576.611 783.583,-574 866.829,-566.81 909.609,-517.957 971.583,-574 1054.05,-648.576 1078.35,-1485.17 1082.38,-1651.39"/>
<polygon fill="black" stroke="black" points="1078.89,-1651.85 1082.63,-1661.77 1085.89,-1651.69 1078.89,-1651.85"/>
</g>
<!-- MyFacadesBase -->
<g id="node56" class="node"><title>MyFacadesBase</title>
<polygon fill="none" stroke="black" points="921.083,-727 826.083,-727 826.083,-723 822.083,-723 822.083,-719 826.083,-719 826.083,-699 822.083,-699 822.083,-695 826.083,-695 826.083,-691 921.083,-691 921.083,-727"/>
<polyline fill="none" stroke="black" points="826.083,-723 830.083,-723 830.083,-719 826.083,-719 "/>
<polyline fill="none" stroke="black" points="826.083,-699 830.083,-699 830.083,-695 826.083,-695 "/>
<text text-anchor="middle" x="873.583" y="-705.9" font-family="Times,serif" font-size="12.00">MyFacadesBase</text>
</g>
<!-- MyFacadesAutoLoader&#45;&gt;MyFacadesBase -->
<g id="edge87" class="edge"><title>MyFacadesAutoLoader&#45;&gt;MyFacadesBase</title>
<path fill="none" stroke="black" d="M692.077,-597.73C711.17,-601.196 731.336,-607.817 747.583,-619 771.343,-635.354 760.424,-655.805 783.583,-673 793.205,-680.144 804.728,-685.415 816.242,-689.518"/>
<polygon fill="black" stroke="black" points="815.275,-692.885 825.869,-692.705 817.476,-686.24 815.275,-692.885"/>
</g>
<!-- MyFacadesBase&#45;&gt;ComponentBase -->
<g id="edge71" class="edge"><title>MyFacadesBase&#45;&gt;ComponentBase</title>
<path fill="none" stroke="black" stroke-dasharray="1,5" d="M921.289,-711.126C939.582,-714.424 959.129,-721.464 971.583,-736 1032.86,-807.523 1073.47,-1502.17 1081.55,-1651.72"/>
<polygon fill="black" stroke="black" points="1078.06,-1652.11 1082.09,-1661.91 1085.05,-1651.73 1078.06,-1652.11"/>
</g>
<!-- MyFacadesBase&#45;&gt;MyFacadesAutoLoader -->
<g id="edge86" class="edge"><title>MyFacadesBase&#45;&gt;MyFacadesAutoLoader</title>
<path fill="none" stroke="black" stroke-dasharray="5,2" d="M825.869,-709.785C811.33,-706.22 795.899,-700.144 783.583,-691 760.424,-673.805 771.343,-653.354 747.583,-637 734.128,-627.739 717.986,-621.607 701.992,-617.314"/>
<polygon fill="black" stroke="black" points="702.624,-613.865 692.077,-614.867 700.947,-620.661 702.624,-613.865"/>
</g>
<!-- MyMiddlewareManager -->
<g id="node57" class="node"><title>MyMiddlewareManager</title>
<polygon fill="none" stroke="black" points="693.444,-565 561.444,-565 561.444,-561 557.444,-561 557.444,-557 561.444,-557 561.444,-537 557.444,-537 557.444,-533 561.444,-533 561.444,-529 693.444,-529 693.444,-565"/>
<polyline fill="none" stroke="black" points="561.444,-561 565.444,-561 565.444,-557 561.444,-557 "/>
<polyline fill="none" stroke="black" points="561.444,-537 565.444,-537 565.444,-533 561.444,-533 "/>
<text text-anchor="middle" x="627.444" y="-543.9" font-family="Times,serif" font-size="12.00">MyMiddlewareManager</text>
</g>
<!-- MyMiddlewareManager&#45;&gt;ComponentBase -->
<g id="edge73" class="edge"><title>MyMiddlewareManager&#45;&gt;ComponentBase</title>
<path fill="none" stroke="black" stroke-dasharray="1,5" d="M693.658,-536.415C781.753,-523.748 932.303,-508.385 971.583,-544 1056.34,-620.848 1078.87,-1483.45 1082.47,-1651.66"/>
<polygon fill="black" stroke="black" points="1078.97,-1651.8 1082.68,-1661.72 1085.97,-1651.65 1078.97,-1651.8"/>
</g>
<!-- RouteHookManager -->
<g id="node62" class="node"><title>RouteHookManager</title>
<polygon fill="none" stroke="black" points="930.583,-673 816.583,-673 816.583,-669 812.583,-669 812.583,-665 816.583,-665 816.583,-645 812.583,-645 812.583,-641 816.583,-641 816.583,-637 930.583,-637 930.583,-673"/>
<polyline fill="none" stroke="black" points="816.583,-669 820.583,-669 820.583,-665 816.583,-665 "/>
<polyline fill="none" stroke="black" points="816.583,-645 820.583,-645 820.583,-641 816.583,-641 "/>
<text text-anchor="middle" x="873.583" y="-651.9" font-family="Times,serif" font-size="12.00">RouteHookManager</text>
</g>
<!-- MyMiddlewareManager&#45;&gt;RouteHookManager -->
<g id="edge88" class="edge"><title>MyMiddlewareManager&#45;&gt;RouteHookManager</title>
<path fill="none" stroke="black" d="M693.619,-552.618C712.251,-556.555 731.772,-563.118 747.583,-574 771.343,-590.354 760.424,-610.805 783.583,-628 790.553,-633.175 798.521,-637.368 806.761,-640.762"/>
<polygon fill="black" stroke="black" points="805.547,-644.045 816.14,-644.264 807.996,-637.487 805.547,-644.045"/>
</g>
<!-- X_Core_Route -->
<g id="node68" class="node"><title>X_Core_Route</title>
<polygon fill="none" stroke="black" points="915.083,-613 814.083,-613 814.083,-589 915.083,-589 915.083,-583 933.083,-601 915.083,-619 915.083,-613"/>
<text text-anchor="middle" x="873.583" y="-597.9" font-family="Times,serif" font-size="12.00">DuckPhp\Core\Route</text>
</g>
<!-- MyMiddlewareManager&#45;&gt;X_Core_Route -->
<g id="edge89" class="edge"><title>MyMiddlewareManager&#45;&gt;X_Core_Route</title>
<path fill="none" stroke="black" stroke-dasharray="5,2" d="M693.548,-561.4C727.618,-568.936 769.319,-578.159 803.901,-585.808"/>
<polygon fill="black" stroke="black" points="803.399,-589.282 813.919,-588.024 804.911,-582.447 803.399,-589.282"/>
</g>
<!-- RedisManager -->
<g id="node58" class="node"><title>RedisManager</title>
<polygon fill="none" stroke="black" points="670.444,-349 584.444,-349 584.444,-345 580.444,-345 580.444,-341 584.444,-341 584.444,-321 580.444,-321 580.444,-317 584.444,-317 584.444,-313 670.444,-313 670.444,-349"/>
<polyline fill="none" stroke="black" points="584.444,-345 588.444,-345 588.444,-341 584.444,-341 "/>
<polyline fill="none" stroke="black" points="584.444,-321 588.444,-321 588.444,-317 584.444,-317 "/>
<text text-anchor="middle" x="627.444" y="-327.9" font-family="Times,serif" font-size="12.00">RedisManager</text>
</g>
<!-- RedisManager&#45;&gt;ComponentBase -->
<g id="edge74" class="edge"><title>RedisManager&#45;&gt;ComponentBase</title>
<path fill="none" stroke="black" stroke-dasharray="1,5" d="M670.547,-321.906C743.526,-308.885 893.204,-294.771 971.583,-377 1062.63,-472.525 1080.22,-1469.3 1082.69,-1651.49"/>
<polygon fill="black" stroke="black" points="1079.19,-1651.67 1082.82,-1661.62 1086.19,-1651.58 1079.19,-1651.67"/>
</g>
<!-- RedisCache -->
<g id="node59" class="node"><title>RedisCache</title>
<polygon fill="none" stroke="black" points="664.444,-295 590.444,-295 590.444,-291 586.444,-291 586.444,-287 590.444,-287 590.444,-267 586.444,-267 586.444,-263 590.444,-263 590.444,-259 664.444,-259 664.444,-295"/>
<polyline fill="none" stroke="black" points="590.444,-291 594.444,-291 594.444,-287 590.444,-287 "/>
<polyline fill="none" stroke="black" points="590.444,-267 594.444,-267 594.444,-263 590.444,-263 "/>
<text text-anchor="middle" x="627.444" y="-273.9" font-family="Times,serif" font-size="12.00">RedisCache</text>
</g>
<!-- RedisCache&#45;&gt;ComponentBase -->
<g id="edge75" class="edge"><title>RedisCache&#45;&gt;ComponentBase</title>
<path fill="none" stroke="black" stroke-dasharray="1,5" d="M664.489,-274.927C743.77,-271.208 929.577,-267.371 971.583,-310 1069.19,-409.056 1081.44,-1463.64 1082.86,-1651.47"/>
<polygon fill="black" stroke="black" points="1079.36,-1651.67 1082.93,-1661.65 1086.36,-1651.62 1079.36,-1651.67"/>
</g>
<!-- RouteHookApiServer -->
<g id="node60" class="node"><title>RouteHookApiServer</title>
<polygon fill="none" stroke="black" points="687.944,-241 566.944,-241 566.944,-237 562.944,-237 562.944,-233 566.944,-233 566.944,-213 562.944,-213 562.944,-209 566.944,-209 566.944,-205 687.944,-205 687.944,-241"/>
<polyline fill="none" stroke="black" points="566.944,-237 570.944,-237 570.944,-233 566.944,-233 "/>
<polyline fill="none" stroke="black" points="566.944,-213 570.944,-213 570.944,-209 566.944,-209 "/>
<text text-anchor="middle" x="627.444" y="-219.9" font-family="Times,serif" font-size="12.00">RouteHookApiServer</text>
</g>
<!-- RouteHookApiServer&#45;&gt;ComponentBase -->
<g id="edge76" class="edge"><title>RouteHookApiServer&#45;&gt;ComponentBase</title>
<path fill="none" stroke="black" stroke-dasharray="1,5" d="M688.065,-211.161C765.516,-199.624 899.337,-193.495 971.583,-270 1069.99,-374.204 1081.6,-1461.06 1082.88,-1651.58"/>
<polygon fill="black" stroke="black" points="1079.38,-1651.67 1082.94,-1661.64 1086.38,-1651.62 1079.38,-1651.67"/>
</g>
<!-- RouteHookDirectoryMode -->
<g id="node61" class="node"><title>RouteHookDirectoryMode</title>
<polygon fill="none" stroke="black" points="699.944,-187 554.944,-187 554.944,-183 550.944,-183 550.944,-179 554.944,-179 554.944,-159 550.944,-159 550.944,-155 554.944,-155 554.944,-151 699.944,-151 699.944,-187"/>
<polyline fill="none" stroke="black" points="554.944,-183 558.944,-183 558.944,-179 554.944,-179 "/>
<polyline fill="none" stroke="black" points="554.944,-159 558.944,-159 558.944,-155 554.944,-155 "/>
<text text-anchor="middle" x="627.444" y="-165.9" font-family="Times,serif" font-size="12.00">RouteHookDirectoryMode</text>
</g>
<!-- RouteHookDirectoryMode&#45;&gt;ComponentBase -->
<g id="edge77" class="edge"><title>RouteHookDirectoryMode&#45;&gt;ComponentBase</title>
<path fill="none" stroke="black" stroke-dasharray="1,5" d="M700.048,-151.814C778.364,-137.728 901.98,-130.149 971.583,-201 1077.18,-308.493 1082.84,-1455.92 1083.04,-1651.68"/>
<polygon fill="black" stroke="black" points="1079.54,-1651.75 1083.05,-1661.75 1086.54,-1651.74 1079.54,-1651.75"/>
</g>
<!-- RouteHookManager&#45;&gt;ComponentBase -->
<g id="edge78" class="edge"><title>RouteHookManager&#45;&gt;ComponentBase</title>
<path fill="none" stroke="black" stroke-dasharray="1,5" d="M930.675,-659.095C946.034,-662.975 961.271,-669.888 971.583,-682 1036.28,-758.001 1074.41,-1496.64 1081.73,-1651.58"/>
<polygon fill="black" stroke="black" points="1078.24,-1651.89 1082.2,-1661.71 1085.23,-1651.56 1078.24,-1651.89"/>
</g>
<!-- RouteHookRewrite -->
<g id="node63" class="node"><title>RouteHookRewrite</title>
<polygon fill="none" stroke="black" points="682.444,-511 572.444,-511 572.444,-507 568.444,-507 568.444,-503 572.444,-503 572.444,-483 568.444,-483 568.444,-479 572.444,-479 572.444,-475 682.444,-475 682.444,-511"/>
<polyline fill="none" stroke="black" points="572.444,-507 576.444,-507 576.444,-503 572.444,-503 "/>
<polyline fill="none" stroke="black" points="572.444,-483 576.444,-483 576.444,-479 572.444,-479 "/>
<text text-anchor="middle" x="627.444" y="-489.9" font-family="Times,serif" font-size="12.00">RouteHookRewrite</text>
</g>
<!-- RouteHookRewrite&#45;&gt;ComponentBase -->
<g id="edge79" class="edge"><title>RouteHookRewrite&#45;&gt;ComponentBase</title>
<path fill="none" stroke="black" stroke-dasharray="1,5" d="M682.465,-478.069C758.206,-460.772 895.227,-443.372 971.583,-518 1055.35,-599.867 1078.71,-1481.44 1082.45,-1651.65"/>
<polygon fill="black" stroke="black" points="1078.95,-1651.89 1082.67,-1661.81 1085.95,-1651.74 1078.95,-1651.89"/>
</g>
<!-- SimpleModel -->
<g id="node64" class="node"><title>SimpleModel</title>
<polygon fill="none" stroke="black" points="681.944,-457 572.944,-457 572.944,-453 568.944,-453 568.944,-449 572.944,-449 572.944,-429 568.944,-429 568.944,-425 572.944,-425 572.944,-421 681.944,-421 681.944,-457"/>
<polyline fill="none" stroke="black" points="572.944,-453 576.944,-453 576.944,-449 572.944,-449 "/>
<polyline fill="none" stroke="black" points="572.944,-429 576.944,-429 576.944,-425 572.944,-425 "/>
<text text-anchor="middle" x="627.444" y="-435.9" font-family="Times,serif" font-size="12.00">SimpleModel(todo)</text>
</g>
<!-- SimpleModel&#45;&gt;ComponentBase -->
<g id="edge80" class="edge"><title>SimpleModel&#45;&gt;ComponentBase</title>
<path fill="none" stroke="black" stroke-dasharray="1,5" d="M682.191,-437.765C705.692,-440.211 731.513,-447.512 747.583,-466 810.779,-538.706 722.661,-823.378 783.583,-898 838.639,-965.438 914.234,-887.501 971.583,-953 1065.18,-1059.9 1080.27,-1530.37 1082.61,-1651.49"/>
<polygon fill="black" stroke="black" points="1079.12,-1651.85 1082.8,-1661.79 1086.12,-1651.73 1079.12,-1651.85"/>
</g>
<!-- SimpleModel&#45;&gt;Db_Db -->
<g id="edge94" class="edge"><title>SimpleModel&#45;&gt;Db_Db</title>
<path fill="none" stroke="black" stroke-dasharray="5,2" d="M682.098,-439.849C705.435,-437.297 731.146,-430.019 747.583,-412 830.062,-321.584 715.414,-240.641 783.583,-139 797.754,-117.87 823.826,-104.441 844.102,-96.6978"/>
<polygon fill="black" stroke="black" points="845.548,-99.8984 853.798,-93.2505 843.203,-93.3029 845.548,-99.8984"/>
</g>
<!-- StaticReplacer -->
<g id="node65" class="node"><title>StaticReplacer</title>
<polygon fill="none" stroke="black" points="669.944,-1105 584.944,-1105 584.944,-1101 580.944,-1101 580.944,-1097 584.944,-1097 584.944,-1077 580.944,-1077 580.944,-1073 584.944,-1073 584.944,-1069 669.944,-1069 669.944,-1105"/>
<polyline fill="none" stroke="black" points="584.944,-1101 588.944,-1101 588.944,-1097 584.944,-1097 "/>
<polyline fill="none" stroke="black" points="584.944,-1077 588.944,-1077 588.944,-1073 584.944,-1073 "/>
<text text-anchor="middle" x="627.444" y="-1083.9" font-family="Times,serif" font-size="12.00">StaticReplacer</text>
</g>
<!-- StaticReplacer&#45;&gt;ComponentBase -->
<g id="edge81" class="edge"><title>StaticReplacer&#45;&gt;ComponentBase</title>
<path fill="none" stroke="black" stroke-dasharray="1,5" d="M670.183,-1097.81C701.37,-1105.81 745.078,-1116.86 783.583,-1126 866.884,-1145.77 911.21,-1107.3 971.583,-1168 1040.92,-1237.72 1072.62,-1554.76 1080.81,-1651.74"/>
<polygon fill="black" stroke="black" points="1077.34,-1652.26 1081.65,-1661.94 1084.32,-1651.69 1077.34,-1652.26"/>
</g>
<!-- StrictCheck -->
<g id="node66" class="node"><title>StrictCheck</title>
<polygon fill="none" stroke="black" points="663.444,-889 591.444,-889 591.444,-885 587.444,-885 587.444,-881 591.444,-881 591.444,-861 587.444,-861 587.444,-857 591.444,-857 591.444,-853 663.444,-853 663.444,-889"/>
<polyline fill="none" stroke="black" points="591.444,-885 595.444,-885 595.444,-881 591.444,-881 "/>
<polyline fill="none" stroke="black" points="591.444,-861 595.444,-861 595.444,-857 591.444,-857 "/>
<text text-anchor="middle" x="627.444" y="-867.9" font-family="Times,serif" font-size="12.00">StrictCheck</text>
</g>
<!-- StrictCheck&#45;&gt;ComponentBase -->
<g id="edge82" class="edge"><title>StrictCheck&#45;&gt;ComponentBase</title>
<path fill="none" stroke="black" stroke-dasharray="1,5" d="M663.565,-870.271C689.735,-871.591 724.75,-877.558 747.583,-898 784.025,-930.626 747.256,-969.246 783.583,-1002 847.315,-1059.46 912.623,-983.649 971.583,-1046 1056.2,-1135.49 1077.72,-1540.86 1082.07,-1651.84"/>
<polygon fill="black" stroke="black" points="1078.58,-1652.06 1082.45,-1661.92 1085.57,-1651.8 1078.58,-1652.06"/>
</g>
<!-- X_DbManager -->
<g id="node70" class="node"><title>X_DbManager</title>
<polygon fill="none" stroke="black" points="945.583,-883 783.583,-883 783.583,-859 945.583,-859 945.583,-853 963.583,-871 945.583,-889 945.583,-883"/>
<text text-anchor="middle" x="873.583" y="-867.9" font-family="Times,serif" font-size="12.00">DuckPhp\Component\DbManager</text>
</g>
<!-- StrictCheck&#45;&gt;X_DbManager -->
<g id="edge95" class="edge"><title>StrictCheck&#45;&gt;X_DbManager</title>
<path fill="none" stroke="black" stroke-dasharray="5,2" d="M663.683,-871C692.351,-871 734.267,-871 773.041,-871"/>
<polygon fill="black" stroke="black" points="773.348,-874.5 783.348,-871 773.348,-867.5 773.348,-874.5"/>
</g>
<!-- SuperGlobalContext -->
<g id="node67" class="node"><title>SuperGlobalContext</title>
<polygon fill="none" stroke="black" points="684.444,-1051 570.444,-1051 570.444,-1047 566.444,-1047 566.444,-1043 570.444,-1043 570.444,-1023 566.444,-1023 566.444,-1019 570.444,-1019 570.444,-1015 684.444,-1015 684.444,-1051"/>
<polyline fill="none" stroke="black" points="570.444,-1047 574.444,-1047 574.444,-1043 570.444,-1043 "/>
<polyline fill="none" stroke="black" points="570.444,-1023 574.444,-1023 574.444,-1019 570.444,-1019 "/>
<text text-anchor="middle" x="627.444" y="-1029.9" font-family="Times,serif" font-size="12.00">SuperGlobalContext</text>
</g>
<!-- SuperGlobalContext&#45;&gt;ComponentBase -->
<g id="edge83" class="edge"><title>SuperGlobalContext&#45;&gt;ComponentBase</title>
<path fill="none" stroke="black" stroke-dasharray="1,5" d="M684.598,-1040.7C705.047,-1044.79 727.948,-1050.92 747.583,-1060 765.736,-1068.4 765.354,-1078.77 783.583,-1087 861.36,-1122.11 911.424,-1065.48 971.583,-1126 1046.91,-1201.78 1074.73,-1549.66 1081.36,-1651.76"/>
<polygon fill="black" stroke="black" points="1077.87,-1652.15 1082,-1661.91 1084.86,-1651.71 1077.87,-1652.15"/>
</g>
</g>
</svg>
