<?xml version="1.0" encoding="UTF-8" standalone="no"?>
<!DOCTYPE svg PUBLIC "-//W3C//DTD SVG 1.1//EN"
 "http://www.w3.org/Graphics/SVG/1.1/DTD/svg11.dtd">
<!-- Generated by graphviz version 2.38.0 (20140413.2041)
 -->
<!-- Title: DuckPhp Pages: 1 -->
<svg width="1339pt" height="2528pt"
 viewBox="0.00 0.00 1339.47 2528.44" xmlns="http://www.w3.org/2000/svg" xmlns:xlink="http://www.w3.org/1999/xlink">
<g id="graph0" class="graph" transform="scale(1 1) rotate(0) translate(4 2524.44)">
<title>DuckPhp</title>
<polygon fill="white" stroke="none" points="-4,4 -4,-2524.44 1335.47,-2524.44 1335.47,4 -4,4"/>
<g id="clust1" class="cluster"><title>cluster_SingletonEx</title>
<polygon fill="none" stroke="black" points="27.1526,-1012.44 27.1526,-1139.44 173.738,-1139.44 173.738,-1012.44 27.1526,-1012.44"/>
<text text-anchor="middle" x="100.445" y="-1125.84" font-family="Times,serif" font-size="12.00">[DuckPhp\SingletonEx]</text>
</g>
<g id="clust2" class="cluster"><title>cluster_Core</title>
<polygon fill="none" stroke="black" points="414.43,-2011.44 414.43,-2494.44 1323.47,-2494.44 1323.47,-2011.44 414.43,-2011.44"/>
<text text-anchor="middle" x="868.949" y="-2480.84" font-family="Times,serif" font-size="12.00">[DuckPhp\Core]</text>
</g>
<g id="clust3" class="cluster"><title>cluster_Helper</title>
<polygon fill="none" stroke="black" points="8,-2142.44 8,-2431.44 352.512,-2431.44 352.512,-2142.44 8,-2142.44"/>
<text text-anchor="middle" x="180.256" y="-2417.84" font-family="Times,serif" font-size="12.00">[DuckPhp\Helper]</text>
</g>
<g id="clust4" class="cluster"><title>cluster_Db</title>
<polygon fill="none" stroke="black" points="650.793,-1167.44 650.793,-1294.44 1040.57,-1294.44 1040.57,-1167.44 650.793,-1167.44"/>
<text text-anchor="middle" x="845.683" y="-1280.84" font-family="Times,serif" font-size="12.00">[DuckPhp\Db]</text>
</g>
<g id="clust5" class="cluster"><title>cluster_HttpServer</title>
<polygon fill="none" stroke="black" points="834.79,-1408.44 834.79,-1589.44 1061.47,-1589.44 1061.47,-1408.44 834.79,-1408.44"/>
<text text-anchor="middle" x="948.129" y="-1575.84" font-family="Times,serif" font-size="12.00">[DuckPhp\HttpServer]</text>
</g>
<g id="clust6" class="cluster"><title>cluster_Component</title>
<polygon fill="none" stroke="black" points="372.512,-1597.44 372.512,-1994.44 983.129,-1994.44 983.129,-1597.44 372.512,-1597.44"/>
<text text-anchor="middle" x="677.82" y="-1980.84" font-family="Times,serif" font-size="12.00">[DuckPhp\Component]</text>
</g>
<g id="clust7" class="cluster"><title>cluster_DuckPhp</title>
<polygon fill="none" stroke="black" points="220.726,-1813.44 220.726,-1886.44 344.677,-1886.44 344.677,-1813.44 220.726,-1813.44"/>
<text text-anchor="middle" x="282.701" y="-1872.84" font-family="Times,serif" font-size="12.00">[DuckPhp]</text>
</g>
<g id="clust8" class="cluster"><title>cluster_ThrowOn</title>
<polygon fill="none" stroke="black" points="17.5763,-2439.44 17.5763,-2512.44 183.315,-2512.44 183.315,-2439.44 17.5763,-2439.44"/>
<text text-anchor="middle" x="100.445" y="-2498.84" font-family="Times,serif" font-size="12.00">[DuckPhp\ThrowOn]</text>
</g>
<g id="clust9" class="cluster"><title>cluster_Ext</title>
<polygon fill="none" stroke="black" points="606.151,-8.44123 606.151,-1053.44 1046.13,-1053.44 1046.13,-8.44123 606.151,-8.44123"/>
<text text-anchor="middle" x="826.14" y="-1039.84" font-family="Times,serif" font-size="12.00">[DuckPhp\Ext]</text>
</g>
<!-- SingletonEx -->
<g id="node1" class="node"><title>SingletonEx</title>
<polygon fill="lightgrey" stroke="black" points="100.445,-1110.44 35.3591,-1092.44 100.445,-1074.44 165.532,-1092.44 100.445,-1110.44"/>
<polyline fill="none" stroke="black" points="46.9249,-1095.64 46.9249,-1089.24 "/>
<polyline fill="none" stroke="black" points="88.8796,-1077.64 112.011,-1077.64 "/>
<polyline fill="none" stroke="black" points="153.966,-1089.24 153.966,-1095.64 "/>
<polyline fill="none" stroke="black" points="112.011,-1107.24 88.8796,-1107.24 "/>
<text text-anchor="middle" x="100.445" y="-1089.34" font-family="Times,serif" font-size="12.00">SingletonEx</text>
</g>
<!-- SimpleReplacer -->
<g id="node2" class="node"><title>SimpleReplacer</title>
<ellipse fill="none" stroke="black" cx="100.445" cy="-1038.44" rx="56.7683" ry="18"/>
<text text-anchor="middle" x="100.445" y="-1035.34" font-family="Times,serif" font-size="12.00">SimpleReplacer</text>
</g>
<!-- AppPluginTrait -->
<g id="node3" class="node"><title>AppPluginTrait</title>
<polygon fill="lightgrey" stroke="black" points="686.651,-2075.44 607.206,-2057.44 686.651,-2039.44 766.096,-2057.44 686.651,-2075.44"/>
<polyline fill="none" stroke="black" points="618.91,-2060.09 618.91,-2054.79 "/>
<polyline fill="none" stroke="black" points="674.948,-2042.09 698.354,-2042.09 "/>
<polyline fill="none" stroke="black" points="754.392,-2054.79 754.392,-2060.09 "/>
<polyline fill="none" stroke="black" points="698.354,-2072.79 674.948,-2072.79 "/>
<text text-anchor="middle" x="686.651" y="-2054.34" font-family="Times,serif" font-size="12.00">AppPluginTrait</text>
</g>
<!-- View -->
<g id="node8" class="node"><title>View</title>
<polygon fill="none" stroke="black" points="975.129,-2217.44 921.129,-2217.44 921.129,-2213.44 917.129,-2213.44 917.129,-2209.44 921.129,-2209.44 921.129,-2189.44 917.129,-2189.44 917.129,-2185.44 921.129,-2185.44 921.129,-2181.44 975.129,-2181.44 975.129,-2217.44"/>
<polyline fill="none" stroke="black" points="921.129,-2213.44 925.129,-2213.44 925.129,-2209.44 921.129,-2209.44 "/>
<polyline fill="none" stroke="black" points="921.129,-2189.44 925.129,-2189.44 925.129,-2185.44 921.129,-2185.44 "/>
<text text-anchor="middle" x="948.129" y="-2196.34" font-family="Times,serif" font-size="12.00">View</text>
</g>
<!-- AppPluginTrait&#45;&gt;View -->
<g id="edge20" class="edge"><title>AppPluginTrait&#45;&gt;View</title>
<path fill="none" stroke="black" d="M753.994,-2060.24C772.989,-2064.05 792.418,-2071.24 806.79,-2084.44 837.021,-2112.2 804.74,-2144.49 834.79,-2172.44 855.131,-2191.36 886.345,-2197.71 910.713,-2199.56"/>
<polygon fill="black" stroke="black" points="910.852,-2203.07 921.023,-2200.11 911.223,-2196.08 910.852,-2203.07"/>
</g>
<!-- Configer -->
<g id="node9" class="node"><title>Configer</title>
<polygon fill="none" stroke="black" points="977.629,-2109.44 918.629,-2109.44 918.629,-2105.44 914.629,-2105.44 914.629,-2101.44 918.629,-2101.44 918.629,-2081.44 914.629,-2081.44 914.629,-2077.44 918.629,-2077.44 918.629,-2073.44 977.629,-2073.44 977.629,-2109.44"/>
<polyline fill="none" stroke="black" points="918.629,-2105.44 922.629,-2105.44 922.629,-2101.44 918.629,-2101.44 "/>
<polyline fill="none" stroke="black" points="918.629,-2081.44 922.629,-2081.44 922.629,-2077.44 918.629,-2077.44 "/>
<text text-anchor="middle" x="948.129" y="-2088.34" font-family="Times,serif" font-size="12.00">Configer</text>
</g>
<!-- AppPluginTrait&#45;&gt;Configer -->
<g id="edge19" class="edge"><title>AppPluginTrait&#45;&gt;Configer</title>
<path fill="none" stroke="black" d="M737.374,-2063.96C787.204,-2070.49 862.872,-2080.4 908.404,-2086.37"/>
<polygon fill="black" stroke="black" points="908.099,-2089.86 918.469,-2087.69 909.008,-2082.92 908.099,-2089.86"/>
</g>
<!-- Route -->
<g id="node11" class="node"><title>Route</title>
<polygon fill="lightgrey" stroke="black" points="948.129,-2055.44 908.777,-2037.44 948.129,-2019.44 987.481,-2037.44 948.129,-2055.44"/>
<polyline fill="none" stroke="black" points="919.689,-2042.43 919.689,-2032.45 "/>
<polyline fill="none" stroke="black" points="937.216,-2024.43 959.042,-2024.43 "/>
<polyline fill="none" stroke="black" points="976.569,-2032.45 976.569,-2042.43 "/>
<polyline fill="none" stroke="black" points="959.042,-2050.45 937.216,-2050.45 "/>
<text text-anchor="middle" x="948.129" y="-2034.34" font-family="Times,serif" font-size="12.00">Route</text>
</g>
<!-- AppPluginTrait&#45;&gt;Route -->
<g id="edge21" class="edge"><title>AppPluginTrait&#45;&gt;Route</title>
<path fill="none" stroke="black" d="M746.206,-2052.93C794.123,-2049.23 860.802,-2044.1 903.964,-2040.77"/>
<polygon fill="black" stroke="black" points="904.436,-2044.24 914.138,-2039.98 903.898,-2037.26 904.436,-2044.24"/>
</g>
<!-- App -->
<g id="node4" class="node"><title>App</title>
<polygon fill="lightgrey" stroke="black" points="455.512,-2270.44 422.348,-2252.44 455.512,-2234.44 488.676,-2252.44 455.512,-2270.44"/>
<polyline fill="none" stroke="black" points="432.895,-2258.17 432.895,-2246.72 "/>
<polyline fill="none" stroke="black" points="444.965,-2240.17 466.059,-2240.17 "/>
<polyline fill="none" stroke="black" points="478.129,-2246.72 478.129,-2258.17 "/>
<polyline fill="none" stroke="black" points="466.059,-2264.72 444.965,-2264.72 "/>
<text text-anchor="middle" x="455.512" y="-2249.34" font-family="Times,serif" font-size="12.00">App</text>
</g>
<!-- Kernel -->
<g id="node5" class="node"><title>Kernel</title>
<polygon fill="none" stroke="black" points="686.651,-2223.44 643.834,-2205.44 686.651,-2187.44 729.467,-2205.44 686.651,-2223.44"/>
<text text-anchor="middle" x="686.651" y="-2202.34" font-family="Times,serif" font-size="12.00">Kernel</text>
</g>
<!-- App&#45;&gt;Kernel -->
<g id="edge7" class="edge"><title>App&#45;&gt;Kernel</title>
<path fill="none" stroke="black" d="M480.171,-2247.59C519.799,-2239.46 599.928,-2223.02 647.57,-2213.25"/>
<polygon fill="black" stroke="black" points="648.411,-2216.65 657.504,-2211.21 647.004,-2209.8 648.411,-2216.65"/>
</g>
<!-- AutoLoader -->
<g id="node6" class="node"><title>AutoLoader</title>
<polygon fill="lightgrey" stroke="black" points="948.129,-2325.44 883.784,-2307.44 948.129,-2289.44 1012.47,-2307.44 948.129,-2325.44"/>
<polyline fill="none" stroke="black" points="895.341,-2310.67 895.341,-2304.21 "/>
<polyline fill="none" stroke="black" points="936.573,-2292.67 959.685,-2292.67 "/>
<polyline fill="none" stroke="black" points="1000.92,-2304.21 1000.92,-2310.67 "/>
<polyline fill="none" stroke="black" points="959.685,-2322.21 936.573,-2322.21 "/>
<text text-anchor="middle" x="948.129" y="-2304.34" font-family="Times,serif" font-size="12.00">AutoLoader</text>
</g>
<!-- App&#45;&gt;AutoLoader -->
<g id="edge10" class="edge"><title>App&#45;&gt;AutoLoader</title>
<path fill="none" stroke="black" d="M483.238,-2255.44C560.645,-2264.11 786.183,-2289.4 891.607,-2301.22"/>
<polygon fill="black" stroke="black" points="891.401,-2304.72 901.729,-2302.35 892.181,-2297.76 891.401,-2304.72"/>
</g>
<!-- ExceptionManager -->
<g id="node7" class="node"><title>ExceptionManager</title>
<polygon fill="none" stroke="black" points="1001.63,-2163.44 894.629,-2163.44 894.629,-2159.44 890.629,-2159.44 890.629,-2155.44 894.629,-2155.44 894.629,-2135.44 890.629,-2135.44 890.629,-2131.44 894.629,-2131.44 894.629,-2127.44 1001.63,-2127.44 1001.63,-2163.44"/>
<polyline fill="none" stroke="black" points="894.629,-2159.44 898.629,-2159.44 898.629,-2155.44 894.629,-2155.44 "/>
<polyline fill="none" stroke="black" points="894.629,-2135.44 898.629,-2135.44 898.629,-2131.44 894.629,-2131.44 "/>
<text text-anchor="middle" x="948.129" y="-2142.34" font-family="Times,serif" font-size="12.00">ExceptionManager</text>
</g>
<!-- App&#45;&gt;ExceptionManager -->
<g id="edge13" class="edge"><title>App&#45;&gt;ExceptionManager</title>
<path fill="none" stroke="black" d="M468.556,-2241.24C487.65,-2224.25 526.794,-2192.46 566.512,-2178.44 595.65,-2168.16 784.049,-2155.36 884.408,-2149.16"/>
<polygon fill="black" stroke="black" points="884.66,-2152.65 894.426,-2148.54 884.231,-2145.66 884.66,-2152.65"/>
</g>
<!-- App&#45;&gt;View -->
<g id="edge16" class="edge"><title>App&#45;&gt;View</title>
<path fill="none" stroke="black" d="M486.926,-2251.38C560.292,-2248.73 745.454,-2241.33 806.79,-2232.44 812.016,-2231.68 871.37,-2217.58 911.196,-2208.05"/>
<polygon fill="black" stroke="black" points="912.193,-2211.41 921.104,-2205.68 910.564,-2204.61 912.193,-2211.41"/>
</g>
<!-- App&#45;&gt;Configer -->
<g id="edge11" class="edge"><title>App&#45;&gt;Configer</title>
<path fill="none" stroke="black" d="M465.702,-2239.86C482.712,-2217.72 521.504,-2172.34 566.512,-2153.44 665.164,-2112.01 705.963,-2174.25 806.79,-2138.44 821.201,-2133.32 820.877,-2124.79 834.79,-2118.44 858.106,-2107.8 886.13,-2101.06 908.356,-2096.97"/>
<polygon fill="black" stroke="black" points="909.182,-2100.38 918.438,-2095.22 907.987,-2093.48 909.182,-2100.38"/>
</g>
<!-- Logger -->
<g id="node10" class="node"><title>Logger</title>
<polygon fill="none" stroke="black" points="713.651,-2411.44 659.651,-2411.44 659.651,-2407.44 655.651,-2407.44 655.651,-2403.44 659.651,-2403.44 659.651,-2383.44 655.651,-2383.44 655.651,-2379.44 659.651,-2379.44 659.651,-2375.44 713.651,-2375.44 713.651,-2411.44"/>
<polyline fill="none" stroke="black" points="659.651,-2407.44 663.651,-2407.44 663.651,-2403.44 659.651,-2403.44 "/>
<polyline fill="none" stroke="black" points="659.651,-2383.44 663.651,-2383.44 663.651,-2379.44 659.651,-2379.44 "/>
<text text-anchor="middle" x="686.651" y="-2390.34" font-family="Times,serif" font-size="12.00">Logger</text>
</g>
<!-- App&#45;&gt;Logger -->
<g id="edge12" class="edge"><title>App&#45;&gt;Logger</title>
<path fill="none" stroke="black" d="M465.073,-2265.39C481.634,-2289.36 520.505,-2340.52 566.512,-2366.44 592.057,-2380.83 624.758,-2387.55 649.435,-2390.69"/>
<polygon fill="black" stroke="black" points="649.145,-2394.18 659.475,-2391.83 649.933,-2387.23 649.145,-2394.18"/>
</g>
<!-- App&#45;&gt;Route -->
<g id="edge14" class="edge"><title>App&#45;&gt;Route</title>
<path fill="none" stroke="black" d="M458.794,-2236C465.752,-2193 491.039,-2077.27 566.512,-2030.44 622.644,-1995.61 823.214,-2019.45 908.407,-2031.56"/>
<polygon fill="black" stroke="black" points="908.048,-2035.05 918.446,-2033.01 909.049,-2028.12 908.048,-2035.05"/>
</g>
<!-- RuntimeState -->
<g id="node12" class="node"><title>RuntimeState</title>
<polygon fill="none" stroke="black" points="988.129,-2271.44 908.129,-2271.44 908.129,-2267.44 904.129,-2267.44 904.129,-2263.44 908.129,-2263.44 908.129,-2243.44 904.129,-2243.44 904.129,-2239.44 908.129,-2239.44 908.129,-2235.44 988.129,-2235.44 988.129,-2271.44"/>
<polyline fill="none" stroke="black" points="908.129,-2267.44 912.129,-2267.44 912.129,-2263.44 908.129,-2263.44 "/>
<polyline fill="none" stroke="black" points="908.129,-2243.44 912.129,-2243.44 912.129,-2239.44 908.129,-2239.44 "/>
<text text-anchor="middle" x="948.129" y="-2250.34" font-family="Times,serif" font-size="12.00">RuntimeState</text>
</g>
<!-- App&#45;&gt;RuntimeState -->
<g id="edge15" class="edge"><title>App&#45;&gt;RuntimeState</title>
<path fill="none" stroke="black" d="M488.703,-2252.51C572.399,-2252.68 797.29,-2253.14 897.624,-2253.34"/>
<polygon fill="black" stroke="black" points="897.789,-2256.84 907.796,-2253.36 897.803,-2249.84 897.789,-2256.84"/>
</g>
<!-- SystemWrapperTrait -->
<g id="node13" class="node"><title>SystemWrapperTrait</title>
<polygon fill="none" stroke="black" points="686.651,-2357.44 586.419,-2339.44 686.651,-2321.44 786.882,-2339.44 686.651,-2357.44"/>
<text text-anchor="middle" x="686.651" y="-2336.34" font-family="Times,serif" font-size="12.00">SystemWrapperTrait</text>
</g>
<!-- App&#45;&gt;SystemWrapperTrait -->
<g id="edge9" class="edge"><title>App&#45;&gt;SystemWrapperTrait</title>
<path fill="none" stroke="black" d="M472.09,-2261.49C493.005,-2273.34 531.582,-2294.17 566.512,-2307.44 587.073,-2315.25 610.31,-2321.95 630.767,-2327.16"/>
<polygon fill="black" stroke="black" points="630.013,-2330.58 640.563,-2329.6 631.705,-2323.79 630.013,-2330.58"/>
</g>
<!-- ExtendableStaticCallTrait -->
<g id="node14" class="node"><title>ExtendableStaticCallTrait</title>
<polygon fill="none" stroke="black" points="686.651,-2465.44 566.373,-2447.44 686.651,-2429.44 806.929,-2447.44 686.651,-2465.44"/>
<text text-anchor="middle" x="686.651" y="-2444.34" font-family="Times,serif" font-size="12.00">ExtendableStaticCallTrait</text>
</g>
<!-- App&#45;&gt;ExtendableStaticCallTrait -->
<g id="edge8" class="edge"><title>App&#45;&gt;ExtendableStaticCallTrait</title>
<path fill="none" stroke="black" d="M461.779,-2267.33C474.317,-2300.5 509.241,-2380.67 566.512,-2420.44 577.656,-2428.18 590.67,-2433.74 603.924,-2437.72"/>
<polygon fill="black" stroke="black" points="603.026,-2441.1 613.594,-2440.35 604.863,-2434.35 603.026,-2441.1"/>
</g>
<!-- ComponentBase -->
<g id="node16" class="node"><title>ComponentBase</title>
<polygon fill="none" stroke="black" points="1184.47,-2055.44 1093.47,-2055.44 1089.47,-2051.44 1089.47,-2019.44 1180.47,-2019.44 1184.47,-2023.44 1184.47,-2055.44"/>
<polyline fill="none" stroke="black" points="1180.47,-2051.44 1089.47,-2051.44 "/>
<polyline fill="none" stroke="black" points="1180.47,-2051.44 1180.47,-2019.44 "/>
<polyline fill="none" stroke="black" points="1180.47,-2051.44 1184.47,-2055.44 "/>
<text text-anchor="middle" x="1136.97" y="-2034.34" font-family="Times,serif" font-size="12.00">ComponentBase</text>
</g>
<!-- App&#45;&gt;ComponentBase -->
<g id="edge18" class="edge"><title>App&#45;&gt;ComponentBase</title>
<path fill="none" stroke="black" stroke-dasharray="1,5" d="M476.534,-2259.36C498.389,-2266.66 534.542,-2277.98 566.512,-2284.44 671.891,-2305.75 707.391,-2271.47 806.79,-2312.44 821.422,-2318.47 819.833,-2329.27 834.79,-2334.44 858.593,-2342.67 1041.61,-2349.93 1061.47,-2334.44 1104.05,-2301.22 1125.97,-2133.63 1133.2,-2065.9"/>
<polygon fill="black" stroke="black" points="1136.72,-2065.87 1134.27,-2055.56 1129.76,-2065.15 1136.72,-2065.87"/>
</g>
<!-- Functions -->
<g id="node17" class="node"><title>Functions</title>
<ellipse fill="none" stroke="black" cx="686.651" cy="-2111.44" rx="38.5652" ry="18"/>
<text text-anchor="middle" x="686.651" y="-2108.34" font-family="Times,serif" font-size="12.00">Functions</text>
</g>
<!-- App&#45;&gt;Functions -->
<g id="edge17" class="edge"><title>App&#45;&gt;Functions</title>
<path fill="none" stroke="black" d="M465.575,-2239.88C482.671,-2217.11 521.99,-2169.03 566.512,-2143.44 588.753,-2130.66 616.262,-2122.83 639.241,-2118.12"/>
<polygon fill="black" stroke="black" points="639.951,-2121.55 649.113,-2116.23 638.633,-2114.68 639.951,-2121.55"/>
</g>
<!-- Kernel&#45;&gt;AutoLoader -->
<g id="edge1" class="edge"><title>Kernel&#45;&gt;AutoLoader</title>
<path fill="none" stroke="black" d="M705.155,-2216.09C732.119,-2232.09 785.836,-2262.37 834.79,-2280.44 855.234,-2287.99 878.559,-2293.99 898.637,-2298.4"/>
<polygon fill="black" stroke="black" points="897.997,-2301.85 908.506,-2300.5 899.453,-2295 897.997,-2301.85"/>
</g>
<!-- Kernel&#45;&gt;ExceptionManager -->
<g id="edge3" class="edge"><title>Kernel&#45;&gt;ExceptionManager</title>
<path fill="none" stroke="black" d="M714.929,-2199.13C754.862,-2189.9 830.35,-2172.44 884.422,-2159.94"/>
<polygon fill="black" stroke="black" points="885.301,-2163.33 894.256,-2157.67 883.724,-2156.51 885.301,-2163.33"/>
</g>
<!-- Kernel&#45;&gt;View -->
<g id="edge6" class="edge"><title>Kernel&#45;&gt;View</title>
<path fill="none" stroke="black" d="M727.342,-2204.52C777.338,-2203.37 862.536,-2201.4 910.859,-2200.28"/>
<polygon fill="black" stroke="black" points="910.956,-2203.78 920.873,-2200.05 910.794,-2196.78 910.956,-2203.78"/>
</g>
<!-- Kernel&#45;&gt;Configer -->
<g id="edge2" class="edge"><title>Kernel&#45;&gt;Configer</title>
<path fill="none" stroke="black" d="M712.779,-2198.4C738.262,-2190.41 777.948,-2175.54 806.79,-2153.44 822.602,-2141.33 817.975,-2129.12 834.79,-2118.44 856.813,-2104.45 885.46,-2097.71 908.313,-2094.46"/>
<polygon fill="black" stroke="black" points="908.874,-2097.91 918.36,-2093.2 908.003,-2090.97 908.874,-2097.91"/>
</g>
<!-- Kernel&#45;&gt;Route -->
<g id="edge4" class="edge"><title>Kernel&#45;&gt;Route</title>
<path fill="none" stroke="black" d="M711.47,-2197.67C738.126,-2187.85 780.954,-2168.49 806.79,-2138.44 829.714,-2111.78 808.41,-2087.69 834.79,-2064.44 852.392,-2048.93 877.363,-2041.95 899.294,-2038.95"/>
<polygon fill="black" stroke="black" points="899.898,-2042.41 909.443,-2037.81 899.114,-2035.45 899.898,-2042.41"/>
</g>
<!-- Kernel&#45;&gt;RuntimeState -->
<g id="edge5" class="edge"><title>Kernel&#45;&gt;RuntimeState</title>
<path fill="none" stroke="black" d="M716.912,-2210.85C760.866,-2218.98 844.463,-2234.45 897.909,-2244.34"/>
<polygon fill="black" stroke="black" points="897.379,-2247.8 907.849,-2246.17 898.652,-2240.91 897.379,-2247.8"/>
</g>
<!-- ExceptionManager&#45;&gt;ComponentBase -->
<g id="edge22" class="edge"><title>ExceptionManager&#45;&gt;ComponentBase</title>
<path fill="none" stroke="black" stroke-dasharray="1,5" d="M1001.89,-2139.37C1021.57,-2135.45 1043.49,-2129.01 1061.47,-2118.44 1084.54,-2104.88 1104.67,-2081.9 1118.17,-2063.88"/>
<polygon fill="black" stroke="black" points="1121.21,-2065.65 1124.24,-2055.49 1115.54,-2061.54 1121.21,-2065.65"/>
</g>
<!-- View&#45;&gt;ComponentBase -->
<g id="edge26" class="edge"><title>View&#45;&gt;ComponentBase</title>
<path fill="none" stroke="black" stroke-dasharray="1,5" d="M975.299,-2199.01C999.843,-2197.36 1036.42,-2191.53 1061.47,-2172.44 1096.86,-2145.47 1117.7,-2096.61 1127.96,-2065.66"/>
<polygon fill="black" stroke="black" points="1131.37,-2066.5 1131.04,-2055.91 1124.69,-2064.39 1131.37,-2066.5"/>
</g>
<!-- Configer&#45;&gt;ComponentBase -->
<g id="edge23" class="edge"><title>Configer&#45;&gt;ComponentBase</title>
<path fill="none" stroke="black" stroke-dasharray="1,5" d="M977.993,-2085.44C1000.83,-2080.46 1033.42,-2072.87 1061.47,-2064.44 1067.43,-2062.65 1073.62,-2060.65 1079.76,-2058.56"/>
<polygon fill="black" stroke="black" points="1081.04,-2061.83 1089.34,-2055.24 1078.75,-2055.21 1081.04,-2061.83"/>
</g>
<!-- Logger&#45;&gt;ComponentBase -->
<g id="edge27" class="edge"><title>Logger&#45;&gt;ComponentBase</title>
<path fill="none" stroke="black" stroke-dasharray="1,5" d="M713.836,-2399.4C780.994,-2413 961.113,-2438.67 1061.47,-2349.44 1103.94,-2311.68 1126.04,-2135.84 1133.26,-2066.07"/>
<polygon fill="black" stroke="black" points="1136.77,-2066.13 1134.29,-2055.83 1129.81,-2065.42 1136.77,-2066.13"/>
</g>
<!-- Route&#45;&gt;ComponentBase -->
<g id="edge24" class="edge"><title>Route&#45;&gt;ComponentBase</title>
<path fill="none" stroke="black" stroke-dasharray="1,5" d="M987.389,-2037.44C1013.75,-2037.44 1049.23,-2037.44 1078.92,-2037.44"/>
<polygon fill="black" stroke="black" points="1079.15,-2040.94 1089.15,-2037.44 1079.15,-2033.94 1079.15,-2040.94"/>
</g>
<!-- RuntimeState&#45;&gt;ComponentBase -->
<g id="edge25" class="edge"><title>RuntimeState&#45;&gt;ComponentBase</title>
<path fill="none" stroke="black" stroke-dasharray="1,5" d="M988.333,-2252.83C1012.02,-2250.5 1041.41,-2243.88 1061.47,-2226.44 1109.71,-2184.51 1126.98,-2107.23 1132.96,-2065.66"/>
<polygon fill="black" stroke="black" points="1136.44,-2066.04 1134.28,-2055.67 1129.5,-2065.12 1136.44,-2066.04"/>
</g>
<!-- ComponentInterface -->
<g id="node15" class="node"><title>ComponentInterface</title>
<polygon fill="none" stroke="black" points="1309.47,-2055.44 1220.47,-2055.44 1220.47,-2019.44 1315.47,-2019.44 1315.47,-2049.44 1309.47,-2055.44"/>
<polyline fill="none" stroke="black" points="1309.47,-2055.44 1309.47,-2049.44 "/>
<polyline fill="none" stroke="black" points="1315.47,-2049.44 1309.47,-2049.44 "/>
<text text-anchor="middle" x="1267.97" y="-2034.34" font-family="Times,serif" font-size="12.00">ComponentBase</text>
</g>
<!-- ComponentBase&#45;&gt;ComponentInterface -->
<g id="edge28" class="edge"><title>ComponentBase&#45;&gt;ComponentInterface</title>
<path fill="none" stroke="black" d="M1184.54,-2037.44C1192.94,-2037.44 1201.79,-2037.44 1210.44,-2037.44"/>
<polygon fill="black" stroke="black" points="1210.46,-2040.94 1220.46,-2037.44 1210.46,-2033.94 1210.46,-2040.94"/>
</g>
<!-- AppHelper -->
<g id="node18" class="node"><title>AppHelper</title>
<polygon fill="lightgrey" stroke="black" points="100.445,-2348.44 39.5654,-2330.44 100.445,-2312.44 161.326,-2330.44 100.445,-2348.44"/>
<polyline fill="none" stroke="black" points="51.0729,-2333.84 51.0729,-2327.04 "/>
<polyline fill="none" stroke="black" points="88.9379,-2315.84 111.953,-2315.84 "/>
<polyline fill="none" stroke="black" points="149.818,-2327.04 149.818,-2333.84 "/>
<polyline fill="none" stroke="black" points="111.953,-2345.04 88.9379,-2345.04 "/>
<text text-anchor="middle" x="100.445" y="-2327.34" font-family="Times,serif" font-size="12.00">AppHelper</text>
</g>
<!-- AppHelper&#45;&gt;App -->
<g id="edge29" class="edge"><title>AppHelper&#45;&gt;App</title>
<path fill="none" stroke="black" d="M136.834,-2323.05C185.487,-2312.85 275.742,-2293.73 352.512,-2276.44 375.786,-2271.2 401.982,-2265.03 421.998,-2260.26"/>
<polygon fill="black" stroke="black" points="422.942,-2263.63 431.854,-2257.9 421.314,-2256.82 422.942,-2263.63"/>
</g>
<!-- HelperTrait -->
<g id="node23" class="node"><title>HelperTrait</title>
<polygon fill="none" stroke="black" points="282.701,-2392.44 221.08,-2374.44 282.701,-2356.44 344.323,-2374.44 282.701,-2392.44"/>
<text text-anchor="middle" x="282.701" y="-2371.34" font-family="Times,serif" font-size="12.00">HelperTrait</text>
</g>
<!-- AppHelper&#45;&gt;HelperTrait -->
<g id="edge36" class="edge"><title>AppHelper&#45;&gt;HelperTrait</title>
<path fill="none" stroke="black" d="M134.507,-2338.51C163.763,-2345.65 206.648,-2356.12 238.589,-2363.92"/>
<polygon fill="black" stroke="black" points="238,-2367.38 248.545,-2366.35 239.66,-2360.58 238,-2367.38"/>
</g>
<!-- ControllerHelper -->
<g id="node19" class="node"><title>ControllerHelper</title>
<polygon fill="lightgrey" stroke="black" points="100.445,-2294.44 16.0545,-2276.44 100.445,-2258.44 184.836,-2276.44 100.445,-2294.44"/>
<polyline fill="none" stroke="black" points="27.7905,-2278.94 27.7905,-2273.94 "/>
<polyline fill="none" stroke="black" points="88.7094,-2260.94 112.181,-2260.94 "/>
<polyline fill="none" stroke="black" points="173.1,-2273.94 173.1,-2278.94 "/>
<polyline fill="none" stroke="black" points="112.181,-2291.94 88.7094,-2291.94 "/>
<text text-anchor="middle" x="100.445" y="-2273.34" font-family="Times,serif" font-size="12.00">ControllerHelper</text>
</g>
<!-- ControllerHelper&#45;&gt;App -->
<g id="edge30" class="edge"><title>ControllerHelper&#45;&gt;App</title>
<path fill="none" stroke="black" d="M164.974,-2272.12C237.83,-2267.17 354.987,-2259.21 415.514,-2255.09"/>
<polygon fill="black" stroke="black" points="416.043,-2258.56 425.782,-2254.39 415.568,-2251.58 416.043,-2258.56"/>
</g>
<!-- ControllerHelper&#45;&gt;HelperTrait -->
<g id="edge37" class="edge"><title>ControllerHelper&#45;&gt;HelperTrait</title>
<path fill="none" stroke="black" d="M139.855,-2286.07C154.378,-2290.42 170.793,-2296.23 184.891,-2303.44 212.208,-2317.42 240.122,-2338.8 258.912,-2354.45"/>
<polygon fill="black" stroke="black" points="256.73,-2357.18 266.623,-2360.97 261.252,-2351.84 256.73,-2357.18"/>
</g>
<!-- ModelHelper -->
<g id="node20" class="node"><title>ModelHelper</title>
<polygon fill="lightgrey" stroke="black" points="100.445,-2240.44 30.6537,-2222.44 100.445,-2204.44 170.237,-2222.44 100.445,-2240.44"/>
<polyline fill="none" stroke="black" points="42.2735,-2225.44 42.2735,-2219.44 "/>
<polyline fill="none" stroke="black" points="88.8257,-2207.44 112.065,-2207.44 "/>
<polyline fill="none" stroke="black" points="158.617,-2219.44 158.617,-2225.44 "/>
<polyline fill="none" stroke="black" points="112.065,-2237.44 88.8257,-2237.44 "/>
<text text-anchor="middle" x="100.445" y="-2219.34" font-family="Times,serif" font-size="12.00">ModelHelper</text>
</g>
<!-- ModelHelper&#45;&gt;App -->
<g id="edge31" class="edge"><title>ModelHelper&#45;&gt;App</title>
<path fill="none" stroke="black" d="M153.542,-2226.87C225.315,-2232.97 352.923,-2243.81 416.426,-2249.21"/>
<polygon fill="black" stroke="black" points="416.155,-2252.69 426.415,-2250.05 416.748,-2245.72 416.155,-2252.69"/>
</g>
<!-- ModelHelper&#45;&gt;HelperTrait -->
<g id="edge38" class="edge"><title>ModelHelper&#45;&gt;HelperTrait</title>
<path fill="none" stroke="black" d="M141.06,-2230.07C155.731,-2234.18 171.933,-2240.34 184.891,-2249.44 222.829,-2276.09 252.849,-2321.99 268.883,-2350.14"/>
<polygon fill="black" stroke="black" points="265.862,-2351.9 273.776,-2358.95 271.981,-2348.5 265.862,-2351.9"/>
</g>
<!-- ServiceHelper -->
<g id="node21" class="node"><title>ServiceHelper</title>
<polygon fill="lightgrey" stroke="black" points="100.445,-2186.44 27.1892,-2168.44 100.445,-2150.44 173.702,-2168.44 100.445,-2186.44"/>
<polyline fill="none" stroke="black" points="38.8426,-2171.3 38.8426,-2165.58 "/>
<polyline fill="none" stroke="black" points="88.7921,-2153.3 112.099,-2153.3 "/>
<polyline fill="none" stroke="black" points="162.048,-2165.58 162.048,-2171.3 "/>
<polyline fill="none" stroke="black" points="112.099,-2183.58 88.7921,-2183.58 "/>
<text text-anchor="middle" x="100.445" y="-2165.34" font-family="Times,serif" font-size="12.00">ServiceHelper</text>
</g>
<!-- ServiceHelper&#45;&gt;App -->
<g id="edge32" class="edge"><title>ServiceHelper&#45;&gt;App</title>
<path fill="none" stroke="black" d="M138.231,-2177.19C207.47,-2193.67 356.104,-2229.03 421.958,-2244.7"/>
<polygon fill="black" stroke="black" points="421.253,-2248.13 431.791,-2247.04 422.873,-2241.32 421.253,-2248.13"/>
</g>
<!-- ServiceHelper&#45;&gt;HelperTrait -->
<g id="edge39" class="edge"><title>ServiceHelper&#45;&gt;HelperTrait</title>
<path fill="none" stroke="black" d="M144.459,-2175.69C158.503,-2179.7 173.42,-2185.9 184.891,-2195.44 234.044,-2236.34 262.084,-2308.87 274.297,-2347.87"/>
<polygon fill="black" stroke="black" points="271.09,-2349.36 277.326,-2357.93 277.793,-2347.35 271.09,-2349.36"/>
</g>
<!-- ViewHelper -->
<g id="node22" class="node"><title>ViewHelper</title>
<polygon fill="lightgrey" stroke="black" points="100.445,-2402.44 35.3591,-2384.44 100.445,-2366.44 165.532,-2384.44 100.445,-2402.44"/>
<polyline fill="none" stroke="black" points="46.9249,-2387.64 46.9249,-2381.24 "/>
<polyline fill="none" stroke="black" points="88.8796,-2369.64 112.011,-2369.64 "/>
<polyline fill="none" stroke="black" points="153.966,-2381.24 153.966,-2387.64 "/>
<polyline fill="none" stroke="black" points="112.011,-2399.24 88.8796,-2399.24 "/>
<text text-anchor="middle" x="100.445" y="-2381.34" font-family="Times,serif" font-size="12.00">ViewHelper</text>
</g>
<!-- ViewHelper&#45;&gt;App -->
<g id="edge33" class="edge"><title>ViewHelper&#45;&gt;App</title>
<path fill="none" stroke="black" d="M132.168,-2374.93C196.856,-2354.88 342.034,-2309.77 352.512,-2305.44 379.896,-2294.12 409.828,-2278.1 430.14,-2266.64"/>
<polygon fill="black" stroke="black" points="432.067,-2269.57 439.019,-2261.58 428.598,-2263.49 432.067,-2269.57"/>
</g>
<!-- ViewHelper&#45;&gt;HelperTrait -->
<g id="edge40" class="edge"><title>ViewHelper&#45;&gt;HelperTrait</title>
<path fill="none" stroke="black" d="M155.04,-2381.47C175.553,-2380.33 199.104,-2379.02 220.291,-2377.85"/>
<polygon fill="black" stroke="black" points="220.688,-2381.33 230.479,-2377.28 220.3,-2374.34 220.688,-2381.33"/>
</g>
<!-- HelperTrait&#45;&gt;App -->
<g id="edge34" class="edge"><title>HelperTrait&#45;&gt;App</title>
<path fill="none" stroke="black" d="M310.125,-2364.27C323.334,-2358.67 339.28,-2351.09 352.512,-2342.44 384.618,-2321.45 417.047,-2290.86 436.463,-2271.31"/>
<polygon fill="black" stroke="black" points="438.976,-2273.74 443.476,-2264.15 433.976,-2268.84 438.976,-2273.74"/>
</g>
<!-- HelperTrait&#45;&gt;ExtendableStaticCallTrait -->
<g id="edge35" class="edge"><title>HelperTrait&#45;&gt;ExtendableStaticCallTrait</title>
<path fill="none" stroke="black" d="M321.155,-2381.24C389.886,-2393.73 536.865,-2420.42 621.69,-2435.82"/>
<polygon fill="black" stroke="black" points="621.252,-2439.3 631.717,-2437.65 622.503,-2432.42 621.252,-2439.3"/>
</g>
<!-- Db_Db -->
<g id="node24" class="node"><title>Db_Db</title>
<polygon fill="lightgrey" stroke="black" points="686.651,-1265.44 658.934,-1247.44 686.651,-1229.44 714.368,-1247.44 686.651,-1265.44"/>
<polyline fill="none" stroke="black" points="668.173,-1253.44 668.173,-1241.44 "/>
<polyline fill="none" stroke="black" points="677.412,-1235.44 695.89,-1235.44 "/>
<polyline fill="none" stroke="black" points="705.129,-1241.44 705.129,-1253.44 "/>
<polyline fill="none" stroke="black" points="695.89,-1259.44 677.412,-1259.44 "/>
<text text-anchor="middle" x="686.651" y="-1244.34" font-family="Times,serif" font-size="12.00">Db</text>
</g>
<!-- Db_DbAdvanceTrait -->
<g id="node25" class="node"><title>Db_DbAdvanceTrait</title>
<polygon fill="none" stroke="black" points="948.129,-1211.44 863.738,-1193.44 948.129,-1175.44 1032.52,-1193.44 948.129,-1211.44"/>
<text text-anchor="middle" x="948.129" y="-1190.34" font-family="Times,serif" font-size="12.00">DbAdvanceTrait</text>
</g>
<!-- Db_Db&#45;&gt;Db_DbAdvanceTrait -->
<g id="edge41" class="edge"><title>Db_Db&#45;&gt;Db_DbAdvanceTrait</title>
<path fill="none" stroke="black" d="M708.012,-1243.2C747.796,-1234.92 836.981,-1216.36 894.476,-1204.4"/>
<polygon fill="black" stroke="black" points="895.395,-1207.78 904.472,-1202.32 893.969,-1200.93 895.395,-1207.78"/>
</g>
<!-- Db_DbInterface -->
<g id="node26" class="node"><title>Db_DbInterface</title>
<polygon fill="none" stroke="black" points="978.629,-1265.44 911.629,-1265.44 911.629,-1229.44 984.629,-1229.44 984.629,-1259.44 978.629,-1265.44"/>
<polyline fill="none" stroke="black" points="978.629,-1265.44 978.629,-1259.44 "/>
<polyline fill="none" stroke="black" points="984.629,-1259.44 978.629,-1259.44 "/>
<text text-anchor="middle" x="948.129" y="-1244.34" font-family="Times,serif" font-size="12.00">DbInterface</text>
</g>
<!-- Db_Db&#45;&gt;Db_DbInterface -->
<g id="edge42" class="edge"><title>Db_Db&#45;&gt;Db_DbInterface</title>
<path fill="none" stroke="black" d="M714.442,-1247.44C758.599,-1247.44 847.162,-1247.44 901.387,-1247.44"/>
<polygon fill="black" stroke="black" points="901.422,-1250.94 911.422,-1247.44 901.422,-1243.94 901.422,-1250.94"/>
</g>
<!-- HttpServer -->
<g id="node27" class="node"><title>HttpServer</title>
<polygon fill="lightgrey" stroke="black" points="948.129,-1560.44 888.731,-1542.44 948.129,-1524.44 1007.53,-1542.44 948.129,-1560.44"/>
<polyline fill="none" stroke="black" points="900.215,-1545.92 900.215,-1538.96 "/>
<polyline fill="none" stroke="black" points="936.645,-1527.92 959.613,-1527.92 "/>
<polyline fill="none" stroke="black" points="996.043,-1538.96 996.043,-1545.92 "/>
<polyline fill="none" stroke="black" points="959.613,-1556.96 936.645,-1556.96 "/>
<text text-anchor="middle" x="948.129" y="-1539.34" font-family="Times,serif" font-size="12.00">HttpServer</text>
</g>
<!-- PluginInterface -->
<g id="node28" class="node"><title>PluginInterface</title>
<polygon fill="none" stroke="black" points="1000.63,-1506.44 889.629,-1506.44 889.629,-1470.44 1006.63,-1470.44 1006.63,-1500.44 1000.63,-1506.44"/>
<polyline fill="none" stroke="black" points="1000.63,-1506.44 1000.63,-1500.44 "/>
<polyline fill="none" stroke="black" points="1006.63,-1500.44 1000.63,-1500.44 "/>
<text text-anchor="middle" x="948.129" y="-1485.34" font-family="Times,serif" font-size="12.00">PluginInterface(todo)</text>
</g>
<!-- FileRunnerTrait -->
<g id="node29" class="node"><title>FileRunnerTrait</title>
<polygon fill="none" stroke="black" points="948.129,-1452.44 842.95,-1434.44 948.129,-1416.44 1053.31,-1434.44 948.129,-1452.44"/>
<text text-anchor="middle" x="948.129" y="-1431.34" font-family="Times,serif" font-size="12.00">FileRunnerTrait(todo)</text>
</g>
<!-- Cache -->
<g id="node30" class="node"><title>Cache</title>
<polygon fill="none" stroke="black" points="482.512,-1695.44 428.512,-1695.44 428.512,-1691.44 424.512,-1691.44 424.512,-1687.44 428.512,-1687.44 428.512,-1667.44 424.512,-1667.44 424.512,-1663.44 428.512,-1663.44 428.512,-1659.44 482.512,-1659.44 482.512,-1695.44"/>
<polyline fill="none" stroke="black" points="428.512,-1691.44 432.512,-1691.44 432.512,-1687.44 428.512,-1687.44 "/>
<polyline fill="none" stroke="black" points="428.512,-1667.44 432.512,-1667.44 432.512,-1663.44 428.512,-1663.44 "/>
<text text-anchor="middle" x="455.512" y="-1674.34" font-family="Times,serif" font-size="12.00">Cache</text>
</g>
<!-- Cache&#45;&gt;ComponentBase -->
<g id="edge43" class="edge"><title>Cache&#45;&gt;ComponentBase</title>
<path fill="none" stroke="black" stroke-dasharray="1,5" d="M482.676,-1675C499.143,-1671.99 519.329,-1665.3 530.512,-1650.44 600.026,-1558.06 481.982,-1210.31 566.512,-1131.44 573.596,-1124.83 1055.79,-1127.19 1061.47,-1132.44 1127.39,-1193.4 1134.98,-1862.47 1135.85,-2009.13"/>
<polygon fill="black" stroke="black" points="1132.35,-2009.16 1135.91,-2019.15 1139.35,-2009.13 1132.35,-2009.16"/>
</g>
<!-- Console -->
<g id="node31" class="node"><title>Console</title>
<polygon fill="lightgrey" stroke="black" points="455.512,-1965.44 407.007,-1947.44 455.512,-1929.44 504.017,-1947.44 455.512,-1965.44"/>
<polyline fill="none" stroke="black" points="418.257,-1951.62 418.257,-1943.27 "/>
<polyline fill="none" stroke="black" points="444.262,-1933.62 466.762,-1933.62 "/>
<polyline fill="none" stroke="black" points="492.767,-1943.27 492.767,-1951.62 "/>
<polyline fill="none" stroke="black" points="466.762,-1961.27 444.262,-1961.27 "/>
<text text-anchor="middle" x="455.512" y="-1944.34" font-family="Times,serif" font-size="12.00">Console</text>
</g>
<!-- DuckPhpCommand -->
<g id="node32" class="node"><title>DuckPhpCommand</title>
<polygon fill="none" stroke="black" points="742.151,-1965.44 631.151,-1965.44 631.151,-1961.44 627.151,-1961.44 627.151,-1957.44 631.151,-1957.44 631.151,-1937.44 627.151,-1937.44 627.151,-1933.44 631.151,-1933.44 631.151,-1929.44 742.151,-1929.44 742.151,-1965.44"/>
<polyline fill="none" stroke="black" points="631.151,-1961.44 635.151,-1961.44 635.151,-1957.44 631.151,-1957.44 "/>
<polyline fill="none" stroke="black" points="631.151,-1937.44 635.151,-1937.44 635.151,-1933.44 631.151,-1933.44 "/>
<text text-anchor="middle" x="686.651" y="-1944.34" font-family="Times,serif" font-size="12.00">DuckPhpCommand</text>
</g>
<!-- Console&#45;&gt;DuckPhpCommand -->
<!-- DuckPhpCommand&#45;&gt;ComponentBase -->
<g id="edge44" class="edge"><title>DuckPhpCommand&#45;&gt;ComponentBase</title>
<path fill="none" stroke="black" stroke-dasharray="1,5" d="M742.176,-1935C769.768,-1929.32 803.882,-1923.25 834.79,-1920.44 935.121,-1911.31 973.147,-1871.97 1061.47,-1920.44 1095.69,-1939.22 1116.44,-1981.13 1127.06,-2009.34"/>
<polygon fill="black" stroke="black" points="1123.87,-2010.81 1130.52,-2019.05 1130.46,-2008.46 1123.87,-2010.81"/>
</g>
<!-- DuckPhpCommand&#45;&gt;HttpServer -->
<g id="edge53" class="edge"><title>DuckPhpCommand&#45;&gt;HttpServer</title>
<path fill="none" stroke="black" d="M742.295,-1948.56C765.545,-1946.02 790.908,-1938.67 806.79,-1920.44 854.698,-1865.45 792.709,-1653.01 834.79,-1593.44 850.091,-1571.78 876.869,-1559.14 900.443,-1551.87"/>
<polygon fill="black" stroke="black" points="901.644,-1555.16 910.307,-1549.07 899.732,-1548.43 901.644,-1555.16"/>
</g>
<!-- Installer -->
<g id="node35" class="node"><title>Installer</title>
<polygon fill="none" stroke="black" points="975.129,-1965.44 921.129,-1965.44 921.129,-1961.44 917.129,-1961.44 917.129,-1957.44 921.129,-1957.44 921.129,-1937.44 917.129,-1937.44 917.129,-1933.44 921.129,-1933.44 921.129,-1929.44 975.129,-1929.44 975.129,-1965.44"/>
<polyline fill="none" stroke="black" points="921.129,-1961.44 925.129,-1961.44 925.129,-1957.44 921.129,-1957.44 "/>
<polyline fill="none" stroke="black" points="921.129,-1937.44 925.129,-1937.44 925.129,-1933.44 921.129,-1933.44 "/>
<text text-anchor="middle" x="948.129" y="-1944.34" font-family="Times,serif" font-size="12.00">Installer</text>
</g>
<!-- DuckPhpCommand&#45;&gt;Installer -->
<g id="edge52" class="edge"><title>DuckPhpCommand&#45;&gt;Installer</title>
<path fill="none" stroke="black" d="M742.362,-1947.44C793.049,-1947.44 867.013,-1947.44 910.789,-1947.44"/>
<polygon fill="black" stroke="black" points="910.972,-1950.94 920.972,-1947.44 910.972,-1943.94 910.972,-1950.94"/>
</g>
<!-- DbManager -->
<g id="node33" class="node"><title>DbManager</title>
<polygon fill="none" stroke="black" points="492.512,-1749.44 418.512,-1749.44 418.512,-1745.44 414.512,-1745.44 414.512,-1741.44 418.512,-1741.44 418.512,-1721.44 414.512,-1721.44 414.512,-1717.44 418.512,-1717.44 418.512,-1713.44 492.512,-1713.44 492.512,-1749.44"/>
<polyline fill="none" stroke="black" points="418.512,-1745.44 422.512,-1745.44 422.512,-1741.44 418.512,-1741.44 "/>
<polyline fill="none" stroke="black" points="418.512,-1721.44 422.512,-1721.44 422.512,-1717.44 418.512,-1717.44 "/>
<text text-anchor="middle" x="455.512" y="-1728.34" font-family="Times,serif" font-size="12.00">DbManager</text>
</g>
<!-- DbManager&#45;&gt;ComponentBase -->
<g id="edge45" class="edge"><title>DbManager&#45;&gt;ComponentBase</title>
<path fill="none" stroke="black" stroke-dasharray="1,5" d="M492.84,-1726.75C506.822,-1723.03 521.566,-1716.36 530.512,-1704.44 602.823,-1608.06 478.531,-1245.76 566.512,-1163.44 606.67,-1125.87 1020.96,-1126.24 1061.47,-1163.44 1125.21,-1221.98 1134.49,-1865.74 1135.77,-2009.21"/>
<polygon fill="black" stroke="black" points="1132.27,-2009.41 1135.86,-2019.38 1139.27,-2009.36 1132.27,-2009.41"/>
</g>
<!-- DbManager&#45;&gt;Db_Db -->
<g id="edge54" class="edge"><title>DbManager&#45;&gt;Db_Db</title>
<path fill="none" stroke="black" d="M492.711,-1726.65C506.673,-1722.92 521.435,-1716.27 530.512,-1704.44 585.665,-1632.59 513.341,-1371.77 566.512,-1298.44 586.656,-1270.66 625.084,-1257.88 652.861,-1252.09"/>
<polygon fill="black" stroke="black" points="653.745,-1255.48 662.925,-1250.19 652.45,-1248.6 653.745,-1255.48"/>
</g>
<!-- EventManager -->
<g id="node34" class="node"><title>EventManager</title>
<polygon fill="none" stroke="black" points="498.512,-1641.44 412.512,-1641.44 412.512,-1637.44 408.512,-1637.44 408.512,-1633.44 412.512,-1633.44 412.512,-1613.44 408.512,-1613.44 408.512,-1609.44 412.512,-1609.44 412.512,-1605.44 498.512,-1605.44 498.512,-1641.44"/>
<polyline fill="none" stroke="black" points="412.512,-1637.44 416.512,-1637.44 416.512,-1633.44 412.512,-1633.44 "/>
<polyline fill="none" stroke="black" points="412.512,-1613.44 416.512,-1613.44 416.512,-1609.44 412.512,-1609.44 "/>
<text text-anchor="middle" x="455.512" y="-1620.34" font-family="Times,serif" font-size="12.00">EventManager</text>
</g>
<!-- EventManager&#45;&gt;ComponentBase -->
<g id="edge46" class="edge"><title>EventManager&#45;&gt;ComponentBase</title>
<path fill="none" stroke="black" stroke-dasharray="1,5" d="M457.567,-1605.43C462.781,-1523.35 488.754,-1185.95 566.512,-1123.44 574.127,-1117.32 1056.35,-1119.71 1061.47,-1124.44 1128.01,-1186.02 1135.12,-1862.37 1135.88,-2009.36"/>
<polygon fill="black" stroke="black" points="1132.38,-2009.4 1135.92,-2019.38 1139.38,-2009.36 1132.38,-2009.4"/>
</g>
<!-- Installer&#45;&gt;ComponentBase -->
<g id="edge47" class="edge"><title>Installer&#45;&gt;ComponentBase</title>
<path fill="none" stroke="black" stroke-dasharray="1,5" d="M975.502,-1960.15C1004.96,-1974.33 1053.21,-1997.58 1089.12,-2014.88"/>
<polygon fill="black" stroke="black" points="1087.9,-2018.17 1098.43,-2019.36 1090.94,-2011.87 1087.9,-2018.17"/>
</g>
<!-- Pager -->
<g id="node36" class="node"><title>Pager</title>
<polygon fill="none" stroke="black" points="482.512,-1911.44 428.512,-1911.44 428.512,-1907.44 424.512,-1907.44 424.512,-1903.44 428.512,-1903.44 428.512,-1883.44 424.512,-1883.44 424.512,-1879.44 428.512,-1879.44 428.512,-1875.44 482.512,-1875.44 482.512,-1911.44"/>
<polyline fill="none" stroke="black" points="428.512,-1907.44 432.512,-1907.44 432.512,-1903.44 428.512,-1903.44 "/>
<polyline fill="none" stroke="black" points="428.512,-1883.44 432.512,-1883.44 432.512,-1879.44 428.512,-1879.44 "/>
<text text-anchor="middle" x="455.512" y="-1890.34" font-family="Times,serif" font-size="12.00">Pager</text>
</g>
<!-- Pager&#45;&gt;ComponentBase -->
<g id="edge48" class="edge"><title>Pager&#45;&gt;ComponentBase</title>
<path fill="none" stroke="black" stroke-dasharray="1,5" d="M482.862,-1888.18C497.992,-1884.15 516.675,-1877.38 530.512,-1866.44 723.361,-1713.93 618.341,-1521.06 834.79,-1404.44 879.136,-1380.55 1023.82,-1370.97 1061.47,-1404.44 1107.38,-1445.26 1129.7,-1891.58 1134.81,-2009.18"/>
<polygon fill="black" stroke="black" points="1131.31,-2009.37 1135.24,-2019.21 1138.31,-2009.07 1131.31,-2009.37"/>
</g>
<!-- PagerInterface -->
<g id="node37" class="node"><title>PagerInterface</title>
<polygon fill="none" stroke="black" points="723.151,-1911.44 644.151,-1911.44 644.151,-1875.44 729.151,-1875.44 729.151,-1905.44 723.151,-1911.44"/>
<polyline fill="none" stroke="black" points="723.151,-1911.44 723.151,-1905.44 "/>
<polyline fill="none" stroke="black" points="729.151,-1905.44 723.151,-1905.44 "/>
<text text-anchor="middle" x="686.651" y="-1890.34" font-family="Times,serif" font-size="12.00">PagerInterface</text>
</g>
<!-- Pager&#45;&gt;PagerInterface -->
<g id="edge55" class="edge"><title>Pager&#45;&gt;PagerInterface</title>
<path fill="none" stroke="black" d="M482.797,-1893.44C519.409,-1893.44 586.539,-1893.44 633.512,-1893.44"/>
<polygon fill="black" stroke="black" points="633.802,-1896.94 643.802,-1893.44 633.802,-1889.94 633.802,-1896.94"/>
</g>
<!-- RouteHookPathInfoCompat -->
<g id="node38" class="node"><title>RouteHookPathInfoCompat</title>
<polygon fill="none" stroke="black" points="530.512,-1857.44 380.512,-1857.44 380.512,-1853.44 376.512,-1853.44 376.512,-1849.44 380.512,-1849.44 380.512,-1829.44 376.512,-1829.44 376.512,-1825.44 380.512,-1825.44 380.512,-1821.44 530.512,-1821.44 530.512,-1857.44"/>
<polyline fill="none" stroke="black" points="380.512,-1853.44 384.512,-1853.44 384.512,-1849.44 380.512,-1849.44 "/>
<polyline fill="none" stroke="black" points="380.512,-1829.44 384.512,-1829.44 384.512,-1825.44 380.512,-1825.44 "/>
<text text-anchor="middle" x="455.512" y="-1836.34" font-family="Times,serif" font-size="12.00">RouteHookPathInfoCompat</text>
</g>
<!-- RouteHookPathInfoCompat&#45;&gt;ComponentBase -->
<g id="edge49" class="edge"><title>RouteHookPathInfoCompat&#45;&gt;ComponentBase</title>
<path fill="none" stroke="black" stroke-dasharray="1,5" d="M521.524,-1821.32C524.879,-1818.74 527.925,-1815.8 530.512,-1812.44 583.76,-1743.32 506.802,-1485.07 566.512,-1421.44 642.05,-1340.95 979.14,-1305.91 1061.47,-1379.44 1109.17,-1422.05 1130.24,-1887.87 1134.93,-2008.86"/>
<polygon fill="black" stroke="black" points="1131.44,-2009.3 1135.32,-2019.16 1138.44,-2009.04 1131.44,-2009.3"/>
</g>
<!-- RouteHookRouteMap -->
<g id="node39" class="node"><title>RouteHookRouteMap</title>
<polygon fill="none" stroke="black" points="516.512,-1803.44 394.512,-1803.44 394.512,-1799.44 390.512,-1799.44 390.512,-1795.44 394.512,-1795.44 394.512,-1775.44 390.512,-1775.44 390.512,-1771.44 394.512,-1771.44 394.512,-1767.44 516.512,-1767.44 516.512,-1803.44"/>
<polyline fill="none" stroke="black" points="394.512,-1799.44 398.512,-1799.44 398.512,-1795.44 394.512,-1795.44 "/>
<polyline fill="none" stroke="black" points="394.512,-1775.44 398.512,-1775.44 398.512,-1771.44 394.512,-1771.44 "/>
<text text-anchor="middle" x="455.512" y="-1782.34" font-family="Times,serif" font-size="12.00">RouteHookRouteMap</text>
</g>
<!-- RouteHookRouteMap&#45;&gt;ComponentBase -->
<g id="edge50" class="edge"><title>RouteHookRouteMap&#45;&gt;ComponentBase</title>
<path fill="none" stroke="black" stroke-dasharray="1,5" d="M516.832,-1770.61C522.059,-1767.33 526.771,-1763.33 530.512,-1758.44 587.189,-1684.41 498.407,-1404.11 566.512,-1340.44 606.687,-1302.88 1020.58,-1298.66 1061.47,-1335.44 1112.44,-1381.29 1131.22,-1883.25 1135.15,-2009"/>
<polygon fill="black" stroke="black" points="1131.66,-2009.45 1135.46,-2019.34 1138.65,-2009.24 1131.66,-2009.45"/>
</g>
<!-- DuckPhp -->
<g id="node40" class="node"><title>DuckPhp</title>
<polygon fill="lightgrey" stroke="black" points="282.701,-1857.44 228.751,-1839.44 282.701,-1821.44 336.652,-1839.44 282.701,-1857.44"/>
<polyline fill="none" stroke="black" points="240.134,-1843.24 240.134,-1835.64 "/>
<polyline fill="none" stroke="black" points="271.318,-1825.24 294.085,-1825.24 "/>
<polyline fill="none" stroke="black" points="325.269,-1835.64 325.269,-1843.24 "/>
<polyline fill="none" stroke="black" points="294.085,-1853.64 271.318,-1853.64 "/>
<text text-anchor="middle" x="282.701" y="-1836.34" font-family="Times,serif" font-size="12.00">DuckPhp</text>
</g>
<!-- DuckPhp&#45;&gt;App -->
<g id="edge56" class="edge"><title>DuckPhp&#45;&gt;App</title>
<path fill="none" stroke="black" d="M290.189,-1855.13C316.205,-1918.03 413.084,-2152.27 444.563,-2228.39"/>
<polygon fill="black" stroke="black" points="441.5,-2230.14 448.556,-2238.04 447.969,-2227.46 441.5,-2230.14"/>
</g>
<!-- DuckPhp&#45;&gt;Cache -->
<g id="edge62" class="edge"><title>DuckPhp&#45;&gt;Cache</title>
<path fill="none" stroke="black" d="M289.928,-1823.61C301.77,-1795.51 330.191,-1736.85 372.512,-1704.44 385.758,-1694.3 402.988,-1687.87 418.233,-1683.85"/>
<polygon fill="black" stroke="black" points="419.479,-1687.15 428.397,-1681.43 417.859,-1680.34 419.479,-1687.15"/>
</g>
<!-- DuckPhp&#45;&gt;Console -->
<g id="edge63" class="edge"><title>DuckPhp&#45;&gt;Console</title>
<path fill="none" stroke="black" d="M295.55,-1853.41C311.399,-1871.29 341.16,-1902.12 372.512,-1920.44 385.425,-1927.99 400.729,-1933.75 414.599,-1937.98"/>
<polygon fill="black" stroke="black" points="413.812,-1941.39 424.39,-1940.79 415.743,-1934.66 413.812,-1941.39"/>
</g>
<!-- DuckPhp&#45;&gt;DuckPhpCommand -->
<g id="edge64" class="edge"><title>DuckPhp&#45;&gt;DuckPhpCommand</title>
<path fill="none" stroke="black" d="M288.688,-1855.74C298.85,-1885.72 325.099,-1948.88 372.512,-1974.44 454.745,-2018.78 567.047,-1991.73 632.416,-1968.96"/>
<polygon fill="black" stroke="black" points="633.864,-1972.15 642.101,-1965.49 631.507,-1965.56 633.864,-1972.15"/>
</g>
<!-- DuckPhp&#45;&gt;DbManager -->
<g id="edge59" class="edge"><title>DuckPhp&#45;&gt;DbManager</title>
<path fill="none" stroke="black" d="M295.55,-1825.47C311.399,-1807.6 341.16,-1776.76 372.512,-1758.44 383.642,-1751.94 396.55,-1746.76 408.783,-1742.74"/>
<polygon fill="black" stroke="black" points="409.882,-1746.07 418.403,-1739.77 407.816,-1739.38 409.882,-1746.07"/>
</g>
<!-- DuckPhp&#45;&gt;EventManager -->
<g id="edge60" class="edge"><title>DuckPhp&#45;&gt;EventManager</title>
<path fill="none" stroke="black" d="M286.916,-1822.62C294.795,-1785.95 318.501,-1698.27 372.512,-1650.44 381.104,-1642.83 391.892,-1637.36 402.793,-1633.43"/>
<polygon fill="black" stroke="black" points="403.904,-1636.75 412.351,-1630.35 401.759,-1630.08 403.904,-1636.75"/>
</g>
<!-- DuckPhp&#45;&gt;Pager -->
<g id="edge58" class="edge"><title>DuckPhp&#45;&gt;Pager</title>
<path fill="none" stroke="black" d="M311.145,-1848.12C340.248,-1857.32 386.352,-1871.89 418.39,-1882.02"/>
<polygon fill="black" stroke="black" points="417.669,-1885.46 428.258,-1885.14 419.779,-1878.79 417.669,-1885.46"/>
</g>
<!-- DuckPhp&#45;&gt;RouteHookPathInfoCompat -->
<g id="edge61" class="edge"><title>DuckPhp&#45;&gt;RouteHookPathInfoCompat</title>
<path fill="none" stroke="black" d="M336.811,-1839.44C347.491,-1839.44 358.961,-1839.44 370.4,-1839.44"/>
<polygon fill="black" stroke="black" points="370.425,-1842.94 380.425,-1839.44 370.424,-1835.94 370.425,-1842.94"/>
</g>
<!-- DuckPhp&#45;&gt;RouteHookRouteMap -->
<g id="edge57" class="edge"><title>DuckPhp&#45;&gt;RouteHookRouteMap</title>
<path fill="none" stroke="black" d="M311.145,-1830.77C331.807,-1824.23 361.038,-1814.99 387.721,-1806.56"/>
<polygon fill="black" stroke="black" points="388.936,-1809.84 397.416,-1803.49 386.826,-1803.17 388.936,-1809.84"/>
</g>
<!-- ThrowOnTrait -->
<g id="node41" class="node"><title>ThrowOnTrait</title>
<polygon fill="lightgrey" stroke="black" points="100.445,-2483.44 25.7069,-2465.44 100.445,-2447.44 175.184,-2465.44 100.445,-2483.44"/>
<polyline fill="none" stroke="black" points="37.3733,-2468.25 37.3733,-2462.63 "/>
<polyline fill="none" stroke="black" points="88.779,-2450.25 112.112,-2450.25 "/>
<polyline fill="none" stroke="black" points="163.518,-2462.63 163.518,-2468.25 "/>
<polyline fill="none" stroke="black" points="112.112,-2480.63 88.779,-2480.63 "/>
<text text-anchor="middle" x="100.445" y="-2462.34" font-family="Times,serif" font-size="12.00">ThrowOnTrait</text>
</g>
<!-- CallableView -->
<g id="node42" class="node"><title>CallableView</title>
<polygon fill="none" stroke="black" points="727.651,-268.441 645.651,-268.441 645.651,-264.441 641.651,-264.441 641.651,-260.441 645.651,-260.441 645.651,-240.441 641.651,-240.441 641.651,-236.441 645.651,-236.441 645.651,-232.441 727.651,-232.441 727.651,-268.441"/>
<polyline fill="none" stroke="black" points="645.651,-264.441 649.651,-264.441 649.651,-260.441 645.651,-260.441 "/>
<polyline fill="none" stroke="black" points="645.651,-240.441 649.651,-240.441 649.651,-236.441 645.651,-236.441 "/>
<text text-anchor="middle" x="686.651" y="-247.341" font-family="Times,serif" font-size="12.00">CallableView</text>
</g>
<!-- X_Core_View -->
<g id="node62" class="node"><title>X_Core_View</title>
<polygon fill="none" stroke="black" points="988.629,-316.441 889.629,-316.441 889.629,-292.441 988.629,-292.441 988.629,-286.441 1006.63,-304.441 988.629,-322.441 988.629,-316.441"/>
<text text-anchor="middle" x="948.129" y="-301.341" font-family="Times,serif" font-size="12.00">DuckPhp\Core\View</text>
</g>
<!-- CallableView&#45;&gt;X_Core_View -->
<g id="edge81" class="edge"><title>CallableView&#45;&gt;X_Core_View</title>
<path fill="none" stroke="black" d="M727.91,-258.819C768.31,-267.227 831.281,-280.332 879.386,-290.343"/>
<polygon fill="black" stroke="black" points="878.908,-293.819 889.411,-292.43 880.334,-286.966 878.908,-293.819"/>
</g>
<!-- EmptyView -->
<g id="node43" class="node"><title>EmptyView</title>
<polygon fill="none" stroke="black" points="723.651,-376.441 649.651,-376.441 649.651,-372.441 645.651,-372.441 645.651,-368.441 649.651,-368.441 649.651,-348.441 645.651,-348.441 645.651,-344.441 649.651,-344.441 649.651,-340.441 723.651,-340.441 723.651,-376.441"/>
<polyline fill="none" stroke="black" points="649.651,-372.441 653.651,-372.441 653.651,-368.441 649.651,-368.441 "/>
<polyline fill="none" stroke="black" points="649.651,-348.441 653.651,-348.441 653.651,-344.441 649.651,-344.441 "/>
<text text-anchor="middle" x="686.651" y="-355.341" font-family="Times,serif" font-size="12.00">EmptyView</text>
</g>
<!-- EmptyView&#45;&gt;X_Core_View -->
<g id="edge82" class="edge"><title>EmptyView&#45;&gt;X_Core_View</title>
<path fill="none" stroke="black" d="M723.73,-350.933C763.856,-342.582 829.574,-328.906 879.37,-318.543"/>
<polygon fill="black" stroke="black" points="880.344,-321.915 889.422,-316.451 878.918,-315.062 880.344,-321.915"/>
</g>
<!-- ExceptionWrapper -->
<g id="node44" class="node"><title>ExceptionWrapper</title>
<polygon fill="none" stroke="black" points="739.651,-160.441 633.651,-160.441 633.651,-156.441 629.651,-156.441 629.651,-152.441 633.651,-152.441 633.651,-132.441 629.651,-132.441 629.651,-128.441 633.651,-128.441 633.651,-124.441 739.651,-124.441 739.651,-160.441"/>
<polyline fill="none" stroke="black" points="633.651,-156.441 637.651,-156.441 637.651,-152.441 633.651,-152.441 "/>
<polyline fill="none" stroke="black" points="633.651,-132.441 637.651,-132.441 637.651,-128.441 633.651,-128.441 "/>
<text text-anchor="middle" x="686.651" y="-139.341" font-family="Times,serif" font-size="12.00">ExceptionWrapper</text>
</g>
<!-- ExceptionWrapper&#45;&gt;ComponentBase -->
<g id="edge65" class="edge"><title>ExceptionWrapper&#45;&gt;ComponentBase</title>
<path fill="none" stroke="black" stroke-dasharray="1,5" d="M739.809,-139.608C832.171,-135.831 1018.79,-134.19 1061.47,-179.441 1127.05,-248.981 1135.05,-1780.53 1135.88,-2009.03"/>
<polygon fill="black" stroke="black" points="1132.38,-2009.21 1135.92,-2019.2 1139.38,-2009.19 1132.38,-2009.21"/>
</g>
<!-- HookChain -->
<g id="node45" class="node"><title>HookChain</title>
<ellipse fill="none" stroke="black" cx="686.651" cy="-844.441" rx="44.1452" ry="18"/>
<text text-anchor="middle" x="686.651" y="-841.341" font-family="Times,serif" font-size="12.00">HookChain</text>
</g>
<!-- HttpServerPlugin -->
<g id="node46" class="node"><title>HttpServerPlugin</title>
<polygon fill="none" stroke="black" points="750.651,-106.441 622.651,-106.441 622.651,-102.441 618.651,-102.441 618.651,-98.4412 622.651,-98.4412 622.651,-78.4412 618.651,-78.4412 618.651,-74.4412 622.651,-74.4412 622.651,-70.4412 750.651,-70.4412 750.651,-106.441"/>
<polyline fill="none" stroke="black" points="622.651,-102.441 626.651,-102.441 626.651,-98.4412 622.651,-98.4412 "/>
<polyline fill="none" stroke="black" points="622.651,-78.4412 626.651,-78.4412 626.651,-74.4412 622.651,-74.4412 "/>
<text text-anchor="middle" x="686.651" y="-85.3412" font-family="Times,serif" font-size="12.00">HttpServerPlugin(todo)</text>
</g>
<!-- HttpServerPlugin&#45;&gt;ComponentBase -->
<g id="edge66" class="edge"><title>HttpServerPlugin&#45;&gt;ComponentBase</title>
<path fill="none" stroke="black" stroke-dasharray="1,5" d="M750.805,-74.4213C835.245,-59.8227 983.33,-49.5061 1061.47,-134.441 1127.82,-206.562 1135.17,-1777.69 1135.89,-2009.08"/>
<polygon fill="black" stroke="black" points="1132.4,-2009.37 1135.93,-2019.36 1139.4,-2009.35 1132.4,-2009.37"/>
</g>
<!-- JsonRpcClientBase -->
<g id="node47" class="node"><title>JsonRpcClientBase</title>
<polygon fill="none" stroke="black" points="741.151,-214.441 632.151,-214.441 632.151,-210.441 628.151,-210.441 628.151,-206.441 632.151,-206.441 632.151,-186.441 628.151,-186.441 628.151,-182.441 632.151,-182.441 632.151,-178.441 741.151,-178.441 741.151,-214.441"/>
<polyline fill="none" stroke="black" points="632.151,-210.441 636.151,-210.441 636.151,-206.441 632.151,-206.441 "/>
<polyline fill="none" stroke="black" points="632.151,-186.441 636.151,-186.441 636.151,-182.441 632.151,-182.441 "/>
<text text-anchor="middle" x="686.651" y="-193.341" font-family="Times,serif" font-size="12.00">JsonRpcClientBase</text>
</g>
<!-- JsonRpcClientBase&#45;&gt;ComponentBase -->
<g id="edge87" class="edge"><title>JsonRpcClientBase&#45;&gt;ComponentBase</title>
<path fill="none" stroke="black" stroke-dasharray="1,5" d="M741.45,-190.764C834.13,-182.299 1018.15,-171.689 1061.47,-215.441 1127.39,-282.016 1135.1,-1783.72 1135.89,-2009.21"/>
<polygon fill="black" stroke="black" points="1132.39,-2009.26 1135.92,-2019.25 1139.39,-2009.24 1132.39,-2009.26"/>
</g>
<!-- JsonRpcExt -->
<g id="node64" class="node"><title>JsonRpcExt</title>
<ellipse fill="none" stroke="black" cx="948.129" cy="-242.441" rx="45.6069" ry="18"/>
<text text-anchor="middle" x="948.129" y="-239.341" font-family="Times,serif" font-size="12.00">JsonRpcExt</text>
</g>
<!-- JsonRpcClientBase&#45;&gt;JsonRpcExt -->
<g id="edge86" class="edge"><title>JsonRpcClientBase&#45;&gt;JsonRpcExt</title>
<path fill="none" stroke="black" stroke-dasharray="5,2" d="M741.415,-200.38C788.789,-207.136 857.031,-219.339 901.719,-229.115"/>
<polygon fill="black" stroke="black" points="901.189,-232.583 911.712,-231.352 902.718,-225.752 901.189,-232.583"/>
</g>
<!-- JsonView -->
<g id="node48" class="node"><title>JsonView</title>
<polygon fill="none" stroke="black" points="718.651,-322.441 654.651,-322.441 654.651,-318.441 650.651,-318.441 650.651,-314.441 654.651,-314.441 654.651,-294.441 650.651,-294.441 650.651,-290.441 654.651,-290.441 654.651,-286.441 718.651,-286.441 718.651,-322.441"/>
<polyline fill="none" stroke="black" points="654.651,-318.441 658.651,-318.441 658.651,-314.441 654.651,-314.441 "/>
<polyline fill="none" stroke="black" points="654.651,-294.441 658.651,-294.441 658.651,-290.441 654.651,-290.441 "/>
<text text-anchor="middle" x="686.651" y="-301.341" font-family="Times,serif" font-size="12.00">JsonView</text>
</g>
<!-- JsonView&#45;&gt;X_Core_View -->
<g id="edge88" class="edge"><title>JsonView&#45;&gt;X_Core_View</title>
<path fill="none" stroke="black" d="M718.692,-304.441C758.165,-304.441 827.427,-304.441 879.366,-304.441"/>
<polygon fill="black" stroke="black" points="879.509,-307.941 889.509,-304.441 879.509,-300.941 879.509,-307.941"/>
</g>
<!-- Misc -->
<g id="node49" class="node"><title>Misc</title>
<polygon fill="none" stroke="black" points="713.651,-52.4412 659.651,-52.4412 659.651,-48.4412 655.651,-48.4412 655.651,-44.4412 659.651,-44.4412 659.651,-24.4412 655.651,-24.4412 655.651,-20.4412 659.651,-20.4412 659.651,-16.4412 713.651,-16.4412 713.651,-52.4412"/>
<polyline fill="none" stroke="black" points="659.651,-48.4412 663.651,-48.4412 663.651,-44.4412 659.651,-44.4412 "/>
<polyline fill="none" stroke="black" points="659.651,-24.4412 663.651,-24.4412 663.651,-20.4412 659.651,-20.4412 "/>
<text text-anchor="middle" x="686.651" y="-31.3412" font-family="Times,serif" font-size="12.00">Misc</text>
</g>
<!-- Misc&#45;&gt;ComponentBase -->
<g id="edge68" class="edge"><title>Misc&#45;&gt;ComponentBase</title>
<path fill="none" stroke="black" stroke-dasharray="1,5" d="M713.703,-26.2407C782.132,-6.50399 968.107,35.1902 1061.47,-61.4412 1132.28,-134.731 1135.82,-1772.49 1135.97,-2009.06"/>
<polygon fill="black" stroke="black" points="1132.47,-2009.26 1135.97,-2019.26 1139.47,-2009.26 1132.47,-2009.26"/>
</g>
<!-- MyFacadesAutoLoader -->
<g id="node50" class="node"><title>MyFacadesAutoLoader</title>
<polygon fill="none" stroke="black" points="751.151,-484.441 622.151,-484.441 622.151,-480.441 618.151,-480.441 618.151,-476.441 622.151,-476.441 622.151,-456.441 618.151,-456.441 618.151,-452.441 622.151,-452.441 622.151,-448.441 751.151,-448.441 751.151,-484.441"/>
<polyline fill="none" stroke="black" points="622.151,-480.441 626.151,-480.441 626.151,-476.441 622.151,-476.441 "/>
<polyline fill="none" stroke="black" points="622.151,-456.441 626.151,-456.441 626.151,-452.441 622.151,-452.441 "/>
<text text-anchor="middle" x="686.651" y="-463.341" font-family="Times,serif" font-size="12.00">MyFacadesAutoLoader</text>
</g>
<!-- MyFacadesAutoLoader&#45;&gt;ComponentBase -->
<g id="edge70" class="edge"><title>MyFacadesAutoLoader&#45;&gt;ComponentBase</title>
<path fill="none" stroke="black" stroke-dasharray="1,5" d="M751.161,-469.16C770.908,-472.857 791.487,-480.011 806.79,-493.441 833.845,-517.186 807.368,-546.12 834.79,-569.441 912.967,-635.928 994.132,-535.994 1061.47,-613.441 1109.02,-668.133 1131.92,-1814.53 1135.47,-2009.4"/>
<polygon fill="black" stroke="black" points="1131.97,-2009.49 1135.65,-2019.42 1138.97,-2009.36 1131.97,-2009.49"/>
</g>
<!-- MyFacadesBase -->
<g id="node51" class="node"><title>MyFacadesBase</title>
<polygon fill="none" stroke="black" points="995.629,-484.441 900.629,-484.441 900.629,-480.441 896.629,-480.441 896.629,-476.441 900.629,-476.441 900.629,-456.441 896.629,-456.441 896.629,-452.441 900.629,-452.441 900.629,-448.441 995.629,-448.441 995.629,-484.441"/>
<polyline fill="none" stroke="black" points="900.629,-480.441 904.629,-480.441 904.629,-476.441 900.629,-476.441 "/>
<polyline fill="none" stroke="black" points="900.629,-456.441 904.629,-456.441 904.629,-452.441 900.629,-452.441 "/>
<text text-anchor="middle" x="948.129" y="-463.341" font-family="Times,serif" font-size="12.00">MyFacadesBase</text>
</g>
<!-- MyFacadesAutoLoader&#45;&gt;MyFacadesBase -->
<g id="edge84" class="edge"><title>MyFacadesAutoLoader&#45;&gt;MyFacadesBase</title>
<path fill="none" stroke="black" d="M751.459,-460.535C793.927,-459.345 849.232,-459.414 890.207,-460.743"/>
<polygon fill="black" stroke="black" points="890.178,-464.244 900.298,-461.108 890.432,-457.248 890.178,-464.244"/>
</g>
<!-- MyFacadesBase&#45;&gt;ComponentBase -->
<g id="edge69" class="edge"><title>MyFacadesBase&#45;&gt;ComponentBase</title>
<path fill="none" stroke="black" stroke-dasharray="1,5" d="M994.478,-484.503C1018.79,-496.729 1046.72,-515.434 1061.47,-541.441 1136.54,-673.807 1136.61,-1814.84 1136.07,-2009.31"/>
<polygon fill="black" stroke="black" points="1132.57,-2009.3 1136.04,-2019.32 1139.57,-2009.33 1132.57,-2009.3"/>
</g>
<!-- MyFacadesBase&#45;&gt;MyFacadesAutoLoader -->
<g id="edge83" class="edge"><title>MyFacadesBase&#45;&gt;MyFacadesAutoLoader</title>
<path fill="none" stroke="black" stroke-dasharray="5,2" d="M900.298,-471.775C861.704,-473.327 806.265,-473.603 761.67,-472.604"/>
<polygon fill="black" stroke="black" points="761.544,-469.1 751.459,-472.348 761.368,-476.098 761.544,-469.1"/>
</g>
<!-- MyMiddleware -->
<g id="node52" class="node"><title>MyMiddleware</title>
<polygon fill="none" stroke="black" points="746.151,-1024.44 627.151,-1024.44 627.151,-1020.44 623.151,-1020.44 623.151,-1016.44 627.151,-1016.44 627.151,-996.441 623.151,-996.441 623.151,-992.441 627.151,-992.441 627.151,-988.441 746.151,-988.441 746.151,-1024.44"/>
<polyline fill="none" stroke="black" points="627.151,-1020.44 631.151,-1020.44 631.151,-1016.44 627.151,-1016.44 "/>
<polyline fill="none" stroke="black" points="627.151,-996.441 631.151,-996.441 631.151,-992.441 627.151,-992.441 "/>
<text text-anchor="middle" x="686.651" y="-1003.34" font-family="Times,serif" font-size="12.00">MyMiddleware(todo)</text>
</g>
<!-- MyMiddleware&#45;&gt;ComponentBase -->
<g id="edge71" class="edge"><title>MyMiddleware&#45;&gt;ComponentBase</title>
<path fill="none" stroke="black" stroke-dasharray="1,5" d="M746.247,-994.455C829.502,-981.219 980.851,-971.86 1061.47,-1057.44 1128.38,-1128.48 1135.2,-1855.19 1135.89,-2008.96"/>
<polygon fill="black" stroke="black" points="1132.39,-2009.42 1135.93,-2019.41 1139.39,-2009.39 1132.39,-2009.42"/>
</g>
<!-- RedisManager -->
<g id="node53" class="node"><title>RedisManager</title>
<polygon fill="none" stroke="black" points="729.651,-970.441 643.651,-970.441 643.651,-966.441 639.651,-966.441 639.651,-962.441 643.651,-962.441 643.651,-942.441 639.651,-942.441 639.651,-938.441 643.651,-938.441 643.651,-934.441 729.651,-934.441 729.651,-970.441"/>
<polyline fill="none" stroke="black" points="643.651,-966.441 647.651,-966.441 647.651,-962.441 643.651,-962.441 "/>
<polyline fill="none" stroke="black" points="643.651,-942.441 647.651,-942.441 647.651,-938.441 643.651,-938.441 "/>
<text text-anchor="middle" x="686.651" y="-949.341" font-family="Times,serif" font-size="12.00">RedisManager</text>
</g>
<!-- RedisManager&#45;&gt;ComponentBase -->
<g id="edge72" class="edge"><title>RedisManager&#45;&gt;ComponentBase</title>
<path fill="none" stroke="black" stroke-dasharray="1,5" d="M729.869,-949.29C817.797,-943.726 1016.17,-936.704 1061.47,-982.441 1135.75,-1057.44 1136.7,-1849.03 1136.12,-2009.26"/>
<polygon fill="black" stroke="black" points="1132.62,-2009.27 1136.08,-2019.28 1139.62,-2009.3 1132.62,-2009.27"/>
</g>
<!-- RedisCache -->
<g id="node54" class="node"><title>RedisCache</title>
<polygon fill="none" stroke="black" points="723.651,-916.441 649.651,-916.441 649.651,-912.441 645.651,-912.441 645.651,-908.441 649.651,-908.441 649.651,-888.441 645.651,-888.441 645.651,-884.441 649.651,-884.441 649.651,-880.441 723.651,-880.441 723.651,-916.441"/>
<polyline fill="none" stroke="black" points="649.651,-912.441 653.651,-912.441 653.651,-908.441 649.651,-908.441 "/>
<polyline fill="none" stroke="black" points="649.651,-888.441 653.651,-888.441 653.651,-884.441 649.651,-884.441 "/>
<text text-anchor="middle" x="686.651" y="-895.341" font-family="Times,serif" font-size="12.00">RedisCache</text>
</g>
<!-- RedisCache&#45;&gt;ComponentBase -->
<g id="edge73" class="edge"><title>RedisCache&#45;&gt;ComponentBase</title>
<path fill="none" stroke="black" stroke-dasharray="1,5" d="M723.907,-889.405C799.146,-873.065 972.615,-848.343 1061.47,-941.441 1137.25,-1020.84 1136.98,-1843.74 1136.16,-2008.73"/>
<polygon fill="black" stroke="black" points="1132.66,-2009.03 1136.1,-2019.05 1139.66,-2009.06 1132.66,-2009.03"/>
</g>
<!-- RouteHookApiServer -->
<g id="node55" class="node"><title>RouteHookApiServer</title>
<polygon fill="none" stroke="black" points="747.151,-808.441 626.151,-808.441 626.151,-804.441 622.151,-804.441 622.151,-800.441 626.151,-800.441 626.151,-780.441 622.151,-780.441 622.151,-776.441 626.151,-776.441 626.151,-772.441 747.151,-772.441 747.151,-808.441"/>
<polyline fill="none" stroke="black" points="626.151,-804.441 630.151,-804.441 630.151,-800.441 626.151,-800.441 "/>
<polyline fill="none" stroke="black" points="626.151,-780.441 630.151,-780.441 630.151,-776.441 626.151,-776.441 "/>
<text text-anchor="middle" x="686.651" y="-787.341" font-family="Times,serif" font-size="12.00">RouteHookApiServer</text>
</g>
<!-- RouteHookApiServer&#45;&gt;ComponentBase -->
<g id="edge74" class="edge"><title>RouteHookApiServer&#45;&gt;ComponentBase</title>
<path fill="none" stroke="black" stroke-dasharray="1,5" d="M747.252,-799.194C847.506,-814.494 1041.01,-846.729 1061.47,-870.441 1138.11,-959.278 1137.08,-1839.31 1136.16,-2009.15"/>
<polygon fill="black" stroke="black" points="1132.66,-2009.28 1136.1,-2019.3 1139.66,-2009.32 1132.66,-2009.28"/>
</g>
<!-- RouteHookDirectoryMode -->
<g id="node56" class="node"><title>RouteHookDirectoryMode</title>
<polygon fill="none" stroke="black" points="759.151,-754.441 614.151,-754.441 614.151,-750.441 610.151,-750.441 610.151,-746.441 614.151,-746.441 614.151,-726.441 610.151,-726.441 610.151,-722.441 614.151,-722.441 614.151,-718.441 759.151,-718.441 759.151,-754.441"/>
<polyline fill="none" stroke="black" points="614.151,-750.441 618.151,-750.441 618.151,-746.441 614.151,-746.441 "/>
<polyline fill="none" stroke="black" points="614.151,-726.441 618.151,-726.441 618.151,-722.441 614.151,-722.441 "/>
<text text-anchor="middle" x="686.651" y="-733.341" font-family="Times,serif" font-size="12.00">RouteHookDirectoryMode</text>
</g>
<!-- RouteHookDirectoryMode&#45;&gt;ComponentBase -->
<g id="edge75" class="edge"><title>RouteHookDirectoryMode&#45;&gt;ComponentBase</title>
<path fill="none" stroke="black" stroke-dasharray="1,5" d="M759.215,-752.389C774.906,-755.961 791.42,-759.779 806.79,-763.441 819.268,-766.415 822.249,-767.743 834.79,-770.441 884.834,-781.21 1027.47,-773.169 1061.47,-811.441 1102.6,-857.752 1130.45,-1830.23 1135.23,-2009.25"/>
<polygon fill="black" stroke="black" points="1131.74,-2009.53 1135.5,-2019.44 1138.74,-2009.35 1131.74,-2009.53"/>
</g>
<!-- RouteHookManager -->
<g id="node57" class="node"><title>RouteHookManager</title>
<polygon fill="none" stroke="black" points="743.651,-700.441 629.651,-700.441 629.651,-696.441 625.651,-696.441 625.651,-692.441 629.651,-692.441 629.651,-672.441 625.651,-672.441 625.651,-668.441 629.651,-668.441 629.651,-664.441 743.651,-664.441 743.651,-700.441"/>
<polyline fill="none" stroke="black" points="629.651,-696.441 633.651,-696.441 633.651,-692.441 629.651,-692.441 "/>
<polyline fill="none" stroke="black" points="629.651,-672.441 633.651,-672.441 633.651,-668.441 629.651,-668.441 "/>
<text text-anchor="middle" x="686.651" y="-679.341" font-family="Times,serif" font-size="12.00">RouteHookManager</text>
</g>
<!-- RouteHookManager&#45;&gt;ComponentBase -->
<g id="edge76" class="edge"><title>RouteHookManager&#45;&gt;ComponentBase</title>
<path fill="none" stroke="black" stroke-dasharray="1,5" d="M743.727,-689.612C764.276,-693.65 787.265,-699.883 806.79,-709.441 821.254,-716.522 820.13,-725.773 834.79,-732.441 927.774,-774.736 993.216,-694.437 1061.47,-770.441 1104.3,-818.137 1130.83,-1826.38 1135.3,-2009.16"/>
<polygon fill="black" stroke="black" points="1131.8,-2009.4 1135.54,-2019.31 1138.8,-2009.23 1131.8,-2009.4"/>
</g>
<!-- RouteHookRewrite -->
<g id="node58" class="node"><title>RouteHookRewrite</title>
<polygon fill="none" stroke="black" points="741.651,-646.441 631.651,-646.441 631.651,-642.441 627.651,-642.441 627.651,-638.441 631.651,-638.441 631.651,-618.441 627.651,-618.441 627.651,-614.441 631.651,-614.441 631.651,-610.441 741.651,-610.441 741.651,-646.441"/>
<polyline fill="none" stroke="black" points="631.651,-642.441 635.651,-642.441 635.651,-638.441 631.651,-638.441 "/>
<polyline fill="none" stroke="black" points="631.651,-618.441 635.651,-618.441 635.651,-614.441 631.651,-614.441 "/>
<text text-anchor="middle" x="686.651" y="-625.341" font-family="Times,serif" font-size="12.00">RouteHookRewrite</text>
</g>
<!-- RouteHookRewrite&#45;&gt;ComponentBase -->
<g id="edge77" class="edge"><title>RouteHookRewrite&#45;&gt;ComponentBase</title>
<path fill="none" stroke="black" stroke-dasharray="1,5" d="M741.849,-632.506C763.423,-636.137 787.622,-642.902 806.79,-655.441 824.345,-666.926 816.939,-682.421 834.79,-693.441 921.775,-747.141 993.394,-656.178 1061.47,-732.441 1105.5,-781.772 1131.11,-1823.29 1135.34,-2009.18"/>
<polygon fill="black" stroke="black" points="1131.85,-2009.34 1135.57,-2019.26 1138.84,-2009.18 1131.85,-2009.34"/>
</g>
<!-- SimpleModel -->
<g id="node59" class="node"><title>SimpleModel</title>
<polygon fill="none" stroke="black" points="741.151,-592.441 632.151,-592.441 632.151,-588.441 628.151,-588.441 628.151,-584.441 632.151,-584.441 632.151,-564.441 628.151,-564.441 628.151,-560.441 632.151,-560.441 632.151,-556.441 741.151,-556.441 741.151,-592.441"/>
<polyline fill="none" stroke="black" points="632.151,-588.441 636.151,-588.441 636.151,-584.441 632.151,-584.441 "/>
<polyline fill="none" stroke="black" points="632.151,-564.441 636.151,-564.441 636.151,-560.441 632.151,-560.441 "/>
<text text-anchor="middle" x="686.651" y="-571.341" font-family="Times,serif" font-size="12.00">SimpleModel(todo)</text>
</g>
<!-- SimpleModel&#45;&gt;ComponentBase -->
<g id="edge78" class="edge"><title>SimpleModel&#45;&gt;ComponentBase</title>
<path fill="none" stroke="black" stroke-dasharray="1,5" d="M741.333,-576.879C763.447,-580.208 788.188,-587.188 806.79,-601.441 827.936,-617.645 813.225,-638.798 834.79,-654.441 917.537,-714.467 993.457,-617.122 1061.47,-693.441 1106.82,-744.332 1131.39,-1819.16 1135.39,-2008.94"/>
<polygon fill="black" stroke="black" points="1131.89,-2009.29 1135.6,-2019.21 1138.89,-2009.14 1131.89,-2009.29"/>
</g>
<!-- StaticReplacer -->
<g id="node60" class="node"><title>StaticReplacer</title>
<polygon fill="none" stroke="black" points="743.151,-538.441 630.151,-538.441 630.151,-534.441 626.151,-534.441 626.151,-530.441 630.151,-530.441 630.151,-510.441 626.151,-510.441 626.151,-506.441 630.151,-506.441 630.151,-502.441 743.151,-502.441 743.151,-538.441"/>
<polyline fill="none" stroke="black" points="630.151,-534.441 634.151,-534.441 634.151,-530.441 630.151,-530.441 "/>
<polyline fill="none" stroke="black" points="630.151,-510.441 634.151,-510.441 634.151,-506.441 630.151,-506.441 "/>
<text text-anchor="middle" x="686.651" y="-517.341" font-family="Times,serif" font-size="12.00">StaticReplacer(todo)</text>
</g>
<!-- StaticReplacer&#45;&gt;ComponentBase -->
<g id="edge79" class="edge"><title>StaticReplacer&#45;&gt;ComponentBase</title>
<path fill="none" stroke="black" stroke-dasharray="1,5" d="M743.447,-522.351C765.265,-525.651 789.215,-532.752 806.79,-547.441 831.238,-567.876 809.899,-593.548 834.79,-613.441 914.767,-677.359 993.742,-577.663 1061.47,-654.441 1107.94,-707.121 1131.65,-1816.29 1135.43,-2009.02"/>
<polygon fill="black" stroke="black" points="1131.93,-2009.26 1135.63,-2019.19 1138.93,-2009.13 1131.93,-2009.26"/>
</g>
<!-- StrictCheck -->
<g id="node61" class="node"><title>StrictCheck</title>
<polygon fill="none" stroke="black" points="722.651,-430.441 650.651,-430.441 650.651,-426.441 646.651,-426.441 646.651,-422.441 650.651,-422.441 650.651,-402.441 646.651,-402.441 646.651,-398.441 650.651,-398.441 650.651,-394.441 722.651,-394.441 722.651,-430.441"/>
<polyline fill="none" stroke="black" points="650.651,-426.441 654.651,-426.441 654.651,-422.441 650.651,-422.441 "/>
<polyline fill="none" stroke="black" points="650.651,-402.441 654.651,-402.441 654.651,-398.441 650.651,-398.441 "/>
<text text-anchor="middle" x="686.651" y="-409.341" font-family="Times,serif" font-size="12.00">StrictCheck</text>
</g>
<!-- StrictCheck&#45;&gt;ComponentBase -->
<g id="edge80" class="edge"><title>StrictCheck&#45;&gt;ComponentBase</title>
<path fill="none" stroke="black" stroke-dasharray="1,5" d="M722.767,-412.743C748.426,-414.651 782.787,-420.903 806.79,-439.441 828.186,-455.966 814.252,-475.861 834.79,-493.441 915.512,-562.54 997.247,-484.787 1061.47,-569.441 1106.67,-629.021 1131.56,-1810.65 1135.43,-2009.23"/>
<polygon fill="black" stroke="black" points="1131.94,-2009.5 1135.63,-2019.43 1138.94,-2009.36 1131.94,-2009.5"/>
</g>
<!-- X_DbManager -->
<g id="node63" class="node"><title>X_DbManager</title>
<polygon fill="none" stroke="black" points="1020.13,-424.441 858.129,-424.441 858.129,-400.441 1020.13,-400.441 1020.13,-394.441 1038.13,-412.441 1020.13,-430.441 1020.13,-424.441"/>
<text text-anchor="middle" x="948.129" y="-409.341" font-family="Times,serif" font-size="12.00">DuckPhp\Component\DbManager</text>
</g>
<!-- StrictCheck&#45;&gt;X_DbManager -->
<g id="edge89" class="edge"><title>StrictCheck&#45;&gt;X_DbManager</title>
<path fill="none" stroke="black" d="M722.915,-412.441C754.989,-412.441 803.888,-412.441 847.844,-412.441"/>
<polygon fill="black" stroke="black" points="848.016,-415.941 858.016,-412.441 848.016,-408.941 848.016,-415.941"/>
</g>
<!-- JsonRpcExt&#45;&gt;ComponentBase -->
<g id="edge67" class="edge"><title>JsonRpcExt&#45;&gt;ComponentBase</title>
<path fill="none" stroke="black" stroke-dasharray="1,5" d="M993.627,-244.437C1017.66,-248.032 1045.59,-256.794 1061.47,-277.441 1116.55,-349.077 1133.43,-1789.04 1135.69,-2009.29"/>
<polygon fill="black" stroke="black" points="1132.19,-2009.42 1135.8,-2019.39 1139.19,-2009.35 1132.19,-2009.42"/>
</g>
<!-- JsonRpcExt&#45;&gt;JsonRpcClientBase -->
<g id="edge85" class="edge"><title>JsonRpcExt&#45;&gt;JsonRpcClientBase</title>
<path fill="none" stroke="black" d="M902.914,-239.828C861.221,-234.213 798.276,-223.278 751.205,-213.607"/>
<polygon fill="black" stroke="black" points="751.919,-210.181 741.415,-211.565 750.489,-217.034 751.919,-210.181"/>
</g>
</g>
</svg>
