<?xml version="1.0" encoding="UTF-8" standalone="no"?>
<!DOCTYPE svg PUBLIC "-//W3C//DTD SVG 1.1//EN"
 "http://www.w3.org/Graphics/SVG/1.1/DTD/svg11.dtd">
<!-- Generated by graphviz version 2.38.0 (20140413.2041)
 -->
<!-- Title: DuckPhp Pages: 1 -->
<svg width="1159pt" height="2157pt"
 viewBox="0.00 0.00 1158.96 2157.00" xmlns="http://www.w3.org/2000/svg" xmlns:xlink="http://www.w3.org/1999/xlink">
<g id="graph0" class="graph" transform="scale(1 1) rotate(0) translate(4 2153)">
<title>DuckPhp</title>
<polygon fill="white" stroke="none" points="-4,4 -4,-2153 1154.96,-2153 1154.96,4 -4,4"/>
<g id="clust1" class="cluster"><title>cluster_HttpServer</title>
<polygon fill="none" stroke="black" points="34.1171,-124 34.1171,-305 168.515,-305 168.515,-124 34.1171,-124"/>
<text text-anchor="middle" x="101.316" y="-291.4" font-family="Times,serif" font-size="12.00">[DuckPhp\HttpServer]</text>
</g>
<g id="clust2" class="cluster"><title>cluster_SingletonEx</title>
<polygon fill="none" stroke="black" points="8,-773 8,-900 194.632,-900 194.632,-773 8,-773"/>
<text text-anchor="middle" x="101.316" y="-886.4" font-family="Times,serif" font-size="12.00">[DuckPhp\SingletonEx]</text>
</g>
<g id="clust3" class="cluster"><title>cluster_ThrowOn</title>
<polygon fill="none" stroke="black" points="18.4469,-1138 18.4469,-1211 184.185,-1211 184.185,-1138 18.4469,-1138"/>
<text text-anchor="middle" x="101.316" y="-1197.4" font-family="Times,serif" font-size="12.00">[DuckPhp\ThrowOn]</text>
</g>
<g id="clust4" class="cluster"><title>cluster_Core</title>
<polygon fill="none" stroke="black" points="214.632,-1654 214.632,-2091 1142.96,-2091 1142.96,-1654 214.632,-1654"/>
<text text-anchor="middle" x="678.798" y="-2077.4" font-family="Times,serif" font-size="12.00">[DuckPhp\Core]</text>
</g>
<g id="clust5" class="cluster"><title>cluster_Helper</title>
<polygon fill="none" stroke="black" points="8.87057,-1852 8.87057,-2141 193.761,-2141 193.761,-1852 8.87057,-1852"/>
<text text-anchor="middle" x="101.316" y="-2127.4" font-family="Times,serif" font-size="12.00">[DuckPhp\Helper]</text>
</g>
<g id="clust6" class="cluster"><title>cluster_Db</title>
<polygon fill="none" stroke="black" points="655.215,-8 655.215,-135 993.964,-135 993.964,-8 655.215,-8"/>
<text text-anchor="middle" x="824.589" y="-121.4" font-family="Times,serif" font-size="12.00">[DuckPhp\Db]</text>
</g>
<g id="clust7" class="cluster"><title>cluster_Component</title>
<polygon fill="none" stroke="black" points="357.712,-1172 357.712,-1623 784.573,-1623 784.573,-1172 357.712,-1172"/>
<text text-anchor="middle" x="571.143" y="-1609.4" font-family="Times,serif" font-size="12.00">[DuckPhp\Component]</text>
</g>
<g id="clust8" class="cluster"><title>cluster_DuckPhp</title>
<polygon fill="none" stroke="black" points="39.3406,-1334 39.3406,-1407 163.291,-1407 163.291,-1334 39.3406,-1334"/>
<text text-anchor="middle" x="101.316" y="-1393.4" font-family="Times,serif" font-size="12.00">[DuckPhp]</text>
</g>
<g id="clust9" class="cluster"><title>cluster_Ext</title>
<polygon fill="none" stroke="black" points="364.434,-143 364.434,-1134 789.073,-1134 789.073,-143 364.434,-143"/>
<text text-anchor="middle" x="576.754" y="-1120.4" font-family="Times,serif" font-size="12.00">[DuckPhp\Ext]</text>
</g>
<!-- AppInterface -->
<g id="node1" class="node"><title>AppInterface</title>
<polygon fill="none" stroke="black" points="134.816,-276 61.816,-276 61.816,-240 140.816,-240 140.816,-270 134.816,-276"/>
<polyline fill="none" stroke="black" points="134.816,-276 134.816,-270 "/>
<polyline fill="none" stroke="black" points="140.816,-270 134.816,-270 "/>
<text text-anchor="middle" x="101.316" y="-254.9" font-family="Times,serif" font-size="12.00">AppInterface</text>
</g>
<!-- HttpServer -->
<g id="node2" class="node"><title>HttpServer</title>
<polygon fill="lightgrey" stroke="black" points="101.316,-222 41.9176,-204 101.316,-186 160.714,-204 101.316,-222"/>
<polyline fill="none" stroke="black" points="53.4019,-207.48 53.4019,-200.52 "/>
<polyline fill="none" stroke="black" points="89.8317,-189.48 112.8,-189.48 "/>
<polyline fill="none" stroke="black" points="149.23,-200.52 149.23,-207.48 "/>
<polyline fill="none" stroke="black" points="112.8,-218.52 89.8317,-218.52 "/>
<text text-anchor="middle" x="101.316" y="-200.9" font-family="Times,serif" font-size="12.00">HttpServer</text>
</g>
<!-- ServerInterface -->
<g id="node3" class="node"><title>ServerInterface</title>
<polygon fill="none" stroke="black" points="139.816,-168 56.816,-168 56.816,-132 145.816,-132 145.816,-162 139.816,-168"/>
<polyline fill="none" stroke="black" points="139.816,-168 139.816,-162 "/>
<polyline fill="none" stroke="black" points="145.816,-162 139.816,-162 "/>
<text text-anchor="middle" x="101.316" y="-146.9" font-family="Times,serif" font-size="12.00">ServerInterface</text>
</g>
<!-- SingletonExTrait -->
<g id="node4" class="node"><title>SingletonExTrait</title>
<polygon fill="lightgrey" stroke="black" points="101.316,-871 16.1836,-853 101.316,-835 186.448,-853 101.316,-871"/>
<polyline fill="none" stroke="black" points="27.924,-855.482 27.924,-850.518 "/>
<polyline fill="none" stroke="black" points="89.5756,-837.482 113.056,-837.482 "/>
<polyline fill="none" stroke="black" points="174.708,-850.518 174.708,-855.482 "/>
<polyline fill="none" stroke="black" points="113.056,-868.518 89.5756,-868.518 "/>
<text text-anchor="middle" x="101.316" y="-849.9" font-family="Times,serif" font-size="12.00">SingletonExTrait</text>
</g>
<!-- SimpleReplacer -->
<g id="node5" class="node"><title>SimpleReplacer</title>
<ellipse fill="none" stroke="black" cx="101.316" cy="-799" rx="56.7683" ry="18"/>
<text text-anchor="middle" x="101.316" y="-795.9" font-family="Times,serif" font-size="12.00">SimpleReplacer</text>
</g>
<!-- ThrowOnTrait -->
<g id="node6" class="node"><title>ThrowOnTrait</title>
<polygon fill="lightgrey" stroke="black" points="101.316,-1182 26.5775,-1164 101.316,-1146 176.055,-1164 101.316,-1182"/>
<polyline fill="none" stroke="black" points="38.2439,-1166.81 38.2439,-1161.19 "/>
<polyline fill="none" stroke="black" points="89.6496,-1148.81 112.982,-1148.81 "/>
<polyline fill="none" stroke="black" points="164.388,-1161.19 164.388,-1166.81 "/>
<polyline fill="none" stroke="black" points="112.982,-1179.19 89.6496,-1179.19 "/>
<text text-anchor="middle" x="101.316" y="-1160.9" font-family="Times,serif" font-size="12.00">ThrowOnTrait</text>
</g>
<!-- App -->
<g id="node7" class="node"><title>App</title>
<polygon fill="lightgrey" stroke="black" points="255.714,-1902 222.55,-1884 255.714,-1866 288.877,-1884 255.714,-1902"/>
<polyline fill="none" stroke="black" points="233.097,-1889.72 233.097,-1878.28 "/>
<polyline fill="none" stroke="black" points="245.167,-1871.72 266.26,-1871.72 "/>
<polyline fill="none" stroke="black" points="278.331,-1878.28 278.331,-1889.72 "/>
<polyline fill="none" stroke="black" points="266.26,-1896.28 245.167,-1896.28 "/>
<text text-anchor="middle" x="255.714" y="-1880.9" font-family="Times,serif" font-size="12.00">App</text>
</g>
<!-- KernelTrait -->
<g id="node8" class="node"><title>KernelTrait</title>
<polygon fill="none" stroke="black" points="444.934,-1894 383.313,-1876 444.934,-1858 506.556,-1876 444.934,-1894"/>
<text text-anchor="middle" x="444.934" y="-1872.9" font-family="Times,serif" font-size="12.00">KernelTrait</text>
</g>
<!-- App&#45;&gt;KernelTrait -->
<g id="edge8" class="edge"><title>App&#45;&gt;KernelTrait</title>
<path fill="none" stroke="black" d="M286.794,-1882.71C312.07,-1881.63 349.047,-1880.05 380.783,-1878.7"/>
<polygon fill="black" stroke="black" points="381.039,-1882.19 390.881,-1878.27 380.741,-1875.2 381.039,-1882.19"/>
</g>
<!-- AutoLoader -->
<g id="node9" class="node"><title>AutoLoader</title>
<polygon fill="lightgrey" stroke="black" points="691.073,-2022 626.729,-2004 691.073,-1986 755.418,-2004 691.073,-2022"/>
<polyline fill="none" stroke="black" points="638.285,-2007.23 638.285,-2000.77 "/>
<polyline fill="none" stroke="black" points="679.517,-1989.23 702.63,-1989.23 "/>
<polyline fill="none" stroke="black" points="743.862,-2000.77 743.862,-2007.23 "/>
<polyline fill="none" stroke="black" points="702.63,-2018.77 679.517,-2018.77 "/>
<text text-anchor="middle" x="691.073" y="-2000.9" font-family="Times,serif" font-size="12.00">AutoLoader</text>
</g>
<!-- App&#45;&gt;AutoLoader -->
<g id="edge11" class="edge"><title>App&#45;&gt;AutoLoader</title>
<path fill="none" stroke="black" d="M270.826,-1893.91C284.093,-1902.66 304.842,-1914.95 324.795,-1921 427.414,-1952.13 467.335,-1898.87 565.073,-1943 585.132,-1952.06 582.037,-1965.96 601.073,-1977 613.773,-1984.37 628.679,-1989.91 642.623,-1993.99"/>
<polygon fill="black" stroke="black" points="641.991,-1997.44 652.56,-1996.71 643.839,-1990.69 641.991,-1997.44"/>
</g>
<!-- ExceptionManager -->
<g id="node10" class="node"><title>ExceptionManager</title>
<polygon fill="none" stroke="black" points="744.573,-1860 637.573,-1860 637.573,-1856 633.573,-1856 633.573,-1852 637.573,-1852 637.573,-1832 633.573,-1832 633.573,-1828 637.573,-1828 637.573,-1824 744.573,-1824 744.573,-1860"/>
<polyline fill="none" stroke="black" points="637.573,-1856 641.573,-1856 641.573,-1852 637.573,-1852 "/>
<polyline fill="none" stroke="black" points="637.573,-1832 641.573,-1832 641.573,-1828 637.573,-1828 "/>
<text text-anchor="middle" x="691.073" y="-1838.9" font-family="Times,serif" font-size="12.00">ExceptionManager</text>
</g>
<!-- App&#45;&gt;ExceptionManager -->
<g id="edge14" class="edge"><title>App&#45;&gt;ExceptionManager</title>
<path fill="none" stroke="black" d="M262.692,-1869.58C272.265,-1848.63 293.227,-1810.6 324.795,-1795 372.666,-1771.35 513.385,-1781.61 565.073,-1795 582.791,-1799.59 584.221,-1807.86 601.073,-1815 609.48,-1818.56 618.515,-1821.87 627.491,-1824.86"/>
<polygon fill="black" stroke="black" points="626.584,-1828.24 637.175,-1827.97 628.728,-1821.58 626.584,-1828.24"/>
</g>
<!-- View -->
<g id="node11" class="node"><title>View</title>
<polygon fill="none" stroke="black" points="718.073,-1698 664.073,-1698 664.073,-1694 660.073,-1694 660.073,-1690 664.073,-1690 664.073,-1670 660.073,-1670 660.073,-1666 664.073,-1666 664.073,-1662 718.073,-1662 718.073,-1698"/>
<polyline fill="none" stroke="black" points="664.073,-1694 668.073,-1694 668.073,-1690 664.073,-1690 "/>
<polyline fill="none" stroke="black" points="664.073,-1670 668.073,-1670 668.073,-1666 664.073,-1666 "/>
<text text-anchor="middle" x="691.073" y="-1676.9" font-family="Times,serif" font-size="12.00">View</text>
</g>
<!-- App&#45;&gt;View -->
<g id="edge17" class="edge"><title>App&#45;&gt;View</title>
<path fill="none" stroke="black" d="M258.097,-1867.21C261.907,-1832.85 275.797,-1754.68 324.795,-1718 423.834,-1643.86 582.593,-1660.28 653.642,-1672.57"/>
<polygon fill="black" stroke="black" points="653.407,-1676.08 663.87,-1674.42 654.652,-1669.2 653.407,-1676.08"/>
</g>
<!-- Configer -->
<g id="node12" class="node"><title>Configer</title>
<polygon fill="none" stroke="black" points="720.573,-1968 661.573,-1968 661.573,-1964 657.573,-1964 657.573,-1960 661.573,-1960 661.573,-1940 657.573,-1940 657.573,-1936 661.573,-1936 661.573,-1932 720.573,-1932 720.573,-1968"/>
<polyline fill="none" stroke="black" points="661.573,-1964 665.573,-1964 665.573,-1960 661.573,-1960 "/>
<polyline fill="none" stroke="black" points="661.573,-1940 665.573,-1940 665.573,-1936 661.573,-1936 "/>
<text text-anchor="middle" x="691.073" y="-1946.9" font-family="Times,serif" font-size="12.00">Configer</text>
</g>
<!-- App&#45;&gt;Configer -->
<g id="edge12" class="edge"><title>App&#45;&gt;Configer</title>
<path fill="none" stroke="black" d="M277.057,-1890.65C290.478,-1894.79 308.521,-1899.91 324.795,-1903 430.272,-1923.06 458.741,-1913.13 565.073,-1928 594.097,-1932.06 626.703,-1937.84 651.334,-1942.46"/>
<polygon fill="black" stroke="black" points="650.892,-1945.93 661.369,-1944.35 652.194,-1939.06 650.892,-1945.93"/>
</g>
<!-- Logger -->
<g id="node13" class="node"><title>Logger</title>
<polygon fill="none" stroke="black" points="471.934,-1988 417.934,-1988 417.934,-1984 413.934,-1984 413.934,-1980 417.934,-1980 417.934,-1960 413.934,-1960 413.934,-1956 417.934,-1956 417.934,-1952 471.934,-1952 471.934,-1988"/>
<polyline fill="none" stroke="black" points="417.934,-1984 421.934,-1984 421.934,-1980 417.934,-1980 "/>
<polyline fill="none" stroke="black" points="417.934,-1960 421.934,-1960 421.934,-1956 417.934,-1956 "/>
<text text-anchor="middle" x="444.934" y="-1966.9" font-family="Times,serif" font-size="12.00">Logger</text>
</g>
<!-- App&#45;&gt;Logger -->
<g id="edge13" class="edge"><title>App&#45;&gt;Logger</title>
<path fill="none" stroke="black" d="M268.21,-1895.6C280.972,-1907.84 302.697,-1926.87 324.795,-1938 351.073,-1951.23 383.456,-1959.48 407.825,-1964.28"/>
<polygon fill="black" stroke="black" points="407.264,-1967.73 417.737,-1966.13 408.549,-1960.85 407.264,-1967.73"/>
</g>
<!-- Route -->
<g id="node14" class="node"><title>Route</title>
<polygon fill="lightgrey" stroke="black" points="691.073,-1752 651.721,-1734 691.073,-1716 730.425,-1734 691.073,-1752"/>
<polyline fill="none" stroke="black" points="662.634,-1738.99 662.634,-1729.01 "/>
<polyline fill="none" stroke="black" points="680.161,-1720.99 701.986,-1720.99 "/>
<polyline fill="none" stroke="black" points="719.513,-1729.01 719.513,-1738.99 "/>
<polyline fill="none" stroke="black" points="701.986,-1747.01 680.161,-1747.01 "/>
<text text-anchor="middle" x="691.073" y="-1730.9" font-family="Times,serif" font-size="12.00">Route</text>
</g>
<!-- App&#45;&gt;Route -->
<g id="edge15" class="edge"><title>App&#45;&gt;Route</title>
<path fill="none" stroke="black" d="M259.175,-1867.4C264.694,-1836.81 281.185,-1772.12 324.795,-1744 377.191,-1710.21 564.457,-1722.41 648.605,-1729.9"/>
<polygon fill="black" stroke="black" points="648.302,-1733.39 658.578,-1730.81 648.937,-1726.42 648.302,-1733.39"/>
</g>
<!-- RuntimeState -->
<g id="node15" class="node"><title>RuntimeState</title>
<polygon fill="none" stroke="black" points="731.073,-1806 651.073,-1806 651.073,-1802 647.073,-1802 647.073,-1798 651.073,-1798 651.073,-1778 647.073,-1778 647.073,-1774 651.073,-1774 651.073,-1770 731.073,-1770 731.073,-1806"/>
<polyline fill="none" stroke="black" points="651.073,-1802 655.073,-1802 655.073,-1798 651.073,-1798 "/>
<polyline fill="none" stroke="black" points="651.073,-1778 655.073,-1778 655.073,-1774 651.073,-1774 "/>
<text text-anchor="middle" x="691.073" y="-1784.9" font-family="Times,serif" font-size="12.00">RuntimeState</text>
</g>
<!-- App&#45;&gt;RuntimeState -->
<g id="edge16" class="edge"><title>App&#45;&gt;RuntimeState</title>
<path fill="none" stroke="black" d="M261.149,-1868.8C269.223,-1844.26 288.896,-1796.71 324.795,-1777 425.718,-1721.6 567.102,-1750.26 640.876,-1771.66"/>
<polygon fill="black" stroke="black" points="640.243,-1775.12 650.826,-1774.62 642.239,-1768.41 640.243,-1775.12"/>
</g>
<!-- SystemWrapperTrait -->
<g id="node16" class="node"><title>SystemWrapperTrait</title>
<polygon fill="none" stroke="black" points="444.934,-1840 344.703,-1822 444.934,-1804 545.166,-1822 444.934,-1840"/>
<text text-anchor="middle" x="444.934" y="-1818.9" font-family="Times,serif" font-size="12.00">SystemWrapperTrait</text>
</g>
<!-- App&#45;&gt;SystemWrapperTrait -->
<g id="edge10" class="edge"><title>App&#45;&gt;SystemWrapperTrait</title>
<path fill="none" stroke="black" d="M272.16,-1874.63C285.638,-1866.8 305.936,-1855.86 324.795,-1849 343.21,-1842.3 363.852,-1836.92 382.714,-1832.78"/>
<polygon fill="black" stroke="black" points="383.631,-1836.16 392.688,-1830.67 382.18,-1829.32 383.631,-1836.16"/>
</g>
<!-- ExtendableStaticCallTrait -->
<g id="node17" class="node"><title>ExtendableStaticCallTrait</title>
<polygon fill="none" stroke="black" points="444.934,-2062 324.656,-2044 444.934,-2026 565.212,-2044 444.934,-2062"/>
<text text-anchor="middle" x="444.934" y="-2040.9" font-family="Times,serif" font-size="12.00">ExtendableStaticCallTrait</text>
</g>
<!-- App&#45;&gt;ExtendableStaticCallTrait -->
<g id="edge9" class="edge"><title>App&#45;&gt;ExtendableStaticCallTrait</title>
<path fill="none" stroke="black" d="M269.607,-1894.49C276.064,-1900.29 283.594,-1907.93 288.795,-1916 313.49,-1954.3 291.059,-1981.37 324.795,-2012 335.746,-2021.94 349.459,-2028.85 363.647,-2033.64"/>
<polygon fill="black" stroke="black" points="362.932,-2037.08 373.517,-2036.62 364.959,-2030.38 362.932,-2037.08"/>
</g>
<!-- ComponentBase -->
<g id="node19" class="node"><title>ComponentBase</title>
<polygon fill="none" stroke="black" points="949.019,-1698 858.019,-1698 854.019,-1694 854.019,-1662 945.019,-1662 949.019,-1666 949.019,-1698"/>
<polyline fill="none" stroke="black" points="945.019,-1694 854.019,-1694 "/>
<polyline fill="none" stroke="black" points="945.019,-1694 945.019,-1662 "/>
<polyline fill="none" stroke="black" points="945.019,-1694 949.019,-1698 "/>
<text text-anchor="middle" x="901.519" y="-1676.9" font-family="Times,serif" font-size="12.00">ComponentBase</text>
</g>
<!-- App&#45;&gt;ComponentBase -->
<g id="edge18" class="edge"><title>App&#45;&gt;ComponentBase</title>
<path fill="none" stroke="black" stroke-dasharray="1,5" d="M271.163,-1893.78C277.223,-1898.44 283.967,-1904.43 288.795,-1911 313.335,-1944.39 291.282,-1972.63 324.795,-1997 368.13,-2028.51 514.821,-1998.41 565.073,-2017 583.584,-2023.85 582.294,-2036.93 601.073,-2043 680.576,-2068.71 721.877,-2092.66 789.073,-2043 844.392,-2002.12 883.578,-1786.67 896.174,-1708.43"/>
<polygon fill="black" stroke="black" points="899.666,-1708.75 897.774,-1698.33 892.752,-1707.66 899.666,-1708.75"/>
</g>
<!-- KernelTrait&#45;&gt;AutoLoader -->
<g id="edge1" class="edge"><title>KernelTrait&#45;&gt;AutoLoader</title>
<path fill="none" stroke="black" d="M477.21,-1884.66C502.757,-1892.83 538.807,-1907 565.073,-1928 586.182,-1944.87 579.014,-1961.39 601.073,-1977 612.416,-1985.03 626.192,-1990.71 639.481,-1994.71"/>
<polygon fill="black" stroke="black" points="638.932,-1998.19 649.501,-1997.46 640.783,-1991.44 638.932,-1998.19"/>
</g>
<!-- KernelTrait&#45;&gt;ExceptionManager -->
<g id="edge3" class="edge"><title>KernelTrait&#45;&gt;ExceptionManager</title>
<path fill="none" stroke="black" d="M487.073,-1870.27C525.399,-1864.93 583.098,-1856.9 627.197,-1850.76"/>
<polygon fill="black" stroke="black" points="627.818,-1854.2 637.24,-1849.36 626.852,-1847.27 627.818,-1854.2"/>
</g>
<!-- KernelTrait&#45;&gt;View -->
<g id="edge6" class="edge"><title>KernelTrait&#45;&gt;View</title>
<path fill="none" stroke="black" d="M504.131,-1875.22C525.783,-1872.02 548.976,-1864.69 565.073,-1849 611.693,-1803.55 556.112,-1754.09 601.073,-1707 614.745,-1692.68 635.738,-1685.88 653.903,-1682.69"/>
<polygon fill="black" stroke="black" points="654.526,-1686.14 663.915,-1681.23 653.514,-1679.21 654.526,-1686.14"/>
</g>
<!-- KernelTrait&#45;&gt;Configer -->
<g id="edge2" class="edge"><title>KernelTrait&#45;&gt;Configer</title>
<path fill="none" stroke="black" d="M479.929,-1883.86C503.959,-1889.72 536.795,-1898.36 565.073,-1908 581.479,-1913.59 584.759,-1917.14 601.073,-1923 617.404,-1928.86 635.707,-1934.56 651.449,-1939.2"/>
<polygon fill="black" stroke="black" points="650.797,-1942.66 661.377,-1942.09 652.752,-1935.93 650.797,-1942.66"/>
</g>
<!-- KernelTrait&#45;&gt;Route -->
<g id="edge4" class="edge"><title>KernelTrait&#45;&gt;Route</title>
<path fill="none" stroke="black" d="M500.917,-1874.34C522.993,-1871.12 547.351,-1864.01 565.073,-1849 597.321,-1821.69 569.825,-1789.45 601.073,-1761 613.927,-1749.3 631.71,-1742.66 648.002,-1738.9"/>
<polygon fill="black" stroke="black" points="648.783,-1742.32 657.897,-1736.91 647.403,-1735.45 648.783,-1742.32"/>
</g>
<!-- KernelTrait&#45;&gt;RuntimeState -->
<g id="edge5" class="edge"><title>KernelTrait&#45;&gt;RuntimeState</title>
<path fill="none" stroke="black" d="M491.208,-1871.51C514.344,-1867.82 542.335,-1861.12 565.073,-1849 584.493,-1838.65 582.037,-1826.04 601.073,-1815 613.323,-1807.89 627.627,-1802.49 641.139,-1798.45"/>
<polygon fill="black" stroke="black" points="642.11,-1801.81 650.797,-1795.75 640.223,-1795.07 642.11,-1801.81"/>
</g>
<!-- Functions -->
<g id="node20" class="node"><title>Functions</title>
<ellipse fill="none" stroke="black" cx="691.073" cy="-1896" rx="38.5652" ry="18"/>
<text text-anchor="middle" x="691.073" y="-1892.9" font-family="Times,serif" font-size="12.00">Functions</text>
</g>
<!-- KernelTrait&#45;&gt;Functions -->
<g id="edge7" class="edge"><title>KernelTrait&#45;&gt;Functions</title>
<path fill="none" stroke="black" d="M493.296,-1879.88C536.339,-1883.41 599.517,-1888.58 642.596,-1892.11"/>
<polygon fill="black" stroke="black" points="642.567,-1895.62 652.819,-1892.95 643.139,-1888.64 642.567,-1895.62"/>
</g>
<!-- ExceptionManager&#45;&gt;ComponentBase -->
<g id="edge19" class="edge"><title>ExceptionManager&#45;&gt;ComponentBase</title>
<path fill="none" stroke="black" stroke-dasharray="1,5" d="M744.643,-1833.54C759.798,-1829.52 775.807,-1823.62 789.073,-1815 831.803,-1787.24 866.364,-1737.94 885.129,-1707.22"/>
<polygon fill="black" stroke="black" points="888.317,-1708.71 890.437,-1698.32 882.307,-1705.12 888.317,-1708.71"/>
</g>
<!-- View&#45;&gt;ComponentBase -->
<g id="edge23" class="edge"><title>View&#45;&gt;ComponentBase</title>
<path fill="none" stroke="black" stroke-dasharray="1,5" d="M718.473,-1680C749.78,-1680 802.855,-1680 843.643,-1680"/>
<polygon fill="black" stroke="black" points="843.727,-1683.5 853.727,-1680 843.727,-1676.5 843.727,-1683.5"/>
</g>
<!-- Configer&#45;&gt;ComponentBase -->
<g id="edge20" class="edge"><title>Configer&#45;&gt;ComponentBase</title>
<path fill="none" stroke="black" stroke-dasharray="1,5" d="M720.969,-1948.34C742.016,-1945.74 770.054,-1939.22 789.073,-1923 856.495,-1865.5 885.338,-1758.61 895.645,-1707.98"/>
<polygon fill="black" stroke="black" points="899.099,-1708.55 897.571,-1698.07 892.228,-1707.22 899.099,-1708.55"/>
</g>
<!-- Logger&#45;&gt;ComponentBase -->
<g id="edge24" class="edge"><title>Logger&#45;&gt;ComponentBase</title>
<path fill="none" stroke="black" stroke-dasharray="1,5" d="M472.158,-1973.82C497.08,-1978.18 535.099,-1986.76 565.073,-2002 583.389,-2011.31 581.697,-2024.17 601.073,-2031 640.472,-2044.9 755.357,-2055.67 789.073,-2031 842.679,-1991.78 882.684,-1785 895.852,-1708.49"/>
<polygon fill="black" stroke="black" points="899.379,-1708.63 897.599,-1698.19 892.477,-1707.46 899.379,-1708.63"/>
</g>
<!-- Route&#45;&gt;ComponentBase -->
<g id="edge21" class="edge"><title>Route&#45;&gt;ComponentBase</title>
<path fill="none" stroke="black" stroke-dasharray="1,5" d="M716.803,-1727.59C747.953,-1719.52 802.426,-1705.41 843.993,-1694.64"/>
<polygon fill="black" stroke="black" points="844.92,-1698.02 853.723,-1692.12 843.165,-1691.24 844.92,-1698.02"/>
</g>
<!-- RuntimeState&#45;&gt;ComponentBase -->
<g id="edge22" class="edge"><title>RuntimeState&#45;&gt;ComponentBase</title>
<path fill="none" stroke="black" stroke-dasharray="1,5" d="M731.463,-1780.41C749.559,-1776.08 770.972,-1769.74 789.073,-1761 819.821,-1746.15 850.933,-1722.67 872.441,-1704.81"/>
<polygon fill="black" stroke="black" points="874.808,-1707.39 880.193,-1698.27 870.293,-1702.04 874.808,-1707.39"/>
</g>
<!-- ComponentInterface -->
<g id="node18" class="node"><title>ComponentInterface</title>
<polygon fill="none" stroke="black" points="1128.96,-1698 1021.96,-1698 1021.96,-1662 1134.96,-1662 1134.96,-1692 1128.96,-1698"/>
<polyline fill="none" stroke="black" points="1128.96,-1698 1128.96,-1692 "/>
<polyline fill="none" stroke="black" points="1134.96,-1692 1128.96,-1692 "/>
<text text-anchor="middle" x="1078.46" y="-1676.9" font-family="Times,serif" font-size="12.00">ComponentInterface</text>
</g>
<!-- ComponentBase&#45;&gt;ComponentInterface -->
<g id="edge25" class="edge"><title>ComponentBase&#45;&gt;ComponentInterface</title>
<path fill="none" stroke="black" d="M949.401,-1680C968.536,-1680 991.002,-1680 1011.73,-1680"/>
<polygon fill="black" stroke="black" points="1011.74,-1683.5 1021.74,-1680 1011.74,-1676.5 1011.74,-1683.5"/>
</g>
<!-- AppHelper -->
<g id="node21" class="node"><title>AppHelper</title>
<polygon fill="lightgrey" stroke="black" points="101.316,-2004 40.4359,-1986 101.316,-1968 162.196,-1986 101.316,-2004"/>
<polyline fill="none" stroke="black" points="51.9435,-1989.4 51.9435,-1982.6 "/>
<polyline fill="none" stroke="black" points="89.8084,-1971.4 112.824,-1971.4 "/>
<polyline fill="none" stroke="black" points="150.689,-1982.6 150.689,-1989.4 "/>
<polyline fill="none" stroke="black" points="112.824,-2000.6 89.8084,-2000.6 "/>
<text text-anchor="middle" x="101.316" y="-1982.9" font-family="Times,serif" font-size="12.00">AppHelper</text>
</g>
<!-- AppHelper&#45;&gt;App -->
<g id="edge26" class="edge"><title>AppHelper&#45;&gt;App</title>
<path fill="none" stroke="black" d="M141.873,-1979.96C159.128,-1975.99 178.952,-1969.5 194.632,-1959 214.751,-1945.53 231.368,-1923.23 241.988,-1906.44"/>
<polygon fill="black" stroke="black" points="245.054,-1908.13 247.255,-1897.77 239.071,-1904.5 245.054,-1908.13"/>
</g>
<!-- AppHelper&#45;&gt;ExtendableStaticCallTrait -->
<g id="edge31" class="edge"><title>AppHelper&#45;&gt;ExtendableStaticCallTrait</title>
<path fill="none" stroke="black" d="M140.51,-1992.48C197.928,-2002.23 307.261,-2020.8 377.811,-2032.77"/>
<polygon fill="black" stroke="black" points="377.483,-2036.27 387.928,-2034.49 378.655,-2029.37 377.483,-2036.27"/>
</g>
<!-- ControllerHelper -->
<g id="node22" class="node"><title>ControllerHelper</title>
<polygon fill="lightgrey" stroke="black" points="101.316,-1950 16.9251,-1932 101.316,-1914 185.707,-1932 101.316,-1950"/>
<polyline fill="none" stroke="black" points="28.6611,-1934.5 28.6611,-1929.5 "/>
<polyline fill="none" stroke="black" points="89.58,-1916.5 113.052,-1916.5 "/>
<polyline fill="none" stroke="black" points="173.971,-1929.5 173.971,-1934.5 "/>
<polyline fill="none" stroke="black" points="113.052,-1947.5 89.58,-1947.5 "/>
<text text-anchor="middle" x="101.316" y="-1928.9" font-family="Times,serif" font-size="12.00">ControllerHelper</text>
</g>
<!-- ControllerHelper&#45;&gt;App -->
<g id="edge27" class="edge"><title>ControllerHelper&#45;&gt;App</title>
<path fill="none" stroke="black" d="M138.84,-1921.79C155.86,-1916.91 176.346,-1910.87 194.632,-1905 204.784,-1901.74 215.818,-1897.96 225.627,-1894.51"/>
<polygon fill="black" stroke="black" points="227.065,-1897.71 235.317,-1891.07 224.723,-1891.11 227.065,-1897.71"/>
</g>
<!-- ControllerHelper&#45;&gt;ExtendableStaticCallTrait -->
<g id="edge32" class="edge"><title>ControllerHelper&#45;&gt;ExtendableStaticCallTrait</title>
<path fill="none" stroke="black" d="M139.426,-1941.92C156.385,-1946.69 176.658,-1952.73 194.632,-1959 253.609,-1979.57 265.594,-1992.08 324.795,-2012 345.113,-2018.84 367.755,-2025.22 387.798,-2030.46"/>
<polygon fill="black" stroke="black" points="387.153,-2033.9 397.71,-2033.01 388.9,-2027.13 387.153,-2033.9"/>
</g>
<!-- ModelHelper -->
<g id="node23" class="node"><title>ModelHelper</title>
<polygon fill="lightgrey" stroke="black" points="101.316,-1896 31.5243,-1878 101.316,-1860 171.108,-1878 101.316,-1896"/>
<polyline fill="none" stroke="black" points="43.144,-1881 43.144,-1875 "/>
<polyline fill="none" stroke="black" points="89.6962,-1863 112.936,-1863 "/>
<polyline fill="none" stroke="black" points="159.488,-1875 159.488,-1881 "/>
<polyline fill="none" stroke="black" points="112.936,-1893 89.6962,-1893 "/>
<text text-anchor="middle" x="101.316" y="-1874.9" font-family="Times,serif" font-size="12.00">ModelHelper</text>
</g>
<!-- ModelHelper&#45;&gt;App -->
<g id="edge28" class="edge"><title>ModelHelper&#45;&gt;App</title>
<path fill="none" stroke="black" d="M162.11,-1880.35C179.622,-1881.04 198.347,-1881.78 214.344,-1882.41"/>
<polygon fill="black" stroke="black" points="214.293,-1885.91 224.423,-1882.81 214.568,-1878.92 214.293,-1885.91"/>
</g>
<!-- ModelHelper&#45;&gt;ExtendableStaticCallTrait -->
<g id="edge33" class="edge"><title>ModelHelper&#45;&gt;ExtendableStaticCallTrait</title>
<path fill="none" stroke="black" d="M139.092,-1886.27C156.351,-1890.78 176.962,-1897.06 194.632,-1905 239.684,-1925.23 252.442,-1930.57 288.795,-1964 308.425,-1982.05 302.709,-1997.06 324.795,-2012 338.677,-2021.39 355.205,-2028.03 371.464,-2032.73"/>
<polygon fill="black" stroke="black" points="370.963,-2036.21 381.527,-2035.4 372.763,-2029.45 370.963,-2036.21"/>
</g>
<!-- ServiceHelper -->
<g id="node24" class="node"><title>ServiceHelper</title>
<polygon fill="lightgrey" stroke="black" points="101.316,-2112 28.0598,-2094 101.316,-2076 174.572,-2094 101.316,-2112"/>
<polyline fill="none" stroke="black" points="39.7131,-2096.86 39.7131,-2091.14 "/>
<polyline fill="none" stroke="black" points="89.6626,-2078.86 112.969,-2078.86 "/>
<polyline fill="none" stroke="black" points="162.919,-2091.14 162.919,-2096.86 "/>
<polyline fill="none" stroke="black" points="112.969,-2109.14 89.6626,-2109.14 "/>
<text text-anchor="middle" x="101.316" y="-2090.9" font-family="Times,serif" font-size="12.00">ServiceHelper</text>
</g>
<!-- ServiceHelper&#45;&gt;App -->
<g id="edge29" class="edge"><title>ServiceHelper&#45;&gt;App</title>
<path fill="none" stroke="black" d="M152.403,-2088.49C167.581,-2084.59 183.233,-2078.03 194.632,-2067 237.993,-2025.03 250.077,-1951.3 253.433,-1911.44"/>
<polygon fill="black" stroke="black" points="256.93,-1911.6 254.154,-1901.38 249.948,-1911.1 256.93,-1911.6"/>
</g>
<!-- ServiceHelper&#45;&gt;ExtendableStaticCallTrait -->
<g id="edge34" class="edge"><title>ServiceHelper&#45;&gt;ExtendableStaticCallTrait</title>
<path fill="none" stroke="black" d="M147.68,-2087.36C205.341,-2078.92 305.506,-2064.26 373.229,-2054.35"/>
<polygon fill="black" stroke="black" points="374.004,-2057.77 383.392,-2052.86 372.99,-2050.85 374.004,-2057.77"/>
</g>
<!-- ViewHelper -->
<g id="node25" class="node"><title>ViewHelper</title>
<polygon fill="lightgrey" stroke="black" points="101.316,-2058 36.2296,-2040 101.316,-2022 166.402,-2040 101.316,-2058"/>
<polyline fill="none" stroke="black" points="47.7955,-2043.2 47.7955,-2036.8 "/>
<polyline fill="none" stroke="black" points="89.7502,-2025.2 112.882,-2025.2 "/>
<polyline fill="none" stroke="black" points="154.837,-2036.8 154.837,-2043.2 "/>
<polyline fill="none" stroke="black" points="112.882,-2054.8 89.7502,-2054.8 "/>
<text text-anchor="middle" x="101.316" y="-2036.9" font-family="Times,serif" font-size="12.00">ViewHelper</text>
</g>
<!-- ViewHelper&#45;&gt;App -->
<g id="edge30" class="edge"><title>ViewHelper&#45;&gt;App</title>
<path fill="none" stroke="black" d="M147.372,-2034.72C163.753,-2030.89 181.459,-2024.32 194.632,-2013 226.01,-1986.04 242.045,-1939.17 249.383,-1909.96"/>
<polygon fill="black" stroke="black" points="252.827,-1910.6 251.706,-1900.06 246.013,-1909 252.827,-1910.6"/>
</g>
<!-- ViewHelper&#45;&gt;ExtendableStaticCallTrait -->
<g id="edge35" class="edge"><title>ViewHelper&#45;&gt;ExtendableStaticCallTrait</title>
<path fill="none" stroke="black" d="M164.181,-2040.72C208.345,-2041.24 269.188,-2041.95 322.855,-2042.58"/>
<polygon fill="black" stroke="black" points="323.096,-2046.09 333.136,-2042.7 323.178,-2039.09 323.096,-2046.09"/>
</g>
<!-- Db_Db -->
<g id="node26" class="node"><title>Db_Db</title>
<polygon fill="lightgrey" stroke="black" points="691.073,-106 663.356,-88 691.073,-70 718.79,-88 691.073,-106"/>
<polyline fill="none" stroke="black" points="672.595,-94 672.595,-82 "/>
<polyline fill="none" stroke="black" points="681.834,-76 700.312,-76 "/>
<polyline fill="none" stroke="black" points="709.551,-82 709.551,-94 "/>
<polyline fill="none" stroke="black" points="700.312,-100 681.834,-100 "/>
<text text-anchor="middle" x="691.073" y="-84.9" font-family="Times,serif" font-size="12.00">Db</text>
</g>
<!-- Db_DbAdvanceTrait -->
<g id="node27" class="node"><title>Db_DbAdvanceTrait</title>
<polygon fill="none" stroke="black" points="901.519,-106 817.128,-88 901.519,-70 985.91,-88 901.519,-106"/>
<text text-anchor="middle" x="901.519" y="-84.9" font-family="Times,serif" font-size="12.00">DbAdvanceTrait</text>
</g>
<!-- Db_Db&#45;&gt;Db_DbAdvanceTrait -->
<g id="edge36" class="edge"><title>Db_Db&#45;&gt;Db_DbAdvanceTrait</title>
<path fill="none" stroke="black" d="M718.897,-88C741.32,-88 774.694,-88 806.738,-88"/>
<polygon fill="black" stroke="black" points="807.08,-91.5001 817.08,-88 807.08,-84.5001 807.08,-91.5001"/>
</g>
<!-- Db_DbInterface -->
<g id="node28" class="node"><title>Db_DbInterface</title>
<polygon fill="none" stroke="black" points="932.019,-52 865.019,-52 865.019,-16 938.019,-16 938.019,-46 932.019,-52"/>
<polyline fill="none" stroke="black" points="932.019,-52 932.019,-46 "/>
<polyline fill="none" stroke="black" points="938.019,-46 932.019,-46 "/>
<text text-anchor="middle" x="901.519" y="-30.9" font-family="Times,serif" font-size="12.00">DbInterface</text>
</g>
<!-- Db_Db&#45;&gt;Db_DbInterface -->
<g id="edge37" class="edge"><title>Db_Db&#45;&gt;Db_DbInterface</title>
<path fill="none" stroke="black" d="M711.31,-83.0166C743.73,-74.6178 810.097,-57.4247 854.959,-45.8027"/>
<polygon fill="black" stroke="black" points="855.942,-49.1636 864.745,-43.2676 854.187,-42.3873 855.942,-49.1636"/>
</g>
<!-- AppPluginTrait -->
<g id="node29" class="node"><title>AppPluginTrait</title>
<polygon fill="lightgrey" stroke="black" points="444.934,-1594 365.49,-1576 444.934,-1558 524.379,-1576 444.934,-1594"/>
<polyline fill="none" stroke="black" points="377.193,-1578.65 377.193,-1573.35 "/>
<polyline fill="none" stroke="black" points="433.231,-1560.65 456.638,-1560.65 "/>
<polyline fill="none" stroke="black" points="512.676,-1573.35 512.676,-1578.65 "/>
<polyline fill="none" stroke="black" points="456.638,-1591.35 433.231,-1591.35 "/>
<text text-anchor="middle" x="444.934" y="-1572.9" font-family="Times,serif" font-size="12.00">AppPluginTrait</text>
</g>
<!-- AppPluginTrait&#45;&gt;View -->
<g id="edge39" class="edge"><title>AppPluginTrait&#45;&gt;View</title>
<path fill="none" stroke="black" stroke-dasharray="5,2" d="M470.62,-1588.29C500.977,-1603.21 554.245,-1628.76 601.073,-1648 618.304,-1655.08 637.743,-1662.17 654.047,-1667.87"/>
<polygon fill="black" stroke="black" points="653.152,-1671.26 663.747,-1671.23 655.442,-1664.65 653.152,-1671.26"/>
</g>
<!-- AppPluginTrait&#45;&gt;Configer -->
<g id="edge38" class="edge"><title>AppPluginTrait&#45;&gt;Configer</title>
<path fill="none" stroke="black" stroke-dasharray="5,2" d="M477.38,-1586.66C505.251,-1597.85 544.61,-1618.29 565.073,-1650 631.429,-1752.83 521.887,-1829.69 601.073,-1923 613.445,-1937.58 633.414,-1944.45 651.306,-1947.62"/>
<polygon fill="black" stroke="black" points="650.849,-1951.09 661.247,-1949.06 651.852,-1944.16 650.849,-1951.09"/>
</g>
<!-- AppPluginTrait&#45;&gt;Route -->
<g id="edge40" class="edge"><title>AppPluginTrait&#45;&gt;Route</title>
<path fill="none" stroke="black" stroke-dasharray="5,2" d="M472.451,-1588.07C498.291,-1600.79 537.595,-1622.73 565.073,-1650 586.34,-1671.11 577.239,-1688.84 601.073,-1707 615.114,-1717.7 633.391,-1724.18 649.727,-1728.1"/>
<polygon fill="black" stroke="black" points="649.079,-1731.54 659.592,-1730.22 650.552,-1724.7 649.079,-1731.54"/>
</g>
<!-- Cache -->
<g id="node30" class="node"><title>Cache</title>
<polygon fill="none" stroke="black" points="471.934,-1432 417.934,-1432 417.934,-1428 413.934,-1428 413.934,-1424 417.934,-1424 417.934,-1404 413.934,-1404 413.934,-1400 417.934,-1400 417.934,-1396 471.934,-1396 471.934,-1432"/>
<polyline fill="none" stroke="black" points="417.934,-1428 421.934,-1428 421.934,-1424 417.934,-1424 "/>
<polyline fill="none" stroke="black" points="417.934,-1404 421.934,-1404 421.934,-1400 417.934,-1400 "/>
<text text-anchor="middle" x="444.934" y="-1410.9" font-family="Times,serif" font-size="12.00">Cache</text>
</g>
<!-- Cache&#45;&gt;ComponentBase -->
<g id="edge41" class="edge"><title>Cache&#45;&gt;ComponentBase</title>
<path fill="none" stroke="black" stroke-dasharray="1,5" d="M472.3,-1413.18C498.768,-1413.76 539.227,-1418.69 565.073,-1441 598.623,-1469.96 567.187,-1505.43 601.073,-1534 666.248,-1588.95 713.642,-1532.29 789.073,-1572 826.986,-1591.96 860.801,-1628.8 880.979,-1653.84"/>
<polygon fill="black" stroke="black" points="878.346,-1656.15 887.286,-1661.84 883.843,-1651.82 878.346,-1656.15"/>
</g>
<!-- Console -->
<g id="node31" class="node"><title>Console</title>
<polygon fill="lightgrey" stroke="black" points="691.073,-1270 642.568,-1252 691.073,-1234 739.578,-1252 691.073,-1270"/>
<polyline fill="none" stroke="black" points="653.818,-1256.17 653.818,-1247.83 "/>
<polyline fill="none" stroke="black" points="679.823,-1238.17 702.324,-1238.17 "/>
<polyline fill="none" stroke="black" points="728.328,-1247.83 728.328,-1256.17 "/>
<polyline fill="none" stroke="black" points="702.324,-1265.83 679.823,-1265.83 "/>
<text text-anchor="middle" x="691.073" y="-1248.9" font-family="Times,serif" font-size="12.00">Console</text>
</g>
<!-- DbManager -->
<g id="node32" class="node"><title>DbManager</title>
<polygon fill="none" stroke="black" points="481.934,-1378 407.934,-1378 407.934,-1374 403.934,-1374 403.934,-1370 407.934,-1370 407.934,-1350 403.934,-1350 403.934,-1346 407.934,-1346 407.934,-1342 481.934,-1342 481.934,-1378"/>
<polyline fill="none" stroke="black" points="407.934,-1374 411.934,-1374 411.934,-1370 407.934,-1370 "/>
<polyline fill="none" stroke="black" points="407.934,-1350 411.934,-1350 411.934,-1346 407.934,-1346 "/>
<text text-anchor="middle" x="444.934" y="-1356.9" font-family="Times,serif" font-size="12.00">DbManager</text>
</g>
<!-- DbManager&#45;&gt;ComponentBase -->
<g id="edge43" class="edge"><title>DbManager&#45;&gt;ComponentBase</title>
<path fill="none" stroke="black" stroke-dasharray="1,5" d="M481.958,-1359.22C508.079,-1360.57 542.622,-1366.61 565.073,-1387 602.84,-1421.3 562.907,-1462.14 601.073,-1496 664.844,-1552.57 716.809,-1488.78 789.073,-1534 835.573,-1563.1 869.901,-1619.01 887.42,-1652.57"/>
<polygon fill="black" stroke="black" points="884.462,-1654.47 892.112,-1661.8 890.703,-1651.3 884.462,-1654.47"/>
</g>
<!-- DbManager&#45;&gt;Db_Db -->
<g id="edge52" class="edge"><title>DbManager&#45;&gt;Db_Db</title>
<path fill="none" stroke="black" stroke-dasharray="5,2" d="M482.117,-1362.57C509.404,-1362.32 545.386,-1356.9 565.073,-1333 649.46,-1230.55 532.8,-252.821 601.073,-139 614.22,-117.083 640.597,-103.711 661.239,-96.1917"/>
<polygon fill="black" stroke="black" points="662.471,-99.4701 670.829,-92.9588 660.235,-92.8369 662.471,-99.4701"/>
</g>
<!-- DuckPhpCommand -->
<g id="node33" class="node"><title>DuckPhpCommand</title>
<polygon fill="none" stroke="black" points="500.434,-1270 389.434,-1270 389.434,-1266 385.434,-1266 385.434,-1262 389.434,-1262 389.434,-1242 385.434,-1242 385.434,-1238 389.434,-1238 389.434,-1234 500.434,-1234 500.434,-1270"/>
<polyline fill="none" stroke="black" points="389.434,-1266 393.434,-1266 393.434,-1262 389.434,-1262 "/>
<polyline fill="none" stroke="black" points="389.434,-1242 393.434,-1242 393.434,-1238 389.434,-1238 "/>
<text text-anchor="middle" x="444.934" y="-1248.9" font-family="Times,serif" font-size="12.00">DuckPhpCommand</text>
</g>
<!-- DuckPhpCommand&#45;&gt;ComponentBase -->
<g id="edge42" class="edge"><title>DuckPhpCommand&#45;&gt;ComponentBase</title>
<path fill="none" stroke="black" stroke-dasharray="1,5" d="M500.457,-1252.29C523.119,-1255.19 548.051,-1262.43 565.073,-1279 611.423,-1324.11 554.199,-1375.44 601.073,-1420 662.854,-1478.74 721.34,-1406.24 789.073,-1458 853.584,-1507.3 883.483,-1604.15 894.79,-1651.95"/>
<polygon fill="black" stroke="black" points="891.423,-1652.93 897.043,-1661.91 898.25,-1651.39 891.423,-1652.93"/>
</g>
<!-- DuckPhpCommand&#45;&gt;Console -->
<g id="edge49" class="edge"><title>DuckPhpCommand&#45;&gt;Console</title>
<path fill="none" stroke="black" d="M500.724,-1252C539.91,-1252 592.549,-1252 632.379,-1252"/>
<polygon fill="black" stroke="black" points="632.472,-1255.5 642.472,-1252 632.472,-1248.5 632.472,-1255.5"/>
</g>
<!-- Installer -->
<g id="node35" class="node"><title>Installer</title>
<polygon fill="none" stroke="black" points="718.073,-1378 664.073,-1378 664.073,-1374 660.073,-1374 660.073,-1370 664.073,-1370 664.073,-1350 660.073,-1350 660.073,-1346 664.073,-1346 664.073,-1342 718.073,-1342 718.073,-1378"/>
<polyline fill="none" stroke="black" points="664.073,-1374 668.073,-1374 668.073,-1370 664.073,-1370 "/>
<polyline fill="none" stroke="black" points="664.073,-1350 668.073,-1350 668.073,-1346 664.073,-1346 "/>
<text text-anchor="middle" x="691.073" y="-1356.9" font-family="Times,serif" font-size="12.00">Installer</text>
</g>
<!-- DuckPhpCommand&#45;&gt;Installer -->
<g id="edge50" class="edge"><title>DuckPhpCommand&#45;&gt;Installer</title>
<path fill="none" stroke="black" d="M500.734,-1255.67C522.277,-1259.24 546.293,-1266.07 565.073,-1279 588.833,-1295.35 577.914,-1315.81 601.073,-1333 616.318,-1344.32 636.337,-1350.94 653.527,-1354.78"/>
<polygon fill="black" stroke="black" points="653.304,-1358.31 663.797,-1356.84 654.677,-1351.44 653.304,-1358.31"/>
</g>
<!-- X_HttpServer -->
<g id="node40" class="node"><title>X_HttpServer</title>
<polygon fill="none" stroke="black" points="758.573,-1318 605.573,-1318 605.573,-1294 758.573,-1294 758.573,-1288 776.573,-1306 758.573,-1324 758.573,-1318"/>
<text text-anchor="middle" x="691.073" y="-1302.9" font-family="Times,serif" font-size="12.00">DuckPhp\HttpServer\HttpServer</text>
</g>
<!-- DuckPhpCommand&#45;&gt;X_HttpServer -->
<g id="edge51" class="edge"><title>DuckPhpCommand&#45;&gt;X_HttpServer</title>
<path fill="none" stroke="black" stroke-dasharray="5,2" d="M500.724,-1264.12C529.518,-1270.49 565.575,-1278.46 598.476,-1285.74"/>
<polygon fill="black" stroke="black" points="598.054,-1289.23 608.574,-1287.97 599.566,-1282.4 598.054,-1289.23"/>
</g>
<!-- EventManager -->
<g id="node34" class="node"><title>EventManager</title>
<polygon fill="none" stroke="black" points="487.934,-1324 401.934,-1324 401.934,-1320 397.934,-1320 397.934,-1316 401.934,-1316 401.934,-1296 397.934,-1296 397.934,-1292 401.934,-1292 401.934,-1288 487.934,-1288 487.934,-1324"/>
<polyline fill="none" stroke="black" points="401.934,-1320 405.934,-1320 405.934,-1316 401.934,-1316 "/>
<polyline fill="none" stroke="black" points="401.934,-1296 405.934,-1296 405.934,-1292 401.934,-1292 "/>
<text text-anchor="middle" x="444.934" y="-1302.9" font-family="Times,serif" font-size="12.00">EventManager</text>
</g>
<!-- EventManager&#45;&gt;ComponentBase -->
<g id="edge44" class="edge"><title>EventManager&#45;&gt;ComponentBase</title>
<path fill="none" stroke="black" stroke-dasharray="1,5" d="M488.097,-1305.32C513.442,-1307.15 544.639,-1313.71 565.073,-1333 607.113,-1372.69 558.572,-1418.81 601.073,-1458 663.741,-1515.79 719.34,-1446.97 789.073,-1496 844.556,-1535.01 877.405,-1611.27 891.811,-1652.3"/>
<polygon fill="black" stroke="black" points="888.55,-1653.58 895.079,-1661.93 895.179,-1651.33 888.55,-1653.58"/>
</g>
<!-- Installer&#45;&gt;ComponentBase -->
<g id="edge45" class="edge"><title>Installer&#45;&gt;ComponentBase</title>
<path fill="none" stroke="black" stroke-dasharray="1,5" d="M718.277,-1362.49C739.806,-1365.84 769.795,-1373.67 789.073,-1392 865.183,-1464.36 890.068,-1594.59 897.559,-1651.78"/>
<polygon fill="black" stroke="black" points="894.108,-1652.39 898.8,-1661.89 901.056,-1651.54 894.108,-1652.39"/>
</g>
<!-- Pager -->
<g id="node36" class="node"><title>Pager</title>
<polygon fill="none" stroke="black" points="471.934,-1216 417.934,-1216 417.934,-1212 413.934,-1212 413.934,-1208 417.934,-1208 417.934,-1188 413.934,-1188 413.934,-1184 417.934,-1184 417.934,-1180 471.934,-1180 471.934,-1216"/>
<polyline fill="none" stroke="black" points="417.934,-1212 421.934,-1212 421.934,-1208 417.934,-1208 "/>
<polyline fill="none" stroke="black" points="417.934,-1188 421.934,-1188 421.934,-1184 417.934,-1184 "/>
<text text-anchor="middle" x="444.934" y="-1194.9" font-family="Times,serif" font-size="12.00">Pager</text>
</g>
<!-- Pager&#45;&gt;ComponentBase -->
<g id="edge46" class="edge"><title>Pager&#45;&gt;ComponentBase</title>
<path fill="none" stroke="black" stroke-dasharray="1,5" d="M472.022,-1196.4C499.05,-1196.26 540.68,-1200.5 565.073,-1225 617.117,-1277.26 547.762,-1336.03 601.073,-1387 662.391,-1445.62 722.569,-1367.33 789.073,-1420 863.607,-1479.03 889.145,-1597.47 897.167,-1651.7"/>
<polygon fill="black" stroke="black" points="893.707,-1652.23 898.547,-1661.66 900.641,-1651.27 893.707,-1652.23"/>
</g>
<!-- PagerInterface -->
<g id="node37" class="node"><title>PagerInterface</title>
<polygon fill="none" stroke="black" points="727.573,-1216 648.573,-1216 648.573,-1180 733.573,-1180 733.573,-1210 727.573,-1216"/>
<polyline fill="none" stroke="black" points="727.573,-1216 727.573,-1210 "/>
<polyline fill="none" stroke="black" points="733.573,-1210 727.573,-1210 "/>
<text text-anchor="middle" x="691.073" y="-1194.9" font-family="Times,serif" font-size="12.00">PagerInterface</text>
</g>
<!-- Pager&#45;&gt;PagerInterface -->
<g id="edge53" class="edge"><title>Pager&#45;&gt;PagerInterface</title>
<path fill="none" stroke="black" d="M472.061,-1198C511.534,-1198 587.165,-1198 638.125,-1198"/>
<polygon fill="black" stroke="black" points="638.286,-1201.5 648.286,-1198 638.286,-1194.5 638.286,-1201.5"/>
</g>
<!-- RouteHookPathInfoCompat -->
<g id="node38" class="node"><title>RouteHookPathInfoCompat</title>
<polygon fill="none" stroke="black" points="519.934,-1540 369.934,-1540 369.934,-1536 365.934,-1536 365.934,-1532 369.934,-1532 369.934,-1512 365.934,-1512 365.934,-1508 369.934,-1508 369.934,-1504 519.934,-1504 519.934,-1540"/>
<polyline fill="none" stroke="black" points="369.934,-1536 373.934,-1536 373.934,-1532 369.934,-1532 "/>
<polyline fill="none" stroke="black" points="369.934,-1512 373.934,-1512 373.934,-1508 369.934,-1508 "/>
<text text-anchor="middle" x="444.934" y="-1518.9" font-family="Times,serif" font-size="12.00">RouteHookPathInfoCompat</text>
</g>
<!-- RouteHookPathInfoCompat&#45;&gt;ComponentBase -->
<g id="edge47" class="edge"><title>RouteHookPathInfoCompat&#45;&gt;ComponentBase</title>
<path fill="none" stroke="black" stroke-dasharray="1,5" d="M520.183,-1529.1C536.053,-1533.18 551.966,-1539.44 565.073,-1549 590.506,-1567.55 575.659,-1591.42 601.073,-1610 670.269,-1660.58 705.642,-1633.35 789.073,-1653 806.892,-1657.2 826.288,-1661.86 843.83,-1666.12"/>
<polygon fill="black" stroke="black" points="843.375,-1669.61 853.919,-1668.57 845.028,-1662.81 843.375,-1669.61"/>
</g>
<!-- RouteHookRouteMap -->
<g id="node39" class="node"><title>RouteHookRouteMap</title>
<polygon fill="none" stroke="black" points="505.934,-1486 383.934,-1486 383.934,-1482 379.934,-1482 379.934,-1478 383.934,-1478 383.934,-1458 379.934,-1458 379.934,-1454 383.934,-1454 383.934,-1450 505.934,-1450 505.934,-1486"/>
<polyline fill="none" stroke="black" points="383.934,-1482 387.934,-1482 387.934,-1478 383.934,-1478 "/>
<polyline fill="none" stroke="black" points="383.934,-1458 387.934,-1458 387.934,-1454 383.934,-1454 "/>
<text text-anchor="middle" x="444.934" y="-1464.9" font-family="Times,serif" font-size="12.00">RouteHookRouteMap</text>
</g>
<!-- RouteHookRouteMap&#45;&gt;ComponentBase -->
<g id="edge48" class="edge"><title>RouteHookRouteMap&#45;&gt;ComponentBase</title>
<path fill="none" stroke="black" stroke-dasharray="1,5" d="M506.033,-1470.98C526.548,-1474.59 548.475,-1481.63 565.073,-1495 594.492,-1518.7 571.379,-1548.65 601.073,-1572 668.078,-1624.7 709.913,-1578.37 789.073,-1610 817.791,-1621.47 847.295,-1640.38 868.727,-1655.66"/>
<polygon fill="black" stroke="black" points="866.953,-1658.7 877.102,-1661.74 871.064,-1653.03 866.953,-1658.7"/>
</g>
<!-- DuckPhp -->
<g id="node41" class="node"><title>DuckPhp</title>
<polygon fill="lightgrey" stroke="black" points="101.316,-1378 47.3651,-1360 101.316,-1342 155.267,-1360 101.316,-1378"/>
<polyline fill="none" stroke="black" points="58.7483,-1363.8 58.7483,-1356.2 "/>
<polyline fill="none" stroke="black" points="89.9328,-1345.8 112.699,-1345.8 "/>
<polyline fill="none" stroke="black" points="143.884,-1356.2 143.884,-1363.8 "/>
<polyline fill="none" stroke="black" points="112.699,-1374.2 89.9328,-1374.2 "/>
<text text-anchor="middle" x="101.316" y="-1356.9" font-family="Times,serif" font-size="12.00">DuckPhp</text>
</g>
<!-- DuckPhp&#45;&gt;App -->
<g id="edge54" class="edge"><title>DuckPhp&#45;&gt;App</title>
<path fill="none" stroke="black" d="M107.044,-1376.26C128.96,-1451.61 220.727,-1767.14 247.408,-1858.88"/>
<polygon fill="black" stroke="black" points="244.11,-1860.07 250.263,-1868.7 250.831,-1858.12 244.11,-1860.07"/>
</g>
<!-- DuckPhp&#45;&gt;Cache -->
<g id="edge60" class="edge"><title>DuckPhp&#45;&gt;Cache</title>
<path fill="none" stroke="black" d="M138.552,-1365.73C204.24,-1376.11 342.241,-1397.93 407.832,-1408.29"/>
<polygon fill="black" stroke="black" points="407.291,-1411.75 417.715,-1409.86 408.384,-1404.84 407.291,-1411.75"/>
</g>
<!-- DuckPhp&#45;&gt;Console -->
<g id="edge61" class="edge"><title>DuckPhp&#45;&gt;Console</title>
<path fill="none" stroke="black" d="M112.142,-1345.56C139.859,-1306.44 223.289,-1199.44 324.795,-1171 427.625,-1142.19 470.919,-1120.61 565.073,-1171 590.505,-1184.61 577.914,-1207.81 601.073,-1225 614.047,-1234.63 630.479,-1240.86 645.682,-1244.87"/>
<polygon fill="black" stroke="black" points="644.907,-1248.29 655.447,-1247.2 646.533,-1241.48 644.907,-1248.29"/>
</g>
<!-- DuckPhp&#45;&gt;DbManager -->
<g id="edge57" class="edge"><title>DuckPhp&#45;&gt;DbManager</title>
<path fill="none" stroke="black" d="M155.319,-1360C221.714,-1360 334.412,-1360 397.545,-1360"/>
<polygon fill="black" stroke="black" points="397.612,-1363.5 407.612,-1360 397.611,-1356.5 397.612,-1363.5"/>
</g>
<!-- DuckPhp&#45;&gt;DuckPhpCommand -->
<g id="edge62" class="edge"><title>DuckPhp&#45;&gt;DuckPhpCommand</title>
<path fill="none" stroke="black" d="M126.343,-1350.11C166.784,-1333.73 251.248,-1300.63 324.795,-1279 342.229,-1273.87 361.339,-1269.15 379.051,-1265.14"/>
<polygon fill="black" stroke="black" points="380.292,-1268.45 389.294,-1262.87 378.773,-1261.62 380.292,-1268.45"/>
</g>
<!-- DuckPhp&#45;&gt;EventManager -->
<g id="edge58" class="edge"><title>DuckPhp&#45;&gt;EventManager</title>
<path fill="none" stroke="black" d="M138.552,-1354.27C199.273,-1344.67 321.785,-1325.31 391.773,-1314.25"/>
<polygon fill="black" stroke="black" points="392.374,-1317.69 401.705,-1312.68 391.281,-1310.78 392.374,-1317.69"/>
</g>
<!-- DuckPhp&#45;&gt;Pager -->
<g id="edge56" class="edge"><title>DuckPhp&#45;&gt;Pager</title>
<path fill="none" stroke="black" d="M118.28,-1347.51C153.441,-1320.65 241.11,-1257.24 324.795,-1225 351.689,-1214.64 383.601,-1207.67 407.626,-1203.41"/>
<polygon fill="black" stroke="black" points="408.458,-1206.82 417.732,-1201.7 407.287,-1199.92 408.458,-1206.82"/>
</g>
<!-- DuckPhp&#45;&gt;RouteHookPathInfoCompat -->
<g id="edge59" class="edge"><title>DuckPhp&#45;&gt;RouteHookPathInfoCompat</title>
<path fill="none" stroke="black" d="M118.297,-1372.45C153.491,-1399.22 241.221,-1462.47 324.795,-1495 335.913,-1499.33 347.897,-1503.06 359.829,-1506.24"/>
<polygon fill="black" stroke="black" points="359.266,-1509.71 369.821,-1508.79 360.996,-1502.93 359.266,-1509.71"/>
</g>
<!-- DuckPhp&#45;&gt;RouteHookRouteMap -->
<g id="edge55" class="edge"><title>DuckPhp&#45;&gt;RouteHookRouteMap</title>
<path fill="none" stroke="black" d="M126.343,-1369.89C166.784,-1386.27 251.248,-1419.37 324.795,-1441 340.55,-1445.63 357.673,-1449.93 373.896,-1453.68"/>
<polygon fill="black" stroke="black" points="373.334,-1457.14 383.861,-1455.94 374.881,-1450.31 373.334,-1457.14"/>
</g>
<!-- CallableView -->
<g id="node42" class="node"><title>CallableView</title>
<polygon fill="none" stroke="black" points="485.934,-997 403.934,-997 403.934,-993 399.934,-993 399.934,-989 403.934,-989 403.934,-969 399.934,-969 399.934,-965 403.934,-965 403.934,-961 485.934,-961 485.934,-997"/>
<polyline fill="none" stroke="black" points="403.934,-993 407.934,-993 407.934,-989 403.934,-989 "/>
<polyline fill="none" stroke="black" points="403.934,-969 407.934,-969 407.934,-965 403.934,-965 "/>
<text text-anchor="middle" x="444.934" y="-975.9" font-family="Times,serif" font-size="12.00">CallableView</text>
</g>
<!-- X_Core_View -->
<g id="node64" class="node"><title>X_Core_View</title>
<polygon fill="none" stroke="black" points="731.573,-991 632.573,-991 632.573,-967 731.573,-967 731.573,-961 749.573,-979 731.573,-997 731.573,-991"/>
<text text-anchor="middle" x="691.073" y="-975.9" font-family="Times,serif" font-size="12.00">DuckPhp\Core\View</text>
</g>
<!-- CallableView&#45;&gt;X_Core_View -->
<g id="edge79" class="edge"><title>CallableView&#45;&gt;X_Core_View</title>
<path fill="none" stroke="black" stroke-dasharray="5,2" d="M485.976,-979C522.873,-979 578.379,-979 622.197,-979"/>
<polygon fill="black" stroke="black" points="622.21,-982.5 632.21,-979 622.21,-975.5 622.21,-982.5"/>
</g>
<!-- EmptyView -->
<g id="node43" class="node"><title>EmptyView</title>
<polygon fill="none" stroke="black" points="481.934,-835 407.934,-835 407.934,-831 403.934,-831 403.934,-827 407.934,-827 407.934,-807 403.934,-807 403.934,-803 407.934,-803 407.934,-799 481.934,-799 481.934,-835"/>
<polyline fill="none" stroke="black" points="407.934,-831 411.934,-831 411.934,-827 407.934,-827 "/>
<polyline fill="none" stroke="black" points="407.934,-807 411.934,-807 411.934,-803 407.934,-803 "/>
<text text-anchor="middle" x="444.934" y="-813.9" font-family="Times,serif" font-size="12.00">EmptyView</text>
</g>
<!-- EmptyView&#45;&gt;X_Core_View -->
<g id="edge80" class="edge"><title>EmptyView&#45;&gt;X_Core_View</title>
<path fill="none" stroke="black" stroke-dasharray="5,2" d="M481.941,-816.238C508.054,-817.602 542.594,-823.641 565.073,-844 602.575,-877.965 564.813,-916.713 601.073,-952 607.379,-958.136 615.033,-962.884 623.175,-966.555"/>
<polygon fill="black" stroke="black" points="621.943,-969.832 632.529,-970.26 624.521,-963.324 621.943,-969.832"/>
</g>
<!-- ExceptionWrapper -->
<g id="node44" class="node"><title>ExceptionWrapper</title>
<polygon fill="none" stroke="black" points="497.934,-1051 391.934,-1051 391.934,-1047 387.934,-1047 387.934,-1043 391.934,-1043 391.934,-1023 387.934,-1023 387.934,-1019 391.934,-1019 391.934,-1015 497.934,-1015 497.934,-1051"/>
<polyline fill="none" stroke="black" points="391.934,-1047 395.934,-1047 395.934,-1043 391.934,-1043 "/>
<polyline fill="none" stroke="black" points="391.934,-1023 395.934,-1023 395.934,-1019 391.934,-1019 "/>
<text text-anchor="middle" x="444.934" y="-1029.9" font-family="Times,serif" font-size="12.00">ExceptionWrapper</text>
</g>
<!-- ExceptionWrapper&#45;&gt;ComponentBase -->
<g id="edge63" class="edge"><title>ExceptionWrapper&#45;&gt;ComponentBase</title>
<path fill="none" stroke="black" stroke-dasharray="1,5" d="M498.011,-1043.9C591.47,-1063.67 778.934,-1104.38 789.073,-1115 864.358,-1193.83 892.247,-1548.29 898.861,-1651.64"/>
<polygon fill="black" stroke="black" points="895.386,-1652.14 899.501,-1661.91 902.372,-1651.71 895.386,-1652.14"/>
</g>
<!-- HookChain -->
<g id="node45" class="node"><title>HookChain</title>
<ellipse fill="none" stroke="black" cx="444.934" cy="-925" rx="44.1452" ry="18"/>
<text text-anchor="middle" x="444.934" y="-921.9" font-family="Times,serif" font-size="12.00">HookChain</text>
</g>
<!-- JsonRpcClientBase -->
<g id="node46" class="node"><title>JsonRpcClientBase</title>
<polygon fill="none" stroke="black" points="499.434,-781 390.434,-781 390.434,-777 386.434,-777 386.434,-773 390.434,-773 390.434,-753 386.434,-753 386.434,-749 390.434,-749 390.434,-745 499.434,-745 499.434,-781"/>
<polyline fill="none" stroke="black" points="390.434,-777 394.434,-777 394.434,-773 390.434,-773 "/>
<polyline fill="none" stroke="black" points="390.434,-753 394.434,-753 394.434,-749 390.434,-749 "/>
<text text-anchor="middle" x="444.934" y="-759.9" font-family="Times,serif" font-size="12.00">JsonRpcClientBase</text>
</g>
<!-- JsonRpcClientBase&#45;&gt;ComponentBase -->
<g id="edge87" class="edge"><title>JsonRpcClientBase&#45;&gt;ComponentBase</title>
<path fill="none" stroke="black" stroke-dasharray="1,5" d="M499.615,-762.442C522.813,-765.077 548.405,-772.341 565.073,-790 631.878,-860.776 537.02,-932.725 601.073,-1006 658.622,-1071.83 731.07,-998.565 789.073,-1064 868.267,-1153.34 893.614,-1543.04 899.209,-1651.75"/>
<polygon fill="black" stroke="black" points="895.723,-1652.12 899.717,-1661.93 902.714,-1651.77 895.723,-1652.12"/>
</g>
<!-- JsonRpcExt -->
<g id="node47" class="node"><title>JsonRpcExt</title>
<polygon fill="none" stroke="black" points="728.073,-943 654.073,-943 654.073,-939 650.073,-939 650.073,-935 654.073,-935 654.073,-915 650.073,-915 650.073,-911 654.073,-911 654.073,-907 728.073,-907 728.073,-943"/>
<polyline fill="none" stroke="black" points="654.073,-939 658.073,-939 658.073,-935 654.073,-935 "/>
<polyline fill="none" stroke="black" points="654.073,-915 658.073,-915 658.073,-911 654.073,-911 "/>
<text text-anchor="middle" x="691.073" y="-921.9" font-family="Times,serif" font-size="12.00">JsonRpcExt</text>
</g>
<!-- JsonRpcClientBase&#45;&gt;JsonRpcExt -->
<g id="edge86" class="edge"><title>JsonRpcClientBase&#45;&gt;JsonRpcExt</title>
<path fill="none" stroke="black" stroke-dasharray="5,2" d="M499.601,-755.606C522.239,-757.83 547.389,-764.983 565.073,-781 602.575,-814.965 564.813,-853.713 601.073,-889 612.654,-900.27 628.782,-906.855 644.132,-911.233"/>
<polygon fill="black" stroke="black" points="643.491,-914.683 654.051,-913.818 645.257,-907.909 643.491,-914.683"/>
</g>
<!-- JsonRpcExt&#45;&gt;ComponentBase -->
<g id="edge64" class="edge"><title>JsonRpcExt&#45;&gt;ComponentBase</title>
<path fill="none" stroke="black" stroke-dasharray="1,5" d="M728.477,-925.829C749.215,-928.303 773.993,-935 789.073,-952 883.489,-1058.44 897.971,-1530.01 900.144,-1651.42"/>
<polygon fill="black" stroke="black" points="896.649,-1651.8 900.313,-1661.74 903.648,-1651.68 896.649,-1651.8"/>
</g>
<!-- JsonRpcExt&#45;&gt;JsonRpcClientBase -->
<g id="edge85" class="edge"><title>JsonRpcExt&#45;&gt;JsonRpcClientBase</title>
<path fill="none" stroke="black" d="M654.051,-929.87C636.065,-927.515 615.191,-920.739 601.073,-907 564.813,-871.713 602.575,-832.965 565.073,-799 549.945,-785.298 529.353,-778.083 509.544,-773.935"/>
<polygon fill="black" stroke="black" points="510.074,-770.473 499.601,-772.078 508.789,-777.354 510.074,-770.473"/>
</g>
<!-- JsonView -->
<g id="node48" class="node"><title>JsonView</title>
<polygon fill="none" stroke="black" points="476.934,-889 412.934,-889 412.934,-885 408.934,-885 408.934,-881 412.934,-881 412.934,-861 408.934,-861 408.934,-857 412.934,-857 412.934,-853 476.934,-853 476.934,-889"/>
<polyline fill="none" stroke="black" points="412.934,-885 416.934,-885 416.934,-881 412.934,-881 "/>
<polyline fill="none" stroke="black" points="412.934,-861 416.934,-861 416.934,-857 412.934,-857 "/>
<text text-anchor="middle" x="444.934" y="-867.9" font-family="Times,serif" font-size="12.00">JsonView</text>
</g>
<!-- JsonView&#45;&gt;X_Core_View -->
<g id="edge88" class="edge"><title>JsonView&#45;&gt;X_Core_View</title>
<path fill="none" stroke="black" stroke-dasharray="5,2" d="M477.076,-871.797C502.712,-873.835 538.955,-880.023 565.073,-898 588.833,-914.354 577.914,-934.805 601.073,-952 607.617,-956.859 615.04,-960.851 622.742,-964.13"/>
<polygon fill="black" stroke="black" points="621.644,-967.458 632.234,-967.786 624.16,-960.925 621.644,-967.458"/>
</g>
<!-- Misc -->
<g id="node49" class="node"><title>Misc</title>
<polygon fill="none" stroke="black" points="471.934,-241 417.934,-241 417.934,-237 413.934,-237 413.934,-233 417.934,-233 417.934,-213 413.934,-213 413.934,-209 417.934,-209 417.934,-205 471.934,-205 471.934,-241"/>
<polyline fill="none" stroke="black" points="417.934,-237 421.934,-237 421.934,-233 417.934,-233 "/>
<polyline fill="none" stroke="black" points="417.934,-213 421.934,-213 421.934,-209 417.934,-209 "/>
<text text-anchor="middle" x="444.934" y="-219.9" font-family="Times,serif" font-size="12.00">Misc</text>
</g>
<!-- Misc&#45;&gt;ComponentBase -->
<g id="edge65" class="edge"><title>Misc&#45;&gt;ComponentBase</title>
<path fill="none" stroke="black" stroke-dasharray="1,5" d="M471.943,-221.255C544.234,-217.011 745.142,-209.534 789.073,-254 891.046,-357.214 899.714,-1460.49 900.45,-1651.8"/>
<polygon fill="black" stroke="black" points="896.951,-1651.91 900.485,-1661.9 903.951,-1651.89 896.951,-1651.91"/>
</g>
<!-- MyFacadesAutoLoader -->
<g id="node50" class="node"><title>MyFacadesAutoLoader</title>
<polygon fill="none" stroke="black" points="509.434,-727 380.434,-727 380.434,-723 376.434,-723 376.434,-719 380.434,-719 380.434,-699 376.434,-699 376.434,-695 380.434,-695 380.434,-691 509.434,-691 509.434,-727"/>
<polyline fill="none" stroke="black" points="380.434,-723 384.434,-723 384.434,-719 380.434,-719 "/>
<polyline fill="none" stroke="black" points="380.434,-699 384.434,-699 384.434,-695 380.434,-695 "/>
<text text-anchor="middle" x="444.934" y="-705.9" font-family="Times,serif" font-size="12.00">MyFacadesAutoLoader</text>
</g>
<!-- MyFacadesAutoLoader&#45;&gt;ComponentBase -->
<g id="edge67" class="edge"><title>MyFacadesAutoLoader&#45;&gt;ComponentBase</title>
<path fill="none" stroke="black" stroke-dasharray="1,5" d="M509.768,-695.34C537.658,-690.034 570.84,-684.611 601.073,-682 684.319,-674.81 726.798,-626.292 789.073,-682 863.543,-748.617 894.008,-1496.24 899.562,-1651.77"/>
<polygon fill="black" stroke="black" points="896.069,-1652.05 899.919,-1661.92 903.065,-1651.81 896.069,-1652.05"/>
</g>
<!-- MyFacadesBase -->
<g id="node51" class="node"><title>MyFacadesBase</title>
<polygon fill="none" stroke="black" points="738.573,-889 643.573,-889 643.573,-885 639.573,-885 639.573,-881 643.573,-881 643.573,-861 639.573,-861 639.573,-857 643.573,-857 643.573,-853 738.573,-853 738.573,-889"/>
<polyline fill="none" stroke="black" points="643.573,-885 647.573,-885 647.573,-881 643.573,-881 "/>
<polyline fill="none" stroke="black" points="643.573,-861 647.573,-861 647.573,-857 643.573,-857 "/>
<text text-anchor="middle" x="691.073" y="-867.9" font-family="Times,serif" font-size="12.00">MyFacadesBase</text>
</g>
<!-- MyFacadesAutoLoader&#45;&gt;MyFacadesBase -->
<g id="edge82" class="edge"><title>MyFacadesAutoLoader&#45;&gt;MyFacadesBase</title>
<path fill="none" stroke="black" d="M509.693,-702.915C529.456,-706.119 549.983,-713.332 565.073,-727 602.575,-760.965 564.813,-799.713 601.073,-835 610.021,-843.708 621.684,-849.619 633.605,-853.876"/>
<polygon fill="black" stroke="black" points="632.583,-857.223 643.174,-856.957 634.728,-850.56 632.583,-857.223"/>
</g>
<!-- MyFacadesBase&#45;&gt;ComponentBase -->
<g id="edge66" class="edge"><title>MyFacadesBase&#45;&gt;ComponentBase</title>
<path fill="none" stroke="black" stroke-dasharray="1,5" d="M738.608,-873.274C756.874,-876.596 776.445,-883.615 789.073,-898 890.387,-1013.41 899.728,-1525.45 900.479,-1651.76"/>
<polygon fill="black" stroke="black" points="896.979,-1651.82 900.525,-1661.8 903.979,-1651.79 896.979,-1651.82"/>
</g>
<!-- MyFacadesBase&#45;&gt;MyFacadesAutoLoader -->
<g id="edge81" class="edge"><title>MyFacadesBase&#45;&gt;MyFacadesAutoLoader</title>
<path fill="none" stroke="black" stroke-dasharray="5,2" d="M643.174,-873.947C628.114,-870.579 612.413,-864.036 601.073,-853 564.813,-817.713 602.575,-778.965 565.073,-745 552.458,-733.575 536.045,-726.659 519.454,-722.272"/>
<polygon fill="black" stroke="black" points="520.229,-718.859 509.693,-719.966 518.62,-725.671 520.229,-718.859"/>
</g>
<!-- MyMiddlewareManager -->
<g id="node52" class="node"><title>MyMiddlewareManager</title>
<polygon fill="none" stroke="black" points="510.934,-673 378.934,-673 378.934,-669 374.934,-669 374.934,-665 378.934,-665 378.934,-645 374.934,-645 374.934,-641 378.934,-641 378.934,-637 510.934,-637 510.934,-673"/>
<polyline fill="none" stroke="black" points="378.934,-669 382.934,-669 382.934,-665 378.934,-665 "/>
<polyline fill="none" stroke="black" points="378.934,-645 382.934,-645 382.934,-641 378.934,-641 "/>
<text text-anchor="middle" x="444.934" y="-651.9" font-family="Times,serif" font-size="12.00">MyMiddlewareManager</text>
</g>
<!-- MyMiddlewareManager&#45;&gt;ComponentBase -->
<g id="edge68" class="edge"><title>MyMiddlewareManager&#45;&gt;ComponentBase</title>
<path fill="none" stroke="black" stroke-dasharray="1,5" d="M511.098,-644.471C599.133,-631.87 749.612,-616.586 789.073,-652 865.726,-720.792 894.508,-1492.38 899.647,-1651.43"/>
<polygon fill="black" stroke="black" points="896.161,-1651.92 899.976,-1661.8 903.157,-1651.7 896.161,-1651.92"/>
</g>
<!-- RouteHookManager -->
<g id="node57" class="node"><title>RouteHookManager</title>
<polygon fill="none" stroke="black" points="748.073,-835 634.073,-835 634.073,-831 630.073,-831 630.073,-827 634.073,-827 634.073,-807 630.073,-807 630.073,-803 634.073,-803 634.073,-799 748.073,-799 748.073,-835"/>
<polyline fill="none" stroke="black" points="634.073,-831 638.073,-831 638.073,-827 634.073,-827 "/>
<polyline fill="none" stroke="black" points="634.073,-807 638.073,-807 638.073,-803 634.073,-803 "/>
<text text-anchor="middle" x="691.073" y="-813.9" font-family="Times,serif" font-size="12.00">RouteHookManager</text>
</g>
<!-- MyMiddlewareManager&#45;&gt;RouteHookManager -->
<g id="edge83" class="edge"><title>MyMiddlewareManager&#45;&gt;RouteHookManager</title>
<path fill="none" stroke="black" d="M511.238,-657.735C530.521,-661.499 550.376,-668.688 565.073,-682 602.575,-715.965 564.813,-754.713 601.073,-790 607.702,-796.451 615.82,-801.366 624.429,-805.111"/>
<polygon fill="black" stroke="black" points="623.326,-808.436 633.916,-808.732 625.822,-801.896 623.326,-808.436"/>
</g>
<!-- X_Core_Route -->
<g id="node63" class="node"><title>X_Core_Route</title>
<polygon fill="none" stroke="black" points="732.573,-775 631.573,-775 631.573,-751 732.573,-751 732.573,-745 750.573,-763 732.573,-781 732.573,-775"/>
<text text-anchor="middle" x="691.073" y="-759.9" font-family="Times,serif" font-size="12.00">DuckPhp\Core\Route</text>
</g>
<!-- MyMiddlewareManager&#45;&gt;X_Core_Route -->
<g id="edge84" class="edge"><title>MyMiddlewareManager&#45;&gt;X_Core_Route</title>
<path fill="none" stroke="black" stroke-dasharray="5,2" d="M511.109,-660.618C529.742,-664.555 549.263,-671.118 565.073,-682 588.833,-698.354 577.914,-718.805 601.073,-736 607.363,-740.67 614.465,-744.539 621.846,-747.744"/>
<polygon fill="black" stroke="black" points="620.716,-751.061 631.304,-751.459 623.275,-744.545 620.716,-751.061"/>
</g>
<!-- RedisManager -->
<g id="node53" class="node"><title>RedisManager</title>
<polygon fill="none" stroke="black" points="487.934,-565 401.934,-565 401.934,-561 397.934,-561 397.934,-557 401.934,-557 401.934,-537 397.934,-537 397.934,-533 401.934,-533 401.934,-529 487.934,-529 487.934,-565"/>
<polyline fill="none" stroke="black" points="401.934,-561 405.934,-561 405.934,-557 401.934,-557 "/>
<polyline fill="none" stroke="black" points="401.934,-537 405.934,-537 405.934,-533 401.934,-533 "/>
<text text-anchor="middle" x="444.934" y="-543.9" font-family="Times,serif" font-size="12.00">RedisManager</text>
</g>
<!-- RedisManager&#45;&gt;ComponentBase -->
<g id="edge69" class="edge"><title>RedisManager&#45;&gt;ComponentBase</title>
<path fill="none" stroke="black" stroke-dasharray="1,5" d="M487.954,-543.137C569.993,-536.59 747.135,-527.657 789.073,-568 869.633,-645.496 895.464,-1484.61 899.817,-1651.31"/>
<polygon fill="black" stroke="black" points="896.329,-1651.81 900.084,-1661.72 903.327,-1651.63 896.329,-1651.81"/>
</g>
<!-- RedisCache -->
<g id="node54" class="node"><title>RedisCache</title>
<polygon fill="none" stroke="black" points="481.934,-511 407.934,-511 407.934,-507 403.934,-507 403.934,-503 407.934,-503 407.934,-483 403.934,-483 403.934,-479 407.934,-479 407.934,-475 481.934,-475 481.934,-511"/>
<polyline fill="none" stroke="black" points="407.934,-507 411.934,-507 411.934,-503 407.934,-503 "/>
<polyline fill="none" stroke="black" points="407.934,-483 411.934,-483 411.934,-479 407.934,-479 "/>
<text text-anchor="middle" x="444.934" y="-489.9" font-family="Times,serif" font-size="12.00">RedisCache</text>
</g>
<!-- RedisCache&#45;&gt;ComponentBase -->
<g id="edge70" class="edge"><title>RedisCache&#45;&gt;ComponentBase</title>
<path fill="none" stroke="black" stroke-dasharray="1,5" d="M481.972,-484.464C552.191,-470.204 707.575,-450.691 789.073,-534 869.775,-616.496 895.566,-1482.69 899.843,-1651.55"/>
<polygon fill="black" stroke="black" points="896.347,-1651.74 900.094,-1661.65 903.345,-1651.57 896.347,-1651.74"/>
</g>
<!-- RouteHookApiServer -->
<g id="node55" class="node"><title>RouteHookApiServer</title>
<polygon fill="none" stroke="black" points="505.434,-457 384.434,-457 384.434,-453 380.434,-453 380.434,-449 384.434,-449 384.434,-429 380.434,-429 380.434,-425 384.434,-425 384.434,-421 505.434,-421 505.434,-457"/>
<polyline fill="none" stroke="black" points="384.434,-453 388.434,-453 388.434,-449 384.434,-449 "/>
<polyline fill="none" stroke="black" points="384.434,-429 388.434,-429 388.434,-425 384.434,-425 "/>
<text text-anchor="middle" x="444.934" y="-435.9" font-family="Times,serif" font-size="12.00">RouteHookApiServer</text>
</g>
<!-- RouteHookApiServer&#45;&gt;ComponentBase -->
<g id="edge71" class="edge"><title>RouteHookApiServer&#45;&gt;ComponentBase</title>
<path fill="none" stroke="black" stroke-dasharray="1,5" d="M505.695,-435.261C593.318,-431.184 750.462,-429.672 789.073,-468 875.97,-554.258 896.871,-1477.83 900.048,-1651.82"/>
<polygon fill="black" stroke="black" points="896.551,-1652.03 900.229,-1661.97 903.55,-1651.91 896.551,-1652.03"/>
</g>
<!-- RouteHookDirectoryMode -->
<g id="node56" class="node"><title>RouteHookDirectoryMode</title>
<polygon fill="none" stroke="black" points="517.434,-403 372.434,-403 372.434,-399 368.434,-399 368.434,-395 372.434,-395 372.434,-375 368.434,-375 368.434,-371 372.434,-371 372.434,-367 517.434,-367 517.434,-403"/>
<polyline fill="none" stroke="black" points="372.434,-399 376.434,-399 376.434,-395 372.434,-395 "/>
<polyline fill="none" stroke="black" points="372.434,-375 376.434,-375 376.434,-371 372.434,-371 "/>
<text text-anchor="middle" x="444.934" y="-381.9" font-family="Times,serif" font-size="12.00">RouteHookDirectoryMode</text>
</g>
<!-- RouteHookDirectoryMode&#45;&gt;ComponentBase -->
<g id="edge72" class="edge"><title>RouteHookDirectoryMode&#45;&gt;ComponentBase</title>
<path fill="none" stroke="black" stroke-dasharray="1,5" d="M517.744,-371.088C596.244,-360.473 720.026,-358.028 789.073,-430 876.609,-521.244 897.03,-1474.86 900.076,-1651.83"/>
<polygon fill="black" stroke="black" points="896.578,-1651.96 900.245,-1661.9 903.577,-1651.85 896.578,-1651.96"/>
</g>
<!-- RouteHookManager&#45;&gt;ComponentBase -->
<g id="edge73" class="edge"><title>RouteHookManager&#45;&gt;ComponentBase</title>
<path fill="none" stroke="black" stroke-dasharray="1,5" d="M748.259,-821.297C763.526,-825.193 778.69,-832.064 789.073,-844 897.15,-968.243 901.343,-1519.53 900.768,-1651.53"/>
<polygon fill="black" stroke="black" points="897.268,-1651.63 900.711,-1661.65 904.268,-1651.67 897.268,-1651.63"/>
</g>
<!-- RouteHookRewrite -->
<g id="node58" class="node"><title>RouteHookRewrite</title>
<polygon fill="none" stroke="black" points="499.934,-349 389.934,-349 389.934,-345 385.934,-345 385.934,-341 389.934,-341 389.934,-321 385.934,-321 385.934,-317 389.934,-317 389.934,-313 499.934,-313 499.934,-349"/>
<polyline fill="none" stroke="black" points="389.934,-345 393.934,-345 393.934,-341 389.934,-341 "/>
<polyline fill="none" stroke="black" points="389.934,-321 393.934,-321 393.934,-317 389.934,-317 "/>
<text text-anchor="middle" x="444.934" y="-327.9" font-family="Times,serif" font-size="12.00">RouteHookRewrite</text>
</g>
<!-- RouteHookRewrite&#45;&gt;ComponentBase -->
<g id="edge74" class="edge"><title>RouteHookRewrite&#45;&gt;ComponentBase</title>
<path fill="none" stroke="black" stroke-dasharray="1,5" d="M500.074,-327.838C586.483,-324.062 749.851,-322.552 789.073,-362 883.283,-456.752 898.307,-1468.64 900.259,-1651.69"/>
<polygon fill="black" stroke="black" points="896.761,-1651.9 900.363,-1661.86 903.76,-1651.83 896.761,-1651.9"/>
</g>
<!-- SimpleModel -->
<g id="node59" class="node"><title>SimpleModel</title>
<polygon fill="none" stroke="black" points="499.434,-187 390.434,-187 390.434,-183 386.434,-183 386.434,-179 390.434,-179 390.434,-159 386.434,-159 386.434,-155 390.434,-155 390.434,-151 499.434,-151 499.434,-187"/>
<polyline fill="none" stroke="black" points="390.434,-183 394.434,-183 394.434,-179 390.434,-179 "/>
<polyline fill="none" stroke="black" points="390.434,-159 394.434,-159 394.434,-155 390.434,-155 "/>
<text text-anchor="middle" x="444.934" y="-165.9" font-family="Times,serif" font-size="12.00">SimpleModel(todo)</text>
</g>
<!-- SimpleModel&#45;&gt;ComponentBase -->
<g id="edge75" class="edge"><title>SimpleModel&#45;&gt;ComponentBase</title>
<path fill="none" stroke="black" stroke-dasharray="1,5" d="M499.703,-157.853C576.102,-145.501 715.002,-136.555 789.073,-215 891.501,-323.475 899.792,-1457.27 900.46,-1651.7"/>
<polygon fill="black" stroke="black" points="896.961,-1651.96 900.491,-1661.95 903.961,-1651.94 896.961,-1651.96"/>
</g>
<!-- SimpleModel&#45;&gt;Db_Db -->
<g id="edge89" class="edge"><title>SimpleModel&#45;&gt;Db_Db</title>
<path fill="none" stroke="black" stroke-dasharray="5,2" d="M499.512,-151.224C549.892,-134.509 623.286,-110.159 662.668,-97.0925"/>
<polygon fill="black" stroke="black" points="663.981,-100.344 672.37,-93.8735 661.777,-93.7006 663.981,-100.344"/>
</g>
<!-- StaticReplacer -->
<g id="node60" class="node"><title>StaticReplacer</title>
<polygon fill="none" stroke="black" points="487.434,-295 402.434,-295 402.434,-291 398.434,-291 398.434,-287 402.434,-287 402.434,-267 398.434,-267 398.434,-263 402.434,-263 402.434,-259 487.434,-259 487.434,-295"/>
<polyline fill="none" stroke="black" points="402.434,-291 406.434,-291 406.434,-287 402.434,-287 "/>
<polyline fill="none" stroke="black" points="402.434,-267 406.434,-267 406.434,-263 402.434,-263 "/>
<text text-anchor="middle" x="444.934" y="-273.9" font-family="Times,serif" font-size="12.00">StaticReplacer</text>
</g>
<!-- StaticReplacer&#45;&gt;ComponentBase -->
<g id="edge76" class="edge"><title>StaticReplacer&#45;&gt;ComponentBase</title>
<path fill="none" stroke="black" stroke-dasharray="1,5" d="M487.488,-267.982C560.296,-254.892 710.627,-240.421 789.073,-323 883.95,-422.876 898.447,-1466.01 900.281,-1651.78"/>
<polygon fill="black" stroke="black" points="896.781,-1651.88 900.376,-1661.85 903.781,-1651.81 896.781,-1651.88"/>
</g>
<!-- StrictCheck -->
<g id="node61" class="node"><title>StrictCheck</title>
<polygon fill="none" stroke="black" points="480.934,-619 408.934,-619 408.934,-615 404.934,-615 404.934,-611 408.934,-611 408.934,-591 404.934,-591 404.934,-587 408.934,-587 408.934,-583 480.934,-583 480.934,-619"/>
<polyline fill="none" stroke="black" points="408.934,-615 412.934,-615 412.934,-611 408.934,-611 "/>
<polyline fill="none" stroke="black" points="408.934,-591 412.934,-591 412.934,-587 408.934,-587 "/>
<text text-anchor="middle" x="444.934" y="-597.9" font-family="Times,serif" font-size="12.00">StrictCheck</text>
</g>
<!-- StrictCheck&#45;&gt;ComponentBase -->
<g id="edge77" class="edge"><title>StrictCheck&#45;&gt;ComponentBase</title>
<path fill="none" stroke="black" stroke-dasharray="1,5" d="M481.125,-590.836C550.538,-573.176 705.584,-545.963 789.073,-627 864.912,-700.611 894.429,-1491.69 899.648,-1651.83"/>
<polygon fill="black" stroke="black" points="896.151,-1651.97 899.97,-1661.85 903.147,-1651.74 896.151,-1651.97"/>
</g>
<!-- X_DbManager -->
<g id="node65" class="node"><title>X_DbManager</title>
<polygon fill="none" stroke="black" points="763.073,-721 601.073,-721 601.073,-697 763.073,-697 763.073,-691 781.073,-709 763.073,-727 763.073,-721"/>
<text text-anchor="middle" x="691.073" y="-705.9" font-family="Times,serif" font-size="12.00">DuckPhp\Component\DbManager</text>
</g>
<!-- StrictCheck&#45;&gt;X_DbManager -->
<g id="edge90" class="edge"><title>StrictCheck&#45;&gt;X_DbManager</title>
<path fill="none" stroke="black" stroke-dasharray="5,2" d="M481.084,-605.632C505.355,-609.624 538.006,-616.591 565.073,-628 599.605,-642.556 635.096,-666.587 659.396,-684.703"/>
<polygon fill="black" stroke="black" points="657.418,-687.595 667.504,-690.839 661.642,-682.014 657.418,-687.595"/>
</g>
<!-- SuperGlobalContext -->
<g id="node62" class="node"><title>SuperGlobalContext</title>
<polygon fill="none" stroke="black" points="501.934,-1105 387.934,-1105 387.934,-1101 383.934,-1101 383.934,-1097 387.934,-1097 387.934,-1077 383.934,-1077 383.934,-1073 387.934,-1073 387.934,-1069 501.934,-1069 501.934,-1105"/>
<polyline fill="none" stroke="black" points="387.934,-1101 391.934,-1101 391.934,-1097 387.934,-1097 "/>
<polyline fill="none" stroke="black" points="387.934,-1077 391.934,-1077 391.934,-1073 387.934,-1073 "/>
<text text-anchor="middle" x="444.934" y="-1083.9" font-family="Times,serif" font-size="12.00">SuperGlobalContext</text>
</g>
<!-- SuperGlobalContext&#45;&gt;ComponentBase -->
<g id="edge78" class="edge"><title>SuperGlobalContext&#45;&gt;ComponentBase</title>
<path fill="none" stroke="black" stroke-dasharray="1,5" d="M502.171,-1096.9C594.237,-1113.6 768.963,-1147.53 789.073,-1168 857.989,-1238.13 889.982,-1554.89 898.269,-1651.77"/>
<polygon fill="black" stroke="black" points="894.801,-1652.29 899.123,-1661.96 901.776,-1651.7 894.801,-1652.29"/>
</g>
</g>
</svg>
